<?xml version="1.0" encoding="iso-8859-1"?>
<!-- Generator: Adobe Illustrator 16.0.0, SVG Export Plug-In . SVG Version: 6.00 Build 0)  -->
<!DOCTYPE svg PUBLIC "-//W3C//DTD SVG 1.1//EN" "http://www.w3.org/Graphics/SVG/1.1/DTD/svg11.dtd">
<svg version="1.1" id="Capa_1" xmlns="http://www.w3.org/2000/svg" xmlns:xlink="http://www.w3.org/1999/xlink" x="0px" y="0px"
	 width="517.996px" height="517.996px" viewBox="0 0 517.996 517.996" style="enable-background:new 0 0 517.996 517.996;"
	 xml:space="preserve">
<g>
	<path d="M382.122,384.223c0.314-2.977,0.677-6.281,1.051-9.855c50.748-37.927,83.701-98.391,83.701-166.491
		C466.874,93.253,373.621,0,258.998,0C144.376,0,51.123,93.253,51.123,207.876c0,68.428,33.373,129.009,84.537,166.878
		c0.052,4.379,0.076,8.629,0.041,12.692c-0.029,2.009,0.058,3.923,0.222,5.757c-2.773,1.973-5.057,4.146-6.621,6.551
		c-17.854,27.359-18.246,109.741-18.257,113.221l-0.017,5.021h303.721l0.094-4.904c0.21-10.766,1.46-105.748-21.579-123.357
		C390.506,387.609,386.676,385.812,382.122,384.223z M133.989,154.599c-7.801,43.094-1.641,124.063,0.823,188.684
		c-36.672-33.63-59.775-81.845-59.775-135.407c0-101.445,82.517-183.961,183.961-183.961c101.451,0,183.962,82.517,183.962,183.961
		c0,52.091-21.778,99.138-56.705,132.628c4.951-61.562,8.408-152.07-9.703-189.35c-27.733-57.136-81.227-73.84-112.328-56.021
		c-0.992-0.035-1.944-0.181-2.925-0.181c-1.641,0-3.24,0.216-4.858,0.286C206.364,79.311,143.407,102.484,133.989,154.599z
		 M297.685,329.913V381l19.478-0.607l-52.098,115.674l-51.741-115.136l19.075,1.144v-48.949
		c-36.841-13.674-64.358-52.758-68.218-100.015l7.543-2.633v17.195h79.924v-14.865h19.296v14.865h79.93v-20.686l7.823,0.625
		C356.735,274.003,332.05,313.332,297.685,329.913z M179.798,239.614v-35.872h63.78v35.872H179.798z M279.036,239.614v-35.872h63.78
		v35.872H279.036z M350.874,216.919v-21.223h-79.93v14.859h-19.296v-14.859h-79.924v24.166l-8.034,2.785
		c0-0.315-0.023-0.637-0.023-0.958c0-6.802,0.583-13.44,1.53-19.933c2.727-6.516,5.99-12.494,9.412-19.693
		c7.397-15.642,16.091-21.176,16.091-21.176s44.414,19.875,93.673,15.653c-10.136-7.526-10.136-22.589-10.241-32.24
		c24.615,13.37,63.594,21.941,73.916,24.084c6.422,14.83,10.206,31.505,10.72,49.178L350.874,216.919z"/>
</g>
<g>
</g>
<g>
</g>
<g>
</g>
<g>
</g>
<g>
</g>
<g>
</g>
<g>
</g>
<g>
</g>
<g>
</g>
<g>
</g>
<g>
</g>
<g>
</g>
<g>
</g>
<g>
</g>
<g>
</g>
</svg>
