<?xml version="1.0" encoding="UTF-8" standalone="no"?>
<svg
   xmlns:dc="http://purl.org/dc/elements/1.1/"
   xmlns:cc="http://creativecommons.org/ns#"
   xmlns:rdf="http://www.w3.org/1999/02/22-rdf-syntax-ns#"
   xmlns:svg="http://www.w3.org/2000/svg"
   xmlns="http://www.w3.org/2000/svg"
   xmlns:sodipodi="http://sodipodi.sourceforge.net/DTD/sodipodi-0.dtd"
   xmlns:inkscape="http://www.inkscape.org/namespaces/inkscape"
   width="233.66614"
   height="228.50476"
   viewBox="0 0 61.824165 60.458549"
   version="1.1"
   id="svg1034"
   inkscape:version="1.0.1 (3bc2e813f5, 2020-09-07)"
   sodipodi:docname="abacus.svg"
   inkscape:export-filename="C:\Users\keega\Documents\cannlytics\assets\images\illustrations\multi-tone\abacus.png"
   inkscape:export-xdpi="96"
   inkscape:export-ydpi="96">
  <defs
     id="defs1028">
    <clipPath
       clipPathUnits="userSpaceOnUse"
       id="clipPath1824">
      <path
         d="m 466.283,741.164 h 63.482 v -19.581 h -63.482 z"
         id="path1822"
         inkscape:connector-curvature="0" />
    </clipPath>
    <filter
       inkscape:collect="always"
       style="color-interpolation-filters:sRGB"
       id="filter2910"
       x="-5.4985312e-05"
       width="1.00011"
       y="-3.485019e-05"
       height="1.0000697">
      <feGaussianBlur
         inkscape:collect="always"
         stdDeviation="0.00076839824"
         id="feGaussianBlur2912" />
    </filter>
  </defs>
  <sodipodi:namedview
     id="base"
     pagecolor="#323443"
     bordercolor="#666666"
     borderopacity="1.0"
     inkscape:pageopacity="0"
     inkscape:pageshadow="2"
     inkscape:zoom="1.4"
     inkscape:cx="108.88343"
     inkscape:cy="135.25169"
     inkscape:document-units="mm"
     inkscape:current-layer="layer1"
     inkscape:document-rotation="0"
     showgrid="false"
     inkscape:window-width="1624"
     inkscape:window-height="997"
     inkscape:window-x="230"
     inkscape:window-y="94"
     inkscape:window-maximized="0"
     units="px" />
  <metadata
     id="metadata1031">
    <rdf:RDF>
      <cc:Work
         rdf:about="">
        <dc:format>image/svg+xml</dc:format>
        <dc:type
           rdf:resource="http://purl.org/dc/dcmitype/StillImage" />
        <dc:title></dc:title>
      </cc:Work>
    </rdf:RDF>
  </metadata>
  <g
     inkscape:label="Layer 1"
     inkscape:groupmode="layer"
     id="layer1"
     transform="translate(-75.677204,-103.57435)"
     style="filter:url(#filter2910)">
    <path
       fill="#ffa88a"
       d="m 128.63791,109.99113 v 47.625 a 1.7638889,1.7638889 0 0 1 -3.52777,0 v -47.625 a 1.7638889,1.7638889 0 0 1 1.76387,-1.7639 1.7638889,1.7638889 0 0 1 1.7639,1.7639 z"
       id="path2"
       style="stroke-width:0.881943" />
    <path
       fill="#fd9467"
       d="m 128.63791,109.99113 v 32.54377 a 24.138819,24.138819 0 0 1 -3.52777,2.58407 v -35.12784 a 1.7638889,1.7638889 0 0 1 1.76387,-1.7639 1.7638889,1.7638889 0 0 1 1.7639,1.7639 z"
       id="path4"
       style="stroke-width:0.881943" />
    <path
       fill="#ffa88a"
       d="m 88.068467,109.99113 v 47.625 a 1.7639,1.7639 0 0 1 -3.5278,0 v -47.625 a 1.7638889,1.7638889 0 0 1 1.7639,-1.7639 1.7638889,1.7638889 0 0 1 1.7639,1.7639 z"
       id="path6"
       style="stroke-width:0.881943" />
    <path
       fill="#fd9467"
       d="m 88.068467,109.99113 v 32.54377 a 24.138819,24.138819 0 0 1 -3.5278,2.58407 v -35.12784 a 1.7638889,1.7638889 0 0 1 1.7639,-1.7639 1.7638889,1.7638889 0 0 1 1.7639,1.7639 z"
       id="path8"
       style="stroke-width:0.881943" />
    <circle
       cx="94.242073"
       cy="117.92862"
       r="2.6458333"
       fill="#61c3b6"
       id="circle10"
       style="stroke-width:0.881943" />
    <circle
       cx="118.93653"
       cy="133.8036"
       r="2.6458333"
       fill="#61c3b6"
       id="circle12"
       style="stroke-width:0.881943" />
    <circle
       cx="94.242073"
       cy="149.67865"
       r="2.6458333"
       fill="#61c3b6"
       id="circle14"
       style="stroke-width:0.881943" />
    <path
       fill="#4e5b5f"
       d="m 126.87401,107.3453 a 2.6458333,2.6458333 0 0 0 -2.64584,2.64583 v 7.05557 h -8.9429 a 3.5277777,3.5277777 0 0 0 -6.8086,0 h -2.01083 a 3.5277777,3.5277777 0 0 0 -6.808633,0 h -2.01084 a 3.5277777,3.5277777 0 0 0 -6.8086,0 h -1.88736 v -7.05557 a 2.645835,2.645835 0 0 0 -5.29167,0 v 47.625 a 2.645835,2.645835 0 0 0 5.29167,0 v -7.05556 h 1.88736 a 3.5277777,3.5277777 0 0 0 6.8086,0 h 2.01084 a 3.5277777,3.5277777 0 0 0 6.808633,0 h 9.06637 a 3.5277777,3.5277777 0 0 0 6.80863,0 h 1.88733 v 7.05556 a 2.645835,2.645835 0 0 0 5.29167,0 v -47.625 a 2.6458333,2.6458333 0 0 0 -2.64583,-2.64583 z m -14.99304,8.81943 a 1.7638889,1.7638889 0 1 1 -1.7639,1.7639 1.7638889,1.7638889 0 0 1 1.7639,-1.7639 z m -8.81946,0 a 1.7638889,1.7638889 0 1 1 -1.76387,1.7639 1.7638889,1.7638889 0 0 1 1.76387,-1.7639 z m -8.819443,0 a 1.7638889,1.7638889 0 1 1 -1.7639,1.7639 1.7638889,1.7638889 0 0 1 1.7639,-1.7639 z m -3.4043,2.64584 a 3.5277777,3.5277777 0 0 0 6.8086,0 h 2.01084 a 3.5277777,3.5277777 0 0 0 6.808633,0 h 2.01083 a 3.5277777,3.5277777 0 0 0 6.8086,0 h 8.9429 v 14.11113 h -1.88733 a 3.5277777,3.5277777 0 0 0 -6.80863,0 h -2.01084 a 3.5277777,3.5277777 0 0 0 -6.8086,0 h -9.066403 a 3.5277777,3.5277777 0 0 0 -6.8086,0 h -1.88736 v -14.11113 z m 29.862643,14.99306 a 1.7638889,1.7638889 0 1 1 -1.7639,-1.7639 1.7638889,1.7638889 0 0 1 1.7639,1.7639 z m -8.81944,0 a 1.7638889,1.7638889 0 1 1 -1.7639,-1.7639 1.7638889,1.7638889 0 0 1 1.7639,1.7639 z m -15.875003,0 a 1.7638889,1.7638889 0 1 1 -1.7639,-1.7639 1.7638889,1.7638889 0 0 1 1.7639,1.7639 z m -8.81946,23.8125 a 0.88194443,0.88194443 0 0 1 -1.76387,0 v -47.625 a 0.88194443,0.88194443 0 0 1 1.76387,0 z m 7.05556,-6.1736 a 1.7638889,1.7638889 0 1 1 1.7639,-1.7639 1.7638889,1.7638889 0 0 1 -1.7639,1.7639 z m 8.819443,0 a 1.7638889,1.7638889 0 1 1 1.7639,-1.7639 1.7638889,1.7638889 0 0 1 -1.7639,1.7639 z m 15.875,0 a 1.7638889,1.7638889 0 1 1 1.7639,-1.7639 1.7638889,1.7638889 0 0 1 -1.7639,1.7639 z m 3.40433,-2.64583 a 3.5277777,3.5277777 0 0 0 -6.80863,0 h -9.06637 a 3.5277777,3.5277777 0 0 0 -6.808633,0 h -2.01084 a 3.5277777,3.5277777 0 0 0 -6.8086,0 h -1.88736 v -14.11113 h 1.88736 a 3.5277777,3.5277777 0 0 0 6.8086,0 h 9.066403 a 3.5277777,3.5277777 0 0 0 6.8086,0 h 2.01084 a 3.5277777,3.5277777 0 0 0 6.80863,0 h 1.88733 v 14.11113 z m 5.41513,8.81943 a 0.88195,0.88195 0 0 1 -1.7639,0 v -47.625 a 0.88195,0.88195 0 0 1 1.7639,0 z"
       id="path16"
       style="stroke-width:0.881943" />
  </g>
</svg>
