<?xml version="1.0" encoding="UTF-8" standalone="no"?>
<svg
   xmlns:dc="http://purl.org/dc/elements/1.1/"
   xmlns:cc="http://creativecommons.org/ns#"
   xmlns:rdf="http://www.w3.org/1999/02/22-rdf-syntax-ns#"
   xmlns:svg="http://www.w3.org/2000/svg"
   xmlns="http://www.w3.org/2000/svg"
   xmlns:sodipodi="http://sodipodi.sourceforge.net/DTD/sodipodi-0.dtd"
   xmlns:inkscape="http://www.inkscape.org/namespaces/inkscape"
   width="233.66614"
   height="228.50476"
   viewBox="0 0 61.824165 60.458549"
   version="1.1"
   id="svg1034"
   inkscape:version="1.0.1 (3bc2e813f5, 2020-09-07)"
   sodipodi:docname="folder.svg"
   inkscape:export-filename="C:\Users\keega\Documents\cannlytics\assets\images\illustrations\multi-tone\folder.png"
   inkscape:export-xdpi="96"
   inkscape:export-ydpi="96">
  <defs
     id="defs1028">
    <clipPath
       clipPathUnits="userSpaceOnUse"
       id="clipPath1824">
      <path
         d="m 466.283,741.164 h 63.482 v -19.581 h -63.482 z"
         id="path1822"
         inkscape:connector-curvature="0" />
    </clipPath>
    <filter
       inkscape:collect="always"
       style="color-interpolation-filters:sRGB"
       id="filter3124"
       x="-0.00024129886"
       width="1.0004826"
       y="-0.00024209845"
       height="1.0004842">
      <feGaussianBlur
         inkscape:collect="always"
         stdDeviation="0.0053203049"
         id="feGaussianBlur3126" />
    </filter>
  </defs>
  <sodipodi:namedview
     id="base"
     pagecolor="#323443"
     bordercolor="#666666"
     borderopacity="1.0"
     inkscape:pageopacity="0"
     inkscape:pageshadow="2"
     inkscape:zoom="1.4"
     inkscape:cx="108.88343"
     inkscape:cy="93.280954"
     inkscape:document-units="mm"
     inkscape:current-layer="layer1"
     inkscape:document-rotation="0"
     showgrid="false"
     inkscape:window-width="1624"
     inkscape:window-height="997"
     inkscape:window-x="230"
     inkscape:window-y="94"
     inkscape:window-maximized="0"
     units="px" />
  <metadata
     id="metadata1031">
    <rdf:RDF>
      <cc:Work
         rdf:about="">
        <dc:format>image/svg+xml</dc:format>
        <dc:type
           rdf:resource="http://purl.org/dc/dcmitype/StillImage" />
        <dc:title></dc:title>
      </cc:Work>
    </rdf:RDF>
  </metadata>
  <g
     inkscape:label="Layer 1"
     inkscape:groupmode="layer"
     id="layer1"
     transform="translate(-75.677204,-103.57435)"
     style="filter:url(#filter3124)">
    <path
       fill="#ffffff"
       d="m 110.99925,108.22759 6.1736,5.88256 v 20.57577 H 87.186747 v -26.45833 z"
       id="path2"
       style="stroke-width:0.881943" />
    <path
       fill="#61c3b6"
       d="m 110.99925,108.22759 v 6.17363 h 6.1736 z"
       id="path4"
       style="stroke-width:0.881943" />
    <path
       fill="#e6e6e6"
       d="m 117.17285,132.04009 v 2.64583 H 87.186747 v -7.9375 h 11.46527 l 5.291673,5.29167 z"
       id="path6"
       style="stroke-width:0.881943" />
    <path
       fill="#ffa88a"
       d="M 125.11035,159.38039 H 88.068687 a 4.4097223,4.4097223 0 0 1 -4.40974,-4.40974 v -25.5764 h 14.11114 l 5.291663,5.29167 h 17.63887 v 20.28473 a 4.4097223,4.4097223 0 0 0 4.40973,4.40974 z"
       id="path8"
       style="stroke-width:0.881943" />
    <path
       fill="#fd9467"
       d="m 115.40895,137.77272 a 33.78729,33.78729 0 0 1 -7.7611,21.60767 H 88.068687 a 4.4097223,4.4097223 0 0 1 -4.40974,-4.40974 v -25.5764 h 14.11114 l 5.291663,5.29167 h 12.2061 c 0.141,1.01423 0.141,2.04613 0.141,3.0868 z"
       id="path10"
       style="stroke-width:0.881943" />
    <path
       fill="#4e5b5f"
       d="m 129.52009,124.10259 h -11.4653 v -9.70137 a 0.96131943,0.96131943 0 0 0 -0.0707,-0.34397 0.88194443,0.88194443 0 0 0 -0.18533,-0.28233 l -6.1736,-6.1736 a 0.82020833,0.82020833 0 0 0 -0.291,-0.18533 0.88194443,0.88194443 0 0 0 -0.33514,-0.0707 H 87.186517 a 0.88194443,0.88194443 0 0 0 -0.88193,0.88193 v 20.28474 h -2.64583 a 0.88194443,0.88194443 0 0 0 -0.88197,0.88193 v 25.5764 a 5.2916667,5.2916667 0 0 0 5.29167,5.29167 h 37.041663 a 5.2916667,5.2916667 0 0 0 5.29167,-5.29167 v -29.9861 a 0.88194443,0.88194443 0 0 0 -0.88193,-0.88197 z m -17.6389,-13.7495 3.16616,3.16616 h -3.16616 z m -23.812503,-1.24354 h 22.048603 v 5.29167 a 0.88194443,0.88194443 0 0 0 0.88196,0.88193 h 5.29167 v 18.52084 h -12.86757 l -5.027103,-5.0359 a 0.88194443,0.88194443 0 0 0 -0.62616,-0.25567 h -9.7014 z m -3.52777,45.8611 v -24.69443 h 12.86757 l 5.027063,5.0359 a 0.88194443,0.88194443 0 0 0 0.6262,0.25567 h 16.75694 v 19.40276 a 5.2916667,5.2916667 0 0 0 1.3582,3.52777 H 88.068687 a 3.5277777,3.5277777 0 0 1 -3.52777,-3.52777 z m 44.097203,0 a 3.5277777,3.5277777 0 0 1 -7.05553,0 v -20.28473 a 0.88194443,0.88194443 0 0 0 -0.88197,-0.88193 h -2.64583 v -7.9375 h 10.58333 z"
       id="path12"
       style="stroke-width:0.881943" />
    <path
       fill="#61c3b6"
       d="m 92.478417,114.40122 h 9.701373 a 0.88195,0.88195 0 0 0 0,-1.7639 h -9.701373 a 0.88195,0.88195 0 0 0 0,1.7639 z m 0,5.29167 h 19.402773 a 0.88195,0.88195 0 0 0 0,-1.7639 H 92.478417 a 0.88195,0.88195 0 0 0 0,1.7639 z m 20.284703,4.4097 a 0.88194443,0.88194443 0 0 0 -0.88193,-0.88194 H 92.478417 a 0.88195,0.88195 0 0 0 0,1.7639 h 19.402773 a 0.88194443,0.88194443 0 0 0 0.88193,-0.88196 z"
       id="path14"
       style="stroke-width:0.881943" />
  </g>
</svg>
