<?xml version="1.0" encoding="UTF-8" standalone="no"?>
<svg
   xmlns:dc="http://purl.org/dc/elements/1.1/"
   xmlns:cc="http://creativecommons.org/ns#"
   xmlns:rdf="http://www.w3.org/1999/02/22-rdf-syntax-ns#"
   xmlns:svg="http://www.w3.org/2000/svg"
   xmlns="http://www.w3.org/2000/svg"
   xmlns:sodipodi="http://sodipodi.sourceforge.net/DTD/sodipodi-0.dtd"
   xmlns:inkscape="http://www.inkscape.org/namespaces/inkscape"
   width="233.66614"
   height="228.50476"
   viewBox="0 0 61.824165 60.458549"
   version="1.1"
   id="svg1034"
   inkscape:version="1.0.1 (3bc2e813f5, 2020-09-07)"
   sodipodi:docname="records.svg"
   inkscape:export-filename="C:\Users\keega\Documents\cannlytics\assets\images\illustrations\multi-tone\records.png"
   inkscape:export-xdpi="96"
   inkscape:export-ydpi="96">
  <defs
     id="defs1028">
    <clipPath
       clipPathUnits="userSpaceOnUse"
       id="clipPath1824">
      <path
         d="m 466.283,741.164 h 63.482 v -19.581 h -63.482 z"
         id="path1822"
         inkscape:connector-curvature="0" />
    </clipPath>
    <filter
       inkscape:collect="always"
       style="color-interpolation-filters:sRGB"
       id="filter3124"
       x="-0.00024129886"
       width="1.0004826"
       y="-0.00024209845"
       height="1.0004842">
      <feGaussianBlur
         inkscape:collect="always"
         stdDeviation="0.0053203049"
         id="feGaussianBlur3126" />
    </filter>
  </defs>
  <sodipodi:namedview
     id="base"
     pagecolor="#323443"
     bordercolor="#666666"
     borderopacity="1.0"
     inkscape:pageopacity="0"
     inkscape:pageshadow="2"
     inkscape:zoom="1.4"
     inkscape:cx="108.88343"
     inkscape:cy="135.22381"
     inkscape:document-units="mm"
     inkscape:current-layer="layer1"
     inkscape:document-rotation="0"
     showgrid="false"
     inkscape:window-width="1624"
     inkscape:window-height="997"
     inkscape:window-x="230"
     inkscape:window-y="94"
     inkscape:window-maximized="0"
     units="px" />
  <metadata
     id="metadata1031">
    <rdf:RDF>
      <cc:Work
         rdf:about="">
        <dc:format>image/svg+xml</dc:format>
        <dc:type
           rdf:resource="http://purl.org/dc/dcmitype/StillImage" />
        <dc:title></dc:title>
      </cc:Work>
    </rdf:RDF>
  </metadata>
  <g
     inkscape:label="Layer 1"
     inkscape:groupmode="layer"
     id="layer1"
     transform="translate(-75.677204,-103.57435)"
     style="filter:url(#filter3124)">
    <path
       fill="#ffffff"
       d="M 113.64485,150.56056 H 99.533752 v -40.56944 a 1.7638889,1.7638889 0 0 1 1.763868,-1.7639 h 10.58333 a 1.7638889,1.7638889 0 0 1 1.7639,1.7639 z"
       id="path2"
       style="stroke-width:0.881943" />
    <path
       fill="#7accbe"
       d="m 132.16568,145.26889 v 14.11113 H 81.012922 v -14.11113 h 20.284698 l 1.7639,3.5278 h 7.05556 l 1.76387,-3.5278 z"
       id="path4"
       style="stroke-width:0.881943" />
    <path
       fill="#61c3b6"
       d="m 124.47512,145.26889 a 29.915556,29.915556 0 0 1 -7.3025,14.11113 H 81.012922 v -14.11113 h 20.284698 l 1.7639,3.5278 h 7.05556 l 1.76387,-3.5278 z"
       id="path6"
       style="stroke-width:0.881943" />
    <path
       fill="#ffa88a"
       d="m 113.64485,109.99112 v 3.52777 H 99.533752 v -3.52777 a 1.7638889,1.7638889 0 0 1 1.763868,-1.7639 h 10.58333 a 1.7638889,1.7638889 0 0 1 1.7639,1.7639 z"
       id="path8"
       style="stroke-width:0.881943" />
    <path
       fill="#fd9467"
       d="m 110.11708,109.99112 a 6.923264,6.923264 0 0 1 -0.9525,3.52777 h -9.630828 v -3.52777 a 1.7638889,1.7638889 0 0 1 1.763868,-1.7639 h 8.59896 a 7.2672223,7.2672223 0 0 1 0.22034,1.7639 z"
       id="path10"
       style="stroke-width:0.881943" />
    <path
       fill="#ffffff"
       d="m 99.533752,145.26889 h -14.11113 v -24.69443 a 1.7638889,1.7638889 0 0 1 1.7639,-1.7639 h 12.34723 z"
       id="path12"
       style="stroke-width:0.881943" />
    <path
       fill="#e6e6e6"
       d="m 96.887922,118.81056 h 2.64583 v 26.45833 h -2.64583 z"
       id="path14"
       style="stroke-width:0.881943" />
    <path
       fill="#ffffff"
       d="m 127.75595,145.26889 h -14.1111 v -29.9861 h 12.34723 a 1.7638889,1.7638889 0 0 1 1.76387,1.7639 z"
       id="path16"
       style="stroke-width:0.881943" />
    <path
       fill="#e6e6e6"
       d="m 113.64485,115.28279 h 2.64583 v 29.9861 h -2.64583 z"
       id="path18"
       style="stroke-width:0.881943" />
    <path
       fill="#4e5b5f"
       d="m 130.40178,144.38696 h -1.76386 v -27.34027 a 2.6458333,2.6458333 0 0 0 -2.64584,-2.64583 h -11.4653 v -4.40974 a 2.6458333,2.6458333 0 0 0 -2.64583,-2.64583 h -10.58333 a 2.6458333,2.6458333 0 0 0 -2.645838,2.64583 v 7.9375 h -11.46526 a 2.6458333,2.6458333 0 0 0 -2.64584,2.64584 v 23.8125 h -1.7639 a 2.6458333,2.6458333 0 0 0 -2.64583,2.64583 v 10.58333 a 2.6458333,2.6458333 0 0 0 2.64583,2.64584 h 47.624998 a 2.6458333,2.6458333 0 0 0 2.64584,-2.64584 v -10.58333 a 2.6458333,2.6458333 0 0 0 -2.64584,-2.64583 z m -4.4097,-28.22224 a 0.88194443,0.88194443 0 0 1 0.88194,0.88197 v 27.34027 h -12.34724 v -28.22224 z m -25.5764,-1.76386 h 12.34724 v 29.9861 a 2.6458333,2.6458333 0 0 0 -2.16077,1.4464 l -0.78493,1.57866 a 0.88194443,0.88194443 0 0 1 -0.79377,0.48507 h -4.86833 a 0.88194443,0.88194443 0 0 1 -0.79374,-0.48507 l -0.78493,-1.57866 a 2.6458333,2.6458333 0 0 0 -2.16077,-1.4464 z m 0.88194,-5.29167 h 10.58333 a 0.88194443,0.88194443 0 0 1 0.88197,0.88193 v 2.64584 h -12.34724 v -2.64584 a 0.88194443,0.88194443 0 0 1 0.88194,-0.88193 z m -14.993038,11.46527 a 0.88194443,0.88194443 0 0 1 0.88194,-0.88194 h 11.46526 v 24.69444 h -12.3472 z m 44.979168,37.04166 a 0.88194443,0.88194443 0 0 1 -0.88197,0.88194 H 82.776782 a 0.88194443,0.88194443 0 0 1 -0.88193,-0.88194 v -10.58333 a 0.88194443,0.88194443 0 0 1 0.88193,-0.88193 h 17.427238 a 0.88194443,0.88194443 0 0 1 0.79373,0.48506 l 0.78493,1.57867 a 2.6458333,2.6458333 0 0 0 2.37244,1.46403 h 4.86833 a 2.6458333,2.6458333 0 0 0 2.37243,-1.46403 l 0.78494,-1.57867 a 0.88194443,0.88194443 0 0 1 0.79376,-0.48506 h 17.4272 a 0.88194443,0.88194443 0 0 1 0.88197,0.88193 z"
       id="path20"
       style="stroke-width:0.881943" />
    <path
       fill="#ffffff"
       d="m 109.23512,153.20639 h -5.29167 a 0.88195,0.88195 0 0 0 0,1.7639 h 5.29167 a 0.88195,0.88195 0 0 0 0,-1.7639 z"
       id="path22"
       style="stroke-width:0.881943" />
    <path
       fill="#fd9467"
       d="m 92.478182,125.86612 a 0.88194443,0.88194443 0 0 0 -0.88193,0.88194 v 10.58333 a 0.881945,0.881945 0 0 0 1.76387,0 v -10.58333 a 0.88194443,0.88194443 0 0 0 -0.88194,-0.88194 z m 28.222238,12.34724 a 0.88194443,0.88194443 0 0 0 0.88193,-0.88197 v -14.1111 a 0.88195,0.88195 0 0 0 -1.7639,0 v 14.1111 a 0.88194443,0.88194443 0 0 0 0.88197,0.88197 z"
       id="path24"
       style="stroke-width:0.881943" />
  </g>
</svg>
