<?xml version="1.0" encoding="UTF-8" standalone="no"?>
<!-- Created with Inkscape (http://www.inkscape.org/) -->

<svg
   xmlns:dc="http://purl.org/dc/elements/1.1/"
   xmlns:cc="http://creativecommons.org/ns#"
   xmlns:rdf="http://www.w3.org/1999/02/22-rdf-syntax-ns#"
   xmlns:svg="http://www.w3.org/2000/svg"
   xmlns="http://www.w3.org/2000/svg"
   xmlns:sodipodi="http://sodipodi.sourceforge.net/DTD/sodipodi-0.dtd"
   xmlns:inkscape="http://www.inkscape.org/namespaces/inkscape"
   width="150"
   height="150"
   viewBox="0 0 39.687499 39.687499"
   version="1.1"
   id="svg1987"
   inkscape:version="0.92.4 (5da689c313, 2019-01-14)"
   sodipodi:docname="two_tone_magnify_glass.svg"
   inkscape:export-filename="C:\Users\Keegan\repos\cannlytics-website\assets\images\lab_icons\two_tone_magnify_glass.png"
   inkscape:export-xdpi="96"
   inkscape:export-ydpi="96">
  <defs
     id="defs1981" />
  <sodipodi:namedview
     id="base"
     pagecolor="#ffffff"
     bordercolor="#666666"
     borderopacity="1.0"
     inkscape:pageopacity="0.0"
     inkscape:pageshadow="2"
     inkscape:zoom="1.979899"
     inkscape:cx="-15.542558"
     inkscape:cy="57.366681"
     inkscape:document-units="mm"
     inkscape:current-layer="layer1"
     showgrid="false"
     fit-margin-top="0"
     fit-margin-left="0"
     fit-margin-right="0"
     fit-margin-bottom="0"
     units="px"
     inkscape:window-width="1920"
     inkscape:window-height="1051"
     inkscape:window-x="2391"
     inkscape:window-y="-9"
     inkscape:window-maximized="1" />
  <metadata
     id="metadata1984">
    <rdf:RDF>
      <cc:Work
         rdf:about="">
        <dc:format>image/svg+xml</dc:format>
        <dc:type
           rdf:resource="http://purl.org/dc/dcmitype/StillImage" />
        <dc:title></dc:title>
      </cc:Work>
    </rdf:RDF>
  </metadata>
  <g
     inkscape:label="Layer 1"
     inkscape:groupmode="layer"
     id="layer1"
     transform="translate(-101.80076,-164.15401)">
    <path
       d="m 135.30834,197.69539 c -0.002,0.001 -0.003,0.002 -0.004,0.004 -0.96131,0.95673 -2.51706,0.9532 -3.47486,-0.008 l -7.49158,-7.52759 c -0.95568,-0.96131 -0.95215,-2.51389 0.004,-3.47027 0.002,-0.002 0.004,-0.003 0.004,-0.005 0.96238,-0.95743 2.51813,-0.95426 3.47451,0.008 l 7.49265,7.52757 c 0.95461,0.96061 0.9525,2.51249 -0.005,3.47028 v 0"
       style="fill:#9cdee4;fill-opacity:1;fill-rule:nonzero;stroke:none;stroke-width:0.03527778"
       id="path16"
       inkscape:connector-curvature="0" />
    <path
       d="m 124.64528,186.89052 -0.005,0.013 -0.073,0.0617 c -0.79375,0.79587 -0.79516,2.12902 0.0208,2.95029 l 7.49159,7.52721 c 0.39793,0.39935 0.92745,0.61913 1.49154,0.61913 0.55386,0 1.07562,-0.21237 1.47073,-0.59902 l 0.0526,-0.0533 c 0.78211,-0.82091 0.77223,-2.1276 -0.0314,-2.93581 l -7.49264,-7.52757 c -0.39723,-0.3997 -0.9264,-0.61983 -1.49049,-0.61983 -0.53657,0 -1.04316,0.19967 -1.43439,0.56409 z m 8.92563,11.87697 c -0.75283,0 -1.46015,-0.29351 -1.99143,-0.82656 l -7.49194,-7.52793 c -1.07351,-1.0795 -1.08726,-2.82328 -0.0434,-3.91936 l 0.001,-0.002 0.0519,-0.0519 c 0.53058,-0.52775 1.23472,-0.81844 1.98261,-0.81844 0.75318,0 1.46015,0.29386 1.99073,0.82761 l 7.49264,7.52793 c 1.08903,1.09573 1.08656,2.87584 -0.005,3.9684 l -0.042,0.0416 c -0.52599,0.50412 -1.21426,0.78105 -1.94486,0.78105"
       style="fill:#2e6096;fill-opacity:1;fill-rule:nonzero;stroke:none;stroke-width:0.03527778"
       id="path18"
       inkscape:connector-curvature="0" />
    <path
       d="m 134.23907,197.64848 c -0.36865,0.36759 -0.97226,0.36653 -1.34232,-0.006 l -7.49194,-7.52758 c -0.3683,-0.37042 -0.3683,-0.97296 0.001,-1.34267 0.37359,-0.37148 0.9772,-0.37007 1.34691,0.002 l 7.49194,7.52687 c 0.3683,0.37147 0.3683,0.97366 -0.002,1.34372 l -0.004,0.004"
       style="fill:#ffffff;fill-opacity:1;fill-rule:nonzero;stroke:none;stroke-width:0.03527778"
       id="path20"
       inkscape:connector-curvature="0" />
    <path
       d="m 121.56729,183.87956 c -1.35749,1.35608 -3.15665,2.10008 -5.06765,2.09691 -3.94088,-0.006 -7.13987,-3.21733 -7.13246,-7.15716 0.004,-1.90076 0.74859,-3.69076 2.0962,-5.03872 1.35538,-1.35467 3.15348,-2.09938 5.06201,-2.09585 1.90641,0.004 3.69888,0.75035 5.04825,2.10502 1.34938,1.35396 2.09162,3.14854 2.08809,5.0546 -0.004,1.90006 -0.74718,3.68759 -2.09444,5.0352 z m 1.74661,-11.82405 c -1.81293,-1.81857 -4.22205,-2.82258 -6.78357,-2.82787 -2.56787,-0.004 -4.9844,0.99554 -6.80438,2.81552 -1.81116,1.81116 -2.81128,4.21675 -2.81516,6.77157 -0.01,5.29449 4.29048,9.60966 9.58497,9.61919 2.56893,0.004 4.98722,-0.99624 6.8079,-2.81693 0,0 0,0 0,-10e-4 1.81046,-1.8101 2.80917,-4.21322 2.81376,-6.76734 0.005,-2.56116 -0.99131,-4.97416 -2.80352,-6.79308"
       style="fill:#2e6096;fill-opacity:1;fill-rule:nonzero;stroke:none;stroke-width:0.03527778"
       id="path22"
       inkscape:connector-curvature="0" />
    <path
       d="m 125.30815,187.69944 c -0.47978,0.47942 -1.25765,0.47695 -1.73708,-0.003 l -1.53,-1.58009 c -0.47801,-0.48013 -0.47731,-1.25624 10e-4,-1.73496 0,0 0.002,-0.001 0.003,-0.002 0.48048,-0.47872 1.2573,-0.47731 1.73708,0.004 l 1.52999,1.57938 c 0.47766,0.48013 0.47696,1.25624 -0.002,1.73461 0,0 -0.002,0.002 -0.002,0.002"
       style="fill:#2e6096;fill-opacity:1;fill-rule:nonzero;stroke:none;stroke-width:0.03527778"
       id="path24"
       inkscape:connector-curvature="0" />
  </g>
</svg>
