<?xml version="1.0" encoding="UTF-8" standalone="no"?>
<!-- Created with Inkscape (http://www.inkscape.org/) -->

<svg
   xmlns:dc="http://purl.org/dc/elements/1.1/"
   xmlns:cc="http://creativecommons.org/ns#"
   xmlns:rdf="http://www.w3.org/1999/02/22-rdf-syntax-ns#"
   xmlns:svg="http://www.w3.org/2000/svg"
   xmlns="http://www.w3.org/2000/svg"
   xmlns:sodipodi="http://sodipodi.sourceforge.net/DTD/sodipodi-0.dtd"
   xmlns:inkscape="http://www.inkscape.org/namespaces/inkscape"
   width="150"
   height="150"
   viewBox="0 0 39.687499 39.687499"
   version="1.1"
   id="svg1987"
   inkscape:version="0.92.4 (5da689c313, 2019-01-14)"
   sodipodi:docname="two_tone_flask_narrow.svg"
   inkscape:export-filename="C:\Users\Keegan\repos\cannlytics-website\assets\images\lab_icons\two_tone_flask_narrow.png"
   inkscape:export-xdpi="96"
   inkscape:export-ydpi="96">
  <defs
     id="defs1981">
    <clipPath
       clipPathUnits="userSpaceOnUse"
       id="clipPath238">
      <path
         d="m 5440.09,7219.29 -0.38,257.5 257.5,0.38 0.38,-257.49 z"
         id="path236"
         inkscape:connector-curvature="0" />
    </clipPath>
  </defs>
  <sodipodi:namedview
     id="base"
     pagecolor="#ffffff"
     bordercolor="#666666"
     borderopacity="1.0"
     inkscape:pageopacity="0.0"
     inkscape:pageshadow="2"
     inkscape:zoom="1.979899"
     inkscape:cx="-15.542558"
     inkscape:cy="57.366681"
     inkscape:document-units="mm"
     inkscape:current-layer="layer1"
     showgrid="false"
     fit-margin-top="0"
     fit-margin-left="0"
     fit-margin-right="0"
     fit-margin-bottom="0"
     units="px"
     inkscape:window-width="1636"
     inkscape:window-height="912"
     inkscape:window-x="2593"
     inkscape:window-y="54"
     inkscape:window-maximized="0" />
  <metadata
     id="metadata1984">
    <rdf:RDF>
      <cc:Work
         rdf:about="">
        <dc:format>image/svg+xml</dc:format>
        <dc:type
           rdf:resource="http://purl.org/dc/dcmitype/StillImage" />
        <dc:title></dc:title>
      </cc:Work>
    </rdf:RDF>
  </metadata>
  <g
     inkscape:label="Layer 1"
     inkscape:groupmode="layer"
     id="layer1"
     transform="translate(-101.80076,-164.15401)">
    <path
       d="m 132.11483,197.90655 -3.31046,-6.71336 c -0.70591,-1.43122 -1.86055,-3.77366 -2.56646,-5.20488 l -2.08844,-4.23615 V 170.779 h 0.72883 v -3.29247 h -0.72883 -5.01015 -0.72884 v 3.29247 h 0.72884 v 10.97386 l -2.08774,4.23545 c -0.70626,1.43122 -1.86126,3.77366 -2.56717,5.20488 l -3.31011,6.71336 c -0.70591,1.43122 -0.12841,2.60245 1.2834,2.60245 h 6.62059 c 1.41146,0 3.7211,0 5.13256,0 h 6.62023 c 1.41181,0 1.98931,-1.17123 1.28375,-2.60245"
       style="fill:#ffffff;fill-opacity:1;fill-rule:nonzero;stroke:none;stroke-width:0.03527778"
       id="path340"
       inkscape:connector-curvature="0" />
    <path
       d="m 118.76325,170.42622 h 0.72884 v 11.40884 l -8.00135,16.22742 c -0.31115,0.63077 -0.35031,1.21638 -0.10795,1.6062 0.19861,0.31891 0.57009,0.48754 1.07491,0.48754 h 18.37338 c 0.50482,0 0.8763,-0.16863 1.07491,-0.48754 0.24236,-0.38982 0.2032,-0.97543 -0.1076,-1.6062 l -8.0017,-16.22813 v -11.40813 h 0.72884 v -2.58691 h -5.76228 z m 12.06783,30.43555 H 112.4577 c -0.75035,0 -1.34478,-0.29139 -1.67393,-0.82056 -0.37429,-0.60148 -0.34678,-1.43651 0.0744,-2.29058 l 7.92833,-16.07961 v -10.53924 h -0.72884 v -3.99803 h 7.17338 v 3.99803 h -0.72884 v 10.53853 l 7.92868,16.08032 c 0.42157,0.85407 0.44838,1.6891 0.0741,2.29058 -0.32879,0.52917 -0.92358,0.82056 -1.67393,0.82056"
       style="fill:#2e6096;fill-opacity:1;fill-rule:nonzero;stroke:none;stroke-width:0.03527778"
       id="path342"
       inkscape:connector-curvature="0" />
    <path
       d="m 125.56058,187.00713 h -7.83202 l -5.60494,11.36756 c -0.21837,0.44274 -0.2286,0.78176 -0.14181,0.92146 0.0603,0.0967 0.23812,0.15451 0.47589,0.15451 h 18.37338 c 0.23777,0 0.41557,-0.0579 0.47589,-0.15451 0.0868,-0.1397 0.0766,-0.47872 -0.14146,-0.92146 l -5.60493,-11.36756"
       style="fill:#9cdee4;fill-opacity:1;fill-rule:nonzero;stroke:none;stroke-width:0.03527778"
       id="path344"
       inkscape:connector-curvature="0" />
    <path
       d="m 123.05303,185.40623 h -2.75202 v -0.35278 h 2.75202 v 0.35278"
       style="fill:#2e6096;fill-opacity:1;fill-rule:nonzero;stroke:none;stroke-width:0.03527778"
       id="path346"
       inkscape:connector-curvature="0" />
    <path
       d="m 123.05303,187.27771 h -2.75202 v -0.35277 h 2.75202 v 0.35277"
       style="fill:#2e6096;fill-opacity:1;fill-rule:nonzero;stroke:none;stroke-width:0.03527778"
       id="path348"
       inkscape:connector-curvature="0" />
    <path
       d="m 123.05303,189.14885 h -2.75202 v -0.35278 h 2.75202 v 0.35278"
       style="fill:#2e6096;fill-opacity:1;fill-rule:nonzero;stroke:none;stroke-width:0.03527778"
       id="path350"
       inkscape:connector-curvature="0" />
    <path
       d="m 123.05303,191.01998 h -2.75202 v -0.35278 h 2.75202 v 0.35278"
       style="fill:#2e6096;fill-opacity:1;fill-rule:nonzero;stroke:none;stroke-width:0.03527778"
       id="path352"
       inkscape:connector-curvature="0" />
    <path
       d="m 123.05303,192.89147 h -2.75202 v -0.35278 h 2.75202 v 0.35278"
       style="fill:#2e6096;fill-opacity:1;fill-rule:nonzero;stroke:none;stroke-width:0.03527778"
       id="path354"
       inkscape:connector-curvature="0" />
    <path
       d="m 123.05303,194.76295 h -2.75202 v -0.35278 h 2.75202 v 0.35278"
       style="fill:#2e6096;fill-opacity:1;fill-rule:nonzero;stroke:none;stroke-width:0.03527778"
       id="path356"
       inkscape:connector-curvature="0" />
    <path
       d="m 123.05303,196.63444 h -2.75202 v -0.35278 h 2.75202 v 0.35278"
       style="fill:#2e6096;fill-opacity:1;fill-rule:nonzero;stroke:none;stroke-width:0.03527778"
       id="path358"
       inkscape:connector-curvature="0" />
    <path
       d="m 123.05303,198.50557 h -2.75202 v -0.35278 h 2.75202 v 0.35278"
       style="fill:#2e6096;fill-opacity:1;fill-rule:nonzero;stroke:none;stroke-width:0.03527778"
       id="path360"
       inkscape:connector-curvature="0" />
    <path
       d="m 123.12394,182.53814 c 0,0.58456 -0.47378,1.05834 -1.05833,1.05834 -0.5842,0 -1.05834,-0.47378 -1.05834,-1.05834 0,-0.5842 0.47414,-1.05833 1.05834,-1.05833 0.58455,0 1.05833,0.47413 1.05833,1.05833"
       style="fill:#9cdee4;fill-opacity:1;fill-rule:nonzero;stroke:none;stroke-width:0.03527778"
       id="path362"
       inkscape:connector-curvature="0" />
    <path
       d="m 121.41897,178.21662 c 0,0.3249 -0.26353,0.58808 -0.58808,0.58808 -0.32456,0 -0.58773,-0.26318 -0.58773,-0.58808 0,-0.32456 0.26317,-0.58773 0.58773,-0.58773 0.32455,0 0.58808,0.26317 0.58808,0.58773"
       style="fill:#9cdee4;fill-opacity:1;fill-rule:nonzero;stroke:none;stroke-width:0.03527778"
       id="path364"
       inkscape:connector-curvature="0" />
  </g>
</svg>
