<?xml version="1.0" encoding="UTF-8"?>
<!-- Converted by misc2svg (http://www.network-science.de/tools/misc2svg/) -->
<svg xmlns="http://www.w3.org/2000/svg" xmlns:xlink="http://www.w3.org/1999/xlink" width="429pt" height="181pt" viewBox="0 0 429 181" version="1.1">
<defs>
<clipPath id="clip1">
  <path d="M 0 181.25 L 428.75 181.25 L 428.75 0 L 0 0 L 0 181.25 Z M 0 181.25 "/>
</clipPath>
</defs>
<g id="misc2svg">
<g clip-path="url(#clip1)" clip-rule="nonzero">
<path style=" stroke:none;fill-rule:nonzero;fill:rgb(0%,0%,0%);fill-opacity:1;" d="M 105.722656 177.0625 L 105.722656 155.578125 L 108.632812 155.578125 L 119.921875 172.453125 L 119.921875 155.578125 L 122.636719 155.578125 L 122.636719 177.0625 L 119.726562 177.0625 L 108.457031 160.1875 L 108.457031 177.0625 L 105.722656 177.0625 Z M 105.722656 177.0625 "/>
<path style=" stroke:none;fill-rule:nonzero;fill:rgb(0%,0%,0%);fill-opacity:1;" d="M 72.3125 140.875 L 71.25 141.5 L 70.1875 140.875 L 70.1875 91.25 L 72.3125 92.5 L 72.3125 140.875 Z M 72.3125 140.875 "/>
<path style=" stroke:none;fill-rule:nonzero;fill:rgb(0%,0%,0%);fill-opacity:1;" d="M 77.625 137.1875 L 79.75 137.1875 L 79.75 96.1875 L 77.625 96.1875 L 77.625 137.1875 Z M 77.625 137.1875 "/>
<path style=" stroke:none;fill-rule:nonzero;fill:rgb(0%,0%,0%);fill-opacity:1;" d="M 101.875 157.9375 L 100.8125 159.8125 L 71.25 142.6875 L 71.25 141.5 L 72.3125 140.875 L 101.875 157.9375 Z M 101.875 157.9375 "/>
<path style=" stroke:none;fill-rule:nonzero;fill:rgb(0%,0%,0%);fill-opacity:1;" d="M 156.125 140.875 L 158.25 142.125 L 127.5 159.875 L 126.4375 158 L 156.125 140.875 Z M 156.125 140.875 "/>
<path style=" stroke:none;fill-rule:nonzero;fill:rgb(0%,0%,0%);fill-opacity:1;" d="M 149.1875 136.25 L 150.25 138.125 L 123.75 153.4375 L 122.6875 151.5625 L 149.1875 136.25 Z M 149.1875 136.25 "/>
<path style=" stroke:none;fill-rule:nonzero;fill:rgb(0%,0%,0%);fill-opacity:1;" d="M 156.125 92.5 L 157.1875 91.875 L 158.25 92.5 L 158.25 142.125 L 156.125 140.875 L 156.125 92.5 Z M 156.125 92.5 "/>
<path style=" stroke:none;fill-rule:nonzero;fill:rgb(0%,0%,0%);fill-opacity:1;" d="M 114.1875 68.3125 L 114.1875 65.8125 L 157.1875 90.625 L 157.1875 91.875 L 156.125 92.5 L 114.1875 68.3125 Z M 114.1875 68.3125 "/>
<path style=" stroke:none;fill-rule:nonzero;fill:rgb(0%,0%,0%);fill-opacity:1;" d="M 113.6875 76.5625 L 114.75 74.75 L 150.25 95.25 L 149.1875 97.0625 L 113.6875 76.5625 Z M 113.6875 76.5625 "/>
<path style=" stroke:none;fill-rule:nonzero;fill:rgb(0%,0%,0%);fill-opacity:1;" d="M 72.3125 92.5 L 70.1875 91.25 L 114.1875 65.8125 L 114.1875 68.3125 L 72.3125 92.5 Z M 72.3125 92.5 "/>
<path style=" stroke:none;fill-rule:nonzero;fill:rgb(0%,0%,0%);fill-opacity:1;" d="M 20.949219 169.710938 L 23.800781 170.433594 C 23.199219 172.765625 22.125 174.550781 20.578125 175.785156 C 19.023438 177.011719 17.132812 177.621094 14.894531 177.621094 C 12.589844 177.621094 10.703125 177.152344 9.25 176.214844 C 7.804688 175.265625 6.703125 173.898438 5.949219 172.113281 C 5.191406 170.316406 4.816406 168.398438 4.816406 166.351562 C 4.816406 164.117188 5.234375 162.164062 6.085938 160.492188 C 6.945312 158.828125 8.160156 157.5625 9.738281 156.703125 C 11.3125 155.84375 13.046875 155.414062 14.953125 155.414062 C 17.101562 155.414062 18.902344 155.960938 20.363281 157.054688 C 21.832031 158.148438 22.851562 159.6875 23.429688 161.664062 L 20.636719 162.328125 C 20.128906 160.765625 19.398438 159.628906 18.449219 158.910156 C 17.511719 158.195312 16.324219 157.835938 14.894531 157.835938 C 13.238281 157.835938 11.859375 158.234375 10.753906 159.027344 C 9.644531 159.824219 8.863281 160.882812 8.410156 162.210938 C 7.964844 163.539062 7.746094 164.914062 7.746094 166.332031 C 7.746094 168.15625 8.003906 169.75 8.527344 171.117188 C 9.058594 172.484375 9.882812 173.507812 11.007812 174.183594 C 12.140625 174.847656 13.355469 175.179688 14.660156 175.179688 C 16.261719 175.179688 17.609375 174.726562 18.703125 173.8125 C 19.804688 172.890625 20.558594 171.523438 20.949219 169.710938 Z M 20.949219 169.710938 "/>
<path style=" stroke:none;fill-rule:nonzero;fill:rgb(0%,0%,0%);fill-opacity:1;" d="M 26.886719 177.25 L 26.886719 155.765625 L 29.523438 155.765625 L 29.523438 177.25 L 26.886719 177.25 Z M 26.886719 177.25 "/>
<path style=" stroke:none;fill-rule:nonzero;fill:rgb(0%,0%,0%);fill-opacity:1;" d="M 34.4375 163.9375 L 33.375 162.125 L 70.1875 140.875 L 71.25 141.5 L 71.25 142.6875 L 34.4375 163.9375 Z M 34.4375 163.9375 "/>
<path style=" stroke:none;fill-rule:nonzero;fill:rgb(0%,0%,0%);fill-opacity:1;" d="M 200.125 65.8125 L 200.125 68.3125 L 158.25 92.5 L 157.1875 91.875 L 157.1875 90.625 L 200.125 65.8125 Z M 200.125 65.8125 "/>
<path style=" stroke:none;fill-rule:nonzero;fill:rgb(0%,0%,0%);fill-opacity:1;" d="M 234.597656 102.625 L 234.597656 81.140625 L 237.507812 81.140625 L 248.796875 98.015625 L 248.796875 81.140625 L 251.511719 81.140625 L 251.511719 102.625 L 248.601562 102.625 L 237.332031 85.75 L 237.332031 102.625 L 234.597656 102.625 Z M 234.597656 102.625 "/>
<path style=" stroke:none;fill-rule:nonzero;fill:rgb(0%,0%,0%);fill-opacity:1;" d="M 230.75 83.5 L 229.6875 85.375 L 200.125 68.3125 L 200.125 65.8125 L 230.75 83.5 Z M 230.75 83.5 "/>
<path style=" stroke:none;fill-rule:nonzero;fill:rgb(0%,0%,0%);fill-opacity:1;" d="M 285 66.4375 L 286.0625 67.0625 L 286.0625 68.3125 L 256.375 85.4375 L 255.3125 83.625 L 285 66.4375 Z M 285 66.4375 "/>
<path style=" stroke:none;fill-rule:nonzero;fill:rgb(0%,0%,0%);fill-opacity:1;" d="M 320.535156 102.625 L 320.535156 81.140625 L 323.445312 81.140625 L 334.734375 98.015625 L 334.734375 81.140625 L 337.449219 81.140625 L 337.449219 102.625 L 334.539062 102.625 L 323.269531 85.75 L 323.269531 102.625 L 320.535156 102.625 Z M 320.535156 102.625 "/>
<path style=" stroke:none;fill-rule:nonzero;fill:rgb(0%,0%,0%);fill-opacity:1;" d="M 316.6875 83.5 L 315.625 85.375 L 286.0625 68.3125 L 286.0625 67.0625 L 287.125 66.4375 L 316.6875 83.5 Z M 316.6875 83.5 "/>
<path style=" stroke:none;fill-rule:nonzero;fill:rgb(0%,0%,0%);fill-opacity:1;" d="M 320.4375 77.0625 L 319.375 78.9375 L 293 63.6875 L 294.0625 61.875 L 320.4375 77.0625 Z M 320.4375 77.0625 "/>
<path style=" stroke:none;fill-rule:nonzero;fill:rgb(0%,0%,0%);fill-opacity:1;" d="M 249.761719 144.898438 L 252.613281 145.621094 C 252.011719 147.953125 250.9375 149.738281 249.390625 150.972656 C 247.835938 152.199219 245.945312 152.808594 243.707031 152.808594 C 241.402344 152.808594 239.515625 152.339844 238.0625 151.402344 C 236.617188 150.453125 235.515625 149.085938 234.761719 147.300781 C 234.003906 145.503906 233.628906 143.585938 233.628906 141.539062 C 233.628906 139.304688 234.046875 137.351562 234.898438 135.679688 C 235.757812 134.015625 236.972656 132.75 238.550781 131.890625 C 240.125 131.03125 241.859375 130.601562 243.765625 130.601562 C 245.914062 130.601562 247.714844 131.148438 249.175781 132.242188 C 250.644531 133.335938 251.664062 134.875 252.242188 136.851562 L 249.449219 137.515625 C 248.941406 135.953125 248.210938 134.816406 247.261719 134.097656 C 246.324219 133.382812 245.136719 133.023438 243.707031 133.023438 C 242.050781 133.023438 240.671875 133.421875 239.566406 134.214844 C 238.457031 135.011719 237.675781 136.070312 237.222656 137.398438 C 236.777344 138.726562 236.558594 140.101562 236.558594 141.519531 C 236.558594 143.34375 236.816406 144.9375 237.339844 146.304688 C 237.871094 147.671875 238.695312 148.695312 239.820312 149.371094 C 240.953125 150.035156 242.167969 150.367188 243.472656 150.367188 C 245.074219 150.367188 246.421875 149.914062 247.515625 149 C 248.617188 148.078125 249.371094 146.710938 249.761719 144.898438 Z M 249.761719 144.898438 "/>
<path style=" stroke:none;fill-rule:nonzero;fill:rgb(0%,0%,0%);fill-opacity:1;" d="M 256.1875 152.4375 L 256.1875 130.953125 L 259.039062 130.953125 L 259.039062 139.78125 L 270.191406 139.78125 L 270.191406 130.953125 L 273.042969 130.953125 L 273.042969 152.4375 L 270.191406 152.4375 L 270.191406 142.320312 L 259.039062 142.320312 L 259.039062 152.4375 L 256.1875 152.4375 Z M 256.1875 152.4375 "/>
<path style=" stroke:none;fill-rule:nonzero;fill:rgb(0%,0%,0%);fill-opacity:1;" d="M 276.457031 154.539062 L 278.449219 154.285156 C 278.667969 155.40625 279.054688 156.210938 279.601562 156.707031 C 280.148438 157.203125 280.8125 157.449219 281.59375 157.449219 C 282.53125 157.449219 283.316406 157.128906 283.957031 156.492188 C 284.589844 155.839844 284.914062 155.039062 284.914062 154.089844 C 284.914062 153.179688 284.609375 152.429688 284.015625 151.84375 C 283.429688 151.246094 282.675781 150.945312 281.769531 150.945312 C 281.386719 150.945312 280.917969 151.023438 280.363281 151.179688 L 280.578125 149.441406 C 280.703125 149.453125 280.816406 149.460938 280.910156 149.460938 C 281.738281 149.460938 282.496094 149.238281 283.175781 148.796875 C 283.847656 148.355469 284.191406 147.675781 284.191406 146.765625 C 284.191406 146.035156 283.941406 145.4375 283.449219 144.96875 C 282.949219 144.488281 282.320312 144.246094 281.554688 144.246094 C 280.78125 144.246094 280.136719 144.488281 279.621094 144.96875 C 279.113281 145.449219 278.785156 146.179688 278.644531 147.15625 L 276.671875 146.804688 C 276.90625 145.476562 277.453125 144.449219 278.3125 143.71875 C 279.171875 142.988281 280.234375 142.625 281.515625 142.625 C 282.382812 142.625 283.195312 142.8125 283.9375 143.191406 C 284.679688 143.570312 285.246094 144.082031 285.636719 144.734375 C 286.027344 145.386719 286.222656 146.074219 286.222656 146.804688 C 286.222656 147.507812 286.03125 148.144531 285.65625 148.71875 C 285.289062 149.277344 284.738281 149.726562 283.996094 150.066406 C 284.941406 150.289062 285.679688 150.75 286.203125 151.453125 C 286.734375 152.144531 287.003906 153.003906 287.003906 154.03125 C 287.003906 155.4375 286.484375 156.636719 285.460938 157.625 C 284.445312 158.601562 283.15625 159.089844 281.59375 159.089844 C 280.171875 159.089844 278.996094 158.667969 278.058594 157.820312 C 277.128906 156.972656 276.597656 155.878906 276.457031 154.539062 Z M 276.457031 154.539062 "/>
<path style=" stroke:none;fill-rule:nonzero;fill:rgb(0%,0%,0%);fill-opacity:1;" d="M 242.0625 127.75 L 244.1875 127.75 L 244.1875 105.4375 L 242.0625 105.4375 L 242.0625 127.75 Z M 242.0625 127.75 "/>
<path style=" stroke:none;fill-rule:nonzero;fill:rgb(0%,0%,0%);fill-opacity:1;" d="M 292.699219 20.835938 L 295.550781 21.558594 C 294.949219 23.890625 293.875 25.675781 292.328125 26.910156 C 290.773438 28.136719 288.882812 28.746094 286.644531 28.746094 C 284.339844 28.746094 282.453125 28.277344 281 27.339844 C 279.554688 26.390625 278.453125 25.023438 277.699219 23.238281 C 276.941406 21.441406 276.566406 19.523438 276.566406 17.476562 C 276.566406 15.242188 276.984375 13.289062 277.835938 11.617188 C 278.695312 9.953125 279.910156 8.6875 281.488281 7.828125 C 283.0625 6.96875 284.796875 6.539062 286.703125 6.539062 C 288.851562 6.539062 290.652344 7.085938 292.113281 8.179688 C 293.582031 9.273438 294.601562 10.8125 295.179688 12.789062 L 292.386719 13.453125 C 291.878906 11.890625 291.148438 10.753906 290.199219 10.035156 C 289.261719 9.320312 288.074219 8.960938 286.644531 8.960938 C 284.988281 8.960938 283.609375 9.359375 282.503906 10.152344 C 281.394531 10.949219 280.613281 12.007812 280.160156 13.335938 C 279.714844 14.664062 279.496094 16.039062 279.496094 17.457031 C 279.496094 19.28125 279.753906 20.875 280.277344 22.242188 C 280.808594 23.609375 281.632812 24.632812 282.757812 25.308594 C 283.890625 25.972656 285.105469 26.304688 286.410156 26.304688 C 288.011719 26.304688 289.359375 25.851562 290.453125 24.9375 C 291.554688 24.015625 292.308594 22.648438 292.699219 20.835938 Z M 292.699219 20.835938 "/>
<path style=" stroke:none;fill-rule:nonzero;fill:rgb(0%,0%,0%);fill-opacity:1;" d="M 299.125 28.375 L 299.125 6.890625 L 301.976562 6.890625 L 301.976562 15.71875 L 313.128906 15.71875 L 313.128906 6.890625 L 315.980469 6.890625 L 315.980469 28.375 L 313.128906 28.375 L 313.128906 18.257812 L 301.976562 18.257812 L 301.976562 28.375 L 299.125 28.375 Z M 299.125 28.375 "/>
<path style=" stroke:none;fill-rule:nonzero;fill:rgb(0%,0%,0%);fill-opacity:1;" d="M 319.394531 30.472656 L 321.386719 30.21875 C 321.605469 31.34375 321.992188 32.148438 322.539062 32.640625 C 323.085938 33.140625 323.75 33.382812 324.53125 33.382812 C 325.46875 33.382812 326.253906 33.066406 326.894531 32.425781 C 327.527344 31.777344 327.851562 30.976562 327.851562 30.023438 C 327.851562 29.117188 327.546875 28.363281 326.953125 27.777344 C 326.367188 27.183594 325.613281 26.878906 324.707031 26.878906 C 324.324219 26.878906 323.855469 26.957031 323.300781 27.113281 L 323.515625 25.375 C 323.640625 25.390625 323.753906 25.394531 323.847656 25.394531 C 324.675781 25.394531 325.433594 25.175781 326.113281 24.730469 C 326.785156 24.292969 327.128906 23.613281 327.128906 22.699219 C 327.128906 21.972656 326.878906 21.371094 326.386719 20.902344 C 325.886719 20.425781 325.257812 20.179688 324.492188 20.179688 C 323.71875 20.179688 323.074219 20.425781 322.558594 20.902344 C 322.050781 21.386719 321.722656 22.113281 321.582031 23.089844 L 319.609375 22.738281 C 319.84375 21.410156 320.390625 20.386719 321.25 19.652344 C 322.109375 18.925781 323.171875 18.558594 324.453125 18.558594 C 325.320312 18.558594 326.132812 18.75 326.875 19.125 C 327.617188 19.507812 328.183594 20.019531 328.574219 20.667969 C 328.964844 21.324219 329.160156 22.011719 329.160156 22.738281 C 329.160156 23.441406 328.96875 24.082031 328.59375 24.652344 C 328.226562 25.214844 327.675781 25.664062 326.933594 26 C 327.878906 26.226562 328.617188 26.683594 329.140625 27.386719 C 329.671875 28.082031 329.941406 28.941406 329.941406 29.964844 C 329.941406 31.371094 329.421875 32.574219 328.398438 33.558594 C 327.382812 34.535156 326.09375 35.023438 324.53125 35.023438 C 323.109375 35.023438 321.933594 34.605469 320.996094 33.753906 C 320.066406 32.910156 319.535156 31.816406 319.394531 30.472656 Z M 319.394531 30.472656 "/>
<path style=" stroke:none;fill-rule:nonzero;fill:rgb(0%,0%,0%);fill-opacity:1;" d="M 285 31.625 L 287.125 31.625 L 287.125 66.4375 L 286.0625 67.0625 L 285 66.4375 L 285 31.625 Z M 285 31.625 "/>
<path style=" stroke:none;fill-rule:nonzero;fill:rgb(0%,0%,0%);fill-opacity:1;" d="M 378.636719 70.460938 L 381.488281 71.183594 C 380.886719 73.515625 379.8125 75.300781 378.265625 76.535156 C 376.710938 77.761719 374.820312 78.371094 372.582031 78.371094 C 370.277344 78.371094 368.390625 77.902344 366.9375 76.964844 C 365.492188 76.015625 364.390625 74.648438 363.636719 72.863281 C 362.878906 71.066406 362.503906 69.148438 362.503906 67.101562 C 362.503906 64.867188 362.921875 62.914062 363.773438 61.242188 C 364.632812 59.578125 365.847656 58.3125 367.425781 57.453125 C 369 56.59375 370.734375 56.164062 372.640625 56.164062 C 374.789062 56.164062 376.589844 56.710938 378.050781 57.804688 C 379.519531 58.898438 380.539062 60.4375 381.117188 62.414062 L 378.324219 63.078125 C 377.816406 61.515625 377.085938 60.378906 376.136719 59.660156 C 375.199219 58.945312 374.011719 58.585938 372.582031 58.585938 C 370.925781 58.585938 369.546875 58.984375 368.441406 59.777344 C 367.332031 60.574219 366.550781 61.632812 366.097656 62.960938 C 365.652344 64.289062 365.433594 65.664062 365.433594 67.082031 C 365.433594 68.90625 365.691406 70.5 366.214844 71.867188 C 366.746094 73.234375 367.570312 74.257812 368.695312 74.933594 C 369.828125 75.597656 371.042969 75.929688 372.347656 75.929688 C 373.949219 75.929688 375.296875 75.476562 376.390625 74.5625 C 377.492188 73.640625 378.246094 72.273438 378.636719 70.460938 Z M 378.636719 70.460938 "/>
<path style=" stroke:none;fill-rule:nonzero;fill:rgb(0%,0%,0%);fill-opacity:1;" d="M 360.125 72.6875 L 361.1875 74.5625 L 342.3125 85.4375 L 341.25 83.625 L 360.125 72.6875 Z M 360.125 72.6875 "/>
<path style=" stroke:none;fill-rule:nonzero;fill:rgb(0%,0%,0%);fill-opacity:1;" d="M 406.472656 53 L 406.472656 31.515625 L 409.382812 31.515625 L 420.671875 48.390625 L 420.671875 31.515625 L 423.386719 31.515625 L 423.386719 53 L 420.476562 53 L 409.207031 36.125 L 409.207031 53 L 406.472656 53 Z M 406.472656 53 "/>
<path style=" stroke:none;fill-rule:nonzero;fill:rgb(0%,0%,0%);fill-opacity:1;" d="M 397.875 42.3125 L 398.9375 44.1875 L 380.375 54.875 L 379.3125 53.0625 L 397.875 42.3125 Z M 397.875 42.3125 "/>
<path style=" stroke:none;fill-rule:nonzero;fill:rgb(0%,0%,0%);fill-opacity:1;" d="M 401.5625 48.75 L 402.625 50.625 L 384.0625 61.3125 L 383 59.5 L 401.5625 48.75 Z M 401.5625 48.75 "/>
<path style=" stroke:none;fill-rule:nonzero;fill:rgb(0%,0%,0%);fill-opacity:1;" d="M 405.3125 55.1875 L 406.375 57.0625 L 387.8125 67.75 L 386.75 65.9375 L 405.3125 55.1875 Z M 405.3125 55.1875 "/>
</g>
</g>
</svg>
