<?xml version="1.0" encoding="UTF-8" standalone="no"?>
<!-- Created with Inkscape (http://www.inkscape.org/) -->

<svg
   xmlns:dc="http://purl.org/dc/elements/1.1/"
   xmlns:cc="http://creativecommons.org/ns#"
   xmlns:rdf="http://www.w3.org/1999/02/22-rdf-syntax-ns#"
   xmlns:svg="http://www.w3.org/2000/svg"
   xmlns="http://www.w3.org/2000/svg"
   version="1.1"
   width="100%"
   height="100%"
   viewBox="417.18 200.53 452.21 214.75"
   id="svg2985">
  <metadata
     id="metadata3189">
    <rdf:RDF>
      <cc:Work
         rdf:about="">
        <dc:format>image/svg+xml</dc:format>
        <dc:type
           rdf:resource="http://purl.org/dc/dcmitype/StillImage" />
        <dc:title></dc:title>
      </cc:Work>
    </rdf:RDF>
  </metadata>
  <defs
     id="defs3187" />
  <clipPath
     id="118">
    <rect
       width="1116.8"
       height="1610"
       x="0.85"
       y="0.85"
       id="rect2988" />
  </clipPath>
  <g
     transform="translate(0.08625,20.093)"
     id="g3085" />
  <g
     transform="translate(10.045,10.045)"
     id="Solid">
    <path
       d="m 417.18,220.87 0,0 0.85,0.49 0.85,0.49 0,38.7 -0.85,0.49 -0.85,0.49 z"
       id="path2995"
       style="fill:#000000;fill-rule:evenodd;stroke:#000000;stroke-width:0;stroke-linejoin:miter" />
    <path
       d="m 423.98,224.8 0,32.8"
       id="line2997"
       style="stroke:#000000;stroke-width:1.7" />
  </g>
  <g
     transform="translate(10.045,10.045)"
     id="g2999">
    <path
       d="m 417.18,261.53 0,0 0.85,-0.49 0.85,-0.49 33.52,19.36 0,0.98 -0.85,0.49 z"
       id="path3001"
       style="fill:#000000;fill-rule:evenodd;stroke:#000000;stroke-width:0;stroke-linejoin:miter" />
  </g>
  <g
     transform="translate(10.045,10.045)"
     id="g3003">
    <path
       d="m 453.25,281.38 0,0 -0.85,-0.49 0,-0.98 33.52,-19.36 0.85,0.49 0,0.98 z"
       id="path3005"
       style="fill:#000000;fill-rule:evenodd;stroke:#000000;stroke-width:0;stroke-linejoin:miter" />
    <path
       d="M 452.4,274.01 480.82,257.6"
       id="line3007"
       style="stroke:#000000;stroke-width:1.7" />
  </g>
  <g
     transform="translate(10.045,10.045)"
     id="g3009">
    <path
       d="m 487.62,260.55 0,0 -0.85,0.49 -0.85,-0.49 0,-38.7 0.85,-0.49 0.85,-0.49 z"
       id="path3011"
       style="fill:#000000;fill-rule:evenodd;stroke:#000000;stroke-width:0;stroke-linejoin:miter" />
  </g>
  <g
     transform="translate(10.045,10.045)"
     id="g3013">
    <path
       d="m 487.62,220.87 0,0 -0.85,0.49 -0.85,0.49 -33.52,-19.36 0,-0.98 0,-0.98 z"
       id="path3015"
       style="fill:#000000;fill-rule:evenodd;stroke:#000000;stroke-width:0;stroke-linejoin:miter" />
    <path
       d="M 480.82,224.8 452.4,208.39"
       id="line3017"
       style="stroke:#000000;stroke-width:1.7" />
  </g>
  <g
     transform="translate(10.045,10.045)"
     id="g3019">
    <path
       d="m 452.4,200.53 0,0 0,0.98 0,0.98 -33.52,19.36 -0.85,-0.49 -0.85,-0.49 z"
       id="path3021"
       style="fill:#000000;fill-rule:evenodd;stroke:#000000;stroke-width:0;stroke-linejoin:miter" />
  </g>
  <g
     transform="translate(10.045,10.045)"
     id="g3023">
    <g
       id="text3025"
       style="text-anchor:start">
      <path
         d="m 457.83,324 2.27,0.57 c -0.47,1.87 -1.33,3.29 -2.57,4.27 -1.24,0.98 -2.75,1.47 -4.54,1.47 -1.85,0 -3.36,-0.37 -4.52,-1.13 -1.16,-0.75 -2.04,-1.84 -2.65,-3.27 -0.6,-1.43 -0.9,-2.97 -0.9,-4.61 0,-1.79 0.34,-3.35 1.02,-4.68 0.68,-1.33 1.66,-2.34 2.92,-3.04 1.26,-0.69 2.65,-1.03 4.16,-1.03 1.72,0 3.17,0.43 4.34,1.31 1.17,0.87 1.99,2.11 2.45,3.69 l -2.24,0.53 c -0.4,-1.25 -0.98,-2.16 -1.73,-2.73 -0.76,-0.57 -1.71,-0.86 -2.86,-0.86 -1.32,0 -2.43,0.32 -3.31,0.95 -0.89,0.63 -1.51,1.48 -1.87,2.55 -0.36,1.07 -0.54,2.17 -0.54,3.3 0,1.46 0.21,2.74 0.64,3.83 0.42,1.09 1.09,1.9 1.98,2.44 0.9,0.54 1.88,0.81 2.92,0.81 1.28,0 2.35,-0.37 3.24,-1.1 0.88,-0.74 1.48,-1.83 1.79,-3.27 z"
         id="path3427"
         style="font-size:24px;fill:#000000;font-family:Arial" />
      <path
         d="m 462.89,330.02 0,-17.18 2.33,0 9.03,13.49 0,-13.49 2.18,0 0,17.18 -2.33,0 -9.03,-13.5 0,13.5 z"
         id="path3429"
         style="font-size:24px;fill:#000000;font-family:Arial" />
    </g>
  </g>
  <g
     transform="translate(10.045,10.045)"
     id="g3029">
    <path
       d="m 451.55,281.38 0,0 0.85,-0.49 0.85,0.49 0,28.92 -0.85,0 -0.85,0 z"
       id="path3031"
       style="fill:#000000;fill-rule:evenodd;stroke:#000000;stroke-width:0;stroke-linejoin:miter" />
  </g>
  <g
     transform="translate(10.045,10.045)"
     id="g3033">
    <g
       id="text3035"
       style="text-anchor:start">
      <path
         d="m 512.97,281.97 c 0,-2.85 0.77,-5.08 2.3,-6.69 1.53,-1.62 3.5,-2.42 5.93,-2.42 1.58,0 3.01,0.37 4.29,1.13 1.27,0.76 2.24,1.82 2.91,3.17 0.67,1.36 1,2.89 1,4.61 0,1.75 -0.35,3.3 -1.05,4.68 -0.71,1.37 -1.7,2.42 -2.99,3.12 -1.29,0.71 -2.68,1.06 -4.18,1.06 -1.61,0 -3.06,-0.39 -4.33,-1.17 -1.27,-0.78 -2.24,-1.85 -2.9,-3.2 -0.65,-1.35 -0.98,-2.78 -0.98,-4.29 z m 2.34,0 c 0,2.07 0.56,3.7 1.67,4.89 1.12,1.19 2.51,1.79 4.19,1.79 1.71,0 3.12,-0.6 4.23,-1.81 1.1,-1.2 1.66,-2.91 1.66,-5.12 0,-1.4 -0.24,-2.62 -0.71,-3.66 -0.48,-1.04 -1.17,-1.85 -2.08,-2.43 -0.91,-0.57 -1.93,-0.86 -3.06,-0.86 -1.61,0 -3,0.56 -4.16,1.66 -1.16,1.11 -1.74,2.95 -1.74,5.54 z"
         id="path3424"
         style="font-size:24px;fill:#000000;font-family:Arial" />
    </g>
  </g>
  <g
     transform="translate(10.045,10.045)"
     id="g3039">
    <path
       d="m 486.77,262.02 0,0 0,-0.98 0.85,-0.49 24.61,14.21 -0.42,0.74 -0.43,0.74 z"
       id="path3041"
       style="fill:#000000;fill-rule:evenodd;stroke:#000000;stroke-width:0;stroke-linejoin:miter" />
  </g>
  <g
     transform="translate(10.045,10.045)"
     id="g3043">
    <path
       d="m 531.02,276.17 0,0 -0.43,-0.74 -0.42,-0.74 24.48,-14.14 0.85,0.49 0,0.98 z"
       id="path3045"
       style="fill:#000000;fill-rule:evenodd;stroke:#000000;stroke-width:0;stroke-linejoin:miter" />
  </g>
  <g
     transform="translate(10.045,10.045)"
     id="g3047">
    <g
       id="text3049"
       style="text-anchor:start">
      <path
         d="m 617.4,230.81 0,-17.18 2.33,0 9.02,13.49 0,-13.49 2.18,0 0,17.18 -2.33,0 -9.02,-13.5 0,13.5 z"
         id="path3421"
         style="font-size:24px;fill:#000000;font-family:Arial" />
    </g>
  </g>
  <g
     transform="translate(10.045,10.045)"
     id="g3053">
    <g
       id="text3055"
       style="text-anchor:start">
      <path
         d="m 548.66,230.81 0,-17.18 2.33,0 9.02,13.49 0,-13.49 2.18,0 0,17.18 -2.33,0 -9.02,-13.5 0,13.5 z"
         id="path3418"
         style="font-size:24px;fill:#000000;font-family:Arial" />
    </g>
  </g>
  <g
     transform="translate(10.045,10.045)"
     id="g3059">
    <path
       d="m 555.5,262.02 0,0 0,-0.98 0.85,-0.49 33.52,19.36 0,0.98 0,0.98 z"
       id="path3061"
       style="fill:#000000;fill-rule:evenodd;stroke:#000000;stroke-width:0;stroke-linejoin:miter" />
    <path
       d="m 561.45,257.6 28.42,16.41"
       id="line3063"
       style="stroke:#000000;stroke-width:1.7" />
  </g>
  <g
     transform="translate(10.045,10.045)"
     id="g3065">
    <path
       d="m 589.87,281.87 0,0 0,-0.98 0,-0.98 33.52,-19.36 0.85,0.49 0,0.98 z"
       id="path3067"
       style="fill:#000000;fill-rule:evenodd;stroke:#000000;stroke-width:0;stroke-linejoin:miter" />
  </g>
  <g
     transform="translate(10.045,10.045)"
     id="g3069">
    <path
       d="m 625.09,260.55 0,0 -0.85,0.49 -0.85,-0.49 0,-27.35 0.85,0 0.85,0 z"
       id="path3071"
       style="fill:#000000;fill-rule:evenodd;stroke:#000000;stroke-width:0;stroke-linejoin:miter" />
    <path
       d="m 618.29,257.6 0,-24.4"
       id="line3073"
       style="stroke:#000000;stroke-width:1.7" />
  </g>
  <g
     transform="translate(10.045,10.045)"
     id="g3075">
    <path
       d="m 615.83,215.52 0,0 -0.42,0.74 -0.43,0.74 -25.11,-14.51 0,-0.98 0,-0.98 z"
       id="path3077"
       style="fill:#000000;fill-rule:evenodd;stroke:#000000;stroke-width:0;stroke-linejoin:miter" />
  </g>
  <g
     transform="translate(10.045,10.045)"
     id="g3079">
    <path
       d="m 589.87,200.53 0,0 0,0.98 0,0.98 -25.25,14.59 -0.43,-0.74 -0.42,-0.74 z"
       id="path3081"
       style="fill:#000000;fill-rule:evenodd;stroke:#000000;stroke-width:0;stroke-linejoin:miter" />
    <path
       d="m 589.87,208.39 -22.7,13.11"
       id="line3083"
       style="stroke:#000000;stroke-width:1.7" />
  </g>
  <path
     d="m 564.69,241.84 0,0 0.85,0 0.85,0 0,28.76 -0.85,0.49 -0.85,-0.49 z"
     id="path3087"
     style="fill:#000000;fill-rule:evenodd;stroke:#000000;stroke-width:0;stroke-linejoin:miter" />
  <g
     transform="translate(10.045,10.045)"
     id="g3089">
    <g
       id="text3091"
       style="text-anchor:start">
      <path
         d="m 650.44,281.97 c 0,-2.85 0.77,-5.08 2.3,-6.69 1.53,-1.62 3.5,-2.42 5.93,-2.42 1.58,0 3.01,0.37 4.29,1.13 1.27,0.76 2.24,1.82 2.91,3.17 0.67,1.36 1,2.89 1,4.61 0,1.75 -0.35,3.3 -1.05,4.68 -0.71,1.37 -1.7,2.42 -2.99,3.12 -1.29,0.71 -2.68,1.06 -4.17,1.06 -1.62,0 -3.07,-0.39 -4.34,-1.17 -1.27,-0.78 -2.24,-1.85 -2.9,-3.2 -0.65,-1.35 -0.98,-2.78 -0.98,-4.29 z m 2.34,0 c 0,2.07 0.56,3.7 1.67,4.89 1.12,1.19 2.51,1.79 4.19,1.79 1.71,0 3.12,-0.6 4.23,-1.81 1.1,-1.2 1.66,-2.91 1.66,-5.12 0,-1.4 -0.24,-2.62 -0.71,-3.66 -0.48,-1.04 -1.17,-1.85 -2.08,-2.43 -0.91,-0.57 -1.93,-0.86 -3.06,-0.86 -1.61,0 -3,0.56 -4.16,1.66 -1.16,1.11 -1.74,2.95 -1.74,5.54 z"
         id="path3412"
         style="font-size:24px;fill:#000000;font-family:Arial" />
    </g>
  </g>
  <g
     transform="translate(10.045,10.045)"
     id="g3095">
    <path
       d="m 624.24,262.02 0,0 0,-0.98 0.85,-0.49 24.64,14.23 -0.42,0.74 -0.43,0.73 z"
       id="path3097"
       style="fill:#000000;fill-rule:evenodd;stroke:#000000;stroke-width:0;stroke-linejoin:miter" />
  </g>
  <g
     transform="translate(10.045,10.045)"
     id="g3099">
    <path
       d="m 668.52,276.15 0,0 -0.43,-0.74 -0.42,-0.73 24.46,-14.13 0.85,0.49 0,0.98 z"
       id="path3101"
       style="fill:#000000;fill-rule:evenodd;stroke:#000000;stroke-width:0;stroke-linejoin:miter" />
  </g>
  <g
     transform="translate(10.045,10.045)"
     id="g3103">
    <path
       d="m 692.98,262.02 0,0 0,-0.98 0.85,-0.49 33.52,19.36 0,0.98 -0.85,0.49 z"
       id="path3105"
       style="fill:#000000;fill-rule:evenodd;stroke:#000000;stroke-width:0;stroke-linejoin:miter" />
    <path
       d="m 698.93,257.6 28.42,16.41"
       id="line3107"
       style="stroke:#000000;stroke-width:1.7" />
  </g>
  <g
     transform="translate(10.045,10.045)"
     id="g3109">
    <path
       d="m 728.2,281.38 0,0 -0.85,-0.49 0,-0.98 33.51,-19.36 0.85,0.49 0.85,0.49 z"
       id="path3111"
       style="fill:#000000;fill-rule:evenodd;stroke:#000000;stroke-width:0;stroke-linejoin:miter" />
  </g>
  <g
     transform="translate(10.045,10.045)"
     id="g3113">
    <path
       d="m 762.56,261.53 0,0 -0.85,-0.49 -0.85,-0.49 0,-38.7 0.85,-0.49 0.85,-0.49 z"
       id="path3115"
       style="fill:#000000;fill-rule:evenodd;stroke:#000000;stroke-width:0;stroke-linejoin:miter" />
    <path
       d="m 755.76,257.6 0,-32.8"
       id="line3117"
       style="stroke:#000000;stroke-width:1.7" />
  </g>
  <g
     transform="translate(10.045,10.045)"
     id="g3119">
    <path
       d="m 762.56,220.87 0,0 -0.85,0.49 -0.85,0.49 -33.51,-19.36 0,-0.98 0,-0.98 z"
       id="path3121"
       style="fill:#000000;fill-rule:evenodd;stroke:#000000;stroke-width:0;stroke-linejoin:miter" />
  </g>
  <g
     transform="translate(10.045,10.045)"
     id="g3123">
    <path
       d="m 727.35,200.53 0,0 0,0.98 0,0.98 -33.52,19.36 -0.85,-0.49 -0.85,-0.49 z"
       id="path3125"
       style="fill:#000000;fill-rule:evenodd;stroke:#000000;stroke-width:0;stroke-linejoin:miter" />
    <path
       d="M 727.35,208.39 698.93,224.8"
       id="line3127"
       style="stroke:#000000;stroke-width:1.7" />
  </g>
  <g
     transform="translate(10.045,10.045)"
     id="g3129">
    <path
       d="m 692.13,220.87 0,0 0.85,0.49 0.85,0.49 0,38.7 -0.85,0.49 -0.85,-0.49 z"
       id="path3131"
       style="fill:#000000;fill-rule:evenodd;stroke:#000000;stroke-width:0;stroke-linejoin:miter" />
  </g>
  <g
     transform="translate(10.045,10.045)"
     id="g3133">
    <path
       d="m 726.5,281.38 0,0 0.85,-0.49 0.85,0.49 0,38.7 -0.85,0.49 -0.85,-0.49 z"
       id="path3135"
       style="fill:#000000;fill-rule:evenodd;stroke:#000000;stroke-width:0;stroke-linejoin:miter" />
  </g>
  <g
     transform="translate(10.045,10.045)"
     id="g3137">
    <path
       d="m 726.5,320.08 0,0 0.85,0.49 0,0.98 -33.52,19.35 -0.85,-0.49 -0.85,-0.49 z"
       id="path3139"
       style="fill:#000000;fill-rule:evenodd;stroke:#000000;stroke-width:0;stroke-linejoin:miter" />
  </g>
  <g
     transform="translate(10.045,10.045)"
     id="g3141">
    <path
       d="m 727.35,321.55 0,0 0,-0.98 0.85,-0.49 33.51,19.35 0,0.98 0,0.98 z"
       id="path3143"
       style="fill:#000000;fill-rule:evenodd;stroke:#000000;stroke-width:0;stroke-linejoin:miter" />
    <path
       d="m 733.3,317.13 28.41,16.41"
       id="line3145"
       style="stroke:#000000;stroke-width:1.7" />
  </g>
  <g
     transform="translate(10.045,10.045)"
     id="g3147">
    <g
       id="text3149"
       style="text-anchor:start">
      <path
         d="m 787.92,321.65 c 0,-2.85 0.77,-5.08 2.3,-6.69 1.53,-1.62 3.5,-2.42 5.93,-2.42 1.58,0 3.01,0.37 4.29,1.13 1.27,0.76 2.24,1.82 2.91,3.17 0.67,1.36 1,2.89 1,4.61 0,1.75 -0.35,3.3 -1.05,4.68 -0.71,1.37 -1.7,2.42 -2.99,3.12 -1.29,0.71 -2.68,1.06 -4.17,1.06 -1.62,0 -3.07,-0.39 -4.34,-1.17 -1.27,-0.78 -2.24,-1.85 -2.9,-3.2 -0.65,-1.35 -0.98,-2.78 -0.98,-4.29 z m 2.34,0 c 0,2.07 0.56,3.7 1.67,4.89 1.12,1.19 2.51,1.79 4.19,1.79 1.71,0 3.12,-0.6 4.23,-1.81 1.1,-1.2 1.66,-2.91 1.66,-5.12 0,-1.4 -0.24,-2.62 -0.71,-3.66 -0.48,-1.04 -1.17,-1.85 -2.08,-2.43 -0.91,-0.57 -1.93,-0.86 -3.06,-0.86 -1.61,0 -3,0.56 -4.16,1.66 -1.16,1.11 -1.74,2.95 -1.74,5.54 z"
         id="path3399"
         style="font-size:24px;fill:#000000;font-family:Arial" />
      <path
         d="m 819.53,324 2.27,0.57 c -0.48,1.87 -1.33,3.29 -2.57,4.27 -1.24,0.98 -2.76,1.47 -4.54,1.47 -1.86,0 -3.36,-0.37 -4.52,-1.13 -1.16,-0.75 -2.04,-1.84 -2.65,-3.27 -0.61,-1.43 -0.91,-2.97 -0.91,-4.61 0,-1.79 0.34,-3.35 1.03,-4.68 0.68,-1.33 1.65,-2.34 2.91,-3.04 1.27,-0.69 2.66,-1.03 4.17,-1.03 1.72,0 3.16,0.43 4.34,1.31 1.17,0.87 1.99,2.11 2.45,3.69 l -2.24,0.53 c -0.4,-1.25 -0.98,-2.16 -1.74,-2.73 -0.75,-0.57 -1.71,-0.86 -2.86,-0.86 -1.32,0 -2.42,0.32 -3.31,0.95 -0.88,0.63 -1.51,1.48 -1.87,2.55 -0.35,1.07 -0.53,2.17 -0.53,3.3 0,1.46 0.21,2.74 0.63,3.83 0.43,1.09 1.09,1.9 1.99,2.44 0.9,0.54 1.87,0.81 2.92,0.81 1.27,0 2.35,-0.37 3.23,-1.1 0.89,-0.74 1.48,-1.83 1.8,-3.27 z"
         id="path3401"
         style="font-size:24px;fill:#000000;font-family:Arial" />
      <path
         d="m 824.68,330.02 0,-17.18 2.28,0 0,7.05 8.93,0 0,-7.05 2.27,0 0,17.18 -2.27,0 0,-8.1 -8.93,0 0,8.1 z"
         id="path3403"
         style="font-size:24px;fill:#000000;font-family:Arial" />
      <path
         d="m 840.86,332.05 1.58,-0.21 c 0.18,0.89 0.49,1.54 0.93,1.94 0.44,0.39 0.97,0.59 1.59,0.59 0.75,0 1.38,-0.26 1.89,-0.77 0.51,-0.52 0.77,-1.16 0.77,-1.92 0,-0.73 -0.24,-1.33 -0.71,-1.8 -0.48,-0.47 -1.08,-0.71 -1.81,-0.71 -0.3,0 -0.67,0.1 -1.12,0.18 l 0.18,-1.39 c 0.1,0 0.19,0 0.25,0 0.67,0 1.28,-0.18 1.82,-0.53 0.54,-0.35 0.81,-0.89 0.81,-1.62 0,-0.58 -0.2,-1.06 -0.59,-1.45 -0.39,-0.38 -0.9,-0.57 -1.52,-0.57 -0.62,0 -1.13,0.2 -1.54,0.58 -0.41,0.39 -0.67,0.97 -0.79,1.74 l -1.58,-0.28 c 0.19,-1.06 0.63,-1.88 1.32,-2.46 0.68,-0.59 1.53,-0.88 2.55,-0.88 0.71,0 1.35,0.15 1.95,0.46 0.59,0.3 1.04,0.71 1.35,1.23 0.32,0.52 0.47,1.08 0.47,1.66 0,0.56 -0.15,1.06 -0.44,1.52 -0.3,0.46 -0.75,0.82 -1.33,1.09 0.76,0.18 1.35,0.54 1.77,1.1 0.43,0.55 0.64,1.24 0.64,2.07 0,1.13 -0.41,2.08 -1.23,2.87 -0.82,0.78 -1.86,1.17 -3.11,1.17 -1.14,0 -2.07,-0.34 -2.82,-1.01 -0.75,-0.68 -1.17,-1.55 -1.28,-2.62 z"
         id="path3405"
         style="font-size:18px;fill:#000000;font-family:Arial" />
    </g>
  </g>
  <g
     transform="translate(10.045,10.045)"
     id="g3155">
    <path
       d="m 761.71,341.39 0,0 0,-0.98 0,-0.98 24.17,-13.96 0.43,0.74 0.42,0.74 z"
       id="path3157"
       style="fill:#000000;fill-rule:evenodd;stroke:#000000;stroke-width:0;stroke-linejoin:miter" />
  </g>
  <g
     transform="translate(10.045,10.045)"
     id="g3159">
    <g
       id="text3161"
       style="text-anchor:start">
      <path
         d="m 684.81,381.18 c 0,-2.85 0.77,-5.08 2.3,-6.69 1.53,-1.62 3.5,-2.42 5.93,-2.42 1.58,0 3.01,0.37 4.29,1.13 1.27,0.76 2.24,1.82 2.91,3.17 0.67,1.36 1,2.89 1,4.61 0,1.75 -0.35,3.3 -1.05,4.68 -0.71,1.37 -1.7,2.42 -2.99,3.12 -1.29,0.71 -2.68,1.06 -4.17,1.06 -1.62,0 -3.07,-0.39 -4.34,-1.17 -1.27,-0.78 -2.24,-1.85 -2.9,-3.2 -0.65,-1.35 -0.98,-2.78 -0.98,-4.29 z m 2.34,0 c 0,2.07 0.56,3.7 1.67,4.89 1.12,1.19 2.51,1.79 4.19,1.79 1.71,0 3.12,-0.6 4.23,-1.81 1.1,-1.2 1.66,-2.91 1.66,-5.12 0,-1.4 -0.24,-2.62 -0.71,-3.66 -0.48,-1.04 -1.17,-1.85 -2.08,-2.43 -0.91,-0.57 -1.93,-0.86 -3.06,-0.86 -1.61,0 -3,0.56 -4.16,1.66 -1.16,1.11 -1.74,2.95 -1.74,5.54 z"
         id="path3390"
         style="font-size:24px;fill:#000000;font-family:Arial" />
      <path
         d="m 716.42,383.53 2.27,0.57 c -0.48,1.87 -1.33,3.29 -2.57,4.27 -1.24,0.98 -2.76,1.47 -4.54,1.47 -1.86,0 -3.36,-0.37 -4.52,-1.13 -1.16,-0.75 -2.04,-1.84 -2.65,-3.27 -0.61,-1.43 -0.91,-2.97 -0.91,-4.61 0,-1.79 0.34,-3.35 1.03,-4.68 0.68,-1.33 1.65,-2.34 2.91,-3.04 1.27,-0.69 2.66,-1.03 4.17,-1.03 1.72,0 3.17,0.43 4.34,1.31 1.17,0.87 1.99,2.11 2.45,3.69 l -2.24,0.53 c -0.4,-1.25 -0.98,-2.16 -1.74,-2.73 -0.75,-0.57 -1.71,-0.86 -2.86,-0.86 -1.32,0 -2.42,0.32 -3.31,0.95 -0.88,0.63 -1.51,1.48 -1.87,2.55 -0.35,1.07 -0.53,2.17 -0.53,3.3 0,1.46 0.21,2.74 0.63,3.83 0.43,1.09 1.09,1.9 1.99,2.44 0.9,0.54 1.87,0.81 2.92,0.81 1.27,0 2.35,-0.37 3.23,-1.1 0.89,-0.74 1.48,-1.83 1.8,-3.27 z"
         id="path3392"
         style="font-size:24px;fill:#000000;font-family:Arial" />
      <path
         d="m 721.57,389.55 0,-17.18 2.28,0 0,7.05 8.93,0 0,-7.05 2.27,0 0,17.18 -2.27,0 0,-8.1 -8.93,0 0,8.1 z"
         id="path3394"
         style="font-size:24px;fill:#000000;font-family:Arial" />
      <path
         d="m 737.75,391.58 1.58,-0.21 c 0.18,0.89 0.49,1.54 0.93,1.94 0.44,0.39 0.97,0.59 1.59,0.59 0.75,0 1.38,-0.26 1.89,-0.77 0.51,-0.52 0.77,-1.16 0.77,-1.92 0,-0.73 -0.24,-1.33 -0.71,-1.8 -0.48,-0.47 -1.08,-0.71 -1.81,-0.71 -0.3,0 -0.67,0.1 -1.12,0.18 l 0.18,-1.39 c 0.1,0 0.19,0 0.25,0 0.67,0 1.28,-0.18 1.82,-0.53 0.54,-0.35 0.81,-0.89 0.81,-1.62 0,-0.58 -0.2,-1.06 -0.59,-1.45 -0.39,-0.38 -0.9,-0.57 -1.52,-0.57 -0.62,0 -1.13,0.2 -1.54,0.58 -0.41,0.39 -0.67,0.97 -0.79,1.74 l -1.58,-0.28 c 0.19,-1.06 0.63,-1.88 1.32,-2.46 0.68,-0.59 1.53,-0.88 2.55,-0.88 0.71,0 1.35,0.15 1.95,0.46 0.59,0.3 1.04,0.71 1.35,1.23 0.32,0.52 0.47,1.08 0.47,1.66 0,0.56 -0.15,1.06 -0.44,1.52 -0.3,0.46 -0.75,0.82 -1.33,1.09 0.76,0.18 1.35,0.54 1.77,1.1 0.43,0.55 0.64,1.24 0.64,2.07 0,1.13 -0.41,2.08 -1.23,2.87 -0.82,0.78 -1.86,1.17 -3.11,1.17 -1.14,0 -2.07,-0.34 -2.82,-1.01 -0.75,-0.68 -1.17,-1.55 -1.28,-2.62 z"
         id="path3396"
         style="font-size:18px;fill:#000000;font-family:Arial" />
    </g>
  </g>
  <g
     transform="translate(10.045,10.045)"
     id="g3167">
    <path
       d="m 692.13,339.92 0,0 0.85,0.49 0.85,0.49 0,28.9 -0.85,0 -0.85,0 z"
       id="path3169"
       style="fill:#000000;fill-rule:evenodd;stroke:#000000;stroke-width:0;stroke-linejoin:miter" />
  </g>
  <g
     transform="translate(10.045,10.045)"
     id="g3171">
    <g
       id="text3173"
       style="text-anchor:start">
      <path
         d="m 650.44,321.65 c 0,-2.85 0.77,-5.08 2.3,-6.69 1.53,-1.62 3.5,-2.42 5.93,-2.42 1.58,0 3.01,0.37 4.29,1.13 1.27,0.76 2.24,1.82 2.91,3.17 0.67,1.36 1,2.89 1,4.61 0,1.75 -0.35,3.3 -1.05,4.68 -0.71,1.37 -1.7,2.42 -2.99,3.12 -1.29,0.71 -2.68,1.06 -4.17,1.06 -1.62,0 -3.07,-0.39 -4.34,-1.17 -1.27,-0.78 -2.24,-1.85 -2.9,-3.2 -0.65,-1.35 -0.98,-2.78 -0.98,-4.29 z m 2.34,0 c 0,2.07 0.56,3.7 1.67,4.89 1.12,1.19 2.51,1.79 4.19,1.79 1.71,0 3.12,-0.6 4.23,-1.81 1.1,-1.2 1.66,-2.91 1.66,-5.12 0,-1.4 -0.24,-2.62 -0.71,-3.66 -0.48,-1.04 -1.17,-1.85 -2.08,-2.43 -0.91,-0.57 -1.93,-0.86 -3.06,-0.86 -1.61,0 -3,0.56 -4.16,1.66 -1.16,1.11 -1.74,2.95 -1.74,5.54 z"
         id="path3387"
         style="font-size:24px;fill:#000000;font-family:Arial" />
    </g>
  </g>
  <g
     transform="translate(10.045,10.045)"
     id="g3177">
    <path
       d="M 691.49,342.99 667.4,329.08"
       id="line3179"
       style="stroke:#000000;stroke-width:1.7" />
    <path
       d="m 694.26,338.69 0,0 1.7,-0.98 -25.16,-14.52 -0.84,1.47 z"
       id="path3181"
       style="fill:#000000;fill-rule:evenodd;stroke:#000000;stroke-width:0;stroke-linejoin:miter" />
    <path
       d="m 692.13,344.34 0,0 0,-1.97 -24.3,-14.02 -0.85,1.47 z"
       id="path3183"
       style="fill:#000000;fill-rule:evenodd;stroke:#000000;stroke-width:0;stroke-linejoin:miter" />
  </g>
</svg>
