<svg xmlns:rdf="http://www.w3.org/1999/02/22-rdf-syntax-ns#" xmlns="http://www.w3.org/2000/svg" height="147" shape-rendering="geometricPrecision" width="309" version="1.1" xmlns:cc="http://creativecommons.org/ns#" xmlns:dc="http://purl.org/dc/elements/1.1/" preserveAspectRatio="xMidYMid">
<title>isopropyl 2-(4-methoxy-[1,1&apos;-biphenyl]-3-yl)hydrazinecarboxylate</title>
<metadata>
<rdf:RDF>
<cc:Work rdf:about="">
<dc:format>image/svg+xml</dc:format>
<dc:type rdf:resource="http://purl.org/dc/dcmitype/StillImage"/>
<dc:title>isopropyl 2-(4-methoxy-[1,1&apos;-biphenyl]-3-yl)hydrazinecarboxylate</dc:title>
<cc:license rdf:resource="http://creativecommons.org/licenses/publicdomain/"/>
</cc:Work>
<cc:License rdf:about="http://creativecommons.org/licenses/publicdomain/">
<cc:permits rdf:resource="http://creativecommons.org/ns#Reproduction"/>
<cc:permits rdf:resource="http://creativecommons.org/ns#Distribution"/>
<cc:permits rdf:resource="http://creativecommons.org/ns#DerivativeWorks"/>
</cc:License>
</rdf:RDF>
</metadata>
<path d="M27.53125,2.6875,2,17.4375,2,46.9375,27.53125,61.6875,52.5,47.28125,76.84375,61.34375,76.84375,90.125,102.375,104.875,127.3125,90.46875,142.875,99.46875,143.46875,98.4375,127.90625,89.4375,127.90625,61.34375,144.1875,51.9375,143.59375,50.90625,127.3125,60.3125,102.375,45.90625,77.4375,60.3125,53.09375,46.25,53.09375,17.4375,27.53125,2.6875zm0,1.375,24.34375,14.0625,0,28.125-24.34375,14.0625-24.34375-14.0625,0-28.125,24.34375-14.0625zm-0.3125,4.8125-19.75,11.375,0.59375,1.0625,19.75-11.40625-0.59375-1.03125zm174.9375,1.625c-2.01823,0.00001-3.69271,0.68686-4.96875,2.03125-1.27604,1.34441-1.90625,3.18621-1.90625,5.5625,0,1.25652,0.26563,2.46745,0.8125,3.59375,0.54688,1.12631,1.3763,2.00521,2.4375,2.65625s2.24608,0.96875,3.59375,0.96875c1.24348,0,2.39452-0.28581,3.46875-0.875,1.0742-0.58919,1.91405-1.44791,2.5-2.59375,0.58593-1.14583,0.87498-2.45442,0.875-3.90625-0.00002-1.43228-0.25588-2.71418-0.8125-3.84375-0.55666-1.12954-1.37632-1.99347-2.4375-2.625-1.06121-0.63149-2.24089-0.96874-3.5625-0.96875zm50.4375,0.03125c-1.26303,0.00002-2.41732,0.26759-3.46875,0.84375-1.05143,0.57619-1.86784,1.42123-2.4375,2.53125-0.56966,1.11003-0.875,2.41538-0.875,3.90625,0,1.3672,0.2767,2.65234,0.78125,3.84375,0.50456,1.1914,1.2207,2.09049,2.1875,2.71875,0.96679,0.62825,2.23828,0.9375,3.78125,0.9375,1.49088,0,2.74934-0.40169,3.78125-1.21875,1.03189-0.81705,1.72785-2.0065,2.125-3.5625l-1.875-0.46875c-0.26043,1.20443-0.76434,2.10677-1.5,2.71875-0.73569,0.61198-1.62631,0.90625-2.6875,0.90625-0.8724,0-1.6888-0.20703-2.4375-0.65625s-1.30144-1.12305-1.65625-2.03125c-0.35482-0.9082-0.53125-1.97005-0.53125-3.1875,0-0.944,0.13802-1.86132,0.4375-2.75,0.29948-0.88867,0.82356-1.59764,1.5625-2.125,0.73893-0.52733,1.64973-0.81249,2.75-0.8125,0.95702,0.00001,1.77473,0.2435,2.40625,0.71875,0.6315,0.47527,1.10546,1.23959,1.4375,2.28125l1.875-0.4375c-0.38413-1.3216-1.08595-2.33332-2.0625-3.0625-0.97657-0.72915-2.16147-1.09373-3.59375-1.09375zm8.28125,0.21875,0,14.34375,1.90625,0,0-6.75,7.4375,0,0,6.75,1.90625,0,0-14.34375-1.90625,0,0,5.90625-7.4375,0,0-5.90625-1.90625,0zm-58.71875,1.375c0.944,0.00001,1.80402,0.24025,2.5625,0.71875,0.75845,0.47853,1.32486,1.16213,1.71875,2.03125,0.39387,0.86915,0.59374,1.89715,0.59375,3.0625-0.00001,1.84246-0.45379,3.2474-1.375,4.25-0.92124,1.00261-2.10548,1.5-3.53125,1.5-1.39975,0-2.57227-0.47591-3.5-1.46875-0.92774-0.99284-1.37501-2.36848-1.375-4.09375-0.00001-2.15494,0.4707-3.67251,1.4375-4.59375,0.96679-0.92121,2.12759-1.40624,3.46875-1.40625zm75.5625,6.71875c-0.84961,0.00001-1.55372,0.23292-2.125,0.71875-0.57129,0.48585-0.93261,1.17872-1.09375,2.0625l1.3125,0.21875c0.09766-0.64452,0.31445-1.11522,0.65625-1.4375,0.3418-0.32225,0.76855-0.49999,1.28125-0.5,0.51757,0.00001,0.9541,0.15138,1.28125,0.46875,0.32714,0.31739,0.46875,0.73536,0.46875,1.21875,0,0.61036-0.20704,1.05079-0.65625,1.34375-0.44923,0.29298-0.96973,0.43751-1.53125,0.4375-0.05371,0.00001-0.09961,0.00977-0.1875,0l-0.15625,1.15625c0.37109-0.09765,0.68847-0.15625,0.9375-0.15625,0.61035,0,1.10449,0.20069,1.5,0.59375,0.3955,0.39307,0.59375,0.89454,0.59375,1.5,0,0.63477-0.22901,1.16406-0.65625,1.59375-0.42725,0.42969-0.94239,0.65625-1.5625,0.65625-0.52247,0-0.94873-0.17041-1.3125-0.5s-0.62989-0.87793-0.78125-1.625l-1.3125,0.1875c0.08789,0.89355,0.43994,1.62598,1.0625,2.1875,0.62256,0.56153,1.40137,0.84375,2.34375,0.84375,1.04492,0,1.91015-0.34815,2.59375-1,0.68358-0.65186,1.03124-1.43749,1.03125-2.375-0.00001-0.69335-0.17969-1.25732-0.53125-1.71875-0.35157-0.46142-0.86524-0.79101-1.5-0.9375,0.48828-0.2246,0.87597-0.52539,1.125-0.90625,0.24902-0.38085,0.375-0.78613,0.375-1.25,0-0.48828-0.14503-0.94042-0.40625-1.375-0.26124-0.43456-0.63185-0.77978-1.125-1.03125-0.49317-0.25146-1.03906-0.37499-1.625-0.375zm-231.03125,1.9375,0,22.8125,1.21875,0,0-22.8125-1.21875,0zm99.96875,2.03125,0,14.3125,1.90625,0,0-6.75,7.4375,0,0,6.75,1.90625,0,0-14.3125-1.90625,0,0,5.875-7.4375,0,0-5.875-1.90625,0zm52.28125,5.71875,0,19.21875-13.625,7.84375,0.59375,1.03125,16.21875-9.34375,15.65625,9.03125,0.59375-1.03125-13.03125-7.53125,0-19.21875-1.21875,0,0,18.53125-2-1.15625-1.96875,1.125,0-18.5-1.21875,0zm52.46875,0,0,17.71875-15.5,8.9375,0.625,1.03125,15.5-8.9375,16.15625,9.3125,0.59375-1.03125-16.15625-9.3125,0-17.71875-1.21875,0zm-104.8125,10.90625,0,14.3125,1.8125,0,0-11.25,7.5,11.25,1.96875,0,0-14.3125-1.84375,0,0,11.25-7.5-11.25-1.9375,0zm-138.53125,3.65625-0.59375,1.03125,19.75,11.40625,0.59375-1.0625-19.75-11.375zm94.3125,4.1875,24.34375,14.0625,0,28.09375-24.34375,14.0625-24.34375-14.0625,0-28.09375,24.34375-14.0625zm58.65625,3.65625-0.625,1.0625,8.0625,4.625,0.625-1.03125-8.0625-4.65625zm-58.375,1.125-0.59375,1.03125,19.75,11.40625,0.59375-1.03125-19.75-11.40625zm124.4375,1.65625c-2.01823,0.00001-3.66147,0.65561-4.9375,2-1.27605,1.34441-1.9375,3.21745-1.9375,5.59375,0,1.25651,0.29687,2.43621,0.84375,3.5625,0.54687,1.12631,1.34505,2.03646,2.40625,2.6875,1.06119,0.65104,2.24608,0.96875,3.59375,0.96875,1.24348,0,2.42577-0.31705,3.5-0.90625,1.07421-0.58919,1.8828-1.44791,2.46875-2.59375,0.58593-1.14582,0.87499-2.42317,0.875-3.875-0.00001-1.43228-0.25587-2.71419-0.8125-3.84375-0.55665-1.12955-1.37631-2.02473-2.4375-2.65625-1.06121-0.6315-2.24089-0.93749-3.5625-0.9375zm50.4375,0c-1.26302,0.00001-2.41732,0.29885-3.46875,0.875-1.05143,0.57619-1.86784,1.42124-2.4375,2.53125-0.56966,1.11004-0.84375,2.38412-0.84375,3.875,0,1.36719,0.24544,2.65235,0.75,3.84375,0.50455,1.19141,1.2207,2.12175,2.1875,2.75,0.96679,0.62826,2.23827,0.9375,3.78125,0.9375,1.49087,0,2.74933-0.4017,3.78125-1.21875,1.03188-0.81706,1.7591-2.00651,2.15625-3.5625l-1.90625-0.5c-0.26043,1.20443-0.76433,2.13802-1.5,2.75-0.73569,0.61198-1.62631,0.90625-2.6875,0.90625-0.87241,0-1.68881-0.23828-2.4375-0.6875-0.74871-0.44922-1.30143-1.12305-1.65625-2.03125s-0.53126-1.97004-0.53125-3.1875c-0.00001-0.944,0.13802-1.86132,0.4375-2.75,0.29948-0.88866,0.82357-1.59764,1.5625-2.125,0.73893-0.52733,1.68098-0.78124,2.78125-0.78125,0.95702,0.00001,1.74348,0.2435,2.375,0.71875,0.6315,0.47527,1.10545,1.23959,1.4375,2.28125l1.875-0.46875c-0.38413-1.32161-1.08595-2.33333-2.0625-3.0625-0.97657-0.72916-2.16146-1.09374-3.59375-1.09375zm-106,0.125,0,14.3125,1.8125,0,0-11.25,7.53125,11.25,1.9375,0,0-14.3125-1.8125,0,0,11.21875-7.53125-11.21875-1.9375,0zm114.28125,0.125,0,14.3125,1.90625,0,0-6.75,7.4375,0,0,6.75,1.90625,0,0-14.3125-1.90625,0,0,5.875-7.4375,0,0-5.875-1.90625,0zm-58.71875,1.375c0.944,0.00001,1.80403,0.24025,2.5625,0.71875,0.75845,0.47853,1.32485,1.16212,1.71875,2.03125,0.39386,0.86915,0.59373,1.8659,0.59375,3.03125-0.00002,1.84246-0.45379,3.27865-1.375,4.28125-0.92123,1.00261-2.10548,1.5-3.53125,1.5-1.39974,0-2.57227-0.50716-3.5-1.5-0.92774-0.99283-1.375-2.33723-1.375-4.0625,0-2.15494,0.4707-3.70377,1.4375-4.625,0.9668-0.92122,2.1276-1.37499,3.46875-1.375zm75.5625,6.6875c-0.84962,0.00001-1.55371,0.23292-2.125,0.71875-0.57129,0.48585-0.93262,1.17872-1.09375,2.0625l1.3125,0.21875c0.09765-0.64452,0.31445-1.11523,0.65625-1.4375,0.34179-0.32226,0.76855-0.46874,1.28125-0.46875,0.51758,0.00001,0.9541,0.15138,1.28125,0.46875,0.32715,0.31739,0.49999,0.70411,0.5,1.1875-0.00001,0.61036-0.23829,1.08204-0.6875,1.375-0.44923,0.29298-0.96973,0.4375-1.53125,0.4375-0.05371,0-0.09961-0.02148-0.1875-0.03125l-0.15625,1.15625c0.37109-0.09765,0.68848-0.12499,0.9375-0.125,0.61035,0.00001,1.10449,0.16944,1.5,0.5625,0.3955,0.39307,0.59375,0.89454,0.59375,1.5,0,0.63477-0.19776,1.16407-0.625,1.59375-0.42726,0.42969-0.97364,0.65625-1.59375,0.65625-0.52246,0-0.94873-0.17041-1.3125-0.5s-0.62989-0.84668-0.78125-1.59375l-1.3125,0.15625c0.08789,0.89356,0.43994,1.62597,1.0625,2.1875,0.62256,0.56152,1.40136,0.84375,2.34375,0.84375,1.04491,0,1.91015-0.3169,2.59375-0.96875,0.68359-0.65186,1.03124-1.46875,1.03125-2.40625-0.00001-0.69336-0.1797-1.25732-0.53125-1.71875-0.35157-0.46142-0.83399-0.75976-1.46875-0.90625,0.48828-0.2246,0.84472-0.52538,1.09375-0.90625,0.24902-0.38085,0.37499-0.81738,0.375-1.28125-0.00001-0.48827-0.14503-0.94042-0.40625-1.375-0.26124-0.43456-0.63184-0.77978-1.125-1.03125-0.49317-0.25145-1.03907-0.37499-1.625-0.375zm-220.65625,1.9375,0,22.84375,1.1875,0,0-22.84375-1.1875,0zm89.625,6.5,0,14.3125,1.875,0,0-6.75,7.4375,0,0,6.75,1.90625,0,0-14.3125-1.90625,0,0,5.875-7.4375,0,0-5.875-1.875,0zm-49.8125,15.8125-19.75,11.40625,0.59375,1.03125,19.75-11.40625-0.59375-1.03125zm30.4375,10.625c-2.01824,0.00002-3.66146,0.68687-4.9375,2.03125-1.27604,1.34443-1.90625,3.1862-1.90625,5.5625,0,1.25651,0.26562,2.46745,0.8125,3.59375,0.54687,1.1263,1.34505,2.00521,2.40625,2.65625,1.06119,0.65104,2.27734,0.96875,3.625,0.96875,1.24348,0,2.39452-0.28581,3.46875-0.875,1.07421-0.5892,1.91405-1.44792,2.5-2.59375,0.58592-1.14583,0.87499-2.45442,0.875-3.90625-0.00001-1.43228-0.28712-2.71418-0.84375-3.84375-0.55665-1.129555-1.34506-2.02473-2.40625-2.65625-1.0612-0.6315-2.27215-0.93748-3.59375-0.9375zm0.03125,1.625c0.944,0.00001,1.77278,0.24025,2.53125,0.71875,0.75845,0.47853,1.35611,1.16212,1.75,2.03125,0.39387,0.86915,0.59374,1.89714,0.59375,3.0625-0.00001,1.84245-0.48504,3.2474-1.40625,4.25-0.92123,1.00261-2.07422,1.5-3.5,1.5-1.39974,0-2.57227-0.47591-3.5-1.46875-0.92773-0.99283-1.375-2.36848-1.375-4.09375,0-2.15493,0.4707-3.67251,1.4375-4.59375,0.96679-0.92121,2.1276-1.40624,3.46875-1.40625zm-0.625,16.40625,0,7.59375,1.1875,0,0-7.59375-1.1875,0zm1.15625,10.78125c-1.26303,0.00001-2.41732,0.29885-3.46875,0.875-1.05143,0.57619-1.86784,1.42124-2.4375,2.53125-0.56966,1.11004-0.84375,2.38412-0.84375,3.875,0,1.36719,0.24544,2.65235,0.75,3.84375,0.50455,1.19141,1.25195,2.12175,2.21875,2.75,0.96679,0.62826,2.20703,0.9375,3.75,0.9375,1.49088,0,2.74934-0.4017,3.78125-1.21875,1.03189-0.81706,1.7591-2.00651,2.15625-3.5625l-1.90625-0.5c-0.26043,1.20443-0.76434,2.13802-1.5,2.75-0.73569,0.61198-1.62631,0.90625-2.6875,0.90625-0.8724,0-1.6888-0.23828-2.4375-0.6875s-1.30144-1.12305-1.65625-2.03125c-0.35482-0.9082-0.53125-1.97004-0.53125-3.1875,0-0.944,0.16927-1.86132,0.46875-2.75,0.29948-0.88866,0.82356-1.59764,1.5625-2.125,0.73893-0.52733,1.64973-0.78124,2.75-0.78125,0.95702,0.00001,1.74348,0.2435,2.375,0.71875,0.6315,0.47527,1.10546,1.23959,1.4375,2.28125l1.875-0.46875c-0.38413-1.32161-1.0547-2.33333-2.03125-3.0625-0.97657-0.72916-2.19272-1.09374-3.625-1.09375zm8.3125,0.25,0,14.3125,1.875,0,0-6.75,7.4375,0,0,6.75,1.90625,0,0-14.3125-1.90625,0,0,5.875-7.4375,0,0-5.875-1.875,0zm16.84375,8.0625c-0.84961,0.00001-1.58497,0.23292-2.15625,0.71875-0.57129,0.48585-0.93261,1.17872-1.09375,2.0625l1.3125,0.21875c0.09766-0.64452,0.3457-1.11523,0.6875-1.4375,0.3418-0.32226,0.76855-0.46874,1.28125-0.46875,0.51758,0.00001,0.92285,0.15138,1.25,0.46875,0.32714,0.31739,0.5,0.70411,0.5,1.1875,0,0.61036-0.23829,1.08204-0.6875,1.375-0.44923,0.29298-0.93848,0.4375-1.5,0.4375-0.05371,0-0.13086-0.02148-0.21875-0.03125l-0.15625,1.15625c0.37109-0.09765,0.68847-0.12499,0.9375-0.125,0.61035,0.00001,1.10449,0.16944,1.5,0.5625,0.3955,0.39307,0.59375,0.89454,0.59375,1.5,0,0.63477-0.19776,1.16407-0.625,1.59375-0.42725,0.42969-0.94239,0.65625-1.5625,0.65625-0.52247,0-0.97998-0.17041-1.34375-0.5s-0.62989-0.84668-0.78125-1.59375l-1.3125,0.15625c0.08789,0.89356,0.43994,1.62597,1.0625,2.1875,0.62256,0.56152,1.40137,0.84375,2.34375,0.84375,1.04492,0,1.91015-0.3169,2.59375-0.96875,0.68358-0.65186,1.03124-1.46875,1.03125-2.40625-0.00001-0.69336-0.17969-1.25732-0.53125-1.71875-0.35156-0.46142-0.83399-0.75976-1.46875-0.90625,0.48828-0.2246,0.84472-0.52538,1.09375-0.90625,0.24902-0.38085,0.375-0.81738,0.375-1.28125,0-0.48827-0.11378-0.94042-0.375-1.375-0.26124-0.43456-0.6631-0.77978-1.15625-1.03125-0.49317-0.25145-1.00781-0.37499-1.59375-0.375z" fill="#000"/>
</svg>
