<?xml version="1.0" encoding="UTF-8"?>
<svg width="256pt" version="1.1" xmlns="http://www.w3.org/2000/svg" height="324pt" viewBox="0 0 256 324" xmlns:xlink="http://www.w3.org/1999/xlink">
 <defs>
  <clipPath id="Clip0">
   <path d="M0 0 L256 0 L256 324 L0 324 L0 0 Z" transform="translate(0, 0)"/>
  </clipPath>
 </defs>
 <g id="Hintergrund">
  <g id="Gruppe1" clip-path="url(#Clip0)">
   <path style="fill:#000000; fill-rule:nonzero;stroke:none;" d="M1.7 39.6996 L0 40.6996 L0 0 L1.7 1 L1.7 39.6996 Z" transform="translate(140.65, 72.4004)"/>
   <path style="fill:#000000; fill-rule:nonzero;stroke:none;" d="M1.7 32.8004 L0 32.8004 L0 0 L1.7 0 L1.7 32.8004 Z" transform="translate(146.6, 76.3496)"/>
   <path style="fill:#000000; fill-rule:nonzero;stroke:none;" d="M35.25 19.35 L35.25 20.35 L34.4 20.85 L0 1 L1.7 0 L35.25 19.35 Z" transform="translate(140.65, 112.1)"/>
   <path style="fill:#000000; fill-rule:nonzero;stroke:none;" d="M33.5 0 L35.2 1 L0.85 20.85 L0 20.35 L0 19.35 L33.5 0 Z" transform="translate(175.9, 112.1)"/>
   <path style="fill:#000000; fill-rule:nonzero;stroke:none;" d="M28.4 0 L29.25 1.5 L0.85 17.9 L0 16.45 L28.4 0 Z" transform="translate(175.45, 108.4)"/>
   <path style="fill:#000000; fill-rule:nonzero;stroke:none;" d="M0 1 L1.7 0 L1.7 40.6996 L0 39.6996 L0 1 Z" transform="translate(209.4, 72.4004)"/>
   <path style="fill:#000000; fill-rule:nonzero;stroke:none;" d="M0 1.5 L0 0.5 L0.85 0 L35.2 19.8506 L33.5 20.8506 L0 1.5 Z" transform="translate(175.9, 52.5498)"/>
   <path style="fill:#000000; fill-rule:nonzero;stroke:none;" d="M0 1.4502 L0.85 0 L29.25 16.3994 L28.4 17.8496 L0 1.4502 Z" transform="translate(175.45, 59.2002)"/>
   <path style="fill:#000000; fill-rule:nonzero;stroke:none;" d="M1.7 20.8506 L0 19.8506 L34.4 0 L35.25 0.5 L35.25 1.5 L1.7 20.8506 Z" transform="translate(140.65, 52.5498)"/>
   <path style="fill:#000000; fill-rule:evenodd;stroke:none;" d="M14.73 5.71095 C14.035 1.875 11.828 0 7.988 0 C5.636 0 3.742 0.7461 2.445 2.1836 C0.863 3.91407 0 6.41015 0 9.23825 C0 12.1171 0.886 14.5899 2.519 16.2929 C3.886 17.6836 5.613 18.332 7.894 18.332 C12.164 18.332 14.562 16.0313 15.089 11.3985 L12.789 11.3985 C12.597 12.5976 12.355 13.414 11.996 14.1093 C11.277 15.5507 9.789 16.3671 7.918 16.3671 C4.437 16.3671 2.23 13.582 2.23 9.21485 C2.23 4.73047 4.316 1.96875 7.726 1.96875 C9.14 1.96875 10.46 2.37891 11.179 3.07422 C11.828 3.67188 12.187 4.39454 12.453 5.71095 L14.73 5.71095 Z" transform="translate(168.353, 5.01855)"/>
   <path style="fill:#000000; fill-rule:evenodd;stroke:none;" d="M2.016 0 L0 0 L0 17.4922 L2.016 17.4922 L2.016 0 Z" transform="translate(186.16, 5.30762)"/>
   <path style="fill:#000000; fill-rule:nonzero;stroke:none;" d="M0 0 L1.7 0 L1.7 27.2002 L0.85 27.7002 L0 27.2002 L0 0 Z" transform="translate(175.05, 25.3496)"/>
   <path style="fill:#999999; fill-rule:evenodd;stroke:none;" d="M4.125 5.446 C4.149 5.66 4.176 5.805 4.176 5.852 C4.176 6.477 4.032 7.102 3.743 7.867 C3.575 8.324 3.477 8.735 3.477 8.996 C3.477 9.453 3.864 9.86 4.317 9.86 C4.821 9.86 5.254 9.407 5.254 8.903 C5.254 8.758 5.184 8.469 5.063 8.133 C4.75 7.293 4.582 6.383 4.582 5.446 L4.582 5.278 L4.75 5.348 C5.254 5.543 5.805 6.02 6.43 6.789 C7.032 7.532 7.438 7.821 7.872 7.821 C8.375 7.821 8.711 7.461 8.711 6.934 C8.711 6.309 8.348 6.047 7.293 5.879 C6.36 5.735 5.567 5.446 4.965 5.063 L4.774 4.942 C5.95 4.27 6.407 4.102 7.461 3.934 C8.399 3.789 8.684 3.551 8.684 2.926 C8.684 2.375 8.348 1.992 7.821 1.992 C7.461 1.992 7.055 2.301 6.477 2.973 C5.879 3.696 5.301 4.223 4.75 4.512 L4.582 4.606 L4.582 3.981 L5.231 0.864 C5.231 0.383 4.848 0 4.368 0 C3.887 0 3.528 0.36 3.528 0.84 C3.528 1.102 3.622 1.559 3.766 2.063 C4.008 2.903 4.125 3.645 4.125 4.246 L4.125 4.559 C3.215 4.055 2.735 3.672 1.969 2.805 C1.489 2.231 1.2 2.039 0.817 2.039 C0.336 2.039 0 2.399 0 2.903 C0 3.504 0.457 3.813 1.633 4.032 C2.52 4.199 3.239 4.438 3.696 4.75 L3.957 4.918 C2.973 5.516 2.59 5.66 1.489 5.879 C0.407 6.071 0 6.356 0 6.981 C0 7.485 0.313 7.797 0.864 7.797 C1.247 7.797 1.465 7.676 1.872 7.223 C2.567 6.43 2.688 6.309 2.879 6.141 C3.118 5.949 3.215 5.852 4.102 5.278 L4.125 5.446 Z" transform="translate(164.856, 163.531)"/>
   <path style="fill:#000000; fill-rule:nonzero;stroke:none;" d="M1.7 39.2 L0.85 39.7 L0 39.2 L0 0.5 L0.85 0 L1.7 0.5 L1.7 39.2 Z" transform="translate(175.05, 132.45)"/>
   <path style="fill:#000000; fill-rule:evenodd;stroke:none;" d="M14.73 5.711 C14.035 1.875 11.828 0 7.988 0 C5.637 0 3.742 0.746 2.445 2.184 C0.863 3.914 0 6.41 0 9.238 C0 12.117 0.887 14.59 2.519 16.293 C3.887 17.684 5.613 18.332 7.894 18.332 C12.164 18.332 14.562 16.031 15.09 11.399 L12.789 11.399 C12.598 12.598 12.355 13.414 11.996 14.11 C11.277 15.551 9.789 16.367 7.918 16.367 C4.437 16.367 2.23 13.582 2.23 9.215 C2.23 4.731 4.316 1.969 7.727 1.969 C9.141 1.969 10.461 2.379 11.18 3.074 C11.828 3.672 12.187 4.395 12.453 5.711 L14.73 5.711 Z" transform="translate(202.752, 183.619)"/>
   <path style="fill:#000000; fill-rule:nonzero;stroke:none;" d="M26.25 14.65 L25.4 16.15 L1.35 2.25 L0 0.5 L0.85 0 L26.25 14.65 Z" transform="translate(175.9, 171.65)"/>
   <path style="fill:#000000; fill-rule:evenodd;stroke:none;" d="M13.676 0 L11.563 0 L11.563 14.301 L2.422 0 L0 0 L0 17.492 L2.11 17.492 L2.11 3.312 L11.157 17.492 L13.676 17.492 L13.676 0 Z" transform="translate(237.774, 203.758)"/>
   <path style="fill:#000000; fill-rule:nonzero;stroke:none;" d="M15.1 8.2 L14.25 9.7 L0 1.45 L0.85 0 L15.1 8.2 Z" transform="translate(222.6, 191.75)"/>
   <path style="fill:#000000; fill-rule:nonzero;stroke:none;" d="M15.1 8.2 L14.25 9.7 L0 1.45 L0.85 0 L15.1 8.2 Z" transform="translate(219.6, 196.9)"/>
   <path style="fill:#000000; fill-rule:nonzero;stroke:none;" d="M15.1 8.2 L14.25 9.7 L0 1.45 L0.85 0 L15.1 8.2 Z" transform="translate(216.65, 202.05)"/>
   <path style="fill:#000000; fill-rule:nonzero;stroke:none;" d="M0 21.3 L0 19.35 L33.55 0 L34.4 0.5 L33.85 1.75 L0 21.3 Z" transform="translate(141.5, 171.65)"/>
   <path style="fill:#000000; fill-rule:nonzero;stroke:none;" d="M0 1.95 L0 0 L34.35 19.85 L34.35 21.8 L0 1.95 Z" transform="translate(107.15, 171.15)"/>
   <path style="fill:#000000; fill-rule:nonzero;stroke:none;" d="M0 21.8 L0 19.85 L34.4 0 L34.4 1.95 L0 21.8 Z" transform="translate(72.75, 171.15)"/>
   <path style="fill:#000000; fill-rule:evenodd;stroke:none;" d="M11.2265 9.528 L11.2265 17.493 L13.4609 17.493 L13.4609 0 L11.2265 0 L11.2265 7.559 L2.23047 7.559 L2.23047 0 L0 0 L0 17.493 L2.23047 17.493 L2.23047 9.528 L11.2265 9.528 Z" transform="translate(4.33008, 164.107)"/>
   <path style="fill:#000000; fill-rule:evenodd;stroke:none;" d="M3.4062 6.926 L3.6054 6.926 L4.2734 6.907 C6.0234 6.907 6.9218 7.7 6.9218 9.235 C6.9218 10.836 5.9336 11.793 4.2734 11.793 C2.5429 11.793 1.6953 10.926 1.5859 9.071 L0 9.071 C0.0703 10.098 0.25 10.766 0.5586 11.344 C1.207 12.571 2.4687 13.2 4.2187 13.2 C6.8515 13.2 8.5468 11.633 8.5468 9.215 C8.5468 7.59 7.914 6.692 6.3828 6.168 C7.5742 5.68 8.1679 4.797 8.1679 3.516 C8.1679 1.317 6.707 0 4.2734 0 C1.6953 0 0.3242 1.407 0.2695 4.129 L1.8554 4.129 C1.875 3.356 1.9453 2.922 2.1445 2.524 C2.5039 1.821 3.3007 1.387 4.289 1.387 C5.6992 1.387 6.5468 2.2 6.5468 3.571 C6.5468 4.473 6.2187 5.012 5.5156 5.301 C5.0859 5.481 4.5234 5.555 3.4062 5.571 L3.4062 6.926 Z" transform="translate(20.2432, 173.314)"/>
   <path style="fill:#000000; fill-rule:evenodd;stroke:none;" d="M14.7305 5.711 C14.0352 1.875 11.8281 0 7.9883 0 C5.6367 0 3.7422 0.746 2.4453 2.184 C0.8633 3.914 0 6.411 0 9.239 C0 12.118 0.8867 14.59 2.5195 16.293 C3.8867 17.684 5.6133 18.332 7.8945 18.332 C12.1641 18.332 14.5625 16.032 15.0898 11.399 L12.7891 11.399 C12.5977 12.598 12.3555 13.414 11.9961 14.11 C11.2773 15.551 9.7891 16.368 7.918 16.368 C4.4375 16.368 2.2305 13.582 2.2305 9.215 C2.2305 4.731 4.3164 1.969 7.7266 1.969 C9.1406 1.969 10.4609 2.379 11.1797 3.075 C11.8281 3.672 12.1875 4.395 12.4531 5.711 L14.7305 5.711 Z" transform="translate(30.8252, 163.818)"/>
   <path style="fill:#000000; fill-rule:nonzero;stroke:none;" d="M0 1.45 L0.8496 0 L25 13.95 L25 15.9 L0 1.45 Z" transform="translate(47.75, 177.05)"/>
   <path style="fill:#000000; fill-rule:nonzero;stroke:none;" d="M11.7 38.3 L9.9 38.3 L0 1.25 L0.55 0 L1.9 1.75 L11.7 38.3 Z" transform="translate(175.35, 172.15)"/>
   <path style="fill:#000000; fill-rule:evenodd;stroke:none;" d="M13.676 0 L11.563 0 L11.563 14.301 L2.422 0 L0 0 L0 17.492 L2.11 17.492 L2.11 3.312 L11.157 17.492 L13.676 17.492 L13.676 0 Z" transform="translate(169.024, 240.758)"/>
   <path style="fill:#000000; fill-rule:nonzero;stroke:none;" d="M1.65 27.85 L0 27.4 L7.3 0 L9.1 0 L1.65 27.85 Z" transform="translate(177.95, 210.45)"/>
   <path style="fill:#000000; fill-rule:evenodd;stroke:none;" d="M13.676 0 L11.563 0 L11.563 14.301 L2.422 0 L0 0 L0 17.492 L2.11 17.492 L2.11 3.313 L11.157 17.492 L13.676 17.492 L13.676 0 Z" transform="translate(131.024, 250.958)"/>
   <path style="fill:#000000; fill-rule:evenodd;stroke:none;" d="M13.676 0 L11.562 0 L11.562 14.3 L2.422 0 L0 0 L0 17.492 L2.109 17.492 L2.109 3.312 L11.156 17.492 L13.676 17.492 L13.676 0 Z" transform="translate(165.674, 304.308)"/>
   <path style="fill:#000000; fill-rule:nonzero;stroke:none;" d="M0.45 6.6 L0 4.95 L18.5 0 L18.95 1.65 L0.45 6.6 Z" transform="translate(147.35, 250.6)"/>
   <path style="fill:#000000; fill-rule:nonzero;stroke:none;" d="M1.75 27.1 L0 28.25 L1.5 0 L3.2 0.05 L1.75 27.1 Z" transform="translate(134.95, 270.6)"/>
   <path style="fill:#000000; fill-rule:nonzero;stroke:none;" d="M1.7 23.45 L0 23.35 L1.2 0 L2.9 0.05 L1.7 23.45 Z" transform="translate(141.1, 270.9)"/>
   <path style="fill:#000000; fill-rule:nonzero;stroke:none;" d="M27.85 10 L27.25 11.6 L0 1.15 L1.75 0 L27.85 10 Z" transform="translate(134.95, 297.7)"/>
   <path style="fill:#000000; fill-rule:nonzero;stroke:none;" d="M16.5 0 L18.6 0.1 L1.3 21.45 L0 20.35 L16.5 0 Z" transform="translate(179.75, 281.75)"/>
   <path style="fill:#000000; fill-rule:nonzero;stroke:none;" d="M14.2 0 L15.5 1.1 L1.35 18.6 L0 17.55 L14.2 0 Z" transform="translate(175.15, 280.85)"/>
   <path style="fill:#000000; fill-rule:nonzero;stroke:none;" d="M0 0.95 L1.4 0 L15.65 21.95 L13.55 21.85 L0 0.95 Z" transform="translate(182.7, 259.9)"/>
  </g>
 </g>
</svg>
