<?xml version="1.0" encoding="UTF-8" standalone="no"?>
<!-- Created with Inkscape (http://www.inkscape.org/) -->

<svg
   xmlns:dc="http://purl.org/dc/elements/1.1/"
   xmlns:cc="http://creativecommons.org/ns#"
   xmlns:rdf="http://www.w3.org/1999/02/22-rdf-syntax-ns#"
   xmlns:svg="http://www.w3.org/2000/svg"
   xmlns="http://www.w3.org/2000/svg"
   xmlns:sodipodi="http://sodipodi.sourceforge.net/DTD/sodipodi-0.dtd"
   xmlns:inkscape="http://www.inkscape.org/namespaces/inkscape"
   width="400"
   height="400"
   viewBox="0 0 105.83333 105.83333"
   version="1.1"
   id="svg1987"
   inkscape:version="0.92.4 (5da689c313, 2019-01-14)"
   sodipodi:docname="cannlytics_gears.svg"
   inkscape:export-filename="C:\Users\Keegan\repos\cannlytics-website\assets\images\lab_icons\two_tone_gears.png"
   inkscape:export-xdpi="96"
   inkscape:export-ydpi="96">
  <defs
     id="defs1981">
    <clipPath
       clipPathUnits="userSpaceOnUse"
       id="clipPath238">
      <path
         d="m 5440.09,7219.29 -0.38,257.5 257.5,0.38 0.38,-257.49 z"
         id="path236"
         inkscape:connector-curvature="0" />
    </clipPath>
  </defs>
  <sodipodi:namedview
     id="base"
     pagecolor="#ffffff"
     bordercolor="#666666"
     borderopacity="1.0"
     inkscape:pageopacity="0.0"
     inkscape:pageshadow="2"
     inkscape:zoom="1.4"
     inkscape:cx="181.96189"
     inkscape:cy="221.72317"
     inkscape:document-units="mm"
     inkscape:current-layer="layer1"
     showgrid="false"
     fit-margin-top="0"
     fit-margin-left="0"
     fit-margin-right="0"
     fit-margin-bottom="0"
     units="px"
     inkscape:window-width="1636"
     inkscape:window-height="912"
     inkscape:window-x="24"
     inkscape:window-y="23"
     inkscape:window-maximized="0" />
  <metadata
     id="metadata1984">
    <rdf:RDF>
      <cc:Work
         rdf:about="">
        <dc:format>image/svg+xml</dc:format>
        <dc:type
           rdf:resource="http://purl.org/dc/dcmitype/StillImage" />
        <dc:title></dc:title>
      </cc:Work>
    </rdf:RDF>
  </metadata>
  <g
     inkscape:label="Layer 1"
     inkscape:groupmode="layer"
     id="layer1"
     transform="translate(-101.80076,-98.008177)">
    <path
       d="m 142.6563,184.84105 c -12.00659,0 -21.73867,-9.73779 -21.73867,-21.73863 0,-12.00884 9.73208,-21.74093 21.73867,-21.74093 12.00542,0 21.73638,9.73209 21.73638,21.74093 0,12.00084 -9.73096,21.73863 -21.73638,21.73863"
       style="fill:#f2552d;fill-opacity:1;fill-rule:nonzero;stroke:none;stroke-width:0.11366616"
       id="path42"
       inkscape:connector-curvature="0" />
    <path
       d="m 142.65401,184.84105 c -12.00655,0 -21.73864,-9.73779 -21.73864,-21.73863 0,-12.00884 9.73209,-21.74093 21.73864,-21.74093 12.00542,0 21.73638,9.73209 21.73638,21.74093 0,12.00084 -9.73096,21.73863 -21.73638,21.73863"
       style="fill:#e53a23;fill-opacity:1;fill-rule:nonzero;stroke:none;stroke-width:0.11366616"
       id="path44"
       inkscape:connector-curvature="0" />
    <path
       d="m 138.92805,202.70142 c -0.52741,0 -0.95594,-0.42853 -0.95594,-0.95478 v -5.80495 l -0.94683,-0.16013 c -1.66863,-0.28193 -3.34408,-0.7036 -4.97859,-1.25376 l -0.8809,-0.29546 -2.97465,5.14568 c -0.16819,0.29321 -0.48308,0.47513 -0.8241,0.47513 -0.17044,0 -0.33077,-0.0432 -0.47966,-0.12953 l -7.26214,-4.18974 c -0.22168,-0.1263 -0.37849,-0.32961 -0.44329,-0.574 -0.067,-0.24907 -0.0341,-0.50696 0.0954,-0.72973 l 2.89622,-5.02292 -0.73655,-0.61267 c -1.27873,-1.0605 -2.51541,-2.26764 -3.67592,-3.58387 l -0.61493,-0.69792 -5.15135,2.97123 c -0.14564,0.0828 -0.30577,0.1263 -0.47515,0.1263 -0.34553,0 -0.66722,-0.1843 -0.8377,-0.47854 l -4.18748,-7.25872 c -0.26131,-0.45695 -0.10569,-1.04233 0.34898,-1.30373 l 5.0138,-2.89622 -0.3319,-0.89911 c -0.58992,-1.59587 -1.05709,-3.25996 -1.3924,-4.94563 l -0.18173,-0.91612 h -5.93678 c -0.53196,0 -0.96387,-0.43082 -0.96387,-0.95936 v -8.37831 c 0,-0.52971 0.43191,-0.96049 0.96387,-0.96049 h 5.79469 l 0.16143,-0.94683 c 0.28418,-1.67658 0.70585,-3.35088 1.25488,-4.97517 l 0.29675,-0.88206 -5.14111,-2.97236 c -0.22393,-0.12856 -0.38306,-0.33532 -0.45011,-0.58197 -0.0661,-0.24551 -0.0329,-0.50469 0.0944,-0.72634 l 4.19654,-7.25189 c 0.1727,-0.29772 0.49332,-0.48308 0.83773,-0.48308 0.17044,0 0.3319,0.0432 0.48195,0.12952 l 5.00926,2.89281 0.61267,-0.73768 c 1.06617,-1.28331 2.26989,-2.5177 3.58161,-3.66916 l 0.69905,-0.6138 -2.97351,-5.15702 c -0.12953,-0.22168 -0.16239,-0.48195 -0.0954,-0.72973 0.0661,-0.24552 0.22168,-0.44899 0.43762,-0.57287 l 7.25756,-4.19541 c 0.15015,-0.0854 0.3148,-0.12953 0.48763,-0.12953 0.34898,0 0.66267,0.17947 0.83773,0.48195 l 2.88259,5.00698 0.89907,-0.33078 c 1.59133,-0.58537 3.25542,-1.05479 4.94676,-1.39581 l 0.91161,-0.1843 v -5.93563 c 0,-0.52854 0.4342,-0.95936 0.96957,-0.95936 h 8.37152 c 0.52854,0 0.95933,0.43082 0.95933,0.95936 v 5.80037 l 0.94457,0.16142 c 1.71976,0.29449 3.39521,0.71835 4.97859,1.26056 l 0.88544,0.30351 2.9701,-5.15135 c 0.17399,-0.29997 0.48763,-0.48079 0.83657,-0.48079 0.16723,0 0.32736,0.0422 0.47516,0.1263 l 7.2496,4.1909 c 0.46491,0.26936 0.62063,0.84907 0.35124,1.31965 l -2.89394,5.01039 0.73769,0.61266 c 1.30147,1.07984 2.53703,2.28584 3.67711,3.58278 l 0.61492,0.7013 5.15023,-2.97577 c 0.1466,-0.0841 0.30448,-0.12727 0.47283,-0.12727 0.34441,0 0.66722,0.18527 0.84115,0.48308 l 4.18632,7.24964 c 0.26131,0.45804 0.10343,1.05138 -0.35465,1.31623 l -5.00359,2.88714 0.32852,0.89794 c 0.58196,1.59133 1.05367,3.25883 1.40377,4.957 l 0.18656,0.9082 h 5.92654 c 0.2568,0 0.49674,0.0999 0.67859,0.28193 0.1785,0.17946 0.27742,0.41831 0.27613,0.67292 v 8.38286 c -0.001,0.53083 -0.42969,0.9639 -0.95482,0.9639 h -5.79012 l -0.16496,0.94003 c -0.30352,1.73113 -0.7286,3.4043 -1.26398,4.97401 l -0.30126,0.88319 5.15361,2.97578 c 0.45241,0.26259 0.60926,0.84797 0.34557,1.30489 l -4.18974,7.26101 c -0.17174,0.29449 -0.4922,0.48079 -0.83319,0.48079 -0.16819,0 -0.32736,-0.0432 -0.47625,-0.12856 l -5.01722,-2.89851 -0.61267,0.73656 c -1.08212,1.29922 -2.28925,2.53364 -3.58957,3.66915 l -0.70359,0.61493 2.97919,5.15251 c 0.12952,0.22522 0.16368,0.48646 0.0954,0.73656 -0.0648,0.24552 -0.22168,0.44783 -0.43762,0.57172 l -7.26552,4.19315 c -0.15015,0.0863 -0.31254,0.13081 -0.48308,0.13081 -0.34215,0 -0.64792,-0.1785 -0.81956,-0.47741 l -2.89847,-5.00584 -0.89569,0.32736 c -1.58563,0.58083 -3.25084,1.05028 -4.9513,1.39469 l -0.91045,0.18526 v 5.93566 c 0,0.52855 -0.43082,0.9582 -0.95823,0.9582 l -8.38399,-0.003"
       style="fill:#ffffff;fill-opacity:1;fill-rule:nonzero;stroke:none;stroke-width:0.11366616"
       id="path612"
       inkscape:connector-curvature="0" />
    <path
       d="m 146.37658,122.35765 h -8.37151 c -1.16963,0 -2.10625,0.94116 -2.10625,2.096 v 5.00585 c -1.7493,0.35349 -3.45885,0.83431 -5.11269,1.44356 l -2.40747,-4.18065 c -0.38986,-0.67405 -1.09346,-1.048 -1.82093,-1.048 -0.35803,0 -0.72177,0.0909 -1.05595,0.28193 l -7.25531,4.19316 c -0.99684,0.57287 -1.33786,1.85614 -0.76156,2.85755 l 2.50861,4.34888 c -1.32874,1.16847 -2.57454,2.43585 -3.70437,3.79645 l -4.18291,-2.41543 c -0.3319,-0.18977 -0.69109,-0.27967 -1.04687,-0.27967 -0.72747,0 -1.43219,0.37849 -1.82093,1.05029 l -4.19883,7.25531 c -0.57516,1.00137 -0.23295,2.28126 0.77294,2.85868 l 4.33521,2.50635 c -0.5615,1.66522 -0.99912,3.38385 -1.29806,5.14907 h -4.83537 c -1.16393,0 -2.10054,0.94344 -2.10054,2.09716 v 8.37831 c 0,1.15939 0.93661,2.096 2.10054,2.096 h 5.00359 c 0.34895,1.75842 0.83319,3.47251 1.44128,5.11952 l -4.18291,2.41543 c -1.00366,0.57742 -1.33898,1.86069 -0.7661,2.85756 l 4.18745,7.25759 c 0.38761,0.67176 1.09575,1.048 1.82093,1.048 0.35578,0 0.71497,-0.0899 1.04462,-0.27838 l 4.34542,-2.50636 c 1.17192,1.3299 2.44156,2.57795 3.80216,3.70779 l -2.41768,4.19086 c -0.57858,1.00141 -0.23746,2.28471 0.76381,2.85759 l 7.26443,4.192 c 0.32962,0.18977 0.68994,0.27967 1.04571,0.27967 0.72293,0 1.4254,-0.37398 1.80956,-1.04346 l 2.50864,-4.34091 c 1.66634,0.56037 3.38269,0.99683 5.1502,1.29693 v 4.84445 c 0,1.15826 0.93661,2.09146 2.09145,2.09146 l 8.38515,0.003 c 1.156,0 2.09487,-0.93661 2.09487,-2.09487 v -5.00701 c 1.74933,-0.35464 3.45888,-0.83431 5.11497,-1.44015 l 2.41769,4.17611 c 0.38761,0.67402 1.08437,1.048 1.80617,1.048 0.35691,0 0.71835,-0.0909 1.05142,-0.28289 l 7.2621,-4.1909 c 0.99687,-0.57059 1.3424,-1.85615 0.76156,-2.86439 l -2.51086,-4.34204 c 1.33556,-1.16735 2.57907,-2.43473 3.71345,-3.79872 l 4.18974,2.41994 c 0.32965,0.18978 0.68881,0.28064 1.04233,0.28064 0.72405,0 1.42765,-0.37736 1.81864,-1.04912 l 4.18974,-7.26101 c 0.57742,-0.99912 0.2307,-2.28243 -0.76156,-2.85756 l -4.34433,-2.50861 c 0.56608,-1.66067 0.99915,-3.38497 1.30718,-5.1434 h 4.83534 c 1.15487,0 2.08919,-0.94115 2.09148,-2.10057 v -8.37831 c 0.003,-1.16168 -0.9389,-2.096 -2.09148,-2.096 h -4.99902 c -0.36261,-1.76071 -0.84456,-3.46343 -1.4504,-5.11952 l 4.17837,-2.41089 c 0.99915,-0.57967 1.34355,-1.86069 0.76839,-2.86777 l -4.18974,-7.25531 c -0.39328,-0.67179 -1.10026,-1.04574 -1.82206,-1.04574 -0.35578,0 -0.71381,0.0899 -1.04117,0.27967 l -4.3432,2.50861 c -1.16963,-1.33214 -2.44153,-2.57453 -3.80438,-3.70778 l 2.41765,-4.18404 c 0.57629,-1.01049 0.23295,-2.28696 -0.77065,-2.86893 l -7.25302,-4.19086 c -0.32736,-0.18752 -0.68655,-0.27742 -1.04007,-0.27742 -0.72406,0 -1.42991,0.37508 -1.82206,1.05025 l -2.50178,4.33979 c -1.6675,-0.57059 -3.38955,-1.00366 -5.15477,-1.30602 v -4.84104 c 0,-1.15484 -0.93432,-2.09599 -2.096,-2.09599 z m -0.17721,2.27331 v 6.58126 l 1.89027,0.32397 c 1.65841,0.2829 3.27475,0.69335 4.80241,1.2151 l 1.7698,0.60696 0.93545,-1.62203 2.41427,-4.18971 6.94728,4.01581 -2.33017,4.03289 -0.95933,1.66064 1.47424,1.22534 c 1.25601,1.04233 2.45065,2.20625 3.54981,3.45885 l 1.23101,1.40152 1.61517,-0.9332 4.18974,-2.41997 4.01243,6.9507 -4.02606,2.32334 -1.65612,0.95591 0.657,1.79481 c 0.56263,1.5379 1.01958,3.15195 1.35831,4.79557 l 0.37283,1.81523 h 1.85389 4.81716 v 8.02824 h -4.65348 -1.9096 l -0.32962,1.88006 c -0.2932,1.6743 -0.70475,3.29063 -1.22079,4.80353 l -0.6013,1.76748 1.61749,0.93549 4.18291,2.41539 -4.01014,6.95299 -4.03289,-2.33017 -1.65951,-0.95933 -1.22534,1.47311 c -1.04345,1.25373 -2.20738,2.44382 -3.46227,3.54069 l -1.40944,1.22985 0.93661,1.61975 2.42336,4.19087 -6.94616,4.01014 -2.32788,-4.02148 -0.95704,-1.65159 -1.79252,0.65585 c -1.53111,0.56037 -3.14174,1.01278 -4.78536,1.34697 l -1.82206,0.37053 v 1.85731 4.82854 l -8.02483,-0.003 v -4.66257 -1.91982 l -1.89255,-0.32156 c -1.61063,-0.2729 -3.22813,-0.67972 -4.80921,-1.21055 l -1.75955,-0.59105 -0.93094,1.60838 -2.41766,4.18178 -6.94615,-4.00789 2.32788,-4.03627 0.95821,-1.66067 -1.47537,-1.22418 c -1.2333,-1.02412 -2.42793,-2.18921 -3.54981,-3.46114 l -1.22985,-1.39582 -1.61067,0.92979 -4.19315,2.41881 -4.01014,-6.95067 4.02606,-2.32334 1.65954,-0.95936 -0.66384,-1.79706 c -0.5683,-1.54129 -1.02183,-3.14741 -1.34352,-4.77396 l -0.36261,-1.8323 h -1.86752 -4.83079 v -8.02483 h 4.66257 1.91869 l 0.32155,-1.89256 c 0.27613,-1.61746 0.68311,-3.23379 1.21281,-4.80237 l 0.59446,-1.76413 -1.61178,-0.93091 -4.1852,-2.41994 4.02039,-6.94728 4.03173,2.32901 1.66067,0.9582 1.22533,-1.47652 c 1.02638,-1.23668 2.19034,-2.4279 3.45544,-3.53957 l 1.40036,-1.22985 -0.93091,-1.61407 -2.41881,-4.19429 6.95066,-4.0181 2.31993,4.02948 0.95708,1.66067 1.79818,-0.66268 c 1.53565,-0.56492 3.14403,-1.01732 4.7774,-1.34694 l 1.82435,-0.36828 v -1.86072 -4.82854 h 8.02708"
       style="fill:#1f622f;fill-opacity:1;fill-rule:nonzero;stroke:none;stroke-width:0.11366616"
       id="path614"
       inkscape:connector-curvature="0" />
    <path
       d="m 186.72352,125.00378 c -3.42251,0 -6.19594,-2.77459 -6.19594,-6.19594 0,-3.42589 2.77343,-6.19822 6.19594,-6.19822 3.42135,0 6.19707,2.77233 6.19707,6.19822 0,3.42135 -2.77572,6.19594 -6.19707,6.19594 z m 18.3798,-9.82984 h -3.04057 c -0.70585,0 -1.47195,-0.54446 -1.69022,-1.21738 l -0.56833,-1.3742 c -0.31479,-0.62971 -0.16593,-1.55157 0.33077,-2.05282 l 2.15171,-2.14942 c 0.499,-0.49899 0.499,-1.31626 0,-1.80959 l -3.32134,-3.32926 c -0.4967,-0.49787 -1.31623,-0.49787 -1.81635,0 l -2.15287,2.15055 c -0.50012,0.49786 -1.41853,0.64791 -2.05166,0.33077 l -1.37194,-0.56833 c -0.66609,-0.21943 -1.21168,-0.97867 -1.21168,-1.68452 v -3.03943 c 0,-0.703598 -0.58199,-1.285562 -1.28559,-1.285562 h -4.70462 c -0.70588,0 -1.27876,0.581964 -1.27876,1.285562 v 3.03943 c 0,0.70585 -0.54787,1.46516 -1.21851,1.68452 l -1.37419,0.56833 c -0.63542,0.31705 -1.55612,0.16722 -2.05395,-0.33077 l -2.15058,-2.15055 c -0.49558,-0.49787 -1.31511,-0.49787 -1.80956,0 l -3.32813,3.32926 c -0.49674,0.49333 -0.49674,1.3106 0,1.80959 l 2.15396,2.14942 c 0.49445,0.50125 0.64334,1.42311 0.33303,2.05282 l -0.56605,1.3742 c -0.2249,0.67292 -0.98662,1.21738 -1.6925,1.21738 h -3.04057 c -0.70243,0 -1.28101,0.57629 -1.28101,1.2833 v 4.69895 c 0,0.70585 0.57858,1.2833 1.28101,1.2833 h 3.04057 c 0.70588,0 1.46744,0.54672 1.6925,1.21506 l 0.56605,1.37652 c 0.31028,0.62972 0.16142,1.55608 -0.33303,2.05282 l -2.15396,2.15168 c -0.49674,0.49674 -0.49674,1.31626 0,1.81297 l 3.32813,3.32588 c 0.49445,0.49787 1.31398,0.49787 1.80956,0 l 2.15058,-2.15284 c 0.49783,-0.49786 1.41853,-0.64904 2.05395,-0.33302 l 1.37419,0.56833 c 0.67064,0.22393 1.21851,0.98092 1.21851,1.6868 v 3.04169 c 0,0.70589 0.57288,1.28331 1.27876,1.28331 h 4.70462 c 0.7036,0 1.28559,-0.57742 1.28559,-1.28331 v -3.04169 c 0,-0.70588 0.54559,-1.4629 1.21168,-1.6868 l 1.37194,-0.56833 c 0.63313,-0.31609 1.55154,-0.16497 2.05166,0.33302 l 2.15287,2.15284 c 0.50012,0.49787 1.31965,0.49787 1.81635,0 l 3.32134,-3.32588 c 0.499,-0.49671 0.499,-1.31623 0,-1.81297 l -2.15171,-2.15168 c -0.4967,-0.49674 -0.64563,-1.4231 -0.33077,-2.05282 l 0.56833,-1.37652 c 0.21814,-0.66834 0.98437,-1.21506 1.69022,-1.21506 h 3.04057 c 0.70475,0 1.28101,-0.57745 1.28101,-1.2833 v -4.69895 c 0,-0.70701 -0.57626,-1.2833 -1.28101,-1.2833"
       style="fill:#9cdee4;fill-opacity:1;fill-rule:nonzero;stroke:none;stroke-width:0.11366616"
       id="path616"
       inkscape:connector-curvature="0" />
    <path
       d="m 186.72352,113.74629 c -2.78938,0 -5.0593,2.27105 -5.0593,5.06155 0,2.78938 2.26992,5.05927 5.0593,5.05927 2.79051,0 5.0604,-2.26989 5.0604,-5.05927 0,-2.7905 -2.26989,-5.06155 -5.0604,-5.06155 z m 0,12.39416 c -4.0431,0 -7.3326,-3.28838 -7.3326,-7.33261 0,-4.04539 3.2895,-7.33486 7.3326,-7.33486 4.04423,0 7.33373,3.28947 7.33373,7.33486 0,4.04423 -3.2895,7.33261 -7.33373,7.33261 z m -6.9757,4.44663 c 0.44899,0 0.88319,0.0976 1.25601,0.28289 l 1.30377,0.53651 c 1.06275,0.35236 1.92094,1.54016 1.92094,2.73708 v 3.0417 c 0,0.0796 0.066,0.1466 0.14209,0.1466 h 4.70462 c 0.0773,0 0.14886,-0.0706 0.14886,-0.1466 v -3.0417 c 0,-1.19463 0.85361,-2.3836 1.98574,-2.76438 l 1.29922,-0.54104 c 0.30126,-0.15337 0.73655,-0.25132 1.18438,-0.25132 0.79681,0 1.58338,0.31028 2.10396,0.82861 l 2.15512,2.15512 c 0.0342,0.0322 0.076,0.0396 0.10568,0.0396 l 3.42361,-3.36567 8.7e-4,-0.20588 -2.15171,-2.15171 c -0.84569,-0.84569 -1.07983,-2.29264 -0.54333,-3.36564 l 0.53424,-1.30151 c 0.34099,-1.05821 1.53221,-1.91752 2.7405,-1.91752 h 3.04057 c 0.0773,0 0.14435,-0.0683 0.14435,-0.14661 v -4.69895 c 0,-0.0783 -0.067,-0.1466 -0.14435,-0.1466 h -3.04057 c -1.21055,0 -2.40292,-0.8616 -2.7712,-2.00394 l -0.53734,-1.2901 c -0.50012,-0.99345 -0.2684,-2.43815 0.57401,-3.28725 l 2.15512,-2.15283 -0.003,-0.003 0.003,-0.20009 -3.3213,-3.3293 c -0.13178,-0.04 -0.17496,-0.0329 -0.2104,0.003 l -2.15058,2.14829 c -0.81978,0.81727 -2.33156,1.06505 -3.36477,0.54334 l -1.29809,-0.53425 c -1.05596,-0.34553 -1.91299,-1.53449 -1.91299,-2.7348 v -3.03943 c 0,-0.076 -0.0728,-0.14886 -0.14885,-0.14886 h -4.70462 c -0.0751,0 -0.1421,0.0706 -0.1421,0.14886 v 3.03943 c 0,1.20144 -0.86044,2.3904 -2.00165,2.76435 l -1.29352,0.53879 c -0.30126,0.15465 -0.73771,0.25357 -1.18783,0.25357 -0.79678,0 -1.5845,-0.31157 -2.10396,-0.8309 l -2.15054,-2.15058 h -0.20235 l -3.32813,3.3293 c -0.0396,0.12727 -0.0329,0.16948 0.002,0.2046 l 2.15054,2.146 c 0.84115,0.85252 1.07529,2.29492 0.549,3.36113 l -0.53421,1.30373 c -0.35123,1.06391 -1.54245,1.92097 -2.74279,1.92097 h -3.04056 c -0.076,0 -0.14435,0.0693 -0.14435,0.14661 v 4.69894 c 0,0.0773 0.0683,0.14661 0.14435,0.14661 h 3.04056 c 1.19805,0 2.38927,0.85477 2.77005,1.98915 l 0.53879,1.30602 c 0.49671,1.00141 0.2613,2.44498 -0.57742,3.28721 l -2.15625,2.154 c -0.0535,0.0535 -0.0535,0.15337 0,0.20589 l 3.32813,3.32587 h 0.20235 l 2.15054,-2.15283 c 0.52062,-0.52062 1.30831,-0.8309 2.10625,-0.8309 z m 9.32743,9.01828 h -4.70462 c -1.33218,0 -2.41543,-1.08554 -2.41543,-2.41998 v -3.04169 c 0,-0.21491 -0.23521,-0.54105 -0.44216,-0.60926 l -1.44807,-0.59562 c -0.42512,-0.1988 -0.69793,-0.0329 -0.81611,0.0864 l -2.15058,2.15287 c -0.90594,0.91045 -2.50861,0.91273 -3.41909,-0.002 l -3.32588,-3.3236 c -0.94341,-0.94344 -0.94341,-2.47677 0,-3.42022 l 2.15399,-2.1517 c 0.15015,-0.1524 0.21362,-0.55013 0.11696,-0.74677 l -0.59785,-1.44698 c -0.0954,-0.27613 -0.42286,-0.51037 -0.64112,-0.51037 h -3.04057 c -1.33324,0 -2.41762,-1.08551 -2.41762,-2.41994 v -4.69895 c 0,-1.33444 1.08438,-2.41997 2.41762,-2.41997 h 3.04057 c 0.21942,0 0.54565,-0.23425 0.6138,-0.43988 l 0.59337,-1.44811 c 0.12727,-0.26485 0.0638,-0.66496 -0.0909,-0.82181 l -2.14716,-2.14262 c -0.45921,-0.46033 -0.7093,-1.07071 -0.70702,-1.72089 0.002,-0.6445 0.25455,-1.24918 0.70927,-1.70046 l 3.32475,-3.32584 c 0.90591,-0.91048 2.50861,-0.91274 3.41906,0.002 l 2.14829,2.14828 c 0.11922,0.11825 0.55129,0.21717 0.74223,0.11825 l 1.44811,-0.60242 c 0.28418,-0.0967 0.51604,-0.41945 0.51604,-0.63426 v -3.0394 c 0,-1.335564 1.08325,-2.422226 2.41543,-2.422226 h 4.70462 c 1.3356,0 2.42223,1.086662 2.42223,2.422226 v 3.03943 c 0,0.21588 0.22973,0.53876 0.43194,0.60584 l 1.45037,0.59676 c 0.26582,0.12501 0.67975,0.049 0.81501,-0.0864 l 2.15055,-2.14829 c 0.91615,-0.91386 2.51431,-0.90932 3.42363,0 l 3.32247,3.33042 c 0.45011,0.44557 0.70472,1.05028 0.70585,1.69591 0.003,0.65131 -0.24907,1.26169 -0.70701,1.71976 l -2.15168,2.14942 c -0.14886,0.15111 -0.21362,0.54788 -0.11696,0.7411 l 0.6013,1.44811 c 0.0967,0.28515 0.42057,0.51491 0.63993,0.51491 h 3.04056 c 1.33331,0 2.41769,1.08551 2.41769,2.41998 v 4.69894 c 0,1.33444 -1.08438,2.41994 -2.41769,2.41994 h -3.04056 c -0.21491,0 -0.54559,0.23296 -0.60926,0.42966 l -0.59901,1.45836 c -0.13081,0.26936 -0.067,0.6638 0.0841,0.81611 l 2.15167,2.1517 c 0.45582,0.45354 0.70817,1.0605 0.70817,1.71068 0,0.64904 -0.25228,1.25601 -0.71042,1.7118 l -3.31792,3.32362 c -0.91161,0.91045 -2.5109,0.91274 -3.42248,0.002 l -2.15512,-2.15512 c -0.13178,-0.13307 -0.67289,-0.15691 -0.7411,-0.11922 l -1.44357,0.6013 c -0.27741,0.0954 -0.51034,0.42057 -0.51034,0.63654 v 3.0417 c 0,1.33444 -1.08666,2.41994 -2.42225,2.41994"
       style="fill:#1f622f;fill-opacity:1;fill-rule:nonzero;stroke:none;stroke-width:0.11366616"
       id="path618"
       inkscape:connector-curvature="0" />
    <path
       d="m 148.59763,143.27561 h -11.89178 v 39.64904 h 11.89178 v -39.64904"
       style="fill:#1f622f;fill-opacity:1;fill-rule:nonzero;stroke:none;stroke-width:0.11366616"
       id="path620"
       inkscape:connector-curvature="0" />
    <path
       d="m 162.47624,169.04716 v -11.89403 h -39.64788 v 11.89403 h 39.64788"
       style="fill:#1f622f;fill-opacity:1;fill-rule:nonzero;stroke:none;stroke-width:0.11366616"
       id="path622"
       inkscape:connector-curvature="0" />
  </g>
</svg>
