<?xml version="1.0" encoding="UTF-8" standalone="no"?>
<svg
   xmlns:dc="http://purl.org/dc/elements/1.1/"
   xmlns:cc="http://creativecommons.org/ns#"
   xmlns:rdf="http://www.w3.org/1999/02/22-rdf-syntax-ns#"
   xmlns:svg="http://www.w3.org/2000/svg"
   xmlns="http://www.w3.org/2000/svg"
   xmlns:sodipodi="http://sodipodi.sourceforge.net/DTD/sodipodi-0.dtd"
   xmlns:inkscape="http://www.inkscape.org/namespaces/inkscape"
   width="500"
   height="500"
   viewBox="0 0 132.29167 132.29167"
   version="1.1"
   id="svg1346"
   inkscape:version="1.0.1 (3bc2e813f5, 2020-09-07)"
   sodipodi:docname="lab_inventory.svg"
   inkscape:export-filename="C:\Users\keega\Documents\cannlytics\assets\images\illustrations\outline\lab_inventory.png"
   inkscape:export-xdpi="96"
   inkscape:export-ydpi="96">
  <defs
     id="defs1340" />
  <sodipodi:namedview
     id="base"
     pagecolor="#333644"
     bordercolor="#666666"
     borderopacity="1.0"
     inkscape:pageopacity="0"
     inkscape:pageshadow="2"
     inkscape:zoom="1.4"
     inkscape:cx="229.10714"
     inkscape:cy="265.15468"
     inkscape:document-units="mm"
     inkscape:current-layer="g12"
     inkscape:document-rotation="0"
     showgrid="false"
     units="px"
     inkscape:window-width="1920"
     inkscape:window-height="1120"
     inkscape:window-x="-11"
     inkscape:window-y="-11"
     inkscape:window-maximized="1" />
  <metadata
     id="metadata1343">
    <rdf:RDF>
      <cc:Work
         rdf:about="">
        <dc:format>image/svg+xml</dc:format>
        <dc:type
           rdf:resource="http://purl.org/dc/dcmitype/StillImage" />
        <dc:title></dc:title>
      </cc:Work>
    </rdf:RDF>
  </metadata>
  <g
     inkscape:label="Layer 1"
     inkscape:groupmode="layer"
     id="layer1"
     transform="translate(23.607795,-25.143248)">
    <g
       id="g12"
       transform="matrix(0.03527778,0,0,-0.03527778,-37.230663,179.36218)">
      <path
         d="M 1524.1699,1531.29 H 844.58005 v 876.84 h 679.58985 v -876.84"
         style="fill:#f6f6f4;fill-opacity:1;fill-rule:nonzero;stroke:none;stroke-width:0.999997"
         id="path16" />
      <path
         d="m 2346.3698,1531.29 h -679.5799 v 876.84 h 679.5799 v -876.84"
         style="fill:#f6f6f4;fill-opacity:1;fill-rule:nonzero;stroke:none;stroke-width:0.999997"
         id="path18" />
      <path
         d="m 3348.6698,1675.1501 -869.31,10.2699 v 722.71 l 869.31,-10.28 v -722.6999"
         style="fill:#f6f6f4;fill-opacity:1;fill-rule:nonzero;stroke:none;stroke-width:0.999997"
         id="path20" />
      <path
         d="M 3752.2397,2611.89 H 1342.44 V 4367.5998 H 3752.2397 V 2611.89"
         style="fill:#e1e3e6;fill-opacity:1;fill-rule:nonzero;stroke:none;stroke-width:0.999997"
         id="path22" />
      <path
         d="M 3359.1598,2611.89 H 830.39005 V 4367.5998 H 3359.1598 V 2611.89"
         style="fill:#f6f6f4;fill-opacity:1;fill-rule:nonzero;stroke:none;stroke-width:0.999997"
         id="path24" />
      <path
         d="m 3248.6998,3538.6499 h -931.3499 v 727.6499 h 931.3499 v -727.6499"
         style="fill:#e1e3e6;fill-opacity:1;fill-rule:nonzero;stroke:none;stroke-width:0.999997"
         id="path26" />
      <path
         d="m 3248.6998,2713.2 h -931.3499 v 727.6399 h 931.3499 V 2713.2"
         style="fill:#e1e3e6;fill-opacity:1;fill-rule:nonzero;stroke:none;stroke-width:0.999997"
         id="path28" />
      <path
         d="M 1890.4299,3538.6499 H 959.09004 v 727.6499 h 931.33986 v -727.6499"
         style="fill:#e1e3e6;fill-opacity:1;fill-rule:nonzero;stroke:none;stroke-width:0.999997"
         id="path30" />
      <path
         d="M 1890.4299,2713.2 H 959.09004 v 727.6399 H 1890.4299 V 2713.2"
         style="fill:#e1e3e6;fill-opacity:1;fill-rule:nonzero;stroke:none;stroke-width:0.999997"
         id="path32" />
      <path
         d="M 1221.06,4266.2998 V 3538.6499"
         style="fill:none;stroke:#f6f6f4;stroke-width:9.99997;stroke-linecap:butt;stroke-linejoin:miter;stroke-miterlimit:10;stroke-dasharray:none;stroke-opacity:1"
         id="path34" />
      <path
         d="M 1221.06,3440.8399 V 2713.2"
         style="fill:none;stroke:#f6f6f4;stroke-width:9.99997;stroke-linecap:butt;stroke-linejoin:miter;stroke-miterlimit:10;stroke-dasharray:none;stroke-opacity:1"
         id="path36" />
      <path
         d="M 2574.4099,4266.2998 V 3538.6499"
         style="fill:none;stroke:#f6f6f4;stroke-width:9.99997;stroke-linecap:butt;stroke-linejoin:miter;stroke-miterlimit:10;stroke-dasharray:none;stroke-opacity:1"
         id="path38" />
      <path
         d="M 2574.4099,3440.8399 V 2713.2"
         style="fill:none;stroke:#f6f6f4;stroke-width:9.99997;stroke-linecap:butt;stroke-linejoin:miter;stroke-miterlimit:10;stroke-dasharray:none;stroke-opacity:1"
         id="path40" />
      <path
         d="m 3157.5998,3100.7399 h -739.8099 v 43.33 h 739.8099 v -43.33"
         style="fill:#f6f6f4;fill-opacity:1;fill-rule:nonzero;stroke:none;stroke-width:0.999997"
         id="path42" />
      <path
         d="m 3157.5998,2713.2 h -739.8099 v 82.47 h 739.8099 v -82.47"
         style="fill:#f6f6f4;fill-opacity:1;fill-rule:nonzero;stroke:none;stroke-width:0.999997"
         id="path44" />
      <path
         d="m 2492.2598,2764.43 h -32.8999 v 357.9699 h 32.8999 V 2764.43"
         style="fill:#f6f6f4;fill-opacity:1;fill-rule:nonzero;stroke:none;stroke-width:0.999997"
         id="path46" />
      <path
         d="m 3105.3098,2764.43 h -32.91 v 357.9699 h 32.91 V 2764.43"
         style="fill:#f6f6f4;fill-opacity:1;fill-rule:nonzero;stroke:none;stroke-width:0.999997"
         id="path48" />
      <path
         d="m 2634.0698,2781.33 h -19.39 c -25.14,0 -45.5399,20.39 -45.5399,45.5399 v 384.81 h 110.4599 v -384.81 c 0,-25.1499 -20.3799,-45.5399 -45.53,-45.5399"
         style="fill:#f6f6f4;fill-opacity:1;fill-rule:nonzero;stroke:none;stroke-width:0.999997"
         id="path50" />
      <path
         d="m 2804.9599,2781.33 h -19.38 c -25.1501,0 -45.54,20.39 -45.54,45.5399 v 384.81 h 110.46 v -384.81 c 0,-25.1499 -20.3801,-45.5399 -45.54,-45.5399"
         style="fill:#f6f6f4;fill-opacity:1;fill-rule:nonzero;stroke:none;stroke-width:0.999997"
         id="path52" />
      <path
         d="m 2975.8598,2781.33 h -19.38 c -25.15,0 -45.54,20.39 -45.54,45.5399 v 384.81 h 110.46 v -384.81 c 0,-25.1499 -20.38,-45.5399 -45.54,-45.5399"
         style="fill:#f6f6f4;fill-opacity:1;fill-rule:nonzero;stroke:none;stroke-width:0.999997"
         id="path54" />
      <path
         d="M 1524.1699,4015.8798 H 1157.19 l 56.43,-82.38 v -371.7999 c 0,-23.79 19.29,-43.08 43.08,-43.08 h 224.39 c 23.7999,0 43.0799,19.29 43.0799,43.08 v 454.1799"
         style="fill:#f6f6f4;fill-opacity:1;fill-rule:nonzero;stroke:none;stroke-width:0.999997"
         id="path56" />
      <path
         d="m 1165.38,3947.3098 h -151.63 l 48.66,-71.02 v -320.5299 c 0,-20.51 16.63,-37.14 37.14,-37.14 h 28.69 c 20.51,0 37.14,16.63 37.14,37.14 v 391.5499"
         style="fill:#f6f6f4;fill-opacity:1;fill-rule:nonzero;stroke:none;stroke-width:0.999997"
         id="path58" />
      <path
         d="m 1701.7199,3847.9698 v 207.98 H 1621.39 v -207.98 l -149.5901,-288.2099 c -9.7299,-18.75 3.8801,-41.14 25.0001,-41.14 h 329.5099 c 21.13,0 34.73,22.39 25,41.14 l -149.59,288.2099"
         style="fill:#f6f6f4;fill-opacity:1;fill-rule:nonzero;stroke:none;stroke-width:0.999997"
         id="path60" />
      <path
         d="m 3110.5698,3805.2799 v 193.8099 h -92.65 v -193.8199 c -70.0399,-20.11 -121.3699,-84.62 -121.3699,-161.16 0,-49.96 21.8299,-94.77 56.4999,-125.49 h 222.46 c 34.6,30.72 56.44,75.53 56.44,125.49 0,76.55 -51.29,141.06 -121.38,161.17"
         style="fill:#f6f6f4;fill-opacity:1;fill-rule:nonzero;stroke:none;stroke-width:0.999997"
         id="path62" />
      <path
         d="m 2615.9398,3839.1998 v 216.75 h -103.61 v -216.75 c -78.3399,-22.4999 -135.7399,-94.6399 -135.7399,-180.2399 0,-55.87 24.42,-105.98 63.19,-140.34 h 248.7899 c 38.6901,34.36 63.1101,84.47 63.1101,140.34 0,85.61 -57.36,157.7599 -135.7401,180.2399"
         style="fill:#f6f6f4;fill-opacity:1;fill-rule:nonzero;stroke:none;stroke-width:0.999997"
         id="path64" />
      <path
         d="m 2852.1998,3714.3399 v 341.6099 h -66.09 v -341.6099 c -53.9899,-14.55 -93.7099,-63.71 -93.7099,-122.26 0,-27.38 8.6799,-52.76 23.4999,-73.46 h 206.5101 c 14.82,20.7 23.4999,46.08 23.4999,73.46 0,58.54 -39.7599,107.69 -93.71,122.26"
         style="fill:#f6f6f4;fill-opacity:1;fill-rule:nonzero;stroke:none;stroke-width:0.999997"
         id="path66" />
      <path
         d="M 1799.0799,3085.9299 H 1690.99 c -8.2601,0 -14.9501,-6.69 -14.9501,-14.94 v -43.54 c 0,-8.25 6.69,-14.95 14.9501,-14.95 h 108.0899 c 8.26,0 14.95,6.7 14.95,14.95 v 43.54 c 0,8.25 -6.69,14.94 -14.95,14.94"
         style="fill:#f6f6f4;fill-opacity:1;fill-rule:nonzero;stroke:none;stroke-width:0.999997"
         id="path68" />
      <path
         d="m 1798.2299,2984.5999 h -106.39 v 27.9 h 106.39 v -27.9"
         style="fill:#f6f6f4;fill-opacity:1;fill-rule:nonzero;stroke:none;stroke-width:0.999997"
         id="path70" />
      <path
         d="m 1815.0099,2993.4699 h -139.96 c -21.81,0 -39.4999,-17.68 -39.4999,-39.49 V 2715.06 c 0,-21.82 17.6899,-39.51 39.4999,-39.51 h 139.96 c 21.82,0 39.51,17.69 39.51,39.51 v 238.9199 c 0,21.81 -17.69,39.49 -39.51,39.49"
         style="fill:#f6f6f4;fill-opacity:1;fill-rule:nonzero;stroke:none;stroke-width:0.999997"
         id="path72" />
      <path
         d="m 1237.06,3177.3999 h -108.08 c -8.26,0 -14.95,-6.69 -14.95,-14.95 v -43.53 c 0,-8.26 6.69,-14.95 14.95,-14.95 h 108.08 c 8.27,0 14.96,6.69 14.96,14.95 v 43.53 c 0,8.26 -6.69,14.95 -14.96,14.95"
         style="fill:#f6f6f4;fill-opacity:1;fill-rule:nonzero;stroke:none;stroke-width:0.999997"
         id="path74" />
      <path
         d="m 1236.21,3076.0699 h -106.38 v 27.9 h 106.38 v -27.9"
         style="fill:#f6f6f4;fill-opacity:1;fill-rule:nonzero;stroke:none;stroke-width:0.999997"
         id="path76" />
      <path
         d="m 1253,3084.9399 h -139.96 c -21.82,0 -39.5,-17.68 -39.5,-39.5 V 2715.06 c 0,-21.82 17.68,-39.51 39.5,-39.51 H 1253 c 21.82,0 39.5,17.69 39.5,39.51 v 330.3799 c 0,21.82 -17.68,39.5 -39.5,39.5"
         style="fill:#f6f6f4;fill-opacity:1;fill-rule:nonzero;stroke:none;stroke-width:0.999997"
         id="path78" />
      <path
         d="M 1580.9699,3231.6799 H 1423.87 c -8.25,0 -14.94,-6.69 -14.94,-14.95 v -69.61 c 0,-8.26 6.69,-14.96 14.94,-14.96 h 157.0999 c 8.2601,0 14.9501,6.7 14.9501,14.96 v 69.61 c 0,8.26 -6.69,14.95 -14.9501,14.95"
         style="fill:#f6f6f4;fill-opacity:1;fill-rule:nonzero;stroke:none;stroke-width:0.999997"
         id="path80" />
      <path
         d="M 1574.5199,3094.3599 H 1430.34 v 37.8 h 144.1799 v -37.8"
         style="fill:#f6f6f4;fill-opacity:1;fill-rule:nonzero;stroke:none;stroke-width:0.999997"
         id="path82" />
      <path
         d="M 1594.3999,3106.3799 H 1410.45 c -31.14,0 -56.38,-25.25 -56.38,-56.39 V 2731.94 c 0,-31.14 25.24,-56.39 56.38,-56.39 h 183.9499 c 31.14,0 56.3901,25.25 56.3901,56.39 v 318.0499 c 0,31.14 -25.2501,56.39 -56.3901,56.39"
         style="fill:#f6f6f4;fill-opacity:1;fill-rule:nonzero;stroke:none;stroke-width:0.999997"
         id="path84" />
      <path
         d="M 2094.7799,4367.5998 V 2611.89"
         style="fill:none;stroke:#e1e3e6;stroke-width:9.99997;stroke-linecap:butt;stroke-linejoin:miter;stroke-miterlimit:10;stroke-dasharray:none;stroke-opacity:1"
         id="path86" />
      <path
         d="m 2194.9599,3265.8599 h 67.16 v 399.04 h -67.16 v -399.04"
         style="fill:#e1e3e6;fill-opacity:1;fill-rule:nonzero;stroke:none;stroke-width:0.999997"
         id="path88" />
      <path
         d="m 2126.0399,3265.8599 h 77.99 v 399.04 h -77.99 v -399.04"
         style="fill:#ffffff;fill-opacity:1;fill-rule:nonzero;stroke:none;stroke-width:0.999997"
         id="path90" />
      <path
         d="m 1994.0699,3265.8599 h 67.16 v 399.04 h -67.16 v -399.04"
         style="fill:#e1e3e6;fill-opacity:1;fill-rule:nonzero;stroke:none;stroke-width:0.999997"
         id="path92" />
      <path
         d="m 1925.1399,3265.8599 h 78 v 399.04 h -78 v -399.04"
         style="fill:#ffffff;fill-opacity:1;fill-rule:nonzero;stroke:none;stroke-width:0.999997"
         id="path94" />
      <path
         d="m 2613.0098,1566.9201 h -207.4899 c -8.25,0 -14.94,-6.7 -14.94,-14.9601 v -96.42 c 0,-8.2599 6.69,-14.9499 14.94,-14.9499 h 207.4899 c 8.25,0 14.94,6.69 14.94,14.9499 v 96.42 c 0,8.2601 -6.69,14.9601 -14.94,14.9601"
         style="fill:#e1e3e6;fill-opacity:1;fill-rule:nonzero;stroke:none;stroke-width:0.999997"
         id="path144" />
      <path
         d="m 2600.7799,1392.5901 h -183.02 v 48 h 183.02 v -48"
         style="fill:#e1e3e6;fill-opacity:1;fill-rule:nonzero;stroke:none;stroke-width:0.999997"
         id="path146" />
      <path
         d="m 2619.6998,1407.8501 h -220.86 c -43.0299,0 -77.91,-34.8701 -77.91,-77.9 V 704.82122 c 0,-43.0191 34.8801,-77.902 77.91,-77.902 h 220.86 c 43.02,0 77.9,34.8829 77.9,77.902 v 625.12888 c 0,43.0299 -34.88,77.9 -77.9,77.9"
         style="fill:#e1e3e6;fill-opacity:1;fill-rule:nonzero;stroke:none;stroke-width:0.999997"
         id="path148" />
      <path
         d="m 2987.4698,1368.39 h -239.74 v 40.0301 h 239.74 V 1368.39"
         style="fill:#d2d4d7;fill-opacity:1;fill-rule:nonzero;stroke:none;stroke-width:0.999997"
         id="path150" />
      <path
         d="m 3036.3998,1371.06 h -337.6 c -43.02,0 -77.9,-34.8799 -77.9,-77.8999 V 702.37222 c 0,-43.0121 34.88,-77.9021 77.9,-77.9021 h 337.6 c 43.03,0 77.9,34.89 77.9,77.9021 v 590.78788 c 0,43.02 -34.87,77.8999 -77.9,77.8999"
         style="fill:#f6f6f4;fill-opacity:1;fill-rule:nonzero;stroke:none;stroke-width:0.999997"
         id="path152" />
      <path
         d="m 3008.1298,1552.0401 h -281.06 c -8.25,0 -14.95,-6.69 -14.95,-14.95 v -120.5 c 0,-8.25 6.7,-14.94 14.95,-14.94 h 281.06 c 8.26,0 14.95,6.69 14.95,14.94 v 120.5 c 0,8.26 -6.69,14.95 -14.95,14.95"
         style="fill:#e1e3e6;fill-opacity:1;fill-rule:nonzero;stroke:none;stroke-width:0.999997"
         id="path154" />
      <path
         d="m 2912.3899,813.62222 h -291.4901 v 406.65788 h 291.4901 V 813.62222"
         style="fill:#e1e3e6;fill-opacity:1;fill-rule:nonzero;stroke:none;stroke-width:0.999997"
         id="path156" />
      <path
         d="m 3264.0798,1330.44 h -207.48 c -8.26,0 -14.96,-6.69 -14.96,-14.9499 v -96.43 c 0,-8.25 6.7,-14.95 14.96,-14.95 h 207.48 c 8.26,0 14.95,6.7 14.95,14.95 v 96.43 c 0,8.2599 -6.69,14.9499 -14.95,14.9499"
         style="fill:#e1e3e6;fill-opacity:1;fill-rule:nonzero;stroke:none;stroke-width:0.999997"
         id="path158" />
      <path
         d="m 3251.8498,1156.1201 h -183.03 v 47.99 h 183.03 v -47.99"
         style="fill:#d2d4d7;fill-opacity:1;fill-rule:nonzero;stroke:none;stroke-width:0.999997"
         id="path160" />
      <path
         d="m 3270.7698,1171.3801 h -220.86 c -43.02,0 -77.9,-34.87 -77.9,-77.9 V 702.37222 c 0,-43.0121 34.88,-77.9021 77.9,-77.9021 h 220.86 c 43.02,0 77.9,34.89 77.9,77.9021 v 391.10788 c 0,43.03 -34.88,77.9 -77.9,77.9"
         style="fill:#f6f6f4;fill-opacity:1;fill-rule:nonzero;stroke:none;stroke-width:0.999997"
         id="path162" />
      <path
         d="m 3194.6498,813.64922 h -222.64 v 235.71088 h 222.64 V 813.64922"
         style="fill:#e1e3e6;fill-opacity:1;fill-rule:nonzero;stroke:none;stroke-width:0.999997"
         id="path164" />
      <path
         d="m 1096.17,2103.07 h -91.05 v 19.73 c 0,25.14 20.38,45.52 45.52,45.52 v 0 c 25.15,0 45.53,-20.38 45.53,-45.52 v -19.73"
         style="fill:#ffffff;fill-opacity:1;fill-rule:nonzero;stroke:none;stroke-width:0.999997"
         id="path294" />
      <path
         d="m 1256.7,814.77022 c -8.54,-51.921 -36.21,-97.3511 -75.49,-128.859 H 920.07004 c -39.27,31.5079 -66.93999,76.938 -75.48999,128.859 H 1256.7"
         style="fill:#ffffff;fill-opacity:1;fill-rule:nonzero;stroke:none;stroke-width:0.999997"
         id="path296" />
      <path
         d="m 1092.34,797.44222 c -43.68,0 -43.7,-67.781 0,-67.781 43.67,0 43.69,67.781 0,67.781"
         style="fill:#ffffff;fill-opacity:1;fill-rule:nonzero;stroke:none;stroke-width:0.999997"
         id="path298" />
      <path
         d="m 991.05003,760.96222 c -27.29999,0 -27.32,-42.363 0,-42.363 27.28997,0 27.29997,42.363 0,42.363"
         style="fill:#ffffff;fill-opacity:1;fill-rule:nonzero;stroke:none;stroke-width:0.999997"
         id="path300" />
      <path
         d="M 1100.43,1112.4901 V 2103.07 h -99.58 v -990.5799 c -128.38996,-23.44 -225.76995,-135.75098 -225.76995,-270.91088 0,-86.9301 40.3,-164.547 103.22999,-215.019 H 1222.97 c 62.93,50.472 103.24,128.0889 103.24,215.019 0,135.1599 -97.38,247.47088 -225.78,270.91088"
         style="fill:#ffffff;fill-opacity:1;fill-rule:nonzero;stroke:none;stroke-width:0.999997"
         id="path302" />
      <path
         d="m 2070.2799,1748.85 v 858.29 c 0,150.78 122.23,273.0199 273.02,273.0199 v 0 c 86.73,0 168.32,-41.2099 219.77,-111.03 L 2681.4298,2608.56 c 45.39,-61.59 41.38,-146.5701 -9.63,-203.59 v 0 c -63.17,-70.64 -173.3099,-71.99 -238.1999,-2.92 l -1.6701,1.78 c -54.0999,57.6 -58.62,145.87 -10.6699,208.68 l 122.3899,160.3 c 51.65,67.6599 131.8901,107.3499 217.01,107.3499 h 4.62 c 150.78,0 273.02,-122.2399 273.02,-273.0199 v -241.06"
         style="fill:none;stroke:#f796c0;stroke-width:30;stroke-linecap:butt;stroke-linejoin:miter;stroke-miterlimit:10;stroke-dasharray:none;stroke-opacity:1"
         id="path304" />
      <path
         d="m 1050.64,2135.7 v 162.04 c 0,92.68 75.15,167.83 167.83,167.83 v 0 c 92.7,0 167.83,-75.15 167.83,-167.83 V 1121.8301 c 0,-126.32898 102.41,-228.73898 228.7399,-228.73898 v 0"
         style="fill:none;stroke:#f796c0;stroke-width:30;stroke-linecap:butt;stroke-linejoin:miter;stroke-miterlimit:10;stroke-dasharray:none;stroke-opacity:1"
         id="path306" />
      <path
         d="m 3083.9898,2333.45 h -91.38 v 19.56 c 0,25.23 20.45,45.69 45.69,45.69 v 0 c 25.24,0 45.69,-20.46 45.69,-45.69 v -19.56"
         style="fill:#513346;fill-opacity:1;fill-rule:nonzero;stroke:none;stroke-width:0.999997"
         id="path308" />
      <path
         d="M 3597.7397,2356.12 V 747.97022"
         style="fill:none;stroke:#513346;stroke-width:9.99997;stroke-linecap:butt;stroke-linejoin:miter;stroke-miterlimit:10;stroke-dasharray:none;stroke-opacity:1"
         id="path310" />
      <path
         d="m 2787.6998,2134.1 h 954.11"
         style="fill:none;stroke:#513346;stroke-width:9.99997;stroke-linecap:butt;stroke-linejoin:miter;stroke-miterlimit:10;stroke-dasharray:none;stroke-opacity:1"
         id="path312" />
      <path
         d="m 3087.8998,1931.09 v 402.36 h -99.22 v -402.36 c -114.6299,-23.03 -200.98,-124.25 -200.98,-245.67 0,-138.3999 112.2,-250.5899 250.6,-250.5899 138.39,0 250.59,112.19 250.59,250.5899 0,121.42 -86.35,222.64 -200.99,245.67"
         style="fill:#ffffff;fill-opacity:1;fill-rule:nonzero;stroke:none;stroke-width:0.999997"
         id="path314" />
      <path
         d="m 3071.6298,1717.2101 v 0 c -18.41,-18.4001 -48.25,-18.4001 -66.66,0 v 0 c -16.04,16.0399 -18.36,41.25 -5.54,59.9599 l 38.87,56.72 38.87,-56.72 c 12.82,-18.7099 10.49,-43.92 -5.54,-59.9599"
         style="fill:#f796c0;fill-opacity:1;fill-rule:nonzero;stroke:none;stroke-width:0.999997"
         id="path316" />
      <path
         d="m 3226.6198,1611.54 c -28.06,-76.7799 -101.79,-131.6299 -188.34,-131.6299 -86.51,0 -160.2399,54.85 -188.3,131.6299 h 376.64"
         style="fill:#f796c0;fill-opacity:1;fill-rule:nonzero;stroke:none;stroke-width:0.999997"
         id="path318" />
      <path
         d="m 2978.1998,1581.5301 c -21.84,0 -21.85,-33.88 0,-33.88 21.84,0 21.85,33.88 0,33.88"
         style="fill:#f577aa;fill-opacity:1;fill-rule:nonzero;stroke:none;stroke-width:0.999997"
         id="path320" />
      <path
         d="m 3061.3898,1579.4601 c -43.67,0 -43.69,-67.78 0,-67.78 43.68,0 43.7,67.78 0,67.78"
         style="fill:#f577aa;fill-opacity:1;fill-rule:nonzero;stroke:none;stroke-width:0.999997"
         id="path322" />
      <path
         d="m 3087.8998,1931.09 v 402.36 h -99.22 v -402.36 c -114.6299,-23.03 -200.98,-124.25 -200.98,-245.67 0,-138.3999 112.2,-250.5899 250.6,-250.5899 138.39,0 250.59,112.19 250.59,250.5899 0,121.42 -86.35,222.64 -200.99,245.67 z"
         style="fill:none;stroke:#513346;stroke-width:9.99997;stroke-linecap:butt;stroke-linejoin:miter;stroke-miterlimit:10;stroke-dasharray:none;stroke-opacity:1"
         id="path324" />
      <path
         d="m 3098.8098,2072.36 h -121.02 c -34.1,0 -61.75,27.64 -61.75,61.74 v 0 c 0,34.1 27.65,61.75 61.75,61.75 h 121.02 c 34.1,0 61.75,-27.65 61.75,-61.75 v 0 c 0,-34.1 -27.65,-61.74 -61.75,-61.74"
         style="fill:#513346;fill-opacity:1;fill-rule:nonzero;stroke:none;stroke-width:0.999997"
         id="path326" />
      <path
         d="m 3601.8698,2072.36 v 0 123.49 c -34.1001,0 -61.75,-27.65 -61.75,-61.75 v 0 c 0,-34.1 27.6499,-61.74 61.75,-61.74"
         style="fill:#513346;fill-opacity:1;fill-rule:nonzero;stroke:none;stroke-width:0.999997"
         id="path328" />
      <path
         d="m 2787.6998,624.47012 h 933.53 v 0 c 0,68.211 -55.29,123.5001 -123.4901,123.5001 h -686.5399 c -68.21,0 -123.5,-55.2891 -123.5,-123.5001 v 0"
         style="fill:#513346;fill-opacity:1;fill-rule:nonzero;stroke:none;stroke-width:0.999997"
         id="path330" />
      <path
         d="m 2711.9698,624.47012 h 520.08 v 0 c 0,68.211 -55.3,123.5001 -123.5,123.5001 h -273.09 c -68.2,0 -123.49,-55.2891 -123.49,-123.5001 v 0"
         style="fill:#17282f;fill-opacity:1;fill-rule:nonzero;stroke:none;stroke-width:0.999997"
         id="path332" />
      <path
         d="m 1096.17,2103.07 h -91.05 v 19.73 c 0,25.14 20.38,45.52 45.52,45.52 v 0 c 25.15,0 45.53,-20.38 45.53,-45.52 v -19.73"
         style="fill:#513346;fill-opacity:1;fill-rule:nonzero;stroke:none;stroke-width:0.999997"
         id="path334" />
      <path
         d="m 1256.7,814.77022 c -8.54,-51.921 -36.21,-97.3511 -75.49,-128.859 H 920.07004 c -39.27,31.5079 -66.93999,76.938 -75.48999,128.859 H 1256.7"
         style="fill:#f796c0;fill-opacity:1;fill-rule:nonzero;stroke:none;stroke-width:0.999997"
         id="path336" />
      <path
         d="m 1092.34,797.44222 c -43.68,0 -43.7,-67.781 0,-67.781 43.67,0 43.69,67.781 0,67.781"
         style="fill:#f577aa;fill-opacity:1;fill-rule:nonzero;stroke:none;stroke-width:0.999997"
         id="path338" />
      <path
         d="m 991.05003,760.96222 c -27.29999,0 -27.32,-42.363 0,-42.363 27.28997,0 27.29997,42.363 0,42.363"
         style="fill:#f577aa;fill-opacity:1;fill-rule:nonzero;stroke:none;stroke-width:0.999997"
         id="path340" />
      <path
         d="M 1100.43,1112.4901 V 2103.07 h -99.58 v -990.5799 c -128.38996,-23.44 -225.76995,-135.75098 -225.76995,-270.91088 0,-86.9301 40.3,-164.547 103.22999,-215.019 H 1222.97 c 62.93,50.472 103.24,128.0889 103.24,215.019 0,135.1599 -97.38,247.47088 -225.78,270.91088 z"
         style="fill:none;stroke:#513346;stroke-width:9.99997;stroke-linecap:butt;stroke-linejoin:miter;stroke-miterlimit:10;stroke-dasharray:none;stroke-opacity:1"
         id="path342" />
      <path
         d="m 2158.4399,1716.2201 h -176.32 v 11.9599 c 0,29.43 23.86,53.3 53.3,53.3 h 69.71 c 29.44,0 53.31,-23.87 53.31,-53.3 v -11.9599"
         style="fill:#513346;fill-opacity:1;fill-rule:nonzero;stroke:none;stroke-width:0.999997"
         id="path344" />
      <path
         d="m 2467.8799,766.95022 -305.44,505.07978 v 444.1901 h -184.31 V 1272.03 l -188.89,-312.31788 H 1647.67 v -134.8199 h 60.0499 l -35.05,-57.942 c -8.73,-14.441 -13.35,-30.9881 -13.35,-47.879 0,-51.09 41.43,-92.511 92.52,-92.511 h 636.88 c 51.0999,0 92.51,41.421 92.51,92.511 0,16.8909 -4.61,33.438 -13.35,47.879"
         style="fill:#ffffff;fill-opacity:1;fill-rule:nonzero;stroke:none;stroke-width:0.999997"
         id="path346" />
      <path
         d="m 1873.8599,851.20022 h -221.35 v 80.9299 h 221.35 v -80.9299"
         style="fill:#f796c0;fill-opacity:1;fill-rule:nonzero;stroke:none;stroke-width:0.999997"
         id="path348" />
      <path
         d="m 2352.0698,683.86022 h -564.6199 c -42.87,0 -69.17,46.8789 -46.88,83.43 l 140.04,230.1299 h 378.72 l 139.62,-230.1299 c 22.29,-36.6291 -4.09,-83.43 -46.8801,-83.43"
         style="fill:#f796c0;fill-opacity:1;fill-rule:nonzero;stroke:none;stroke-width:0.999997"
         id="path350" />
      <path
         d="m 1991.7499,947.71212 c -38.21,0 -38.23,-59.313 0,-59.313 38.22,0 38.23,59.313 0,59.313"
         style="fill:#f577aa;fill-opacity:1;fill-rule:nonzero;stroke:none;stroke-width:0.999997"
         id="path352" />
      <path
         d="m 2143.8799,893.34122 c -60.06,0 -60.08,-93.199 0,-93.199 60.06,0 60.08,93.199 0,93.199"
         style="fill:#f577aa;fill-opacity:1;fill-rule:nonzero;stroke:none;stroke-width:0.999997"
         id="path354" />
      <path
         d="m 2032.1599,808.81022 c -49.13,0 -49.15,-76.258 0,-76.258 49.14,0 49.16,76.258 0,76.258"
         style="fill:#f577aa;fill-opacity:1;fill-rule:nonzero;stroke:none;stroke-width:0.999997"
         id="path356" />
      <path
         d="m 2467.8799,766.95022 -305.44,505.07978 v 444.1901 h -184.31 V 1272.03 l -188.89,-312.31788 H 1647.67 v -134.8199 h 60.0499 l -35.05,-57.942 c -8.73,-14.441 -13.35,-30.9881 -13.35,-47.879 0,-51.09 41.43,-92.511 92.52,-92.511 h 636.88 c 51.0999,0 92.51,41.421 92.51,92.511 0,16.8909 -4.61,33.438 -13.35,47.879 z"
         style="fill:none;stroke:#513346;stroke-width:9.99997;stroke-linecap:butt;stroke-linejoin:miter;stroke-miterlimit:10;stroke-dasharray:none;stroke-opacity:1"
         id="path358" />
      <path
         d="m 1647.67,954.57912 v -122.9999 h -11.94 c -29.4501,0 -53.31,23.871 -53.31,53.3129 v 16.386 c 0,29.4341 23.8599,53.301 53.31,53.301 h 11.94"
         style="fill:#513346;fill-opacity:1;fill-rule:nonzero;stroke:none;stroke-width:0.999997"
         id="path360" />
      <path
         d="m 3421.9498,2679.09 h -44.45 v 44.45 c 0,15.9199 -12.91,28.83 -28.83,28.83 -15.92,0 -28.83,-12.9101 -28.83,-28.83 v -44.45 h -44.45 c -15.92,0 -28.82,-12.91 -28.82,-28.83 0,-15.9201 12.9,-28.83 28.82,-28.83 h 44.45 v -44.4501 c 0,-15.9199 12.91,-28.83 28.83,-28.83 15.92,0 28.83,12.9101 28.83,28.83 v 44.4501 h 44.45 c 15.9199,0 28.83,12.9099 28.83,28.83 0,15.92 -12.9101,28.83 -28.83,28.83"
         style="fill:#f796c0;fill-opacity:1;fill-rule:nonzero;stroke:none;stroke-width:0.999997"
         id="path528" />
      <path
         d="m 1765.1099,1946.97 h -44.44 v 44.45 c 0,15.93 -12.9099,28.83 -28.83,28.83 -15.93,0 -28.83,-12.9 -28.83,-28.83 v -44.45 h -44.45 c -15.9199,0 -28.83,-12.91 -28.83,-28.82 0,-15.93 12.9101,-28.83 28.83,-28.83 h 44.45 v -44.45 c 0,-15.92 12.9,-28.83 28.83,-28.83 15.9201,0 28.83,12.91 28.83,28.83 v 44.45 h 44.44 c 15.93,0 28.83,12.9 28.83,28.83 0,15.91 -12.9,28.82 -28.83,28.82 z"
         style="fill:none;stroke:#f796c0;stroke-width:9.99997;stroke-linecap:butt;stroke-linejoin:miter;stroke-miterlimit:10;stroke-dasharray:none;stroke-opacity:1"
         id="path532" />
    </g>
  </g>
</svg>
