<?xml version="1.0" encoding="iso-8859-1"?>
<!-- Generator: Adobe Illustrator 16.0.0, SVG Export Plug-In . SVG Version: 6.00 Build 0)  -->
<!DOCTYPE svg PUBLIC "-//W3C//DTD SVG 1.1//EN" "http://www.w3.org/Graphics/SVG/1.1/DTD/svg11.dtd">
<svg version="1.1" id="Capa_1" xmlns="http://www.w3.org/2000/svg" xmlns:xlink="http://www.w3.org/1999/xlink" x="0px" y="0px"
	 width="511.597px" height="511.598px" viewBox="0 0 511.597 511.598" style="enable-background:new 0 0 511.597 511.598;"
	 xml:space="preserve">
<g>
	<path d="M410.935,358.861c-3.281-2.523-7.848-4.684-13.277-6.562c6.446-58.607,21.066-220.488-6.621-277.507
		C358.002,6.761,294.328-13.125,257.299,8.104c-1.186-0.035-2.307-0.21-3.491-0.21c-1.95,0-3.848,0.245-5.774,0.339
		c-59.629-18.964-134.591,8.641-145.818,70.658c-11.589,64.025,2.727,198.219,2.044,277.25c-0.023,2.393,0.082,4.682,0.263,6.854
		c-3.299,2.359-6.025,4.928-7.882,7.789c-21.247,32.591-21.726,130.654-21.737,134.824l-0.012,5.99h361.604l0.117-5.862
		C436.858,492.914,438.353,379.844,410.935,358.861z M297.119,287.643v60.814l23.179-0.713l-62.029,137.708l-61.591-137.054
		l22.707,1.342v-58.268c-43.859-16.278-76.625-62.823-81.226-119.095l8.991-3.141v20.493h95.157v-17.703h22.98v17.703h95.156
		v-24.639l9.307,0.748C367.426,221.071,338.035,267.896,297.119,287.643z M156.765,180.119v-42.691h75.942v42.691H156.765z
		 M274.92,180.119v-42.691h75.948v42.691H274.92z M360.455,153.099v-25.293h-95.156v17.703h-22.98v-17.703h-95.157v28.772
		l-9.563,3.328c0-0.385-0.035-0.759-0.035-1.145c0-8.104,0.701-16.009,1.816-23.728c3.241-7.754,7.141-14.877,11.205-23.448
		c8.798-18.613,19.168-25.211,19.168-25.211s52.874,23.681,111.545,18.637c-12.085-8.945-12.085-26.881-12.202-38.395
		c29.298,15.928,75.703,26.145,87.986,28.667c7.638,17.667,12.156,37.519,12.764,58.572L360.455,153.099z"/>
</g>
<g>
</g>
<g>
</g>
<g>
</g>
<g>
</g>
<g>
</g>
<g>
</g>
<g>
</g>
<g>
</g>
<g>
</g>
<g>
</g>
<g>
</g>
<g>
</g>
<g>
</g>
<g>
</g>
<g>
</g>
</svg>
