<?xml version="1.0" encoding="UTF-8" standalone="no"?>
<svg
   xmlns:dc="http://purl.org/dc/elements/1.1/"
   xmlns:cc="http://creativecommons.org/ns#"
   xmlns:rdf="http://www.w3.org/1999/02/22-rdf-syntax-ns#"
   xmlns:svg="http://www.w3.org/2000/svg"
   xmlns="http://www.w3.org/2000/svg"
   xmlns:sodipodi="http://sodipodi.sourceforge.net/DTD/sodipodi-0.dtd"
   xmlns:inkscape="http://www.inkscape.org/namespaces/inkscape"
   width="233.66614"
   height="228.50476"
   viewBox="0 0 61.824165 60.458549"
   version="1.1"
   id="svg1034"
   inkscape:version="1.0.1 (3bc2e813f5, 2020-09-07)"
   sodipodi:docname="calibration.svg"
   inkscape:export-filename="C:\Users\keega\Documents\cannlytics\assets\images\illustrations\multi-tone\calibration.png"
   inkscape:export-xdpi="96"
   inkscape:export-ydpi="96">
  <defs
     id="defs1028">
    <filter
       inkscape:collect="always"
       style="color-interpolation-filters:sRGB"
       id="filter2482"
       x="-1.4645814e-06"
       width="1.0000029"
       y="-1.0163865e-06"
       height="1.000002">
      <feGaussianBlur
         inkscape:collect="always"
         stdDeviation="2.5211148e-05"
         id="feGaussianBlur2484" />
    </filter>
  </defs>
  <sodipodi:namedview
     id="base"
     pagecolor="#323443"
     bordercolor="#666666"
     borderopacity="1.0"
     inkscape:pageopacity="0"
     inkscape:pageshadow="2"
     inkscape:zoom="1.4"
     inkscape:cx="186.75969"
     inkscape:cy="131.64833"
     inkscape:document-units="mm"
     inkscape:current-layer="layer1"
     inkscape:document-rotation="0"
     showgrid="false"
     inkscape:window-width="1624"
     inkscape:window-height="997"
     inkscape:window-x="230"
     inkscape:window-y="94"
     inkscape:window-maximized="0"
     units="px" />
  <metadata
     id="metadata1031">
    <rdf:RDF>
      <cc:Work
         rdf:about="">
        <dc:format>image/svg+xml</dc:format>
        <dc:type
           rdf:resource="http://purl.org/dc/dcmitype/StillImage" />
        <dc:title></dc:title>
      </cc:Work>
    </rdf:RDF>
  </metadata>
  <g
     inkscape:label="Layer 1"
     inkscape:groupmode="layer"
     id="layer1"
     transform="translate(-75.677204,-103.57435)"
     style="filter:url(#filter2482)">
    <path
       d="m 122.31096,112.56901 h -7.15331 c -0.40974,0 -0.74312,0.33268 -0.74312,0.74313 v 0.1567 c 0,0.35594 0.25069,0.65337 0.58524,0.72526 0.0506,0.0117 0.10431,0.0176 0.15788,0.0176 h 7.15331 c 0.0545,0 0.1069,-0.006 0.15765,-0.0176 0.33432,-0.0719 0.585,-0.36932 0.585,-0.72526 v -0.1567 c 0,-0.41045 -0.33268,-0.74313 -0.74265,-0.74313"
       style="fill:#dbe4e4;fill-opacity:1;fill-rule:nonzero;stroke:none;stroke-width:0.0234942"
       id="path90" />
    <path
       d="m 122.46861,114.50235 h -7.46884 v 13.06024 h 7.46884 v -13.06024"
       style="fill:#dbe4e4;fill-opacity:1;fill-rule:nonzero;stroke:none;stroke-width:0.0234942"
       id="path92" />
    <path
       d="m 122.46861,114.1941 c -0.0508,0.0117 -0.10314,0.0176 -0.15765,0.0176 h -3.68156 v 0.4229 h 3.83921 v -0.44052"
       style="fill:#cdc8c4;fill-opacity:1;fill-rule:nonzero;stroke:none;stroke-width:0.0234942"
       id="path94" />
    <path
       d="m 115.15765,114.21173 c -0.0535,0 -0.10736,-0.006 -0.15788,-0.0177 v 0.44052 h 0.56574 c 0,-0.17292 0,-0.31435 0,-0.4229 h -0.40786"
       style="fill:#cdc8c4;fill-opacity:1;fill-rule:nonzero;stroke:none;stroke-width:0.0234942"
       id="path96" />
    <path
       d="m 118.6294,112.90615 h -3.40408 c 0,0 -0.53708,0.0524 -0.53708,0.51053 0,0.45861 0.48469,0.48422 0.48469,0.48422 h 0.10431 l 0.28827,0.0531 c 0,0 0,0.0895 0,0.25773 h 3.06389 v -1.30558"
       style="fill:#e9efed;fill-opacity:1;fill-rule:nonzero;stroke:none;stroke-width:0.0234942"
       id="path98" />
    <path
       d="m 115.56551,114.21173 c 0,0.10854 0,0.24998 0,0.42289 h 3.06389 v -0.42289 h -3.06389"
       style="fill:#ddd9d5;fill-opacity:1;fill-rule:nonzero;stroke:none;stroke-width:0.0234942"
       id="path100" />
    <path
       d="m 117.34943,132.44799 h -2.34966 v 0.48845 h 2.34966 c 0.13463,0 0.24411,-0.10925 0.24411,-0.24387 0,-0.13486 -0.10948,-0.24458 -0.24411,-0.24458"
       style="fill:#cdc8c4;fill-opacity:1;fill-rule:nonzero;stroke:none;stroke-width:0.0234942"
       id="path102" />
    <path
       d="m 117.34943,135.7877 h -2.34966 v 0.48844 h 2.34966 c 0.13463,0 0.24411,-0.10924 0.24411,-0.2441 0,-0.13486 -0.10948,-0.24434 -0.24411,-0.24434"
       style="fill:#cdc8c4;fill-opacity:1;fill-rule:nonzero;stroke:none;stroke-width:0.0234942"
       id="path104" />
    <path
       d="m 117.34943,139.12742 h -2.34966 v 0.48821 h 2.34966 c 0.13463,0 0.24411,-0.10949 0.24411,-0.24341 0,-0.13509 -0.10948,-0.2448 -0.24411,-0.2448"
       style="fill:#cdc8c4;fill-opacity:1;fill-rule:nonzero;stroke:none;stroke-width:0.0234942"
       id="path106" />
    <path
       d="m 115.56551,127.92746 h -0.56574 v 1.18082 h 0.56574 c 0,-0.39377 0,-0.788 0,-1.18082"
       style="fill:#f0a228;fill-opacity:1;fill-rule:nonzero;stroke:none;stroke-width:0.0234942"
       id="path108" />
    <path
       d="m 115.56551,126.97311 h -0.56574 v 0.46543 h 0.56574 c 0,-0.15507 0,-0.3106 0,-0.46543"
       style="fill:#f0a228;fill-opacity:1;fill-rule:nonzero;stroke:none;stroke-width:0.0234942"
       id="path110" />
    <path
       d="m 118.6294,126.97311 v 19.81696 c 0,0 -3.06389,-0.73349 -3.06389,-3.45671 0,-1.23368 0,-7.38096 0,-13.73593 h -0.56574 v 13.81299 c 0,2.06233 1.67162,3.73442 3.73466,3.73442 2.06232,0 3.73418,-1.67209 3.73418,-3.73442 v -16.43731 h -3.83921"
       style="fill:#f0a228;fill-opacity:1;fill-rule:nonzero;stroke:none;stroke-width:0.0234942"
       id="path112" />
    <path
       d="m 118.6294,114.63462 h -3.06389 c 0,0.28969 0,0.6663 0,1.11528 h 1.78392 c 0.13463,0 0.24411,0.10948 0.24411,0.24387 0,0.13486 -0.10948,0.24434 -0.24411,0.24434 h -1.78392 c 0,0.35946 0,0.75511 0,1.18176 h 0.70131 c 0.13509,0 0.24363,0.10878 0.24363,0.24434 0,0.13416 -0.10854,0.24364 -0.24363,0.24364 h -0.70131 c 0,0.37473 0,0.76873 0,1.18176 h 1.78392 c 0.13463,0 0.24411,0.10925 0.24411,0.24387 0,0.13533 -0.10948,0.24481 -0.24411,0.24481 h -1.78392 c 0,0.38061 0,0.77531 0,1.18177 h 0.70131 c 0.13509,0 0.24363,0.10831 0.24363,0.24339 0,0.1351 -0.10854,0.24458 -0.24363,0.24458 h -0.70131 c 0,0.3846 0,0.77931 0,1.18152 h 1.78392 c 0.13463,0 0.24411,0.10949 0.24411,0.24388 0,0.13462 -0.10948,0.24434 -0.24411,0.24434 h -1.78392 c 0,0.38789 0,0.78212 0,1.18129 h 0.70131 c 0.13509,0 0.24363,0.10949 0.24363,0.24434 0,0.13462 -0.10854,0.24387 -0.24363,0.24387 h -0.70131 c 0,0.39048 0,0.78448 0,1.182 h 1.78392 c 0.13463,0 0.24411,0.10925 0.24411,0.24387 0,0.13439 -0.10948,0.24411 -0.24411,0.24411 h -1.78392 c 0,0.23776 0,0.4767 0,0.71586 h 3.06389 v -12.33849"
       style="fill:#e9efed;fill-opacity:1;fill-rule:nonzero;stroke:none;stroke-width:0.0234942"
       id="path114" />
    <path
       d="m 116.26682,127.43854 c 0.13509,0 0.24363,0.10948 0.24363,0.24434 0,0.13486 -0.10854,0.24458 -0.24363,0.24458 h -0.70131 c 0,0.39282 0,0.78705 0,1.18082 h 1.78392 c 0.13463,0 0.24411,0.10925 0.24411,0.24457 0,0.13439 -0.10948,0.24458 -0.24411,0.24458 h -1.78392 c 0,6.35497 0,12.50225 0,13.73593 0,2.72322 3.06389,3.45671 3.06389,3.45671 v -19.81696 h -3.06389 c 0,0.15483 0,0.31036 0,0.46543 h 0.70131"
       style="fill:#f6be6f;fill-opacity:1;fill-rule:nonzero;stroke:none;stroke-width:0.0234942"
       id="path116" />
    <path
       d="m 114.99977,115.7499 v 0.48821 h 0.56574 c 0,-0.17081 0,-0.33409 0,-0.48821 h -0.56574"
       style="fill:#cdc8c4;fill-opacity:1;fill-rule:nonzero;stroke:none;stroke-width:0.0234942"
       id="path118" />
    <path
       d="m 117.59354,115.99377 c 0,-0.13439 -0.10948,-0.24387 -0.24411,-0.24387 h -1.78392 c 0,0.15412 0,0.3174 0,0.48821 h 1.78392 c 0.13463,0 0.24411,-0.10948 0.24411,-0.24434"
       style="fill:#ddd9d5;fill-opacity:1;fill-rule:nonzero;stroke:none;stroke-width:0.0234942"
       id="path120" />
    <path
       d="m 114.99977,119.08961 v 0.48868 h 0.56574 c 0,-0.1661 0,-0.32892 0,-0.48868 h -0.56574"
       style="fill:#cdc8c4;fill-opacity:1;fill-rule:nonzero;stroke:none;stroke-width:0.0234942"
       id="path122" />
    <path
       d="m 117.59354,119.33348 c 0,-0.13462 -0.10948,-0.24387 -0.24411,-0.24387 h -1.78392 c 0,0.15976 0,0.32258 0,0.48868 h 1.78392 c 0.13463,0 0.24411,-0.10948 0.24411,-0.24481"
       style="fill:#ddd9d5;fill-opacity:1;fill-rule:nonzero;stroke:none;stroke-width:0.0234942"
       id="path124" />
    <path
       d="m 114.99977,122.42955 v 0.48822 h 0.56574 c 0,-0.16423 0,-0.32634 0,-0.48822 h -0.56574"
       style="fill:#cdc8c4;fill-opacity:1;fill-rule:nonzero;stroke:none;stroke-width:0.0234942"
       id="path126" />
    <path
       d="m 117.59354,122.67343 c 0,-0.13439 -0.10948,-0.24388 -0.24411,-0.24388 h -1.78392 c 0,0.16188 0,0.32399 0,0.48822 h 1.78392 c 0.13463,0 0.24411,-0.10972 0.24411,-0.24434"
       style="fill:#ddd9d5;fill-opacity:1;fill-rule:nonzero;stroke:none;stroke-width:0.0234942"
       id="path128" />
    <path
       d="m 115.56551,129.10828 h -0.56574 v 0.48915 h 0.56574 c 0,-0.16281 0,-0.32634 0,-0.48915"
       style="fill:#cdc8c4;fill-opacity:1;fill-rule:nonzero;stroke:none;stroke-width:0.0234942"
       id="path130" />
    <path
       d="m 117.59354,129.35285 c 0,-0.13532 -0.10948,-0.24457 -0.24411,-0.24457 h -1.78392 c 0,0.16281 0,0.32634 0,0.48915 h 1.78392 c 0.13463,0 0.24411,-0.11019 0.24411,-0.24458"
       style="fill:#cdc8c4;fill-opacity:1;fill-rule:nonzero;stroke:none;stroke-width:0.0234942"
       id="path132" />
    <path
       d="m 114.99977,125.76927 v 0.48798 h 0.56574 c 0,-0.16352 0,-0.32611 0,-0.48798 h -0.56574"
       style="fill:#cdc8c4;fill-opacity:1;fill-rule:nonzero;stroke:none;stroke-width:0.0234942"
       id="path134" />
    <path
       d="m 117.59354,126.01314 c 0,-0.13462 -0.10948,-0.24387 -0.24411,-0.24387 h -1.78392 c 0,0.16187 0,0.32446 0,0.48798 h 1.78392 c 0.13463,0 0.24411,-0.10972 0.24411,-0.24411"
       style="fill:#ddd9d5;fill-opacity:1;fill-rule:nonzero;stroke:none;stroke-width:0.0234942"
       id="path136" />
    <path
       d="m 114.99977,117.41987 v 0.48798 h 0.56574 c 0,-0.16658 0,-0.32939 0,-0.48798 h -0.56574"
       style="fill:#cdc8c4;fill-opacity:1;fill-rule:nonzero;stroke:none;stroke-width:0.0234942"
       id="path138" />
    <path
       d="m 116.51045,117.66421 c 0,-0.13556 -0.10854,-0.24434 -0.24363,-0.24434 h -0.70131 c 0,0.15859 0,0.3214 0,0.48798 h 0.70131 c 0.13509,0 0.24363,-0.10948 0.24363,-0.24364"
       style="fill:#ddd9d5;fill-opacity:1;fill-rule:nonzero;stroke:none;stroke-width:0.0234942"
       id="path140" />
    <path
       d="m 114.99977,120.76006 v 0.48797 h 0.56574 c 0,-0.16446 0,-0.32751 0,-0.48797 h -0.56574"
       style="fill:#cdc8c4;fill-opacity:1;fill-rule:nonzero;stroke:none;stroke-width:0.0234942"
       id="path142" />
    <path
       d="m 116.51045,121.00345 c 0,-0.13508 -0.10854,-0.24339 -0.24363,-0.24339 h -0.70131 c 0,0.16046 0,0.32351 0,0.48797 h 0.70131 c 0.13509,0 0.24363,-0.10948 0.24363,-0.24458"
       style="fill:#ddd9d5;fill-opacity:1;fill-rule:nonzero;stroke:none;stroke-width:0.0234942"
       id="path144" />
    <path
       d="m 114.99977,124.09906 v 0.48821 h 0.56574 c 0,-0.16281 0,-0.32586 0,-0.48821 h -0.56574"
       style="fill:#cdc8c4;fill-opacity:1;fill-rule:nonzero;stroke:none;stroke-width:0.0234942"
       id="path146" />
    <path
       d="m 116.51045,124.3434 c 0,-0.13485 -0.10854,-0.24434 -0.24363,-0.24434 h -0.70131 c 0,0.16235 0,0.3254 0,0.48821 h 0.70131 c 0.13509,0 0.24363,-0.10925 0.24363,-0.24387"
       style="fill:#ddd9d5;fill-opacity:1;fill-rule:nonzero;stroke:none;stroke-width:0.0234942"
       id="path148" />
    <path
       d="m 115.56551,127.43854 h -0.56574 v 0.48892 h 0.56574 c 0,-0.16306 0,-0.32587 0,-0.48892"
       style="fill:#cdc8c4;fill-opacity:1;fill-rule:nonzero;stroke:none;stroke-width:0.0234942"
       id="path150" />
    <path
       d="m 116.51045,127.68288 c 0,-0.13486 -0.10854,-0.24434 -0.24363,-0.24434 h -0.70131 c 0,0.16305 0,0.32586 0,0.48892 h 0.70131 c 0.13509,0 0.24363,-0.10972 0.24363,-0.24458"
       style="fill:#cdc8c4;fill-opacity:1;fill-rule:nonzero;stroke:none;stroke-width:0.0234942"
       id="path152" />
    <path
       d="m 116.26682,130.77825 h -1.26705 v 0.48845 h 1.26705 c 0.13509,0 0.24363,-0.10902 0.24363,-0.24458 0,-0.13438 -0.10854,-0.24387 -0.24363,-0.24387"
       style="fill:#cdc8c4;fill-opacity:1;fill-rule:nonzero;stroke:none;stroke-width:0.0234942"
       id="path154" />
    <path
       d="m 116.26682,134.1182 h -1.26705 v 0.48868 h 1.26705 c 0.13509,0 0.24363,-0.10949 0.24363,-0.24458 0,-0.13462 -0.10854,-0.2441 -0.24363,-0.2441"
       style="fill:#cdc8c4;fill-opacity:1;fill-rule:nonzero;stroke:none;stroke-width:0.0234942"
       id="path156" />
    <path
       d="m 116.26682,137.45814 h -1.26705 v 0.48775 h 1.26705 c 0.13509,0 0.24363,-0.10902 0.24363,-0.24411 0,-0.13462 -0.10854,-0.24364 -0.24363,-0.24364"
       style="fill:#cdc8c4;fill-opacity:1;fill-rule:nonzero;stroke:none;stroke-width:0.0234942"
       id="path158" />
    <path
       d="m 95.502808,136.00221 c -3.983221,0 -7.212275,-3.22976 -7.212275,-7.21463 0,-3.27134 2.179565,-6.03309 5.165218,-6.91554 v -1.00579 h 2.128347 c 0.138851,0 0.249744,-0.11113 0.249744,-0.2481 0,-0.13721 -0.110893,-0.24834 -0.249744,-0.24834 h -2.128347 v -0.99498 h 2.128347 c 0.138851,0 0.249744,-0.11066 0.249744,-0.24833 0,-0.13721 -0.110893,-0.24764 -0.249744,-0.24764 h -2.128347 v -0.99404 h 2.128347 c 0.138851,0 0.249744,-0.11183 0.249744,-0.2488 0,-0.13674 -0.110893,-0.2481 -0.249744,-0.2481 h -2.128347 v -0.94518 c -0.576785,-0.0827 -1.020356,-0.57326 -1.020356,-1.17283 0,-0.65878 0.533319,-1.19187 1.191394,-1.19187 h 3.752272 c 0.659719,0 1.191395,0.53309 1.191395,1.19187 0,0.59957 -0.444042,1.09013 -1.020827,1.17283 v 5.4293 c 2.986831,0.88268 5.166161,3.64443 5.166161,6.91601 0,3.9844 -3.230232,7.21416 -7.212982,7.21416 z m 3.147293,-14.9083 v -3.92543 c 0.6179,-0.41467 1.020122,-1.1195 1.020122,-1.89951 0,-1.26352 -1.027875,-2.29163 -2.291867,-2.29163 h -3.751567 c -1.263992,0 -2.290692,1.02811 -2.290692,2.29163 0,0.78001 0.401987,1.48484 1.019887,1.89951 v 3.92543 c -3.078691,1.26423 -5.165688,4.3166 -5.165688,7.69367 0,4.58515 3.728777,8.31439 8.312512,8.31439 4.584202,0 8.313682,-3.72924 8.313682,-8.31439 0,-3.37707 -2.08722,-6.42944 -5.166389,-7.69367"
       style="fill:#ffffff;fill-opacity:1;fill-rule:nonzero;stroke:none;stroke-width:0.0234942"
       id="path160" />
    <path
       d="m 100.09148,124.65447 h -9.175461 c -1.002266,1.1007 -1.614292,2.56463 -1.614292,4.17141 0,3.42687 2.778199,6.20296 6.202255,6.20296 3.424292,0 6.200848,-2.77609 6.200848,-6.20296 0,-1.60631 -0.61109,-3.07071 -1.61335,-4.17141"
       style="fill:#e7bb0e;fill-opacity:1;fill-rule:nonzero;stroke:none;stroke-width:0.0234942"
       id="path162" />
    <path
       d="m 96.677522,111.67975 c 0,0.49103 -0.397994,0.88926 -0.889024,0.88926 -0.491265,0 -0.889259,-0.39823 -0.889259,-0.88926 0,-0.49103 0.397994,-0.88926 0.889259,-0.88926 0.49103,0 0.889024,0.39823 0.889024,0.88926"
       style="fill:#fffffc;fill-opacity:1;fill-rule:nonzero;stroke:none;stroke-width:0.0234942"
       id="path164" />
    <path
       d="m 94.436167,109.44263 c 0,0.26971 -0.218732,0.48891 -0.488915,0.48891 -0.270185,0 -0.489152,-0.2192 -0.489152,-0.48891 0,-0.26995 0.218967,-0.48939 0.489152,-0.48939 0.270183,0 0.488915,0.21944 0.488915,0.48939"
       style="fill:#fffffc;fill-opacity:1;fill-rule:nonzero;stroke:none;stroke-width:0.0234942"
       id="path166" />
    <path
       d="m 96.463488,107.69465 c 0,0.19289 -0.156236,0.34936 -0.349359,0.34936 -0.192888,0 -0.349125,-0.15647 -0.349125,-0.34936 0,-0.19289 0.156237,-0.34936 0.349125,-0.34936 0.193123,0 0.349359,0.15647 0.349359,0.34936"
       style="fill:#fffffc;fill-opacity:1;fill-rule:nonzero;stroke:none;stroke-width:0.0234942"
       id="path168" />
    <path
       d="m 125.98828,155.64037 c 0,1.1968 -0.97031,2.16688 -2.16711,2.16688 H 89.98682 c -1.197033,0 -2.167347,-0.97008 -2.167347,-2.16688 0,-1.1968 0.970314,-2.16688 2.167347,-2.16688 h 33.83435 c 1.1968,0 2.16711,0.97008 2.16711,2.16688"
       style="fill:#fffffc;fill-opacity:1;fill-rule:nonzero;stroke:none;stroke-width:0.0234942"
       id="path170" />
    <path
       d="m 90.894874,157.80725 v 1.61594 c 0,0.46306 0.375673,0.83874 0.838746,0.83874 h 6.221991 c 0.463307,0 0.838746,-0.37568 0.838746,-0.83874 v -1.61594 h -7.899483"
       style="fill:#ecaf3d;fill-opacity:1;fill-rule:nonzero;stroke:none;stroke-width:0.0234942"
       id="path172" />
    <path
       d="m 115.15272,157.80725 v 1.61594 c 0,0.46306 0.37567,0.83874 0.83874,0.83874 h 6.222 c 0.4633,0 0.83898,-0.37568 0.83898,-0.83874 v -1.61594 h -7.89972"
       style="fill:#ecaf3d;fill-opacity:1;fill-rule:nonzero;stroke:none;stroke-width:0.0234942"
       id="path174" />
    <path
       d="m 109.21078,155.11598 c 0,1.35186 -1.0953,2.44692 -2.44646,2.44692 -1.35163,0 -2.44716,-1.09506 -2.44716,-2.44692 v -40.44095 c 0,-1.35162 1.09553,-2.44669 2.44716,-2.44669 1.35116,0 2.44646,1.09507 2.44646,2.44669 v 40.44095"
       style="fill:#fffffc;fill-opacity:1;fill-rule:nonzero;stroke:none;stroke-width:0.0234942"
       id="path176" />
    <path
       d="m 112.70579,119.98827 h -11.04537 v -2.51647 h 11.04537 v 2.51647"
       style="fill:#e8f7fa;fill-opacity:1;fill-rule:nonzero;stroke:none;stroke-width:0.0234942"
       id="path178" />
    <path
       d="M 101.66042,120.96657 H 89.916337 v -4.1942 h 11.744083 v 4.1942"
       style="fill:#ecaf3d;fill-opacity:1;fill-rule:nonzero;stroke:none;stroke-width:0.0234942"
       id="path180" />
    <path
       d="m 124.03097,120.96657 h -11.74432 v -4.1942 h 11.74432 v 4.1942"
       style="fill:#ecaf3d;fill-opacity:1;fill-rule:nonzero;stroke:none;stroke-width:0.0234942"
       id="path182" />
    <path
       d="m 88.170478,156.82307 c -0.03242,-0.0495 -0.06273,-0.10055 -0.09092,-0.15294 5.087451,-0.24599 10.587462,-0.45345 16.423672,-0.61626 0.0192,0.0463 0.04,0.0921 0.0618,0.13674 -5.840204,0.16704 -11.33716,0.38013 -16.394539,0.63246 m 20.845769,-0.749 c 0.0191,-0.0449 0.0369,-0.0907 0.0534,-0.13697 5.4112,-0.1257 11.07238,-0.2138 16.91847,-0.25984 -6.7e-4,0.0435 -0.003,0.0865 -0.006,0.12921 -5.86934,0.0472 -11.54932,0.13815 -16.96593,0.2676"
       style="fill:#fffffc;fill-opacity:1;fill-rule:nonzero;stroke:none;stroke-width:0.0234942"
       id="path492" />
    <path
       d="m 104.56502,156.19061 c -0.0218,-0.0446 -0.0426,-0.0905 -0.0618,-0.13674 1.4987,-0.0418 3.02583,-0.0808 4.56635,-0.11677 -0.0165,0.0463 -0.0343,0.0921 -0.0534,0.13697 -1.50551,0.036 -2.98753,0.0747 -4.45122,0.11654"
       style="fill:#fffffc;fill-opacity:1;fill-rule:nonzero;stroke:none;stroke-width:0.0234942"
       id="path494" />
    <path
       d="m 88.280431,156.97626 c -0.039,-0.0494 -0.07542,-0.10056 -0.109953,-0.15319 5.057378,-0.25233 10.554335,-0.46542 16.394542,-0.63246 0.0228,0.0465 0.0469,0.0921 0.0726,0.13697 -5.847726,0.17127 -11.330117,0.38977 -16.357188,0.64868 m 20.672388,-0.76498 c 0.0226,-0.0451 0.0437,-0.0907 0.0635,-0.13721 5.41661,-0.12945 11.09658,-0.22038 16.96593,-0.2676 -0.003,0.0435 -0.008,0.0865 -0.0139,0.12899 -5.89472,0.0489 -11.59302,0.14237 -17.0155,0.27582"
       style="fill:#fffffc;fill-opacity:1;fill-rule:nonzero;stroke:none;stroke-width:0.0234942"
       id="path504" />
    <path
       d="m 104.63762,156.32758 c -0.0256,-0.0449 -0.0498,-0.0905 -0.0726,-0.13697 1.46369,-0.0418 2.94571,-0.0806 4.45123,-0.11654 -0.0197,0.0466 -0.0409,0.0921 -0.0635,0.13721 -1.45782,0.036 -2.89826,0.0747 -4.3152,0.1163"
       style="fill:#fffffc;fill-opacity:1;fill-rule:nonzero;stroke:none;stroke-width:0.0234942"
       id="path506" />
    <path
       d="m 88.413173,157.13038 c -0.04675,-0.0494 -0.09092,-0.10056 -0.132742,-0.15412 5.027071,-0.25891 10.509462,-0.47741 16.357189,-0.64868 0.0266,0.0465 0.0547,0.0923 0.0843,0.1372 -5.847722,0.1755 -11.319775,0.39988 -16.308786,0.6656 m 20.464456,-0.78072 c 0.0266,-0.0451 0.0514,-0.0914 0.0752,-0.13838 5.42248,-0.13345 11.12078,-0.22695 17.01549,-0.27582 -0.006,0.0437 -0.0132,0.0869 -0.0216,0.12968 -5.92221,0.0503 -11.64001,0.14684 -17.06907,0.28452"
       style="fill:#fffffc;fill-opacity:1;fill-rule:nonzero;stroke:none;stroke-width:0.0234942"
       id="path516" />
    <path
       d="m 104.72196,156.46478 c -0.0296,-0.0449 -0.0578,-0.0907 -0.0843,-0.1372 1.41694,-0.0416 2.85737,-0.0804 4.3152,-0.1163 -0.0237,0.047 -0.0486,0.0933 -0.0752,0.13838 -1.40566,0.0357 -2.78948,0.074 -4.15567,0.11512"
       style="fill:#fffffc;fill-opacity:1;fill-rule:nonzero;stroke:none;stroke-width:0.0234942"
       id="path518" />
    <path
       d="m 88.575049,157.2845 c -0.05662,-0.0486 -0.110658,-0.10008 -0.161876,-0.15412 4.989011,-0.26572 10.461064,-0.4901 16.308787,-0.6656 0.031,0.0468 0.0637,0.0926 0.0977,0.13721 -5.845143,0.17997 -11.29887,0.41021 -16.244651,0.68251 m 20.214711,-0.79551 c 0.0308,-0.0454 0.0601,-0.0919 0.0879,-0.13933 5.42906,-0.13768 11.14686,-0.23424 17.06907,-0.28452 -0.009,0.0437 -0.0186,0.0869 -0.0298,0.12946 -5.95321,0.0519 -11.69051,0.15201 -17.12709,0.29439"
       style="fill:#fffffc;fill-opacity:1;fill-rule:nonzero;stroke:none;stroke-width:0.0234942"
       id="path530" />
    <path
       d="m 104.8197,156.60199 c -0.034,-0.0446 -0.0667,-0.0905 -0.0977,-0.13721 1.3662,-0.0411 2.75001,-0.0794 4.15567,-0.11512 -0.0277,0.0475 -0.0571,0.094 -0.0879,0.13933 -1.3427,0.035 -2.66496,0.0726 -3.97006,0.113"
       style="fill:#fffffc;fill-opacity:1;fill-rule:nonzero;stroke:none;stroke-width:0.0234942"
       id="path532" />
    <path
       d="m 88.776395,157.43815 c -0.07001,-0.0475 -0.137441,-0.0987 -0.201346,-0.15365 4.945781,-0.2723 10.399508,-0.50254 16.244651,-0.68251 0.0362,0.047 0.0738,0.0928 0.11324,0.1372 -5.835507,0.18443 -11.261277,0.42032 -16.156545,0.69896 m 19.910935,-0.80914 c 0.0357,-0.0454 0.07,-0.0921 0.10243,-0.14002 5.43658,-0.14238 11.17388,-0.24247 17.1271,-0.29439 -0.0115,0.0439 -0.0245,0.0872 -0.0388,0.12969 -5.98658,0.0538 -11.74668,0.15741 -17.19077,0.30472"
       style="fill:#fffffc;fill-opacity:1;fill-rule:nonzero;stroke:none;stroke-width:0.0234942"
       id="path544" />
    <path
       d="m 104.93294,156.73919 c -0.0395,-0.0444 -0.0771,-0.0902 -0.11324,-0.1372 1.3051,-0.0404 2.62736,-0.078 3.97006,-0.113 -0.0324,0.0479 -0.0667,0.0947 -0.10243,0.14002 -1.26823,0.0343 -2.52188,0.0712 -3.75439,0.11018"
       style="fill:#fffffc;fill-opacity:1;fill-rule:nonzero;stroke:none;stroke-width:0.0234942"
       id="path546" />
    <path
       d="m 89.039766,157.58992 c -0.09163,-0.0446 -0.179497,-0.0952 -0.263371,-0.15177 4.895268,-0.27864 10.321038,-0.51453 16.156545,-0.69896 0.0418,0.0472 0.0858,0.093 0.1311,0.13674 -5.809665,0.18866 -11.193615,0.42948 -16.024274,0.71399 m 19.527504,-0.81971 c 0.0416,-0.0455 0.0818,-0.0926 0.12006,-0.1412 5.44409,-0.14731 11.20419,-0.25092 17.19077,-0.30472 -0.0146,0.044 -0.0303,0.0872 -0.0477,0.12969 -6.02393,0.0557 -11.81033,0.16351 -17.26312,0.31623"
       style="fill:#fffffc;fill-opacity:1;fill-rule:nonzero;stroke:none;stroke-width:0.0234942"
       id="path556" />
    <path
       d="m 105.06404,156.87593 c -0.0453,-0.0437 -0.0893,-0.0895 -0.1311,-0.13674 1.23251,-0.039 2.48616,-0.0759 3.75439,-0.11018 -0.0383,0.0486 -0.0785,0.0956 -0.12006,0.1412 -1.18458,0.0331 -2.35107,0.0684 -3.50323,0.10572"
       style="fill:#fffffc;fill-opacity:1;fill-rule:nonzero;stroke:none;stroke-width:0.0234942"
       id="path558" />
    <path
       d="m 89.43306,157.73583 c -0.136972,-0.036 -0.268539,-0.0851 -0.393294,-0.14591 4.830659,-0.28451 10.214609,-0.52533 16.024274,-0.71399 0.0495,0.0479 0.10102,0.0935 0.15435,0.13698 -5.74129,0.19124 -11.048648,0.43535 -15.78533,0.72292 m 18.99183,-0.82277 c 0.0494,-0.0456 0.0968,-0.0933 0.14238,-0.14285 5.45279,-0.15272 11.2392,-0.26055 17.26313,-0.31623 -0.0179,0.0439 -0.0371,0.0874 -0.0578,0.12992 -6.06834,0.0583 -11.88294,0.17033 -17.34771,0.32916"
       style="fill:#fffffc;fill-opacity:1;fill-rule:nonzero;stroke:none;stroke-width:0.0234942"
       id="path568" />
    <path
       d="m 105.21839,157.01291 c -0.0533,-0.0435 -0.10478,-0.0891 -0.15435,-0.13698 1.15216,-0.0374 2.31865,-0.0726 3.50323,-0.10572 -0.0456,0.0496 -0.093,0.0973 -0.14238,0.14285 -1.08308,0.0315 -2.15207,0.0649 -3.2065,0.0999"
       style="fill:#fffffc;fill-opacity:1;fill-rule:nonzero;stroke:none;stroke-width:0.0234942"
       id="path570" />
    <path
       d="M 91.071786,157.80725 H 89.98682 c -0.191478,0 -0.377083,-0.0249 -0.55376,-0.0714 4.736682,-0.28757 10.04404,-0.53168 15.78533,-0.72292 0.059,0.0484 0.12053,0.094 0.1842,0.13649 -5.18425,0.17716 -9.998458,0.39894 -14.330804,0.65785 m 17.181604,-0.74947 c 0.0595,-0.0456 0.11653,-0.094 0.1715,-0.14472 5.46477,-0.15883 11.27937,-0.27089 17.34771,-0.32916 -0.0214,0.0444 -0.0442,0.0876 -0.0686,0.13016 -6.11603,0.0609 -11.97457,0.17808 -17.45061,0.34372"
       style="fill:#fffffc;fill-opacity:1;fill-rule:nonzero;stroke:none;stroke-width:0.0234942"
       id="path580" />
    <path
       d="m 90.894874,157.81782 v -0.0106 h 0.176912 c -0.05944,0.003 -0.117706,0.007 -0.176912,0.0106"
       style="fill:#edad39;fill-opacity:1;fill-rule:nonzero;stroke:none;stroke-width:0.0234942"
       id="path582" />
    <path
       d="m 105.40259,157.1494 c -0.0637,-0.0425 -0.12523,-0.0881 -0.1842,-0.13649 1.05443,-0.035 2.12342,-0.0684 3.2065,-0.0999 -0.0549,0.0507 -0.11206,0.0991 -0.1715,0.14472 -0.96397,0.0291 -1.91079,0.0597 -2.8508,0.0916"
       style="fill:#fffffc;fill-opacity:1;fill-rule:nonzero;stroke:none;stroke-width:0.0234942"
       id="path584" />
    <path
       d="m 93.963697,157.80725 h -2.891911 c 4.332346,-0.25891 9.146554,-0.48069 14.330804,-0.65785 0.0733,0.0491 0.14942,0.0944 0.22789,0.13557 -4.16271,0.1459 -8.068868,0.32116 -11.666783,0.52228 m 14.075663,-0.6024 c 0.074,-0.0453 0.14542,-0.0944 0.21403,-0.14707 5.47604,-0.16564 11.33458,-0.28288 17.45061,-0.34372 -0.0254,0.0446 -0.0524,0.0881 -0.0808,0.13063 -6.18088,0.0637 -12.08687,0.18654 -17.58382,0.36016"
       style="fill:#fffffc;fill-opacity:1;fill-rule:nonzero;stroke:none;stroke-width:0.0234942"
       id="path594" />
    <path
       d="m 90.894874,157.98956 v -0.17174 c 0.05921,-0.003 0.117472,-0.007 0.176912,-0.0106 h 2.891911 c -1.049489,0.0585 -2.07384,0.11959 -3.068823,0.18232"
       style="fill:#edad39;fill-opacity:1;fill-rule:nonzero;stroke:none;stroke-width:0.0234942"
       id="path596" />
    <path
       d="m 105.63048,157.28497 c -0.0785,-0.0411 -0.15459,-0.0865 -0.22789,-0.13557 0.94001,-0.032 1.88683,-0.0625 2.8508,-0.0916 -0.0686,0.0526 -0.14003,0.10173 -0.21403,0.14707 -0.81197,0.0256 -1.615,0.0524 -2.40888,0.0801"
       style="fill:#fffffc;fill-opacity:1;fill-rule:nonzero;stroke:none;stroke-width:0.0234942"
       id="path598" />
    <path
       d="m 96.981068,157.80725 h -3.017371 c 3.597915,-0.20112 7.504073,-0.37638 11.666783,-0.52228 0.0975,0.051 0.19876,0.0956 0.30331,0.13344 -3.14517,0.11278 -6.138342,0.24294 -8.952722,0.38884 m 10.770012,-0.45156 c 0.0999,-0.044 0.19594,-0.0944 0.28828,-0.15084 5.49695,-0.17362 11.40294,-0.2965 17.58382,-0.36016 -0.0301,0.0446 -0.0615,0.0883 -0.0949,0.13063 -6.27179,0.0672 -12.24357,0.19711 -17.77718,0.38037"
       style="fill:#fffffc;fill-opacity:1;fill-rule:nonzero;stroke:none;stroke-width:0.0234942"
       id="path608" />
    <path
       d="m 90.894874,158.1653 v -0.17574 c 0.994983,-0.0627 2.019334,-0.12381 3.068823,-0.18231 h 3.017371 c -2.13563,0.11066 -4.16812,0.23024 -6.086194,0.35805"
       style="fill:#ecad38;fill-opacity:1;fill-rule:nonzero;stroke:none;stroke-width:0.0234942"
       id="path610" />
    <path
       d="m 105.93379,157.41841 c -0.10455,-0.0378 -0.2058,-0.0825 -0.30331,-0.13344 0.79388,-0.0277 1.59691,-0.0545 2.40888,-0.0801 -0.0923,0.0564 -0.18843,0.1069 -0.28828,0.15084 -0.61109,0.0202 -1.217,0.0411 -1.81729,0.0627"
       style="fill:#fffffc;fill-opacity:1;fill-rule:nonzero;stroke:none;stroke-width:0.0234942"
       id="path612" />
    <path
       d="m 100.1582,157.80725 h -3.177132 c 2.81438,-0.1459 5.807552,-0.27606 8.952722,-0.38884 0.16729,0.0604 0.34349,0.10291 0.52557,0.1257 -2.17956,0.0792 -4.28347,0.16728 -6.30116,0.26314 m 7.08493,-0.29133 c 0.17691,-0.035 0.34702,-0.0893 0.50795,-0.16023 5.53361,-0.18326 11.50539,-0.31318 17.77718,-0.38037 -0.0352,0.0451 -0.0724,0.0888 -0.11112,0.1311 -6.4419,0.0719 -12.55323,0.21214 -18.17401,0.4095"
       style="fill:#fffffc;fill-opacity:1;fill-rule:nonzero;stroke:none;stroke-width:0.0234942"
       id="path622" />
    <path
       d="m 90.894874,158.34597 v -0.18067 c 1.918074,-0.12781 3.950564,-0.24739 6.086194,-0.35805 h 1.813289 v 0.0667 c -2.820959,0.14191 -5.463831,0.29978 -7.899483,0.472"
       style="fill:#ecad37;fill-opacity:1;fill-rule:nonzero;stroke:none;stroke-width:0.0234942"
       id="path624" />
    <path
       d="m 106.45936,157.54411 c -0.18208,-0.0228 -0.35828,-0.0653 -0.52557,-0.1257 0.60029,-0.0216 1.2062,-0.0426 1.81729,-0.0627 -0.16093,0.0709 -0.33104,0.12522 -0.50795,0.16023 -0.26126,0.009 -0.52463,0.0188 -0.78377,0.0282"
       style="fill:#fffffc;fill-opacity:1;fill-rule:nonzero;stroke:none;stroke-width:0.0234942"
       id="path626" />
    <path
       d="m 103.54607,157.80725 h -3.38787 c 2.01769,-0.0959 4.1216,-0.18396 6.30116,-0.26314 0.0999,0.0125 0.20158,0.0188 0.30496,0.0188 0.16399,0 0.32398,-0.0162 0.47881,-0.047 5.62078,-0.19736 11.73211,-0.33761 18.17401,-0.4095 -0.042,0.0456 -0.086,0.0895 -0.13181,0.13156 -7.86611,0.0919 -15.217,0.28874 -21.73926,0.56927"
       style="fill:#fffffc;fill-opacity:1;fill-rule:nonzero;stroke:none;stroke-width:0.0234942"
       id="path636" />
    <path
       d="m 90.894874,158.53228 v -0.18631 c 2.435652,-0.17222 5.078524,-0.33009 7.899483,-0.472 v 0.16 c -2.840694,0.14965 -5.485446,0.3167 -7.899483,0.49831"
       style="fill:#edab37;fill-opacity:1;fill-rule:nonzero;stroke:none;stroke-width:0.0234942"
       id="path638" />
    <path
       d="m 106.76432,157.5629 c -0.10338,0 -0.2051,-0.007 -0.30496,-0.0188 0.25914,-0.009 0.52251,-0.0188 0.78377,-0.0282 -0.15483,0.0308 -0.31482,0.047 -0.47881,0.047"
       style="fill:#fffffc;fill-opacity:1;fill-rule:nonzero;stroke:none;stroke-width:0.0234942"
       id="path640" />
    <path
       d="m 107.21094,157.80725 h -3.66487 c 6.52226,-0.28053 13.87315,-0.4774 21.73926,-0.56927 -0.0505,0.0463 -0.10338,0.0902 -0.15811,0.1318 -6.3895,0.0782 -12.4212,0.22837 -17.91628,0.43747"
       style="fill:#fffffc;fill-opacity:1;fill-rule:nonzero;stroke:none;stroke-width:0.0234942"
       id="path650" />
    <path
       d="m 90.894874,158.72517 v -0.19289 c 2.414037,-0.18161 5.058789,-0.34866 7.899483,-0.49831 v 0.16257 c -2.865128,0.15883 -5.511289,0.33598 -7.899483,0.52863"
       style="fill:#edab36;fill-opacity:1;fill-rule:nonzero;stroke:none;stroke-width:0.0234942"
       id="path652" />
    <path
       d="m 111.2912,157.80725 h -4.08026 c 5.49508,-0.2091 11.52678,-0.35923 17.91628,-0.43747 -0.0632,0.0477 -0.12922,0.0921 -0.19735,0.13275 -4.78438,0.062 -9.35778,0.16539 -13.63867,0.30472"
       style="fill:#fffffc;fill-opacity:1;fill-rule:nonzero;stroke:none;stroke-width:0.0234942"
       id="path662" />
    <path
       d="m 90.894874,158.92675 v -0.20158 c 2.388194,-0.19265 5.034355,-0.3698 7.899483,-0.52863 v 0.16588 c -2.895671,0.16939 -5.543712,0.35852 -7.899483,0.56433"
       style="fill:#edab35;fill-opacity:1;fill-rule:nonzero;stroke:none;stroke-width:0.0234942"
       id="path664" />
    <path
       d="m 116.04691,157.80725 h -4.75571 c 4.28089,-0.13933 8.85429,-0.2427 13.63867,-0.30472 -0.0848,0.0505 -0.17316,0.0954 -0.26479,0.13415 -2.96545,0.0409 -5.84538,0.0982 -8.61817,0.17057"
       style="fill:#fffffc;fill-opacity:1;fill-rule:nonzero;stroke:none;stroke-width:0.0234942"
       id="path674" />
    <path
       d="m 90.894874,159.1389 v -0.21215 c 2.355771,-0.20581 5.003812,-0.39494 7.899483,-0.56433 v 0.1701 c -2.934437,0.18184 -5.585531,0.3853 -7.899483,0.60638"
       style="fill:#edab34;fill-opacity:1;fill-rule:nonzero;stroke:none;stroke-width:0.0234942"
       id="path676" />
    <path
       d="m 115.15272,157.83121 v -0.024 h 0.89419 c -0.29932,0.008 -0.59746,0.0157 -0.89419,0.024"
       style="fill:#edab34;fill-opacity:1;fill-rule:nonzero;stroke:none;stroke-width:0.0234942"
       id="path678" />
    <path
       d="m 122.20477,157.80725 h -6.15786 c 2.77279,-0.0724 5.65272,-0.12969 8.61817,-0.17057 -0.14825,0.0627 -0.30495,0.10948 -0.46777,0.13791 -0.66912,0.0101 -1.3333,0.0209 -1.99254,0.0326"
       style="fill:#fffffc;fill-opacity:1;fill-rule:nonzero;stroke:none;stroke-width:0.0234942"
       id="path688" />
    <path
       d="m 90.894874,159.36586 v -0.22696 c 2.313952,-0.22108 4.965046,-0.42454 7.899483,-0.60638 v 0.17479 c -2.987299,0.19712 -5.640273,0.41796 -7.899483,0.65855"
       style="fill:#ecaa35;fill-opacity:1;fill-rule:nonzero;stroke:none;stroke-width:0.0234942"
       id="path690" />
    <path
       d="m 115.15272,157.96982 v -0.13861 c 0.29673,-0.008 0.59487,-0.0162 0.89419,-0.024 h 6.15786 c -2.42203,0.043 -4.7764,0.0975 -7.05205,0.16258"
       style="fill:#ecaa35;fill-opacity:1;fill-rule:nonzero;stroke:none;stroke-width:0.0234942"
       id="path692" />
    <path
       d="m 123.82117,157.80725 h -1.6164 c 0.65924,-0.0118 1.32342,-0.0226 1.99254,-0.0326 -0.12217,0.0214 -0.24786,0.0326 -0.37614,0.0326"
       style="fill:#fffffc;fill-opacity:1;fill-rule:nonzero;stroke:none;stroke-width:0.0234942"
       id="path702" />
    <path
       d="m 90.915549,159.60949 c -0.01339,-0.0599 -0.02067,-0.1224 -0.02067,-0.1863 v -0.0574 c 2.25921,-0.24058 4.912184,-0.46143 7.899482,-0.65854 v 0.17997 c -3.047913,0.21591 -5.701592,0.45837 -7.878807,0.72221"
       style="fill:#ebaa34;fill-opacity:1;fill-rule:nonzero;stroke:none;stroke-width:0.0234942"
       id="path704" />
    <path
       d="m 115.15272,158.10891 v -0.13909 c 2.27565,-0.0651 4.63002,-0.11958 7.05205,-0.16257 h 0.84767 v 0.11723 c -2.72628,0.0468 -5.36563,0.10878 -7.89972,0.18443"
       style="fill:#ebaa34;fill-opacity:1;fill-rule:nonzero;stroke:none;stroke-width:0.0234942"
       id="path706" />
    <path
       d="m 91.023388,159.86957 c -0.04958,-0.0787 -0.08646,-0.16657 -0.107839,-0.26008 2.177215,-0.26384 4.830895,-0.5063 7.878808,-0.72221 v 0.18725 c -3.100306,0.23706 -5.724147,0.50442 -7.770969,0.79504"
       style="fill:#ebab33;fill-opacity:1;fill-rule:nonzero;stroke:none;stroke-width:0.0234942"
       id="path716" />
    <path
       d="m 115.15272,158.24918 v -0.14027 c 2.53409,-0.0756 5.17344,-0.13767 7.89972,-0.18443 v 0.13228 c -2.73192,0.0489 -5.37267,0.11347 -7.89972,0.19242"
       style="fill:#ebab33;fill-opacity:1;fill-rule:nonzero;stroke:none;stroke-width:0.0234942"
       id="path718" />
    <path
       d="m 91.30203,160.14258 c -0.113007,-0.0679 -0.208394,-0.16164 -0.278642,-0.27301 2.046822,-0.29062 4.670663,-0.55798 7.770969,-0.79504 v 0.19594 c -3.109234,0.26008 -5.649905,0.55376 -7.492327,0.87211"
       style="fill:#eca932;fill-opacity:1;fill-rule:nonzero;stroke:none;stroke-width:0.0234942"
       id="path728" />
    <path
       d="m 115.15272,158.39037 v -0.14119 c 2.52705,-0.0789 5.1678,-0.14356 7.89972,-0.19242 v 0.13274 c -2.74014,0.051 -5.37925,0.11841 -7.89972,0.20087"
       style="fill:#eca932;fill-opacity:1;fill-rule:nonzero;stroke:none;stroke-width:0.0234942"
       id="path730" />
    <path
       d="M 92.621704,160.26193 H 91.73362 c -0.157881,0 -0.305426,-0.0437 -0.43159,-0.11935 1.842422,-0.31835 4.383093,-0.61203 7.492327,-0.87211 v 0.15272 c 0,0.0183 -4.77e-4,0.0366 -0.0017,0.0547 -2.561582,0.23777 -4.650223,0.50137 -6.171008,0.784"
       style="fill:#eca932;fill-opacity:1;fill-rule:nonzero;stroke:none;stroke-width:0.0234942"
       id="path740" />
    <path
       d="m 115.15272,158.53275 v -0.14238 c 2.52047,-0.0825 5.15958,-0.14989 7.89972,-0.20087 v 0.13297 c -2.74719,0.0533 -5.38842,0.12406 -7.89972,0.21028"
       style="fill:#eca932;fill-opacity:1;fill-rule:nonzero;stroke:none;stroke-width:0.0234942"
       id="path742" />
    <path
       d="m 94.605796,160.26193 h -1.984092 c 1.520785,-0.28264 3.609426,-0.54624 6.171008,-0.78401 -0.0052,0.0799 -0.02161,0.15647 -0.04746,0.22861 -1.641545,0.17362 -3.034287,0.35969 -4.139457,0.5554"
       style="fill:#eca932;fill-opacity:1;fill-rule:nonzero;stroke:none;stroke-width:0.0234942"
       id="path752" />
    <path
       d="m 115.15272,158.67677 v -0.14402 c 2.5113,-0.0862 5.15253,-0.15694 7.89972,-0.21028 v 0.13345 c -2.75635,0.0562 -5.39829,0.1304 -7.89972,0.22085"
       style="fill:#eca932;fill-opacity:1;fill-rule:nonzero;stroke:none;stroke-width:0.0234942"
       id="path754" />
    <path
       d="m 96.603045,160.26193 h -1.997249 c 1.105171,-0.19571 2.497912,-0.38178 4.139457,-0.5554 -0.03548,0.0991 -0.08928,0.18959 -0.156941,0.26736 -0.735607,0.093 -1.398145,0.18913 -1.985267,0.28804"
       style="fill:#eca832;fill-opacity:1;fill-rule:nonzero;stroke:none;stroke-width:0.0234942"
       id="path764" />
    <path
       d="m 115.15272,158.82243 v -0.14566 c 2.50143,-0.0905 5.14337,-0.1647 7.89972,-0.22085 v 0.13416 c -2.76528,0.0589 -5.41121,0.1372 -7.89972,0.23235"
       style="fill:#eca832;fill-opacity:1;fill-rule:nonzero;stroke:none;stroke-width:0.0234942"
       id="path766" />
    <path
       d="m 97.955611,160.26193 h -1.352566 c 0.587122,-0.0989 1.24966,-0.195 1.985267,-0.28804 -0.153888,0.17644 -0.380138,0.28804 -0.632701,0.28804"
       style="fill:#eca831;fill-opacity:1;fill-rule:nonzero;stroke:none;stroke-width:0.0234942"
       id="path776" />
    <path
       d="m 115.15272,158.96998 v -0.14755 c 2.48851,-0.0951 5.13444,-0.17339 7.89972,-0.23235 v 0.13438 c -2.7782,0.0623 -5.42437,0.14496 -7.89972,0.24552"
       style="fill:#eca831;fill-opacity:1;fill-rule:nonzero;stroke:none;stroke-width:0.0234942"
       id="path778" />
    <path
       d="m 115.15272,159.11987 v -0.14989 c 2.47535,-0.10056 5.12152,-0.18326 7.89972,-0.24552 v 0.13509 c -2.793,0.066 -5.4401,0.15366 -7.89972,0.26032"
       style="fill:#eca830;fill-opacity:1;fill-rule:nonzero;stroke:none;stroke-width:0.0234942"
       id="path786" />
    <path
       d="m 115.15272,159.27282 v -0.15295 c 2.45962,-0.10666 5.10672,-0.1943 7.89972,-0.26032 v 0.13604 c -2.80992,0.0702 -5.46008,0.16375 -7.89972,0.27723"
       style="fill:#eca72f;fill-opacity:1;fill-rule:nonzero;stroke:none;stroke-width:0.0234942"
       id="path794" />
    <path
       d="m 115.15272,159.42906 c 0,-0.002 0,-0.004 0,-0.006 v -0.15036 c 2.43964,-0.11349 5.0898,-0.20699 7.89972,-0.27724 v 0.13674 c -2.83224,0.0752 -5.48333,0.1755 -7.89972,0.29673"
       style="fill:#eca72f;fill-opacity:1;fill-rule:nonzero;stroke:none;stroke-width:0.0234942"
       id="path802" />
    <path
       d="m 115.16916,159.58905 c -0.0103,-0.0517 -0.016,-0.10525 -0.0164,-0.15999 2.41639,-0.12124 5.06748,-0.22155 7.89972,-0.29673 v 0.13791 c -2.8515,0.0808 -5.50189,0.18866 -7.88327,0.31881"
       style="fill:#eca62e;fill-opacity:1;fill-rule:nonzero;stroke:none;stroke-width:0.0234942"
       id="path810" />
    <path
       d="m 115.21991,159.75257 c -0.0223,-0.0519 -0.0395,-0.10666 -0.0508,-0.16352 2.38139,-0.13015 5.03178,-0.238 7.88328,-0.31881 v 0.13931 c -2.86443,0.0869 -5.50237,0.20323 -7.83253,0.34302"
       style="fill:#eca62d;fill-opacity:1;fill-rule:nonzero;stroke:none;stroke-width:0.0234942"
       id="path818" />
    <path
       d="m 115.31577,159.92032 c -0.0381,-0.0517 -0.0702,-0.10784 -0.0959,-0.16775 2.33016,-0.13979 4.9681,-0.25609 7.83253,-0.34302 v 0.0137 c 0,0.0435 -0.003,0.086 -0.01,0.1278 -2.86419,0.0937 -5.47205,0.21897 -7.72703,0.36933"
       style="fill:#eca62c;fill-opacity:1;fill-rule:nonzero;stroke:none;stroke-width:0.0234942"
       id="path826" />
    <path
       d="m 115.48469,160.0916 c -0.0641,-0.0489 -0.12099,-0.10643 -0.16892,-0.17128 2.25498,-0.15036 4.86285,-0.27558 7.72703,-0.36933 -0.008,0.0495 -0.0195,0.0977 -0.0355,0.14425 -2.83528,0.10103 -5.37925,0.23566 -7.52263,0.39636"
       style="fill:#eca62b;fill-opacity:1;fill-rule:nonzero;stroke:none;stroke-width:0.0234942"
       id="path834" />
    <path
       d="m 115.88339,160.25511 c -0.14848,-0.0192 -0.28498,-0.0773 -0.3987,-0.16351 2.14338,-0.1607 4.68735,-0.29533 7.52263,-0.39636 -0.0178,0.0519 -0.0406,0.1015 -0.0677,0.14826 -2.70325,0.10642 -5.0945,0.24622 -7.05627,0.41161"
       style="fill:#eba52c;fill-opacity:1;fill-rule:nonzero;stroke:none;stroke-width:0.0234942"
       id="path842" />
    <path
       d="m 118.2542,160.26193 h -2.26274 c -0.0366,0 -0.0726,-0.003 -0.10807,-0.007 1.96177,-0.16539 4.35302,-0.30518 7.05627,-0.41161 -0.0324,0.0559 -0.0712,0.1076 -0.11512,0.15435 -1.68243,0.0745 -3.21825,0.16329 -4.57034,0.26408"
       style="fill:#eba52c;fill-opacity:1;fill-rule:nonzero;stroke:none;stroke-width:0.0234942"
       id="path850" />
    <path
       d="m 120.88462,160.26193 h -2.63042 c 1.35209,-0.10079 2.88791,-0.1896 4.57034,-0.26408 -0.0627,0.0665 -0.13579,0.12264 -0.21708,0.16611 -0.59911,0.0306 -1.17355,0.0632 -1.72284,0.098"
       style="fill:#eba52a;fill-opacity:1;fill-rule:nonzero;stroke:none;stroke-width:0.0234942"
       id="path856" />
    <path
       d="m 122.21346,160.26193 h -1.32884 c 0.54929,-0.0348 1.12373,-0.0674 1.72284,-0.098 -0.11748,0.0625 -0.25163,0.098 -0.394,0.098"
       style="fill:#eba42a;fill-opacity:1;fill-rule:nonzero;stroke:none;stroke-width:0.0234942"
       id="path862" />
  </g>
</svg>
