<?xml version="1.0" encoding="UTF-8" standalone="no"?>
<svg
   xmlns:dc="http://purl.org/dc/elements/1.1/"
   xmlns:cc="http://creativecommons.org/ns#"
   xmlns:rdf="http://www.w3.org/1999/02/22-rdf-syntax-ns#"
   xmlns:svg="http://www.w3.org/2000/svg"
   xmlns="http://www.w3.org/2000/svg"
   xmlns:sodipodi="http://sodipodi.sourceforge.net/DTD/sodipodi-0.dtd"
   xmlns:inkscape="http://www.inkscape.org/namespaces/inkscape"
   width="233.66614"
   height="228.50476"
   viewBox="0 0 61.824165 60.458549"
   version="1.1"
   id="svg1034"
   inkscape:version="1.0.1 (3bc2e813f5, 2020-09-07)"
   sodipodi:docname="certificate-flask.svg"
   inkscape:export-filename="C:\Users\keega\Documents\cannlytics\assets\images\illustrations\multi-tone\certificate-flask.png"
   inkscape:export-xdpi="96"
   inkscape:export-ydpi="96">
  <defs
     id="defs1028">
    <clipPath
       clipPathUnits="userSpaceOnUse"
       id="clipPath1824">
      <path
         d="m 466.283,741.164 h 63.482 v -19.581 h -63.482 z"
         id="path1822"
         inkscape:connector-curvature="0" />
    </clipPath>
    <filter
       inkscape:collect="always"
       style="color-interpolation-filters:sRGB"
       id="filter3044"
       x="-0.00015006585"
       width="1.0003001"
       y="-0.00017316235"
       height="1.0003463">
      <feGaussianBlur
         inkscape:collect="always"
         stdDeviation="0.0033087655"
         id="feGaussianBlur3046" />
    </filter>
  </defs>
  <sodipodi:namedview
     id="base"
     pagecolor="#323443"
     bordercolor="#666666"
     borderopacity="1.0"
     inkscape:pageopacity="0"
     inkscape:pageshadow="2"
     inkscape:zoom="1.4"
     inkscape:cx="108.88343"
     inkscape:cy="93.280954"
     inkscape:document-units="mm"
     inkscape:current-layer="layer1"
     inkscape:document-rotation="0"
     showgrid="false"
     inkscape:window-width="1624"
     inkscape:window-height="997"
     inkscape:window-x="230"
     inkscape:window-y="94"
     inkscape:window-maximized="0"
     units="px" />
  <metadata
     id="metadata1031">
    <rdf:RDF>
      <cc:Work
         rdf:about="">
        <dc:format>image/svg+xml</dc:format>
        <dc:type
           rdf:resource="http://purl.org/dc/dcmitype/StillImage" />
        <dc:title></dc:title>
      </cc:Work>
    </rdf:RDF>
  </metadata>
  <g
     inkscape:label="Layer 1"
     inkscape:groupmode="layer"
     id="layer1"
     transform="translate(-75.677204,-103.57435)"
     style="filter:url(#filter3044)">
    <path
       fill="#d4ebdf"
       d="M 98.55331,123.30527 H 84.95723 a 4.8795034,4.8795034 0 0 0 0,9.75843 h 13.59608 a 4.8795034,4.8795034 0 0 0 0,-9.75843 z m 24.10744,1.21706 h 5.17371 a 4.8795034,4.8795034 0 1 0 0,-9.7584 h -5.17371 a 4.8795034,4.8795034 0 0 0 0,9.7584 z m 5.45313,17.09159 h -6.91761 a 4.8795034,4.8795034 0 1 0 0,9.7584 h 6.91761 a 4.8795034,4.8795034 0 1 0 0,-9.7584 z"
       id="path2"
       style="stroke-width:0.591956" />
    <path
       fill="#66c190"
       d="m 113.32856,116.82747 h -23.0449 a 2.2908745,2.2908745 0 0 0 -2.29088,2.2903 v 30.74627 a 2.2908745,2.2908745 0 0 0 2.29088,2.29085 h 23.0449 a 2.2908745,2.2908745 0 0 0 2.29088,-2.29085 v -30.74627 a 2.2908745,2.2908745 0 0 0 -2.29088,-2.29088 z"
       id="path4"
       style="stroke-width:0.591956" />
    <path
       fill="#ffffff"
       d="m 90.36121,148.63217 v -27.28034 c 0,-0.63816 0.51677,-1.15493 1.15432,-1.15493 h 20.58058 c 0.63813,0 1.1549,0.51677 1.1549,1.15432 v 27.28095 a 1.1549085,1.1549085 0 0 1 -1.15432,1.15548 H 91.51553 a 1.1549085,1.1549085 0 0 1 -1.1549,-1.15548 z"
       id="path6"
       style="stroke-width:0.591956" />
    <path
       fill="#ffffff"
       d="m 125.49031,143.98944 c 0,4.70488 -3.81575,8.51649 -8.51588,8.51649 -4.70549,0 -8.51709,-3.81221 -8.51709,-8.51649 0,-3.65001 2.2968,-6.76843 5.53065,-7.97662 v -6.58078 h 5.97286 v 6.58078 c 3.22854,1.20817 5.53007,4.32661 5.53007,7.97662 z"
       id="path8"
       style="stroke-width:0.591956" />
    <path
       fill="#66c190"
       d="m 110.24032,144.12619 c 0.0741,3.65296 3.06338,6.60387 6.73411,6.60387 3.67072,0 6.65951,-2.95091 6.7335,-6.60387 h -13.46642 z"
       id="path10"
       style="stroke-width:0.591956" />
    <path
       fill="#ffffff"
       d="m 112.41517,126.09458 h 9.11556 v 3.33804 h -9.11556 z"
       id="path12"
       style="stroke-width:0.591956" />
    <path
       fill="#010101"
       d="m 120.40303,135.70854 v -5.83076 h 1.12472 c 0.24863,0 0.44397,-0.20136 0.44397,-0.44398 v -3.33864 c 0,-0.2427 -0.19531,-0.44397 -0.44397,-0.44397 h -5.31578 v -6.53521 c 0,-1.58643 -1.29637,-2.88283 -2.88283,-2.88283 h -2.5975 v -1.13181 a 0.44396792,0.44396792 0 0 0 -0.88793,0 v 1.13181 h -2.50459 v -1.13181 a 0.44396792,0.44396792 0 0 0 -0.88792,0 v 1.13181 h -2.50517 v -1.13181 a 0.44396792,0.44396792 0 0 0 -0.88793,0 v 1.13181 h -2.50398 v -1.13181 a 0.44396792,0.44396792 0 0 0 -0.88793,0 v 1.13181 h -2.50517 v -1.13181 a 0.44397352,0.44397352 0 0 0 -0.88794,0 v 1.13181 h -2.50396 v -1.13181 a 0.443975,0.443975 0 0 0 -0.88795,0 v 1.13181 h -2.59692 c -1.59237,0 -2.88283,1.2964 -2.88283,2.88283 v 30.74627 a 2.8828316,2.8828316 0 0 0 2.88283,2.88283 h 23.04489 c 0.35518,0 0.69852,-0.0651 1.01225,-0.18951 0.83466,0.26045 1.71668,0.39661 2.63422,0.39661 4.93692,0 8.9563,-4.01938 8.9563,-8.96222 0,-3.61688 -2.20798,-6.90224 -5.52888,-8.28151 z m 0.68075,-6.71871 h -8.22228 v -2.45069 h 8.22228 z m -30.79953,22.57135 a 1.6989173,1.6989173 0 0 1 -1.69891,-1.69893 v -30.74627 c 0,-0.93529 0.76362,-1.6989 1.69891,-1.6989 h 2.59634 v 1.13655 a 0.44396792,0.44396792 0 0 0 0.88792,0 v -1.13655 h 2.50457 v 1.13655 a 0.44397352,0.44397352 0 0 0 0.88794,0 v -1.13655 h 2.50517 v 1.13655 a 0.44396792,0.44396792 0 0 0 0.88793,0 v -1.13655 h 2.50398 v 1.13655 a 0.44396792,0.44396792 0 0 0 0.88793,0 v -1.13655 h 2.50517 v 1.13655 a 0.44396792,0.44396792 0 0 0 0.88792,0 v -1.13655 h 2.50399 v 1.13655 a 0.443975,0.443975 0 0 0 0.88795,0 v -1.13655 h 2.59869 c 0.93528,0 1.6989,0.76361 1.6989,1.6989 v 6.53521 h -2.61052 c -0.24864,0 -0.44398,0.20136 -0.44398,0.44397 v 3.33864 c 0,0.24271 0.19532,0.44398 0.44398,0.44398 h 1.12472 v 5.83076 c -3.32087,1.37926 -5.52888,4.66463 -5.52888,8.2815 0,3.18472 1.6693,5.98468 4.17922,7.57114 H 90.28485 Z m 26.69136,0.50315 c -4.45152,0 -8.0743,-3.62278 -8.0743,-8.07429 0,-3.35049 2.10737,-6.38723 5.23882,-7.55929 0.17764,-0.0651 0.29006,-0.23087 0.29006,-0.4203 v -6.13267 h 5.08491 v 6.13267 c 0,0.1895 0.11836,0.35517 0.29005,0.4203 3.13739,1.17206 5.23884,4.2088 5.23884,7.55929 0,4.45151 -3.61687,8.07429 -8.06838,8.07429 z"
       id="path14"
       style="stroke-width:0.591956" />
    <circle
       cx="113.76541"
       cy="146.10983"
       r="0.70679694"
       fill="#ffffff"
       id="circle16"
       style="stroke-width:0.591956" />
    <circle
       cx="118.10448"
       cy="147.99579"
       r="0.3960194"
       fill="#ffffff"
       id="circle18"
       style="stroke-width:0.591956" />
    <circle
       cx="120.5096"
       cy="145.32372"
       r="0.3960194"
       fill="#ffffff"
       id="circle20"
       style="stroke-width:0.591956" />
    <circle
       cx="115.54129"
       cy="141.24037"
       r="0.677791"
       fill="#66c190"
       id="circle22"
       style="stroke-width:0.591956" />
    <circle
       cx="117.82271"
       cy="136.22475"
       r="0.677791"
       fill="#66c190"
       id="circle24"
       style="stroke-width:0.591956" />
    <path
       fill="#66c190"
       d="M 109.64777,124.31397 H 93.96446 a 0.443975,0.443975 0 0 1 0,-0.88795 h 15.68331 a 0.443975,0.443975 0 0 1 0,0.88795 z m 0,4.44855 H 93.96446 a 0.44396792,0.44396792 0 0 1 0,-0.88793 h 15.68331 a 0.44396792,0.44396792 0 0 1 0,0.88793 z m 0,4.44915 H 93.96446 a 0.44396792,0.44396792 0 0 1 0,-0.88792 h 15.68331 a 0.44396792,0.44396792 0 0 1 0,0.88792 z m 0,4.44858 H 93.96446 a 0.443975,0.443975 0 0 1 0,-0.88795 h 15.68331 a 0.443975,0.443975 0 0 1 0,0.88795 z m -4.32069,4.44855 H 93.96446 a 0.443975,0.443975 0 0 1 0,-0.88795 h 11.36262 a 0.443975,0.443975 0 0 1 0,0.88795 z m 0,4.44915 H 93.96446 a 0.443975,0.443975 0 0 1 0,-0.88795 h 11.36262 a 0.443975,0.443975 0 0 1 0,0.88795 z"
       id="path26"
       style="stroke-width:0.591956" />
    <circle
       cx="83.177803"
       cy="141.66541"
       r="1.6296582"
       fill="#f6e2ee"
       id="circle28"
       style="stroke-width:0.591956" />
    <circle
       cx="130.27629"
       cy="134.99229"
       r="0.7991423"
       fill="#84b0de"
       id="circle30"
       style="stroke-width:0.591956" />
    <circle
       cx="118.49989"
       cy="111.67331"
       r="0.7991423"
       fill="#f3765d"
       id="circle32"
       style="stroke-width:0.591956" />
    <circle
       cx="85.606621"
       cy="116.02832"
       r="0.7991423"
       fill="#5dcae7"
       id="circle34"
       style="stroke-width:0.591956" />
    <circle
       cx="97.570053"
       cy="155.93394"
       r="0.7991423"
       fill="#fdbe5c"
       id="circle36"
       style="stroke-width:0.591956" />
  </g>
</svg>
