<?xml version="1.0" encoding="UTF-8" standalone="no"?>
<svg
   xmlns:dc="http://purl.org/dc/elements/1.1/"
   xmlns:cc="http://creativecommons.org/ns#"
   xmlns:rdf="http://www.w3.org/1999/02/22-rdf-syntax-ns#"
   xmlns:svg="http://www.w3.org/2000/svg"
   xmlns="http://www.w3.org/2000/svg"
   xmlns:sodipodi="http://sodipodi.sourceforge.net/DTD/sodipodi-0.dtd"
   xmlns:inkscape="http://www.inkscape.org/namespaces/inkscape"
   width="250"
   height="250"
   viewBox="0 0 66.145833 66.145831"
   version="1.1"
   id="svg1034"
   inkscape:version="1.0.1 (3bc2e813f5, 2020-09-07)"
   sodipodi:docname="instrument.svg"
   inkscape:export-filename="C:\Users\keega\Documents\cannlytics\assets\images\illustrations\multi-tone\instrument.png"
   inkscape:export-xdpi="96"
   inkscape:export-ydpi="96">
  <defs
     id="defs1028">
    <clipPath
       clipPathUnits="userSpaceOnUse"
       id="clipPath1824">
      <path
         d="m 466.283,741.164 h 63.482 v -19.581 h -63.482 z"
         id="path1822"
         inkscape:connector-curvature="0" />
    </clipPath>
    <filter
       inkscape:collect="always"
       style="color-interpolation-filters:sRGB"
       id="filter3124"
       x="-0.00024129885"
       width="1.0004826"
       y="-0.00024209845"
       height="1.0004842">
      <feGaussianBlur
         inkscape:collect="always"
         stdDeviation="0.0053203049"
         id="feGaussianBlur3126" />
    </filter>
  </defs>
  <sodipodi:namedview
     id="base"
     pagecolor="#323443"
     bordercolor="#666666"
     borderopacity="1.0"
     inkscape:pageopacity="0"
     inkscape:pageshadow="2"
     inkscape:zoom="1.979899"
     inkscape:cx="221.33334"
     inkscape:cy="127.05044"
     inkscape:document-units="mm"
     inkscape:current-layer="layer1"
     inkscape:document-rotation="0"
     showgrid="false"
     inkscape:window-width="1920"
     inkscape:window-height="1120"
     inkscape:window-x="-11"
     inkscape:window-y="-11"
     inkscape:window-maximized="1"
     units="px" />
  <metadata
     id="metadata1031">
    <rdf:RDF>
      <cc:Work
         rdf:about="">
        <dc:format>image/svg+xml</dc:format>
        <dc:type
           rdf:resource="http://purl.org/dc/dcmitype/StillImage" />
        <dc:title></dc:title>
      </cc:Work>
    </rdf:RDF>
  </metadata>
  <g
     inkscape:label="Layer 1"
     inkscape:groupmode="layer"
     id="layer1"
     transform="translate(-75.677204,-103.57435)"
     style="filter:url(#filter3124)">
    <circle
       cx="87.054283"
       cy="151.19936"
       r="0.52916664"
       fill="#2d4356"
       id="circle2"
       style="fill:#66c190;fill-opacity:1;stroke-width:0.264583" />
    <path
       fill="#2d4356"
       d="m 89.435538,150.67018 h -0.79375 a 0.52916667,0.52916667 0 0 0 0,1.05833 h 0.79375 a 0.52916667,0.52916667 0 0 0 0,-1.05833 z m 39.422912,0 h -0.79375 a 0.52916667,0.52916667 0 0 0 0,1.05833 h 0.79375 a 0.52916667,0.52916667 0 0 0 0,-1.05833 z"
       id="path4"
       style="fill:#66c190;fill-opacity:1;stroke-width:0.264583" />
    <circle
       cx="130.44595"
       cy="151.19936"
       r="0.52916664"
       fill="#2d4356"
       id="circle6"
       style="fill:#66c190;fill-opacity:1;stroke-width:0.264583" />
    <path
       fill="#0bceb2"
       d="m 117.78669,152.78685 h -2.19816 a 0.53075417,0.53075417 0 0 0 0,1.05833 h 2.19816 a 0.53075417,0.53075417 0 0 0 0,-1.05833 z m -15.87499,0 h -2.198158 a 0.53075417,0.53075417 0 0 0 0,1.05833 h 2.198158 a 0.53075417,0.53075417 0 0 0 0,-1.05833 z m 12.13008,0 h -10.58333 a 0.52916667,0.52916667 0 0 0 0,1.05833 h 4.21745 v 0.52917 h -2.10078 a 0.52916667,0.52916667 0 0 0 0,1.05833 h 6.61458 a 0.52916667,0.52916667 0 0 0 0,-1.05833 h -2.36538 v -0.52917 h 4.21746 a 0.52916667,0.52916667 0 0 0 0,-1.05833 z"
       id="path8"
       style="stroke-width:0.264583" />
    <path
       fill="#2d4356"
       d="m 119.59803,145.64468 a 3.175,3.175 0 1 0 -3.175,-3.175 3.1787042,3.1787042 0 0 0 3.175,3.175 z m 0,-5.29193 a 2.1166667,2.1166667 0 1 1 -2.11667,2.11667 2.1193125,2.1193125 0 0 1 2.11667,-2.11667 z"
       id="path10"
       style="fill:#66c190;fill-opacity:1;stroke-width:0.264583" />
    <path
       fill="#0bceb2"
       d="m 119.46574,142.99885 h 0.26458 a 0.52916667,0.52916667 0 0 0 0,-1.05833 h -0.26458 a 0.52916667,0.52916667 0 0 0 0,1.05833 z"
       id="path12"
       style="stroke-width:0.264583" />
    <path
       fill="#2d4356"
       d="m 94.727204,142.46942 a 3.175,3.175 0 1 0 3.175,-3.175 3.1787042,3.1787042 0 0 0 -3.175,3.175 z m 3.175,-2.11667 a 2.1166667,2.1166667 0 1 1 -2.116666,2.11667 2.1193125,2.1193125 0 0 1 2.116666,-2.11667 z"
       id="path14"
       style="fill:#66c190;fill-opacity:1;stroke-width:0.264583" />
    <path
       fill="#0bceb2"
       d="m 97.769913,142.99885 h 0.264583 a 0.52916667,0.52916667 0 0 0 0,-1.05833 h -0.264583 a 0.52916667,0.52916667 0 0 0 0,1.05833 z"
       id="path16"
       style="stroke-width:0.264583" />
    <path
       fill="#2d4356"
       d="m 92.875121,122.62461 h 8.731249 v -1.05833 h -8.731249 v -1.05834 h 8.731249 v -1.05833 h -8.731249 a 1.0596562,1.0596562 0 0 0 -1.058333,1.05833 v 1.05834 a 1.0596562,1.0596562 0 0 0 1.058333,1.05833 z m 32.808329,-1.05833 v -1.05834 a 1.0596562,1.0596562 0 0 0 -1.05834,-1.05833 h -8.73125 v 1.05833 h 8.73125 l 5.3e-4,1.05834 h -8.73178 v 1.05833 h 8.73125 a 1.0596562,1.0596562 0 0 0 1.05834,-1.05833 z m -21.43125,2.64583 h 8.99583 a 1.5893521,1.5893521 0 0 0 1.5875,-1.5875 v -3.175 a 1.5893521,1.5893521 0 0 0 -1.5875,-1.58776 h -8.99583 a 1.5893521,1.5893521 0 0 0 -1.5875,1.5875 v 3.175 a 1.5893521,1.5893521 0 0 0 1.5875,1.58776 z m -0.52917,-4.7625 a 0.52969583,0.52969583 0 0 1 0.52917,-0.52943 h 8.99583 a 0.52969583,0.52969583 0 0 1 0.52917,0.52917 v 3.175 a 0.52969583,0.52969583 0 0 1 -0.52917,0.52943 h -8.99583 a 0.52969583,0.52969583 0 0 1 -0.52917,-0.52917 z m 9.78958,11.11303 v -1.5875 a 1.5893521,1.5893521 0 0 0 -1.5875,-1.58777 h -1.5875 v -2.11666 h -1.05833 v 2.11666 h -1.05833 v -2.11666 h -1.05834 v 2.11666 h -1.58749 a 1.5893521,1.5893521 0 0 0 -1.5875,1.5875 v 1.5875 h 1.05833 v -1.5875 a 0.52969583,0.52969583 0 0 1 0.52917,-0.52916 h 6.34999 a 0.52969583,0.52969583 0 0 1 0.52917,0.52916 v 1.5875 z"
       id="path18"
       style="fill:#66c190;fill-opacity:1;stroke-width:0.264583" />
    <circle
       cx="108.75012"
       cy="121.03684"
       r="0.52916664"
       fill="#0bceb2"
       id="circle20"
       style="stroke-width:0.264583" />
    <circle
       cx="108.75012"
       cy="130.03348"
       r="0.52916664"
       fill="#0bceb2"
       id="circle22"
       style="stroke-width:0.264583" />
    <path
       fill="#0bceb2"
       d="m 101.0772,132.67931 v 2.64583 a 1.5893521,1.5893521 0 0 0 1.5875,1.58776 h 1.12183 a 2.5299458,2.5299458 0 0 1 0.47281,-1.05833 h -1.59464 a 0.52969583,0.52969583 0 0 1 -0.52916,-0.52917 l -5.3e-4,-2.64583 h 13.22969 v 2.64583 a 0.52969583,0.52969583 0 0 1 -0.52917,0.52917 h -1.59517 a 2.5373542,2.5373542 0 0 1 0.47228,1.05833 h 1.12289 a 1.5893521,1.5893521 0 0 0 1.5875,-1.5875 v -2.64583 a 1.0596562,1.0596562 0 0 0 -1.05833,-1.0586 h -13.22916 a 1.0596562,1.0596562 0 0 0 -1.05834,1.05834 z"
       id="path24"
       style="stroke-width:0.264583" />
    <path
       fill="#2d4356"
       d="m 113.51261,139.76458 v -0.41116 a 1.4710833,1.4710833 0 0 0 -0.93398,-1.38033 1.4713479,1.4713479 0 0 0 -0.31485,-1.63592 l -0.29078,-0.29104 a 1.5033625,1.5033625 0 0 0 -1.0533,-0.44133 1.4126104,1.4126104 0 0 0 -0.58367,0.12436 1.4713479,1.4713479 0 0 0 -1.38034,-0.93292 h -0.41089 a 1.4713479,1.4713479 0 0 0 -1.38034,0.93292 1.4118167,1.4118167 0 0 0 -0.5834,-0.12436 1.5033625,1.5033625 0 0 0 -1.05198,0.43974 l -0.29263,0.2929 a 1.4692312,1.4692312 0 0 0 -0.31512,1.63565 1.4710833,1.4710833 0 0 0 -0.93371,1.38007 v 0.41116 a 1.4710833,1.4710833 0 0 0 0.93397,1.38086 1.4710833,1.4710833 0 0 0 0.31592,1.63671 l 0.28998,0.29025 a 1.5054792,1.5054792 0 0 0 1.05357,0.44106 1.4141979,1.4141979 0 0 0 0.5834,-0.12435 1.4716125,1.4716125 0 0 0 1.38034,0.93292 h 0.41089 a 1.4716125,1.4716125 0 0 0 1.38034,-0.93319 1.4115521,1.4115521 0 0 0 0.5834,0.12436 1.5028333,1.5028333 0 0 0 1.05225,-0.43974 l 0.29184,-0.29157 a 1.4737292,1.4737292 0 0 0 0.31511,-1.63672 1.4713479,1.4713479 0 0 0 0.93398,-1.38033 z m -1.05833,0 a 0.39105417,0.39105417 0 0 1 -0.36618,0.41169 h -0.52388 a 2.8805187,2.8805187 0 0 1 -0.38788,0.93584 l 0.37095,0.37094 a 0.39158333,0.39158333 0 0 1 -0.032,0.55007 l -0.29104,0.29104 a 0.43550417,0.43550417 0 0 1 -0.3048,0.13044 0.34316458,0.34316458 0 0 1 -0.245,-0.0979 l -0.37121,-0.37201 a 2.8601458,2.8601458 0 0 1 -0.93531,0.38815 v 0.52466 a 0.39105417,0.39105417 0 0 1 -0.41222,0.36592 h -0.41089 a 0.39105417,0.39105417 0 0 1 -0.41223,-0.36592 v -0.52466 a 2.8596167,2.8596167 0 0 1 -0.9353,-0.38815 l -0.37068,0.37201 a 0.34395833,0.34395833 0 0 1 -0.24553,0.0979 0.43629792,0.43629792 0 0 1 -0.30506,-0.1307 l -0.29052,-0.29078 a 0.39105417,0.39105417 0 0 1 -0.0328,-0.55033 l 0.37148,-0.37068 a 2.8717875,2.8717875 0 0 1 -0.38761,-0.93584 h -0.52494 a 0.39078958,0.39078958 0 0 1 -0.36565,-0.41142 v -0.41116 a 0.39026042,0.39026042 0 0 1 0.36565,-0.41196 h 0.52494 a 2.8635854,2.8635854 0 0 1 0.38761,-0.9353 l -0.37148,-0.37121 a 0.39078958,0.39078958 0 0 1 0.0328,-0.54981 l 0.29052,-0.29104 a 0.43576875,0.43576875 0 0 1 0.30506,-0.13097 0.34316458,0.34316458 0 0 1 0.24553,0.0987 l 0.37068,0.37095 a 2.8643792,2.8643792 0 0 1 0.9353,-0.38762 v -0.52467 a 0.39078958,0.39078958 0 0 1 0.41223,-0.36591 h 0.41089 a 0.39078958,0.39078958 0 0 1 0.41222,0.36591 v 0.52467 a 2.8649083,2.8649083 0 0 1 0.93531,0.38762 l 0.37094,-0.37095 a 0.34237083,0.34237083 0 0 1 0.24554,-0.0987 0.43523958,0.43523958 0 0 1 0.3048,0.13097 l 0.29077,0.29104 a 0.39105417,0.39105417 0 0 1 0.0318,0.54981 l -0.37041,0.37121 a 2.8723167,2.8723167 0 0 1 0.38735,0.9353 h 0.52414 a 0.390525,0.390525 0 0 1 0.36618,0.41143 z"
       id="path26"
       style="fill:#66c190;fill-opacity:1;stroke-width:0.264583" />
    <path
       fill="#0bceb2"
       d="m 108.75011,137.70665 a 1.8520833,1.8520833 0 1 0 1.85209,1.85209 1.8542,1.8542 0 0 0 -1.85209,-1.85209 z m 0,2.6461 a 0.79375,0.79375 0 1 1 0.79375,-0.79375 0.79454375,0.79454375 0 0 1 -0.79375,0.79375 z"
       id="path28"
       style="stroke-width:0.264583" />
    <path
       fill="#2d4356"
       d="m 103.47168,137.97124 h -0.80698 c -0.20711,-7.3e-4 -0.41341,-0.0259 -0.61463,-0.0749 l -1.37847,1.37848 c 0.26821,0.23213 0.50641,0.49682 0.70908,0.78793 z m -4.286247,0.46487 1.434037,-1.43431 c -0.23731,-0.29012 -0.41012,-0.62745 -0.50694,-0.98954 l -2.224349,2.22435 c 0.0048,0 0.0093,-7.9e-4 0.01402,-7.9e-4 0.435522,6e-5 0.868403,0.0676 1.283229,0.20029 z m 20.412597,-0.20055 c 0.005,0 0.009,7.9e-4 0.014,7.9e-4 l -2.22435,-2.22435 c -0.0968,0.36209 -0.26963,0.69942 -0.50694,0.98954 l 1.43404,1.43404 c 0.41484,-0.13257 0.84772,-0.20004 1.28323,-0.20002 z m -4.14787,-0.33946 c -0.20122,0.049 -0.40752,0.0742 -0.61463,0.0749 h -0.80698 l 2.09127,2.09153 c 0.20261,-0.291 0.44072,-0.5556 0.70882,-0.78766 z m 10.95322,12.77381 h -11.4935 l 4.48654,-3.97721 c -0.4427,-0.0204 -0.87937,-0.1108 -1.29381,-0.26776 l -2.75167,2.43919 1.63036,-3.07366 c -0.29199,-0.23111 -0.55243,-0.49948 -0.7747,-0.79825 l -3.01122,5.67769 h -8.89053 l -3.01122,-5.67769 c -0.22226,0.29877 -0.48271,0.56714 -0.7747,0.79825 l 1.63036,3.07366 -2.751661,-2.43919 c -0.414442,0.15696 -0.851115,0.24733 -1.293812,0.26776 l 4.486803,3.97721 H 91.096856 c -0.599963,-0.0784 -0.599963,1.1367 0,1.05834 h 35.306254 c 0.59996,0.0784 0.59996,-1.1367 0,-1.05834 z"
       id="path30"
       style="fill:#66c190;fill-opacity:1;stroke-width:0.264583"
       sodipodi:nodetypes="cccccccccccscsccccsscccccccccccccccccccccccccc" />
  </g>
</svg>
