<?xml version="1.0" encoding="UTF-8" standalone="no"?>
<svg
   xmlns:dc="http://purl.org/dc/elements/1.1/"
   xmlns:cc="http://creativecommons.org/ns#"
   xmlns:rdf="http://www.w3.org/1999/02/22-rdf-syntax-ns#"
   xmlns:svg="http://www.w3.org/2000/svg"
   xmlns="http://www.w3.org/2000/svg"
   xmlns:sodipodi="http://sodipodi.sourceforge.net/DTD/sodipodi-0.dtd"
   xmlns:inkscape="http://www.inkscape.org/namespaces/inkscape"
   version="1.1"
   id="svg2"
   xml:space="preserve"
   width="1370"
   height="1020"
   viewBox="0 0 1370 1020"
   sodipodi:docname="office_reception.svg"
   inkscape:version="1.0.1 (3bc2e813f5, 2020-09-07)"><metadata
     id="metadata8"><rdf:RDF><cc:Work
         rdf:about=""><dc:format>image/svg+xml</dc:format><dc:type
           rdf:resource="http://purl.org/dc/dcmitype/StillImage" /><dc:title></dc:title></cc:Work></rdf:RDF></metadata><defs
     id="defs6"><clipPath
       clipPathUnits="userSpaceOnUse"
       id="clipPath374"><path
         d="M 9468.12,4018.22 H 8165.28 c -19.35,0 -39.21,15.34 -44.09,34.08 l -35.06,134.34 c -4.88,18.74 6.96,34.07 26.33,34.07 h 820.18 c 19.37,0 34.52,15.84 33.66,35.18 l -14.47,325.8 c -0.86,19.34 -13.97,45.03 -29.15,57.08 0,0 -38.92,30.92 -166.35,30.92 -127.4,0 -161.55,-15.44 -161.55,-15.44 -17.63,-7.97 -36.4,-29.75 -41.69,-48.38 l -50.87,-179.61 c -5.3,-18.64 -25.46,-33.88 -44.83,-33.88 h -138.24 -36.31 -117.56 c -19.35,0 -35.21,15.85 -35.21,35.22 v 488.59 0 -16.05 c 38.07,7.39 258.35,47.32 581.66,47.32 356.39,0 791.61,-68.45 791.61,-68.45 0,-17.02 0,-44.76 0,-81.68 v 0 c 0,-88.95 0,-231.13 0,-404.95 v 0 c 0,-10.15 0,-20.44 0,-30.8 0,-189.3 0,-308.14 0,-308.14 0,-19.37 -15.85,-35.22 -35.22,-35.22 m -211.21,488.45 c -71.27,0 -129.05,-57.79 -129.05,-129.06 0,-71.31 57.78,-129.09 129.05,-129.09 71.3,0 129.06,57.78 129.06,129.09 0,71.27 -57.76,129.06 -129.06,129.06 m -1055.5,326.43 v -287.21 h 159.57 v 18.16 269.05 h -159.57 m 1055.5,-46.34 c -60.03,0 -108.71,-48.68 -108.71,-108.72 0,-60.04 48.68,-108.71 108.71,-108.71 60.06,0 108.71,48.67 108.71,108.71 0,60.04 -48.65,108.72 -108.71,108.72 m -764.43,32.07 c -20.78,0 -37.64,-16.84 -37.64,-37.64 0,-20.79 16.86,-37.63 37.64,-37.63 20.78,0 37.63,16.84 37.63,37.63 0,20.8 -16.85,37.64 -37.63,37.64 m -167.82,-236.62 h -86.93 v 214.58 h 86.93 v -214.58"
         id="path372" /></clipPath><linearGradient
       x1="0"
       y1="0"
       x2="1"
       y2="0"
       gradientUnits="userSpaceOnUse"
       gradientTransform="matrix(-7.06e-5,1614.02,1614.02,7.06e-5,8794.18,3764.38)"
       spreadMethod="pad"
       id="linearGradient382"><stop
         style="stop-opacity:1;stop-color:#aeaead"
         offset="0"
         id="stop376" /><stop
         style="stop-opacity:1;stop-color:#cdccc9"
         offset="0.767256"
         id="stop378" /><stop
         style="stop-opacity:1;stop-color:#cdccc9"
         offset="1"
         id="stop380" /></linearGradient><clipPath
       clipPathUnits="userSpaceOnUse"
       id="clipPath392"><path
         d="m 9256.91,4569.33 c -60.03,0 -108.71,48.67 -108.71,108.71 0,60.04 48.68,108.72 108.71,108.72 60.06,0 108.71,-48.68 108.71,-108.72 0,-60.04 -48.65,-108.71 -108.71,-108.71"
         id="path390" /></clipPath><linearGradient
       x1="0"
       y1="0"
       x2="1"
       y2="0"
       gradientUnits="userSpaceOnUse"
       gradientTransform="matrix(-7.06e-5,1614.02,1614.02,7.06e-5,8794.18,3764.38)"
       spreadMethod="pad"
       id="linearGradient400"><stop
         style="stop-opacity:1;stop-color:#919291"
         offset="0"
         id="stop394" /><stop
         style="stop-opacity:1;stop-color:#ababaa"
         offset="0.767256"
         id="stop396" /><stop
         style="stop-opacity:1;stop-color:#ababaa"
         offset="1"
         id="stop398" /></linearGradient><clipPath
       clipPathUnits="userSpaceOnUse"
       id="clipPath410"><path
         d="m 9256.91,4248.52 c -71.27,0 -129.05,57.78 -129.05,129.09 0,71.27 57.78,129.06 129.05,129.06 71.3,0 129.06,-57.79 129.06,-129.06 0,-71.31 -57.76,-129.09 -129.06,-129.09"
         id="path408" /></clipPath><linearGradient
       x1="0"
       y1="0"
       x2="1"
       y2="0"
       gradientUnits="userSpaceOnUse"
       gradientTransform="matrix(-7.06e-5,1614.02,1614.02,7.06e-5,8794.18,3764.38)"
       spreadMethod="pad"
       id="linearGradient418"><stop
         style="stop-opacity:1;stop-color:#919291"
         offset="0"
         id="stop412" /><stop
         style="stop-opacity:1;stop-color:#ababaa"
         offset="0.767256"
         id="stop414" /><stop
         style="stop-opacity:1;stop-color:#ababaa"
         offset="1"
         id="stop416" /></linearGradient><clipPath
       clipPathUnits="userSpaceOnUse"
       id="clipPath438"><path
         d="m 9503.34,4879.01 c 0,0 -435.22,68.45 -791.61,68.45 -323.31,0 -543.59,-39.93 -581.66,-47.32 v 16.05 c 0,19.36 15.5,38.48 34.47,42.45 0,0 28.73,6.03 81.43,13.71 13.19,1.92 27.9,3.95 44.02,6 96.49,12.33 244.08,25.88 426.64,25.88 172.78,0 367.41,-17.3 515.36,-34.05 7.84,-0.89 15.54,-1.77 23.11,-2.65 126.42,-14.73 213.44,-28.29 213.44,-28.29 19.13,-2.99 34.8,-21.28 34.8,-40.65 0,0 0,-6.75 0,-19.58"
         id="path436" /></clipPath><linearGradient
       x1="0"
       y1="0"
       x2="1"
       y2="0"
       gradientUnits="userSpaceOnUse"
       gradientTransform="matrix(-7.06e-5,1614.02,1614.02,7.06e-5,8794.18,3764.38)"
       spreadMethod="pad"
       id="linearGradient446"><stop
         style="stop-opacity:1;stop-color:#dddbd9"
         offset="0"
         id="stop440" /><stop
         style="stop-opacity:1;stop-color:#e7e8e6"
         offset="0.767256"
         id="stop442" /><stop
         style="stop-opacity:1;stop-color:#e7e8e6"
         offset="1"
         id="stop444" /></linearGradient><clipPath
       clipPathUnits="userSpaceOnUse"
       id="clipPath466"><path
         d="m 8492.48,4743.56 c -20.78,0 -37.64,16.84 -37.64,37.63 0,20.8 16.86,37.64 37.64,37.64 20.78,0 37.63,-16.84 37.63,-37.64 0,-20.79 -16.85,-37.63 -37.63,-37.63"
         id="path464" /></clipPath><linearGradient
       x1="0"
       y1="0"
       x2="1"
       y2="0"
       gradientUnits="userSpaceOnUse"
       gradientTransform="matrix(-7.06e-5,1614.02,1614.02,7.06e-5,8794.18,3764.38)"
       spreadMethod="pad"
       id="linearGradient474"><stop
         style="stop-opacity:1;stop-color:#646366"
         offset="0"
         id="stop468" /><stop
         style="stop-opacity:1;stop-color:#737274"
         offset="0.767256"
         id="stop470" /><stop
         style="stop-opacity:1;stop-color:#737274"
         offset="1"
         id="stop472" /></linearGradient><clipPath
       clipPathUnits="userSpaceOnUse"
       id="clipPath488"><path
         d="m 8360.98,4545.89 h -159.57 v 287.21 h 159.57 v -269.05 -18.16 m -18.16,18.16 v 0 18.16 -18.16 m -105.09,232.74 v -214.58 h 86.93 v 214.58 h -86.93"
         id="path486" /></clipPath><linearGradient
       x1="0"
       y1="0"
       x2="1"
       y2="0"
       gradientUnits="userSpaceOnUse"
       gradientTransform="matrix(-7.06e-5,1614.02,1614.02,7.06e-5,8794.18,3764.38)"
       spreadMethod="pad"
       id="linearGradient496"><stop
         style="stop-opacity:1;stop-color:#999a9a"
         offset="0"
         id="stop490" /><stop
         style="stop-opacity:1;stop-color:#b5b5b4"
         offset="0.767256"
         id="stop492" /><stop
         style="stop-opacity:1;stop-color:#b5b5b4"
         offset="1"
         id="stop494" /></linearGradient><clipPath
       clipPathUnits="userSpaceOnUse"
       id="clipPath858"><path
         d="m 6050.93,6013.09 v 0 c 3.29,51.52 46.15,92.08 98.2,92.13 -52.05,-0.06 -94.91,-40.61 -98.2,-92.13 m 99.73,92.12 c -0.11,0 -0.22,0 -0.33,0 0.11,0 0.22,0 0.33,0 m -0.38,0 c -0.1,0 -0.2,0.01 -0.31,0.01 0.11,0 0.21,-0.01 0.31,-0.01 m -0.36,0.01 c -0.1,0 -0.21,0 -0.31,0 0.1,0 0.21,0 0.31,0 m -0.34,0 c -0.12,0 -0.23,0 -0.35,0 v 0 c 0.12,0 0.23,0 0.35,0"
         id="path856" /></clipPath></defs><sodipodi:namedview
     pagecolor="#323443"
     bordercolor="#666666"
     borderopacity="1"
     objecttolerance="10"
     gridtolerance="10"
     guidetolerance="10"
     inkscape:pageopacity="0"
     inkscape:pageshadow="2"
     inkscape:window-width="1920"
     inkscape:window-height="1166"
     id="namedview4"
     showgrid="false"
     inkscape:zoom="0.56898896"
     inkscape:cx="785.678"
     inkscape:cy="445.65953"
     inkscape:window-x="-11"
     inkscape:window-y="-11"
     inkscape:window-maximized="1"
     inkscape:current-layer="g12" /><g
     id="g10"
     inkscape:groupmode="layer"
     inkscape:label="ink_ext_XXXXXX"
     transform="matrix(1.3333333,0,0,-1.3333333,-26.701599,1044.9941)"><g
       id="g12"
       transform="scale(0.1)"><path
         d="M 1922.2111,196.80791 H 318.19513 c -61.66,0 -111.652,71.07 -111.652,158.75 0,87.68 49.992,158.75 111.652,158.75 H 1628.2911 l 8.49,-9.168 h 8758.0999 c 34.5,-17.48 61.1,-58.371 70.5,-109.222 H 4331.8411 c -16.78,37.062 -54.09,62.839 -97.42,62.839 -43.32,0 -80.63,-25.777 -97.41,-62.839 h -320.99 c -19.47,20.429 -46.94,33.16 -77.38,33.16 -30.43,0 -57.9,-12.731 -77.37,-33.16 h -1140.54 c -11.69,46.332 -53.66,80.632 -103.65,80.632 -49.96,0 -91.92,-34.3 -103.61,-80.632 h -575.6 l 184.34,-199.11"
         style="fill:#83331b;fill-opacity:1;fill-rule:nonzero;stroke:none"
         id="path788" /><path
         d="M 10394.881,505.13991 H 1636.7811 l -8.49,9.168 h 8729.0899 c 13.1,0 25.8,-3.23 37.5,-9.168"
         style="fill:#8e3e1c;fill-opacity:1;fill-rule:nonzero;stroke:none"
         id="path790" /><path
         d="M 10357.381,196.80791 H 1922.2111 l -184.34,199.11 h 575.6 c -1.96,-7.77 -3.07,-15.872 -3.23,-24.211 0,-0.02 0,-0.047 0,-0.067 0,-0.101 0,-0.211 0,-0.312 0,-0.032 0,-0.059 0,-0.09 0,-0.09 -0.01,-0.188 -0.01,-0.281 0,-0.039 0,-0.079 0,-0.118 0,-0.089 0,-0.171 0,-0.261 0,-0.039 0,-0.078 0,-0.129 0,-0.09 0,-0.18 0,-0.27 0,-0.031 0,-0.07 0,-0.101 0,-0.129 0,-0.25 0,-0.379 v 0 0 c 0,-59.02 47.85,-106.871 106.85,-106.871 v 0 c 0.13,0 0.25,0 0.38,0 0.03,0 0.07,0 0.1,0 0.09,0 0.18,0 0.27,0 0.04,0 0.09,0 0.13,0 0.09,0 0.18,0 0.27,0 0.03,0 0.07,0 0.1,0 0.1,0 0.19,0 0.28,0.011 0.04,0 0.07,0 0.11,0 0.1,0 0.21,0 0.32,0 0.01,0 0.03,0 0.04,0 58.12,1.071 104.9,48.508 104.9,106.86 0,9.051 -1.13,17.828 -3.25,26.219 h 1140.54 c -17.85,-18.731 -28.97,-43.938 -29.48,-71.731 0,-0.019 0,-0.047 0,-0.078 -0.01,-0.102 -0.01,-0.199 -0.01,-0.301 0,-0.031 0,-0.058 0,-0.097 0,-0.094 0,-0.184 0,-0.274 -0.01,-0.039 -0.01,-0.078 -0.01,-0.117 0,-0.09 0,-0.172 0,-0.262 0,-0.039 0,-0.078 0,-0.129 0,-0.09 0,-0.179 0,-0.269 0,-0.032 0,-0.071 0,-0.102 0,-0.129 0,-0.25 0,-0.379 v 0 0 c 0,-59.019 47.85,-106.871 106.87,-106.871 v 0 c 0.13,0 0.26,0 0.38,0 0.03,0 0.07,0 0.11,0 0.09,0 0.18,0 0.27,0 0.04,0 0.08,0 0.13,0 0.08,0 0.17,0 0.25,0 0.04,0 0.08,0 0.12,0.012 0.09,0 0.18,0 0.27,0 0.04,0 0.07,0 0.11,0 0.1,0 0.21,0 0.31,0.008 0.02,0 0.04,0 0.06,0 58.1,1.07 104.89,48.5 104.89,106.851 0,28.59 -11.23,54.559 -29.52,73.739 h 320.99 c -5.82,-12.86 -9.17,-27.071 -9.44,-42.028 0,-0.012 0,-0.023 0,-0.031 0,-0.121 -0.01,-0.231 -0.01,-0.352 0,-0.027 0,-0.05 0,-0.078 0,-0.09 0,-0.191 0,-0.281 0,-0.039 0,-0.078 0,-0.121 -0.01,-0.09 -0.01,-0.168 -0.01,-0.258 0,-0.039 0,-0.09 0,-0.129 0,-0.094 0,-0.179 0,-0.273 0,-0.028 0,-0.067 0,-0.098 0,-0.133 0,-0.262 0,-0.379 v 0 0 c 0,-59.019 47.85,-106.883 106.87,-106.883 v 0 c 0.13,0 0.26,0 0.38,0 0.04,0 0.07,0 0.11,0 0.09,0 0.18,0.012 0.27,0.012 0.04,0 0.08,0 0.13,0 0.08,0 0.17,0 0.26,0 0.03,0 0.07,0 0.11,0 0.09,0 0.18,0 0.27,0 0.04,0 0.07,0 0.11,0.008 0.1,0 0.21,0 0.31,0 0.02,0 0.04,0 0.06,0 58.1,1.07 104.87,48.512 104.87,106.863 0,15.688 -3.39,30.598 -9.46,44.028 h 6133.5399 c 2.4,-12.891 3.6,-26.411 3.6,-40.36 0,-87.68 -49.9,-158.75 -111.6,-158.75"
         style="fill:#8e3e1c;fill-opacity:1;fill-rule:nonzero;stroke:none"
         id="path792" /><path
         d="m 8822.9811,967.57791 h -6114.14 c 0,39.78999 3.24,77.08999 8.9,109.21999 h 6096.34 c 5.66,-32.13 8.9,-69.43 8.9,-109.21999"
         style="fill:#83331b;fill-opacity:1;fill-rule:nonzero;stroke:none"
         id="path794" /><path
         d="m 8756.4811,749.18691 h -5981.13 c -36.73,0 -66.51,97.781 -66.51,218.391 v 0 h 6114.14 v 0 c 0,-120.61 -29.78,-218.391 -66.5,-218.391"
         style="fill:#8e3e1c;fill-opacity:1;fill-rule:nonzero;stroke:none"
         id="path796" /><path
         d="m 8814.0811,1076.7979 h -6096.34 c 11.51,65.26 33,109.17 57.61,109.17 h 5981.13 c 24.61,0 46.1,-43.91 57.6,-109.17"
         style="fill:#8e3e1c;fill-opacity:1;fill-rule:nonzero;stroke:none"
         id="path798" /><path
         d="m 7848.9211,5485.3179 c 0,26.14 21.22,47.31 47.34,47.31 26.02,0 47.32,-21.17 47.32,-47.31 0,-26.14 -21.3,-47.36 -47.32,-47.36 -26.12,0 -47.34,21.22 -47.34,47.36 z m -63.08,0 c 0,-61.01 49.44,-110.29 110.42,-110.29 60.82,0 110.32,49.28 110.32,110.29 0,60.93 -49.5,110.28 -110.32,110.28 -60.98,0 -110.42,-49.35 -110.42,-110.28"
         style="fill:#ffffff;fill-opacity:1;fill-rule:nonzero;stroke:none"
         id="path800" /><path
         d="m 7494.6111,5287.9279 h 249.09 c 56.76,0 102.84,46 102.84,102.87 v 236.35 h -454.78 v -236.35 c 0,-56.87 46.15,-102.87 102.85,-102.87"
         style="fill:#ffffff;fill-opacity:1;fill-rule:nonzero;stroke:none"
         id="path802" /><path
         d="m 7499.5011,5389.2379 h 101.54 v 87 l -25.84,34.6 h -49.86 l -25.84,-34.6 v -87"
         style="fill:#39b864;fill-opacity:1;fill-rule:nonzero;stroke:none"
         id="path804" /><path
         d="m 7550.2611,5488.1879 c 1.64,0 2.9,1.26 2.9,2.78 v 142.58 c 0,1.54 -1.26,2.84 -2.9,2.84 -1.51,0 -2.87,-1.3 -2.87,-2.84 v -142.58 c 0,-1.52 1.36,-2.78 2.87,-2.78"
         style="fill:#a2e1f9;fill-opacity:1;fill-rule:nonzero;stroke:none"
         id="path806" /><path
         d="m 7719.2111,5710.1279 c -12.69,0 -22.97,10.32 -22.97,22.95 v 134.66 c 0,10.36 -8.49,18.87 -18.82,18.87 -35.57,0 -64.51,28.9 -64.51,64.56 v 28.54 c 0,35.58 28.94,64.47 64.51,64.47 h 57.66 c 10.44,0 18.92,8.48 18.92,18.88 v 55.23 c 0,12.61 10.2,22.9 22.81,22.9 12.66,0 22.97,-10.29 22.97,-22.9 v -55.23 c 0,-35.63 -28.98,-64.55 -64.7,-64.55 h -57.66 c -10.31,0 -18.77,-8.48 -18.77,-18.8 v -28.54 c 0,-10.43 8.46,-18.85 18.77,-18.85 35.7,0 64.61,-28.95 64.61,-64.58 v -134.66 c 0,-12.63 -10.23,-22.95 -22.82,-22.95"
         style="fill:#eac874;fill-opacity:1;fill-rule:nonzero;stroke:none"
         id="path808" /><path
         d="m 7618.3011,5710.1279 c -12.64,0 -22.88,10.32 -22.88,22.95 v 95.15 c 0,12.58 10.24,22.84 22.88,22.84 12.68,0 23.01,-10.26 23.01,-22.84 v -95.15 c 0,-12.63 -10.33,-22.95 -23.01,-22.95"
         style="fill:#eac874;fill-opacity:1;fill-rule:nonzero;stroke:none"
         id="path810" /><path
         d="m 7530.4611,5710.1279 c -12.67,0 -22.98,10.32 -22.98,22.95 v 100.08 c 0,16.1 -13.09,29.3 -29.32,29.3 -51.66,0 -93.73,42.05 -93.73,93.74 v 35.18 c 0,51.68 42.07,93.8 93.73,93.8 h 55.6 c 16.3,0 29.69,13.35 29.69,29.67 v 112.44 c 0,12.6 10.29,22.93 22.94,22.93 12.62,0 22.82,-10.33 22.82,-22.93 v -112.44 c 0,-41.57 -33.88,-75.52 -75.45,-75.52 h -55.6 c -26.39,0 -47.94,-21.46 -47.94,-47.95 v -35.18 c 0,-26.45 21.55,-47.95 47.94,-47.95 41.44,0 75.2,-33.73 75.2,-75.09 v -100.08 c 0,-12.63 -10.31,-22.95 -22.9,-22.95"
         style="fill:#eac874;fill-opacity:1;fill-rule:nonzero;stroke:none"
         id="path812" /><path
         d="m 7239.4411,5271.0679 h 759.44 v 25.98 h -759.44 v -25.98"
         style="fill:#e8f7fd;fill-opacity:1;fill-rule:nonzero;stroke:none"
         id="path814" /><path
         d="m 6634.7611,2439.9879 862.87,-1343.28 h -200 l -797.96,1343.28 h 135.09"
         style="fill:#171e27;fill-opacity:1;fill-rule:nonzero;stroke:none"
         id="path816" /><path
         d="m 5817.2211,2616.7079 -974.22,-1520 h 200 l 909.31,1520 h -135.09"
         style="fill:#171e27;fill-opacity:1;fill-rule:nonzero;stroke:none"
         id="path818" /><path
         d="m 5978.1011,5676.0679 c 0,0 -133.34,53.33 -193.34,-26.67 -60,-80 -720,-1260 -720,-1260 l 240,-199.99 720,1246.66 c 0,0 66.68,160 -46.66,240"
         style="fill:#1c1b1b;fill-opacity:1;fill-rule:nonzero;stroke:none"
         id="path820" /><path
         d="m 5191.9711,4433.3879 c -445.6,29.78 -891.22,59.55 -1336.82,89.32 l -0.39,0.03 c -81.67,5.46 -150,-72.37 -150,-150 0,-85.89 68.45,-144.55 150,-150 445.6,-29.78 891.22,-59.54 1336.82,-89.33 l 0.39,-0.02 c 81.67,-5.46 150,72.37 150,150 0,85.89 -68.44,144.55 -150,150"
         style="fill:#f57b5a;fill-opacity:1;fill-rule:nonzero;stroke:none"
         id="path822" /><path
         d="m 3968.7411,4413.7579 c 0,123.7 -100.28,223.98 -223.98,223.98 -123.69,0 -223.97,-100.28 -223.97,-223.98 0,-123.69 100.28,-223.97 223.97,-223.97 123.7,0 223.98,100.28 223.98,223.97"
         style="fill:#f57b5a;fill-opacity:1;fill-rule:nonzero;stroke:none"
         id="path824" /><path
         d="m 5139.6211,4523.0079 -98.76,-79.52 241.89,-279.86 60.91,56.08 53.84,130.28 -257.88,173.02"
         style="fill:#ffffff;fill-opacity:1;fill-rule:nonzero;stroke:none"
         id="path826" /><path
         d="m 6212.7411,7675.1179 c -62.91,8.23 -108.08,34.66 -179.57,15.87 l -8.99,-0.09 c -197.14,-11.24 -266.87,-191.32 -372.99,-318.07 -150.63,-163.04 -247.63,-307.64 -191.21,-540.13 103.09,-393.39 243.19,-893.95 744.61,-825.55 904.19,126.79 897.66,1507.58 8.15,1667.97"
         style="fill:#1c1b1b;fill-opacity:1;fill-rule:nonzero;stroke:none"
         id="path828" /><path
         d="m 5727.8411,7727.8979 -6.7,-0.05 c -187.81,-46.97 -380.92,-216.13 -347.18,-420.89 39.32,-239.02 309.04,-373.11 495.85,-236.53 213.34,163.81 225.18,706.44 -141.97,657.47"
         style="fill:#1c1b1b;fill-opacity:1;fill-rule:nonzero;stroke:none"
         id="path830" /><path
         d="m 5850.1611,7819.6379 c 88.77,-65.17 78.89,-165.33 37.03,-253.54 -2.16,-4.54 3.4,-9.23 7.14,-5.41 74.22,75.51 40.26,210.8 -39.81,266.61 -4.75,3.3 -8.86,-4.39 -4.36,-7.66"
         style="fill:#1c1b1b;fill-opacity:1;fill-rule:nonzero;stroke:none"
         id="path832" /><path
         d="m 5943.8911,7655.1079 c 280.93,34.82 514.86,-67.16 724.97,-248.07 90.86,-78.22 160.41,-178.59 190.06,-295.34 30.02,-118.36 4.11,-234.13 -2.38,-352.96 -0.27,-3.56 5.32,-4.17 6.13,-0.75 26.11,108.38 30.25,231.44 8.9,340.87 -23.15,119.2 -97.02,215.29 -178.96,300.99 -196.97,206.01 -465.79,306.93 -748.91,271.22 -10.06,-1.27 -10.03,-17.23 0.19,-15.96"
         style="fill:#1c1b1b;fill-opacity:1;fill-rule:nonzero;stroke:none"
         id="path834" /><path
         d="m 5344.6811,7160.8279 c 47.28,-60.94 127.46,-87.98 202.91,-70.14 3.5,0.81 2.54,6.12 -0.88,6.19 -76.27,1.54 -142.88,3.53 -194.06,68.73 -3.66,4.61 -11.64,-0.05 -7.97,-4.78"
         style="fill:#1c1b1b;fill-opacity:1;fill-rule:nonzero;stroke:none"
         id="path836" /><path
         d="m 5509.0811,7116.6079 c -77.43,-28.88 -92.73,-136.67 -100.9,-207.37 -8.46,-73.42 -15.02,-200.14 42.66,-258.24 2.48,-2.52 6.83,0.84 4.89,3.89 -37.61,59.28 -37.25,143.53 -35.4,211.21 1.93,72.3 12.33,207.04 91.81,239.77 6.56,2.7 3.78,13.24 -3.06,10.74"
         style="fill:#1c1b1b;fill-opacity:1;fill-rule:nonzero;stroke:none"
         id="path838" /><path
         d="m 5361.3911,6957.1179 c 4.09,92.73 85.55,149.15 167.55,170.25 2.33,0.59 1.74,4.21 -0.58,4.09 -88.6,-2.56 -169.26,-86.52 -169.87,-174.37 -0.05,-1.9 2.87,-1.85 2.9,0.03"
         style="fill:#1c1b1b;fill-opacity:1;fill-rule:nonzero;stroke:none"
         id="path840" /><path
         d="m 5305.8211,7340.6979 c 38.67,-89.21 126.36,-178.38 231.07,-169.56 3.3,0.26 4.49,5.73 0.74,6.15 -101.48,13.44 -180.5,74.13 -222.41,167.48 -2.42,5.29 -11.7,1.24 -9.4,-4.07"
         style="fill:#1c1b1b;fill-opacity:1;fill-rule:nonzero;stroke:none"
         id="path842" /><path
         d="m 5867.4611,7615.1679 c 111.66,151.96 288.12,212.43 468.47,164.89 4.52,-1.22 7.45,5.57 3.1,7.67 -170.31,83.58 -381.19,-23.27 -479.23,-168.17 -3.29,-4.8 4.33,-8.91 7.66,-4.39"
         style="fill:#1c1b1b;fill-opacity:1;fill-rule:nonzero;stroke:none"
         id="path844" /><path
         d="m 5927.7011,7642.2379 c 115.82,76.41 272.75,108.99 391.31,22.72 2.64,-1.9 5.26,2.18 3.26,4.3 -99.71,107.41 -296,55.17 -397.86,-21.6 -3.14,-2.37 -0.17,-7.68 3.29,-5.42"
         style="fill:#1c1b1b;fill-opacity:1;fill-rule:nonzero;stroke:none"
         id="path846" /><path
         d="m 5639.1111,7764.9779 c 132.36,60.52 234.56,-80.66 258.08,-192.88 0.71,-3.46 5.41,-2.2 5.77,0.88 12.91,125.64 -150.85,257.33 -266.54,196.52 -3.08,-1.6 -0.33,-5.87 2.69,-4.52"
         style="fill:#1c1b1b;fill-opacity:1;fill-rule:nonzero;stroke:none"
         id="path848" /><path
         d="m 6385.3711,5710.7879 c -0.79,-54.43 -26.31,-96.91 -84.21,-126.18 l -82.4,-18.04 -68.07,22.92 c -57.26,14.47 -98.53,71.69 -97.78,126.09 l 4.1,283.21 c 0.77,54.36 45.53,97.84 99.93,97.07 l 135.41,-1.97 c 54.41,-0.76 97.88,-45.52 97.08,-99.95 l -4.06,-283.15"
         style="fill:#f57b5a;fill-opacity:1;fill-rule:nonzero;stroke:none"
         id="path850" /><g
         id="g852"
         transform="translate(6.2811259,-9.3520913)"><g
           id="g854"
           clip-path="url(#clipPath858)"><path
             d="m 6050.93,6013.09 h 99.7305 v 92.1289 H 6050.93 Z"
             style="fill:#1b1a19;fill-opacity:1;fill-rule:nonzero;stroke:none"
             id="path860" /></g></g><path
         d="m 6288.9711,5761.4479 c -0.47,0 -0.95,0.01 -1.42,0.01 l -135.45,1.95 c -54.35,0.75 -97.84,45.54 -97.02,99.93 l 1.93,135.45 v 0 c 0.03,1.66 0.09,3.31 0.2,4.95 3.29,51.52 46.15,92.07 98.2,92.13 0.03,0 0.07,0 0.1,0 0.12,0 0.23,0 0.35,0 0.01,0 0.02,0 0.03,0 0.1,0 0.21,0 0.31,0 0.02,0 0.04,0 0.05,0 0.11,0 0.21,-0.01 0.31,-0.01 0.01,0 0.04,0 0.05,0 0.11,0 0.22,0 0.33,0 v 0 l 135.41,-1.97 c 53.88,-0.76 97.03,-44.65 97.1,-98.35 0,-0.53 -0.01,-1.06 -0.02,-1.6 v 0 l -1.95,-135.4 c -0.73,-53.94 -44.72,-97.09 -98.51,-97.09"
         style="fill:#e56d4e;fill-opacity:1;fill-rule:nonzero;stroke:none"
         id="path862" /><path
         d="m 5824.1711,6556.5779 c 19.39,-113.39 -37.32,-217.69 -126.67,-232.97 -89.37,-15.32 -177.61,64.18 -196.98,177.52 -19.42,113.36 37.31,217.62 126.63,232.98 89.36,15.31 177.6,-64.16 197.02,-177.53"
         style="fill:#f57b5a;fill-opacity:1;fill-rule:nonzero;stroke:none"
         id="path864" /><path
         d="m 5571.4011,6508.3679 c -9.14,0 -17.95,7.56 -21.14,19.17 -1.15,4.09 -10.67,41.54 5.34,77.74 12.48,28.27 36.31,46.63 70.78,54.77 1.28,0.31 2.56,0.45 3.83,0.45 9.81,0 18.86,-8.86 21.53,-21.3 2.93,-14 -3.63,-27.54 -14.65,-30.1 -22.7,-5.29 -37.67,-15.73 -44.64,-31.04 -8,-17.46 -3.12,-37.4 -3.05,-37.61 3.49,-13.79 -2.28,-27.79 -13.02,-31.27 l -2.28,-0.59 c -0.9,-0.15 -1.8,-0.22 -2.7,-0.22"
         style="fill:#e56d4e;fill-opacity:1;fill-rule:nonzero;stroke:none"
         id="path866" /><path
         d="m 6634.5111,6607.6179 c -53.52,-101.81 -31.92,-218.52 48.34,-260.73 80.27,-42.27 188.72,6.15 242.25,107.84 53.57,101.78 31.88,218.52 -48.32,260.72 -80.26,42.29 -188.73,-6.01 -242.27,-107.83"
         style="fill:#f57b5a;fill-opacity:1;fill-rule:nonzero;stroke:none"
         id="path868" /><path
         d="m 6865.3311,6482.7179 c -2.74,0 -5.41,0.62 -7.84,1.9 l -2.05,1.25 c -9.1,6.58 -10.33,21.75 -2.72,33.73 0.15,0.23 10.98,17.62 8.79,36.77 -1.91,16.67 -12.92,31.21 -32.83,43.31 -9.72,5.9 -11.76,20.75 -4.67,33.17 5.22,8.99 13.74,14.4 21.77,14.4 3.07,0 6.07,-0.79 8.79,-2.49 30.32,-18.31 47.24,-43.2 50.38,-73.89 3.99,-39.44 -16.64,-72.05 -18.96,-75.58 -5.32,-8.08 -13.26,-12.57 -20.66,-12.57"
         style="fill:#e56d4e;fill-opacity:1;fill-rule:nonzero;stroke:none"
         id="path870" /><path
         d="m 6782.8011,6846.5379 c -44.34,236.16 -272.98,418.18 -551.16,422.18 -278.23,4.05 -511.97,-171.24 -563.17,-406.06 -6.05,-10.76 -9.55,-22.65 -9.76,-35.27 l -6.67,-460.49 c -0.02,-3.07 0.12,-6.08 0.48,-9.09 7.96,-269.45 253.55,-488.1 558.78,-492.51 305.3,-4.41 557.11,207.11 572.86,476.21 0.38,2.96 0.63,5.96 0.69,9.04 l 6.61,460.44 c 0.21,12.62 -2.95,24.61 -8.66,35.55"
         style="fill:#f57b5a;fill-opacity:1;fill-rule:nonzero;stroke:none"
         id="path872" /><path
         d="m 6076.3611,6770.1079 c -0.37,-22.64 -37.2,8.75 -98.4,9.68 -61.2,0.86 -123.62,-29.13 -123.26,-6.42 0.32,22.63 54.49,52.57 115.62,51.69 61.24,-0.86 106.35,-32.25 106.04,-54.95"
         style="fill:#2a162d;fill-opacity:1;fill-rule:nonzero;stroke:none"
         id="path874" /><path
         d="m 6606.0811,6781.0079 c -0.32,-22.64 -37.2,8.72 -98.41,9.66 -61.21,0.88 -123.59,-29.16 -123.2,-6.45 0.3,22.65 54.44,52.59 115.65,51.67 61.21,-0.84 106.26,-32.2 105.96,-54.88"
         style="fill:#2a162d;fill-opacity:1;fill-rule:nonzero;stroke:none"
         id="path876" /><path
         d="m 6294.0311,6415.2979 c 0.85,59.52 -21.03,152.69 -68.09,153.34 -47.17,0.66 -74.59,-85.22 -75.48,-144.76 -0.05,-3.98 0.15,-7.6 0.58,-10.9 v -0.46 c -0.43,-31.18 31.07,-56.82 70.31,-57.41 30.53,-0.43 56.75,14.45 67.13,35.7 3.32,5.25 5.43,13.03 5.55,24.49"
         style="fill:#c73735;fill-opacity:1;fill-rule:nonzero;stroke:none"
         id="path878" /><path
         d="m 5822.3211,6539.7979 c -2.17,0.07 -4.3,0.4 -6.47,1.17 -10.71,3.76 -16.37,15.44 -12.6,26.19 25.76,73.78 57.89,110.85 98.17,113.11 65.71,3.34 115.01,-94.23 120.4,-105.45 4.94,-10.17 0.62,-22.45 -9.57,-27.38 -10.19,-4.91 -22.49,-0.63 -27.37,9.56 -13.4,27.61 -51,84.05 -81.16,82.3 -20.96,-1.25 -42.85,-31.64 -61.73,-85.76 -2.98,-8.52 -11.06,-13.85 -19.67,-13.74"
         style="fill:#2a162d;fill-opacity:1;fill-rule:nonzero;stroke:none"
         id="path880" /><path
         d="m 6437.9811,6530.8879 c -2.17,0.07 -4.33,0.41 -6.47,1.15 -10.7,3.78 -16.38,15.47 -12.62,26.18 25.83,73.88 57.96,110.88 98.23,113.17 65.62,3.32 114.94,-94.24 120.37,-105.45 4.88,-10.18 0.62,-22.48 -9.6,-27.41 -10.23,-4.89 -22.48,-0.63 -27.39,9.61 -13.37,27.57 -50.92,83.99 -81.09,82.22 -20.94,-1.15 -42.86,-31.61 -61.76,-85.65 -3.01,-8.57 -11.09,-13.94 -19.67,-13.82"
         style="fill:#2a162d;fill-opacity:1;fill-rule:nonzero;stroke:none"
         id="path882" /><path
         d="m 6074.8811,6222.6679 265.65,-3.85 c 0,0 -152.34,-235.28 -265.65,3.85"
         style="fill:#c73735;fill-opacity:1;fill-rule:nonzero;stroke:none"
         id="path884" /><path
         d="m 5766.0111,7152.6879 c 94.93,-224.82 370.81,-274.47 575.15,-303.48 392.48,-55.71 298.8,-249.1 444.65,-432.29 77.74,391.08 33.66,1107.05 -398.6,1194.57 -257.21,48.45 -1014.95,-144.87 -590.19,-478.95"
         style="fill:#1c1b1b;fill-opacity:1;fill-rule:nonzero;stroke:none"
         id="path886" /><path
         d="m 5823.0011,7240.2879 c 110.06,-213.98 -93.53,-449.37 -91.02,-673.56 -109.11,133.28 -155.84,303.14 -130.91,473.83 16.73,107.75 174.62,423.4 249.09,182.14"
         style="fill:#1c1b1b;fill-opacity:1;fill-rule:nonzero;stroke:none"
         id="path888" /><path
         d="m 7323.2711,3962.4779 c 233.61,394.16 467.22,788.31 700.82,1182.46 1.01,1.71 2.02,3.43 3.05,5.14 41.65,70.3 17.2,164.07 -53.06,205.45 -70.57,41.54 -163.8,17.24 -205.46,-53.06 -233.6,-394.16 -467.2,-788.31 -700.81,-1182.46 -1.02,-1.7 -2.03,-3.41 -3.05,-5.13 -41.66,-70.3 -17.21,-164.08 53.05,-205.45 70.6,-41.55 163.79,-17.24 205.46,53.05"
         style="fill:#f57b5a;fill-opacity:1;fill-rule:nonzero;stroke:none"
         id="path890" /><path
         d="m 8153.2111,5312.7079 c 32.25,119.42 -38.43,242.37 -157.86,274.61 -119.41,32.24 -242.36,-38.43 -274.61,-157.85 -32.22,-119.43 38.45,-242.37 157.86,-274.61 119.43,-32.25 242.39,38.43 274.61,157.85"
         style="fill:#f57b5a;fill-opacity:1;fill-rule:nonzero;stroke:none"
         id="path892" /><path
         d="m 6399.6711,5822.7379 c 0,0 -530,-50 -610,-430 0,0 -430,-150 -90,-630 v -1230 h 800 v 2290 h -100"
         style="fill:#ffffff;fill-opacity:1;fill-rule:nonzero;stroke:none"
         id="path894" /><path
         d="m 6074.7611,5492.7379 v -1490 c 0,0 20,-430 500,-530 v 1260 l 430,-580 190,330 -650,1180 c 0,0 -360,200 -470,-170"
         style="fill:#1c1b1b;fill-opacity:1;fill-rule:nonzero;stroke:none"
         id="path896" /><path
         d="m 6574.7611,3402.7379 c 0,71.79 -58.21,130 -130,130 h -1120 c -71.8,0 -130,-58.21 -130,-130 v -410 c 0,-71.8 58.2,-130 130,-130 h 1120 c 71.79,0 130,58.2 130,130 v 410"
         style="fill:#1c1b1b;fill-opacity:1;fill-rule:nonzero;stroke:none"
         id="path898" /><path
         d="m 5488.3211,3345.5679 c -218.37,108.18 -440.85,208.23 -665.37,302.93 -147.04,62.02 -295.79,122.18 -448.99,167.35 -122.35,36.07 -306.06,84.84 -419.71,-0.28 -247.42,-185.3 -40.72,-487.8 80.44,-684.85 168.57,-274.16 356.84,-536.59 546.39,-796.47 195.36,-267.87 395.94,-532.02 601.01,-792.52 122.57,-155.7 243.48,-318.8 383.57,-459.55 86.49,-86.86999 231.66,-86.51999 318.2,0 86.83,86.84 86.48,231.33 0,318.2 -155.18,155.9 -288.28,337.72 -423.58,510.51 -23.69,30.26 -47.29,60.6 -70.84,90.98 -10.05,12.99 -34.61,44.78 11.02,-14.3 -6.09,7.9 -12.19,15.8 -18.28,23.71 -14.41,18.7 -28.77,37.42 -43.14,56.17 -53.02,69.2 -105.67,138.72 -158.02,208.42 -107.53,143.19 -213.64,287.45 -318.06,432.92 -175.82,244.95 -351.91,492.57 -502.42,754.17 -24.2,42.07 -47.42,84.77 -68.24,128.63 -4.03,8.48 -7.89,17.06 -11.64,25.67 -8.93,20.39 28.53,-70.82 11.58,-26.58 -5.26,13.73 -9.81,27.75 -13.09,42.09 -9.28,40.58 0.96,-77.04 5.31,-29.39 -4.7,-51.45 -3.89,-58.58 -26.93,-101 10.51,19.35 -47.12,-56.7 -31.67,-41.1 -52.98,-53.47 -55.56,-38.65 -34.83,-28.4 -70.91,-35.11 -61.63,-24 -41.62,-18.45 17.92,4.98 55.31,8 -45.34,-5.41 8.56,1.14 17.27,1.18 25.89,1.09 10.22,-0.1 20.42,-1.05 30.57,-2.13 31.43,-3.32 -69.07,9.83 -37.03,4.93 8.23,-1.26 16.4,-2.8 24.58,-4.37 109.41,-20.97 215.84,-60.33 319.82,-99.39 63.1,-23.7 125.65,-48.88 187.91,-74.67 17,-7.04 78.6,-33.13 3.24,-1.24 15.77,-6.66 31.51,-13.41 47.23,-20.18 34.04,-14.63 67.98,-29.51 101.87,-44.51 152.35,-67.44 303.74,-137.57 453.05,-211.54 109.9,-54.45 242.74,-30.43 307.84,80.72 58.72,100.25 29.12,253.42 -80.72,307.84"
         style="fill:#c73735;fill-opacity:1;fill-rule:nonzero;stroke:none"
         id="path900" /><path
         d="m 5665.6611,3369.8979 c -204.8,71.73 -411.05,139.35 -618.09,203.73 -155.98,48.51 -312.69,95.06 -471.04,134.55 -62.23,15.51 -124.84,29.76 -188.04,40.39 -56.93,9.57 -118.69,22.46 -177.1,17.52 -120.83,-10.2 -199.32,-76.14 -291.01,-150.88 -91.61,-74.71 -178.68,-155.57 -265.25,-236.41 -237.93,-222.19 -469.24,-452.09 -699.47,-682.81 -201.12,-201.54 -401.14,-404.32 -599.33,-608.97 -83.69,-86.4 -83.22,-231.71 0,-318.2 83.62,-86.89 222.52,-86.38 306.2,0 336.2,347.13 676.25,690.53 1022.14,1027.23 109.41,106.5 219.59,212.21 331.7,315.64 45.22,41.72 90.84,82.99 137.14,123.4 18.5,16.15 37.18,32.09 56.02,47.83 8.36,7 16.8,13.89 25.26,20.77 -70.38,-57.09 -30.02,-23.99 -13.21,-11.04 22.25,17.13 45.28,34.69 70.51,46.84 -82.94,-39.89 -58.12,-23.09 -38.43,-17.82 30.77,8.21 -75.06,-7.57 -35.14,-5.06 19.75,1.27 39.71,-0.56 59.35,-2.59 51.23,-5.33 -60.96,9.31 -17.07,2.63 13.01,-1.97 25.98,-4.27 38.93,-6.64 32.14,-5.86 64.09,-12.79 95.95,-20.06 73.11,-16.64 145.68,-35.91 217.99,-55.91 315.42,-87.31 627.58,-189.73 936.87,-298.07 111.89,-39.2 236.39,43.97 266.35,157.15 32.64,123.3 -39.49,237.64 -151.23,276.78"
         style="fill:#f57b5a;fill-opacity:1;fill-rule:nonzero;stroke:none"
         id="path902" /><path
         d="m 7194.7611,4482.7379 -190,-330 42.87,-101.03 210,370 -62.87,61.03"
         style="fill:#ffffff;fill-opacity:1;fill-rule:nonzero;stroke:none"
         id="path904" /><path
         d="m 5127.6311,2906.7079 c 0,0 1434.26,-60 1507.13,120 72.87,180 52.87,1240.52 52.87,1240.52 0,0 504.26,-460.52 317.13,-1470.52 -187.13,-1010 -1877.13,110 -1877.13,110"
         style="fill:#ffffff;fill-opacity:1;fill-rule:nonzero;stroke:none"
         id="path906" /><path
         d="m 2531.5311,4633.5079 c 0,0 99.22,-34.87 -217.82,-632.95 h -26.56 c 0,0 182.78,699.46 244.38,632.95"
         style="fill:#1c1b1b;fill-opacity:1;fill-rule:nonzero;stroke:none"
         id="path908" /><path
         d="m 2303.6111,4043.2379 -16.46,-42.68 c 0,0 182.78,699.46 244.38,632.95 l -0.49,-1.29 c -54.76,27.02 -186.14,-437.31 -227.43,-588.98"
         style="fill:#1c1b1b;fill-opacity:1;fill-rule:nonzero;stroke:none"
         id="path910" /><path
         d="m 4098.7311,5185.9479 -63.32,-96.24 865.9,-1089.15 h 129.33 l -931.91,1185.39"
         style="fill:#1c1b1b;fill-opacity:1;fill-rule:nonzero;stroke:none"
         id="path912" /><path
         d="m 1921.7711,5185.9479 h 2176.96 l -63.32,-96.24 -2113.64,14.65 v 81.59"
         style="fill:#1c1b1b;fill-opacity:1;fill-rule:nonzero;stroke:none"
         id="path914" /><path
         d="m 1921.7711,5104.3579 825.04,-1103.8 h 2154.5 l -865.9,1089.15 -2113.64,14.65"
         style="fill:#3f3e40;fill-opacity:1;fill-rule:nonzero;stroke:none"
         id="path916" /><path
         d="m 4533.0411,4633.5079 c 0,0 99.21,-34.87 -217.83,-632.95 h -26.56 c 0,0 182.79,699.46 244.39,632.95"
         style="fill:#1c1b1b;fill-opacity:1;fill-rule:nonzero;stroke:none"
         id="path918" /><path
         d="m 4305.1311,4043.2379 -16.48,-42.68 c 0,0 182.79,699.46 244.39,632.95 l -0.49,-1.29 c -54.77,27.02 -186.15,-437.31 -227.42,-588.98"
         style="fill:#1c1b1b;fill-opacity:1;fill-rule:nonzero;stroke:none"
         id="path920" /><path
         d="m 2147.5311,3857.6279 c 48.87,120.35 166.7,205.31 304.55,205.31 h 2957.1 c 137.82,0 255.35,-85 304.15,-205.31 h -3565.8"
         style="fill:#171e27;fill-opacity:1;fill-rule:nonzero;stroke:none"
         id="path922" /><path
         d="m 7867.5111,2560.7879 h 262.36 v 1356.59 h -262.36 v -1356.59"
         style="fill:#171e27;fill-opacity:1;fill-rule:nonzero;stroke:none"
         id="path924" /><path
         d="m 7944.2911,489.32791 h 108.79 V 2586.3979 h -108.79 V 489.32791"
         style="fill:#171e27;fill-opacity:1;fill-rule:nonzero;stroke:none"
         id="path926" /><path
         d="m 2505.1911,2560.7879 h 262.4 v 1356.59 h -262.4 v -1356.59"
         style="fill:#171e27;fill-opacity:1;fill-rule:nonzero;stroke:none"
         id="path928" /><path
         d="m 2583.6411,489.32791 h 108.79 l -1.66,2097.06999 h -108.79 l 1.66,-2097.06999"
         style="fill:#171e27;fill-opacity:1;fill-rule:nonzero;stroke:none"
         id="path930" /><path
         d="m 1491.0111,3706.1979 h 6987.61 v 215.16 h -6987.61 v -215.16"
         style="fill:#171e27;fill-opacity:1;fill-rule:nonzero;stroke:none"
         id="path932" /><path
         d="m 9926.5011,4000.5579 v -134.39 l -3074.8,-23.99 v 158.38 h 3074.8"
         style="fill:#8d4323;fill-opacity:1;fill-rule:nonzero;stroke:none"
         id="path934" /><path
         d="M 844.71913,3842.1779 H 6851.7011 v 158.38 H 844.71913 v -158.38"
         style="fill:#ab502e;fill-opacity:1;fill-rule:nonzero;stroke:none"
         id="path936" /><path
         d="m 7221.2211,2349.6179 h 262.37 v 1356.58 h -262.37 v -1356.58"
         style="fill:#171e27;fill-opacity:1;fill-rule:nonzero;stroke:none"
         id="path938" /><path
         d="m 7298.0011,278.17891 h 108.79 V 2375.2479 h -108.79 V 278.17891"
         style="fill:#171e27;fill-opacity:1;fill-rule:nonzero;stroke:none"
         id="path940" /><path
         d="m 1932.4711,2349.6179 h 262.4 v 1356.58 h -262.4 v -1356.58"
         style="fill:#171e27;fill-opacity:1;fill-rule:nonzero;stroke:none"
         id="path942" /><path
         d="m 2010.9311,278.17891 h 108.79 l -1.66,2097.06899 h -108.79 l 1.66,-2097.06899"
         style="fill:#171e27;fill-opacity:1;fill-rule:nonzero;stroke:none"
         id="path944" /><path
         d="m 3631.7711,322.17891 c 0,-59.019 47.85,-106.871 106.87,-106.871 59.03,0 106.9,47.852 106.9,106.871 0,59.032 -47.87,106.899 -106.9,106.899 -59.02,0 -106.87,-47.867 -106.87,-106.899"
         style="fill:#2f2e2e;fill-opacity:1;fill-rule:nonzero;stroke:none"
         id="path946" /><path
         d="m 3739.0211,215.30791 c 0.04,0 0.07,0 0.11,0 -0.04,0 -0.08,0 -0.11,0 m 0.38,0 c 0.04,0 0.08,0 0.13,0 -0.05,0 -0.09,0 -0.13,0 m 0.38,0 c 0.04,0 0.08,0 0.12,0.012 -0.04,-0.012 -0.08,-0.012 -0.12,-0.012 m 0.39,0.012 c 0.04,0 0.07,0 0.11,0 -0.04,0 -0.07,0 -0.11,0 m 0.42,0.008 c 0.02,0 0.04,0 0.06,0 -0.02,0 -0.04,0 -0.06,0 m -108.82,107.23 c 0,0.031 0,0.07 0,0.102 0,-0.032 0,-0.063 0,-0.102 m 0,0.371 c 0,0.051 0,0.09 0,0.129 0,-0.039 0,-0.09 0,-0.129 m 0,0.391 c 0,0.039 0,0.078 0.01,0.117 -0.01,-0.039 -0.01,-0.078 -0.01,-0.117 m 0.01,0.391 c 0,0.039 0,0.066 0,0.097 0,-0.031 0,-0.07 0,-0.097 m 0.01,0.398 c 0,0.031 0,0.059 0,0.078 0,-0.027 0,-0.047 0,-0.078"
         style="fill:#1f1611;fill-opacity:1;fill-rule:nonzero;stroke:none"
         id="path948" /><path
         d="m 3738.6411,215.30791 c -59.02,0 -106.87,47.852 -106.87,106.871 0,0.129 0,0.25 0,0.379 0,0.039 0,0.07 0,0.102 0,0.09 0,0.179 0,0.269 0,0.039 0,0.09 0,0.129 0,0.09 0,0.172 0,0.262 0,0.039 0,0.078 0.01,0.117 0,0.09 0,0.18 0,0.274 0,0.027 0,0.066 0,0.097 0,0.102 0,0.199 0.01,0.301 0,0.031 0,0.051 0,0.078 0.61,33.25 16.44,62.711 40.76,81.902 -14.34,-18.199 -22.97,-41.121 -22.97,-66.082 0,-59.039 47.85,-106.89 106.88,-106.89 24.98,0 47.89,8.633 66.09,22.972 -19.2,-24.32 -48.66,-40.152 -81.9,-40.761 -0.02,0 -0.04,0 -0.06,0 -0.1,-0.008 -0.21,-0.008 -0.31,-0.008 -0.04,0 -0.07,0 -0.11,0 -0.09,0 -0.18,0 -0.27,0 -0.04,-0.012 -0.08,-0.012 -0.12,-0.012 -0.08,0 -0.17,0 -0.25,0 -0.05,0 -0.09,0 -0.13,0 -0.1,0 -0.18,0 -0.27,0 -0.04,0 -0.07,0 -0.11,0 -0.12,0 -0.25,0 -0.38,0 v 0"
         style="fill:#141311;fill-opacity:1;fill-rule:nonzero;stroke:none"
         id="path950" /><path
         d="m 2310.2311,369.69891 c 0,-59.02 47.85,-106.871 106.85,-106.871 59.04,0 106.9,47.851 106.9,106.871 0,59.012 -47.86,106.851 -106.9,106.851 -59,0 -106.85,-47.839 -106.85,-106.851"
         style="fill:#2f2e2e;fill-opacity:1;fill-rule:nonzero;stroke:none"
         id="path952" /><path
         d="m 2417.4611,262.82791 c 0.03,0 0.07,0 0.1,0 -0.03,0 -0.07,0 -0.1,0 m 0.37,0 c 0.05,0 0.09,0 0.13,0 -0.04,0 -0.09,0 -0.13,0 m 0.4,0 c 0.03,0 0.07,0 0.1,0 -0.03,0 -0.07,0 -0.1,0 m 0.38,0.011 c 0.04,0 0.07,0 0.11,0 -0.04,0 -0.07,0 -0.11,0 m 0.43,0 c 0.01,0 0.03,0 0.04,0 -0.01,0 -0.03,0 -0.04,0 m -108.81,107.239 c 0,0.031 0,0.07 0,0.101 0,-0.031 0,-0.062 0,-0.101 m 0,0.371 c 0,0.051 0,0.09 0,0.129 0,-0.039 0,-0.09 0,-0.129 m 0,0.39 c 0,0.039 0,0.079 0,0.118 0,-0.039 0,-0.079 0,-0.118 m 0.01,0.399 c 0,0.031 0,0.058 0,0.09 0,-0.032 0,-0.059 0,-0.09 m 0,0.402 c 0,0.02 0,0.047 0,0.067 0,-0.02 0,-0.047 0,-0.067"
         style="fill:#1f1611;fill-opacity:1;fill-rule:nonzero;stroke:none"
         id="path954" /><path
         d="m 2417.0811,262.82791 c -59,0 -106.85,47.851 -106.85,106.871 0,0.129 0,0.25 0,0.379 0,0.039 0,0.07 0,0.101 0,0.09 0,0.18 0,0.27 0,0.039 0,0.09 0,0.129 0,0.09 0,0.172 0,0.261 0,0.039 0,0.079 0,0.118 0,0.093 0.01,0.183 0.01,0.281 0,0.031 0,0.058 0,0.09 0,0.101 0,0.211 0,0.312 0,0.02 0,0.047 0,0.067 0.62,33.222 16.45,62.691 40.77,81.902 -14.34,-18.211 -22.97,-41.141 -22.97,-66.121 0,-59 47.83,-106.848 106.87,-106.848 24.96,0 47.89,8.629 66.08,22.988 -19.17,-24.32 -48.64,-40.171 -81.91,-40.789 -0.01,0 -0.03,0 -0.04,0 -0.11,0 -0.22,0 -0.32,0 -0.04,0 -0.07,0 -0.11,0 -0.09,-0.011 -0.18,-0.011 -0.28,-0.011 -0.03,0 -0.07,0 -0.1,0 -0.09,0 -0.18,0 -0.27,0 -0.04,0 -0.08,0 -0.13,0 -0.09,0 -0.18,0 -0.27,0 -0.03,0 -0.07,0 -0.1,0 -0.13,0 -0.25,0 -0.38,0 v 0"
         style="fill:#141311;fill-opacity:1;fill-rule:nonzero;stroke:none"
         id="path956" /><path
         d="m 4127.5511,351.88991 c 0,-59.019 47.85,-106.883 106.87,-106.883 59.03,0 106.88,47.864 106.88,106.883 0,59.02 -47.85,106.867 -106.88,106.867 -59.02,0 -106.87,-47.847 -106.87,-106.867"
         style="fill:#2f2e2e;fill-opacity:1;fill-rule:nonzero;stroke:none"
         id="path958" /><path
         d="m 4234.8011,245.00691 c 0.04,0 0.07,0 0.11,0 -0.04,0 -0.07,0 -0.11,0 m 0.38,0.012 c 0.04,0 0.08,0 0.13,0 -0.05,0 -0.09,0 -0.13,0 m 0.39,0 c 0.03,0 0.07,0 0.11,0 -0.04,0 -0.08,0 -0.11,0 m 0.38,0 c 0.04,0 0.08,0 0.11,0.008 -0.04,-0.008 -0.07,-0.008 -0.11,-0.008 m 0.42,0.008 c 0.02,0 0.04,0 0.06,0 -0.02,0 -0.04,0 -0.06,0 m -108.82,107.242 c 0,0.031 0,0.07 0,0.098 0,-0.028 0,-0.067 0,-0.098 m 0,0.371 c 0,0.039 0,0.09 0,0.129 0,-0.039 0,-0.09 0,-0.129 m 0.01,0.387 c 0,0.043 0,0.082 0,0.121 0,-0.039 0,-0.078 0,-0.121 m 0,0.402 c 0,0.028 0,0.051 0,0.078 0,-0.027 0,-0.05 0,-0.078 m 0.01,0.43 c 0,0.008 0,0.019 0,0.031 0,-0.012 0,-0.031 0,-0.031"
         style="fill:#1f1611;fill-opacity:1;fill-rule:nonzero;stroke:none"
         id="path960" /><path
         d="m 4234.4211,245.00691 c -59.02,0 -106.87,47.864 -106.87,106.883 0,0.129 0,0.246 0,0.379 0,0.031 0,0.07 0,0.098 0,0.094 0,0.179 0,0.273 0,0.039 0,0.09 0,0.129 0,0.078 0,0.168 0.01,0.258 0,0.043 0,0.082 0,0.121 0,0.09 0,0.191 0,0.281 0,0.028 0,0.051 0,0.078 0,0.121 0.01,0.231 0.01,0.352 0,0 0,0.019 0,0.031 0.61,33.238 16.46,62.699 40.76,81.887 -14.33,-18.207 -22.97,-41.117 -22.97,-66.078 0,-59.02 47.85,-106.871 106.88,-106.871 24.98,0 47.89,8.629 66.07,22.972 -19.18,-24.32 -48.64,-40.152 -81.88,-40.773 -0.02,0 -0.04,0 -0.06,0 -0.1,0 -0.21,0 -0.31,0 -0.03,-0.008 -0.07,-0.008 -0.11,-0.008 -0.09,0 -0.18,0 -0.27,0 -0.04,0 -0.08,0 -0.11,0 -0.09,0 -0.18,0 -0.26,0 -0.05,0 -0.09,0 -0.13,0 -0.09,0 -0.18,-0.012 -0.27,-0.012 -0.04,0 -0.07,0 -0.11,0 -0.12,0 -0.25,0 -0.38,0 v 0"
         style="fill:#141311;fill-opacity:1;fill-rule:nonzero;stroke:none"
         id="path962" /><path
         d="m 3691.1211,2554.7179 h 670.94 l 65.33,-2185.01899 h -736.27 V 2554.7179"
         style="fill:#63341e;fill-opacity:1;fill-rule:nonzero;stroke:none"
         id="path964" /><path
         d="m 2194.8511,2554.7179 h 1496.27 V 369.69891 l -1466.56,29.691 -29.71,2155.32799"
         style="fill:#a54f29;fill-opacity:1;fill-rule:nonzero;stroke:none"
         id="path966" /><path
         d="m 2263.1211,2450.7879 h 1359.74 V 369.69891 l -1332.77,28.281 -26.97,2052.80799"
         style="fill:#2f2e2e;fill-opacity:1;fill-rule:nonzero;stroke:none"
         id="path968" /><path
         d="m 5523.8411,1113.2879 c 0,0 368.79,24.32 341.49,291.96 0,0 282.71,-207.09 192.71,-522.08799 0,0 -353.4,-129.711 -534.2,230.12799"
         style="fill:#ffffff;fill-opacity:1;fill-rule:nonzero;stroke:none"
         id="path970" /><path
         d="m 1760.4911,2030.8079 -235.22,21.02 -83.97,-336.04 243.58,-104.94 231,239.34 -155.39,180.62"
         style="fill:#e5e5e6;fill-opacity:1;fill-rule:nonzero;stroke:none"
         id="path972" /><path
         d="m 1420.2911,2063.7379 -235.17,21.02 -84.02,-336.02 243.59,-104.96 230.98,239.38 -155.38,180.58"
         style="fill:#e5e5e6;fill-opacity:1;fill-rule:nonzero;stroke:none"
         id="path974" /><path
         d="m 1285.9111,1810.3279 -235.21,21.01 -83.97097,-336.01 243.55097,-104.97 231.02,239.36 -155.39,180.61"
         style="fill:#ebeae9;fill-opacity:1;fill-rule:nonzero;stroke:none"
         id="path976" /><path
         d="m 1721.9711,1810.3279 -235.2,21.01 -83.98,-336.01 243.59,-104.97 230.98,239.36 -155.39,180.61"
         style="fill:#cdeef3;fill-opacity:1;fill-rule:nonzero;stroke:none"
         id="path978" /><path
         d="m 1523.1811,1939.0979 -235.2,21.03 -83.99,-336.03 243.59,-104.97 230.99,239.37 -155.39,180.6"
         style="fill:#bfbebc;fill-opacity:1;fill-rule:nonzero;stroke:none"
         id="path980" /><path
         d="M 1915.8811,311.62791 H 837.92913 V 1314.6179 H 1915.8811 V 311.62791"
         style="fill:#bdbcba;fill-opacity:1;fill-rule:nonzero;stroke:none"
         id="path982" /><path
         d="M 1970.4811,1314.6179 H 783.34413 v 302.42 H 1970.4811 v -302.42"
         style="fill:#bdbfb9;fill-opacity:1;fill-rule:nonzero;stroke:none"
         id="path984" /><path
         d="M 1915.8811,1314.6179 H 837.92913 v -85.36 H 1915.8811 v 85.36"
         style="fill:#939791;fill-opacity:1;fill-rule:nonzero;stroke:none"
         id="path986" /><path
         d="m 525.73413,731.59691 -235.207,20.992 -83.98,-336 243.589,-104.961 230.981,239.36 -155.383,180.609"
         style="fill:#bdbcba;fill-opacity:1;fill-rule:nonzero;stroke:none"
         id="path988" /><path
         d="m 9328.9611,387.93691 c 0,0 28.59,-60.34 231.52,16.391 40.62,42.25 49.17,126.441 54.98,181.34 18.8,156.71 37.59,313.382 37.59,473.19999 0,235.03 -28.23,454.41 -84.63,680.04 -28.2,122.22 -59.54,238.16 -78.35,363.52 -18.78,103.41 -9.39,191.16 -12.53,294.58 l -4.18,5.23 c -26.08,-12.53 -46.99,-33.44 -63.71,-58.5 -18.79,-26.13 -27.17,-60.6 -44.92,-85.67 l -3.13,2.09 c -56.39,18.82 -115.96,49.08 -177.58,56.42 -41.78,4.18 -90.87,2.09 -132.67,-3.13 -28.2,-3.14 -56.41,-8.38 -83.56,-17.77 -19.84,-6.26 -43.86,-22.98 -63.72,-22.98 v 3.13 c -7.3,25.07 -14.63,50.17 -32.39,69.98 -29.26,32.4 -64.77,39.71 -106.56,44.93 l 0.04,-2.08 c 91.88,-83.59 50.13,-405.35 37.59,-522.32 -12.53,-108.63 -41.79,-213.08 -50.15,-321.74 -8.34,-108.62 0,-225.6 -4.18,-334.27 -4.16,-121.16 0,-246.51999 0,-367.66799 0,-137.903 -37.6,-229.813 -75.2,-355.192 -351,-41.789 -334.28,367.719 -313.38,618.43999 9.98,139.65 19.86,281.94 -50.22,399.51 -89.67,46.1 -225.58,135.66 -260.01,40.87 22.5,-0.5 44.17,-0.73 59.5,-5.88 50.15,-12.49 112.84,-58.45 137.9,-108.6 41.79,-87.75 16.71,-233.98 8.38,-330.1 -20.9,-225.64999 -58.52,-555.71999 137.88,-710.31799 75.22,-58.512 196.36,-54.34 284.12,-58.512 75.21,-4.179 158.78,-8.359 229.81,-4.179 l 3.99,0.32 c 14.36,11.68 451.89,17.09 456.69,30.231"
         style="fill:#1c1b1b;fill-opacity:1;fill-rule:nonzero;stroke:none"
         id="path990" /><path
         d="m 9050.1211,506.66791 c -24.92,-21.25 -54.94,-38.129 -78.7,-65.129 -47,-53.282 43.9,-64.239 81.51,-65.821 48.57,-1.57 83.03,14.121 97.14,64.231 10.83,36.508 11.12,75.379 11,113.539 -38.82,-13.211 -77.61,-34.789 -110.95,-46.82"
         style="fill:#ffffff;fill-opacity:1;fill-rule:nonzero;stroke:none"
         id="path992" /><path
         d="m 9289.5211,521.43691 c -2.83,7.223 -5,14.762 -6.84,22.461 -3.03,1.5 -6.07,3.18 -9.15,5.223 -29.11,19.507 -62.46,18.586 -96.43,9.308 0.95,-10.769 1.96,-21.601 2.73,-32.289 3.14,-36.043 6.28,-108.121 39.19,-131.633 25.06,-17.207 115.95,-20.359 133.19,9.422 29.78,53.278 -45.46,75.199 -62.69,117.508"
         style="fill:#ffffff;fill-opacity:1;fill-rule:nonzero;stroke:none"
         id="path994" /><path
         d="m 9199.7011,1720.1079 c -33.43,37.6 -87.75,29.25 -125.35,8.35 -79.41,-41.77 -79.41,-129.53 -79.41,-208.92 0,-112.82 4.19,-401.11 121.18,-447.08 167.12,-62.66 246.54,62.67 267.42,217.27 16.71,121.18 -25.08,421.99 -175.48,442.91"
         style="fill:#ffffff;fill-opacity:1;fill-rule:nonzero;stroke:none"
         id="path996" /><path
         d="m 8968.9211,2121.9379 c 2.5,-9.9 5.5,-19.99 5.72,-30.31 0.43,-20.17 31.75,-20.19 31.34,0 -0.3,13.11 -3.67,26.02 -6.82,38.64 -4.9,19.63 -35.15,11.31 -30.24,-8.33"
         style="fill:#ffffff;fill-opacity:1;fill-rule:nonzero;stroke:none"
         id="path998" /><path
         d="m 9222.1911,2152.7679 c 0,-7.85 0,-15.69 0,-23.52 0,-20.21 31.34,-20.21 31.34,0 0,7.83 0,15.67 0,23.52 0,20.2 -31.34,20.2 -31.34,0"
         style="fill:#ffffff;fill-opacity:1;fill-rule:nonzero;stroke:none"
         id="path1000" /><path
         d="m 9126.6411,2047.7779 c 3.69,-0.14 -3.65,0.83 0.34,-0.07 1.31,-0.29 2.53,-0.77 3.78,-1.22 -3.67,1.34 5.65,-3.95 2.76,-1.65 1.05,-0.84 1.95,-1.8 2.88,-2.79 -2.53,2.77 0.32,-2.33 -1.11,1.76 -0.66,1.91 0,3.93 0.82,5.62 1.4,2.87 -2.24,-1.29 1.33,1.17 l 1.85,0.73 c -1.65,-0.43 -1.31,-0.43 1.06,0.04 -3.63,-0.3 3.38,-0.88 -0.32,-0.04 -3.76,0.87 2.79,-1.56 -0.74,0.2 -0.66,0.31 -3.82,2.63 -0.88,0.28 -0.61,0.47 -3.18,3.44 -0.77,0.29 -0.7,0.89 -1.79,3.97 -0.44,0.22 -0.95,2.68 -0.02,-2.15 -0.21,-3 l -0.74,-1.61 c 0.88,1.43 0.85,1.39 -0.1,-0.06 5.76,6.32 6.25,15.93 0,22.16 -5.86,5.83 -16.42,6.34 -22.16,0 -10.81,-11.83 -9.74,-26.79 0.53,-38.55 8.9,-10.11 25.67,-14.61 37.8,-8.2 13.48,7.08 18.18,24.39 9.46,36.99 -7.75,11.19 -21.59,18.53 -35.14,19.05 -8.55,0.36 -15.68,-7.34 -15.68,-15.66 0,-8.77 7.13,-15.32 15.68,-15.66"
         style="fill:#ffffff;fill-opacity:1;fill-rule:nonzero;stroke:none"
         id="path1002" /><path
         d="m 9120.3711,2044.6579 c -0.42,-48.59 13.03,-95.72 14.09,-144.17 0.46,-20.18 31.77,-20.23 31.34,0 -1.06,48.45 -14.51,95.62 -14.11,144.17 0.19,20.21 -31.18,20.2 -31.32,0"
         style="fill:#ffffff;fill-opacity:1;fill-rule:nonzero;stroke:none"
         id="path1004" /><path
         d="m 9260.9211,2006.7879 c 38.97,17.05 69.91,46.48 106.48,67.79 58.04,33.82 141.7,44.9 207.11,52.34 9.95,1.13 10.04,16.78 0,15.65 -60.19,-6.87 -118.32,-19.86 -175.86,-38.82 -55.03,-18.11 -93.52,-60.58 -145.62,-83.4 -9.24,-4.06 -1.29,-17.54 7.89,-13.56"
         style="fill:#ffffff;fill-opacity:1;fill-rule:nonzero;stroke:none"
         id="path1006" /><path
         d="m 9263.2211,1961.8279 c 96.17,8.96 191.6,23.87 288.32,25.11 10.11,0.1 10.11,15.77 0,15.67 -96.72,-1.24 -192.15,-16.11 -288.32,-25.11 -9.96,-0.9 -10.06,-16.57 0,-15.67"
         style="fill:#ffffff;fill-opacity:1;fill-rule:nonzero;stroke:none"
         id="path1008" /><path
         d="m 9282.0411,1922.4379 c 36.75,-8.48 73.89,-14.94 110.73,-22.97 9.86,-2.13 14.04,12.95 4.15,15.1 -36.83,8.06 -73.95,14.52 -110.71,22.98 -9.82,2.25 -14.02,-12.86 -4.17,-15.11"
         style="fill:#ffffff;fill-opacity:1;fill-rule:nonzero;stroke:none"
         id="path1010" /><path
         d="m 9010.4211,2002.2979 c -116.32,24.98 -236.77,24.92 -350.96,-10.43 -9.64,-2.97 -5.5,-18.14 4.15,-15.12 111.62,34.55 228.96,34.85 342.66,10.44 9.86,-2.12 14.06,13 4.15,15.11"
         style="fill:#ffffff;fill-opacity:1;fill-rule:nonzero;stroke:none"
         id="path1012" /><path
         d="m 8933.1611,1967.0779 c -78.65,1.78 -148.7,-34.95 -208.2,-83.77 -7.83,-6.4 3.32,-17.45 11.08,-11.09 56.25,46.13 122.75,80.85 197.12,79.19 10.12,-0.22 10.08,15.43 0,15.67"
         style="fill:#ffffff;fill-opacity:1;fill-rule:nonzero;stroke:none"
         id="path1014" /><path
         d="m 8949.8811,1906.4779 c -68.67,3.76 -103.33,-54.89 -143.43,-100.48 -6.64,-7.53 4.39,-18.67 11.05,-11.08 36.83,41.85 68.86,99.33 132.38,95.91 10.08,-0.55 10.04,15.13 0,15.65"
         style="fill:#ffffff;fill-opacity:1;fill-rule:nonzero;stroke:none"
         id="path1016" /></g></g></svg>
