<?xml version="1.0" encoding="UTF-8" standalone="no"?>
<!DOCTYPE svg PUBLIC "-//W3C//DTD SVG 1.1//EN" "http://www.w3.org/Graphics/SVG/1.1/DTD/svg11.dtd">
<svg xmlns="http://www.w3.org/2000/svg" version="1.1" viewBox="0.00 0.00 336.00 828.00">
<g stroke-width="2.00" fill="none" stroke-linecap="butt">
<path stroke="#5b5e5b" stroke-opacity="0.996" vector-effect="non-scaling-stroke" d="
  M 171.00 7.61
  L 164.54 7.99
  Q 163.98 8.03 163.98 8.59
  L 163.94 184.65
  Q 163.94 185.38 163.24 185.56
  Q 162.34 185.80 161.53 186.27
  Q 87.32 229.21 13.05 272.05
  C 10.68 273.42 7.96 274.40 7.96 277.56
  Q 8.05 330.04 7.99 447.99
  C 7.99 450.93 7.36 455.26 8.15 459.10
  Q 8.25 459.61 8.70 459.87
  L 163.45 549.22
  Q 163.92 549.49 163.92 550.03
  L 163.97 723.65
  A 1.15 1.15 0.0 0 1 163.39 724.65
  L 11.31 812.51
  A 1.15 1.14 60.6 0 0 10.88 814.06
  L 13.19 818.27
  A 1.26 1.26 0.0 0 0 14.93 818.75
  L 166.78 731.04
  Q 167.24 730.77 167.71 731.04
  L 319.08 818.43"
/>
<path stroke="#5b5e5b" stroke-opacity="0.996" vector-effect="non-scaling-stroke" d="
  M 171.59 184.80
  L 170.24 185.47
  Q 169.83 185.67 170.29 185.66
  Q 170.53 185.66 170.80 185.59
  A 1.27 1.26 -36.3 0 1 171.74 185.73
  L 325.38 274.43
  Q 325.84 274.69 326.06 275.17
  Q 326.48 276.09 327.19 276.02"
/>
<path stroke="#5b5e5b" stroke-opacity="0.996" vector-effect="non-scaling-stroke" d="
  M 326.97 459.16
  L 171.44 548.96
  A 0.92 0.92 0.0 0 0 170.98 549.68
  Q 170.95 550.02 171.22 549.98"
/>
<path stroke="#5b5e5b" stroke-opacity="0.996" vector-effect="non-scaling-stroke" d="
  M 170.95 724.51
  L 323.68 812.76
  A 0.71 0.70 30.3 0 1 323.94 813.73
  L 321.15 818.49
  Q 320.89 818.94 320.37 818.95
  Q 319.68 818.96 319.08 818.43"
/>
<path stroke="#5b5e5b" stroke-opacity="0.996" vector-effect="non-scaling-stroke" d="
  M 317.71 278.84
  Q 317.85 278.78 317.93 278.67
  Q 318.07 278.49 317.87 278.38
  L 167.46 191.54
  Q 167.23 191.40 167.00 191.54
  L 15.27 279.13
  A 0.56 0.55 75.0 0 0 15.00 279.61
  L 15.05 454.73
  Q 15.05 455.25 15.50 455.51
  L 166.86 542.94
  Q 167.21 543.14 167.70 542.86
  L 317.37 456.36
  Q 317.57 456.25 317.43 456.07
  Q 317.35 455.97 317.22 455.91"
/>
<path stroke="#5b5e5b" stroke-opacity="0.996" vector-effect="non-scaling-stroke" d="
  M 292.1154 293.1990
  A 0.50 0.50 0.0 0 0 291.9324 292.5160
  L 169.5976 221.8860
  A 0.50 0.50 0.0 0 0 168.9146 222.0690
  L 165.8246 227.4210
  A 0.50 0.50 0.0 0 0 166.0076 228.1040
  L 288.3424 298.7340
  A 0.50 0.50 0.0 0 0 289.0254 298.5510
  L 292.1154 293.1990"
/>
<path stroke="#5b5e5b" stroke-opacity="0.996" vector-effect="non-scaling-stroke" d="
  M 289.2910 436.1251
  A 0.80 0.80 0.0 0 0 288.1982 435.8323
  L 166.2618 506.2323
  A 0.80 0.80 0.0 0 0 165.9690 507.3251
  L 168.7690 512.1749
  A 0.80 0.80 0.0 0 0 169.8618 512.4677
  L 291.7982 442.0677
  A 0.80 0.80 0.0 0 0 292.0910 440.9749
  L 289.2910 436.1251"
/>
</g>
<path fill="#b7bdb7" fill-opacity="0.988" d="
  M 171.00 7.61
  L 164.54 7.99
  Q 163.98 8.03 163.98 8.59
  L 163.94 184.65
  Q 163.94 185.38 163.24 185.56
  Q 162.34 185.80 161.53 186.27
  Q 87.32 229.21 13.05 272.05
  C 10.68 273.42 7.96 274.40 7.96 277.56
  Q 8.05 330.04 7.99 447.99
  C 7.99 450.93 7.36 455.26 8.15 459.10
  Q 8.25 459.61 8.70 459.87
  L 163.45 549.22
  Q 163.92 549.49 163.92 550.03
  L 163.97 723.65
  A 1.15 1.15 0.0 0 1 163.39 724.65
  L 11.31 812.51
  A 1.15 1.14 60.6 0 0 10.88 814.06
  L 13.19 818.27
  A 1.26 1.26 0.0 0 0 14.93 818.75
  L 166.78 731.04
  Q 167.24 730.77 167.71 731.04
  L 319.08 818.43
  Q 318.94 818.78 318.75 818.78
  L 167.79 731.87
  Q 167.33 731.61 166.88 731.87
  L 14.28 820.01
  A 0.73 0.72 -30.0 0 1 13.30 819.75
  L 10.14 814.46
  A 1.85 1.85 0.0 0 1 10.80 811.91
  L 161.19 725.06
  A 3.60 3.60 0.0 0 0 162.99 721.94
  L 163.00 550.07
  Q 163.00 549.68 162.66 549.48
  Q 87.11 506.07 11.77 462.39
  C 9.54 461.09 7.00 461.07 7.00 457.76
  Q 7.00 367.14 7.00 277.03
  A 4.07 4.05 75.1 0 1 9.03 273.51
  L 162.65 184.86
  Q 163.00 184.66 163.00 184.25
  L 163.00 8.02
  A 0.90 0.90 0.0 0 1 163.77 7.13
  Q 167.75 6.52 171.00 7.61
  Z"
/>
<path fill="#000000" d="
  M 171.00 7.61
  Q 171.00 93.79 171.00 179.61
  C 171.00 181.15 170.30 183.20 171.59 184.80
  L 170.24 185.47
  Q 169.83 185.67 170.29 185.66
  Q 170.53 185.66 170.80 185.59
  A 1.27 1.26 -36.3 0 1 171.74 185.73
  L 325.38 274.43
  Q 325.84 274.69 326.06 275.17
  Q 326.48 276.09 327.19 276.02
  L 326.97 459.16
  L 171.44 548.96
  A 0.92 0.92 0.0 0 0 170.98 549.68
  Q 170.95 550.02 171.22 549.98
  C 170.43 552.83 170.99 555.50 170.99 557.74
  Q 171.04 640.75 170.95 724.51
  L 323.68 812.76
  A 0.71 0.70 30.3 0 1 323.94 813.73
  L 321.15 818.49
  Q 320.89 818.94 320.37 818.95
  Q 319.68 818.96 319.08 818.43
  L 167.71 731.04
  Q 167.24 730.77 166.78 731.04
  L 14.93 818.75
  A 1.26 1.26 0.0 0 1 13.19 818.27
  L 10.88 814.06
  A 1.15 1.14 60.6 0 1 11.31 812.51
  L 163.39 724.65
  A 1.15 1.15 0.0 0 0 163.97 723.65
  L 163.92 550.03
  Q 163.92 549.49 163.45 549.22
  L 8.70 459.87
  Q 8.25 459.61 8.15 459.10
  C 7.36 455.26 7.99 450.93 7.99 447.99
  Q 8.05 330.04 7.96 277.56
  C 7.96 274.40 10.68 273.42 13.05 272.05
  Q 87.32 229.21 161.53 186.27
  Q 162.34 185.80 163.24 185.56
  Q 163.94 185.38 163.94 184.65
  L 163.98 8.59
  Q 163.98 8.03 164.54 7.99
  L 171.00 7.61
  Z
  M 317.22 455.91
  L 318.59 455.07
  A 0.88 0.87 -16.4 0 0 319.00 454.33
  L 319.00 279.97
  Q 319.00 279.58 318.66 279.39
  L 317.71 278.84
  Q 317.85 278.78 317.93 278.67
  Q 318.07 278.49 317.87 278.38
  L 167.46 191.54
  Q 167.23 191.40 167.00 191.54
  L 15.27 279.13
  A 0.56 0.55 75.0 0 0 15.00 279.61
  L 15.05 454.73
  Q 15.05 455.25 15.50 455.51
  L 166.86 542.94
  Q 167.21 543.14 167.70 542.86
  L 317.37 456.36
  Q 317.57 456.25 317.43 456.07
  Q 317.35 455.97 317.22 455.91
  Z"
/>
<path fill="#b7bdb7" fill-opacity="0.988" d="
  M 171.59 184.80
  Q 249.04 229.54 326.51 274.24
  Q 327.02 274.54 327.19 276.02
  Q 326.48 276.09 326.06 275.17
  Q 325.84 274.69 325.38 274.43
  L 171.74 185.73
  A 1.27 1.26 -36.3 0 0 170.80 185.59
  Q 170.53 185.66 170.29 185.66
  Q 169.83 185.67 170.24 185.47
  L 171.59 184.80
  Z"
/>
<path fill="#b7bdb7" fill-opacity="0.988" d="
  M 317.71 278.84
  L 168.05 192.41
  Q 167.55 192.12 167.04 192.41
  L 16.53 279.28
  A 1.07 1.06 -15.3 0 0 16.00 280.20
  L 16.00 454.02
  A 1.66 1.65 15.2 0 0 16.83 455.45
  L 166.61 541.98
  Q 167.14 542.28 167.67 541.98
  L 317.22 455.91
  Q 317.35 455.97 317.43 456.07
  Q 317.57 456.25 317.37 456.36
  L 167.70 542.86
  Q 167.21 543.14 166.86 542.94
  L 15.50 455.51
  Q 15.05 455.25 15.05 454.73
  L 15.00 279.61
  A 0.56 0.55 75.0 0 1 15.27 279.13
  L 167.00 191.54
  Q 167.23 191.40 167.46 191.54
  L 317.87 278.38
  Q 318.07 278.49 317.93 278.67
  Q 317.85 278.78 317.71 278.84
  Z"
/>
<path fill="#b7bdb7" fill-opacity="0.988" d="
  M 289.3859 299.5759
  A 0.50 0.50 0.0 0 1 288.7029 299.7589
  L 165.0171 228.3489
  A 0.50 0.50 0.0 0 1 164.8341 227.6659
  L 168.6341 221.0841
  A 0.50 0.50 0.0 0 1 169.3171 220.9011
  L 293.0029 292.3111
  A 0.50 0.50 0.0 0 1 293.1859 292.9941
  L 289.3859 299.5759
  Z
  M 292.1154 293.1990
  A 0.50 0.50 0.0 0 0 291.9324 292.5160
  L 169.5976 221.8860
  A 0.50 0.50 0.0 0 0 168.9146 222.0690
  L 165.8246 227.4210
  A 0.50 0.50 0.0 0 0 166.0076 228.1040
  L 288.3424 298.7340
  A 0.50 0.50 0.0 0 0 289.0254 298.5510
  L 292.1154 293.1990
  Z"
/>
<rect fill="#000000" x="-71.13" y="-3.59" transform="translate(228.97,260.31) rotate(30.0)" width="142.26" height="7.18" rx="0.50"/>
<path fill="#b7bdb7" fill-opacity="0.988" d="
  M 292.8769 440.8114
  A 1.31 1.31 0.0 0 1 292.3974 442.6009
  L 170.0626 513.2309
  A 1.31 1.31 0.0 0 1 168.2731 512.7514
  L 165.2231 507.4686
  A 1.31 1.31 0.0 0 1 165.7026 505.6791
  L 288.0374 435.0491
  A 1.31 1.31 0.0 0 1 289.8269 435.5286
  L 292.8769 440.8114
  Z
  M 289.2910 436.1251
  A 0.80 0.80 0.0 0 0 288.1982 435.8323
  L 166.2618 506.2323
  A 0.80 0.80 0.0 0 0 165.9690 507.3251
  L 168.7690 512.1749
  A 0.80 0.80 0.0 0 0 169.8618 512.4677
  L 291.7982 442.0677
  A 0.80 0.80 0.0 0 0 292.0910 440.9749
  L 289.2910 436.1251
  Z"
/>
<rect fill="#000000" x="-71.20" y="-3.60" transform="translate(229.03,474.15) rotate(-30.0)" width="142.40" height="7.20" rx="0.80"/>
<path fill="#b7bdb7" fill-opacity="0.988" d="
  M 326.97 459.16
  Q 327.19 459.86 326.19 460.44
  Q 248.72 505.25 171.22 549.98
  Q 170.95 550.02 170.98 549.68
  A 0.92 0.92 0.0 0 1 171.44 548.96
  L 326.97 459.16
  Z"
/>
<path fill="#b7bdb7" fill-opacity="0.988" d="
  M 170.95 724.51
  Q 172.50 724.71 175.55 726.47
  Q 250.06 769.51 324.61 812.50
  A 0.56 0.55 -65.2 0 1 324.85 813.16
  Q 323.64 816.70 321.09 819.41
  Q 320.71 819.81 320.22 819.55
  L 318.75 818.78
  Q 318.94 818.78 319.08 818.43
  Q 319.68 818.96 320.37 818.95
  Q 320.89 818.94 321.15 818.49
  L 323.94 813.73
  A 0.71 0.70 30.3 0 0 323.68 812.76
  L 170.95 724.51
  Z"
/>
</svg>
