<?xml version="1.0" encoding="UTF-8" standalone="no"?>
<svg
   xmlns="http://www.w3.org/2000/svg"
   version="1.0"
   viewBox="0 0 215 118" height="32.61133mm" width="59.41895mm">
  <g font-size="12pt" transform="translate(-123,-197)"
     font-family="Sans" stroke-linecap="round">
    <g stroke-width="1.0" stroke="#000000">
      <path d="M 148.3,280.7 L 135.6,258.7M 287.6,215.1 L 262.2,215.1M 249.6,237 L 224.3,237M 262.2,258.8 L 287.6,258.8M 249.6,237 L 262.2,258.8M 220,234.5 L 224.3,232M 217.8,230.8 L 222.2,228.3M 215.8,227.2 L 220.1,224.7M 213.7,223.6 L 218,221.1M 211.6,219.8 L 215.8,217.3M 209.5,216.3 L 213.8,213.8M 211.6,258.8 L 186.3,258.8M 224.3,237 L 211.6,258.8M 262.2,215.1 L 249.6,237M 287.6,258.8 L 300.2,237M 284,253.2 L 293.5,236.7M 245.5,234.8 L 249.8,232.3M 243.6,231.6 L 248,229.1M 241.7,228.3 L 246.1,225.8M 239.8,224.8 L 244.1,222.3M 237.8,221.6 L 242.2,219.1M 300.2,237 L 325.6,237M 186.3,258.8 L 173.6,280.7M 300.2,237 L 287.6,215.1M 148.3,280.7 L 135.6,302.7M 173.6,280.7 L 148.3,280.7M 170.3,274.7 L 151.3,274.7" />
      <polygon points="224.3 237.5 205.9 239.4 206.0 234.4 224.3 236.5"
         fill="#000000" />
    </g>
    <text x="232.3" y="218.0" fill="#000000">H</text>
    <text x="180.5" y="242.0" fill="#000000">HO</text>
  </g>
</svg>
