<?xml version="1.0" encoding="UTF-8" standalone="no"?>
<svg xmlns:svg="http://www.w3.org/2000/svg" xmlns="http://www.w3.org/2000/svg" version="1.0" width="975" height="320.5" xml:space="preserve">
<g transform="translate(50,50)">
<polygon points="130.5,141.5 126.5,144 122.5,141.5 122.5,0 126.5,0 130.5,0 130.5,141.5" />
<polygon points="251,211 251,220.5 126.5,148.5 126.5,144 130.5,141.5 251,211" />
<polygon points="4,219 2,215.5 0,212.5 122.5,141.5 126.5,144 126.5,148.5 4,219" />
<polygon points="375.5,139 375.5,148.5 251,220.5 251,211 375.5,139" />
<polygon points="500,211 500,220.5 375.5,148.5 375.5,139 500,211" />
<polygon points="624.5,139.5 624.5,148.5 500,220.5 500,211 624.5,139.5" />
<polygon points="749,211 749,220.5 624.5,148.5 624.5,139.5 749,211" />
<polygon points="871,140.5 873,144 875,147.5 749,220.5 749,211 871,140.5" />
<polygon points="858,118 862,125 751,189.5 747,182.5 858,118" />
<rect width="8" height="113.8" x="197.7" y="100.6" transform="matrix(0.4964,-0.8681,0.8681,0.4964,-35.122,254.4576)" />
<rect width="8" height="151" x="607.5" y="0.5" />
<rect width="8" height="151" x="633.5" y="0.5" />
</g>
</svg>
