<?xml version="1.0" encoding="UTF-8" standalone="no"?>
<!DOCTYPE svg PUBLIC "-//W3C//DTD SVG 1.1//EN" "http://www.w3.org/Graphics/SVG/1.1/DTD/svg11.dtd">
<svg xmlns="http://www.w3.org/2000/svg" version="1.1" viewBox="0.00 0.00 336.00 828.00">
<g stroke-width="2.00" fill="none" stroke-linecap="butt">
<path stroke="#5e625f" stroke-opacity="0.996" vector-effect="non-scaling-stroke" d="
  M 155.14 7.91
  L 147.04 8.33"
/>
<path stroke="#5e625f" stroke-opacity="0.996" vector-effect="non-scaling-stroke" d="
  M 326.97 459.16
  L 171.44 548.96
  A 0.92 0.92 0.0 0 0 170.98 549.68
  Q 170.95 550.02 171.22 549.98"
/>
<path stroke="#5e625f" stroke-opacity="0.996" vector-effect="non-scaling-stroke" d="
  M 170.95 724.51
  L 323.68 812.76
  A 0.71 0.70 30.3 0 1 323.94 813.73
  L 321.14 818.50
  Q 320.88 818.94 320.37 818.95
  Q 319.68 818.95 319.07 818.44"
/>
<path stroke="#5e625f" stroke-opacity="0.996" vector-effect="non-scaling-stroke" d="
  M 319.07 818.44
  L 167.82 730.95
  Q 167.37 730.70 166.93 730.95
  L 14.93 818.75
  A 1.26 1.26 0.0 0 1 13.19 818.27
  L 10.88 814.06
  A 1.15 1.14 60.6 0 1 11.31 812.51
  L 163.23 724.74
  A 0.87 0.86 76.2 0 0 163.67 724.00
  C 164.84 666.06 164.11 607.88 163.74 549.97
  Q 163.74 549.39 163.24 549.10
  L 9.21 460.16
  A 2.49 2.48 15.1 0 1 7.97 458.01
  L 8.01 276.03
  A 1.07 1.07 0.0 0 1 8.38 275.22
  Q 9.77 274.00 12.30 272.54
  Q 79.62 233.65 146.85 194.88
  A 1.77 1.75 -15.2 0 0 147.73 193.36
  L 147.76 9.87
  Q 147.76 9.49 147.43 9.33
  Q 147.22 9.22 147.01 9.25"
/>
<path stroke="#5e625f" stroke-opacity="0.996" vector-effect="non-scaling-stroke" d="
  M 327.19 276.02
  Q 326.46 276.08 326.07 275.19
  Q 325.85 274.70 325.40 274.44
  L 187.93 195.11
  A 1.55 1.55 0.0 0 1 187.16 193.77
  C 186.66 132.54 187.08 71.12 187.09 9.81
  C 187.10 6.85 182.45 7.67 180.49 7.79
  A 0.50 0.49 88.2 0 0 180.03 8.29
  L 179.92 188.93
  A 0.80 0.80 0.0 0 1 178.73 189.63
  L 168.13 183.80
  A 2.70 2.68 -45.2 0 0 165.51 183.82
  L 155.02 189.82"
/>
<path stroke="#5e625f" stroke-opacity="0.996" vector-effect="non-scaling-stroke" d="
  M 317.71 278.84
  Q 317.86 278.77 317.94 278.66
  Q 318.08 278.47 317.88 278.35
  C 267.89 249.55 217.49 221.21 168.02 191.54
  Q 167.53 191.24 167.03 191.53
  L 15.28 279.12
  A 0.56 0.55 -15.0 0 0 15.00 279.60
  L 15.05 454.73
  Q 15.05 455.25 15.50 455.51
  L 166.72 542.86
  Q 167.21 543.14 167.70 542.86
  L 317.37 456.36
  Q 317.57 456.25 317.43 456.07
  Q 317.35 455.97 317.22 455.91"
/>
<path stroke="#5e625f" stroke-opacity="0.996" vector-effect="non-scaling-stroke" d="
  M 289.2910 436.1251
  A 0.80 0.80 0.0 0 0 288.1982 435.8323
  L 166.2618 506.2323
  A 0.80 0.80 0.0 0 0 165.9690 507.3251
  L 168.7690 512.1749
  A 0.80 0.80 0.0 0 0 169.8618 512.4677
  L 291.7982 442.0677
  A 0.80 0.80 0.0 0 0 292.0910 440.9749
  L 289.2910 436.1251"
/>
</g>
<path fill="#bec6c0" fill-opacity="0.988" d="
  M 155.14 7.91
  L 147.04 8.33
  Q 146.91 8.03 147.02 7.73
  Q 147.17 7.29 147.62 7.20
  Q 152.32 6.34 155.14 7.91
  Z"
/>
<path fill="#bec6c0" fill-opacity="0.988" d="
  M 327.19 276.02
  Q 326.46 276.08 326.07 275.19
  Q 325.85 274.70 325.40 274.44
  L 187.93 195.11
  A 1.55 1.55 0.0 0 1 187.16 193.77
  C 186.66 132.54 187.08 71.12 187.09 9.81
  C 187.10 6.85 182.45 7.67 180.49 7.79
  A 0.50 0.49 88.2 0 0 180.03 8.29
  L 179.92 188.93
  A 0.80 0.80 0.0 0 1 178.73 189.63
  L 168.13 183.80
  A 2.70 2.68 -45.2 0 0 165.51 183.82
  L 155.02 189.82
  L 165.52 183.20
  A 2.93 2.93 0.0 0 1 168.52 183.13
  L 178.48 188.74
  A 0.35 0.35 0.0 0 0 179.00 188.44
  L 179.00 8.00
  A 1.00 1.00 0.0 0 1 180.00 7.00
  L 187.00 7.00
  A 1.00 1.00 0.0 0 1 188.00 8.00
  L 188.00 193.76
  Q 188.00 194.28 188.45 194.54
  Q 257.16 234.30 325.96 273.90
  C 326.91 274.45 327.07 274.99 327.19 276.02
  Z"
/>
<path fill="#000000" d="
  M 327.19 276.02
  L 326.97 459.16
  L 171.44 548.96
  A 0.92 0.92 0.0 0 0 170.98 549.68
  Q 170.95 550.02 171.22 549.98
  C 170.43 552.83 170.99 555.50 170.99 557.74
  Q 171.04 640.75 170.95 724.51
  L 323.68 812.76
  A 0.71 0.70 30.3 0 1 323.94 813.73
  L 321.14 818.50
  Q 320.88 818.94 320.37 818.95
  Q 319.68 818.95 319.07 818.44
  L 167.82 730.95
  Q 167.37 730.70 166.93 730.95
  L 14.93 818.75
  A 1.26 1.26 0.0 0 1 13.19 818.27
  L 10.88 814.06
  A 1.15 1.14 60.6 0 1 11.31 812.51
  L 163.23 724.74
  A 0.87 0.86 76.2 0 0 163.67 724.00
  C 164.84 666.06 164.11 607.88 163.74 549.97
  Q 163.74 549.39 163.24 549.10
  L 9.21 460.16
  A 2.49 2.48 15.1 0 1 7.97 458.01
  L 8.01 276.03
  A 1.07 1.07 0.0 0 1 8.38 275.22
  Q 9.77 274.00 12.30 272.54
  Q 79.62 233.65 146.85 194.88
  A 1.77 1.75 -15.2 0 0 147.73 193.36
  L 147.76 9.87
  Q 147.76 9.49 147.43 9.33
  Q 147.22 9.22 147.01 9.25
  L 147.04 8.33
  L 155.14 7.91
  C 154.50 13.97 154.94 20.61 154.95 25.44
  Q 155.15 102.69 154.82 179.94
  Q 154.80 184.28 155.02 189.82
  L 165.51 183.82
  A 2.70 2.68 -45.2 0 1 168.13 183.80
  L 178.73 189.63
  A 0.80 0.80 0.0 0 0 179.92 188.93
  L 180.03 8.29
  A 0.50 0.49 88.2 0 1 180.49 7.79
  C 182.45 7.67 187.10 6.85 187.09 9.81
  C 187.08 71.12 186.66 132.54 187.16 193.77
  A 1.55 1.55 0.0 0 0 187.93 195.11
  L 325.40 274.44
  Q 325.85 274.70 326.07 275.19
  Q 326.46 276.08 327.19 276.02
  Z
  M 317.22 455.91
  L 318.59 455.07
  A 0.88 0.87 -16.4 0 0 319.00 454.33
  L 319.00 279.97
  Q 319.00 279.58 318.66 279.39
  L 317.71 278.84
  Q 317.86 278.77 317.94 278.66
  Q 318.08 278.47 317.88 278.35
  C 267.89 249.55 217.49 221.21 168.02 191.54
  Q 167.53 191.24 167.03 191.53
  L 15.28 279.12
  A 0.56 0.55 -15.0 0 0 15.00 279.60
  L 15.05 454.73
  Q 15.05 455.25 15.50 455.51
  L 166.72 542.86
  Q 167.21 543.14 167.70 542.86
  L 317.37 456.36
  Q 317.57 456.25 317.43 456.07
  Q 317.35 455.97 317.22 455.91
  Z"
/>
<path fill="#bec6c0" fill-opacity="0.988" d="
  M 147.01 9.25
  Q 147.22 9.22 147.43 9.33
  Q 147.76 9.49 147.76 9.87
  L 147.73 193.36
  A 1.77 1.75 -15.2 0 1 146.85 194.88
  Q 79.62 233.65 12.30 272.54
  Q 9.77 274.00 8.38 275.22
  A 1.07 1.07 0.0 0 0 8.01 276.03
  L 7.97 458.01
  A 2.49 2.48 15.1 0 0 9.21 460.16
  L 163.24 549.10
  Q 163.74 549.39 163.74 549.97
  C 164.11 607.88 164.84 666.06 163.67 724.00
  A 0.87 0.86 76.2 0 1 163.23 724.74
  L 11.31 812.51
  A 1.15 1.14 60.6 0 0 10.88 814.06
  L 13.19 818.27
  A 1.26 1.26 0.0 0 0 14.93 818.75
  L 166.93 730.95
  Q 167.37 730.70 167.82 730.95
  L 319.07 818.44
  Q 318.94 818.78 318.75 818.78
  L 167.79 731.87
  Q 167.33 731.61 166.88 731.87
  L 14.28 820.01
  A 0.73 0.72 -30.0 0 1 13.30 819.75
  L 10.14 814.46
  A 1.85 1.85 0.0 0 1 10.80 811.91
  L 161.19 725.06
  A 3.60 3.60 0.0 0 0 162.99 721.94
  L 163.00 550.24
  Q 163.01 549.74 162.57 549.49
  L 7.98 460.27
  A 1.97 1.96 15.1 0 1 7.00 458.57
  L 7.00 276.72
  A 3.51 3.50 75.1 0 1 8.76 273.68
  L 145.81 194.57
  A 2.39 2.38 -15.0 0 0 147.01 192.50
  L 147.01 9.25
  Z"
/>
<path fill="#bec6c0" fill-opacity="0.988" d="
  M 317.71 278.84
  L 167.90 192.39
  Q 167.49 192.15 167.08 192.39
  L 16.54 279.27
  A 1.08 1.07 -15.0 0 0 16.00 280.20
  L 16.00 454.02
  A 1.66 1.65 15.2 0 0 16.83 455.45
  L 166.75 542.06
  Q 167.14 542.28 167.67 541.98
  L 317.22 455.91
  Q 317.35 455.97 317.43 456.07
  Q 317.57 456.25 317.37 456.36
  L 167.70 542.86
  Q 167.21 543.14 166.72 542.86
  L 15.50 455.51
  Q 15.05 455.25 15.05 454.73
  L 15.00 279.60
  A 0.56 0.55 -15.0 0 1 15.28 279.12
  L 167.03 191.53
  Q 167.53 191.24 168.02 191.54
  C 217.49 221.21 267.89 249.55 317.88 278.35
  Q 318.08 278.47 317.94 278.66
  Q 317.86 278.77 317.71 278.84
  Z"
/>
<path fill="#bec6c0" fill-opacity="0.988" d="
  M 292.8769 440.8114
  A 1.31 1.31 0.0 0 1 292.3974 442.6009
  L 170.0626 513.2309
  A 1.31 1.31 0.0 0 1 168.2731 512.7514
  L 165.2231 507.4686
  A 1.31 1.31 0.0 0 1 165.7026 505.6791
  L 288.0374 435.0491
  A 1.31 1.31 0.0 0 1 289.8269 435.5286
  L 292.8769 440.8114
  Z
  M 289.2910 436.1251
  A 0.80 0.80 0.0 0 0 288.1982 435.8323
  L 166.2618 506.2323
  A 0.80 0.80 0.0 0 0 165.9690 507.3251
  L 168.7690 512.1749
  A 0.80 0.80 0.0 0 0 169.8618 512.4677
  L 291.7982 442.0677
  A 0.80 0.80 0.0 0 0 292.0910 440.9749
  L 289.2910 436.1251
  Z"
/>
<rect fill="#000000" x="-71.20" y="-3.60" transform="translate(229.03,474.15) rotate(-30.0)" width="142.40" height="7.20" rx="0.80"/>
<path fill="#bec6c0" fill-opacity="0.988" d="
  M 326.97 459.16
  Q 327.19 459.86 326.19 460.44
  Q 248.72 505.25 171.22 549.98
  Q 170.95 550.02 170.98 549.68
  A 0.92 0.92 0.0 0 1 171.44 548.96
  L 326.97 459.16
  Z"
/>
<path fill="#bec6c0" fill-opacity="0.988" d="
  M 170.95 724.51
  Q 172.50 724.71 175.55 726.47
  Q 250.06 769.51 324.61 812.50
  A 0.56 0.55 -65.2 0 1 324.85 813.16
  Q 323.64 816.70 321.09 819.41
  Q 320.71 819.81 320.22 819.55
  L 318.75 818.78
  Q 318.94 818.78 319.07 818.44
  Q 319.68 818.95 320.37 818.95
  Q 320.88 818.94 321.14 818.50
  L 323.94 813.73
  A 0.71 0.70 30.3 0 0 323.68 812.76
  L 170.95 724.51
  Z"
/>
</svg>
