<?xml version="1.0" encoding="UTF-8" standalone="no"?>
<!-- Generator: Adobe Illustrator 12.0.1, SVG Export Plug-In . SVG Version: 6.00 Build 51448)  -->
<svg
   xmlns:dc="http://purl.org/dc/elements/1.1/"
   xmlns:cc="http://creativecommons.org/ns#"
   xmlns:rdf="http://www.w3.org/1999/02/22-rdf-syntax-ns#"
   xmlns:svg="http://www.w3.org/2000/svg"
   xmlns="http://www.w3.org/2000/svg"
   xmlns:sodipodi="http://sodipodi.sourceforge.net/DTD/sodipodi-0.dtd"
   xmlns:inkscape="http://www.inkscape.org/namespaces/inkscape"
   version="1.1"
   id="Layer_1"
   width="233.461"
   height="217.903"
   viewBox="0 0 233.461 217.903"
   style="overflow:visible;enable-background:new 0 0 233.461 217.903;"
   xml:space="preserve"
   sodipodi:version="0.32"
   inkscape:version="0.46"
   sodipodi:docname="beta-Caryophyllen.svg"
   inkscape:output_extension="org.inkscape.output.svg.inkscape"><metadata
   id="metadata106"><rdf:RDF><cc:Work
       rdf:about=""><dc:format>image/svg+xml</dc:format><dc:type
         rdf:resource="http://purl.org/dc/dcmitype/StillImage" /></cc:Work></rdf:RDF></metadata><defs
   id="defs104"><inkscape:perspective
   sodipodi:type="inkscape:persp3d"
   inkscape:vp_x="0 : 108.9515 : 1"
   inkscape:vp_y="0 : 1000 : 0"
   inkscape:vp_z="233.461 : 108.9515 : 1"
   inkscape:persp3d-origin="116.7305 : 72.634333 : 1"
   id="perspective108" />
	
	

	

	
	

	

	
	

	

	

	

	

	

	
</defs><sodipodi:namedview
   inkscape:window-height="675"
   inkscape:window-width="661"
   inkscape:pageshadow="2"
   inkscape:pageopacity="0.0"
   guidetolerance="10.0"
   gridtolerance="10.0"
   objecttolerance="10.0"
   borderopacity="1.0"
   bordercolor="#666666"
   pagecolor="#ffffff"
   id="base"
   showgrid="false"
   inkscape:zoom="2.1202095"
   inkscape:cx="116.7305"
   inkscape:cy="108.9515"
   inkscape:window-x="110"
   inkscape:window-y="110"
   inkscape:current-layer="Layer_1" />
<path
   style="fill:#231f20"
   d="M 71.3742,106.84585 L 69.76015,107.79585 L 69.76015,69.13085 L 71.3742,70.08085 L 71.3742,106.84585 z"
   id="polygon3" />
<path
   style="fill:#231f20"
   d="M 103.4367,125.3699 L 103.1992,126.17835 L 101.4417,126.0824 L 69.76015,107.79585 L 71.3742,106.84585 L 103.4367,125.3699 z"
   id="polygon5" />
<path
   style="fill:#231f20"
   d="M 103.1992,51.69835 L 103.1992,49.84585 L 135.83265,68.70335 L 135.83265,70.55585 L 103.1992,51.69835 z"
   id="polygon7" />
<path
   style="fill:#231f20"
   d="M 71.3742,70.08085 L 69.76015,69.13085 L 103.1992,49.84585 L 103.1992,51.69835 L 71.3742,70.08085 z"
   id="polygon9" />
<path
   style="fill:#231f20"
   d="M 200.3367,106.84585 L 201.95265,107.79585 L 169.17765,126.70085 L 168.5117,126.17835 L 168.2742,125.3699 L 200.3367,106.84585 z"
   id="polygon11" />
<path
   style="fill:#231f20"
   d="M 200.3367,70.08085 L 201.95265,69.13085 L 201.95265,107.79585 L 200.3367,106.84585 L 200.3367,70.08085 z"
   id="polygon13" />
<path
   style="fill:#231f20"
   d="M 168.5117,51.69835 L 168.5117,50.74835 L 169.32015,50.27335 L 201.95265,69.13085 L 200.3367,70.08085 L 168.5117,51.69835 z"
   id="polygon15" />
<path
   style="fill:#231f20"
   d="M 135.83265,70.55585 L 135.83265,68.70335 L 167.7042,50.27335 L 168.5117,50.74835 L 168.5117,51.69835 L 135.83265,70.55585 z"
   id="polygon17" />
<path
   style="fill:#231f20"
   d="M 139.0617,75.21085 L 138.2542,73.83335 L 168.0842,56.59085 L 168.8917,58.01585 L 139.0617,75.21085 z"
   id="polygon19" />
<path
   style="fill:#231f20"
   d="M 158.1092,161.75585 L 158.72765,162.56335 L 158.1092,163.3699 L 112.3192,163.3699 L 113.60265,161.75585 L 158.1092,161.75585 z"
   id="polygon21" />
<path
   id="path25"
   d="M 173.68445,202.24675 L 175.8514,202.79205 C 175.39825,204.56855 174.5841,205.92325 173.4099,206.8552 C 172.2357,207.78715 170.79835,208.25455 169.1007,208.25455 C 167.3432,208.25455 165.9144,207.8964 164.81335,207.17915 C 163.71135,206.46285 162.8744,205.42355 162.29965,204.06505 C 161.72585,202.7056 161.43895,201.24545 161.43895,199.6865 C 161.43895,197.986 161.7629,196.50115 162.4108,195.2348 C 163.0587,193.96845 163.9821,193.00515 165.1791,192.3487 C 166.3761,191.69225 167.6928,191.3626 169.1311,191.3626 C 170.76225,191.3626 172.1331,191.7787 173.2446,192.6109 C 174.358,193.44405 175.1313,194.6135 175.56925,196.12305 L 173.44695,196.6237 C 173.06885,195.4362 172.51975,194.5717 171.80155,194.0302 C 171.08335,193.4887 170.178,193.21795 169.0893,193.21795 C 167.8372,193.21795 166.7903,193.51815 165.94955,194.1195 C 165.10785,194.72085 164.51695,195.5274 164.1759,196.54105 C 163.8358,197.55375 163.66575,198.59875 163.66575,199.6751 C 163.66575,201.06305 163.86715,202.2743 164.2709,203.3098 C 164.67465,204.3453 165.3026,205.1186 166.1538,205.63065 C 167.005,206.1427 167.92745,206.3992 168.91925,206.3992 C 170.1267,206.3992 171.1489,206.05055 171.98585,205.3523 C 172.8228,204.65405 173.3871,203.62045 173.68445,202.24675 z"
   style="fill:#231f20" /><path
   id="path27"
   d="M 178.6007,207.97335 L 178.6007,191.64475 L 180.76765,191.64475 L 180.76765,198.3546 L 189.2141,198.3546 L 189.2141,191.64475 L 191.38105,191.64475 L 191.38105,207.97335 L 189.2141,207.97335 L 189.2141,200.28405 L 180.76765,200.28405 L 180.76765,207.97335 L 178.6007,207.97335 z"
   style="fill:#231f20" />
<path
   id="path31"
   d="M 192.8982,209.0117 L 194.3973,208.80365 C 194.57115,209.65485 194.8647,210.26855 195.2789,210.64475 C 195.69405,211.02 196.2023,211.2081 196.80555,211.2081 C 197.5209,211.2081 198.12225,210.963 198.6096,210.4747 C 199.096,209.9845 199.34015,209.3784 199.34015,208.6545 C 199.34015,207.9648 199.11405,207.3967 198.65995,206.9483 C 198.2068,206.4999 197.63015,206.27665 196.9319,206.27665 C 196.64595,206.27665 196.29065,206.3327 195.866,206.44385 L 196.03415,205.1224 C 196.13485,205.1338 196.2156,205.1395 196.27735,205.1395 C 196.9186,205.1395 197.4943,204.97325 198.0073,204.6398 C 198.51935,204.30635 198.7768,203.7924 198.7768,203.09795 C 198.7768,202.5479 198.58965,202.0919 198.21535,201.73185 C 197.8401,201.37085 197.35845,201.19035 196.7666,201.19035 C 196.18045,201.19035 195.6912,201.37465 195.30075,201.74325 C 194.90935,202.11185 194.6576,202.66475 194.54645,203.40195 L 193.04735,203.135 C 193.2307,202.1261 193.64965,201.34425 194.30135,200.7904 C 194.954,200.2356 195.76435,199.9582 196.7343,199.9582 C 197.4031,199.9582 198.01965,200.1007 198.5811,200.3876 C 199.14445,200.67355 199.5748,201.064 199.8731,201.558 C 200.17045,202.05295 200.32055,202.57735 200.32055,203.1331 C 200.32055,203.6613 200.179,204.142 199.89495,204.5752 C 199.6109,205.0084 199.191,205.3523 198.6343,205.6088 C 199.3582,205.776 199.9206,206.12275 200.32435,206.6481 C 200.7281,207.17535 200.9295,207.83275 200.9295,208.62315 C 200.9295,209.69285 200.53905,210.5982 199.75815,211.3411 C 198.9782,212.084 197.99115,212.4564 196.79795,212.4564 C 195.72065,212.4564 194.82765,212.13625 194.11705,211.49785 C 193.4036,210.85755 192.9989,210.0301 192.8982,209.0117 z"
   style="fill:#231f20" />
<path
   style="fill:#231f20"
   d="M 166.7542,189.40085 L 165.2342,189.82835 L 158.1092,163.3699 L 158.72765,162.56335 L 159.8667,163.70335 L 166.7542,189.40085 z"
   id="polygon33" />
<path
   id="path37"
   d="M 200.3785,175.59925 L 202.54545,176.14455 C 202.0923,177.92105 201.2791,179.27575 200.1049,180.2077 C 198.92975,181.13965 197.49335,181.60705 195.7957,181.60705 C 194.0382,181.60705 192.6094,181.2489 191.5074,180.53165 C 190.40635,179.81535 189.56845,178.77605 188.9937,177.41755 C 188.41895,176.05905 188.13205,174.59795 188.13205,173.039 C 188.13205,171.3385 188.45695,169.85365 189.1039,168.5873 C 189.7537,167.32095 190.6752,166.35765 191.87315,165.7012 C 193.07015,165.04475 194.38685,164.7151 195.82515,164.7151 C 197.4563,164.7151 198.82715,165.1312 199.93865,165.9634 C 201.0511,166.79655 201.8244,167.966 202.26235,169.47555 L 200.14005,169.9762 C 199.76195,168.7887 199.2138,167.9242 198.4956,167.3827 C 197.7774,166.8412 196.87205,166.57045 195.78335,166.57045 C 194.53125,166.57045 193.48435,166.87065 192.64265,167.472 C 191.8019,168.07335 191.21005,168.8799 190.86995,169.89355 C 190.52985,170.9072 190.35885,171.95125 190.35885,173.0276 C 190.35885,174.41555 190.5612,175.6268 190.964,176.6623 C 191.3687,177.6978 191.9957,178.4711 192.8469,178.98315 C 193.6981,179.4952 194.62055,179.7517 195.6133,179.7517 C 196.8198,179.7517 197.842,179.40305 198.67895,178.7048 C 199.5159,178.00655 200.0821,176.97295 200.3785,175.59925 z"
   style="fill:#231f20" /><path
   id="path39"
   d="M 205.2957,181.32585 L 205.2957,164.99725 L 207.46265,164.99725 L 207.46265,171.7071 L 215.9091,171.7071 L 215.9091,164.99725 L 218.07605,164.99725 L 218.07605,181.32585 L 215.9091,181.32585 L 215.9091,173.63655 L 207.46265,173.63655 L 207.46265,181.32585 L 205.2957,181.32585 z"
   style="fill:#231f20" />
<path
   id="path43"
   d="M 219.59415,182.36515 L 221.09325,182.1571 C 221.26615,183.0083 221.56065,183.622 221.97485,183.9982 C 222.38905,184.37345 222.89825,184.56155 223.5015,184.56155 C 224.2159,184.56155 224.8182,184.31645 225.3046,183.82815 C 225.79195,183.33795 226.0361,182.73185 226.0361,182.00795 C 226.0361,181.31825 225.81,180.75015 225.35495,180.30175 C 224.9018,179.85335 224.3261,179.6301 223.62785,179.6301 C 223.3419,179.6301 222.98565,179.68615 222.561,179.7973 L 222.7301,178.47585 C 222.82985,178.48725 222.91155,178.49295 222.9733,178.49295 C 223.6136,178.49295 224.19025,178.3267 224.7023,177.99325 C 225.2153,177.6598 225.47275,177.14585 225.47275,176.4514 C 225.47275,175.90135 225.2856,175.44535 224.91035,175.0853 C 224.53605,174.7243 224.05345,174.5438 223.4616,174.5438 C 222.87545,174.5438 222.38715,174.7281 221.99575,175.0967 C 221.60435,175.4653 221.35355,176.0182 221.2424,176.7554 L 219.7433,176.48845 C 219.92665,175.47955 220.34465,174.6977 220.9973,174.14385 C 221.649,173.58905 222.45935,173.31165 223.43025,173.31165 C 224.0981,173.31165 224.71465,173.45415 225.27705,173.74105 C 225.8404,174.027 226.27075,174.41745 226.56905,174.91145 C 226.8664,175.4064 227.0165,175.9308 227.0165,176.48655 C 227.0165,177.01475 226.874,177.49545 226.58995,177.92865 C 226.3059,178.36185 225.88695,178.70575 225.33025,178.96225 C 226.05415,179.12945 226.61655,179.4762 227.0203,180.00155 C 227.4231,180.5288 227.62545,181.1862 227.62545,181.9766 C 227.62545,183.0463 227.23405,183.95165 226.4541,184.69455 C 225.67415,185.43745 224.6871,185.80985 223.4939,185.80985 C 222.4166,185.80985 221.5236,185.4897 220.813,184.8513 C 220.0986,184.21005 219.6939,183.3826 219.59415,182.36515 z"
   style="fill:#231f20" />
<path
   style="fill:#231f20"
   d="M 186.4667,169.16585 L 186.04015,170.7324 L 159.8667,163.70335 L 158.72765,162.56335 L 159.7242,161.99335 L 186.4667,169.16585 z"
   id="polygon45" />
<path
   id="path49"
   d="M 173.68445,16.33175 L 175.8514,16.87705 C 175.39825,18.65355 174.5841,20.00825 173.4099,20.9402 C 172.2357,21.87215 170.79835,22.33955 169.1007,22.33955 C 167.3432,22.33955 165.9144,21.9814 164.81335,21.26415 C 163.71135,20.54785 162.8744,19.50855 162.29965,18.15005 C 161.72585,16.7906 161.43895,15.33045 161.43895,13.7715 C 161.43895,12.071 161.7629,10.58615 162.4108,9.3198 C 163.0587,8.05345 163.9821,7.09015 165.1791,6.4337 C 166.3761,5.77725 167.6928,5.4476 169.1311,5.4476 C 170.76225,5.4476 172.1331,5.8637 173.2446,6.6959 C 174.358,7.52905 175.1313,8.6985 175.56925,10.20805 L 173.44695,10.7087 C 173.06885,9.5212 172.51975,8.6567 171.80155,8.1152 C 171.08335,7.5737 170.178,7.30295 169.0893,7.30295 C 167.8372,7.30295 166.7903,7.60315 165.94955,8.2045 C 165.10785,8.80585 164.51695,9.6124 164.1759,10.62605 C 163.8358,11.63875 163.66575,12.68375 163.66575,13.7601 C 163.66575,15.14805 163.86715,16.3593 164.2709,17.3948 C 164.67465,18.4303 165.3026,19.2036 166.1538,19.71565 C 167.005,20.2277 167.92745,20.4842 168.91925,20.4842 C 170.1267,20.4842 171.1489,20.13555 171.98585,19.4373 C 172.8228,18.73905 173.3871,17.7045 173.68445,16.33175 z"
   style="fill:#231f20" /><path
   id="path51"
   d="M 178.6007,22.0574 L 178.6007,5.72975 L 180.76765,5.72975 L 180.76765,12.4396 L 189.2141,12.4396 L 189.2141,5.72975 L 191.38105,5.72975 L 191.38105,22.05835 L 189.2141,22.05835 L 189.2141,14.36905 L 180.76765,14.36905 L 180.76765,22.05835 L 178.6007,22.05835 L 178.6007,22.0574 z"
   style="fill:#231f20" />
<path
   id="path55"
   d="M 192.8982,23.0967 L 194.3973,22.88865 C 194.57115,23.73985 194.8647,24.35355 195.2789,24.72975 C 195.69405,25.105 196.2023,25.2931 196.80555,25.2931 C 197.5209,25.2931 198.12225,25.048 198.6096,24.5597 C 199.096,24.0695 199.34015,23.4634 199.34015,22.7395 C 199.34015,22.0498 199.11405,21.4817 198.65995,21.0333 C 198.2068,20.5849 197.63015,20.36165 196.9319,20.36165 C 196.64595,20.36165 196.29065,20.4177 195.866,20.52885 L 196.03415,19.2074 C 196.13485,19.2188 196.2156,19.2245 196.27735,19.2245 C 196.9186,19.2245 197.4943,19.05825 198.0073,18.7248 C 198.51935,18.39135 198.7768,17.8774 198.7768,17.18295 C 198.7768,16.6329 198.58965,16.1769 198.21535,15.81685 C 197.8401,15.45585 197.35845,15.27535 196.7666,15.27535 C 196.18045,15.27535 195.6912,15.45965 195.30075,15.82825 C 194.90935,16.19685 194.6576,16.74975 194.54645,17.48695 L 193.04735,17.22 C 193.2307,16.2111 193.64965,15.42925 194.30135,14.8754 C 194.954,14.3206 195.76435,14.0432 196.7343,14.0432 C 197.4031,14.0432 198.01965,14.1857 198.5811,14.4726 C 199.14445,14.75855 199.5748,15.149 199.8731,15.643 C 200.17045,16.13795 200.32055,16.66235 200.32055,17.2181 C 200.32055,17.7463 200.179,18.227 199.89495,18.6602 C 199.6109,19.0934 199.191,19.4373 198.6343,19.6938 C 199.3582,19.861 199.9206,20.20775 200.32435,20.7331 C 200.7281,21.26035 200.9295,21.91775 200.9295,22.70815 C 200.9295,23.77785 200.53905,24.6832 199.75815,25.4261 C 198.9782,26.169 197.99115,26.5414 196.79795,26.5414 C 195.72065,26.5414 194.82765,26.22125 194.11705,25.58285 C 193.4036,24.94255 192.9989,24.11415 192.8982,23.0967 z"
   style="fill:#231f20" />
<path
   style="fill:#231f20"
   d="M 167.7042,24.48085 L 169.32015,24.48085 L 169.32015,50.27335 L 168.5117,50.74835 L 167.7042,50.27335 L 167.7042,24.48085 z"
   id="polygon57" />
<path
   id="path61"
   d="M 5.83655,135.53585 L 5.83655,119.20725 L 8.0035,119.20725 L 8.0035,125.9171 L 16.44995,125.9171 L 16.44995,119.20725 L 18.6169,119.20725 L 18.6169,135.53585 L 16.44995,135.53585 L 16.44995,127.84655 L 8.0035,127.84655 L 8.0035,135.53585 L 5.83655,135.53585 z"
   style="fill:#231f20" />
<path
   id="path65"
   d="M 28.42185,138.37065 L 28.42185,139.81085 L 20.3174,139.81085 C 20.306,139.4489 20.3649,139.1012 20.4941,138.7668 C 20.7012,138.2158 21.03275,137.67335 21.4897,137.13945 C 21.9457,136.60555 22.6012,135.989 23.4562,135.2898 C 24.7824,134.19445 25.6811,133.329 26.1542,132.6925 C 26.6273,132.056 26.86385,131.45275 26.86385,130.88465 C 26.86385,130.28995 26.6501,129.7893 26.2226,129.37985 C 25.7951,128.97135 25.23745,128.7671 24.5506,128.7671 C 23.8229,128.7671 23.24245,128.98465 22.8064,129.4207 C 22.37035,129.85675 22.14995,130.46 22.14425,131.23045 L 20.6005,131.06705 C 20.70595,129.91185 21.10495,129.03215 21.7975,128.42795 C 22.4891,127.82185 23.4182,127.51975 24.5848,127.51975 C 25.76185,127.51975 26.6938,127.8456 27.3797,128.4973 C 28.0656,129.149 28.40855,129.9565 28.40855,130.9198 C 28.40855,131.41 28.30785,131.89165 28.1074,132.36475 C 27.90695,132.83785 27.57255,133.3366 27.10705,133.86005 C 26.6406,134.3835 25.86825,135.1017 24.78905,136.01465 C 23.8856,136.77275 23.30515,137.28575 23.0477,137.5565 C 22.79025,137.82535 22.5765,138.09705 22.40835,138.3697 L 28.42185,138.3697 L 28.42185,138.37065 z"
   style="fill:#231f20" />
<path
   id="path69"
   d="M 42.9236,129.80925 L 45.09055,130.35455 C 44.63835,132.13105 43.8242,133.48575 42.65,134.4177 C 41.47485,135.34965 40.0375,135.81705 38.33985,135.81705 C 36.58235,135.81705 35.15355,135.4589 34.0525,134.74165 C 32.95145,134.02535 32.11355,132.98605 31.5388,131.62755 C 30.96405,130.2681 30.67715,128.80795 30.67715,127.249 C 30.67715,125.5485 31.0011,124.06365 31.64995,122.7973 C 32.2988,121.53095 33.22125,120.56765 34.4192,119.9112 C 35.6162,119.25475 36.9329,118.9251 38.3712,118.9251 C 40.00235,118.9251 41.3732,119.3412 42.4847,120.1734 C 43.59715,121.00655 44.3714,122.176 44.8084,123.68555 L 42.6861,124.1862 C 42.308,122.9987 41.75985,122.1342 41.04165,121.5927 C 40.3225,121.0512 39.4181,120.78045 38.3294,120.78045 C 37.0773,120.78045 36.0304,121.08065 35.1887,121.682 C 34.34795,122.28335 33.75705,123.0899 33.416,124.10355 C 33.07495,125.1172 32.9049,126.16125 32.9049,127.2376 C 32.9049,128.62555 33.1063,129.8368 33.51005,130.8723 C 33.9138,131.9078 34.5408,132.6811 35.39295,133.19315 C 36.2451,133.7052 37.1666,133.9617 38.15935,133.9617 C 39.3668,133.9617 40.38805,133.61305 41.225,132.9148 C 42.06195,132.21655 42.6272,131.18295 42.9236,129.80925 z"
   style="fill:#231f20" />
<path
   style="fill:#231f20"
   d="M 48.5742,124.61085 L 47.7667,123.18585 L 72.9417,108.22335 L 73.7492,109.64835 L 48.5742,124.61085 z"
   id="polygon71" />
<path
   style="fill:#231f20"
   d="M 45.67765,119.71835 L 44.8692,118.34085 L 70.14015,103.33085 L 70.94765,104.70835 L 45.67765,119.71835 z"
   id="polygon73" />
<path
   style="fill:#231f20"
   d="M 159.7242,161.99335 L 158.72765,162.56335 L 158.1092,161.75585 L 167.4667,126.98585 L 168.5117,126.17835 L 169.17765,126.70085 L 159.7242,161.99335 z"
   id="polygon75" />
<path
   style="fill:#231f20"
   d="M 113.60265,161.75585 L 112.3192,163.3699 L 102.7242,127.5074 L 103.1992,126.17835 L 104.2442,126.98585 L 113.60265,161.75585 z"
   id="polygon77" />
<path
   id="path81"
   d="M 64.1903,154.01335 L 64.1903,137.68475 L 66.35725,137.68475 L 66.35725,144.3946 L 74.8037,144.3946 L 74.8037,137.68475 L 76.97065,137.68475 L 76.97065,154.01335 L 74.8037,154.01335 L 74.8037,146.32405 L 66.35725,146.32405 L 66.35725,154.01335 L 64.1903,154.01335 z"
   style="fill:#231f20" />
<path
   style="fill:#231f20"
   d="M 82.2042,142.4699 L 78.5942,136.20085 L 101.4417,126.0824 L 103.1992,126.17835 L 102.7242,127.5074 L 82.2042,142.4699 z"
   id="polygon83" />
<path
   id="path87"
   d="M 194.8153,154.01335 L 194.8153,137.68475 L 196.98225,137.68475 L 196.98225,144.3946 L 205.4287,144.3946 L 205.4287,137.68475 L 207.59565,137.68475 L 207.59565,154.01335 L 205.4287,154.01335 L 205.4287,146.32405 L 196.98225,146.32405 L 196.98225,154.01335 L 194.8153,154.01335 z"
   style="fill:#231f20" />
<path
   style="fill:#231f20"
   d="M 193.1167,136.20085 L 189.50765,142.4699 L 188.17765,141.47335 L 191.64515,135.53585 L 193.1167,136.20085 z"
   id="polygon89" />
<path
   style="fill:#231f20"
   d="M 189.27015,134.58585 L 186.18265,139.95335 L 184.85265,138.95585 L 187.7967,133.9199 L 189.27015,134.58585 z"
   id="polygon91" />
<path
   style="fill:#231f20"
   d="M 185.4217,132.9699 L 182.85765,137.43585 L 181.5742,136.43835 L 183.9492,132.30585 L 185.4217,132.9699 z"
   id="polygon93" />
<path
   style="fill:#231f20"
   d="M 181.5742,131.35585 L 179.53265,134.91835 L 178.2492,133.9199 L 180.10265,130.69085 L 181.5742,131.35585 z"
   id="polygon95" />
<path
   style="fill:#231f20"
   d="M 177.7742,129.74085 L 176.20765,132.40085 L 174.9242,131.40335 L 176.2542,129.07585 L 177.7742,129.74085 z"
   id="polygon97" />
<path
   style="fill:#231f20"
   d="M 173.92765,128.12585 L 172.88265,129.8824 L 171.5992,128.88585 L 172.40765,127.5074 L 173.92765,128.12585 z"
   id="polygon99" />
<path
   style="fill:#231f20"
   d="M 104.2442,126.98585 L 103.1992,126.17835 L 103.4367,125.3699 L 168.2742,125.3699 L 168.5117,126.17835 L 167.4667,126.98585 L 104.2442,126.98585 z"
   id="polygon101" />
</svg>