<?xml version="1.0"?>

<!DOCTYPE svg PUBLIC '-//W3C//DTD SVG 1.0//EN' 'http://www.w3.org/TR/2001/REC-SVG-20010904/DTD/svg10.dtd'>
<svg fill-opacity="1" xmlns:xlink="http://www.w3.org/1999/xlink" color-rendering="auto" color-interpolation="auto" stroke="black" text-rendering="auto" stroke-linecap="square" width="210" stroke-miterlimit="10" stroke-opacity="1" shape-rendering="auto" fill="black" stroke-dasharray="none" font-weight="normal" stroke-width="1" height="260" xmlns="http://www.w3.org/2000/svg" font-family="&apos;Dialog&apos;" font-style="normal" stroke-linejoin="miter" font-size="12" stroke-dashoffset="0" image-rendering="auto">
  <!--Generated by Marvin with Batik SVG Generator
MolSource:
<?xml version="1.0" encoding="windows-1252"?><cml xmlns="http://www.chemaxon.com" xmlns:xsi="http://www.w3.org/2001/XMLSchema-instance" xsi:schemaLocation="http://www.chemaxon.com/marvin/schema/mrvSchema_14_12_01.xsd" version="ChemAxon file format v14.12.01, generated by v16.2.8.0">
<MDocument><MChemicalStruct><molecule molID="m1"><atomArray atomID="a1 a2 a3 a4 a5 a6 a7 a8 a9 a10" elementType="C C C C C C C C C C" x2="-3.564814805984497 -4.898484147032754 -4.898484147032754 -3.564814805984497 -2.2311454649362386 -2.2311454649362386 -3.564814805984497 -6.438484147032754 -5.459111819638414 -3.564814805984497" y2="4.780774657180093 4.010757716621052 2.4707238355029713 1.7007068949439308 2.4707238355029713 4.010757716621052 6.320774657180093 2.4707238355029713 0.9832005944720426 3.240706894943931"></atomArray><bondArray><bond id="b1" atomRefs2="a1 a2" order="1"></bond><bond id="b2" atomRefs2="a1 a6" order="1"></bond><bond id="b3" atomRefs2="a2 a3" order="1"></bond><bond id="b4" atomRefs2="a3 a4" order="1"></bond><bond id="b5" atomRefs2="a4 a5" order="1"></bond><bond id="b6" atomRefs2="a5 a6" order="1"></bond><bond id="b7" atomRefs2="a1 a7" order="2"></bond><bond id="b8" atomRefs2="a3 a8" order="1"></bond><bond id="b9" atomRefs2="a3 a9" order="1"></bond><bond id="b10" atomRefs2="a4 a10" order="1"></bond><bond id="b11" atomRefs2="a10 a2" order="1"></bond></bondArray></molecule></MChemicalStruct></MDocument>
</cml>
-->
  <defs id="genericDefs" />
  <g>
    <defs id="23822211810-defs1">
      <clipPath clipPathUnits="userSpaceOnUse" id="23822211731-clipPath1">
        <path d="M0 0 L0 260 L210 260 L210 0 Z" />
      </clipPath>
      <clipPath clipPathUnits="userSpaceOnUse" id="23822211646-clipPath1">
        <path d="M0 0 L210 0 L210 260 L0 260 L0 0 Z" />
      </clipPath>
    </defs>
    <g text-rendering="optimizeLegibility" font-size="50" shape-rendering="geometricPrecision" font-weight="bold" font-family="&apos;Arial&apos;">
      <path d="M139.89813232421875 75.17440795898438 L77.26924896240234 111.33427429199219 C76.54122161865234 111.75460815429688 76.29190063476562 112.68512725830078 76.71224212646484 113.41315460205078 C77.13258361816406 114.14118194580078 78.06309509277344 114.3905029296875 78.79113006591797 113.97016906738281 L141.4199981689453 77.810302734375 C142.1480255126953 77.38996887207031 142.39735412597656 76.45944213867188 141.97702026367188 75.73141479492188 C141.55667114257812 75.0033950805664 140.62615966796875 74.75407409667969 139.89813232421875 75.17440795898438 Z" clip-path="url(#23822211731-clipPath1)" stroke="none" />
    </g>
    <g text-rendering="optimizeLegibility" font-size="50" shape-rendering="geometricPrecision" font-weight="bold" font-family="&apos;Arial&apos;">
      <path d="M139.89813232421875 77.810302734375 L202.52700805664062 113.97016906738281 C203.25503540039062 114.3905029296875 204.185546875 114.14118194580078 204.60589599609375 113.41315460205078 C205.02622985839844 112.68512725830078 204.77691650390625 111.75460815429688 204.04888916015625 111.33427429199219 L141.4199981689453 75.17440795898438 C140.6919708251953 74.75407409667969 139.76145935058594 75.0033950805664 139.3411102294922 75.73141479492188 C138.9207763671875 76.45944213867188 139.17010498046875 77.38996887207031 139.89813232421875 77.810302734375 Z" clip-path="url(#23822211731-clipPath1)" stroke="none" />
    </g>
    <g text-rendering="optimizeLegibility" font-size="50" shape-rendering="geometricPrecision" font-weight="bold" font-family="&apos;Arial&apos;">
      <path d="M76.50833892822266 112.6522216796875 L76.50833892822266 184.97193908691406 C76.50833892822266 185.81260681152344 77.18952941894531 186.49378967285156 78.03018951416016 186.49378967285156 C78.87084197998047 186.49378967285156 79.55203247070312 185.81260681152344 79.55203247070312 184.97193908691406 L79.55203247070312 112.6522216796875 C79.55203247070312 111.81156158447266 78.87084197998047 111.13037109375 78.03018951416016 111.13037109375 C77.18952941894531 111.13037109375 76.50833892822266 111.81156158447266 76.50833892822266 112.6522216796875 Z" clip-path="url(#23822211731-clipPath1)" stroke="none" />
    </g>
    <g text-rendering="optimizeLegibility" font-size="50" shape-rendering="geometricPrecision" font-weight="bold" font-family="&apos;Arial&apos;">
      <path d="M77.26924896240234 186.28988647460938 L139.89813232421875 222.4497528076172 C140.62615966796875 222.87008666992188 141.55667114257812 222.6207733154297 141.9770050048828 221.8927459716797 C142.39735412597656 221.1647186279297 142.1480255126953 220.23419189453125 141.4199981689453 219.81385803222656 L78.79112243652344 183.65399169921875 C78.06310272216797 183.23365783691406 77.13257598876953 183.48297119140625 76.71224212646484 184.21099853515625 C76.29190063476562 184.93902587890625 76.54122161865234 185.8695526123047 77.26924896240234 186.28988647460938 Z" clip-path="url(#23822211731-clipPath1)" stroke="none" />
    </g>
    <g text-rendering="optimizeLegibility" font-size="50" shape-rendering="geometricPrecision" font-weight="bold" font-family="&apos;Arial&apos;">
      <path d="M141.4199981689453 222.4497528076172 L204.04888916015625 186.28988647460938 C204.77691650390625 185.8695526123047 205.02622985839844 184.93902587890625 204.60589599609375 184.21099853515625 C204.185546875 183.48297119140625 203.25503540039062 183.23365783691406 202.52700805664062 183.65399169921875 L139.89813232421875 219.81385803222656 C139.17010498046875 220.23419189453125 138.9207763671875 221.1647186279297 139.3411102294922 221.8927459716797 C139.76145935058594 222.6207733154297 140.6919708251953 222.87008666992188 141.4199981689453 222.4497528076172 Z" clip-path="url(#23822211731-clipPath1)" stroke="none" />
    </g>
    <g text-rendering="optimizeLegibility" font-size="50" shape-rendering="geometricPrecision" font-weight="bold" font-family="&apos;Arial&apos;">
      <path d="M204.80978393554688 184.97193908691406 L204.80978393554688 112.65221405029297 C204.80978393554688 111.81155395507812 204.12860107421875 111.13037109375 203.28794860839844 111.13037109375 C202.44728088378906 111.13037109375 201.76609802246094 111.81155395507812 201.76609802246094 112.65221405029297 L201.76609802246094 184.97193908691406 C201.76609802246094 185.81260681152344 202.44728088378906 186.49378967285156 203.28794860839844 186.49378967285156 C204.12860107421875 186.49378967285156 204.80978393554688 185.81260681152344 204.80978393554688 184.97193908691406 Z" clip-path="url(#23822211731-clipPath1)" stroke="none" />
    </g>
    <g text-rendering="optimizeLegibility" font-size="50" shape-rendering="geometricPrecision" font-weight="bold" font-family="&apos;Arial&apos;">
      <path d="M132.56285095214844 80.2881851196289 C132.56285095214844 81.12884521484375 133.24403381347656 81.8100357055664 134.08468627929688 81.8100357055664 C134.92535400390625 81.8100357055664 135.60653686523438 81.12884521484375 135.60653686523438 80.2881851196289 L135.60653686523438 4.174227714538574 C135.60653686523438 3.3335676193237305 134.92535400390625 2.6523847579956055 134.08468627929688 2.6523847579956055 C133.24403381347656 2.6523847579956055 132.56285095214844 3.3335676193237305 132.56285095214844 4.174227714538574 ZM145.7115936279297 80.2881851196289 C145.7115936279297 81.12884521484375 146.3927764892578 81.8100357055664 147.2334442138672 81.8100357055664 C148.0740966796875 81.8100357055664 148.7552947998047 81.12884521484375 148.7552947998047 80.2881851196289 L148.7552947998047 4.174227714538574 C148.7552947998047 3.3335676193237305 148.0740966796875 2.6523847579956055 147.2334442138672 2.6523847579956055 C146.3927764892578 2.6523847579956055 145.7115936279297 3.3335676193237305 145.7115936279297 4.174227714538574 Z" clip-path="url(#23822211731-clipPath1)" stroke="none" />
    </g>
    <g text-rendering="optimizeLegibility" font-size="50" shape-rendering="geometricPrecision" font-weight="bold" font-family="&apos;Arial&apos;">
      <path d="M78.03018951416016 183.45008850097656 L5.712055683135986 183.45008850097656 C4.871395587921143 183.45008850097656 4.190212726593018 184.13128662109375 4.190212726593018 184.97193908691406 C4.190212726593018 185.81260681152344 4.871395587921143 186.49378967285156 5.712055683135986 186.49378967285156 L78.03018951416016 186.49378967285156 C78.87084197998047 186.49378967285156 79.55203247070312 185.81260681152344 79.55203247070312 184.97193908691406 C79.55203247070312 184.13128662109375 78.87084197998047 183.45008850097656 78.03018951416016 183.45008850097656 Z" clip-path="url(#23822211731-clipPath1)" stroke="none" />
    </g>
    <g text-rendering="optimizeLegibility" font-size="50" shape-rendering="geometricPrecision" font-weight="bold" font-family="&apos;Arial&apos;">
      <path d="M76.60612487792969 184.4352264404297 L50.279144287109375 254.2890625 C49.982669830322266 255.07569885253906 50.37985610961914 255.95335388183594 51.166500091552734 256.24981689453125 C51.95314407348633 256.5462951660156 52.83079528808594 256.1491394042969 53.12727355957031 255.36248779296875 L79.4542465209961 185.50865173339844 C79.75072479248047 184.7220001220703 79.3535385131836 183.8443603515625 78.56689453125 183.54788208007812 C77.7802505493164 183.25140380859375 76.90259552001953 183.64859008789062 76.60612487792969 184.4352264404297 Z" clip-path="url(#23822211731-clipPath1)" stroke="none" />
    </g>
    <g text-rendering="optimizeLegibility" font-size="50" shape-rendering="geometricPrecision" font-weight="bold" font-family="&apos;Arial&apos;">
      <path d="M142.180908203125 221.13180541992188 L142.180908203125 148.8136749267578 C142.180908203125 147.97300720214844 141.49972534179688 147.2918243408203 140.65907287597656 147.2918243408203 C139.8184051513672 147.2918243408203 139.13722229003906 147.97300720214844 139.13722229003906 148.8136749267578 L139.13722229003906 221.13180541992188 C139.13722229003906 221.9724578857422 139.8184051513672 222.6536407470703 140.65907287597656 222.6536407470703 C141.49972534179688 222.6536407470703 142.180908203125 221.9724578857422 142.180908203125 221.13180541992188 Z" clip-path="url(#23822211731-clipPath1)" stroke="none" />
    </g>
    <g text-rendering="optimizeLegibility" font-size="50" shape-rendering="geometricPrecision" font-weight="bold" font-family="&apos;Arial&apos;">
      <path d="M141.42002868652344 147.49574279785156 L78.79115295410156 111.33428955078125 C78.0631332397461 110.91393280029297 77.13261413574219 111.16323852539062 76.7122573852539 111.8912582397461 C76.29190826416016 112.61927795410156 76.54120635986328 113.54979705810547 77.26922607421875 113.97015380859375 L139.89810180664062 150.13160705566406 C140.62611389160156 150.5519561767578 141.556640625 150.3026580810547 141.9770050048828 149.5746307373047 C142.39735412597656 148.84661865234375 142.14805603027344 147.9160919189453 141.42002868652344 147.49574279785156 Z" clip-path="url(#23822211731-clipPath1)" stroke="none" />
    </g>
  </g>
</svg>
