<?xml version="1.0" encoding="UTF-8" standalone="no"?>
<!DOCTYPE svg PUBLIC "-//W3C//DTD SVG 1.1//EN" "http://www.w3.org/Graphics/SVG/1.1/DTD/svg11.dtd">
<svg xmlns="http://www.w3.org/2000/svg" version="1.1" viewBox="0.00 0.00 255.00 232.00">
<path fill="#000000" d="
  M 14.79 153.02
  Q 14.90 153.04 15.47 152.88
  Q 45.79 144.32 75.98 136.00
  A 2.66 2.66 0.0 0 0 77.93 133.48
  C 78.61 91.34 77.87 49.40 78.04 7.36
  A 0.44 0.44 0.0 0 1 78.86 7.15
  L 116.33 73.20
  Q 116.54 73.57 116.95 73.68
  L 183.45 91.20
  A 1.12 1.11 14.6 0 0 184.81 90.41
  Q 193.43 57.67 202.10 25.04
  Q 202.29 24.33 202.56 24.02
  Q 203.25 23.21 204.35 24.00
  A 1.94 1.92 25.8 0 1 205.08 26.08
  L 186.60 92.01
  Q 186.46 92.50 186.90 92.76
  L 247.23 127.77
  A 0.93 0.92 -61.4 0 1 247.59 129.00
  C 247.11 129.90 245.66 129.93 244.79 129.42
  Q 215.58 112.74 186.54 96.13
  A 1.25 1.25 0.0 0 0 184.84 96.59
  L 155.43 147.21
  A 3.53 3.49 49.2 0 0 155.22 150.31
  Q 168.70 183.36 182.47 217.01
  Q 182.91 218.09 183.01 219.07
  A 1.00 1.00 0.0 0 1 181.09 219.55
  L 152.67 152.27
  A 0.24 0.24 0.0 0 0 152.24 152.26
  L 150.27 156.24
  A 1.10 1.09 7.5 0 1 149.48 156.84
  Q 147.14 157.26 145.07 156.02
  A 0.80 0.80 0.0 0 0 143.92 157.00
  L 171.11 223.55
  A 1.00 0.99 70.3 0 1 170.49 224.88
  L 170.05 225.02
  Q 169.40 225.23 169.13 224.60
  L 140.33 156.45
  Q 139.68 154.91 138.06 154.46
  Q 111.17 147.10 84.51 139.72
  C 80.89 138.72 78.14 138.90 74.27 139.96
  Q 41.54 148.88 8.86 157.99
  Q 8.16 158.19 7.56 157.87
  A 0.62 0.61 29.8 0 1 7.32 157.02
  L 45.39 92.72
  Q 45.56 92.44 45.88 92.35
  L 68.57 86.06
  A 1.20 1.19 82.3 0 1 70.08 87.22
  L 70.08 87.88
  Q 70.08 88.65 69.34 88.84
  L 47.99 94.27
  Q 47.51 94.39 47.27 94.82
  L 14.32 152.07
  Q 13.86 152.86 14.79 153.02
  Z
  M 181.39 94.19
  L 118.02 77.14
  A 9.54 9.48 -44.7 0 0 113.15 77.13
  L 90.99 83.01
  A 1.60 1.59 71.9 0 1 89.10 82.05
  Q 88.48 80.47 90.01 80.06
  Q 101.29 77.02 112.31 73.83
  A 0.98 0.98 0.0 0 0 112.88 72.40
  L 81.94 19.27
  A 0.49 0.49 0.0 0 0 81.03 19.48
  C 80.98 20.43 80.71 21.28 80.71 22.22
  Q 81.01 72.08 81.00 121.94
  Q 81.00 128.16 80.50 135.32
  A 0.57 0.56 6.6 0 0 80.98 135.92
  Q 83.43 136.29 86.19 137.07
  Q 116.47 145.55 146.70 154.02
  A 2.16 2.16 0.0 0 0 149.16 153.02
  L 181.98 95.62
  A 0.98 0.98 0.0 0 0 181.39 94.19
  Z"
/>
</svg>
