<?xml version="1.0" encoding="UTF-8" standalone="no"?>
<svg xmlns:svg="http://www.w3.org/2000/svg" xmlns="http://www.w3.org/2000/svg" version="1.0" width="497.5" height="730" xml:space="preserve">
<g transform="translate(50,50)">
<polygon points="148,357 144,359.5 140,359.5 140,213 148,218 148,357" />
<polygon points="269,427 269,431.5 261,431.5 148,366.5 144,359.5 148,357 269,427" />
<polygon points="389.5,357 397.5,362 271,435 269,431.5 269,427 389.5,357" />
<polygon points="389.5,218 397.5,213 397.5,362 389.5,357 389.5,218" />
<polygon points="269,148 269,143.5 273,141 397.5,213 389.5,218 269,148" />
<polygon points="148,218 140,213 265,141 269,143.5 269,148 148,218" />
<polygon points="265,0 269,0 273,0 273,141 269,143.5 265,141 265,0" />
<polygon points="148,496.5 144,503.5 140,499.5 140,359.5 144,359.5 148,366.5 148,496.5" />
<polygon points="261,431.5 269,431.5 271,435 149.5,505 144,503.5 148,496.5 261,431.5" />
<polygon points="219.5,626 216,628 212.5,630 142,507.5 144,503.5 149.5,505 219.5,626" />
<polygon points="0,507.5 0,503.5 0,499.5 140,499.5 144,503.5 142,507.5 0,507.5" />
<rect width="8" height="114" x="314.2" y="145.1" transform="matrix(-0.4967,0.8679,-0.8679,-0.4967,651.6375,26.096)" />
</g>
</svg>

