<?xml version="1.0" encoding="UTF-8" standalone="no"?>
<svg
   xmlns:dc="http://purl.org/dc/elements/1.1/"
   xmlns:cc="http://creativecommons.org/ns#"
   xmlns:rdf="http://www.w3.org/1999/02/22-rdf-syntax-ns#"
   xmlns:svg="http://www.w3.org/2000/svg"
   xmlns="http://www.w3.org/2000/svg"
   xmlns:sodipodi="http://sodipodi.sourceforge.net/DTD/sodipodi-0.dtd"
   xmlns:inkscape="http://www.inkscape.org/namespaces/inkscape"
   width="769.03632"
   height="1881.1543"
   id="svg2832"
   version="1.1"
   inkscape:version="1.0.1 (3bc2e813f5, 2020-09-07)"
   sodipodi:docname="Limonene-2D-skeletal.svg">
  <defs
     id="defs2834">
    <inkscape:perspective
       sodipodi:type="inkscape:persp3d"
       inkscape:vp_x="0 : 576.18109 : 1"
       inkscape:vp_y="0 : 1000 : 0"
       inkscape:vp_z="744.09448 : 576.18109 : 1"
       inkscape:persp3d-origin="372.04724 : 400.78739 : 1"
       id="perspective2840" />
    <inkscape:perspective
       id="perspective2850"
       inkscape:persp3d-origin="0.5 : 50.33333 : 1"
       inkscape:vp_z="1 : 50.5 : 1"
       inkscape:vp_y="0 : 1000 : 0"
       inkscape:vp_x="0 : 50.5 : 1"
       sodipodi:type="inkscape:persp3d" />
  </defs>
  <sodipodi:namedview
     id="base"
     pagecolor="#ffffff"
     bordercolor="#666666"
     borderopacity="1.0"
     inkscape:pageopacity="0.0"
     inkscape:pageshadow="2"
     inkscape:zoom="0.5"
     inkscape:cx="903.4254"
     inkscape:cy="837.13685"
     inkscape:document-units="px"
     inkscape:current-layer="layer1"
     showgrid="false"
     inkscape:window-width="1920"
     inkscape:window-height="1001"
     inkscape:window-x="-9"
     inkscape:window-y="-9"
     inkscape:window-maximized="1"
     inkscape:document-rotation="0"
     fit-margin-top="25"
     fit-margin-left="25"
     fit-margin-right="25"
     fit-margin-bottom="25"
     lock-margins="true" />
  <metadata
     id="metadata2837">
    <rdf:RDF>
      <cc:Work
         rdf:about="">
        <dc:format>image/svg+xml</dc:format>
        <dc:type
           rdf:resource="http://purl.org/dc/dcmitype/StillImage" />
        <dc:title></dc:title>
      </cc:Work>
    </rdf:RDF>
  </metadata>
  <g
     inkscape:label="Layer 1"
     inkscape:groupmode="layer"
     id="layer1"
     transform="translate(515.94674,711.07211)">
    <path
       style="fill:#000000"
       d="m 12.529509,1043.1622 c -97.35,-56.41351 -177.695129,-102.59091 -178.544729,-102.61641 -0.84961,-0.025 -71.434,40.3532 -156.8542,89.73041 -85.42021,49.3772 -155.44049,89.6361 -155.60064,89.4643 -1.93791,-2.0797 -7.54785,-14.1618 -6.88059,-14.8187 0.48409,-0.4767 76.93016,-44.5922 169.88016,-98.0347 92.95,-53.44241 170.37621,-98.00441 172.05825,-99.02661 l 3.05826,-1.8586 3.69174,6.4187 c 2.03046,3.5304 3.69175,6.7895 3.69175,7.2426 0,0.453 -3.81797,3.03 -8.48438,5.7266 -4.66641,2.6965 -8.37891,5.0016 -8.25,5.1224 0.12891,0.1207 76.959379,44.4086 170.734379,98.41741 93.774991,54.0089 171.975991,99.0981 173.780091,100.1983 l 3.28,2.0004 -3.6638,6.6498 c -2.0151,3.6575 -3.9411,6.9434 -4.2801,7.302 -0.3389,0.3587 -80.2662,-45.5044 -177.616191,-101.9179 z m 27.5,-53.38441 c -98.725,-57.1754 -179.803249,-104.269 -180.173899,-104.6525 -0.37064,-0.3835 1.12358,-3.7519 3.3205,-7.4853 l 3.99439,-6.788 3.17951,1.9377 c 1.74872,1.0657 81.479499,47.028 177.179499,102.1383 C 143.2295,1030.0383 223.0055,1076.0285 224.8096,1077.1284 l 3.28,1.9999 -3.6638,6.6498 c -2.0151,3.6575 -3.9411,6.9435 -4.2801,7.3023 -0.3389,0.3589 -81.3912,-46.1273 -180.116191,-103.30261 z M -159.97049,861.92799 v -8 h 23.5 23.5 v 8 8 h -23.5 -23.5 z m 0,-42.5 v -8.5 h 23.5 23.5 v 8.5 8.5 h -23.5 -23.5 z m 0,-43 v -8.5 h 23.5 23.5 v 8.5 8.5 h -23.5 -23.5 z m 0,-42 v -8.5 h 23.5 23.5 v 8.5 8.5 h -23.5 -23.5 z m 0,-43 v -8.5 h 23.5 23.5 v 8.5 8.5 h -23.5 -23.5 z m 0,-42 v -8.5 h 23.5 23.5 v 8.5 8.5 h -23.5 -23.5 z m 0,-43 v -8.5 h 23.5 23.5 v 8.5 8.5 h -23.5 -23.5 z m 0,-42.0001 v -8.5 h 23.5 23.5 v 8.5 8.5 h -23.5 -23.5 z m -154,-143.9112 -176.5,-102.2782 -0.23813,-204.40531 -0.23812,-204.405285 172.98812,-99.961745 172.98813,-99.96175 v -197.78825 -197.78826 h 8.49752 8.49752 l 0.25248,197.64057 0.25248,197.64058 172.499999,99.71885 172.499991,99.718865 0.2524,204.929475 0.2524,204.92946 -176.991101,102.2111 c -97.3451,56.2161 -177.333669,102.1812 -177.752389,102.1446 -0.41871,-0.037 -80.1863,-46.0917 -177.2613,-102.3447 z M 32.529479,406.21889 201.0345,308.50999 200.782,113.07796 200.5295,-82.354055 32.529509,-179.29049 c -92.4,-53.31503 -168.284069,-97.0141 -168.631259,-97.10902 -0.34719,-0.0949 -76.72955,43.7024 -169.73858,97.3274 l -169.10733,97.500005 0.23859,194.895355 0.23858,194.89534 168.5,97.7924 c 92.675,53.7859 168.83636,97.8205 169.24747,97.8547 0.41111,0.034 76.574739,-43.9068 169.252499,-97.6468 z M 3.9611886,-126.44113 C -73.351391,-171.06317 -137.57963,-208.24711 -138.76823,-209.07211 l -2.16109,-1.5 4.06997,-7.27559 4.06998,-7.27559 3.15944,1.9259 c 1.73769,1.05925 64.809439,37.56563 140.159439,81.12528 75.34999,43.559655 138.434191,80.073715 140.187091,81.142345 l 3.187,1.94296 -4.059,6.4737 c -2.2324,3.56054 -4.3416,6.63779 -4.687,6.83833 -0.3455,0.20055 -63.883801,-36.14431 -141.1964114,-80.766355 z"
       id="path2830" />
  </g>
</svg>
