<?xml version="1.0" encoding="UTF-8" standalone="no"?>
<!DOCTYPE svg PUBLIC "-//W3C//DTD SVG 1.1//EN" "http://www.w3.org/Graphics/SVG/1.1/DTD/svg11.dtd">
<svg xmlns="http://www.w3.org/2000/svg" version="1.1" viewBox="0.00 0.00 1123.00 828.00">
<g stroke-width="2.00" fill="none" stroke-linecap="butt">
<path stroke="#565958" stroke-opacity="0.992" vector-effect="non-scaling-stroke" d="
  M 171.00 7.61
  L 164.47 7.91
  A 0.52 0.51 88.9 0 0 163.98 8.43
  L 163.97 183.66
  Q 163.97 184.68 163.09 185.18
  Q 85.75 229.86 9.85 273.70
  C 7.10 275.28 7.96 277.08 7.97 279.62
  Q 8.09 368.17 7.91 458.08
  A 2.01 2.00 15.1 0 0 8.91 459.81
  L 60.24 489.37
  Q 61.15 489.90 60.88 488.88
  L 59.85 485.05
  A 0.26 0.25 74.6 0 1 60.02 484.74
  Q 60.14 484.71 60.29 484.72"
/>
<path stroke="#565958" stroke-opacity="0.992" vector-effect="non-scaling-stroke" d="
  M 171.27 183.95
  Q 170.77 184.12 171.16 184.96
  A 0.98 0.94 -88.6 0 0 171.55 185.39
  L 326.96 275.12"
/>
<path stroke="#565958" stroke-opacity="0.992" vector-effect="non-scaling-stroke" d="
  M 326.95 459.00
  L 171.41 548.77
  A 0.80 0.80 0.0 0 0 171.03 549.33
  Q 170.90 550.09 171.22 549.92"
/>
<path stroke="#565958" stroke-opacity="0.992" vector-effect="non-scaling-stroke" d="
  M 170.98 723.96
  L 169.31 724.81
  Q 168.80 725.07 169.50 724.84
  Q 170.94 724.38 172.80 725.46
  Q 247.33 768.48 324.02 812.75
  Q 324.26 812.89 324.12 813.14
  L 320.96 818.56
  Q 320.63 819.12 320.06 818.79
  L 167.71 730.82
  Q 167.24 730.54 166.76 730.82
  L 14.98 818.46
  Q 13.91 819.08 13.29 818.01
  L 10.98 813.98
  A 1.34 1.33 -30.0 0 1 11.47 812.16
  L 161.69 725.41
  Q 162.87 724.72 162.43 723.43
  L 84.75 499.00
  Q 84.41 498.02 85.41 497.73
  L 119.29 488.09
  Q 120.19 487.84 120.38 488.75
  L 161.69 683.00"
/>
<path stroke="#565958" stroke-opacity="0.992" vector-effect="non-scaling-stroke" d="
  M 162.71 683.25
  Q 162.83 683.61 162.49 683.91
  Q 162.20 684.16 162.25 684.55
  L 163.63 694.54
  Q 163.72 695.22 164.15 694.69
  Q 164.45 694.31 164.29 693.74
  C 162.82 688.32 164.00 681.65 163.90 676.06
  Q 163.72 665.89 163.74 662.81
  Q 164.10 606.19 163.73 549.63
  Q 163.72 549.06 163.22 548.79
  Q 158.58 546.34 153.43 543.23
  C 150.40 541.41 151.75 537.81 149.87 535.26"
/>
<path stroke="#565958" stroke-opacity="0.992" vector-effect="non-scaling-stroke" d="
  M 149.58 534.05
  L 150.23 533.65
  Q 150.74 533.34 151.25 533.64
  L 166.81 542.63
  Q 167.23 542.87 167.65 542.63
  L 319.24 455.03
  Q 319.66 454.79 319.66 454.30
  Q 319.88 372.29 319.69 290.32
  Q 319.68 288.29 318.99 287.23"
/>
<path stroke="#565958" stroke-opacity="0.992" vector-effect="non-scaling-stroke" d="
  M 319.05 282.12
  Q 319.81 281.08 319.74 279.76
  Q 319.72 279.26 319.29 279.02
  L 170.15 192.87
  Q 169.49 192.49 169.30 193.22
  L 121.14 371.18
  Q 120.96 371.87 120.28 371.63
  L 86.59 359.65
  A 0.67 0.67 0.0 0 1 86.20 358.74
  L 159.43 195.61
  A 0.15 0.15 0.0 0 0 159.17 195.46
  C 157.89 197.18 156.23 197.60 154.72 198.47
  Q 85.12 238.59 15.42 278.87
  Q 14.99 279.12 14.99 279.62
  L 15.09 454.32
  Q 15.09 455.03 15.71 455.39
  L 61.32 481.71
  Q 61.62 481.89 61.90 481.69
  Q 62.04 481.59 62.09 481.41"
/>
<path stroke="#565958" stroke-opacity="0.992" vector-effect="non-scaling-stroke" d="
  M 63.16 482.09
  Q 62.05 483.36 60.47 483.90"
/>
<path stroke="#565958" stroke-opacity="0.992" vector-effect="non-scaling-stroke" d="
  M 929.78 192.80
  C 925.73 194.10 921.07 194.52 917.51 196.12
  C 890.61 208.21 884.69 247.22 901.52 269.41
  C 911.01 281.93 926.80 287.33 942.18 284.85
  C 961.15 281.78 973.10 269.04 976.68 249.96
  C 981.56 223.95 969.67 197.35 941.49 193.38
  C 938.83 193.00 934.97 193.25 931.70 192.43"
/>
<path stroke="#565958" stroke-opacity="0.992" vector-effect="non-scaling-stroke" d="
  M 1101.74 490.19
  Q 1102.27 489.82 1102.79 490.14
  Q 1103.20 490.39 1102.96 490.81
  L 1017.25 639.31
  Q 1016.98 639.77 1016.46 639.63
  L 848.69 594.68
  Q 848.29 594.57 848.29 594.16
  L 848.24 391.26
  A 2.67 2.60 60.4 0 1 848.60 389.89
  L 901.16 298.99
  A 1.18 1.18 0.0 0 0 900.74 297.38
  L 896.44 294.82
  A 1.05 1.05 0.0 0 0 894.99 295.20
  L 845.29 381.29
  A 0.49 0.49 0.0 0 1 844.45 381.29
  L 758.37 232.13
  Q 758.03 231.54 757.44 231.89
  L 752.44 234.91
  Q 751.86 235.26 752.20 235.85
  L 838.81 385.82
  Q 839.44 386.92 838.22 387.24
  L 671.21 432.08
  Q 670.39 432.30 670.59 433.13
  L 671.80 438.23
  A 1.03 1.03 0.0 0 0 673.07 438.99
  Q 756.71 416.47 840.51 394.03
  Q 840.86 393.93 841.54 393.35
  Q 841.90 393.04 841.77 393.50
  Q 841.37 394.85 839.99 394.91"
/>
<path stroke="#565958" stroke-opacity="0.992" vector-effect="non-scaling-stroke" d="
  M 1101.39 489.83
  L 935.25 445.23
  A 1.49 1.49 0.0 0 0 934.49 445.23
  L 869.66 462.60
  Q 869.05 462.77 869.03 462.14
  L 868.91 455.90
  A 0.62 0.61 -8.6 0 1 869.36 455.30
  L 930.64 438.88
  A 0.88 0.86 -29.5 0 1 931.48 439.10
  L 932.73 440.35
  A 0.26 0.25 -88.2 0 0 933.10 440.00
  Q 932.10 438.86 931.01 438.12"
/>
<path stroke="#565958" stroke-opacity="0.992" vector-effect="non-scaling-stroke" d="
  M 931.03 303.88
  L 937.07 303.78
  A 1.16 1.16 0.0 0 1 938.25 304.94
  L 938.25 432.03
  A 1.56 1.54 60.5 0 1 938.04 432.81
  Q 937.71 433.40 937.71 433.99
  Q 937.70 434.60 938.07 434.11
  Q 938.48 433.55 938.51 432.87
  Q 938.54 432.29 938.97 431.92
  Q 942.39 428.94 944.04 427.29
  Q 1001.45 369.67 1058.83 312.45
  A 1.05 1.05 0.0 0 1 1060.33 312.45
  L 1064.25 316.39
  A 0.52 0.52 0.0 0 1 1064.25 317.13
  L 941.53 439.85
  Q 941.44 439.94 941.56 439.95
  Q 943.27 440.17 943.94 439.03"
/>
<path stroke="#565958" stroke-opacity="0.992" vector-effect="non-scaling-stroke" d="
  M 944.55 439.98
  Q 944.53 440.16 944.69 440.34
  Q 944.78 440.46 944.99 440.52
  Q 1029.16 463.03 1112.39 485.37
  Q 1114.18 485.85 1113.25 487.45
  Q 1066.62 568.22 1020.97 647.20
  Q 1020.77 647.54 1019.93 648.24"
/>
<path stroke="#565958" stroke-opacity="0.992" vector-effect="non-scaling-stroke" d="
  M 1019.47 648.32
  Q 1019.64 647.78 1019.08 647.63
  Q 932.21 624.37 845.34 601.11
  Q 844.85 600.98 844.36 601.11
  L 666.27 648.89
  Q 663.55 649.62 664.96 647.18
  L 758.26 485.63
  A 1.66 1.65 7.2 0 1 759.26 484.86
  L 819.83 468.55
  Q 820.90 468.26 820.90 469.37
  L 820.90 475.96"
/>
<path stroke="#565958" stroke-opacity="0.992" vector-effect="non-scaling-stroke" d="
  M 820.12 476.56
  Q 819.57 476.07 818.57 476.34
  Q 794.35 482.77 770.15 489.31
  C 768.51 489.75 765.88 490.21 763.77 491.09
  A 1.53 1.51 3.0 0 0 763.06 491.72
  L 685.71 625.75"
/>
<path stroke="#565958" stroke-opacity="0.992" vector-effect="non-scaling-stroke" d="
  M 685.71 625.75
  L 678.76 637.68
  Q 678.44 638.23 679.06 638.07
  L 840.69 594.73
  A 0.43 0.42 80.3 0 0 841.00 594.28
  Q 840.98 593.88 840.51 594.03"
/>
<path stroke="#565958" stroke-opacity="0.992" vector-effect="non-scaling-stroke" d="
  M 956.81 212.19
  C 940.70 195.45 912.03 201.91 906.14 224.84
  C 900.26 247.73 908.24 278.02 937.98 275.41
  C 957.56 273.70 966.36 256.12 965.89 238.16
  C 965.65 228.62 963.35 218.97 956.81 212.19"
/>
<path stroke="#565958" stroke-opacity="0.992" vector-effect="non-scaling-stroke" d="
  M 123.78 413.78
  C 118.14 391.94 98.44 380.59 76.51 383.34
  C 56.25 385.89 44.54 400.29 41.26 419.74
  C 38.25 437.61 42.80 456.31 57.62 467.29
  C 75.45 480.50 103.96 477.48 117.16 458.73
  C 126.02 446.14 127.65 428.72 123.78 413.78"
/>
<path stroke="#565958" stroke-opacity="0.992" vector-effect="non-scaling-stroke" d="
  M 88.45 464.48
  Q 89.18 465.03 90.28 464.76
  C 111.72 459.38 117.19 435.25 112.33 416.42
  Q 107.17 396.36 86.51 392.78
  Q 85.20 392.55 84.47 393.25"
/>
<path stroke="#565958" stroke-opacity="0.992" vector-effect="non-scaling-stroke" d="
  M 82.50 393.33
  Q 82.55 392.72 82.25 392.73
  C 57.13 393.99 49.58 417.01 52.66 437.97
  C 55.13 454.80 69.31 468.31 87.13 464.89"
/>
</g>
<path fill="#adb3b1" fill-opacity="0.984" d="
  M 171.00 7.61
  L 164.47 7.91
  A 0.52 0.51 88.9 0 0 163.98 8.43
  L 163.97 183.66
  Q 163.97 184.68 163.09 185.18
  Q 85.75 229.86 9.85 273.70
  C 7.10 275.28 7.96 277.08 7.97 279.62
  Q 8.09 368.17 7.91 458.08
  A 2.01 2.00 15.1 0 0 8.91 459.81
  L 60.24 489.37
  Q 61.15 489.90 60.88 488.88
  L 59.85 485.05
  A 0.26 0.25 74.6 0 1 60.02 484.74
  Q 60.14 484.71 60.29 484.72
  Q 61.63 487.41 61.75 489.69
  Q 61.82 491.07 60.62 490.38
  L 7.46 459.77
  A 0.91 0.91 0.0 0 1 7.00 458.98
  L 7.00 274.88
  A 0.71 0.70 75.8 0 1 7.36 274.26
  L 162.65 184.58
  Q 163.00 184.38 163.00 183.98
  L 163.00 8.02
  A 0.90 0.90 0.0 0 1 163.77 7.13
  Q 167.76 6.51 171.00 7.61
  Z"
/>
<path fill="#000000" d="
  M 171.00 7.61
  L 171.27 183.95
  Q 170.77 184.12 171.16 184.96
  A 0.98 0.94 -88.6 0 0 171.55 185.39
  L 326.96 275.12
  L 326.95 459.00
  L 171.41 548.77
  A 0.80 0.80 0.0 0 0 171.03 549.33
  Q 170.90 550.09 171.22 549.92
  C 170.60 552.74 170.99 555.30 170.99 557.60
  Q 171.02 640.78 170.98 723.96
  L 169.31 724.81
  Q 168.80 725.07 169.50 724.84
  Q 170.94 724.38 172.80 725.46
  Q 247.33 768.48 324.02 812.75
  Q 324.26 812.89 324.12 813.14
  L 320.96 818.56
  Q 320.63 819.12 320.06 818.79
  L 167.71 730.82
  Q 167.24 730.54 166.76 730.82
  L 14.98 818.46
  Q 13.91 819.08 13.29 818.01
  L 10.98 813.98
  A 1.34 1.33 -30.0 0 1 11.47 812.16
  L 161.69 725.41
  Q 162.87 724.72 162.43 723.43
  L 84.75 499.00
  Q 84.41 498.02 85.41 497.73
  L 119.29 488.09
  Q 120.19 487.84 120.38 488.75
  L 161.69 683.00
  Q 162.27 683.31 162.71 683.25
  Q 162.83 683.61 162.49 683.91
  Q 162.20 684.16 162.25 684.55
  L 163.63 694.54
  Q 163.72 695.22 164.15 694.69
  Q 164.45 694.31 164.29 693.74
  C 162.82 688.32 164.00 681.65 163.90 676.06
  Q 163.72 665.89 163.74 662.81
  Q 164.10 606.19 163.73 549.63
  Q 163.72 549.06 163.22 548.79
  Q 158.58 546.34 153.43 543.23
  C 150.40 541.41 151.75 537.81 149.87 535.26
  L 149.58 534.05
  L 150.23 533.65
  Q 150.74 533.34 151.25 533.64
  L 166.81 542.63
  Q 167.23 542.87 167.65 542.63
  L 319.24 455.03
  Q 319.66 454.79 319.66 454.30
  Q 319.88 372.29 319.69 290.32
  Q 319.68 288.29 318.99 287.23
  L 319.05 282.12
  Q 319.81 281.08 319.74 279.76
  Q 319.72 279.26 319.29 279.02
  L 170.15 192.87
  Q 169.49 192.49 169.30 193.22
  L 121.14 371.18
  Q 120.96 371.87 120.28 371.63
  L 86.59 359.65
  A 0.67 0.67 0.0 0 1 86.20 358.74
  L 159.43 195.61
  A 0.15 0.15 0.0 0 0 159.17 195.46
  C 157.89 197.18 156.23 197.60 154.72 198.47
  Q 85.12 238.59 15.42 278.87
  Q 14.99 279.12 14.99 279.62
  L 15.09 454.32
  Q 15.09 455.03 15.71 455.39
  L 61.32 481.71
  Q 61.62 481.89 61.90 481.69
  Q 62.04 481.59 62.09 481.41
  Q 62.44 482.03 63.16 482.09
  Q 62.05 483.36 60.47 483.90
  L 60.29 484.72
  Q 60.14 484.71 60.02 484.74
  A 0.26 0.25 74.6 0 0 59.85 485.05
  L 60.88 488.88
  Q 61.15 489.90 60.24 489.37
  L 8.91 459.81
  A 2.01 2.00 15.1 0 1 7.91 458.08
  Q 8.09 368.17 7.97 279.62
  C 7.96 277.08 7.10 275.28 9.85 273.70
  Q 85.75 229.86 163.09 185.18
  Q 163.97 184.68 163.97 183.66
  L 163.98 8.43
  A 0.52 0.51 88.9 0 1 164.47 7.91
  L 171.00 7.61
  Z"
/>
<path fill="#adb3b1" fill-opacity="0.984" d="
  M 171.27 183.95
  C 171.77 184.33 172.19 184.90 172.71 185.20
  Q 249.63 229.60 326.53 274.02
  Q 326.95 274.26 327.03 274.74
  Q 327.07 274.98 326.96 275.12
  L 171.55 185.39
  A 0.98 0.94 -88.6 0 1 171.16 184.96
  Q 170.77 184.12 171.27 183.95
  Z"
/>
<path fill="#adb3b1" fill-opacity="0.984" d="
  M 929.78 192.80
  C 925.73 194.10 921.07 194.52 917.51 196.12
  C 890.61 208.21 884.69 247.22 901.52 269.41
  C 911.01 281.93 926.80 287.33 942.18 284.85
  C 961.15 281.78 973.10 269.04 976.68 249.96
  C 981.56 223.95 969.67 197.35 941.49 193.38
  C 938.83 193.00 934.97 193.25 931.70 192.43
  C 968.62 190.37 984.58 223.52 976.22 255.37
  C 970.27 278.07 948.64 289.20 926.26 285.19
  C 882.95 277.43 879.91 211.59 917.81 195.10
  Q 922.66 192.99 929.78 192.80
  Z"
/>
<path fill="#000000" d="
  M 931.70 192.43
  C 934.97 193.25 938.83 193.00 941.49 193.38
  C 969.67 197.35 981.56 223.95 976.68 249.96
  C 973.10 269.04 961.15 281.78 942.18 284.85
  C 926.80 287.33 911.01 281.93 901.52 269.41
  C 884.69 247.22 890.61 208.21 917.51 196.12
  C 921.07 194.52 925.73 194.10 929.78 192.80
  Q 930.16 192.36 931.70 192.43
  Z
  M 956.81 212.19
  C 940.70 195.45 912.03 201.91 906.14 224.84
  C 900.26 247.73 908.24 278.02 937.98 275.41
  C 957.56 273.70 966.36 256.12 965.89 238.16
  C 965.65 228.62 963.35 218.97 956.81 212.19
  Z"
/>
<path fill="#adb3b1" fill-opacity="0.984" d="
  M 319.05 282.12
  L 318.99 280.16
  Q 318.97 279.62 318.51 279.35
  L 171.26 194.31
  A 1.13 1.12 22.5 0 0 169.61 194.99
  L 121.80 371.63
  A 1.09 1.09 0.0 0 1 120.38 372.37
  L 85.97 360.12
  Q 84.93 359.76 85.38 358.75
  L 157.05 199.14
  A 0.68 0.67 84.6 0 0 156.05 198.31
  Q 153.83 199.86 151.48 201.22
  Q 87.09 238.30 22.83 275.60
  Q 19.88 277.31 17.20 278.42
  A 1.95 1.95 0.0 0 0 16.00 280.22
  L 16.00 454.25
  Q 16.00 454.81 16.48 455.09
  L 62.09 481.41
  Q 62.04 481.59 61.90 481.69
  Q 61.62 481.89 61.32 481.71
  L 15.71 455.39
  Q 15.09 455.03 15.09 454.32
  L 14.99 279.62
  Q 14.99 279.12 15.42 278.87
  Q 85.12 238.59 154.72 198.47
  C 156.23 197.60 157.89 197.18 159.17 195.46
  A 0.15 0.15 0.0 0 1 159.43 195.61
  L 86.20 358.74
  A 0.67 0.67 0.0 0 0 86.59 359.65
  L 120.28 371.63
  Q 120.96 371.87 121.14 371.18
  L 169.30 193.22
  Q 169.49 192.49 170.15 192.87
  L 319.29 279.02
  Q 319.72 279.26 319.74 279.76
  Q 319.81 281.08 319.05 282.12
  Z"
/>
<path fill="#adb3b1" fill-opacity="0.984" d="
  M 956.81 212.19
  C 963.35 218.97 965.65 228.62 965.89 238.16
  C 966.36 256.12 957.56 273.70 937.98 275.41
  C 908.24 278.02 900.26 247.73 906.14 224.84
  C 912.03 201.91 940.70 195.45 956.81 212.19
  Z
  M 907.64 255.51
  C 912.12 269.24 926.38 277.19 940.44 274.43
  C 960.51 270.51 966.17 251.76 964.80 233.69
  C 963.38 214.81 949.68 201.06 929.96 203.98
  C 919.94 205.46 911.66 212.03 908.07 221.69
  Q 901.97 238.09 907.64 255.51
  Z"
/>
<path fill="#adb3b1" fill-opacity="0.984" d="
  M 1101.74 490.19
  Q 1102.27 489.82 1102.79 490.14
  Q 1103.20 490.39 1102.96 490.81
  L 1017.25 639.31
  Q 1016.98 639.77 1016.46 639.63
  L 848.69 594.68
  Q 848.29 594.57 848.29 594.16
  L 848.24 391.26
  A 2.67 2.60 60.4 0 1 848.60 389.89
  L 901.16 298.99
  A 1.18 1.18 0.0 0 0 900.74 297.38
  L 896.44 294.82
  A 1.05 1.05 0.0 0 0 894.99 295.20
  L 845.29 381.29
  A 0.49 0.49 0.0 0 1 844.45 381.29
  L 758.37 232.13
  Q 758.03 231.54 757.44 231.89
  L 752.44 234.91
  Q 751.86 235.26 752.20 235.85
  L 838.81 385.82
  Q 839.44 386.92 838.22 387.24
  L 671.21 432.08
  Q 670.39 432.30 670.59 433.13
  L 671.80 438.23
  A 1.03 1.03 0.0 0 0 673.07 438.99
  Q 756.71 416.47 840.51 394.03
  Q 840.86 393.93 841.54 393.35
  Q 841.90 393.04 841.77 393.50
  Q 841.37 394.85 839.99 394.91
  L 672.04 439.99
  A 0.71 0.70 -12.9 0 1 671.16 439.44
  L 670.07 433.67
  A 2.13 2.13 0.0 0 1 671.61 431.22
  L 837.67 386.69
  A 0.51 0.50 67.3 0 0 837.97 385.95
  Q 794.93 311.36 751.78 236.71
  C 750.11 233.82 756.34 231.70 758.22 231.13
  Q 758.64 231.01 758.85 231.38
  Q 801.55 305.47 843.38 378.29
  Q 843.75 378.93 843.85 379.16
  A 0.95 0.95 0.0 0 0 845.54 379.27
  L 894.37 294.71
  A 1.41 1.41 0.0 0 1 896.21 294.15
  L 901.22 296.63
  A 1.77 1.77 0.0 0 1 901.97 299.11
  L 849.73 389.48
  A 5.50 5.46 -30.2 0 0 849.00 392.21
  L 849.00 592.23
  Q 849.00 594.06 850.77 594.53
  L 1016.04 638.84
  Q 1016.52 638.97 1016.77 638.54
  Q 1059.35 564.77 1101.98 490.98
  Q 1102.28 490.45 1101.74 490.19
  Z"
/>
<path fill="#000000" d="
  M 1101.74 490.19
  Q 1101.07 490.06 1101.39 489.83
  L 935.25 445.23
  A 1.49 1.49 0.0 0 0 934.49 445.23
  L 869.66 462.60
  Q 869.05 462.77 869.03 462.14
  L 868.91 455.90
  A 0.62 0.61 -8.6 0 1 869.36 455.30
  L 930.64 438.88
  A 0.88 0.86 -29.5 0 1 931.48 439.10
  L 932.73 440.35
  A 0.26 0.25 -88.2 0 0 933.10 440.00
  Q 932.10 438.86 931.01 438.12
  L 931.03 303.88
  L 937.07 303.78
  A 1.16 1.16 0.0 0 1 938.25 304.94
  L 938.25 432.03
  A 1.56 1.54 60.5 0 1 938.04 432.81
  Q 937.71 433.40 937.71 433.99
  Q 937.70 434.60 938.07 434.11
  Q 938.48 433.55 938.51 432.87
  Q 938.54 432.29 938.97 431.92
  Q 942.39 428.94 944.04 427.29
  Q 1001.45 369.67 1058.83 312.45
  A 1.05 1.05 0.0 0 1 1060.33 312.45
  L 1064.25 316.39
  A 0.52 0.52 0.0 0 1 1064.25 317.13
  L 941.53 439.85
  Q 941.44 439.94 941.56 439.95
  Q 943.27 440.17 943.94 439.03
  Q 943.87 439.63 944.55 439.98
  Q 944.53 440.16 944.69 440.34
  Q 944.78 440.46 944.99 440.52
  Q 1029.16 463.03 1112.39 485.37
  Q 1114.18 485.85 1113.25 487.45
  Q 1066.62 568.22 1020.97 647.20
  Q 1020.77 647.54 1019.93 648.24
  Q 1019.36 648.16 1019.47 648.32
  Q 1019.64 647.78 1019.08 647.63
  Q 932.21 624.37 845.34 601.11
  Q 844.85 600.98 844.36 601.11
  L 666.27 648.89
  Q 663.55 649.62 664.96 647.18
  L 758.26 485.63
  A 1.66 1.65 7.2 0 1 759.26 484.86
  L 819.83 468.55
  Q 820.90 468.26 820.90 469.37
  L 820.90 475.96
  Q 819.71 476.32 820.12 476.56
  Q 819.57 476.07 818.57 476.34
  Q 794.35 482.77 770.15 489.31
  C 768.51 489.75 765.88 490.21 763.77 491.09
  A 1.53 1.51 3.0 0 0 763.06 491.72
  L 685.71 625.75
  L 678.76 637.68
  Q 678.44 638.23 679.06 638.07
  L 840.69 594.73
  A 0.43 0.42 80.3 0 0 841.00 594.28
  Q 840.98 593.88 840.51 594.03
  L 840.78 593.56
  Q 841.01 593.16 841.00 592.71
  Q 841.00 503.16 841.00 413.61
  C 841.00 409.35 841.48 401.59 840.94 395.50
  Q 840.90 394.97 839.99 394.91
  Q 841.37 394.85 841.77 393.50
  Q 841.90 393.04 841.54 393.35
  Q 840.86 393.93 840.51 394.03
  Q 756.71 416.47 673.07 438.99
  A 1.03 1.03 0.0 0 1 671.80 438.23
  L 670.59 433.13
  Q 670.39 432.30 671.21 432.08
  L 838.22 387.24
  Q 839.44 386.92 838.81 385.82
  L 752.20 235.85
  Q 751.86 235.26 752.44 234.91
  L 757.44 231.89
  Q 758.03 231.54 758.37 232.13
  L 844.45 381.29
  A 0.49 0.49 0.0 0 0 845.29 381.29
  L 894.99 295.20
  A 1.05 1.05 0.0 0 1 896.44 294.82
  L 900.74 297.38
  A 1.18 1.18 0.0 0 1 901.16 298.99
  L 848.60 389.89
  A 2.67 2.60 60.4 0 0 848.24 391.26
  L 848.29 594.16
  Q 848.29 594.57 848.69 594.68
  L 1016.46 639.63
  Q 1016.98 639.77 1017.25 639.31
  L 1102.96 490.81
  Q 1103.20 490.39 1102.79 490.14
  Q 1102.27 489.82 1101.74 490.19
  Z"
/>
<path fill="#adb3b1" fill-opacity="0.984" d="
  M 318.99 287.23
  Q 319.68 288.29 319.69 290.32
  Q 319.88 372.29 319.66 454.30
  Q 319.66 454.79 319.24 455.03
  L 167.65 542.63
  Q 167.23 542.87 166.81 542.63
  L 151.25 533.64
  Q 150.74 533.34 150.23 533.65
  L 149.58 534.05
  Q 149.08 533.42 149.03 532.88
  A 0.71 0.71 0.0 0 1 150.09 532.21
  L 166.67 541.72
  Q 167.15 542.00 167.64 541.72
  L 318.61 454.55
  Q 318.98 454.34 318.98 453.91
  L 318.99 287.23
  Z"
/>
<path fill="#adb3b1" fill-opacity="0.984" d="
  M 943.94 439.03
  Q 943.27 440.17 941.56 439.95
  Q 941.44 439.94 941.53 439.85
  L 1064.25 317.13
  A 0.52 0.52 0.0 0 0 1064.25 316.39
  L 1060.33 312.45
  A 1.05 1.05 0.0 0 0 1058.83 312.45
  Q 1001.45 369.67 944.04 427.29
  Q 942.39 428.94 938.97 431.92
  Q 938.54 432.29 938.51 432.87
  Q 938.48 433.55 938.07 434.11
  Q 937.70 434.60 937.71 433.99
  Q 937.71 433.40 938.04 432.81
  A 1.56 1.54 60.5 0 0 938.25 432.03
  L 938.25 304.94
  A 1.16 1.16 0.0 0 0 937.07 303.78
  L 931.03 303.88
  Q 932.59 302.44 935.83 303.13
  A 1.07 0.06 -10.2 0 0 936.75 303.02
  Q 937.68 302.87 938.56 303.16
  Q 939.00 303.30 939.00 303.76
  L 939.00 430.69
  A 0.38 0.38 0.0 0 0 939.65 430.96
  L 1059.19 311.44
  A 0.62 0.61 44.7 0 1 1060.06 311.44
  L 1065.06 316.44
  A 0.63 0.62 -45.3 0 1 1065.06 317.33
  L 943.94 439.03
  Z"
/>
<path fill="#adb3b1" fill-opacity="0.984" d="
  M 55.16 466.35
  C 32.07 447.30 34.78 401.87 61.56 387.30
  C 74.49 380.27 90.84 380.71 103.96 387.37
  C 124.30 397.68 128.98 421.46 125.00 442.00
  Q 122.83 453.17 115.98 461.41
  C 101.42 478.93 72.94 481.02 55.16 466.35
  Z
  M 123.78 413.78
  C 118.14 391.94 98.44 380.59 76.51 383.34
  C 56.25 385.89 44.54 400.29 41.26 419.74
  C 38.25 437.61 42.80 456.31 57.62 467.29
  C 75.45 480.50 103.96 477.48 117.16 458.73
  C 126.02 446.14 127.65 428.72 123.78 413.78
  Z"
/>
<path fill="#000000" d="
  M 76.51 383.34
  C 98.44 380.59 118.14 391.94 123.78 413.78
  C 127.65 428.72 126.02 446.14 117.16 458.73
  C 103.96 477.48 75.45 480.50 57.62 467.29
  C 42.80 456.31 38.25 437.61 41.26 419.74
  C 44.54 400.29 56.25 385.89 76.51 383.34
  Z
  M 87.13 464.89
  Q 87.69 464.54 88.45 464.48
  Q 89.18 465.03 90.28 464.76
  C 111.72 459.38 117.19 435.25 112.33 416.42
  Q 107.17 396.36 86.51 392.78
  Q 85.20 392.55 84.47 393.25
  L 82.50 393.33
  Q 82.55 392.72 82.25 392.73
  C 57.13 393.99 49.58 417.01 52.66 437.97
  C 55.13 454.80 69.31 468.31 87.13 464.89
  Z"
/>
<path fill="#adb3b1" fill-opacity="0.984" d="
  M 82.50 393.33
  C 70.82 394.01 59.36 400.77 55.55 412.27
  C 47.88 435.49 56.16 467.59 87.13 464.89
  C 69.31 468.31 55.13 454.80 52.66 437.97
  C 49.58 417.01 57.13 393.99 82.25 392.73
  Q 82.55 392.72 82.50 393.33
  Z"
/>
<path fill="#adb3b1" fill-opacity="0.984" d="
  M 88.45 464.48
  Q 104.44 460.92 109.99 446.74
  C 118.37 425.31 111.48 395.97 84.47 393.25
  Q 85.20 392.55 86.51 392.78
  Q 107.17 396.36 112.33 416.42
  C 117.19 435.25 111.72 459.38 90.28 464.76
  Q 89.18 465.03 88.45 464.48
  Z"
/>
<path fill="#adb3b1" fill-opacity="0.984" d="
  M 931.01 438.12
  Q 932.10 438.86 933.10 440.00
  A 0.26 0.25 -88.2 0 1 932.73 440.35
  L 931.48 439.10
  A 0.88 0.86 -29.5 0 0 930.64 438.88
  L 869.36 455.30
  A 0.62 0.61 -8.6 0 0 868.91 455.90
  L 869.03 462.14
  Q 869.05 462.77 869.66 462.60
  L 934.49 445.23
  A 1.49 1.49 0.0 0 1 935.25 445.23
  L 1101.39 489.83
  Q 1100.31 490.15 1098.75 489.74
  Q 1017.64 467.94 936.49 446.27
  C 933.36 445.43 928.12 447.73 925.75 448.35
  Q 898.22 455.57 869.74 463.31
  A 1.38 1.37 82.3 0 1 868.00 461.98
  L 868.00 455.73
  Q 868.00 455.10 868.60 454.94
  L 931.01 438.12
  Z"
/>
<path fill="#adb3b1" fill-opacity="0.984" d="
  M 944.55 439.98
  L 1114.57 485.23
  A 0.56 0.56 0.0 0 1 1114.91 486.05
  Q 1068.17 567.02 1021.37 648.07
  Q 1021.10 648.54 1020.80 648.62
  Q 1020.34 648.74 1019.93 648.24
  Q 1020.77 647.54 1020.97 647.20
  Q 1066.62 568.22 1113.25 487.45
  Q 1114.18 485.85 1112.39 485.37
  Q 1029.16 463.03 944.99 440.52
  Q 944.78 440.46 944.69 440.34
  Q 944.53 440.16 944.55 439.98
  Z"
/>
<path fill="#adb3b1" fill-opacity="0.984" d="
  M 326.95 459.00
  Q 327.10 459.73 326.55 460.05
  Q 258.74 499.24 190.84 538.27
  Q 180.89 543.98 171.22 549.92
  Q 170.90 550.09 171.03 549.33
  A 0.80 0.80 0.0 0 1 171.41 548.77
  L 326.95 459.00
  Z"
/>
<path fill="#adb3b1" fill-opacity="0.984" d="
  M 820.90 475.96
  L 820.90 469.37
  Q 820.90 468.26 819.83 468.55
  L 759.26 484.86
  A 1.66 1.65 7.2 0 0 758.26 485.63
  L 664.96 647.18
  Q 663.55 649.62 666.27 648.89
  L 844.36 601.11
  Q 844.85 600.98 845.34 601.11
  Q 932.21 624.37 1019.08 647.63
  Q 1019.64 647.78 1019.47 648.32
  L 847.09 602.23
  A 8.08 8.08 0.0 0 0 842.91 602.23
  Q 760.54 624.33 677.23 646.67
  Q 670.38 648.51 664.92 649.72
  Q 662.22 650.32 663.60 647.92
  Q 710.50 566.75 756.42 487.17
  Q 756.91 486.33 758.20 484.69
  A 1.45 1.41 -77.5 0 1 758.96 484.19
  L 820.48 467.69
  A 1.19 1.19 0.0 0 1 821.97 468.80
  Q 822.08 472.02 821.95 475.44
  Q 821.91 476.38 820.90 475.96
  Z"
/>
<path fill="#adb3b1" fill-opacity="0.984" d="
  M 820.12 476.56
  L 764.35 491.43
  Q 763.89 491.56 763.65 491.97
  L 686.26 626.06
  Q 685.75 626.02 685.71 625.75
  L 763.06 491.72
  A 1.53 1.51 3.0 0 1 763.77 491.09
  C 765.88 490.21 768.51 489.75 770.15 489.31
  Q 794.35 482.77 818.57 476.34
  Q 819.57 476.07 820.12 476.56
  Z"
/>
<path fill="#adb3b1" fill-opacity="0.984" d="
  M 63.16 482.09
  Q 63.77 482.31 63.70 482.48
  Q 63.02 484.39 60.47 483.90
  Q 62.05 483.36 63.16 482.09
  Z"
/>
<path fill="#adb3b1" fill-opacity="0.984" d="
  M 161.69 683.00
  L 120.38 488.75
  Q 120.19 487.84 119.29 488.09
  L 85.41 497.73
  Q 84.41 498.02 84.75 499.00
  L 162.43 723.43
  Q 162.87 724.72 161.69 725.41
  L 11.47 812.16
  A 1.34 1.33 -30.0 0 0 10.98 813.98
  L 13.29 818.01
  Q 13.91 819.08 14.98 818.46
  L 166.76 730.82
  Q 167.24 730.54 167.71 730.82
  L 320.06 818.79
  Q 320.63 819.12 320.96 818.56
  L 324.12 813.14
  Q 324.26 812.89 324.02 812.75
  Q 247.33 768.48 172.80 725.46
  Q 170.94 724.38 169.50 724.84
  Q 168.80 725.07 169.31 724.81
  L 170.98 723.96
  L 324.77 812.37
  Q 325.35 812.71 325.00 813.28
  L 321.15 819.54
  A 0.58 0.58 0.0 0 1 320.36 819.74
  L 167.70 731.63
  Q 167.27 731.38 166.83 731.63
  L 14.19 819.81
  Q 13.63 820.14 13.30 819.57
  L 10.09 814.01
  Q 9.24 812.54 10.71 811.69
  L 161.54 724.64
  Q 161.96 724.40 161.80 723.94
  L 83.87 498.65
  Q 83.46 497.48 84.65 497.14
  L 120.29 487.16
  Q 120.75 487.04 120.85 487.50
  Q 140.38 579.10 159.83 670.71
  C 160.72 674.91 161.86 678.65 161.69 683.00
  Z"
/>
<path fill="#adb3b1" fill-opacity="0.984" d="
  M 162.71 683.25
  Q 162.75 683.09 162.87 683.00
  Q 163.00 682.90 163.00 682.74
  L 163.00 550.09
  Q 163.00 549.71 162.67 549.51
  L 151.64 542.90
  Q 151.19 542.63 151.10 542.12
  L 149.87 535.26
  C 151.75 537.81 150.40 541.41 153.43 543.23
  Q 158.58 546.34 163.22 548.79
  Q 163.72 549.06 163.73 549.63
  Q 164.10 606.19 163.74 662.81
  Q 163.72 665.89 163.90 676.06
  C 164.00 681.65 162.82 688.32 164.29 693.74
  Q 164.45 694.31 164.15 694.69
  Q 163.72 695.22 163.63 694.54
  L 162.25 684.55
  Q 162.20 684.16 162.49 683.91
  Q 162.83 683.61 162.71 683.25
  Z"
/>
<path fill="#adb3b1" fill-opacity="0.984" d="
  M 840.51 594.03
  Q 840.98 593.88 841.00 594.28
  A 0.43 0.42 80.3 0 1 840.69 594.73
  L 679.06 638.07
  Q 678.44 638.23 678.76 637.68
  L 685.71 625.75
  Q 685.75 626.02 686.26 626.06
  L 680.19 636.40
  Q 679.82 637.03 680.55 637.02
  Q 681.43 637.02 682.10 636.48
  Q 682.52 636.14 683.05 636.00
  L 840.51 594.03
  Z"
/>
</svg>
