<?xml version="1.0" encoding="UTF-8" standalone="no"?>
<!DOCTYPE svg PUBLIC "-//W3C//DTD SVG 1.1//EN" "http://www.w3.org/Graphics/SVG/1.1/DTD/svg11.dtd">
<svg xmlns="http://www.w3.org/2000/svg" version="1.1" viewBox="0.00 0.00 336.00 828.00">
<g stroke-width="2.00" fill="none" stroke-linecap="butt">
<path stroke="#5c605d" stroke-opacity="0.996" vector-effect="non-scaling-stroke" d="
  M 171.00 7.61
  L 164.54 7.99
  Q 163.98 8.03 163.98 8.59
  L 163.94 184.61
  Q 163.94 185.27 163.33 185.49
  Q 162.50 185.79 161.42 186.41
  Q 87.09 229.33 12.75 272.26
  Q 10.03 273.83 8.47 275.08
  A 1.24 1.23 71.0 0 0 8.00 276.05
  L 7.97 458.82
  Q 7.97 459.45 8.51 459.76
  L 163.45 549.22
  Q 163.92 549.49 163.92 550.03
  L 163.97 723.65
  A 1.15 1.15 0.0 0 1 163.39 724.65
  L 11.31 812.51
  A 1.15 1.14 60.6 0 0 10.88 814.06
  L 13.19 818.27
  A 1.26 1.26 0.0 0 0 14.93 818.75
  L 166.78 731.04
  Q 167.24 730.77 167.71 731.04
  L 319.08 818.43"
/>
<path stroke="#5c605d" stroke-opacity="0.996" vector-effect="non-scaling-stroke" d="
  M 171.59 184.80
  L 170.24 185.47
  Q 169.83 185.67 170.29 185.66
  Q 170.53 185.66 170.80 185.59
  A 1.27 1.26 -36.3 0 1 171.74 185.73
  L 325.38 274.42
  Q 325.84 274.69 326.06 275.17
  Q 326.47 276.09 327.19 276.02"
/>
<path stroke="#5c605d" stroke-opacity="0.996" vector-effect="non-scaling-stroke" d="
  M 326.97 459.16
  L 171.44 548.96
  A 0.92 0.92 0.0 0 0 170.98 549.68
  Q 170.95 550.02 171.22 549.98"
/>
<path stroke="#5c605d" stroke-opacity="0.996" vector-effect="non-scaling-stroke" d="
  M 170.95 724.51
  L 323.68 812.76
  A 0.71 0.70 30.3 0 1 323.94 813.73
  L 321.15 818.49
  Q 320.89 818.94 320.37 818.95
  Q 319.68 818.96 319.08 818.43"
/>
<path stroke="#5c605d" stroke-opacity="0.996" vector-effect="non-scaling-stroke" d="
  M 317.96 278.47
  L 169.31 192.66
  A 1.50 1.42 85.9 0 1 168.84 192.23
  Q 168.46 191.70 167.87 191.56
  Q 167.23 191.42 166.28 191.97
  Q 90.74 235.55 15.29 279.14
  A 0.56 0.55 -15.0 0 0 15.01 279.62
  L 15.05 454.72
  Q 15.05 455.24 15.50 455.50
  L 166.72 542.86
  Q 167.21 543.14 167.70 542.86
  L 317.37 456.36
  Q 317.57 456.25 317.43 456.07
  Q 317.35 455.97 317.22 455.91"
/>
<path stroke="#5c605d" stroke-opacity="0.996" vector-effect="non-scaling-stroke" d="
  M 165.7150 222.1908
  A 0.73 0.73 0.0 0 0 164.7178 221.9236
  L 42.7122 292.3636
  A 0.73 0.73 0.0 0 0 42.4450 293.3608
  L 45.3250 298.3492
  A 0.73 0.73 0.0 0 0 46.3222 298.6164
  L 168.3278 228.1764
  A 0.73 0.73 0.0 0 0 168.5950 227.1792
  L 165.7150 222.1908"
/>
<path stroke="#5c605d" stroke-opacity="0.996" vector-effect="non-scaling-stroke" d="
  M 289.2910 436.1251
  A 0.80 0.80 0.0 0 0 288.1982 435.8323
  L 166.2618 506.2323
  A 0.80 0.80 0.0 0 0 165.9690 507.3251
  L 168.7690 512.1749
  A 0.80 0.80 0.0 0 0 169.8618 512.4677
  L 291.7982 442.0677
  A 0.80 0.80 0.0 0 0 292.0910 440.9749
  L 289.2910 436.1251"
/>
</g>
<path fill="#bac1bc" fill-opacity="0.988" d="
  M 171.00 7.61
  L 164.54 7.99
  Q 163.98 8.03 163.98 8.59
  L 163.94 184.61
  Q 163.94 185.27 163.33 185.49
  Q 162.50 185.79 161.42 186.41
  Q 87.09 229.33 12.75 272.26
  Q 10.03 273.83 8.47 275.08
  A 1.24 1.23 71.0 0 0 8.00 276.05
  L 7.97 458.82
  Q 7.97 459.45 8.51 459.76
  L 163.45 549.22
  Q 163.92 549.49 163.92 550.03
  L 163.97 723.65
  A 1.15 1.15 0.0 0 1 163.39 724.65
  L 11.31 812.51
  A 1.15 1.14 60.6 0 0 10.88 814.06
  L 13.19 818.27
  A 1.26 1.26 0.0 0 0 14.93 818.75
  L 166.78 731.04
  Q 167.24 730.77 167.71 731.04
  L 319.08 818.43
  Q 318.94 818.78 318.75 818.78
  L 167.79 731.87
  Q 167.33 731.61 166.88 731.87
  L 14.28 820.01
  A 0.73 0.72 -30.0 0 1 13.30 819.75
  L 10.14 814.46
  A 1.85 1.85 0.0 0 1 10.80 811.91
  L 161.19 725.06
  A 3.60 3.60 0.0 0 0 162.99 721.94
  L 163.00 550.07
  Q 163.00 549.68 162.66 549.48
  Q 87.11 506.07 11.77 462.39
  C 9.54 461.09 7.00 461.07 7.00 457.76
  Q 7.00 367.16 7.00 277.02
  A 4.05 4.04 -15.1 0 1 9.02 273.52
  L 162.65 184.86
  Q 163.00 184.66 163.00 184.25
  L 163.00 8.02
  A 0.90 0.90 0.0 0 1 163.77 7.13
  Q 167.75 6.52 171.00 7.61
  Z"
/>
<path fill="#000000" d="
  M 171.00 7.61
  Q 171.00 93.79 171.00 179.61
  C 171.00 181.15 170.30 183.20 171.59 184.80
  L 170.24 185.47
  Q 169.83 185.67 170.29 185.66
  Q 170.53 185.66 170.80 185.59
  A 1.27 1.26 -36.3 0 1 171.74 185.73
  L 325.38 274.42
  Q 325.84 274.69 326.06 275.17
  Q 326.47 276.09 327.19 276.02
  L 326.97 459.16
  L 171.44 548.96
  A 0.92 0.92 0.0 0 0 170.98 549.68
  Q 170.95 550.02 171.22 549.98
  C 170.43 552.83 170.99 555.50 170.99 557.74
  Q 171.04 640.75 170.95 724.51
  L 323.68 812.76
  A 0.71 0.70 30.3 0 1 323.94 813.73
  L 321.15 818.49
  Q 320.89 818.94 320.37 818.95
  Q 319.68 818.96 319.08 818.43
  L 167.71 731.04
  Q 167.24 730.77 166.78 731.04
  L 14.93 818.75
  A 1.26 1.26 0.0 0 1 13.19 818.27
  L 10.88 814.06
  A 1.15 1.14 60.6 0 1 11.31 812.51
  L 163.39 724.65
  A 1.15 1.15 0.0 0 0 163.97 723.65
  L 163.92 550.03
  Q 163.92 549.49 163.45 549.22
  L 8.51 459.76
  Q 7.97 459.45 7.97 458.82
  L 8.00 276.05
  A 1.24 1.23 71.0 0 1 8.47 275.08
  Q 10.03 273.83 12.75 272.26
  Q 87.09 229.33 161.42 186.41
  Q 162.50 185.79 163.33 185.49
  Q 163.94 185.27 163.94 184.61
  L 163.98 8.59
  Q 163.98 8.03 164.54 7.99
  L 171.00 7.61
  Z
  M 317.22 455.91
  L 318.59 455.07
  A 0.88 0.87 -16.4 0 0 319.00 454.33
  L 319.00 280.02
  Q 319.00 279.62 318.66 279.41
  Q 317.92 278.94 317.96 278.47
  L 169.31 192.66
  A 1.50 1.42 85.9 0 1 168.84 192.23
  Q 168.46 191.70 167.87 191.56
  Q 167.23 191.42 166.28 191.97
  Q 90.74 235.55 15.29 279.14
  A 0.56 0.55 -15.0 0 0 15.01 279.62
  L 15.05 454.72
  Q 15.05 455.24 15.50 455.50
  L 166.72 542.86
  Q 167.21 543.14 167.70 542.86
  L 317.37 456.36
  Q 317.57 456.25 317.43 456.07
  Q 317.35 455.97 317.22 455.91
  Z"
/>
<path fill="#bac1bc" fill-opacity="0.988" d="
  M 171.59 184.80
  Q 249.04 229.54 326.51 274.24
  Q 327.02 274.54 327.19 276.02
  Q 326.47 276.09 326.06 275.17
  Q 325.84 274.69 325.38 274.42
  L 171.74 185.73
  A 1.27 1.26 -36.3 0 0 170.80 185.59
  Q 170.53 185.66 170.29 185.66
  Q 169.83 185.67 170.24 185.47
  L 171.59 184.80
  Z"
/>
<path fill="#bac1bc" fill-opacity="0.988" d="
  M 317.96 278.47
  Q 316.59 278.40 314.06 276.94
  Q 241.39 235.08 168.79 193.10
  Q 168.58 192.98 168.38 192.74
  Q 168.25 192.59 168.12 192.47
  Q 167.67 192.04 167.13 192.35
  L 16.53 279.28
  A 1.08 1.07 75.0 0 0 16.00 280.21
  L 16.00 454.02
  A 1.66 1.65 15.2 0 0 16.83 455.45
  L 166.61 541.98
  Q 167.14 542.28 167.67 541.98
  L 317.22 455.91
  Q 317.35 455.97 317.43 456.07
  Q 317.57 456.25 317.37 456.36
  L 167.70 542.86
  Q 167.21 543.14 166.72 542.86
  L 15.50 455.50
  Q 15.05 455.24 15.05 454.72
  L 15.01 279.62
  A 0.56 0.55 -15.0 0 1 15.29 279.14
  Q 90.74 235.55 166.28 191.97
  Q 167.23 191.42 167.87 191.56
  Q 168.46 191.70 168.84 192.23
  A 1.50 1.42 85.9 0 0 169.31 192.66
  L 317.96 278.47
  Z"
/>
<path fill="#bac1bc" fill-opacity="0.988" d="
  M 169.5949 227.5083
  A 0.70 0.70 0.0 0 1 169.3387 228.4645
  L 46.0513 299.6445
  A 0.70 0.70 0.0 0 1 45.0951 299.3883
  L 41.4251 293.0317
  A 0.70 0.70 0.0 0 1 41.6813 292.0755
  L 164.9687 220.8955
  A 0.70 0.70 0.0 0 1 165.9249 221.1517
  L 169.5949 227.5083
  Z
  M 165.7150 222.1908
  A 0.73 0.73 0.0 0 0 164.7178 221.9236
  L 42.7122 292.3636
  A 0.73 0.73 0.0 0 0 42.4450 293.3608
  L 45.3250 298.3492
  A 0.73 0.73 0.0 0 0 46.3222 298.6164
  L 168.3278 228.1764
  A 0.73 0.73 0.0 0 0 168.5950 227.1792
  L 165.7150 222.1908
  Z"
/>
<rect fill="#000000" x="-71.17" y="-3.61" transform="translate(105.52,260.27) rotate(-30.0)" width="142.34" height="7.22" rx="0.73"/>
<path fill="#bac1bc" fill-opacity="0.988" d="
  M 292.8769 440.8114
  A 1.31 1.31 0.0 0 1 292.3974 442.6009
  L 170.0626 513.2309
  A 1.31 1.31 0.0 0 1 168.2731 512.7514
  L 165.2231 507.4686
  A 1.31 1.31 0.0 0 1 165.7026 505.6791
  L 288.0374 435.0491
  A 1.31 1.31 0.0 0 1 289.8269 435.5286
  L 292.8769 440.8114
  Z
  M 289.2910 436.1251
  A 0.80 0.80 0.0 0 0 288.1982 435.8323
  L 166.2618 506.2323
  A 0.80 0.80 0.0 0 0 165.9690 507.3251
  L 168.7690 512.1749
  A 0.80 0.80 0.0 0 0 169.8618 512.4677
  L 291.7982 442.0677
  A 0.80 0.80 0.0 0 0 292.0910 440.9749
  L 289.2910 436.1251
  Z"
/>
<rect fill="#000000" x="-71.20" y="-3.60" transform="translate(229.03,474.15) rotate(-30.0)" width="142.40" height="7.20" rx="0.80"/>
<path fill="#bac1bc" fill-opacity="0.988" d="
  M 326.97 459.16
  Q 327.19 459.86 326.19 460.44
  Q 248.72 505.25 171.22 549.98
  Q 170.95 550.02 170.98 549.68
  A 0.92 0.92 0.0 0 1 171.44 548.96
  L 326.97 459.16
  Z"
/>
<path fill="#bac1bc" fill-opacity="0.988" d="
  M 170.95 724.51
  Q 172.50 724.71 175.55 726.47
  Q 250.06 769.51 324.61 812.50
  A 0.56 0.55 -65.2 0 1 324.85 813.16
  Q 323.64 816.70 321.09 819.41
  Q 320.71 819.81 320.22 819.55
  L 318.75 818.78
  Q 318.94 818.78 319.08 818.43
  Q 319.68 818.96 320.37 818.95
  Q 320.89 818.94 321.15 818.49
  L 323.94 813.73
  A 0.71 0.70 30.3 0 0 323.68 812.76
  L 170.95 724.51
  Z"
/>
</svg>
