<?xml version="1.0" encoding="UTF-8" standalone="no"?>
<!DOCTYPE svg PUBLIC "-//W3C//DTD SVG 1.1//EN" "http://www.w3.org/Graphics/SVG/1.1/DTD/svg11.dtd">
<svg xmlns="http://www.w3.org/2000/svg" version="1.1" viewBox="0.00 0.00 3001.00 697.00">
<g stroke-width="2.00" fill="none" stroke-linecap="butt">
<path stroke="#3d4340" stroke-opacity="0.992" vector-effect="non-scaling-stroke" d="
  M 378.81 403.12
  Q 378.63 403.17 378.51 403.23
  Q 378.09 403.42 378.49 403.66
  L 681.08 578.36
  Q 681.47 578.59 681.86 578.36
  Q 729.00 551.10 775.94 523.99
  Q 776.36 523.75 776.15 523.36"
/>
<path stroke="#3d4340" stroke-opacity="0.992" vector-effect="non-scaling-stroke" d="
  M 776.61 523.36
  Q 782.56 520.51 787.91 517.06
  C 790.66 515.28 794.54 513.66 797.53 511.20"
/>
<path stroke="#3d4340" stroke-opacity="0.992" vector-effect="non-scaling-stroke" d="
  M 797.66 510.92
  Q 797.87 511.34 798.01 511.27
  Q 808.57 505.44 818.74 498.94"
/>
<path stroke="#3d4340" stroke-opacity="0.992" vector-effect="non-scaling-stroke" d="
  M 818.74 498.94
  L 948.79 424.06"
/>
<path stroke="#3d4340" stroke-opacity="0.992" vector-effect="non-scaling-stroke" d="
  M 948.79 424.06
  L 1015.13 385.91
  Q 1017.15 384.74 1019.17 385.91
  L 1351.95 578.07
  A 1.53 1.53 0.0 0 0 1353.49 578.07
  L 1510.75 486.91"
/>
<path stroke="#3d4340" stroke-opacity="0.992" vector-effect="non-scaling-stroke" d="
  M 1510.83 486.55
  Q 1510.90 486.66 1510.96 486.77
  Q 1511.12 487.03 1511.38 486.88
  L 1680.15 389.45
  Q 1680.54 389.23 1680.54 388.79
  L 1680.58 7.78
  Q 1680.58 6.71 1681.65 6.72
  L 1696.77 6.75"
/>
<path stroke="#3d4340" stroke-opacity="0.992" vector-effect="non-scaling-stroke" d="
  M 1697.04 389.53
  L 2023.70 578.43
  Q 2024.08 578.65 2024.46 578.43
  L 2041.22 568.48"
/>
<path stroke="#3d4340" stroke-opacity="0.992" vector-effect="non-scaling-stroke" d="
  M 2041.22 568.48
  L 2082.44 544.27"
/>
<path stroke="#3d4340" stroke-opacity="0.992" vector-effect="non-scaling-stroke" d="
  M 2082.44 544.27
  Q 2093.56 538.87 2103.75 531.96"
/>
<path stroke="#3d4340" stroke-opacity="0.992" vector-effect="non-scaling-stroke" d="
  M 2103.75 531.96
  Q 2104.27 532.08 2104.48 531.96
  Q 2142.24 510.09 2180.05 488.30
  Q 2181.69 487.36 2181.98 486.93"
/>
<path stroke="#3d4340" stroke-opacity="0.992" vector-effect="non-scaling-stroke" d="
  M 2181.98 486.93
  L 2191.32 481.50"
/>
<path stroke="#3d4340" stroke-opacity="0.992" vector-effect="non-scaling-stroke" d="
  M 2191.98 481.01
  Q 2191.99 481.18 2192.14 481.23
  Q 2192.23 481.27 2192.32 481.21
  L 2342.79 394.06"
/>
<path stroke="#3d4340" stroke-opacity="0.992" vector-effect="non-scaling-stroke" d="
  M 2342.79 394.06
  Q 2350.03 390.51 2356.82 386.07
  Q 2357.77 385.45 2360.09 385.33
  Q 2360.58 385.30 2361.00 385.55
  L 2576.09 509.63"
/>
<path stroke="#3d4340" stroke-opacity="0.992" vector-effect="non-scaling-stroke" d="
  M 2534.11 504.29
  Q 2533.00 502.20 2529.66 501.53"
/>
<path stroke="#3d4340" stroke-opacity="0.992" vector-effect="non-scaling-stroke" d="
  M 2520.73 496.23
  Q 2515.26 492.28 2509.12 489.64"
/>
<path stroke="#3d4340" stroke-opacity="0.992" vector-effect="non-scaling-stroke" d="
  M 2461.55 462.25
  Q 2455.21 457.56 2447.91 454.30"
/>
<path stroke="#3d4340" stroke-opacity="0.992" vector-effect="non-scaling-stroke" d="
  M 2440.16 449.97
  Q 2439.08 447.92 2436.17 447.66"
/>
<path stroke="#3d4340" stroke-opacity="0.992" vector-effect="non-scaling-stroke" d="
  M 2420.58 438.67
  Q 2418.48 436.16 2415.14 435.54"
/>
<path stroke="#3d4340" stroke-opacity="0.992" vector-effect="non-scaling-stroke" d="
  M 2405.48 429.85
  Q 2403.20 427.40 2400.10 426.65"
/>
<path stroke="#3d4340" stroke-opacity="0.992" vector-effect="non-scaling-stroke" d="
  M 2368.35 408.53
  Q 2364.53 405.35 2360.08 403.05
  Q 2359.56 402.77 2359.21 402.95
  Q 2358.83 403.14 2358.51 403.65"
/>
<path stroke="#3d4340" stroke-opacity="0.992" vector-effect="non-scaling-stroke" d="
  M 2358.51 403.65
  L 2347.17 410.26"
/>
<path stroke="#3d4340" stroke-opacity="0.992" vector-effect="non-scaling-stroke" d="
  M 2347.05 410.37
  C 2339.03 414.42 2331.55 419.15 2323.69 423.47
  Q 2319.81 425.60 2316.05 428.26"
/>
<path stroke="#3d4340" stroke-opacity="0.992" vector-effect="non-scaling-stroke" d="
  M 2316.24 428.23
  Q 2312.71 429.32 2310.50 431.44"
/>
<path stroke="#3d4340" stroke-opacity="0.992" vector-effect="non-scaling-stroke" d="
  M 2310.50 431.44
  L 2295.23 440.14"
/>
<path stroke="#3d4340" stroke-opacity="0.992" vector-effect="non-scaling-stroke" d="
  M 2295.34 440.20
  Q 2292.92 440.84 2291.53 442.50"
/>
<path stroke="#3d4340" stroke-opacity="0.992" vector-effect="non-scaling-stroke" d="
  M 2291.53 442.50
  Q 2282.75 446.67 2274.62 452.26"
/>
<path stroke="#3d4340" stroke-opacity="0.992" vector-effect="non-scaling-stroke" d="
  M 2274.39 452.74
  Q 2273.94 452.27 2273.51 452.52
  Q 2263.95 458.04 2254.39 463.58
  Q 2254.37 463.60 2253.98 463.74
  Q 2253.70 463.84 2253.71 464.18"
/>
<path stroke="#3d4340" stroke-opacity="0.992" vector-effect="non-scaling-stroke" d="
  M 2253.71 464.18
  L 2232.46 476.61"
/>
<path stroke="#3d4340" stroke-opacity="0.992" vector-effect="non-scaling-stroke" d="
  M 2232.36 476.48
  Q 2230.00 477.26 2228.11 479.04"
/>
<path stroke="#3d4340" stroke-opacity="0.992" vector-effect="non-scaling-stroke" d="
  M 2228.04 479.25
  Q 2228.01 479.20 2227.99 479.16
  Q 2227.94 479.06 2227.83 479.12
  L 2207.17 490.94"
/>
<path stroke="#3d4340" stroke-opacity="0.992" vector-effect="non-scaling-stroke" d="
  M 2207.17 491.28
  Q 2203.80 492.24 2201.46 494.51"
/>
<path stroke="#3d4340" stroke-opacity="0.992" vector-effect="non-scaling-stroke" d="
  M 2201.46 494.51
  L 2165.55 515.22"
/>
<path stroke="#3d4340" stroke-opacity="0.992" vector-effect="non-scaling-stroke" d="
  M 2165.55 515.22
  L 2159.52 518.74"
/>
<path stroke="#3d4340" stroke-opacity="0.992" vector-effect="non-scaling-stroke" d="
  M 2159.52 518.74
  Q 2151.91 522.28 2144.84 527.26"
/>
<path stroke="#3d4340" stroke-opacity="0.992" vector-effect="non-scaling-stroke" d="
  M 2144.14 527.37
  L 2123.45 539.45"
/>
<path stroke="#3d4340" stroke-opacity="0.992" vector-effect="non-scaling-stroke" d="
  M 2123.45 539.45
  L 2102.34 551.66"
/>
<path stroke="#3d4340" stroke-opacity="0.992" vector-effect="non-scaling-stroke" d="
  M 2102.35 551.71
  L 2080.96 563.96"
/>
<path stroke="#3d4340" stroke-opacity="0.992" vector-effect="non-scaling-stroke" d="
  M 2080.96 563.96
  L 2035.48 590.19"
/>
<path stroke="#3d4340" stroke-opacity="0.992" vector-effect="non-scaling-stroke" d="
  M 2035.48 590.19
  C 2032.22 591.93 2026.71 596.05 2023.17 595.96
  Q 2022.67 595.94 2022.24 595.71
  L 2006.12 586.75"
/>
<path stroke="#3d4340" stroke-opacity="0.992" vector-effect="non-scaling-stroke" d="
  M 1974.06 568.36
  Q 1971.31 565.42 1967.63 564.73"
/>
<path stroke="#3d4340" stroke-opacity="0.992" vector-effect="non-scaling-stroke" d="
  M 1936.80 546.83
  Q 1932.71 543.45 1927.41 541.35"
/>
<path stroke="#3d4340" stroke-opacity="0.992" vector-effect="non-scaling-stroke" d="
  M 1921.53 537.80
  Q 1916.52 534.09 1910.95 531.86"
/>
<path stroke="#3d4340" stroke-opacity="0.992" vector-effect="non-scaling-stroke" d="
  M 1885.89 517.35
  Q 1880.37 513.00 1873.91 510.54"
/>
<path stroke="#3d4340" stroke-opacity="0.992" vector-effect="non-scaling-stroke" d="
  M 1858.49 501.63
  Q 1856.02 498.96 1852.92 498.44"
/>
<path stroke="#3d4340" stroke-opacity="0.992" vector-effect="non-scaling-stroke" d="
  M 1811.32 474.31
  Q 1804.14 469.11 1795.86 465.38"
/>
<path stroke="#3d4340" stroke-opacity="0.992" vector-effect="non-scaling-stroke" d="
  M 1789.96 461.95
  Q 1789.17 460.14 1786.61 460.20"
/>
<path stroke="#3d4340" stroke-opacity="0.992" vector-effect="non-scaling-stroke" d="
  M 1768.93 449.95
  Q 1767.93 447.87 1764.89 447.62"
/>
<path stroke="#3d4340" stroke-opacity="0.992" vector-effect="non-scaling-stroke" d="
  M 1732.77 429.02
  Q 1728.86 425.42 1723.63 423.74"
/>
<path stroke="#3d4340" stroke-opacity="0.992" vector-effect="non-scaling-stroke" d="
  M 1717.23 419.86
  Q 1713.04 416.53 1708.08 414.67"
/>
<path stroke="#3d4340" stroke-opacity="0.992" vector-effect="non-scaling-stroke" d="
  M 1697.50 408.53
  Q 1693.35 405.05 1688.65 403.21
  Q 1688.17 403.02 1687.74 403.28
  L 1676.03 410.24"
/>
<path stroke="#3d4340" stroke-opacity="0.992" vector-effect="non-scaling-stroke" d="
  M 1676.03 410.24
  L 1665.97 416.01"
/>
<path stroke="#3d4340" stroke-opacity="0.992" vector-effect="non-scaling-stroke" d="
  M 1665.97 416.01
  Q 1663.82 416.69 1662.31 418.23"
/>
<path stroke="#3d4340" stroke-opacity="0.992" vector-effect="non-scaling-stroke" d="
  M 1660.55 419.53
  Q 1660.41 419.19 1660.26 419.27
  Q 1652.74 423.25 1645.34 427.90"
/>
<path stroke="#3d4340" stroke-opacity="0.992" vector-effect="non-scaling-stroke" d="
  M 1645.14 428.28
  Q 1641.59 429.22 1639.50 431.45"
/>
<path stroke="#3d4340" stroke-opacity="0.992" vector-effect="non-scaling-stroke" d="
  M 1639.50 431.45
  L 1624.19 440.22"
/>
<path stroke="#3d4340" stroke-opacity="0.992" vector-effect="non-scaling-stroke" d="
  M 1624.19 440.22
  L 1603.56 452.30"
/>
<path stroke="#3d4340" stroke-opacity="0.992" vector-effect="non-scaling-stroke" d="
  M 1603.39 452.25
  L 1597.47 455.75"
/>
<path stroke="#3d4340" stroke-opacity="0.992" vector-effect="non-scaling-stroke" d="
  M 1597.47 455.75
  Q 1594.98 456.47 1593.22 458.15"
/>
<path stroke="#3d4340" stroke-opacity="0.992" vector-effect="non-scaling-stroke" d="
  M 1593.22 458.15
  Q 1587.80 460.44 1582.64 464.24"
/>
<path stroke="#3d4340" stroke-opacity="0.992" vector-effect="non-scaling-stroke" d="
  M 1582.58 464.21
  L 1556.97 478.91"
/>
<path stroke="#3d4340" stroke-opacity="0.992" vector-effect="non-scaling-stroke" d="
  M 1556.97 478.91
  L 1553.25 481.18"
/>
<path stroke="#3d4340" stroke-opacity="0.992" vector-effect="non-scaling-stroke" d="
  M 1553.25 481.18
  L 1540.47 488.53"
/>
<path stroke="#3d4340" stroke-opacity="0.992" vector-effect="non-scaling-stroke" d="
  M 1540.47 488.53
  Q 1538.15 489.12 1536.18 490.89"
/>
<path stroke="#3d4340" stroke-opacity="0.992" vector-effect="non-scaling-stroke" d="
  M 1536.18 490.89
  L 1515.60 502.69
  Q 1515.46 502.77 1515.54 502.90
  Q 1515.60 503.01 1515.75 503.05"
/>
<path stroke="#3d4340" stroke-opacity="0.992" vector-effect="non-scaling-stroke" d="
  M 1515.15 503.28
  Q 1511.69 504.44 1509.51 506.54"
/>
<path stroke="#3d4340" stroke-opacity="0.992" vector-effect="non-scaling-stroke" d="
  M 1509.51 506.54
  C 1508.01 506.65 1507.11 507.64 1506.09 508.22
  Q 1489.67 517.46 1473.37 527.12"
/>
<path stroke="#3d4340" stroke-opacity="0.992" vector-effect="non-scaling-stroke" d="
  M 1473.37 527.12
  L 1431.45 551.44"
/>
<path stroke="#3d4340" stroke-opacity="0.992" vector-effect="non-scaling-stroke" d="
  M 1431.45 551.44
  L 1425.41 554.96"
/>
<path stroke="#3d4340" stroke-opacity="0.992" vector-effect="non-scaling-stroke" d="
  M 1425.41 554.96
  C 1423.43 555.59 1421.48 557.10 1420.17 557.84
  Q 1412.64 562.11 1405.08 566.34
  Q 1404.37 566.74 1404.34 567.36"
/>
<path stroke="#3d4340" stroke-opacity="0.992" vector-effect="non-scaling-stroke" d="
  M 1404.34 567.36
  Q 1402.18 567.43 1400.46 569.54"
/>
<path stroke="#3d4340" stroke-opacity="0.992" vector-effect="non-scaling-stroke" d="
  M 1400.46 569.54
  Q 1399.97 569.40 1399.31 569.81
  Q 1395.48 572.17 1383.68 578.67
  Q 1383.38 578.83 1383.57 579.22"
/>
<path stroke="#3d4340" stroke-opacity="0.992" vector-effect="non-scaling-stroke" d="
  M 1383.57 579.22
  L 1368.15 588.02"
/>
<path stroke="#3d4340" stroke-opacity="0.992" vector-effect="non-scaling-stroke" d="
  M 1368.02 588.19
  Q 1366.09 588.59 1364.41 590.15"
/>
<path stroke="#3d4340" stroke-opacity="0.992" vector-effect="non-scaling-stroke" d="
  M 1364.41 590.15
  L 1353.55 596.27
  A 0.96 0.93 -47.3 0 1 1352.70 596.32
  L 1348.51 594.50"
/>
<path stroke="#3d4340" stroke-opacity="0.992" vector-effect="non-scaling-stroke" d="
  M 1346.01 593.27
  Q 1344.72 591.68 1342.96 591.33"
/>
<path stroke="#3d4340" stroke-opacity="0.992" vector-effect="non-scaling-stroke" d="
  M 1337.08 587.95
  Q 1332.47 584.74 1328.49 582.77
  Q 1328.08 582.57 1327.93 583.03"
/>
<path stroke="#3d4340" stroke-opacity="0.992" vector-effect="non-scaling-stroke" d="
  M 1204.95 512.02
  Q 1205.13 511.43 1204.77 511.22
  Q 1200.12 508.47 1196.16 506.77"
/>
<path stroke="#3d4340" stroke-opacity="0.992" vector-effect="non-scaling-stroke" d="
  M 1185.85 500.85
  C 1184.04 498.47 1177.58 495.66 1174.67 494.40"
/>
<path stroke="#3d4340" stroke-opacity="0.992" vector-effect="non-scaling-stroke" d="
  M 1162.95 487.67
  Q 1157.05 483.17 1150.18 480.21"
/>
<path stroke="#3d4340" stroke-opacity="0.992" vector-effect="non-scaling-stroke" d="
  M 1148.59 479.30
  Q 1146.76 477.08 1144.69 477.19"
/>
<path stroke="#3d4340" stroke-opacity="0.992" vector-effect="non-scaling-stroke" d="
  M 1086.38 443.48
  Q 1082.68 440.55 1078.55 438.31
  C 1074.51 436.12 1070.28 433.27 1065.81 431.43"
/>
<path stroke="#3d4340" stroke-opacity="0.992" vector-effect="non-scaling-stroke" d="
  M 1048.62 421.59
  Q 1046.92 419.46 1044.88 419.48"
/>
<path stroke="#3d4340" stroke-opacity="0.992" vector-effect="non-scaling-stroke" d="
  M 1023.19 406.87
  Q 1020.67 404.39 1017.53 403.15
  Q 1017.09 402.98 1016.69 403.23
  L 1010.17 407.17"
/>
<path stroke="#3d4340" stroke-opacity="0.992" vector-effect="non-scaling-stroke" d="
  M 1010.17 407.17
  L 995.01 415.88"
/>
<path stroke="#3d4340" stroke-opacity="0.992" vector-effect="non-scaling-stroke" d="
  M 995.01 415.88
  L 989.42 419.15"
/>
<path stroke="#3d4340" stroke-opacity="0.992" vector-effect="non-scaling-stroke" d="
  M 989.42 419.15
  Q 987.03 419.99 985.54 421.68"
/>
<path stroke="#3d4340" stroke-opacity="0.992" vector-effect="non-scaling-stroke" d="
  M 985.54 421.68
  Q 979.55 424.07 974.15 428.06"
/>
<path stroke="#3d4340" stroke-opacity="0.992" vector-effect="non-scaling-stroke" d="
  M 974.13 428.11
  L 968.48 431.21"
/>
<path stroke="#3d4340" stroke-opacity="0.992" vector-effect="non-scaling-stroke" d="
  M 968.56 431.35
  L 952.94 440.18"
/>
<path stroke="#3d4340" stroke-opacity="0.992" vector-effect="non-scaling-stroke" d="
  M 952.94 440.18
  L 932.19 452.15"
/>
<path stroke="#3d4340" stroke-opacity="0.992" vector-effect="non-scaling-stroke" d="
  M 932.19 452.15
  L 911.45 464.34"
/>
<path stroke="#3d4340" stroke-opacity="0.992" vector-effect="non-scaling-stroke" d="
  M 911.11 464.80
  Q 910.86 464.39 910.53 464.55
  Q 905.59 467.02 901.26 470.34"
/>
<path stroke="#3d4340" stroke-opacity="0.992" vector-effect="non-scaling-stroke" d="
  M 901.26 470.34
  Q 900.72 470.12 900.02 470.54
  Q 891.61 475.53 865.50 490.51
  Q 865.24 490.67 865.24 490.74
  Q 865.24 490.88 865.39 491.18"
/>
<path stroke="#3d4340" stroke-opacity="0.992" vector-effect="non-scaling-stroke" d="
  M 865.10 491.12
  C 860.35 493.09 855.78 496.42 851.89 498.47
  Q 844.97 502.12 838.46 506.39"
/>
<path stroke="#3d4340" stroke-opacity="0.992" vector-effect="non-scaling-stroke" d="
  M 838.46 506.39
  L 823.18 515.25"
/>
<path stroke="#3d4340" stroke-opacity="0.992" vector-effect="non-scaling-stroke" d="
  M 823.14 515.24
  L 817.41 518.41"
/>
<path stroke="#3d4340" stroke-opacity="0.992" vector-effect="non-scaling-stroke" d="
  M 817.41 518.41
  L 796.42 530.62"
/>
<path stroke="#3d4340" stroke-opacity="0.992" vector-effect="non-scaling-stroke" d="
  M 796.42 530.62
  Q 793.74 531.31 792.20 533.14"
/>
<path stroke="#3d4340" stroke-opacity="0.992" vector-effect="non-scaling-stroke" d="
  M 792.20 533.14
  L 775.17 542.98"
/>
<path stroke="#3d4340" stroke-opacity="0.992" vector-effect="non-scaling-stroke" d="
  M 775.17 542.98
  Q 775.00 542.98 774.76 543.01
  Q 774.56 543.04 774.37 543.15
  Q 763.01 549.82 751.49 556.23
  Q 750.84 556.59 750.50 557.27"
/>
<path stroke="#3d4340" stroke-opacity="0.992" vector-effect="non-scaling-stroke" d="
  M 750.50 557.27
  Q 738.65 563.36 729.75 569.00
  Q 729.40 569.22 729.60 569.64"
/>
<path stroke="#3d4340" stroke-opacity="0.992" vector-effect="non-scaling-stroke" d="
  M 729.60 569.64
  Q 729.48 569.55 729.33 569.50
  Q 729.01 569.38 728.71 569.56
  L 697.33 587.87"
/>
<path stroke="#3d4340" stroke-opacity="0.992" vector-effect="non-scaling-stroke" d="
  M 697.09 588.40
  Q 696.50 588.05 696.06 588.31
  Q 689.44 592.30 682.61 596.21
  A 2.11 2.11 0.0 0 1 680.56 596.23
  L 664.96 587.71"
/>
<path stroke="#3d4340" stroke-opacity="0.992" vector-effect="non-scaling-stroke" d="
  M 664.56 587.24
  L 659.54 584.18
  Q 659.31 584.04 659.24 584.31
  Q 659.21 584.42 659.18 584.56"
/>
<path stroke="#3d4340" stroke-opacity="0.992" vector-effect="non-scaling-stroke" d="
  M 658.41 583.79
  Q 653.39 580.01 647.69 577.82"
/>
<path stroke="#3d4340" stroke-opacity="0.992" vector-effect="non-scaling-stroke" d="
  M 637.48 571.83
  Q 632.52 568.00 626.69 565.73"
/>
<path stroke="#3d4340" stroke-opacity="0.992" vector-effect="non-scaling-stroke" d="
  M 615.56 559.28
  Q 613.79 557.22 611.16 556.81"
/>
<path stroke="#3d4340" stroke-opacity="0.992" vector-effect="non-scaling-stroke" d="
  M 600.39 550.46
  Q 595.76 546.66 590.16 544.63"
/>
<path stroke="#3d4340" stroke-opacity="0.992" vector-effect="non-scaling-stroke" d="
  M 543.99 517.90
  Q 541.38 515.05 538.19 514.74"
/>
<path stroke="#3d4340" stroke-opacity="0.992" vector-effect="non-scaling-stroke" d="
  M 432.79 453.86
  Q 429.19 450.36 423.61 448.37"
/>
<path stroke="#3d4340" stroke-opacity="0.992" vector-effect="non-scaling-stroke" d="
  M 397.04 433.09
  Q 394.93 430.49 392.12 430.44"
/>
<path stroke="#3d4340" stroke-opacity="0.992" vector-effect="non-scaling-stroke" d="
  M 373.81 419.77
  Q 371.12 417.02 366.93 415.75"
/>
<path stroke="#3d4340" stroke-opacity="0.992" vector-effect="non-scaling-stroke" d="
  M 364.75 414.31
  L 346.33 403.42
  Q 345.86 403.14 345.39 403.42
  L 339.43 407.01"
/>
<path stroke="#3d4340" stroke-opacity="0.992" vector-effect="non-scaling-stroke" d="
  M 339.12 407.24
  Q 336.49 407.87 335.98 409.29"
/>
<path stroke="#3d4340" stroke-opacity="0.992" vector-effect="non-scaling-stroke" d="
  M 333.57 410.49
  L 318.25 419.18"
/>
<path stroke="#3d4340" stroke-opacity="0.992" vector-effect="non-scaling-stroke" d="
  M 318.25 419.18
  L 297.58 431.19"
/>
<path stroke="#3d4340" stroke-opacity="0.992" vector-effect="non-scaling-stroke" d="
  M 297.62 431.28
  L 277.07 442.95
  Q 277.00 443.00 277.01 443.08
  Q 277.04 443.21 277.06 443.33"
/>
<path stroke="#3d4340" stroke-opacity="0.992" vector-effect="non-scaling-stroke" d="
  M 276.18 443.41
  L 255.61 455.37"
/>
<path stroke="#3d4340" stroke-opacity="0.992" vector-effect="non-scaling-stroke" d="
  M 255.34 455.93
  Q 254.95 455.61 254.55 455.83
  Q 242.41 462.77 229.95 470.06"
/>
<path stroke="#3d4340" stroke-opacity="0.992" vector-effect="non-scaling-stroke" d="
  M 230.23 470.21
  Q 227.48 470.71 226.44 472.51"
/>
<path stroke="#3d4340" stroke-opacity="0.992" vector-effect="non-scaling-stroke" d="
  M 224.52 473.40
  Q 216.43 477.27 209.25 482.24"
/>
<path stroke="#3d4340" stroke-opacity="0.992" vector-effect="non-scaling-stroke" d="
  M 209.25 482.24
  L 188.50 494.22"
/>
<path stroke="#3d4340" stroke-opacity="0.992" vector-effect="non-scaling-stroke" d="
  M 188.50 494.22
  L 167.65 506.23"
/>
<path stroke="#3d4340" stroke-opacity="0.992" vector-effect="non-scaling-stroke" d="
  M 167.59 506.64
  Q 167.50 506.40 167.40 506.29
  Q 167.29 506.18 167.07 506.31
  Q 157.10 512.11 147.08 517.84
  Q 146.61 518.11 146.54 518.56"
/>
<path stroke="#3d4340" stroke-opacity="0.992" vector-effect="non-scaling-stroke" d="
  M 146.40 518.93
  Q 146.32 518.77 146.24 518.66
  Q 146.02 518.38 145.72 518.56
  L 125.93 530.06
  Q 125.66 530.22 125.86 530.45
  Q 125.96 530.56 126.10 530.67"
/>
<path stroke="#3d4340" stroke-opacity="0.992" vector-effect="non-scaling-stroke" d="
  M 125.38 530.98
  Q 125.19 530.75 124.95 530.71
  Q 124.78 530.68 124.52 530.82
  Q 104.10 542.61 83.69 554.44
  Q 83.37 554.63 83.57 555.10"
/>
<path stroke="#3d4340" stroke-opacity="0.992" vector-effect="non-scaling-stroke" d="
  M 83.08 555.26
  Q 80.61 555.49 79.47 557.31"
/>
<path stroke="#3d4340" stroke-opacity="0.992" vector-effect="non-scaling-stroke" d="
  M 79.47 557.31
  Q 78.95 557.14 78.45 557.45
  Q 72.50 561.14 62.75 566.40
  Q 62.43 566.57 62.52 566.93
  Q 62.55 567.05 62.61 567.20"
/>
<path stroke="#3d4340" stroke-opacity="0.992" vector-effect="non-scaling-stroke" d="
  M 62.11 567.28
  Q 59.95 567.49 58.75 569.34"
/>
<path stroke="#3d4340" stroke-opacity="0.992" vector-effect="non-scaling-stroke" d="
  M 58.75 569.34
  Q 58.25 569.11 57.69 569.44
  Q 49.62 574.07 41.37 578.92"
/>
<path stroke="#3d4340" stroke-opacity="0.992" vector-effect="non-scaling-stroke" d="
  M 41.30 579.17
  L 37.41 581.39"
/>
<path stroke="#3d4340" stroke-opacity="0.992" vector-effect="non-scaling-stroke" d="
  M 37.41 581.39
  L 16.44 593.44"
/>
<path stroke="#3d4340" stroke-opacity="0.992" vector-effect="non-scaling-stroke" d="
  M 16.44 593.44
  Q 15.56 594.08 14.79 593.99
  Q 14.15 593.92 13.65 593.02
  Q 10.37 587.16 6.93 581.64
  A 0.96 0.96 0.0 0 1 7.26 580.29
  Q 44.50 558.90 81.56 537.65
  Q 93.63 530.73 105.60 523.33"
/>
<path stroke="#3d4340" stroke-opacity="0.992" vector-effect="non-scaling-stroke" d="
  M 106.04 523.25
  L 126.35 511.33"
/>
<path stroke="#3d4340" stroke-opacity="0.992" vector-effect="non-scaling-stroke" d="
  M 126.64 510.80
  Q 127.05 511.18 127.47 510.94
  Q 164.38 489.61 201.30 468.29
  Q 210.77 462.81 214.59 460.28"
/>
<path stroke="#3d4340" stroke-opacity="0.992" vector-effect="non-scaling-stroke" d="
  M 214.81 460.48
  L 323.38 397.57"
/>
<path stroke="#3d4340" stroke-opacity="0.992" vector-effect="non-scaling-stroke" d="
  M 323.71 397.26
  Q 323.73 397.39 323.86 397.46
  Q 323.93 397.51 324.00 397.46
  L 338.17 389.25
  Q 338.56 389.02 338.16 388.80
  Q 337.90 388.66 337.51 388.74"
/>
<path stroke="#3d4340" stroke-opacity="0.992" vector-effect="non-scaling-stroke" d="
  M 682.98 504.44
  L 685.02 500.76
  Q 685.28 500.29 684.82 500.02
  L 419.24 346.65"
/>
<path stroke="#3d4340" stroke-opacity="0.992" vector-effect="non-scaling-stroke" d="
  M 680.28 509.52
  Q 678.62 511.01 678.03 512.95
  A 1.05 1.04 23.3 0 1 676.51 513.55
  L 650.00 498.49"
/>
<path stroke="#3d4340" stroke-opacity="0.992" vector-effect="non-scaling-stroke" d="
  M 645.54 495.79
  L 634.42 489.53"
/>
<path stroke="#3d4340" stroke-opacity="0.992" vector-effect="non-scaling-stroke" d="
  M 625.04 484.10
  L 620.49 481.14
  Q 620.30 481.02 620.16 481.20
  L 619.99 481.44"
/>
<path stroke="#3d4340" stroke-opacity="0.992" vector-effect="non-scaling-stroke" d="
  M 433.51 373.78
  Q 433.70 373.79 433.81 373.75
  Q 434.15 373.63 433.88 373.39
  Q 432.23 371.92 430.11 371.72"
/>
<path stroke="#3d4340" stroke-opacity="0.992" vector-effect="non-scaling-stroke" d="
  M 420.12 365.86
  Q 418.21 363.49 414.90 362.75"
/>
<path stroke="#3d4340" stroke-opacity="0.992" vector-effect="non-scaling-stroke" d="
  M 1764.12 347.41
  Q 1854.44 400.33 1945.26 452.34
  C 1970.86 467.01 1996.18 482.06 2022.01 496.37"
/>
<path stroke="#3d4340" stroke-opacity="0.992" vector-effect="non-scaling-stroke" d="
  M 2003.14 504.28
  L 1987.95 495.71"
/>
<path stroke="#3d4340" stroke-opacity="0.992" vector-effect="non-scaling-stroke" d="
  M 1981.08 491.78
  Q 1979.22 489.41 1976.62 489.40"
/>
<path stroke="#3d4340" stroke-opacity="0.992" vector-effect="non-scaling-stroke" d="
  M 1965.88 482.91
  Q 1958.87 478.04 1951.16 474.38"
/>
<path stroke="#3d4340" stroke-opacity="0.992" vector-effect="non-scaling-stroke" d="
  M 1942.94 469.75
  Q 1938.57 466.22 1933.89 464.57"
/>
<path stroke="#3d4340" stroke-opacity="0.992" vector-effect="non-scaling-stroke" d="
  M 1928.86 461.52
  Q 1924.08 457.74 1918.90 455.97"
/>
<path stroke="#3d4340" stroke-opacity="0.992" vector-effect="non-scaling-stroke" d="
  M 1850.29 416.35
  Q 1848.78 414.14 1845.69 413.54"
/>
<path stroke="#3d4340" stroke-opacity="0.992" vector-effect="non-scaling-stroke" d="
  M 1829.05 404.09
  Q 1827.38 401.79 1825.41 402.07"
/>
<path stroke="#3d4340" stroke-opacity="0.992" vector-effect="non-scaling-stroke" d="
  M 1792.57 383.00
  Q 1788.31 379.26 1782.96 377.40"
/>
<path stroke="#3d4340" stroke-opacity="0.992" vector-effect="non-scaling-stroke" d="
  M 1756.88 362.41
  Q 1757.20 361.49 1755.85 361.17
  A 1.27 1.27 0.0 0 1 1755.20 359.10
  Q 1757.13 356.91 1757.61 353.87"
/>
<path stroke="#3d4340" stroke-opacity="0.992" vector-effect="non-scaling-stroke" d="
  M 2697.57 491.82
  L 2693.20 491.65"
/>
<path stroke="#3d4340" stroke-opacity="0.992" vector-effect="non-scaling-stroke" d="
  M 2704.15 492.12
  L 2714.63 493.56"
/>
<path stroke="#3d4340" stroke-opacity="0.992" vector-effect="non-scaling-stroke" d="
  M 2717.75 493.70
  L 2717.11 493.75
  A 0.17 0.17 0.0 0 0 2717.08 494.08
  Q 2740.48 500.07 2757.92 515.46"
/>
<path stroke="#3d4340" stroke-opacity="0.992" vector-effect="non-scaling-stroke" d="
  M 2761.35 518.47
  L 2774.76 537.40"
/>
<path stroke="#3d4340" stroke-opacity="0.992" vector-effect="non-scaling-stroke" d="
  M 2777.39 542.63
  Q 2777.74 546.01 2780.20 549.06"
/>
<path stroke="#3d4340" stroke-opacity="0.992" vector-effect="non-scaling-stroke" d="
  M 2785.53 568.98
  Q 2785.36 568.99 2785.26 569.00
  Q 2785.12 569.03 2785.15 569.17
  Q 2789.66 593.82 2784.43 616.98
  Q 2783.67 620.32 2784.17 621.79"
/>
<path stroke="#3d4340" stroke-opacity="0.992" vector-effect="non-scaling-stroke" d="
  M 2778.50 637.65
  Q 2762.46 673.45 2726.07 686.08"
/>
<path stroke="#3d4340" stroke-opacity="0.992" vector-effect="non-scaling-stroke" d="
  M 2719.61 688.07
  Q 2716.40 688.23 2713.89 689.63"
/>
<path stroke="#3d4340" stroke-opacity="0.992" vector-effect="non-scaling-stroke" d="
  M 2677.11 689.74
  L 2655.93 683.31"
/>
<path stroke="#3d4340" stroke-opacity="0.992" vector-effect="non-scaling-stroke" d="
  M 2635.16 669.90
  L 2623.00 656.91"
/>
<path stroke="#3d4340" stroke-opacity="0.992" vector-effect="non-scaling-stroke" d="
  M 2604.11 612.22
  Q 2605.50 610.60 2603.86 607.08"
/>
<path stroke="#3d4340" stroke-opacity="0.992" vector-effect="non-scaling-stroke" d="
  M 2603.53 606.00
  Q 2603.69 606.02 2603.79 605.99
  Q 2603.89 605.96 2603.88 605.86
  Q 2602.86 592.89 2603.92 579.92
  Q 2603.93 579.79 2603.80 579.76
  Q 2603.68 579.73 2603.53 579.76"
/>
<path stroke="#3d4340" stroke-opacity="0.992" vector-effect="non-scaling-stroke" d="
  M 2603.74 578.48
  Q 2604.13 578.46 2604.15 578.19
  C 2606.25 552.24 2616.51 529.32 2636.11 512.11"
/>
<path stroke="#3d4340" stroke-opacity="0.992" vector-effect="non-scaling-stroke" d="
  M 2636.11 512.11
  L 2648.41 503.28"
/>
<path stroke="#3d4340" stroke-opacity="0.992" vector-effect="non-scaling-stroke" d="
  M 2846.54 501.23
  Q 2845.74 533.98 2846.12 566.71
  C 2846.14 568.61 2845.50 571.92 2846.64 574.16"
/>
<path stroke="#3d4340" stroke-opacity="0.992" vector-effect="non-scaling-stroke" d="
  M 2946.11 574.05
  Q 2946.27 574.33 2946.65 573.21
  Q 2946.79 572.77 2946.80 572.25
  Q 2947.12 534.76 2946.36 497.21"
/>
<path stroke="#3d4340" stroke-opacity="0.992" vector-effect="non-scaling-stroke" d="
  M 2972.01 495.13
  L 2972.01 686.74
  A 0.74 0.74 0.0 0 1 2971.26 687.48
  L 2947.79 687.30
  A 1.19 1.19 0.0 0 1 2946.61 686.06
  C 2947.11 674.40 2946.79 660.57 2946.77 651.05
  Q 2946.72 624.39 2946.76 597.73
  Q 2946.76 597.34 2946.40 597.20
  L 2946.00 597.04"
/>
<path stroke="#3d4340" stroke-opacity="0.992" vector-effect="non-scaling-stroke" d="
  M 2846.74 597.24
  Q 2846.51 597.05 2846.26 597.10
  A 0.26 0.25 82.8 0 0 2846.07 597.35
  L 2846.27 686.81
  A 0.52 0.52 0.0 0 1 2845.75 687.33
  L 2821.54 687.56
  A 0.55 0.55 0.0 0 1 2820.99 687.01
  C 2821.02 627.84 2821.74 568.49 2820.80 509.31
  Q 2820.69 502.40 2821.10 495.50
  Q 2821.12 495.25 2820.02 495.11"
/>
<path stroke="#3d4340" stroke-opacity="0.992" vector-effect="non-scaling-stroke" d="
  M 2684.61 514.85
  Q 2681.11 513.82 2677.15 516.06"
/>
<path stroke="#3d4340" stroke-opacity="0.992" vector-effect="non-scaling-stroke" d="
  M 2676.28 516.32
  Q 2669.96 517.64 2664.40 520.97"
/>
<path stroke="#3d4340" stroke-opacity="0.992" vector-effect="non-scaling-stroke" d="
  M 2664.10 521.26
  Q 2662.04 521.52 2660.54 523.27"
/>
<path stroke="#3d4340" stroke-opacity="0.992" vector-effect="non-scaling-stroke" d="
  M 2660.68 523.17
  Q 2654.13 526.56 2649.20 532.01"
/>
<path stroke="#3d4340" stroke-opacity="0.992" vector-effect="non-scaling-stroke" d="
  M 2649.20 532.01
  Q 2648.64 532.01 2648.33 532.34
  C 2635.03 546.60 2629.65 566.55 2629.59 585.59"
/>
<path stroke="#3d4340" stroke-opacity="0.992" vector-effect="non-scaling-stroke" d="
  M 2629.66 600.81
  Q 2628.92 604.23 2630.08 607.38"
/>
<path stroke="#3d4340" stroke-opacity="0.992" vector-effect="non-scaling-stroke" d="
  M 2630.41 609.59
  Q 2631.58 622.73 2638.20 635.54
  Q 2642.45 643.76 2648.03 648.89"
/>
<path stroke="#3d4340" stroke-opacity="0.992" vector-effect="non-scaling-stroke" d="
  M 2650.48 651.40
  C 2663.12 664.92 2683.59 671.93 2702.36 668.93"
/>
<path stroke="#3d4340" stroke-opacity="0.992" vector-effect="non-scaling-stroke" d="
  M 2703.70 668.38
  Q 2703.93 669.00 2704.44 668.93
  Q 2730.58 665.32 2746.68 644.17
  Q 2757.30 630.22 2759.32 610.71"
/>
<path stroke="#3d4340" stroke-opacity="0.992" vector-effect="non-scaling-stroke" d="
  M 2760.59 594.82
  Q 2761.60 590.53 2760.62 586.17"
/>
<path stroke="#3d4340" stroke-opacity="0.992" vector-effect="non-scaling-stroke" d="
  M 2760.23 579.13
  Q 2760.42 569.32 2756.24 559.89"
/>
<path stroke="#3d4340" stroke-opacity="0.992" vector-effect="non-scaling-stroke" d="
  M 2755.96 558.91
  Q 2756.01 555.68 2754.08 553.64"
/>
<path stroke="#3d4340" stroke-opacity="0.992" vector-effect="non-scaling-stroke" d="
  M 2749.58 544.27
  Q 2742.78 531.67 2730.90 524.39"
/>
</g>
<path fill="#000000" d="
  M 378.81 403.12
  Q 378.63 403.17 378.51 403.23
  Q 378.09 403.42 378.49 403.66
  L 681.08 578.36
  Q 681.47 578.59 681.86 578.36
  Q 729.00 551.10 775.94 523.99
  Q 776.36 523.75 776.15 523.36
  Q 776.84 523.11 776.61 523.36
  Q 782.56 520.51 787.91 517.06
  C 790.66 515.28 794.54 513.66 797.53 511.20
  Q 797.86 510.94 797.66 510.92
  Q 797.87 511.34 798.01 511.27
  Q 808.57 505.44 818.74 498.94
  L 948.79 424.06
  L 1015.13 385.91
  Q 1017.15 384.74 1019.17 385.91
  L 1351.95 578.07
  A 1.53 1.53 0.0 0 0 1353.49 578.07
  L 1510.75 486.91
  Q 1511.11 486.69 1510.83 486.55
  Q 1510.90 486.66 1510.96 486.77
  Q 1511.12 487.03 1511.38 486.88
  L 1680.15 389.45
  Q 1680.54 389.23 1680.54 388.79
  L 1680.58 7.78
  Q 1680.58 6.71 1681.65 6.72
  L 1696.77 6.75
  L 1696.78 388.58
  Q 1696.78 388.89 1697.07 389.00
  Q 1697.43 389.14 1697.04 389.53
  L 2023.70 578.43
  Q 2024.08 578.65 2024.46 578.43
  L 2041.22 568.48
  L 2082.44 544.27
  Q 2093.56 538.87 2103.75 531.96
  Q 2104.27 532.08 2104.48 531.96
  Q 2142.24 510.09 2180.05 488.30
  Q 2181.69 487.36 2181.98 486.93
  L 2191.32 481.50
  Q 2191.20 481.30 2191.98 481.01
  Q 2191.99 481.18 2192.14 481.23
  Q 2192.23 481.27 2192.32 481.21
  L 2342.79 394.06
  Q 2350.03 390.51 2356.82 386.07
  Q 2357.77 385.45 2360.09 385.33
  Q 2360.58 385.30 2361.00 385.55
  L 2576.09 509.63
  Q 2577.98 509.71 2579.86 511.10
  Q 2580.23 511.37 2580.00 511.76
  L 2572.28 525.23
  A 1.04 1.04 0.0 0 1 2570.86 525.61
  L 2534.11 504.29
  Q 2533.00 502.20 2529.66 501.53
  L 2520.73 496.23
  Q 2515.26 492.28 2509.12 489.64
  C 2507.10 489.32 2505.66 487.74 2504.39 487.03
  Q 2482.76 474.86 2461.55 462.25
  Q 2455.21 457.56 2447.91 454.30
  L 2440.16 449.97
  Q 2439.08 447.92 2436.17 447.66
  L 2420.58 438.67
  Q 2418.48 436.16 2415.14 435.54
  L 2405.48 429.85
  Q 2403.20 427.40 2400.10 426.65
  L 2368.35 408.53
  Q 2364.53 405.35 2360.08 403.05
  Q 2359.56 402.77 2359.21 402.95
  Q 2358.83 403.14 2358.51 403.65
  L 2347.17 410.26
  Q 2347.69 410.50 2347.05 410.37
  C 2339.03 414.42 2331.55 419.15 2323.69 423.47
  Q 2319.81 425.60 2316.05 428.26
  Q 2316.15 428.25 2316.24 428.23
  Q 2312.71 429.32 2310.50 431.44
  L 2295.23 440.14
  Q 2295.29 440.17 2295.34 440.20
  Q 2292.92 440.84 2291.53 442.50
  Q 2282.75 446.67 2274.62 452.26
  Q 2274.05 452.60 2274.39 452.74
  Q 2273.94 452.27 2273.51 452.52
  Q 2263.95 458.04 2254.39 463.58
  Q 2254.37 463.60 2253.98 463.74
  Q 2253.70 463.84 2253.71 464.18
  L 2232.46 476.61
  Q 2232.41 476.55 2232.36 476.48
  Q 2230.00 477.26 2228.11 479.04
  Q 2228.72 478.91 2228.04 479.25
  Q 2228.01 479.20 2227.99 479.16
  Q 2227.94 479.06 2227.83 479.12
  L 2207.17 490.94
  Q 2207.39 490.91 2207.17 491.28
  Q 2203.80 492.24 2201.46 494.51
  L 2165.55 515.22
  L 2159.52 518.74
  Q 2151.91 522.28 2144.84 527.26
  Q 2145.30 527.74 2144.14 527.37
  L 2123.45 539.45
  L 2102.34 551.66
  Q 2102.34 551.69 2102.35 551.71
  L 2080.96 563.96
  L 2035.48 590.19
  C 2032.22 591.93 2026.71 596.05 2023.17 595.96
  Q 2022.67 595.94 2022.24 595.71
  L 2006.12 586.75
  L 1974.06 568.36
  Q 1971.31 565.42 1967.63 564.73
  L 1936.80 546.83
  Q 1932.71 543.45 1927.41 541.35
  L 1921.53 537.80
  Q 1916.52 534.09 1910.95 531.86
  L 1885.89 517.35
  Q 1880.37 513.00 1873.91 510.54
  L 1858.49 501.63
  Q 1856.02 498.96 1852.92 498.44
  L 1811.32 474.31
  Q 1804.14 469.11 1795.86 465.38
  L 1789.96 461.95
  Q 1789.17 460.14 1786.61 460.20
  L 1768.93 449.95
  Q 1767.93 447.87 1764.89 447.62
  L 1732.77 429.02
  Q 1728.86 425.42 1723.63 423.74
  L 1717.23 419.86
  Q 1713.04 416.53 1708.08 414.67
  L 1697.50 408.53
  Q 1693.35 405.05 1688.65 403.21
  Q 1688.17 403.02 1687.74 403.28
  L 1676.03 410.24
  L 1665.97 416.01
  Q 1663.82 416.69 1662.31 418.23
  Q 1661.94 418.90 1660.55 419.53
  Q 1660.41 419.19 1660.26 419.27
  Q 1652.74 423.25 1645.34 427.90
  Q 1645.57 427.93 1645.14 428.28
  Q 1641.59 429.22 1639.50 431.45
  L 1624.19 440.22
  L 1603.56 452.30
  Q 1602.98 452.86 1603.39 452.25
  L 1597.47 455.75
  Q 1594.98 456.47 1593.22 458.15
  Q 1587.80 460.44 1582.64 464.24
  Q 1582.61 464.22 1582.58 464.21
  L 1556.97 478.91
  L 1553.25 481.18
  L 1540.47 488.53
  Q 1538.15 489.12 1536.18 490.89
  L 1515.60 502.69
  Q 1515.46 502.77 1515.54 502.90
  Q 1515.60 503.01 1515.75 503.05
  Q 1515.67 503.31 1515.15 503.28
  Q 1511.69 504.44 1509.51 506.54
  C 1508.01 506.65 1507.11 507.64 1506.09 508.22
  Q 1489.67 517.46 1473.37 527.12
  L 1431.45 551.44
  L 1425.41 554.96
  C 1423.43 555.59 1421.48 557.10 1420.17 557.84
  Q 1412.64 562.11 1405.08 566.34
  Q 1404.37 566.74 1404.34 567.36
  Q 1402.18 567.43 1400.46 569.54
  Q 1399.97 569.40 1399.31 569.81
  Q 1395.48 572.17 1383.68 578.67
  Q 1383.38 578.83 1383.57 579.22
  L 1368.15 588.02
  Q 1368.77 588.05 1368.02 588.19
  Q 1366.09 588.59 1364.41 590.15
  L 1353.55 596.27
  A 0.96 0.93 -47.3 0 1 1352.70 596.32
  L 1348.51 594.50
  Q 1347.10 594.37 1346.01 593.27
  Q 1344.72 591.68 1342.96 591.33
  Q 1339.16 590.34 1337.08 587.95
  Q 1332.47 584.74 1328.49 582.77
  Q 1328.08 582.57 1327.93 583.03
  L 1204.95 512.02
  Q 1205.13 511.43 1204.77 511.22
  Q 1200.12 508.47 1196.16 506.77
  L 1185.85 500.85
  C 1184.04 498.47 1177.58 495.66 1174.67 494.40
  L 1162.95 487.67
  Q 1157.05 483.17 1150.18 480.21
  L 1148.59 479.30
  Q 1146.76 477.08 1144.69 477.19
  L 1086.38 443.48
  Q 1082.68 440.55 1078.55 438.31
  C 1074.51 436.12 1070.28 433.27 1065.81 431.43
  C 1062.89 430.43 1059.81 428.20 1057.91 427.13
  Q 1053.10 424.42 1048.62 421.59
  Q 1046.92 419.46 1044.88 419.48
  L 1023.19 406.87
  Q 1020.67 404.39 1017.53 403.15
  Q 1017.09 402.98 1016.69 403.23
  L 1010.17 407.17
  L 995.01 415.88
  L 989.42 419.15
  Q 987.03 419.99 985.54 421.68
  Q 979.55 424.07 974.15 428.06
  Q 974.01 428.55 974.13 428.11
  L 968.48 431.21
  Q 969.51 431.45 968.56 431.35
  L 952.94 440.18
  L 932.19 452.15
  L 911.45 464.34
  L 911.11 464.80
  Q 910.86 464.39 910.53 464.55
  Q 905.59 467.02 901.26 470.34
  Q 900.72 470.12 900.02 470.54
  Q 891.61 475.53 865.50 490.51
  Q 865.24 490.67 865.24 490.74
  Q 865.24 490.88 865.39 491.18
  Q 865.52 490.89 865.10 491.12
  C 860.35 493.09 855.78 496.42 851.89 498.47
  Q 844.97 502.12 838.46 506.39
  L 823.18 515.25
  Q 822.96 516.01 823.14 515.24
  L 817.41 518.41
  L 796.42 530.62
  Q 793.74 531.31 792.20 533.14
  L 775.17 542.98
  Q 775.00 542.98 774.76 543.01
  Q 774.56 543.04 774.37 543.15
  Q 763.01 549.82 751.49 556.23
  Q 750.84 556.59 750.50 557.27
  Q 738.65 563.36 729.75 569.00
  Q 729.40 569.22 729.60 569.64
  Q 729.48 569.55 729.33 569.50
  Q 729.01 569.38 728.71 569.56
  L 697.33 587.87
  Q 696.75 588.27 697.09 588.40
  Q 696.50 588.05 696.06 588.31
  Q 689.44 592.30 682.61 596.21
  A 2.11 2.11 0.0 0 1 680.56 596.23
  L 664.96 587.71
  Q 664.52 587.63 664.56 587.24
  L 659.54 584.18
  Q 659.31 584.04 659.24 584.31
  Q 659.21 584.42 659.18 584.56
  L 658.41 583.79
  Q 653.39 580.01 647.69 577.82
  L 637.48 571.83
  Q 632.52 568.00 626.69 565.73
  L 615.56 559.28
  Q 613.79 557.22 611.16 556.81
  L 600.39 550.46
  Q 595.76 546.66 590.16 544.63
  L 543.99 517.90
  Q 541.38 515.05 538.19 514.74
  L 432.79 453.86
  Q 429.19 450.36 423.61 448.37
  L 397.04 433.09
  Q 394.93 430.49 392.12 430.44
  L 373.81 419.77
  Q 371.12 417.02 366.93 415.75
  L 364.75 414.31
  L 346.33 403.42
  Q 345.86 403.14 345.39 403.42
  L 339.43 407.01
  L 339.12 407.24
  Q 336.49 407.87 335.98 409.29
  Q 335.03 410.26 333.57 410.49
  L 318.25 419.18
  L 297.58 431.19
  Q 297.60 431.23 297.62 431.28
  L 277.07 442.95
  Q 277.00 443.00 277.01 443.08
  Q 277.04 443.21 277.06 443.33
  Q 276.65 443.69 276.18 443.41
  L 255.61 455.37
  L 255.34 455.93
  Q 254.95 455.61 254.55 455.83
  Q 242.41 462.77 229.95 470.06
  Q 230.09 470.14 230.23 470.21
  Q 227.48 470.71 226.44 472.51
  Q 225.77 473.55 224.52 473.40
  Q 216.43 477.27 209.25 482.24
  L 188.50 494.22
  L 167.65 506.23
  Q 167.87 506.01 167.59 506.64
  Q 167.50 506.40 167.40 506.29
  Q 167.29 506.18 167.07 506.31
  Q 157.10 512.11 147.08 517.84
  Q 146.61 518.11 146.54 518.56
  Q 146.12 518.85 146.40 518.93
  Q 146.32 518.77 146.24 518.66
  Q 146.02 518.38 145.72 518.56
  L 125.93 530.06
  Q 125.66 530.22 125.86 530.45
  Q 125.96 530.56 126.10 530.67
  Q 124.88 530.74 125.38 530.98
  Q 125.19 530.75 124.95 530.71
  Q 124.78 530.68 124.52 530.82
  Q 104.10 542.61 83.69 554.44
  Q 83.37 554.63 83.57 555.10
  Q 83.58 554.77 83.08 555.26
  Q 80.61 555.49 79.47 557.31
  Q 78.95 557.14 78.45 557.45
  Q 72.50 561.14 62.75 566.40
  Q 62.43 566.57 62.52 566.93
  Q 62.55 567.05 62.61 567.20
  Q 62.57 566.68 62.11 567.28
  Q 59.95 567.49 58.75 569.34
  Q 58.25 569.11 57.69 569.44
  Q 49.62 574.07 41.37 578.92
  Q 41.94 579.18 41.30 579.17
  L 37.41 581.39
  L 16.44 593.44
  Q 15.56 594.08 14.79 593.99
  Q 14.15 593.92 13.65 593.02
  Q 10.37 587.16 6.93 581.64
  A 0.96 0.96 0.0 0 1 7.26 580.29
  Q 44.50 558.90 81.56 537.65
  Q 93.63 530.73 105.60 523.33
  Q 106.01 522.71 106.04 523.25
  L 126.35 511.33
  Q 126.01 511.29 126.64 510.80
  Q 127.05 511.18 127.47 510.94
  Q 164.38 489.61 201.30 468.29
  Q 210.77 462.81 214.59 460.28
  Q 214.70 460.38 214.81 460.48
  L 323.38 397.57
  Q 323.15 397.50 323.71 397.26
  Q 323.73 397.39 323.86 397.46
  Q 323.93 397.51 324.00 397.46
  L 338.17 389.25
  Q 338.56 389.02 338.16 388.80
  Q 337.90 388.66 337.51 388.74
  L 337.50 6.27
  A 0.52 0.52 0.0 0 1 338.02 5.75
  L 354.00 5.75
  Q 354.50 5.75 354.50 6.25
  L 354.50 388.53
  Q 354.50 389.04 354.95 389.30
  L 378.81 403.12
  Z"
/>
<path fill="#7c8781" fill-opacity="0.980" d="
  M 1696.77 6.75
  L 1681.65 6.72
  Q 1680.58 6.71 1680.58 7.78
  L 1680.54 388.79
  Q 1680.54 389.23 1680.15 389.45
  L 1511.38 486.88
  Q 1511.12 487.03 1510.96 486.77
  Q 1510.90 486.66 1510.83 486.55
  L 1598.90 435.79
  A 1.08 1.05 89.3 0 0 1599.29 435.38
  Q 1599.51 434.97 1599.93 434.83
  Q 1600.41 434.67 1600.52 434.62
  Q 1605.90 431.80 1611.16 428.74
  Q 1645.24 408.90 1679.37 389.13
  Q 1679.75 388.91 1679.75 388.47
  L 1679.75 6.25
  A 0.50 0.50 0.0 0 1 1680.25 5.75
  L 1696.06 5.75
  Q 1696.61 5.75 1696.74 6.28
  Q 1696.80 6.49 1696.77 6.75
  Z"
/>
<path fill="#7c8781" fill-opacity="0.980" d="
  M 682.98 504.44
  L 685.02 500.76
  Q 685.28 500.29 684.82 500.02
  L 419.24 346.65
  Q 419.85 346.42 420.33 346.66
  Q 426.04 349.60 431.60 352.82
  Q 558.45 426.25 685.34 499.60
  Q 685.78 499.85 685.67 500.34
  Q 685.16 502.75 682.98 504.44
  Z"
/>
<path fill="#000000" d="
  M 1764.12 347.41
  Q 1854.44 400.33 1945.26 452.34
  C 1970.86 467.01 1996.18 482.06 2022.01 496.37
  Q 2025.10 497.42 2027.75 499.37
  Q 2028.38 499.84 2028.41 500.36
  Q 2028.43 500.83 2028.04 501.10
  Q 2027.72 501.33 2027.53 501.66
  L 2020.40 514.07
  Q 2020.11 514.57 2019.61 514.28
  Q 2011.41 509.49 2003.20 504.81
  Q 2002.77 504.56 2003.14 504.28
  L 1987.95 495.71
  L 1981.08 491.78
  Q 1979.22 489.41 1976.62 489.40
  L 1965.88 482.91
  Q 1958.87 478.04 1951.16 474.38
  L 1942.94 469.75
  Q 1938.57 466.22 1933.89 464.57
  L 1928.86 461.52
  Q 1924.08 457.74 1918.90 455.97
  L 1850.29 416.35
  Q 1848.78 414.14 1845.69 413.54
  C 1843.27 412.83 1841.15 411.13 1839.46 410.16
  Q 1834.14 407.08 1829.05 404.09
  Q 1827.38 401.79 1825.41 402.07
  L 1792.57 383.00
  Q 1788.31 379.26 1782.96 377.40
  L 1756.88 362.41
  Q 1757.20 361.49 1755.85 361.17
  A 1.27 1.27 0.0 0 1 1755.20 359.10
  Q 1757.13 356.91 1757.61 353.87
  L 1761.62 346.96
  Q 1761.86 346.55 1762.33 346.51
  Q 1763.67 346.39 1764.12 347.41
  Z"
/>
<path fill="#000000" d="
  M 419.24 346.65
  L 684.82 500.02
  Q 685.28 500.29 685.02 500.76
  L 682.98 504.44
  Q 682.31 507.59 680.28 509.52
  Q 678.62 511.01 678.03 512.95
  A 1.05 1.04 23.3 0 1 676.51 513.55
  L 650.00 498.49
  Q 647.57 497.94 645.54 495.79
  L 634.42 489.53
  L 625.04 484.10
  L 620.49 481.14
  Q 620.30 481.02 620.16 481.20
  L 619.99 481.44
  L 433.51 373.78
  Q 433.70 373.79 433.81 373.75
  Q 434.15 373.63 433.88 373.39
  Q 432.23 371.92 430.11 371.72
  L 420.12 365.86
  Q 418.21 363.49 414.90 362.75
  Q 412.83 362.37 411.58 360.97
  Q 411.24 360.59 411.49 360.15
  L 419.24 346.65
  Z"
/>
<path fill="#7c8781" fill-opacity="0.980" d="
  M 1764.12 347.41
  L 2022.01 496.37
  C 1996.18 482.06 1970.86 467.01 1945.26 452.34
  Q 1854.44 400.33 1764.12 347.41
  Z"
/>
<path fill="#7c8781" fill-opacity="0.980" d="
  M 1757.61 353.87
  Q 1757.13 356.91 1755.20 359.10
  A 1.27 1.27 0.0 0 0 1755.85 361.17
  Q 1757.20 361.49 1756.88 362.41
  Q 1755.43 361.97 1754.38 360.84
  Q 1754.03 360.46 1754.27 360.01
  L 1757.61 353.87
  Z"
/>
<path fill="#7c8781" fill-opacity="0.980" d="
  M 414.90 362.75
  Q 418.21 363.49 420.12 365.86
  Q 416.91 364.67 414.90 362.75
  Z"
/>
<path fill="#7c8781" fill-opacity="0.980" d="
  M 433.51 373.78
  L 430.11 371.72
  Q 432.23 371.92 433.88 373.39
  Q 434.15 373.63 433.81 373.75
  Q 433.70 373.79 433.51 373.78
  Z"
/>
<path fill="#7c8781" fill-opacity="0.980" d="
  M 1792.57 383.00
  L 1782.96 377.40
  Q 1788.31 379.26 1792.57 383.00
  Z"
/>
<path fill="#7c8781" fill-opacity="0.980" d="
  M 1510.75 486.91
  L 1353.49 578.07
  A 1.53 1.53 0.0 0 1 1351.95 578.07
  L 1019.17 385.91
  Q 1017.15 384.74 1015.13 385.91
  L 948.79 424.06
  C 950.87 421.87 954.64 420.22 956.47 419.09
  Q 962.04 415.65 967.86 412.64
  C 969.55 411.76 971.10 410.19 973.32 409.57
  Q 973.80 409.43 974.07 409.03
  Q 974.38 408.59 974.68 408.42
  C 988.04 401.02 998.45 394.63 1010.48 387.99
  C 1012.27 387.01 1014.65 385.13 1017.24 384.46
  Q 1017.76 384.33 1018.22 384.59
  C 1122.56 444.80 1226.85 505.10 1331.18 565.32
  Q 1346.46 574.14 1351.76 577.09
  C 1352.78 577.66 1353.85 577.78 1354.56 576.80
  Q 1354.86 576.40 1355.31 576.18
  C 1359.66 574.09 1364.70 570.86 1367.80 569.07
  Q 1422.89 537.27 1477.98 505.47
  C 1485.84 500.93 1493.81 496.66 1501.41 491.91
  Q 1505.87 489.13 1510.75 486.91
  Z"
/>
<path fill="#7c8781" fill-opacity="0.980" d="
  M 2576.09 509.63
  L 2361.00 385.55
  Q 2360.58 385.30 2360.09 385.33
  Q 2357.77 385.45 2356.82 386.07
  Q 2350.03 390.51 2342.79 394.06
  C 2344.34 392.17 2347.35 391.08 2348.86 390.14
  Q 2355.73 385.88 2358.44 384.69
  Q 2360.71 383.69 2362.25 385.55
  Q 2362.56 385.92 2363.01 386.13
  Q 2364.49 386.81 2367.94 388.80
  Q 2464.25 444.35 2560.51 499.99
  Q 2572.14 506.71 2576.09 509.63
  Z"
/>
<path fill="#7c8781" fill-opacity="0.980" d="
  M 337.51 388.74
  Q 337.90 388.66 338.16 388.80
  Q 338.56 389.02 338.17 389.25
  L 324.00 397.46
  Q 323.93 397.51 323.86 397.46
  Q 323.73 397.39 323.71 397.26
  Q 324.30 396.33 325.50 395.75
  Q 331.17 393.02 337.51 388.74
  Z"
/>
<path fill="#7c8781" fill-opacity="0.980" d="
  M 1697.04 389.53
  Q 1702.33 391.97 1716.27 400.01
  Q 1869.98 488.74 2023.33 577.31
  A 1.73 1.71 44.7 0 0 2025.04 577.31
  L 2040.68 568.31
  Q 2040.72 568.59 2041.22 568.48
  L 2024.46 578.43
  Q 2024.08 578.65 2023.70 578.43
  L 1697.04 389.53
  Z"
/>
<path fill="#7c8781" fill-opacity="0.980" d="
  M 2342.79 394.06
  L 2192.32 481.21
  Q 2192.23 481.27 2192.14 481.23
  Q 2191.99 481.18 2191.98 481.01
  Q 2192.23 480.34 2192.60 480.15
  C 2198.02 477.44 2204.49 473.43 2208.33 471.23
  C 2247.80 448.62 2287.15 425.78 2326.53 403.00
  Q 2337.64 396.57 2342.79 394.06
  Z"
/>
<path fill="#7c8781" fill-opacity="0.980" d="
  M 323.38 397.57
  L 214.81 460.48
  Q 215.11 459.31 215.83 459.06
  Q 216.53 458.81 216.56 458.79
  Q 262.82 432.06 309.06 405.32
  C 311.21 404.07 313.26 403.26 315.10 401.90
  Q 318.86 399.09 323.38 397.57
  Z"
/>
<path fill="#7c8781" fill-opacity="0.980" d="
  M 1829.05 404.09
  L 1825.41 402.07
  Q 1827.38 401.79 1829.05 404.09
  Z"
/>
<path fill="#7c8781" fill-opacity="0.980" d="
  M 1023.19 406.87
  Q 1020.51 405.94 1018.56 404.48
  Q 1017.54 403.72 1016.89 403.76
  Q 1016.10 403.81 1015.61 404.52
  Q 1015.33 404.94 1014.87 405.14
  L 1010.17 407.17
  L 1016.69 403.23
  Q 1017.09 402.98 1017.53 403.15
  Q 1020.67 404.39 1023.19 406.87
  Z"
/>
<path fill="#7c8781" fill-opacity="0.980" d="
  M 2368.35 408.53
  C 2365.26 406.75 2361.83 404.36 2358.51 403.65
  Q 2358.83 403.14 2359.21 402.95
  Q 2359.56 402.77 2360.08 403.05
  Q 2364.53 405.35 2368.35 408.53
  Z"
/>
<path fill="#7c8781" fill-opacity="0.980" d="
  M 1697.50 408.53
  L 1688.53 403.75
  A 0.85 0.84 -50.2 0 0 1687.62 403.84
  Q 1685.64 405.42 1683.50 406.46
  C 1681.13 407.61 1678.86 409.63 1676.03 410.24
  L 1687.74 403.28
  Q 1688.17 403.02 1688.65 403.21
  Q 1693.35 405.05 1697.50 408.53
  Z"
/>
<path fill="#7c8781" fill-opacity="0.980" d="
  M 364.75 414.31
  L 345.99 403.87
  A 0.70 0.70 0.0 0 0 345.18 403.97
  Q 342.73 406.26 339.43 407.01
  L 345.39 403.42
  Q 345.86 403.14 346.33 403.42
  L 364.75 414.31
  Z"
/>
<path fill="#7c8781" fill-opacity="0.980" d="
  M 378.81 403.12
  L 680.59 577.58
  Q 681.04 577.83 681.48 577.58
  L 776.15 523.36
  Q 776.36 523.75 775.94 523.99
  Q 729.00 551.10 681.86 578.36
  Q 681.47 578.59 681.08 578.36
  L 378.49 403.66
  Q 378.09 403.42 378.51 403.23
  Q 378.63 403.17 378.81 403.12
  Z"
/>
<path fill="#7c8781" fill-opacity="0.980" d="
  M 2358.51 403.65
  C 2356.63 405.81 2353.77 406.79 2351.38 408.39
  Q 2349.48 409.66 2347.17 410.26
  L 2358.51 403.65
  Z"
/>
<path fill="#7c8781" fill-opacity="0.980" d="
  M 339.12 407.24
  Q 338.24 408.77 335.98 409.29
  Q 336.49 407.87 339.12 407.24
  Z"
/>
<path fill="#7c8781" fill-opacity="0.980" d="
  M 1010.17 407.17
  Q 1010.18 407.76 1009.75 408.00
  Q 1003.36 411.74 996.94 415.44
  Q 995.92 416.02 995.01 415.88
  L 1010.17 407.17
  Z"
/>
<path fill="#7c8781" fill-opacity="0.980" d="
  M 1676.03 410.24
  Q 1671.57 414.26 1665.97 416.01
  L 1676.03 410.24
  Z"
/>
<path fill="#7c8781" fill-opacity="0.980" d="
  M 2347.05 410.37
  Q 2342.36 413.73 2337.38 416.47
  C 2330.11 420.47 2323.49 424.84 2316.05 428.26
  Q 2319.81 425.60 2323.69 423.47
  C 2331.55 419.15 2339.03 414.42 2347.05 410.37
  Z"
/>
<path fill="#7c8781" fill-opacity="0.980" d="
  M 333.57 410.49
  Q 330.15 413.21 326.31 415.08
  C 323.89 416.25 321.42 418.45 318.25 419.18
  L 333.57 410.49
  Z"
/>
<path fill="#7c8781" fill-opacity="0.980" d="
  M 1845.69 413.54
  Q 1848.78 414.14 1850.29 416.35
  L 1845.69 413.54
  Z"
/>
<path fill="#7c8781" fill-opacity="0.980" d="
  M 1717.23 419.86
  L 1708.08 414.67
  Q 1713.04 416.53 1717.23 419.86
  Z"
/>
<path fill="#7c8781" fill-opacity="0.980" d="
  M 366.93 415.75
  Q 371.12 417.02 373.81 419.77
  L 366.93 415.75
  Z"
/>
<path fill="#7c8781" fill-opacity="0.980" d="
  M 995.01 415.88
  Q 993.43 418.35 989.42 419.15
  L 995.01 415.88
  Z"
/>
<path fill="#7c8781" fill-opacity="0.980" d="
  M 1665.97 416.01
  Q 1665.16 418.11 1662.31 418.23
  Q 1663.82 416.69 1665.97 416.01
  Z"
/>
<path fill="#7c8781" fill-opacity="0.980" d="
  M 318.25 419.18
  Q 315.99 421.28 313.31 422.76
  C 308.01 425.68 303.08 428.79 297.58 431.19
  L 318.25 419.18
  Z"
/>
<path fill="#7c8781" fill-opacity="0.980" d="
  M 989.42 419.15
  Q 988.18 421.18 985.54 421.68
  Q 987.03 419.99 989.42 419.15
  Z"
/>
<path fill="#7c8781" fill-opacity="0.980" d="
  M 1048.62 421.59
  Q 1046.43 421.01 1044.88 419.48
  Q 1046.92 419.46 1048.62 421.59
  Z"
/>
<path fill="#7c8781" fill-opacity="0.980" d="
  M 1660.55 419.53
  Q 1657.02 422.04 1653.16 423.99
  C 1651.07 425.04 1648.40 427.27 1645.34 427.90
  Q 1652.74 423.25 1660.26 419.27
  Q 1660.41 419.19 1660.55 419.53
  Z"
/>
<path fill="#7c8781" fill-opacity="0.980" d="
  M 985.54 421.68
  Q 980.34 425.66 974.15 428.06
  Q 979.55 424.07 985.54 421.68
  Z"
/>
<path fill="#7c8781" fill-opacity="0.980" d="
  M 1723.63 423.74
  Q 1728.86 425.42 1732.77 429.02
  L 1723.63 423.74
  Z"
/>
<path fill="#7c8781" fill-opacity="0.980" d="
  M 948.79 424.06
  L 818.74 498.94
  Q 825.71 494.21 833.14 490.02
  Q 847.95 481.66 862.68 473.17
  Q 888.19 458.44 913.63 443.58
  C 918.58 440.68 923.81 438.20 928.61 435.04
  C 929.92 434.18 931.38 433.85 932.59 433.03
  Q 940.32 427.80 948.79 424.06
  Z"
/>
<path fill="#7c8781" fill-opacity="0.980" d="
  M 2405.48 429.85
  Q 2402.27 428.76 2400.10 426.65
  Q 2403.20 427.40 2405.48 429.85
  Z"
/>
<path fill="#7c8781" fill-opacity="0.980" d="
  M 974.13 428.11
  Q 972.21 430.49 968.48 431.21
  L 974.13 428.11
  Z"
/>
<path fill="#7c8781" fill-opacity="0.980" d="
  M 1645.14 428.28
  Q 1642.80 430.37 1639.50 431.45
  Q 1641.59 429.22 1645.14 428.28
  Z"
/>
<path fill="#7c8781" fill-opacity="0.980" d="
  M 2316.24 428.23
  Q 2313.83 430.67 2310.50 431.44
  Q 2312.71 429.32 2316.24 428.23
  Z"
/>
<path fill="#7c8781" fill-opacity="0.980" d="
  M 397.04 433.09
  L 392.12 430.44
  Q 394.93 430.49 397.04 433.09
  Z"
/>
<path fill="#7c8781" fill-opacity="0.980" d="
  M 297.62 431.28
  L 277.06 443.33
  Q 277.04 443.21 277.01 443.08
  Q 277.00 443.00 277.07 442.95
  L 297.62 431.28
  Z"
/>
<path fill="#7c8781" fill-opacity="0.980" d="
  M 968.56 431.35
  Q 964.67 434.43 960.30 436.57
  C 958.28 437.57 955.82 439.59 952.94 440.18
  L 968.56 431.35
  Z"
/>
<path fill="#7c8781" fill-opacity="0.980" d="
  M 1086.38 443.48
  L 1065.81 431.43
  C 1070.28 433.27 1074.51 436.12 1078.55 438.31
  Q 1082.68 440.55 1086.38 443.48
  Z"
/>
<path fill="#7c8781" fill-opacity="0.980" d="
  M 1639.50 431.45
  Q 1636.14 434.12 1632.33 436.03
  C 1629.95 437.22 1627.36 439.46 1624.19 440.22
  L 1639.50 431.45
  Z"
/>
<path fill="#7c8781" fill-opacity="0.980" d="
  M 2310.50 431.44
  Q 2307.20 434.28 2303.29 436.12
  C 2300.80 437.30 2298.51 439.49 2295.23 440.14
  L 2310.50 431.44
  Z"
/>
<path fill="#7c8781" fill-opacity="0.980" d="
  M 2415.14 435.54
  Q 2418.48 436.16 2420.58 438.67
  L 2415.14 435.54
  Z"
/>
<path fill="#7c8781" fill-opacity="0.980" d="
  M 952.94 440.18
  Q 952.91 440.33 952.88 440.50
  Q 952.81 440.82 952.53 440.99
  Q 946.13 444.88 939.55 448.42
  C 937.58 449.48 935.29 451.66 932.19 452.15
  L 952.94 440.18
  Z"
/>
<path fill="#7c8781" fill-opacity="0.980" d="
  M 1624.19 440.22
  C 1622.97 442.08 1620.75 442.46 1619.36 443.37
  Q 1615.56 445.87 1611.50 447.99
  C 1609.23 449.17 1606.54 451.31 1603.56 452.30
  L 1624.19 440.22
  Z"
/>
<path fill="#7c8781" fill-opacity="0.980" d="
  M 2295.34 440.20
  Q 2293.65 442.29 2291.53 442.50
  Q 2292.92 440.84 2295.34 440.20
  Z"
/>
<path fill="#7c8781" fill-opacity="0.980" d="
  M 2291.53 442.50
  Q 2283.56 448.00 2274.62 452.26
  Q 2282.75 446.67 2291.53 442.50
  Z"
/>
<path fill="#7c8781" fill-opacity="0.980" d="
  M 276.18 443.41
  Q 276.40 443.92 275.94 444.19
  Q 269.47 448.03 262.86 451.64
  C 260.96 452.67 258.44 454.68 255.61 455.37
  L 276.18 443.41
  Z"
/>
<path fill="#7c8781" fill-opacity="0.980" d="
  M 1764.89 447.62
  Q 1767.93 447.87 1768.93 449.95
  L 1764.89 447.62
  Z"
/>
<path fill="#7c8781" fill-opacity="0.980" d="
  M 2440.16 449.97
  L 2436.17 447.66
  Q 2439.08 447.92 2440.16 449.97
  Z"
/>
<path fill="#7c8781" fill-opacity="0.980" d="
  M 423.61 448.37
  Q 429.19 450.36 432.79 453.86
  L 423.61 448.37
  Z"
/>
<path fill="#7c8781" fill-opacity="0.980" d="
  M 932.19 452.15
  C 931.17 453.91 929.29 454.35 928.02 455.15
  Q 920.08 460.16 911.45 464.34
  L 932.19 452.15
  Z"
/>
<path fill="#7c8781" fill-opacity="0.980" d="
  M 1603.39 452.25
  Q 1600.92 454.75 1597.47 455.75
  L 1603.39 452.25
  Z"
/>
<path fill="#7c8781" fill-opacity="0.980" d="
  M 2274.39 452.74
  Q 2266.92 457.25 2259.27 461.41
  C 2257.68 462.27 2256.18 463.84 2253.71 464.18
  Q 2253.70 463.84 2253.98 463.74
  Q 2254.37 463.60 2254.39 463.58
  Q 2263.95 458.04 2273.51 452.52
  Q 2273.94 452.27 2274.39 452.74
  Z"
/>
<path fill="#7c8781" fill-opacity="0.980" d="
  M 2447.91 454.30
  Q 2455.21 457.56 2461.55 462.25
  L 2447.91 454.30
  Z"
/>
<path fill="#7c8781" fill-opacity="0.980" d="
  M 255.34 455.93
  C 251.71 458.39 247.77 460.17 244.16 462.65
  C 242.52 463.77 240.68 464.21 239.12 465.37
  Q 234.96 468.46 229.95 470.06
  Q 242.41 462.77 254.55 455.83
  Q 254.95 455.61 255.34 455.93
  Z"
/>
<path fill="#7c8781" fill-opacity="0.980" d="
  M 1597.47 455.75
  Q 1595.99 457.61 1593.22 458.15
  Q 1594.98 456.47 1597.47 455.75
  Z"
/>
<path fill="#7c8781" fill-opacity="0.980" d="
  M 1928.86 461.52
  L 1918.90 455.97
  Q 1924.08 457.74 1928.86 461.52
  Z"
/>
<path fill="#7c8781" fill-opacity="0.980" d="
  M 1593.22 458.15
  Q 1591.56 459.82 1589.29 460.88
  C 1587.12 461.89 1585.33 463.72 1582.64 464.24
  Q 1587.80 460.44 1593.22 458.15
  Z"
/>
<path fill="#7c8781" fill-opacity="0.980" d="
  M 1789.96 461.95
  Q 1787.90 461.36 1786.61 460.20
  Q 1789.17 460.14 1789.96 461.95
  Z"
/>
<path fill="#7c8781" fill-opacity="0.980" d="
  M 214.59 460.28
  Q 210.77 462.81 201.30 468.29
  Q 164.38 489.61 127.47 510.94
  Q 127.05 511.18 126.64 510.80
  C 132.91 506.91 139.74 503.23 145.73 499.66
  C 156.44 493.27 167.37 487.19 178.17 480.98
  Q 198.24 469.43 204.75 465.54
  Q 210.47 462.11 214.59 460.28
  Z"
/>
<path fill="#7c8781" fill-opacity="0.980" d="
  M 1582.58 464.21
  Q 1576.30 468.83 1569.45 472.31
  C 1567.16 473.47 1564.50 475.48 1561.64 476.52
  Q 1561.18 476.69 1560.85 477.04
  Q 1559.22 478.79 1556.97 478.91
  L 1582.58 464.21
  Z"
/>
<path fill="#7c8781" fill-opacity="0.980" d="
  M 2253.71 464.18
  L 2252.97 464.97
  Q 2252.64 465.32 2252.22 465.55
  L 2232.46 476.61
  L 2253.71 464.18
  Z"
/>
<path fill="#7c8781" fill-opacity="0.980" d="
  M 911.11 464.80
  L 901.26 470.34
  Q 905.59 467.02 910.53 464.55
  Q 910.86 464.39 911.11 464.80
  Z"
/>
<path fill="#7c8781" fill-opacity="0.980" d="
  M 1942.94 469.75
  L 1933.89 464.57
  Q 1938.57 466.22 1942.94 469.75
  Z"
/>
<path fill="#7c8781" fill-opacity="0.980" d="
  M 1811.32 474.31
  L 1795.86 465.38
  Q 1804.14 469.11 1811.32 474.31
  Z"
/>
<path fill="#7c8781" fill-opacity="0.980" d="
  M 230.23 470.21
  Q 228.82 472.10 226.44 472.51
  Q 227.48 470.71 230.23 470.21
  Z"
/>
<path fill="#7c8781" fill-opacity="0.980" d="
  M 901.26 470.34
  L 865.39 491.18
  Q 865.24 490.88 865.24 490.74
  Q 865.24 490.67 865.50 490.51
  Q 891.61 475.53 900.02 470.54
  Q 900.72 470.12 901.26 470.34
  Z"
/>
<path fill="#7c8781" fill-opacity="0.980" d="
  M 224.52 473.40
  C 222.59 475.54 219.77 476.31 217.69 477.78
  Q 213.74 480.60 209.25 482.24
  Q 216.43 477.27 224.52 473.40
  Z"
/>
<path fill="#7c8781" fill-opacity="0.980" d="
  M 1965.88 482.91
  Q 1958.16 479.27 1951.16 474.38
  Q 1958.87 478.04 1965.88 482.91
  Z"
/>
<path fill="#7c8781" fill-opacity="0.980" d="
  M 2232.36 476.48
  Q 2231.18 478.50 2228.11 479.04
  Q 2230.00 477.26 2232.36 476.48
  Z"
/>
<path fill="#7c8781" fill-opacity="0.980" d="
  M 1148.59 479.30
  Q 1146.09 478.53 1144.69 477.19
  Q 1146.76 477.08 1148.59 479.30
  Z"
/>
<path fill="#7c8781" fill-opacity="0.980" d="
  M 1556.97 478.91
  Q 1556.10 481.11 1553.25 481.18
  L 1556.97 478.91
  Z"
/>
<path fill="#7c8781" fill-opacity="0.980" d="
  M 2228.04 479.25
  Q 2227.89 479.54 2227.73 479.78
  Q 2227.57 480.00 2227.27 480.16
  Q 2218.23 484.90 2211.19 489.39
  Q 2209.14 490.69 2207.17 490.94
  L 2227.83 479.12
  Q 2227.94 479.06 2227.99 479.16
  Q 2228.01 479.20 2228.04 479.25
  Z"
/>
<path fill="#7c8781" fill-opacity="0.980" d="
  M 1150.18 480.21
  Q 1157.05 483.17 1162.95 487.67
  L 1150.18 480.21
  Z"
/>
<path fill="#7c8781" fill-opacity="0.980" d="
  M 625.04 484.10
  L 619.99 481.44
  L 620.16 481.20
  Q 620.30 481.02 620.49 481.14
  L 625.04 484.10
  Z"
/>
<path fill="#7c8781" fill-opacity="0.980" d="
  M 1553.25 481.18
  Q 1547.37 485.74 1540.47 488.53
  L 1553.25 481.18
  Z"
/>
<path fill="#7c8781" fill-opacity="0.980" d="
  M 2191.32 481.50
  L 2181.98 486.93
  C 2183.08 485.10 2189.25 482.01 2191.32 481.50
  Z"
/>
<path fill="#7c8781" fill-opacity="0.980" d="
  M 209.25 482.24
  Q 205.34 485.18 200.98 487.49
  C 197.22 489.49 192.98 492.59 188.50 494.22
  L 209.25 482.24
  Z"
/>
<path fill="#7c8781" fill-opacity="0.980" d="
  M 2181.98 486.93
  Q 2181.69 487.36 2180.05 488.30
  Q 2142.24 510.09 2104.48 531.96
  Q 2104.27 532.08 2103.75 531.96
  Q 2108.92 528.46 2114.42 525.38
  C 2133.42 514.75 2152.18 503.66 2171.06 492.81
  Q 2179.24 488.12 2181.98 486.93
  Z"
/>
<path fill="#7c8781" fill-opacity="0.980" d="
  M 1540.47 488.53
  Q 1538.83 490.86 1536.18 490.89
  Q 1538.15 489.12 1540.47 488.53
  Z"
/>
<path fill="#7c8781" fill-opacity="0.980" d="
  M 1981.08 491.78
  L 1976.62 489.40
  Q 1979.22 489.41 1981.08 491.78
  Z"
/>
<path fill="#7c8781" fill-opacity="0.980" d="
  M 634.42 489.53
  L 645.54 495.79
  Q 639.60 493.31 634.42 489.53
  Z"
/>
<path fill="#7c8781" fill-opacity="0.980" d="
  M 2520.73 496.23
  Q 2514.47 493.53 2509.12 489.64
  Q 2515.26 492.28 2520.73 496.23
  Z"
/>
<path fill="#7c8781" fill-opacity="0.980" d="
  M 865.10 491.12
  C 863.22 493.15 860.04 494.29 858.33 495.34
  Q 851.95 499.28 845.34 502.82
  C 843.55 503.78 841.24 505.79 838.46 506.39
  Q 844.97 502.12 851.89 498.47
  C 855.78 496.42 860.35 493.09 865.10 491.12
  Z"
/>
<path fill="#7c8781" fill-opacity="0.980" d="
  M 1536.18 490.89
  C 1535.63 492.60 1534.06 492.73 1532.97 493.37
  C 1528.58 495.94 1524.12 498.37 1519.83 501.11
  Q 1517.94 502.32 1515.75 503.05
  Q 1515.60 503.01 1515.54 502.90
  Q 1515.46 502.77 1515.60 502.69
  L 1536.18 490.89
  Z"
/>
<path fill="#7c8781" fill-opacity="0.980" d="
  M 2697.57 491.82
  L 2693.20 491.65
  Q 2695.43 490.17 2697.57 491.82
  Z"
/>
<path fill="#7c8781" fill-opacity="0.980" d="
  M 2207.17 491.28
  Q 2204.93 493.44 2201.46 494.51
  Q 2203.80 492.24 2207.17 491.28
  Z"
/>
<path fill="#000000" d="
  M 2693.20 491.65
  L 2697.57 491.82
  L 2704.15 492.12
  L 2714.63 493.56
  Q 2716.18 493.30 2717.75 493.70
  L 2717.11 493.75
  A 0.17 0.17 0.0 0 0 2717.08 494.08
  Q 2740.48 500.07 2757.92 515.46
  Q 2759.88 516.49 2761.35 518.47
  L 2774.76 537.40
  L 2777.39 542.63
  Q 2777.74 546.01 2780.20 549.06
  Q 2784.18 558.42 2785.53 568.98
  Q 2785.36 568.99 2785.26 569.00
  Q 2785.12 569.03 2785.15 569.17
  Q 2789.66 593.82 2784.43 616.98
  Q 2783.67 620.32 2784.17 621.79
  Q 2782.01 630.32 2778.50 637.65
  Q 2762.46 673.45 2726.07 686.08
  Q 2723.03 687.98 2719.61 688.07
  Q 2716.40 688.23 2713.89 689.63
  Q 2700.14 691.97 2685.91 691.11
  Q 2685.40 691.08 2685.07 690.70
  Q 2684.81 690.40 2684.50 690.44
  Q 2680.57 690.86 2677.11 689.74
  L 2655.93 683.31
  Q 2644.51 678.28 2635.16 669.90
  L 2623.00 656.91
  Q 2619.58 653.06 2617.44 649.31
  Q 2607.54 631.99 2604.11 612.22
  Q 2605.50 610.60 2603.86 607.08
  L 2603.53 606.00
  Q 2603.69 606.02 2603.79 605.99
  Q 2603.89 605.96 2603.88 605.86
  Q 2602.86 592.89 2603.92 579.92
  Q 2603.93 579.79 2603.80 579.76
  Q 2603.68 579.73 2603.53 579.76
  Q 2603.85 579.16 2603.74 578.48
  Q 2604.13 578.46 2604.15 578.19
  C 2606.25 552.24 2616.51 529.32 2636.11 512.11
  L 2648.41 503.28
  C 2650.20 501.14 2653.05 500.85 2655.07 499.72
  C 2660.91 496.46 2669.03 494.55 2675.54 492.99
  C 2677.54 492.50 2680.80 493.31 2682.21 492.30
  Q 2682.60 492.02 2683.08 492.00
  L 2693.20 491.65
  Z
  M 2684.61 514.85
  Q 2681.11 513.82 2677.15 516.06
  Q 2677.13 516.38 2676.28 516.32
  Q 2669.96 517.64 2664.40 520.97
  Q 2664.85 521.13 2664.10 521.26
  Q 2662.04 521.52 2660.54 523.27
  Q 2660.61 523.22 2660.68 523.17
  Q 2654.13 526.56 2649.20 532.01
  Q 2648.64 532.01 2648.33 532.34
  C 2635.03 546.60 2629.65 566.55 2629.59 585.59
  L 2629.66 600.81
  Q 2628.92 604.23 2630.08 607.38
  L 2630.41 609.59
  Q 2631.58 622.73 2638.20 635.54
  Q 2642.45 643.76 2648.03 648.89
  L 2650.48 651.40
  C 2663.12 664.92 2683.59 671.93 2702.36 668.93
  Q 2703.33 668.79 2703.70 668.38
  Q 2703.93 669.00 2704.44 668.93
  Q 2730.58 665.32 2746.68 644.17
  Q 2757.30 630.22 2759.32 610.71
  L 2760.59 594.82
  Q 2761.60 590.53 2760.62 586.17
  L 2760.23 579.13
  Q 2760.42 569.32 2756.24 559.89
  Q 2756.26 559.39 2755.96 558.91
  Q 2756.01 555.68 2754.08 553.64
  L 2749.58 544.27
  Q 2742.78 531.67 2730.90 524.39
  Q 2724.43 520.40 2719.50 518.50
  Q 2702.83 512.06 2684.61 514.85
  Z"
/>
<path fill="#7c8781" fill-opacity="0.980" d="
  M 2704.15 492.12
  Q 2706.99 491.70 2709.58 492.69
  Q 2710.08 492.88 2710.59 492.79
  Q 2713.03 492.38 2714.63 493.56
  L 2704.15 492.12
  Z"
/>
<path fill="#7c8781" fill-opacity="0.980" d="
  M 2717.75 493.70
  C 2726.00 495.97 2734.89 498.87 2742.17 503.43
  C 2748.00 507.08 2753.42 510.15 2757.92 515.46
  Q 2740.48 500.07 2717.08 494.08
  A 0.17 0.17 0.0 0 1 2717.11 493.75
  L 2717.75 493.70
  Z"
/>
<path fill="#7c8781" fill-opacity="0.980" d="
  M 188.50 494.22
  Q 184.48 497.26 179.98 499.56
  C 176.13 501.53 172.13 504.63 167.65 506.23
  L 188.50 494.22
  Z"
/>
<path fill="#7c8781" fill-opacity="0.980" d="
  M 1185.85 500.85
  L 1174.67 494.40
  C 1177.58 495.66 1184.04 498.47 1185.85 500.85
  Z"
/>
<path fill="#7c8781" fill-opacity="0.980" d="
  M 2201.46 494.51
  C 2199.87 496.28 2197.12 497.28 2195.62 498.18
  Q 2184.36 504.86 2172.92 511.27
  C 2171.06 512.31 2168.42 514.43 2165.55 515.22
  L 2201.46 494.51
  Z"
/>
<path fill="#000000" d="
  M 2846.54 501.23
  Q 2845.74 533.98 2846.12 566.71
  C 2846.14 568.61 2845.50 571.92 2846.64 574.16
  L 2946.11 574.05
  Q 2946.27 574.33 2946.65 573.21
  Q 2946.79 572.77 2946.80 572.25
  Q 2947.12 534.76 2946.36 497.21
  Q 2945.59 496.67 2946.24 495.54
  Q 2946.50 495.09 2947.02 495.09
  L 2972.01 495.13
  L 2972.01 686.74
  A 0.74 0.74 0.0 0 1 2971.26 687.48
  L 2947.79 687.30
  A 1.19 1.19 0.0 0 1 2946.61 686.06
  C 2947.11 674.40 2946.79 660.57 2946.77 651.05
  Q 2946.72 624.39 2946.76 597.73
  Q 2946.76 597.34 2946.40 597.20
  L 2946.00 597.04
  Q 2945.85 597.01 2945.77 596.90
  Q 2945.64 596.75 2945.44 596.75
  Q 2896.60 596.75 2847.75 596.75
  Q 2847.34 596.75 2846.74 597.24
  Q 2846.51 597.05 2846.26 597.10
  A 0.26 0.25 82.8 0 0 2846.07 597.35
  L 2846.27 686.81
  A 0.52 0.52 0.0 0 1 2845.75 687.33
  L 2821.54 687.56
  A 0.55 0.55 0.0 0 1 2820.99 687.01
  C 2821.02 627.84 2821.74 568.49 2820.80 509.31
  Q 2820.69 502.40 2821.10 495.50
  Q 2821.12 495.25 2820.02 495.11
  L 2846.07 495.09
  Q 2846.67 495.09 2846.66 495.68
  L 2846.54 501.23
  Z"
/>
<path fill="#7c8781" fill-opacity="0.980" d="
  M 2820.02 495.11
  Q 2821.12 495.25 2821.10 495.50
  Q 2820.69 502.40 2820.80 509.31
  C 2821.74 568.49 2821.02 627.84 2820.99 687.01
  A 0.55 0.55 0.0 0 0 2821.54 687.56
  L 2845.75 687.33
  A 0.52 0.52 0.0 0 0 2846.27 686.81
  L 2846.07 597.35
  A 0.26 0.25 82.8 0 1 2846.26 597.10
  Q 2846.51 597.05 2846.74 597.24
  L 2846.74 687.47
  A 0.47 0.47 0.0 0 1 2846.28 687.94
  L 2821.18 688.17
  A 1.17 1.16 -0.2 0 1 2820.00 687.01
  L 2820.02 495.11
  Z"
/>
<path fill="#7c8781" fill-opacity="0.980" d="
  M 2972.01 495.13
  Q 2972.17 495.23 2972.37 495.27
  Q 2972.75 495.36 2972.75 495.75
  L 2972.75 687.49
  Q 2972.75 687.99 2972.26 687.99
  L 2946.70 688.03
  A 0.70 0.70 0.0 0 1 2946.00 687.33
  L 2946.00 597.04
  L 2946.40 597.20
  Q 2946.76 597.34 2946.76 597.73
  Q 2946.72 624.39 2946.77 651.05
  C 2946.79 660.57 2947.11 674.40 2946.61 686.06
  A 1.19 1.19 0.0 0 0 2947.79 687.30
  L 2971.26 687.48
  A 0.74 0.74 0.0 0 0 2972.01 686.74
  L 2972.01 495.13
  Z"
/>
<path fill="#7c8781" fill-opacity="0.980" d="
  M 1987.95 495.71
  L 2003.14 504.28
  Q 1995.11 500.69 1987.95 495.71
  Z"
/>
<path fill="#7c8781" fill-opacity="0.980" d="
  M 2946.36 497.21
  Q 2947.12 534.76 2946.80 572.25
  Q 2946.79 572.77 2946.65 573.21
  Q 2946.27 574.33 2946.11 574.05
  L 2946.36 497.21
  Z"
/>
<path fill="#7c8781" fill-opacity="0.980" d="
  M 680.28 509.52
  L 678.02 514.19
  Q 677.77 514.69 677.29 514.41
  L 650.00 498.49
  L 676.51 513.55
  A 1.05 1.04 23.3 0 0 678.03 512.95
  Q 678.62 511.01 680.28 509.52
  Z"
/>
<path fill="#7c8781" fill-opacity="0.980" d="
  M 1858.49 501.63
  L 1852.92 498.44
  Q 1856.02 498.96 1858.49 501.63
  Z"
/>
<path fill="#7c8781" fill-opacity="0.980" d="
  M 818.74 498.94
  Q 808.57 505.44 798.01 511.27
  Q 797.87 511.34 797.66 510.92
  L 818.74 498.94
  Z"
/>
<path fill="#7c8781" fill-opacity="0.980" d="
  M 2846.54 501.23
  L 2846.64 574.16
  C 2845.50 571.92 2846.14 568.61 2846.12 566.71
  Q 2845.74 533.98 2846.54 501.23
  Z"
/>
<path fill="#7c8781" fill-opacity="0.980" d="
  M 2529.66 501.53
  Q 2533.00 502.20 2534.11 504.29
  L 2529.66 501.53
  Z"
/>
<path fill="#7c8781" fill-opacity="0.980" d="
  M 1515.15 503.28
  Q 1512.89 505.59 1509.51 506.54
  Q 1511.69 504.44 1515.15 503.28
  Z"
/>
<path fill="#7c8781" fill-opacity="0.980" d="
  M 2648.41 503.28
  L 2636.11 512.11
  Q 2635.88 511.59 2636.69 510.94
  Q 2642.46 506.23 2648.41 503.28
  Z"
/>
<path fill="#7c8781" fill-opacity="0.980" d="
  M 167.59 506.64
  Q 160.99 510.76 154.09 514.43
  C 152.09 515.50 149.43 517.66 146.54 518.56
  Q 146.61 518.11 147.08 517.84
  Q 157.10 512.11 167.07 506.31
  Q 167.29 506.18 167.40 506.29
  Q 167.50 506.40 167.59 506.64
  Z"
/>
<path fill="#7c8781" fill-opacity="0.980" d="
  M 838.46 506.39
  C 836.49 508.51 833.44 509.62 831.33 511.04
  Q 827.51 513.59 823.18 515.25
  L 838.46 506.39
  Z"
/>
<path fill="#7c8781" fill-opacity="0.980" d="
  M 1204.95 512.02
  L 1196.16 506.77
  Q 1200.12 508.47 1204.77 511.22
  Q 1205.13 511.43 1204.95 512.02
  Z"
/>
<path fill="#7c8781" fill-opacity="0.980" d="
  M 1509.51 506.54
  C 1507.35 508.39 1504.21 509.89 1502.25 511.04
  Q 1490.85 517.73 1479.38 524.27
  C 1477.51 525.33 1476.13 526.96 1473.37 527.12
  Q 1489.67 517.46 1506.09 508.22
  C 1507.11 507.64 1508.01 506.65 1509.51 506.54
  Z"
/>
<path fill="#7c8781" fill-opacity="0.980" d="
  M 1873.91 510.54
  Q 1880.37 513.00 1885.89 517.35
  L 1873.91 510.54
  Z"
/>
<path fill="#7c8781" fill-opacity="0.980" d="
  M 126.35 511.33
  L 106.04 523.25
  Q 106.17 521.93 106.98 522.00
  C 114.41 517.85 119.95 514.15 126.35 511.33
  Z"
/>
<path fill="#7c8781" fill-opacity="0.980" d="
  M 797.53 511.20
  C 794.54 513.66 790.66 515.28 787.91 517.06
  Q 782.56 520.51 776.61 523.36
  Q 779.78 520.89 783.18 518.98
  C 788.62 515.92 792.57 513.42 797.53 511.20
  Z"
/>
<path fill="#7c8781" fill-opacity="0.980" d="
  M 2636.11 512.11
  C 2616.51 529.32 2606.25 552.24 2604.15 578.19
  Q 2604.13 578.46 2603.74 578.48
  Q 2603.64 575.13 2604.54 569.76
  C 2608.23 547.68 2617.64 527.56 2634.47 512.47
  Q 2635.12 511.88 2636.11 512.11
  Z"
/>
<path fill="#7c8781" fill-opacity="0.980" d="
  M 2684.61 514.85
  L 2677.15 516.06
  Q 2681.11 513.82 2684.61 514.85
  Z"
/>
<path fill="#7c8781" fill-opacity="0.980" d="
  M 543.99 517.90
  L 538.19 514.74
  Q 541.38 515.05 543.99 517.90
  Z"
/>
<path fill="#7c8781" fill-opacity="0.980" d="
  M 823.14 515.24
  Q 820.74 518.01 817.41 518.41
  L 823.14 515.24
  Z"
/>
<path fill="#7c8781" fill-opacity="0.980" d="
  M 2165.55 515.22
  Q 2163.05 517.64 2159.52 518.74
  L 2165.55 515.22
  Z"
/>
<path fill="#7c8781" fill-opacity="0.980" d="
  M 2676.28 516.32
  Q 2673.72 518.17 2670.71 518.52
  Q 2670.22 518.58 2669.82 518.87
  Q 2667.40 520.62 2664.40 520.97
  Q 2669.96 517.64 2676.28 516.32
  Z"
/>
<path fill="#7c8781" fill-opacity="0.980" d="
  M 146.40 518.93
  L 126.10 530.67
  Q 125.96 530.56 125.86 530.45
  Q 125.66 530.22 125.93 530.06
  L 145.72 518.56
  Q 146.02 518.38 146.24 518.66
  Q 146.32 518.77 146.40 518.93
  Z"
/>
<path fill="#7c8781" fill-opacity="0.980" d="
  M 817.41 518.41
  Q 817.22 519.24 816.57 519.58
  C 811.20 522.40 808.25 524.72 804.23 526.69
  C 801.64 527.95 799.38 529.96 796.42 530.62
  L 817.41 518.41
  Z"
/>
<path fill="#7c8781" fill-opacity="0.980" d="
  M 2761.35 518.47
  Q 2769.77 526.70 2774.76 537.40
  L 2761.35 518.47
  Z"
/>
<path fill="#7c8781" fill-opacity="0.980" d="
  M 2159.52 518.74
  Q 2152.67 523.60 2144.84 527.26
  Q 2151.91 522.28 2159.52 518.74
  Z"
/>
<path fill="#7c8781" fill-opacity="0.980" d="
  M 2664.10 521.26
  Q 2663.14 522.90 2660.54 523.27
  Q 2662.04 521.52 2664.10 521.26
  Z"
/>
<path fill="#7c8781" fill-opacity="0.980" d="
  M 105.60 523.33
  Q 93.63 530.73 81.56 537.65
  Q 44.50 558.90 7.26 580.29
  A 0.96 0.96 0.0 0 0 6.93 581.64
  Q 10.37 587.16 13.65 593.02
  Q 14.15 593.92 14.79 593.99
  Q 15.56 594.08 16.44 593.44
  Q 16.53 593.67 16.62 593.90
  L 15.02 595.11
  Q 14.46 595.53 14.10 594.92
  L 6.16 581.53
  A 1.03 1.03 0.0 0 1 6.53 580.12
  C 35.85 562.98 65.29 546.15 94.67 529.16
  Q 102.54 524.61 105.60 523.33
  Z"
/>
<path fill="#7c8781" fill-opacity="0.980" d="
  M 2660.68 523.17
  Q 2655.61 527.03 2651.42 530.92
  Q 2650.82 531.49 2649.20 532.01
  Q 2654.13 526.56 2660.68 523.17
  Z"
/>
<path fill="#7c8781" fill-opacity="0.980" d="
  M 2749.58 544.27
  Q 2746.65 540.64 2744.00 537.00
  Q 2740.04 531.55 2730.90 524.39
  Q 2742.78 531.67 2749.58 544.27
  Z"
/>
<path fill="#7c8781" fill-opacity="0.980" d="
  M 1473.37 527.12
  Q 1473.52 527.69 1472.83 528.09
  Q 1457.43 536.93 1442.07 545.83
  Q 1434.23 550.37 1431.45 551.44
  L 1473.37 527.12
  Z"
/>
<path fill="#7c8781" fill-opacity="0.980" d="
  M 2144.14 527.37
  Q 2144.28 527.61 2144.27 527.78
  Q 2144.26 527.92 2144.03 528.06
  Q 2137.43 531.90 2130.77 535.65
  C 2128.71 536.81 2126.33 538.75 2123.45 539.45
  L 2144.14 527.37
  Z"
/>
<path fill="#7c8781" fill-opacity="0.980" d="
  M 125.38 530.98
  L 83.57 555.10
  Q 83.37 554.63 83.69 554.44
  Q 104.10 542.61 124.52 530.82
  Q 124.78 530.68 124.95 530.71
  Q 125.19 530.75 125.38 530.98
  Z"
/>
<path fill="#7c8781" fill-opacity="0.980" d="
  M 796.42 530.62
  Q 795.29 532.62 792.20 533.14
  Q 793.74 531.31 796.42 530.62
  Z"
/>
<path fill="#7c8781" fill-opacity="0.980" d="
  M 1921.53 537.80
  L 1910.95 531.86
  Q 1916.52 534.09 1921.53 537.80
  Z"
/>
<path fill="#7c8781" fill-opacity="0.980" d="
  M 2103.75 531.96
  Q 2093.56 538.87 2082.44 544.27
  Q 2088.55 539.98 2095.10 536.65
  C 2097.62 535.37 2100.54 533.11 2103.75 531.96
  Z"
/>
<path fill="#7c8781" fill-opacity="0.980" d="
  M 2649.20 532.01
  C 2647.90 533.19 2647.38 534.78 2646.40 535.82
  Q 2639.68 542.88 2637.01 550.48
  C 2635.83 553.82 2634.54 556.76 2633.86 559.83
  Q 2632.81 564.62 2631.66 569.38
  C 2631.15 571.47 2631.68 574.17 2630.32 576.45
  A 1.45 1.40 -34.0 0 0 2630.12 577.39
  Q 2630.73 581.78 2629.59 585.59
  C 2629.65 566.55 2635.03 546.60 2648.33 532.34
  Q 2648.64 532.01 2649.20 532.01
  Z"
/>
<path fill="#7c8781" fill-opacity="0.980" d="
  M 792.20 533.14
  C 790.36 535.21 787.14 536.45 785.27 537.63
  Q 780.47 540.68 775.17 542.98
  L 792.20 533.14
  Z"
/>
<path fill="#7c8781" fill-opacity="0.980" d="
  M 2123.45 539.45
  C 2121.35 541.64 2118.02 542.86 2115.89 544.25
  Q 2109.48 548.44 2102.34 551.66
  L 2123.45 539.45
  Z"
/>
<path fill="#7c8781" fill-opacity="0.980" d="
  M 1927.41 541.35
  Q 1932.71 543.45 1936.80 546.83
  L 1927.41 541.35
  Z"
/>
<path fill="#7c8781" fill-opacity="0.980" d="
  M 2777.39 542.63
  Q 2779.51 545.42 2780.20 549.06
  Q 2777.74 546.01 2777.39 542.63
  Z"
/>
<path fill="#7c8781" fill-opacity="0.980" d="
  M 775.17 542.98
  C 774.32 544.39 772.25 545.00 771.24 545.62
  Q 761.10 551.85 750.50 557.27
  Q 750.84 556.59 751.49 556.23
  Q 763.01 549.82 774.37 543.15
  Q 774.56 543.04 774.76 543.01
  Q 775.00 542.98 775.17 542.98
  Z"
/>
<path fill="#7c8781" fill-opacity="0.980" d="
  M 2082.44 544.27
  L 2041.22 568.48
  Q 2040.72 568.59 2040.68 568.31
  L 2082.44 544.27
  Z"
/>
<path fill="#7c8781" fill-opacity="0.980" d="
  M 600.39 550.46
  L 590.16 544.63
  Q 595.76 546.66 600.39 550.46
  Z"
/>
<path fill="#7c8781" fill-opacity="0.980" d="
  M 1431.45 551.44
  Q 1429.48 553.93 1425.41 554.96
  L 1431.45 551.44
  Z"
/>
<path fill="#7c8781" fill-opacity="0.980" d="
  M 2102.35 551.71
  Q 2092.06 558.83 2080.96 563.96
  L 2102.35 551.71
  Z"
/>
<path fill="#7c8781" fill-opacity="0.980" d="
  M 2754.08 553.64
  Q 2756.01 555.68 2755.96 558.91
  L 2754.08 553.64
  Z"
/>
<path fill="#7c8781" fill-opacity="0.980" d="
  M 1425.41 554.96
  Q 1425.48 555.31 1424.92 555.66
  Q 1414.80 561.89 1404.34 567.36
  Q 1404.37 566.74 1405.08 566.34
  Q 1412.64 562.11 1420.17 557.84
  C 1421.48 557.10 1423.43 555.59 1425.41 554.96
  Z"
/>
<path fill="#7c8781" fill-opacity="0.980" d="
  M 83.08 555.26
  Q 81.65 556.77 79.47 557.31
  Q 80.61 555.49 83.08 555.26
  Z"
/>
<path fill="#7c8781" fill-opacity="0.980" d="
  M 611.16 556.81
  Q 613.79 557.22 615.56 559.28
  L 611.16 556.81
  Z"
/>
<path fill="#7c8781" fill-opacity="0.980" d="
  M 79.47 557.31
  C 77.46 559.28 74.31 560.48 72.51 561.58
  Q 67.66 564.55 62.61 567.20
  Q 62.55 567.05 62.52 566.93
  Q 62.43 566.57 62.75 566.40
  Q 72.50 561.14 78.45 557.45
  Q 78.95 557.14 79.47 557.31
  Z"
/>
<path fill="#7c8781" fill-opacity="0.980" d="
  M 750.50 557.27
  Q 749.97 558.10 749.08 558.60
  Q 743.14 561.92 737.21 565.27
  C 735.34 566.33 732.36 568.47 729.60 569.64
  Q 729.40 569.22 729.75 569.00
  Q 738.65 563.36 750.50 557.27
  Z"
/>
<path fill="#7c8781" fill-opacity="0.980" d="
  M 2756.24 559.89
  Q 2760.42 569.32 2760.23 579.13
  L 2756.24 559.89
  Z"
/>
<path fill="#7c8781" fill-opacity="0.980" d="
  M 2080.96 563.96
  C 2080.24 565.32 2078.13 566.08 2077.03 566.72
  C 2065.43 573.48 2053.56 579.92 2042.17 587.01
  Q 2038.93 589.03 2035.48 590.19
  L 2080.96 563.96
  Z"
/>
<path fill="#7c8781" fill-opacity="0.980" d="
  M 1974.06 568.36
  L 1967.63 564.73
  Q 1971.31 565.42 1974.06 568.36
  Z"
/>
<path fill="#7c8781" fill-opacity="0.980" d="
  M 626.69 565.73
  Q 632.52 568.00 637.48 571.83
  L 626.69 565.73
  Z"
/>
<path fill="#7c8781" fill-opacity="0.980" d="
  M 62.11 567.28
  Q 61.08 568.78 58.75 569.34
  Q 59.95 567.49 62.11 567.28
  Z"
/>
<path fill="#7c8781" fill-opacity="0.980" d="
  M 1404.34 567.36
  Q 1402.97 568.92 1400.46 569.54
  Q 1402.18 567.43 1404.34 567.36
  Z"
/>
<path fill="#7c8781" fill-opacity="0.980" d="
  M 2785.53 568.98
  Q 2785.71 569.49 2785.81 570.03
  Q 2790.35 596.06 2784.17 621.79
  Q 2783.67 620.32 2784.43 616.98
  Q 2789.66 593.82 2785.15 569.17
  Q 2785.12 569.03 2785.26 569.00
  Q 2785.36 568.99 2785.53 568.98
  Z"
/>
<path fill="#7c8781" fill-opacity="0.980" d="
  M 58.75 569.34
  Q 54.13 572.61 48.96 575.16
  C 46.91 576.17 44.59 578.42 41.37 578.92
  Q 49.62 574.07 57.69 569.44
  Q 58.25 569.11 58.75 569.34
  Z"
/>
<path fill="#7c8781" fill-opacity="0.980" d="
  M 729.60 569.64
  C 724.75 572.83 719.30 575.40 714.61 578.37
  Q 706.34 583.61 697.33 587.87
  L 728.71 569.56
  Q 729.01 569.38 729.33 569.50
  Q 729.48 569.55 729.60 569.64
  Z"
/>
<path fill="#7c8781" fill-opacity="0.980" d="
  M 1400.46 569.54
  Q 1400.01 570.39 1399.09 570.87
  Q 1391.32 574.96 1388.82 576.57
  Q 1385.90 578.44 1383.57 579.22
  Q 1383.38 578.83 1383.68 578.67
  Q 1395.48 572.17 1399.31 569.81
  Q 1399.97 569.40 1400.46 569.54
  Z"
/>
<path fill="#7c8781" fill-opacity="0.980" d="
  M 658.41 583.79
  Q 652.73 581.45 647.69 577.82
  Q 653.39 580.01 658.41 583.79
  Z"
/>
<path fill="#7c8781" fill-opacity="0.980" d="
  M 41.30 579.17
  Q 39.46 581.46 37.41 581.39
  L 41.30 579.17
  Z"
/>
<path fill="#7c8781" fill-opacity="0.980" d="
  M 1383.57 579.22
  Q 1376.40 584.49 1368.15 588.02
  L 1383.57 579.22
  Z"
/>
<path fill="#7c8781" fill-opacity="0.980" d="
  M 2603.53 579.76
  Q 2603.68 579.73 2603.80 579.76
  Q 2603.93 579.79 2603.92 579.92
  Q 2602.86 592.89 2603.88 605.86
  Q 2603.89 605.96 2603.79 605.99
  Q 2603.69 606.02 2603.53 606.00
  Q 2602.69 604.87 2602.71 604.24
  Q 2603.09 593.38 2602.63 582.50
  Q 2602.56 580.78 2603.53 579.76
  Z"
/>
<path fill="#7c8781" fill-opacity="0.980" d="
  M 37.41 581.39
  Q 37.50 581.83 36.92 582.16
  Q 26.75 587.98 16.62 593.90
  Q 16.53 593.67 16.44 593.44
  L 37.41 581.39
  Z"
/>
<path fill="#7c8781" fill-opacity="0.980" d="
  M 1337.08 587.95
  L 1327.93 583.03
  Q 1328.08 582.57 1328.49 582.77
  Q 1332.47 584.74 1337.08 587.95
  Z"
/>
<path fill="#7c8781" fill-opacity="0.980" d="
  M 664.56 587.24
  L 659.18 584.56
  Q 659.21 584.42 659.24 584.31
  Q 659.31 584.04 659.54 584.18
  L 664.56 587.24
  Z"
/>
<path fill="#7c8781" fill-opacity="0.980" d="
  M 2760.62 586.17
  Q 2761.60 590.53 2760.59 594.82
  L 2760.62 586.17
  Z"
/>
<path fill="#7c8781" fill-opacity="0.980" d="
  M 2035.48 590.19
  Q 2030.80 594.09 2025.06 596.57
  C 2022.83 597.53 2022.25 596.06 2020.89 595.37
  Q 2013.32 591.49 2006.12 586.75
  L 2022.24 595.71
  Q 2022.67 595.94 2023.17 595.96
  C 2026.71 596.05 2032.22 591.93 2035.48 590.19
  Z"
/>
<path fill="#7c8781" fill-opacity="0.980" d="
  M 664.96 587.71
  L 680.56 596.23
  A 2.11 2.11 0.0 0 0 682.61 596.21
  Q 689.44 592.30 696.06 588.31
  Q 696.50 588.05 697.09 588.40
  L 681.65 597.20
  Q 681.25 597.43 680.85 597.19
  L 664.96 587.71
  Z"
/>
<path fill="#7c8781" fill-opacity="0.980" d="
  M 1368.02 588.19
  Q 1366.63 590.29 1364.41 590.15
  Q 1366.09 588.59 1368.02 588.19
  Z"
/>
<path fill="#7c8781" fill-opacity="0.980" d="
  M 1364.41 590.15
  Q 1364.38 590.80 1363.84 591.12
  Q 1361.97 592.25 1355.38 595.86
  C 1352.63 597.37 1350.37 596.81 1348.51 594.50
  L 1352.70 596.32
  A 0.96 0.93 -47.3 0 0 1353.55 596.27
  L 1364.41 590.15
  Z"
/>
<path fill="#7c8781" fill-opacity="0.980" d="
  M 1346.01 593.27
  Q 1344.11 593.05 1342.96 591.33
  Q 1344.72 591.68 1346.01 593.27
  Z"
/>
<path fill="#7c8781" fill-opacity="0.980" d="
  M 2629.66 600.81
  Q 2630.81 603.51 2630.08 607.38
  Q 2628.92 604.23 2629.66 600.81
  Z"
/>
<path fill="#7c8781" fill-opacity="0.980" d="
  M 2603.86 607.08
  Q 2605.50 610.60 2604.11 612.22
  Q 2603.41 609.85 2603.86 607.08
  Z"
/>
<path fill="#7c8781" fill-opacity="0.980" d="
  M 2630.41 609.59
  Q 2633.31 624.72 2638.01 634.22
  Q 2640.60 639.46 2648.03 648.89
  Q 2642.45 643.76 2638.20 635.54
  Q 2631.58 622.73 2630.41 609.59
  Z"
/>
<path fill="#7c8781" fill-opacity="0.980" d="
  M 2759.32 610.71
  Q 2757.30 630.22 2746.68 644.17
  Q 2730.58 665.32 2704.44 668.93
  Q 2703.93 669.00 2703.70 668.38
  C 2705.63 667.69 2707.45 668.23 2709.38 667.63
  C 2713.68 666.31 2718.04 665.28 2722.00 663.24
  Q 2726.75 660.78 2731.40 658.10
  C 2732.67 657.37 2733.25 656.16 2734.52 655.41
  C 2740.24 652.04 2746.33 643.98 2749.49 638.53
  Q 2756.79 625.96 2759.32 610.71
  Z"
/>
<path fill="#7c8781" fill-opacity="0.980" d="
  M 2778.50 637.65
  Q 2773.85 650.33 2766.47 658.94
  C 2765.42 660.16 2764.83 661.36 2764.01 662.21
  Q 2759.10 667.30 2753.66 671.80
  C 2747.02 677.29 2739.18 681.06 2731.28 684.75
  Q 2728.67 685.98 2726.07 686.08
  Q 2762.46 673.45 2778.50 637.65
  Z"
/>
<path fill="#7c8781" fill-opacity="0.980" d="
  M 2650.48 651.40
  Q 2664.38 664.40 2682.58 667.82
  C 2683.58 668.01 2685.09 667.76 2686.23 668.53
  A 1.53 1.49 62.0 0 0 2687.04 668.79
  L 2702.36 668.93
  C 2683.59 671.93 2663.12 664.92 2650.48 651.40
  Z"
/>
<path fill="#7c8781" fill-opacity="0.980" d="
  M 2623.00 656.91
  L 2635.16 669.90
  C 2630.50 666.80 2626.06 661.88 2623.00 656.91
  Z"
/>
<path fill="#7c8781" fill-opacity="0.980" d="
  M 2677.11 689.74
  Q 2666.06 688.12 2655.93 683.31
  L 2677.11 689.74
  Z"
/>
<path fill="#7c8781" fill-opacity="0.980" d="
  M 2719.61 688.07
  Q 2716.95 689.55 2713.89 689.63
  Q 2716.40 688.23 2719.61 688.07
  Z"
/>
</svg>
