<?xml version="1.0" encoding="UTF-8" standalone="no"?>
<svg
   xmlns:dc="http://purl.org/dc/elements/1.1/"
   xmlns:cc="http://creativecommons.org/ns#"
   xmlns:rdf="http://www.w3.org/1999/02/22-rdf-syntax-ns#"
   xmlns:svg="http://www.w3.org/2000/svg"
   xmlns="http://www.w3.org/2000/svg"
   xmlns:sodipodi="http://sodipodi.sourceforge.net/DTD/sodipodi-0.dtd"
   xmlns:inkscape="http://www.inkscape.org/namespaces/inkscape"
   viewBox="107.02 59.96 82.01 69.09"
   preserveAspectRatio="xMidYMid"
   width="100%"
   height="100%"
   id="svg2"
   version="1.1"
   inkscape:version="0.48.1 "
   sodipodi:docname="Guaiol.svg">
  <metadata
     id="metadata89">
    <rdf:RDF>
      <cc:Work
         rdf:about="">
        <dc:format>image/svg+xml</dc:format>
        <dc:type
           rdf:resource="http://purl.org/dc/dcmitype/StillImage" />
      </cc:Work>
    </rdf:RDF>
  </metadata>
  <defs
     id="defs87" />
  <sodipodi:namedview
     pagecolor="#ffffff"
     bordercolor="#666666"
     borderopacity="1"
     objecttolerance="10"
     gridtolerance="10"
     guidetolerance="10"
     inkscape:pageopacity="0"
     inkscape:pageshadow="2"
     inkscape:window-width="640"
     inkscape:window-height="480"
     id="namedview85"
     showgrid="false"
     inkscape:zoom="3.7342597"
     inkscape:cx="41.005"
     inkscape:cy="34.545"
     inkscape:window-x="0"
     inkscape:window-y="0"
     inkscape:window-maximized="0"
     inkscape:current-layer="svg2" />
  <clipPath
     id="56">
    <rect
       x="0.3"
       y="0.3"
       width="539.4"
       height="719.15"
       id="rect5" />
  </clipPath>
  <g
     id="drawing"
     transform="matrix(0.96734658,0,0,0.96734658,4.8335225,3.0859115)">
    <rect
       x="107.02"
       y="59.959999"
       width="82.010002"
       height="69.089996"
       id="rect8"
       style="fill:#ffffff;fill-opacity:0" />
    <g
       id="page"
       clip-path="url(#56)">
      <g
         id="Solid">
        <path
           d="m 166.8,105.53 0,0 -0.3,0.22 -0.3,-0.14 0,-14.12 0.3,-0.14 0.3,0.22 z"
           shape-rendering="geometricPrecision"
           id="path12"
           inkscape:connector-curvature="0"
           style="fill:#000000;fill-rule:evenodd;stroke:#000000;stroke-width:0;stroke-linejoin:miter" />
        <line
           x1="163.91"
           y1="104.5"
           x2="163.91"
           y2="92.599998"
           shape-rendering="auto"
           id="line14"
           style="stroke:#000000;stroke-width:0.60000002" />
      </g>
      <g
         id="g16">
        <path
           d="m 166.56,91.01 0,0 -0.06,0.34 -0.3,0.14 -11.03,-8.8 0.07,-0.32 0.07,-0.32 z"
           shape-rendering="geometricPrecision"
           id="path18"
           inkscape:connector-curvature="0"
           style="fill:#000000;fill-rule:evenodd;stroke:#000000;stroke-width:0;stroke-linejoin:miter" />
      </g>
      <g
         id="g20">
        <path
           d="m 155.31,82.05 0,0 -0.07,0.32 -0.07,0.32 -13.76,3.15 -0.21,-0.26 0.13,-0.34 z"
           shape-rendering="geometricPrecision"
           id="path22"
           inkscape:connector-curvature="0"
           style="fill:#000000;fill-rule:evenodd;stroke:#000000;stroke-width:0;stroke-linejoin:miter" />
      </g>
      <g
         id="g24">
        <path
           d="m 140.84,85.63 0,0 0.36,-0.05 0.21,0.26 -6.13,12.71 -0.33,0 -0.33,0 z"
           shape-rendering="geometricPrecision"
           id="path26"
           inkscape:connector-curvature="0"
           style="fill:#000000;fill-rule:evenodd;stroke:#000000;stroke-width:0;stroke-linejoin:miter" />
      </g>
      <g
         id="g28">
        <path
           d="m 134.62,98.55 0,0 0.33,0 0.33,0 6.13,12.71 -0.21,0.26 -0.21,0.26 z"
           shape-rendering="geometricPrecision"
           id="path30"
           inkscape:connector-curvature="0"
           style="fill:#000000;fill-rule:evenodd;stroke:#000000;stroke-width:0;stroke-linejoin:miter" />
      </g>
      <g
         id="g32">
        <path
           d="m 140.99,111.78 0,0 0.21,-0.26 0.21,-0.26 13.76,3.15 0.07,0.32 -0.27,0.25 z"
           shape-rendering="geometricPrecision"
           id="path34"
           inkscape:connector-curvature="0"
           style="fill:#000000;fill-rule:evenodd;stroke:#000000;stroke-width:0;stroke-linejoin:miter" />
      </g>
      <g
         id="g36">
        <path
           d="m 155.59,114.84 0,0 -0.35,-0.11 -0.07,-0.32 11.03,-8.8 0.3,0.14 0.06,0.34 z"
           shape-rendering="geometricPrecision"
           id="path38"
           inkscape:connector-curvature="0"
           style="fill:#000000;fill-rule:evenodd;stroke:#000000;stroke-width:0;stroke-linejoin:miter" />
      </g>
      <g
         id="g40">
        <path
           d="m 166.56,106.09 0,0 -0.06,-0.34 0.3,-0.22 13.29,4.32 0.11,0.35 0.11,0.35 z"
           shape-rendering="geometricPrecision"
           id="path42"
           inkscape:connector-curvature="0"
           style="fill:#000000;fill-rule:evenodd;stroke:#000000;stroke-width:0;stroke-linejoin:miter" />
      </g>
      <g
         id="g44">
        <path
           d="m 180.31,110.55 0,0 -0.11,-0.35 -0.11,-0.35 8.2,-11.3 0.37,0 0.37,0 z"
           shape-rendering="geometricPrecision"
           id="path46"
           inkscape:connector-curvature="0"
           style="fill:#000000;fill-rule:evenodd;stroke:#000000;stroke-width:0;stroke-linejoin:miter" />
      </g>
      <g
         id="g48">
        <path
           d="m 189.03,98.55 0,0 -0.37,0 -0.37,0 -8.2,-11.3 0.11,-0.35 0.34,-0.04 z"
           shape-rendering="geometricPrecision"
           id="path50"
           inkscape:connector-curvature="0"
           style="fill:#000000;fill-rule:evenodd;stroke:#000000;stroke-width:0;stroke-linejoin:miter" />
      </g>
      <g
         id="g52">
        <path
           d="m 179.95,86.67 0,0 0.25,0.23 -0.11,0.35 -13.29,4.32 -0.3,-0.22 0.06,-0.34 z"
           shape-rendering="geometricPrecision"
           id="path54"
           inkscape:connector-curvature="0"
           style="fill:#000000;fill-rule:evenodd;stroke:#000000;stroke-width:0;stroke-linejoin:miter" />
      </g>
      <g
         id="WedgeBegin">
        <path
           d="m 141.33,85.24 0,0 -0.13,0.34 -0.36,0.05 -10.13,-10.73 1.55,-0.54 1.46,-0.5 z"
           shape-rendering="geometricPrecision"
           id="path57"
           inkscape:connector-curvature="0"
           style="fill:#000000;fill-rule:evenodd;stroke:#000000;stroke-width:0;stroke-linejoin:miter" />
      </g>
      <g
         id="g59">
        <path
           d="m 180.54,86.86 0,0 -0.34,0.04 -0.25,-0.23 3.25,-13.88 1.43,0.46 1.43,0.46 z"
           shape-rendering="geometricPrecision"
           id="path61"
           inkscape:connector-curvature="0"
           style="fill:#000000;fill-rule:evenodd;stroke:#000000;stroke-width:0;stroke-linejoin:miter" />
      </g>
      <g
         id="g63">
        <path
           d="m 154.97,114.98 0,0 0.27,-0.25 0.35,0.11 4.3,13.55 -1.46,0.33 -1.46,0.33 z"
           shape-rendering="geometricPrecision"
           id="path65"
           inkscape:connector-curvature="0"
           style="fill:#000000;fill-rule:evenodd;stroke:#000000;stroke-width:0;stroke-linejoin:miter" />
      </g>
      <g
         id="g67">
        <text
           xml:space="preserve"
           text-rendering="geometricPrecision"
           id="text69"
           style="text-anchor:end"><tspan
             x="121.97"
             y="80.169998"
             font-size="10"
             id="tspan71"
             style="font-size:10px;fill:#000000;font-family:Arial">HO</tspan></text>
      </g>
      <g
         id="g73">
        <path
           d="m 131.96,74.1 0,0 0.3,0.26 -1.55,0.54 -7.48,1.13 -0.05,-0.3 -0.04,-0.3 z"
           shape-rendering="geometricPrecision"
           id="path75"
           inkscape:connector-curvature="0"
           style="fill:#000000;fill-rule:evenodd;stroke:#000000;stroke-width:0;stroke-linejoin:miter" />
      </g>
      <g
         id="g77">
        <path
           d="m 132.56,73.84 0,0 -0.3,0.52 -0.3,-0.26 0,-14.14 0.3,0 0.3,0 z"
           shape-rendering="geometricPrecision"
           id="path79"
           inkscape:connector-curvature="0"
           style="fill:#000000;fill-rule:evenodd;stroke:#000000;stroke-width:0;stroke-linejoin:miter" />
      </g>
      <g
         id="g81">
        <path
           d="m 133.72,73.86 0,0 -1.46,0.5 0.3,-0.52 12.02,-6.94 0.15,0.26 0.15,0.26 z"
           shape-rendering="geometricPrecision"
           id="path83"
           inkscape:connector-curvature="0"
           style="fill:#000000;fill-rule:evenodd;stroke:#000000;stroke-width:0;stroke-linejoin:miter" />
      </g>
    </g>
  </g>
</svg>
