<?xml version="1.0" encoding="UTF-8" standalone="no"?>
<!DOCTYPE svg PUBLIC "-//W3C//DTD SVG 1.1//EN" "http://www.w3.org/Graphics/SVG/1.1/DTD/svg11.dtd">
<svg xmlns="http://www.w3.org/2000/svg" version="1.1" viewBox="0.00 0.00 1208.00 1063.00">
<g stroke-width="2.00" fill="none" stroke-linecap="butt">
<path stroke="#555755" stroke-opacity="0.996" vector-effect="non-scaling-stroke" d="
  M 963.02 215.77
  Q 963.02 216.01 962.93 216.18
  Q 962.67 216.67 962.40 216.19
  L 843.39 10.03
  A 2.60 2.58 74.9 0 0 841.15 8.73
  L 597.72 8.71
  Q 596.53 8.71 595.93 9.75
  L 476.67 216.43
  Q 476.38 216.95 476.84 217.32
  L 477.57 217.92
  A 0.30 0.18 6.2 0 1 477.12 218.13
  Q 475.79 217.17 473.76 217.72
  Q 362.17 247.59 250.67 277.52
  Q 250.16 277.65 249.90 277.20
  L 132.66 74.02
  A 1.14 1.14 0.0 0 0 131.11 73.60
  L 124.50 77.33
  A 1.04 1.04 0.0 0 0 124.11 78.76
  L 238.91 277.59
  Q 239.19 278.08 239.67 278.37
  L 241.46 279.49
  A 0.22 0.22 0.0 0 1 241.27 279.88
  Q 239.31 279.15 238.09 277.73"
/>
<path stroke="#555755" stroke-opacity="0.996" vector-effect="non-scaling-stroke" d="
  M 1199.22 216.06
  L 1199.35 226.01"
/>
<path stroke="#555755" stroke-opacity="0.996" vector-effect="non-scaling-stroke" d="
  M 962.36 226.24
  L 845.55 428.53
  A 0.97 0.95 45.5 0 0 845.55 429.48
  L 964.60 635.69
  A 2.18 2.16 -45.2 0 1 964.60 637.88
  L 843.20 848.15
  A 2.21 2.19 14.7 0 1 841.29 849.25
  L 603.71 849.25
  A 2.01 2.00 -74.9 0 0 601.98 850.25
  L 484.46 1053.75
  A 0.96 0.95 -60.1 0 1 483.16 1054.11
  L 476.78 1050.51
  A 1.45 1.44 -60.4 0 1 476.24 1048.53
  L 593.69 845.06
  Q 593.96 844.60 593.69 844.13
  L 476.59 641.32
  Q 476.37 640.95 475.96 640.84
  L 243.49 578.49
  Q 242.98 578.35 242.98 577.82
  L 243.00 289.38
  A 1.37 1.37 0.0 0 0 241.63 288.01
  L 8.50 288.00
  A 0.85 0.74 -90.0 0 1 7.76 287.15
  L 7.72 277.99"
/>
<path stroke="#555755" stroke-opacity="0.996" vector-effect="non-scaling-stroke" d="
  M 602.01 19.78
  Q 601.84 19.75 601.71 19.74
  Q 601.52 19.73 601.43 19.89
  L 484.00 223.24
  A 5.70 5.69 7.5 0 1 480.54 225.89
  Q 368.09 255.97 254.81 286.31
  Q 251.96 287.07 250.66 285.35
  Q 250.60 285.27 250.53 285.34
  L 250.30 285.57
  A 0.20 0.20 0.0 0 0 250.36 285.89
  C 251.79 286.54 252.50 287.27 252.50 288.96
  Q 252.50 428.60 252.50 568.25
  Q 252.50 569.50 251.97 571.15
  Q 251.84 571.56 252.23 571.37
  Q 252.70 571.14 252.71 570.23"
/>
<path stroke="#555755" stroke-opacity="0.996" vector-effect="non-scaling-stroke" d="
  M 253.52 571.16
  L 481.91 632.43
  A 2.33 2.31 82.4 0 1 483.31 633.51
  L 602.14 839.24
  Q 602.40 839.69 602.92 839.69
  L 836.19 839.78
  Q 836.73 839.78 836.99 839.31
  L 953.67 637.27
  Q 953.95 636.78 953.67 636.30
  L 834.39 429.66
  A 1.47 1.47 0.0 0 1 834.39 428.18
  L 953.64 221.63
  A 1.08 1.06 45.5 0 0 953.64 220.56
  L 836.97 18.48
  Q 836.72 18.04 836.21 18.04
  L 602.49 18.00
  A 0.32 0.32 0.0 0 0 602.25 18.54
  Q 602.47 18.78 603.01 19.01"
/>
<path stroke="#555755" stroke-opacity="0.996" vector-effect="non-scaling-stroke" d="
  M 628.1812 59.8716
  A 0.97 0.97 0.0 0 0 627.8262 58.5466
  L 621.0538 54.6366
  A 0.97 0.97 0.0 0 0 619.7288 54.9916
  L 513.2788 239.3684
  A 0.97 0.97 0.0 0 0 513.6338 240.6934
  L 520.4062 244.6034
  A 0.97 0.97 0.0 0 0 521.7312 244.2484
  L 628.1812 59.8716"
/>
<path stroke="#555755" stroke-opacity="0.996" vector-effect="non-scaling-stroke" d="
  M 913.2412 224.7668
  A 1.21 1.21 0.0 0 0 912.7983 223.1139
  L 906.4417 219.4439
  A 1.21 1.21 0.0 0 0 904.7888 219.8868
  L 798.5988 403.8132
  A 1.21 1.21 0.0 0 0 799.0417 405.4661
  L 805.3983 409.1361
  A 1.21 1.21 0.0 0 0 807.0512 408.6932
  L 913.2412 224.7668"
/>
<path stroke="#555755" stroke-opacity="0.996" vector-effect="non-scaling-stroke" d="
  M 521.6525 613.4761
  A 0.78 0.78 0.0 0 0 520.5870 613.1906
  L 513.5030 617.2806
  A 0.78 0.78 0.0 0 0 513.2175 618.3461
  L 619.8875 803.1039
  A 0.78 0.78 0.0 0 0 620.9530 803.3894
  L 628.0370 799.2994
  A 0.78 0.78 0.0 0 0 628.3225 798.2339
  L 521.6525 613.4761"
/>
</g>
<path fill="#abafac" fill-opacity="0.988" d="
  M 963.02 215.77
  Q 963.02 216.01 962.93 216.18
  Q 962.67 216.67 962.40 216.19
  L 843.39 10.03
  A 2.60 2.58 74.9 0 0 841.15 8.73
  L 597.72 8.71
  Q 596.53 8.71 595.93 9.75
  L 476.67 216.43
  Q 476.38 216.95 476.84 217.32
  L 477.57 217.92
  A 0.30 0.18 6.2 0 1 477.12 218.13
  Q 475.79 217.17 473.76 217.72
  Q 362.17 247.59 250.67 277.52
  Q 250.16 277.65 249.90 277.20
  L 132.66 74.02
  A 1.14 1.14 0.0 0 0 131.11 73.60
  L 124.50 77.33
  A 1.04 1.04 0.0 0 0 124.11 78.76
  L 238.91 277.59
  Q 239.19 278.08 239.67 278.37
  L 241.46 279.49
  A 0.22 0.22 0.0 0 1 241.27 279.88
  Q 239.31 279.15 238.09 277.73
  L 123.02 78.44
  A 0.98 0.98 0.0 0 1 123.40 77.09
  L 131.41 72.72
  A 1.16 1.16 0.0 0 1 132.98 73.16
  L 250.44 276.63
  Q 250.71 277.09 251.23 276.96
  C 251.93 276.79 252.69 276.21 253.31 276.04
  Q 363.08 246.64 472.84 217.22
  C 474.03 216.90 475.47 217.67 476.27 215.85
  Q 476.77 214.71 476.82 214.62
  Q 536.02 111.98 595.40 9.21
  A 2.41 2.40 14.8 0 1 597.49 8.00
  L 841.26 8.00
  Q 843.07 8.00 843.97 9.56
  L 963.02 215.77
  Z"
/>
<path fill="#000000" d="
  M 963.02 215.77
  L 1199.22 216.06
  L 1199.35 226.01
  L 962.36 226.24
  L 845.55 428.53
  A 0.97 0.95 45.5 0 0 845.55 429.48
  L 964.60 635.69
  A 2.18 2.16 -45.2 0 1 964.60 637.88
  L 843.20 848.15
  A 2.21 2.19 14.7 0 1 841.29 849.25
  L 603.71 849.25
  A 2.01 2.00 -74.9 0 0 601.98 850.25
  L 484.46 1053.75
  A 0.96 0.95 -60.1 0 1 483.16 1054.11
  L 476.78 1050.51
  A 1.45 1.44 -60.4 0 1 476.24 1048.53
  L 593.69 845.06
  Q 593.96 844.60 593.69 844.13
  L 476.59 641.32
  Q 476.37 640.95 475.96 640.84
  L 243.49 578.49
  Q 242.98 578.35 242.98 577.82
  L 243.00 289.38
  A 1.37 1.37 0.0 0 0 241.63 288.01
  L 8.50 288.00
  A 0.85 0.74 -90.0 0 1 7.76 287.15
  L 7.72 277.99
  L 236.04 278.00
  Q 236.44 278.00 236.80 278.16
  Q 237.59 278.53 238.09 277.73
  Q 239.31 279.15 241.27 279.88
  A 0.22 0.22 0.0 0 0 241.46 279.49
  L 239.67 278.37
  Q 239.19 278.08 238.91 277.59
  L 124.11 78.76
  A 1.04 1.04 0.0 0 1 124.50 77.33
  L 131.11 73.60
  A 1.14 1.14 0.0 0 1 132.66 74.02
  L 249.90 277.20
  Q 250.16 277.65 250.67 277.52
  Q 362.17 247.59 473.76 217.72
  Q 475.79 217.17 477.12 218.13
  A 0.30 0.18 6.2 0 0 477.57 217.92
  L 476.84 217.32
  Q 476.38 216.95 476.67 216.43
  L 595.93 9.75
  Q 596.53 8.71 597.72 8.71
  L 841.15 8.73
  A 2.60 2.58 74.9 0 1 843.39 10.03
  L 962.40 216.19
  Q 962.67 216.67 962.93 216.18
  Q 963.02 216.01 963.02 215.77
  Z
  M 603.01 19.01
  Q 601.91 18.88 602.01 19.78
  Q 601.84 19.75 601.71 19.74
  Q 601.52 19.73 601.43 19.89
  L 484.00 223.24
  A 5.70 5.69 7.5 0 1 480.54 225.89
  Q 368.09 255.97 254.81 286.31
  Q 251.96 287.07 250.66 285.35
  Q 250.60 285.27 250.53 285.34
  L 250.30 285.57
  A 0.20 0.20 0.0 0 0 250.36 285.89
  C 251.79 286.54 252.50 287.27 252.50 288.96
  Q 252.50 428.60 252.50 568.25
  Q 252.50 569.50 251.97 571.15
  Q 251.84 571.56 252.23 571.37
  Q 252.70 571.14 252.71 570.23
  Q 254.04 570.91 253.52 571.16
  L 481.91 632.43
  A 2.33 2.31 82.4 0 1 483.31 633.51
  L 602.14 839.24
  Q 602.40 839.69 602.92 839.69
  L 836.19 839.78
  Q 836.73 839.78 836.99 839.31
  L 953.67 637.27
  Q 953.95 636.78 953.67 636.30
  L 834.39 429.66
  A 1.47 1.47 0.0 0 1 834.39 428.18
  L 953.64 221.63
  A 1.08 1.06 45.5 0 0 953.64 220.56
  L 836.97 18.48
  Q 836.72 18.04 836.21 18.04
  L 602.49 18.00
  A 0.32 0.32 0.0 0 0 602.25 18.54
  Q 602.47 18.78 603.01 19.01
  Z"
/>
<path fill="#abafac" fill-opacity="0.988" d="
  M 253.52 571.16
  Q 254.73 570.90 256.00 571.24
  Q 306.08 584.70 482.94 632.01
  Q 483.38 632.12 483.61 632.51
  L 601.99 837.53
  A 2.95 2.94 -15.0 0 0 604.54 839.00
  L 835.83 839.00
  Q 836.29 839.00 836.52 838.60
  L 952.77 637.28
  Q 953.07 636.75 952.77 636.23
  L 833.39 429.44
  Q 833.08 428.89 833.34 428.43
  L 952.55 221.98
  A 1.83 1.82 -45.3 0 0 952.55 220.15
  L 836.68 19.48
  Q 836.41 19.01 835.87 19.01
  L 603.01 19.01
  Q 602.47 18.78 602.25 18.54
  A 0.32 0.32 0.0 0 1 602.49 18.00
  L 836.21 18.04
  Q 836.72 18.04 836.97 18.48
  L 953.64 220.56
  A 1.08 1.06 45.5 0 1 953.64 221.63
  L 834.39 428.18
  A 1.47 1.47 0.0 0 0 834.39 429.66
  L 953.67 636.30
  Q 953.95 636.78 953.67 637.27
  L 836.99 839.31
  Q 836.73 839.78 836.19 839.78
  L 602.92 839.69
  Q 602.40 839.69 602.14 839.24
  L 483.31 633.51
  A 2.33 2.31 82.4 0 0 481.91 632.43
  L 253.52 571.16
  Z"
/>
<path fill="#abafac" fill-opacity="0.988" d="
  M 602.01 19.78
  Q 601.46 21.27 601.03 22.02
  Q 542.90 122.66 484.81 223.32
  C 483.67 225.30 482.00 226.21 479.66 226.84
  Q 366.62 257.16 253.54 287.35
  Q 253.04 287.48 253.04 287.99
  L 252.71 570.23
  Q 252.70 571.14 252.23 571.37
  Q 251.84 571.56 251.97 571.15
  Q 252.50 569.50 252.50 568.25
  Q 252.50 428.60 252.50 288.96
  C 252.50 287.27 251.79 286.54 250.36 285.89
  A 0.20 0.20 0.0 0 1 250.30 285.57
  L 250.53 285.34
  Q 250.60 285.27 250.66 285.35
  Q 251.96 287.07 254.81 286.31
  Q 368.09 255.97 480.54 225.89
  A 5.70 5.69 7.5 0 0 484.00 223.24
  L 601.43 19.89
  Q 601.52 19.73 601.71 19.74
  Q 601.84 19.75 602.01 19.78
  Z"
/>
<path fill="#abafac" fill-opacity="0.988" d="
  M 522.0957 245.0897
  A 1.07 1.07 0.0 0 1 520.6341 245.4814
  L 512.7359 240.9214
  A 1.07 1.07 0.0 0 1 512.3443 239.4597
  L 619.3443 54.1303
  A 1.07 1.07 0.0 0 1 620.8059 53.7386
  L 628.7041 58.2986
  A 1.07 1.07 0.0 0 1 629.0957 59.7603
  L 522.0957 245.0897
  Z
  M 628.1812 59.8716
  A 0.97 0.97 0.0 0 0 627.8262 58.5466
  L 621.0538 54.6366
  A 0.97 0.97 0.0 0 0 619.7288 54.9916
  L 513.2788 239.3684
  A 0.97 0.97 0.0 0 0 513.6338 240.6934
  L 520.4062 244.6034
  A 0.97 0.97 0.0 0 0 521.7312 244.2484
  L 628.1812 59.8716
  Z"
/>
<rect fill="#000000" x="-4.88" y="-107.42" transform="translate(570.73,149.62) rotate(30.0)" width="9.76" height="214.84" rx="0.97"/>
<path fill="#abafac" fill-opacity="0.988" d="
  M 1199.22 216.06
  Q 1199.38 215.98 1199.54 216.02
  Q 1199.95 216.10 1199.99 216.52
  Q 1200.48 221.86 1199.35 226.01
  L 1199.22 216.06
  Z"
/>
<path fill="#abafac" fill-opacity="0.988" d="
  M 807.1807 409.9316
  A 0.80 0.80 0.0 0 1 806.0879 410.2244
  L 797.7221 405.3944
  A 0.80 0.80 0.0 0 1 797.4293 404.3016
  L 904.6393 218.6084
  A 0.80 0.80 0.0 0 1 905.7321 218.3156
  L 914.0979 223.1456
  A 0.80 0.80 0.0 0 1 914.3907 224.2384
  L 807.1807 409.9316
  Z
  M 913.2412 224.7668
  A 1.21 1.21 0.0 0 0 912.7983 223.1139
  L 906.4417 219.4439
  A 1.21 1.21 0.0 0 0 904.7888 219.8868
  L 798.5988 403.8132
  A 1.21 1.21 0.0 0 0 799.0417 405.4661
  L 805.3983 409.1361
  A 1.21 1.21 0.0 0 0 807.0512 408.6932
  L 913.2412 224.7668
  Z"
/>
<rect fill="#000000" x="-4.88" y="-107.40" transform="translate(855.92,314.29) rotate(30.0)" width="9.76" height="214.80" rx="1.21"/>
<path fill="#abafac" fill-opacity="0.988" d="
  M 962.36 226.24
  Q 961.11 229.68 956.73 237.27
  Q 901.51 333.00 846.23 428.62
  A 0.59 0.57 -45.9 0 0 846.23 429.19
  L 965.86 636.44
  Q 966.07 636.81 965.82 637.24
  L 843.74 848.71
  A 2.58 2.57 14.8 0 1 841.50 850.01
  Q 723.60 850.00 605.25 849.96
  C 601.45 849.96 600.73 853.92 599.24 856.50
  Q 542.11 955.46 485.03 1054.22
  A 1.50 1.50 0.0 0 1 483.02 1054.79
  L 475.53 1050.73
  A 1.22 1.21 29.4 0 1 475.06 1049.05
  L 592.16 846.14
  Q 593.07 844.57 592.16 842.99
  L 476.11 642.00
  Q 475.83 641.51 475.28 641.36
  L 242.34 578.90
  A 0.46 0.45 7.5 0 1 242.00 578.46
  L 242.00 289.50
  A 0.50 0.50 0.0 0 0 241.50 289.00
  L 7.55 289.00
  A 0.38 0.38 0.0 0 1 7.17 288.67
  Q 6.43 282.82 7.72 277.99
  L 7.76 287.15
  A 0.85 0.74 90.0 0 0 8.50 288.00
  L 241.63 288.01
  A 1.37 1.37 0.0 0 1 243.00 289.38
  L 242.98 577.82
  Q 242.98 578.35 243.49 578.49
  L 475.96 640.84
  Q 476.37 640.95 476.59 641.32
  L 593.69 844.13
  Q 593.96 844.60 593.69 845.06
  L 476.24 1048.53
  A 1.45 1.44 -60.4 0 0 476.78 1050.51
  L 483.16 1054.11
  A 0.96 0.95 -60.1 0 0 484.46 1053.75
  L 601.98 850.25
  A 2.01 2.00 -74.9 0 1 603.71 849.25
  L 841.29 849.25
  A 2.21 2.19 14.7 0 0 843.20 848.15
  L 964.60 637.88
  A 2.18 2.16 -45.2 0 0 964.60 635.69
  L 845.55 429.48
  A 0.97 0.95 45.5 0 1 845.55 428.53
  L 962.36 226.24
  Z"
/>
<path fill="#abafac" fill-opacity="0.988" d="
  M 629.2534 798.3916
  A 0.91 0.91 0.0 0 1 628.9203 799.6347
  L 620.7797 804.3347
  A 0.91 0.91 0.0 0 1 619.5366 804.0016
  L 512.3266 618.3084
  A 0.91 0.91 0.0 0 1 512.6597 617.0653
  L 520.8003 612.3653
  A 0.91 0.91 0.0 0 1 522.0434 612.6984
  L 629.2534 798.3916
  Z
  M 521.6525 613.4761
  A 0.78 0.78 0.0 0 0 520.5870 613.1906
  L 513.5030 617.2806
  A 0.78 0.78 0.0 0 0 513.2175 618.3461
  L 619.8875 803.1039
  A 0.78 0.78 0.0 0 0 620.9530 803.3894
  L 628.0370 799.2994
  A 0.78 0.78 0.0 0 0 628.3225 798.2339
  L 521.6525 613.4761
  Z"
/>
<rect fill="#000000" x="-4.87" y="-107.45" transform="translate(570.77,708.29) rotate(-30.0)" width="9.74" height="214.90" rx="0.78"/>
</svg>
