<?xml version="1.0"?>

<!DOCTYPE svg PUBLIC '-//W3C//DTD SVG 1.0//EN' 'http://www.w3.org/TR/2001/REC-SVG-20010904/DTD/svg10.dtd'>
<svg fill-opacity="1" xmlns:xlink="http://www.w3.org/1999/xlink" color-rendering="auto" color-interpolation="auto" stroke="black" text-rendering="auto" stroke-linecap="square" width="445" stroke-miterlimit="10" stroke-opacity="1" shape-rendering="auto" fill="black" stroke-dasharray="none" font-weight="normal" stroke-width="1" height="135" xmlns="http://www.w3.org/2000/svg" font-family="&apos;Dialog&apos;" font-style="normal" stroke-linejoin="miter" font-size="12" stroke-dashoffset="0" image-rendering="auto">
  <!--Generated by Marvin with Batik SVG Generator
MolSource:
<?xml version="1.0" encoding="windows-1252"?><cml xmlns="http://www.chemaxon.com" xmlns:xsi="http://www.w3.org/2001/XMLSchema-instance" xsi:schemaLocation="http://www.chemaxon.com/marvin/schema/mrvSchema_14_12_01.xsd" version="ChemAxon file format v14.12.01, generated by v16.2.8.0">
<MDocument><MChemicalStruct><molecule molID="m1"><atomArray atomID="a1 a2 a3 a4 a5 a6 a7 a8 a9 a10 a11" elementType="C C C C C C C C C O C" x2="-7.048611164093018 -5.714932042264982 -8.382290285921053 -4.381252920436946 -3.047573798608911 -1.713894676780875 -0.38021555495283965 0.9534635668751963 -0.3802155549528399 -6.553676156188123 -4.944932042264981" y2="2.592592477798462 3.362592477798462 3.362592477798462 2.592592477798462 3.362592477798462 2.5925924777984624 3.362592477798463 2.5925924777984632 4.902592477798462 4.654145152434415 4.696271599626497"></atomArray><bondArray><bond id="b1" atomRefs2="a1 a2" order="1"></bond><bond id="b2" atomRefs2="a1 a3" order="2"></bond><bond id="b3" atomRefs2="a2 a4" order="1"></bond><bond id="b4" atomRefs2="a4 a5" order="1"></bond><bond id="b5" atomRefs2="a5 a6" order="1"></bond><bond id="b6" atomRefs2="a6 a7" order="2"></bond><bond id="b7" atomRefs2="a7 a8" order="1"></bond><bond id="b8" atomRefs2="a7 a9" order="1"></bond><bond id="b9" atomRefs2="a2 a10" order="1"></bond><bond id="b10" atomRefs2="a2 a11" order="1"></bond></bondArray></molecule></MChemicalStruct></MDocument>
</cml>
-->
  <defs id="genericDefs" />
  <g>
    <defs id="6207304568-defs1">
      <clipPath clipPathUnits="userSpaceOnUse" id="6207304160-clipPath1">
        <path d="M-42.123382568359375 -1.3132147789001465 L402.8766174316406 -1.3132147789001465 L402.8766174316406 133.68678283691406 L-42.123382568359375 133.68678283691406 L-42.123382568359375 -1.3132147789001465 Z" />
      </clipPath>
      <clipPath clipPathUnits="userSpaceOnUse" id="6207304169-clipPath1">
        <path d="M101.37142944335938 7.4733710289001465 C107.76261901855469 7.4733710289001465 112.94369506835938 12.654450416564941 112.94369506835938 19.045637130737305 L112.94369506835938 42.19016647338867 C112.94369506835938 48.58135223388672 107.76261901855469 53.76243209838867 101.37142944335938 53.76243209838867 L55.875335693359375 53.76243209838867 C49.48414993286133 53.76243209838867 44.303070068359375 48.58135223388672 44.303070068359375 42.19016647338867 L44.303070068359375 19.045637130737305 C44.303070068359375 12.654450416564941 49.48414993286133 7.4733710289001465 55.875335693359375 7.4733710289001465 ZM0 0 L0 135 L445 135 L445 0 Z" />
      </clipPath>
      <clipPath clipPathUnits="userSpaceOnUse" id="6207304364-clipPath1">
        <path d="M0 0 L445 0 L445 135 L0 135 L0 0 Z" />
      </clipPath>
    </defs>
    <g text-rendering="optimizeLegibility" font-size="49" shape-rendering="geometricPrecision" font-family="&apos;Arial&apos;" transform="translate(42.12338373207984,1.3132148079681372)">
      <text xml:space="preserve" x="0" y="48" clip-path="url(#6207304160-clipPath1)" stroke="none">HO
      </text>
    </g>
    <g text-rendering="optimizeLegibility" font-size="49" shape-rendering="geometricPrecision" font-family="&apos;Arial&apos;">
      <path d="M67.14801025390625 127.83646392822266 L129.39129638671875 91.90028381347656 C130.11483764648438 91.4825439453125 130.36264038085938 90.5577621459961 129.9449005126953 89.83421325683594 C129.52716064453125 89.11067199707031 128.6023712158203 88.86287689208984 127.87882995605469 89.2806167602539 L65.63554382324219 125.216796875 C64.91199493408203 125.63453674316406 64.66419982910156 126.55931854248047 65.08193969726562 127.2828598022461 C65.49967956542969 128.00640869140625 66.4244613647461 128.2541961669922 67.14801025390625 127.83646392822266 Z" clip-path="url(#6207304169-clipPath1)" stroke="none" />
    </g>
    <g text-rendering="optimizeLegibility" font-size="49" shape-rendering="geometricPrecision" font-family="&apos;Arial&apos;">
      <path d="M65.63554382324219 127.83646392822266 C66.35908508300781 128.2541961669922 67.28386688232422 128.00640869140625 67.70160675048828 127.2828598022461 C68.11934661865234 126.55931854248047 67.87155151367188 125.63453674316406 67.14801025390625 125.216796875 L4.904716968536377 89.2806167602539 C4.181170463562012 88.86287689208984 3.2563886642456055 89.11067199707031 2.8386499881744385 89.83421325683594 C2.4209113121032715 90.5577621459961 2.6687049865722656 91.4825439453125 3.39225172996521 91.90028381347656 ZM64.3257064819336 111.9909439086914 C65.04925537109375 112.40868377685547 65.97403717041016 112.160888671875 66.39177703857422 111.43734741210938 C66.80950927734375 110.71379852294922 66.56172180175781 109.78901672363281 65.83817291259766 109.37127685546875 L11.438568115234375 77.96365356445312 C10.715021133422852 77.54591369628906 9.790240287780762 77.79370880126953 9.372501373291016 78.51725006103516 C8.95476245880127 79.24079895019531 9.202555656433105 80.16558074951172 9.926102638244629 80.58332061767578 Z" clip-path="url(#6207304169-clipPath1)" stroke="none" />
    </g>
    <g text-rendering="optimizeLegibility" font-size="49" shape-rendering="geometricPrecision" font-family="&apos;Arial&apos;">
      <path d="M127.87882995605469 91.90028381347656 L190.1221160888672 127.83646392822266 C190.84567260742188 128.2541961669922 191.77044677734375 128.00640869140625 192.1881866455078 127.2828598022461 C192.60592651367188 126.55931854248047 192.35813903808594 125.63453674316406 191.63458251953125 125.216796875 L129.39129638671875 89.2806167602539 C128.66775512695312 88.86287689208984 127.74297332763672 89.11067199707031 127.32523345947266 89.83421325683594 C126.9074935913086 90.5577621459961 127.15528869628906 91.4825439453125 127.87882995605469 91.90028381347656 Z" clip-path="url(#6207304169-clipPath1)" stroke="none" />
    </g>
    <g text-rendering="optimizeLegibility" font-size="49" shape-rendering="geometricPrecision" font-family="&apos;Arial&apos;">
      <path d="M191.63458251953125 127.83646392822266 L253.8778839111328 91.90028381347656 C254.60142517089844 91.4825439453125 254.84921264648438 90.5577621459961 254.4314727783203 89.83421325683594 C254.01373291015625 89.11067199707031 253.08895874023438 88.86287689208984 252.36541748046875 89.2806167602539 L190.1221160888672 125.216796875 C189.39857482910156 125.63453674316406 189.15078735351562 126.55931854248047 189.5685272216797 127.2828598022461 C189.98626708984375 128.00640869140625 190.91104125976562 128.2541961669922 191.63458251953125 127.83646392822266 Z" clip-path="url(#6207304169-clipPath1)" stroke="none" />
    </g>
    <g text-rendering="optimizeLegibility" font-size="49" shape-rendering="geometricPrecision" font-family="&apos;Arial&apos;">
      <path d="M252.36541748046875 91.90028381347656 L314.60870361328125 127.83646392822266 C315.3322448730469 128.2541961669922 316.25701904296875 128.00640869140625 316.6747741699219 127.2828598022461 C317.0924987792969 126.55931854248047 316.8447265625 125.63453674316406 316.12115478515625 125.216796875 L253.8778839111328 89.2806167602539 C253.15432739257812 88.86287689208984 252.22955322265625 89.11067199707031 251.8118133544922 89.83421325683594 C251.39407348632812 90.5577621459961 251.64186096191406 91.4825439453125 252.36541748046875 91.90028381347656 Z" clip-path="url(#6207304169-clipPath1)" stroke="none" />
    </g>
    <g text-rendering="optimizeLegibility" font-size="49" shape-rendering="geometricPrecision" font-family="&apos;Arial&apos;">
      <path d="M315.9185485839844 109.37127685546875 C315.1949768066406 109.78901672363281 314.94720458984375 110.71379852294922 315.36492919921875 111.43734741210938 C315.7826843261719 112.160888671875 316.70745849609375 112.40868377685547 317.4309997558594 111.9909439086914 L363.9869079589844 85.11186981201172 C364.7104797363281 84.69413757324219 364.958251953125 83.76934814453125 364.54052734375 83.04580688476562 C364.1227722167969 82.32225799560547 363.197998046875 82.07447052001953 362.4744567871094 82.49220275878906 ZM314.60870361328125 125.216796875 C313.8851623535156 125.63453674316406 313.6373596191406 126.55931854248047 314.05511474609375 127.2828598022461 C314.47283935546875 128.00640869140625 315.3976135253906 128.2541961669922 316.12115478515625 127.83646392822266 L378.3644714355469 91.90028381347656 C379.0880126953125 91.4825439453125 379.3357849121094 90.5577621459961 378.9180603027344 89.83421325683594 C378.5003356933594 89.11067199707031 377.5755310058594 88.86287689208984 376.85198974609375 89.2806167602539 Z" clip-path="url(#6207304169-clipPath1)" stroke="none" />
    </g>
    <g text-rendering="optimizeLegibility" font-size="49" shape-rendering="geometricPrecision" font-family="&apos;Arial&apos;">
      <path d="M376.85198974609375 91.90028381347656 L439.09527587890625 127.83646392822266 C439.8188171386719 128.2541961669922 440.7436218261719 128.00640869140625 441.1613464355469 127.2828598022461 C441.5791015625 126.55931854248047 441.331298828125 125.63453674316406 440.6077575683594 125.216796875 L378.3644714355469 89.2806167602539 C377.6408996582031 88.86287689208984 376.71612548828125 89.11067199707031 376.29840087890625 89.83421325683594 C375.8806457519531 90.5577621459961 376.1284484863281 91.4825439453125 376.85198974609375 91.90028381347656 Z" clip-path="url(#6207304169-clipPath1)" stroke="none" />
    </g>
    <g text-rendering="optimizeLegibility" font-size="49" shape-rendering="geometricPrecision" font-family="&apos;Arial&apos;">
      <path d="M379.1206970214844 90.59044647216797 L379.1206970214844 18.718088150024414 C379.1206970214844 17.88260841369629 378.4436950683594 17.20562171936035 377.60821533203125 17.20562171936035 C376.7727355957031 17.20562171936035 376.09576416015625 17.88260841369629 376.09576416015625 18.718088150024414 L376.09576416015625 90.59044647216797 C376.09576416015625 91.4259262084961 376.7727355957031 92.10291290283203 377.60821533203125 92.10291290283203 C378.4436950683594 92.10291290283203 379.1206970214844 91.4259262084961 379.1206970214844 90.59044647216797 Z" clip-path="url(#6207304169-clipPath1)" stroke="none" />
    </g>
    <g text-rendering="optimizeLegibility" font-size="49" shape-rendering="geometricPrecision" font-family="&apos;Arial&apos;">
      <path d="M129.9035186767578 89.7667007446289 L108.72526550292969 57.15504455566406 C108.27023315429688 56.4543571472168 107.33374786376953 56.25529861450195 106.633056640625 56.710330963134766 C105.93236541748047 57.165367126464844 105.73331451416016 58.10185241699219 106.18834686279297 58.80253982543945 L127.36660766601562 91.41419982910156 C127.82164001464844 92.11488342285156 128.75811767578125 92.3139419555664 129.4588165283203 91.8589096069336 C130.1595001220703 91.40387725830078 130.35855102539062 90.46739196777344 129.9035186767578 89.7667007446289 Z" clip-path="url(#6207304169-clipPath1)" stroke="none" />
    </g>
    <g text-rendering="optimizeLegibility" font-size="49" shape-rendering="geometricPrecision" font-family="&apos;Arial&apos;">
      <path d="M129.9449005126953 91.3466796875 L165.88107299804688 29.103391647338867 C166.29881286621094 28.379844665527344 166.051025390625 27.455062866210938 165.32748413085938 27.037324905395508 C164.6039276123047 26.619585037231445 163.6791534423828 26.867380142211914 163.26141357421875 27.590925216674805 L127.32523345947266 89.83421325683594 C126.9074935913086 90.5577621459961 127.15528869628906 91.4825439453125 127.87882995605469 91.90028381347656 C128.6023712158203 92.31802368164062 129.52716064453125 92.07022857666016 129.9449005126953 91.3466796875 Z" clip-path="url(#6207304169-clipPath1)" stroke="none" />
    </g>
  </g>
</svg>
