<?xml version="1.0" encoding="UTF-8" standalone="no"?>
<!DOCTYPE svg PUBLIC "-//W3C//DTD SVG 1.1//EN" "http://www.w3.org/Graphics/SVG/1.1/DTD/svg11.dtd">
<svg xmlns="http://www.w3.org/2000/svg" version="1.1" viewBox="0.00 0.00 1388.00 240.00">
<g stroke-width="2.00" fill="none" stroke-linecap="butt">
<path stroke="#595a56" stroke-opacity="0.996" vector-effect="non-scaling-stroke" d="
  M 1056.79 1.66
  Q 1056.69 2.23 1055.98 2.27
  C 1035.08 3.63 1026.53 17.46 1023.95 36.37"
/>
<path stroke="#595a56" stroke-opacity="0.996" vector-effect="non-scaling-stroke" d="
  M 1060.22 1.62
  Q 1059.76 1.81 1059.17 1.74
  Q 1059.02 1.72 1059.00 1.87
  Q 1058.97 2.07 1058.78 1.96
  C 1076.04 4.98 1085.99 11.77 1089.72 29.47
  Q 1090.38 32.63 1091.12 35.87"
/>
<path stroke="#595a56" stroke-opacity="0.996" vector-effect="non-scaling-stroke" d="
  M 1091.06 41.59
  C 1088.56 60.14 1079.21 72.90 1059.28 75.03"
/>
<path stroke="#595a56" stroke-opacity="0.996" vector-effect="non-scaling-stroke" d="
  M 1056.25 75.00
  C 1036.62 73.26 1026.26 60.16 1023.95 41.58"
/>
<path stroke="#595a56" stroke-opacity="0.996" vector-effect="non-scaling-stroke" d="
  M 1033.19 42.89
  C 1033.67 56.02 1041.90 66.49 1055.20 67.20
  C 1063.28 67.63 1070.46 65.60 1076.04 59.29
  Q 1082.25 52.27 1081.81 41.59"
/>
<path stroke="#595a56" stroke-opacity="0.996" vector-effect="non-scaling-stroke" d="
  M 1081.92 35.61
  C 1082.25 16.19 1064.70 4.36 1046.76 12.01
  Q 1032.92 17.91 1033.18 36.29"
/>
</g>
<path fill="#b3b5ae" fill-opacity="0.988" d="
  M 1056.79 1.66
  Q 1056.69 2.23 1055.98 2.27
  C 1035.08 3.63 1026.53 17.46 1023.95 36.37
  C 1023.40 17.20 1037.19 1.69 1056.79 1.66
  Z"
/>
<path fill="#000000" d="
  M 1056.79 1.66
  Q 1058.51 1.29 1060.22 1.62
  Q 1059.76 1.81 1059.17 1.74
  Q 1059.02 1.72 1059.00 1.87
  Q 1058.97 2.07 1058.78 1.96
  C 1076.04 4.98 1085.99 11.77 1089.72 29.47
  Q 1090.38 32.63 1091.12 35.87
  L 1091.06 41.59
  C 1088.56 60.14 1079.21 72.90 1059.28 75.03
  Q 1057.60 75.61 1056.25 75.00
  C 1036.62 73.26 1026.26 60.16 1023.95 41.58
  L 1023.95 36.37
  C 1026.53 17.46 1035.08 3.63 1055.98 2.27
  Q 1056.69 2.23 1056.79 1.66
  Z
  M 1033.18 36.29
  L 1033.19 42.89
  C 1033.67 56.02 1041.90 66.49 1055.20 67.20
  C 1063.28 67.63 1070.46 65.60 1076.04 59.29
  Q 1082.25 52.27 1081.81 41.59
  L 1081.92 35.61
  C 1082.25 16.19 1064.70 4.36 1046.76 12.01
  Q 1032.92 17.91 1033.18 36.29
  Z"
/>
<path fill="#b3b5ae" fill-opacity="0.988" d="
  M 1060.22 1.62
  C 1078.26 3.36 1091.75 17.43 1091.12 35.87
  Q 1090.38 32.63 1089.72 29.47
  C 1085.99 11.77 1076.04 4.98 1058.78 1.96
  Q 1058.97 2.07 1059.00 1.87
  Q 1059.02 1.72 1059.17 1.74
  Q 1059.76 1.81 1060.22 1.62
  Z"
/>
<path fill="#000000" d="
  M 1001.37 41.00
  L 964.63 41.00
  A 0.63 0.63 0.0 0 0 964.00 41.63
  L 964.00 73.37
  A 0.63 0.63 0.0 0 1 963.37 74.00
  L 955.63 74.00
  A 0.63 0.63 0.0 0 1 955.00 73.37
  L 955.00 3.63
  A 0.63 0.63 0.0 0 1 955.63 3.00
  L 963.37 3.00
  A 0.63 0.63 0.0 0 1 964.00 3.63
  L 964.00 32.37
  A 0.63 0.63 0.0 0 0 964.63 33.00
  L 1001.37 33.00
  A 0.63 0.63 0.0 0 0 1002.00 32.37
  L 1002.00 3.63
  A 0.63 0.63 0.0 0 1 1002.63 3.00
  L 1010.37 3.01
  A 0.63 0.63 0.0 0 1 1011.00 3.64
  L 1011.00 73.34
  A 0.63 0.63 0.0 0 1 1010.37 73.97
  L 1002.63 74.02
  A 0.63 0.63 0.0 0 1 1002.00 73.39
  L 1002.00 41.63
  A 0.63 0.63 0.0 0 0 1001.37 41.00
  Z"
/>
<path fill="#b3b5ae" fill-opacity="0.988" d="
  M 1081.92 35.61
  Q 1081.01 31.13 1079.75 26.91
  C 1076.00 14.35 1064.71 8.35 1051.78 11.03
  C 1038.52 13.77 1034.72 24.32 1033.18 36.29
  Q 1032.92 17.91 1046.76 12.01
  C 1064.70 4.36 1082.25 16.19 1081.92 35.61
  Z"
/>
<path fill="#000000" d="
  M 1134.83 158.73
  L 1252.95 226.59
  A 3.09 3.08 44.7 0 0 1256.04 226.58
  L 1376.35 157.20
  A 1.45 1.44 -29.4 0 1 1378.34 157.75
  L 1379.93 160.64
  A 1.10 1.09 60.8 0 1 1379.52 162.11
  L 1256.05 233.57
  A 3.15 3.13 -44.8 0 1 1252.92 233.57
  Q 1192.63 198.65 1134.28 164.70
  C 1131.69 163.19 1130.65 162.43 1127.76 164.10
  Q 1067.25 198.98 1006.84 233.68
  A 2.77 2.77 0.0 0 1 1004.10 233.68
  L 881.72 163.23
  A 2.50 2.50 0.0 0 0 879.23 163.24
  L 757.43 233.93
  Q 756.95 234.21 756.42 234.04
  Q 754.77 233.50 752.71 232.31
  Q 692.73 197.75 633.30 163.57
  A 3.70 3.69 -45.1 0 0 629.62 163.58
  L 508.56 233.86
  A 2.13 2.11 44.8 0 1 506.43 233.86
  L 383.07 162.87
  A 1.44 1.14 -41.5 0 0 381.78 162.94
  L 258.89 233.68
  A 2.81 2.80 45.1 0 1 256.09 233.67
  Q 196.44 199.11 136.19 164.05
  Q 133.53 162.51 131.30 163.79
  Q 73.42 197.16 15.58 230.59
  Q 13.23 231.95 10.77 233.09
  Q 10.32 233.30 10.05 232.87
  L 7.59 228.94
  Q 7.35 228.55 7.74 228.33
  L 128.90 158.45
  A 2.21 2.21 0.0 0 0 130.00 156.54
  L 130.00 15.62
  Q 130.00 15.00 130.63 15.00
  L 135.50 15.00
  Q 136.00 15.00 136.00 15.50
  L 136.00 157.00
  A 0.38 0.37 15.8 0 0 136.18 157.32
  L 255.46 226.32
  Q 257.50 227.49 259.54 226.32
  L 380.60 156.62
  Q 382.50 155.52 384.40 156.62
  L 506.28 226.78
  A 2.50 2.49 -45.1 0 0 508.78 226.77
  L 626.71 158.53
  A 2.60 2.57 -15.2 0 0 628.00 156.30
  L 628.00 15.50
  Q 628.00 15.00 628.50 15.00
  L 633.09 15.00
  A 0.91 0.91 0.0 0 1 634.00 15.91
  L 634.00 156.85
  Q 634.00 157.28 634.37 157.49
  L 755.16 226.67
  A 2.73 2.72 -45.1 0 0 757.90 226.66
  L 879.17 156.28
  A 2.65 2.65 0.0 0 1 881.81 156.28
  L 1004.44 226.86
  A 2.13 2.13 0.0 0 0 1006.56 226.86
  L 1124.39 159.17
  A 1.31 1.31 0.0 0 0 1124.88 157.38
  L 1083.68 84.89
  Q 1083.40 84.41 1083.86 84.11
  C 1085.36 83.15 1088.10 81.07 1089.40 83.31
  Q 1109.67 117.92 1129.94 152.54
  Q 1130.02 152.68 1130.18 152.73
  Q 1130.33 152.77 1130.50 152.85
  A 0.37 0.37 0.0 0 0 1130.98 152.70
  L 1198.83 34.61
  A 0.74 0.74 0.0 0 1 1199.52 34.24
  Q 1202.13 34.39 1203.90 36.36
  Q 1204.29 36.79 1204.00 37.29
  L 1134.69 158.23
  Q 1134.51 158.55 1134.83 158.73
  Z"
/>
<path fill="#b3b5ae" fill-opacity="0.988" d="
  M 1023.95 41.58
  C 1026.26 60.16 1036.62 73.26 1056.25 75.00
  C 1037.50 75.92 1024.24 59.37 1023.95 41.58
  Z"
/>
<path fill="#b3b5ae" fill-opacity="0.988" d="
  M 1081.81 41.59
  Q 1082.25 52.27 1076.04 59.29
  C 1070.46 65.60 1063.28 67.63 1055.20 67.20
  C 1041.90 66.49 1033.67 56.02 1033.19 42.89
  Q 1034.66 52.39 1039.25 58.49
  C 1048.34 70.57 1070.46 68.99 1077.55 55.48
  Q 1080.80 49.30 1081.81 41.59
  Z"
/>
<path fill="#b3b5ae" fill-opacity="0.988" d="
  M 1091.06 41.59
  C 1090.94 59.79 1078.10 75.18 1059.28 75.03
  C 1079.21 72.90 1088.56 60.14 1091.06 41.59
  Z"
/>
<path fill="#000000" d="
  M 1253.56 198.68
  A 0.26 0.26 0.0 0 1 1253.65 198.32
  L 1362.97 135.46
  A 1.88 1.01 -29.9 0 1 1365.10 135.40
  L 1367.01 138.71
  A 1.88 1.01 -29.9 0 1 1365.88 140.53
  L 1256.57 203.38
  A 0.26 0.26 0.0 0 1 1256.21 203.29
  L 1253.56 198.68
  Z"
/>
<path fill="#000000" d="
  M 160.23 141.70
  A 0.26 0.26 0.0 0 1 160.59 141.60
  L 257.81 197.51
  A 2.01 1.55 29.9 0 1 258.78 199.85
  L 257.41 202.23
  A 2.01 1.55 29.9 0 1 254.90 202.57
  L 157.67 146.66
  A 0.26 0.26 0.0 0 1 157.58 146.31
  L 160.23 141.70
  Z"
/>
<path fill="#000000" d="
  M 659.23 141.73
  A 0.26 0.26 0.0 0 1 659.59 141.63
  L 755.83 197.42
  A 2.00 1.41 30.1 0 1 756.85 199.65
  L 755.33 202.28
  A 2.00 1.41 30.1 0 1 752.89 202.49
  L 656.65 146.70
  A 0.26 0.26 0.0 0 1 656.55 146.35
  L 659.23 141.73
  Z"
/>
</svg>
