<?xml version="1.0" encoding="UTF-8" standalone="no"?>
<!-- Created with Inkscape (http://www.inkscape.org/) -->

<svg
   xmlns:dc="http://purl.org/dc/elements/1.1/"
   xmlns:cc="http://creativecommons.org/ns#"
   xmlns:rdf="http://www.w3.org/1999/02/22-rdf-syntax-ns#"
   xmlns:svg="http://www.w3.org/2000/svg"
   xmlns="http://www.w3.org/2000/svg"
   version="1.1"
   width="620"
   height="179.74"
   id="svg2">
  <defs
     id="defs4" />
  <metadata
     id="metadata7">
    <rdf:RDF>
      <cc:Work
         rdf:about="">
        <dc:format>image/svg+xml</dc:format>
        <dc:type
           rdf:resource="http://purl.org/dc/dcmitype/StillImage" />
        <dc:title></dc:title>
      </cc:Work>
    </rdf:RDF>
  </metadata>
  <g
     transform="translate(672.43,-948)"
     id="layer1">
    <path
       d="m -626.48,1117.1 c -1.85,-0.7 -4.42,-4.1 -4.22,-5.5 0.21,-1.5 2.81,-2.1 2.81,-0.7 0,0.6 0.65,1.6 1.44,2.4 2.01,2 4.62,2 6.8,-0.3 2.11,-2.1 2.16,-3.7 0.21,-5.6 -1.17,-1.2 -1.94,-1.5 -3.51,-1.3 -1.88,0.2 -2.02,0.1 -2.02,-1.4 0,-1.3 0.28,-1.7 1.14,-1.7 1.79,0 4.07,-1.2 4.45,-2.4 1.29,-4 -5.62,-5.5 -7.82,-1.6 -1.03,1.8 -1.63,2 -2.94,1.2 -0.66,-0.4 -0.65,-0.8 0.1,-2.2 1.33,-2.6 3,-3.8 5.63,-4.2 6.03,-0.8 10.68,5.1 6.93,8.8 l -1.32,1.3 1.9,1.9 c 5.61,5.4 -1.99,14.4 -9.56,11.3 z m 25.58,-9 c -8.44,-2.8 -12.52,-15.5 -8.2,-25.6 4.47,-10.4 20.34,-11.7 25.64,-2.2 1.62,3 1.45,3.6 -1.12,4.2 -1.25,0.3 -1.66,0 -2.64,-1.8 -2.38,-4.3 -7.23,-5.9 -12.3,-4 -4.51,1.7 -6.71,5.9 -6.71,12.6 0,6.5 1.96,10.5 6.08,12.4 5.84,2.7 12.33,0 14.08,-5.8 0.4,-1.3 1.25,-1.5 3.74,-0.8 l 1.36,0.4 -1.96,3.8 c -2.62,5.1 -5.77,7.1 -11.44,7.4 -2.41,0.1 -4.96,-0.1 -6.53,-0.6 z m -61.53,-16.8 0,-17 2.05,0 2.05,0 0,7.1 0,7 8.78,0 8.78,0 0,-7 0,-7.1 2.05,0 2.05,0 0,17 0,17 -2.05,0 -2.05,0 0,-7.9 0,-7.9 -8.78,0 -8.78,0 0,7.9 0,7.9 -2.05,0 -2.05,0 0,-17 z m 166.74,-19.2 -33.16,-19.2 -24.5,14.1 -24.49,14.2 -0.79,-1.4 c -0.67,-1.2 -0.67,-1.5 0,-2 0.43,-0.2 11.39,-6.6 24.35,-14.1 l 23.56,-13.6 0,-26.2 0,-26.2 1.75,0 1.76,0 0,26.2 0,26.2 32.55,18.7 c 17.9,10.3 32.84,18.7 33.2,18.5 0.37,-0.1 15.46,-8.7 33.56,-19.1 18.08,-10.5 33.01,-19 33.15,-19 0.14,0 15.29,8.7 33.65,19.3 l 33.4,19.2 32.67,-18.8 32.67,-18.9 0.16,-26.1 0.15,-26.2 1.46,0 1.45,0 0,26.2 0,26.2 32.76,18.8 32.75,18.8 23.56,-13.6 c 20.63,-11.9 23.66,-13.5 24.3,-12.7 0.4,0.5 0.73,1.2 0.73,1.5 0,0.8 -47.28,28.1 -48.58,28.1 -0.51,0 -15.78,-8.5 -33.94,-19 -18.15,-10.4 -33.16,-19 -33.34,-18.9 -0.19,0.1 -14.56,8.3 -31.95,18.4 -17.38,10 -32.41,18.6 -33.38,19.1 l -1.78,0.8 -33.33,-19.2 c -18.33,-10.6 -33.5,-19.2 -33.71,-19.1 -0.2,0.1 -15.04,8.6 -32.98,19 -17.93,10.3 -33.04,18.9 -33.58,19 -0.55,0.1 -15.91,-8.4 -34.15,-19 z m 168.07,4.3 c -0.42,-0.8 -0.65,-1.5 -0.52,-1.7 0.14,-0.1 12.56,-7.3 27.62,-16 26.88,-15.6 27.39,-15.8 28.24,-14.6 0.47,0.7 0.67,1.4 0.43,1.7 -0.24,0.2 -12.15,7.2 -26.48,15.4 -14.33,8.3 -26.61,15.4 -27.29,15.8 -1.11,0.7 -1.31,0.7 -2,-0.6 z m 134.11,-0.1 c -0.37,-0.8 -0.6,-1.5 -0.5,-1.7 0.1,0 8.72,-5 19.19,-11.1 10.46,-6 19.85,-11.4 20.86,-12 l 1.83,-1.2 0.94,1.5 0.93,1.4 -6.57,3.8 c -3.62,2.1 -13.2,7.6 -21.29,12.3 l -14.72,8.4 -0.67,-1.4 z m -297.24,-14.7 c -14.87,-8.6 -27.05,-15.9 -27.05,-16.2 0,-0.3 0.32,-1 0.73,-1.6 0.66,-0.8 3.63,0.7 27.93,14.8 14.96,8.7 27.43,15.8 27.72,15.9 0.74,0.3 -0.7,2.8 -1.57,2.8 -0.39,0 -12.88,-7.1 -27.76,-15.7 z m 411.93,11.6 c 0,-1.5 1.639,-3.5 7.083,-8.8 5.034,-4.8 5.795,-5.8 5.795,-7.4 0,-4.1 -4.976,-5.8 -7.903,-2.9 -0.819,0.8 -1.463,1.9 -1.463,2.4 0,0.6 -0.527,0.9 -1.522,0.9 -1.463,0 -1.522,-0.1 -1.171,-1.9 0.234,-1.1 1.171,-2.7 2.108,-3.6 2.283,-2.3 6.965,-2.8 9.834,-1 4.566,2.9 4.331,7.8 -0.644,12.4 -1.698,1.5 -4.215,3.8 -5.678,5.1 l -2.634,2.4 6.263,0 6.322,0 0,1.5 0,1.5 -8.195,0 c -5.385,0 -8.195,-0.3 -8.195,-0.7 z m -55.54,-9 c -8.44,-2.8 -12.53,-15.5 -8.21,-25.5 4.48,-10.5 20.34,-11.8 25.64,-2.3 1.63,3 1.46,3.6 -1.12,4.2 -1.24,0.3 -1.65,0 -2.63,-1.8 -2.39,-4.3 -7.23,-5.9 -12.3,-4 -4.52,1.8 -6.72,5.9 -6.72,12.6 0,6.5 1.96,10.5 6.09,12.4 5.84,2.7 12.33,0 14.08,-5.8 0.4,-1.3 1.24,-1.5 3.73,-0.8 l 1.37,0.4 -1.96,3.8 c -2.62,5.1 -5.78,7.1 -11.44,7.4 -2.41,0.1 -4.97,-0.1 -6.53,-0.6 z m 25.1,-16.8 0,-16.9 2.05,0 2.05,0 0,7 0,7 8.78,0 8.779,0 0,-7 0,-7 2.049,0 2.049,0 0,16.9 0,17 -2.049,0 -2.049,0 0,-7.9 0,-7.9 -8.779,0 -8.78,0 0,7.9 0,7.9 -2.05,0 -2.05,0 0,-17 z m -363.85,-46.2 c -1.85,-0.7 -4.43,-4.1 -4.23,-5.5 0.22,-1.5 2.81,-2.1 2.81,-0.7 0,0.6 0.65,1.6 1.44,2.4 2.02,2 4.62,1.9 6.8,-0.2 2.11,-2.2 2.17,-3.8 0.22,-5.7 -1.17,-1.2 -1.94,-1.5 -3.52,-1.3 -1.87,0.2 -2.01,0.1 -2.01,-1.41 0,-1.23 0.28,-1.64 1.14,-1.64 1.79,0 4.07,-1.24 4.44,-2.4 1.29,-4.06 -5.62,-5.53 -7.82,-1.68 -1.02,1.81 -1.62,2.06 -2.94,1.23 -0.65,-0.42 -0.64,-0.79 0.1,-2.19 1.33,-2.57 3,-3.8 5.62,-4.15 6.03,-0.82 10.68,5.08 6.93,8.78 l -1.31,1.29 1.9,1.83 c 5.61,5.34 -2,14.44 -9.56,11.34 z m 268.1,0 c -1.85,-0.7 -4.43,-4.1 -4.23,-5.5 0.22,-1.5 2.81,-2.1 2.81,-0.7 0,0.6 0.64,1.6 1.43,2.4 2.02,2 4.63,1.9 6.81,-0.2 2.1,-2.2 2.17,-3.8 0.21,-5.7 -1.16,-1.2 -1.93,-1.5 -3.51,-1.3 -1.87,0.2 -2.01,0.1 -2.01,-1.41 0,-1.23 0.28,-1.64 1.14,-1.64 1.78,0 4.07,-1.24 4.44,-2.4 1.28,-4.06 -5.62,-5.53 -7.82,-1.68 -1.02,1.81 -1.63,2.06 -2.94,1.23 -0.65,-0.42 -0.64,-0.79 0.1,-2.19 1.33,-2.57 3.01,-3.8 5.62,-4.15 6.03,-0.82 10.69,5.08 6.94,8.78 l -1.32,1.29 1.91,1.83 c 5.6,5.34 -2,14.44 -9.56,11.34 z m -329.15,-9 c -8.45,-2.78 -12.53,-15.5 -8.21,-25.54 4.48,-10.41 20.34,-11.79 25.64,-2.22 1.62,2.93 1.46,3.57 -1.12,4.17 -1.25,0.3 -1.66,0 -2.63,-1.77 -2.39,-4.37 -7.23,-5.94 -12.31,-4 -4.51,1.72 -6.71,5.86 -6.71,12.61 0,6.49 1.96,10.47 6.08,12.35 5.85,2.6 12.33,0 14.08,-5.77 0.41,-1.33 1.25,-1.51 3.74,-0.81 l 1.36,0.38 -1.95,3.78 c -2.63,5.02 -5.78,7.12 -11.45,7.42 -2.41,0.1 -4.96,-0.1 -6.52,-0.6 z m 268.68,0 c -8.44,-2.78 -12.53,-15.5 -8.21,-25.54 4.48,-10.41 20.34,-11.79 25.64,-2.22 1.63,2.93 1.46,3.57 -1.12,4.17 -1.24,0.3 -1.65,0 -2.63,-1.77 -2.39,-4.37 -7.23,-5.94 -12.31,-4 -4.51,1.72 -6.71,5.86 -6.71,12.61 0,6.49 1.96,10.47 6.09,12.35 5.84,2.6 12.33,0 14.08,-5.77 0.4,-1.33 1.24,-1.51 3.73,-0.81 l 1.36,0.38 -1.95,3.78 c -2.62,5.02 -5.78,7.12 -11.44,7.42 -2.42,0.1 -4.97,-0.1 -6.53,-0.6 z m -243,-16.75 0,-16.98 2.05,0 2.05,0 0,7.02 0,7.03 8.78,0 8.78,0 0,-7.03 0,-7.02 2.05,0 2.05,0 0,16.98 0,16.95 -2.05,0 -2.05,0 0,-7.88 0,-7.9 -8.78,0 -8.78,0 0,7.9 0,7.88 -2.05,0 -2.05,0 0,-16.95 z m 268.1,0 0,-16.98 2.05,0 2.05,0 0,7.02 0,7.03 8.78,0 8.78,0 0,-7.03 0,-7.02 2.05,0 2.05,0 0,16.98 0,16.95 -2.05,0 -2.05,0 0,-7.88 0,-7.9 -8.78,0 -8.78,0 0,7.9 0,7.88 -2.05,0 -2.05,0 0,-16.95 z"
       id="path3007"
       style="fill:#000000" />
  </g>
</svg>
