<?xml version="1.0" encoding="UTF-8" standalone="no"?>
<svg
   xmlns:dc="http://purl.org/dc/elements/1.1/"
   xmlns:cc="http://creativecommons.org/ns#"
   xmlns:rdf="http://www.w3.org/1999/02/22-rdf-syntax-ns#"
   xmlns:svg="http://www.w3.org/2000/svg"
   xmlns="http://www.w3.org/2000/svg"
   xmlns:sodipodi="http://sodipodi.sourceforge.net/DTD/sodipodi-0.dtd"
   xmlns:inkscape="http://www.inkscape.org/namespaces/inkscape"
   version="1.1"
   id="Layer_1"
   width="137.86"
   height="200.703"
   viewBox="0 0 137.86 200.703"
   style="overflow:visible;enable-background:new 0 0 137.86 200.703;"
   xml:space="preserve"
   sodipodi:version="0.32"
   inkscape:version="1.0.1 (3bc2e813f5, 2020-09-07)"
   sodipodi:docname="p_cymene.svg"
   inkscape:output_extension="org.inkscape.output.svg.inkscape"
   inkscape:export-filename="C:\Users\keega\OneDrive\Cannlytics\assets\images\analytes\terpenes\p_cymene.png"
   inkscape:export-xdpi="96"
   inkscape:export-ydpi="96"><metadata
   id="metadata64"><rdf:RDF><cc:Work
       rdf:about=""><dc:format>image/svg+xml</dc:format><dc:type
         rdf:resource="http://purl.org/dc/dcmitype/StillImage" /></cc:Work></rdf:RDF></metadata><defs
   id="defs62" /><sodipodi:namedview
   inkscape:window-height="1094"
   inkscape:window-width="1920"
   inkscape:pageshadow="2"
   inkscape:pageopacity="0.0"
   guidetolerance="10.0"
   gridtolerance="10.0"
   objecttolerance="10.0"
   borderopacity="1.0"
   bordercolor="#666666"
   pagecolor="#ffffff"
   id="base"
   inkscape:zoom="1.8833799"
   inkscape:cx="68.93"
   inkscape:cy="100.3515"
   inkscape:window-x="-11"
   inkscape:window-y="-11"
   inkscape:current-layer="Layer_1"
   inkscape:document-rotation="0"
   showgrid="false"
   inkscape:window-maximized="1" />
<path
   style="fill:#231f20"
   d="M 37.491675,125.2249 L 35.877625,126.1749 L 35.877625,87.5099 L 37.491675,88.4599 L 37.491675,125.2249 z "
   id="polygon3" />
<path
   style="fill:#231f20"
   d="M 41.529177,91.263354 L 43.144177,91.263354 L 43.144177,122.42335 L 41.529177,122.42335 L 41.529177,91.263354 z "
   id="rect5" />
<path
   style="fill:#231f20"
   d="M 69.365125,143.60835 L 69.365125,144.55835 L 68.557625,145.03335 L 35.877625,126.1749 L 37.491675,125.2249 L 69.365125,143.60835 z "
   id="polygon7" />
<path
   style="fill:#231f20"
   d="M 101.19012,125.2249 L 102.80512,126.1749 L 70.172625,145.03335 L 69.365125,144.55835 L 69.365125,143.60835 L 101.19012,125.2249 z "
   id="polygon9" />
<path
   style="fill:#231f20"
   d="M 95.917625,121.71085 L 96.725125,123.13585 L 69.745125,138.7149 L 68.937625,137.2899 L 95.917625,121.71085 z "
   id="polygon11" />
<path
   style="fill:#231f20"
   d="M 101.19012,88.4599 L 102.80512,87.5099 L 102.80512,126.1749 L 101.19012,125.2249 L 101.19012,88.4599 z "
   id="polygon13" />
<path
   style="fill:#231f20"
   d="M 69.365125,70.07835 L 69.365125,69.1274 L 70.172625,68.65335 L 102.80512,87.5099 L 101.19012,88.4599 L 69.365125,70.07835 z "
   id="polygon15" />
<path
   style="fill:#231f20"
   d="M 68.937625,76.39585 L 69.745125,74.97085 L 96.725125,90.55085 L 95.917625,91.97585 L 68.937625,76.39585 z "
   id="polygon17" />
<path
   style="fill:#231f20"
   d="M 37.491675,88.4599 L 35.877625,87.5099 L 68.557625,68.65335 L 69.365125,69.1274 L 69.365125,70.07835 L 37.491675,88.4599 z "
   id="polygon19" />
<path
   style="fill:#231f20"
   d="M 68.557625,31.9349 L 69.365125,31.4599 L 70.172625,31.9349 L 70.172625,68.65335 L 69.365125,69.1274 L 68.557625,68.65335 L 68.557625,31.9349 z "
   id="polygon21" />
<g
   id="g23"
   transform="matrix(0.95,0,0,0.95,3.446525,5.0176)">
	<path
   style="fill:#231f20"
   d="M 0,17.484 L 0,0.297 L 2.281,0.297 L 2.281,7.36 L 11.172,7.36 L 11.172,0.297 L 13.453,0.297 L 13.453,17.485 L 11.172,17.485 L 11.172,9.391 L 2.281,9.391 L 2.281,17.485 L 0,17.485 L 0,17.484 z "
   id="path25" />
</g>
<g
   id="g27"
   transform="matrix(0.95,0,0,0.95,3.446525,5.0176)">
	<path
   style="fill:#231f20"
   d="M 15.461,18.578 L 17.039,18.359 C 17.222,19.255 17.531,19.901 17.967,20.297 C 18.404,20.692 18.939,20.89 19.574,20.89 C 20.327,20.89 20.96,20.632 21.473,20.118 C 21.986,19.602 22.242,18.964 22.242,18.202 C 22.242,17.476 22.004,16.878 21.526,16.406 C 21.049,15.934 20.443,15.699 19.707,15.699 C 19.406,15.699 19.032,15.758 18.585,15.875 L 18.762,14.484 C 18.868,14.496 18.953,14.502 19.018,14.502 C 19.692,14.502 20.299,14.327 20.839,13.976 C 21.379,13.625 21.649,13.084 21.649,12.353 C 21.649,11.774 21.452,11.294 21.058,10.915 C 20.664,10.535 20.156,10.345 19.533,10.345 C 18.916,10.345 18.401,10.539 17.99,10.927 C 17.579,11.315 17.314,11.897 17.197,12.673 L 15.619,12.392 C 15.812,11.33 16.253,10.507 16.939,9.924 C 17.625,9.34 18.479,9.048 19.5,9.048 C 20.204,9.048 20.853,9.198 21.445,9.5 C 22.037,9.801 22.49,10.212 22.805,10.732 C 23.118,11.253 23.276,11.805 23.276,12.39 C 23.276,12.946 23.127,13.452 22.828,13.908 C 22.529,14.364 22.087,14.726 21.501,14.996 C 22.263,15.172 22.855,15.537 23.28,16.09 C 23.704,16.645 23.917,17.337 23.917,18.169 C 23.917,19.295 23.506,20.248 22.684,21.03 C 21.862,21.812 20.823,22.204 19.567,22.204 C 18.434,22.204 17.493,21.867 16.745,21.195 C 15.994,20.521 15.567,19.649 15.461,18.578 z "
   id="path29" />
</g>
<g
   id="g31"
   transform="matrix(0.95,0,0,0.95,3.446525,5.0176)">
	<path
   style="fill:#231f20"
   d="M 38.039,11.457 L 40.32,12.031 C 39.844,13.901 38.987,15.327 37.751,16.308 C 36.514,17.289 35.001,17.781 33.214,17.781 C 31.364,17.781 29.86,17.404 28.701,16.649 C 27.542,15.895 26.66,14.801 26.055,13.371 C 25.45,11.94 25.148,10.403 25.148,8.762 C 25.148,6.972 25.489,5.409 26.172,4.076 C 26.855,2.743 27.826,1.729 29.087,1.038 C 30.346,0.347 31.733,0 33.247,0 C 34.964,0 36.407,0.438 37.577,1.314 C 38.748,2.191 39.563,3.422 40.023,5.011 L 37.789,5.538 C 37.391,4.288 36.814,3.378 36.058,2.808 C 35.301,2.238 34.349,1.953 33.203,1.953 C 31.885,1.953 30.783,2.269 29.897,2.902 C 29.012,3.535 28.39,4.384 28.031,5.451 C 27.672,6.518 27.493,7.617 27.493,8.75 C 27.493,10.211 27.705,11.486 28.13,12.576 C 28.555,13.666 29.215,14.48 30.112,15.019 C 31.009,15.558 31.979,15.828 33.024,15.828 C 34.295,15.828 35.37,15.461 36.251,14.726 C 37.132,13.991 37.727,12.902 38.039,11.457 z "
   id="path33" />
</g>
<path
   style="fill:#231f20"
   d="M 45.662625,18.73085 L 46.470125,17.30585 L 69.365125,30.55835 L 69.365125,31.4599 L 68.557625,31.9349 L 45.662625,18.73085 z "
   id="polygon35" />
<g
   id="g37"
   transform="matrix(0.95,0,0,0.95,3.446525,5.0176)">
	<path
   style="fill:#231f20"
   d="M 109.182,11.457 L 111.463,12.031 C 110.986,13.901 110.129,15.327 108.893,16.308 C 107.657,17.289 106.144,17.781 104.357,17.781 C 102.507,17.781 101.003,17.404 99.844,16.649 C 98.684,15.895 97.803,14.801 97.198,13.371 C 96.594,11.94 96.292,10.403 96.292,8.762 C 96.292,6.972 96.633,5.409 97.315,4.076 C 97.997,2.743 98.969,1.729 100.229,1.038 C 101.489,0.347 102.875,0 104.389,0 C 106.106,0 107.549,0.438 108.719,1.314 C 109.891,2.191 110.705,3.422 111.166,5.011 L 108.932,5.538 C 108.534,4.288 107.956,3.378 107.2,2.808 C 106.444,2.238 105.491,1.953 104.345,1.953 C 103.027,1.953 101.925,2.269 101.04,2.902 C 100.154,3.535 99.532,4.384 99.173,5.451 C 98.815,6.517 98.636,7.617 98.636,8.75 C 98.636,10.211 98.848,11.486 99.273,12.576 C 99.698,13.666 100.359,14.48 101.255,15.019 C 102.151,15.558 103.122,15.828 104.166,15.828 C 105.437,15.828 106.513,15.461 107.394,14.726 C 108.275,13.991 108.869,12.902 109.182,11.457 z "
   id="path39" />
	<path
   style="fill:#231f20"
   d="M 114.357,17.484 L 114.357,0.297 L 116.638,0.297 L 116.638,7.36 L 125.529,7.36 L 125.529,0.297 L 127.81,0.297 L 127.81,17.485 L 125.529,17.485 L 125.529,9.391 L 116.638,9.391 L 116.638,17.485 L 114.357,17.485 L 114.357,17.484 z "
   id="path41" />
</g>
<g
   id="g43"
   transform="matrix(0.95,0,0,0.95,3.446525,5.0176)">
	<path
   style="fill:#231f20"
   d="M 129.407,18.578 L 130.985,18.359 C 131.168,19.255 131.477,19.901 131.913,20.297 C 132.35,20.692 132.885,20.89 133.52,20.89 C 134.273,20.89 134.906,20.632 135.419,20.118 C 135.931,19.602 136.188,18.964 136.188,18.202 C 136.188,17.476 135.95,16.878 135.472,16.406 C 134.995,15.934 134.388,15.699 133.653,15.699 C 133.352,15.699 132.978,15.758 132.531,15.875 L 132.708,14.484 C 132.814,14.496 132.899,14.502 132.964,14.502 C 133.639,14.502 134.245,14.327 134.785,13.976 C 135.324,13.625 135.595,13.084 135.595,12.353 C 135.595,11.774 135.398,11.294 135.004,10.915 C 134.609,10.535 134.102,10.345 133.479,10.345 C 132.862,10.345 132.347,10.539 131.936,10.927 C 131.524,11.315 131.259,11.897 131.142,12.673 L 129.564,12.392 C 129.757,11.33 130.198,10.507 130.884,9.924 C 131.571,9.34 132.424,9.048 133.445,9.048 C 134.149,9.048 134.798,9.198 135.389,9.5 C 135.982,9.801 136.435,10.212 136.749,10.732 C 137.062,11.253 137.22,11.805 137.22,12.39 C 137.22,12.946 137.071,13.452 136.772,13.908 C 136.473,14.364 136.031,14.726 135.445,14.996 C 136.207,15.172 136.799,15.537 137.224,16.09 C 137.649,16.645 137.861,17.337 137.861,18.169 C 137.861,19.295 137.45,20.248 136.628,21.03 C 135.807,21.812 134.768,22.204 133.512,22.204 C 132.378,22.204 131.438,21.867 130.69,21.195 C 129.939,20.521 129.513,19.649 129.407,18.578 z "
   id="path45" />
</g>
<path
   style="fill:#231f20"
   d="M 92.781675,17.02085 L 93.590125,18.3974 L 70.172625,31.9349 L 69.365125,31.4599 L 69.365125,30.55835 L 92.781675,17.02085 z "
   id="polygon47" />
<g
   id="g49"
   transform="matrix(0.95,0,0,0.95,3.446525,5.0176)">
	<path
   style="fill:#231f20"
   d="M 74.831,189.957 L 77.112,190.531 C 76.636,192.401 75.779,193.827 74.543,194.808 C 73.306,195.789 71.793,196.281 70.006,196.281 C 68.156,196.281 66.652,195.904 65.493,195.149 C 64.334,194.395 63.452,193.301 62.847,191.871 C 62.242,190.44 61.94,188.903 61.94,187.262 C 61.94,185.472 62.281,183.909 62.964,182.576 C 63.647,181.243 64.618,180.229 65.879,179.538 C 67.139,178.847 68.525,178.5 70.039,178.5 C 71.756,178.5 73.199,178.938 74.369,179.814 C 75.54,180.691 76.355,181.922 76.815,183.511 L 74.581,184.038 C 74.184,182.788 73.605,181.878 72.85,181.308 C 72.093,180.738 71.141,180.453 69.995,180.453 C 68.677,180.453 67.575,180.769 66.689,181.402 C 65.804,182.035 65.182,182.884 64.823,183.951 C 64.464,185.018 64.285,186.117 64.285,187.25 C 64.285,188.711 64.497,189.986 64.922,191.076 C 65.347,192.166 66.007,192.98 66.904,193.519 C 67.801,194.058 68.771,194.328 69.816,194.328 C 71.087,194.328 72.162,193.961 73.043,193.226 C 73.924,192.491 74.52,191.402 74.831,189.957 z "
   id="path51" />
	<path
   style="fill:#231f20"
   d="M 80.007,195.984 L 80.007,178.796 L 82.288,178.796 L 82.288,185.859 L 91.179,185.859 L 91.179,178.796 L 93.46,178.796 L 93.46,195.984 L 91.179,195.984 L 91.179,187.89 L 82.288,187.89 L 82.288,195.984 L 80.007,195.984 z "
   id="path53" />
</g>
<g
   id="g55"
   transform="matrix(0.95,0,0,0.95,3.446525,5.0176)">
	<path
   style="fill:#231f20"
   d="M 95.058,197.078 L 96.636,196.859 C 96.819,197.755 97.128,198.401 97.564,198.797 C 98.001,199.192 98.536,199.39 99.171,199.39 C 99.924,199.39 100.557,199.132 101.07,198.618 C 101.582,198.102 101.839,197.464 101.839,196.702 C 101.839,195.976 101.601,195.378 101.123,194.906 C 100.646,194.434 100.039,194.199 99.304,194.199 C 99.003,194.199 98.629,194.258 98.182,194.375 L 98.359,192.984 C 98.465,192.996 98.55,193.002 98.615,193.002 C 99.29,193.002 99.896,192.827 100.436,192.476 C 100.975,192.125 101.246,191.584 101.246,190.853 C 101.246,190.274 101.049,189.794 100.655,189.415 C 100.26,189.035 99.753,188.845 99.13,188.845 C 98.513,188.845 97.998,189.039 97.587,189.427 C 97.175,189.815 96.91,190.397 96.793,191.173 L 95.215,190.892 C 95.408,189.83 95.849,189.007 96.535,188.424 C 97.222,187.84 98.075,187.548 99.096,187.548 C 99.8,187.548 100.449,187.698 101.04,188 C 101.633,188.301 102.086,188.712 102.4,189.232 C 102.713,189.753 102.871,190.305 102.871,190.89 C 102.871,191.446 102.722,191.952 102.423,192.408 C 102.124,192.864 101.682,193.226 101.096,193.496 C 101.858,193.672 102.45,194.037 102.875,194.59 C 103.3,195.145 103.512,195.837 103.512,196.669 C 103.512,197.795 103.101,198.748 102.279,199.53 C 101.458,200.312 100.419,200.704 99.163,200.704 C 98.029,200.704 97.089,200.367 96.341,199.695 C 95.59,199.021 95.163,198.149 95.058,197.078 z "
   id="path57" />
</g>
<path
   style="fill:#231f20"
   d="M 70.172625,172.39335 L 68.557625,172.39335 L 68.557625,145.03335 L 69.365125,144.55835 L 70.172625,145.03335 L 70.172625,172.39335 z "
   id="polygon59" />
</svg>
