<?xml version="1.0" encoding="UTF-8"?>
<!-- Converted by misc2svg (http://www.network-science.de/tools/misc2svg/) -->
<svg xmlns="http://www.w3.org/2000/svg" xmlns:xlink="http://www.w3.org/1999/xlink" width="490pt" height="236pt" viewBox="0 0 490 236" version="1.1">
<defs>
<clipPath id="clip1">
  <path d="M 0 236.25 L 490 236.25 L 490 0 L 0 0 L 0 236.25 Z M 0 236.25 "/>
</clipPath>
</defs>
<g id="misc2svg">
<g clip-path="url(#clip1)" clip-rule="nonzero">
<path style=" stroke:none;fill-rule:nonzero;fill:rgb(0%,0%,0%);fill-opacity:1;" d="M 123.4375 152.375 L 122.375 153.125 L 121.3125 151.125 L 121.3125 105.5625 L 122.375 103.5625 L 123.4375 104.3125 L 123.4375 152.375 Z M 123.4375 152.375 "/>
<path style=" stroke:none;fill-rule:nonzero;fill:rgb(0%,0%,0%);fill-opacity:1;" d="M 169.125 167.1875 L 169.9375 169.6875 L 122 154.125 L 122.375 153.125 L 123.4375 152.375 L 169.125 167.1875 Z M 169.125 167.1875 "/>
<path style=" stroke:none;fill-rule:nonzero;fill:rgb(0%,0%,0%);fill-opacity:1;" d="M 197.375 128.3125 L 200 128.3125 L 169.9375 169.6875 L 169.125 167.1875 L 197.375 128.3125 Z M 197.375 128.3125 "/>
<path style=" stroke:none;fill-rule:nonzero;fill:rgb(0%,0%,0%);fill-opacity:1;" d="M 169.125 89.4375 L 169.9375 86.9375 L 200 128.3125 L 197.375 128.3125 L 169.125 89.4375 Z M 169.125 89.4375 "/>
<path style=" stroke:none;fill-rule:nonzero;fill:rgb(0%,0%,0%);fill-opacity:1;" d="M 123.4375 104.3125 L 122.375 103.5625 L 122 102.5625 L 169.9375 86.9375 L 169.125 89.4375 L 123.4375 104.3125 Z M 123.4375 104.3125 "/>
<path style=" stroke:none;fill-rule:nonzero;fill:rgb(0%,0%,0%);fill-opacity:1;" d="M 87.875 128.3125 L 68.375 128.3125 L 122 102.5625 L 122.375 103.5625 L 121.3125 105.5625 L 87.875 128.3125 Z M 87.875 128.3125 "/>
<path style=" stroke:none;fill-rule:nonzero;fill:rgb(0%,0%,0%);fill-opacity:1;" d="M 121.3125 151.125 L 122.375 153.125 L 122 154.125 L 68.375 128.3125 L 87.875 128.3125 L 121.3125 151.125 Z M 121.3125 151.125 "/>
<path style=" stroke:none;fill-rule:nonzero;fill:rgb(0%,0%,0%);fill-opacity:1;" d="M 96.0625 67.5625 L 104.375 62.8125 L 105.625 65.5 L 97.8125 70 L 96.0625 67.5625 Z M 96.0625 67.5625 "/>
<path style=" stroke:none;fill-rule:nonzero;fill:rgb(0%,0%,0%);fill-opacity:1;" d="M 99.5625 72.5 L 106.875 68.25 L 108.125 71 L 101.3125 74.9375 L 99.5625 72.5 Z M 99.5625 72.5 "/>
<path style=" stroke:none;fill-rule:nonzero;fill:rgb(0%,0%,0%);fill-opacity:1;" d="M 103.0625 77.375 L 109.375 73.75 L 110.625 76.5 L 104.8125 79.8125 L 103.0625 77.375 Z M 103.0625 77.375 "/>
<path style=" stroke:none;fill-rule:nonzero;fill:rgb(0%,0%,0%);fill-opacity:1;" d="M 106.5625 82.3125 L 111.875 79.25 L 113.125 81.9375 L 108.3125 84.75 L 106.5625 82.3125 Z M 106.5625 82.3125 "/>
<path style=" stroke:none;fill-rule:nonzero;fill:rgb(0%,0%,0%);fill-opacity:1;" d="M 110.0625 87.1875 L 114.375 84.6875 L 115.625 87.4375 L 111.75 89.625 L 110.0625 87.1875 Z M 110.0625 87.1875 "/>
<path style=" stroke:none;fill-rule:nonzero;fill:rgb(0%,0%,0%);fill-opacity:1;" d="M 113.5 92.125 L 116.875 90.1875 L 118.125 92.9375 L 115.25 94.5625 L 113.5 92.125 Z M 113.5 92.125 "/>
<path style=" stroke:none;fill-rule:nonzero;fill:rgb(0%,0%,0%);fill-opacity:1;" d="M 117 97 L 119.375 95.625 L 120.625 98.375 L 118.75 99.4375 L 117 97 Z M 117 97 "/>
<path style=" stroke:none;fill-rule:nonzero;fill:rgb(0%,0%,0%);fill-opacity:1;" d="M 129.011719 21.023438 L 131.863281 21.746094 C 131.261719 24.078125 130.1875 25.863281 128.640625 27.097656 C 127.085938 28.324219 125.195312 28.933594 122.957031 28.933594 C 120.652344 28.933594 118.765625 28.464844 117.3125 27.527344 C 115.867188 26.578125 114.765625 25.210938 114.011719 23.425781 C 113.253906 21.628906 112.878906 19.710938 112.878906 17.664062 C 112.878906 15.429688 113.296875 13.476562 114.148438 11.804688 C 115.007812 10.140625 116.222656 8.875 117.800781 8.015625 C 119.375 7.15625 121.109375 6.726562 123.015625 6.726562 C 125.164062 6.726562 126.964844 7.273438 128.425781 8.367188 C 129.894531 9.460938 130.914062 11 131.492188 12.976562 L 128.699219 13.640625 C 128.191406 12.078125 127.460938 10.941406 126.511719 10.222656 C 125.574219 9.507812 124.386719 9.148438 122.957031 9.148438 C 121.300781 9.148438 119.921875 9.546875 118.816406 10.339844 C 117.707031 11.136719 116.925781 12.195312 116.472656 13.523438 C 116.027344 14.851562 115.808594 16.226562 115.808594 17.644531 C 115.808594 19.46875 116.066406 21.0625 116.589844 22.429688 C 117.121094 23.796875 117.945312 24.820312 119.070312 25.496094 C 120.203125 26.160156 121.417969 26.492188 122.722656 26.492188 C 124.324219 26.492188 125.671875 26.039062 126.765625 25.125 C 127.867188 24.203125 128.621094 22.835938 129.011719 21.023438 Z M 129.011719 21.023438 "/>
<path style=" stroke:none;fill-rule:nonzero;fill:rgb(0%,0%,0%);fill-opacity:1;" d="M 135.441406 28.5625 L 135.441406 7.078125 L 138.292969 7.078125 L 138.292969 15.90625 L 149.445312 15.90625 L 149.445312 7.078125 L 152.296875 7.078125 L 152.296875 28.5625 L 149.445312 28.5625 L 149.445312 18.445312 L 138.292969 18.445312 L 138.292969 28.5625 L 135.441406 28.5625 Z M 135.441406 28.5625 "/>
<path style=" stroke:none;fill-rule:nonzero;fill:rgb(0%,0%,0%);fill-opacity:1;" d="M 155.707031 30.660156 L 157.699219 30.40625 C 157.917969 31.53125 158.304688 32.335938 158.851562 32.828125 C 159.398438 33.328125 160.0625 33.570312 160.84375 33.570312 C 161.78125 33.570312 162.566406 33.253906 163.207031 32.613281 C 163.839844 31.964844 164.164062 31.164062 164.164062 30.210938 C 164.164062 29.304688 163.859375 28.550781 163.265625 27.964844 C 162.679688 27.371094 161.925781 27.066406 161.019531 27.066406 C 160.636719 27.066406 160.167969 27.144531 159.613281 27.300781 L 159.828125 25.5625 C 159.953125 25.578125 160.066406 25.582031 160.160156 25.582031 C 160.988281 25.582031 161.746094 25.363281 162.425781 24.917969 C 163.097656 24.480469 163.441406 23.800781 163.441406 22.886719 C 163.441406 22.160156 163.191406 21.558594 162.699219 21.089844 C 162.199219 20.613281 161.570312 20.367188 160.804688 20.367188 C 160.03125 20.367188 159.386719 20.613281 158.871094 21.089844 C 158.363281 21.574219 158.035156 22.300781 157.894531 23.277344 L 155.921875 22.925781 C 156.15625 21.597656 156.703125 20.574219 157.5625 19.839844 C 158.421875 19.113281 159.484375 18.746094 160.765625 18.746094 C 161.632812 18.746094 162.445312 18.9375 163.1875 19.3125 C 163.929688 19.695312 164.496094 20.207031 164.886719 20.855469 C 165.277344 21.511719 165.472656 22.199219 165.472656 22.925781 C 165.472656 23.628906 165.28125 24.269531 164.90625 24.839844 C 164.539062 25.402344 163.988281 25.851562 163.246094 26.1875 C 164.191406 26.414062 164.929688 26.871094 165.453125 27.574219 C 165.984375 28.269531 166.253906 29.128906 166.253906 30.152344 C 166.253906 31.558594 165.734375 32.761719 164.710938 33.746094 C 163.695312 34.722656 162.40625 35.210938 160.84375 35.210938 C 159.421875 35.210938 158.246094 34.792969 157.308594 33.941406 C 156.378906 33.097656 155.847656 32.003906 155.707031 30.660156 Z M 155.707031 30.660156 "/>
<path style=" stroke:none;fill-rule:nonzero;fill:rgb(0%,0%,0%);fill-opacity:1;" d="M 5.136719 71.5 L 5.136719 50.015625 L 7.988281 50.015625 L 7.988281 58.84375 L 19.140625 58.84375 L 19.140625 50.015625 L 21.992188 50.015625 L 21.992188 71.5 L 19.140625 71.5 L 19.140625 61.382812 L 7.988281 61.382812 L 7.988281 71.5 L 5.136719 71.5 Z M 5.136719 71.5 "/>
<path style=" stroke:none;fill-rule:nonzero;fill:rgb(0%,0%,0%);fill-opacity:1;" d="M 25.398438 73.597656 L 27.390625 73.34375 C 27.609375 74.46875 27.996094 75.273438 28.542969 75.765625 C 29.089844 76.265625 29.753906 76.507812 30.535156 76.507812 C 31.472656 76.507812 32.257812 76.191406 32.898438 75.550781 C 33.535156 74.902344 33.855469 74.101562 33.855469 73.148438 C 33.855469 72.242188 33.554688 71.488281 32.957031 70.902344 C 32.371094 70.308594 31.621094 70.003906 30.710938 70.003906 C 30.332031 70.003906 29.863281 70.082031 29.304688 70.238281 L 29.519531 68.5 C 29.648438 68.515625 29.757812 68.519531 29.851562 68.519531 C 30.683594 68.519531 31.4375 68.300781 32.117188 67.855469 C 32.792969 67.417969 33.132812 66.738281 33.132812 65.824219 C 33.132812 65.097656 32.882812 64.496094 32.390625 64.027344 C 31.894531 63.550781 31.261719 63.304688 30.496094 63.304688 C 29.726562 63.304688 29.082031 63.550781 28.5625 64.027344 C 28.054688 64.511719 27.726562 65.238281 27.585938 66.214844 L 25.613281 65.863281 C 25.847656 64.535156 26.394531 63.511719 27.253906 62.777344 C 28.113281 62.050781 29.179688 61.683594 30.457031 61.683594 C 31.328125 61.683594 32.136719 61.875 32.878906 62.25 C 33.621094 62.632812 34.1875 63.144531 34.578125 63.792969 C 34.96875 64.449219 35.164062 65.136719 35.164062 65.863281 C 35.164062 66.566406 34.972656 67.207031 34.597656 67.777344 C 34.230469 68.339844 33.679688 68.789062 32.9375 69.125 C 33.886719 69.351562 34.621094 69.808594 35.144531 70.511719 C 35.675781 71.207031 35.945312 72.066406 35.945312 73.089844 C 35.945312 74.496094 35.429688 75.699219 34.402344 76.683594 C 33.386719 77.660156 32.097656 78.148438 30.535156 78.148438 C 29.113281 78.148438 27.9375 77.730469 27 76.878906 C 26.074219 76.035156 25.539062 74.941406 25.398438 73.597656 Z M 25.398438 73.597656 "/>
<path style=" stroke:none;fill-rule:nonzero;fill:rgb(0%,0%,0%);fill-opacity:1;" d="M 54.675781 63.960938 L 57.527344 64.683594 C 56.925781 67.015625 55.851562 68.800781 54.304688 70.035156 C 52.75 71.261719 50.855469 71.871094 48.621094 71.871094 C 46.316406 71.871094 44.429688 71.402344 42.976562 70.464844 C 41.53125 69.515625 40.425781 68.148438 39.675781 66.363281 C 38.917969 64.566406 38.542969 62.648438 38.542969 60.601562 C 38.542969 58.367188 38.960938 56.414062 39.8125 54.742188 C 40.671875 53.078125 41.886719 51.8125 43.464844 50.953125 C 45.035156 50.09375 46.773438 49.664062 48.679688 49.664062 C 50.828125 49.664062 52.628906 50.210938 54.089844 51.304688 C 55.558594 52.398438 56.578125 53.9375 57.15625 55.914062 L 54.363281 56.578125 C 53.855469 55.015625 53.121094 53.878906 52.175781 53.160156 C 51.238281 52.445312 50.050781 52.085938 48.621094 52.085938 C 46.964844 52.085938 45.582031 52.484375 44.480469 53.277344 C 43.371094 54.074219 42.589844 55.132812 42.136719 56.460938 C 41.691406 57.789062 41.472656 59.164062 41.472656 60.582031 C 41.472656 62.40625 41.730469 64 42.253906 65.367188 C 42.785156 66.734375 43.609375 67.757812 44.734375 68.433594 C 45.867188 69.097656 47.082031 69.429688 48.386719 69.429688 C 49.988281 69.429688 51.335938 68.976562 52.429688 68.0625 C 53.53125 67.140625 54.285156 65.773438 54.675781 63.960938 Z M 54.675781 63.960938 "/>
<path style=" stroke:none;fill-rule:nonzero;fill:rgb(0%,0%,0%);fill-opacity:1;" d="M 114.4375 29.1875 L 116.3125 30.25 L 98.1875 61.625 L 96.9375 59.5 L 114.4375 29.1875 Z M 114.4375 29.1875 "/>
<path style=" stroke:none;fill-rule:nonzero;fill:rgb(0%,0%,0%);fill-opacity:1;" d="M 96.9375 59.5 L 98.1875 61.625 L 60.1875 61.625 L 60.1875 59.5 L 96.9375 59.5 Z M 96.9375 59.5 "/>
<path style=" stroke:none;fill-rule:nonzero;fill:rgb(0%,0%,0%);fill-opacity:1;" d="M 189.011719 219.773438 L 191.863281 220.496094 C 191.261719 222.832031 190.1875 224.613281 188.640625 225.847656 C 187.085938 227.074219 185.195312 227.683594 182.957031 227.683594 C 180.652344 227.683594 178.765625 227.214844 177.3125 226.277344 C 175.867188 225.332031 174.765625 223.964844 174.011719 222.175781 C 173.253906 220.378906 172.878906 218.460938 172.878906 216.414062 C 172.878906 214.179688 173.296875 212.226562 174.148438 210.554688 C 175.007812 208.890625 176.222656 207.625 177.800781 206.765625 C 179.375 205.90625 181.109375 205.476562 183.015625 205.476562 C 185.164062 205.476562 186.964844 206.023438 188.425781 207.117188 C 189.894531 208.210938 190.914062 209.75 191.492188 211.726562 L 188.699219 212.390625 C 188.191406 210.828125 187.460938 209.691406 186.511719 208.972656 C 185.574219 208.261719 184.386719 207.898438 182.957031 207.898438 C 181.300781 207.898438 179.921875 208.300781 178.816406 209.089844 C 177.707031 209.886719 176.925781 210.945312 176.472656 212.273438 C 176.027344 213.601562 175.808594 214.980469 175.808594 216.394531 C 175.808594 218.222656 176.066406 219.8125 176.589844 221.179688 C 177.121094 222.546875 177.945312 223.574219 179.070312 224.246094 C 180.203125 224.910156 181.417969 225.242188 182.722656 225.242188 C 184.324219 225.242188 185.671875 224.789062 186.765625 223.875 C 187.867188 222.953125 188.621094 221.585938 189.011719 219.773438 Z M 189.011719 219.773438 "/>
<path style=" stroke:none;fill-rule:nonzero;fill:rgb(0%,0%,0%);fill-opacity:1;" d="M 195.441406 227.3125 L 195.441406 205.828125 L 198.292969 205.828125 L 198.292969 214.65625 L 209.445312 214.65625 L 209.445312 205.828125 L 212.296875 205.828125 L 212.296875 227.3125 L 209.445312 227.3125 L 209.445312 217.195312 L 198.292969 217.195312 L 198.292969 227.3125 L 195.441406 227.3125 Z M 195.441406 227.3125 "/>
<path style=" stroke:none;fill-rule:nonzero;fill:rgb(0%,0%,0%);fill-opacity:1;" d="M 226.097656 231.777344 L 226.097656 233.671875 L 215.453125 233.671875 C 215.4375 233.191406 215.515625 232.734375 215.6875 232.304688 C 215.960938 231.574219 216.390625 230.859375 216.976562 230.15625 C 217.570312 229.453125 218.441406 228.640625 219.574219 227.714844 C 221.316406 226.28125 222.492188 225.148438 223.109375 224.316406 C 223.734375 223.46875 224.046875 222.675781 224.046875 221.933594 C 224.046875 221.140625 223.761719 220.476562 223.207031 219.941406 C 222.644531 219.40625 221.917969 219.140625 221.019531 219.140625 C 220.050781 219.140625 219.285156 219.425781 218.714844 220 C 218.152344 220.574219 217.863281 221.359375 217.855469 222.363281 L 215.824219 222.148438 C 215.964844 220.636719 216.488281 219.484375 217.386719 218.691406 C 218.292969 217.898438 219.519531 217.5 221.058594 217.5 C 222.589844 217.5 223.8125 217.929688 224.710938 218.789062 C 225.617188 219.648438 226.078125 220.710938 226.078125 221.972656 C 226.078125 222.609375 225.941406 223.242188 225.667969 223.867188 C 225.402344 224.492188 224.96875 225.148438 224.359375 225.839844 C 223.742188 226.53125 222.726562 227.472656 221.3125 228.671875 C 220.125 229.675781 219.363281 230.351562 219.027344 230.703125 C 218.683594 231.054688 218.410156 231.414062 218.207031 231.777344 L 226.097656 231.777344 Z M 226.097656 231.777344 "/>
<path style=" stroke:none;fill-rule:nonzero;fill:rgb(0%,0%,0%);fill-opacity:1;" d="M 183.4375 202 L 181.4375 202.5625 L 171.3125 164.875 L 173.375 164.3125 L 183.4375 202 Z M 183.4375 202 "/>
<path style=" stroke:none;fill-rule:nonzero;fill:rgb(0%,0%,0%);fill-opacity:1;" d="M 176.25 203.9375 L 174.25 204.5 L 164.25 167.375 L 166.3125 166.8125 L 176.25 203.9375 Z M 176.25 203.9375 "/>
<path style=" stroke:none;fill-rule:nonzero;fill:rgb(0%,0%,0%);fill-opacity:1;" d="M 368.75 151.125 L 367.6875 153.125 L 366.625 152.375 L 366.625 104.3125 L 367.6875 103.5625 L 368.75 105.5625 L 368.75 151.125 Z M 368.75 151.125 "/>
<path style=" stroke:none;fill-rule:nonzero;fill:rgb(0%,0%,0%);fill-opacity:1;" d="M 320.125 169.6875 L 320.9375 167.1875 L 366.625 152.375 L 367.6875 153.125 L 368.0625 154.125 L 320.125 169.6875 Z M 320.125 169.6875 "/>
<path style=" stroke:none;fill-rule:nonzero;fill:rgb(0%,0%,0%);fill-opacity:1;" d="M 290.0625 128.3125 L 292.6875 128.3125 L 320.9375 167.1875 L 320.125 169.6875 L 290.0625 128.3125 Z M 290.0625 128.3125 "/>
<path style=" stroke:none;fill-rule:nonzero;fill:rgb(0%,0%,0%);fill-opacity:1;" d="M 320.125 86.9375 L 320.9375 89.4375 L 292.6875 128.3125 L 290.0625 128.3125 L 320.125 86.9375 Z M 320.125 86.9375 "/>
<path style=" stroke:none;fill-rule:nonzero;fill:rgb(0%,0%,0%);fill-opacity:1;" d="M 368.0625 102.5625 L 367.6875 103.5625 L 366.625 104.3125 L 320.9375 89.4375 L 320.125 86.9375 L 368.0625 102.5625 Z M 368.0625 102.5625 "/>
<path style=" stroke:none;fill-rule:nonzero;fill:rgb(0%,0%,0%);fill-opacity:1;" d="M 421.625 128.3125 L 402.1875 128.3125 L 368.75 105.5625 L 367.6875 103.5625 L 368.0625 102.5625 L 421.625 128.3125 Z M 421.625 128.3125 "/>
<path style=" stroke:none;fill-rule:nonzero;fill:rgb(0%,0%,0%);fill-opacity:1;" d="M 368.0625 154.125 L 367.6875 153.125 L 368.75 151.125 L 402.1875 128.3125 L 421.625 128.3125 L 368.0625 154.125 Z M 368.0625 154.125 "/>
<path style=" stroke:none;fill-rule:nonzero;fill:rgb(0%,0%,0%);fill-opacity:1;" d="M 385.6875 62.8125 L 394 67.5625 L 392.25 70 L 384.4375 65.5 L 385.6875 62.8125 Z M 385.6875 62.8125 "/>
<path style=" stroke:none;fill-rule:nonzero;fill:rgb(0%,0%,0%);fill-opacity:1;" d="M 383.1875 68.25 L 390.5 72.5 L 388.75 74.9375 L 381.9375 71 L 383.1875 68.25 Z M 383.1875 68.25 "/>
<path style=" stroke:none;fill-rule:nonzero;fill:rgb(0%,0%,0%);fill-opacity:1;" d="M 380.6875 73.75 L 387 77.375 L 385.25 79.8125 L 379.4375 76.5 L 380.6875 73.75 Z M 380.6875 73.75 "/>
<path style=" stroke:none;fill-rule:nonzero;fill:rgb(0%,0%,0%);fill-opacity:1;" d="M 378.1875 79.25 L 383.5 82.3125 L 381.75 84.75 L 376.9375 81.9375 L 378.1875 79.25 Z M 378.1875 79.25 "/>
<path style=" stroke:none;fill-rule:nonzero;fill:rgb(0%,0%,0%);fill-opacity:1;" d="M 375.6875 84.6875 L 380 87.1875 L 378.25 89.625 L 374.4375 87.4375 L 375.6875 84.6875 Z M 375.6875 84.6875 "/>
<path style=" stroke:none;fill-rule:nonzero;fill:rgb(0%,0%,0%);fill-opacity:1;" d="M 373.1875 90.1875 L 376.5 92.125 L 374.75 94.5625 L 371.9375 92.9375 L 373.1875 90.1875 Z M 373.1875 90.1875 "/>
<path style=" stroke:none;fill-rule:nonzero;fill:rgb(0%,0%,0%);fill-opacity:1;" d="M 370.6875 95.625 L 373 97 L 371.25 99.4375 L 369.4375 98.375 L 370.6875 95.625 Z M 370.6875 95.625 "/>
<path style=" stroke:none;fill-rule:nonzero;fill:rgb(0%,0%,0%);fill-opacity:1;" d="M 324.886719 28.5625 L 324.886719 7.078125 L 327.738281 7.078125 L 327.738281 15.90625 L 338.890625 15.90625 L 338.890625 7.078125 L 341.742188 7.078125 L 341.742188 28.5625 L 338.890625 28.5625 L 338.890625 18.445312 L 327.738281 18.445312 L 327.738281 28.5625 L 324.886719 28.5625 Z M 324.886719 28.5625 "/>
<path style=" stroke:none;fill-rule:nonzero;fill:rgb(0%,0%,0%);fill-opacity:1;" d="M 345.148438 30.660156 L 347.140625 30.40625 C 347.359375 31.53125 347.746094 32.335938 348.292969 32.828125 C 348.839844 33.328125 349.503906 33.570312 350.285156 33.570312 C 351.222656 33.570312 352.007812 33.253906 352.648438 32.613281 C 353.285156 31.964844 353.605469 31.164062 353.605469 30.210938 C 353.605469 29.304688 353.304688 28.550781 352.707031 27.964844 C 352.121094 27.371094 351.371094 27.066406 350.460938 27.066406 C 350.082031 27.066406 349.613281 27.144531 349.054688 27.300781 L 349.269531 25.5625 C 349.398438 25.578125 349.507812 25.582031 349.601562 25.582031 C 350.433594 25.582031 351.1875 25.363281 351.867188 24.917969 C 352.542969 24.480469 352.882812 23.800781 352.882812 22.886719 C 352.882812 22.160156 352.632812 21.558594 352.140625 21.089844 C 351.644531 20.613281 351.011719 20.367188 350.246094 20.367188 C 349.476562 20.367188 348.832031 20.613281 348.3125 21.089844 C 347.804688 21.574219 347.476562 22.300781 347.335938 23.277344 L 345.363281 22.925781 C 345.597656 21.597656 346.144531 20.574219 347.003906 19.839844 C 347.863281 19.113281 348.929688 18.746094 350.207031 18.746094 C 351.078125 18.746094 351.886719 18.9375 352.628906 19.3125 C 353.371094 19.695312 353.9375 20.207031 354.328125 20.855469 C 354.71875 21.511719 354.914062 22.199219 354.914062 22.925781 C 354.914062 23.628906 354.722656 24.269531 354.347656 24.839844 C 353.980469 25.402344 353.429688 25.851562 352.6875 26.1875 C 353.636719 26.414062 354.371094 26.871094 354.894531 27.574219 C 355.425781 28.269531 355.695312 29.128906 355.695312 30.152344 C 355.695312 31.558594 355.179688 32.761719 354.152344 33.746094 C 353.136719 34.722656 351.847656 35.210938 350.285156 35.210938 C 348.863281 35.210938 347.6875 34.792969 346.75 33.941406 C 345.824219 33.097656 345.289062 32.003906 345.148438 30.660156 Z M 345.148438 30.660156 "/>
<path style=" stroke:none;fill-rule:nonzero;fill:rgb(0%,0%,0%);fill-opacity:1;" d="M 374.425781 21.023438 L 377.277344 21.746094 C 376.675781 24.078125 375.601562 25.863281 374.054688 27.097656 C 372.5 28.324219 370.605469 28.933594 368.371094 28.933594 C 366.066406 28.933594 364.179688 28.464844 362.726562 27.527344 C 361.28125 26.578125 360.175781 25.210938 359.425781 23.425781 C 358.667969 21.628906 358.292969 19.710938 358.292969 17.664062 C 358.292969 15.429688 358.710938 13.476562 359.5625 11.804688 C 360.421875 10.140625 361.636719 8.875 363.214844 8.015625 C 364.785156 7.15625 366.523438 6.726562 368.429688 6.726562 C 370.578125 6.726562 372.378906 7.273438 373.839844 8.367188 C 375.308594 9.460938 376.328125 11 376.90625 12.976562 L 374.113281 13.640625 C 373.605469 12.078125 372.871094 10.941406 371.925781 10.222656 C 370.988281 9.507812 369.800781 9.148438 368.371094 9.148438 C 366.714844 9.148438 365.332031 9.546875 364.230469 10.339844 C 363.121094 11.136719 362.339844 12.195312 361.886719 13.523438 C 361.441406 14.851562 361.222656 16.226562 361.222656 17.644531 C 361.222656 19.46875 361.480469 21.0625 362.003906 22.429688 C 362.535156 23.796875 363.359375 24.820312 364.484375 25.496094 C 365.617188 26.160156 366.832031 26.492188 368.136719 26.492188 C 369.738281 26.492188 371.085938 26.039062 372.179688 25.125 C 373.28125 24.203125 374.035156 22.835938 374.425781 21.023438 Z M 374.425781 21.023438 "/>
<path style=" stroke:none;fill-rule:nonzero;fill:rgb(0%,0%,0%);fill-opacity:1;" d="M 448.761719 63.960938 L 451.613281 64.683594 C 451.011719 67.015625 449.9375 68.800781 448.390625 70.035156 C 446.835938 71.261719 444.945312 71.871094 442.707031 71.871094 C 440.402344 71.871094 438.515625 71.402344 437.0625 70.464844 C 435.617188 69.515625 434.515625 68.148438 433.761719 66.363281 C 433.003906 64.566406 432.628906 62.648438 432.628906 60.601562 C 432.628906 58.367188 433.046875 56.414062 433.898438 54.742188 C 434.757812 53.078125 435.972656 51.8125 437.550781 50.953125 C 439.125 50.09375 440.859375 49.664062 442.765625 49.664062 C 444.914062 49.664062 446.714844 50.210938 448.175781 51.304688 C 449.644531 52.398438 450.664062 53.9375 451.242188 55.914062 L 448.449219 56.578125 C 447.941406 55.015625 447.210938 53.878906 446.261719 53.160156 C 445.324219 52.445312 444.136719 52.085938 442.707031 52.085938 C 441.050781 52.085938 439.671875 52.484375 438.566406 53.277344 C 437.457031 54.074219 436.675781 55.132812 436.222656 56.460938 C 435.777344 57.789062 435.558594 59.164062 435.558594 60.582031 C 435.558594 62.40625 435.816406 64 436.339844 65.367188 C 436.871094 66.734375 437.695312 67.757812 438.820312 68.433594 C 439.953125 69.097656 441.167969 69.429688 442.472656 69.429688 C 444.074219 69.429688 445.421875 68.976562 446.515625 68.0625 C 447.617188 67.140625 448.371094 65.773438 448.761719 63.960938 Z M 448.761719 63.960938 "/>
<path style=" stroke:none;fill-rule:nonzero;fill:rgb(0%,0%,0%);fill-opacity:1;" d="M 455.191406 71.5 L 455.191406 50.015625 L 458.042969 50.015625 L 458.042969 58.84375 L 469.195312 58.84375 L 469.195312 50.015625 L 472.046875 50.015625 L 472.046875 71.5 L 469.195312 71.5 L 469.195312 61.382812 L 458.042969 61.382812 L 458.042969 71.5 L 455.191406 71.5 Z M 455.191406 71.5 "/>
<path style=" stroke:none;fill-rule:nonzero;fill:rgb(0%,0%,0%);fill-opacity:1;" d="M 475.453125 73.597656 L 477.445312 73.34375 C 477.667969 74.46875 478.050781 75.273438 478.597656 75.765625 C 479.144531 76.265625 479.808594 76.507812 480.589844 76.507812 C 481.527344 76.507812 482.316406 76.191406 482.953125 75.550781 C 483.589844 74.902344 483.910156 74.101562 483.910156 73.148438 C 483.910156 72.242188 483.609375 71.488281 483.011719 70.902344 C 482.425781 70.308594 481.675781 70.003906 480.765625 70.003906 C 480.386719 70.003906 479.917969 70.082031 479.359375 70.238281 L 479.574219 68.5 C 479.703125 68.515625 479.816406 68.519531 479.90625 68.519531 C 480.738281 68.519531 481.496094 68.300781 482.171875 67.855469 C 482.847656 67.417969 483.1875 66.738281 483.1875 65.824219 C 483.1875 65.097656 482.941406 64.496094 482.445312 64.027344 C 481.949219 63.550781 481.320312 63.304688 480.550781 63.304688 C 479.78125 63.304688 479.136719 63.550781 478.617188 64.027344 C 478.109375 64.511719 477.785156 65.238281 477.640625 66.214844 L 475.667969 65.863281 C 475.902344 64.535156 476.449219 63.511719 477.308594 62.777344 C 478.167969 62.050781 479.234375 61.683594 480.511719 61.683594 C 481.382812 61.683594 482.191406 61.875 482.933594 62.25 C 483.675781 62.632812 484.242188 63.144531 484.632812 63.792969 C 485.023438 64.449219 485.21875 65.136719 485.21875 65.863281 C 485.21875 66.566406 485.03125 67.207031 484.652344 67.777344 C 484.289062 68.339844 483.734375 68.789062 482.992188 69.125 C 483.941406 69.351562 484.679688 69.808594 485.199219 70.511719 C 485.734375 71.207031 486 72.066406 486 73.089844 C 486 74.496094 485.484375 75.699219 484.457031 76.683594 C 483.441406 77.660156 482.152344 78.148438 480.589844 78.148438 C 479.171875 78.148438 477.992188 77.730469 477.054688 76.878906 C 476.128906 76.035156 475.597656 74.941406 475.453125 73.597656 Z M 475.453125 73.597656 "/>
<path style=" stroke:none;fill-rule:nonzero;fill:rgb(0%,0%,0%);fill-opacity:1;" d="M 373.875 30.5 L 375.75 29.4375 L 393.125 59.5 L 391.875 61.625 L 373.875 30.5 Z M 373.875 30.5 "/>
<path style=" stroke:none;fill-rule:nonzero;fill:rgb(0%,0%,0%);fill-opacity:1;" d="M 391.875 61.625 L 393.125 59.5 L 429.75 59.5 L 429.75 61.625 L 391.875 61.625 Z M 391.875 61.625 "/>
<path style=" stroke:none;fill-rule:nonzero;fill:rgb(0%,0%,0%);fill-opacity:1;" d="M 264.824219 227.3125 L 264.824219 205.828125 L 267.675781 205.828125 L 267.675781 214.65625 L 278.828125 214.65625 L 278.828125 205.828125 L 281.679688 205.828125 L 281.679688 227.3125 L 278.828125 227.3125 L 278.828125 217.195312 L 267.675781 217.195312 L 267.675781 227.3125 L 264.824219 227.3125 Z M 264.824219 227.3125 "/>
<path style=" stroke:none;fill-rule:nonzero;fill:rgb(0%,0%,0%);fill-opacity:1;" d="M 295.476562 231.777344 L 295.476562 233.671875 L 284.832031 233.671875 C 284.816406 233.191406 284.894531 232.734375 285.066406 232.304688 C 285.339844 231.574219 285.769531 230.859375 286.355469 230.15625 C 286.953125 229.453125 287.820312 228.640625 288.953125 227.714844 C 290.695312 226.28125 291.875 225.148438 292.488281 224.316406 C 293.113281 223.46875 293.425781 222.675781 293.425781 221.933594 C 293.425781 221.140625 293.144531 220.476562 292.585938 219.941406 C 292.023438 219.40625 291.296875 219.140625 290.398438 219.140625 C 289.433594 219.140625 288.664062 219.425781 288.09375 220 C 287.53125 220.574219 287.246094 221.359375 287.234375 222.363281 L 285.203125 222.148438 C 285.34375 220.636719 285.867188 219.484375 286.765625 218.691406 C 287.675781 217.898438 288.898438 217.5 290.4375 217.5 C 291.972656 217.5 293.191406 217.929688 294.089844 218.789062 C 295 219.648438 295.457031 220.710938 295.457031 221.972656 C 295.457031 222.609375 295.320312 223.242188 295.046875 223.867188 C 294.785156 224.492188 294.347656 225.148438 293.738281 225.839844 C 293.125 226.53125 292.109375 227.472656 290.691406 228.671875 C 289.503906 229.675781 288.742188 230.351562 288.40625 230.703125 C 288.066406 231.054688 287.792969 231.414062 287.585938 231.777344 L 295.476562 231.777344 Z M 295.476562 231.777344 "/>
<path style=" stroke:none;fill-rule:nonzero;fill:rgb(0%,0%,0%);fill-opacity:1;" d="M 314.363281 219.773438 L 317.214844 220.496094 C 316.613281 222.832031 315.539062 224.613281 313.992188 225.847656 C 312.4375 227.074219 310.542969 227.683594 308.308594 227.683594 C 306.003906 227.683594 304.117188 227.214844 302.664062 226.277344 C 301.21875 225.332031 300.113281 223.964844 299.363281 222.175781 C 298.605469 220.378906 298.230469 218.460938 298.230469 216.414062 C 298.230469 214.179688 298.648438 212.226562 299.5 210.554688 C 300.359375 208.890625 301.574219 207.625 303.152344 206.765625 C 304.722656 205.90625 306.460938 205.476562 308.367188 205.476562 C 310.515625 205.476562 312.316406 206.023438 313.777344 207.117188 C 315.246094 208.210938 316.265625 209.75 316.84375 211.726562 L 314.050781 212.390625 C 313.542969 210.828125 312.808594 209.691406 311.863281 208.972656 C 310.925781 208.261719 309.738281 207.898438 308.308594 207.898438 C 306.652344 207.898438 305.269531 208.300781 304.167969 209.089844 C 303.058594 209.886719 302.277344 210.945312 301.824219 212.273438 C 301.378906 213.601562 301.160156 214.980469 301.160156 216.394531 C 301.160156 218.222656 301.417969 219.8125 301.941406 221.179688 C 302.472656 222.546875 303.296875 223.574219 304.421875 224.246094 C 305.554688 224.910156 306.769531 225.242188 308.074219 225.242188 C 309.675781 225.242188 311.023438 224.789062 312.117188 223.875 C 313.21875 222.953125 313.972656 221.585938 314.363281 219.773438 Z M 314.363281 219.773438 "/>
<path style=" stroke:none;fill-rule:nonzero;fill:rgb(0%,0%,0%);fill-opacity:1;" d="M 315.875 204.1875 L 313.8125 203.6875 L 323.6875 166.8125 L 325.75 167.375 L 315.875 204.1875 Z M 315.875 204.1875 "/>
<path style=" stroke:none;fill-rule:nonzero;fill:rgb(0%,0%,0%);fill-opacity:1;" d="M 308.6875 202.3125 L 306.625 201.75 L 316.6875 164.3125 L 318.75 164.875 L 308.6875 202.3125 Z M 308.6875 202.3125 "/>
</g>
</g>
</svg>
