<?xml version="1.0" encoding="UTF-8" standalone="no"?>
<svg
   xmlns:dc="http://purl.org/dc/elements/1.1/"
   xmlns:cc="http://creativecommons.org/ns#"
   xmlns:rdf="http://www.w3.org/1999/02/22-rdf-syntax-ns#"
   xmlns:svg="http://www.w3.org/2000/svg"
   xmlns="http://www.w3.org/2000/svg"
   xmlns:sodipodi="http://sodipodi.sourceforge.net/DTD/sodipodi-0.dtd"
   xmlns:inkscape="http://www.inkscape.org/namespaces/inkscape"
   viewBox="94.48 166.25 25.54 64.93"
   preserveAspectRatio="xMidYMid"
   width="100%"
   height="100%"
   id="svg2"
   version="1.1"
   inkscape:version="0.48.1 "
   sodipodi:docname="terpinolene.svg">
  <metadata
     id="metadata60">
    <rdf:RDF>
      <cc:Work
         rdf:about="">
        <dc:format>image/svg+xml</dc:format>
        <dc:type
           rdf:resource="http://purl.org/dc/dcmitype/StillImage" />
      </cc:Work>
    </rdf:RDF>
  </metadata>
  <defs
     id="defs58" />
  <sodipodi:namedview
     pagecolor="#ffffff"
     bordercolor="#666666"
     borderopacity="1"
     objecttolerance="10"
     gridtolerance="10"
     guidetolerance="10"
     inkscape:pageopacity="0"
     inkscape:pageshadow="2"
     inkscape:window-width="640"
     inkscape:window-height="480"
     id="namedview56"
     showgrid="false"
     inkscape:zoom="4.2507316"
     inkscape:cx="12.77"
     inkscape:cy="32.465"
     inkscape:window-x="0"
     inkscape:window-y="0"
     inkscape:window-maximized="0"
     inkscape:current-layer="svg2" />
  <clipPath
     id="32">
    <rect
       x="0.3"
       y="0.3"
       width="539.4"
       height="719.15"
       id="rect5" />
  </clipPath>
  <g
     id="drawing"
     transform="matrix(0.95652174,0,0,0.95652174,4.6630435,8.6397826)">
    <path
       style="fill:#ffffff;fill-opacity:0"
       d="m 94.480003,166.25 25.539997,0 0,64.93 -25.539997,0 z"
       id="rect8"
       inkscape:connector-curvature="0" />
    <g
       id="page"
       clip-path="url(#32)">
      <g
         id="Solid">
        <path
           d="m 94.48,187.63 0,0 0.3,0.17 0.3,0.17 0,14.06 -0.3,0.17 -0.3,0.17 z"
           shape-rendering="geometricPrecision"
           id="path12"
           inkscape:connector-curvature="0"
           style="fill:#000000;fill-rule:evenodd;stroke:#000000;stroke-width:0;stroke-linejoin:miter" />
      </g>
      <g
         id="g14">
        <path
           d="m 94.48,202.37 0,0 0.3,-0.17 0.3,-0.17 12.17,7.02 0,0.35 0,0.35 z"
           shape-rendering="geometricPrecision"
           id="path16"
           inkscape:connector-curvature="0"
           style="fill:#000000;fill-rule:evenodd;stroke:#000000;stroke-width:0;stroke-linejoin:miter" />
      </g>
      <g
         id="g18">
        <path
           d="m 107.25,209.75 0,0 0,-0.35 0,-0.35 12.17,-7.02 0.3,0.17 0.3,0.17 z"
           shape-rendering="geometricPrecision"
           id="path20"
           inkscape:connector-curvature="0"
           style="fill:#000000;fill-rule:evenodd;stroke:#000000;stroke-width:0;stroke-linejoin:miter" />
      </g>
      <g
         id="g22">
        <path
           d="m 120.02,202.37 0,0 -0.3,-0.17 -0.3,-0.17 0,-14.06 0.3,-0.17 0.3,-0.17 z"
           shape-rendering="geometricPrecision"
           id="path24"
           inkscape:connector-curvature="0"
           style="fill:#000000;fill-rule:evenodd;stroke:#000000;stroke-width:0;stroke-linejoin:miter" />
      </g>
      <g
         id="g26">
        <path
           d="m 120.02,187.63 0,0 -0.3,0.17 -0.3,0.17 -12.17,-7.02 0,-0.35 0.3,-0.17 z"
           shape-rendering="geometricPrecision"
           id="path28"
           inkscape:connector-curvature="0"
           style="fill:#000000;fill-rule:evenodd;stroke:#000000;stroke-width:0;stroke-linejoin:miter" />
        <path
           style="stroke:#000000;stroke-width:0.60000002"
           d="m 117.13,189.3 -9.88,-5.71"
           id="line30"
           inkscape:connector-curvature="0" />
      </g>
      <g
         id="g32">
        <path
           d="m 106.95,180.43 0,0 0.3,0.17 0,0.35 -12.17,7.02 -0.3,-0.17 -0.3,-0.17 z"
           shape-rendering="geometricPrecision"
           id="path34"
           inkscape:connector-curvature="0"
           style="fill:#000000;fill-rule:evenodd;stroke:#000000;stroke-width:0;stroke-linejoin:miter" />
      </g>
      <g
         id="g36">
        <path
           style="stroke:#000000;stroke-width:0.60000002"
           d="m 108.54,209.39999 0,14.35001"
           id="line38"
           inkscape:connector-curvature="0" />
        <path
           d="m 106.26,209.17 0,0 -0.6,-0.34 0,15.49 0.6,-0.34 z"
           shape-rendering="geometricPrecision"
           id="path40"
           inkscape:connector-curvature="0"
           style="fill:#000000;fill-rule:evenodd;stroke:#000000;stroke-width:0;stroke-linejoin:miter" />
        <path
           d="m 108.84,208.83 0,0 -0.6,0.34 0,14.81 0.6,0.34 z"
           shape-rendering="geometricPrecision"
           id="path42"
           inkscape:connector-curvature="0"
           style="fill:#000000;fill-rule:evenodd;stroke:#000000;stroke-width:0;stroke-linejoin:miter" />
      </g>
      <g
         id="g44">
        <path
           d="m 107.25,224.1 0,0 0,-0.35 0,-0.35 12.58,7.26 -0.15,0.26 -0.15,0.26 z"
           shape-rendering="geometricPrecision"
           id="path46"
           inkscape:connector-curvature="0"
           style="fill:#000000;fill-rule:evenodd;stroke:#000000;stroke-width:0;stroke-linejoin:miter" />
      </g>
      <g
         id="g48">
        <path
           d="m 107.25,223.4 0,0 0,0.35 0,0.35 -12.28,7.08 -0.15,-0.26 -0.15,-0.26 z"
           shape-rendering="geometricPrecision"
           id="path50"
           inkscape:connector-curvature="0"
           style="fill:#000000;fill-rule:evenodd;stroke:#000000;stroke-width:0;stroke-linejoin:miter" />
      </g>
      <g
         id="g52">
        <path
           d="m 107.55,180.43 0,0 -0.3,0.17 -0.3,-0.17 0,-14.18 0.3,0 0.3,0 z"
           shape-rendering="geometricPrecision"
           id="path54"
           inkscape:connector-curvature="0"
           style="fill:#000000;fill-rule:evenodd;stroke:#000000;stroke-width:0;stroke-linejoin:miter" />
      </g>
    </g>
  </g>
</svg>
