<?xml version="1.0" encoding="UTF-8" standalone="no"?>
<svg
   xmlns:dc="http://purl.org/dc/elements/1.1/"
   xmlns:cc="http://creativecommons.org/ns#"
   xmlns:rdf="http://www.w3.org/1999/02/22-rdf-syntax-ns#"
   xmlns:svg="http://www.w3.org/2000/svg"
   xmlns="http://www.w3.org/2000/svg"
   xmlns:sodipodi="http://sodipodi.sourceforge.net/DTD/sodipodi-0.dtd"
   xmlns:inkscape="http://www.inkscape.org/namespaces/inkscape"
   width="250"
   height="250"
   viewBox="0 0 66.145833 66.145831"
   version="1.1"
   id="svg1034"
   inkscape:version="1.0.1 (3bc2e813f5, 2020-09-07)"
   sodipodi:docname="analysis-2.svg"
   inkscape:export-filename="C:\Users\keega\Documents\cannlytics\assets\images\illustrations\multi-tone\analysis-2.png"
   inkscape:export-xdpi="96"
   inkscape:export-ydpi="96">
  <defs
     id="defs1028">
    <clipPath
       clipPathUnits="userSpaceOnUse"
       id="clipPath1824">
      <path
         d="m 466.283,741.164 h 63.482 v -19.581 h -63.482 z"
         id="path1822"
         inkscape:connector-curvature="0" />
    </clipPath>
    <filter
       inkscape:collect="always"
       style="color-interpolation-filters:sRGB"
       id="filter3044"
       x="-0.00015006585"
       width="1.0003"
       y="-0.00017316235"
       height="1.0003463">
      <feGaussianBlur
         inkscape:collect="always"
         stdDeviation="0.0033087655"
         id="feGaussianBlur3046" />
    </filter>
  </defs>
  <sodipodi:namedview
     id="base"
     pagecolor="#323443"
     bordercolor="#666666"
     borderopacity="1.0"
     inkscape:pageopacity="0"
     inkscape:pageshadow="2"
     inkscape:zoom="2.8"
     inkscape:cx="148.33742"
     inkscape:cy="113.328"
     inkscape:document-units="mm"
     inkscape:current-layer="layer1"
     inkscape:document-rotation="0"
     showgrid="false"
     inkscape:window-width="1920"
     inkscape:window-height="1120"
     inkscape:window-x="-11"
     inkscape:window-y="-11"
     inkscape:window-maximized="1"
     units="px" />
  <metadata
     id="metadata1031">
    <rdf:RDF>
      <cc:Work
         rdf:about="">
        <dc:format>image/svg+xml</dc:format>
        <dc:type
           rdf:resource="http://purl.org/dc/dcmitype/StillImage" />
        <dc:title></dc:title>
      </cc:Work>
    </rdf:RDF>
  </metadata>
  <g
     inkscape:label="Layer 1"
     inkscape:groupmode="layer"
     id="layer1"
     transform="translate(-75.677204,-103.57435)"
     style="filter:url(#filter3044)">
    <path
       fill="#0bceb2"
       d="m 118.16323,153.45933 h -2.28975 a 0.55286879,0.55286879 0 0 0 0,1.10243 h 2.28975 a 0.55286879,0.55286879 0 0 0 0,-1.10243 z m -16.53646,0 h -2.289747 a 0.55286879,0.55286879 0 0 0 0,1.10243 h 2.289747 a 0.55286879,0.55286879 0 0 0 0,-1.10243 z m 12.63551,0 h -11.02431 a 0.55121514,0.55121514 0 0 0 0,1.10243 h 4.39319 v 0.55121 h -2.18832 a 0.55121514,0.55121514 0 0 0 0,1.10243 h 6.89019 a 0.55121514,0.55121514 0 0 0 0,-1.10243 h -2.46394 v -0.55121 h 4.39319 a 0.55121514,0.55121514 0 0 0 0,-1.10243 z m 2.20487,-7.1658 a 1.929253,1.929253 0 1 0 1.92924,1.92926 1.9314578,1.9314578 0 0 0 -1.92924,-1.92926 z m 0,2.75608 a 0.82682271,0.82682271 0 1 1 0.82682,-0.82682 0.82682271,0.82682271 0 0 1 -0.82682,0.82682 z m 2.75607,-7.1658 a 1.929253,1.929253 0 1 0 1.92925,1.92925 1.9314578,1.9314578 0 0 0 -1.92925,-1.92925 z m 0,2.75607 a 0.82682271,0.82682271 0 1 1 0.82682,-0.82682 0.82682271,0.82682271 0 0 1 -0.82682,0.82682 z"
       id="path2"
       style="stroke-width:0.275607" />
    <circle
       cx="86.150299"
       cy="151.80568"
       r="0.55121511"
       fill="#2d4356"
       id="circle4"
       style="fill:#66c190;fill-opacity:1;stroke-width:0.275607" />
    <path
       fill="#2d4356"
       d="m 88.630772,151.25447 h -0.826823 a 0.55121861,0.55121861 0 0 0 0,1.10243 h 0.826823 a 0.55121861,0.55121861 0 0 0 0,-1.10243 z m 41.065538,0 h -0.82682 a 0.55121861,0.55121861 0 0 0 0,1.10243 h 0.82682 a 0.55121861,0.55121861 0 0 0 0,-1.10243 z"
       id="path6"
       style="fill:#66c190;fill-opacity:1;stroke-width:0.275607" />
    <circle
       cx="131.34995"
       cy="151.80568"
       r="0.55121511"
       fill="#2d4356"
       id="circle8"
       style="stroke-width:0.275607" />
    <path
       fill="#2d4356"
       d="m 127.13866,151.25447 h -0.74964 a 1.0762475,1.0762475 0 0 0 -0.0772,-0.40239 l -5.60585,-14.27095 v -6.6201 a 1.0974693,1.0974693 0 0 0 0.72209,-1.03078 v -1.10242 a 1.1021546,1.1021546 0 0 0 -1.10244,-1.10243 h -1.65364 v -9.09505 a 0.55286879,0.55286879 0 0 0 -0.55121,-0.55122 h -9.37066 a 0.55286879,0.55286879 0 0 0 -0.55122,0.55122 v 1.37803 H 95.796558 a 0.55286879,0.55286879 0 0 0 -0.551215,0.55122 v 1.37804 h -1.653645 a 1.1021546,1.1021546 0 0 0 -1.102431,1.10243 v 1.10242 a 1.1024302,1.1024302 0 0 0 0.826822,1.06386 v 4.99952 h -1.10243 a 0.6333462,0.6333462 0 0 0 -0.07166,0.008 0.5495615,0.5495615 0 0 0 -1.030771,0.26733 v 2.75608 a 0.5495615,0.5495615 0 0 0 1.030771,0.26734 0.6333462,0.6333462 0 0 0 0.07166,0.008 h 1.10243 v 2.48047 a 2.4804685,2.4804685 0 0 0 4.960937,0 v -2.48047 h 2.204864 v 16.53646 h -3.582901 a 1.1049108,1.1049108 0 0 0 -0.986676,0.60909 l -0.551215,1.10243 a 1.1137301,1.1137301 0 0 0 -0.112999,0.49333 h -4.886522 a 0.55590046,0.55590046 0 1 0 0,1.10244 h 36.777083 a 0.55590046,0.55590046 0 1 0 0,-1.10244 z M 93.3161,131.41072 h -1.10243 v -1.10243 h 1.10243 z m 27.00954,-3.58289 v 1.10242 h -4.40971 v -1.10242 z m -9.64626,-5.78776 v 1.10242 h -4.40972 v -1.10242 z m -0.82683,2.20486 v 10.7487 a 1.3780379,1.3780379 0 0 1 -2.75607,0 v -10.7487 z m -12.677944,10.7487 a 1.3780379,1.3780379 0 0 1 -2.756075,0 v -10.7487 h 2.756075 z m 0.826823,-11.85114 h -4.409721 v -1.10242 h 4.409721 z m 0,-2.20485 h -1.653646 v -0.82682 h 11.851127 v 0.82682 h -1.92925 a 1.1021546,1.1021546 0 0 0 -1.10243,1.10243 v 1.10242 a 1.1024302,1.1024302 0 0 0 0.82682,1.06386 v 4.99952 h -7.717014 v -4.99952 a 1.1024302,1.1024302 0 0 0 0.826823,-1.06386 v -1.10242 a 1.1021546,1.1021546 0 0 0 -1.10243,-1.10243 z m -1.653646,30.31683 0.551216,-1.10243 h 4.685321 v -18.74132 h -3.307284 v -1.10243 h 7.717014 v 1.10243 h -3.30729 v 18.74132 h 4.68532 l 0.55122,1.10243 z m 13.504767,0 h -0.82957 a 1.1137301,1.1137301 0 0 0 -0.113,-0.49334 l -0.55122,-1.10242 a 1.1049108,1.1049108 0 0 0 -0.98668,-0.6091 h -3.58289 v -16.53645 h 2.20486 v 2.48047 a 2.48047,2.48047 0 0 0 4.96094,0 v -2.48047 h 1.10243 a 0.6333462,0.6333462 0 0 0 0.0717,-0.008 0.5495615,0.5495615 0 0 0 1.03077,-0.26734 v -2.75607 a 0.5495615,0.5495615 0 0 0 -1.03077,-0.26734 0.6333462,0.6333462 0 0 0 -0.0717,-0.008 h -1.10243 v -4.99952 a 1.1024302,1.1024302 0 0 0 0.82682,-1.06385 v -1.10243 a 1.1021546,1.1021546 0 0 0 -1.10243,-1.10243 h -1.37804 v -2.75608 h 8.26823 v 8.54384 h -1.65364 a 1.1021546,1.1021546 0 0 0 -1.10243,1.10243 v 1.10243 a 1.0974693,1.0974693 0 0 0 0.72209,1.03078 v 6.62009 l -1.44694,3.68762 -1.03352,-1.03352 a 1.1046351,1.1046351 0 0 0 -0.12955,-1.40284 l -0.77997,-0.77722 a 1.0980206,1.0980206 0 0 0 -1.55993,0 l -3.11713,3.11713 a 1.1046351,1.1046351 0 0 0 0,1.55993 l 0.77997,0.77722 a 1.0770744,1.0770744 0 0 0 1.26779,0.20395 l 2.59072,2.59071 -2.1773,5.54797 a 1.0762475,1.0762475 0 0 0 -0.0772,0.40239 z m 1.10244,-19.84375 v -1.10243 h 1.10243 v 1.10243 z m 1.19062,7.20163 -3.11712,3.11988 -0.77997,-0.77997 3.11713,-3.11987 z m -1.19062,12.64212 2.18005,-5.54522 a 1.1051864,1.1051864 0 0 0 -0.24804,-1.18512 l -2.54661,-2.54661 1.94854,-1.94854 1.01975,1.01974 a 1.1024302,1.1024302 0 0 0 1.80523,-0.37759 l 0.16812,-0.42718 0.41617,-1.0611 0.93982,-2.39227 v -6.75789 h 2.96554 v 6.75789 l 0.92052,2.34267 0.41617,1.05833 4.34633,11.06289 z"
       id="path10"
       style="fill:#66c190;fill-opacity:1;stroke-width:0.275607" />
    <path
       fill="#0bceb2"
       d="m 109.85255,125.64226 v 1.12723 a 1.3380748,1.3380748 0 0 0 -0.24529,0.1378 1.9218116,1.9218116 0 0 1 -2.26549,0 1.3380748,1.3380748 0 0 0 -0.24529,-0.1378 v -1.12723 a 1.8818485,1.8818485 0 0 1 0.85714,0.35002 0.83674458,0.83674458 0 0 0 1.0418,0 1.8818485,1.8818485 0 0 1 0.85713,-0.35002 z m 11.0877,14.54932 a 0.54432495,0.54432495 0 0 1 -0.20119,0.0385 2.963057,2.963057 0 0 0 -1.25126,0.23979 4.487718,4.487718 0 0 1 -3.28524,0 3.0154224,3.0154224 0 0 0 -0.92053,-0.226 l 0.41617,-1.0611 a 4.1691157,4.1691157 0 0 1 0.89573,0.25632 3.3844609,3.3844609 0 0 0 2.50251,0 4.027729,4.027729 0 0 1 1.42764,-0.30592 z M 97.174606,127.02029 v 1.12724 a 1.3380748,1.3380748 0 0 0 -0.24529,0.13781 1.9218116,1.9218116 0 0 1 -2.265495,0 1.3380748,1.3380748 0 0 0 -0.24529,-0.13781 v -1.12724 a 1.8818485,1.8818485 0 0 1 0.857139,0.35002 0.83674458,0.83674458 0 0 0 1.041797,0 1.8818485,1.8818485 0 0 1 0.857139,-0.35002 z"
       id="path12"
       style="stroke-width:0.275607" />
  </g>
</svg>
