<?xml version="1.0" encoding="UTF-8" standalone="no"?>
<svg
   xmlns:dc="http://purl.org/dc/elements/1.1/"
   xmlns:cc="http://creativecommons.org/ns#"
   xmlns:rdf="http://www.w3.org/1999/02/22-rdf-syntax-ns#"
   xmlns:svg="http://www.w3.org/2000/svg"
   xmlns="http://www.w3.org/2000/svg"
   xmlns:sodipodi="http://sodipodi.sourceforge.net/DTD/sodipodi-0.dtd"
   xmlns:inkscape="http://www.inkscape.org/namespaces/inkscape"
   width="233.66614"
   height="228.50476"
   viewBox="0 0 61.824165 60.458549"
   version="1.1"
   id="svg1034"
   inkscape:version="1.0.1 (3bc2e813f5, 2020-09-07)"
   sodipodi:docname="notes.svg"
   inkscape:export-filename="C:\Users\keega\Documents\cannlytics\assets\images\illustrations\multi-tone\notes.png"
   inkscape:export-xdpi="96"
   inkscape:export-ydpi="96">
  <defs
     id="defs1028">
    <clipPath
       clipPathUnits="userSpaceOnUse"
       id="clipPath1824">
      <path
         d="m 466.283,741.164 h 63.482 v -19.581 h -63.482 z"
         id="path1822"
         inkscape:connector-curvature="0" />
    </clipPath>
    <filter
       inkscape:collect="always"
       style="color-interpolation-filters:sRGB"
       id="filter3124"
       x="-0.00024129886"
       width="1.0004826"
       y="-0.00024209845"
       height="1.0004842">
      <feGaussianBlur
         inkscape:collect="always"
         stdDeviation="0.0053203049"
         id="feGaussianBlur3126" />
    </filter>
  </defs>
  <sodipodi:namedview
     id="base"
     pagecolor="#323443"
     bordercolor="#666666"
     borderopacity="1.0"
     inkscape:pageopacity="0"
     inkscape:pageshadow="2"
     inkscape:zoom="1.4"
     inkscape:cx="108.88343"
     inkscape:cy="93.280954"
     inkscape:document-units="mm"
     inkscape:current-layer="layer1"
     inkscape:document-rotation="0"
     showgrid="false"
     inkscape:window-width="1624"
     inkscape:window-height="997"
     inkscape:window-x="230"
     inkscape:window-y="94"
     inkscape:window-maximized="0"
     units="px" />
  <metadata
     id="metadata1031">
    <rdf:RDF>
      <cc:Work
         rdf:about="">
        <dc:format>image/svg+xml</dc:format>
        <dc:type
           rdf:resource="http://purl.org/dc/dcmitype/StillImage" />
        <dc:title></dc:title>
      </cc:Work>
    </rdf:RDF>
  </metadata>
  <g
     inkscape:label="Layer 1"
     inkscape:groupmode="layer"
     id="layer1"
     transform="translate(-75.677204,-103.57435)"
     style="filter:url(#filter3124)">
    <path
       fill="#ffffff"
       d="m 118.93506,115.02702 v 44.353 H 81.893402 v -51.1528 H 111.8795 Z"
       id="path2"
       style="stroke-width:0.881943" />
    <path
       fill="#e6e6e6"
       d="m 118.93506,115.02702 v 2.9016 h -7.9375 a 1.7638889,1.7638889 0 0 1 -1.7639,-1.7639 v -7.9375 h 2.64584 z"
       id="path4"
       style="stroke-width:0.881943" />
    <path
       fill="#fd9467"
       d="m 111.8795,108.22722 v 7.05557 h 7.05556 z"
       id="path6"
       style="stroke-width:0.881943" />
    <path
       fill="#e6e6e6"
       d="m 118.93506,123.22029 v 18.43263 l -4.8419,5.76794 -8.92526,3.87173 a 1.7638889,1.7638889 0 0 1 -2.41654,-2.02847 l 2.2578,-9.4721 z"
       id="path8"
       style="stroke-width:0.881943" />
    <path
       fill="#fd9467"
       d="m 112.4704,145.26889 -6.7645,2.8928 1.76386,-7.14377 18.26507,-21.81046 a 2.1872222,2.1872222 0 0 1 3.08683,-0.26467 l 1.67567,1.4023 a 2.1960417,2.1960417 0 0 1 0.27333,3.0868 z m 16.1837,-19.3234 -5.0271,-4.2245 m -11.1566,23.52147 -5.0359,-4.22454"
       id="path10"
       style="stroke-width:0.881943" />
    <path
       fill="#61c3b6"
       d="m 130.77076,123.43196 -2.13433,2.51353 -5.02707,-4.2245 2.10784,-2.51353 a 2.1872222,2.1872222 0 0 1 3.0868,-0.26467 l 1.6757,1.4023 a 2.1960417,2.1960417 0 0 1 0.291,3.0868 z"
       id="path12"
       style="stroke-width:0.881943" />
    <path
       fill="#ffffff"
       d="m 112.4704,145.24246 -6.73807,2.91923 1.70217,-7.14377 z"
       id="path14"
       style="stroke-width:0.881943" />
    <path
       fill="#4e5b5f"
       d="m 131.0706,119.69252 -1.6845,-1.41113 a 3.0691667,3.0691667 0 0 0 -4.32154,0.37923 l -2.11666,2.51357 -3.1309,3.7218 v -8.8812 a 2.6458333,2.6458333 0 0 0 -0.7761,-1.8697 l -6.0237,-6.0237 a 2.6458333,2.6458333 0 0 0 -1.8697,-0.7761 H 83.657262 a 2.6458333,2.6458333 0 0 0 -2.64583,2.64583 v 47.625 a 2.6458333,2.6458333 0 0 0 2.64583,2.64584 h 33.513898 a 2.6458333,2.6458333 0 0 0 2.64584,-2.64584 v -19.75556 l 11.63283,-13.86417 a 3.0691667,3.0691667 0 0 0 0.70557,-2.24013 3.0250694,3.0250694 0 0 0 -1.0848,-2.06374 z m -18.30917,-9.3398 4.04813,4.04814 h -4.04813 z m 5.29167,47.2634 a 0.88194443,0.88194443 0 0 1 -0.88194,0.88194 H 83.657262 a 0.88194443,0.88194443 0 0 1 -0.88193,-0.88194 v -47.625 a 0.88194443,0.88194443 0 0 1 0.88193,-0.88193 h 27.340298 v 6.1736 a 0.88194443,0.88194443 0 0 0 0.88194,0.88193 h 6.1736 v 10.8303 l -11.28887,13.45847 a 0.82020833,0.82020833 0 0 0 -0.17633,0.33513 l -1.70217,7.14374 a 0.88194443,0.88194443 0 0 0 0.291,0.88196 0.88194443,0.88194443 0 0 0 0.56443,0.21167 1.0054167,1.0054167 0 0 0 0.3528,-0.0707 l 6.73804,-2.92806 a 0.88194443,0.88194443 0 0 0 0.31766,-0.238 l 4.90364,-5.81204 z m -10.08944,-14.99306 2.84867,2.39006 -3.81,1.65807 z m 4.40974,1.39346 -3.68654,-3.0868 15.04597,-17.9652 3.68653,3.09564 z m 17.72706,-21.16666 -1.5522,1.8521 -3.67773,-3.0868 1.5434,-1.84327 a 1.3140972,1.3140972 0 0 1 1.84327,-0.15867 l 1.6757,1.41114 a 1.3140972,1.3140972 0 0 1 0.15866,1.84326 z"
       id="path16"
       style="stroke-width:0.881943" />
    <path
       fill="#fd9467"
       d="m 88.067002,117.92862 h 9.7014 a 0.88195,0.88195 0 0 0 0,-1.7639 h -9.7014 a 0.88195,0.88195 0 0 0 0,1.7639 z"
       id="path18"
       style="stroke-width:0.881943" />
    <path
       fill="#61c3b6"
       d="m 88.067002,125.86612 h 24.694428 a 0.88195,0.88195 0 0 0 0,-1.7639 H 88.067002 a 0.88195,0.88195 0 0 0 0,1.7639 z m 0,7.9375 h 19.402758 a 0.88195,0.88195 0 0 0 0,-1.7639 H 88.067002 a 0.88195,0.88195 0 0 0 0,1.7639 z m 14.111098,5.29167 H 88.067002 a 0.88195,0.88195 0 0 0 0,1.7639 H 102.1781 a 0.88195,0.88195 0 0 0 0,-1.7639 z m -1.76387,7.9375 H 88.067002 a 0.88195,0.88195 0 0 0 0,1.7639 h 12.347228 a 0.88195,0.88195 0 0 0 0,-1.7639 z"
       id="path20"
       style="stroke-width:0.881943" />
  </g>
</svg>
