<?xml version="1.0" encoding="UTF-8" standalone="no"?>
<!-- Created with Inkscape (http://www.inkscape.org/) -->

<svg
   xmlns:dc="http://purl.org/dc/elements/1.1/"
   xmlns:cc="http://creativecommons.org/ns#"
   xmlns:rdf="http://www.w3.org/1999/02/22-rdf-syntax-ns#"
   xmlns:svg="http://www.w3.org/2000/svg"
   xmlns="http://www.w3.org/2000/svg"
   xmlns:sodipodi="http://sodipodi.sourceforge.net/DTD/sodipodi-0.dtd"
   xmlns:inkscape="http://www.inkscape.org/namespaces/inkscape"
   width="85"
   height="410"
   viewBox="0 0 22.489582 108.47917"
   version="1.1"
   id="svg924"
   inkscape:version="0.92.4 (5da689c313, 2019-01-14)"
   sodipodi:docname="bean_stalk_lean_right.svg">
  <defs
     id="defs918" />
  <sodipodi:namedview
     id="base"
     pagecolor="#ffffff"
     bordercolor="#666666"
     borderopacity="1.0"
     inkscape:pageopacity="0.0"
     inkscape:pageshadow="2"
     inkscape:zoom="1.979899"
     inkscape:cx="28.873279"
     inkscape:cy="211.4036"
     inkscape:document-units="mm"
     inkscape:current-layer="layer1"
     showgrid="false"
     fit-margin-top="0"
     fit-margin-left="0"
     fit-margin-right="0"
     fit-margin-bottom="0"
     units="px"
     inkscape:window-width="1920"
     inkscape:window-height="1051"
     inkscape:window-x="-9"
     inkscape:window-y="-9"
     inkscape:window-maximized="1" />
  <metadata
     id="metadata921">
    <rdf:RDF>
      <cc:Work
         rdf:about="">
        <dc:format>image/svg+xml</dc:format>
        <dc:type
           rdf:resource="http://purl.org/dc/dcmitype/StillImage" />
        <dc:title></dc:title>
      </cc:Work>
    </rdf:RDF>
  </metadata>
  <g
     inkscape:label="Layer 1"
     inkscape:groupmode="layer"
     id="layer1"
     transform="translate(-89.562751,-41.874294)">
    <path
       d="m 109.1466,46.504944 c -1.5614,-0.541514 -3.26955,0.420159 -4.47146,1.321153 -1.55564,1.166636 -2.86618,2.961217 -3.91403,4.570942 -1.394851,2.142772 -3.028111,5.353755 -5.906705,5.55378 -0.0084,0.593019 -0.0091,1.186744 -0.0022,1.780822 0.08047,0.01623 0.164394,0.02646 0.255341,0.02187 3.206293,-0.166511 5.595804,-3.46463 6.761484,-6.148563 0.86402,-1.989314 1.7266,-3.649134 3.36243,-5.123392 0.91299,-0.823383 2.09127,-1.381125 3.3341,-1.339144 0.74048,0.0695 1.35961,0.397227 1.85703,0.982486 0.73519,1.1557 0.13546,2.270125 -0.54046,2.677936 -0.9973,0.472369 -1.72755,0.481894 -1.9812,-0.579261 0.0141,0.0088 0.96414,-0.428625 0.79269,-1.071386 -0.28081,-1.051984 -2.06481,-0.6858 -2.01718,0.943327 0.0339,1.159581 1.58044,1.442509 2.43699,1.4986 1.39876,0.09137 2.2733,-1.091141 2.42393,-2.335741 0.1651,-1.363486 -1.3028,-2.375959 -2.39077,-2.753431"
       style="fill:#45b649;fill-opacity:1;fill-rule:nonzero;stroke:none;stroke-width:0.03527778"
       id="path14"
       inkscape:connector-curvature="0" />
    <path
       d="m 96.628489,69.853188 c 0.0301,1.686632 -0.32822,3.346098 -0.865681,4.95159 0.108585,1.065035 0.226977,2.129367 0.351684,3.192637 1.763887,-5.25145 1.923737,-10.687402 -1.183746,-15.394868 0.0098,0.240594 0.02014,0.480836 0.03115,0.720725 0.922479,2.078213 1.625003,4.180416 1.666593,6.529916"
       style="fill:#45b649;fill-opacity:1;fill-rule:nonzero;stroke:none;stroke-width:0.03527778"
       id="path16"
       inkscape:connector-curvature="0" />
    <path
       d="m 94.854405,57.950819 c 0.07923,-5.496278 0.889247,-10.922 3.804494,-15.708841 0.0192,-0.0314 -0.0269,-0.06456 -0.0476,-0.03316 -0.0154,0.02399 -0.0296,0.04798 -0.0452,0.07161 -4.456715,6.877049 -4.483702,14.529152 -4.505751,22.473002 -0.02621,9.33062 1.180148,18.510603 2.07959,27.780192 0.218401,2.25002 0.420441,4.50144 0.604411,6.75393 0.8636,1.573038 1.7567,3.171468 2.53309,4.798128 -0.25756,-2.81728 -0.55425,-5.631038 -0.88332,-8.437378 -0.69162,-5.89457 -1.58888,-11.761265 -2.279687,-17.65089 -0.124707,-1.06327 -0.243099,-2.127602 -0.351684,-3.192637 -0.225707,-2.210858 -0.412715,-4.425598 -0.537281,-6.648098 -0.08929,-1.591028 -0.188806,-3.207103 -0.263631,-4.833408 -0.01101,-0.239889 -0.02134,-0.480131 -0.03115,-0.720725 -0.03898,-0.955323 -0.06766,-1.913114 -0.07853,-2.870906 -0.0069,-0.594078 -0.0062,-1.187803 0.0022,-1.780822"
       style="fill:#96e6a1;fill-opacity:1;fill-rule:nonzero;stroke:none;stroke-width:0.03527778"
       id="path18"
       inkscape:connector-curvature="0" />
    <path
       d="m 97.752439,121.53531 c 0.008,4.44902 -0.0824,8.95452 -0.61006,13.37317 -0.52338,4.38121 -1.759901,8.64954 -2.739,12.94144 -0.103752,0.45448 0.04068,0.78907 0.299437,1.0006 0.614469,0.50119 1.888633,0.29242 2.130033,-0.77032 0.88332,-3.88926 1.92416,-7.74085 2.55076,-11.68385 0.707221,-4.45131 0.732021,-9.0533 0.769381,-13.55093 0.014,-1.6721 -0.01,-3.34409 -0.0499,-5.01566 -0.661451,1.31812 -1.485931,2.52388 -2.350661,3.70555"
       style="fill:#96e6a1;fill-opacity:1;fill-rule:nonzero;stroke:none;stroke-width:0.03527778"
       id="path20"
       inkscape:connector-curvature="0" />
    <path
       d="m 96.876419,100.98018 c 0.48176,6.24417 0.80077,12.49821 0.86004,18.76439 0.12513,-0.18771 0.2486,-0.37648 0.36904,-0.56734 0.93373,-1.48113 1.55663,-3.02066 1.88927,-4.60311 -0.10471,-2.44475 -0.25686,-4.88774 -0.44881,-7.3279 -0.67828,-2.17311 -1.66275,-4.22381 -2.66954,-6.26604"
       style="fill:#96e6a1;fill-opacity:1;fill-rule:nonzero;stroke:none;stroke-width:0.03527778"
       id="path22"
       inkscape:connector-curvature="0" />
    <path
       d="m 96.744409,99.287552 c -0.18397,-2.25249 -0.38601,-4.50391 -0.604411,-6.75393 -0.899442,-9.269586 -2.105801,-18.449569 -2.07959,-27.780189 0.02205,-7.94385 0.04904,-15.595953 4.505751,-22.473002 -0.0175,-0.03457 -0.0662,-0.05256 -0.0958,-0.01129 -2.06746,2.87408 -3.589233,5.895269 -4.372788,9.36378 -0.09797,0.433564 -0.183127,0.868892 -0.264442,1.304925 -0.004,-0.01552 -0.0079,-0.03105 -0.01185,-0.04657 -0.82049,-3.215216 -1.720603,-6.248047 -0.5588,-9.519708 0.0021,-0.006 -0.0067,-0.0092 -0.009,-0.0035 -0.968868,2.356202 -0.887588,4.736746 -0.572558,7.221713 0.180094,1.422753 0.513469,2.826456 0.748136,4.240742 0.02081,0.125588 0.03334,0.251883 0.04837,0.378177 -0.378954,2.900539 -0.501332,5.834239 -0.658565,8.75665 -0.21209,3.938764 -0.19484,7.856713 -0.06724,11.769371 -2.566317,4.477809 -2.300076,10.010775 -1.004852,14.862881 0.664351,2.4892 1.544637,4.91031 2.1584,7.41009 0.311856,7.486298 0.428978,14.972598 0.258128,22.469578 -0.0339,1.48527 -0.08269,2.97519 -0.150636,4.46596 -0.499675,0.76482 -0.962272,1.55554 -1.352833,2.39642 -1.253172,2.69889 -1.980212,7.39662 0.03351,9.90946 -0.689186,3.30591 -1.692098,6.5509 -2.538377,9.81439 -0.775829,2.99131 3.694113,4.69539 4.547799,1.78704 -0.258762,-0.21153 -0.403189,-0.54612 -0.299437,-1.0006 0.979099,-4.2919 2.215625,-8.56023 2.739005,-12.94144 0.52765,-4.41865 0.61789,-8.92415 0.61006,-13.37317 0.86473,-1.18167 1.68921,-2.38743 2.350661,-3.70555 0.14316,-0.2855 0.28096,-0.57435 0.40732,-0.87132 1.92278,-4.51545 0.71812,-8.78477 -1.232921,-12.87276 -0.77639,-1.62666 -1.66949,-3.22509 -2.53309,-4.798128 z M 91.472995,84.02039 c 0.0073,-2.488142 0.446193,-4.932537 1.314908,-7.244292 0.190042,5.07224 0.549699,10.138482 0.829734,15.234354 0.0066,0.11748 0.01171,0.2353 0.01817,0.35278 -1.21405,-2.67476 -2.17163,-5.338234 -2.16281,-8.342842 z m 1.320165,46.61686 c 0.216605,-1.17312 0.594889,-2.25516 1.09153,-3.29145 -0.144816,2.29168 -0.352778,4.57856 -0.657472,6.84431 -0.07648,0.56843 -0.167288,1.13454 -0.267865,1.69817 -0.394687,-1.74872 -0.520206,-3.33513 -0.166193,-5.25103 z m 6.784909,-23.29261 c 0.760271,2.47403 0.906321,4.89903 0.4167,7.22948 -0.33264,1.58245 -0.95554,3.12198 -1.88927,4.60311 -0.12044,0.19086 -0.24391,0.37963 -0.36904,0.56734 -0.0593,-6.26618 -0.37828,-12.52022 -0.86004,-18.76439 1.00679,2.04223 1.99126,4.09293 2.66954,6.26604 0.0102,0.0328 0.0219,0.0653 0.0321,0.0984"
       style="fill:#45b649;fill-opacity:1;fill-rule:nonzero;stroke:none;stroke-width:0.03527778"
       id="path24"
       inkscape:connector-curvature="0" />
  </g>
</svg>
