<?xml version="1.0" encoding="UTF-8" standalone="no"?>
<svg
   xmlns:dc="http://purl.org/dc/elements/1.1/"
   xmlns:cc="http://creativecommons.org/ns#"
   xmlns:rdf="http://www.w3.org/1999/02/22-rdf-syntax-ns#"
   xmlns:svg="http://www.w3.org/2000/svg"
   xmlns="http://www.w3.org/2000/svg"
   xmlns:sodipodi="http://sodipodi.sourceforge.net/DTD/sodipodi-0.dtd"
   xmlns:inkscape="http://www.inkscape.org/namespaces/inkscape"
   fill="#000000"
   width="800px"
   height="800px"
   viewBox="0 0 512 512"
   version="1.1"
   xml:space="preserve"
   id="svg8"
   sodipodi:docname="award.svg"
   inkscape:version="1.0.1 (3bc2e813f5, 2020-09-07)"
   inkscape:export-filename="C:\Users\keega\Documents\cannlytics\cannlytics\app\assets\images\icons\award.png"
   inkscape:export-xdpi="96"
   inkscape:export-ydpi="96"><metadata
   id="metadata14"><rdf:RDF><cc:Work
       rdf:about=""><dc:format>image/svg+xml</dc:format><dc:type
         rdf:resource="http://purl.org/dc/dcmitype/StillImage" /></cc:Work></rdf:RDF></metadata><defs
   id="defs12" /><sodipodi:namedview
   pagecolor="#ffffff"
   bordercolor="#666666"
   borderopacity="1"
   objecttolerance="10"
   gridtolerance="10"
   guidetolerance="10"
   inkscape:pageopacity="0"
   inkscape:pageshadow="2"
   inkscape:window-width="1920"
   inkscape:window-height="1094"
   id="namedview10"
   showgrid="false"
   inkscape:zoom="0.66556426"
   inkscape:cx="304.38603"
   inkscape:cy="272.80476"
   inkscape:window-x="-11"
   inkscape:window-y="-11"
   inkscape:window-maximized="1"
   inkscape:current-layer="g4" />

<g
   id="_x35_57_x2C__award_x2C__cup_x2C__prize_x2C__reward_x2C__victory"
   style="fill:#999999;fill-opacity:1">

<g
   id="g4"
   style="fill:#999999;fill-opacity:1">

<path
   d="M326.219,235.43v-59.998c0-1.895,1.555-3.479,3.479-3.479h15.24    c1.908,0,3.463,1.584,3.463,3.479v34.92c0,3.223-0.494,6.361-1.428,9.357c-0.932,3.055-2.346,5.938-4.1,8.512    c-1.484,2.148-3.223,4.128-5.146,5.852c-1.823,1.612-3.873,3.055-6.106,4.242c-0.551,0.367-1.216,0.594-1.923,0.594    C327.773,238.908,326.219,237.354,326.219,235.43 M333.175,178.909v49.904c1.499-1.328,2.827-2.855,3.959-4.495    c1.384-2.036,2.487-4.27,3.224-6.645c0.707-2.29,1.102-4.75,1.102-7.322v-31.442H333.175z M184.579,175.432v59.998    c-0.014,0.538-0.156,1.075-0.411,1.584c-0.875,1.695-2.969,2.347-4.666,1.471c-2.346-1.217-4.51-2.715-6.417-4.412    c-1.937-1.724-3.676-3.703-5.146-5.852c-1.781-2.574-3.182-5.457-4.127-8.512c-0.919-2.996-1.414-6.135-1.414-9.357v-34.92    c0-1.895,1.555-3.479,3.478-3.479h15.226C183.009,171.953,184.579,173.537,184.579,175.432z M244.846,157.732    c-1.923,0-3.478-1.556-3.478-3.479s1.555-3.478,3.478-3.478h81.373V139.07h-141.64v20.047c0,1.923-1.57,3.479-3.478,3.479h-26.875    v48.942c0,4.495,0.735,8.765,2.093,12.752c1.398,4.155,3.492,8.03,6.106,11.451c2.544,3.308,5.57,6.192,8.963,8.567    c3.336,2.347,7.068,4.185,11.041,5.429c1.3,0.396,2.304,1.555,2.432,2.997c0.635,7.068,2.36,13.91,4.991,20.244l0.056,0.142    c2.729,6.587,6.433,12.694,10.915,18.124c4.552,5.485,9.923,10.291,15.889,14.223c5.854,3.844,12.357,6.87,19.255,8.849    c1.216,0.34,2.178,1.329,2.46,2.63c0.933,4.411,1.3,8.878,1.188,13.317c-0.114,4.383-0.708,8.765-1.669,13.12l-0.028,0.112    c-1.018,4.608-2.474,9.188-4.241,13.77c-1.526,3.901-3.279,7.804-5.188,11.706h53.735c-1.81-3.619-3.492-7.295-4.977-11.027    l-0.141-0.283c-1.767-4.467-3.223-9.047-4.269-13.684c-0.99-4.383-1.585-8.851-1.684-13.346    c-0.098-4.524,0.283-9.105,1.259-13.714c0.254-1.216,1.174-2.262,2.46-2.602c6.897-2.007,13.373-5.005,19.227-8.849    c5.967-3.932,11.323-8.737,15.875-14.251c4.496-5.429,8.215-11.536,10.93-18.096c2.645-6.39,4.367-13.232,5.032-20.357    c0.114-1.386,1.032-2.63,2.433-3.054c3.986-1.244,7.719-3.082,11.055-5.4c3.394-2.375,6.418-5.287,8.935-8.567    c2.629-3.421,4.722-7.296,6.135-11.451c1.345-3.987,2.094-8.284,2.094-12.752v-48.942h-26.89c-1.924,0-3.479-1.556-3.479-3.479    v-1.385H244.846z M227.344,150.776c1.921,0,3.478,1.555,3.478,3.478s-1.556,3.479-3.478,3.479h-17.191    c-1.923,0-3.478-1.556-3.478-3.479s1.555-3.478,3.478-3.478H227.344z M200.865,396.85h109.083v-20.924h-25.404    c-27.893,0-55.786,0-83.678,0C200.865,390.176,200.865,376.463,200.865,396.85z M282.492,380.761c1.923,0,3.478,1.584,3.478,3.478    c0,1.923-1.555,3.479-3.478,3.479h-9.881c-1.924,0-3.479-1.556-3.479-3.479c0-1.894,1.555-3.478,3.479-3.478H282.492z     M281.376,206.732c-6.646-6.645-15.833-10.773-25.97-10.773c-10.065,0-19.185,4.043-25.8,10.603l-0.17,0.171    c-6.644,6.644-10.758,15.832-10.758,25.955c0,10.15,4.115,19.34,10.758,25.984c6.631,6.645,15.819,10.744,25.971,10.744    c10.137,0,19.324-4.1,25.97-10.744c6.644-6.645,10.759-15.834,10.759-25.984c0-10.065-4.043-19.17-10.589-25.786L281.376,206.732z     M255.406,189.004c12.059,0,22.973,4.891,30.891,12.808l0.196,0.227c7.775,7.888,12.583,18.718,12.583,30.649    c0,12.073-4.893,22.986-12.779,30.904c-7.918,7.889-18.832,12.779-30.891,12.779c-12.045,0-22.974-4.891-30.875-12.809    c-7.903-7.889-12.81-18.802-12.81-30.875c0-12.045,4.892-22.987,12.794-30.876l0.212-0.197    C232.603,193.839,243.446,189.004,255.406,189.004z M258.672,227.061l-3.266-10.122l-3.266,10.122    c-0.453,1.385-1.767,2.404-3.308,2.404l-10.646-0.029l8.553,6.193c1.244,0.848,1.825,2.431,1.344,3.93l-3.31,10.121l8.583-6.248    c1.188-0.877,2.841-0.933,4.085-0.028l8.597,6.276l-3.31-10.121c-0.438-1.387,0.014-2.969,1.258-3.874l8.625-6.249l-10.434,0.029    C260.637,229.549,259.166,228.616,258.672,227.061z M260.17,209.135l4.325,13.402l14.337-0.028c1.555,0,2.854,1.018,3.308,2.403    l0.848,2.629c0.467,1.471-0.085,2.998-1.272,3.874l-11.606,8.397l4.454,13.657c0.522,1.583-0.17,3.279-1.557,4.071l-2.092,1.413    c-1.286,0.876-2.955,0.765-4.099-0.142l-11.409-8.313l-11.606,8.454c-1.244,0.905-2.885,0.849-4.073,0l-2.234-1.61    c-1.23-0.906-1.695-2.488-1.244-3.874l4.439-13.657l-11.606-8.397c-1.258-0.905-1.725-2.544-1.244-3.93l0.833-2.573    c0.481-1.527,1.951-2.488,3.506-2.403l14.138,0.028l4.41-13.629c0.467-1.471,1.839-2.431,3.293-2.431h2.759    C258.417,206.478,259.803,207.608,260.17,209.135z M312.251,60.101c1.952,3.393,4.255,6.673,6.899,9.811    c2.631,3.083,5.486,5.909,8.511,8.427c3.126,2.572,6.447,4.834,9.897,6.785c3.533,1.979,7.193,3.619,10.912,4.892    c3.69,1.3,7.465,2.233,11.281,2.856c0.044-3.846-0.254-7.748-0.889-11.594c-0.638-3.901-1.655-7.775-3.012-11.621    c-1.358-3.76-3.025-7.407-5.019-10.885c-1.951-3.365-4.255-6.672-6.886-9.783c-2.629-3.109-5.5-5.938-8.539-8.454    c-3.109-2.572-6.418-4.835-9.867-6.786c-3.535-1.979-7.195-3.619-10.914-4.891c-3.689-1.273-7.492-2.234-11.31-2.855    c-0.028,3.845,0.269,7.746,0.904,11.592c0.65,3.902,1.654,7.775,3.024,11.621C308.591,52.976,310.271,56.623,312.251,60.101z     M192.34,69.911c2.628-3.138,4.948-6.418,6.898-9.811c1.979-3.478,3.662-7.125,5.004-10.886c1.373-3.846,2.376-7.719,3.025-11.621    c0.637-3.846,0.934-7.747,0.891-11.592c-3.802,0.621-7.605,1.582-11.295,2.855c-3.719,1.271-7.381,2.912-10.915,4.891    c-3.45,1.951-6.758,4.214-9.867,6.786c-3.053,2.517-5.91,5.345-8.539,8.454c-2.63,3.111-4.935,6.418-6.886,9.783    c-1.993,3.478-3.662,7.125-5.019,10.885c-1.356,3.846-2.376,7.72-3.011,11.621c-0.637,3.846-0.947,7.748-0.905,11.594    c3.818-0.623,7.607-1.557,11.295-2.856c3.718-1.272,7.38-2.912,10.915-4.892c3.45-1.951,6.771-4.213,9.896-6.785    C186.855,75.82,189.71,72.994,192.34,69.911z M112.775,102.709c3.676-3.477,7.522-6.813,11.479-10.037    c5.104-4.156,10.434-8.058,15.905-11.705c1.683-1.131,3.973-0.65,5.089,1.018c1.118,1.696,0.651,3.959-1.032,5.09    c-5.315,3.534-10.432,7.322-15.353,11.31c-4.722,3.846-9.302,7.917-13.685,12.187c0.382,1.498,0.707,3.054,0.99,4.58    c0.763,4.213,1.16,8.596,1.16,13.147c0,4.524-0.396,8.906-1.16,13.12c-0.792,4.382-1.979,8.623-3.506,12.695    c-1.527,4.128-3.45,8.086-5.684,11.875c-2.233,3.76-4.792,7.267-7.605,10.546l-0.114,0.113c-2.883-3.308-5.485-6.899-7.718-10.659    c-2.233-3.732-4.157-7.719-5.711-11.875c-1.513-4.072-2.701-8.313-3.478-12.695c-0.763-4.214-1.16-8.596-1.16-13.12    c0-4.552,0.396-8.935,1.16-13.147c0.792-4.383,1.965-8.623,3.478-12.695c1.541-4.129,3.464-8.086,5.711-11.875    c2.218-3.732,4.764-7.267,7.591-10.547l0.126-0.113c2.885,3.338,5.457,6.899,7.691,10.66c2.248,3.732,4.171,7.719,5.712,11.875    L112.775,102.709z M62.362,198.023l-0.07,0.197c1.767,1.697,3.448,3.507,5.061,5.4c2.813,3.336,5.371,6.928,7.591,10.773    c2.234,3.901,4.101,7.945,5.57,12.016c1.499,4.156,2.602,8.427,3.31,12.695c0.735,4.411,1.06,8.822,1.003,13.176    c-0.072,4.355-0.523,8.737-1.358,13.035c-4.142-1.414-8.156-3.223-11.975-5.344c-3.816-2.121-7.479-4.609-10.913-7.437    c-3.28-2.715-6.419-5.796-9.274-9.161c-2.801-3.309-5.331-6.87-7.565-10.716l-0.154-0.255c-2.22-3.873-4.073-7.859-5.514-11.902    c-1.499-4.156-2.602-8.427-3.323-12.725c-0.735-4.383-1.06-8.793-1.004-13.146c0.058-4.355,0.509-8.709,1.358-13.064    c4.155,1.443,8.17,3.225,11.988,5.373c3.166,1.753,6.221,3.76,9.118,6.023c1.938-6.193,4.143-12.272,6.603-18.182    c2.911-6.955,6.163-13.741,9.755-20.244c0.961-1.781,3.194-2.432,4.977-1.441c1.781,0.961,2.43,3.194,1.455,4.975    c-3.478,6.334-6.629,12.838-9.4,19.539C66.83,184.254,64.398,191.067,62.362,198.023z M59.407,301.055    c0.056,0.255,0.084,0.538,0.084,0.793c3.323,0.706,6.603,1.61,9.827,2.771c4.071,1.47,8.086,3.335,11.988,5.569    c3.859,2.262,7.463,4.807,10.787,7.605c3.406,2.885,6.517,6.023,9.26,9.359c2.785,3.393,5.273,7.04,7.407,10.886    c2.149,3.817,3.959,7.86,5.387,11.988c-4.326,0.849-8.709,1.3-13.063,1.357c-4.355,0.056-8.751-0.255-13.148-0.989    c-4.297-0.707-8.566-1.838-12.738-3.309c-4.043-1.47-8.058-3.336-11.988-5.598c-3.845-2.206-7.451-4.75-10.772-7.578    c-3.422-2.885-6.503-6.022-9.26-9.359c-2.799-3.393-5.273-7.04-7.422-10.885c-2.148-3.817-3.957-7.861-5.372-11.989    c4.326-0.849,8.709-1.3,13.063-1.356c2.771-0.057,5.556,0.084,8.342,0.367c-1.499-6.785-2.672-13.656-3.492-20.584    c-0.892-7.436-1.386-15.098-1.457-22.931c-0.014-2.035,1.611-3.703,3.618-3.703c2.036-0.028,3.69,1.61,3.705,3.619    c0.07,7.407,0.551,14.815,1.428,22.167C56.48,286.664,57.753,293.958,59.407,301.055z M109.072,393.513    c0.226,0.255,0.423,0.537,0.579,0.819c3.831-1.385,7.831-2.459,11.918-3.194c4.213-0.763,8.595-1.159,13.119-1.159    c4.538,0,8.935,0.396,13.134,1.159c4.368,0.792,8.637,1.951,12.709,3.478c4.113,1.555,8.086,3.479,11.86,5.711    c3.747,2.234,7.281,4.779,10.532,7.606l0.128,0.113c-3.337,2.884-6.885,5.485-10.618,7.69c-3.747,2.234-7.733,4.156-11.903,5.711    c-4.073,1.527-8.342,2.715-12.695,3.506c-4.213,0.765-8.611,1.16-13.148,1.16c-4.524,0-8.905-0.396-13.119-1.16    c-4.383-0.791-8.639-1.979-12.709-3.506c-4.115-1.526-8.088-3.449-11.862-5.683c-3.746-2.233-7.28-4.778-10.546-7.605    l-0.112-0.113c3.308-2.884,6.884-5.485,10.645-7.72c1.811-1.074,3.676-2.092,5.585-2.997c-4.976-5.372-9.684-11.026-14.096-16.936    c-4.722-6.306-9.104-12.894-13.104-19.735c-1.018-1.754-0.438-3.987,1.3-5.005c1.753-1.019,4.001-0.453,5.019,1.3    c3.86,6.588,8.102,12.95,12.653,19.029C98.893,382.09,103.813,387.942,109.072,393.513z M430.299,356.953    c1.018-1.753,3.279-2.318,5.019-1.3c1.738,1.018,2.332,3.251,1.3,5.005c-4.001,6.842-8.384,13.43-13.106,19.735    c-4.409,5.909-9.132,11.563-14.094,16.936c1.923,0.905,3.788,1.923,5.613,2.997c3.73,2.234,7.295,4.836,10.631,7.72l-0.127,0.113    c-3.268,2.827-6.802,5.372-10.533,7.605c-3.774,2.233-7.748,4.156-11.86,5.683c-4.086,1.527-8.341,2.715-12.71,3.506    c-4.214,0.765-8.608,1.16-13.146,1.16c-4.526,0-8.907-0.396-13.12-1.16c-4.382-0.791-8.639-1.979-12.71-3.506    c-4.142-1.526-8.128-3.477-11.889-5.711c-3.732-2.205-7.296-4.807-10.632-7.69l0.128-0.113c3.266-2.827,6.786-5.372,10.532-7.606    c3.789-2.232,7.747-4.156,11.86-5.711c4.087-1.526,8.328-2.686,12.71-3.478c4.213-0.763,8.594-1.159,13.12-1.159    c4.538,0,8.933,0.396,13.132,1.159c4.1,0.735,8.086,1.81,11.919,3.194c0.154-0.282,0.353-0.564,0.593-0.819    c5.245-5.57,10.18-11.423,14.731-17.53C422.211,369.903,426.452,363.541,430.299,356.953z M457.823,257.089    c0.015-2.009,1.682-3.647,3.688-3.619c2.037,0,3.648,1.668,3.648,3.703c-0.084,7.833-0.579,15.495-1.471,22.931    c-0.819,6.928-1.993,13.799-3.506,20.584c2.799-0.283,5.6-0.424,8.37-0.367c4.354,0.057,8.737,0.508,13.063,1.356    c-1.429,4.128-3.224,8.172-5.373,11.989c-2.147,3.845-4.636,7.492-7.435,10.885c-2.743,3.337-5.84,6.475-9.246,9.359    c-3.338,2.828-6.941,5.372-10.803,7.578c-3.9,2.262-7.915,4.128-11.988,5.598c-4.155,1.471-8.424,2.602-12.722,3.309    c-4.384,0.734-8.795,1.045-13.148,0.989c-4.354-0.058-8.737-0.509-13.063-1.357c1.442-4.128,3.237-8.171,5.371-11.988    c2.15-3.846,4.639-7.493,7.438-10.886c2.742-3.336,5.838-6.475,9.245-9.359c3.322-2.799,6.928-5.344,10.801-7.605    c3.889-2.234,7.917-4.1,11.988-5.569c3.224-1.16,6.503-2.064,9.811-2.771c0-0.255,0.028-0.538,0.086-0.793    c1.64-7.097,2.939-14.391,3.817-21.799C457.271,271.904,457.752,264.496,457.823,257.089z M432.983,158.07    c-0.962-1.78-0.325-4.014,1.456-5.004c1.768-0.961,4.016-0.311,4.99,1.471c3.591,6.503,6.842,13.289,9.755,20.244    c2.46,5.909,4.666,11.988,6.588,18.182c2.913-2.264,5.966-4.271,9.133-6.023c3.803-2.148,7.832-3.93,11.975-5.373    c0.834,4.327,1.301,8.709,1.371,13.064c0.058,4.354-0.283,8.764-1.019,13.146c-0.707,4.298-1.809,8.568-3.308,12.725    c-1.456,4.043-3.293,8.029-5.527,11.902l-0.156,0.255c-2.233,3.846-4.764,7.407-7.549,10.716    c-2.869,3.365-5.994,6.446-9.302,9.161c-3.408,2.827-7.068,5.315-10.887,7.437c-3.816,2.121-7.831,3.93-11.988,5.344    c-0.834-4.298-1.3-8.68-1.356-13.035c-0.056-4.354,0.282-8.765,1.004-13.176c0.721-4.269,1.823-8.539,3.321-12.695    c1.471-4.07,3.31-8.086,5.571-11.988c2.234-3.873,4.778-7.492,7.592-10.801c1.61-1.923,3.293-3.703,5.046-5.4l-0.056-0.197    c-2.05-6.956-4.468-13.77-7.238-20.414C439.629,170.936,436.461,164.404,432.983,158.07z M367.359,86.791    c-1.697-1.103-2.15-3.393-1.046-5.09c1.13-1.668,3.405-2.148,5.089-1.018c5.569,3.676,10.957,7.635,16.145,11.848    c4.016,3.252,7.916,6.645,11.677,10.178l0.101-0.254c1.54-4.156,3.463-8.143,5.695-11.875c2.248-3.761,4.836-7.322,7.719-10.66    l0.114,0.113c2.827,3.28,5.371,6.814,7.605,10.547c2.233,3.789,4.157,7.746,5.684,11.875c1.526,4.072,2.715,8.313,3.506,12.695    c0.764,4.213,1.16,8.596,1.16,13.147c0,4.524-0.396,8.906-1.16,13.12c-0.791,4.382-1.979,8.623-3.506,12.695    c-1.526,4.156-3.45,8.143-5.698,11.875c-2.233,3.76-4.82,7.352-7.705,10.659l-0.112-0.113c-2.826-3.279-5.373-6.786-7.606-10.546    c-2.248-3.789-4.155-7.747-5.695-11.875c-1.527-4.072-2.701-8.313-3.492-12.695c-0.764-4.214-1.16-8.596-1.16-13.12    c0-4.552,0.396-8.935,1.16-13.147c0.268-1.526,0.593-3.082,0.975-4.58c-4.439-4.326-9.076-8.454-13.883-12.355    C377.947,94.171,372.73,90.354,367.359,86.791z M251.928,66.574c0-1.922,1.569-3.477,3.478-3.477s3.478,1.555,3.478,3.477v21.291    c0,1.923-1.568,3.479-3.478,3.479s-3.478-1.556-3.478-3.479V66.574z M333.798,109.834c1.653-0.96,3.774-0.366,4.72,1.273    c0.948,1.668,0.383,3.789-1.271,4.721l-18.447,10.66c-1.655,0.934-3.777,0.368-4.723-1.271c-0.947-1.669-0.383-3.789,1.286-4.723    L333.798,109.834z M173.566,115.828c-1.669-0.932-2.234-3.053-1.287-4.721c0.946-1.64,3.067-2.233,4.734-1.273l18.436,10.66    c1.655,0.934,2.234,3.054,1.272,4.723c-0.947,1.64-3.067,2.205-4.722,1.271L173.566,115.828z M292.855,87.271    c0.962-1.639,3.082-2.205,4.75-1.244c1.64,0.934,2.206,3.082,1.259,4.723l-6.503,11.253c-0.948,1.668-3.082,2.233-4.736,1.272    c-1.655-0.962-2.22-3.082-1.272-4.75L292.855,87.271z M211.934,90.75c-0.948-1.641-0.381-3.789,1.272-4.723    c1.655-0.961,3.789-0.395,4.736,1.244l6.503,11.254c0.947,1.668,0.382,3.788-1.258,4.75c-1.669,0.961-3.789,0.396-4.75-1.272    L211.934,90.75z M218.579,359.498c-0.198,1.839-1.767,3.252-3.648,3.252c-2.036,0-3.69-1.64-3.69-3.676    c0-0.396,0.072-0.764,0.184-1.131c0.877-4.1,1.442-8.172,1.541-12.243c0.1-3.421-0.126-6.87-0.721-10.319    c-7.225-2.29-14.024-5.57-20.215-9.642c-6.956-4.553-13.176-10.122-18.463-16.513c-5.203-6.277-9.515-13.402-12.696-21.064    c-3.082-7.436-5.104-15.438-5.868-23.751c-0.183-2.007,1.316-3.816,3.323-3.986c2.007-0.169,3.803,1.301,3.973,3.309    c0.691,7.577,2.53,14.843,5.357,21.601c2.869,6.984,6.8,13.459,11.564,19.199c4.806,5.824,10.49,10.885,16.824,15.07    c6.235,4.071,13.091,7.267,20.399,9.359c1.258,0.366,2.304,1.413,2.588,2.771c0.988,4.692,1.385,9.415,1.272,14.138    C220.176,350.422,219.569,354.975,218.579,359.498z M121.243,470.052c-1.908,0-3.478-1.555-3.478-3.479    c0-1.894,1.57-3.477,3.478-3.477h112.081c-10.42-1.103-20.627-2.997-30.536-5.599c-17.546-4.609-34.198-11.451-49.623-20.159    c-1.767-1.019-2.374-3.252-1.371-5.006c0.99-1.753,3.238-2.375,5.005-1.386c14.871,8.427,30.917,15.015,47.839,19.426    c16.342,4.297,33.562,6.588,51.346,6.588c17.784,0,35.003-2.291,51.376-6.588c16.906-4.411,32.968-10.999,47.839-19.426    c1.753-0.989,4.001-0.367,5.005,1.386c0.99,1.754,0.368,3.987-1.385,5.006c-15.41,8.708-32.078,15.55-49.623,20.159    c-9.908,2.602-20.116,4.496-30.536,5.599h64.637c1.907,0,3.476,1.583,3.476,3.477c0,1.924-1.568,3.479-3.476,3.479H121.243z     M234.709,485.999c-1.908,0-3.478-1.556-3.478-3.479c0-1.922,1.57-3.478,3.478-3.478h181.31c1.923,0,3.478,1.556,3.478,3.478    c0,1.923-1.555,3.479-3.478,3.479H234.709z M434.567,485.999c-1.909,0-3.464-1.556-3.464-3.479c0-1.922,1.555-3.478,3.464-3.478    h22.675c1.924,0,3.479,1.556,3.479,3.478c0,1.923-1.555,3.479-3.479,3.479H434.567z M70.957,485.518    c-1.921,0-3.478-1.555-3.478-3.478s1.556-3.479,3.478-3.479h85.913c1.923,0,3.478,1.556,3.478,3.479s-1.555,3.478-3.478,3.478    H70.957z M177.623,228.813v-49.904h-8.27v31.442c0,2.572,0.367,5.032,1.074,7.322c0.735,2.375,1.837,4.608,3.238,6.645    C174.782,225.958,176.125,227.485,177.623,228.813z"
   style="fill-rule:evenodd;clip-rule:evenodd;fill:#7ed321;fill-opacity:1"
   id="path2" />

<path
   d="m 251.928,66.574 c 0,-1.922 1.569,-3.477 3.478,-3.477 1.909,0 3.478,1.555 3.478,3.477 v 21.291 c 0,1.923 -1.568,3.479 -3.478,3.479 -1.91,0 -3.478,-1.556 -3.478,-3.479 z m 81.87,43.26 c 1.653,-0.96 3.774,-0.366 4.72,1.273 0.948,1.668 0.383,3.789 -1.271,4.721 l -18.447,10.66 c -1.655,0.934 -3.777,0.368 -4.723,-1.271 -0.947,-1.669 -0.383,-3.789 1.286,-4.723 z m -160.232,5.994 c -1.669,-0.932 -2.234,-3.053 -1.287,-4.721 0.946,-1.64 3.067,-2.233 4.734,-1.273 l 18.436,10.66 c 1.655,0.934 2.234,3.054 1.272,4.723 -0.947,1.64 -3.067,2.205 -4.722,1.271 z M 292.855,87.271 c 0.962,-1.639 3.082,-2.205 4.75,-1.244 1.64,0.934 2.206,3.082 1.259,4.723 l -6.503,11.253 c -0.948,1.66801 -3.082,2.233 -4.736,1.272 -1.655,-0.962 -2.22,-3.082 -1.272,-4.75 z m -80.921,3.479 c -0.948,-1.641 -0.381,-3.789 1.272,-4.723 1.655,-0.961 3.789,-0.395 4.736,1.244 l 6.503,11.254 c 0.947,1.668 0.382,3.788 -1.258,4.75 -1.669,0.961 -3.789,0.39601 -4.75,-1.272 z"
   style="clip-rule:evenodd;fill:#999999;fill-opacity:1;fill-rule:evenodd;stroke-width:1"
   id="path2-6"
   sodipodi:nodetypes="ssssssscccccccccccccccccccccccccccc" /><path
   d="m 326.21899,235.43 v -59.998 c 0,-1.895 1.555,-3.479 3.479,-3.479 h 15.24 c 1.908,0 3.463,1.584 3.463,3.479 v 34.92 c 0,3.223 -0.494,6.361 -1.428,9.357 -0.932,3.055 -2.346,5.938 -4.1,8.512 -1.484,2.148 -3.223,4.128 -5.146,5.852 -1.823,1.612 -3.873,3.055 -6.106,4.242 -0.551,0.367 -1.216,0.594 -1.923,0.594 -1.925,-0.001 -3.479,-1.555 -3.479,-3.479 m 6.956,-56.521 v 49.904 c 1.499,-1.328 2.827,-2.855 3.959,-4.495 1.384,-2.036 2.487,-4.27 3.224,-6.645 0.707,-2.29 1.102,-4.75 1.102,-7.322 v -31.442 z m -148.596,-3.477 v 59.998 c -0.014,0.538 -0.156,1.075 -0.411,1.584 -0.875,1.695 -2.969,2.347 -4.666,1.471 -2.346,-1.217 -4.51,-2.715 -6.417,-4.412 -1.937,-1.724 -3.676,-3.703 -5.146,-5.852 -1.781,-2.574 -3.182,-5.457 -4.127,-8.512 -0.919,-2.996 -1.414,-6.135 -1.414,-9.357 v -34.92 c 0,-1.895 1.555,-3.479 3.478,-3.479 h 15.226 c 1.907,0 3.477,1.584 3.477,3.479 z m 60.267,-17.7 c -1.923,0 -3.478,-1.556 -3.478,-3.479 0,-1.923 1.555,-3.478 3.478,-3.478 h 81.373 V 139.07 h -141.64 v 20.047 c 0,1.923 -1.57,3.479 -3.478,3.479 h -26.875 v 48.942 c 0,4.495 0.735,8.765 2.093,12.752 1.398,4.155 3.492,8.03 6.106,11.451 2.544,3.308 5.57,6.192 8.963,8.567 3.336,2.347 7.068,4.185 11.041,5.429 1.3,0.396 2.304,1.555 2.432,2.997 0.635,7.068 2.36,13.91 4.991,20.244 l 0.056,0.142 c 2.729,6.587 6.433,12.694 10.915,18.124 4.552,5.485 9.923,10.291 15.889,14.223 5.854,3.844 12.357,6.87 19.255,8.849 1.216,0.34 2.178,1.329 2.46,2.63 0.933,4.411 1.3,8.878 1.188,13.317 -0.114,4.383 -0.708,8.765 -1.669,13.12 l -0.028,0.112 c -1.01799,4.608 -2.47399,9.188 -4.24099,13.77 -1.526,3.901 -3.27901,7.804 -5.188,11.706 h 53.73499 c -1.81,-3.619 -3.492,-7.295 -4.977,-11.027 l -0.141,-0.283 c -1.767,-4.467 -3.223,-9.047 -4.269,-13.684 -0.99,-4.383 -1.585,-8.851 -1.684,-13.346 -0.098,-4.524 0.283,-9.105 1.259,-13.714 0.254,-1.216 1.174,-2.262 2.46,-2.602 6.897,-2.007 13.373,-5.005 19.227,-8.849 5.967,-3.932 11.323,-8.737 15.875,-14.251 4.496,-5.429 8.215,-11.536 10.93,-18.096 2.645,-6.39 4.367,-13.232 5.032,-20.357 0.114,-1.386 1.032,-2.63 2.433,-3.054 3.986,-1.244 7.719,-3.082 11.055,-5.4 3.394,-2.375 6.418,-5.287 8.935,-8.567 2.629,-3.421 4.722,-7.296 6.135,-11.451 1.345,-3.987 2.094,-8.284 2.094,-12.752 v -48.942 h -26.89 c -1.924,0 -3.479,-1.556 -3.479,-3.479 v -1.385 z m -17.502,-6.956 c 1.921,0 3.478,1.555 3.478,3.478 0,1.923 -1.556,3.479 -3.478,3.479 h -17.191 c -1.923,0 -3.478,-1.556 -3.478,-3.479 0,-1.923 1.555,-3.478 3.478,-3.478 z m 54.032,55.956 c -6.646,-6.645 -15.833,-10.773 -25.97,-10.773 -10.065,0 -19.185,4.043 -25.8,10.603 l -0.17,0.171 c -6.644,6.644 -10.758,15.832 -10.758,25.955 0,10.15 4.115,19.34 10.758,25.984 6.631,6.645 15.819,10.744 25.971,10.744 10.137,0 19.324,-4.1 25.97,-10.744 6.644,-6.645 10.759,-15.834 10.759,-25.984 0,-10.065 -4.043,-19.17 -10.589,-25.786 z m -25.97,-17.728 c 12.059,0 22.973,4.891 30.891,12.808 l 0.196,0.227 c 7.775,7.888 12.583,18.718 12.583,30.649 0,12.073 -4.893,22.986 -12.779,30.904 -7.918,7.889 -18.832,12.779 -30.891,12.779 -12.045,0 -22.974,-4.891 -30.875,-12.809 -7.903,-7.889 -12.81,-18.802 -12.81,-30.875 0,-12.045 4.892,-22.987 12.794,-30.876 l 0.212,-0.197 c 7.876,-7.775 18.719,-12.61 30.679,-12.61 z m 3.266,38.057 -3.266,-10.122 -3.266,10.122 c -0.453,1.385 -1.767,2.404 -3.308,2.404 l -10.646,-0.029 8.553,6.193 c 1.244,0.848 1.825,2.431 1.344,3.93 l -3.31,10.121 8.583,-6.248 c 1.188,-0.877 2.841,-0.933 4.085,-0.028 l 8.597,6.276 -3.31,-10.121 c -0.438,-1.387 0.014,-2.96901 1.258,-3.87401 l 8.625,-6.24899 -10.434,0.029 c -1.54,0.084 -3.011,-0.849 -3.505,-2.404 z m 1.498,-17.926 4.325,13.402 14.337,-0.028 c 1.555,0 2.854,1.01801 3.308,2.403 l 0.848,2.629 c 0.467,1.471 -0.085,2.99801 -1.272,3.87401 l -11.606,8.39699 4.454,13.657 c 0.522,1.583 -0.17,3.279 -1.557,4.071 l -2.092,1.413 c -1.286,0.876 -2.955,0.765 -4.099,-0.14199 l -11.409,-8.31301 -11.606,8.454 c -1.244,0.905 -2.885,0.849 -4.073,0 l -2.234,-1.61 c -1.23,-0.906 -1.695,-2.488 -1.244,-3.874 l 4.439,-13.65699 -11.606,-8.39701 c -1.258,-0.905 -1.725,-2.544 -1.244,-3.93 l 0.833,-2.57299 c 0.481,-1.52701 1.951,-2.488 3.506,-2.40301 l 14.138,0.028 4.41,-13.629 c 0.467,-1.471 1.839,-2.431 3.293,-2.431 h 2.759 c 1.639,0.002 3.025,1.132 3.392,2.659 z m -82.547,19.678 v -49.904 h -8.27 v 31.442 c 0,2.572 0.367,5.032 1.074,7.322 0.735,2.375 1.837,4.608 3.238,6.645 1.117,1.64 2.46,3.167 3.958,4.495 z"
   style="clip-rule:evenodd;fill:#f57c00;fill-opacity:1;fill-rule:evenodd;stroke-width:1"
   id="path2-1"
   sodipodi:nodetypes="csssssccccccccccsccsccccccsssssssscccsscscccccccccccccccccccccccccccccccscsscsssssssscsccscscsccsccscscsccscccccccccccccccccccccccccccccccccccccccscccccsccc" /><path
   d="m 218.579,359.498 c -0.198,1.839 -1.767,3.252 -3.648,3.252 -2.036,0 -3.69,-1.64 -3.69,-3.676 0,-0.396 0.072,-0.764 0.184,-1.131 0.877,-4.1 1.442,-8.172 1.541,-12.243 0.1,-3.421 -0.126,-6.87 -0.721,-10.319 -7.225,-2.29 -14.024,-5.57 -20.215,-9.642 -6.956,-4.553 -13.176,-10.122 -18.463,-16.513 -5.203,-6.277 -9.515,-13.402 -12.696,-21.064 -3.082,-7.436 -5.104,-15.438 -5.868,-23.751 -0.183,-2.007 1.316,-3.816 3.323,-3.986 2.007,-0.169 3.803,1.301 3.973,3.309 0.691,7.577 2.53,14.843 5.357,21.601 2.869,6.984 6.8,13.459 11.564,19.199 4.806,5.824 10.49,10.885 16.824,15.07 6.235,4.071 13.091,7.267 20.399,9.359 1.258,0.366 2.304,1.413 2.588,2.771 0.988,4.692 1.385,9.415 1.272,14.138 -0.127,4.55 -0.734,9.103 -1.724,13.626 z m -97.336,110.554 c -1.908,0 -3.478,-1.555 -3.478,-3.479 0,-1.894 1.57,-3.477 3.478,-3.477 h 112.081 45.336 64.637 c 1.907,0 3.476,1.583 3.476,3.477 0,1.924 -1.568,3.479 -3.476,3.479 z m 113.466,15.947 c -1.908,0 -3.478,-1.556 -3.478,-3.479 0,-1.922 1.57,-3.478 3.478,-3.478 h 181.31 c 1.923,0 3.478,1.556 3.478,3.478 0,1.923 -1.555,3.479 -3.478,3.479 z m 199.858,0 c -1.909,0 -3.464,-1.556 -3.464,-3.479 0,-1.922 1.555,-3.478 3.464,-3.478 h 22.675 c 1.924,0 3.479,1.556 3.479,3.478 0,1.923 -1.555,3.479 -3.479,3.479 z m -363.61,-0.481 c -1.921,0 -3.478,-1.555 -3.478,-3.478 0,-1.923 1.556,-3.479 3.478,-3.479 h 85.913 c 1.923,0 3.478,1.556 3.478,3.479 0,1.923 -1.555,3.478 -3.478,3.478 z"
   style="clip-rule:evenodd;fill:#999999;fill-opacity:1;fill-rule:evenodd;stroke-width:1"
   id="path2-5"
   sodipodi:nodetypes="cssccccccccccccccccsssccsssssssssssssssssssssssss" /></g>

</g>

<g
   id="Layer_1"
   style="fill:#999999;fill-opacity:1" />

</svg>
