<?xml version="1.0" encoding="UTF-8" standalone="no"?>
<svg
   xmlns:dc="http://purl.org/dc/elements/1.1/"
   xmlns:cc="http://creativecommons.org/ns#"
   xmlns:rdf="http://www.w3.org/1999/02/22-rdf-syntax-ns#"
   xmlns:svg="http://www.w3.org/2000/svg"
   xmlns="http://www.w3.org/2000/svg"
   xmlns:sodipodi="http://sodipodi.sourceforge.net/DTD/sodipodi-0.dtd"
   xmlns:inkscape="http://www.inkscape.org/namespaces/inkscape"
   width="800px"
   height="800px"
   viewBox="0 0 1024 1024"
   class="icon"
   version="1.1"
   id="svg6"
   sodipodi:docname="beetle.svg"
   inkscape:version="1.0.1 (3bc2e813f5, 2020-09-07)"
   inkscape:export-filename="C:\Users\keega\Documents\cannlytics\cannlytics\app\assets\images\icons\bug.png"
   inkscape:export-xdpi="96"
   inkscape:export-ydpi="96">
  <metadata
     id="metadata12">
    <rdf:RDF>
      <cc:Work
         rdf:about="">
        <dc:format>image/svg+xml</dc:format>
        <dc:type
           rdf:resource="http://purl.org/dc/dcmitype/StillImage" />
      </cc:Work>
    </rdf:RDF>
  </metadata>
  <defs
     id="defs10" />
  <sodipodi:namedview
     pagecolor="#ffffff"
     bordercolor="#666666"
     borderopacity="1"
     objecttolerance="10"
     gridtolerance="10"
     guidetolerance="10"
     inkscape:pageopacity="0"
     inkscape:pageshadow="2"
     inkscape:window-width="1920"
     inkscape:window-height="1094"
     id="namedview8"
     showgrid="false"
     inkscape:zoom="0.470625"
     inkscape:cx="607.4048"
     inkscape:cy="605.00309"
     inkscape:window-x="-11"
     inkscape:window-y="-11"
     inkscape:window-maximized="1"
     inkscape:current-layer="svg6" />
  <path
     d="M415.744 452.608c3.072-25.088-8.704-52.224-34.816-58.368-3.072-0.512-5.632-0.512-7.68 0.512-26.112-4.608-40.96 17.92-43.52 41.472-3.584 27.136 13.312 46.08 39.936 50.688 24.576 4.608 43.008-8.704 46.08-34.304zM353.28 449.024c-2.048-8.192 1.536-33.28 14.848-30.72 2.56 0.512 5.12 0.512 7.168-0.512 19.456 5.632 26.112 48.64 0.512 46.08-9.216-1.024-19.968-5.12-22.528-14.848zM404.992 541.696c-2.56 0-4.608 0.512-6.656 1.536h-1.536c-29.184 4.096-39.424 41.984-35.84 67.072 4.096 29.184 33.792 43.008 61.44 38.912 27.136-4.096 40.448-29.696 37.376-55.808-3.072-28.672-25.6-50.688-54.784-51.712z m11.776 84.48c-15.36 2.048-30.72-5.632-32.256-22.016-1.536-13.312 4.096-35.328 18.944-37.376 1.024 0 2.048-0.512 2.56-0.512 29.696 2.048 46.08 55.296 10.752 59.904zM405.504 706.56c-5.12-2.048-9.216-0.512-11.776 2.56-1.024 0-2.56 0-3.584 0.512-54.784 19.456-39.936 96.768 17.92 96.768 24.576 0 41.984-27.648 42.496-50.688 0.512-26.624-23.04-40.448-45.056-49.152z m2.56 76.288c-30.72 4.608-39.424-39.936-11.776-49.664 1.536-0.512 3.072-1.536 4.096-2.56 8.704 3.584 19.456 8.704 24.064 17.408 5.632 10.752-4.096 32.768-16.384 34.816zM657.92 390.144c-2.048-0.512-4.096-0.512-5.632-0.512-1.536-1.024-3.584-1.536-5.632-1.536-27.648-1.024-34.816 28.16-36.352 50.688-1.536 26.112 16.384 43.008 41.472 46.592 26.624 4.096 45.056-14.848 48.128-40.448 1.024-10.752 2.56-26.112-4.608-34.816-8.192-10.752-24.576-15.872-37.376-19.968z m18.944 45.056c-0.512 12.8-3.072 27.648-18.944 27.136-10.752-0.512-22.016-6.144-23.04-17.408-1.024-8.192 0.512-32.768 12.288-32.256h2.56c1.024 0.512 1.536 1.024 2.56 1.024 6.144 2.048 15.36 4.096 20.48 8.704 4.608 4.608 4.096 4.096 4.096 12.8zM611.84 545.28c-3.072 0-5.632 1.024-7.68 2.56-2.048-1.024-4.096-1.024-6.656-1.024-27.648 3.584-39.936 35.328-34.304 59.904 6.144 27.648 33.792 45.568 61.952 42.496 26.624-3.072 48.64-26.624 50.688-53.76 1.536-34.304-35.84-49.152-64-50.176z m38.912 51.2c-2.56 13.312-13.312 25.088-26.112 28.16-13.824 3.072-29.184-3.584-35.84-15.872-7.168-14.336-3.584-36.352 14.336-38.4 1.536 0 3.072-1.024 4.608-1.536 1.024 0.512 2.048 0.512 3.584 0.512 15.872 0.512 43.52 6.656 39.424 27.136zM605.184 709.12c-5.632 0.512-9.216 4.608-10.752 8.704h-0.512c-20.992 12.288-26.112 48.64-18.432 70.144 8.704 24.064 37.888 36.864 61.952 30.208 27.136-7.168 35.84-39.424 29.696-64.512-6.656-27.648-32.768-47.104-61.952-44.544z m25.088 86.528c-12.288 3.072-28.16-3.584-32.256-15.872-3.584-9.728-1.536-34.816 8.704-40.448 2.56-1.536 4.096-3.584 5.12-5.632 13.824 0.512 26.112 8.192 31.232 22.528 4.096 12.288 3.584 34.816-12.8 39.424z"
     fill="#77620B"
     id="path2"
     style="fill:#ff7415;fill-opacity:1" />
  <path
     d="M973.312 697.856c-12.288 2.048-27.136 4.608-39.424 1.024-17.92-4.608-23.552-19.968-30.208-35.84-12.288-29.696-24.064-59.392-36.352-89.6-7.168-17.408-12.288-44.544-31.232-52.736-20.48-8.704-49.152-7.168-72.192-6.144-0.512-14.336-1.024-29.184-2.048-43.52-1.024-15.872-3.072-31.744-6.144-48.128 0.512-0.512 1.024-0.512 1.024-1.024 18.432-19.968 37.376-39.936 55.808-59.904 17.408-18.432 39.424-52.736 64.512-59.392 19.968-5.12 39.936 6.144 59.392-3.584 16.896-8.704 24.064-28.16 37.376-40.448 11.264-10.752-5.632-27.648-16.896-16.896-18.944 17.92-24.064 40.96-54.784 37.376-19.968-2.56-35.328-2.048-51.712 10.24-19.456 14.336-35.328 35.328-51.712 52.736-16.896 17.92-33.28 35.84-50.176 53.76-21.504-76.8-69.632-151.552-137.216-188.416 20.992-21.504 40.448-45.056 50.176-73.728 12.288-36.352 8.704-75.264 5.12-112.64-1.536-15.36-25.6-15.36-24.064 0 3.072 32.256 6.656 66.56-2.048 98.304-8.192 30.72-29.696 54.272-51.712 76.288l-1.024 1.024c-21.504-8.192-45.056-12.8-70.144-12.8-35.328-3.584-67.584 6.144-96.256 23.04-1.024-3.072-3.584-5.632-7.68-6.656-27.648-7.168-38.912-53.76-43.008-77.312-5.12-29.696-3.072-60.416-1.536-90.624 1.024-15.36-23.04-15.36-24.064 0-2.048 39.936-4.096 81.408 7.68 120.32 7.68 25.088 22.016 57.856 47.616 68.608-18.432 13.824-35.328 30.208-50.176 48.128-32.768 38.912-63.488 80.384-79.36 128.512-30.72-37.376-65.024-75.264-104.448-103.936-13.824-10.24-25.6-10.752-41.984-10.24-27.648 1.536-51.712-10.752-66.56-34.304-8.192-12.8-29.184-1.024-20.992 12.288 10.24 16.384 24.064 29.696 41.472 37.888 19.456 9.216 35.84 6.656 56.32 7.68 23.552 1.024 48.128 31.744 64 47.616 20.48 19.968 39.936 41.472 57.856 63.488 2.048 2.56 5.12 4.096 7.68 4.096-1.536 6.144-2.56 12.8-3.584 18.944-3.584 27.648-5.632 56.32-6.144 84.992-24.576-3.072-60.928-10.24-83.456-1.024-17.92 7.68-28.16 37.376-37.888 52.736-13.312 20.992-29.184 42.496-36.352 66.56-4.096 12.8-1.024 26.112-14.848 31.232-10.752 4.096-26.112 1.536-37.888 3.584-15.36 2.56-8.704 26.112 6.144 23.04 18.944-3.584 40.96 2.048 56.32-12.8 14.336-13.824 12.288-39.936 21.504-57.344 12.8-23.552 28.16-46.08 41.984-68.608 4.608-7.68 6.656-13.312 15.36-15.872 7.168-2.56 17.408-1.024 24.576-1.024 14.848 0.512 29.696 1.536 44.544 3.072 0 34.304 1.536 68.608 4.608 101.888 2.048 27.648 6.144 54.784 13.824 80.896-34.304 18.432-47.616 56.832-52.736 94.72-3.072 24.064-4.608 48.64-7.168 73.216-1.536 14.848-1.024 32.256-4.096 46.592-4.096 18.432-15.872 22.528-33.28 25.6-15.36 2.56-8.704 26.112 6.144 23.04 16.384-3.072 33.792-7.68 44.032-22.528 11.264-17.408 8.704-44.032 10.752-63.488 4.096-45.056-1.024-126.976 44.032-154.112 9.216 25.088 22.016 49.152 39.936 70.656 38.4 47.104 94.72 77.312 155.136 83.968 8.192 1.024 16.384 1.536 24.576 1.536 3.584 2.048 8.704 2.048 12.288-0.512 53.248-2.56 100.352-25.088 140.8-63.488 28.672-27.648 52.736-57.856 70.656-91.648 2.048 0.512 4.608 0 6.656-1.024 47.104-20.48 41.984 51.2 41.472 76.8-0.512 31.744-4.096 62.976-4.096 94.72 0 41.472 22.528 86.016 70.144 79.36 15.36-2.048 8.704-25.6-6.144-23.04-46.08 6.656-39.424-61.952-37.888-89.088 2.048-34.304 4.096-68.608 2.56-102.912-1.536-36.864-25.6-65.536-59.904-61.44 6.656-15.872 11.776-31.744 15.36-49.152 10.24-46.08 12.288-94.208 11.776-141.824 14.336 0 28.16 0 42.496 1.024 15.872 1.536 20.992 4.608 29.184 18.944 4.096 7.168 7.168 17.408 10.24 25.6 12.288 29.696 24.064 59.904 36.352 89.6 7.68 18.944 15.872 36.864 36.352 45.056 19.456 8.192 40.96 5.12 61.44 1.536 14.848-1.536 8.192-25.088-6.656-22.528z m-454.656-489.984c12.8 0 25.088 1.536 36.864 4.096 0 1.024-0.512 1.536-0.512 2.56-0.512 12.8 3.072 39.424-2.048 51.2-0.512 1.536-0.512 2.56-0.512 3.072-5.12 0-10.24 0.512-15.36 0.512h-24.064c-8.192 0-16.384-0.512-24.064-0.512-1.536 0-20.992 1.024-20.48 1.536-4.608-3.584 0-48.128 0-54.272 0-1.024 0-2.56-0.512-3.584 15.36-4.608 32.256-6.144 50.688-4.608z m-74.24 14.336v36.352c0 7.68-1.536 17.92 3.584 25.088 11.264 15.36 48.64 9.216 65.024 9.728 15.872 0 49.152 6.144 59.904-9.216 4.608-6.144 3.584-14.848 4.096-22.016l1.536-43.008c29.696 11.264 56.32 31.232 78.848 55.808-44.032 50.688-92.16 97.792-143.872 141.312-44.544-47.616-91.648-92.672-141.312-135.168 21.504-24.064 45.056-45.568 72.192-58.88zM360.448 833.536c-29.184-26.624-48.128-59.392-60.416-94.72 0-3.072-1.024-5.632-2.56-7.68-22.528-72.704-17.92-156.672-15.872-229.888 1.024-32.256 2.048-64.512 11.776-95.744 10.24-31.744 28.672-60.416 48.64-87.04l15.36-19.968c48.64 41.984 95.232 86.528 139.264 133.632v1.536c1.536 151.04 0.512 302.592-2.048 453.632-49.152-1.024-97.28-19.968-134.144-53.76z m376.32-217.088c-4.608 63.488-22.016 122.88-61.952 173.056-38.912 49.152-85.504 90.112-150.016 97.28-2.048 0-4.096 0.512-6.144 0.512 2.56-148.992 3.584-297.472 2.048-446.464l3.072-1.536c53.76-44.544 103.424-93.184 149.504-145.92 31.744 40.96 52.736 90.624 60.416 137.216 9.728 59.904 7.68 125.44 3.072 185.856z"
     fill="#77620B"
     id="path4"
     style="fill:#999999;fill-opacity:1" />
</svg>
