<?xml version="1.0" encoding="UTF-8" standalone="no"?>
<svg
   xmlns:dc="http://purl.org/dc/elements/1.1/"
   xmlns:cc="http://creativecommons.org/ns#"
   xmlns:rdf="http://www.w3.org/1999/02/22-rdf-syntax-ns#"
   xmlns:svg="http://www.w3.org/2000/svg"
   xmlns="http://www.w3.org/2000/svg"
   xmlns:sodipodi="http://sodipodi.sourceforge.net/DTD/sodipodi-0.dtd"
   xmlns:inkscape="http://www.inkscape.org/namespaces/inkscape"
   width="800px"
   height="800px"
   viewBox="0 0 64 64"
   id="duotone_outline"
   version="1.1"
   sodipodi:docname="bottle-orange.svg"
   inkscape:version="1.0.1 (3bc2e813f5, 2020-09-07)"
   inkscape:export-filename="C:\Users\keega\Documents\cannlytics\cannlytics\app\assets\images\icons\products.png"
   inkscape:export-xdpi="96"
   inkscape:export-ydpi="96">
  <metadata
     id="metadata23">
    <rdf:RDF>
      <cc:Work
         rdf:about="">
        <dc:format>image/svg+xml</dc:format>
        <dc:type
           rdf:resource="http://purl.org/dc/dcmitype/StillImage" />
        <dc:title></dc:title>
      </cc:Work>
    </rdf:RDF>
  </metadata>
  <defs
     id="defs21" />
  <sodipodi:namedview
     pagecolor="#ffffff"
     bordercolor="#666666"
     borderopacity="1"
     objecttolerance="10"
     gridtolerance="10"
     guidetolerance="10"
     inkscape:pageopacity="0"
     inkscape:pageshadow="2"
     inkscape:window-width="1920"
     inkscape:window-height="1094"
     id="namedview19"
     showgrid="false"
     inkscape:zoom="0.66556426"
     inkscape:cx="241.26329"
     inkscape:cy="389.47927"
     inkscape:window-x="-11"
     inkscape:window-y="-11"
     inkscape:window-maximized="1"
     inkscape:current-layer="duotone_outline" />
  <path
     d="M53,54H11a1,1,0,0,1,0-2H53a1,1,0,0,1,0,2Z"
     style="fill:#f57c00;fill-opacity:1"
     id="path2" />
  <path
     d="M53,38H44a1,1,0,0,1-1-1,11,11,0,0,0-22,0,1,1,0,0,1-1,1H11a1,1,0,0,1,0-2h8.038a13,13,0,0,1,25.924,0H53a1,1,0,0,1,0,2Z"
     style="fill:#f57c00;fill-opacity:1"
     id="path4" />
  <path
     d="M49,62H15a5.006,5.006,0,0,1-5-5V23a5.006,5.006,0,0,1,5-5V13a1,1,0,0,1,2,0v6a1,1,0,0,1-1,1H15a3,3,0,0,0-3,3V57a3,3,0,0,0,3,3H49a3,3,0,0,0,3-3V23a3,3,0,0,0-3-3H48a1,1,0,0,1-1-1V13a1,1,0,0,1,2,0v5a5.006,5.006,0,0,1,5,5V57A5.006,5.006,0,0,1,49,62Z"
     style="fill:#363636"
     id="path6" />
  <path
     d="M48,20H30a1,1,0,0,1,0-2H48a1,1,0,0,1,0,2Z"
     style="fill:#363636"
     id="path8" />
  <path
     d="M22,20H16a1,1,0,0,1,0-2h6a1,1,0,0,1,0,2Z"
     style="fill:#363636"
     id="path10" />
  <path
     d="M49,14H15a5.006,5.006,0,0,1-5-5V7a5.006,5.006,0,0,1,5-5H49a5.006,5.006,0,0,1,5,5V9A5.006,5.006,0,0,1,49,14ZM15,4a3,3,0,0,0-3,3V9a3,3,0,0,0,3,3H49a3,3,0,0,0,3-3V7a3,3,0,0,0-3-3Z"
     style="fill:#f57c00;fill-opacity:1"
     id="path12" />
  <path
     d="M32,46a9,9,0,1,1,9-9A9.01,9.01,0,0,1,32,46Zm0-16a7,7,0,1,0,7,7A7.008,7.008,0,0,0,32,30Z"
     style="fill:#f57c00;fill-opacity:1"
     id="path14" />
  <rect
     height="2"
     rx="1"
     style="fill:#f57c00;fill-opacity:1"
     width="26"
     x="19"
     y="48"
     id="rect16" />
</svg>
