<?xml version="1.0" encoding="utf-8"?>
<!-- Uploaded to: SVG Repo, www.svgrepo.com, Generator: SVG Repo Mixer Tools -->
<svg width="800px" height="800px" viewBox="0 0 1024 1024" class="icon"  version="1.1" xmlns="http://www.w3.org/2000/svg"><path d="M272.876702 614.962932h53.242037v26.621019h-53.242037zM272.876702 679.467708h53.242037v26.621018h-53.242037zM272.876702 744.996368h53.242037v26.621019h-53.242037zM272.876702 810.525029h53.242037v26.621019h-53.242037zM505.373414 774.859008c-25.217272 0-45.732862-20.51559-45.732862-45.732862s20.51559-45.732862 45.732862-45.732862c25.2142 0 45.732862 20.51559 45.732862 45.732862s-20.518662 45.732862-45.732862 45.732862z m0-65.333099c-10.808133 0-19.600237 8.792103-19.600237 19.600237s8.792103 19.600237 19.600237 19.600237c10.808133 0 19.600237-8.792103 19.600237-19.600237s-8.792103-19.600237-19.600237-19.600237z" fill="#FFB612" /><path d="M747.105572 523.837138h-23.718303v-10.309501c0-14.409138-7.601325-28.598141-22.014559-28.598141h-26.132625c-14.413234 0-29.668101 14.187979-29.668101 28.598141v10.309501H625.054346l-27.423745-58.145423c-7.675044-17.91185-29.874926-30.564001-50.352632-30.564001v-41.324012h62.627994c21.616267 0 35.664998-15.459645 35.664997-37.074888v-68.3853h-24.573248v68.3853c0 7.206105-3.888716 10.453869-11.091749 10.45387H400.840866c-7.206105 0-17.384549-3.247764-17.384549-10.45387V226.063641c0-7.206105 10.178444-15.534388 17.384549-15.534388h121.863855v-26.621019H400.840866c-21.616267 0-41.957797 20.540164-41.957797 42.155407v130.665173c0 21.616267 20.34153 37.074888 41.957797 37.074888h56.335194v41.324012c-14.334395 0-39.531189 12.651127-47.206233 30.560929l-24.279392 58.148495h-26.807366v-10.309501c0-14.409138-8.96514-28.598141-23.375302-28.598141h-26.132625c-14.409138 0-30.355128 14.187979-30.355128 28.598141v10.309501h-15.377734c-28.8193 0-55.270354 26.204297-55.270354 55.022574v300.53082c0 28.8193 26.451053 49.904171 55.270354 49.904171h483.463292c28.8193 0 48.977555-21.08487 48.977555-49.904171v-300.53082c-0.001024-28.818276-20.159278-55.022573-48.977555-55.022574z m-74.913594-13.310509h25.597134v13.310509h-25.597134v-13.310509z m-190.44267-116.722927h40.955413v38.907642h-40.955413v-38.907642z m-46.525349 81.215608c3.611244-8.424528 15.248724-15.685923 24.416593-15.685923h91.465724c9.167869 0 20.80535 7.258323 24.416593 15.688994l21.101253 48.815781H414.124754l21.099205-48.818852z m-102.961908 35.507319v13.310509h-26.621019v-13.310509h26.621019z m-68.619771 392.148079c-14.409138 0-28.649335-8.874014-28.649335-23.283152v-300.53082c0-14.409138 14.239173-29.42544 28.649335-29.425441h32.666037c10.62281 0 16.499912 15.258963 16.499912 29.425441v300.53082c0 14.167501-5.877102 23.283152-16.499912 23.283152h-32.666037z m505.818804-23.283152c0 14.409138-7.943302 23.283152-22.356536 23.283152H335.85384c3.910218-6.143312 3.576431-13.758971 3.576432-23.283152v-300.53082c0-9.524181 0.334811-15.091046-3.576432-29.425441h411.251732c14.413234 0 22.356536 15.016302 22.356536 29.425441v300.53082z" fill="#262626" /><path d="M505.373414 611.526773c-64.844705 0-117.599373 52.754667-117.599373 117.599373S440.528709 846.725519 505.373414 846.725519c64.841634 0 117.599373-52.754667 117.599373-117.599373S570.215048 611.526773 505.373414 611.526773z m0 209.065097c-50.435567 0-91.465724-41.031181-91.465724-91.465724s41.031181-91.465724 91.465724-91.465724 91.465724 41.031181 91.465724 91.465724-41.030157 91.465724-91.465724 91.465724zM742.840066 633.929384c0-14.432688-11.699938-26.132625-26.132625-26.132625h-25.549011c-14.432688 0-26.132625 11.699938-26.132625 26.132625v12.238501c0 14.432688 11.699938 26.132625 26.132625 26.132625h25.549011c14.432688 0 26.132625-11.699938 26.132625-26.132625v-12.238501z m-21.906027 13.797879h-29.287215v-13.31051h29.326123l-0.038908 13.31051zM718.266818 727.590318h24.573248v115.699042h-24.573248zM594.376694 263.282896c0-14.432688-11.699938-26.132625-26.132625-26.132625H436.210984c-14.432688 0-26.132625 11.699938-26.132625 26.132625v52.170029c0 14.432688 11.699938 26.132625 26.132625 26.132625h132.033085c14.432688 0 26.132625-11.699938 26.132625-26.132625v-52.170029z m-157.67834-0.536516h26.621018v52.218152h-26.621018v-52.218152z m53.242037 0h24.573247v52.218152h-24.573247v-52.218152z m80.728238 52.218152h-29.532948v-52.218152h29.571856l-0.038908 52.218152z" fill="#262626" /><path d="M671.068776 151.834003l46.183372 18.525157c13.670917 5.48393 13.670917 14.457261 0 19.94119l-46.183372 18.525158-18.525157 46.183371c-5.48393 13.670917-14.457261 13.670917-19.94119 0l-18.525158-46.183371-46.183371-18.525158c-13.670917-5.48393-13.670917-14.457261 0-19.94119l46.183371-18.525157 18.525158-46.183372c5.48393-13.670917 14.457261-13.670917 19.94119 0l18.525157 46.183372z" fill="#E0E0E0" /></svg>