<?xml version="1.0" encoding="utf-8"?>
<!-- Uploaded to: SVG Repo, www.svgrepo.com, Generator: SVG Repo Mixer Tools -->
<svg width="800px" height="800px" viewBox="0 0 1024 1024" class="icon"  version="1.1" xmlns="http://www.w3.org/2000/svg"><path d="M459.4 735.5c-1-1-2-1.8-2.8-2.6-17.2-16.6-81.7-86.1-103-111-4.1-4.8-13.7-19.9-22.1-33.3-8.9-14-18-28.5-25.6-38.9-7.6-10.5-14.4-18.5-21.5-25.4-4.8-4.6-9.1-7.9-13.5-10.3-7.2-3.8-14.5-5.8-21.6-5.8-26.1 0-38.7 24.3-40.1 32.6-0.5 3.1-0.5 6.5-0.1 11.4 1.3 14.5 5.9 29 13.5 41.9l12.9 22.1 27.3 41.5c0.1 0.2 0.3 0.4 0.4 0.7-17-9-36.7-20.4-45-32.5-9.8-14.2-19.7-45.6-22.9-57.1l-32.7-147.5c-4.6-34.7-28.8-47-48.3-47-1.9 0-3.5 0.1-4.6 0.2-34.8 2.5-46.5 30.7-45.8 49.4 0.4 30.5 39 220.1 45.4 245.8 8.1 32.5 28.7 50.1 33.1 53.6 9.9 8.4 150.6 127.6 164 138.2 3.7 2.9 5 5.1 5.4 5.9l3.1 50.5c1.5 24.7 22.2 44 47 44h89.9c26 0 47.1-21.1 47.1-46.9v-84.4c1.8-57.4-27.1-83.8-39.5-95.1z m-0.5 94.1V915c0 3.8-3.2 6.9-7.1 6.9h-89.9c-3.7 0-6.9-2.9-7.1-6.5l-3.1-50.4c-0.2-6-2.8-20.9-20.6-34.9-10.5-8.3-111.4-93.6-163.3-137.6l-1-0.8c-0.1-0.1-13.8-11.1-18.9-31.7-7.7-31.1-44.2-214.9-44.2-236.6v-0.9s0.2-2.5 1.1-4.5c0.6-1.3 1.6-3.4 7.8-3.8l0.2 0.2 1.3-0.3c2.3 0 7.1 0 8.7 12.8l0.1 1 33.2 149.9 0.2 0.9c1.3 4.8 13.1 47.2 28.6 69.7 15.3 22.3 45.5 38 67.6 49.6 6.1 3.2 11.4 6 15.3 8.3 3.1 1.8 8.4 4.7 14.3 7.1 3.4 1.5 7.1 2.2 10.7 2.2 10.3 0 19.6-5.7 24.4-14.9 4.7-9.1 4-19.9-1.7-28.3-1-1.5-4.7-8.5-13.1-25.4-1.9-3.9-4.1-7.7-6.5-11.3l-26.7-40.5-12.2-21.1c-4.5-7.8-7.3-16.4-8.2-25 0.2-0.3 0.5-0.6 0.7-0.7 0.4 0.1 1.3 0.4 2.5 1 0.4 0.2 1.7 1 4.5 3.7 5.4 5.2 10.8 11.6 17 20.2 6.8 9.4 15.6 23.3 24.2 36.8 10.5 16.6 19.6 31 25.6 37.9 22.4 26.1 87.5 96.2 105.6 113.7 1.2 1.1 2.4 2.2 3.7 3.4 10.9 10 27.6 25.3 26.3 64.5zM913.1 376.5c-1.1-0.1-2.6-0.2-4.5-0.2-19.4 0-43.4 12.3-48 46.7l-32.4 146.2c-3 10.7-13 42.5-22.6 56.5-8.1 11.8-27.3 23-43.9 31.9v-0.1l26.8-40.6 13.1-22.4c7.5-12.8 12.1-27.2 13.4-41.6 0.4-4.9 0.4-8.3-0.1-11.4-1.4-8.3-13.9-32.5-39.9-32.5-7.1 0-14.4 1.9-21.5 5.7-4.4 2.3-8.7 5.6-13.5 10.2-7.1 6.8-13.9 14.9-21.4 25.2s-16.6 24.7-25.3 38.6c-8.4 13.2-17.9 28.3-21.9 33-21.2 24.7-85.1 93.5-102.1 109.9-0.8 0.8-1.8 1.6-2.8 2.6-12.3 11.2-41 37.4-39.2 94.4v83.6c0 25.8 21 46.7 46.8 46.7h89.1c24.7 0 45.2-19.2 46.8-43.8l3.1-50c0.4-0.8 1.7-2.9 5.3-5.7 13.4-10.5 152.8-128.7 162.5-137 4.4-3.5 24.9-21 32.9-53.2 6.3-25.5 44.6-213.3 44.9-243.6 0.6-18.6-11-46.6-45.6-49.1z m5.5 48.7c0 21.5-36.1 203.6-43.8 234.4-4.8 19.5-17.5 30.3-18.7 31.3l-0.9 0.7C803.8 735.2 703.8 819.8 693.4 828c-17.7 13.9-20.2 28.7-20.4 34.7l-3.1 49.9c-0.2 3.5-3.2 6.3-6.8 6.3H574c-3.8 0-6.8-3-6.8-6.7v-84.7c-1.3-38.8 15.2-53.9 26.2-63.9 1.3-1.2 2.5-2.3 3.6-3.4 17.9-17.3 82.5-86.8 104.6-112.7 5.9-6.9 14.9-21.1 25.4-37.6 8.4-13.3 17.2-27.1 23.9-36.5 6.1-8.4 11.4-14.8 16.8-20 2.7-2.6 4.1-3.4 4.4-3.6 1.1-0.6 1.9-0.9 2.3-1 0.2 0.2 0.4 0.4 0.5 0.6-0.8 8.4-3.6 16.9-8 24.6l-12.2 20.9-26.5 40.2c-2.4 3.6-4.5 7.4-6.4 11.2-8.3 16.7-12 23.7-13 25.2-5.8 8.4-6.4 19.2-1.7 28.2 4.8 9.2 14.1 14.9 24.3 14.9 3.7 0 7.3-0.7 10.7-2.2 5.8-2.4 11.1-5.3 14.1-7.1 3.9-2.3 9.1-5.1 15.2-8.2 21.9-11.4 51.8-27.1 67-49.2 15.4-22.3 27.1-64.4 28.4-69.2L900 429.8l0.1-1c1.5-12.1 5.9-12.5 8.2-12.5l1.7 0.1c3.2 0.2 8.5 0.5 8.7 8v0.8h-0.1z" fill="#999799" /><path d="M755.5 371.9C775.1 340.7 802 298 802 238.1c0-101.4-75.3-184-167.7-184-44.8 0-87 19.3-118.3 53.6-31.3-34.3-73.5-53.6-118.3-53.6-92.5 0-167.8 82.5-167.8 184 0 59.9 26.9 102.6 46.5 133.8 58.5 92.9 204.2 207.5 210.4 212.3 8.5 6.7 18.6 10.2 29.2 10.2s20.7-3.5 29.2-10.2c6.1-4.9 151.6-119.1 210.3-212.3z m-445.3-21.4c-18.9-30-40.3-64.1-40.3-112.4 0-79.4 57.3-144 127.8-144 38.3 0 74.2 19.2 98.6 52.6l19.7 26.9 19.7-26.9c24.4-33.4 60.4-52.6 98.6-52.6 70.4 0 127.7 64.6 127.7 144 0 48.4-21.4 82.4-40.4 112.4-44.5 70.8-145 156.4-184.7 188.9V371.9c5 0.4 9.7 0.5 14 0.5 31.7 0 52.7-9.4 80.3-35.8 23.1-22 35.4-68.1 40.7-93.7 1.4-6.5-0.3-13.3-4.5-18.4-4.2-5.1-10.3-8.1-16.9-8.1-0.6 0-1.3 0-1.9 0.1-18.7 1.7-54.1 7.3-80.3 26.5-17.4 12.7-34.6 37.3-45.6 61.4-1.8-4.2-3.6-8-5.3-11.2-13-25.4-32.7-49.3-52.7-63.9-29.1-21.3-68.5-27.4-89.4-29.2-7.4-0.6-14.6 2.4-19.2 8.2-4.3 5.3-6 12.2-4.6 18.9 10.7 51.4 26.1 85.1 47.1 102.9 29.9 25.3 72.7 37.9 98.2 40V541c-38.2-31.2-141.4-118.7-186.6-190.5z" fill="#666666" /><path d="M459.4 735.5c-1-1-2-1.8-2.8-2.6-17.2-16.6-81.7-86.1-103-111-4.1-4.8-13.7-19.9-22.1-33.3-8.9-14-18-28.5-25.6-38.9-7.6-10.5-14.4-18.5-21.5-25.4-4.8-4.6-9.1-7.9-13.5-10.3-7.2-3.8-14.5-5.8-21.6-5.8-26.1 0-38.7 24.3-40.1 32.6-0.5 3.1-0.5 6.5-0.1 11.4 1.3 14.5 5.9 29 13.5 41.9l12.9 22.1 27.3 41.5c0.1 0.2 0.3 0.4 0.4 0.7-17-9-36.7-20.4-45-32.5-9.8-14.2-19.7-45.6-22.9-57.1l-32.7-147.5c-4.6-34.7-28.8-47-48.3-47-1.9 0-3.5 0.1-4.6 0.2-34.8 2.5-46.5 30.7-45.8 49.4 0.4 30.5 39 220.1 45.4 245.8 8.1 32.5 28.7 50.1 33.1 53.6 9.9 8.4 150.6 127.6 164 138.2 3.7 2.9 5 5.1 5.4 5.9l3.1 50.5c1.5 24.7 22.2 44 47 44h89.9c26 0 47.1-21.1 47.1-46.9v-84.4c1.8-57.4-27.1-83.8-39.5-95.1z" fill="#666666" /><path d="M458.9 829.6V915c0 3.8-3.2 6.9-7.1 6.9h-89.9c-3.7 0-6.9-2.9-7.1-6.5l-3.1-50.4c-0.2-6-2.8-20.9-20.6-34.9-10.5-8.3-111.4-93.6-163.3-137.6l-1-0.8c-0.1-0.1-13.8-11.1-18.9-31.7-7.7-31.1-44.2-214.9-44.2-236.6v-0.9s0.2-2.5 1.1-4.5c0.6-1.3 1.6-3.4 7.8-3.8l0.2 0.2 1.3-0.3c2.3 0 7.1 0 8.7 12.8l0.1 1 33.2 149.9 0.2 0.9c1.3 4.8 13.1 47.2 28.6 69.7 15.3 22.3 45.5 38 67.6 49.6 6.1 3.2 11.4 6 15.3 8.3 3.1 1.8 8.4 4.7 14.3 7.1 3.4 1.5 7.1 2.2 10.7 2.2 10.3 0 19.6-5.7 24.4-14.9 4.7-9.1 4-19.9-1.7-28.3-1-1.5-4.7-8.5-13.1-25.4-1.9-3.9-4.1-7.7-6.5-11.3l-26.7-40.5-12.2-21.1c-4.5-7.8-7.3-16.4-8.2-25 0.2-0.3 0.5-0.6 0.7-0.7 0.4 0.1 1.3 0.4 2.5 1 0.4 0.2 1.7 1 4.5 3.7 5.4 5.2 10.8 11.6 17 20.2 6.8 9.4 15.6 23.3 24.2 36.8 10.5 16.6 19.6 31 25.6 37.9 22.4 26.1 87.5 96.2 105.6 113.7 1.2 1.1 2.4 2.2 3.7 3.4 10.9 10 27.6 25.3 26.3 64.5z" fill="#CCCCCC" /><path d="M913.1 376.5c-1.1-0.1-2.6-0.2-4.5-0.2-19.4 0-43.4 12.3-48 46.7l-32.4 146.2c-3 10.7-13 42.5-22.6 56.5-8.1 11.8-27.3 23-43.9 31.9v-0.1l26.8-40.6 13.1-22.4c7.5-12.8 12.1-27.2 13.4-41.6 0.4-4.9 0.4-8.3-0.1-11.4-1.4-8.3-13.9-32.5-39.9-32.5-7.1 0-14.4 1.9-21.5 5.7-4.4 2.3-8.7 5.6-13.5 10.2-7.1 6.8-13.9 14.9-21.4 25.2s-16.6 24.7-25.3 38.6c-8.4 13.2-17.9 28.3-21.9 33-21.2 24.7-85.1 93.5-102.1 109.9-0.8 0.8-1.8 1.6-2.8 2.6-12.3 11.2-41 37.4-39.2 94.4v83.6c0 25.8 21 46.7 46.8 46.7h89.1c24.7 0 45.2-19.2 46.8-43.8l3.1-50c0.4-0.8 1.7-2.9 5.3-5.7 13.4-10.5 152.8-128.7 162.5-137 4.4-3.5 24.9-21 32.9-53.2 6.3-25.5 44.6-213.3 44.9-243.6 0.6-18.6-11-46.6-45.6-49.1z" fill="#666666" /><path d="M918.6 425.2c0 21.5-36.1 203.6-43.8 234.4-4.8 19.5-17.5 30.3-18.7 31.3l-0.9 0.7C803.8 735.2 703.8 819.8 693.4 828c-17.7 13.9-20.2 28.7-20.4 34.7l-3.1 49.9c-0.2 3.5-3.2 6.3-6.8 6.3H574c-3.8 0-6.8-3-6.8-6.7v-84.7c-1.3-38.8 15.2-53.9 26.2-63.9 1.3-1.2 2.5-2.3 3.6-3.4 17.9-17.3 82.5-86.8 104.6-112.7 5.9-6.9 14.9-21.1 25.4-37.6 8.4-13.3 17.2-27.1 23.9-36.5 6.1-8.4 11.4-14.8 16.8-20 2.7-2.6 4.1-3.4 4.4-3.6 1.1-0.6 1.9-0.9 2.3-1 0.2 0.2 0.4 0.4 0.5 0.6-0.8 8.4-3.6 16.9-8 24.6l-12.2 20.9-26.5 40.2c-2.4 3.6-4.5 7.4-6.4 11.2-8.3 16.7-12 23.7-13 25.2-5.8 8.4-6.4 19.2-1.7 28.2 4.8 9.2 14.1 14.9 24.3 14.9 3.7 0 7.3-0.7 10.7-2.2 5.8-2.4 11.1-5.3 14.1-7.1 3.9-2.3 9.1-5.1 15.2-8.2 21.9-11.4 51.8-27.1 67-49.2 15.4-22.3 27.1-64.4 28.4-69.2L900 429.8l0.1-1c1.5-12.1 5.9-12.5 8.2-12.5l1.7 0.1c3.2 0.2 8.5 0.5 8.7 8v0.8h-0.1z" fill="#CCCCCC" /></svg>