<?xml version="1.0" ?>
<!-- Uploaded to: SVG Repo, www.svgrepo.com, Generator: SVG Repo Mixer Tools -->
<svg width="800px" height="800px" viewBox="0 0 64 64" id="Layer_1_1_" version="1.1" xml:space="preserve" xmlns="http://www.w3.org/2000/svg" xmlns:xlink="http://www.w3.org/1999/xlink">
<g>
<g>
<rect height="10" style="fill:#00F4CB;" width="2" x="26" y="48"/>
</g>
<g>
<rect height="10" style="fill:#00F4CB;" width="2" x="32" y="48"/>
</g>
<g>
<path d="M47,18H17v-5.111C15.724,11.584,15,9.826,15,8c0-3.859,3.141-7,7-7    c1.728,0,3.376,0.637,4.651,1.771C28.197,1.623,30.063,1,32,1s3.803,0.623,5.349,1.771C38.624,1.637,40.272,1,42,1    c3.859,0,7,3.141,7,7c0,1.826-0.724,3.584-2,4.889V18z" style="fill:#00F4CB;"/>
</g>
<g>
<path d="M48.214,40.684L41,38.279v-4.974c0.71-1.01,1.25-2.145,1.589-3.364C45.066,29.645,47,27.555,47,25v-7h-2v3.026    c-0.584-0.442-1.257-0.773-2-0.924V18h-2v9c0,4.962-4.038,9-9,9s-9-4.038-9-9v-9h-2v2.101c-0.743,0.152-1.416,0.482-2,0.924V18h-2    v7c0,2.555,1.934,4.645,4.411,4.94C21.75,31.16,22.29,32.294,23,33.305v4.974l-7.214,2.404C12.923,41.638,11,44.307,11,47.325V63    h42V47.325C53,44.307,51.077,41.638,48.214,40.684z M45,25c0,1.317-0.859,2.427-2.042,2.829C42.979,27.554,43,27.28,43,27v-4.816    C44.161,22.598,45,23.698,45,25z M39,35.479v2.882l-6,2.769v-3.18C35.267,37.744,37.339,36.853,39,35.479z M31,37.949v3.18    l-6-2.769v-2.882C26.661,36.853,28.733,37.744,31,37.949z M19,25c0-1.302,0.839-2.402,2-2.816V27c0,0.28,0.021,0.554,0.042,0.829    C19.859,27.427,19,26.317,19,25z M13,47.325c0-2.156,1.374-4.062,3.419-4.744l7.522-2.507L36,45.64V61H20.069l0.929-13.934    l-1.995-0.133L18.065,61H13V47.325z M51,61h-5.065l-0.938-14.066l-1.995,0.133L43.931,61H38V44.36l-3.614-1.668l5.673-2.618    l7.522,2.507C49.626,43.263,51,45.169,51,47.325V61z"/>
<circle cx="27" cy="24" r="1"/>
<circle cx="37" cy="24" r="1"/>
<path d="M32,33c2.206,0,4-1.794,4-4h-2c0,1.103-0.897,2-2,2s-2-0.897-2-2h-2C28,31.206,29.794,33,32,33z"/>
<rect height="2" width="2" x="32" y="47"/>
<rect height="2" width="2" x="26" y="47"/>
<rect height="2" width="2" x="32" y="52"/>
<rect height="2" width="2" x="26" y="52"/>
<rect height="2" width="2" x="32" y="57"/>
<rect height="2" width="2" x="26" y="57"/>
<rect height="6" width="2" x="31" y="12"/>
<rect height="6" width="2" x="23" y="12"/>
<rect height="6" width="2" x="39" y="12"/>
</g>
</g>
</svg>