<?xml version="1.0" ?>
<!DOCTYPE svg  PUBLIC '-//W3C//DTD SVG 1.1//EN'  'http://www.w3.org/Graphics/SVG/1.1/DTD/svg11.dtd'>
<!-- Uploaded to: SVG Repo, www.svgrepo.com, Generator: SVG Repo Mixer Tools -->
<svg width="800px" height="800px" viewBox="0 0 512 512" version="1.1" xml:space="preserve" xmlns="http://www.w3.org/2000/svg" xmlns:xlink="http://www.w3.org/1999/xlink">
<g id="_x35_08_x2C__chemistry_x2C__lab__x2C__chemistry_lab__x2C__education">
<g>
<polygon points="467.49,85.15 467.49,143.46 417,172.62 367,143.75 367,88.54 366.5,88.25 366.5,85.15     417,56   " style="fill:#FF7979;"/>
<polygon points="374.5,148.081 374.5,95.207 374,94.917 374,91.816 424.5,62.667 467.49,87.486     467.49,85.15 417,56 366.5,85.15 366.5,88.25 367,88.54 367,143.75   " style="fill:#D65B5B;"/>
<polygon points="417,175.15 417,233.46 366.5,262.62 316,233.46 316,175.71 316.5,176 367,146.84     367,146.29   " style="fill:#A8CFFF;"/>
<polygon points="323.5,184.043 324,184.333 374.5,155.173 374.5,154.624 417,179.154 417,175.15     367,146.29 367,146.84 316.5,176 316,175.71 316,233.46 323.5,237.791   " style="fill:#8BBAE8;"/>
<polygon points="367,143.75 367,146.29 366.5,146 316,175.15 316,175.71 266,146.84 266,88.54 316.5,59.38     366.5,88.25 366.5,143.46   " style="fill:#FFD8A8;"/>
<polygon points="269,98.04 319.5,68.88 366.5,96.018 366.5,88.25 316.5,59.38 266,88.54 266,146.84     269,148.572   " style="fill:#EABD8C;"/>
<polygon points="240,36 240,76 220,76 130,76 110,76 110,36   " style="fill:#57606F;"/>
<polygon points="118.375,44.875 240,44.875 240,36 110,36 110,76 118.375,76   " style="fill:#414A56;"/>
<path d="M220,203.06c55.76,18.45,96,70.99,96,132.94c0,77.32-62.68,140-140,140S36,413.32,36,336    c0-61.21,39.28-113.23,94-132.26V76h90V203.06z" style="fill:#E8F9F9;"/>
<g>
<g>
<g>
<path d="M46,346.333c0-61.21,39.28-113.23,94-132.26V86.333h80V76h-90v127.74       C75.28,222.77,36,274.79,36,336c0,40.401,17.121,76.799,44.494,102.353C59.015,413.746,46,381.561,46,346.333z" style="fill:#CCE5E4;"/>
</g>
<g>
<path d="M230,213.393c19.377,6.412,36.878,16.944,51.47,30.554       c-13.989-16.012-31.561-28.811-51.47-37.143V213.393z" style="fill:#CCE5E4;"/>
</g>
</g>
</g>
<rect height="20" width="20" x="216" y="296"/>
<rect height="20" width="20" x="186" y="296"/>
<rect height="20" width="20" x="156" y="296"/>
<rect height="20" width="20" x="126" y="296"/>
<path d="M176,481c-79.953,0-145-65.047-145-145c0-60.488,37.626-114.599,94-135.768V76c0-2.761,2.239-5,5-5s5,2.239,5,5v127.74    c0,2.128-1.347,4.023-3.357,4.723C77.426,227.317,41,278.57,41,336c0,74.439,60.561,135,135,135s135-60.561,135-135    c0-58.355-37.201-109.873-92.571-128.193c-2.047-0.678-3.429-2.591-3.429-4.747V76c0-2.761,2.239-5,5-5s5,2.239,5,5v123.495    c57.573,20.64,96,75.041,96,136.505C321,415.953,255.953,481,176,481z"/>
<path d="M240,81H110c-2.761,0-5-2.239-5-5V36c0-2.761,2.239-5,5-5h130c2.761,0,5,2.239,5,5v40C245,78.761,242.761,81,240,81z     M115,71h120V41H115V71z"/>
<path d="M175,451c-60.654,0-110-49.346-110-110c0-22.417,6.701-43.984,19.378-62.372c12.381-17.957,29.589-31.716,49.764-39.79    c2.565-1.026,5.474,0.22,6.5,2.784s-0.221,5.474-2.784,6.5C99.673,263.403,75,299.86,75,341c0,55.141,44.86,100,100,100    c53.4,0,97.159-42.075,99.867-94.813l-134.689,4.811c-2.738,0.077-5.077-2.058-5.175-4.818c-0.099-2.76,2.059-5.077,4.818-5.176    l140-5c1.344-0.049,2.674,0.456,3.65,1.399c0.977,0.941,1.528,2.24,1.528,3.598C285,401.654,235.654,451,175,451z"/>
<path d="M446,481H36c-2.761,0-5-2.238-5-5s2.239-5,5-5h410c2.762,0,5,2.238,5,5S448.762,481,446,481z"/>
<path d="M316.5,181c-0.866,0-1.733-0.225-2.509-0.675l-0.5-0.29L263.5,151.17c-1.547-0.893-2.5-2.544-2.5-4.33v-58.3    c0-1.786,0.953-3.437,2.5-4.33L314,55.05c1.547-0.894,3.453-0.894,5,0l50.509,29.166c1.542,0.894,2.491,2.542,2.491,4.325v58.3    c0,1.786-0.953,3.437-2.5,4.33L319,180.33C318.227,180.777,317.363,181,316.5,181z M271,143.953l45.501,26.272L362,143.953V91.425    l-45.5-26.272L271,91.427V143.953z"/>
<path d="M366.5,267.62c-0.863,0-1.727-0.224-2.5-0.67l-50.5-29.16c-1.547-0.893-2.5-2.544-2.5-4.33v-58.31    c0-1.787,0.953-3.438,2.5-4.331l50.5-29.15c1.549-0.894,3.46-0.893,5.009,0.005l0.5,0.29l49.99,28.854    c1.548,0.893,2.501,2.544,2.501,4.331v58.31c0,1.786-0.953,3.437-2.5,4.33L369,266.95    C368.227,267.396,367.363,267.62,366.5,267.62z M321,230.573l45.5,26.273l45.5-26.273v-52.536l-45.501-26.263L321,178.037V230.573    z"/>
<path d="M417,177.62c-0.863,0-1.727-0.223-2.5-0.67l-50.509-29.166c-1.542-0.894-2.491-2.542-2.491-4.325V85.15    c0-1.787,0.953-3.438,2.5-4.331l50.5-29.15c1.547-0.893,3.453-0.893,5,0l50.49,29.15c1.547,0.893,2.5,2.544,2.5,4.33v58.31    c0,1.786-0.953,3.437-2.499,4.33l-50.49,29.16C418.728,177.396,417.863,177.62,417,177.62z M371.5,140.575l45.5,26.271    l45.49-26.272V88.037L417,61.773l-45.5,26.264V140.575z"/>
<path d="M476,331H356c-2.762,0-5-2.238-5-5s2.238-5,5-5h120c2.762,0,5,2.238,5,5S478.762,331,476,331z"/>
<path d="M476,361H356c-2.762,0-5-2.238-5-5s2.238-5,5-5h120c2.762,0,5,2.238,5,5S478.762,361,476,361z"/>
<path d="M476,391H356c-2.762,0-5-2.238-5-5s2.238-5,5-5h120c2.762,0,5,2.238,5,5S478.762,391,476,391z"/>
<path d="M476,421h-40c-2.762,0-5-2.238-5-5s2.238-5,5-5h40c2.762,0,5,2.238,5,5S478.762,421,476,421z"/>
</g>
</g>
<g id="Layer_1"/>
</svg>