<?xml version="1.0" encoding="utf-8"?>
<!-- Uploaded to: SVG Repo, www.svgrepo.com, Generator: SVG Repo Mixer Tools -->
<svg width="800px" height="800px" viewBox="0 0 1024 1024" class="icon"  version="1.1" xmlns="http://www.w3.org/2000/svg"><path d="M314.856 525.767162v145.08967c-62.457005-0.556994-110.579615-14.26477-138.224519-26.860608V499.949894c40.955413 15.240533 89.078023 25.329899 138.224519 25.817268zM587.209497 563.768666h116.722927v48.12261h-116.722927z" fill="#E0E0E0" /><path d="M183.798679 263.770266h97.269105v28.668789h-97.269105z" fill="#FF7415" /><path d="M217.586894 278.10466h27.644904v167.917194h-27.644904zM349.668101 306.773449h97.269106v26.621019h-97.269106zM349.668101 361.039372h97.269106v28.668789h-97.269106zM655.809813 222.814853h-140.272289V107.200794c0-23.658918 20.712176-44.111028 42.913082-44.111028h55.669669c22.282816 0 41.689539 20.452109 41.689538 44.111028v115.614059z m-111.6035-27.644904h83.958597V107.200794c0-8.212584-7.112931-16.466124-14.044635-16.466124H558.450606c-6.852864 0-14.244293 8.25354-14.244293 16.466124v87.969155z" fill="#FF7415" /><path d="M482.261251 400.701617c-1.811253-3.625578-15.598893-14.167501-46.658455-24.809765l9.024526-26.921017c24.3183 8.334427 65.111939 27.426816 65.111939 48.928408H481.904939c0 5.119427 0.35324 2.795207 0.356312 2.802374zM288.12133 358.886141l-2.126609-27.753436c19.370886-1.488729 38.548259-1.651527 57.582286-0.48225l-1.698625 27.780057c-17.761339-1.086342-35.653735-0.936855-53.757052 0.455629zM147.41389 401.109124c0.007167-0.013311 0.472011 1.909546 0.472011-3.209881h-27.835347s0-21.937767 50.498025-42.127761l10.336122 25.843889c-23.773593 9.507799-32.34249 17.458269-33.470811 19.493753z" fill="#262626" /><path d="M318.335162 956.167597c-87.419329 0-198.017374-32.761259-198.017374-69.587342v-488.679988h27.646952l-0.472011-1.646407c6.092118 10.998576 76.434063 44.573824 170.961204 44.573823 93.198138 0 158.270146-33.111428 163.886157-44.361879l-0.356312 1.434463h27.411458v488.679988c-0.001024 34.467052-96.270818 69.587342-191.060074 69.587342z m-170.37247-71.285968c10.238853 11.66103 77.850097 43.451645 170.37247 43.451646 91.537396 0 156.246948-31.374918 163.414146-43.152671V432.411346c-34.812101 20.821732-99.797079 36.641784-163.414146 36.641784-60.38978 0-131.464828-15.636777-170.37247-37.443486v453.271985z" fill="#262626" /><path d="M293.354408 454.212936h-27.644903v-218.087574h-69.624203v194.538212h-27.644903v-221.15923h124.914009z" fill="#262626" /><path d="M293.354408 236.125362h-124.914009v-66.296575c0-23.658918 19.87259-44.28304 42.074519-44.28304h41.751996c22.282816 0 41.087494 20.624122 41.087494 44.28304v66.296575z m-97.269106-26.621018h69.624203v-39.675557c0-8.212584-6.510887-16.638137-13.442591-16.638136h-41.751996c-6.853888 0-14.429616 8.425552-14.429616 16.638136v39.675557zM336.357592 320.083959h25.597133v134.128977h-25.597133zM433.626698 320.083959h28.668789v110.579615h-28.668789zM462.295487 320.083959h-28.668789v-52.833507c0-8.212584-7.419073-16.790695-14.350777-16.790695h-41.751996c-6.853888 0-15.5692 8.578111-15.5692 16.790695v52.833507h-25.597133v-52.833507c0-23.658918 18.965428-44.435599 41.166333-44.435599h41.751996c22.282816 0 43.019566 20.776681 43.019566 44.435599v52.833507zM426.459501 507.454973h27.644903v278.496808h-27.644903zM318.375094 900.497928c-61.320492 0-109.793271-13.346345-133.232054-21.303982l8.949782-26.353784c37.113795 12.598909 82.413554 19.82242 124.281248 19.82242 54.864895 0 97.01723-11.640552 117.261491-18.579423l9.024525 26.326139c-37.779321 12.953173-82.629593 20.08863-126.284992 20.08863zM829.840626 898.579167H503.2509v-28.668789h326.589726c23.846289 0 42.008991-16.718 42.008991-39.000816V204.622458c0-23.658918-19.726175-44.263586-42.008991-44.263586H655.809813v-28.668789h174.030813c37.762939 0 70.67778 33.769786 70.67778 72.932375v626.288128c0 37.525397-31.613483 67.668581-70.67778 67.668581zM361.954725 131.689059h153.582799v28.668789h-153.582799z" fill="#262626" /><path d="M767.212632 813.596685H572.368279c-16.343258 0-28.161966-9.617355-28.161966-24.44219v-27.835347c0-14.423473 11.804374-30.657174 28.161966-30.657174h222.678676c5.198266 0 14.345657-2.209545 14.345657-11.094822v-480.151023c0-8.212584-7.413954-16.600253-14.345657-16.600252H655.809813v-27.644904h139.237142c22.282816 0 41.990561 20.586238 41.990561 44.245156v480.151023c0 17.654855-11.262739 31.871502-27.644904 37.015503v22.133329c0 20.635385-17.94359 34.880701-42.17998 34.880701z m-195.361415-27.644904h195.360391c5.627274 0 13.512215-1.530709 13.512215-7.235797v-19.385221H573.587726c-0.5744 0-1.73651 1.284976-1.736509 1.988385v24.632633z" fill="#262626" /><path d="M509.394212 263.770266h243.684707v28.668789h-243.684707zM538.063001 326.227271h215.015918v27.644903h-215.015918zM538.063001 389.708161h215.015918v27.644903h-215.015918zM538.063001 454.212936h215.015918v25.597133h-215.015918zM753.078919 661.037772h-215.015918v-146.415602h215.015918v146.415602z m-187.371014-28.668789h159.72611v-90.101909h-159.72611v90.101909z" fill="#262626" /></svg>