<?xml version="1.0" encoding="UTF-8" standalone="no"?>
<svg
   xmlns:dc="http://purl.org/dc/elements/1.1/"
   xmlns:cc="http://creativecommons.org/ns#"
   xmlns:rdf="http://www.w3.org/1999/02/22-rdf-syntax-ns#"
   xmlns:svg="http://www.w3.org/2000/svg"
   xmlns="http://www.w3.org/2000/svg"
   xmlns:sodipodi="http://sodipodi.sourceforge.net/DTD/sodipodi-0.dtd"
   xmlns:inkscape="http://www.inkscape.org/namespaces/inkscape"
   fill="#000000"
   width="800px"
   height="800px"
   viewBox="0 0 96 96"
   id="Layer_1_1_"
   version="1.1"
   xml:space="preserve"
   sodipodi:docname="clones.svg"
   inkscape:version="1.0.1 (3bc2e813f5, 2020-09-07)"
   inkscape:export-filename="C:\Users\keega\Documents\cannlytics\cannlytics\app\assets\images\icons\clones.png"
   inkscape:export-xdpi="96"
   inkscape:export-ydpi="96"><metadata
     id="metadata101"><rdf:RDF><cc:Work
         rdf:about=""><dc:format>image/svg+xml</dc:format><dc:type
           rdf:resource="http://purl.org/dc/dcmitype/StillImage" /></cc:Work></rdf:RDF></metadata><defs
     id="defs99" /><sodipodi:namedview
     pagecolor="#ffffff"
     bordercolor="#666666"
     borderopacity="1"
     objecttolerance="10"
     gridtolerance="10"
     guidetolerance="10"
     inkscape:pageopacity="0"
     inkscape:pageshadow="2"
     inkscape:window-width="1920"
     inkscape:window-height="1094"
     id="namedview97"
     showgrid="false"
     inkscape:zoom="0.66556426"
     inkscape:cx="153.29979"
     inkscape:cy="453.8984"
     inkscape:window-x="-11"
     inkscape:window-y="-11"
     inkscape:window-maximized="1"
     inkscape:current-layer="Layer_1_1_" /><polygon
     points="20,94 26,94 26,84 44,84 44,82 36,82 36,79 35,79 34,79 34,82 26,82 26,70 44,70 44,68 36,68 36,65 35,65 34,65   34,68 26,68 26,56 44,56 44,54 36,54 36,51 35,51 34,51 34,54 26,54 26,42 44,42 44,40 36,40 36,37 35,37 34,37 34,40 26,40 26,26   24,26 24,24 25,24 25,20 21,20 21,24 22,24 22,26 20,26 20,36 12,36 12,33 11,33 10,33 10,36 2,36 2,38 20,38 20,50 12,50 12,47   11,47 10,47 10,50 2,50 2,52 20,52 20,64 12,64 12,61 11,61 10,61 10,64 2,64 2,66 20,66 20,79 12,79 12,75 11,75 10,75 10,79 2,79   2,81 20,81 "
     id="polygon2"
     style="fill:#99999f;fill-opacity:1" /><path
     d="M12,9.439c2.017,0,3.669-1.498,3.944-3.439h16.113C32.331,7.941,33.983,9.439,36,9.439S39.669,7.941,39.944,6h16.113  C56.331,7.941,57.983,9.439,60,9.439S63.669,7.941,63.944,6h17.113C81.331,7.941,82.983,9.439,85,9.439S88.669,7.941,88.944,6H93V2  H3v4h5.056C8.331,7.941,9.983,9.439,12,9.439z"
     id="path4"
     style="fill:#f57c00;fill-opacity:1" /><rect
     height="3"
     width="2"
     x="11"
     y="12"
     id="rect6"
     style="fill:#f57c00;fill-opacity:1" /><rect
     height="3"
     transform="matrix(0.7071 -0.7071 0.7071 0.7071 -4.1348 15.0177)"
     width="2"
     x="15.061"
     y="11"
     id="rect8"
     style="fill:#f57c00;fill-opacity:1" /><rect
     height="2"
     transform="matrix(0.7071 -0.7071 0.7071 0.7071 -6.5134 9.2752)"
     width="3"
     x="6.44"
     y="11.5"
     id="rect10"
     style="fill:#f57c00;fill-opacity:1" /><rect
     height="3"
     width="2"
     x="34.879"
     y="12"
     id="rect12"
     style="fill:#f57c00;fill-opacity:1" /><rect
     height="3"
     transform="matrix(0.7071 -0.7071 0.7071 0.7071 2.8592 31.9026)"
     width="2"
     x="38.94"
     y="11"
     id="rect14"
     style="fill:#f57c00;fill-opacity:1" /><rect
     height="2"
     transform="matrix(0.7071 -0.7071 0.7071 0.7071 0.4805 26.1601)"
     width="3"
     x="30.319"
     y="11.5"
     id="rect16"
     style="fill:#f57c00;fill-opacity:1" /><rect
     height="3"
     width="2"
     x="59"
     y="12"
     id="rect18"
     style="fill:#f57c00;fill-opacity:1" /><rect
     height="3"
     transform="matrix(0.7071 -0.7071 0.7071 0.7071 9.9241 48.9588)"
     width="2"
     x="63.061"
     y="11"
     id="rect20"
     style="fill:#f57c00;fill-opacity:1" /><rect
     height="2"
     transform="matrix(0.7071 -0.7071 0.7071 0.7071 7.5455 43.2163)"
     width="3"
     x="54.44"
     y="11.5"
     id="rect22"
     style="fill:#f57c00;fill-opacity:1" /><rect
     height="3"
     width="2"
     x="84.121"
     y="12"
     id="rect24"
     style="fill:#f57c00;fill-opacity:1" /><rect
     height="3"
     transform="matrix(0.7071 -0.7071 0.7071 0.7071 17.2819 66.7221)"
     width="2"
     x="88.182"
     y="11"
     id="rect26"
     style="fill:#f57c00;fill-opacity:1" /><rect
     height="2"
     transform="matrix(0.7071 -0.7071 0.7071 0.7071 14.9032 60.9796)"
     width="3"
     x="79.561"
     y="11.5"
     id="rect28"
     style="fill:#f57c00;fill-opacity:1" /><path
     d="M5,27c0,3.314,2.686,6,6,6C11,29.686,8.314,27,5,27z"
     id="path30"
     style="fill:#7ed321;fill-opacity:1" /><path
     d="M17,27c-3.314,0-6,2.686-6,6C14.314,33,17,30.314,17,27z"
     id="path32"
     style="fill:#7ed321;fill-opacity:1" /><path
     d="M5,41c0,3.314,2.686,6,6,6C11,43.686,8.314,41,5,41z"
     id="path34"
     style="fill:#7ed321;fill-opacity:1" /><path
     d="M17,41c-3.314,0-6,2.686-6,6C14.314,47,17,44.314,17,41z"
     id="path36"
     style="fill:#7ed321;fill-opacity:1" /><path
     d="M5,55c0,3.314,2.686,6,6,6C11,57.686,8.314,55,5,55z"
     id="path38"
     style="fill:#7ed321;fill-opacity:1" /><path
     d="M17,55c-3.314,0-6,2.686-6,6C14.314,61,17,58.314,17,55z"
     id="path40"
     style="fill:#7ed321;fill-opacity:1" /><path
     d="M5,69c0,3.314,2.686,6,6,6C11,71.686,8.314,69,5,69z"
     id="path42"
     style="fill:#7ed321;fill-opacity:1" /><path
     d="M17,69c-3.314,0-6,2.686-6,6C14.314,75,17,72.314,17,69z"
     id="path44"
     style="fill:#7ed321;fill-opacity:1" /><path
     d="M80,27c0,3.314,2.686,6,6,6C86,29.686,83.314,27,80,27z"
     id="path46"
     style="fill:#7ed321;fill-opacity:1" /><path
     d="M92,27c-3.314,0-6,2.686-6,6C89.314,33,92,30.314,92,27z"
     id="path48"
     style="fill:#7ed321;fill-opacity:1" /><polygon
     points="87,33 86,33 85,33 85,36 78,36 78,26 76,26 76,24 77,24 77,20 73,20 73,24 74,24 74,26 72,26 72,40 64,40 64,37   63,37 62,37 62,40 53,40 53,42 72,42 72,54 64,54 64,51 63,51 62,51 62,54 53,54 53,56 72,56 72,68 64,68 64,65 63,65 62,65 62,68   53,68 53,70 72,70 72,82 64,82 64,79 63,79 62,79 62,82 53,82 53,84 72,84 72,94 78,94 78,81 94,81 94,79 87,79 87,75 86,75 85,75   85,79 78,79 78,66 94,66 94,64 87,64 87,61 86,61 85,61 85,64 78,64 78,52 94,52 94,50 87,50 87,47 86,47 85,47 85,50 78,50 78,38   94,38 94,36 87,36 "
     id="polygon50"
     style="fill:#99999f;fill-opacity:1" /><path
     d="M80,41c0,3.314,2.686,6,6,6C86,43.686,83.314,41,80,41z"
     id="path52"
     style="fill:#7ed321;fill-opacity:1" /><path
     d="M92,41c-3.314,0-6,2.686-6,6C89.314,47,92,44.314,92,41z"
     id="path54"
     style="fill:#7ed321;fill-opacity:1" /><path
     d="M80,55c0,3.314,2.686,6,6,6C86,57.686,83.314,55,80,55z"
     id="path56"
     style="fill:#7ed321;fill-opacity:1" /><path
     d="M92,55c-3.314,0-6,2.686-6,6C89.314,61,92,58.314,92,55z"
     id="path58"
     style="fill:#7ed321;fill-opacity:1" /><path
     d="M80,69c0,3.314,2.686,6,6,6C86,71.686,83.314,69,80,69z"
     id="path60"
     style="fill:#7ed321;fill-opacity:1" /><path
     d="M92,69c-3.314,0-6,2.686-6,6C89.314,75,92,72.314,92,69z"
     id="path62"
     style="fill:#7ed321;fill-opacity:1" /><path
     d="M29,31c0,3.314,2.686,6,6,6C35,33.686,32.314,31,29,31z"
     id="path64"
     style="fill:#7ed321;fill-opacity:1" /><path
     d="M41,31c-3.314,0-6,2.686-6,6C38.314,37,41,34.314,41,31z"
     id="path66"
     style="fill:#7ed321;fill-opacity:1" /><path
     d="M29,45c0,3.314,2.686,6,6,6C35,47.686,32.314,45,29,45z"
     id="path68"
     style="fill:#7ed321;fill-opacity:1" /><path
     d="M41,45c-3.314,0-6,2.686-6,6C38.314,51,41,48.314,41,45z"
     id="path70"
     style="fill:#7ed321;fill-opacity:1" /><path
     d="M29,59c0,3.314,2.686,6,6,6C35,61.686,32.314,59,29,59z"
     id="path72"
     style="fill:#7ed321;fill-opacity:1" /><path
     d="M41,59c-3.314,0-6,2.686-6,6C38.314,65,41,62.314,41,59z"
     id="path74"
     style="fill:#7ed321;fill-opacity:1" /><path
     d="M29,73c0,3.314,2.686,6,6,6C35,75.686,32.314,73,29,73z"
     id="path76"
     style="fill:#7ed321;fill-opacity:1" /><path
     d="M41,73c-3.314,0-6,2.686-6,6C38.314,79,41,76.314,41,73z"
     id="path78"
     style="fill:#7ed321;fill-opacity:1" /><path
     d="M57,31c0,3.314,2.686,6,6,6C63,33.686,60.314,31,57,31z"
     id="path80"
     style="fill:#7ed321;fill-opacity:1" /><path
     d="M69,31c-3.314,0-6,2.686-6,6C66.314,37,69,34.314,69,31z"
     id="path82"
     style="fill:#7ed321;fill-opacity:1" /><path
     d="M57,45c0,3.314,2.686,6,6,6C63,47.686,60.314,45,57,45z"
     id="path84"
     style="fill:#7ed321;fill-opacity:1" /><path
     d="M69,45c-3.314,0-6,2.686-6,6C66.314,51,69,48.314,69,45z"
     id="path86"
     style="fill:#7ed321;fill-opacity:1" /><path
     d="M57,59c0,3.314,2.686,6,6,6C63,61.686,60.314,59,57,59z"
     id="path88"
     style="fill:#7ed321;fill-opacity:1" /><path
     d="M69,59c-3.314,0-6,2.686-6,6C66.314,65,69,62.314,69,59z"
     id="path90"
     style="fill:#7ed321;fill-opacity:1" /><path
     d="M57,73c0,3.314,2.686,6,6,6C63,75.686,60.314,73,57,73z"
     id="path92"
     style="fill:#7ed321;fill-opacity:1" /><path
     d="M69,73c-3.314,0-6,2.686-6,6C66.314,79,69,76.314,69,73z"
     id="path94"
     style="fill:#7ed321;fill-opacity:1" /><path
     d="m 15.944,6 h 16.113 7.887 16.112999 7.887 H 81.057 88.944 93 V 2 H 3.0000001 v 4 h 5.056 z"
     id="path4-4"
     style="fill:#999999;fill-opacity:1;stroke-width:1"
     sodipodi:nodetypes="ccccccccccccc" /></svg>
