<?xml version="1.0" encoding="UTF-8" standalone="no"?>
<svg
   xmlns:dc="http://purl.org/dc/elements/1.1/"
   xmlns:cc="http://creativecommons.org/ns#"
   xmlns:rdf="http://www.w3.org/1999/02/22-rdf-syntax-ns#"
   xmlns:svg="http://www.w3.org/2000/svg"
   xmlns="http://www.w3.org/2000/svg"
   xmlns:sodipodi="http://sodipodi.sourceforge.net/DTD/sodipodi-0.dtd"
   xmlns:inkscape="http://www.inkscape.org/namespaces/inkscape"
   width="800px"
   height="800px"
   viewBox="0 0 1024 1024"
   class="icon"
   version="1.1"
   id="svg8"
   sodipodi:docname="cook.svg"
   inkscape:version="1.0.1 (3bc2e813f5, 2020-09-07)"
   inkscape:export-filename="C:\Users\keega\Documents\cannlytics\cannlytics\app\assets\images\icons\process.png"
   inkscape:export-xdpi="96"
   inkscape:export-ydpi="96">
  <metadata
     id="metadata14">
    <rdf:RDF>
      <cc:Work
         rdf:about="">
        <dc:format>image/svg+xml</dc:format>
        <dc:type
           rdf:resource="http://purl.org/dc/dcmitype/StillImage" />
      </cc:Work>
    </rdf:RDF>
  </metadata>
  <defs
     id="defs12" />
  <sodipodi:namedview
     pagecolor="#ffffff"
     bordercolor="#666666"
     borderopacity="1"
     objecttolerance="10"
     gridtolerance="10"
     guidetolerance="10"
     inkscape:pageopacity="0"
     inkscape:pageshadow="2"
     inkscape:window-width="1920"
     inkscape:window-height="1094"
     id="namedview10"
     showgrid="false"
     inkscape:zoom="0.66556426"
     inkscape:cx="429.92716"
     inkscape:cy="484.06252"
     inkscape:window-x="-11"
     inkscape:window-y="-11"
     inkscape:window-maximized="1"
     inkscape:current-layer="svg8" />
  <path
     d="M750.08 304.64h-476.16c-59.392 0-108.544 46.08-112.128 104.96h700.928c-4.096-58.88-53.248-104.96-112.64-104.96z m-476.16-15.36h476.16c70.656 0 128 57.344 128 128V424.96h-732.16v-7.68c0-70.656 57.344-128 128-128z"
     fill=""
     id="path2" />
  <path
     d="M97.28 465.92h829.44c11.264 0 20.48 9.216 20.48 20.48v25.6c0 11.264-9.216 20.48-20.48 20.48H97.28c-11.264 0-20.48-9.216-20.48-20.48v-25.6c0-11.264 9.216-20.48 20.48-20.48zM338.944 173.056c-5.632-25.088 10.24-52.224 47.104-80.896-10.752 22.528-11.264 44.544-1.536 65.536C399.36 189.44 422.4 194.56 428.032 221.696c4.096 17.92-10.24 39.424-43.008 65.024 7.168-19.456 5.632-36.864-5.12-52.736-16.384-24.064-32.768-23.04-40.96-60.928zM466.944 173.056c-5.632-25.088 10.24-52.224 47.104-80.896-10.752 22.528-11.264 44.544-1.536 65.536 14.848 31.744 37.888 36.864 43.52 64 4.096 17.92-10.24 39.424-43.008 65.024 7.168-19.456 5.632-36.864-5.12-52.736-16.384-24.064-32.768-23.04-40.96-60.928zM594.944 173.056c-5.632-25.088 10.24-52.224 47.104-80.896-10.752 22.528-11.264 44.544-1.536 65.536 14.848 31.744 37.888 36.864 43.52 64 4.096 17.92-10.24 39.424-43.008 65.024 7.168-19.456 5.632-36.864-5.12-52.736-16.384-24.064-32.768-23.04-40.96-60.928z"
     fill="#7ED321"
     id="path4"
     style="fill:#f57c00;fill-opacity:1" />
  <path
     d="M926.72 458.24H97.28c-15.36 0-28.16 12.8-28.16 28.16v25.6c0 15.36 12.8 28.16 28.16 28.16h48.64v256c0 60.928 49.152 110.08 110.08 110.08h512c60.928 0 110.08-49.152 110.08-110.08v-256h48.64c15.36 0 28.16-12.8 28.16-28.16v-25.6c0-15.36-12.8-28.16-28.16-28.16z m-64 337.92c0 52.224-42.496 94.72-94.72 94.72H256c-52.224 0-94.72-42.496-94.72-94.72v-256h701.44v256z m76.8-284.16c0 7.168-5.632 12.8-12.8 12.8H97.28c-7.168 0-12.8-5.632-12.8-12.8v-25.6c0-7.168 5.632-12.8 12.8-12.8h829.44c7.168 0 12.8 5.632 12.8 12.8v25.6z"
     fill=""
     id="path6" />
</svg>
