<?xml version="1.0" encoding="UTF-8" standalone="no"?>
<svg
   xmlns:dc="http://purl.org/dc/elements/1.1/"
   xmlns:cc="http://creativecommons.org/ns#"
   xmlns:rdf="http://www.w3.org/1999/02/22-rdf-syntax-ns#"
   xmlns:svg="http://www.w3.org/2000/svg"
   xmlns="http://www.w3.org/2000/svg"
   xmlns:sodipodi="http://sodipodi.sourceforge.net/DTD/sodipodi-0.dtd"
   xmlns:inkscape="http://www.inkscape.org/namespaces/inkscape"
   width="800px"
   height="800px"
   viewBox="0 0 1024 1024"
   class="icon"
   version="1.1"
   id="svg12"
   sodipodi:docname="cup.svg"
   inkscape:export-filename="C:\Users\keega\Documents\cannlytics\cannlytics\app\assets\images\icons\item.png"
   inkscape:export-xdpi="96"
   inkscape:export-ydpi="96"
   inkscape:version="1.0.1 (3bc2e813f5, 2020-09-07)">
  <metadata
     id="metadata18">
    <rdf:RDF>
      <cc:Work
         rdf:about="">
        <dc:format>image/svg+xml</dc:format>
        <dc:type
           rdf:resource="http://purl.org/dc/dcmitype/StillImage" />
      </cc:Work>
    </rdf:RDF>
  </metadata>
  <defs
     id="defs16" />
  <sodipodi:namedview
     pagecolor="#ffffff"
     bordercolor="#666666"
     borderopacity="1"
     objecttolerance="10"
     gridtolerance="10"
     guidetolerance="10"
     inkscape:pageopacity="0"
     inkscape:pageshadow="2"
     inkscape:window-width="1920"
     inkscape:window-height="1094"
     id="namedview14"
     showgrid="false"
     inkscape:zoom="0.470625"
     inkscape:cx="-82.949638"
     inkscape:cy="422.96066"
     inkscape:window-x="-11"
     inkscape:window-y="-11"
     inkscape:window-maximized="1"
     inkscape:current-layer="svg12"
     inkscape:document-rotation="0" />
  <path
     d="M819.2 245.76H204.8c-11.264 0-20.48 9.216-20.48 20.48v51.2c0 11.264 9.216 20.48 20.48 20.48h25.6v542.72c0 14.336 11.264 25.6 25.6 25.6h512c14.336 0 25.6-11.264 25.6-25.6V337.92h25.6c11.264 0 20.48-9.216 20.48-20.48V266.24c0-11.264-9.216-20.48-20.48-20.48z m-40.96 634.88c0 5.632-4.608 10.24-10.24 10.24H256c-5.632 0-10.24-4.608-10.24-10.24V337.92h532.48v542.72z m46.08-563.2c0 3.072-2.048 5.12-5.12 5.12H204.8c-3.072 0-5.12-2.048-5.12-5.12V266.24c0-3.072 2.048-5.12 5.12-5.12h614.4c3.072 0 5.12 2.048 5.12 5.12v51.2z"
     fill=""
     id="path2" />
  <path
     d="M742.4 710.144V793.6c0 31.232-25.088 56.32-56.32 56.32H337.92c-31.232 0-56.32-25.088-56.32-56.32v-84.992l460.8 1.536zM302.08 220.16h419.84c5.632 0 10.24 4.608 10.24 10.24v40.96c0 5.632-4.608 10.24-10.24 10.24H302.08c-5.632 0-10.24-4.608-10.24-10.24v-40.96c0-5.632 4.608-10.24 10.24-10.24z"
     fill="#7ED321"
     id="path4"
     style="fill:#f57c00;fill-opacity:1" />
  <path
     d="M 742.4,710.144 V 793.6 c 0,31.232 -25.088,56.32 -56.32,56.32 H 337.92 c -31.232,0 -56.32,-25.088 -56.32,-56.32 v -84.992 z"
     fill="#7ED321"
     id="path4-7"
     style="fill:#7ed321;fill-opacity:1;stroke-width:1"
     sodipodi:nodetypes="csssscc" />
  <path
     d="M304.64 230.4c-1.536 0-2.56 1.024-2.56 2.56v40.96c0 1.536 1.024 2.56 2.56 2.56h419.84c1.536 0 2.56-1.024 2.56-2.56v-40.96c0-1.536-1.024-2.56-2.56-2.56h-419.84z m0-15.36h419.84c9.728 0 17.92 8.192 17.92 17.92v40.96c0 9.728-8.192 17.92-17.92 17.92h-419.84c-9.728 0-17.92-8.192-17.92-17.92v-40.96c0-9.728 8.192-17.92 17.92-17.92z"
     fill=""
     id="path6" />
  <path
     d="M389.12 161.28v81.92c0 4.096 3.584 7.68 7.68 7.68s7.68-3.584 7.68-7.68v-81.92c0-4.096-3.584-7.68-7.68-7.68s-7.68 3.584-7.68 7.68zM660.992 129.024c-13.312-1.536-23.552 1.536-31.232 9.216-7.168 7.168-10.752 16.896-10.24 28.672v76.288c0 4.096 3.584 7.68 7.68 7.68s7.68-3.584 7.68-7.68V166.912c0-8.192 2.048-13.824 6.144-17.92 3.584-4.096 9.728-5.632 18.432-4.608 4.096 0.512 8.192-2.56 8.192-6.656 0.512-4.096-2.56-8.192-6.656-8.704z"
     fill=""
     id="path8" />
  <path
     d="M696.32 158.72c11.264 0 20.48-9.216 20.48-20.48s-9.216-20.48-20.48-20.48-20.48 9.216-20.48 20.48 9.216 20.48 20.48 20.48z m0 15.36c-19.968 0-35.84-15.872-35.84-35.84s15.872-35.84 35.84-35.84 35.84 15.872 35.84 35.84-15.872 35.84-35.84 35.84z"
     fill=""
     id="path10" />
  <path
     d="m 526.4,708.608 v -87.12003 c 72.76319,-7.22879 129.59996,-68.60159 129.59996,-143.27997 -74.66398,0 -136.05115,56.83679 -143.27995,129.59997 h -1.44 C 504.05121,535.04479 442.67843,478.208 368.00004,478.208 c 0,74.66398 56.83679,136.05118 129.59997,143.27997 v 87.12003 0 c 158.39996,0 -129.59999,0 28.79999,0 z"
     id="path2-3"
     style="fill:#7ed321;fill-opacity:1;stroke-width:10.6667"
     sodipodi:nodetypes="ccccccccccc" />
</svg>
