<?xml version="1.0" encoding="UTF-8" standalone="no"?>
<svg
   xmlns:dc="http://purl.org/dc/elements/1.1/"
   xmlns:cc="http://creativecommons.org/ns#"
   xmlns:rdf="http://www.w3.org/1999/02/22-rdf-syntax-ns#"
   xmlns:svg="http://www.w3.org/2000/svg"
   xmlns="http://www.w3.org/2000/svg"
   xmlns:sodipodi="http://sodipodi.sourceforge.net/DTD/sodipodi-0.dtd"
   xmlns:inkscape="http://www.inkscape.org/namespaces/inkscape"
   width="800px"
   height="800px"
   viewBox="0 0 1024 1024"
   class="icon"
   version="1.1"
   id="svg10"
   sodipodi:docname="document.svg"
   inkscape:export-filename="C:\Users\keega\Documents\cannlytics\cannlytics\app\assets\images\icons\document.png"
   inkscape:export-xdpi="96"
   inkscape:export-ydpi="96"
   inkscape:version="1.0.1 (3bc2e813f5, 2020-09-07)">
  <metadata
     id="metadata16">
    <rdf:RDF>
      <cc:Work
         rdf:about="">
        <dc:format>image/svg+xml</dc:format>
        <dc:type
           rdf:resource="http://purl.org/dc/dcmitype/StillImage" />
      </cc:Work>
    </rdf:RDF>
  </metadata>
  <defs
     id="defs14" />
  <sodipodi:namedview
     pagecolor="#ffffff"
     bordercolor="#666666"
     borderopacity="1"
     objecttolerance="10"
     gridtolerance="10"
     guidetolerance="10"
     inkscape:pageopacity="0"
     inkscape:pageshadow="2"
     inkscape:window-width="1920"
     inkscape:window-height="1094"
     id="namedview12"
     showgrid="false"
     inkscape:zoom="0.94125"
     inkscape:cx="326.21311"
     inkscape:cy="326.02508"
     inkscape:window-x="-11"
     inkscape:window-y="-11"
     inkscape:window-maximized="1"
     inkscape:current-layer="svg10" />
  <path
     d="M707.00408 461.380133h56.313692v28.66879h-56.313692zM707.00408 524.861024h56.313692v28.668789h-56.313692zM707.00408 587.318028h56.313692v27.644904h-56.313692zM847.276369 714.279809h55.289808v27.644903h-55.289808zM847.276369 650.798919h55.289808v28.668789h-55.289808zM440.793895 265.818036h28.668789v-34.812101h48.12261v167.917194h-27.644903v27.644903h83.958596v-27.644903h-27.644903v-167.917194h50.17038v34.812101h27.644904v-63.48089h-183.275473z"
     fill="#FFB612"
     id="path2"
     style="fill:#f57c00;fill-opacity:1" />
  <path
     d="M623.124322 579.459709c-2.798279-6.716688-7.538868-13.938151-14.256579-16.737454-3.28872-1.469275-6.350137-4.073016-10.197898-4.073016H192.851873c-3.847761 0-7.556274 2.60374-10.844994 4.073016-6.716688 2.798279-14.41221 9.103364-17.210488 15.820052-1.469275 3.28872-4.547075 7.91361-4.547075 11.761371v202.908474c0 3.847761 3.076775 7.556274 4.547075 10.844994 2.798279 6.716688 9.339882 10.862399 16.057593 13.661701 3.28872 1.469275 8.151151 0.997264 11.998912 0.997265h405.816949c3.847761 0 7.556274 0.472011 10.844993-0.997265 6.716688-2.799302 10.811205-7.565489 13.609484-14.282176 1.469275-3.28872 0.945046-6.375734 0.945046-10.224519V590.304702c0-3.848785 0.524229-7.557298-0.945046-10.844993zM395.761371 726.743565c-19.311501 0-34.984114-15.672613-34.984114-34.984114s15.672613-34.984114 34.984114-34.984114c19.311501 0 34.984114 15.672613 34.984114 34.984114s-15.673637 34.984114-34.984114 34.984114zM892.53722 461.380133h-30.926456v153.582799h30.926456c7.696546 0 10.028957-2.969267 10.028957-10.664789V478.355128c0-7.696546-2.332411-16.974995-10.028957-16.974995zM752.600765 650.798919h-31.261267v91.125793h31.261267c7.696546 0 10.718032-3.987009 10.718031-11.683555V667.269138c-0.001024-7.695522-3.022509-16.470219-10.718031-16.470219z"
     fill="#E0E0E0"
     id="path4" />
  <path
     d="M899.534452 342.609436H721.338474V177.490521c0-38.552354-28.141488-72.421457-66.693842-72.421457H136.877086c-38.552354 0-73.896876 33.869103-73.896876 72.421457v671.697442c0 38.552354 35.344521 66.797255 73.896876 66.797255h643.71056c41.561553 0 76.125874-27.644904 82.772938-68.600317h36.173868c34.704593 0 59.345417-26.464364 59.345417-61.168957V408.385877c0-34.703569-24.640824-65.776441-59.345417-65.776441zM91.648999 177.490521c0-23.159262 22.068824-43.752668 45.228087-43.752668h67.399299v71.740573c0 23.159262-16.252132 38.839042-39.411394 38.839042h-73.215992v-66.826947z m45.228087 710.849793c-23.159262 0-45.228086-15.993089-45.228087-39.152351V272.985234h73.215992c38.552354 0 66.032412-28.955477 66.032412-67.507831v-71.740574H654.644632c23.159262 0 39.048939 20.593406 39.048938 43.752668v657.704001c0 21.48009 11.047723 39.836306 24.34185 53.146816H136.877086z m696.064888-479.954437v426.807621c0 30.855808-24.945942 55.974787-55.80175 55.974787s-55.80175-25.118979-55.80175-55.974787V370.25434h125.859056c-6.716688 15.35828-14.255555 25.187579-14.255556 38.131537z m97.269106 377.830067c0 19.311501-11.365127 32.500168-30.676628 32.500168h-37.923688V408.385877c0-19.311501 14.988657-34.984114 34.300158-34.984114s34.300158 15.672613 34.300158 34.984114v377.830067z"
     fill="#262626"
     id="path6" />
  <path
     d="M287.211096 210.528229h125.937895v26.621018h-125.937895zM287.211096 272.985234h125.937895v27.644903h-125.937895zM160.249316 336.466124h252.899675v26.621018h-252.899675zM160.249316 398.923129h252.899675v27.644903h-252.899675zM160.249316 461.380133h463.820052v28.66879h-463.820052zM188.918105 748.068024h-28.668789v45.145152c0 15.435071 17.170557 25.502936 32.602557 25.502936h38.04553v-27.644904h-41.979298v-43.003184zM596.424464 791.071208h-44.027069v27.644904h46.27245c15.435071 0 25.399523-10.067864 25.399523-25.502936v-45.145152h-27.644904v43.003184zM598.669845 558.649239h-46.27245v28.668789h44.027069v43.003184h27.644904V590.303678c0-15.435071-9.964452-31.654439-25.399523-31.654439zM160.249316 590.304702v40.017534h28.668789v-43.003184h41.979298v-28.668789H192.851873c-15.432-0.001024-32.602557 16.218344-32.602557 31.654439zM395.761371 628.787432c-34.704593 0-62.972019 28.267426-62.972019 62.972019 0 34.704593 28.267426 62.972019 62.972019 62.972019s62.972019-28.267426 62.972019-62.972019c-0.001024-34.705617-28.267426-62.972019-62.972019-62.972019z m0 97.956133c-19.311501 0-34.984114-15.672613-34.984114-34.984114s15.672613-34.984114 34.984114-34.984114c19.311501 0 34.984114 15.672613 34.984114 34.984114s-15.673637 34.984114-34.984114 34.984114zM175.607596 198.481194v-37.098437h-31.733278c-11.575024 0-24.580415 11.529973-24.580415 23.104996v32.184812h38.573856c11.575024-0.001024 17.739837-6.617371 17.739837-18.191371z"
     fill="#262626"
     id="path8" />
</svg>
