<?xml version="1.0" encoding="utf-8"?><!-- Uploaded to: SVG Repo, www.svgrepo.com, Generator: SVG Repo Mixer Tools -->
<svg width="800px" height="800px" viewBox="0 0 200 200" xmlns="http://www.w3.org/2000/svg"><title>Virtual Reality icons</title><circle cx="52" cy="156" r="16" fill="none" stroke="#220728" stroke-miterlimit="10" stroke-width="8"/><circle cx="158" cy="156" r="16" fill="none" stroke="#220728" stroke-miterlimit="10" stroke-width="8"/><path d="M34,157H16A10,10,0,0,1,6,147V133a4,4,0,0,1,4-4H26" fill="none" stroke="#220728" stroke-miterlimit="10" stroke-width="8"/><line x1="144" y1="157" x2="64" y2="157" fill="none" stroke="#220728" stroke-miterlimit="10" stroke-width="8"/><path d="M171,157h24V141l-4.67-4v-9c-5.68-2-47-13.33-47-13.33L116,97H60L28,116H11a2,2,0,0,0-2,2v13" fill="none" stroke="#220728" stroke-miterlimit="10" stroke-width="8"/><path d="M62.13,56.13a38,38,0,0,1,53.74,0" fill="none" stroke="#ffc548" stroke-miterlimit="10" stroke-width="8"/><path d="M48,40a58,58,0,0,1,82,0" fill="none" stroke="#ffc548" stroke-miterlimit="10" stroke-width="8"/><path d="M76.27,72.27a18,18,0,0,1,25.46,0" fill="none" stroke="#ffc548" stroke-miterlimit="10" stroke-width="8"/></svg>