<?xml version="1.0" encoding="UTF-8" standalone="no"?>
<svg
   xmlns:dc="http://purl.org/dc/elements/1.1/"
   xmlns:cc="http://creativecommons.org/ns#"
   xmlns:rdf="http://www.w3.org/1999/02/22-rdf-syntax-ns#"
   xmlns:svg="http://www.w3.org/2000/svg"
   xmlns="http://www.w3.org/2000/svg"
   xmlns:sodipodi="http://sodipodi.sourceforge.net/DTD/sodipodi-0.dtd"
   xmlns:inkscape="http://www.inkscape.org/namespaces/inkscape"
   width="800px"
   height="800px"
   viewBox="0 0 64 64"
   version="1.1"
   id="svg69"
   sodipodi:docname="facilities.svg"
   inkscape:export-filename="C:\Users\keega\Documents\cannlytics\cannlytics\app\assets\images\icons\facilities.png"
   inkscape:export-xdpi="96"
   inkscape:export-ydpi="96"
   inkscape:version="1.0.1 (3bc2e813f5, 2020-09-07)">
  <metadata
     id="metadata73">
    <rdf:RDF>
      <cc:Work
         rdf:about="">
        <dc:format>image/svg+xml</dc:format>
        <dc:type
           rdf:resource="http://purl.org/dc/dcmitype/StillImage" />
      </cc:Work>
    </rdf:RDF>
  </metadata>
  <sodipodi:namedview
     pagecolor="#ffffff"
     bordercolor="#666666"
     borderopacity="1"
     objecttolerance="10"
     gridtolerance="10"
     guidetolerance="10"
     inkscape:pageopacity="0"
     inkscape:pageshadow="2"
     inkscape:window-width="1920"
     inkscape:window-height="1094"
     id="namedview71"
     showgrid="false"
     inkscape:zoom="0.94125"
     inkscape:cx="400"
     inkscape:cy="400"
     inkscape:window-x="-11"
     inkscape:window-y="-11"
     inkscape:window-maximized="1"
     inkscape:current-layer="svg69" />
  <defs
     id="defs4">
    <style
       id="style2">.cls-1{fill:#f57c00;}.cls-2{fill:#999;}.cls-3{fill:#666;}</style>
  </defs>
  <title
     id="title6" />
  <g
     data-name="outline color"
     id="outline_color">
    <path
       class="cls-1"
       d="M35,60H26a1,1,0,0,1-1-1V39a1,1,0,0,1,1-1h9a1,1,0,0,1,1,1V59A1,1,0,0,1,35,60Zm-8-2h7V40H27Z"
       id="path8" />
    <path
       class="cls-1"
       d="M41,60H35a1,1,0,0,1-1-1V31a1,1,0,0,1,1.64-.77l6,5A1,1,0,0,1,42,36V59A1,1,0,0,1,41,60Zm-5-2h4V36.47l-4-3.33Z"
       id="path10" />
    <path
       class="cls-1"
       d="M29,44a1,1,0,0,1-.38-.08l-.18-.09-.15-.12a1.15,1.15,0,0,1-.21-.33.94.94,0,0,1,0-.76,1.15,1.15,0,0,1,.21-.33l.15-.12.18-.09a1,1,0,0,1,1.09.21,1.15,1.15,0,0,1,.21.33.94.94,0,0,1,0,.76,1.15,1.15,0,0,1-.21.33A1.05,1.05,0,0,1,29,44Z"
       id="path12" />
    <path
       class="cls-1"
       d="M38,39a1.05,1.05,0,0,1-.71-.29,1,1,0,0,1-.12-.16.56.56,0,0,1-.09-.17A.64.64,0,0,1,37,38.2a1.36,1.36,0,0,1,0-.2.84.84,0,0,1,.08-.38,1.15,1.15,0,0,1,.21-.33,1,1,0,0,1,1.42,0,1.15,1.15,0,0,1,.21.33A1,1,0,0,1,39,38a1,1,0,0,1-1,1Z"
       id="path14" />
    <path
       class="cls-1"
       d="M38,47a1,1,0,0,1-.71-1.71A1,1,0,0,1,38.2,45a.64.64,0,0,1,.18.06l.18.09.15.12a1,1,0,0,1,0,1.42l-.15.12-.18.09a.64.64,0,0,1-.18.06Z"
       id="path16" />
    <path
       class="cls-1"
       d="M44,50a1.05,1.05,0,0,1-.71-.29,1.27,1.27,0,0,1-.22-.33A1,1,0,0,1,43,49a.68.68,0,0,1,0-.2,1.21,1.21,0,0,1,0-.18,1.62,1.62,0,0,1,.1-.18,1.58,1.58,0,0,1,.12-.15A1,1,0,0,1,44.2,48a.64.64,0,0,1,.18.06l.18.09.15.12A1,1,0,0,1,45,49a1,1,0,0,1-.08.38,1,1,0,0,1-.21.33l-.15.12-.18.09a.64.64,0,0,1-.18.06Z"
       id="path18" />
    <path
       class="cls-1"
       d="M50,50l-.2,0a.64.64,0,0,1-.18-.06l-.18-.09-.15-.12a1.15,1.15,0,0,1-.21-.33.94.94,0,0,1,0-.76,1.15,1.15,0,0,1,.21-.33l.15-.12.18-.09A.64.64,0,0,1,49.8,48a.86.86,0,0,1,.39,0,.6.6,0,0,1,.19.06.56.56,0,0,1,.17.09l.16.12a1.15,1.15,0,0,1,.21.33.94.94,0,0,1,0,.76,1.15,1.15,0,0,1-.21.33l-.16.12a.56.56,0,0,1-.17.09.6.6,0,0,1-.19.06Z"
       id="path20" />
    <path
       class="cls-1"
       d="M53,50l-.2,0a.64.64,0,0,1-.18-.06l-.18-.09-.15-.12A1.05,1.05,0,0,1,52,49a1.36,1.36,0,0,1,0-.2.64.64,0,0,1,.06-.18.76.76,0,0,1,.09-.18,1.58,1.58,0,0,1,.12-.15l.15-.12.18-.09A.64.64,0,0,1,52.8,48a1,1,0,0,1,.91.27l.12.15a.76.76,0,0,1,.09.18.64.64,0,0,1,.06.18,1.36,1.36,0,0,1,0,.2,1,1,0,0,1-1,1Z"
       id="path22" />
    <path
       class="cls-1"
       d="M56,46l-.2,0a.64.64,0,0,1-.18-.06l-.18-.09-.15-.12a1.15,1.15,0,0,1-.21-.33.94.94,0,0,1,0-.76,1,1,0,0,1,.21-.33l.15-.12.18-.09A.64.64,0,0,1,55.8,44a.86.86,0,0,1,.39,0,.6.6,0,0,1,.19.06.56.56,0,0,1,.17.09l.16.12a1,1,0,0,1,.21.33.94.94,0,0,1,0,.76,1,1,0,0,1-.21.33,1,1,0,0,1-.16.12.56.56,0,0,1-.17.09.6.6,0,0,1-.19.06Z"
       id="path24" />
    <path
       class="cls-1"
       d="M44,54a1,1,0,0,1-1-1,.71.71,0,0,1,0-.2,1.21,1.21,0,0,1,0-.18,1.78,1.78,0,0,1,.22-.33A1,1,0,0,1,44.2,52a.64.64,0,0,1,.18.06l.18.09.15.12A1,1,0,0,1,45,53a1.05,1.05,0,0,1-.29.71l-.15.12-.18.09a.64.64,0,0,1-.18.06Z"
       id="path26" />
    <path
       class="cls-1"
       d="M47,54a.84.84,0,0,1-.38-.08,1,1,0,0,1-.33-.21,1.15,1.15,0,0,1-.21-.33.94.94,0,0,1,0-.76,1.15,1.15,0,0,1,.21-.33,1,1,0,0,1,.33-.21A1,1,0,0,1,47.2,52a.64.64,0,0,1,.18.06l.18.09.15.12a1,1,0,0,1,.21.33.94.94,0,0,1,0,.76,1.15,1.15,0,0,1-.21.33l-.15.12-.18.09a.64.64,0,0,1-.18.06Z"
       id="path28" />
    <path
       class="cls-1"
       d="M50,54l-.2,0a.64.64,0,0,1-.18-.06l-.18-.09-.15-.12a1,1,0,0,1-.12-.16.56.56,0,0,1-.09-.17.6.6,0,0,1-.06-.19A1.23,1.23,0,0,1,49,53a1.36,1.36,0,0,1,0-.2.64.64,0,0,1,.06-.18.76.76,0,0,1,.09-.18,1.58,1.58,0,0,1,.12-.15,1,1,0,0,1,1.42,0A1,1,0,0,1,51,53a1.23,1.23,0,0,1,0,.19.6.6,0,0,1-.06.19.56.56,0,0,1-.09.17l-.12.16-.16.12a.56.56,0,0,1-.17.09.6.6,0,0,1-.19.06Z"
       id="path30" />
    <path
       class="cls-1"
       d="M56,54l-.2,0a.64.64,0,0,1-.18-.06l-.18-.09-.15-.12a1,1,0,0,1-.21-.33.94.94,0,0,1,0-.76,1,1,0,0,1,.21-.33l.15-.12.18-.09A.64.64,0,0,1,55.8,52a.86.86,0,0,1,.39,0,.6.6,0,0,1,.19.06.56.56,0,0,1,.17.09,1,1,0,0,1,.16.12,1,1,0,0,1,.21.33.94.94,0,0,1,0,.76,1,1,0,0,1-.21.33,1,1,0,0,1-.16.12.56.56,0,0,1-.17.09.6.6,0,0,1-.19.06Z"
       id="path32" />
    <path
       class="cls-1"
       d="M38,51a1,1,0,0,1-.71-1.71A1,1,0,0,1,38.2,49a.64.64,0,0,1,.18.06l.18.09.15.12a1,1,0,0,1,0,1.42l-.15.12-.18.09a.64.64,0,0,1-.18.06Z"
       id="path34" />
    <path
       class="cls-1"
       d="M38,55a1,1,0,0,1-.71-.29,1.15,1.15,0,0,1-.21-.33A.84.84,0,0,1,37,54a1.05,1.05,0,0,1,.29-.71A1,1,0,0,1,38.2,53a.64.64,0,0,1,.18.06l.18.09.15.12A1.05,1.05,0,0,1,39,54a1,1,0,0,1-.08.38,1.15,1.15,0,0,1-.21.33A1.05,1.05,0,0,1,38,55Z"
       id="path36" />
    <path
       class="cls-1"
       d="M32,44a1,1,0,0,1-1-1,.84.84,0,0,1,.08-.38,1.15,1.15,0,0,1,.21-.33,1,1,0,0,1,1.42,0,1.15,1.15,0,0,1,.21.33A1,1,0,0,1,33,43a1,1,0,0,1-1,1Z"
       id="path38" />
    <path
       class="cls-1"
       d="M29,48a1,1,0,0,1-.38-.08l-.18-.09-.15-.12A1.05,1.05,0,0,1,28,47a.84.84,0,0,1,.08-.38,1.15,1.15,0,0,1,.21-.33l.15-.12.18-.09a1,1,0,0,1,1.09.21,1.15,1.15,0,0,1,.21.33A1,1,0,0,1,30,47a1,1,0,0,1-1,1Z"
       id="path40" />
    <path
       class="cls-1"
       d="M29,52a1,1,0,0,1-.38-.08l-.18-.09-.15-.12A1.05,1.05,0,0,1,28,51a.84.84,0,0,1,.08-.38,1.15,1.15,0,0,1,.21-.33l.15-.12.18-.09a1,1,0,0,1,1.09.21,1.15,1.15,0,0,1,.21.33A1,1,0,0,1,30,51a1,1,0,0,1-1,1Z"
       id="path42" />
    <path
       class="cls-1"
       d="M32,52a1.05,1.05,0,0,1-.71-.29,1.58,1.58,0,0,1-.12-.15.76.76,0,0,1-.09-.18A.64.64,0,0,1,31,51.2a1.36,1.36,0,0,1,0-.2,1,1,0,1,1,2,0,1.36,1.36,0,0,1,0,.2.64.64,0,0,1-.06.18.76.76,0,0,1-.09.18l-.12.15A1.05,1.05,0,0,1,32,52Z"
       id="path44" />
    <path
       class="cls-1"
       d="M29,56a1,1,0,0,1-.38-.08l-.18-.09-.15-.12a1,1,0,0,1,0-1.42l.15-.12.18-.09a1,1,0,0,1,1.09.21A1,1,0,0,1,29,56Z"
       id="path46" />
    <path
       class="cls-1"
       d="M59,60H41a1,1,0,0,1-1-1V45a1,1,0,0,1,1-1h9V41a1,1,0,0,1,1-1h8a1,1,0,0,1,1,1V59A1,1,0,0,1,59,60ZM42,58H58V42H52v3a1,1,0,0,1-1,1H42Z"
       id="path48" />
    <path
       class="cls-2"
       d="M21.77,55.1a5,5,0,0,1-4.56-3L4.56,23.84a5,5,0,0,1,2.52-6.61L28.62,7.61a1,1,0,1,1,.82,1.82L7.9,19.05a3,3,0,0,0-1.52,4L19,51.32a3,3,0,0,0,2.91,1.77,1,1,0,1,1,.12,2Z"
       id="path50" />
    <path
       class="cls-3"
       d="M22.21,24.76a1,1,0,0,1-1-.85,7.56,7.56,0,0,1-.08-2.51.09.09,0,0,0,0,0,7.55,7.55,0,0,1,3.68-5.44,1.09,1.09,0,0,1,.5-.13,1,1,0,0,1,.43,1.91,5.53,5.53,0,0,0-2.63,3.9v.06a5.52,5.52,0,0,0,.06,1.9,1.49,1.49,0,0,1,0,.21A1,1,0,0,1,22.21,24.76Z"
       id="path52" />
    <path
       class="cls-3"
       d="M16.56,37a1,1,0,0,1-.91-.59l-4.49-10a1,1,0,0,1,0-.77,1,1,0,0,1,.52-.55l10.05-4.49a1,1,0,0,1,1.25.37,1.16,1.16,0,0,1,.18.57,1,1,0,0,1-.86,1l-8.89,4,3.8,8.5a.93.93,0,0,1,.53.52,1,1,0,0,1-.51,1.31l-.25.12A1.1,1.1,0,0,1,16.56,37Z"
       id="path54" />
    <path
       class="cls-2"
       d="M22,43.4a1,1,0,0,1-.41-.09l-3.11-1.39a5,5,0,0,1-2.62-6.37,1.54,1.54,0,0,1,.08-.19l5.33-11.93s0-.05,0-.08L28.61,7a5,5,0,0,1,6.6-2.52l21.91,9.79a5,5,0,0,1,2.52,6.61L52.26,37.41a1,1,0,0,1-1.82-.82l7.38-16.52a3,3,0,0,0-1.52-4L34.39,6.31a3,3,0,0,0-4,1.52L23.15,24.1s0,0,0,.08l-5.34,12a.56.56,0,0,1,0,.12A3,3,0,0,0,19.3,40.1l3.11,1.39A1,1,0,0,1,22,43.4Z"
       id="path56" />
    <path
       class="cls-3"
       d="M41,31.83a1,1,0,0,1-1-.9l-.65-6.38-3.06,2.22-.08.05-.2.15a1,1,0,0,1-1.2-1.6l.28-.21.1-.07,4.38-3.18a1,1,0,0,1,1-.08,1,1,0,0,1,.55.89l.84,8a1,1,0,0,1-.9,1.09Z"
       id="path58" />
    <path
       class="cls-3"
       d="M35.74,27h0a4.79,4.79,0,0,1-.65,0,1,1,0,0,1,.2-2h.45a1,1,0,1,1,0,2Z"
       id="path60" />
    <path
       class="cls-3"
       d="M31,25a1,1,0,0,1-.71-.3,7.45,7.45,0,0,1-1.5-8.32,7.49,7.49,0,0,1,14.26,2,7.34,7.34,0,0,1-.57,4.12,7.2,7.2,0,0,1-1.43,2.12,1,1,0,1,1-1.44-1.38,5.49,5.49,0,0,0,1-1.56,5.38,5.38,0,0,0,.41-3,5.5,5.5,0,1,0-9.36,4.62A1,1,0,0,1,31,25Z"
       id="path62" />
    <path
       class="cls-3"
       d="M40.2,23.73a1,1,0,0,1-1-1h0a1,1,0,1,1,1,1Z"
       id="path64" />
    <path
       class="cls-3"
       d="M47.64,34a1,1,0,0,1-.41-.09l-6.68-3a1,1,0,0,1,.82-1.82l5.76,2.57,3.68-8.22-9-4a1.06,1.06,0,0,1-.25-.09,1,1,0,0,1-.44-1.33l0,0a1,1,0,0,1,1.3-.45l10,4.49a1,1,0,0,1,.52.55,1,1,0,0,1,0,.77l-4.49,10A1,1,0,0,1,47.64,34Z"
       id="path66" />
  </g>
</svg>
