<?xml version="1.0" encoding="UTF-8" standalone="no"?>
<svg
   xmlns:dc="http://purl.org/dc/elements/1.1/"
   xmlns:cc="http://creativecommons.org/ns#"
   xmlns:rdf="http://www.w3.org/1999/02/22-rdf-syntax-ns#"
   xmlns:svg="http://www.w3.org/2000/svg"
   xmlns="http://www.w3.org/2000/svg"
   xmlns:sodipodi="http://sodipodi.sourceforge.net/DTD/sodipodi-0.dtd"
   xmlns:inkscape="http://www.inkscape.org/namespaces/inkscape"
   width="800px"
   height="800px"
   viewBox="0 0 1024 1024"
   class="icon"
   version="1.1"
   id="svg10"
   sodipodi:docname="fan.svg"
   inkscape:export-filename="C:\Users\keega\Documents\cannlytics\cannlytics\app\assets\images\icons\fan.png"
   inkscape:export-xdpi="96"
   inkscape:export-ydpi="96"
   inkscape:version="1.0.1 (3bc2e813f5, 2020-09-07)">
  <metadata
     id="metadata16">
    <rdf:RDF>
      <cc:Work
         rdf:about="">
        <dc:format>image/svg+xml</dc:format>
        <dc:type
           rdf:resource="http://purl.org/dc/dcmitype/StillImage" />
      </cc:Work>
    </rdf:RDF>
  </metadata>
  <defs
     id="defs14" />
  <sodipodi:namedview
     pagecolor="#ffffff"
     bordercolor="#666666"
     borderopacity="1"
     objecttolerance="10"
     gridtolerance="10"
     guidetolerance="10"
     inkscape:pageopacity="0"
     inkscape:pageshadow="2"
     inkscape:window-width="1920"
     inkscape:window-height="1094"
     id="namedview12"
     showgrid="false"
     inkscape:zoom="0.94125"
     inkscape:cx="400"
     inkscape:cy="400"
     inkscape:window-x="-11"
     inkscape:window-y="-11"
     inkscape:window-maximized="1"
     inkscape:current-layer="svg10" />
  <path
     d="M793.6 552.448c16.896 4.608 30.208 9.216 40.96 14.848V558.08c0-121.856-68.608-227.84-169.984-281.088-0.512 11.776-3.072 26.112-7.68 42.496 80.384 47.104 134.656 133.632 136.704 232.96zM645.632 802.816c-38.4 19.968-81.92 31.744-128.512 31.744-48.128 0-93.184-12.288-132.608-33.792-11.776 12.288-22.528 22.016-32.256 28.672 48.128 29.184 104.448 46.08 164.864 46.08 58.88 0 114.176-15.872 161.28-44.032-10.24-6.656-20.992-16.384-32.768-28.672zM367.616 325.632c-4.608-16.384-7.68-30.208-9.216-42.496C263.68 337.92 199.68 440.32 199.68 558.08v6.144c10.752-5.12 24.576-9.216 40.96-13.312 2.56-94.72 52.224-177.152 126.976-225.28z"
     fill="#7ED321"
     id="path2"
     style="fill:#f57c00;fill-opacity:1" />
  <path
     d="M761.344 856.064c-26.112 0-52.224-6.656-76.288-20.48-39.424-22.528-96.768-94.208-171.008-213.504-74.24 118.784-131.584 190.976-171.008 213.504-73.216 42.496-167.424 16.896-209.92-56.32-20.48-35.328-26.112-76.8-15.36-116.736 10.752-39.424 35.84-72.704 71.68-93.184 38.4-22.016 125.44-35.84 259.072-40.96h9.728l-4.608-9.728C390.144 399.36 357.888 315.904 357.888 271.36c0-84.48 69.12-153.6 153.6-153.6s153.6 69.12 153.6 153.6c0 44.032-31.744 126.976-94.72 245.76l-5.12 11.264 13.824 0.512c133.632 5.12 221.184 18.944 259.072 40.96 73.216 42.496 98.816 136.704 56.32 209.92-28.16 49.152-79.872 76.288-133.12 76.288z m-247.296-262.656l12.8 20.992c72.704 116.736 128.512 186.88 165.376 208.384 66.048 37.888 150.528 15.36 188.928-50.688 37.888-66.048 15.36-150.528-50.688-188.928-36.864-21.504-124.416-34.304-261.12-39.424l-30.208-2.048 12.288-22.528c65.024-121.856 97.792-205.312 97.792-247.808 0-76.288-61.952-138.24-138.24-138.24s-138.24 61.952-138.24 138.24c0 43.008 32.768 125.952 97.792 247.808l12.288 22.528 0.512 1.024-25.6 1.024c-136.192 4.608-224.256 17.92-261.12 39.424-31.744 18.432-54.784 48.128-64.512 83.968-9.728 35.84-4.608 72.704 13.824 104.96 37.888 66.048 122.88 88.576 188.928 50.688 36.864-21.504 92.672-91.648 165.376-208.384l13.824-20.992z"
     fill=""
     id="path4" />
  <path
     d="M517.12 558.08m-87.04 0a87.04 87.04 0 1 0 174.08 0 87.04 87.04 0 1 0-174.08 0Z"
     fill="#7ED321"
     id="path6"
     style="fill:#f57c00;fill-opacity:1" />
  <path
     d="M517.12 652.8c-52.224 0-94.72-42.496-94.72-94.72s42.496-94.72 94.72-94.72 94.72 42.496 94.72 94.72-42.496 94.72-94.72 94.72z m0-174.08c-43.52 0-79.36 35.84-79.36 79.36s35.84 79.36 79.36 79.36 79.36-35.84 79.36-79.36-35.84-79.36-79.36-79.36z"
     fill=""
     id="path8" />
</svg>
