<?xml version="1.0" encoding="UTF-8" standalone="no"?>
<svg
   xmlns:dc="http://purl.org/dc/elements/1.1/"
   xmlns:cc="http://creativecommons.org/ns#"
   xmlns:rdf="http://www.w3.org/1999/02/22-rdf-syntax-ns#"
   xmlns:svg="http://www.w3.org/2000/svg"
   xmlns="http://www.w3.org/2000/svg"
   xmlns:sodipodi="http://sodipodi.sourceforge.net/DTD/sodipodi-0.dtd"
   xmlns:inkscape="http://www.inkscape.org/namespaces/inkscape"
   fill="#000000"
   width="800px"
   height="800px"
   viewBox="0 0 96 96"
   id="Layer_1_1_"
   version="1.1"
   xml:space="preserve"
   sodipodi:docname="flower-plant.svg"
   inkscape:version="1.0.1 (3bc2e813f5, 2020-09-07)"
   inkscape:export-filename="C:\Users\keega\Documents\cannlytics\cannlytics\app\assets\images\icons\flower-plant.png"
   inkscape:export-xdpi="96"
   inkscape:export-ydpi="96"><metadata
     id="metadata55"><rdf:RDF><cc:Work
         rdf:about=""><dc:format>image/svg+xml</dc:format><dc:type
           rdf:resource="http://purl.org/dc/dcmitype/StillImage" /></cc:Work></rdf:RDF></metadata><defs
     id="defs53" /><sodipodi:namedview
     pagecolor="#ffffff"
     bordercolor="#666666"
     borderopacity="1"
     objecttolerance="10"
     gridtolerance="10"
     guidetolerance="10"
     inkscape:pageopacity="0"
     inkscape:pageshadow="2"
     inkscape:window-width="1920"
     inkscape:window-height="1094"
     id="namedview51"
     showgrid="false"
     inkscape:zoom="0.470625"
     inkscape:cx="594.44183"
     inkscape:cy="297.13731"
     inkscape:window-x="-11"
     inkscape:window-y="-11"
     inkscape:window-maximized="1"
     inkscape:current-layer="Layer_1_1_" /><circle
     cx="12"
     cy="12"
     r="5"
     id="circle2"
     style="fill:#f57c00;fill-opacity:1" /><rect
     height="3"
     width="2"
     x="11"
     y="2"
     id="rect4"
     style="fill:#f57c00;fill-opacity:1" /><rect
     height="3"
     width="2"
     x="11"
     y="19"
     id="rect6"
     style="fill:#f57c00;fill-opacity:1" /><rect
     height="2"
     width="3"
     x="19"
     y="11"
     id="rect8"
     style="fill:#f57c00;fill-opacity:1" /><rect
     height="2"
     width="3"
     x="2"
     y="11"
     id="rect10"
     style="fill:#f57c00;fill-opacity:1" /><rect
     height="2"
     transform="matrix(0.7071 -0.7071 0.7071 0.7071 1.0402 14.4897)"
     width="3"
     x="16.511"
     y="4.989"
     id="rect12"
     style="fill:#f57c00;fill-opacity:1" /><rect
     height="2"
     transform="matrix(0.7071 -0.7071 0.7071 0.7071 -10.9813 9.5103)"
     width="3"
     x="4.489"
     y="17.011"
     id="rect14"
     style="fill:#f57c00;fill-opacity:1" /><rect
     height="3"
     transform="matrix(0.7071 -0.7071 0.7071 0.7071 -7.4603 18.0107)"
     width="2"
     x="17.011"
     y="16.511"
     id="rect16"
     style="fill:#f57c00;fill-opacity:1" /><rect
     height="3"
     transform="matrix(0.7071 -0.7071 0.7071 0.7071 -2.4808 5.9893)"
     width="2"
     x="4.989"
     y="4.489"
     id="rect18"
     style="fill:#f57c00;fill-opacity:1" /><rect
     height="6"
     width="7"
     x="66"
     y="69"
     id="rect20"
     style="fill:#999999;fill-opacity:1" /><rect
     height="6"
     width="7"
     x="83"
     y="69"
     id="rect22"
     style="fill:#999999;fill-opacity:1" /><rect
     height="9"
     width="5"
     x="67"
     y="77"
     id="rect24"
     style="fill:#999999;fill-opacity:1" /><rect
     height="9"
     width="5"
     x="84"
     y="77"
     id="rect26"
     style="fill:#999999;fill-opacity:1" /><rect
     height="6"
     width="12"
     x="62"
     y="88"
     id="rect28"
     style="fill:#999999;fill-opacity:1" /><rect
     height="6"
     width="12"
     x="82"
     y="88"
     id="rect30"
     style="fill:#999999;fill-opacity:1" /><rect
     height="9"
     width="4"
     x="56"
     y="43"
     id="rect32"
     style="fill:#999999;fill-opacity:1" /><path
     d="M35,22l9.004,5.73H44v5.62c0.627-0.223,1.298-0.35,2-0.35s1.373,0.128,2,0.35v-5.62h-0.004L57,22l-1-6l-5,2l1,3l-5,2h-2  l-5-2l1-3l-5-2L35,22z"
     id="path34"
     style="fill:#999999;fill-opacity:1" /><path
     d="M47,19v-8.069c3.945-0.493,7-3.852,7-7.931c-4.079,0-7.438,3.055-7.931,7h-0.138C45.438,6.055,42.079,3,38,3  c0,4.079,3.055,7.438,7,7.931V19H47z"
     id="path36"
     style="fill:#7ed321;fill-opacity:1" /><path
     d="M9,83.931V90H6l-3,4h54l-3-4h-3v-6.069c3.945-0.493,7-3.852,7-7.931c-4.079,0-7.438,3.055-7.931,7h-0.138  c-0.493-3.945-3.852-7-7.931-7c0,4.079,3.055,7.438,7,7.931V90H31v-6.069c3.945-0.493,7-3.852,7-7.931c-4.079,0-7.438,3.055-7.931,7  h-0.138c-0.493-3.945-3.852-7-7.931-7c0,4.079,3.055,7.438,7,7.931V90H11v-6.069c3.945-0.493,7-3.852,7-7.931  c-4.079,0-7.438,3.055-7.931,7H9.931C9.438,79.055,6.079,76,2,76C2,80.079,5.055,83.438,9,83.931z"
     id="path38"
     style="fill:#7ed321;fill-opacity:1" /><path
     d="M67,24v13h22V24H79v-4.184c1.163-0.413,2-1.512,2-2.816c0-1.657-1.343-3-3-3s-3,1.343-3,3c0,1.304,0.837,2.403,2,2.816V24  H67z M70,27h4v2h-4V27z M82,27h4v2h-4V27z M82,34h-8v-2h8V34z"
     id="path40"
     style="fill:#999999;fill-opacity:1" /><path
     d="M62,67h32V39H62V67z M69,44h18v18H69V44z"
     id="path42"
     style="fill:#999999;fill-opacity:1" /><circle
     cx="78"
     cy="53"
     r="6"
     id="circle44"
     style="fill:#999999;fill-opacity:1" /><circle
     cx="46"
     cy="39"
     r="4"
     id="circle46"
     style="fill:#999999;fill-opacity:1" /><path
     d="M54,45l-2.883-2.883c-0.76,1.243-1.955,2.192-3.377,2.623L54,51V45z"
     id="path48"
     style="fill:#999999;fill-opacity:1" /><path
     d="M 9,90 H 6 L 3,94 H 57 L 54,90 H 51 49 31 29 11 Z"
     id="path38-0"
     style="fill:#999999;fill-opacity:1;stroke-width:1"
     sodipodi:nodetypes="ccccccccccc" /></svg>
