<?xml version="1.0" encoding="UTF-8" standalone="no"?>
<svg
   xmlns:dc="http://purl.org/dc/elements/1.1/"
   xmlns:cc="http://creativecommons.org/ns#"
   xmlns:rdf="http://www.w3.org/1999/02/22-rdf-syntax-ns#"
   xmlns:svg="http://www.w3.org/2000/svg"
   xmlns="http://www.w3.org/2000/svg"
   xmlns:sodipodi="http://sodipodi.sourceforge.net/DTD/sodipodi-0.dtd"
   xmlns:inkscape="http://www.inkscape.org/namespaces/inkscape"
   width="800px"
   height="800px"
   viewBox="0 0 2050 2050"
   data-name="Layer 3"
   id="Layer_3"
   version="1.1"
   sodipodi:docname="genetics-green.svg"
   inkscape:version="1.0.1 (3bc2e813f5, 2020-09-07)"
   inkscape:export-filename="C:\Users\keega\Documents\cannlytics\cannlytics\app\assets\images\icons\strains.png"
   inkscape:export-xdpi="96"
   inkscape:export-ydpi="96">
  <metadata
     id="metadata39">
    <rdf:RDF>
      <cc:Work
         rdf:about="">
        <dc:format>image/svg+xml</dc:format>
        <dc:type
           rdf:resource="http://purl.org/dc/dcmitype/StillImage" />
        <dc:title></dc:title>
      </cc:Work>
    </rdf:RDF>
  </metadata>
  <sodipodi:namedview
     pagecolor="#ffffff"
     bordercolor="#666666"
     borderopacity="1"
     objecttolerance="10"
     gridtolerance="10"
     guidetolerance="10"
     inkscape:pageopacity="0"
     inkscape:pageshadow="2"
     inkscape:window-width="1920"
     inkscape:window-height="1094"
     id="namedview37"
     showgrid="false"
     inkscape:zoom="0.66556426"
     inkscape:cx="236.41451"
     inkscape:cy="347.98484"
     inkscape:window-x="-11"
     inkscape:window-y="-11"
     inkscape:window-maximized="1"
     inkscape:current-layer="Layer_3"
     inkscape:document-rotation="0" />
  <defs
     id="defs4">
    <style
       id="style2">.cls-1{fill:#1682fc;}.cls-2{fill:#e0e1e2;}.cls-3{fill:#2e3a58;}</style>
  </defs>
  <path
     class="cls-1"
     d="m 1609.8098,682.37707 a 5.6965695,5.6965695 0 0 1 -3.9876,-1.70897 l -33.154,-33.15403 a 5.7198778,5.7198778 0 1 1 8.0891,-8.08913 l 33.1541,33.15403 a 5.8105009,5.8105009 0 0 1 0,8.08913 5.8105009,5.8105009 0 0 1 -4.1016,1.70897 z m -84.3092,-84.30923 a 5.6965695,5.6965695 0 0 1 -3.9876,-1.70897 l -51.1552,-51.15519 a 5.7199034,5.7199034 0 0 1 8.0892,-8.08913 l 51.1551,51.15519 a 5.8105009,5.8105009 0 0 1 0,8.08913 5.8105009,5.8105009 0 0 1 -4.1015,1.70897 z M 1423.1902,495.64352 a 5.6965695,5.6965695 0 0 1 -3.9876,-1.59504 l -51.2691,-51.26912 a 5.6965695,5.6965695 0 0 1 0,-7.9752 5.6965695,5.6965695 0 0 1 8.0891,0 l 51.1552,51.1552 a 5.6965695,5.6965695 0 0 1 -3.9876,9.68416 z"
     id="path8"
     style="fill:#f57c00;fill-opacity:1;stroke-width:1" />
  <path
     class="cls-1"
     d="m 1235.7731,955.12877 a 5.3547753,5.3547753 0 0 1 -3.9876,-1.7089 l -51.1552,-51.15522 a 5.6393161,5.6393161 0 0 1 7.9752,-7.97519 l 51.1552,51.15519 a 5.4687067,5.4687067 0 0 1 0,7.97522 5.3547753,5.3547753 0 0 1 -3.9876,1.7089 z M 1133.4627,852.81843 a 5.8105009,5.8105009 0 0 1 -4.1015,-1.70897 l -51.1552,-51.15519 a 5.7198778,5.7198778 0 1 1 8.0891,-8.08913 l 51.1552,51.15519 a 5.6965695,5.6965695 0 0 1 0,8.08913 5.6965695,5.6965695 0 0 1 -3.9876,1.70897 z"
     id="path10"
     style="fill:#f57c00;fill-opacity:1;stroke-width:1" />
  <path
     class="cls-1"
     d="m 1168.3257,1123.8612 a 5.6965695,5.6965695 0 0 1 -4.1015,-1.595 l -33.1541,-33.154 a 5.7199282,5.7199282 0 1 1 8.0892,-8.0892 l 33.154,33.1541 a 5.8105009,5.8105009 0 0 1 0,8.0891 5.5826381,5.5826381 0 0 1 -3.9876,1.595 z m -84.3092,-84.3092 a 5.6965695,5.6965695 0 0 1 -4.1015,-1.595 l -51.1552,-51.15523 a 5.7198928,5.7198928 0 1 1 8.0891,-8.0892 l 51.1552,51.15523 a 5.8105009,5.8105009 0 0 1 0,8.0892 5.5826381,5.5826381 0 0 1 -3.9876,1.595 z M 981.59215,937.24159 a 5.5826381,5.5826381 0 0 1 -3.9876,-1.70897 l -51.1552,-51.15519 a 5.639318,5.639318 0 0 1 7.9752,-7.9752 l 51.2691,51.15519 a 5.6965695,5.6965695 0 0 1 0,7.9752 5.8105009,5.8105009 0 0 1 -4.1015,1.70897 z"
     id="path12"
     style="fill:#f57c00;fill-opacity:1;stroke-width:1" />
  <path
     class="cls-1"
     d="m 1050.1789,1242.0081 a 5.6965695,5.6965695 0 0 1 -4.1016,-1.5951 l -33.154,-33.154 a 5.7198778,5.7198778 0 1 1 8.0891,-8.0891 l 33.1541,33.154 a 5.6965695,5.6965695 0 0 1 -3.9876,9.6842 z m -84.30935,-84.3092 a 6.1522951,6.1522951 0 0 1 -4.1015,-1.5951 l -51.15518,-51.1552 a 5.8105009,5.8105009 0 0 1 0,-8.0891 5.6965695,5.6965695 0 0 1 8.08909,0 l 51.1552,51.1552 a 5.8105009,5.8105009 0 0 1 0,8.0891 6.1522951,6.1522951 0 0 1 -3.98761,1.5951 z M 863.44526,1055.3885 a 5.5826381,5.5826381 0 0 1 -3.9876,-1.709 l -51.15519,-51.1552 a 5.6965695,5.6965695 0 0 1 0,-8.08913 5.6965695,5.6965695 0 0 1 7.9752,0 l 51.26912,51.26913 a 5.6965695,5.6965695 0 0 1 0,7.9752 5.8105009,5.8105009 0 0 1 -4.10153,1.709 z"
     id="path14"
     style="fill:#f57c00;fill-opacity:1;stroke-width:1" />
  <path
     class="cls-1"
     d="m 1461.5851,729.08894 a 5.6965695,5.6965695 0 0 1 -3.9876,-1.70897 l -51.1552,-51.15519 a 5.6965695,5.6965695 0 0 1 0,-8.08913 5.8105009,5.8105009 0 0 1 8.0891,0 l 51.1552,51.15519 a 5.8105009,5.8105009 0 0 1 0,8.08913 5.8105009,5.8105009 0 0 1 -4.1015,1.70897 z M 1359.2747,626.66462 a 5.6965695,5.6965695 0 0 1 -3.9876,-1.59504 l -51.2691,-51.26912 a 5.6965695,5.6965695 0 0 1 0,-7.9752 5.6965695,5.6965695 0 0 1 8.0891,0 l 51.1552,51.15519 a 5.6965695,5.6965695 0 0 1 -3.9876,9.68417 z"
     id="path16"
     style="fill:#f57c00;fill-opacity:1;stroke-width:1" />
  <path
     class="cls-1"
     d="m 679.67393,1623.2225 a 5.6965695,5.6965695 0 0 1 -3.9876,-1.595 l -51.26912,-51.2691 a 5.6965695,5.6965695 0 0 1 0,-7.9752 5.6965695,5.6965695 0 0 1 8.08912,0 l 51.1552,51.1552 a 5.6965695,5.6965695 0 0 1 0,8.0891 5.9244323,5.9244323 0 0 1 -3.9876,1.595 z M 577.36354,1520.9121 a 5.8105009,5.8105009 0 0 1 -4.10153,-1.7089 l -51.15519,-51.1552 a 5.6965695,5.6965695 0 0 1 0,-8.0892 5.8105009,5.8105009 0 0 1 8.08913,0 l 51.15519,51.2692 a 5.6965695,5.6965695 0 0 1 -3.9876,9.6841 z M 474.93922,1418.6017 a 5.5826381,5.5826381 0 0 1 -3.9876,-1.7089 l -51.15519,-51.1552 a 5.6965695,5.6965695 0 0 1 0,-8.0892 5.4687067,5.4687067 0 0 1 7.9752,0 l 51.26912,51.1552 a 5.8105009,5.8105009 0 0 1 0,8.0892 5.8105009,5.8105009 0 0 1 -4.10153,1.7089 z"
     id="path18"
     style="fill:#f57c00;fill-opacity:1;stroke-width:1" />
  <path
     class="cls-1"
     d="m 702.46021,1462.5793 a 5.6965695,5.6965695 0 0 1 -3.9876,-1.709 l -51.15519,-51.1552 a 5.4687067,5.4687067 0 0 1 0,-7.9752 5.6965695,5.6965695 0 0 1 8.08912,0 l 51.1552,51.1552 a 5.6965695,5.6965695 0 0 1 0,7.9752 5.8105009,5.8105009 0 0 1 -4.10153,1.709 z M 600.14982,1360.2689 a 5.3547753,5.3547753 0 0 1 -3.9876,-1.709 l -51.15519,-51.1552 a 5.6965695,5.6965695 0 0 1 0,-8.0891 5.6965695,5.6965695 0 0 1 7.97519,0 l 51.1552,51.1552 a 5.6965695,5.6965695 0 0 1 0,8.0891 5.3547753,5.3547753 0 0 1 -3.9876,1.709 z"
     id="path20"
     style="fill:#f57c00;fill-opacity:1;stroke-width:1" />
  <path
     class="cls-3"
     d="m 695.62432,1716.8741 a 16.633983,16.633983 0 0 1 -12.07672,-5.013 l -38.39488,-38.2809 a 17.089708,17.089708 0 0 1 0,-24.2674 c 50.35767,-50.3577 78.61266,-105.6144 88.86648,-174.0872 9.22845,-61.8647 2.73436,-126.3499 -4.10153,-194.7087 -7.17767,-71.435 -14.58321,-145.1486 -3.19008,-218.7483 13.10211,-85.90423 50.24375,-158.36463 113.47567,-221.59655 63.23193,-63.23192 135.6923,-100.25963 221.59664,-113.47567 61.295,-9.4563 123.3877,-5.69657 181.3787,-0.34179 l -3.0761,33.95155 c -55.8264,-5.12691 -115.5264,-8.65878 -173.0618,0.11393 -78.49875,12.07673 -144.80685,46.02829 -202.68399,103.90543 -57.87713,57.87715 -91.8287,124.18517 -103.90542,202.684 -10.59562,69.2703 -3.41795,140.8192 3.53187,210.0895 6.94981,69.2702 13.7857,137.0594 3.87367,203.2536 -10.48169,69.3842 -38.85061,128.7424 -86.70179,180.8091 l 14.24142,14.2414 c 50.69947,-54.9149 80.89129,-117.3493 92.05656,-190.2654 10.59562,-69.2703 3.41795,-140.8192 -3.53187,-210.0895 -6.94981,-69.2703 -13.7857,-137.1734 -3.87367,-203.2536 11.27921,-74.96693 43.5218,-138.19881 98.55066,-193.22767 52.52241,-52.52238 112.10851,-84.08137 182.40416,-96.72776 63.0041,-11.16527 126.6917,-6.49408 191.8605,-0.11393 l -3.304,34.06549 c -134.0973,-13.10211 -244.8386,-15.03894 -346.80721,86.92965 -50.35767,50.35769 -78.61266,105.72832 -88.86648,174.08722 -9.22845,61.9786 -2.73436,126.4638 4.10153,194.8227 7.17768,71.321 14.58322,145.1485 3.30401,218.6343 -13.21604,85.9043 -50.35768,158.4786 -113.5896,221.5965 a 16.633983,16.633983 0 0 1 -12.07673,5.013 z"
     id="path28"
     style="stroke-width:1;fill:#7ed321;fill-opacity:1" />
  <path
     class="cls-3"
     d="m 1408.1513,827.06994 c -33.8376,0 -67.2195,-2.50649 -99.3482,-5.46871 l 3.0762,-34.06549 c 55.9403,5.24085 115.5264,8.77272 173.2896,-0.11393 72.9161,-11.16527 135.3505,-41.35709 190.2654,-92.05656 l -14.2414,-14.24142 c -48.6487,44.77503 -103.2218,72.34643 -166.4538,84.30922 -63.2319,11.9628 -127.6031,7.17768 -188.2146,1.48111 l 3.1901,-34.06548 c 58.2189,5.58264 119.8558,10.02596 178.6444,-1.02539 62.5483,-11.84886 113.7035,-39.30632 160.985,-86.70178 a 17.20364,17.20364 0 0 1 24.1535,0 l 38.3949,38.39488 a 17.317571,17.317571 0 0 1 5.013,12.07672 17.089708,17.089708 0 0 1 -5.013,12.07673 c -63.2319,63.23192 -135.6923,100.37355 -221.5966,113.5896 a 539.3512,539.3512 0 0 1 -82.1445,5.8105 z"
     id="path30"
     style="fill:#7ed321;fill-opacity:1;stroke-width:1" />
  <path
     class="cls-3"
     d="m 906.0556,1329.1656 c -33.26796,0 -65.96627,-2.3926 -97.52527,-5.2408 l 3.19008,-34.0655 c 55.02886,5.013 113.93144,8.5448 171.35284,-0.3418 78.38485,-11.9628 144.69285,-46.0283 202.57005,-103.9054 57.8771,-57.8772 91.8287,-124.0713 103.9054,-202.57013 10.5956,-69.27025 3.418,-140.81916 -3.5319,-210.08944 -6.9498,-69.27029 -13.7857,-137.1734 -3.8736,-203.2536 10.4817,-69.38422 38.8506,-128.74247 86.7018,-180.80912 l -14.2415,-14.24142 c -50.6994,54.91493 -80.8913,117.34933 -92.0565,190.26542 -10.5956,69.27028 -3.418,140.8192 3.5318,210.08948 6.9499,69.27029 13.7857,137.1734 3.8737,203.25358 -11.2792,74.96693 -43.5218,138.19883 -98.5506,193.22773 -51.7249,51.7248 -110.3996,83.1699 -179.21414,96.0441 -63.118,11.8489 -127.83104,7.1777 -188.6704,1.3672 l 3.30401,-34.0655 c 58.33287,5.5826 120.31159,10.1399 179.10019,-0.9114 62.66224,-11.735 113.93134,-39.3064 161.32684,-86.7018 50.3577,-50.3577 78.6127,-105.6144 88.8665,-174.08723 9.2284,-61.86474 2.7343,-126.3499 -4.1015,-194.70874 -7.1777,-71.43498 -14.5833,-145.14859 -3.1901,-218.74827 13.1021,-85.90426 50.2437,-158.36463 113.4756,-221.59655 a 17.20364,17.20364 0 0 1 24.1535,0 l 38.3949,38.39488 a 17.089708,17.089708 0 0 1 0,24.15345 c -50.3577,50.35768 -78.6127,105.72833 -88.8665,174.08717 -9.2284,61.97867 -2.7344,126.46384 4.1015,194.82267 7.1777,71.32105 14.5832,145.1486 3.304,218.63439 -13.216,85.90423 -50.3576,158.47853 -113.5896,221.59653 -63.2319,63.118 -135.6922,100.3736 -221.59654,113.5896 a 540.37658,540.37658 0 0 1 -82.14456,5.8105 z"
     id="path32"
     style="stroke-width:1;fill:#7ed321;fill-opacity:1" />
  <path
     class="cls-3"
     d="m 388.57923,1409.829 v 0 a 17.089708,17.089708 0 0 1 -12.07673,-5.013 l -38.39488,-38.3948 a 17.089708,17.089708 0 0 1 -5.01298,-12.0768 17.317571,17.317571 0 0 1 5.01298,-12.0767 c 63.23192,-63.118 135.69229,-100.2596 221.59656,-113.4757 61.52295,-9.4563 124.29914,-5.6965 182.85988,-0.2278 l -3.19008,34.0655 c -95.47451,-9.0006 -140.24954,-5.3548 -174.42896,-0.114 -73.03002,11.2792 -135.46442,41.3571 -190.37934,92.0566 l 14.24141,14.2414 c 48.6487,-44.6611 103.4497,-72.3464 166.79557,-84.1953 63.34585,-11.8488 127.71708,-7.1776 188.55645,-1.3671 l -3.30401,33.9515 c -58.33288,-5.5826 -120.19762,-10.026 -178.98622,0.9115 -62.66226,11.8488 -113.81746,39.4202 -161.21291,86.7017 a 17.089708,17.089708 0 0 1 -12.07674,5.013 z"
     id="path34"
     style="stroke-width:1;fill:#7ed321;fill-opacity:1" />
</svg>
