<?xml version="1.0" encoding="UTF-8" standalone="no"?>
<svg
   xmlns:dc="http://purl.org/dc/elements/1.1/"
   xmlns:cc="http://creativecommons.org/ns#"
   xmlns:rdf="http://www.w3.org/1999/02/22-rdf-syntax-ns#"
   xmlns:svg="http://www.w3.org/2000/svg"
   xmlns="http://www.w3.org/2000/svg"
   xmlns:sodipodi="http://sodipodi.sourceforge.net/DTD/sodipodi-0.dtd"
   xmlns:inkscape="http://www.inkscape.org/namespaces/inkscape"
   width="800px"
   height="800px"
   viewBox="0 0 2050 2050"
   data-name="Layer 3"
   id="Layer_3"
   version="1.1"
   sodipodi:docname="heavy-metal.svg"
   inkscape:version="1.0.1 (3bc2e813f5, 2020-09-07)"
   inkscape:export-filename="C:\Users\keega\Documents\cannlytics\cannlytics\app\assets\images\icons\heavy-metal.png"
   inkscape:export-xdpi="96"
   inkscape:export-ydpi="96">
  <metadata
     id="metadata39">
    <rdf:RDF>
      <cc:Work
         rdf:about="">
        <dc:format>image/svg+xml</dc:format>
        <dc:type
           rdf:resource="http://purl.org/dc/dcmitype/StillImage" />
      </cc:Work>
    </rdf:RDF>
  </metadata>
  <sodipodi:namedview
     pagecolor="#ffffff"
     bordercolor="#666666"
     borderopacity="1"
     objecttolerance="10"
     gridtolerance="10"
     guidetolerance="10"
     inkscape:pageopacity="0"
     inkscape:pageshadow="2"
     inkscape:window-width="1920"
     inkscape:window-height="1094"
     id="namedview37"
     showgrid="false"
     inkscape:zoom="0.94125"
     inkscape:cx="400"
     inkscape:cy="400"
     inkscape:window-x="-11"
     inkscape:window-y="-11"
     inkscape:window-maximized="1"
     inkscape:current-layer="Layer_3" />
  <defs
     id="defs4">
    <style
       id="style2">.cls-1{fill:#e0e1e2;}.cls-2{fill:#2e3a58;}.cls-3{fill:#1682fc;}</style>
  </defs>
  <title
     id="title6" />
  <path
     class="cls-1"
     d="M954.1,517.7c-287.5,0-520.6,233.1-520.6,520.6S666.6,1559,954.1,1559s520.6-233.1,520.6-520.7S1241.7,517.7,954.1,517.7Zm0,962.4c-244,0-441.7-197.8-441.7-441.8S710.1,596.6,954.1,596.6s441.8,197.7,441.8,441.7S1198.1,1480.1,954.1,1480.1Z"
     id="path8" />
  <path
     class="cls-2"
     d="M952.6,1570.7a531.5,531.5,0,1,1,349.3-931.6,15,15,0,1,1-19.8,22.6,500.5,500.5,0,1,0,106.3,129.9,15,15,0,1,1,26.1-14.9,531.2,531.2,0,0,1-461.9,794Z"
     id="path10" />
  <path
     class="cls-3"
     d="M929.2,1487.1H929a447.7,447.7,0,0,1-60.2-7.2,5,5,0,0,1-4-5.8,4.9,4.9,0,0,1,5.8-4,444.6,444.6,0,0,0,58.9,7,5,5,0,0,1,4.7,5.3A5,5,0,0,1,929.2,1487.1Zm59.9-.9a4.9,4.9,0,0,1-4.9-4.6,5,5,0,0,1,4.5-5.4,442.8,442.8,0,0,0,58.6-8.7,5,5,0,0,1,6,3.8,4.9,4.9,0,0,1-3.8,5.9,447.6,447.6,0,0,1-60,9Zm-177.4-21.3a4.5,4.5,0,0,1-1.6-.3,448.5,448.5,0,0,1-56-23.1,5.1,5.1,0,0,1-2.3-6.7,5,5,0,0,1,6.7-2.3,421.1,421.1,0,0,0,54.8,22.6,5,5,0,0,1-1.6,9.8Zm294.2-4.4a5.2,5.2,0,0,1-4.7-3.3,5,5,0,0,1,3-6.4,444,444,0,0,0,54.1-24.2,4.9,4.9,0,0,1,6.7,2,5,5,0,0,1-2,6.8,448.8,448.8,0,0,1-55.3,24.8A5.7,5.7,0,0,1,1105.9,1460.5Zm-401.5-48.7a5.3,5.3,0,0,1-2.7-.8,465.9,465.9,0,0,1-47.9-37.3,5,5,0,0,1,6.7-7.5,435.2,435.2,0,0,0,46.8,36.5,5,5,0,0,1-2.9,9.1Zm507.1-7.5a4.9,4.9,0,0,1-4.1-2.1,5,5,0,0,1,1.2-7,443.8,443.8,0,0,0,45.6-37.8,5,5,0,0,1,6.9,7.3,443.9,443.9,0,0,1-46.7,38.7A5.2,5.2,0,0,1,1211.5,1404.3Zm-596.2-72.2a4.9,4.9,0,0,1-3.8-1.8,450.5,450.5,0,0,1-36.2-48.6,5,5,0,1,1,8.4-5.4,453.9,453.9,0,0,0,35.4,47.5,5.1,5.1,0,0,1-.6,7.1A4.9,4.9,0,0,1,615.3,1332.1Zm683-10.1a5.6,5.6,0,0,1-3.2-1.1,4.9,4.9,0,0,1-.7-7,464.3,464.3,0,0,0,33.9-48.6,4.9,4.9,0,0,1,6.9-1.7,5,5,0,0,1,1.7,6.8,450.8,450.8,0,0,1-34.7,49.7A4.9,4.9,0,0,1,1298.3,1322Zm-747.7-90.5a4.8,4.8,0,0,1-4.5-2.9,439.9,439.9,0,0,1-21.9-56.5,5.1,5.1,0,0,1,3.3-6.3,5.1,5.1,0,0,1,6.3,3.3,429.6,429.6,0,0,0,21.3,55.3,5,5,0,0,1-2.4,6.7A5.2,5.2,0,0,1,550.6,1231.5Zm809.4-12a4.8,4.8,0,0,1-2-.4,5,5,0,0,1-2.6-6.6,441.2,441.2,0,0,0,19.7-55.9,5,5,0,0,1,6.1-3.5,5,5,0,0,1,3.5,6.2,451.3,451.3,0,0,1-20.1,57.2A5,5,0,0,1,1360,1219.5ZM515.2,1117.3a4.9,4.9,0,0,1-4.9-4.2,449.3,449.3,0,0,1-5.8-60.3,5,5,0,0,1,4.8-5.2,5.1,5.1,0,0,1,5.2,4.9,448,448,0,0,0,5.7,59,5,5,0,0,1-4.1,5.7Zm876.7-13.1h-.7a5,5,0,0,1-4.2-5.7,446.7,446.7,0,0,0,3.9-59.1c0-8.7-.3-17.5-.8-26.1a5,5,0,0,1,4.7-5.3,4.9,4.9,0,0,1,5.3,4.7c.5,8.8.8,17.8.8,26.7a469.3,469.3,0,0,1-4,60.5A5.1,5.1,0,0,1,1391.9,1104.2ZM511.7,997.7h-.5a5,5,0,0,1-4.5-5.5,443.6,443.6,0,0,1,10.4-59.7,5.1,5.1,0,0,1,6.1-3.7,5.1,5.1,0,0,1,3.6,6.1,440,440,0,0,0-10.1,58.4A5.1,5.1,0,0,1,511.7,997.7Zm875.9-39.2a4.9,4.9,0,0,1-4.9-4,436.3,436.3,0,0,0-15.4-57.3,5,5,0,0,1,3.1-6.3,5,5,0,0,1,6.4,3.1,459.1,459.1,0,0,1,15.7,58.5,5,5,0,0,1-3.9,5.9Zm-847.4-77a6.3,6.3,0,0,1-1.9-.3,5.1,5.1,0,0,1-2.8-6.5,450.3,450.3,0,0,1,26.1-54.8,5,5,0,0,1,6.8-1.9,5,5,0,0,1,1.9,6.8,438.3,438.3,0,0,0-25.5,53.6A5,5,0,0,1,540.2,881.5Zm808.6-36.1a4.8,4.8,0,0,1-4.4-2.8,443.8,443.8,0,0,0-30.2-51,5,5,0,0,1,8.2-5.6,440.7,440.7,0,0,1,30.9,52.1,5,5,0,0,1-2.2,6.7A4.9,4.9,0,0,1,1348.8,845.4Zm-750-68.2a4.9,4.9,0,0,1-3-1,5.1,5.1,0,0,1-1-7,466.3,466.3,0,0,1,39.8-45.8,5,5,0,0,1,7,0,5,5,0,0,1,0,7.1,448.3,448.3,0,0,0-38.8,44.8A5,5,0,0,1,598.8,777.2Zm682.4-30.4a4.8,4.8,0,0,1-3.7-1.7,447.9,447.9,0,0,0-42.7-41.1,5,5,0,1,1,6.4-7.6,455.9,455.9,0,0,1,43.7,42,5,5,0,0,1-.4,7.1A4.6,4.6,0,0,1,1281.2,746.8ZM683.1,692.4a5,5,0,0,1-3-9,445.1,445.1,0,0,1,50.4-33.5,4.9,4.9,0,0,1,6.8,1.8,5.1,5.1,0,0,1-1.8,6.9,436.1,436.1,0,0,0-49.4,32.8A5.4,5.4,0,0,1,683.1,692.4Zm506.6-22.7a5,5,0,0,1-2.7-.7,437.4,437.4,0,0,0-52.1-28.3,5.1,5.1,0,0,1-2.5-6.7,4.9,4.9,0,0,1,6.6-2.4,441.8,441.8,0,0,1,53.3,28.9,4.9,4.9,0,0,1,1.6,6.9A5.1,5.1,0,0,1,1189.7,669.7ZM786.9,633.1a5,5,0,0,1-1.9-9.6,431.9,431.9,0,0,1,57.7-18.8,4.9,4.9,0,0,1,6,3.6,5,5,0,0,1-3.6,6.1,440.4,440.4,0,0,0-56.3,18.3A4.3,4.3,0,0,1,786.9,633.1Zm294-13.2a3.9,3.9,0,0,1-1.5-.2,436,436,0,0,0-57.8-13.2,5,5,0,0,1-4.1-5.7,5.1,5.1,0,0,1,5.7-4.2,459.6,459.6,0,0,1,59.1,13.5,5.1,5.1,0,0,1,3.3,6.3A4.9,4.9,0,0,1,1080.9,619.9Zm-178-16a5,5,0,0,1-.6-10,469.5,469.5,0,0,1,60.6-2.7,5,5,0,0,1,4.8,5.1,4.9,4.9,0,0,1-5.1,4.9,449.6,449.6,0,0,0-59.2,2.6Z"
     id="path12"
     style="fill:#f57c00;fill-opacity:1" />
  <path
     class="cls-1"
     d="M1463.3,748.8c-83.5,0-152.5-61.8-164-142.1a169.5,169.5,0,0,0-1.7,23.7,165.7,165.7,0,0,0,331.4,0,169.5,169.5,0,0,0-1.7-23.7C1615.8,687,1546.8,748.8,1463.3,748.8Z"
     id="path14" />
  <path
     class="cls-2"
     d="M1463.3,811.1c-99.6,0-180.7-81.1-180.7-180.7s81.1-180.7,180.7-180.7S1644,530.8,1644,630.4,1562.9,811.1,1463.3,811.1Zm0-331.4c-83.1,0-150.7,67.6-150.7,150.7s67.6,150.7,150.7,150.7S1614,713.5,1614,630.4,1546.4,479.7,1463.3,479.7Z"
     id="path16" />
  <path
     class="cls-3"
     d="M1483.1,667.4h-39.6L1432,566.2a31.5,31.5,0,0,1,31.3-35.1h0a31.6,31.6,0,0,1,31.4,35.1Z"
     id="path18"
     style="fill:#f57c00;fill-opacity:1" />
  <circle
     class="cls-3"
     cx="1463.3"
     cy="708.2"
     r="24.9"
     id="circle20"
     style="fill:#f57c00;fill-opacity:1" />
  <path
     class="cls-1"
     d="M864.8,1089a101.1,101.1,0,0,1-7.1-86.4l-82.9-2.7a180,180,0,0,0-4.1,38.4A182,182,0,0,0,897,1211.6l39.1-73.2A101.2,101.2,0,0,1,864.8,1089Z"
     id="path22" />
  <path
     class="cls-1"
     d="M1040.4,1089a101.2,101.2,0,0,1-71.3,49.4l39.1,73.2a182.1,182.1,0,0,0,126.3-173.3,180,180,0,0,0-4.1-38.4l-82.9,2.7A101.1,101.1,0,0,1,1040.4,1089Z"
     id="path24" />
  <path
     class="cls-1"
     d="M952.6,856.4a181.4,181.4,0,0,0-122.2,47.2L874.2,974a101.4,101.4,0,0,1,156.8,0l43.8-70.4A181.4,181.4,0,0,0,952.6,856.4Z"
     id="path26" />
  <path
     class="cls-3"
     d="M1031,989a15,15,0,0,1-11.6-5.5,86.4,86.4,0,0,0-133.6,0,15.3,15.3,0,0,1-12.6,5.5,15.1,15.1,0,0,1-11.7-7.1l-140-224.8a15,15,0,0,1,3.7-19.9,377.4,377.4,0,0,1,454.8,0,15,15,0,0,1,3.7,19.9l-140,224.8A15.1,15.1,0,0,1,1032,989ZM754.4,753.1,876.9,949.9a116.3,116.3,0,0,1,151.4,0l122.5-196.8a347.3,347.3,0,0,0-396.4,0Z"
     id="path28"
     style="fill:#f57c00;fill-opacity:1" />
  <path
     class="cls-3"
     d="M811.4,1387a15.2,15.2,0,0,1-5.9-1.2c-76.1-32.2-138.2-87.1-179.7-158.8s-57.9-153-47.7-235a15.2,15.2,0,0,1,15.4-13.2l264.7,8.8a15.1,15.1,0,0,1,13.5,20.3,86.5,86.5,0,0,0,66.8,115.7,15.1,15.1,0,0,1,10.8,21.9L824.6,1379.1A15.1,15.1,0,0,1,811.4,1387ZM606.5,1009.3c-6.1,70.8,9.5,140.6,45.3,202.7a344.3,344.3,0,0,0,152.9,140.6l109.2-204.5A116.6,116.6,0,0,1,838.1,1017Z"
     id="path30"
     style="fill:#f57c00;fill-opacity:1" />
  <path
     class="cls-3"
     d="M1093.8,1387a15,15,0,0,1-13.2-7.9L955.9,1145.5a15.1,15.1,0,0,1,10.8-21.9,86.5,86.5,0,0,0,66.8-115.7,15,15,0,0,1,13.5-20.3l264.7-8.8a15.2,15.2,0,0,1,15.4,13.2c10.2,82-6.3,163.2-47.8,235a374.2,374.2,0,0,1-179.6,158.8A15.2,15.2,0,0,1,1093.8,1387ZM991.3,1148.1l109.2,204.5A344.3,344.3,0,0,0,1253.4,1212h0c35.8-62.1,51.4-131.9,45.3-202.7L1067,1017a116.4,116.4,0,0,1-75.7,131.1Z"
     id="path32"
     style="fill:#f57c00;fill-opacity:1" />
  <path
     class="cls-2"
     d="M952.6,1154.9A116.7,116.7,0,0,1,836,1038.3c0-64.2,52.3-116.5,116.6-116.5s116.6,52.3,116.6,116.5A116.7,116.7,0,0,1,952.6,1154.9Zm0-203.1a86.6,86.6,0,1,0,86.6,86.5A86.7,86.7,0,0,0,952.6,951.8Z"
     id="path34" />
</svg>
