<?xml version="1.0" encoding="UTF-8" standalone="no"?>
<svg
   xmlns:dc="http://purl.org/dc/elements/1.1/"
   xmlns:cc="http://creativecommons.org/ns#"
   xmlns:rdf="http://www.w3.org/1999/02/22-rdf-syntax-ns#"
   xmlns:svg="http://www.w3.org/2000/svg"
   xmlns="http://www.w3.org/2000/svg"
   xmlns:sodipodi="http://sodipodi.sourceforge.net/DTD/sodipodi-0.dtd"
   xmlns:inkscape="http://www.inkscape.org/namespaces/inkscape"
   width="800px"
   height="800px"
   viewBox="0 0 64 64"
   version="1.1"
   id="svg43"
   sodipodi:docname="images.svg"
   inkscape:export-filename="C:\Users\keega\Documents\cannlytics\cannlytics\app\assets\images\icons\images.png"
   inkscape:export-xdpi="96"
   inkscape:export-ydpi="96"
   inkscape:version="1.0.1 (3bc2e813f5, 2020-09-07)">
  <metadata
     id="metadata47">
    <rdf:RDF>
      <cc:Work
         rdf:about="">
        <dc:format>image/svg+xml</dc:format>
        <dc:type
           rdf:resource="http://purl.org/dc/dcmitype/StillImage" />
      </cc:Work>
    </rdf:RDF>
  </metadata>
  <sodipodi:namedview
     pagecolor="#ffffff"
     bordercolor="#666666"
     borderopacity="1"
     objecttolerance="10"
     gridtolerance="10"
     guidetolerance="10"
     inkscape:pageopacity="0"
     inkscape:pageshadow="2"
     inkscape:window-width="1920"
     inkscape:window-height="1094"
     id="namedview45"
     showgrid="false"
     inkscape:zoom="0.94125"
     inkscape:cx="400"
     inkscape:cy="400"
     inkscape:window-x="-11"
     inkscape:window-y="-11"
     inkscape:window-maximized="1"
     inkscape:current-layer="svg43" />
  <defs
     id="defs4">
    <style
       id="style2">.cls-1{fill:#f57c00;}.cls-2{fill:#999;}.cls-3{fill:#666;}</style>
  </defs>
  <title
     id="title6" />
  <g
     data-name="outline color"
     id="outline_color">
    <path
       class="cls-1"
       d="M59,60H23a1,1,0,0,1-1-1V36a1,1,0,0,1,1-1H59a1,1,0,0,1,1,1V59A1,1,0,0,1,59,60ZM24,58H58V37H24Z"
       id="path8" />
    <path
       class="cls-1"
       d="M28.5,45A3.5,3.5,0,1,1,32,41.5,3.5,3.5,0,0,1,28.5,45Zm0-5A1.5,1.5,0,1,0,30,41.5,1.5,1.5,0,0,0,28.5,40Z"
       id="path10" />
    <path
       class="cls-1"
       d="M23,56a1,1,0,0,1-.6-1.8,23,23,0,0,1,18.75-4,38.2,38.2,0,0,1,8.29,3.19,1,1,0,1,1-.88,1.79,37,37,0,0,0-7.85-3A21,21,0,0,0,23.6,55.75,1,1,0,0,1,23,56Z"
       id="path12" />
    <path
       class="cls-1"
       d="M59,52.41a1,1,0,0,1-.44-.1,14.18,14.18,0,0,0-3.65-1.18,1,1,0,0,1,.34-2,15.78,15.78,0,0,1,4.19,1.34,1,1,0,0,1-.44,1.9Z"
       id="path14" />
    <path
       class="cls-1"
       d="M44.72,52.72a1,1,0,0,1-.47-1.88A16.6,16.6,0,0,1,50.64,49a1,1,0,0,1,1.09.91A1,1,0,0,1,50.82,51a14.51,14.51,0,0,0-5.63,1.64A1,1,0,0,1,44.72,52.72Z"
       id="path16" />
    <path
       class="cls-1"
       d="M53,56a1,1,0,0,1-1-1V51a1,1,0,0,1,2,0v4A1,1,0,0,1,53,56Z"
       id="path18" />
    <path
       class="cls-1"
       d="M53,52a4,4,0,0,1-1.93-7.51,1,1,0,1,1,1,1.76,2,2,0,0,0-.54,3.06,2,2,0,0,0,2.89.13.27.27,0,0,1,.08-.07A2,2,0,0,0,55,48a2,2,0,0,0-1-1.75,1,1,0,1,1,1-1.76,4,4,0,0,1,.85,6.38l-.09.08A3.94,3.94,0,0,1,53,52Z"
       id="path20" />
    <path
       class="cls-1"
       d="M54.45,46.37a1,1,0,0,1-.72-1.7A.92.92,0,0,0,54,44a1,1,0,0,0-2,0,.92.92,0,0,0,.27.67,1,1,0,0,1-1.44,1.4,3,3,0,1,1,4.34,0A1,1,0,0,1,54.45,46.37Z"
       id="path22" />
    <path
       class="cls-2"
       d="M19,54a1,1,0,0,1-.7-.28,5.21,5.21,0,0,1-1.09-1.56L4.56,23.84a5,5,0,0,1,2.52-6.61L28.62,7.61a1,1,0,1,1,.82,1.82L7.9,19.05a3,3,0,0,0-1.52,4L19,51.32a3.26,3.26,0,0,0,.67,1A1,1,0,0,1,19,54Z"
       id="path24" />
    <path
       class="cls-3"
       d="M22.21,24.76a1,1,0,0,1-1-.85,7.36,7.36,0,0,1-.07-2.52v0a7.55,7.55,0,0,1,3.68-5.44,1.06,1.06,0,0,1,.5-.13,1,1,0,0,1,.43,1.91,5.49,5.49,0,0,0-2.62,3.9.13.13,0,0,0,0,.06,5.52,5.52,0,0,0,.06,1.9,1.49,1.49,0,0,1,0,.21A1,1,0,0,1,22.21,24.76Z"
       id="path26" />
    <path
       class="cls-3"
       d="M16.56,37a1,1,0,0,1-.91-.59l-4.49-10a1,1,0,0,1,0-.77,1,1,0,0,1,.52-.55l10.05-4.49a1,1,0,0,1,1.24.36,1.08,1.08,0,0,1,.19.58,1,1,0,0,1-.87,1l-8.88,4,3.8,8.5a1,1,0,0,1,.54.52,1,1,0,0,1-.52,1.31l-.25.12A1.1,1.1,0,0,1,16.56,37Z"
       id="path28" />
    <path
       class="cls-2"
       d="M19,42.06a1.06,1.06,0,0,1-.42-.09l-.11,0a5,5,0,0,1-2.61-6.35.71.71,0,0,1,.08-.21l5.33-11.93a.41.41,0,0,1,0-.08l3.12-7,.06-.12L28.61,7a5,5,0,0,1,6.6-2.52l21.91,9.79a5,5,0,0,1,2.52,6.61L54.49,32.41a1,1,0,0,1-1.82-.82l5.15-11.52a3,3,0,0,0-1.52-4L34.39,6.31a3,3,0,0,0-2.29-.06,3,3,0,0,0-1.67,1.58l-4.18,9.36-.06.12-3,6.79a.41.41,0,0,1,0,.08l-5.34,12a.45.45,0,0,1,0-.06,1.21,1.21,0,0,1-.05.18A3,3,0,0,0,19.3,40.1l.12,0A1,1,0,0,1,19,42.06Z"
       id="path30" />
    <path
       class="cls-3"
       d="M35.5,33a1,1,0,0,1-.41-.09l-5-2.24A1,1,0,0,1,29.9,29l5.24-3.8.09-.06,4.38-3.18a1,1,0,0,1,1-.08,1,1,0,0,1,.55.89l.95,9.18a1,1,0,0,1-2,.2l-.78-7.55-3.06,2.22-.1.06-3.75,2.72,3.43,1.54A1,1,0,0,1,35.5,33Z"
       id="path32" />
    <path
       class="cls-3"
       d="M35.6,27a7.44,7.44,0,0,1-3-.65,7.5,7.5,0,1,1,10.48-7.9,7.34,7.34,0,0,1-.57,4.12,7.2,7.2,0,0,1-1.43,2.12,1,1,0,1,1-1.44-1.38,5.49,5.49,0,0,0,1-1.56,5.38,5.38,0,0,0,.41-3,5.5,5.5,0,1,0-7.68,5.79,5.23,5.23,0,0,0,2.33.47,1,1,0,0,1,1,1,1,1,0,0,1-1,1Z"
       id="path34" />
    <path
       class="cls-3"
       d="M40.2,23.73a1,1,0,0,1-1-1h0a1,1,0,1,1,1,1Z"
       id="path36" />
    <path
       class="cls-3"
       d="M45.31,33a1,1,0,0,1-.41-.09L40.55,31a1,1,0,0,1,.82-1.82l4.35,1.94A1,1,0,0,1,45.31,33Z"
       id="path38" />
    <path
       class="cls-3"
       d="M48.11,33a1,1,0,0,1-.41-.09,1,1,0,0,1-.5-1.32l3.61-8.09-9-4-.24-.09a1,1,0,0,1-.45-1.32l0,0a1,1,0,0,1,1.3-.46l10,4.49a1,1,0,0,1,.5,1.32l-4,9A1,1,0,0,1,48.11,33Z"
       id="path40" />
  </g>
</svg>
