<?xml version="1.0" encoding="UTF-8" standalone="no"?>
<svg
   xmlns:dc="http://purl.org/dc/elements/1.1/"
   xmlns:cc="http://creativecommons.org/ns#"
   xmlns:rdf="http://www.w3.org/1999/02/22-rdf-syntax-ns#"
   xmlns:svg="http://www.w3.org/2000/svg"
   xmlns="http://www.w3.org/2000/svg"
   xmlns:sodipodi="http://sodipodi.sourceforge.net/DTD/sodipodi-0.dtd"
   xmlns:inkscape="http://www.inkscape.org/namespaces/inkscape"
   fill="#000000"
   width="800px"
   height="800px"
   viewBox="0 0 96 96"
   id="Layer_1_1_"
   version="1.1"
   xml:space="preserve"
   sodipodi:docname="indoor.svg"
   inkscape:version="1.0.1 (3bc2e813f5, 2020-09-07)"
   inkscape:export-filename="C:\Users\keega\Documents\cannlytics\cannlytics\app\assets\images\icons\indoor.png"
   inkscape:export-xdpi="96"
   inkscape:export-ydpi="96"><metadata
     id="metadata45"><rdf:RDF><cc:Work
         rdf:about=""><dc:format>image/svg+xml</dc:format><dc:type
           rdf:resource="http://purl.org/dc/dcmitype/StillImage" /></cc:Work></rdf:RDF></metadata><defs
     id="defs43" /><sodipodi:namedview
     pagecolor="#ffffff"
     bordercolor="#666666"
     borderopacity="1"
     objecttolerance="10"
     gridtolerance="10"
     guidetolerance="10"
     inkscape:pageopacity="0"
     inkscape:pageshadow="2"
     inkscape:window-width="1920"
     inkscape:window-height="1094"
     id="namedview41"
     showgrid="false"
     inkscape:zoom="0.66556426"
     inkscape:cx="535.60446"
     inkscape:cy="358.44712"
     inkscape:window-x="-11"
     inkscape:window-y="-11"
     inkscape:window-maximized="1"
     inkscape:current-layer="Layer_1_1_"
     inkscape:document-rotation="0" /><path
     d="M11.47,40.848l6.58,4.11l1.061-1.695L13,39.445V35h1.877l-0.19-3H9.313l-0.19,3H11v5C11,40.345,11.178,40.665,11.47,40.848z  "
     id="path2"
     style="fill:#f57c00;fill-opacity:1" /><circle
     cx="84"
     cy="12"
     r="5"
     id="circle4"
     style="fill:#f57c00;fill-opacity:1" /><rect
     height="3"
     width="2"
     x="83"
     y="2"
     id="rect6"
     style="fill:#f57c00;fill-opacity:1" /><rect
     height="3"
     width="2"
     x="83"
     y="19"
     id="rect8"
     style="fill:#f57c00;fill-opacity:1" /><rect
     height="2"
     width="3"
     x="91"
     y="11"
     id="rect10"
     style="fill:#f57c00;fill-opacity:1" /><rect
     height="2"
     width="3"
     x="74"
     y="11"
     id="rect12"
     style="fill:#f57c00;fill-opacity:1" /><rect
     height="2"
     transform="matrix(0.7071 -0.7071 0.7071 0.7071 22.1285 65.4014)"
     width="3"
     x="88.511"
     y="4.989"
     id="rect14"
     style="fill:#f57c00;fill-opacity:1" /><rect
     height="2"
     transform="matrix(0.7071 -0.7071 0.7071 0.7071 10.107 60.422)"
     width="3"
     x="76.489"
     y="17.011"
     id="rect16"
     style="fill:#f57c00;fill-opacity:1" /><rect
     height="3"
     transform="matrix(0.7071 -0.7071 0.7071 0.7071 13.628 68.9224)"
     width="2"
     x="89.011"
     y="16.511"
     id="rect18"
     style="fill:#f57c00;fill-opacity:1" /><rect
     height="3"
     transform="matrix(0.7071 -0.7071 0.7071 0.7071 18.6075 56.9009)"
     width="2"
     x="76.989"
     y="4.489"
     id="rect20"
     style="fill:#f57c00;fill-opacity:1" /><path
     d="M74,24H62v7.133L48,19L5,57h11v37h12v-7.09c-2.837-0.477-5-2.938-5-5.91c2.088,0,3.925,1.068,5,2.686V78.91  c-2.837-0.477-5-2.938-5-5.91c2.088,0,3.925,1.068,5,2.686V70.91c-2.837-0.477-5-2.938-5-5.91c2.088,0,3.925,1.068,5,2.686v-3.87  c-1.163-0.413-2-1.512-2-2.816c0-1.657,1.343-3,3-3s3,1.343,3,3c0,1.304-0.837,2.403-2,2.816v3.87C31.075,66.068,32.912,65,35,65  c0,2.972-2.163,5.433-5,5.91v4.776C31.075,74.068,32.912,73,35,73c0,2.972-2.163,5.433-5,5.91v4.776C31.075,82.068,32.912,81,35,81  c0,2.972-2.163,5.433-5,5.91V94h17v-7.09c-2.837-0.477-5-2.938-5-5.91c2.088,0,3.925,1.068,5,2.686V78.91  c-2.837-0.477-5-2.938-5-5.91c2.088,0,3.925,1.068,5,2.686V70.91c-2.837-0.477-5-2.938-5-5.91c2.088,0,3.925,1.068,5,2.686v-3.87  c-1.163-0.413-2-1.512-2-2.816c0-1.657,1.343-3,3-3s3,1.343,3,3c0,1.304-0.837,2.403-2,2.816v3.87C50.075,66.068,51.912,65,54,65  c0,2.972-2.163,5.433-5,5.91v4.776C50.075,74.068,51.912,73,54,73c0,2.972-2.163,5.433-5,5.91v4.776C50.075,82.068,51.912,81,54,81  c0,2.972-2.163,5.433-5,5.91V94h17v-7.09c-2.837-0.477-5-2.938-5-5.91c2.088,0,3.925,1.068,5,2.686V78.91  c-2.837-0.477-5-2.938-5-5.91c2.088,0,3.925,1.068,5,2.686V70.91c-2.837-0.477-5-2.938-5-5.91c2.088,0,3.925,1.068,5,2.686v-3.87  c-1.163-0.413-2-1.512-2-2.816c0-1.657,1.343-3,3-3s3,1.343,3,3c0,1.304-0.837,2.403-2,2.816v3.87C69.075,66.068,70.912,65,73,65  c0,2.972-2.163,5.433-5,5.91v4.776C69.075,74.068,70.912,73,73,73c0,2.972-2.163,5.433-5,5.91v4.776C69.075,82.068,70.912,81,73,81  c0,2.972-2.163,5.433-5,5.91V94h12V57h11L74,41.533V24z M47,23h2v2h-2V23z M38,41h3v2h-3V41z M41.707,47.707l-1.414-1.414  l2.121-2.121l1.414,1.414L41.707,47.707z M52,40c0,2.209-1.791,4-4,4s-4-1.791-4-4v-1h3V27h2v12h3V40z M54.293,47.707l-2.121-2.121  l1.414-1.414l2.121,2.121L54.293,47.707z M58,43h-3v-2h3V43z"
     id="path22"
     style="fill:#999999;fill-opacity:1" /><polygon
     points="2.833,30 7.434,30 7.624,27 3.333,27 "
     id="polygon24"
     style="fill:#f57c00;fill-opacity:1" /><polygon
     points="9.883,23 9.756,25 14.244,25 14.117,23 "
     id="polygon26"
     style="fill:#f57c00;fill-opacity:1" /><polygon
     points="21.167,30 20.667,27 16.376,27 16.566,30 "
     id="polygon28"
     style="fill:#f57c00;fill-opacity:1" /><polygon
     points="9.44,30 14.56,30 14.37,27 9.63,27 "
     id="polygon30"
     style="fill:#f57c00;fill-opacity:1" /><polygon
     points="16.123,23 16.25,25 20.333,25 20,23 "
     id="polygon32"
     style="fill:#f57c00;fill-opacity:1" /><polygon
     points="21.5,32 16.693,32 16.883,35 22,35 "
     id="polygon34"
     style="fill:#f57c00;fill-opacity:1" /><polygon
     points="7.307,32 2.5,32 2,35 7.117,35 "
     id="polygon36"
     style="fill:#f57c00;fill-opacity:1" /><polygon
     points="7.877,23 4,23 3.667,25 7.75,25 "
     id="polygon38"
     style="fill:#f57c00;fill-opacity:1" /></svg>
