<?xml version="1.0" encoding="utf-8"?>
<!-- Uploaded to: SVG Repo, www.svgrepo.com, Generator: SVG Repo Mixer Tools -->
<svg width="800px" height="800px" viewBox="0 0 1024 1024" class="icon"  version="1.1" xmlns="http://www.w3.org/2000/svg"><path d="M738.816 612.352c96.768-53.76 196.096-185.344 200.192-190.976l13.312-17.92-22.016 2.048c-71.68 6.656-158.208 37.888-244.224 87.552-32.256 18.944-60.416 47.104-81.92 73.728 19.456-49.664 40.448-118.784 38.4-184.832-3.584-136.192-28.672-260.096-69.632-348.672l-9.728-21.504-8.192 22.016c-3.072 8.704-80.896 220.16-74.24 371.712v1.024c1.536 13.824 15.872 120.32 36.352 171.008-22.528-29.184-53.76-62.464-90.112-83.968-86.016-49.664-173.056-80.896-244.224-87.552l-22.016-2.048 13.312 17.92c4.096 5.632 103.424 137.216 200.192 190.976l1.024 0.512c7.68 3.584 57.856 25.088 97.28 36.352-20.48 5.632-38.912 12.288-45.056 14.336l-1.024 0.512c-75.264 34.816-157.184 127.488-160.256 131.584l-14.848 16.896 22.528-0.512c53.76-1.024 120.832-19.456 187.904-51.712 4.096-2.048 7.68-4.096 11.776-6.144-25.6 52.224-38.912 122.368-39.936 125.44l-5.12 25.6 20.48-15.872c39.424-30.72 71.168-76.8 91.136-110.592 2.56-4.096 4.608-8.704 6.656-13.312-0.512 80.896-0.512 161.28 0.512 242.176 0 10.752 16.384 10.752 16.384 0-1.024-93.696-1.024-186.88 0-280.576 4.096 13.824 9.728 28.16 17.408 40.96 19.968 33.28 51.712 79.872 91.136 110.592l20.48 15.872-5.12-25.6c-0.512-3.584-16.384-83.456-45.056-136.192 9.728 6.144 17.92 10.752 21.504 12.8l1.024 0.512c75.264 34.304 199.168 35.328 204.288 35.328h22.528l-14.848-16.384c-35.84-39.936-93.696-78.848-161.792-108.544-15.872-6.656-33.28-11.264-50.176-13.824 34.304-11.264 69.12-26.624 75.264-29.696l-1.536-1.024z m-174.592-547.84c34.304 83.968 54.784 195.584 57.856 317.952 2.56 91.648-42.496 193.024-60.416 229.888-4.608-6.144-11.264-15.36-20.48-27.648-18.944-25.088-36.864-138.24-42.496-180.224-4.608-118.784 45.568-280.064 65.536-339.968zM203.264 428.544c64 10.24 138.752 38.912 212.992 81.92 54.784 31.744 97.792 95.232 114.688 122.88-5.632 0.512-12.8 1.536-22.016 2.56-19.968 2.56-88.064-23.552-126.976-40.96-71.68-39.936-147.456-128-178.688-166.4zM451.072 742.4c-54.784 26.624-109.056 43.008-155.136 48.128 27.648-28.672 84.992-84.48 136.704-108.544 29.696-10.24 80.896-26.112 95.232-23.04 4.608 1.024 8.704 1.536 12.288 2.56-15.36 20.48-49.152 61.44-89.088 80.896z m70.656 26.112c-19.968 33.792-41.984 62.976-63.488 84.48 7.68-30.208 21.504-76.288 40.448-107.008 16.384-23.04 38.912-49.664 46.08-53.248 0.512 0 0.512-0.512 1.024-0.512-3.072 19.456-9.728 51.712-24.064 76.288z m97.792-33.28c18.944 31.232 32.768 77.312 40.448 107.008-22.016-22.016-44.032-51.2-63.488-84.48-14.336-24.576-20.992-56.832-23.552-76.288 0.512 0 0.512 0.512 1.024 0.512 1.024 0.512 3.072 2.048 4.608 3.584 2.56 3.072 5.632 6.144 9.216 9.216 9.216 10.24 21.504 26.112 31.744 40.448z m223.744 25.088c-39.936-2.048-119.296-9.216-171.52-32.768-21.504-12.288-53.76-32.256-70.144-46.592-3.072-3.072-5.632-6.144-8.704-8.704-0.512-0.512-1.024-1.024-1.024-1.536-2.56-4.096-4.608-7.68-6.144-10.752 25.6-2.048 78.848-3.072 119.296 14.336 55.808 24.064 103.936 54.272 138.24 86.016z m-240.64-124.416c-9.216-1.024-16.384-2.048-22.016-2.56 16.896-27.648 59.904-91.136 114.688-122.88 74.24-43.008 148.992-71.68 212.992-81.92-31.232 38.4-107.008 126.464-178.688 166.4-38.4 17.408-107.008 43.52-126.976 40.96z" fill="#72AA29" /></svg>