<?xml version="1.0" encoding="UTF-8" standalone="no"?>
<svg
   xmlns:dc="http://purl.org/dc/elements/1.1/"
   xmlns:cc="http://creativecommons.org/ns#"
   xmlns:rdf="http://www.w3.org/1999/02/22-rdf-syntax-ns#"
   xmlns:svg="http://www.w3.org/2000/svg"
   xmlns="http://www.w3.org/2000/svg"
   xmlns:sodipodi="http://sodipodi.sourceforge.net/DTD/sodipodi-0.dtd"
   xmlns:inkscape="http://www.inkscape.org/namespaces/inkscape"
   width="800px"
   height="800px"
   viewBox="0 0 1024 1024"
   class="icon"
   version="1.1"
   id="svg8"
   sodipodi:docname="leaf.svg"
   inkscape:export-filename="C:\Users\keega\Documents\cannlytics\cannlytics\app\assets\images\icons\leaf.png"
   inkscape:export-xdpi="96"
   inkscape:export-ydpi="96"
   inkscape:version="1.0.1 (3bc2e813f5, 2020-09-07)">
  <metadata
     id="metadata14">
    <rdf:RDF>
      <cc:Work
         rdf:about="">
        <dc:format>image/svg+xml</dc:format>
        <dc:type
           rdf:resource="http://purl.org/dc/dcmitype/StillImage" />
      </cc:Work>
    </rdf:RDF>
  </metadata>
  <defs
     id="defs12" />
  <sodipodi:namedview
     pagecolor="#ffffff"
     bordercolor="#666666"
     borderopacity="1"
     objecttolerance="10"
     gridtolerance="10"
     guidetolerance="10"
     inkscape:pageopacity="0"
     inkscape:pageshadow="2"
     inkscape:window-width="1920"
     inkscape:window-height="1094"
     id="namedview10"
     showgrid="false"
     inkscape:zoom="0.470625"
     inkscape:cx="766.50718"
     inkscape:cy="448.39662"
     inkscape:window-x="-11"
     inkscape:window-y="-11"
     inkscape:window-maximized="1"
     inkscape:current-layer="svg8" />
  <path
     d="M705.024 674.304c55.808 24.064 103.936 54.272 138.24 86.016-39.936-2.048-119.296-9.216-171.52-32.768-20.992-12.288-53.76-32.256-70.144-46.592-3.072-3.072-5.632-6.144-8.704-8.704-0.512-0.512-1.024-1.024-1.024-1.536-2.56-4.096-4.608-7.68-6.144-10.752 25.6-2.048 78.336-3.584 119.296 14.336zM619.52 735.232c18.944 31.232 32.768 77.312 40.448 107.008-22.016-22.016-44.032-51.2-63.488-84.48-14.848-24.576-20.992-56.832-23.552-76.288 0.512 0 0.512 0.512 1.024 0.512 1.024 0.512 3.072 2.048 4.608 3.584 2.56 3.072 5.632 6.144 9.216 9.216 9.216 10.24 21.504 26.112 31.744 40.448zM544.256 692.736c0.512 0 0.512-0.512 1.024-0.512-2.56 19.456-9.216 51.712-23.552 76.288-19.968 33.792-41.984 62.976-63.488 84.992 7.68-30.208 20.992-76.288 40.448-107.52 15.872-23.04 38.4-49.664 45.568-53.248z"
     fill="#B5D577"
     id="path2" />
  <path
     d="M952.32 403.456l-13.312 17.92c-4.096 5.632-103.424 137.216-200.192 190.976l-1.024 0.512c-6.144 2.56-40.96 17.92-75.264 29.696 16.896 2.56 34.304 6.656 50.176 13.824 68.608 29.696 125.952 68.096 161.792 108.544l14.848 16.384h-22.528c-5.12 0-129.024-1.024-204.288-35.328l-1.024-0.512c-3.584-2.048-11.776-6.656-21.504-12.8 29.184 52.736 44.544 132.608 45.056 136.192l4.608 25.6-20.48-15.872c-39.424-30.72-71.168-76.8-91.136-110.592-7.68-12.8-13.312-27.136-17.408-40.96-1.024 93.696-1.024 186.88 0 280.576 0 10.752-16.384 10.752-16.384 0-1.024-80.896-1.024-161.28-0.512-242.176-2.048 4.608-4.096 8.704-6.656 13.312-19.968 33.28-51.712 79.872-91.136 110.592l-20.48 15.872 5.12-25.6c0.512-3.584 14.336-73.216 39.936-125.44-3.584 2.048-7.68 4.096-11.776 6.144-67.072 32.256-133.632 50.688-187.904 51.712l-22.528 0.512 14.848-16.896c3.584-4.096 84.992-96.768 160.256-131.584l1.024-0.512c6.144-2.048 25.088-8.704 45.056-14.336-39.936-11.264-89.6-33.28-97.28-36.352l-0.512-0.512c-96.768-53.76-196.096-185.344-200.192-190.976l-13.312-17.92 22.016 2.048c71.68 6.656 158.208 37.888 244.224 87.552 36.352 20.992 67.584 54.272 90.112 83.456-19.968-50.688-34.304-157.184-36.352-171.008v-1.024c-6.656-151.04 71.168-362.496 74.24-371.712l8.192-22.016 9.728 21.504c41.472 88.576 66.048 212.48 69.632 348.672 2.048 66.048-18.944 135.68-38.4 184.832 21.504-26.624 49.664-54.784 81.92-73.216 86.016-49.664 173.056-80.896 244.224-87.552l24.576-1.536z m-222.72 191.488c71.68-39.936 147.456-128 178.688-166.4-64 10.24-138.752 38.912-212.992 81.92-54.784 31.744-97.792 95.232-114.688 122.88 5.632 0.512 12.8 1.536 22.016 2.56 19.968 2.56 88.064-23.552 126.976-40.96z m113.152 165.376c-34.304-31.744-82.432-61.952-138.24-86.016-40.448-17.92-93.696-16.384-119.296-14.336 1.536 3.072 4.096 6.656 6.144 10.752 0.512 0.512 0.512 1.024 1.024 1.536l8.704 8.704c16.384 14.336 48.64 34.816 70.144 46.592 52.736 23.552 132.096 30.72 171.52 32.768z m-182.784 81.92c-7.68-30.208-21.504-76.288-40.448-107.008-10.24-14.336-22.528-30.208-32.256-40.448-3.584-3.072-6.656-6.144-9.216-9.216-2.048-1.536-3.584-3.072-4.608-3.584-0.512 0-0.512-0.512-1.024-0.512 2.56 19.456 9.216 51.712 23.552 76.288 19.968 33.28 41.984 62.464 64 84.48z m-97.792-229.888c17.92-36.864 62.976-138.24 60.416-229.888-3.584-122.368-24.064-233.984-57.856-317.952-19.968 59.904-70.144 221.696-65.024 339.968 5.632 41.984 23.552 155.136 42.496 180.224 8.704 12.288 15.36 21.504 19.968 27.648z m-16.896 79.872c-0.512 0-0.512 0.512-1.024 0.512-7.168 3.584-29.696 30.72-46.08 53.248-18.944 31.232-32.768 77.312-40.448 107.52 22.016-22.016 44.032-51.2 63.488-84.992 14.848-24.576 21.504-56.832 24.064-76.288z m-5.12-30.72c-3.584-0.512-7.68-1.536-12.288-2.56-14.336-2.56-65.536 12.8-95.232 23.04-52.224 24.064-109.056 79.872-136.704 108.544 46.592-5.12 100.864-22.016 155.136-48.128 39.936-19.456 73.728-60.416 89.088-80.896z m-31.744-25.6c9.216-1.024 16.384-2.048 22.016-2.56-16.896-27.648-59.904-91.136-114.688-122.88-74.24-43.008-148.992-71.68-212.992-81.92 31.232 38.4 107.008 126.464 178.688 166.4 38.912 17.408 107.008 43.52 126.976 40.96z"
     fill="#72AA29"
     id="path4" />
  <path
     d="M908.288 428.544c-31.232 38.4-107.008 126.464-178.688 166.4-38.4 16.896-107.008 43.008-126.976 40.96-9.216-1.024-16.384-2.048-22.016-2.56 16.896-27.648 59.904-91.136 114.688-122.88 74.752-43.008 148.992-71.68 212.992-81.92zM622.592 382.464c2.56 91.648-42.496 193.024-60.416 229.888-4.608-6.144-11.264-15.36-20.48-27.648-18.944-25.088-36.864-138.24-42.496-180.224-5.12-118.272 45.056-280.064 65.024-339.968 34.304 83.968 54.784 195.584 58.368 317.952zM527.872 658.944c4.608 1.024 9.216 1.536 12.288 2.56-15.36 20.48-49.152 61.952-89.088 80.896-54.784 26.112-109.056 43.008-155.136 48.128 27.648-28.672 84.992-84.48 136.704-108.544 29.696-10.24 80.896-25.6 95.232-23.04zM530.432 633.344c-5.632 0.512-12.8 1.536-22.016 2.56-19.968 2.56-88.064-23.552-126.976-40.96-71.68-39.936-147.456-128-178.688-166.4 64 10.24 138.752 38.912 212.992 81.92 54.784 31.744 97.792 95.232 114.688 122.88z"
     fill="#B5D577"
     id="path6" />
</svg>
