<?xml version="1.0" encoding="UTF-8" standalone="no"?>
<svg
   xmlns:dc="http://purl.org/dc/elements/1.1/"
   xmlns:cc="http://creativecommons.org/ns#"
   xmlns:rdf="http://www.w3.org/1999/02/22-rdf-syntax-ns#"
   xmlns:svg="http://www.w3.org/2000/svg"
   xmlns="http://www.w3.org/2000/svg"
   xmlns:sodipodi="http://sodipodi.sourceforge.net/DTD/sodipodi-0.dtd"
   xmlns:inkscape="http://www.inkscape.org/namespaces/inkscape"
   width="800px"
   height="800px"
   viewBox="0 0 1024 1024"
   class="icon"
   version="1.1"
   id="svg8"
   sodipodi:docname="light.svg"
   inkscape:export-filename="C:\Users\keega\Documents\cannlytics\cannlytics\app\assets\images\icons\light.png"
   inkscape:export-xdpi="96"
   inkscape:export-ydpi="96"
   inkscape:version="1.0.1 (3bc2e813f5, 2020-09-07)">
  <metadata
     id="metadata14">
    <rdf:RDF>
      <cc:Work
         rdf:about="">
        <dc:format>image/svg+xml</dc:format>
        <dc:type
           rdf:resource="http://purl.org/dc/dcmitype/StillImage" />
      </cc:Work>
    </rdf:RDF>
  </metadata>
  <defs
     id="defs12" />
  <sodipodi:namedview
     pagecolor="#ffffff"
     bordercolor="#666666"
     borderopacity="1"
     objecttolerance="10"
     gridtolerance="10"
     guidetolerance="10"
     inkscape:pageopacity="0"
     inkscape:pageshadow="2"
     inkscape:window-width="1920"
     inkscape:window-height="1094"
     id="namedview10"
     showgrid="false"
     inkscape:zoom="0.94125"
     inkscape:cx="400"
     inkscape:cy="400"
     inkscape:window-x="-11"
     inkscape:window-y="-11"
     inkscape:window-maximized="1"
     inkscape:current-layer="svg8" />
  <path
     d="M389.12 675.84h235.52v40.96H389.12z"
     fill="#7ED321"
     id="path2"
     style="fill:#f57c00;fill-opacity:1" />
  <path
     d="M403.968 634.88h216.576l23.552-62.976 4.608-2.56c76.8-43.52 123.904-120.832 123.904-205.312 0-133.12-116.736-241.152-261.12-241.152S250.88 230.912 250.88 364.032c0 84.48 47.616 161.792 124.416 205.312l4.608 2.56 24.064 62.976zM235.52 364.032C235.52 222.208 359.424 107.52 512 107.52s276.48 114.688 276.48 256.512c0 92.672-52.736 173.568-132.096 218.624l-25.088 67.584H393.728l-26.112-67.584C288.256 537.6 235.52 456.704 235.52 364.032zM619.52 762.88H404.48v112.64c0 5.632 4.608 10.24 10.24 10.24h194.56c5.632 0 10.24-4.608 10.24-10.24v-112.64z m15.36-15.36v128c0 14.336-11.264 25.6-25.6 25.6H414.72c-14.336 0-25.6-11.264-25.6-25.6v-128h245.76zM401.92 714.24h220.16v-25.6h-220.16v25.6z m235.52-40.96v56.32h-250.88v-56.32h250.88z"
     fill=""
     id="path4" />
  <path
     d="M557.568 318.464c-14.848-2.56-29.184 0-41.984 5.632-11.776-5.632-26.112-7.68-41.472-5.632-36.864 5.632-56.832 33.792-59.392 78.848V634.88h30.72V398.848c2.048-31.744 12.8-47.104 33.792-50.176 2.048-0.512 4.096-0.512 6.656-0.512-9.728 13.312-15.36 30.208-15.872 49.664-1.024 46.592 19.456 77.312 47.104 77.312 25.6 0 44.032-37.888 43.008-77.312-0.512-18.432-6.144-35.84-15.872-49.664 3.072 0 5.632 0 8.704 0.512 22.016 3.584 32.768 17.92 32.768 49.664V634.88h30.72V398.336c0-45.568-19.968-73.728-58.88-79.872z m-28.16 80.384c0.512 13.824-2.048 26.624-7.168 36.352-2.048 4.096-4.096 7.168-5.632 8.704l-0.512 0.512c-2.048-0.512-4.608-2.56-7.168-6.656-5.12-8.192-8.704-20.992-8.192-39.424 0.512-15.872 5.632-28.672 14.336-37.376 8.704 9.216 13.824 22.528 14.336 37.888z"
     fill="#7ED321"
     id="path6"
     style="fill:#f57c00;fill-opacity:1" />
</svg>
