<?xml version="1.0" encoding="UTF-8" standalone="no"?>
<svg
   xmlns:dc="http://purl.org/dc/elements/1.1/"
   xmlns:cc="http://creativecommons.org/ns#"
   xmlns:rdf="http://www.w3.org/1999/02/22-rdf-syntax-ns#"
   xmlns:svg="http://www.w3.org/2000/svg"
   xmlns="http://www.w3.org/2000/svg"
   xmlns:sodipodi="http://sodipodi.sourceforge.net/DTD/sodipodi-0.dtd"
   xmlns:inkscape="http://www.inkscape.org/namespaces/inkscape"
   width="800px"
   height="800px"
   viewBox="0 0 64 64"
   version="1.1"
   id="svg57"
   sodipodi:docname="locations-orange.svg"
   inkscape:version="1.0.1 (3bc2e813f5, 2020-09-07)"
   inkscape:export-filename="C:\Users\keega\Documents\cannlytics\cannlytics\app\assets\images\icons\locations.png"
   inkscape:export-xdpi="96"
   inkscape:export-ydpi="96">
  <metadata
     id="metadata61">
    <rdf:RDF>
      <cc:Work
         rdf:about="">
        <dc:format>image/svg+xml</dc:format>
        <dc:type
           rdf:resource="http://purl.org/dc/dcmitype/StillImage" />
        <dc:title></dc:title>
      </cc:Work>
    </rdf:RDF>
  </metadata>
  <sodipodi:namedview
     pagecolor="#ffffff"
     bordercolor="#666666"
     borderopacity="1"
     objecttolerance="10"
     gridtolerance="10"
     guidetolerance="10"
     inkscape:pageopacity="0"
     inkscape:pageshadow="2"
     inkscape:window-width="1920"
     inkscape:window-height="1094"
     id="namedview59"
     showgrid="false"
     inkscape:zoom="0.66556426"
     inkscape:cx="248.24903"
     inkscape:cy="362.53336"
     inkscape:window-x="-11"
     inkscape:window-y="-11"
     inkscape:window-maximized="1"
     inkscape:current-layer="svg57" />
  <defs
     id="defs4">
    <style
       id="style2">.cls-1{fill:#f57c00;}.cls-2{fill:#999;}.cls-3{fill:#666;}</style>
  </defs>
  <g
     data-name="outline color"
     id="outline_color">
    <path
       class="cls-1"
       d="M38,39H31a1,1,0,0,1-1-1V31a1,1,0,0,1,1-1h7a1,1,0,0,1,1,1v7A1,1,0,0,1,38,39Zm-6-2h5V32H32Z"
       id="path8" />
    <path
       class="cls-1"
       d="M45,46H38a1,1,0,0,1-1-1V38a1,1,0,0,1,1-1h7a1,1,0,0,1,1,1v7A1,1,0,0,1,45,46Zm-6-2h5V39H39Z"
       id="path10" />
    <path
       class="cls-1"
       d="M52,39H45a1,1,0,0,1-1-1V31a1,1,0,0,1,1-1h7a1,1,0,0,1,1,1v7A1,1,0,0,1,52,39Zm-6-2h5V32H46Z"
       id="path12" />
    <path
       class="cls-1"
       d="M59,46H52a1,1,0,0,1-1-1V38a1,1,0,0,1,1-1h7a1,1,0,0,1,1,1v7A1,1,0,0,1,59,46Zm-6-2h5V39H53Z"
       id="path14" />
    <path
       class="cls-1"
       d="M38,53H31a1,1,0,0,1-1-1V45a1,1,0,0,1,1-1h7a1,1,0,0,1,1,1v7A1,1,0,0,1,38,53Zm-6-2h5V46H32Z"
       id="path16" />
    <path
       class="cls-1"
       d="M45,60H38a1,1,0,0,1-1-1V52a1,1,0,0,1,1-1h7a1,1,0,0,1,1,1v7A1,1,0,0,1,45,60Zm-6-2h5V53H39Z"
       id="path18" />
    <path
       class="cls-1"
       d="M52,53H45a1,1,0,0,1-1-1V45a1,1,0,0,1,1-1h7a1,1,0,0,1,1,1v7A1,1,0,0,1,52,53Zm-6-2h5V46H46Z"
       id="path20" />
    <path
       class="cls-1"
       d="M59,60H52a1,1,0,0,1-1-1V52a1,1,0,0,1,1-1h7a1,1,0,0,1,1,1v7A1,1,0,0,1,59,60Zm-6-2h5V53H53Z"
       id="path22" />
    <path
       class="cls-1"
       d="M34.5,35.5a1,1,0,0,1-.38-.08,1.15,1.15,0,0,1-.33-.21,1,1,0,0,1,0-1.42,1.15,1.15,0,0,1,.33-.21,1,1,0,0,1,1.09.21,1.05,1.05,0,0,1,.29.71,1.36,1.36,0,0,1,0,.2.64.64,0,0,1-.06.18.76.76,0,0,1-.09.18l-.12.15A1.05,1.05,0,0,1,34.5,35.5Z"
       id="path24" />
    <path
       class="cls-1"
       d="M48.5,35.5a1,1,0,0,1-.38-.08,1.15,1.15,0,0,1-.33-.21,1,1,0,0,1,0-1.42,1.15,1.15,0,0,1,.33-.21,1,1,0,0,1,1.09.21,1.05,1.05,0,0,1,.29.71,1.36,1.36,0,0,1,0,.2.64.64,0,0,1-.06.18.76.76,0,0,1-.09.18l-.12.15A1.05,1.05,0,0,1,48.5,35.5Z"
       id="path26" />
    <path
       class="cls-1"
       d="M34.5,49.5a1,1,0,0,1-.38-.08,1.15,1.15,0,0,1-.33-.21,1.05,1.05,0,0,1-.29-.71,1.36,1.36,0,0,1,0-.2.64.64,0,0,1,.06-.18.56.56,0,0,1,.09-.17l.12-.16a1.15,1.15,0,0,1,.33-.21,1,1,0,0,1,.76,0,1,1,0,0,1,.33.21,1,1,0,0,1,.12.16.56.56,0,0,1,.09.17.64.64,0,0,1,.06.18,1.36,1.36,0,0,1,0,.2,1.05,1.05,0,0,1-.29.71,1,1,0,0,1-.33.21A1,1,0,0,1,34.5,49.5Z"
       id="path28" />
    <path
       class="cls-1"
       d="M48.5,49.5a1,1,0,0,1-.38-.08,1.15,1.15,0,0,1-.33-.21,1.05,1.05,0,0,1-.29-.71,1.36,1.36,0,0,1,0-.2.64.64,0,0,1,.06-.18.56.56,0,0,1,.09-.17l.12-.16a1.15,1.15,0,0,1,.33-.21,1,1,0,0,1,.76,0,1,1,0,0,1,.33.21,1,1,0,0,1,.12.16.56.56,0,0,1,.09.17.64.64,0,0,1,.06.18,1.36,1.36,0,0,1,0,.2,1.05,1.05,0,0,1-.29.71,1,1,0,0,1-.33.21A1,1,0,0,1,48.5,49.5Z"
       id="path30" />
    <path
       class="cls-1"
       d="M41.5,42.5a.84.84,0,0,1-.38-.08,1.15,1.15,0,0,1-.33-.21,1,1,0,0,1-.29-.71,1,1,0,0,1,.08-.38.9.9,0,0,1,.54-.54,1,1,0,0,1,.76,0,.9.9,0,0,1,.54.54,1,1,0,0,1,.08.38,1,1,0,0,1-.29.71,1.15,1.15,0,0,1-.33.21A.84.84,0,0,1,41.5,42.5Z"
       id="path32" />
    <path
       class="cls-1"
       d="M55.5,42.5a.84.84,0,0,1-.38-.08,1.15,1.15,0,0,1-.33-.21,1,1,0,0,1-.29-.71,1,1,0,0,1,.08-.38.9.9,0,0,1,.54-.54,1,1,0,0,1,.76,0,.9.9,0,0,1,.54.54,1,1,0,0,1,.08.38,1,1,0,0,1-.29.71,1.15,1.15,0,0,1-.33.21A.84.84,0,0,1,55.5,42.5Z"
       id="path34" />
    <path
       class="cls-1"
       d="M41.5,56.5a1,1,0,0,1-.38-.08,1,1,0,0,1-.33-.21,1.58,1.58,0,0,1-.12-.15.76.76,0,0,1-.09-.18.64.64,0,0,1-.06-.18,1.36,1.36,0,0,1,0-.2,1,1,0,0,1,.08-.38.9.9,0,0,1,.54-.54,1,1,0,0,1,.58-.06.64.64,0,0,1,.18.06.56.56,0,0,1,.17.09,1,1,0,0,1,.16.12,1,1,0,0,1,.21.33,1,1,0,0,1,.08.38,1,1,0,0,1-1,1Z"
       id="path36" />
    <path
       class="cls-1"
       d="M55.5,56.5a1,1,0,0,1-.38-.08,1,1,0,0,1-.33-.21,1.58,1.58,0,0,1-.12-.15.76.76,0,0,1-.09-.18.64.64,0,0,1-.06-.18,1.36,1.36,0,0,1,0-.2,1,1,0,0,1,.08-.38.9.9,0,0,1,.54-.54,1,1,0,0,1,.58-.06.64.64,0,0,1,.18.06.56.56,0,0,1,.17.09,1,1,0,0,1,.16.12,1.15,1.15,0,0,1,.21.33,1,1,0,0,1,.08.38,1.05,1.05,0,0,1-.29.71A1,1,0,0,1,55.5,56.5Z"
       id="path38" />
    <path
       class="cls-2"
       d="M21.78,55.1a5,5,0,0,1-4.57-3L4.56,23.84a5,5,0,0,1,2.52-6.61L28.62,7.61a1,1,0,1,1,.82,1.82L7.9,19.05a3,3,0,0,0-1.52,4L19,51.32a3,3,0,0,0,4,1.52l3.6-1.61a1,1,0,1,1,.82,1.82l-3.6,1.61A4.89,4.89,0,0,1,21.78,55.1Z"
       id="path40" />
    <path
       class="cls-3"
       d="M22.21,24.76a1,1,0,0,1-1-.85,7.36,7.36,0,0,1-.07-2.52v0a7.55,7.55,0,0,1,3.68-5.44,1.06,1.06,0,0,1,.5-.13,1,1,0,0,1,.43,1.91,5.49,5.49,0,0,0-2.62,3.9.13.13,0,0,0,0,.06,5.52,5.52,0,0,0,.06,1.9,1.49,1.49,0,0,1,0,.21A1,1,0,0,1,22.21,24.76Z"
       id="path42" />
    <path
       class="cls-3"
       d="M16.56,37a1,1,0,0,1-.91-.59l-4.49-10a1,1,0,0,1,0-.77,1,1,0,0,1,.52-.55l10.05-4.49a1,1,0,0,1,1.24.36,1.08,1.08,0,0,1,.19.58,1,1,0,0,1-.87,1l-8.88,4,3.8,8.5a1,1,0,0,1,.54.52,1,1,0,0,1-.52,1.31l-.25.12A1.1,1.1,0,0,1,16.56,37Z"
       id="path44" />
    <path
       class="cls-2"
       d="M27,45.63a1,1,0,0,1-.41-.09l-8.11-3.62a5,5,0,0,1-2.62-6.35.71.71,0,0,1,.08-.21l5.33-11.93a.41.41,0,0,1,0-.08l3.12-7,.06-.12L28.61,7a5,5,0,0,1,6.6-2.52l21.91,9.79a5,5,0,0,1,2.52,6.61l-2.91,6.52a1,1,0,1,1-1.82-.82l2.91-6.52a3,3,0,0,0-1.52-4L34.39,6.31a3,3,0,0,0-2.29-.06,3,3,0,0,0-1.67,1.58l-4.18,9.36-.06.12-3,6.79a.41.41,0,0,1,0,.08l-5.34,12a.45.45,0,0,1,0-.06,1.21,1.21,0,0,1-.05.18A3,3,0,0,0,19.3,40.1l8.11,3.62A1,1,0,0,1,27,45.63Z"
       id="path46" />
    <path
       class="cls-3"
       d="M40.64,28a1,1,0,0,1-1-.9l-.27-2.55-3.05,2.22-.09.06-1.35,1a1,1,0,1,1-1.18-1.62l1.43-1,.09-.06,4.38-3.18a1,1,0,0,1,1-.08,1,1,0,0,1,.55.89l.43,4.18A1,1,0,0,1,40.74,28Z"
       id="path48" />
    <path
       class="cls-3"
       d="M35.6,27a7.44,7.44,0,0,1-3-.65,7.5,7.5,0,1,1,10.48-7.9,7.34,7.34,0,0,1-.57,4.12,7.2,7.2,0,0,1-1.43,2.12,1,1,0,1,1-1.44-1.38,5.49,5.49,0,0,0,1-1.56,5.38,5.38,0,0,0,.41-3,5.5,5.5,0,1,0-7.68,5.79,5.23,5.23,0,0,0,2.33.47,1,1,0,0,1,1,1,1,1,0,0,1-1,1Z"
       id="path50" />
    <path
       class="cls-3"
       d="M40.2,23.73a1,1,0,0,1-1-1h0a1,1,0,1,1,1,1Z"
       id="path52" />
    <path
       class="cls-3"
       d="M50.34,28a1,1,0,0,1-.41-.09,1,1,0,0,1-.5-1.32l1.38-3.09-9-4-.24-.09a1,1,0,0,1-.45-1.32l0,0a1,1,0,0,1,1.3-.46l10,4.49a1,1,0,0,1,.52.55,1,1,0,0,1,0,.77l-1.79,4A1,1,0,0,1,50.34,28Z"
       id="path54" />
  </g>
</svg>
