<?xml version="1.0" ?><!-- Uploaded to: SVG Repo, www.svgrepo.com, Generator: SVG Repo Mixer Tools -->
<svg width="800px" height="800px" viewBox="0 0 2050 2050" data-name="Layer 3" id="Layer_3" xmlns="http://www.w3.org/2000/svg"><defs><style>.cls-1{fill:#1682fc;}.cls-2{fill:#e0e1e2;}.cls-3{fill:#2e3a58;}</style></defs><title/><path class="cls-1" d="M1192.7,1588h-464a100.2,100.2,0,0,1,0-200.4h82.5a71.8,71.8,0,0,0,0-143.5H478a15,15,0,0,1,0-30H811.2a101.8,101.8,0,0,1,0,203.5H728.7a70.2,70.2,0,0,0,0,140.4h464a15,15,0,0,1,0,30Z"/><path class="cls-2" d="M1526.4,1008.7,1222.7,1478a27.8,27.8,0,0,1-46.5,0L872.5,1008.7a388.7,388.7,0,0,1-60-167.2,389.2,389.2,0,0,0,60,255.8L1170,1557a35.1,35.1,0,0,0,58.9,0l297.5-459.7a388,388,0,0,0,60-255.8A386.1,386.1,0,0,1,1526.4,1008.7Z"/><path class="cls-3" d="M1199.5,1588a50.1,50.1,0,0,1-42.1-22.9L859.9,1105.5a404.7,404.7,0,1,1,679.1,0l-297.5,459.6A50,50,0,0,1,1199.5,1588Zm0-1076.8a374.5,374.5,0,0,0-314.4,578l297.5,459.6a20,20,0,0,0,33.7,0l297.5-459.6a374.6,374.6,0,0,0,58.1-242.9,374.1,374.1,0,0,0-372.4-335.1Z"/><path class="cls-1" d="M1200.6,1132c-5.1,0-10.3-.2-15.3-.4a5,5,0,0,1-4.7-5.3,4.9,4.9,0,0,1,5.3-4.7c4.8.3,9.8.4,14.7.4a257.7,257.7,0,0,0,43.9-3.8,4.8,4.8,0,0,1,5.7,4.1,5,5,0,0,1-4,5.8A267.4,267.4,0,0,1,1200.6,1132Zm-74-10.8a3.6,3.6,0,0,1-1.4-.2,259.7,259.7,0,0,1-56-24.2,5,5,0,1,1,5-8.6,252,252,0,0,0,53.9,23.2,5.1,5.1,0,0,1,3.3,6.3A5,5,0,0,1,1126.6,1121.2Zm176.1-10.2a4.9,4.9,0,0,1-4.6-3,4.9,4.9,0,0,1,2.6-6.6,255.2,255.2,0,0,0,50.8-29.4,5,5,0,0,1,7,1.1,4.9,4.9,0,0,1-1.1,6.9,262.2,262.2,0,0,1-52.8,30.6A4.3,4.3,0,0,1,1302.7,1111Zm-279-49.3a4.9,4.9,0,0,1-3.4-1.4,261.6,261.6,0,0,1-39.3-46.7,5,5,0,0,1,8.4-5.5,257.9,257.9,0,0,0,37.7,45,4.9,4.9,0,0,1,.2,7A4.8,4.8,0,0,1,1023.7,1061.7ZM1398,1040a4.7,4.7,0,0,1-3.2-1.2,4.9,4.9,0,0,1-.6-7,257.1,257.1,0,0,0,32.3-49.1,5,5,0,0,1,6.7-2.2,5.1,5.1,0,0,1,2.2,6.7,266.1,266.1,0,0,1-33.6,51A4.9,4.9,0,0,1,1398,1040ZM958.3,962.4a5.2,5.2,0,0,1-4.7-3.3,267.5,267.5,0,0,1-14-59.4,5,5,0,0,1,10-1.1A248.4,248.4,0,0,0,963,955.7a5,5,0,0,1-3,6.4A4.7,4.7,0,0,1,958.3,962.4Zm493.1-28.7h-1.1a5,5,0,0,1-3.8-6,253.2,253.2,0,0,0,6.8-58.3,257.9,257.9,0,0,0-6.7-58.2,5,5,0,0,1,3.7-6,5,5,0,0,1,6,3.7,265.4,265.4,0,0,1,0,121.1A5,5,0,0,1,1451.4,933.7ZM944.6,844.3H944a5.1,5.1,0,0,1-4.4-5.6,263.6,263.6,0,0,1,14.1-59.4,5,5,0,0,1,6.4-3,5.2,5.2,0,0,1,3,6.5,248.6,248.6,0,0,0-13.5,57.1A5.1,5.1,0,0,1,944.6,844.3ZM1431,758.7a5.1,5.1,0,0,1-4.5-2.7,252.8,252.8,0,0,0-32.2-49,5,5,0,1,1,7.6-6.5,264.5,264.5,0,0,1,33.6,51,5,5,0,0,1-2.3,6.7A4.2,4.2,0,0,1,1431,758.7ZM985.3,732.6a5.1,5.1,0,0,1-2.8-.9,5,5,0,0,1-1.4-6.9,261.6,261.6,0,0,1,39.3-46.7,5,5,0,1,1,6.8,7.3,261,261,0,0,0-37.7,44.9A5.1,5.1,0,0,1,985.3,732.6Zm369.3-64.9a5.7,5.7,0,0,1-3-1,250.2,250.2,0,0,0-50.8-29.5,5,5,0,1,1,4-9.1,259.8,259.8,0,0,1,52.8,30.5,5,5,0,0,1,1,7A4.9,4.9,0,0,1,1354.6,667.7ZM1071.8,651a5,5,0,0,1-2.5-9.3,261.9,261.9,0,0,1,56-24.2,5,5,0,0,1,6.3,3.4,5.1,5.1,0,0,1-3.4,6.2,252,252,0,0,0-53.9,23.2A4.5,4.5,0,0,1,1071.8,651Zm173.7-30.5h-.9a257.9,257.9,0,0,0-44-3.8c-4.9,0-9.8.1-14.6.4a5,5,0,0,1-5.3-4.7,5.1,5.1,0,0,1,4.7-5.3c5-.3,10.1-.4,15.2-.4a268.5,268.5,0,0,1,45.7,3.9,5,5,0,0,1-.8,10Z"/><polygon class="cls-1" points="1318.1 819.7 1250.2 819.7 1250.2 751.7 1151 751.7 1151 819.7 1083 819.7 1083 918.9 1151 918.9 1151 986.8 1250.2 986.8 1250.2 918.9 1318.1 918.9 1318.1 819.7"/></svg>