<?xml version="1.0" encoding="UTF-8" standalone="no"?>
<svg
   xmlns:dc="http://purl.org/dc/elements/1.1/"
   xmlns:cc="http://creativecommons.org/ns#"
   xmlns:rdf="http://www.w3.org/1999/02/22-rdf-syntax-ns#"
   xmlns:svg="http://www.w3.org/2000/svg"
   xmlns="http://www.w3.org/2000/svg"
   xmlns:sodipodi="http://sodipodi.sourceforge.net/DTD/sodipodi-0.dtd"
   xmlns:inkscape="http://www.inkscape.org/namespaces/inkscape"
   width="800px"
   height="800px"
   viewBox="0 0 64 64"
   version="1.1"
   id="svg83"
   sodipodi:docname="measurements.svg"
   inkscape:export-filename="C:\Users\keega\Documents\cannlytics\cannlytics\app\assets\images\icons\measurements.png"
   inkscape:export-xdpi="96"
   inkscape:export-ydpi="96"
   inkscape:version="1.0.1 (3bc2e813f5, 2020-09-07)">
  <metadata
     id="metadata87">
    <rdf:RDF>
      <cc:Work
         rdf:about="">
        <dc:format>image/svg+xml</dc:format>
        <dc:type
           rdf:resource="http://purl.org/dc/dcmitype/StillImage" />
      </cc:Work>
    </rdf:RDF>
  </metadata>
  <sodipodi:namedview
     pagecolor="#ffffff"
     bordercolor="#666666"
     borderopacity="1"
     objecttolerance="10"
     gridtolerance="10"
     guidetolerance="10"
     inkscape:pageopacity="0"
     inkscape:pageshadow="2"
     inkscape:window-width="1920"
     inkscape:window-height="1094"
     id="namedview85"
     showgrid="false"
     inkscape:zoom="0.94125"
     inkscape:cx="400"
     inkscape:cy="400"
     inkscape:window-x="-11"
     inkscape:window-y="-11"
     inkscape:window-maximized="1"
     inkscape:current-layer="svg83" />
  <defs
     id="defs4">
    <style
       id="style2">.cls-1{fill:#f57c00;}.cls-2{fill:#999;}.cls-3{fill:#666;}</style>
  </defs>
  <title
     id="title6" />
  <g
     data-name="outline color"
     id="outline_color">
    <path
       class="cls-1"
       d="M41,36H39a1,1,0,0,1,0-2h2a1,1,0,0,1,0,2Z"
       id="path8" />
    <path
       class="cls-1"
       d="M54,36H47a1,1,0,0,1,0-2h7a1,1,0,0,1,0,2Z"
       id="path10" />
    <path
       class="cls-1"
       d="M59,36H57a1,1,0,0,1,0-2h2a1,1,0,0,1,0,2Z"
       id="path12" />
    <path
       class="cls-1"
       d="M27,36H25a1,1,0,0,1,0-2h2a1,1,0,0,1,0,2Z"
       id="path14" />
    <path
       class="cls-1"
       d="M33,36H30a1,1,0,0,1,0-2h3a1,1,0,0,1,0,2Z"
       id="path16" />
    <path
       class="cls-1"
       d="M36,39a4,4,0,1,1,4-4A4,4,0,0,1,36,39Zm0-6a2,2,0,1,0,2,2A2,2,0,0,0,36,33Z"
       id="path18" />
    <path
       class="cls-1"
       d="M44,39a4,4,0,1,1,4-4A4,4,0,0,1,44,39Zm0-6a2,2,0,1,0,2,2A2,2,0,0,0,44,33Z"
       id="path20" />
    <path
       class="cls-1"
       d="M45,45H43a1,1,0,0,1,0-2h2a1,1,0,0,1,0,2Z"
       id="path22" />
    <path
       class="cls-1"
       d="M27,45H25a1,1,0,0,1,0-2h2a1,1,0,0,1,0,2Z"
       id="path24" />
    <path
       class="cls-1"
       d="M37,45H30a1,1,0,0,1,0-2h7a1,1,0,0,1,0,2Z"
       id="path26" />
    <path
       class="cls-1"
       d="M54,45H51a1,1,0,0,1,0-2h3a1,1,0,0,1,0,2Z"
       id="path28" />
    <path
       class="cls-1"
       d="M59,45H57a1,1,0,0,1,0-2h2a1,1,0,0,1,0,2Z"
       id="path30" />
    <path
       class="cls-1"
       d="M48,48a4,4,0,1,1,4-4A4,4,0,0,1,48,48Zm0-6a2,2,0,1,0,2,2A2,2,0,0,0,48,42Z"
       id="path32" />
    <path
       class="cls-1"
       d="M40,48a4,4,0,1,1,4-4A4,4,0,0,1,40,48Zm0-6a2,2,0,1,0,2,2A2,2,0,0,0,40,42Z"
       id="path34" />
    <path
       class="cls-1"
       d="M43,54H39a1,1,0,0,1,0-2h4a1,1,0,0,1,0,2Z"
       id="path36" />
    <path
       class="cls-1"
       d="M27,54H25a1,1,0,0,1,0-2h2a1,1,0,0,1,0,2Z"
       id="path38" />
    <path
       class="cls-1"
       d="M33,54H30a1,1,0,0,1,0-2h3a1,1,0,0,1,0,2Z"
       id="path40" />
    <path
       class="cls-1"
       d="M54,54H49a1,1,0,0,1,0-2h5a1,1,0,0,1,0,2Z"
       id="path42" />
    <path
       class="cls-1"
       d="M59,54H57a1,1,0,0,1,0-2h2a1,1,0,0,1,0,2Z"
       id="path44" />
    <path
       class="cls-1"
       d="M46,57a4,4,0,1,1,4-4A4,4,0,0,1,46,57Zm0-6a2,2,0,1,0,2,2A2,2,0,0,0,46,51Z"
       id="path46" />
    <path
       class="cls-1"
       d="M36,57a4,4,0,1,1,4-4A4,4,0,0,1,36,57Zm0-6a2,2,0,1,0,2,2A2,2,0,0,0,36,51Z"
       id="path48" />
    <path
       class="cls-1"
       d="M30,60H27a1,1,0,0,1-1-1V32a1,1,0,0,1,1-1h3a1,1,0,0,1,1,1V59A1,1,0,0,1,30,60Zm-2-2h1V33H28Z"
       id="path50" />
    <path
       class="cls-1"
       d="M57,60H54a1,1,0,0,1-1-1V32a1,1,0,0,1,1-1h3a1,1,0,0,1,1,1V59A1,1,0,0,1,57,60Zm-2-2h1V33H55Z"
       id="path52" />
    <path
       class="cls-1"
       d="M32,60H25a1,1,0,0,1,0-2h7a1,1,0,0,1,0,2Z"
       id="path54" />
    <path
       class="cls-1"
       d="M59,60H52a1,1,0,0,1,0-2h7a1,1,0,0,1,0,2Z"
       id="path56" />
    <path
       class="cls-2"
       d="M21,55l-.2,0a5,5,0,0,1-3.59-2.87L4.56,23.84a5,5,0,0,1,2.52-6.61L28.59,7.62a1,1,0,1,1,.82,1.82L7.9,19.05a3,3,0,0,0-1.52,4L19,51.32A3,3,0,0,0,21.2,53a1,1,0,0,1-.2,2Z"
       id="path58" />
    <path
       class="cls-3"
       d="M15.94,30.7a.92.92,0,0,1-.36-.07.94.94,0,0,1-.55-.52l-2-4.57a1,1,0,0,1,0-.77.94.94,0,0,1,.52-.55L19,21.78a1,1,0,0,1,1.32.5L21.94,26a1,1,0,0,1-.5,1.32l-.07,0a1,1,0,0,1-.52,1.29l-4.5,2A1,1,0,0,1,15.94,30.7Zm-.72-5.06,1.23,2.74L20,26.78l.07,0L18.88,24Z"
       id="path60" />
    <path
       class="cls-3"
       d="M21,27.37a1,1,0,0,1-.91-.59L18.47,23.1a1,1,0,0,1,0-.77,1,1,0,0,1,.52-.55l4.11-1.84a1,1,0,0,1,.82,1.82l-3.2,1.43L21.94,26a1,1,0,0,1-.5,1.32A1,1,0,0,1,21,27.37Z"
       id="path62" />
    <path
       class="cls-3"
       d="M17.74,34.72a1,1,0,0,1-.91-.59l-1.8-4a1,1,0,0,1,0-.77,1,1,0,0,1,.52-.55l4.5-2a1,1,0,0,1,.82,1.82l-3.59,1.61,1.39,3.1a1,1,0,0,1-.5,1.32A1,1,0,0,1,17.74,34.72Z"
       id="path64" />
    <path
       class="cls-2"
       d="M21,42.91a1,1,0,0,1-.41-.09l-2.11-1A5,5,0,0,1,16,35.26l6.62-14.82.06-.12L28.61,7a5,5,0,0,1,6.6-2.52l21.91,9.79a5,5,0,0,1,2.52,6.61l-3.38,7.57a1,1,0,1,1-1.82-.82L57.82,20a3,3,0,0,0-1.52-4L34.39,6.26A3,3,0,0,0,32.1,6.2a3,3,0,0,0-1.67,1.58l-6,13.48a.67.67,0,0,1-.06.12l-6.57,14.7a3,3,0,0,0,1.52,4l2.11.94a1,1,0,0,1,.5,1.32A1,1,0,0,1,21,42.91Z"
       id="path66" />
    <path
       class="cls-3"
       d="M48.26,27.7a1,1,0,0,1-.41-.09l-5.47-2.45a1,1,0,0,1-.51-1.32l2-4.56a1,1,0,0,1,.56-.53,1,1,0,0,1,.76,0l5.48,2.45a1,1,0,0,1,.5,1.32l-2,4.57a.94.94,0,0,1-.55.52A.92.92,0,0,1,48.26,27.7ZM44.1,23.75l3.66,1.63L49,22.64,45.33,21Z"
       id="path68" />
    <path
       class="cls-3"
       d="M42.78,25.25a.9.9,0,0,1-.4-.09L36.9,22.72a1,1,0,0,1-.51-1.33l2-4.56A1,1,0,0,1,39,16.3a1,1,0,0,1,.76,0l5.48,2.45a1,1,0,0,1,.51,1.32l-2,4.57a1,1,0,0,1-.56.53A1.09,1.09,0,0,1,42.78,25.25ZM38.63,21.3l3.65,1.63,1.22-2.74-3.65-1.63Z"
       id="path70" />
    <path
       class="cls-3"
       d="M47.31,29.83a1,1,0,0,1-.41-.09,1,1,0,0,1-.5-1.32l.54-1.21-3.65-1.64-1.64,3.66a1,1,0,1,1-1.82-.82l2-4.57a.94.94,0,0,1,.55-.52,1,1,0,0,1,.77,0l5.48,2.45a1,1,0,0,1,.5,1.32l-1,2.13A1,1,0,0,1,47.31,29.83Z"
       id="path72" />
    <path
       class="cls-3"
       d="M40.74,29.82a1,1,0,0,1-.41-.09l-5.47-2.45A1,1,0,0,1,34.35,26l2-4.57a1,1,0,0,1,.56-.52,1,1,0,0,1,.76,0l5.48,2.45a1,1,0,0,1,.51,1.32l-2,4.56a1,1,0,0,1-.56.53A1.1,1.1,0,0,1,40.74,29.82Zm-4.15-4,3.65,1.64,1.22-2.74-3.65-1.64Z"
       id="path74" />
    <path
       class="cls-3"
       d="M35.27,27.37a1,1,0,0,1-.41-.09l-5.48-2.45a1.05,1.05,0,0,1-.53-.55,1.08,1.08,0,0,1,0-.77l2-4.56a1,1,0,0,1,1.33-.51l5.47,2.45a1,1,0,0,1,.51,1.32l-2,4.57a1,1,0,0,1-.56.52A.84.84,0,0,1,35.27,27.37Zm-4.16-4,3.65,1.64L36,22.31l-3.65-1.63Z"
       id="path76" />
    <path
       class="cls-3"
       d="M40.74,29.82a1,1,0,0,1-.41-.09l-4.56-2-.4.89a1,1,0,0,1-1.82-.82l.81-1.8a1,1,0,0,1,1.32-.5l5.47,2.45a1,1,0,0,1-.41,1.91Z"
       id="path78" />
    <path
       class="cls-3"
       d="M34.46,29.17a1,1,0,0,1-.41-.09,1,1,0,0,1-.5-1.32l.4-.89-3.66-1.63-1.42,3.17a1,1,0,1,1-1.82-.82l1.83-4.08A1,1,0,0,1,30.2,23l5.48,2.45a1,1,0,0,1,.52.55,1,1,0,0,1,0,.77l-.81,1.8A1,1,0,0,1,34.46,29.17Z"
       id="path80" />
  </g>
</svg>
