<?xml version="1.0" encoding="UTF-8" standalone="no"?>
<svg
   xmlns:dc="http://purl.org/dc/elements/1.1/"
   xmlns:cc="http://creativecommons.org/ns#"
   xmlns:rdf="http://www.w3.org/1999/02/22-rdf-syntax-ns#"
   xmlns:svg="http://www.w3.org/2000/svg"
   xmlns="http://www.w3.org/2000/svg"
   xmlns:sodipodi="http://sodipodi.sourceforge.net/DTD/sodipodi-0.dtd"
   xmlns:inkscape="http://www.inkscape.org/namespaces/inkscape"
   width="800px"
   height="800px"
   viewBox="0 0 1024 1024"
   class="icon"
   version="1.1"
   id="svg14"
   sodipodi:docname="meter.svg"
   inkscape:export-filename="C:\Users\keega\Documents\cannlytics\cannlytics\app\assets\images\icons\meter.png"
   inkscape:export-xdpi="96"
   inkscape:export-ydpi="96"
   inkscape:version="1.0.1 (3bc2e813f5, 2020-09-07)">
  <metadata
     id="metadata20">
    <rdf:RDF>
      <cc:Work
         rdf:about="">
        <dc:format>image/svg+xml</dc:format>
        <dc:type
           rdf:resource="http://purl.org/dc/dcmitype/StillImage" />
      </cc:Work>
    </rdf:RDF>
  </metadata>
  <defs
     id="defs18" />
  <sodipodi:namedview
     pagecolor="#ffffff"
     bordercolor="#666666"
     borderopacity="1"
     objecttolerance="10"
     gridtolerance="10"
     guidetolerance="10"
     inkscape:pageopacity="0"
     inkscape:pageshadow="2"
     inkscape:window-width="1920"
     inkscape:window-height="1094"
     id="namedview16"
     showgrid="false"
     inkscape:zoom="0.94125"
     inkscape:cx="400"
     inkscape:cy="400"
     inkscape:window-x="-11"
     inkscape:window-y="-11"
     inkscape:window-maximized="1"
     inkscape:current-layer="svg14" />
  <path
     d="M731.698146 369.230454h-91.157535c0-70.648087-59.474427-123.991489-129.098629-123.991489v-91.158558c124.91401 0.001024 220.256163 95.355464 220.256164 215.150047z"
     fill="#E0E0E0"
     id="path2" />
  <path
     d="M511.441982 817.692226h69.624203v27.644904h-69.624203zM440.793895 874.005919h70.648087v26.621019h-70.648087zM514.321148 588.835426c-35.060905 0-102.484778-24.172909-122.055322-37.478298l15.763739-23.200218c16.475339 11.203353 64.219111 31.637033 116.967635 31.637033 22.008415-2.382581 62.205129-9.477083 93.773562-30.397107l15.489337 23.378373c-27.658214 18.331643-60.308893 27.240469-82.824132 31.479354-11.579119 2.183947-37.114819 4.580863-37.114819 4.580863z"
     fill="#FF7415"
     id="path4" />
  <path
     d="M498.131473 571.959749h26.621019v55.289807h-26.621019z"
     fill="#FF7415"
     id="path6" />
  <path
     d="M636.355992 736.090614V652.944982c111.6035-49.010319 184.40789-158.998128 184.40789-281.486553 0-170.126738-137.362407-308.534532-307.489145-308.534532S202.940215 201.331691 202.940215 371.458429c0 122.488425 76.079799 232.476235 180.516102 281.486553v83.145632c0 26.081431 23.549362 47.99872 44.027069 54.250564v114.040347c0 30.931576 27.857872 53.581967 58.789447 53.581967h56.097654c30.931576 0 52.006207-22.650391 52.006207-53.581967v-114.040347c28.668789-6.25082 41.979298-28.168109 41.979298-54.250564z m-93.985505 193.205113h-56.097654c-15.468859 0-32.168429-9.444318-32.168429-24.913178V789.023437h111.603501v115.359112c0 15.469883-7.868559 24.913178-23.337418 24.913178z m42.072471-166.893308H444.200362c-15.468859 0-32.074232-10.842946-32.074232-26.311805v-72.145008c15.35828 3.51807 23.137761 6.556962 34.081047 8.94671 7.539892 1.643336 16.05145-3.136161 17.701953-10.70984 1.650503-7.566513-2.639576-15.044971-10.207113-16.694451-127.691811-27.87835-220.117939-143.126882-220.117938-274.029596 0-154.657878 125.954277-280.486218 280.612155-280.486218S794.744909 216.80055 794.744909 371.458429c0 130.902715-92.647288 246.151247-220.338075 274.028572-7.566513 1.650503-12.344985 9.127938-10.694482 16.694451 1.431392 6.560033 7.246036 11.03134 13.696514 11.03134 0.993169 0 0.625594-0.102389 1.632073-0.3215 10.943286-2.389748 23.526837-5.42864 30.694035-8.94671v72.145008c0 15.470907-9.822132 26.312829-25.292016 26.312829z"
     fill="#262626"
     id="path8" />
  <path
     d="M639.713312 382.540963H703.135841c-2.369271 35.835986-12.921433 64.799654-30.876286 91.895756l21.270194 16.225511c23.590318-35.595373 33.952037-76.336794 33.952037-119.203801v-17.586255h-87.768474c-7.007471-62.457005-60.543363-112.194282-125.392164-112.194282s-118.384693 49.737277-125.392164 112.194282h-94.55069v17.586255c0 42.860864 13.739517 84.324124 37.316524 119.905162l24.02035-16.96066c-17.934375-27.082791-27.838418-56.025981-30.207689-91.861968h63.422529c7.007471 62.457005 60.543363 112.194282 125.392164 112.194283s118.384693-49.737277 125.39114-112.194283zM514.321148 469.628554c-54.131793 0-98.170125-44.038332-98.170125-98.170125s44.038332-98.170125 98.170125-98.170125 98.170125 44.038332 98.170125 98.170125-44.037308 98.170125-98.170125 98.170125z"
     fill="#262626"
     id="path10" />
  <path
     d="M355.944518 549.671813l-19.830611-19.830611 49.084039-49.085063 19.830611 19.831635zM672.697778 549.673861l-49.084039-49.085063 19.830611-19.829587 49.085063 49.084039zM307.688803 820.236582V671.276625h-28.668789v148.959957c0 30.931576 29.066057 53.769338 59.997632 53.769337h44.438671v-28.668789h-44.438671c-15.468859 0-31.328843-9.630665-31.328843-25.100548zM714.171277 820.236582c0 15.468859-9.076743 25.100549-24.545603 25.100548h-53.269682v28.668789h53.269682c30.931576 0 53.214392-22.837762 53.214392-53.769337V671.276625h-28.668789v148.959957zM514.321148 315.361799c-30.931576 0-56.097653 25.166077-56.097653 56.097654s25.166077 56.097653 56.097653 56.097653 56.097653-25.166077 56.097653-56.097653-25.165054-56.097653-56.097653-56.097654z m0 84.145968c-15.468859 0-28.048315-12.579455-28.048315-28.048314s12.579455-28.048315 28.048315-28.048315 28.048315 12.579455 28.048315 28.048315-12.578431 28.048315-28.048315 28.048314z"
     fill="#262626"
     id="path12" />
</svg>
