<?xml version="1.0" encoding="UTF-8" standalone="no"?>
<svg
   xmlns:dc="http://purl.org/dc/elements/1.1/"
   xmlns:cc="http://creativecommons.org/ns#"
   xmlns:rdf="http://www.w3.org/1999/02/22-rdf-syntax-ns#"
   xmlns:svg="http://www.w3.org/2000/svg"
   xmlns="http://www.w3.org/2000/svg"
   xmlns:sodipodi="http://sodipodi.sourceforge.net/DTD/sodipodi-0.dtd"
   xmlns:inkscape="http://www.inkscape.org/namespaces/inkscape"
   width="800px"
   height="800px"
   viewBox="0 0 2050 2050"
   data-name="Layer 3"
   id="Layer_3"
   version="1.1"
   sodipodi:docname="microbe.svg"
   inkscape:version="1.0.1 (3bc2e813f5, 2020-09-07)"
   inkscape:export-filename="C:\Users\keega\Documents\cannlytics\cannlytics\app\assets\images\icons\microbe.png"
   inkscape:export-xdpi="96"
   inkscape:export-ydpi="96">
  <metadata
     id="metadata83">
    <rdf:RDF>
      <cc:Work
         rdf:about="">
        <dc:format>image/svg+xml</dc:format>
        <dc:type
           rdf:resource="http://purl.org/dc/dcmitype/StillImage" />
      </cc:Work>
    </rdf:RDF>
  </metadata>
  <sodipodi:namedview
     pagecolor="#ffffff"
     bordercolor="#666666"
     borderopacity="1"
     objecttolerance="10"
     gridtolerance="10"
     guidetolerance="10"
     inkscape:pageopacity="0"
     inkscape:pageshadow="2"
     inkscape:window-width="1920"
     inkscape:window-height="1094"
     id="namedview81"
     showgrid="false"
     inkscape:zoom="0.94125"
     inkscape:cx="400"
     inkscape:cy="400"
     inkscape:window-x="-11"
     inkscape:window-y="-11"
     inkscape:window-maximized="1"
     inkscape:current-layer="Layer_3" />
  <defs
     id="defs4">
    <style
       id="style2">.cls-1{fill:#b6d162;}.cls-2{fill:#e0e1e2;}.cls-3{fill:#1682fc;}.cls-4{fill:#2e3a58;}</style>
  </defs>
  <title
     id="title6" />
  <path
     class="cls-1"
     d="M647.7,1192.7a262.9,262.9,0,0,0,42.8-43.5,542.1,542.1,0,0,0-64.4,61.7C633.1,1204.7,640.3,1198.6,647.7,1192.7Z"
     id="path8" />
  <path
     class="cls-2"
     d="M1107.6,1459.5c-82,37-171,57.4-250.6,57.4h0c-47.9,0-91.4-7-129.2-20.7-53.4-19.4-91.6-51.7-110.4-93.3-19.5-43.3-17.5-95.5,5.8-150.9,14.2-33.9,35.6-67.4,63.1-99.4-59,49.1-102.7,104.7-126.4,161.2s-25.3,107.6-5.8,150.9c18.8,41.7,56.9,73.9,110.3,93.3,37.8,13.8,81.3,20.7,129.3,20.7h0c79.6,0,168.5-20.3,250.5-57.3,84.1-37.9,154-88.8,208.6-151.6Q1189.4,1422.6,1107.6,1459.5Z"
     id="path10" />
  <path
     class="cls-3"
     d="M855.2,719.6a14.7,14.7,0,0,1-7.3-1.9l-89.5-49.8a15,15,0,1,1,14.5-26.2l89.6,49.8a15,15,0,0,1-7.3,28.1Z"
     id="path12"
     style="fill:#f57c00;fill-opacity:1" />
  <path
     class="cls-3"
     d="M929.6,625.2a14.7,14.7,0,0,1-11.2-5.1l-68.2-76.4a15,15,0,0,1,22.4-20l68.2,76.5a15.1,15.1,0,0,1-11.2,25Z"
     id="path14"
     style="fill:#f57c00;fill-opacity:1" />
  <path
     class="cls-3"
     d="M1029,568a14.9,14.9,0,0,1-14.3-10.7l-29.6-98.1a15,15,0,0,1,28.7-8.6l29.6,98.1a15,15,0,0,1-10.1,18.7A15.9,15.9,0,0,1,1029,568Z"
     id="path16"
     style="fill:#f57c00;fill-opacity:1" />
  <path
     class="cls-3"
     d="M1140.2,563.1a15.5,15.5,0,0,1-3.1-.3,14.9,14.9,0,0,1-11.6-17.7l20.9-100.3a15,15,0,0,1,29.4,6.1l-21,100.3A14.9,14.9,0,0,1,1140.2,563.1Z"
     id="path18"
     style="fill:#f57c00;fill-opacity:1" />
  <path
     class="cls-3"
     d="M1242.9,611.9a14.3,14.3,0,0,1-9.2-3.2,14.9,14.9,0,0,1-2.7-21l62.9-80.9a14.9,14.9,0,0,1,21-2.7,15.1,15.1,0,0,1,2.6,21.1l-62.8,80.9A14.9,14.9,0,0,1,1242.9,611.9Z"
     id="path20"
     style="fill:#f57c00;fill-opacity:1" />
  <path
     class="cls-3"
     d="M1322.2,701.2a14.8,14.8,0,0,1-12.7-7.1,15.1,15.1,0,0,1,4.7-20.7L1401,619a15,15,0,1,1,15.9,25.4l-86.7,54.5A15.7,15.7,0,0,1,1322.2,701.2Z"
     id="path22"
     style="fill:#f57c00;fill-opacity:1" />
  <path
     class="cls-3"
     d="M1371.9,813.8a15,15,0,0,1-4.1-29.4l98.5-28.3a15,15,0,0,1,8.2,28.9l-98.4,28.2A15.2,15.2,0,0,1,1371.9,813.8Z"
     id="path24"
     style="fill:#f57c00;fill-opacity:1" />
  <path
     class="cls-3"
     d="M1391,937.3a15,15,0,0,1-.5-30l102.4-3.2h.5a15,15,0,0,1,.4,30l-102.4,3.2Z"
     id="path26"
     style="fill:#f57c00;fill-opacity:1" />
  <path
     class="cls-4"
     d="M1391,937.3a15,15,0,0,1-15-14.6,495.6,495.6,0,0,0-17.6-116.6,431.3,431.3,0,0,0-45.5-106.5,359.9,359.9,0,0,0-32.9-46,306.1,306.1,0,0,0-39.1-39c-28.5-23.7-60.4-40.6-92.5-49.1a210.6,210.6,0,0,0-50.4-7.1,214.2,214.2,0,0,0-50.6,5.2c-32.4,7.4-64.8,23.3-93.6,45.8s-52.9,49.9-73.9,83c-4.9,7.7-9.8,16-14.4,24.7s-9,17.4-12.8,26a443.6,443.6,0,0,0-20.3,54.6,15,15,0,1,1-28.8-8.6,481.7,481.7,0,0,1,21.7-58.3c4.1-9.2,8.7-18.5,13.7-27.8s10.3-18.4,15.6-26.8c22.8-35.9,50-66.3,80.7-90.4,32.3-25.3,68.7-43,105.4-51.4a239.7,239.7,0,0,1,115.4,2.1c36.2,9.6,72.2,28.6,103.9,55a338.7,338.7,0,0,1,42.9,42.7,394.3,394.3,0,0,1,35.7,49.9,458.9,458.9,0,0,1,48.7,114A523.1,523.1,0,0,1,1406,921.8a15.1,15.1,0,0,1-14.6,15.5Z"
     id="path28" />
  <path
     class="cls-3"
     d="M637,1667.5a17.3,17.3,0,0,1-4.9-.8,14.9,14.9,0,0,1-9.2-19.1l33.4-96.8a15,15,0,1,1,28.3,9.8l-33.4,96.8A14.9,14.9,0,0,1,637,1667.5Z"
     id="path30"
     style="fill:#f57c00;fill-opacity:1" />
  <path
     class="cls-3"
     d="M500.5,1577.3a15,15,0,0,1-9.7-26.5l78.6-65.8a15.1,15.1,0,1,1,19.3,23.1l-78.6,65.7A15.1,15.1,0,0,1,500.5,1577.3Z"
     id="path32"
     style="fill:#f57c00;fill-opacity:1" />
  <path
     class="cls-3"
     d="M442.6,1417.7a15,15,0,0,1-.1-30l102.4-.8h.1a15,15,0,0,1,.1,30l-102.4.8Z"
     id="path34"
     style="fill:#f57c00;fill-opacity:1" />
  <path
     class="cls-3"
     d="M574,1308.6a15.5,15.5,0,0,1-6.9-1.6l-91-47a15,15,0,0,1,13.7-26.7l91.1,47a15,15,0,0,1,6.4,20.2A14.8,14.8,0,0,1,574,1308.6Z"
     id="path36"
     style="fill:#f57c00;fill-opacity:1" />
  <path
     class="cls-3"
     d="M646.6,1210.1a14.7,14.7,0,0,1-10.4-4.3l-73.5-71.4a15,15,0,1,1,20.9-21.5l73.5,71.4a15.1,15.1,0,0,1,.3,21.2A14.9,14.9,0,0,1,646.6,1210.1Z"
     id="path38"
     style="fill:#f57c00;fill-opacity:1" />
  <path
     class="cls-3"
     d="M750.1,1106.8a14.6,14.6,0,0,1-8.4-2.6l-84.5-57.9a15,15,0,1,1,16.9-24.7l84.5,57.9a15,15,0,0,1-8.5,27.3Z"
     id="path40"
     style="fill:#f57c00;fill-opacity:1" />
  <path
     class="cls-3"
     d="M797.1,948.2H797l-102.5-1.1a15,15,0,0,1,.4-30l102.4,1.1a15,15,0,0,1-.2,30Z"
     id="path42"
     style="fill:#f57c00;fill-opacity:1" />
  <path
     class="cls-3"
     d="M813.5,824.2a12.8,12.8,0,0,1-3.8-.5l-99.1-26a15,15,0,1,1,7.7-29l99,26a15,15,0,0,1-3.8,29.5Z"
     id="path44"
     style="fill:#f57c00;fill-opacity:1" />
  <path
     class="cls-3"
     d="M1487.3,1067.1h-1.8l-101.7-11.8a15,15,0,1,1,3.4-29.8l101.8,11.8a15,15,0,0,1-1.7,29.9Z"
     id="path46"
     style="fill:#f57c00;fill-opacity:1" />
  <path
     class="cls-3"
     d="M1457.6,1211.1a17.4,17.4,0,0,1-4.5-.6l-97.9-30.1a15.1,15.1,0,0,1-9.9-18.8,15,15,0,0,1,18.8-9.9l97.9,30.1a15,15,0,0,1-4.4,29.3Z"
     id="path48"
     style="fill:#f57c00;fill-opacity:1" />
  <path
     class="cls-3"
     d="M1398.7,1348c-2.5,0-5.1-.7-11.6-6.2l-88.9-50.8c-3.1.1-5.6-9.1-1.5-16.3a15,15,0,0,1,20.5-5.6l89,50.8a15.1,15.1,0,0,1-7.5,28.1Z"
     id="path50"
     style="fill:#f57c00;fill-opacity:1" />
  <path
     class="cls-3"
     d="M1305.5,1464.2a15.1,15.1,0,0,1-10.3-4.1l-70.4-66.2a15,15,0,1,1,20.6-21.8l70.4,66.2a15,15,0,0,1-10.3,25.9Z"
     id="path52"
     style="fill:#f57c00;fill-opacity:1" />
  <path
     class="cls-3"
     d="M1191.5,1560.3a14.9,14.9,0,0,1-12.4-6.6l-57.1-85.1a15,15,0,0,1,24.9-16.7l57.1,85a15,15,0,0,1-12.5,23.4Z"
     id="path54"
     style="fill:#f57c00;fill-opacity:1" />
  <path
     class="cls-3"
     d="M1065.6,1634.2a15.1,15.1,0,0,1-13.9-9.2l-39.6-94.4a15,15,0,1,1,27.6-11.7l39.7,94.5a15,15,0,0,1-13.8,20.8Z"
     id="path56"
     style="fill:#f57c00;fill-opacity:1" />
  <path
     class="cls-3"
     d="M924.6,1678.2a15,15,0,0,1-14.7-12l-20.7-100.4a15,15,0,0,1,29.4-6l20.7,100.3a15.1,15.1,0,0,1-11.7,17.8Z"
     id="path58"
     style="fill:#f57c00;fill-opacity:1" />
  <path
     class="cls-3"
     d="M775.6,1691.7h-.5a14.8,14.8,0,0,1-14.5-15.4l3.2-102.4a15,15,0,0,1,30,.9l-3.3,102.4A15,15,0,0,1,775.6,1691.7Z"
     id="path60"
     style="fill:#f57c00;fill-opacity:1" />
  <path
     class="cls-4"
     d="M793.9,1589.5l-15.6-.2a15,15,0,1,1,1-30c37.8,1.2,77.5-2.3,118.2-10.5a637.4,637.4,0,0,0,116.2-35.2c79-32.3,146.7-76.4,201.1-131.2l6.5-6.6,3.7-4,4.1-4.4,6-6.6,12.3-14.3,1.1-1.5,1-1.2,10.4-13.2,12-16.5,11.4-17,4.8-7.8h0c19.8-31.9,36.9-68.2,50.9-108.1v-.4c.7-1.8,1.3-3.7,2-5.8l6-19,.6-2a10.3,10.3,0,0,1,.4-1.4l5.1-18.7h0c.3-.9.6-1.9.8-2.8v-.3l5.3-22.5,1.8-9.2,1.2-5.9,2.2-11.2,2.9-19a838.2,838.2,0,0,0,8.9-123.9,15,15,0,0,1,15-15h0a15,15,0,0,1,15,15,871.9,871.9,0,0,1-9.2,128.4h0l-3.1,19.3v.6l-2.3,11.5c-.4,1.9-.7,3.8-1.1,5.8s-1.3,6.5-1.9,9.7a.6.6,0,0,0-.1.4l-5.3,22.7c-.4,1.6-.8,3.1-1.2,4.4l-5.1,18.7a9.3,9.3,0,0,0-.4,1.3c-.2.9-.5,1.9-.8,2.8v.2l-6.1,19.1c-.7,2.4-1.5,4.8-2.5,7.3-14.6,41.9-32.7,80.1-53.5,113.7l-5,8.1-.3.6-11.7,17.4-.3.5-12.4,17a1,1,0,0,1-.4.5l-10.6,13.5-.8,1-1.8,2.3h-.2l-12.4,14.6-.2.3-6.5,7c-1.3,1.4-2.7,2.8-4,4.3l-3.9,4.2-.4.5-6.8,6.8c-57.2,57.6-128.2,104-211,137.8a660.3,660.3,0,0,1-121.6,36.8A558.7,558.7,0,0,1,793.9,1589.5Z"
     id="path62" />
  <path
     class="cls-3"
     d="M793.7,1453.7c-21.8,0-42.2-1.9-60.7-5.9a5,5,0,1,1,2.1-9.7,289.3,289.3,0,0,0,58.6,5.6h2a5,5,0,0,1,5,5,5,5,0,0,1-5,5Zm61.7-4.9a5,5,0,0,1-.7-10,483.4,483.4,0,0,0,58-12.7,5,5,0,0,1,2.7,9.6,503.8,503.8,0,0,1-59.2,13Zm-176-24a4.6,4.6,0,0,1-3.3-1.3,30.1,30.1,0,0,1-8-10.2c-1.6-3.3-2.3-7.6-2.3-12.7,0-10.4,3.3-24,9.3-38.3l.2-.5a5,5,0,0,1,9.2,4l-.2.4c-5.5,13.1-8.5,25.3-8.5,34.4a22,22,0,0,0,1.4,8.6c.6,1.5,2.1,3.8,5.5,6.8a5,5,0,0,1,.4,7.1A5,5,0,0,1,679.4,1424.8Zm291.4-8.3a5,5,0,0,1-1.9-9.7c6.6-2.7,13.3-5.5,19.8-8.5,11.7-5.2,23.1-10.8,34-16.7a5,5,0,0,1,6.8,2.1,4.9,4.9,0,0,1-2.1,6.7c-11.1,6-22.7,11.7-34.6,17.1-6.6,2.9-13.4,5.9-20.2,8.6A5.8,5.8,0,0,1,970.8,1416.5Zm105.4-56.8a5.2,5.2,0,0,1-4.1-2.1,5.1,5.1,0,0,1,1.2-7,447.6,447.6,0,0,0,46.3-37.1,5,5,0,0,1,6.7,7.3,442.9,442.9,0,0,1-47.2,38A5.2,5.2,0,0,1,1076.2,1359.7Zm-365.5-42.2a4.9,4.9,0,0,1-3.9-8,369,369,0,0,1,41.2-44.7,4.8,4.8,0,0,1,7,.3,4.9,4.9,0,0,1-.2,7,364.9,364.9,0,0,0-40.1,43.5A5,5,0,0,1,710.7,1317.5Zm453.3-39a5.1,5.1,0,0,1-3.2-1.2,5,5,0,0,1-.7-7c5.9-7.2,11.5-14.7,16.8-22.3s11.6-17.3,16.9-26.4a5,5,0,1,1,8.6,5.1c-5.4,9.3-11.3,18.3-17.3,27s-11.2,15.5-17.2,22.9A5.2,5.2,0,0,1,1164,1278.5Zm-367.2-44.3a5.1,5.1,0,0,1-3.7-1.5,5,5,0,0,1,.3-7.1,393.7,393.7,0,0,0,40.1-43.5,5.2,5.2,0,0,1,7.1-.8,5,5,0,0,1,.8,7,405.4,405.4,0,0,1-41.2,44.6A5,5,0,0,1,796.8,1234.2Zm427.9-58.8a5.8,5.8,0,0,1-1.9-.3,5,5,0,0,1-2.7-6.6,483.5,483.5,0,0,0,16.1-45.7l3-10.5a5,5,0,0,1,6.1-3.5,5.1,5.1,0,0,1,3.5,6.2l-3,10.6a494.9,494.9,0,0,1-16.5,46.7A4.9,4.9,0,0,1,1224.7,1175.4Zm-353.6-34.8a5.4,5.4,0,0,1-2.5-.6,5.2,5.2,0,0,1-1.9-6.9c4.7-8,9-16.3,13-24.7s8.7-19,12.4-28.7a5,5,0,1,1,9.3,3.5c-3.8,10-8.1,20-12.7,29.5s-8.5,17.1-13.3,25.4A5,5,0,0,1,871.1,1140.6Zm385.5-80.6h-.8a5,5,0,0,1-4.1-5.8c3.1-18.9,5.3-38.8,6.8-59.1a5,5,0,0,1,10,.7c-1.5,20.6-3.8,40.8-7,60A4.9,4.9,0,0,1,1256.6,1060Zm-342.7-31h-1.1a5,5,0,0,1-3.8-6,387.8,387.8,0,0,0,8.1-58.6,5.2,5.2,0,0,1,5.3-4.7,5,5,0,0,1,4.7,5.3,409.3,409.3,0,0,1-8.4,60.2A4.9,4.9,0,0,1,913.9,1029Zm351.6-88.5a5,5,0,0,1-5-5,397.8,397.8,0,0,0-5-58.9,5,5,0,1,1,9.8-1.6,392,392,0,0,1,5.2,60.5,5,5,0,0,1-5,5ZM924.3,909.7h-.4a5,5,0,0,1-4.6-5.4,396.2,396.2,0,0,1,10-59.9,5,5,0,0,1,9.7,2.4,374.6,374.6,0,0,0-9.7,58.4A5,5,0,0,1,924.3,909.7ZM1246,822.6a4.9,4.9,0,0,1-4.7-3.4,309.2,309.2,0,0,0-24-53.8,5.1,5.1,0,0,1,1.8-6.9,5.2,5.2,0,0,1,6.9,1.9,322.1,322.1,0,0,1,24.7,55.6,5,5,0,0,1-3.1,6.3A4.5,4.5,0,0,1,1246,822.6ZM953.6,793.8a5.2,5.2,0,0,1-2.1-.4,5,5,0,0,1-2.5-6.6A285.7,285.7,0,0,1,979.5,734a5,5,0,0,1,7-1,5.1,5.1,0,0,1,1.1,7,276.8,276.8,0,0,0-29.5,50.9A4.9,4.9,0,0,1,953.6,793.8Zm232.5-74.1a5.1,5.1,0,0,1-3.6-1.5c-14.8-15.4-30.5-27-46.5-34.5a5,5,0,1,1,4.2-9c17.2,7.9,33.8,20.2,49.5,36.5a5,5,0,0,1-.2,7.1A4.9,4.9,0,0,1,1186.1,719.7Zm-160.8-20.5a5,5,0,0,1-3-9c18.4-13.7,37.4-22,56.6-24.9a4.9,4.9,0,0,1,5.7,4.2,5.1,5.1,0,0,1-4.2,5.7c-17.6,2.6-35.1,10.4-52.1,23A4.7,4.7,0,0,1,1025.3,699.2Z"
     id="path64"
     style="fill:#f57c00;fill-opacity:1" />
  <circle
     class="cls-2"
     cx="1108.5"
     cy="865.8"
     r="56.5"
     id="circle66" />
  <circle
     class="cls-2"
     cx="1031.5"
     cy="997.1"
     r="27.9"
     id="circle68" />
  <circle
     class="cls-2"
     cx="1148.7"
     cy="1048.1"
     r="14.1"
     id="circle70" />
  <circle
     class="cls-2"
     cx="849.3"
     cy="1324.6"
     r="25.2"
     id="circle72" />
  <circle
     class="cls-2"
     cx="975.7"
     cy="1181.1"
     r="41.6"
     id="circle74" />
  <circle
     class="cls-2"
     cx="1039.6"
     cy="1284.8"
     r="14.6"
     id="circle76" />
  <path
     class="cls-4"
     d="M762.5,1588.4h-1a398.8,398.8,0,0,1-60.9-8.7,304.6,304.6,0,0,1-57-18.5,221.3,221.3,0,0,1-49.6-29.5,175.2,175.2,0,0,1-37.6-40.5,160.2,160.2,0,0,1-21.6-49.8.6.6,0,0,1-.1-.4l-1.7-7.5a4.3,4.3,0,0,0-.2-1.1l-.6-4.3a93.2,93.2,0,0,1-1.3-9.5c-.1-1.3-.2-2.6-.4-3.8a3.7,3.7,0,0,0-.1-1.1l-.2-6.4h0a3.1,3.1,0,0,1-.1-1c0-.9-.1-1.8-.1-2.7v-7.6c0-.8,0-2,.1-3.3l.4-6.4v-.3a202.3,202.3,0,0,1,4.1-28.2c.7-3.6,1.6-7,2.4-10.3a22.5,22.5,0,0,0,.9-3.5l1.1-3.7,1.2-3.8h0l.6-2c.5-1.6,1-3.4,1.7-5.3l2.8-8.1.3-.6,2-4.9v-.2l.9-2.2c.6-1.4,1.2-3.1,2-4.8l2.8-6.5a5.4,5.4,0,0,0,.5-1.1l1.2-2.6,4.8-9.8a.8.8,0,0,0,.2-.4l3.5-6.5h0a16.2,16.2,0,0,0,1-1.8c.8-1.5,1.7-3.2,2.8-5,19.5-34.2,45.1-66.9,76-97.4h.1l6.1-5.9,5.3-5,8.4-7.7.3-.3,11.6-10.1.3-.3,11.8-9.7,5.9-5c1.9-1.6,3.7-3.1,5.4-4.7l7.3-6.8,1.3-1.3,1.8-1.8,7-7.5a15.9,15.9,0,0,0,1.3-1.3l1.6-1.8.2-.2,2.1-2.6c3.7-4.3,7.1-8.4,10.2-12.6v-.2l4.4-6,1.3-1.8,5.7-8.6a.3.3,0,0,1,.1-.2l1.9-3.1,3.5-6a71.2,71.2,0,0,0,3.9-7v-.2l4.6-9c1-2,1.9-4.1,2.9-6.2l1.2-2.7,1.9-4.4,2.7-7c.8-2.3,1.7-4.4,2.4-6.6l3.1-9.5.6-1.9c.2-.8.5-1.6.6-2.1s.1-.2.1-.3l1.3-5v-.2a235.4,235.4,0,0,0,6.9-38.3l.9-10.1v-.2c.1-1,.1-2.2.2-3.4l.3-15.1v-7.6h0A526.6,526.6,0,0,1,799,805.4a15,15,0,0,1,29,7.6,498.4,498.4,0,0,0-15.8,116.9v10.7l-.4,12.5c0,1.6-.1,3.4-.2,5.4l-.9,10.2v.4a281.2,281.2,0,0,1-7.8,43l-1.3,4.8a30.8,30.8,0,0,1-1.2,4.2c-.1.5-.3,1-.4,1.4a.4.4,0,0,0-.1.3l-3.2,9.9v.4c-.9,2.6-1.9,5.1-2.8,7.5l-2.9,7.4a1.4,1.4,0,0,1-.2.7l-2.1,4.8-1.2,2.6q-1.5,3.6-3.3,7.2a.8.8,0,0,1-.2.4l-4.6,9.1c-1.6,3.2-3.3,6-4.9,8.8l-3.5,6c-.9,1.4-1.8,3.1-3,4.8l-7.2,10.8-.4.5-4.5,6.2c-3.7,5.1-7.7,9.8-11.5,14.4l-2.1,2.4-3,3.4-.9,1H738l-7.1,7.6-3,3-1.1,1.1h-.2l-7.5,7.2-.4.3-6,5.2-6.1,5.1c0,.1,0,.1-.1.1l-11.8,9.8-11.3,9.8-8.3,7.7H675c-1.5,1.3-2.9,2.7-4.5,4.2l-6.1,5.9c-29,28.6-52.9,59.2-71.1,91a.5.5,0,0,1-.2.4c-.6,1.1-1.3,2.3-1.9,3.6l-1.2,2.1-3.3,6.1-4.6,9.6c-.2.4-.4.9-.7,1.4l-.6,1.4-2.8,6.4-1.5,3.5-1,2.7-1.8,4.5-2.8,8-.2.4c-.3.9-.7,2.1-1,3.3s-.5,1.7-.8,2.5l-1.2,3.8-.5,1.7v.3c-.3,1.3-.7,2.6-1,3.9-.8,3-1.5,5.8-2,8.5a.9.9,0,0,0-.1.5,175.4,175.4,0,0,0-3.6,24.3l-.4,6.3v8.8a4.9,4.9,0,0,0,.1,1.2v1.4l.3,5.8c.1,1.3.3,2.6.4,3.9a66.5,66.5,0,0,0,.9,7,1.1,1.1,0,0,0,.1.5l.6,4.2.2,1h.1l1.2,5.8a133.6,133.6,0,0,0,17.6,40.4,144.2,144.2,0,0,0,31.1,33.5,201.2,201.2,0,0,0,43.1,25.6,280.1,280.1,0,0,0,51.5,16.7,376,376,0,0,0,56.3,8,15,15,0,0,1-1,29.9Z"
     id="path78" />
</svg>
