<?xml version="1.0" ?><!-- Uploaded to: SVG Repo, www.svgrepo.com, Generator: SVG Repo Mixer Tools -->
<svg width="800px" height="800px" viewBox="0 0 2050 2050" data-name="Layer 3" id="Layer_3" xmlns="http://www.w3.org/2000/svg"><defs><style>.cls-1{fill:#e0e1e2;}.cls-2{fill:#2e3a58;}.cls-3{fill:#1682fc;}</style></defs><title/><path class="cls-1" d="M1025,436.3c-325.1,0-588.7,263.6-588.7,588.7s263.6,588.7,588.7,588.7,588.7-263.6,588.7-588.7S1350.1,436.3,1025,436.3Zm0,1093.7c-278.9,0-505-226.1-505-505s226.1-505,505-505,505,226.1,505,505S1303.9,1530,1025,1530Z"/><path class="cls-2" d="M1025,1628.7a602.6,602.6,0,1,1,235-47.5A599.9,599.9,0,0,1,1025,1628.7Zm0-1177.4a571.5,571.5,0,1,0,223.3,45.1A570.1,570.1,0,0,0,1025,451.3Z"/><path class="cls-3" d="M1025,1535h0c-10.9,0-21.8-.4-32.6-1.1a4.9,4.9,0,0,1-4.7-5.3,5.1,5.1,0,0,1,5.3-4.7c10.6.7,21.4,1.1,32,1.1h0c10.3,0,20.7-.4,30.9-1a5,5,0,0,1,5.2,4.7,4.9,4.9,0,0,1-4.6,5.3C1046.1,1534.6,1035.5,1535,1025,1535Zm94.1-8.8a5.1,5.1,0,0,1-4.9-4.1,5,5,0,0,1,4-5.8,512.5,512.5,0,0,0,60.9-15.5,5,5,0,0,1,6.3,3.2,5.1,5.1,0,0,1-3.2,6.3,513.6,513.6,0,0,1-62.1,15.8Zm-189.4-.2h-.9a514.4,514.4,0,0,1-62.1-16,5,5,0,0,1,3.1-9.5,490.2,490.2,0,0,0,60.9,15.7,4.8,4.8,0,0,1,3.9,5.8A4.9,4.9,0,0,1,929.7,1526Zm310-38.8a5.2,5.2,0,0,1-4.6-2.9,5,5,0,0,1,2.4-6.6,508.7,508.7,0,0,0,55.1-30.3,4.9,4.9,0,0,1,6.9,1.6,5,5,0,0,1-1.6,6.9,509.7,509.7,0,0,1-56.1,30.8A5.4,5.4,0,0,1,1239.7,1487.2Zm-430.4-.5a5.9,5.9,0,0,1-2.2-.5,511.3,511.3,0,0,1-56.1-31,5,5,0,0,1-1.5-6.9,4.9,4.9,0,0,1,6.9-1.5,515.8,515.8,0,0,0,55,30.4,4.9,4.9,0,0,1,2.4,6.6A5.1,5.1,0,0,1,809.3,1486.7Zm537.3-67.4a5,5,0,0,1-3.9-1.8,5,5,0,0,1,.7-7,503.1,503.1,0,0,0,45.8-43,5,5,0,0,1,7.1-.2,4.9,4.9,0,0,1,.2,7,509.5,509.5,0,0,1-46.7,43.9A5,5,0,0,1,1346.6,1419.3Zm-644.2-.8a5.6,5.6,0,0,1-3.2-1.1,522.8,522.8,0,0,1-46.6-44,5,5,0,1,1,7.3-6.8,531.7,531.7,0,0,0,45.7,43.1,4.9,4.9,0,0,1,.7,7A5,5,0,0,1,702.4,1418.5Zm731-91.4a4.9,4.9,0,0,1-3-1,5.1,5.1,0,0,1-1.1-7,489.8,489.8,0,0,0,33.8-53,5.1,5.1,0,0,1,6.8-2,5,5,0,0,1,1.9,6.8,484.6,484.6,0,0,1-34.4,54.1A4.9,4.9,0,0,1,1433.4,1327.1ZM615.9,1326a5.1,5.1,0,0,1-4.1-2,509,509,0,0,1-34.2-54.2,4.8,4.8,0,0,1,1.9-6.7,4.9,4.9,0,0,1,6.8,1.9,522.1,522.1,0,0,0,33.6,53.1,5.1,5.1,0,0,1-1.1,7A5.2,5.2,0,0,1,615.9,1326Zm878.7-109.9a4.1,4.1,0,0,1-1.9-.4,5.1,5.1,0,0,1-2.8-6.5,479.4,479.4,0,0,0,19.4-59.8,5.2,5.2,0,0,1,6.1-3.6,5,5,0,0,1,3.6,6.1,498.9,498.9,0,0,1-19.8,61A4.9,4.9,0,0,1,1494.6,1216.1ZM555,1215a4.9,4.9,0,0,1-4.6-3.1,488.5,488.5,0,0,1-19.7-61.1,4.9,4.9,0,0,1,3.6-6,5,5,0,0,1,6.1,3.6,489.9,489.9,0,0,0,19.3,59.8,5,5,0,0,1-2.9,6.5A5.7,5.7,0,0,1,555,1215Zm971-121.7h-.6a4.9,4.9,0,0,1-4.3-5.6,522.5,522.5,0,0,0,3.9-62.7,5,5,0,0,1,5-5,5,5,0,0,1,5,5,524.9,524.9,0,0,1-4,64A5,5,0,0,1,1526,1093.3Zm-1002.2-1.1a4.9,4.9,0,0,1-4.9-4.3A508.2,508.2,0,0,1,515,1025v-1.1a5.1,5.1,0,0,1,5-5h.1a4.9,4.9,0,0,1,4.9,5v1.1a505.6,505.6,0,0,0,3.8,61.6,5,5,0,0,1-4.3,5.6ZM1526.3,968.9a5.1,5.1,0,0,1-5-4.4,494.3,494.3,0,0,0-11.4-61.8,5,5,0,0,1,3.6-6.1,5.1,5.1,0,0,1,6.1,3.6,519,519,0,0,1,11.7,63.1,5,5,0,0,1-4.4,5.5ZM524.1,965.6h-.6a4.9,4.9,0,0,1-4.3-5.6,516.7,516.7,0,0,1,12-62.9,5,5,0,1,1,9.7,2.5,497.3,497.3,0,0,0-11.8,61.7A5.1,5.1,0,0,1,524.1,965.6ZM1495.4,846a5.1,5.1,0,0,1-4.7-3.2,506,506,0,0,0-26.5-56.9,5,5,0,0,1,8.8-4.8,501.6,501.6,0,0,1,27,58.1,4.9,4.9,0,0,1-2.8,6.5A5.7,5.7,0,0,1,1495.4,846Zm-939.6-3.1a3.9,3.9,0,0,1-1.8-.4,5,5,0,0,1-2.8-6.5,502.2,502.2,0,0,1,27.5-57.9,5.1,5.1,0,0,1,6.8-2,5,5,0,0,1,1.9,6.8,499.2,499.2,0,0,0-26.9,56.8A5.1,5.1,0,0,1,555.8,842.9Zm879-108a5.2,5.2,0,0,1-4.1-2.1,500,500,0,0,0-39.9-48.6,5,5,0,0,1,7.4-6.8,518.3,518.3,0,0,1,40.6,49.5,5.1,5.1,0,0,1-1.1,7A4.6,4.6,0,0,1,1434.8,734.9ZM617.3,732a5.3,5.3,0,0,1-3-.9,5.1,5.1,0,0,1-1.1-7,508.8,508.8,0,0,1,41.1-49.3,4.9,4.9,0,0,1,7-.2,5,5,0,0,1,.2,7.1A502,502,0,0,0,621.3,730,5.1,5.1,0,0,1,617.3,732Zm731.1-89.8a4.9,4.9,0,0,1-3.2-1.2,499.8,499.8,0,0,0-50.7-37.2,5,5,0,1,1,5.4-8.4,519.4,519.4,0,0,1,51.7,37.9,5.1,5.1,0,0,1,.6,7.1A4.8,4.8,0,0,1,1348.4,642.2ZM704.3,640a5,5,0,0,1-3.2-8.9A514.9,514.9,0,0,1,753,593.5a5.1,5.1,0,0,1,6.9,1.6,5,5,0,0,1-1.5,6.9,483.9,483.9,0,0,0-50.9,36.8A5.1,5.1,0,0,1,704.3,640Zm537.4-66.2a5.4,5.4,0,0,1-2.1-.5,508,508,0,0,0-58.4-23.4,5,5,0,1,1,3.1-9.5,511,511,0,0,1,59.6,23.9,5,5,0,0,1-2.2,9.5Zm-430.3-1.5a5,5,0,0,1-2.2-9.5,509.5,509.5,0,0,1,59.7-23.4,5,5,0,0,1,3.1,9.5,489.7,489.7,0,0,0-58.5,23A5.2,5.2,0,0,1,811.4,572.3Zm310-38.1h-1a520.2,520.2,0,0,0-62.3-8,5,5,0,0,1-4.7-5.3,5,5,0,0,1,5.3-4.7,521.7,521.7,0,0,1,63.6,8.2,5.1,5.1,0,0,1,4,5.9A5,5,0,0,1,1121.4,534.2Zm-189.5-.6a5.1,5.1,0,0,1-4.9-4.1,5,5,0,0,1,4-5.8,520.2,520.2,0,0,1,63.7-7.8,5,5,0,0,1,5.2,4.7,4.9,4.9,0,0,1-4.7,5.3,499.9,499.9,0,0,0-62.3,7.6Z"/><ellipse class="cls-1" cx="1040.7" cy="834" rx="113.6" ry="37.7"/><ellipse class="cls-1" cx="1195.4" cy="1167.7" rx="90.2" ry="29.9" transform="translate(-345.2 520.4) rotate(-21.5)"/><ellipse class="cls-1" cx="779.9" cy="1104" rx="22.8" ry="68.7" transform="translate(-543.3 1379.8) rotate(-66.5)"/><path class="cls-3" d="M1036,1011.6c-73.6,0-142.9-14.7-195.3-41.2-55.7-28.3-86.3-67-86.3-109s30.6-80.8,86.3-109c52.4-26.6,121.7-41.2,195.3-41.2s142.9,14.6,195.3,41.2c55.6,28.2,86.3,66.9,86.3,109s-30.7,80.7-86.3,109C1178.9,996.9,1109.5,1011.6,1036,1011.6Zm0-270.4c-68.9,0-133.5,13.5-181.8,37.9-22.6,11.5-40.3,24.7-52.4,39.2s-17.4,28.4-17.4,43.1,5.8,29.1,17.4,43,29.8,27.7,52.4,39.2c48.3,24.5,112.9,38,181.8,38s133.4-13.5,181.7-38c22.7-11.5,40.3-24.7,52.4-39.2s17.5-28.4,17.5-43-5.9-29.2-17.5-43.1-29.7-27.7-52.4-39.2C1169.4,754.7,1104.9,741.2,1036,741.2Z"/><path class="cls-3" d="M1036,892c-31,0-60.3-5-82.6-14-15.4-6.2-41.2-20.4-41.2-45.1a15,15,0,1,1,30,0c0,3.3,6,10.6,22.5,17.3,18.5,7.5,44.5,11.8,71.3,11.8s52.7-4.3,71.3-11.8c16.5-6.7,22.5-14,22.5-17.3a15,15,0,1,1,30,0c0,24.7-25.9,38.9-41.3,45.1C1096.2,887,1066.9,892,1036,892Z"/><path class="cls-3" d="M1116.5,1338.1c-8,0-15.8-.4-23.4-1.1-50.7-4.7-85.7-25.2-98.5-57.5-25.3-64.1,48-151,166.8-197.9,55-21.7,111.2-31.3,158.4-26.8,50.8,4.7,85.8,25.1,98.5,57.5,25.3,64.1-47.9,151-166.7,197.9C1205.4,1328.4,1158.3,1338.1,1116.5,1338.1Zm179.8-254.4c-38,0-81.2,8.9-123.9,25.8-50.7,20-94.3,48.6-122.7,80.6-25.5,28.8-35.5,57.4-27.2,78.4s35.1,35.1,73.4,38.7c42.6,4,94-4.9,144.7-24.9s94.2-48.6,122.6-80.6c25.6-28.9,35.5-57.4,27.2-78.4s-35-35.1-73.4-38.7Q1306.9,1083.7,1296.3,1083.7Z"/><path class="cls-3" d="M1156,1232.8h-1c-30.5-.3-40.4-14-43.6-22.1a14.9,14.9,0,0,1,8.4-19.4,15.1,15.1,0,0,1,19.4,8.1c1,1,6.6,3.8,19.6,3.3s29.9-4.2,46.2-10.6,30.7-14.9,41-23.8,12-14.4,12.1-15.8a15,15,0,0,1,8.5-19.2,15.1,15.1,0,0,1,19.5,8.5c3.2,8.1,5.2,24.9-16.8,45.9-13,12.4-32,23.8-53.3,32.3S1173.7,1232.8,1156,1232.8Zm102.2-80Z"/><path class="cls-3" d="M843.5,1244c-35.3,0-75.8-9.7-115-27.6-42-19.2-77.9-45.7-101-74.7-25.4-31.9-33-63.5-21.2-89.2s40.5-40.7,81.2-42.3c37.1-1.6,80.7,8.2,122.7,27.4s77.9,45.7,101,74.7c25.4,31.9,33,63.6,21.2,89.2h.1c-11.8,25.6-40.6,40.7-81.3,42.4ZM695.3,1040h-6.5c-28.4,1.2-48.6,10.2-55.2,24.9s-.4,35.7,17.3,58c20.3,25.4,52.3,48.9,90.1,66.1s76.5,26.1,108.9,24.8c28.5-1.2,48.6-10.2,55.3-24.9h0c6.6-14.6.3-35.7-17.4-58-20.3-25.4-52.2-48.9-90.1-66.1C762.4,1048.7,726.3,1040,695.3,1040Z"/><path class="cls-3" d="M810.9,1161c-15.9,0-34.5-5.1-51.3-12.7-33.2-15.2-63.9-42.9-52.5-67.7a15,15,0,0,1,19.8-7.4,15.1,15.1,0,0,1,8,18.6c1.4,4.6,13,18.1,37.2,29.2s42,11,46.4,9a15,15,0,0,1,26.7,13.7C839.6,1156.1,826.6,1161,810.9,1161Z"/><ellipse class="cls-3" cx="1413.7" cy="929.7" rx="52" ry="27.5"/><ellipse class="cls-3" cx="982.7" cy="1072.4" rx="41.2" ry="21.8"/><ellipse class="cls-3" cx="1023.9" cy="647.7" rx="55.7" ry="30.2"/><ellipse class="cls-3" cx="664.1" cy="877" rx="55.7" ry="30.2"/><ellipse class="cls-3" cx="869.1" cy="1356.8" rx="32.6" ry="58.1" transform="translate(-704.1 1705) rotate(-69.8)"/></svg>