<?xml version="1.0" encoding="utf-8"?>
<!-- Uploaded to: SVG Repo, www.svgrepo.com, Generator: SVG Repo Mixer Tools -->
<svg width="800px" height="800px" viewBox="0 0 1024 1024" class="icon"  version="1.1" xmlns="http://www.w3.org/2000/svg"><path d="M760.32 504.32l-496.64 0.512v188.928c0 115.712 94.208 209.92 209.92 209.92h76.8c115.712 0 209.92-94.208 209.92-209.92v-189.44z m15.36 189.44c0 124.416-100.864 225.28-225.28 225.28h-76.8c-124.416 0-225.28-100.864-225.28-225.28V489.472l527.36-0.512v204.8z" fill="" /><path d="M491.52 291.84h40.96c14.336 0 25.6 11.264 25.6 25.6v51.2c0 14.336-11.264 25.6-25.6 25.6h-40.96c-14.336 0-25.6-11.264-25.6-25.6V317.44c0-14.336 11.264-25.6 25.6-25.6z" fill="#7ED321" /><path d="M488.96 192v76.8H465.92c-9.728 0-17.92 8.192-17.92 17.92v112.64c0 9.728 8.192 17.92 17.92 17.92h23.04v53.248h-240.64V417.28c0-124.416 100.864-225.28 225.28-225.28h15.36z m-225.28 225.28v37.888h209.92v-22.528H465.92c-18.432 0-33.28-14.848-33.28-33.28V286.72c0-18.432 14.848-33.28 33.28-33.28h7.68v-46.08c-115.712 0-209.92 94.208-209.92 209.92z m286.72-163.84h7.68c18.432 0 33.28 14.848 33.28 33.28v112.64c0 18.432-14.848 33.28-33.28 33.28h-7.68v22.528h209.92v-37.888c0-115.712-94.208-209.92-209.92-209.92v46.08z m0-61.44c124.416 0 225.28 100.864 225.28 225.28v53.248h-240.64V417.28h23.04c9.728 0 17.92-8.192 17.92-17.92V286.72c0-9.728-8.192-17.92-17.92-17.92h-23.04v-76.8h15.36z" fill="" /><path d="M491.52 299.52c-9.728 0-17.92 8.192-17.92 17.92v51.2c0 9.728 8.192 17.92 17.92 17.92h40.96c9.728 0 17.92-8.192 17.92-17.92V317.44c0-9.728-8.192-17.92-17.92-17.92h-40.96z m0-15.36h40.96c18.432 0 33.28 14.848 33.28 33.28v51.2c0 18.432-14.848 33.28-33.28 33.28h-40.96c-18.432 0-33.28-14.848-33.28-33.28V317.44c0-18.432 14.848-33.28 33.28-33.28z" fill="" /><path d="M391.68 79.36c0 24.064 9.728 42.496 28.672 54.272 7.68 4.608 15.36 7.68 24.576 10.24 5.12 1.536 8.192 2.048 17.92 3.584 13.312 2.56 18.432 4.096 22.528 7.168 12.288 9.216 16.384 19.968 13.824 34.816-1.536 8.192 4.096 16.384 12.8 17.92 8.192 1.536 16.384-4.096 17.92-12.8 4.096-26.112-4.608-48.128-25.6-64.512-9.216-7.168-17.92-9.728-35.84-12.8-8.704-1.536-11.264-2.048-15.36-3.072-6.656-1.536-11.776-3.584-15.872-6.656-9.216-5.632-13.824-14.848-13.824-28.672 0-8.704-7.168-15.36-15.36-15.36-9.728 0.512-16.384 7.68-16.384 15.872z" fill="#7ED321" /></svg>