<?xml version="1.0" encoding="UTF-8" standalone="no"?>
<svg
   xmlns:dc="http://purl.org/dc/elements/1.1/"
   xmlns:cc="http://creativecommons.org/ns#"
   xmlns:rdf="http://www.w3.org/1999/02/22-rdf-syntax-ns#"
   xmlns:svg="http://www.w3.org/2000/svg"
   xmlns="http://www.w3.org/2000/svg"
   xmlns:sodipodi="http://sodipodi.sourceforge.net/DTD/sodipodi-0.dtd"
   xmlns:inkscape="http://www.inkscape.org/namespaces/inkscape"
   fill="#000000"
   width="800px"
   height="800px"
   viewBox="0 0 96 96"
   id="Layer_1_1_"
   version="1.1"
   xml:space="preserve"
   sodipodi:docname="outdoor.svg"
   inkscape:version="1.0.1 (3bc2e813f5, 2020-09-07)"
   inkscape:export-filename="C:\Users\keega\Documents\cannlytics\cannlytics\app\assets\images\icons\outdoor.png"
   inkscape:export-xdpi="96"
   inkscape:export-ydpi="96"><metadata
     id="metadata57"><rdf:RDF><cc:Work
         rdf:about=""><dc:format>image/svg+xml</dc:format><dc:type
           rdf:resource="http://purl.org/dc/dcmitype/StillImage" /></cc:Work></rdf:RDF></metadata><defs
     id="defs55" /><sodipodi:namedview
     pagecolor="#ffffff"
     bordercolor="#666666"
     borderopacity="1"
     objecttolerance="10"
     gridtolerance="10"
     guidetolerance="10"
     inkscape:pageopacity="0"
     inkscape:pageshadow="2"
     inkscape:window-width="1920"
     inkscape:window-height="1094"
     id="namedview53"
     showgrid="false"
     inkscape:zoom="0.66556426"
     inkscape:cx="225.23137"
     inkscape:cy="378.7041"
     inkscape:window-x="-11"
     inkscape:window-y="-11"
     inkscape:window-maximized="1"
     inkscape:current-layer="Layer_1_1_" /><circle
     cx="70"
     cy="13"
     r="6"
     id="circle2"
     style="fill-opacity:1;fill:#f57c00" /><rect
     height="3"
     width="2"
     x="69"
     y="2"
     id="rect4"
     style="fill-opacity:1;fill:#f57c00" /><rect
     height="3"
     width="2"
     x="69"
     y="21"
     id="rect6"
     style="fill-opacity:1;fill:#f57c00" /><rect
     height="2"
     width="3"
     x="78"
     y="12"
     id="rect8"
     style="fill-opacity:1;fill:#f57c00" /><rect
     height="2"
     width="3"
     x="59"
     y="12"
     id="rect10"
     style="fill-opacity:1;fill:#f57c00" /><rect
     height="2"
     transform="matrix(0.7071 -0.7071 0.7071 0.7071 18.0277 56.0877)"
     width="3"
     x="75.218"
     y="5.283"
     id="rect12"
     style="fill-opacity:1;fill:#f57c00" /><rect
     height="2"
     transform="matrix(0.7071 -0.7071 0.7071 0.7071 4.5925 50.5224)"
     width="3"
     x="61.782"
     y="18.718"
     id="rect14"
     style="fill-opacity:1;fill:#f57c00" /><rect
     height="3"
     transform="matrix(0.7072 -0.707 0.707 0.7072 8.5231 60.0149)"
     width="2"
     x="75.718"
     y="18.218"
     id="rect16"
     style="fill-opacity:1;fill:#f57c00" /><rect
     height="3"
     transform="matrix(0.7072 -0.707 0.707 0.7072 14.0879 46.5817)"
     width="2"
     x="62.282"
     y="4.782"
     id="rect18"
     style="fill-opacity:1;fill:#f57c00" /><path
     d="M83.8,60c-2.07,0-3.8,1.68-3.8,3.74c0,0.05,0.042,15.619,0.056,20.683l3.201-1.28c0.3-0.119,0.624-0.163,0.942-0.133  l2.794,0.279L88,77l4.38-5.5c0.83-0.83,0.83-2.17,0-3c-0.42-0.42-0.96-0.62-1.5-0.62s-1.08,0.2-1.5,0.62l-2.5,2.5l0.66-6.94  C87.72,61.88,86,60,83.8,60z M85.879,76h-2v-3h2V76z"
     id="path20"
     style="fill-opacity:1;fill:#999999" /><path
     d="M17,29.91c-2.837-0.477-5-2.938-5-5.91c2.972,0,5.433,2.163,5.91,5h0.18c0.477-2.837,2.938-5,5.91-5  c0,2.972-2.163,5.433-5,5.91V36h15v-6.09c-2.837-0.477-5-2.938-5-5.91c2.972,0,5.433,2.163,5.91,5h0.18c0.477-2.837,2.938-5,5.91-5  c0,2.972-2.163,5.433-5,5.91V36h14v0c0-13.255-10.745-24-24-24S2,22.745,2,36v0h15V29.91z"
     id="path22"
     style="fill-opacity:1;fill:#999999" /><path
     d="M70,32c-13.255,0-24,10.745-24,24v0h15v-6.09c-2.837-0.477-5-2.938-5-5.91c2.972,0,5.433,2.163,5.91,5h0.18  c0.477-2.837,2.938-5,5.91-5c0,2.972-2.163,5.433-5,5.91V56h15v-6.09c-2.837-0.477-5-2.938-5-5.91c2.972,0,5.433,2.163,5.91,5h0.18  c0.477-2.837,2.938-5,5.91-5c0,2.972-2.163,5.433-5,5.91V56h14v0C94,42.745,83.255,32,70,32z"
     id="path24"
     style="fill-opacity:1;fill:#999999" /><path
     d="M33,64C16.431,64,3,77.431,3,94v0h12v-6.09c-2.837-0.477-5-2.938-5-5.91c2.972,0,5.433,2.163,5.91,5h0.18  c0.477-2.837,2.938-5,5.91-5c0,2.972-2.163,5.433-5,5.91V94h15v-6.09c-2.837-0.477-5-2.938-5-5.91c2.972,0,5.433,2.163,5.91,5h0.18  c0.477-2.837,2.938-5,5.91-5c0,2.972-2.163,5.433-5,5.91V94h15v-6.09c-2.837-0.477-5-2.938-5-5.91c2.972,0,5.433,2.163,5.91,5h0.18  c0.477-2.837,2.938-5,5.91-5c0,2.972-2.163,5.433-5,5.91V94h12v0C63,77.431,49.569,64,33,64z"
     id="path26"
     style="fill-opacity:1;fill:#999999" /><path
     d="M79,87l-3,2l-6,2l0.086,2.896L93.963,94L94,86l-10-1L79,87z M82,91h-2v-2h2V91z M88,89h2v2h-2V89z"
     id="path28"
     style="fill-opacity:1;fill:#999999" /><rect
     height="2"
     width="2"
     x="65"
     y="71"
     id="rect30"
     style="fill-opacity:1;fill:#f57c00" /><rect
     height="2"
     width="2"
     x="72"
     y="77"
     id="rect32"
     style="fill-opacity:1;fill:#f57c00" /><rect
     height="2"
     width="2"
     x="72"
     y="65"
     id="rect34"
     style="fill-opacity:1;fill:#f57c00" /><rect
     height="2"
     width="2"
     x="56"
     y="64"
     id="rect36"
     style="fill-opacity:1;fill:#f57c00" /><rect
     height="2"
     width="2"
     x="6"
     y="41"
     id="rect38"
     style="fill-opacity:1;fill:#f57c00" /><rect
     height="2"
     width="2"
     x="12"
     y="49"
     id="rect40"
     style="fill-opacity:1;fill:#f57c00" /><rect
     height="2"
     width="2"
     x="28"
     y="44"
     id="rect42"
     style="fill-opacity:1;fill:#f57c00" /><rect
     height="2"
     width="2"
     x="21"
     y="55"
     id="rect44"
     style="fill-opacity:1;fill:#f57c00" /><rect
     height="2"
     width="2"
     x="39"
     y="48"
     id="rect46"
     style="fill-opacity:1;fill:#f57c00" /><rect
     height="2"
     width="2"
     x="6"
     y="61"
     id="rect48"
     style="fill-opacity:1;fill:#f57c00" /><rect
     height="2"
     width="2"
     x="35"
     y="56"
     id="rect50"
     style="fill-opacity:1;fill:#f57c00" /></svg>
