<?xml version="1.0" encoding="UTF-8" standalone="no"?>
<svg
   xmlns:dc="http://purl.org/dc/elements/1.1/"
   xmlns:cc="http://creativecommons.org/ns#"
   xmlns:rdf="http://www.w3.org/1999/02/22-rdf-syntax-ns#"
   xmlns:svg="http://www.w3.org/2000/svg"
   xmlns="http://www.w3.org/2000/svg"
   xmlns:sodipodi="http://sodipodi.sourceforge.net/DTD/sodipodi-0.dtd"
   xmlns:inkscape="http://www.inkscape.org/namespaces/inkscape"
   width="800px"
   height="800px"
   viewBox="0 0 64 64"
   version="1.1"
   id="svg37"
   sodipodi:docname="packages.svg"
   inkscape:export-filename="C:\Users\keega\Documents\cannlytics\cannlytics\app\assets\images\icons\packages.png"
   inkscape:export-xdpi="96"
   inkscape:export-ydpi="96"
   inkscape:version="1.0.1 (3bc2e813f5, 2020-09-07)">
  <metadata
     id="metadata41">
    <rdf:RDF>
      <cc:Work
         rdf:about="">
        <dc:format>image/svg+xml</dc:format>
        <dc:type
           rdf:resource="http://purl.org/dc/dcmitype/StillImage" />
      </cc:Work>
    </rdf:RDF>
  </metadata>
  <sodipodi:namedview
     pagecolor="#ffffff"
     bordercolor="#666666"
     borderopacity="1"
     objecttolerance="10"
     gridtolerance="10"
     guidetolerance="10"
     inkscape:pageopacity="0"
     inkscape:pageshadow="2"
     inkscape:window-width="1920"
     inkscape:window-height="1094"
     id="namedview39"
     showgrid="false"
     inkscape:zoom="0.94125"
     inkscape:cx="400"
     inkscape:cy="400"
     inkscape:window-x="-11"
     inkscape:window-y="-11"
     inkscape:window-maximized="1"
     inkscape:current-layer="svg37" />
  <defs
     id="defs4">
    <style
       id="style2">.cls-1{fill:#f57c00;}.cls-2{fill:#999;}.cls-3{fill:#666;}</style>
  </defs>
  <title
     id="title6" />
  <g
     data-name="outline color"
     id="outline_color">
    <path
       class="cls-1"
       d="M59,60H33a1,1,0,0,1-1-1V38a1,1,0,0,1,1-1H59a1,1,0,0,1,1,1V59A1,1,0,0,1,59,60ZM34,58H58V39H34Z"
       id="path8" />
    <path
       class="cls-1"
       d="M45,49a1,1,0,0,1-.71-.29,1,1,0,0,1,0-1.42L45.59,46l-1.3-1.3a1,1,0,0,1,0-1.41L45.58,42l-1.29-1.29A1.05,1.05,0,0,1,44,40a1,1,0,0,1,.29-.71l2-2a1,1,0,0,1,1.42,1.42L46.42,40l1.29,1.29A1,1,0,0,1,48,42a1,1,0,0,1-.29.7L46.41,44l1.3,1.29a1,1,0,0,1,0,1.41l-2,2A1,1,0,0,1,45,49Z"
       id="path10" />
    <path
       class="cls-1"
       d="M46,56a3,3,0,0,1-2.81-4.16l.51-1.28a2.48,2.48,0,0,1,4.6,0l.51,1.28A3,3,0,0,1,46,56Zm0-5a.47.47,0,0,0-.44.3L45,52.59a1,1,0,0,0,.11,1,1.06,1.06,0,0,0,1.7,0,1,1,0,0,0,.11-1l-.52-1.29A.47.47,0,0,0,46,51Z"
       id="path12" />
    <path
       class="cls-1"
       d="M59,39H33a1,1,0,0,1-.94-.66,1,1,0,0,1,.3-1.11l6-5A1,1,0,0,1,39,32H53a1,1,0,0,1,.64.23l6,5a1,1,0,0,1,.3,1.11A1,1,0,0,1,59,39ZM35.76,37H56.24l-3.6-3H39.36Z"
       id="path14" />
    <path
       class="cls-1"
       d="M46,38a1,1,0,0,1-1-1V33a1,1,0,0,1,2,0v4A1,1,0,0,1,46,38Z"
       id="path16" />
    <path
       class="cls-2"
       d="M21.78,55.09a5,5,0,0,1-4.58-3L4.56,23.83a5,5,0,0,1,2.52-6.6l20.17-9A1,1,0,0,1,28.07,10l-20.17,9a3,3,0,0,0-1.52,4L19,51.32a3,3,0,0,0,4,1.52l5.6-2.5a1,1,0,0,1,.82,1.82l-5.6,2.5A4.88,4.88,0,0,1,21.78,55.09Z"
       id="path18" />
    <path
       class="cls-3"
       d="M16.74,22.68a1,1,0,0,1-.92-.6,1,1,0,0,1,.51-1.32l8.21-3.67a1,1,0,1,1,.82,1.83l-8.22,3.67A1,1,0,0,1,16.74,22.68Z"
       id="path20" />
    <path
       class="cls-3"
       d="M16.44,29.38A1,1,0,0,1,16,27.47l6.78-3a1,1,0,0,1,.82,1.82l-6.78,3A1,1,0,0,1,16.44,29.38Z"
       id="path22" />
    <path
       class="cls-3"
       d="M18.89,34.85a1,1,0,0,1-.41-1.91l2.29-1a1,1,0,0,1,.82,1.82l-2.29,1A1,1,0,0,1,18.89,34.85Z"
       id="path24" />
    <path
       class="cls-2"
       d="M29,45.49a.75.75,0,0,1-.26,0L22.35,43.7a5,5,0,0,1-3.51-6.13L27,7.67a5,5,0,0,1,6.14-3.51L56.31,10.5a4.9,4.9,0,0,1,3,2.33,5,5,0,0,1,.49,3.8L56.18,29.9a1,1,0,0,1-1.22.7,1,1,0,0,1-.71-1.22L57.9,16.11a3,3,0,0,0-.29-2.28,2.94,2.94,0,0,0-1.82-1.4L32.65,6.08A3,3,0,0,0,29,8.2L20.77,38.09a3,3,0,0,0,2.1,3.69l6.39,1.75a1,1,0,0,1,.7,1.22A1,1,0,0,1,29,45.49Z"
       id="path26" />
    <path
       class="cls-3"
       d="M47.46,17.36a1.24,1.24,0,0,1-.27,0L38.51,15a1,1,0,0,1-.7-1.23A1,1,0,0,1,39,13l8.68,2.38a1,1,0,0,1-.26,2Z"
       id="path28" />
    <path
       class="cls-3"
       d="M48.77,23.94a1.24,1.24,0,0,1-.27,0L34,20A1,1,0,1,1,34.56,18L49,22a1,1,0,0,1-.26,2Z"
       id="path30" />
    <path
       class="cls-3"
       d="M47.18,29.73a.75.75,0,0,1-.26,0l-14.47-4A1,1,0,1,1,33,23.81l14.46,4A1,1,0,0,1,48.15,29,1,1,0,0,1,47.18,29.73Z"
       id="path32" />
    <path
       class="cls-3"
       d="M34.55,32.5a.75.75,0,0,1-.26,0l-3.42-.94a1,1,0,1,1,.52-1.92l3.42.94a1,1,0,0,1-.26,2Z"
       id="path34" />
  </g>
</svg>
