<?xml version="1.0" ?><!-- Uploaded to: SVG Repo, www.svgrepo.com, Generator: SVG Repo Mixer Tools -->
<svg width="800px" height="800px" viewBox="0 0 2050 2050" data-name="Layer 3" id="Layer_3" xmlns="http://www.w3.org/2000/svg"><defs><style>.cls-1{fill:#1682fc;}.cls-2{fill:#2e3a58;}.cls-3{fill:#e0e1e2;}</style></defs><title/><path class="cls-1" d="M984.5,1651.2a244.1,244.1,0,0,1-244-244.1v-27.6a15,15,0,0,1,15-15h45a15,15,0,0,1,15,15v27.6c0,93.2,75.8,169.1,169,169.1s169.1-75.9,169.1-169.1V846.2c0-105.9,86.2-192.1,192.1-192.1s192.2,86.2,192.2,192.1v71.7a15,15,0,0,1-15,15h-45a15,15,0,0,1-15-15V846.2c0-64.6-52.6-117.1-117.2-117.1a117.2,117.2,0,0,0-117.1,117.1v560.9a244.1,244.1,0,0,1-244.1,244.1Zm-214-256.7v12.6a214.1,214.1,0,1,0,428.1,0V846.2c0-81.1,66-147.1,147.1-147.1s147.2,66,147.2,147.1v56.7h15V846.2c0-89.4-72.8-162.1-162.2-162.1s-162.1,72.7-162.1,162.1v560.9c0,109.8-89.3,199.1-199.1,199.1s-199-89.3-199-199.1v-12.6Z"/><path class="cls-1" d="M777.7,1266.4l-10.4-.2a5.1,5.1,0,0,1-4.8-5.2,5,5,0,0,1,5.2-4.8l10,.2a263.2,263.2,0,0,0,48.6-4.6,5,5,0,1,1,1.8,9.8A265.7,265.7,0,0,1,777.7,1266.4Zm-69.4-9.2-1.3-.2a274.1,274.1,0,0,1-56.6-22.6,5,5,0,0,1-2.1-6.8,4.9,4.9,0,0,1,6.8-2,254.8,254.8,0,0,0,54.6,21.7,5,5,0,0,1-1.4,9.9Zm176-13.3a4.9,4.9,0,0,1-4.5-3,5,5,0,0,1,2.5-6.6,257.1,257.1,0,0,0,50.6-29.7,5.1,5.1,0,0,1,7,1,4.9,4.9,0,0,1-1,7,271.9,271.9,0,0,1-52.5,30.9A5.2,5.2,0,0,1,884.3,1243.9Zm-280.7-43.1a4.8,4.8,0,0,1-3.3-1.3,266.8,266.8,0,0,1-41-45.2,4.9,4.9,0,0,1,1.2-6.9,5,5,0,0,1,7,1.1,258.3,258.3,0,0,0,39.4,43.5,5.1,5.1,0,0,1,.5,7.1A5.2,5.2,0,0,1,603.6,1200.8Zm375.8-28.3a5,5,0,0,1-3.8-8.2,259.8,259.8,0,0,0,32.5-48.9,5,5,0,1,1,8.9,4.5,268.3,268.3,0,0,1-33.7,50.8A5,5,0,0,1,979.4,1172.5Zm-445.2-68.3a5.1,5.1,0,0,1-4.6-3.1,271.1,271.1,0,0,1-16.9-58.6,4.9,4.9,0,0,1,4.1-5.7,4.8,4.8,0,0,1,5.7,4.1,263.8,263.8,0,0,0,16.3,56.4,4.9,4.9,0,0,1-2.7,6.5A4.1,4.1,0,0,1,534.2,1104.2Zm499.4-37.6-1.2-.2a5,5,0,0,1-3.7-6,259.5,259.5,0,0,0,7.7-58.2,5,5,0,0,1,5.1-5,5.2,5.2,0,0,1,4.9,5.1,272.6,272.6,0,0,1-7.9,60.5A5.1,5.1,0,0,1,1033.6,1066.6ZM514,986.9a5,5,0,0,1-5-5v-60a5,5,0,0,1,5-5,5,5,0,0,1,5,5v60A5,5,0,0,1,514,986.9Zm527.4-39.7a5,5,0,0,1-5-5v-60a5,5,0,0,1,10,0v60A5,5,0,0,1,1041.4,947.2Z"/><path class="cls-2" d="M537.2,897.2h-45a15,15,0,0,1-15-15V593.5A107.8,107.8,0,0,1,584.9,485.9a15,15,0,0,1,15,15v45a15,15,0,0,1-15,15,32.7,32.7,0,0,0-32.7,32.6V882.2A15,15,0,0,1,537.2,897.2Zm-30-30h15V593.5a62.9,62.9,0,0,1,47.7-60.8V517.4a77.8,77.8,0,0,0-62.7,76.1Z"/><path class="cls-2" d="M1063.7,897.2h-45a15,15,0,0,1-15-15V593.5a32.6,32.6,0,0,0-32.6-32.6,15,15,0,0,1-15-15v-45a15,15,0,0,1,15-15,107.7,107.7,0,0,1,107.6,107.6V882.2A15,15,0,0,1,1063.7,897.2Zm-30-30h15V593.5a77.7,77.7,0,0,0-62.6-76.1v15.3a62.8,62.8,0,0,1,47.6,60.8Z"/><path class="cls-2" d="M835.3,1394.5H720.7a15,15,0,0,1-15-15v-75A319.8,319.8,0,0,1,458.4,993V882.2a15,15,0,0,1,15-15h80a15.1,15.1,0,0,1,15,15V993a209.6,209.6,0,1,0,419.2,0V882.2a15.1,15.1,0,0,1,15-15h80a15,15,0,0,1,15,15V993a319.8,319.8,0,0,1-247.3,311.5v75A15,15,0,0,1,835.3,1394.5Zm-99.6-30h84.6v-72.2a14.9,14.9,0,0,1,12.2-14.7A289.9,289.9,0,0,0,1067.6,993V897.2h-50V993a239.6,239.6,0,1,1-479.2,0V897.2h-50V993a289.9,289.9,0,0,0,235.1,284.6,14.9,14.9,0,0,1,12.2,14.7Z"/><path class="cls-3" d="M1579,940.1A129.9,129.9,0,0,1,1398.1,1121,129.9,129.9,0,1,0,1579,940.1Z"/><path class="cls-2" d="M1504.6,1191.5c-79.8,0-144.8-65-144.8-144.9s65-144.9,144.8-144.9,144.9,65,144.9,144.9S1584.5,1191.5,1504.6,1191.5Zm0-259.8c-63.3,0-114.8,51.6-114.8,114.9s51.5,114.9,114.8,114.9a114.9,114.9,0,1,0,0-229.8Z"/><polygon class="cls-1" points="1526.8 1024.5 1526.8 980.2 1482.5 980.2 1482.5 1024.5 1438.2 1024.5 1438.2 1068.8 1482.5 1068.8 1482.5 1113 1526.8 1113 1526.8 1068.8 1571.1 1068.8 1571.1 1024.5 1526.8 1024.5"/><path class="cls-1" d="M627.5,617.8a57.6,57.6,0,0,1-57.6-57.6V486.6a57.7,57.7,0,0,1,115.3,0v73.6A57.7,57.7,0,0,1,627.5,617.8Zm0-158.8a27.7,27.7,0,0,0-27.6,27.6v73.6a27.7,27.7,0,0,0,55.3,0V486.6A27.7,27.7,0,0,0,627.5,459Z"/><path class="cls-1" d="M928.5,617.8a57.7,57.7,0,0,1-57.7-57.6V486.6a57.7,57.7,0,0,1,115.3,0v73.6A57.6,57.6,0,0,1,928.5,617.8Zm0-158.8a27.7,27.7,0,0,0-27.7,27.6v73.6a27.7,27.7,0,0,0,55.3,0V486.6A27.7,27.7,0,0,0,928.5,459Z"/></svg>