<?xml version="1.0" ?>
<!-- Uploaded to: SVG Repo, www.svgrepo.com, Generator: SVG Repo Mixer Tools -->
<svg width="800px" height="800px" viewBox="0 0 113.4 113.4" id="Capa_1" version="1.1" xml:space="preserve" xmlns="http://www.w3.org/2000/svg" xmlns:xlink="http://www.w3.org/1999/xlink">
<style type="text/css">
	.st0{fill:#FFFFFF;stroke:#000000;stroke-linecap:round;stroke-linejoin:round;stroke-miterlimit:10;}
	.st1{fill:#B67F6F;stroke:#000000;stroke-linecap:round;stroke-linejoin:round;stroke-miterlimit:10;}
	.st2{fill:#EEBFB2;stroke:#000000;stroke-linecap:round;stroke-linejoin:round;stroke-miterlimit:10;}
	.st3{fill:none;stroke:#000000;stroke-linecap:round;stroke-linejoin:round;stroke-miterlimit:10;}
</style>
<g>
<g>
<rect class="st1" height="3.8" transform="matrix(-1.836970e-16 1 -1 -1.836970e-16 104.87 -20.4975)" width="18.8" x="53.3" y="40.3"/>
<rect class="st1" height="3.8" width="18.8" x="37" y="24.6"/>
<rect class="st1" height="3.8" transform="matrix(-1.836970e-16 1 -1 -1.836970e-16 153.9185 4.8111)" width="18.8" x="65.2" y="77.5"/>
<path class="st2" d="M67.1,72c-7.9,0-14.3-6.4-14.3-14.3V51c0-0.8,0.7-1.5,1.5-1.5h4.9c0.8,0,1.5-0.7,1.5-1.5V36.4    c0-0.8-0.7-1.5-1.5-1.5h-4.9c-0.8,0-1.5-0.7-1.5-1.5v-3.5c0-0.8-0.7-1.5-1.5-1.5H40.3c-0.8,0-1.5,0.7-1.5,1.5v27.8    c0,15.7,12.7,28.3,28.3,28.3h4c0.8,0,1.5-0.7,1.5-1.5V73.5c0-0.8-0.7-1.5-1.5-1.5H67.1z"/>
</g>
<line class="st2" x1="41.6" x2="41.6" y1="31.9" y2="55.5"/>
</g>
</svg>