<?xml version="1.0" encoding="UTF-8" standalone="no"?>
<svg
   xmlns:dc="http://purl.org/dc/elements/1.1/"
   xmlns:cc="http://creativecommons.org/ns#"
   xmlns:rdf="http://www.w3.org/1999/02/22-rdf-syntax-ns#"
   xmlns:svg="http://www.w3.org/2000/svg"
   xmlns="http://www.w3.org/2000/svg"
   xmlns:sodipodi="http://sodipodi.sourceforge.net/DTD/sodipodi-0.dtd"
   xmlns:inkscape="http://www.inkscape.org/namespaces/inkscape"
   fill="#000000"
   width="800px"
   height="800px"
   viewBox="0 0 96 96"
   id="Layer_1_1_"
   version="1.1"
   xml:space="preserve"
   sodipodi:docname="plant-data.svg"
   inkscape:version="1.0.1 (3bc2e813f5, 2020-09-07)"
   inkscape:export-filename="C:\Users\keega\Documents\cannlytics\cannlytics\app\assets\images\icons\plant-data.png"
   inkscape:export-xdpi="96"
   inkscape:export-ydpi="96"><metadata
     id="metadata31"><rdf:RDF><cc:Work
         rdf:about=""><dc:format>image/svg+xml</dc:format><dc:type
           rdf:resource="http://purl.org/dc/dcmitype/StillImage" /></cc:Work></rdf:RDF></metadata><defs
     id="defs29" /><sodipodi:namedview
     pagecolor="#ffffff"
     bordercolor="#666666"
     borderopacity="1"
     objecttolerance="10"
     gridtolerance="10"
     guidetolerance="10"
     inkscape:pageopacity="0"
     inkscape:pageshadow="2"
     inkscape:window-width="1920"
     inkscape:window-height="1094"
     id="namedview27"
     showgrid="false"
     inkscape:zoom="0.66556426"
     inkscape:cx="111.74227"
     inkscape:cy="442.72629"
     inkscape:window-x="-11"
     inkscape:window-y="-11"
     inkscape:window-maximized="1"
     inkscape:current-layer="Layer_1_1_" /><rect
     height="2"
     width="2"
     x="18"
     y="84"
     id="rect2"
     style="fill:#f57c00;fill-opacity:1" /><rect
     height="2"
     width="2"
     x="6"
     y="82"
     id="rect4"
     style="fill:#f57c00;fill-opacity:1" /><rect
     height="2"
     width="2"
     x="30"
     y="79"
     id="rect6"
     style="fill:#f57c00;fill-opacity:1" /><rect
     height="2"
     width="2"
     x="63"
     y="79"
     id="rect8"
     style="fill:#f57c00;fill-opacity:1" /><rect
     height="2"
     width="2"
     x="78"
     y="81"
     id="rect10"
     style="fill:#f57c00;fill-opacity:1" /><path
     d="m 93.999994,91 -18.73899,-1.972 -2.707,1.805 c -0.035,0.023 -0.07,0.044 -0.107,0.062 l -2.00001,1 -0.89499,-1.789 1.944,-0.972 1.616,-1.077 -4.112,-2.057 h -6.586 l -3.707,3.707 c -0.187,0.188 -0.442,0.293 -0.70701,0.293 h -1.99999 v -2 h 1.58599 l 3.07301,-3.073 -3.659,-2.927 h -7 v -8.025 c 17.209,-0.53 31,-14.637 31,-31.975 v 0 c -17.338,0 -31.445,13.791 -31.975,31 h -1.051 C 47.445004,55.791 33.338005,42 16.000005,42 v 0 c 0,17.338 13.791,31.445 30.999999,31.975 V 82 h -7.999999 l -3.499,2.799 2.053,1.369 c 0.145,0.097 0.262,0.229 0.34,0.385 l 0.724,1.447 h 3.382 v 2 h -4 c -0.379,0 -0.725,-0.214 -0.895,-0.553 l -0.881,-1.763 -2.527,-1.684 h -6.697 l -5.091,2.182 2.691,2.018 -1.2,1.6 -3.69,-2.768 L 2.0000055,91 l -0.03,3 H 93.999994 Z m -16.707,-46.707 1.41401,1.414 -25.00001,25 -1.41399,-1.414 z m -32.98399,26.43 -22.999999,-22 1.383,-1.445 22.999999,22 z"
     id="path14-2"
     style="fill:#7ed321;fill-opacity:1;stroke-width:1" /><rect
     height="2"
     width="2"
     x="86"
     y="85"
     id="rect12"
     style="fill:#f57c00;fill-opacity:1" /><path
     d="M33,11.899V19c0,0.315,0.148,0.611,0.4,0.8l7.6,5.7V48h2V25c0-0.315-0.148-0.611-0.4-0.8L35,18.5v-6.601  c2.282-0.463,4-2.48,4-4.899c0-2.761-2.239-5-5-5s-5,2.239-5,5C29,9.419,30.718,11.436,33,11.899z M34,6c0.552,0,1,0.448,1,1  c0,0.552-0.448,1-1,1s-1-0.448-1-1C33,6.448,33.448,6,34,6z"
     id="path16"
     style="fill:#999999;fill-opacity:1" /><path
     d="M56,24.535l5.555-3.703C61.833,20.646,62,20.334,62,20v-8.101c2.282-0.463,4-2.48,4-4.899c0-2.761-2.239-5-5-5s-5,2.239-5,5  c0,2.419,1.718,4.436,4,4.899v7.566l-5.555,3.703C54.167,23.354,54,23.666,54,24v24h2V24.535z M61,6c0.552,0,1,0.448,1,1  c0,0.552-0.448,1-1,1s-1-0.448-1-1C60,6.448,60.448,6,61,6z"
     id="path18"
     style="fill:#999999;fill-opacity:1" /><path
     d="M70,24.899V29h-8c-0.552,0-1,0.448-1,1v12h2V31h8c0.552,0,1-0.448,1-1v-5.101c2.282-0.463,4-2.48,4-4.899  c0-2.761-2.239-5-5-5s-5,2.239-5,5C66,22.419,67.718,24.436,70,24.899z M71,19c0.552,0,1,0.448,1,1c0,0.552-0.448,1-1,1  s-1-0.448-1-1C70,19.448,70.448,19,71,19z"
     id="path20"
     style="fill:#999999;fill-opacity:1" /><path
     d="M24,23.899V30c0,0.552,0.448,1,1,1h8v10h2V30c0-0.552-0.448-1-1-1h-8v-5.101c2.282-0.463,4-2.48,4-4.899  c0-2.761-2.239-5-5-5s-5,2.239-5,5C20,21.419,21.718,23.436,24,23.899z M25,18c0.552,0,1,0.448,1,1c0,0.552-0.448,1-1,1  s-1-0.448-1-1C24,18.448,24.448,18,25,18z"
     id="path22"
     style="fill:#999999;fill-opacity:1" /><path
     d="M47.5,20.899V51h2V20.899c2.282-0.463,4-2.48,4-4.899c0-2.761-2.239-5-5-5s-5,2.239-5,5  C43.5,18.419,45.218,20.436,47.5,20.899z M48.5,15c0.552,0,1,0.448,1,1c0,0.552-0.448,1-1,1s-1-0.448-1-1  C47.5,15.448,47.948,15,48.5,15z"
     id="path24"
     style="fill:#999999;fill-opacity:1" /><path
     d="M 93.999999,91 75.261,89.028 72.554,90.833 c -0.035,0.023 -0.07,0.044 -0.107,0.062 l -2.000001,1 L 69.552,90.106 71.496,89.134 73.112,88.057 69,86 h -6.586 l -3.707,3.707 C 58.52,89.895 58.265,90 57.999999,90 H 56 v -2 h 1.585999 L 60.659,84.927 57,82 h -7 -3 -8 l -3.499,2.799 2.053,1.369 c 0.145,0.097 0.262,0.229 0.34,0.385 L 38.618,88 H 42 v 2 h -4 c -0.379,0 -0.725,-0.214 -0.895,-0.553 L 36.224,87.684 33.697,86 H 27 L 21.909,88.182 24.6,90.2 23.4,91.8 19.71,89.032 2.0000002,91 l -0.03,3 H 93.999999 Z"
     id="path14-4"
     style="fill:#999999;fill-opacity:1;stroke-width:1"
     sodipodi:nodetypes="cccccccccccsccccccccccccccscccccccccccc" /><path
     d="m 24,23.899 h 2 c 2.282,-0.463 4,-2.48 4,-4.899 0,-2.761 -2.239,-5 -5,-5 -2.761,0 -5,2.239 -5,5 0,2.419 1.718,4.436 4,4.899 z M 25,18 c 0.552,0 1,0.448 1,1 0,0.552 -0.448,1 -1,1 -0.552,0 -1,-0.448 -1,-1 0,-0.552 0.448,-1 1,-1 z"
     id="path22-6"
     style="fill:#f57c00;fill-opacity:1;stroke-width:1"
     sodipodi:nodetypes="ccssscsssss" /><path
     d="m 33,11.899 h 2 C 37.282,11.436 39,9.4190004 39,7 39,4.239 36.761,2 34,2 c -2.761,0 -5,2.239 -5,5 0,2.4190004 1.718,4.436 4,4.899 z M 34,6 c 0.552,0 1,0.448 1,1 0,0.5519999 -0.448,1 -1,1 -0.552,0 -1,-0.4480001 -1,-1 0,-0.552 0.448,-1 1,-1 z"
     id="path22-6-3"
     style="fill:#f57c00;fill-opacity:1;stroke-width:1"
     sodipodi:nodetypes="ccssscsssss" /><path
     d="m 47.5,20.899 h 2 c 2.282,-0.463 4,-2.48 4,-4.899 0,-2.761 -2.239,-5 -5,-5 -2.761,0 -5,2.239 -5,5 0,2.419 1.718,4.436 4,4.899 z M 48.5,15 c 0.552,0 1,0.448 1,1 0,0.552 -0.448,1 -1,1 -0.552,0 -1,-0.448 -1,-1 0,-0.552 0.448,-1 1,-1 z"
     id="path22-6-33"
     style="fill:#f57c00;fill-opacity:1;stroke-width:1"
     sodipodi:nodetypes="ccssscsssss" /><path
     d="m 60,11.899 h 2 C 64.282,11.436 66,9.419 66,7 66,4.239 63.761,2 61,2 c -2.761,0 -5,2.239 -5,5 0,2.419 1.718,4.436 4,4.899 z M 61,6 c 0.552,0 1,0.448 1,1 0,0.5519999 -0.448,1 -1,1 -0.552,0 -1,-0.4480001 -1,-1 0,-0.552 0.448,-1 1,-1 z"
     id="path22-6-4"
     style="fill:#f57c00;fill-opacity:1;stroke-width:1"
     sodipodi:nodetypes="ccssscsssss" /><path
     d="m 70,24.899 h 2 c 2.282,-0.463 4,-2.48 4,-4.899 0,-2.761 -2.239,-5 -5,-5 -2.761,0 -5,2.239 -5,5 0,2.419 1.718,4.436 4,4.899 z M 71,19 c 0.552,0 1,0.448 1,1 0,0.552 -0.448,1 -1,1 -0.552,0 -1,-0.448 -1,-1 0,-0.552 0.448,-1 1,-1 z"
     id="path22-6-9"
     style="fill:#f57c00;fill-opacity:1;stroke-width:1"
     sodipodi:nodetypes="ccssscsssss" /></svg>
