<?xml version="1.0" encoding="UTF-8" standalone="no"?>
<svg
   xmlns:dc="http://purl.org/dc/elements/1.1/"
   xmlns:cc="http://creativecommons.org/ns#"
   xmlns:rdf="http://www.w3.org/1999/02/22-rdf-syntax-ns#"
   xmlns:svg="http://www.w3.org/2000/svg"
   xmlns="http://www.w3.org/2000/svg"
   xmlns:sodipodi="http://sodipodi.sourceforge.net/DTD/sodipodi-0.dtd"
   xmlns:inkscape="http://www.inkscape.org/namespaces/inkscape"
   fill="#000000"
   width="800px"
   height="800px"
   viewBox="0 0 96 96"
   id="Layer_1_1_"
   version="1.1"
   xml:space="preserve"
   sodipodi:docname="plant-batches.svg"
   inkscape:version="1.0.1 (3bc2e813f5, 2020-09-07)"
   inkscape:export-filename="C:\Users\keega\Documents\cannlytics\cannlytics\app\assets\images\icons\plant-batches.png"
   inkscape:export-xdpi="96"
   inkscape:export-ydpi="96"><metadata
     id="metadata17"><rdf:RDF><cc:Work
         rdf:about=""><dc:format>image/svg+xml</dc:format><dc:type
           rdf:resource="http://purl.org/dc/dcmitype/StillImage" /></cc:Work></rdf:RDF></metadata><defs
     id="defs15" /><sodipodi:namedview
     pagecolor="#ffffff"
     bordercolor="#666666"
     borderopacity="1"
     objecttolerance="10"
     gridtolerance="10"
     guidetolerance="10"
     inkscape:pageopacity="0"
     inkscape:pageshadow="2"
     inkscape:window-width="1920"
     inkscape:window-height="1094"
     id="namedview13"
     showgrid="false"
     inkscape:zoom="0.470625"
     inkscape:cx="78.829114"
     inkscape:cy="462.75044"
     inkscape:window-x="-11"
     inkscape:window-y="-11"
     inkscape:window-maximized="1"
     inkscape:current-layer="Layer_1_1_" /><rect
     height="2"
     transform="matrix(0.7071 -0.7071 0.7071 0.7071 -26.8173 56.2574)"
     width="12.728"
     x="48.136"
     y="59.5"
     id="rect2"
     style="fill:#999999;fill-opacity:1" /><rect
     height="12.728"
     transform="matrix(0.7071 -0.7071 0.7071 0.7071 -30.6249 47.065)"
     width="2"
     x="40.5"
     y="54.136"
     id="rect4"
     style="fill:#999999;fill-opacity:1" /><path
     d="M28,92c0,1.105,0.895,2,2,2h36c1.105,0,2-0.895,2-2v-9H28V92z M48,85c1.657,0,3,1.343,3,3s-1.343,3-3,3s-3-1.343-3-3  S46.343,85,48,85z"
     id="path6"
     style="fill:#f57c00;fill-opacity:1" /><path
     d="M23,15.899V23c0,0.441,0.29,0.831,0.713,0.958L33,26.744V37h-3c-1.105,0-2,0.895-2,2v4h40v-4c0-1.105-0.895-2-2-2h-3V26.744  l9.287-2.786C72.71,23.831,73,23.441,73,23v-7.101c2.282-0.463,4-2.48,4-4.899c0-2.761-2.239-5-5-5s-5,2.239-5,5  c0,2.419,1.718,4.436,4,4.899v6.357l-9.287,2.786C61.29,25.169,61,25.559,61,26v11H49V11.899c2.282-0.463,4-2.48,4-4.899  c0-2.761-2.239-5-5-5s-5,2.239-5,5c0,2.419,1.718,4.436,4,4.899V37H35V26c0-0.441-0.29-0.831-0.713-0.958L25,22.256v-6.357  c2.282-0.463,4-2.48,4-4.899c0-2.761-2.239-5-5-5s-5,2.239-5,5C19,13.419,20.718,15.436,23,15.899z M70,11c0-1.105,0.895-2,2-2  s2,0.895,2,2c0,1.105-0.895,2-2,2S70,12.105,70,11z M46,7c0-1.105,0.895-2,2-2s2,0.895,2,2c0,1.105-0.895,2-2,2S46,8.105,46,7z   M45,39h6v2h-6V39z M24,9c1.105,0,2,0.895,2,2c0,1.105-0.895,2-2,2s-2-0.895-2-2C22,9.895,22.895,9,24,9z"
     id="path8"
     style="fill:#f57c00;fill-opacity:1" /><path
     d="M8,40c2.419,0,4.436-1.718,4.899-4H17v26c0,0.552,0.447,1,1,1h10v7h-6c-0.553,0-1,0.448-1,1v12h-6.101  c-0.463-2.282-2.48-4-4.899-4c-2.761,0-5,2.239-5,5s2.239,5,5,5c2.419,0,4.436-1.718,4.899-4H22c0.553,0,1-0.448,1-1V72h5v9h40v-9h5  v12c0,0.552,0.447,1,1,1h7.101c0.463,2.282,2.48,4,4.899,4c2.761,0,5-2.239,5-5s-2.239-5-5-5c-2.419,0-4.436,1.718-4.899,4H75V71  c0-0.552-0.447-1-1-1h-6v-7h10c0.553,0,1-0.448,1-1V36h4.101c0.463,2.282,2.48,4,4.899,4c2.761,0,5-2.239,5-5s-2.239-5-5-5  c-2.419,0-4.436,1.718-4.899,4H78c-0.553,0-1,0.448-1,1v26h-9V45H28v16h-9V35c0-0.552-0.447-1-1-1h-5.101  c-0.463-2.282-2.48-4-4.899-4c-2.761,0-5,2.239-5,5S5.239,40,8,40z M10,86c-1.105,0-2-0.895-2-2c0-1.105,0.895-2,2-2s2,0.895,2,2  C12,85.105,11.105,86,10,86z M86,82c1.105,0,2,0.895,2,2c0,1.105-0.895,2-2,2s-2-0.895-2-2C84,82.895,84.895,82,86,82z M88,33  c1.105,0,2,0.895,2,2c0,1.105-0.895,2-2,2s-2-0.895-2-2C86,33.895,86.895,33,88,33z M34,53h1.501c5.949,0,10.927,4.156,12.19,9.722  c0.075,0.332,0.544,0.332,0.619,0C49.572,57.156,54.551,53,60.499,53H62v1.501C62,61.404,56.404,67,49.501,67H49v10h-2V67h-0.501  C39.596,67,34,61.404,34,54.501V53z M8,33c1.105,0,2,0.895,2,2c0,1.105-0.895,2-2,2s-2-0.895-2-2C6,33.895,6.895,33,8,33z"
     id="path10"
     style="fill:#999999;fill-opacity:1" /></svg>
