<?xml version="1.0" ?>
<!-- Uploaded to: SVG Repo, www.svgrepo.com, Generator: SVG Repo Mixer Tools -->
<svg width="800px" height="800px" viewBox="0 0 64 64" xmlns="http://www.w3.org/2000/svg">
<defs>
<style>.cls-1{fill:#f57c00;}.cls-2{fill:#999;}.cls-3{fill:#666;}</style>
</defs>
<title/>
<g data-name="outline color" id="outline_color">
<path class="cls-1" d="M42.94,41.8a1,1,0,0,1-.69-.27L38.82,38.3a1,1,0,0,1,0-1.42l8.06-8.57a1,1,0,0,1,1.41,0l3.43,3.22a1,1,0,0,1,0,1.41l-.84.9a1,1,0,1,1-1.46-1.36l.16-.17-2-1.86-6.69,7.12,2,1.86,4-4.3a1,1,0,0,1,1.46,1.37l-4.72,5a1,1,0,0,1-.7.32Z"/>
<path class="cls-1" d="M55.09,60H30.52a1,1,0,1,1,0-2H55.09a1,1,0,0,1,0,2Z"/>
<path class="cls-1" d="M42.94,41.8a1,1,0,0,1-.69-.27L38.82,38.3a1,1,0,0,1,0-1.42l8.06-8.57a1,1,0,0,1,1.41,0l3.43,3.22a1,1,0,0,1,0,1.41l-.84.9a1,1,0,1,1-1.46-1.36l.16-.17-2-1.86-6.69,7.12,2,1.86,4-4.3a1,1,0,0,1,1.46,1.37l-4.72,5a1,1,0,0,1-.7.32Z"/>
<path class="cls-1" d="M55.09,60H30.52a1,1,0,1,1,0-2H55.09a1,1,0,0,1,0,2Z"/>
<path class="cls-1" d="M42.94,41.8a1,1,0,0,1-.69-.27L38.82,38.3a1,1,0,0,1,0-1.42l8.06-8.57a1,1,0,0,1,1.41,0l3.43,3.22a1,1,0,0,1,0,1.41l-.84.9a1,1,0,1,1-1.46-1.36l.16-.17-2-1.86-6.69,7.12,2,1.86,4-4.3a1,1,0,0,1,1.46,1.37l-4.72,5a1,1,0,0,1-.7.32Z"/>
<path class="cls-1" d="M55.09,60H30.52a1,1,0,1,1,0-2H55.09a1,1,0,0,1,0,2Z"/>
<path class="cls-1" d="M42.94,41.8a1,1,0,0,1-.69-.27L38.82,38.3a1,1,0,0,1,0-1.42l8.06-8.57a1,1,0,0,1,1.41,0l3.43,3.22a1,1,0,0,1,0,1.41l-.84.9a1,1,0,1,1-1.46-1.36l.16-.17-2-1.86-6.69,7.12,2,1.86,4-4.3a1,1,0,0,1,1.46,1.37l-4.72,5a1,1,0,0,1-.7.32Z"/>
<path class="cls-1" d="M55.09,60H30.52a1,1,0,1,1,0-2H55.09a1,1,0,0,1,0,2Z"/>
<path class="cls-1" d="M42.47,60A14.88,14.88,0,0,1,28.2,49.28a1,1,0,0,1,.16-.88,1,1,0,0,1,.8-.4h4.76a1,1,0,0,1,.91.58A8.39,8.39,0,0,0,40,53.17a8.49,8.49,0,0,0,8.53-14.08A1,1,0,0,1,50,37.69,10.49,10.49,0,0,1,39.45,55.08,10.35,10.35,0,0,1,33.29,50H30.57a12.84,12.84,0,0,0,7.53,7.23A13,13,0,0,0,51.93,36.15a1,1,0,1,1,1.45-1.37A14.94,14.94,0,0,1,42.47,60Z"/>
<path class="cls-1" d="M40,50H27a1,1,0,0,1,0-2H40a1,1,0,0,1,0,2Z"/>
<path class="cls-1" d="M49.5,38a3,3,0,1,1,3-3A3,3,0,0,1,49.5,38Zm0-4a1,1,0,1,0,1,1A1,1,0,0,0,49.5,34Z"/>
<path class="cls-1" d="M50,31a1,1,0,0,1-.71-.29,1,1,0,0,1,0-1.42l1-1a1,1,0,0,1,1.42,1.42l-1,1A1,1,0,0,1,50,31Z"/>
<path class="cls-1" d="M40,42a1,1,0,0,1-.71-.29,1,1,0,0,1,0-1.42l1-1a1,1,0,0,1,1.42,1.42l-1,1A1,1,0,0,1,40,42Z"/>
<path class="cls-2" d="M21.78,55.1a5,5,0,0,1-4.57-3L4.56,23.84a5,5,0,0,1,2.52-6.61L28,7.9A1,1,0,0,1,29.3,9.17L18.71,36.89c0,.11-.08.24-.11.36s0,.06,0,.08a3,3,0,0,0,1.85,3.43l8.67,3.31a1,1,0,1,1-.72,1.86l-8.67-3.31A5,5,0,0,1,16.62,37s0-.06,0-.09a5.15,5.15,0,0,1,.21-.71l9.74-25.47L7.9,19.05a3,3,0,0,0-1.52,4L19,51.32a3,3,0,0,0,4,1.52l2.81-1.26a1,1,0,1,1,.82,1.82l-2.81,1.26A4.89,4.89,0,0,1,21.78,55.1Z"/>
<path class="cls-3" d="M16.8,31a5.59,5.59,0,0,1-2-.37,5.5,5.5,0,0,1-.28-10.16A5.5,5.5,0,1,1,19,30.5,5.36,5.36,0,0,1,16.8,31Zm0-9a3.4,3.4,0,0,0-1.42.31,3.48,3.48,0,0,0-1.77,4.62,3.44,3.44,0,0,0,1.94,1.84,3.5,3.5,0,0,0,2.68-.07h0A3.5,3.5,0,0,0,16.79,22Z"/>
<path class="cls-2" d="M54.52,31.05a.92.92,0,0,1-.36-.07,1,1,0,0,1-.58-1.29l4.23-11a3,3,0,0,0-1.74-3.88L33.65,6.19a3,3,0,0,0-3.88,1.74l-.46,1.23a1,1,0,1,1-1.88-.7l.47-1.24a5,5,0,0,1,6.46-2.9L56.79,12.9a5,5,0,0,1,2.89,6.45L55.45,30.41A1,1,0,0,1,54.52,31.05Z"/>
<path class="cls-3" d="M35.4,22.54a5.52,5.52,0,0,1-5-3.26,5.49,5.49,0,1,1,5,3.26Zm0-9a3.49,3.49,0,0,0-3.27,2.25,3.44,3.44,0,0,0,.07,2.67,3.47,3.47,0,0,0,1.95,1.85h0a3.5,3.5,0,0,0,4.44-4.7,3.49,3.49,0,0,0-3.19-2.07Z"/>
<path class="cls-3" d="M30.69,31.76a1.19,1.19,0,0,1-.32-.05,1.06,1.06,0,0,1-.6-.54l-1.15-2.59a1,1,0,0,1,.51-1.32,1,1,0,0,1,1.32.51l.7,1.58L37,26.07a1,1,0,0,1,1,1.74l-6.81,3.82A1,1,0,0,1,30.69,31.76Z"/>
<path class="cls-3" d="M51.35,22.53a.92.92,0,0,1-.36-.07L43.52,19.6a1,1,0,1,1,.71-1.86l7.47,2.85a1,1,0,0,1-.35,1.94Z"/>
<path class="cls-3" d="M51.21,25.69a.92.92,0,0,1-.36-.07l-9.34-3.57a1,1,0,0,1,.71-1.87l9.35,3.57a1,1,0,0,1-.36,1.94Z"/>
<path class="cls-3" d="M37.85,34.5a.92.92,0,0,1-.36-.07l-.62-.24a1,1,0,0,1,.72-1.86l.62.24a1,1,0,0,1-.36,1.93Z"/>
<path class="cls-3" d="M30.75,34.68a5.65,5.65,0,0,1-2-.36h0a5.51,5.51,0,0,1-3.06-2.9,5.51,5.51,0,0,1,2.78-7.26,5.49,5.49,0,0,1,7.27,2.78,5.42,5.42,0,0,1,.11,4.2A5.5,5.5,0,0,1,30.75,34.68ZM29.5,32.45A3.5,3.5,0,1,0,32,25.91a3.5,3.5,0,0,0-2.5,6.54Z"/>
<path class="cls-3" d="M40.08,32.13a1,1,0,0,1-.35-.06l-.85-.32a1,1,0,1,1,.7-1.88l.85.32a1,1,0,0,1-.35,1.94Z"/>
</g>
</svg>