<?xml version="1.0" ?><!-- Uploaded to: SVG Repo, www.svgrepo.com, Generator: SVG Repo Mixer Tools -->
<svg width="800px" height="800px" viewBox="0 0 2050 2050" data-name="Layer 3" id="Layer_3" xmlns="http://www.w3.org/2000/svg"><defs><style>.cls-1{fill:#e0e1e2;}.cls-2{fill:#1682fc;}.cls-3{fill:#2e3a58;}</style></defs><title/><rect class="cls-1" height="33.37" width="125.1" x="863.2" y="1110"/><path class="cls-2" d="M988.3,1219.7H863.2a15,15,0,0,1-15-15V1110a15,15,0,0,1,15-15H988.3a15,15,0,0,1,15,15v94.7A15,15,0,0,1,988.3,1219.7Zm-110.1-30h95.1V1125H878.2Z"/><rect class="cls-1" height="30.24" width="114.7" x="868.4" y="560.6"/><path class="cls-2" d="M983.1,605.8H868.4a15,15,0,0,1-15-15V488.4a15,15,0,0,1,15-15H983.1a15,15,0,0,1,15,15V590.8A15,15,0,0,1,983.1,605.8Zm-99.7-30h84.7V503.4H883.4Z"/><rect class="cls-1" height="57.1" width="216.6" x="828.6" y="1338.7"/><path class="cls-2" d="M1045.2,1410.8H828.6a15,15,0,0,1-15-15v-57.1a15,15,0,0,1,15-15h216.6a15,15,0,0,1,15,15v57.1A15,15,0,0,1,1045.2,1410.8Zm-201.6-30h186.6v-27.1H843.6Z"/><path class="cls-2" d="M1311.6,1394.3a15,15,0,0,1-10.6-4.4l-86.3-86.2a15.3,15.3,0,0,1-3.2-16.4,14.9,14.9,0,0,1,13.8-9.2h86.3a241.2,241.2,0,1,0,0-482.3H1143.1v-30h168.5a271.2,271.2,0,0,1,0,542.3h-50l56.1,56.2a327.4,327.4,0,0,0-6.1-654.8H1132.5v-30h179.1a357.4,357.4,0,1,1,0,714.8Z"/><path class="cls-1" d="M1036.5,842.9a105.3,105.3,0,1,1,0-210.5h0v-30c-74.6,0-135.3,60.7-135.3,135.3s60.7,135.2,135.3,135.2v-30Z"/><path class="cls-2" d="M868.4,1095.5a5.4,5.4,0,0,1-5.4-5.4v-68.5a5.4,5.4,0,0,1,10.8,0v68.5A5.4,5.4,0,0,1,868.4,1095.5Zm0-137a5.4,5.4,0,0,1-5.4-5.4V884.6a5.4,5.4,0,0,1,10.8,0v68.5A5.4,5.4,0,0,1,868.4,958.5Zm0-136.9a5.4,5.4,0,0,1-5.4-5.4V747.7a5.4,5.4,0,1,1,10.8,0v68.5A5.4,5.4,0,0,1,868.4,821.6Zm0-137a5.4,5.4,0,0,1-5.4-5.4V610.7a5.4,5.4,0,1,1,10.8,0v68.5A5.4,5.4,0,0,1,868.4,684.6Z"/><polygon class="cls-1" points="988.3 842.9 988.3 1110 1036.5 1110 1036.5 842.9 1036.5 842.9 988.3 842.9"/><path class="cls-3" d="M1036.5,1125H815a15,15,0,0,1-15-15V590.8a15,15,0,0,1,15-15h221.5a15,15,0,0,1,15,15v41.9h-30V605.8H830V1095h191.5V842.9h30V1110A15,15,0,0,1,1036.5,1125Z"/><path class="cls-2" d="M1044.6,503.4H806.9a15,15,0,0,1-15-15V436.3a15,15,0,0,1,15-15h237.7a15,15,0,0,1,15,15v52.1A15,15,0,0,1,1044.6,503.4Zm-222.7-30h207.7V451.3H821.9Z"/><polygon class="cls-1" points="1045.2 1473.1 1045.2 1542.4 1463.9 1542.4 1397.7 1473.1 1045.2 1473.1"/><path class="cls-3" d="M1463.9,1557.4H1045.2a15,15,0,0,1-15-15V1273.5a15,15,0,0,1,15-15H1207a14.8,14.8,0,0,1,10.8,4.7l257,268.8a15,15,0,0,1-10.9,25.4Zm-403.7-30h368.6l-228.3-238.9H1060.2Z"/><rect class="cls-1" height="55.45" width="821.4" x="642.5" y="1542.4"/><path class="cls-3" d="M1463.9,1612.8H642.5a15,15,0,0,1-15-15v-55.4a15,15,0,0,1,15-15h821.4a15,15,0,0,1,15,15v55.4A15,15,0,0,1,1463.9,1612.8Zm-806.4-30h791.4v-25.4H657.5Z"/><path class="cls-1" d="M1036.5,806.4a105.4,105.4,0,0,1-103.8-87,109.4,109.4,0,0,0-1.5,18.3,105.3,105.3,0,0,0,210.6,0,109.3,109.3,0,0,0-1.6-18.3A105.4,105.4,0,0,1,1036.5,806.4Z"/><path class="cls-2" d="M1036.5,857.9a120.3,120.3,0,1,1,120.3-120.2C1156.8,804,1102.8,857.9,1036.5,857.9Zm0-210.5a90.3,90.3,0,1,0,0,180.5c49.7,0,90.3-40.5,90.3-90.2A90.5,90.5,0,0,0,1036.5,647.4Z"/><circle class="cls-2" cx="1036.5" cy="737.7" r="43.1"/></svg>