<?xml version="1.0" ?><!-- Uploaded to: SVG Repo, www.svgrepo.com, Generator: SVG Repo Mixer Tools -->
<svg width="800px" height="800px" viewBox="0 0 64 64" id="Layer_1" version="1.1" xml:space="preserve" xmlns="http://www.w3.org/2000/svg" xmlns:xlink="http://www.w3.org/1999/xlink"><style type="text/css">
	.st0{fill:none;stroke:#126BB5;stroke-width:2;stroke-linecap:round;stroke-linejoin:round;stroke-miterlimit:10;}
	.st1{fill:none;stroke:#00B1E4;stroke-width:2;stroke-linecap:round;stroke-linejoin:round;stroke-miterlimit:10;}
	.st2{fill:none;stroke:#00B1E4;stroke-width:2;stroke-linejoin:round;stroke-miterlimit:10;}
	.st3{fill:#FFFFFF;stroke:#00B1E4;stroke-width:2;stroke-linecap:round;stroke-linejoin:round;stroke-miterlimit:10;}
	.st4{fill:#00B1E4;}
	.st5{fill:none;stroke:#126BB5;stroke-width:2;stroke-miterlimit:10;}
	.st6{fill:none;stroke:#00B1E4;stroke-width:2;stroke-miterlimit:10;}
	.st7{fill:none;stroke:#2B3088;stroke-width:2;stroke-linejoin:round;stroke-miterlimit:10;}
	.st8{fill:none;stroke:#126BB5;stroke-width:2;stroke-linecap:round;stroke-miterlimit:10;}
	.st9{fill:none;stroke:#00B1E4;stroke-width:2;stroke-linecap:round;stroke-miterlimit:10;}
</style><path class="st0" d="M39,27v8c0,1.1-0.9,2-2,2H18c-1.1,0-2-0.9-2-2v-3h9l7-5H39z"/><polyline class="st0" points="25,37 25,46 18,49 "/><path class="st0" d="M15,52h-1.5c-0.9,0-1.5-0.7-1.5-1.5v-2.9c0-0.9,0.7-1.5,1.5-1.5H15c1.7,0,3,1.3,3,3v0C18,50.7,16.7,52,15,52z"/><path class="st1" d="M49.4,21.9l-2.8,4.2c-0.4,0.6-1,0.9-1.7,0.9H32l-6.4,4.5c-0.4,0.3-0.9,0.5-1.5,0.5h-9.7c-1.4,0-2.5-1.1-2.5-2.5  v-9c0-1.4,1.1-2.5,2.5-2.5h32.8C49.3,18,50.5,20.2,49.4,21.9z"/><circle class="st4" cx="25" cy="46" r="3"/><path class="st0" d="M41.5,33.5H39v-3h2.5c0.8,0,1.5,0.7,1.5,1.5v0C43,32.8,42.3,33.5,41.5,33.5z"/></svg>