<?xml version="1.0" encoding="utf-8"?>
<!-- Uploaded to: SVG Repo, www.svgrepo.com, Generator: SVG Repo Mixer Tools -->
<!DOCTYPE svg PUBLIC "-//W3C//DTD SVG 1.1//EN" "http://www.w3.org/Graphics/SVG/1.1/DTD/svg11.dtd">
<svg height="800px" width="800px" version="1.1" id="Layer_1" xmlns="http://www.w3.org/2000/svg" xmlns:xlink="http://www.w3.org/1999/xlink" 
	 viewBox="0 0 246 471.1" enable-background="new 0 0 246 471.1" xml:space="preserve">
<g>
	<path fill="#929000" d="M168.1,279.8c63.1-56-7-95.6-69.5-127.9C12.9,107.7,14,38.8,86.2,26.4c53.4-9.2,25.3,35.7,42.3,71
		c8,16.5,76,7.5,73-2.6c-2.5-8.3-32.6-6.5-42.3-18.6c-6.5-8-1.6-25.4-4.9-37.6C138.2-20.2,35.8-7,9.8,45.9
		c-31.2,63.4,17.6,100.1,68.4,128.9C131.2,204.9,156.7,227.5,168.1,279.8z"/>
	<path fill="#EEA700" d="M106,228.8c-22.8,12.9-44.8,35-62.2,77C2.1,406.7,64.5,468.9,128,471.1l-0.4-0.1l0.4-2
		c3.2-16,13.7-72.6,14.1-130.5c0.4-53.4-8-85.5-24.2-100.6C114.4,234.6,110.4,231.6,106,228.8z"/>
	<path fill="#EEA700" d="M214.7,244.1c5.1,6.5-13,51.7-41.7,67.2c-0.8,66.9-18.7,137.3-25.3,159.4c43.1-3.3,88.5-35.4,96.7-106.7
		C250.7,308.9,238.1,269.3,214.7,244.1z"/>
</g>
</svg>