<?xml version="1.0" ?><!-- Uploaded to: SVG Repo, www.svgrepo.com, Generator: SVG Repo Mixer Tools -->
<svg width="800px" height="800px" viewBox="0 0 2050 2050" data-name="Layer 3" id="Layer_3" xmlns="http://www.w3.org/2000/svg"><defs><style>.cls-1{fill:#e0e1e2;}.cls-2{fill:#1682fc;}.cls-3{fill:#2e3a58;}</style></defs><title/><path class="cls-1" d="M1066.9,1578.6S581.3,1462.3,562.6,659.3c-26.1,16.4-41.9,30.7-41.9,41.1,18.4,803.8,504.3,920.1,504.3,920.1s121-29.1,244.7-163.7C1162,1555.7,1066.9,1578.6,1066.9,1578.6Z"/><path class="cls-1" d="M1024.6,1503.9c-9.9-4.2-22.2-10-36.1-17.6-50-27.3-96.7-64.6-138.9-110.8-59.6-65.4-108-146.9-143.8-242.4-41.6-111-66.3-241.2-73.4-387.5,21.4-12.5,60-32.5,128-62.3C838.9,648.9,925.9,615,985,592.6a112.8,112.8,0,0,1,80.1-.1c59.1,22.3,146,56,224.5,90.3,67,29.3,105.5,49.2,127.1,61.6-10.3,146.9-36.9,277.5-79.2,388.9-36.6,96-84.9,177.9-143.6,243.4-41.3,46.1-86.8,83.2-135.1,110.2C1045.7,1494.2,1034.1,1499.8,1024.6,1503.9Z"/><path class="cls-2" d="M1209.5,882.4a15,15,0,0,1,15,15v123a15,15,0,0,1-15,15h-108v108a15,15,0,0,1-15,15h-123a15,15,0,0,1-15-15v-108h-108a15,15,0,0,1-15-15v-123a15,15,0,0,1,15-15h108v-108a15,15,0,0,1,15-15h123a15,15,0,0,1,15,15v108"/><path class="cls-3" d="M1025,1635.5a13.9,13.9,0,0,1-3.5-.4c-1.3-.3-32.6-8-79.5-32-42.9-21.9-107.7-62.4-173.1-130.9-73.2-76.6-132.3-172-175.6-283.5-53.9-138.7-83.4-302.9-87.6-487.9v-.4c0-20,20.4-47.9,168.2-115.4,88.3-40.3,193.9-81.7,266.9-109.3a238.2,238.2,0,0,1,168.4-.2c73.3,27.7,179.3,69.1,267.7,109.4,49.2,22.4,87.8,42.2,114.7,58.7,37.7,23.2,53.5,40.4,52.7,57.5-8.2,185.8-40.1,350.4-94.9,489.2-44,111.6-102.8,206.9-174.7,283.2-35.5,37.7-93.6,90.8-169,130.1-45.6,23.7-75.9,31.2-77.2,31.5A13.4,13.4,0,0,1,1025,1635.5ZM535.7,700.9c4.2,180.6,32.8,340.6,85,475.5,41.6,107.7,98.3,199.7,168.5,273.6,34.4,36.2,90.9,87.4,164.8,125.6,35.6,18.3,61.8,26.7,71,29.4,8.9-2.6,34.2-10.8,68.5-28.9,39.6-20.8,99.6-59.3,160.9-124.8,68.9-73.6,125.4-165.7,167.7-273.6,53.1-135.2,84.1-295.7,92.2-477.3-.7-1.8-6.5-12.5-45.6-35.5-26.7-15.8-64.3-34.7-111.5-56-86.5-39.1-188.4-78.8-258.6-105.3a207.9,207.9,0,0,0-147.2.2c-70.2,26.5-172.1,66.4-258.5,105.5-47.2,21.4-84.7,40.3-111.5,56.1C542.2,688.5,536.4,699.2,535.7,700.9Z"/><path class="cls-2" d="M1024.6,1508.9a4.3,4.3,0,0,1-1.9-.4c-9-3.8-18.3-8.2-27.5-12.9a5,5,0,1,1,4.6-8.9c8.3,4.3,16.7,8.2,24.8,11.7,8.1-3.5,16.4-7.6,24.7-12a4.9,4.9,0,0,1,6.7,2,5,5,0,0,1-2,6.8c-9.2,4.9-18.4,9.4-27.4,13.3A6.5,6.5,0,0,1,1024.6,1508.9Z"/><path class="cls-2" d="M949.5,1467.6a4.7,4.7,0,0,1-2.8-.9,547.5,547.5,0,0,1-45-34,4.9,4.9,0,0,1-.6-7,5.1,5.1,0,0,1,7.1-.7,491.4,491.4,0,0,0,44.1,33.4,5,5,0,0,1,1.3,7A4.9,4.9,0,0,1,949.5,1467.6Zm-85.4-71.8a5.1,5.1,0,0,1-3.6-1.5c-4.9-5-9.8-10.2-14.6-15.4-7.8-8.5-15.5-17.5-22.9-26.6a5,5,0,0,1,.7-7,5,5,0,0,1,7.1.7c7.3,8.9,14.8,17.8,22.5,26.2,4.7,5.1,9.5,10.2,14.3,15.1a5,5,0,0,1-.1,7.1A4.5,4.5,0,0,1,864.1,1395.8Zm-70.6-86.4a4.9,4.9,0,0,1-4.1-2.2c-10.4-15.2-20.5-31.2-29.9-47.6a5,5,0,1,1,8.6-5c9.4,16.2,19.3,32,29.5,47a5,5,0,0,1-4.1,7.8Zm-55.8-96.7a5.1,5.1,0,0,1-4.5-2.9c-8-16.5-15.7-33.8-22.8-51.3a4.9,4.9,0,0,1,2.7-6.5,5.1,5.1,0,0,1,6.6,2.7c7,17.4,14.6,34.4,22.5,50.8a5,5,0,0,1-2.3,6.7A5.9,5.9,0,0,1,737.7,1212.7Zm-42.2-103.5a5.1,5.1,0,0,1-4.7-3.3c-5.9-17.4-11.4-35.5-16.5-53.7a5,5,0,0,1,3.4-6.2,5.2,5.2,0,0,1,6.2,3.5c5,18.1,10.6,35.9,16.4,53.1a5,5,0,0,1-3.1,6.4A5,5,0,0,1,695.5,1109.2Zm-30.1-107.5a5,5,0,0,1-4.9-3.9c-4.1-17.9-7.8-36.4-11.2-55a5,5,0,1,1,9.8-1.7c3.4,18.4,7.1,36.8,11.1,54.5a4.9,4.9,0,0,1-3.7,6Zm-20-109.9a4.9,4.9,0,0,1-4.9-4.3c-2.6-18.2-4.8-36.9-6.7-55.7a5,5,0,1,1,9.9-1c1.9,18.6,4.1,37.2,6.7,55.3a5.1,5.1,0,0,1-4.3,5.6Z"/><path class="cls-2" d="M634.1,780.5a5,5,0,0,1-5-4.6c-.7-10-1.2-20.1-1.7-30.1a5,5,0,0,1,2.4-4.6c7.8-4.4,16.7-9.3,26.6-14.4a4.9,4.9,0,0,1,6.7,2.1,5,5,0,0,1-2.1,6.7c-8.7,4.5-16.5,8.8-23.5,12.8.5,8.9,1,17.9,1.6,26.8a5,5,0,0,1-4.7,5.3Z"/><path class="cls-2" d="M713.3,709.5a5.2,5.2,0,0,1-4.6-2.9,5,5,0,0,1,2.4-6.6c14.6-6.8,30.5-14,47.3-21.3l8.3-3.6a5,5,0,0,1,6.6,2.6,5.1,5.1,0,0,1-2.6,6.6l-8.3,3.5c-16.7,7.4-32.5,14.5-47,21.2A4.1,4.1,0,0,1,713.3,709.5Zm622.5-.9a5.4,5.4,0,0,1-2.1-.5c-14.3-6.6-29.8-13.6-46.1-20.7l-9.3-4a5,5,0,1,1,4-9.2l9.3,4c16.4,7.2,32,14.2,46.3,20.8a5,5,0,0,1,2.4,6.7A4.9,4.9,0,0,1,1335.8,708.6ZM824.6,660.9a5,5,0,0,1-4.6-3,5.2,5.2,0,0,1,2.7-6.6c17.9-7.4,36.9-15.1,56.4-22.9a5,5,0,1,1,3.7,9.3c-19.5,7.8-38.4,15.5-56.2,22.9A6.9,6.9,0,0,1,824.6,660.9Zm399.7-.8a6.3,6.3,0,0,1-1.9-.3c-17.9-7.4-36.8-15.1-56.3-22.8a5,5,0,1,1,3.7-9.3c19.5,7.7,38.5,15.4,56.4,22.8a4.9,4.9,0,0,1,2.7,6.5A4.8,4.8,0,0,1,1224.3,660.1ZM937.5,615.8a5,5,0,0,1-1.8-9.7l47.5-18.2c3.3-1.2,6.5-2.3,9.8-3.2a5,5,0,0,1,2.8,9.6q-4.6,1.4-9,3c-15.9,6-31.9,12.1-47.5,18.2A5.7,5.7,0,0,1,937.5,615.8Zm173.9-.6a3.9,3.9,0,0,1-1.8-.4l-46.3-17.6a93.2,93.2,0,0,0-10.2-3.3,5,5,0,0,1-3.5-6.1,4.8,4.8,0,0,1,6.1-3.5c3.8,1,7.5,2.2,11.1,3.5l46.4,17.7a5,5,0,0,1-1.8,9.7Z"/><path class="cls-2" d="M1414.3,779.3h-.4a5,5,0,0,1-4.6-5.4q1.2-13.2,2.1-26.7c-6.9-3.9-14.8-8.2-23.4-12.7a5,5,0,0,1,4.6-8.8c9.9,5.1,18.8,9.9,26.6,14.4a5,5,0,0,1,2.4,4.7c-.7,10-1.4,20.1-2.3,30A4.9,4.9,0,0,1,1414.3,779.3Z"/><path class="cls-2" d="M1106,1461.6a5.3,5.3,0,0,1-4.1-2,5,5,0,0,1,1.2-7,554.3,554.3,0,0,0,49.1-40.5,4.8,4.8,0,0,1,7,.3,4.9,4.9,0,0,1-.2,7,532.3,532.3,0,0,1-50.1,41.3A5.2,5.2,0,0,1,1106,1461.6Zm94.2-87a5,5,0,0,1-3.3-1.3,5,5,0,0,1-.5-7c13.7-15.7,27-32.6,39.5-50.2a5,5,0,0,1,6.9-1.1,4.9,4.9,0,0,1,1.2,6.9c-12.7,17.8-26.1,35-40,50.9A4.9,4.9,0,0,1,1200.2,1374.6Zm74.6-104.6a5.7,5.7,0,0,1-2.5-.6,5.1,5.1,0,0,1-1.8-6.9c10.6-18,20.7-36.9,30.1-56.3a5,5,0,1,1,9,4.3c-9.5,19.7-19.8,38.9-30.5,57.1A4.9,4.9,0,0,1,1274.8,1270Zm56.3-115.4a6.5,6.5,0,0,1-1.9-.4,4.9,4.9,0,0,1-2.7-6.5l6.3-16.2c5.4-14.3,10.6-29,15.5-43.9a5.1,5.1,0,0,1,6.4-3.2,5,5,0,0,1,3.1,6.3c-4.9,15-10.2,30-15.7,44.3-2,5.5-4.2,11-6.4,16.4A4.8,4.8,0,0,1,1331.1,1154.6Zm40.3-122.1h-1.3a5,5,0,0,1-3.5-6.1c5.4-20.2,10.4-41.1,14.9-62.3a5,5,0,0,1,6-3.8,4.9,4.9,0,0,1,3.8,5.9c-4.6,21.3-9.6,42.4-15.1,62.7A4.9,4.9,0,0,1,1371.4,1032.5Zm27-125.6h-.8a4.8,4.8,0,0,1-4.1-5.7c3.4-20.7,6.5-42,9.2-63.4a5,5,0,0,1,5.5-4.4,5,5,0,0,1,4.4,5.6c-2.7,21.6-5.8,43-9.3,63.8A4.9,4.9,0,0,1,1398.4,906.9Z"/></svg>