<?xml version="1.0" encoding="UTF-8" standalone="no"?>
<svg
   xmlns:dc="http://purl.org/dc/elements/1.1/"
   xmlns:cc="http://creativecommons.org/ns#"
   xmlns:rdf="http://www.w3.org/1999/02/22-rdf-syntax-ns#"
   xmlns:svg="http://www.w3.org/2000/svg"
   xmlns="http://www.w3.org/2000/svg"
   xmlns:sodipodi="http://sodipodi.sourceforge.net/DTD/sodipodi-0.dtd"
   xmlns:inkscape="http://www.inkscape.org/namespaces/inkscape"
   width="800px"
   height="800px"
   viewBox="0 0 1024 1024"
   class="icon"
   version="1.1"
   id="svg12"
   sodipodi:docname="shovel.svg"
   inkscape:export-filename="C:\Users\keega\Documents\cannlytics\cannlytics\app\assets\images\icons\shovel.png"
   inkscape:export-xdpi="96"
   inkscape:export-ydpi="96"
   inkscape:version="1.0.1 (3bc2e813f5, 2020-09-07)">
  <metadata
     id="metadata18">
    <rdf:RDF>
      <cc:Work
         rdf:about="">
        <dc:format>image/svg+xml</dc:format>
        <dc:type
           rdf:resource="http://purl.org/dc/dcmitype/StillImage" />
      </cc:Work>
    </rdf:RDF>
  </metadata>
  <defs
     id="defs16" />
  <sodipodi:namedview
     pagecolor="#ffffff"
     bordercolor="#666666"
     borderopacity="1"
     objecttolerance="10"
     gridtolerance="10"
     guidetolerance="10"
     inkscape:pageopacity="0"
     inkscape:pageshadow="2"
     inkscape:window-width="1920"
     inkscape:window-height="1094"
     id="namedview14"
     showgrid="false"
     inkscape:zoom="0.94125"
     inkscape:cx="400"
     inkscape:cy="400"
     inkscape:window-x="-11"
     inkscape:window-y="-11"
     inkscape:window-maximized="1"
     inkscape:current-layer="svg12" />
  <path
     d="M373.76 720.384c-3.584 0-6.656-1.536-9.216-4.096l-54.784-54.784c-5.12-5.12-5.12-12.8 0-17.92l194.56-194.56c4.608-4.608 13.312-4.608 17.92 0l54.784 54.784c5.12 5.12 5.12 12.8 0 17.92l-194.56 194.56c-2.56 2.56-5.632 3.584-8.704 4.096z m-51.712-68.096l51.2 51.2 190.976-190.976-51.2-51.2-190.976 190.976z"
     fill=""
     id="path2" />
  <path
     d="M217.6 729.6l78.336 78.336c2.048 2.048 2.048 5.12 0 7.168l-24.064 24.064c-2.048 2.048-5.12 2.048-7.168 0l-78.336-78.336c-2.048-2.048-2.048-5.12 0-7.168l24.064-24.064c2.048-1.536 5.12-2.048 7.168 0z"
     fill="#7ED321"
     id="path4"
     style="fill:#f57c00;fill-opacity:1" />
  <path
     d="M315.392 891.904l-37.888-37.888 52.736-52.736c1.536-1.536 2.048-3.584 2.56-5.632 0-2.048-1.024-4.096-2.56-5.632L235.52 695.296c-3.072-3.072-8.192-3.072-10.752 0l-52.736 52.736-37.888-37.888L209.92 634.368c5.632-5.632 12.8-8.192 19.968-8.192s14.336 3.072 19.968 8.192l141.824 141.824c10.752 10.752 10.752 29.184 0 39.936l-76.288 75.776z m-16.384-37.376l16.384 16.384 65.024-65.024c5.12-5.12 5.12-12.8 0-17.92l-141.824-141.824c-4.608-4.608-13.312-4.608-17.92 0L155.136 711.68l16.384 16.384 41.984-41.984c4.096-4.096 10.24-6.656 16.384-6.656 6.656 0 11.776 2.56 16.384 6.656l94.72 94.72c9.216 9.216 9.216 23.552 0 32.768l-41.984 40.96zM752.128 594.944L430.592 273.408l5.632-5.632c76.8-76.8 184.832-124.416 282.624-124.416 53.76 0.512 97.28 15.36 122.88 41.472 35.84 35.84 48.64 103.424 35.328 180.224-14.848 82.944-56.832 162.304-119.296 224.768l-5.632 5.12zM452.608 273.408l299.52 299.52c121.344-125.44 144.896-311.296 78.336-377.856-23.04-23.04-62.976-36.352-111.616-36.352-72.192 0.512-179.2 30.72-266.24 114.688z"
     fill=""
     id="path6" />
  <path
     d="M419.84 294.4l311.296 311.296c2.048 2.048 2.048 5.12 0 7.168l-27.648 27.648c-2.048 2.048-5.12 2.048-7.168 0L384.512 329.728c-2.048-2.048-2.048-5.12 0-7.168l27.648-27.648c2.048-2.048 5.632-2.56 7.68-0.512z"
     fill="#7ED321"
     id="path8"
     style="fill:#f57c00;fill-opacity:1" />
  <path
     d="M699.904 650.24c-3.584 0-6.656-1.536-9.216-4.096L379.904 334.848c-5.12-5.12-5.12-12.8 0-17.92l27.648-27.648c5.12-5.12 12.8-5.12 17.92 0l311.296 311.296c5.12 5.12 5.12 12.8 0 17.92l-27.648 27.648c-3.072 3.072-6.144 4.096-9.216 4.096zM392.192 326.144l307.712 307.712 24.064-24.064L416.256 302.08l-24.064 24.064z m22.016-26.112z"
     fill=""
     id="path10" />
</svg>
