<?xml version="1.0" encoding="UTF-8" standalone="no"?>
<svg
   xmlns:dc="http://purl.org/dc/elements/1.1/"
   xmlns:cc="http://creativecommons.org/ns#"
   xmlns:rdf="http://www.w3.org/1999/02/22-rdf-syntax-ns#"
   xmlns:svg="http://www.w3.org/2000/svg"
   xmlns="http://www.w3.org/2000/svg"
   xmlns:sodipodi="http://sodipodi.sourceforge.net/DTD/sodipodi-0.dtd"
   xmlns:inkscape="http://www.inkscape.org/namespaces/inkscape"
   width="800px"
   height="800px"
   viewBox="0 0 1024 1024"
   class="icon"
   version="1.1"
   id="svg10"
   sodipodi:docname="spade.svg"
   inkscape:export-filename="C:\Users\keega\Documents\cannlytics\cannlytics\app\assets\images\icons\spade.png"
   inkscape:export-xdpi="96"
   inkscape:export-ydpi="96"
   inkscape:version="1.0.1 (3bc2e813f5, 2020-09-07)">
  <metadata
     id="metadata16">
    <rdf:RDF>
      <cc:Work
         rdf:about="">
        <dc:format>image/svg+xml</dc:format>
        <dc:type
           rdf:resource="http://purl.org/dc/dcmitype/StillImage" />
      </cc:Work>
    </rdf:RDF>
  </metadata>
  <defs
     id="defs14" />
  <sodipodi:namedview
     pagecolor="#ffffff"
     bordercolor="#666666"
     borderopacity="1"
     objecttolerance="10"
     gridtolerance="10"
     guidetolerance="10"
     inkscape:pageopacity="0"
     inkscape:pageshadow="2"
     inkscape:window-width="1920"
     inkscape:window-height="1094"
     id="namedview12"
     showgrid="false"
     inkscape:zoom="0.94125"
     inkscape:cx="400"
     inkscape:cy="400"
     inkscape:window-x="-11"
     inkscape:window-y="-11"
     inkscape:window-maximized="1"
     inkscape:current-layer="svg10" />
  <path
     d="M578.56 696.32H455.68v-15.36c0-14.336 11.264-25.6 25.6-25.6h71.68c14.336 0 25.6 11.264 25.6 25.6v15.36z m-107.52-15.36h92.16c0-5.632-4.608-10.24-10.24-10.24H481.28c-5.632 0-10.24 4.608-10.24 10.24zM768.39424 519.05536h-510.976c-14.336 0-25.6-11.264-25.6-25.6 0-5.12 1.536-9.728 4.096-13.824l254.976-396.8c7.68-11.776 23.552-15.36 35.328-7.68 3.072 2.048 5.632 4.608 7.68 7.68l256 396.8c7.68 11.776 4.096 27.648-7.68 35.328-4.096 2.56-8.704 4.096-13.824 4.096z m-256-432.64c-3.584 0-6.656 1.536-8.704 4.608l-254.976 396.8c-1.024 1.536-1.536 3.584-1.536 5.632 0 5.632 4.608 10.24 10.24 10.24h510.976c2.048 0 4.096-0.512 5.632-1.536 4.608-3.072 6.144-9.728 3.072-14.336l-256-396.8-3.072-3.072c-2.048-1.024-3.584-1.536-5.632-1.536z"
     fill=""
     id="path2" />
  <path
     d="M465.92 727.04h102.4v97.28H465.92z"
     fill="#7ED321"
     id="path4"
     style="fill:#f57c00;fill-opacity:1" />
  <path
     d="M455.68 716.8v209.92c0 14.336 11.264 25.6 25.6 25.6h71.68c14.336 0 25.6-11.264 25.6-25.6v-209.92H455.68z m104.96 17.92v81.92h-87.04v-81.92h87.04zM552.96 936.96H481.28c-5.632 0-10.24-4.608-10.24-10.24v-94.72h92.16V926.72c0 5.632-4.608 10.24-10.24 10.24z"
     fill=""
     id="path6" />
  <path
     d="M641.536 518.656v33.28c0 5.632-4.608 10.24-10.24 10.24h-122.88c-5.632 0-10.24 4.608-10.24 10.24V655.36h35.84v-47.104c0-5.632 4.608-10.24 10.24-10.24h122.88c5.632 0 10.24-4.608 10.24-10.24v-69.12h-35.84z"
     fill="#7ED321"
     id="path8"
     style="fill:#f57c00;fill-opacity:1" />
</svg>
