<?xml version="1.0" encoding="UTF-8" standalone="no"?>
<svg
   xmlns:dc="http://purl.org/dc/elements/1.1/"
   xmlns:cc="http://creativecommons.org/ns#"
   xmlns:rdf="http://www.w3.org/1999/02/22-rdf-syntax-ns#"
   xmlns:svg="http://www.w3.org/2000/svg"
   xmlns="http://www.w3.org/2000/svg"
   xmlns:sodipodi="http://sodipodi.sourceforge.net/DTD/sodipodi-0.dtd"
   xmlns:inkscape="http://www.inkscape.org/namespaces/inkscape"
   width="800px"
   height="800px"
   viewBox="0 0 1024 1024"
   class="icon"
   version="1.1"
   id="svg10"
   sodipodi:docname="spending.svg"
   inkscape:version="1.0.1 (3bc2e813f5, 2020-09-07)"
   inkscape:export-filename="C:\Users\keega\Documents\cannlytics\cannlytics\app\assets\images\icons\spending.png"
   inkscape:export-xdpi="96"
   inkscape:export-ydpi="96">
  <metadata
     id="metadata16">
    <rdf:RDF>
      <cc:Work
         rdf:about="">
        <dc:format>image/svg+xml</dc:format>
        <dc:type
           rdf:resource="http://purl.org/dc/dcmitype/StillImage" />
        <dc:title></dc:title>
      </cc:Work>
    </rdf:RDF>
  </metadata>
  <defs
     id="defs14" />
  <sodipodi:namedview
     pagecolor="#ffffff"
     bordercolor="#666666"
     borderopacity="1"
     objecttolerance="10"
     gridtolerance="10"
     guidetolerance="10"
     inkscape:pageopacity="0"
     inkscape:pageshadow="2"
     inkscape:window-width="1920"
     inkscape:window-height="1094"
     id="namedview12"
     showgrid="false"
     inkscape:zoom="0.94125"
     inkscape:cx="412.48938"
     inkscape:cy="393.78317"
     inkscape:window-x="-11"
     inkscape:window-y="-11"
     inkscape:window-maximized="1"
     inkscape:current-layer="svg10" />
  <path
     d="M879.840018 314.964532H402.910138v-62.165198c0-39.813781-28.073912-76.059321-67.887693-76.059321h-45.948901c-28.954453 0-52.512007 24.799526-52.512007 53.75398s23.557554 53.75398 52.512007 53.753979h29.877997v-26.621018h-29.877997c-14.48081 0-26.256515-12.14328-26.256516-26.621019s11.775705-26.621018 26.256516-26.621018h45.948901c25.332971 0 43.314445 23.077351 43.314445 48.414417v351.924745h24.573248v-262.114643h476.928856c14.48081 0 22.727183 13.865455 22.727183 28.343193v98.460909c0 10.663766-5.47881 26.846273-13.4344 33.952037L745.387493 630.471723c-8.294495 7.409858-25.091334 12.136113-36.2138 12.136113H453.17574c-39.813781 0-74.837826 36.425744-74.837826 76.239525v7.818388c-32.76433 6.198602-57.759419 35.625066-57.759419 70.950134 0 39.813781 33.048971 70.559009 72.862752 70.559009 35.325068 0 65.410914-26.934327 71.608491-60.722543h173.174845c6.197578 33.788216 35.625066 60.722543 70.950133 60.722543 39.813781 0 72.204393-31.568432 72.204394-71.382213s-32.390612-73.62145-72.204394-73.62145c-35.325068 0-64.751532 26.943542-70.950133 57.660102h-43.846865v-30.71656h33.788215v-26.621018h-157.67834v26.621018h32.764331v30.71656h-38.202186c-5.41021-24.573248-28.350361-48.755371-62.138576-54.166605v-7.818389c0-25.332971 24.931608-48.594621 50.264578-48.594621h255.997953c17.531988 0 41.506263-7.824532 54.583326-19.496825l143.044971-128.472011c13.666821-12.201641 22.385205-34.553058 22.385205-52.870366v-98.460909c0-28.953429-20.392724-55.987073-49.347177-55.987073zM709.173693 751.668005c25.332971 0 45.948902 20.614907 45.948901 45.948902 0 25.332971-20.614907 45.948902-45.948901 45.948902s-45.948902-20.614907-45.948902-45.948902c0.001024-25.332971 20.615931-45.948902 45.948902-45.948902z m-181.349545-1.55221h39.931527v30.71656h-39.931527v-30.71656z m-87.776665 47.501112c0 25.332971-20.614907 45.948902-45.948902 45.948902-25.332971 0-45.948902-20.614907-45.948902-45.948902 0-25.332971 20.614907-45.948902 45.948902-45.948902 25.333995 0 45.948902 20.615931 45.948902 45.948902z"
     fill="#262626"
     id="path2" />
  <path
     d="M374.407218 797.616907c0 10.859328 8.833059 19.692386 19.692387 19.692386s19.692386-8.833059 19.692386-19.692386-8.833059-19.692386-19.692386-19.692387-19.692386 8.833059-19.692387 19.692387zM709.173693 817.309293c10.859328 0 19.692386-8.833059 19.692386-19.692386s-8.833059-19.692386-19.692386-19.692387-19.692386 8.833059-19.692387 19.692387 8.834083 19.692386 19.692387 19.692386zM88.577343 369.230454h236.51751v26.621019h-236.51751zM153.082119 473.666757h172.012734v26.621019h-172.012734zM220.65855 578.10306h104.436303v26.621019h-104.436303z"
     fill="#262626"
     id="path4" />
  <path
     d="M497.107588 395.851473h24.573248v208.872606h-24.573248zM601.543891 395.851473h26.621019v208.872606h-26.621019zM692.669685 395.851473h26.621018v176.108276h-26.621018zM784.819364 395.851473h26.621019v111.6035h-26.621019z"
     fill="#FF4C48"
     id="path6"
     style="fill:#f57c00;fill-opacity:1" />
  <path
     d="M442.841666 160.902555c0-7.220439 9.67674-14.879102 16.897179-14.879102H591.020398c7.220439 0 10.523493 7.658662 10.523493 14.879102v116.17822h-158.702225V160.902555zM770.48497 277.080775h-131.057322v-50.537956c0-7.220439 10.012575-16.01459 17.233014-16.01459h105.025037c7.220439 0 8.79927 8.794151 8.799271 16.01459v50.537956z"
     fill="#E0E0E0"
     id="path8" />
</svg>
