<?xml version="1.0" ?><!-- Uploaded to: SVG Repo, www.svgrepo.com, Generator: SVG Repo Mixer Tools -->
<svg width="800px" height="800px" viewBox="0 0 64 64" id="duotone_outline" xmlns="http://www.w3.org/2000/svg"><path d="M32,30A14,14,0,1,1,46,16,14.015,14.015,0,0,1,32,30ZM32,4A12,12,0,1,0,44,16,12.013,12.013,0,0,0,32,4Z" style="fill:#e78753"/><path d="M15,50A11,11,0,1,1,26,39,11.013,11.013,0,0,1,15,50Zm0-20a9,9,0,1,0,9,9A9.011,9.011,0,0,0,15,30Z" style="fill:#e78753"/><path d="M48,47A10,10,0,1,1,58,37,10.011,10.011,0,0,1,48,47Zm0-18a8,8,0,1,0,8,8A8.009,8.009,0,0,0,48,29Z" style="fill:#e78753"/><path d="M32,62a1,1,0,0,1-1-1V8a1,1,0,0,1,2,0V61A1,1,0,0,1,32,62Z" style="fill:#363636"/><path d="M32,54H21a7.008,7.008,0,0,1-7-7V34a1,1,0,0,1,2,0V47a5.006,5.006,0,0,0,5,5H32a1,1,0,0,1,0,2Z" style="fill:#363636"/><path d="M42,50H32a1,1,0,0,1,0-2H42a5.006,5.006,0,0,0,5-5V32a1,1,0,0,1,2,0V43A7.008,7.008,0,0,1,42,50Z" style="fill:#363636"/><path d="M50,39H48a1,1,0,0,1,0-2h2a1,1,0,0,0,1-1V34a1,1,0,0,1,2,0v2A3,3,0,0,1,50,39Z" style="fill:#363636"/><path d="M48,42H46a3,3,0,0,1-3-3V36a1,1,0,0,1,2,0v3a1,1,0,0,0,1,1h2a1,1,0,0,1,0,2Z" style="fill:#363636"/><path d="M34,21H32a1,1,0,0,1,0-2h2a2,2,0,0,0,2-2V12a1,1,0,0,1,2,0v5A4,4,0,0,1,34,21Z" style="fill:#363636"/><path d="M32,24H30a4,4,0,0,1-4-4V15a1,1,0,0,1,2,0v5a2,2,0,0,0,2,2h2a1,1,0,0,1,0,2Z" style="fill:#363636"/><path d="M17,42H15a1,1,0,0,1,0-2h2a1,1,0,0,0,1-1V37a1,1,0,0,1,2,0v2A3,3,0,0,1,17,42Z" style="fill:#363636"/><path d="M15,45H13a3,3,0,0,1-3-3V39a1,1,0,0,1,2,0v3a1,1,0,0,0,1,1h2a1,1,0,0,1,0,2Z" style="fill:#363636"/><path d="M44.7,60.283a3.977,3.977,0,0,1-3.593-5.7l.153-.322.322-.153A3.983,3.983,0,0,1,46.9,59.42l-.153.322-.322.153A4.008,4.008,0,0,1,44.7,60.283Zm-1.913-4.5a1.976,1.976,0,0,0,2.43,2.43,1.976,1.976,0,0,0-2.43-2.43Z" style="fill:#e78753"/><path d="M11.7,24.283a3.977,3.977,0,0,1-3.593-5.7l.153-.322.322-.153A3.983,3.983,0,0,1,13.9,23.42l-.153.322-.322.153A4.008,4.008,0,0,1,11.7,24.283Zm-1.913-4.5a1.976,1.976,0,0,0,2.43,2.43,1.976,1.976,0,0,0-2.43-2.43Z" style="fill:#e78753"/><path d="M54.7,24.283a3.977,3.977,0,0,1-3.593-5.7l.153-.322.322-.153A3.983,3.983,0,0,1,56.9,23.42l-.153.322-.322.153A4.008,4.008,0,0,1,54.7,24.283Zm-1.913-4.5a1.976,1.976,0,0,0,2.43,2.43,1.976,1.976,0,0,0-2.43-2.43Z" style="fill:#e78753"/></svg>