<?xml version="1.0" ?><!-- Uploaded to: SVG Repo, www.svgrepo.com, Generator: SVG Repo Mixer Tools -->
<svg width="800px" height="800px" viewBox="0 0 113.4 113.4" id="Capa_1" version="1.1" xml:space="preserve" xmlns="http://www.w3.org/2000/svg" xmlns:xlink="http://www.w3.org/1999/xlink"><style type="text/css">
	.st0{fill:#FFFFFF;stroke:#000000;stroke-linecap:round;stroke-linejoin:round;stroke-miterlimit:10;}
	.st1{fill:#B67F6F;stroke:#000000;stroke-linecap:round;stroke-linejoin:round;stroke-miterlimit:10;}
	.st2{fill:#EEBFB2;stroke:#000000;stroke-linecap:round;stroke-linejoin:round;stroke-miterlimit:10;}
	.st3{fill:none;stroke:#000000;stroke-linecap:round;stroke-linejoin:round;stroke-miterlimit:10;}
</style><rect class="st2" height="9.2" width="18.5" x="30.3" y="24.6"/><rect class="st0" height="9.2" width="18.5" x="48.8" y="24.6"/><rect class="st0" height="9.2" width="18.5" x="67.3" y="24.6"/><rect class="st0" height="9.2" width="9.2" x="76.6" y="33.8"/><rect class="st0" height="9.2" width="18.5" x="58.1" y="33.8"/><rect class="st0" height="9.2" width="18.5" x="39.6" y="33.8"/><rect class="st0" height="9.2" width="9.2" x="30.3" y="33.8"/><rect class="st0" height="9.2" width="18.5" x="30.3" y="43"/><rect class="st1" height="9.2" width="18.5" x="48.8" y="43"/><rect class="st0" height="9.2" width="18.5" x="67.3" y="43"/><rect class="st0" height="9.2" width="9.2" x="76.6" y="52.1"/><rect class="st0" height="9.2" width="18.5" x="58.1" y="52.1"/><rect class="st0" height="9.2" width="18.5" x="39.6" y="52.1"/><rect class="st0" height="9.2" width="9.2" x="30.3" y="52.1"/><rect class="st0" height="9.2" width="18.5" x="30.3" y="61.3"/><rect class="st0" height="9.2" width="18.5" x="48.8" y="61.3"/><rect class="st2" height="9.2" width="18.5" x="67.3" y="61.3"/><rect class="st0" height="9.2" width="9.2" x="76.6" y="70.4"/><rect class="st0" height="9.2" width="18.5" x="58.1" y="70.4"/><rect class="st0" height="9.2" width="18.5" x="39.6" y="70.4"/><rect class="st1" height="9.2" width="9.2" x="30.3" y="70.4"/><rect class="st2" height="9.2" width="18.5" x="30.3" y="79.6"/><rect class="st0" height="9.2" width="18.5" x="48.8" y="79.6"/><rect class="st0" height="9.2" width="18.5" x="67.3" y="79.6"/></svg>