<?xml version="1.0" encoding="UTF-8" standalone="no"?>
<svg
   xmlns:dc="http://purl.org/dc/elements/1.1/"
   xmlns:cc="http://creativecommons.org/ns#"
   xmlns:rdf="http://www.w3.org/1999/02/22-rdf-syntax-ns#"
   xmlns:svg="http://www.w3.org/2000/svg"
   xmlns="http://www.w3.org/2000/svg"
   xmlns:sodipodi="http://sodipodi.sourceforge.net/DTD/sodipodi-0.dtd"
   xmlns:inkscape="http://www.inkscape.org/namespaces/inkscape"
   fill="#000000"
   width="800px"
   height="800px"
   viewBox="0 0 96 96"
   id="Layer_1_1_"
   version="1.1"
   xml:space="preserve"
   sodipodi:docname="waste.svg"
   inkscape:version="1.0.1 (3bc2e813f5, 2020-09-07)"
   inkscape:export-filename="C:\Users\keega\Documents\cannlytics\cannlytics\app\assets\images\icons\waste.png"
   inkscape:export-xdpi="96"
   inkscape:export-ydpi="96"><metadata
     id="metadata43"><rdf:RDF><cc:Work
         rdf:about=""><dc:format>image/svg+xml</dc:format><dc:type
           rdf:resource="http://purl.org/dc/dcmitype/StillImage" /></cc:Work></rdf:RDF></metadata><defs
     id="defs41" /><sodipodi:namedview
     pagecolor="#ffffff"
     bordercolor="#666666"
     borderopacity="1"
     objecttolerance="10"
     gridtolerance="10"
     guidetolerance="10"
     inkscape:pageopacity="0"
     inkscape:pageshadow="2"
     inkscape:window-width="1920"
     inkscape:window-height="1094"
     id="namedview39"
     showgrid="false"
     inkscape:zoom="0.470625"
     inkscape:cx="-110.40128"
     inkscape:cy="499.72913"
     inkscape:window-x="-11"
     inkscape:window-y="-11"
     inkscape:window-maximized="1"
     inkscape:current-layer="Layer_1_1_" /><path
     d="m 83,23 v -6.05 c 5.053,-0.502 9,-4.764 9,-9.95 -5.185,0 -9.448,3.947 -9.95,9 h -0.1 C 81.448,10.947 77.186,7 72,7 c 0,5.185 3.947,9.448 9,9.95 V 23 H 70 v 5 h 3 l 2,17 h 14 l 2,-17 h 3 v -5 z m -4.997,18.077 -1,-13 1.994,-0.154 1,13 z m 7.994,0 -1.994,-0.154 1,-13 1.994,0.154 z"
     id="path2-3"
     style="fill:#7ed321;fill-opacity:1;stroke-width:1" /><path
     d="M 83,23 H 81 70 v 5 h 3 l 2,17 h 14 l 2,-17 h 3 v -5 z m -4.997,18.077 -1,-13 1.994,-0.154 1,13 z m 7.994,0 -1.994,-0.154 1,-13 1.994,0.154 z"
     id="path2"
     style="fill:#999999;fill-opacity:1"
     sodipodi:nodetypes="ccccccccccccccccccccc" /><path
     d="M33,67h3l2,17h14l2-17h3v-5H33V67z M48.003,66.923l1.994,0.154l-1,13l-1.994-0.154L48.003,66.923z M41.997,66.923l1,13  l-1.994,0.154l-1-13L41.997,66.923z"
     id="path4"
     style="fill:#f57c00;fill-opacity:1" /><rect
     height="5"
     width="18"
     x="36"
     y="33"
     id="rect6"
     style="fill:#999999;fill-opacity:1" /><path
     d="M24,94h42V40H24V94z M56,46c0-0.552,0.448-1,1-1h4c0.552,0,1,0.448,1,1v4c0,0.552-0.448,1-1,1h-4c-0.552,0-1-0.448-1-1V46z   M49,46c1.105,0,2,0.895,2,2c0,1.105-0.895,2-2,2s-2-0.895-2-2C47,46.895,47.895,46,49,46z M40,46c1.105,0,2,0.895,2,2  c0,1.105-0.895,2-2,2s-2-0.895-2-2C38,46.895,38.895,46,40,46z M31,46c1.105,0,2,0.895,2,2c0,1.105-0.895,2-2,2s-2-0.895-2-2  C29,46.895,29.895,46,31,46z M29,55h32v34H29V55z"
     id="path8"
     style="fill:#999999;fill-opacity:1" /><path
     d="M4,29h9v4h-3v2h12v-2h-3v-4h9c1.105,0,2-1.895,2-3V4c0-1.105-0.895-2-2-2H4C2.895,2,2,2.895,2,4v22C2,27.105,2.895,29,4,29z   M17,33h-2v-4h2V33z M10,8h14v2.727h-1.75L21.083,20h-8.167l-1.167-9.273H10V8z M5,5h2v19h20v2H6c-0.553,0-1-0.447-1-1V5z"
     id="path10"
     style="fill:#999999;fill-opacity:1" /><path
     d="M32,11v2c6.617,0,12,5.383,12,12v6h2v-6C46,17.28,39.72,11,32,11z"
     id="path12"
     style="fill:#999999;fill-opacity:1" /><path
     d="M86.781,53.375l-4-5c-0.381-0.475-1.182-0.475-1.562,0l-4,5l1.562,1.25L82,50.601l3.219,4.024L86.781,53.375z"
     id="path14"
     style="fill:#999999;fill-opacity:1" /><rect
     height="2"
     width="2"
     x="81"
     y="54"
     id="rect16"
     style="fill:#999999;fill-opacity:1" /><rect
     height="2"
     width="2"
     x="81"
     y="58"
     id="rect18"
     style="fill:#999999;fill-opacity:1" /><rect
     height="2"
     width="2"
     x="81"
     y="62"
     id="rect20"
     style="fill:#999999;fill-opacity:1" /><rect
     height="2"
     width="2"
     x="81"
     y="66"
     id="rect22"
     style="fill:#999999;fill-opacity:1" /><rect
     height="2"
     width="2"
     x="81"
     y="70"
     id="rect24"
     style="fill:#999999;fill-opacity:1" /><rect
     height="2"
     width="2"
     x="81"
     y="74"
     id="rect26"
     style="fill:#999999;fill-opacity:1" /><rect
     height="2"
     width="2"
     x="77"
     y="74"
     id="rect28"
     style="fill:#999999;fill-opacity:1" /><rect
     height="2"
     width="2"
     x="73"
     y="74"
     id="rect30"
     style="fill:#999999;fill-opacity:1" /><rect
     height="2"
     width="2"
     x="69"
     y="74"
     id="rect32"
     style="fill:#999999;fill-opacity:1" /><rect
     height="7.071"
     transform="matrix(0.9899 -0.1414 0.1414 0.9899 -1.9049 2.1963)"
     width="2.001"
     x="13.5"
     y="10.964"
     id="rect34"
     style="fill:#999999;fill-opacity:1" /><rect
     height="2.001"
     transform="matrix(0.1416 -0.9899 0.9899 0.1416 2.3856 31.751)"
     width="7.071"
     x="15.964"
     y="13.5"
     id="rect36"
     style="fill:#999999;fill-opacity:1" /></svg>
