<?xml version="1.0" encoding="UTF-8" standalone="no"?>
<svg
   xmlns:dc="http://purl.org/dc/elements/1.1/"
   xmlns:cc="http://creativecommons.org/ns#"
   xmlns:rdf="http://www.w3.org/1999/02/22-rdf-syntax-ns#"
   xmlns:svg="http://www.w3.org/2000/svg"
   xmlns="http://www.w3.org/2000/svg"
   xmlns:sodipodi="http://sodipodi.sourceforge.net/DTD/sodipodi-0.dtd"
   xmlns:inkscape="http://www.inkscape.org/namespaces/inkscape"
   width="800px"
   height="800px"
   viewBox="0 0 1024 1024"
   class="icon"
   version="1.1"
   id="svg10"
   sodipodi:docname="weights.svg"
   inkscape:export-filename="C:\Users\keega\Documents\cannlytics\cannlytics\app\assets\images\icons\weights.png"
   inkscape:export-xdpi="96"
   inkscape:export-ydpi="96"
   inkscape:version="1.0.1 (3bc2e813f5, 2020-09-07)">
  <metadata
     id="metadata16">
    <rdf:RDF>
      <cc:Work
         rdf:about="">
        <dc:format>image/svg+xml</dc:format>
        <dc:type
           rdf:resource="http://purl.org/dc/dcmitype/StillImage" />
      </cc:Work>
    </rdf:RDF>
  </metadata>
  <defs
     id="defs14" />
  <sodipodi:namedview
     pagecolor="#ffffff"
     bordercolor="#666666"
     borderopacity="1"
     objecttolerance="10"
     gridtolerance="10"
     guidetolerance="10"
     inkscape:pageopacity="0"
     inkscape:pageshadow="2"
     inkscape:window-width="1920"
     inkscape:window-height="1094"
     id="namedview12"
     showgrid="false"
     inkscape:zoom="0.94125"
     inkscape:cx="400"
     inkscape:cy="400"
     inkscape:window-x="-11"
     inkscape:window-y="-11"
     inkscape:window-maximized="1"
     inkscape:current-layer="svg10" />
  <path
     d="M589.312 271.36h35.328v-46.08c0-5.632-4.608-10.24-10.24-10.24H409.6c-5.632 0-10.24 4.608-10.24 10.24v46.08h35.328v-15.36c0-5.632 4.608-10.24 10.24-10.24h134.144c5.632 0 10.24 4.608 10.24 10.24v15.36z"
     fill="#7ED321"
     id="path2"
     style="fill:#f57c00;fill-opacity:1" />
  <path
     d="M307.2 307.2h409.6v-20.48H307.2v20.48z m-5.12-35.84h419.84c5.632 0 10.24 4.608 10.24 10.24v30.72c0 5.632-4.608 10.24-10.24 10.24H302.08c-5.632 0-10.24-4.608-10.24-10.24v-30.72c0-5.632 4.608-10.24 10.24-10.24zM174.08 368.64c-2.048 0-4.096 0.512-5.632 1.536-4.608 3.072-6.144 9.216-3.072 14.336l337.408 522.24 3.072 3.072c4.608 3.072 11.264 1.536 14.336-3.072l335.872-522.24c1.024-1.536 1.536-3.584 1.536-5.632 0-5.632-4.608-10.24-10.24-10.24H174.08z m0-15.36h673.28c14.336 0 25.6 11.264 25.6 25.6 0 5.12-1.536 9.728-4.096 13.824l-335.872 522.24c-7.68 11.776-23.552 15.36-35.328 7.68-3.072-2.048-5.632-4.608-7.68-7.68l-337.408-522.24c-7.68-11.776-4.096-27.648 7.68-35.328 4.096-2.56 8.704-4.096 13.824-4.096z"
     fill=""
     id="path4" />
  <path
     d="M400.896 721.408c38.912-29.696 67.584-46.592 84.992-50.688 9.216-2.56 8.704-2.56 7.68 7.68-2.048 28.16 12.288 48.128 40.448 54.784 23.552 5.632 57.344 2.56 102.4-8.704 8.192-2.048 13.312-10.24 11.264-18.432-2.048-8.192-10.24-13.312-18.432-11.264-40.448 10.24-70.144 12.8-87.552 8.704-13.312-3.072-17.92-9.216-16.896-22.528 2.56-31.232-16.384-47.104-46.08-39.936-22.016 5.632-53.76 24.064-95.744 56.32-6.656 5.12-8.192 14.848-3.072 21.504 4.608 6.144 14.336 7.68 20.992 2.56z"
     fill="#7ED321"
     id="path6"
     style="fill:#f57c00;fill-opacity:1" />
  <path
     d="M501.76 94.72v112.64c0 4.096 3.584 7.68 7.68 7.68s7.68-3.584 7.68-7.68v-112.64c0-4.096-3.584-7.68-7.68-7.68s-7.68 3.584-7.68 7.68zM440.32 171.52v35.84c0 4.096 3.584 7.68 7.68 7.68s7.68-3.584 7.68-7.68v-35.84c0-4.096-3.584-7.68-7.68-7.68s-7.68 3.584-7.68 7.68zM537.6 171.52v35.84c0 4.096 3.584 7.68 7.68 7.68s7.68-3.584 7.68-7.68v-35.84c0-4.096-3.584-7.68-7.68-7.68s-7.68 3.584-7.68 7.68zM471.04 171.52v35.84c0 4.096 3.584 7.68 7.68 7.68s7.68-3.584 7.68-7.68v-35.84c0-4.096-3.584-7.68-7.68-7.68s-7.68 3.584-7.68 7.68zM568.32 171.52v35.84c0 4.096 3.584 7.68 7.68 7.68s7.68-3.584 7.68-7.68v-35.84c0-4.096-3.584-7.68-7.68-7.68s-7.68 3.584-7.68 7.68z"
     fill=""
     id="path8" />
</svg>
