<?xml version="1.0" encoding="UTF-8" standalone="no"?>
<svg
   xmlns:dc="http://purl.org/dc/elements/1.1/"
   xmlns:cc="http://creativecommons.org/ns#"
   xmlns:rdf="http://www.w3.org/1999/02/22-rdf-syntax-ns#"
   xmlns:svg="http://www.w3.org/2000/svg"
   xmlns="http://www.w3.org/2000/svg"
   xmlns:sodipodi="http://sodipodi.sourceforge.net/DTD/sodipodi-0.dtd"
   xmlns:inkscape="http://www.inkscape.org/namespaces/inkscape"
   fill="#000000"
   width="800px"
   height="800px"
   viewBox="0 0 96 96"
   id="Layer_1_1_"
   version="1.1"
   xml:space="preserve"
   sodipodi:docname="additives.svg"
   inkscape:version="1.0.1 (3bc2e813f5, 2020-09-07)"
   inkscape:export-filename="C:\Users\keega\Documents\cannlytics\cannlytics\app\assets\images\icons\additives.png"
   inkscape:export-xdpi="96"
   inkscape:export-ydpi="96"><metadata
     id="metadata63"><rdf:RDF><cc:Work
         rdf:about=""><dc:format>image/svg+xml</dc:format><dc:type
           rdf:resource="http://purl.org/dc/dcmitype/StillImage" /></cc:Work></rdf:RDF></metadata><defs
     id="defs61" /><sodipodi:namedview
     pagecolor="#ffffff"
     bordercolor="#666666"
     borderopacity="1"
     objecttolerance="10"
     gridtolerance="10"
     guidetolerance="10"
     inkscape:pageopacity="0"
     inkscape:pageshadow="2"
     inkscape:window-width="1920"
     inkscape:window-height="1094"
     id="namedview59"
     showgrid="false"
     inkscape:zoom="0.470625"
     inkscape:cx="489.92731"
     inkscape:cy="586.77571"
     inkscape:window-x="-11"
     inkscape:window-y="-11"
     inkscape:window-maximized="1"
     inkscape:current-layer="Layer_1_1_" /><path
     d="M15.069,84h-0.138c-0.493-3.945-3.852-7-7.931-7c0,4.079,3.055,7.438,7,7.931V94h2v-9.069c3.945-0.493,7-3.852,7-7.931  C18.921,77,15.562,80.055,15.069,84z"
     id="path2"
     style="fill:#7ed321;fill-opacity:1" /><path
     d="M37.069,84h-0.138c-0.493-3.945-3.852-7-7.931-7c0,4.079,3.055,7.438,7,7.931V94h2v-9.069c3.945-0.493,7-3.852,7-7.931  C40.921,77,37.562,80.055,37.069,84z"
     id="path4"
     style="fill:#7ed321;fill-opacity:1" /><path
     d="M58,84.931V94h2v-9.069c3.945-0.493,7-3.852,7-7.931c-4.079,0-7.438,3.055-7.931,7h-0.138c-0.493-3.945-3.852-7-7.931-7  C51,81.079,54.055,84.438,58,84.931z"
     id="path6"
     style="fill:#7ed321;fill-opacity:1" /><path
     d="M82,94v-9.069c3.945-0.493,7-3.852,7-7.931c-4.079,0-7.438,3.055-7.931,7h-0.138c-0.493-3.945-3.852-7-7.931-7  c0,4.079,3.055,7.438,7,7.931V94H82z"
     id="path8"
     style="fill:#7ed321;fill-opacity:1" /><path
     d="M38,12v7h20v-7c0-5.523-4.477-10-10-10S38,6.477,38,12z M47,6v2c-1.654,0-3,1.346-3,3h-2C42,8.243,44.243,6,47,6z"
     id="path10"
     style="fill:#999999;fill-opacity:1" /><path
     d="M49,43v-5.707h6.824C58.512,40.254,60,44.044,60,48.071V50h2v-1.929c0-3.941-1.271-7.678-3.589-10.778H64V28h9.08  C73.033,27.672,73,27.34,73,27v-3h-9v-2.707H32V24h-9v3c0,0.34-0.033,0.672-0.08,1H32v9.293h5.589  C35.271,40.393,34,44.131,34,48.071V50h2v-1.929c0-4.027,1.488-7.817,4.176-10.778H47V43H49z M43,33.293v-8h10v8H43z"
     id="path12"
     style="fill:#999999;fill-opacity:1" /><path
     d="M23.52,15.9c0.64-0.45,0.64-1.35,0-1.8c-2.032-1.429-4.8-1.454-6.871-0.1h-1.299c-2.07-1.354-4.839-1.329-6.871,0.1  c-0.64,0.45-0.64,1.35,0,1.8c1.92,1.35,4.495,1.441,6.52,0.307V22h-4v5c0,2.419,1.718,4.436,4,4.899V42h-2v2h6v-2h-2V31.899  c2.282-0.463,4-2.48,4-4.899v-5h-4v-5.793C19.025,17.341,21.6,17.25,23.52,15.9z"
     id="path14"
     style="fill:#999999;fill-opacity:1" /><rect
     height="14"
     width="2"
     x="15"
     y="47"
     id="rect16"
     style="fill:#f57c00;fill-opacity:1" /><path
     d="M24,54.979c0-2.78-0.919-5.537-2.587-7.761L20.8,46.4L19.2,47.6l0.613,0.817C21.223,50.298,22,52.628,22,54.979V61h2V54.979  z"
     id="path18"
     style="fill:#f57c00;fill-opacity:1" /><path
     d="M28.003,59.083l1.993-0.166l-0.443-5.315c-0.373-4.469-3.096-8.49-7.106-10.496l-0.895,1.789  c3.391,1.695,5.693,5.096,6.008,8.873L28.003,59.083z"
     id="path20"
     style="fill:#f57c00;fill-opacity:1" /><path
     d="M10,54.979c0-2.351,0.777-4.681,2.188-6.562L12.8,47.6L11.2,46.4l-0.612,0.817C8.919,49.441,8,52.198,8,54.979V61h2V54.979z  "
     id="path22"
     style="fill:#f57c00;fill-opacity:1" /><path
     d="M2.003,58.917l1.993,0.166l0.443-5.315c0.315-3.777,2.617-7.178,6.008-8.873l-0.895-1.789  c-4.011,2.006-6.734,6.027-7.106,10.496L2.003,58.917z"
     id="path24"
     style="fill:#f57c00;fill-opacity:1" /><rect
     height="2"
     width="2"
     x="15"
     y="63"
     id="rect26"
     style="fill:#f57c00;fill-opacity:1" /><rect
     height="2"
     width="2"
     x="22"
     y="63"
     id="rect28"
     style="fill:#f57c00;fill-opacity:1" /><rect
     height="2"
     width="2"
     x="28"
     y="62"
     id="rect30"
     style="fill:#f57c00;fill-opacity:1" /><rect
     height="2"
     width="2"
     x="8"
     y="63"
     id="rect32"
     style="fill:#f57c00;fill-opacity:1" /><rect
     height="2"
     width="2"
     x="2"
     y="62"
     id="rect34"
     style="fill:#f57c00;fill-opacity:1" /><path
     d="M72.48,14.1c-0.64,0.45-0.64,1.35,0,1.8c1.92,1.35,4.495,1.441,6.52,0.307V22h-4v5c0,2.419,1.718,4.436,4,4.899V42h-2v2h6  v-2h-2V31.899c2.282-0.463,4-2.48,4-4.899v-5h-4v-5.793c2.025,1.135,4.6,1.043,6.52-0.307c0.64-0.45,0.64-1.35,0-1.8  c-2.032-1.429-4.8-1.454-6.871-0.1h-1.299C77.28,12.646,74.512,12.671,72.48,14.1z"
     id="path36"
     style="fill:#999999;fill-opacity:1" /><rect
     height="14"
     width="2"
     x="79"
     y="47"
     id="rect38"
     style="fill:#f57c00;fill-opacity:1" /><path
     d="M74,54.979c0-2.351,0.777-4.681,2.187-6.562L76.8,47.6L75.2,46.4l-0.613,0.817C72.919,49.441,72,52.198,72,54.979V61h2  V54.979z"
     id="path40"
     style="fill:#f57c00;fill-opacity:1" /><path
     d="M74.447,44.895l-0.895-1.789c-4.011,2.006-6.734,6.027-7.106,10.496l-0.443,5.315l1.993,0.166l0.443-5.315  C68.754,49.99,71.057,46.59,74.447,44.895z"
     id="path42"
     style="fill:#f57c00;fill-opacity:1" /><path
     d="M88,54.979c0-2.78-0.919-5.537-2.587-7.761L84.8,46.4L83.2,47.6l0.613,0.817C85.223,50.298,86,52.628,86,54.979V61h2V54.979  z"
     id="path44"
     style="fill:#f57c00;fill-opacity:1" /><path
     d="M92.003,59.083l1.993-0.166l-0.443-5.315c-0.373-4.469-3.096-8.49-7.106-10.496l-0.895,1.789  c3.391,1.695,5.693,5.096,6.008,8.873L92.003,59.083z"
     id="path46"
     style="fill:#f57c00;fill-opacity:1" /><rect
     height="2"
     width="2"
     x="79"
     y="63"
     id="rect48"
     style="fill:#f57c00;fill-opacity:1" /><rect
     height="2"
     width="2"
     x="72"
     y="63"
     id="rect50"
     style="fill:#f57c00;fill-opacity:1" /><rect
     height="2"
     width="2"
     x="66"
     y="62"
     id="rect52"
     style="fill:#f57c00;fill-opacity:1" /><rect
     height="2"
     width="2"
     x="86"
     y="63"
     id="rect54"
     style="fill:#f57c00;fill-opacity:1" /><rect
     height="2"
     width="2"
     x="92"
     y="62"
     id="rect56"
     style="fill:#f57c00;fill-opacity:1" /></svg>
