<?xml version="1.0" encoding="UTF-8" standalone="no"?>
<svg
   xmlns:dc="http://purl.org/dc/elements/1.1/"
   xmlns:cc="http://creativecommons.org/ns#"
   xmlns:rdf="http://www.w3.org/1999/02/22-rdf-syntax-ns#"
   xmlns:svg="http://www.w3.org/2000/svg"
   xmlns="http://www.w3.org/2000/svg"
   xmlns:sodipodi="http://sodipodi.sourceforge.net/DTD/sodipodi-0.dtd"
   xmlns:inkscape="http://www.inkscape.org/namespaces/inkscape"
   width="800px"
   height="800px"
   viewBox="0 0 1024 1024"
   class="icon"
   version="1.1"
   id="svg10"
   sodipodi:docname="certificate.svg"
   inkscape:export-filename="C:\Users\keega\Documents\cannlytics\cannlytics\app\assets\images\icons\certificate.png"
   inkscape:export-xdpi="96"
   inkscape:export-ydpi="96"
   inkscape:version="1.0.1 (3bc2e813f5, 2020-09-07)">
  <metadata
     id="metadata16">
    <rdf:RDF>
      <cc:Work
         rdf:about="">
        <dc:format>image/svg+xml</dc:format>
        <dc:type
           rdf:resource="http://purl.org/dc/dcmitype/StillImage" />
      </cc:Work>
    </rdf:RDF>
  </metadata>
  <defs
     id="defs14" />
  <sodipodi:namedview
     pagecolor="#ffffff"
     bordercolor="#666666"
     borderopacity="1"
     objecttolerance="10"
     gridtolerance="10"
     guidetolerance="10"
     inkscape:pageopacity="0"
     inkscape:pageshadow="2"
     inkscape:window-width="1920"
     inkscape:window-height="1094"
     id="namedview12"
     showgrid="false"
     inkscape:zoom="0.94125"
     inkscape:cx="400"
     inkscape:cy="400"
     inkscape:window-x="-11"
     inkscape:window-y="-11"
     inkscape:window-maximized="1"
     inkscape:current-layer="svg10" />
  <path
     d="M450.562785 634.416753H338.342906c-7.714976 0-18.366455 9.743293-18.366455 17.458269v96.193002h140.272289v-96.193002c-0.001024-7.714976-1.970979-17.458269-9.685955-17.458269z"
     fill="#E0E0E0"
     id="path2" />
  <path
     d="M843.332363 200.289376H389.649799c3.047083-8.191083 4.802022-12.150447 4.802022-19.688291 0-27.068456-22.027869-48.419537-49.096325-48.419537-8.287328 0-16.551106 1.597261-24.577343 3.854928 2.292479-8.088694 3.535476-16.211176 3.535476-24.388949 0-27.068456-22.027869-49.011343-49.096325-49.011342-13.726207 0-26.151055 5.69997-35.069097 14.809477-8.918041-9.109508-21.34289-14.745996-35.069096-14.745996-27.068456 0-49.096325 22.038108-49.096325 49.106564 0 8.214632 1.211256 16.498888 3.486329 24.551746-8.009855-2.248452-16.258275-3.502712-24.527172-3.502712-27.068456 0-49.096325 22.028893-49.096326 49.097349 0 13.726207 5.65799 26.151055 14.767498 35.069097-9.109508 8.918041-16.679092 21.34289-16.679092 35.069096 0 19.53266 12.832355 36.390932 26.142864 44.291231v173.135937c0 16.280801 8.370263 29.199162 19.623787 35.438719 11.253524 6.233414 26.579039 4.863455 40.394323-3.760731 0.479178-0.301022-0.80375-0.629689-0.365527-0.986002l51.949894-43.401475v360.883741h-81.910826v44.595326c0 54.14408 46.233542 95.676964 100.378646 95.676964H674.999472c54.14408 0 95.482426-41.532884 95.482426-95.676964V395.851473h72.847393c54.14408 0 98.19265-43.636969 98.192651-97.781049s-44.045499-97.781049-98.189579-97.781048z m-708.388373 2.706129c-11.602669 0-21.040843-9.438175-21.040843-21.040844s9.438175-21.040843 21.040843-21.040843c16.561345 0 33.883437 7.232726 46.328763 19.349385 5.561745 5.411234 14.438831 5.287344 19.835731-0.260067 3.64708-3.750492 4.719087-8.999952 3.363463-13.686275 0.374742-3.738205-0.703409-7.611564-3.376774-10.655575-10.842946-12.328603-17.054858-28.315549-17.054858-43.84277 0-11.602669 9.438175-21.040843 21.040844-21.040843s21.040843 9.438175 21.040843 21.040843c0 7.746716 6.280513 14.027229 14.027229 14.027229 7.746716 0 14.027229-6.280513 14.027229-14.027229 0-11.602669 9.438175-21.040843 21.040844-21.040843s21.040843 9.438175 21.040843 21.040843c0 14.595485-5.616011 29.863663-15.404355 41.890221-2.028317 2.49828-3.002032 5.480858-3.081894 8.467531-3.797591 5.411234-3.356296 12.919385 1.424224 17.826868 5.404067 5.548435 14.294463 5.671301 19.83573 0.260067 12.438159-12.116659 29.760251-19.349385 46.32262-19.349385 11.602669 0 21.040843 9.438175 21.040844 21.040843s-9.438175 21.040843-21.040844 21.040844c-7.746716 0-14.027229 6.280513-14.027229 14.027228s6.280513 14.027229 14.027229 14.027229c11.602669 0 21.040843 9.438175 21.040844 21.040844s-9.438175 21.040843-21.040844 21.040843c-16.561345 0-33.877294-7.232726-46.315452-19.342217-5.554578-5.404067-14.424496-5.287344-19.842898 0.260066a13.945318 13.945318 0 0 0-1.921833 2.533093c-5.312941 5.399971-5.422497 14.064089-0.133105 19.556209 11.972291 12.424848 19.116963 29.657862 19.116963 46.089174 0 11.602669-9.438175 21.040843-21.040843 21.040844s-21.040843-9.438175-21.040844-21.040844c0-7.746716-6.280513-14.027229-14.027229-14.027228-7.746716 0-14.027229 6.280513-14.027229 14.027228 0 11.602669-9.438175 21.040843-21.040843 21.040844s-21.040843-9.438175-21.040844-21.040844c0-17.815605 8.485962-36.610044 22.150736-49.034892 5.732734-5.2126 6.150479-14.082519 0.937879-19.815252-4.048443-4.453901-10.303358-5.659014-15.587631-3.539572-3.690083-0.127986-7.423169 1.165181-10.275713 3.944006-12.438159 12.116659-29.760251 19.349385-46.32262 19.349385-11.602669 0-21.040843-9.438175-21.040843-21.040843s9.438175-21.040843 21.040843-21.040844c7.746716 0 14.027229-6.280513 14.027229-14.027229s-6.279489-14.027229-14.026205-14.027228z m20.568833 274.810821c-4.979154 2.966196-9.900971 3.445374-11.387653 2.616027-1.568592-0.870303-4.35356-4.657654-4.35356-10.904379V300.828771c5.119427-0.473035 12.935767-1.542995 18.711504-3.170973-2.270978 8.039548-3.044011 16.303326-3.044011 24.572224 0 27.068456 22.301246 49.096325 49.369702 49.096325a49.260147 49.260147 0 0 0 35.205273-14.767498c8.918041 9.109508 21.410466 14.767498 35.136673 14.767498 27.068456 0 49.130113-22.027869 49.130114-49.096325 0-8.27197-2.741965-16.530629-4.997585-24.55277 5.75014 1.616715 16.050426 2.679508 16.050427 3.152543v168.689203c0 6.246724-0.187371 10.034076-1.755964 10.904379-1.486681 0.828323-4.563457 0.349145-9.542611-2.616027l-75.446014-61.281585c-5.136833-4.150831-12.305054-4.150831-17.441886 0l-75.634409 61.280561z m84.637432 451.489401c-38.671125 0-73.757627-28.33705-73.757627-67.008175v-15.926536h407.506359v15.926536c0 27.445246 14.23303 53.697666 32.444878 67.008175H240.150255z m501.665926-628.107572v561.099397c0 38.671125-31.976963 70.137169-70.648088 70.137168s-70.648087-31.466044-70.648087-70.137168v-44.595326h-349.144896V456.809509l55.093222 43.401475c0.438223 0.356312 1.598285 0.684979 2.077463 0.986002 8.095861 5.054922 16.734382 7.622826 24.473931 7.622826 5.4655 0 9.123842-1.280881 13.781496-3.863119 11.253524-6.239557 16.178412-19.157918 16.178412-35.438719V296.383061c20.477706-7.900299 29.764346-25.803958 29.764347-45.336618 0-7.537844-0.046075-15.943942-3.093158-22.087254h385.092486c-18.237445 21.500568-32.927128 44.763243-32.927128 72.228966z m101.516182 68.042299h-72.847393v-68.042299c0-38.671125 32.820644-70.137169 71.491769-70.137169s70.814981 30.418609 70.81498 69.089734-30.788232 69.089734-69.459356 69.089734z"
     fill="#262626"
     id="path4" />
  <path
     d="M630.21268 311.892876h41.979298v28.668789h-41.979298zM433.626698 438.854656h238.56528v28.668789h-238.56528zM391.647399 494.144464h280.544579v28.668789h-280.544579zM319.975427 550.458157h352.216551v28.668789h-352.216551zM475.605996 311.892876h124.91401v28.668789h-124.91401zM391.647399 311.892876h55.289808v28.668789h-55.289808z"
     fill="#262626"
     id="path6" />
  <path
     d="M240.150255 139.87195c-42.541411 0-77.150783 34.609372-77.150783 77.150783s34.609372 77.150783 77.150783 77.150784 77.150783-34.609372 77.150783-77.150784-34.609372-77.150783-77.150783-77.150783z m0 126.248133c-27.068456 0-49.096325-22.027869-49.096325-49.096326s22.027869-49.096325 49.096325-49.096325 49.096325 22.027869 49.096325 49.096325-22.027869 49.096325-49.096325 49.096326zM531.919689 690.730446h26.621018v57.337578h-26.621018zM587.209497 634.416753h29.692674v113.651271h-29.692674zM643.523189 677.419937h28.668789v70.648087h-28.668789zM841.260019 259.105444c-23.205337 0-44.154031 18.87635-44.154031 42.082711v39.37351h46.226375c23.205337 0 41.046539-17.522773 41.046539-40.72811s-19.912522-40.72811-43.118883-40.728111z m2.072344 52.787432h-17.557586v-10.704721c0-7.733406 8.059001-14.027229 15.792407-14.027229 7.732382 0 14.909818 4.633081 14.909819 12.366487 0 7.732382-5.412258 12.365463-13.14464 12.365463z"
     fill="#FF7415"
     id="path8" />
</svg>
