<?xml version="1.0" ?><!-- Uploaded to: SVG Repo, www.svgrepo.com, Generator: SVG Repo Mixer Tools -->
<svg width="800px" height="800px" viewBox="0 0 2050 2050" data-name="Layer 3" id="Layer_3" xmlns="http://www.w3.org/2000/svg"><defs><style>.cls-1{fill:#fafafa;}.cls-2{fill:#e0e1e2;}.cls-3{fill:#1682fc;}.cls-4{fill:#2e3a58;}</style></defs><title/><path class="cls-1" d="M1455.3,692.2c0-121.7-69.4-220.3-155-220.3s-155,98.6-155,220.3c0,87.9,36.3,163.9,88.8,199.1,27.7,18.6,43.8,50.1,41.9,83.3l-30.3,533a54.7,54.7,0,0,0,54.6,57.8h0a54.7,54.7,0,0,0,54.6-57.8l-30.3-533c-1.9-33.2,14.2-64.7,41.9-83.3C1419,856.1,1455.3,780.1,1455.3,692.2Z"/><rect class="cls-2" height="40.86" width="350.8" x="627.1" y="574.8"/><path class="cls-2" d="M575.5,1475.5V973.1A161.4,161.4,0,0,1,686.7,819.7h-55A161.5,161.5,0,0,0,520.4,973.1v502.4a89.8,89.8,0,0,0,89.9,89.9h55A89.8,89.8,0,0,1,575.5,1475.5Z"/><rect class="cls-3" height="114.17" width="29" x="693.8" y="501.5"/><rect class="cls-3" height="114.17" width="29" x="788" y="501.5"/><rect class="cls-3" height="114.17" width="29" x="882.3" y="501.5"/><rect class="cls-3" height="29.03" width="564.2" x="520.4" y="966.8"/><rect class="cls-3" height="29.03" width="564.2" x="520.4" y="1406.4"/><polygon class="cls-3" points="826.2 1186.9 826.2 1139.5 778.8 1139.5 778.8 1186.9 731.5 1186.9 731.5 1234.3 778.8 1234.3 778.8 1281.6 826.2 1281.6 826.2 1234.3 873.6 1234.3 873.6 1186.9 826.2 1186.9"/><path class="cls-2" d="M1300.3,852.4c-28.8,0-50.3-24.5-60.5-39-21.9-31.2-34.5-75.3-34.5-121.2s12.6-90.1,34.5-121.2c10.2-14.6,31.7-39.1,60.5-39.1s50.2,24.5,60.5,39.1c21.9,31.1,34.5,75.3,34.5,121.2s-12.6,90-34.5,121.2C1350.5,827.9,1329,852.4,1300.3,852.4Z"/><path class="cls-3" d="M1300.3,857.4c-25.4,0-45.3-17.4-57.5-31.9a4.9,4.9,0,0,1,.6-7,5.1,5.1,0,0,1,7.1.6c10.8,12.9,28.2,28.3,49.8,28.3,13.5,0,26.9-6,39.9-17.9a5,5,0,0,1,7,.3,5,5,0,0,1-.3,7.1C1332.1,850.5,1316.4,857.4,1300.3,857.4Zm78.2-71.7a5.8,5.8,0,0,1-1.9-.3,5,5,0,0,1-2.7-6.6,217.3,217.3,0,0,0,14.9-60,5,5,0,0,1,10,1,228.7,228.7,0,0,1-15.7,62.8A4.9,4.9,0,0,1,1378.5,785.7Zm-161.6-14.1a5,5,0,0,1-4.8-3.5,245.1,245.1,0,0,1-11.5-63.6,5,5,0,0,1,10-.5,228.7,228.7,0,0,0,11,61,4.9,4.9,0,0,1-3.2,6.3A4,4,0,0,1,1216.9,771.6Zm175.7-110.7a4.9,4.9,0,0,1-4.9-4.2,212.8,212.8,0,0,0-17.4-59.4,5,5,0,0,1,9-4.2,221.1,221.1,0,0,1,18.3,62.1,5,5,0,0,1-4.2,5.7Zm-182-14.8h-1a5,5,0,0,1-3.9-5.9c4.8-22.6,12.5-43.1,22.8-60.8a5.1,5.1,0,0,1,6.8-1.8,5.1,5.1,0,0,1,1.8,6.9c-9.6,16.5-17.1,36.5-21.6,57.7A5,5,0,0,1,1210.6,646.1Zm125.9-95.9a4.9,4.9,0,0,1-3-1c-10.8-8.1-22-12.3-33.2-12.3a50.2,50.2,0,0,0-21.3,5,5,5,0,1,1-4.2-9,58.5,58.5,0,0,1,25.5-6c13.4,0,26.6,4.8,39.2,14.3a5,5,0,0,1,1,7A4.8,4.8,0,0,1,1336.5,550.2Z"/><path class="cls-4" d="M1300.3,1579.9a69.3,69.3,0,0,1-69.1-73.1l30.3-533c1.6-27.7-12-54.6-35.5-70.4-28.4-19.1-52.3-48.8-69.2-85.9s-26-80.8-26-125.3c0-61.8,17.1-120.1,48-164.1,32.1-45.6,75.2-70.7,121.5-70.7s89.4,25.1,121.4,70.7c31,44,48.1,102.3,48.1,164.1,0,44.5-9,87.9-26,125.3s-40.8,66.8-69.2,85.9c-23.5,15.8-37.1,42.7-35.6,70.4l30.3,533a69.1,69.1,0,0,1-69,73.1Zm0-1093.5c-36.5,0-71.2,20.8-97.7,58.4-27.6,39.2-42.8,91.5-42.8,147.4,0,80,32.4,153.5,82.4,187.1,32,21.5,50.5,58.3,48.3,96.1l-30.3,533a40.2,40.2,0,1,0,80.2,0l-30.3-533c-2.2-37.8,16.3-74.6,48.3-96.1,50-33.6,82.4-107.1,82.4-187.1,0-55.9-15.2-108.2-42.8-147.4C1371.5,507.2,1336.8,486.4,1300.3,486.4Z"/><path class="cls-3" d="M802.5,1380.9a169.7,169.7,0,0,1-58.3-10.3,4.9,4.9,0,0,1-3-6.4,5,5,0,0,1,6.4-3,158,158,0,0,0,54.9,9.7h5.6a5,5,0,0,1,.3,10Zm67.2-14.2a4.9,4.9,0,0,1-4.5-3,5,5,0,0,1,2.5-6.6,159.3,159.3,0,0,0,50.1-35.1,5,5,0,0,1,7.1-.1,4.8,4.8,0,0,1,.1,7,168.5,168.5,0,0,1-53.2,37.3A5.4,5.4,0,0,1,869.7,1366.7Zm-177.9-28.3a5.1,5.1,0,0,1-3.3-1.3,171.9,171.9,0,0,1-39.2-52,5,5,0,1,1,9-4.4,159.4,159.4,0,0,0,36.9,48.9,5,5,0,0,1,.3,7.1A5,5,0,0,1,691.8,1338.4Zm264.1-60.9a5.8,5.8,0,0,1-1.9-.3,5,5,0,0,1-2.8-6.5,158.1,158.1,0,0,0,11.7-60.1,163,163,0,0,0-1.5-22.1,5,5,0,1,1,9.9-1.3,181.5,181.5,0,0,1,1.6,23.4,169.7,169.7,0,0,1-12.4,63.8A4.9,4.9,0,0,1,955.9,1277.5ZM637.6,1227a5.1,5.1,0,0,1-5-4.7c-.3-3.9-.4-7.8-.4-11.7a169.2,169.2,0,0,1,8.4-52.9,5,5,0,0,1,6.3-3.2,5.1,5.1,0,0,1,3.2,6.3,158.2,158.2,0,0,0-7.9,49.8c0,3.6.1,7.4.4,11a4.9,4.9,0,0,1-4.7,5.3Zm308.3-93.9a5,5,0,0,1-4.3-2.5,161.8,161.8,0,0,0-40.2-46.2,5.2,5.2,0,0,1-.8-7.1,5,5,0,0,1,7-.8,169.8,169.8,0,0,1,42.6,49.1,5.1,5.1,0,0,1-1.8,6.9A5.7,5.7,0,0,1,945.9,1133.1Zm-269.9-24a4.8,4.8,0,0,1-3.2-1.1,5.1,5.1,0,0,1-.6-7.1,171.1,171.1,0,0,1,50.6-40.9,5,5,0,0,1,4.6,8.9,160.8,160.8,0,0,0-47.6,38.5A5.2,5.2,0,0,1,676,1109.1Zm172.4-52.4-1.4-.2a159,159,0,0,0-44.5-6.3h0a150.7,150.7,0,0,0-16.5.9,5,5,0,0,1-5.5-4.5,5,5,0,0,1,4.5-5.5,170.9,170.9,0,0,1,17.5-.9h0a169.8,169.8,0,0,1,47.2,6.7,5,5,0,0,1,3.5,6.1A5.2,5.2,0,0,1,848.4,1056.7Z"/><path class="cls-4" d="M994.8,1579.9H610.3a104.5,104.5,0,0,1-104.4-104.4V973.1c0-92.1,71.2-167.9,161.4-175.3V615.7a14.5,14.5,0,0,1,14.5-14.5H923.3a14.5,14.5,0,0,1,14.5,14.5V797.8c90.2,7.4,161.4,83.2,161.4,175.3v502.4A104.5,104.5,0,0,1,994.8,1579.9ZM696.3,630.2V811.7a14.5,14.5,0,0,1-14.5,14.5c-81,0-146.9,65.9-146.9,146.9v502.4a75.5,75.5,0,0,0,75.4,75.4H994.8a75.4,75.4,0,0,0,75.3-75.4V973.1c0-81-65.8-146.9-146.8-146.9a14.5,14.5,0,0,1-14.5-14.5V630.2Z"/><path class="cls-3" d="M978,630.2H627.1a14.5,14.5,0,0,1-14.5-14.5V501.5A14.5,14.5,0,0,1,627.1,487H978a14.5,14.5,0,0,1,14.5,14.5V615.7A14.5,14.5,0,0,1,978,630.2Zm-336.4-29H963.4V516H641.6Z"/></svg>