<?xml version="1.0" encoding="UTF-8" standalone="no"?>
<svg
   xmlns:dc="http://purl.org/dc/elements/1.1/"
   xmlns:cc="http://creativecommons.org/ns#"
   xmlns:rdf="http://www.w3.org/1999/02/22-rdf-syntax-ns#"
   xmlns:svg="http://www.w3.org/2000/svg"
   xmlns="http://www.w3.org/2000/svg"
   xmlns:sodipodi="http://sodipodi.sourceforge.net/DTD/sodipodi-0.dtd"
   xmlns:inkscape="http://www.inkscape.org/namespaces/inkscape"
   width="800px"
   height="800px"
   viewBox="0 0 64 64"
   id="Layer_1"
   version="1.1"
   xml:space="preserve"
   sodipodi:docname="driver-orange.svg"
   inkscape:version="1.0.1 (3bc2e813f5, 2020-09-07)"
   inkscape:export-filename="C:\Users\keega\Documents\cannlytics\cannlytics\app\assets\images\icons\driver.png"
   inkscape:export-xdpi="96"
   inkscape:export-ydpi="96"><metadata
   id="metadata35"><rdf:RDF><cc:Work
       rdf:about=""><dc:format>image/svg+xml</dc:format><dc:type
         rdf:resource="http://purl.org/dc/dcmitype/StillImage" /><dc:title /></cc:Work></rdf:RDF></metadata><defs
   id="defs33" /><sodipodi:namedview
   pagecolor="#ffffff"
   bordercolor="#666666"
   borderopacity="1"
   objecttolerance="10"
   gridtolerance="10"
   guidetolerance="10"
   inkscape:pageopacity="0"
   inkscape:pageshadow="2"
   inkscape:window-width="1920"
   inkscape:window-height="1094"
   id="namedview31"
   showgrid="false"
   inkscape:zoom="0.66556426"
   inkscape:cx="289.09704"
   inkscape:cy="341.34481"
   inkscape:window-x="-11"
   inkscape:window-y="-11"
   inkscape:window-maximized="1"
   inkscape:current-layer="Layer_1"
   inkscape:document-rotation="0" />

<style
   type="text/css"
   id="style2">
	.st0{fill:none;stroke:#126BB5;stroke-width:2;stroke-linecap:round;stroke-linejoin:round;stroke-miterlimit:10;}
	.st1{fill:none;stroke:#00B1E4;stroke-width:2;stroke-linecap:round;stroke-linejoin:round;stroke-miterlimit:10;}
	.st2{fill:none;stroke:#00B1E4;stroke-width:2;stroke-linejoin:round;stroke-miterlimit:10;}
	.st3{fill:#FFFFFF;stroke:#00B1E4;stroke-width:2;stroke-linecap:round;stroke-linejoin:round;stroke-miterlimit:10;}
	.st4{fill:#00B1E4;}
	.st5{fill:none;stroke:#126BB5;stroke-width:2;stroke-miterlimit:10;}
	.st6{fill:none;stroke:#00B1E4;stroke-width:2;stroke-miterlimit:10;}
	.st7{fill:none;stroke:#2B3088;stroke-width:2;stroke-linejoin:round;stroke-miterlimit:10;}
	.st8{fill:none;stroke:#126BB5;stroke-width:2;stroke-linecap:round;stroke-miterlimit:10;}
	.st9{fill:none;stroke:#00B1E4;stroke-width:2;stroke-linecap:round;stroke-miterlimit:10;}
</style>

<path
   class="st1"
   d="M25,38h-8v-1c0-2.2,1.8-4,4-4h0c2.2,0,4,1.8,4,4V38z"
   id="path4"
   style="stroke:#7ed321;stroke-opacity:1" />

<circle
   class="st1"
   cx="21"
   cy="28"
   r="2"
   id="circle6"
   style="stroke:#7ed321;stroke-opacity:1" />

<line
   class="st1"
   x1="32"
   x2="46"
   y1="27"
   y2="27"
   id="line8"
   style="stroke:#f57c00;stroke-opacity:1" />

<line
   class="st1"
   x1="32"
   x2="46"
   y1="32"
   y2="32"
   id="line10"
   style="stroke:#f57c00;stroke-opacity:1" />

<line
   class="st1"
   x1="32"
   x2="46"
   y1="37"
   y2="37"
   id="line12"
   style="stroke:#f57c00;stroke-opacity:1" />

<g
   id="g20"
   style="stroke:#999999;stroke-opacity:1">

<g
   id="g16"
   style="stroke:#999999;stroke-opacity:1">

<path
   class="st0"
   d="M52,38c0,2.8-2.3,5-5,5H17c-2.8,0-5-2.3-5-5V26c0-2.8,2.3-5,5-5h30c2.8,0,5,2.3,5,5V38z"
   id="path14"
   style="stroke:#999999;stroke-opacity:1" />

</g>

<path
   class="st0"
   d="M36,21h-8v-1c0-2.2,1.8-4,4-4h0c2.2,0,4,1.8,4,4V21z"
   id="path18"
   style="stroke:#999999;stroke-opacity:1" />

</g>

<polyline
   class="st1"
   points="18,12 12,12 12,18 "
   id="polyline22"
   style="stroke:#f57c00;stroke-opacity:1" />

<polyline
   class="st1"
   points="46,12 52,12 52,18 "
   id="polyline24"
   style="stroke:#f57c00;stroke-opacity:1" />

<polyline
   class="st1"
   points="52,46 52,52 46,52 "
   id="polyline26"
   style="stroke:#f57c00;stroke-opacity:1" />

<polyline
   class="st1"
   points="12,46 12,52 18,52 "
   id="polyline28"
   style="stroke:#f57c00;stroke-opacity:1" />

</svg>
