<?xml version="1.0" ?>
<!DOCTYPE svg  PUBLIC '-//W3C//DTD SVG 1.1//EN'  'http://www.w3.org/Graphics/SVG/1.1/DTD/svg11.dtd'>
<!-- Uploaded to: SVG Repo, www.svgrepo.com, Generator: SVG Repo Mixer Tools -->
<svg fill="#000000" width="800px" height="800px" viewBox="0 0 512 512" version="1.1" xml:space="preserve" xmlns="http://www.w3.org/2000/svg" xmlns:xlink="http://www.w3.org/1999/xlink">
<g id="B_-_147_x2C__team_x2C__Business_x2C__communication_x2C__hierarchy_x2C__people_x2C__social_x2C__structure">
<g>
<path d="M285.286,377.092l-4.296-3.976l-20.192,27.503l6.577,6.077L285.286,377.092    z M243.71,408.295l7.583-7.584l-20.192-27.595l-4.479,4.066L243.71,408.295z M292.14,446.168c-1.921,0-3.564-1.599-3.564-3.608    s1.644-3.609,3.564-3.609h19.187c2.006,0,3.65,1.6,3.65,3.609s-1.645,3.608-3.65,3.608H292.14z M292.14,434.199    c-1.921,0-3.564-1.645-3.564-3.655c0-1.965,1.644-3.609,3.564-3.609h19.187c2.006,0,3.65,1.645,3.65,3.609    c0,2.011-1.645,3.655-3.65,3.655H292.14z M244.9,417.157c-0.092,0.093-0.276,0.184-0.46,0.275v0.045h-0.092l0,0l-0.092,0.046l0,0    l0,0l-0.092,0.046l-0.092,0.046h-0.085v0.046h-0.093l0,0l-0.091,0.045l0,0l0,0h-0.092l0,0l-0.093,0.047l0,0h-0.091l0,0h-0.092l0,0    l-0.092,0.044l0,0h-0.092l0,0h-0.086l0,0h-0.092l0,0h-0.092v0.046h-0.092h-0.092h-0.092l-0.092-0.046h-0.092h-0.092h-0.085l0,0    h-0.093v-0.044h-0.091l0,0l0,0h-0.092l0,0l-0.092-0.047l0,0h-0.092l-0.092-0.045l0,0h-0.092l0,0l-0.177-0.092h-0.093l-0.092-0.092    h-0.091l0,0v-0.045h-0.093v-0.046h-0.092l0,0v-0.046l-0.184-0.091l0,0l-0.091-0.047l-0.178-0.09v-0.047v-0.045h-0.092v-0.046    l-0.092-0.046l0,0v-0.046h-0.092v-0.046v-0.045l-0.092-0.046l0,0v-0.046v-0.046h-0.092v-0.045l0,0l-0.092-0.047l0,0l-0.092-0.137    v-0.045l-0.177-0.184l0,0v-0.091l-0.093-0.184l-0.091-0.137l-18.825-34.402c-7.308,4.067-13.616,7.447-19.002,10.327    c-12.978,6.943-19.739,10.553-22.936,15.624c-3.38,5.482-3.196,14.025-3.019,31.844l0.185,15.396    c26.684,5.984,53.362,8.908,80.04,8.863c26.593-0.047,53.363-3.061,80.042-8.863l0.092-14.985    c0.276-17.954,0.369-26.589-3.104-32.209c-3.197-5.116-10.052-8.816-23.205-15.898c-5.395-2.833-11.611-6.214-18.643-10.188    l-19.923,32.711c-0.184,0.275-0.361,0.549-0.546,0.777c-1.367,1.462-3.656,1.554-5.117,0.183l-9.504-8.863l-10.78,10.691v0.045    h-0.093v0.046v0.046h-0.091v0.046l0,0l-0.092,0.046l0,0l-0.093,0.045l0,0v0.047L244.9,417.157L244.9,417.157z M427.459,217.371    c-2.008,0-3.65-1.598-3.65-3.607c0-1.966,1.643-3.609,3.65-3.609h19.186c1.92,0,3.564,1.644,3.564,3.609    c0,2.009-1.645,3.607-3.564,3.607H427.459z M427.459,229.386c-2.008,0-3.65-1.598-3.65-3.607c0-2.012,1.643-3.609,3.65-3.609    h19.186c1.92,0,3.564,1.598,3.564,3.609c0,2.009-1.645,3.607-3.564,3.607H427.459z M392.098,48.562    c-10.419,0-19.917,4.202-26.678,11.009c-6.854,6.854-11.057,16.266-11.057,26.682c0,11.65,4.564,28.462,13.063,40.798    c6.215,9,14.529,15.532,24.672,15.532c10.05,0,18.363-6.532,24.58-15.532c8.498-12.336,13.063-29.148,13.063-40.798    c0-10.416-4.203-19.827-11.05-26.634C411.836,52.81,402.424,48.562,392.098,48.562z M420.604,160.31l-4.381-3.975l-20.106,27.503    l6.491,6.077L420.604,160.31z M378.942,191.467l7.584-7.537l-20.192-27.595l-4.387,4.021L378.942,191.467z M121.547,48.562    c-10.419,0-19.831,4.248-26.686,11.057c-6.761,6.807-11.057,16.218-11.057,26.634c0,11.65,4.571,28.462,13.07,40.798    c6.215,9,14.529,15.532,24.672,15.532c10.05,0,18.364-6.532,24.58-15.532c8.584-12.336,13.063-29.148,13.063-40.798    c0-10.416-4.202-19.827-11.057-26.634C141.371,52.81,131.867,48.562,121.547,48.562z M150.053,160.31l-4.387-3.975l-20.101,27.503    l6.485,6.077L150.053,160.31z M108.385,191.467l7.675-7.537l-20.285-27.595l-4.387,4.021L108.385,191.467z M156.907,217.371    c-2.012,0-3.657-1.598-3.657-3.607c0-1.966,1.645-3.609,3.657-3.609h19.187c1.921,0,3.565,1.644,3.565,3.609    c0,2.009-1.645,3.607-3.565,3.607H156.907z M156.907,229.386c-2.012,0-3.657-1.598-3.657-3.607c0-2.012,1.645-3.609,3.657-3.609    h19.187c1.921,0,3.565,1.598,3.565,3.609c0,2.009-1.645,3.607-3.565,3.607H156.907z M172.259,404.776    c1.822,0.96,2.466,3.244,1.46,5.026c-0.915,1.827-3.197,2.512-5.025,1.507c-28.966-15.761-53.178-39.106-69.99-67.433    c-16.267-27.32-25.586-59.254-25.586-93.336l0.091-5.758l0.092-1.233c-10.873-1.415-21.745-3.335-32.532-5.756l-0.178-15.442    c-0.276-17.772-0.369-26.314,3.013-31.843c3.104-5.024,9.866-8.634,22.844-15.58c5.393-2.877,11.786-6.257,19.001-10.37    l18.824,34.447l0.093,0.137l0.092,0.183l0.091,0.046l0,0l0.185,0.229v0.044l0.085,0.093l0,0v0.044v0.045l0.092,0.046l0,0v0.046    v0.045h0.091v0.046l0,0l0.093,0.046v0.046l0.092,0.045l0,0v0.046h0.091v0.046l0.093,0.045l0,0l0.184,0.092v0.046v0.045    l0.178,0.092h0.092v0.045l0,0l0.091,0.046l0,0l0,0l0.093,0.044l0,0l0.184,0.093l0,0l0.276,0.044v0.048h0.086l0,0l0.091,0.044l0,0    l0,0l0.093,0.045l0,0h0.091l0,0h0.092l0,0l0.093,0.046l0,0h0.091l0,0h0.185l0,0h0.177l0,0h0.184h0.091l0,0l0,0h0.092l0,0h0.093    l0,0h0.091l0,0l0.092-0.046l0,0h0.085l0,0h0.092l0,0l0.092-0.045l0,0h0.092l0,0v-0.044h0.092l0,0h0.092v-0.048h0.092l0,0    l0.184-0.044v-0.045l0,0l0.092-0.048l0,0h0.085v-0.044h0.092c0.093-0.091,0.276-0.183,0.46-0.274v-0.046l0,0l0.092-0.046l0,0    l0.092-0.045l0,0v-0.046l0,0l0.086-0.046v-0.045l0.091-0.046l0,0v-0.046l0.093-0.046l10.695-10.645l9.59,8.864    c1.46,1.369,3.657,1.279,5.025-0.183c0.276-0.229,0.461-0.503,0.553-0.778l19.917-32.71c7.038,3.976,13.339,7.356,18.64,10.189    c13.247,7.081,20.101,10.782,23.298,15.897c3.38,5.619,3.289,14.254,3.11,32.209l-0.184,14.984    c-26.685,5.802-53.363,8.818-80.042,8.864c-4.202,0-8.32-0.091-12.523-0.229c0,1.371-0.085,2.742-0.085,4.113    c0,29.148,8.498,56.331,23.021,79.22c14.99,23.619,36.551,42.717,62.137,54.73c1.829,0.869,2.65,3.107,1.736,4.935    c-0.821,1.874-3.11,2.696-4.939,1.828c-26.862-12.608-49.521-32.665-65.235-57.52c-15.352-24.029-24.218-52.584-24.218-83.194    c0-1.462,0-2.925,0.092-4.433c-6.669-0.366-13.339-0.913-20.008-1.644l-0.092,0.501v5.575c0,32.711,8.958,63.367,24.488,89.544    C121.271,367.223,144.476,389.654,172.259,404.776z M438.791,243.457l0.092,1.279l0.093,5.804    c0,34.127-9.413,66.062-25.587,93.382c-16.904,28.28-41.115,51.672-70.083,67.433c-1.829,0.959-4.11,0.319-5.116-1.507    c-0.914-1.782-0.277-4.067,1.552-5.072c27.776-15.076,50.988-37.508,67.163-64.646c15.621-26.224,24.572-56.833,24.572-89.59    l-0.085-5.575v-0.593c-6.677,0.73-13.438,1.325-20.107,1.689l0.092,4.479c0,30.61-8.859,59.165-24.119,83.24    c-15.806,24.809-38.472,44.865-65.335,57.474c-1.828,0.868-4.11,0.046-4.932-1.783c-0.916-1.872-0.093-4.11,1.736-4.979    c25.586-11.968,47.146-31.065,62.131-54.73c14.621-22.89,23.027-50.072,23.027-79.22l-0.093-4.113    c-4.11,0.137-8.313,0.183-12.517,0.229c-26.586,0.046-53.363-2.879-79.949-8.864l-0.184-15.442    c-0.277-17.772-0.369-26.314,3.012-31.843c3.111-5.024,9.873-8.634,22.844-15.58c5.393-2.877,11.787-6.257,19.009-10.37    l18.825,34.447l0.085,0.137l0.093,0.183l0,0l0.092,0.046l0,0v0.091l0,0l0.092,0.046v0.044l0,0v0.048l0.092,0.044l0.092,0.093l0,0    v0.044v0.045l0.093,0.046l0,0v0.046l0.093,0.045l0,0v0.046h0.092v0.046v0.046l0.086,0.045l0,0v0.046h0.091v0.046v0.045h0.093    l0.092,0.092l0.092,0.046v0.045l0.184,0.092h0.093v0.045l0,0l0.093,0.046l0,0l0,0l0.092,0.044l0,0l0.177,0.093l0,0l0.185,0.044    l0.092,0.048l0,0h0.093l0.091,0.044l0,0h0.094v0.045l0,0h0.092l0,0h0.085l0,0l0.093,0.046l0,0h0.092l0,0h0.184l0,0h0.185l0,0    h0.185h0.086l0,0l0,0h0.091l0,0h0.093l0,0h0.092l0,0l0.092-0.046l0,0l0,0h0.093h0.091l0,0v-0.045h0.093l0,0h0.093v-0.044h0.085    l0,0h0.093v-0.048h0.092l0,0l0.092-0.044l0.092-0.045l0,0l0.092-0.048l0,0h0.093v-0.044h0.092l0.093-0.046l0.177-0.137l0,0    l0.093-0.045l0.092-0.046v-0.046l0,0l0.092-0.046l0,0v-0.045h0.093v-0.046l0,0l0.091-0.046v-0.045l0.093-0.046l0,0v-0.046    l0.093-0.046l10.688-10.645l9.598,8.864c1.367,1.369,3.65,1.279,5.024-0.183c0.269-0.229,0.454-0.503,0.546-0.778l19.916-32.71    c7.038,3.976,13.346,7.356,18.641,10.189c13.254,7.081,20.102,10.782,23.305,15.897c3.381,5.619,3.289,14.254,3.012,32.209    l-0.092,14.984C460.444,240.123,449.663,242.041,438.791,243.457z M180.389,107.679c-1.829,0.868-4.019,0.138-4.841-1.644    c-0.914-1.783-0.185-3.929,1.552-4.843c12.063-6.031,24.942-10.692,38.373-13.844c12.978-3.106,26.593-4.706,40.569-4.706    c13.163,0,26.133,1.462,38.563,4.248c12.787,2.879,25.127,7.083,36.638,12.565c1.829,0.822,2.559,2.969,1.735,4.797    c-0.821,1.783-3.012,2.559-4.84,1.691c-11.057-5.209-22.844-9.274-35.092-12.016c-11.871-2.65-24.211-4.067-37.005-4.067    c-13.431,0-26.494,1.554-38.925,4.477C204.238,97.4,191.899,101.877,180.389,107.679z M305.295,76.932    c-1.922-0.549-3.104-2.513-2.559-4.431c0.453-1.92,2.467-3.062,4.387-2.559c5.664,1.508,11.326,3.289,16.721,5.253l0.092,0.048    c5.479,2.009,10.872,4.293,16.082,6.761c1.828,0.822,2.65,3.015,1.736,4.797c-0.822,1.781-3.02,2.559-4.756,1.735    c-5.025-2.375-10.229-4.568-15.438-6.486l-0.184-0.046C316.074,80.084,310.688,78.395,305.295,76.932z M204.416,77.525    c-1.914,0.549-3.927-0.593-4.473-2.467c-0.46-1.918,0.638-3.928,2.559-4.477c8.591-2.421,17.45-4.248,26.402-5.481    c8.958-1.233,18.002-1.873,27.138-1.873c1.921,0,3.565,1.644,3.565,3.608c0,2.011-1.645,3.609-3.565,3.609    c-8.952,0-17.634,0.641-26.131,1.783C221.235,73.415,212.736,75.195,204.416,77.525z M130.959,403.589    c1.46,1.326,1.645,3.609,0.27,5.117c-1.277,1.462-3.565,1.645-5.118,0.32c-15.806-13.843-29.421-30.246-40.202-48.52    c-10.51-17.863-18.272-37.555-22.751-58.479c-0.46-1.918,0.822-3.838,2.743-4.248c1.915-0.412,3.834,0.822,4.295,2.786    c4.289,20.147,11.873,39.107,21.929,56.332C102.538,374.441,115.606,390.249,130.959,403.589z M422.341,352.648    c0.915-1.735,3.11-2.374,4.848-1.417c1.729,1.007,2.374,3.199,1.368,4.937c-7.039,12.7-15.443,24.578-25.035,35.358    c-9.596,10.783-20.375,20.561-32.255,29.059c-1.552,1.188-3.841,0.821-5.024-0.823c-1.099-1.599-0.73-3.838,0.822-5.025    c11.325-8.131,21.744-17.543,31.064-28.005C407.357,376.315,415.486,364.893,422.341,352.648z M446.099,260.5    c0-1.964,1.552-3.609,3.564-3.609s3.657,1.646,3.657,3.609c0,9.96-0.736,19.781-2.197,29.33c-1.46,9.777-3.656,19.325-6.484,28.6    c-0.546,1.874-2.559,2.971-4.479,2.375c-1.922-0.593-3.014-2.603-2.375-4.522c2.742-8.862,4.748-18.046,6.215-27.503    C445.369,279.597,446.099,270.14,446.099,260.5z M256.772,265.343c-10.412,0-19.825,4.248-26.678,11.057    c-6.762,6.807-10.964,16.264-10.964,26.634c0,11.649,4.479,28.463,13.069,40.799c6.209,8.999,14.431,15.533,24.573,15.533    s18.463-6.534,24.672-15.533c8.499-12.336,13.069-29.149,13.069-40.799c0-10.37-4.295-19.827-11.057-26.634    C276.604,269.591,267.191,265.343,256.772,265.343z" style="fill-rule:evenodd;clip-rule:evenodd;"/>
</g>
</g>
<g id="Layer_1"/>
</svg>