<?xml version="1.0" ?><!-- Uploaded to: SVG Repo, www.svgrepo.com, Generator: SVG Repo Mixer Tools -->
<svg width="800px" height="800px" viewBox="0 0 2050 2050" data-name="Layer 3" id="Layer_3" xmlns="http://www.w3.org/2000/svg"><defs><style>.cls-1{fill:#1682fc;}.cls-2{fill:#e0e1e2;}.cls-3{fill:#2e3a58;}</style></defs><title/><path class="cls-1" d="M1535.9,691.4a5,5,0,0,1-3.5-1.5l-29.1-29.1a5,5,0,1,1,7.1-7.1l29.1,29.1a5.1,5.1,0,0,1,0,7.1A5.1,5.1,0,0,1,1535.9,691.4Zm-74-74a5,5,0,0,1-3.5-1.5L1413.5,571a5,5,0,0,1,7.1-7.1l44.9,44.9a5.1,5.1,0,0,1,0,7.1A5.1,5.1,0,0,1,1461.9,617.4Zm-89.8-89.9a5,5,0,0,1-3.5-1.4l-45-45a5,5,0,0,1,0-7,5,5,0,0,1,7.1,0l44.9,44.9a5,5,0,0,1-3.5,8.5Z"/><path class="cls-1" d="M1207.6,930.8a4.7,4.7,0,0,1-3.5-1.5l-44.9-44.9a4.9,4.9,0,0,1,7-7l44.9,44.9a4.8,4.8,0,0,1,0,7A4.7,4.7,0,0,1,1207.6,930.8ZM1117.8,841a5.1,5.1,0,0,1-3.6-1.5l-44.9-44.9a5,5,0,1,1,7.1-7.1l44.9,44.9a5,5,0,0,1,0,7.1A5,5,0,0,1,1117.8,841Z"/><path class="cls-1" d="M1148.4,1078.9a5,5,0,0,1-3.6-1.4l-29.1-29.1a5,5,0,1,1,7.1-7.1l29.1,29.1a5.1,5.1,0,0,1,0,7.1A4.9,4.9,0,0,1,1148.4,1078.9Zm-74-74a5,5,0,0,1-3.6-1.4l-44.9-44.9a5,5,0,1,1,7.1-7.1l44.9,44.9a5.1,5.1,0,0,1,0,7.1A4.9,4.9,0,0,1,1074.4,1004.9Zm-89.9-89.8a4.9,4.9,0,0,1-3.5-1.5l-44.9-44.9a4.9,4.9,0,0,1,7-7l45,44.9a5,5,0,0,1,0,7A5.1,5.1,0,0,1,984.5,915.1Z"/><path class="cls-1" d="M1044.7,1182.6a5,5,0,0,1-3.6-1.4l-29.1-29.1a5,5,0,1,1,7.1-7.1l29.1,29.1a5,5,0,0,1-3.5,8.5Zm-74-74a5.4,5.4,0,0,1-3.6-1.4l-44.9-44.9a5.1,5.1,0,0,1,0-7.1,5,5,0,0,1,7.1,0l44.9,44.9a5.1,5.1,0,0,1,0,7.1A5.4,5.4,0,0,1,970.7,1108.6Zm-89.9-89.8a4.9,4.9,0,0,1-3.5-1.5l-44.9-44.9a5,5,0,0,1,0-7.1,5,5,0,0,1,7,0l45,45a5,5,0,0,1,0,7A5.1,5.1,0,0,1,880.8,1018.8Z"/><path class="cls-1" d="M1405.8,732.4a5,5,0,0,1-3.5-1.5L1357.4,686a5,5,0,0,1,0-7.1,5.1,5.1,0,0,1,7.1,0l44.9,44.9a5.1,5.1,0,0,1,0,7.1A5.1,5.1,0,0,1,1405.8,732.4ZM1316,642.5a5,5,0,0,1-3.5-1.4l-45-45a5,5,0,0,1,0-7,5,5,0,0,1,7.1,0l44.9,44.9a5,5,0,0,1-3.5,8.5Z"/><path class="cls-1" d="M719.5,1517.2a5,5,0,0,1-3.5-1.4l-45-45a5,5,0,0,1,0-7,5,5,0,0,1,7.1,0l44.9,44.9a5,5,0,0,1,0,7.1A5.2,5.2,0,0,1,719.5,1517.2Zm-89.8-89.8a5.1,5.1,0,0,1-3.6-1.5L581.2,1381a5,5,0,0,1,0-7.1,5.1,5.1,0,0,1,7.1,0l44.9,45a5,5,0,0,1-3.5,8.5Zm-89.9-89.8a4.9,4.9,0,0,1-3.5-1.5l-44.9-44.9a5,5,0,0,1,0-7.1,4.8,4.8,0,0,1,7,0l45,44.9a5.1,5.1,0,0,1,0,7.1A5.1,5.1,0,0,1,539.8,1337.6Z"/><path class="cls-1" d="M739.5,1376.2a5,5,0,0,1-3.5-1.5l-44.9-44.9a4.8,4.8,0,0,1,0-7,5,5,0,0,1,7.1,0l44.9,44.9a5,5,0,0,1,0,7A5.1,5.1,0,0,1,739.5,1376.2Zm-89.8-89.8a4.7,4.7,0,0,1-3.5-1.5L601.3,1240a5,5,0,0,1,0-7.1,5,5,0,0,1,7,0l44.9,44.9a5,5,0,0,1,0,7.1A4.7,4.7,0,0,1,649.7,1286.4Z"/><path class="cls-2" d="M960.5,664.8A139.7,139.7,0,0,1,821.9,543.5a139.8,139.8,0,1,0,277.2,0A139.9,139.9,0,0,1,960.5,664.8Z"/><path class="cls-1" d="M960.5,716.7c-85.4,0-154.8-69.4-154.8-154.8s69.4-154.8,154.8-154.8,154.8,69.5,154.8,154.8S1045.9,716.7,960.5,716.7Zm0-279.6a124.8,124.8,0,1,0,124.8,124.8A125,125,0,0,0,960.5,437.1Z"/><polygon class="cls-1" points="982 540.5 982 497.5 939 497.5 939 540.5 896.1 540.5 896.1 583.4 939 583.4 939 626.3 982 626.3 982 583.4 1024.9 583.4 1024.9 540.5 982 540.5"/><path class="cls-3" d="M733.5,1599.4a14.6,14.6,0,0,1-10.6-4.4l-33.7-33.6a15,15,0,0,1,0-21.3c44.2-44.2,69-92.7,78-152.8,8.1-54.3,2.4-110.9-3.6-170.9-6.3-62.7-12.8-127.4-2.8-192,11.5-75.4,44.1-139,99.6-194.5s119.1-88,194.5-99.6c53.8-8.3,108.3-5,159.2-.3l-2.7,29.8c-49-4.5-101.4-7.6-151.9.1-68.9,10.6-127.1,40.4-177.9,91.2S801,960.1,790.4,1029c-9.3,60.8-3,123.6,3.1,184.4s12.1,120.3,3.4,178.4c-9.2,60.9-34.1,113-76.1,158.7l12.5,12.5c44.5-48.2,71-103,80.8-167,9.3-60.8,3-123.6-3.1-184.4s-12.1-120.4-3.4-178.4c9.9-65.8,38.2-121.3,86.5-169.6,46.1-46.1,98.4-73.8,160.1-84.9,55.3-9.8,111.2-5.7,168.4-.1l-2.9,29.9C1102,797,1004.8,795.3,915.3,884.8c-44.2,44.2-69,92.8-78,152.8-8.1,54.4-2.4,111,3.6,171,6.3,62.6,12.8,127.4,2.9,191.9-11.6,75.4-44.2,139.1-99.7,194.5A14.6,14.6,0,0,1,733.5,1599.4Z"/><path class="cls-3" d="M1358.9,818.4c-29.7,0-59-2.2-87.2-4.8l2.7-29.9c49.1,4.6,101.4,7.7,152.1-.1,64-9.8,118.8-36.3,167-80.8L1581,690.3c-42.7,39.3-90.6,63.5-146.1,74s-112,6.3-165.2,1.3l2.8-29.9c51.1,4.9,105.2,8.8,156.8-.9,54.9-10.4,99.8-34.5,141.3-76.1a15.1,15.1,0,0,1,21.2,0l33.7,33.7a15.2,15.2,0,0,1,4.4,10.6,15,15,0,0,1-4.4,10.6c-55.5,55.5-119.1,88.1-194.5,99.7A473.4,473.4,0,0,1,1358.9,818.4Z"/><path class="cls-3" d="M918.2,1259.1c-29.2,0-57.9-2.1-85.6-4.6l2.8-29.9c48.3,4.4,100,7.5,150.4-.3,68.8-10.5,127-40.4,177.8-91.2s80.6-108.9,91.2-177.8c9.3-60.8,3-123.6-3.1-184.4s-12.1-120.4-3.4-178.4c9.2-60.9,34.1-113,76.1-158.7l-12.5-12.5c-44.5,48.2-71,103-80.8,167-9.3,60.8-3,123.6,3.1,184.4s12.1,120.4,3.4,178.4c-9.9,65.8-38.2,121.3-86.5,169.6-45.4,45.4-96.9,73-157.3,84.3-55.4,10.4-112.2,6.3-165.6,1.2l2.9-29.9c51.2,4.9,105.6,8.9,157.2-.8,55-10.3,100-34.5,141.6-76.1,44.2-44.2,69-92.7,78-152.8,8.1-54.3,2.4-110.9-3.6-170.9-6.3-62.7-12.8-127.4-2.8-192,11.5-75.4,44.1-139,99.6-194.5a15.1,15.1,0,0,1,21.2,0l33.7,33.7a15,15,0,0,1,0,21.2c-44.2,44.2-69,92.8-78,152.8-8.1,54.4-2.4,111,3.6,171,6.3,62.6,12.8,127.4,2.9,191.9-11.6,75.4-44.2,139.1-99.7,194.5s-119.1,88.1-194.5,99.7A474.3,474.3,0,0,1,918.2,1259.1Z"/><path class="cls-3" d="M464,1329.9h0a15,15,0,0,1-10.6-4.4l-33.7-33.7a15,15,0,0,1-4.4-10.6,15.2,15.2,0,0,1,4.4-10.6c55.5-55.4,119.1-88,194.5-99.6,54-8.3,109.1-5,160.5-.2l-2.8,29.9c-83.8-7.9-123.1-4.7-153.1-.1-64.1,9.9-118.9,36.3-167.1,80.8l12.5,12.5c42.7-39.2,90.8-63.5,146.4-73.9s112.1-6.3,165.5-1.2l-2.9,29.8c-51.2-4.9-105.5-8.8-157.1.8-55,10.4-99.9,34.6-141.5,76.1A15,15,0,0,1,464,1329.9Z"/></svg>