<?xml version="1.0" encoding="utf-8"?>
<!-- Uploaded to: SVG Repo, www.svgrepo.com, Generator: SVG Repo Mixer Tools -->
<svg width="800px" height="800px" viewBox="0 0 1024 1024" class="icon"  version="1.1" xmlns="http://www.w3.org/2000/svg"><path d="M478.447278 665.874606c-76.815973 0-149.035724-29.913834-203.356936-84.235046-112.134897-112.12773-112.134897-294.586142 0-406.713872 54.321212-54.321212 126.540963-84.235046 203.356936-84.235045s149.035724 29.913834 203.356936 84.235045c112.134897 112.12773 112.134897 294.586142 0 406.713872-54.321212 54.321212-126.540963 84.235046-203.356936 84.235046z m0-547.12541c-69.322156 0-134.500648 26.99576-183.519158 76.015294-101.188539 101.195706-101.188539 265.84261 0 367.038316 49.01851 49.01851 114.197002 76.015294 183.519158 76.015294s134.500648-26.99576 183.519158-76.015294c101.188539-101.195706 101.188539-265.84261 0-367.038316-49.019534-49.019534-114.197002-76.015294-183.519158-76.015294z" fill="#262626" /><path d="M696.685363 140.199594l19.837778 19.836754-456.318044 456.31702-19.836754-19.836754zM857.226487 378.282624c0-85.371558-27.728862-165.969763-80.179436-233.072136l-22.111828 17.276018c48.566976 62.123218 74.233734 136.747052 74.233734 215.796118 0 75.873998-23.706017 147.633001-68.542979 208.212201a55.886733 55.886733 0 0 0-22.644248-4.792808c-14.987633 0-29.078343 5.836146-39.675556 16.440527-10.60438 10.597213-16.440527 24.687923-16.440527 39.675556 0 7.935111 1.680196 15.598893 4.793831 22.645272-60.017086 44.290207-133.244341 68.541955-208.2122 68.541955-79.063401 0-153.694402-25.673925-215.823764-74.248068l-18.336762 22.098517c63.421505 49.58779 139.170589 77.049418 218.009759 79.921417v60.915033h26.621018V756.756715c76.791399-2.849473 152.173933-28.862303 213.401251-74.281856 9.707457 7.398595 22.360632 11.456253 34.773194 11.456253 14.987633 0 29.523733-5.836146 40.119922-16.440527 10.60438-10.597213 16.66271-24.687923 16.66271-39.675556 0-12.423825-3.952197-24.196458-11.364103-33.909034 48.795303-65.58907 74.715984-143.368519 74.715984-225.623371zM757.818484 657.654855c-10.60438 10.603356-29.071176 10.603356-39.675556 0-5.301678-5.301678-8.219751-12.343961-8.219751-19.837779 0-7.493817 2.918073-14.5361 8.219751-19.837778 5.301678-5.301678 12.343961-8.219751 19.837778-8.219751 7.493817 0 14.5361 2.918073 19.837778 8.219751s8.219751 12.343961 8.219752 19.837778c0 7.493817-2.918073 14.5361-8.219752 19.837779z" fill="#FF7415" /><path d="M777.656262 79.07364c-10.597213-10.603356-24.687923-16.440527-39.675556-16.440527s-29.078343 5.836146-39.675556 16.440527c-10.60438 10.597213-16.440527 24.687923-16.440527 39.675556s5.836146 29.078343 16.440527 39.675556c10.597213 10.603356 24.687923 16.440527 39.675556 16.440527s29.078343-5.836146 39.675556-16.440527c10.603356-10.597213 16.440527-24.687923 16.440527-39.675556s-5.836146-29.078343-16.440527-39.675556z m-19.837778 59.51231c-10.60438 10.603356-29.071176 10.603356-39.675556 0-5.301678-5.301678-8.219751-12.343961-8.219751-19.837778 0-7.493817 2.918073-14.5361 8.219751-19.837778 5.301678-5.301678 12.343961-8.219751 19.837778-8.219751 7.493817 0 14.5361 2.918073 19.837778 8.219751 5.301678 5.301678 8.219751 12.343961 8.219752 19.837778 0 7.494841-2.918073 14.5361-8.219752 19.837778zM218.912826 581.700993c-14.987633 0-29.078343 5.836146-39.675557 16.440527-10.603356 10.597213-16.440527 24.687923-16.440526 39.675556s5.836146 29.078343 16.440526 39.675557c10.597213 10.60438 24.687923 16.440527 39.675557 16.440526 14.987633 0 29.078343-5.836146 39.675556-16.440526 10.603356-10.597213 16.440527-24.687923 16.440527-39.675557s-5.836146-29.078343-16.440527-39.675556c-10.597213-10.603356-24.687923-16.440527-39.675556-16.440527z m19.837778 75.953862c-10.603356 10.603356-29.071176 10.603356-39.675556 0-5.301678-5.301678-8.219751-12.343961-8.219752-19.837779 0-7.493817 2.918073-14.5361 8.219752-19.837778 5.301678-5.301678 12.343961-8.219751 19.837778-8.219751 7.493817 0 14.5361 2.918073 19.837778 8.219751s8.219751 12.343961 8.219751 19.837778c0 7.493817-2.918073 14.5361-8.219751 19.837779zM569.634505 860.69541h-35.072168c0-29.692674-25.174268-56.115059-56.115059-56.115059-30.941815 0-56.115059 26.422385-56.115059 56.115059h-35.072168c-30.941815 0-58.068632 26.757195-58.068632 57.697986v39.57112h292.831202v-39.57112c-0.001024-30.940791-21.446302-57.697986-52.388116-57.697986z m-91.187227-28.057529c15.473979 0 28.05753 12.69925 28.057529 28.057529H450.389748c-0.001024-15.35828 12.582527-28.05753 28.05753-28.057529z m116.953301 97.681731h-239.589166v-11.926216c0-15.473979 15.973635-31.076967 31.447614-31.076967h182.375478c15.473979 0 25.766074 15.602988 25.766074 31.076967v11.926216zM408.980754 160.129521c-40.538692 0-79.802646 8.288352-116.704497 24.639801l-4.939223 2.184971-2.199305 4.932056c-48.073464 107.991233-24.207721 236.775529 59.389444 320.373718 54.300734 54.306878 126.485674 84.272929 203.260691 84.272929h0.007167c40.668725 0 80.049402-8.40917 117.046475-24.883485l4.932055-2.227974 2.184972-4.953557c47.833875-107.976899 23.886221-236.614779-59.595246-320.096246-54.319164-54.320188-126.546083-84.242213-203.382533-84.242213z m138.809158 408.228199c-69.274033 0-134.417713-26.989617-183.422913-75.993793-70.470955-70.470955-93.789944-176.445134-61.214008-269.536788l330.824516 330.824516c-27.620331 9.733054-56.516422 14.706065-86.187595 14.706065z m106.010014-34.559201l-330.950453-330.950454c27.605996-9.705409 56.484682-14.65999 86.131281-14.65999 69.342634 0 134.528293 26.99576 183.546803 76.015294 70.433071 70.433071 93.7838 176.452301 61.272369 269.59515z" fill="#262626" /><path d="M540.446606 256.763818l-61.999328 61.999329-109.119555-109.118531 0.793511-0.793511c60.115379-4.166189 120.775465 12.548739 170.325372 47.912713zM359.408322 437.802102l59.519478-59.519478-109.119555-109.11853 1.68634-1.68634c-4.166189 60.114355 10.366839 118.592542 47.913737 170.324348z" fill="#E0E0E0" /><path d="M218.912826 118.749196m-42.086807 0a42.086806 42.086806 0 1 0 84.173613 0 42.086806 42.086806 0 1 0-84.173613 0Z" fill="#E0E0E0" /></svg>