<?xml version="1.0" encoding="UTF-8" standalone="no"?>
<svg
   xmlns:dc="http://purl.org/dc/elements/1.1/"
   xmlns:cc="http://creativecommons.org/ns#"
   xmlns:rdf="http://www.w3.org/1999/02/22-rdf-syntax-ns#"
   xmlns:svg="http://www.w3.org/2000/svg"
   xmlns="http://www.w3.org/2000/svg"
   xmlns:sodipodi="http://sodipodi.sourceforge.net/DTD/sodipodi-0.dtd"
   xmlns:inkscape="http://www.inkscape.org/namespaces/inkscape"
   width="800px"
   height="800px"
   viewBox="0 0 64 64"
   version="1.1"
   id="svg35"
   sodipodi:docname="notes.svg"
   inkscape:export-filename="C:\Users\keega\Documents\cannlytics\cannlytics\app\assets\images\icons\notes.png"
   inkscape:export-xdpi="96"
   inkscape:export-ydpi="96"
   inkscape:version="1.0.1 (3bc2e813f5, 2020-09-07)">
  <metadata
     id="metadata39">
    <rdf:RDF>
      <cc:Work
         rdf:about="">
        <dc:format>image/svg+xml</dc:format>
        <dc:type
           rdf:resource="http://purl.org/dc/dcmitype/StillImage" />
      </cc:Work>
    </rdf:RDF>
  </metadata>
  <sodipodi:namedview
     pagecolor="#ffffff"
     bordercolor="#666666"
     borderopacity="1"
     objecttolerance="10"
     gridtolerance="10"
     guidetolerance="10"
     inkscape:pageopacity="0"
     inkscape:pageshadow="2"
     inkscape:window-width="1920"
     inkscape:window-height="1094"
     id="namedview37"
     showgrid="false"
     inkscape:zoom="0.94125"
     inkscape:cx="400"
     inkscape:cy="400"
     inkscape:window-x="-11"
     inkscape:window-y="-11"
     inkscape:window-maximized="1"
     inkscape:current-layer="svg35" />
  <defs
     id="defs4">
    <style
       id="style2">.cls-1{fill:#f57c00;}.cls-2{fill:#999;}.cls-3{fill:#666;}</style>
  </defs>
  <title
     id="title6" />
  <g
     data-name="outline color"
     id="outline_color">
    <path
       class="cls-1"
       d="M22,60a1,1,0,0,1-.5-.13l-9-5a1,1,0,0,1,0-1.74l9-5a1,1,0,0,1,1.43.49A14.29,14.29,0,0,1,24,54a14.4,14.4,0,0,1-1.06,5.38A1,1,0,0,1,22,60Zm-7-6,6.4,3.56A12.17,12.17,0,0,0,22,54a12,12,0,0,0-.54-3.56Z"
       id="path8" />
    <path
       class="cls-1"
       d="M59,60H22a1,1,0,0,1-.83-.44,1,1,0,0,1-.1-.94A12.33,12.33,0,0,0,22,54a12.13,12.13,0,0,0-.92-4.62,1,1,0,0,1,.1-.94A1,1,0,0,1,22,48H59a1,1,0,0,1,1,1V59A1,1,0,0,1,59,60ZM23.42,58H58V50H23.42A13.87,13.87,0,0,1,24,54,14.27,14.27,0,0,1,23.42,58Z"
       id="path10" />
    <path
       class="cls-1"
       d="M47,56H24a1,1,0,0,1,0-2H47a1,1,0,0,1,0,2Z"
       id="path12" />
    <path
       class="cls-1"
       d="M52,59a1,1,0,0,1-1-1V50a1,1,0,0,1,2,0v8A1,1,0,0,1,52,59Z"
       id="path14" />
    <path
       class="cls-2"
       d="M16.27,48.61a1,1,0,0,1-.91-.59L4.56,23.83a5,5,0,0,1,2.52-6.6l20.17-9A1,1,0,0,1,28.07,10l-20.17,9a3,3,0,0,0-1.52,4L17.18,47.2a1,1,0,0,1-.5,1.32A1,1,0,0,1,16.27,48.61Z"
       id="path16" />
    <path
       class="cls-3"
       d="M16.74,22.68a1,1,0,0,1-.92-.6,1,1,0,0,1,.51-1.32l8.22-3.67a1,1,0,1,1,.81,1.83l-8.22,3.67A1,1,0,0,1,16.74,22.68Z"
       id="path18" />
    <path
       class="cls-3"
       d="M16.44,29.38A1,1,0,0,1,16,27.47l6.78-3a1,1,0,0,1,.82,1.82l-6.78,3A1,1,0,0,1,16.44,29.38Z"
       id="path20" />
    <path
       class="cls-3"
       d="M18.89,34.85a1,1,0,0,1-.41-1.91l2.29-1a1,1,0,0,1,.82,1.82l-2.29,1A1,1,0,0,1,18.89,34.85Z"
       id="path22" />
    <path
       class="cls-2"
       d="M51,46a.75.75,0,0,1-.26,0,1,1,0,0,1-.7-1.22L57.9,16.11a3,3,0,0,0-.3-2.28,2.9,2.9,0,0,0-1.81-1.4L32.65,6.08A3,3,0,0,0,29,8.2L20.77,38.09a3,3,0,0,0,.29,2.28,3,3,0,0,0,1.81,1.41L31.12,44A1,1,0,0,1,30.6,46L22.35,43.7a5,5,0,0,1-3-2.34,4.93,4.93,0,0,1-.47-3.79L27,7.67a5,5,0,0,1,6.14-3.51L56.31,10.5a5,5,0,0,1,3.51,6.13L52,45.26A1,1,0,0,1,51,46Z"
       id="path24" />
    <path
       class="cls-3"
       d="M47.46,17.36a1.24,1.24,0,0,1-.27,0L38.51,15A1,1,0,0,1,39,13l8.68,2.38a1,1,0,0,1-.26,2Z"
       id="path26" />
    <path
       class="cls-3"
       d="M48.77,23.94a1.24,1.24,0,0,1-.27,0L34,20A1,1,0,1,1,34.56,18L49,22a1,1,0,0,1-.26,2Z"
       id="path28" />
    <path
       class="cls-3"
       d="M47.18,29.73a.78.78,0,0,1-.26,0l-14.47-4A1,1,0,1,1,33,23.81l14.47,4a1,1,0,0,1,.7,1.22A1,1,0,0,1,47.18,29.73Z"
       id="path30" />
    <path
       class="cls-3"
       d="M45.6,35.52a.84.84,0,0,1-.27,0l-14.47-4a1,1,0,1,1,.53-1.93l14.47,4a1,1,0,0,1,.7,1.23A1,1,0,0,1,45.6,35.52Z"
       id="path32" />
  </g>
</svg>
