<?xml version="1.0" ?><!-- Uploaded to: SVG Repo, www.svgrepo.com, Generator: SVG Repo Mixer Tools -->
<svg width="800px" height="800px" viewBox="0 0 2050 2050" data-name="Layer 3" id="Layer_3" xmlns="http://www.w3.org/2000/svg"><defs><style>.cls-1{fill:#e0e1e2;}.cls-2{fill:#1682fc;}.cls-3{fill:#2e3a58;}</style></defs><title/><path class="cls-1" d="M1509.5,1333.8l-88.7,87.3a256.1,256.1,0,0,1-257.7,61.5h0a1122.9,1122.9,0,0,1-451.2-275.1A1120,1120,0,0,1,436.8,756.3h0a272,272,0,0,1-7.2-27.9,256.4,256.4,0,0,0,7.2,128.1h0a1120.9,1120.9,0,0,0,726.3,726.3h0a256.2,256.2,0,0,0,257.7-61.4l88.7-87.4a91.9,91.9,0,0,0,12.6-115.6A101.1,101.1,0,0,1,1509.5,1333.8Z"/><path class="cls-2" d="M780.3,791.7a5.5,5.5,0,0,1-3.8-1.6L742.4,756a5.4,5.4,0,0,1,0-7.6,5.5,5.5,0,0,1,7.7,0l34,34.1a5.4,5.4,0,0,1,0,7.6A5.5,5.5,0,0,1,780.3,791.7Zm-82.5-82.5a5.2,5.2,0,0,1-3.8-1.6l-48.4-48.4a5.4,5.4,0,0,1,7.6-7.6L701.6,700a5.4,5.4,0,0,1,0,7.6A5.1,5.1,0,0,1,697.8,709.2ZM601,612.3a5.4,5.4,0,0,1-3.8-1.5l-48.5-48.5a5.4,5.4,0,0,1,0-7.6,5.5,5.5,0,0,1,7.7,0l48.4,48.4a5.5,5.5,0,0,1,0,7.7A5.7,5.7,0,0,1,601,612.3Z"/><path class="cls-2" d="M1476.2,1469.6a5.1,5.1,0,0,1-3.8-1.6l-48.5-48.4a5.4,5.4,0,0,1,0-7.6,5.5,5.5,0,0,1,7.7,0l48.4,48.4a5.4,5.4,0,0,1,0,7.6A5.2,5.2,0,0,1,1476.2,1469.6Zm-96.9-96.8a5.9,5.9,0,0,1-3.8-1.6l-48.4-48.4a5.5,5.5,0,0,1,0-7.7,5.4,5.4,0,0,1,7.6,0l48.4,48.5a5.2,5.2,0,0,1,0,7.6A5.5,5.5,0,0,1,1379.3,1372.8Zm-96.8-96.9a5.1,5.1,0,0,1-3.8-1.6l-48.5-48.4a5.4,5.4,0,0,1,0-7.6,5.5,5.5,0,0,1,7.7,0l48.4,48.4a5.4,5.4,0,0,1,0,7.6A5.2,5.2,0,0,1,1282.5,1275.9Z"/><path class="cls-1" d="M1234.1,977.5c-128.8,0-234.7-97.6-247.8-222.9a251.2,251.2,0,0,0-1.3,26.2c0,137.6,111.5,249.1,249.1,249.1s249.1-111.5,249.1-249.1a251,251,0,0,0-1.4-26.2C1468.7,879.9,1362.8,977.5,1234.1,977.5Z"/><path class="cls-3" d="M1234.1,1044.9a264.3,264.3,0,1,1,186.7-77.4A262.4,262.4,0,0,1,1234.1,1044.9Zm0-498.2a234,234,0,1,0,165.5,68.5A232.6,232.6,0,0,0,1234.1,546.7Z"/><path class="cls-2" d="M1234.1,975.3a194.2,194.2,0,0,1-68.9-12.6,5.5,5.5,0,0,1-3.2-7,5.4,5.4,0,0,1,7-3.1,182.7,182.7,0,0,0,65.1,11.9,5.4,5.4,0,1,1,0,10.8Zm24-1.5a5.3,5.3,0,0,1-5.3-4.8,5.4,5.4,0,0,1,4.6-6,182.2,182.2,0,0,0,63-20.1,5.4,5.4,0,0,1,5.1,9.5,191.6,191.6,0,0,1-66.7,21.3Zm-149.3-46.1a5.5,5.5,0,0,1-3.6-1.3,194.3,194.3,0,0,1-43.2-55.1,5.3,5.3,0,0,1,2.2-7.2,5.4,5.4,0,0,1,7.3,2.2,184.3,184.3,0,0,0,40.9,52,5.5,5.5,0,0,1,.5,7.6A5.5,5.5,0,0,1,1108.8,927.7Zm267.5-17a5.5,5.5,0,0,1-4.1-9,182.3,182.3,0,0,0,34-56.7,5.4,5.4,0,0,1,10.1,3.7,194.7,194.7,0,0,1-36,60.1A5,5,0,0,1,1376.3,910.7ZM1046.4,809.2a5.4,5.4,0,0,1-5.4-4.7,207.9,207.9,0,0,1-1.4-23.7,193.4,193.4,0,0,1,5.5-46.2,5.4,5.4,0,0,1,6.5-4,5.5,5.5,0,0,1,4,6.6,182,182,0,0,0-5.3,43.6,185.8,185.8,0,0,0,1.4,22.4,5.3,5.3,0,0,1-4.7,6Zm376.8-24a5.4,5.4,0,0,1-5.4-5.4,182.5,182.5,0,0,0-12.3-65,5.4,5.4,0,0,1,3.1-6.9,5.4,5.4,0,0,1,7,3.1,194.1,194.1,0,0,1,13,68.8,5.4,5.4,0,0,1-5.4,5.4Zm-345-106.1a5.5,5.5,0,0,1-3-.9,5.3,5.3,0,0,1-1.4-7.5,195.7,195.7,0,0,1,49.4-49.6,5.4,5.4,0,0,1,7.5,1.3,5.4,5.4,0,0,1-1.4,7.5,183.8,183.8,0,0,0-46.6,46.9A5.6,5.6,0,0,1,1078.2,679.1ZM1375,660.2a5.3,5.3,0,0,1-4-1.8,185.5,185.5,0,0,0-52.2-40.6,5.3,5.3,0,0,1-2.3-7.3,5.5,5.5,0,0,1,7.3-2.3,194,194,0,0,1,55.2,43,5.5,5.5,0,0,1-.4,7.7A5.3,5.3,0,0,1,1375,660.2Zm-186.8-57.5a5.4,5.4,0,0,1-5.2-4.1,5.3,5.3,0,0,1,3.9-6.5,196.2,196.2,0,0,1,69.9-4.5,5.4,5.4,0,0,1-1.2,10.7,193.7,193.7,0,0,0-21.5-1.2,185.2,185.2,0,0,0-44.6,5.4Z"/><polygon class="cls-2" points="1272 748.3 1272 672.4 1196.1 672.4 1196.1 748.3 1120.2 748.3 1120.2 824.2 1196.1 824.2 1196.1 900.2 1272 900.2 1272 824.2 1347.9 824.2 1347.9 748.3 1272 748.3"/><path class="cls-3" d="M1241.1,1610a270.9,270.9,0,0,1-82.6-12.9h0a1135.6,1135.6,0,0,1-457.2-278.8A1136.7,1136.7,0,0,1,422.5,861.1a271,271,0,0,1,65-272.7l87.4-88.8a107.1,107.1,0,0,1,151.9-.6L840.4,612.7a106.9,106.9,0,0,1,0,151.2l-48.8,48.8A60.2,60.2,0,0,0,778,876.8c39.6,103,82.8,175.8,135.9,228.9s125.9,96.3,229,135.9a60.2,60.2,0,0,0,64-13.5l48.8-48.9a107.1,107.1,0,0,1,151.3,0l113.6,113.7a107,107,0,0,1-.6,151.8l-88.7,87.4a271.2,271.2,0,0,1-190.2,77.9Zm-73.4-41.5a241,241,0,0,0,242.5-57.8l88.8-87.4a77,77,0,0,0,.4-109.2l-113.6-113.7a77.1,77.1,0,0,0-108.9,0l-48.8,48.9a90.1,90.1,0,0,1-96,20.3c-107.1-41.2-183.2-86.5-239.4-142.7S791.2,994.7,750,887.5a90,90,0,0,1,20.4-96l48.8-48.8a77,77,0,0,0,0-108.8L705.6,520.2a76.7,76.7,0,0,0-54.4-22.5h-.3a76.3,76.3,0,0,0-54.6,23l-87.4,88.7a241,241,0,0,0-57.8,242.5,1105.6,1105.6,0,0,0,716.6,716.6Z"/></svg>