<?xml version="1.0" ?><!-- Uploaded to: SVG Repo, www.svgrepo.com, Generator: SVG Repo Mixer Tools -->
<svg fill="#000000" width="800px" height="800px" viewBox="0 0 96 96" id="Layer_1_1_" version="1.1" xml:space="preserve" xmlns="http://www.w3.org/2000/svg" xmlns:xlink="http://www.w3.org/1999/xlink"><path d="M38,21.95V34h1h1V21.95C50.578,21.425,59,12.708,59,2C48.629,2,40.105,9.894,39.101,20h-0.202C37.895,9.894,29.371,2,19,2  C19,12.708,27.422,21.425,38,21.95z M55.293,4.293l1.414,1.414l-13,13l-1.414-1.414L55.293,4.293z M35.707,17.293l-1.414,1.414  l-13-13l1.414-1.414L35.707,17.293z"/><rect height="2" width="2" x="90" y="88"/><rect height="2" width="2" x="90" y="92"/><rect height="2" width="2" x="92" y="90"/><rect height="2" width="2" x="88" y="90"/><path d="M38,50.914c-4.556-0.024-8.993-0.209-13.204-0.551c-0.869,3.494-1.364,7.161-1.476,10.932  c4.681,0.433,9.608,0.666,14.68,0.693V50.914z"/><path d="M10.231,59.393c3.342,0.707,7.063,1.279,11.096,1.705c0.119-3.746,0.609-7.409,1.458-10.914  c-3.227-0.306-6.301-0.705-9.178-1.194C11.863,52.145,10.695,55.659,10.231,59.393z"/><path d="M63.278,47.146c-2.596-3.967-6.133-7.26-10.3-9.557c-0.806,0.57-1.754,1.079-2.817,1.52c1.531,2.793,2.779,5.87,3.715,9.187  C57.181,48.009,60.33,47.624,63.278,47.146z"/><path d="M38,41.044c-3.328-0.087-6.418-0.611-8.979-1.489c-1.525,2.698-2.759,5.669-3.692,8.849  c4.044,0.319,8.303,0.488,12.671,0.511V41.044z"/><path d="M14.722,47.146c2.701,0.438,5.57,0.798,8.575,1.076c0.962-3.379,2.256-6.536,3.856-9.412  c-0.789-0.367-1.502-0.776-2.131-1.221C20.855,39.887,17.317,43.18,14.722,47.146z"/><path d="M55.846,64.517c0.753-0.497,1.495-1.021,2.225-1.575c-0.731,0.083-1.455,0.172-2.195,0.245  C55.875,63.647,55.857,64.076,55.846,64.517z"/><path d="M54.383,50.259c0.845,3.523,1.328,7.185,1.442,10.922c1.749-0.175,3.458-0.387,5.136-0.619  c2.19-1.965,4.092-4.037,5.735-6.138c-0.589-1.9-1.357-3.722-2.303-5.434C61.271,49.521,57.912,49.944,54.383,50.259z"/><path d="M58.33,84.612c-6.053,3.283-12.874,5.777-20.079,7.369C38.501,91.987,38.749,92,39,92C46.427,92,53.2,89.204,58.33,84.612z"/><path d="M10,63c0,3.032,0.467,5.955,1.33,8.702c2.991,0.469,6.685,0.888,10.794,1.021c-0.553-3.126-0.846-6.348-0.852-9.619  c-4.07-0.425-7.831-1-11.226-1.709C10.017,61.927,10,62.461,10,63z"/><path d="M24.169,72.764c4.341,0.033,9.055-0.283,13.831-1.206v-7.57c-5.084-0.027-10.023-0.259-14.722-0.69  C23.295,66.523,23.602,69.694,24.169,72.764z"/><path d="M40,71.134c4.693-1.077,9.391-2.778,13.801-5.346c0.039-0.778,0.066-1.575,0.071-2.414  c-4.438,0.383-9.092,0.59-13.872,0.615V71.134z"/><path d="M40,41.044v7.871c4.072-0.022,8.043-0.174,11.84-0.453c-0.914-3.136-2.113-6.044-3.582-8.671  C45.846,40.527,43.02,40.964,40,41.044z"/><path d="M39,39.059c4.71,0,9.065-0.943,11.877-2.513C47.251,34.915,43.234,34,39,34s-8.251,0.915-11.877,2.545  C29.935,38.115,34.29,39.059,39,39.059z"/><path d="M40,61.989c4.769-0.026,9.41-0.233,13.832-0.619c-0.107-3.763-0.596-7.428-1.461-10.941  C48.41,50.73,44.256,50.892,40,50.914V61.989z"/><path d="M60,64C37.992,81.419,5.413,72.798,3,72v18.349c25.252,5.26,55.362-2.214,70-20C83.522,57.564,85.535,42.867,86,36h7L82,18  L71,36h7C76.603,41.25,72.364,54.214,60,64z"/></svg>