<?xml version="1.0" encoding="UTF-8" standalone="no"?>
<svg
   xmlns:dc="http://purl.org/dc/elements/1.1/"
   xmlns:cc="http://creativecommons.org/ns#"
   xmlns:rdf="http://www.w3.org/1999/02/22-rdf-syntax-ns#"
   xmlns:svg="http://www.w3.org/2000/svg"
   xmlns="http://www.w3.org/2000/svg"
   xmlns:sodipodi="http://sodipodi.sourceforge.net/DTD/sodipodi-0.dtd"
   xmlns:inkscape="http://www.inkscape.org/namespaces/inkscape"
   width="800px"
   height="800px"
   viewBox="0 0 2050 2050"
   data-name="Layer 3"
   id="Layer_3"
   version="1.1"
   sodipodi:docname="product-orange.svg"
   inkscape:version="1.0.1 (3bc2e813f5, 2020-09-07)"
   inkscape:export-filename="C:\Users\keega\Documents\cannlytics\cannlytics\app\assets\images\icons\product.png"
   inkscape:export-xdpi="96"
   inkscape:export-ydpi="96">
  <metadata
     id="metadata41">
    <rdf:RDF>
      <cc:Work
         rdf:about="">
        <dc:format>image/svg+xml</dc:format>
        <dc:type
           rdf:resource="http://purl.org/dc/dcmitype/StillImage" />
        <dc:title />
      </cc:Work>
    </rdf:RDF>
  </metadata>
  <sodipodi:namedview
     pagecolor="#ffffff"
     bordercolor="#666666"
     borderopacity="1"
     objecttolerance="10"
     gridtolerance="10"
     guidetolerance="10"
     inkscape:pageopacity="0"
     inkscape:pageshadow="2"
     inkscape:window-width="1920"
     inkscape:window-height="1094"
     id="namedview39"
     showgrid="false"
     inkscape:zoom="0.470625"
     inkscape:cx="-313.26745"
     inkscape:cy="36.677271"
     inkscape:window-x="-11"
     inkscape:window-y="-11"
     inkscape:window-maximized="1"
     inkscape:current-layer="Layer_3"
     inkscape:document-rotation="0" />
  <defs
     id="defs4">
    <style
       id="style2">.cls-1{fill:#fafafa;}.cls-2{fill:#e0e1e2;}.cls-3{fill:#1682fc;}.cls-4{fill:#2e3a58;}</style>
  </defs>
  <rect
     class="cls-2"
     height="51.73394"
     width="444.15726"
     x="802.85809"
     y="444.29089"
     id="rect10"
     style="stroke-width:1" />
  <path
     class="cls-2"
     d="M 737.52592,1584.6913 V 948.58921 A 204.35287,204.35287 0 0 1 878.31922,754.36539 H 808.68225 A 204.47948,204.47948 0 0 0 667.76233,948.58921 v 636.10209 a 113.69819,113.69819 0 0 0 113.8248,113.8248 h 69.63698 A 113.69819,113.69819 0 0 1 737.52592,1584.6913 Z"
     id="path12"
     style="stroke-width:1" />
  <rect
     class="cls-3"
     height="144.5537"
     width="36.717678"
     x="887.30872"
     y="351.48383"
     id="rect14"
     style="stroke-width:1;fill:#f57c00;fill-opacity:1" />
  <rect
     class="cls-3"
     height="144.5537"
     width="36.717678"
     x="1006.5779"
     y="351.48383"
     id="rect16"
     style="stroke-width:1;fill:#f57c00;fill-opacity:1" />
  <rect
     class="cls-3"
     height="144.5537"
     width="36.717678"
     x="1125.9736"
     y="351.48383"
     id="rect18"
     style="stroke-width:1;fill:#f57c00;fill-opacity:1" />
  <rect
     class="cls-3"
     height="36.755661"
     width="714.34875"
     x="667.76239"
     y="940.61261"
     id="rect20"
     style="stroke-width:1;fill:#f57c00;fill-opacity:1" />
  <rect
     class="cls-3"
     height="36.755661"
     width="714.34875"
     x="667.76239"
     y="1497.202"
     id="rect22"
     style="stroke-width:1;fill:#f57c00;fill-opacity:1" />
  <path
     class="cls-3"
     d="m 1024.9367,1464.9157 a 214.86172,214.86172 0 0 1 -73.81519,-13.0411 6.2040213,6.2040213 0 0 1 -3.7984,-8.1032 6.330634,6.330634 0 0 1 8.1032,-3.7984 200.04803,200.04803 0 0 0 69.51039,12.2815 h 7.0903 a 6.3334822,6.3334822 0 0 1 0.3798,12.6612 z m 85.0837,-17.979 a 6.2040213,6.2040213 0 0 1 -5.6976,-3.7983 6.330634,6.330634 0 0 1 3.1654,-8.3565 201.694,201.694 0 0 0 63.4329,-44.441 6.330634,6.330634 0 0 1 8.9895,-0.1266 6.0774086,6.0774086 0 0 1 0.1266,8.8628 213.34237,213.34237 0 0 1 -67.3579,47.2266 6.8370847,6.8370847 0 0 1 -2.6589,0.633 z m -225.24393,-35.8314 a 6.4572467,6.4572467 0 0 1 -4.17822,-1.6459 217.6472,217.6472 0 0 1 -49.63217,-65.8386 6.3420276,6.3420276 0 1 1 11.39514,-5.571 201.82061,201.82061 0 0 0 46.72008,61.9136 6.330634,6.330634 0 0 1 0.37984,8.9895 6.330634,6.330634 0 0 1 -4.68467,2.1524 z m 334.38403,-77.1071 a 7.3435354,7.3435354 0 0 1 -2.4056,-0.3798 6.330634,6.330634 0 0 1 -3.5452,-8.2298 200.17465,200.17465 0 0 0 14.8137,-76.0943 206.37867,206.37867 0 0 0 -1.8992,-27.9814 6.330634,6.330634 0 1 1 12.5347,-1.6459 229.80201,229.80201 0 0 1 2.0258,29.6273 214.86172,214.86172 0 0 1 -15.7,80.7789 6.2040213,6.2040213 0 0 1 -5.8242,3.925 z m -403.00811,-63.9394 a 6.4572467,6.4572467 0 0 1 -6.33063,-5.9508 c -0.37984,-4.9379 -0.50645,-9.8758 -0.50645,-14.8137 a 214.22865,214.22865 0 0 1 10.63546,-66.9781 6.330634,6.330634 0 0 1 7.9766,-4.0516 6.4572467,6.4572467 0 0 1 4.05161,7.9766 200.30126,200.30126 0 0 0 -10.0024,63.0531 c 0,4.5581 0.12661,9.3694 0.50645,13.9274 a 6.2040213,6.2040213 0 0 1 -5.9508,6.7105 z m 390.34691,-118.8893 a 6.330634,6.330634 0 0 1 -5.4444,-3.1653 204.85932,204.85932 0 0 0 -50.8983,-58.4951 6.5838594,6.5838594 0 0 1 -1.0129,-8.9895 6.330634,6.330634 0 0 1 8.8629,-1.0129 214.98833,214.98833 0 0 1 53.937,62.1669 6.4572467,6.4572467 0 0 1 -2.279,8.7362 7.2169228,7.2169228 0 0 1 -3.1653,0.7597 z m -341.72764,-30.387 a 6.0774086,6.0774086 0 0 1 -4.0516,-1.3928 6.4572467,6.4572467 0 0 1 -0.75968,-8.9895 216.6343,216.6343 0 0 1 64.06603,-51.7846 6.3423704,6.3423704 0 0 1 5.8242,11.2686 203.59319,203.59319 0 0 0 -60.26766,48.7459 6.5838594,6.5838594 0 0 1 -4.81129,2.1524 z m 218.28024,-66.3451 -1.7726,-0.2532 a 201.31416,201.31416 0 0 0 -56.3426,-7.9766 v 0 a 190.80531,190.80531 0 0 0 -20.8911,1.1395 6.330634,6.330634 0 0 1 -6.96369,-5.6976 6.330634,6.330634 0 0 1 5.69759,-6.9636 216.38107,216.38107 0 0 1 22.1572,-1.1396 v 0 a 214.98833,214.98833 0 0 1 59.7612,8.4831 6.330634,6.330634 0 0 1 4.4314,7.7234 6.5838594,6.5838594 0 0 1 -6.0774,4.6846 z"
     id="path32"
     style="stroke-width:1;fill:#f57c00;fill-opacity:1" />
  <path
     class="cls-4"
     d="M 1268.4129,1716.875 H 781.58713 A 132.31025,132.31025 0 0 1 649.40349,1584.6913 V 948.58921 c 0,-116.61025 90.14823,-212.58266 204.35287,-221.952 V 496.07552 a 18.358839,18.358839 0 0 1 18.35884,-18.35884 h 305.7696 a 18.358839,18.358839 0 0 1 18.3588,18.35884 v 230.56169 c 114.2047,9.36934 204.3529,105.34175 204.3529,221.952 V 1584.6913 A 132.31025,132.31025 0 0 1 1268.4129,1716.875 Z M 890.47404,514.43436 v 229.80201 a 18.358839,18.358839 0 0 1 -18.35884,18.35884 c -102.55627,0 -185.99403,83.43776 -185.99403,185.994 v 636.10209 a 95.592573,95.592573 0 0 0 95.46596,95.466 h 486.82577 a 95.465961,95.465961 0 0 0 95.3393,-95.466 V 948.58921 c 0,-102.55624 -83.3111,-185.994 -185.8674,-185.994 A 18.358839,18.358839 0 0 1 1159.526,744.23637 V 514.43436 Z"
     id="path34"
     style="stroke-width:1" />
  <path
     class="cls-3"
     d="M 1247.1419,514.43436 H 802.85806 A 18.358839,18.358839 0 0 1 784.49922,496.07552 V 351.48384 A 18.358839,18.358839 0 0 1 802.85806,333.125 h 444.28384 a 18.358839,18.358839 0 0 1 18.3589,18.35884 v 144.59168 a 18.358839,18.358839 0 0 1 -18.3589,18.35884 z m -425.925,-36.71768 h 407.4396 v -107.874 H 821.2169 Z"
     id="path36"
     style="stroke-width:1;fill:#f57c00;fill-opacity:1" />
  <path
     d="m 1086.8476,1282.6087 c 32.8346,-18.2416 66.5382,-62.8898 67.928,-64.8008 l 4.5168,-6.0805 -7.4703,0.6948 c -24.3222,2.2586 -53.6822,12.856 -82.8688,29.7077 -10.9448,6.428 -20.5,15.9831 -27.7965,25.0169 6.6016,-16.8516 13.7247,-40.3051 13.0298,-62.7161 -1.2164,-46.2117 -9.729,-88.2543 -23.6273,-118.3093 l -3.3008,-7.2966 -2.7797,7.4703 c -1.0423,2.9535 -27.44903,74.7035 -25.19073,126.1271 v 0.3476 c 0.5212,4.6907 5.38573,40.8262 12.33493,58.0254 -7.6441,-9.9026 -18.24173,-21.1949 -30.57638,-28.4915 -29.18664,-16.8518 -58.7204,-27.4492 -82.86877,-29.7077 l -7.47039,-0.6949 4.51691,6.0805 c 1.38985,1.9109 35.09337,46.5594 67.92796,64.8008 l 0.34758,0.1738 c 2.60592,1.2161 19.63127,8.5127 33.00846,12.3348 -6.949,1.9109 -13.20341,4.1694 -15.28818,4.8643 l -0.34735,0.1737 c -25.53825,11.8136 -53.3348,43.2585 -54.37707,44.6484 l -5.03826,5.733 7.64417,-0.1737 c 18.24139,-0.3475 40.9999,-6.6017 63.75849,-17.5467 1.3899,-0.6949 2.6059,-1.3898 3.9957,-2.0847 -8.6864,17.7204 -13.20333,41.5212 -13.55091,42.5636 l -1.7372,8.6864 6.94901,-5.3855 c 13.37733,-10.4237 24.14853,-26.0594 30.92393,-37.5254 0.8688,-1.3899 1.5637,-2.9535 2.2584,-4.5171 -0.1729,27.4493 -0.1729,54.7247 0.1729,82.1739 0,3.6481 5.5594,3.6481 5.5594,0 -0.3475,-31.7924 -0.3475,-63.4111 0,-95.2035 1.3899,4.6906 3.3008,9.5551 5.9068,13.8982 6.7754,11.2925 17.5466,27.1018 30.9237,37.5255 l 6.9491,5.3857 -1.7372,-8.6865 c -0.1729,-1.2161 -5.5594,-28.3178 -15.2882,-46.212 3.3009,2.0848 6.0806,3.6485 7.2966,4.3434 l 0.3474,0.1737 c 25.5383,11.6397 67.5806,11.9872 69.3178,11.9872 h 7.6442 l -5.0382,-5.5593 c -12.1611,-13.5508 -31.7924,-26.7542 -54.8982,-36.8305 -5.3856,-2.2585 -11.2924,-3.822 -17.0256,-4.6907 11.64,-3.822 23.4535,-9.0339 25.5383,-10.0763 z m -59.2415,-185.8899 c 11.6397,28.4917 18.5889,66.3646 19.6312,107.8857 0.8688,31.0975 -14.4194,65.4959 -20.5,78.0042 -1.5635,-2.0848 -3.8219,-5.2117 -6.9492,-9.3813 -6.4279,-8.5127 -12.5085,-46.9068 -14.4194,-61.1526 -1.5637,-40.3051 15.4619,-95.0297 22.2374,-115.356 z m -122.479,123.5213 c 21.71601,3.4745 47.08045,13.2034 72.27111,27.7966 18.58906,10.7711 33.18229,32.3135 38.91549,41.6949 -1.9112,0.1737 -4.3433,0.5212 -7.4704,0.8686 -6.7755,0.8687 -29.88145,-7.9915 -43.08483,-13.8982 -24.32215,-13.5509 -50.03393,-43.4323 -60.63137,-56.4619 z m 84.08467,106.4957 c -18.58904,9.034 -37.00422,14.5933 -52.63992,16.3306 9.38137,-9.7288 28.83905,-28.6653 46.38576,-36.8306 10.07636,-3.4746 27.44909,-8.8601 32.31359,-7.8178 1.5637,0.3475 2.9535,0.5212 4.1695,0.8687 -5.2118,6.9491 -16.678,20.8474 -30.22893,27.4491 z m 23.97463,8.8601 c -6.7754,11.4663 -14.24553,21.3688 -21.54233,28.6654 2.606,-10.2501 7.2968,-25.8856 13.72463,-36.3093 5.5594,-7.8179 13.2034,-16.8518 15.6357,-18.0678 0.1729,0 0.1729,-0.1738 0.3474,-0.1738 -1.0423,6.6016 -3.3009,17.5467 -8.1654,25.8856 z m 33.1822,-11.2923 c 6.4281,10.5975 11.1188,26.2331 13.7247,36.3094 -7.4704,-7.4704 -14.9408,-17.3729 -21.5424,-28.6653 -4.8645,-8.3391 -7.1228,-19.2838 -7.9916,-25.8855 0.1729,0 0.1729,0.1736 0.3476,0.1736 0.3473,0.1738 1.0423,0.695 1.5635,1.2161 0.8686,1.0424 1.9109,2.0848 3.1272,3.1272 3.1271,3.4745 7.2966,8.8601 10.771,13.7245 z m 75.9195,8.5127 c -13.5508,-0.6949 -40.4788,-3.1272 -58.1991,-11.1186 -7.2966,-4.1694 -18.2415,-10.945 -23.8007,-15.8093 -1.0425,-1.0424 -1.9112,-2.0848 -2.9535,-2.9534 -0.1729,-0.1737 -0.3475,-0.3474 -0.3475,-0.5213 -0.8686,-1.3898 -1.5635,-2.6058 -2.0846,-3.6482 8.6865,-0.6948 26.754,-1.0424 40.4788,4.8645 18.9363,8.1651 35.2669,18.4153 46.9066,29.1863 z m -81.6525,-42.2161 c -3.127,-0.3474 -5.5594,-0.6949 -7.4703,-0.8686 5.7331,-9.3814 20.3263,-30.9238 38.9153,-41.6949 25.1907,-14.5932 50.555,-24.3221 72.2711,-27.7966 -10.5975,13.0296 -36.3093,42.911 -60.6313,56.4619 -13.0297,5.9067 -36.3094,14.7669 -43.0848,13.8982 z"
     fill="#72AA29"
     id="path2"
     style="fill:#f57c00;fill-opacity:1;stroke-width:25.625;stroke-miterlimit:4;stroke-dasharray:none;stroke:none" />
</svg>
