<?xml version="1.0" encoding="UTF-8" standalone="no"?>
<svg
   xmlns:dc="http://purl.org/dc/elements/1.1/"
   xmlns:cc="http://creativecommons.org/ns#"
   xmlns:rdf="http://www.w3.org/1999/02/22-rdf-syntax-ns#"
   xmlns:svg="http://www.w3.org/2000/svg"
   xmlns="http://www.w3.org/2000/svg"
   xmlns:sodipodi="http://sodipodi.sourceforge.net/DTD/sodipodi-0.dtd"
   xmlns:inkscape="http://www.inkscape.org/namespaces/inkscape"
   width="800px"
   height="800px"
   viewBox="0 0 1024 1024"
   class="icon"
   version="1.1"
   id="svg10"
   sodipodi:docname="recipe.svg"
   inkscape:version="1.0.1 (3bc2e813f5, 2020-09-07)"
   inkscape:export-filename="C:\Users\keega\Documents\cannlytics\cannlytics\app\assets\images\icons\recipe.png"
   inkscape:export-xdpi="96"
   inkscape:export-ydpi="96">
  <metadata
     id="metadata16">
    <rdf:RDF>
      <cc:Work
         rdf:about="">
        <dc:format>image/svg+xml</dc:format>
        <dc:type
           rdf:resource="http://purl.org/dc/dcmitype/StillImage" />
      </cc:Work>
    </rdf:RDF>
  </metadata>
  <defs
     id="defs14" />
  <sodipodi:namedview
     pagecolor="#ffffff"
     bordercolor="#666666"
     borderopacity="1"
     objecttolerance="10"
     gridtolerance="10"
     guidetolerance="10"
     inkscape:pageopacity="0"
     inkscape:pageshadow="2"
     inkscape:window-width="1920"
     inkscape:window-height="1094"
     id="namedview12"
     showgrid="false"
     inkscape:zoom="0.66556426"
     inkscape:cx="456.96782"
     inkscape:cy="362.31037"
     inkscape:window-x="-11"
     inkscape:window-y="-11"
     inkscape:window-maximized="1"
     inkscape:current-layer="svg10" />
  <path
     d="M186.870335 679.467708h167.917193v26.621018h-167.917193zM611.261587 261.655943c-34.769098 0-63.051882-28.282784-63.051882-63.051883s28.282784-63.051882 63.051882-63.051882 63.051882 28.282784 63.051882 63.051882-28.282784 63.051882-63.051882 63.051883z m0-98.081047c-19.313549 0-35.029165 15.715616-35.029165 35.029164s15.715616 35.029165 35.029165 35.029165c19.313549 0 35.029165-15.715616 35.029164-35.029165s-15.715616-35.029165-35.029164-35.029164z"
     fill="#FFB612"
     id="path2"
     style="fill:#f57c00;fill-opacity:1" />
  <path
     d="M513.18054 749.09191H204.925528c-7.705761 0-18.055194 9.274353-18.055193 16.980114v73.561041c0 28.899163 29.263666 50.755019 60.089781 50.75502h224.185836c30.826115 0 51.559793-23.43264 51.559793-54.257732v-70.058329c-0.001024-7.705761-1.819444-16.980114-9.525205-16.980114zM769.461084 653.98013v154.127506c0 7.705761-3.371654 10.608476-11.078439 10.608476h-164.005951v-94.678676c0-3.85288 2.977459-7.355592 5.569936-9.878446 0.560065-0.630713 1.97917-1.261427 2.750156-1.751868 0.420817-0.209896 1.129346-0.490441 1.550162-0.700337 1.961764-1.121154 4.452877-3.719775 6.835459-3.719776 0.280545 0 0.669621-1.898283 0.879517-1.898283H612.662262l0.069624 1.898283c20.667125-0.700338 37.620618-15.409474 40.143472-35.516534l0.980882-2.099988-0.561089-33.905963h105.08647c7.707809 0 11.079463 9.808821 11.079463 17.515606z"
     fill="#E0E0E0"
     id="path4" />
  <path
     d="M411.101221 343.633321h392.148079v26.621019h-392.148079zM453.080519 413.257523h309.213368v28.668789h-309.213368zM496.083703 482.881725h224.230886v28.668789h-224.230886z"
     fill="#262626"
     id="path6" />
  <path
     d="M905.504727 132.712944h-67.787351l-52.515079-55.288784c-7.984258-8.428624-22.208073-14.335418-33.825075-14.335418H457.134081c-11.808469 0-26.011807 6.228294-33.78412 15.108452l-47.943431 54.51575H317.018446c-30.903931 0-58.475115 27.980738-58.475115 58.884669v355.169437c-8.191083-3.1464-17.1081-5.930344-26.808389-5.930344-41.594317 0-74.89414 33.170813-81.591374 69.0068h-57.309933c-15.455549 0-31.900171 14.669205-31.900172 30.124754v28.022717c0 23.17974 18.988977 42.034588 42.168718 42.034588 7.724191 0 14.144976 6.28768 14.144975 14.011871v126.104788c0 61.806838 53.895276 109.870063 115.702114 109.870063h658.544611c38.628122 0 66.363127-29.207353 66.363127-67.835475V191.597613c-0.001024-30.903931-21.44835-58.884669-52.352281-58.884669z m0 28.668789c15.455549 0 24.706353 14.760331 24.706353 30.21588v45.220919l-65.981218-75.436799h41.274865z m-588.486281 0h33.841458l-65.696578 72.817701v-42.601821c0-15.455549 16.399571-30.21588 31.85512-30.21588z m-84.0702 407.477691c12.750444 0 24.80055 4.728302 34.678996 12.575359 0.924568 0.714672 1.822516 0.792487 2.73275 1.608524-4.049466 8.596541-6.867199 19.633001-8.268898 26.800199H178.763211c6.239557-22.525477 28.129202-40.984082 54.185035-40.984082z m223.066728 40.984082c-1.403747-7.167197-4.227623-17.968164-8.287327-26.575968 0.576447-0.524229 1.115011-0.561089 1.699649-1.062793 10.018718-8.336474 22.488617-13.60846 35.729502-13.60846 26.051738 0 47.959813 18.720719 54.223943 41.246197h-83.365767z m-28.31862 0H290.409714c6.51703-28.668789 34.838722-56.046459 68.64332-56.046459s62.12629 27.37767 68.64332 56.046459z m-194.748108 320.476106c-46.358456 0-87.033324-33.818932-87.033324-80.177388V724.03846c0-23.17974-18.477035-42.034588-41.656775-42.034588-7.724191 0-13.633033-6.28768-13.633033-14.011871v-31.526453h531.396484v31.526453c0 7.724191-6.420785 14.011871-14.144976 14.011871-23.17974 0-42.168717 18.855872-42.168717 42.034588v126.104788c0 46.358456-34.19265 80.177388-80.551107 80.177388H232.948246z m417.742141-293.855088h107.692258c7.724191 0 11.078439 9.791415 11.078439 17.515606v154.127506c0 7.724191-3.354248 10.608476-11.078439 10.608476h-164.005951v-94.678676c0-7.724191 6.420785-14.011871 14.144976-14.011871 23.17974 0 42.168717-18.855872 42.168717-42.034588v-31.526453z m279.520693 255.712288c0 23.17974-15.538484 38.1428-38.718223 38.1428H559.050602c23.359944-20.477706 38.199114-47.098725 38.199114-82.934711h161.132929c23.17974 0 37.699458-16.098549 37.699458-39.277265V653.98013c0-23.17974-14.519718-44.136625-37.699458-44.136624H567.9625c-6.69621-35.835986-41.211384-69.006799-82.805702-69.0068-19.589998 0-38.068056 7.199962-53.024973 19.405699-17.974307-20.127538-45.947878-32.629178-74.99448-32.629178-27.435007 0-51.496312 11.614955-71.974019 29.830899V303.690531c0-12.328603 8.093813-31.813141 15.22927-42.157455L443.478522 97.885485c2.401011-2.750156 10.002336-7.151839 13.655559-7.151839h294.243141c3.879501 0 10.803014 4.366871 13.471259 7.185627L917.906027 262.061401c7.477435 9.851825 12.305054 29.478682 12.305053 41.62913v588.486281z"
     fill="#262626"
     id="path8" />
</svg>
