<?xml version="1.0" encoding="UTF-8" standalone="no"?>
<svg
   xmlns:dc="http://purl.org/dc/elements/1.1/"
   xmlns:cc="http://creativecommons.org/ns#"
   xmlns:rdf="http://www.w3.org/1999/02/22-rdf-syntax-ns#"
   xmlns:svg="http://www.w3.org/2000/svg"
   xmlns="http://www.w3.org/2000/svg"
   xmlns:sodipodi="http://sodipodi.sourceforge.net/DTD/sodipodi-0.dtd"
   xmlns:inkscape="http://www.inkscape.org/namespaces/inkscape"
   fill="#000000"
   width="800px"
   height="800px"
   viewBox="0 0 96 96"
   id="Layer_1_1_"
   version="1.1"
   xml:space="preserve"
   sodipodi:docname="sample-plant.svg"
   inkscape:version="1.0.1 (3bc2e813f5, 2020-09-07)"
   inkscape:export-filename="C:\Users\keega\Documents\cannlytics\cannlytics\app\assets\images\icons\sample-plant.png"
   inkscape:export-xdpi="96"
   inkscape:export-ydpi="96"><metadata
     id="metadata43"><rdf:RDF><cc:Work
         rdf:about=""><dc:format>image/svg+xml</dc:format><dc:type
           rdf:resource="http://purl.org/dc/dcmitype/StillImage" /></cc:Work></rdf:RDF></metadata><defs
     id="defs41" /><sodipodi:namedview
     pagecolor="#ffffff"
     bordercolor="#666666"
     borderopacity="1"
     objecttolerance="10"
     gridtolerance="10"
     guidetolerance="10"
     inkscape:pageopacity="0"
     inkscape:pageshadow="2"
     inkscape:window-width="1920"
     inkscape:window-height="1094"
     id="namedview39"
     showgrid="false"
     inkscape:zoom="0.66556426"
     inkscape:cx="206.78816"
     inkscape:cy="273.07334"
     inkscape:window-x="-11"
     inkscape:window-y="-11"
     inkscape:window-maximized="1"
     inkscape:current-layer="Layer_1_1_" /><path
     d="M93,84L93,84c0-0.671-0.044-1.337-0.111-2H3.111C3.044,82.663,3,83.329,3,84v0c0,5.523,4.477,10,10,10h70  C88.523,94,93,89.523,93,84z M14,89.5c-1.105,0-2-0.895-2-2c0-1.105,0.895-2,2-2s2,0.895,2,2C16,88.605,15.105,89.5,14,89.5z M22,86  h-2v-2h2V86z M30,91h-2v-2h2V91z M43,89c-1.105,0-2-0.895-2-2c0-1.105,0.895-2,2-2s2,0.895,2,2C45,88.105,44.105,89,43,89z M56,91  h-2v-2h2V91z M68,87h-2v-2h2V87z M80,89c-1.105,0-2-0.895-2-2c0-1.105,0.895-2,2-2s2,0.895,2,2C82,88.105,81.105,89,80,89z"
     id="path2"
     style="fill:#7ed321;fill-opacity:1" /><path
     d="M64,14V2H32v12h3v23L7.373,71.534C5.387,74.016,4.052,76.924,3.422,80H25v-6.069c-3.945-0.493-7-3.852-7-7.931  c4.079,0,7.438,3.055,7.931,7h0.138c0.493-3.945,3.852-7,7.931-7c0,4.079-3.055,7.438-7,7.931V80h20v-6.069  c-3.945-0.493-7-3.852-7-7.931c4.079,0,7.438,3.055,7.931,7h0.138c0.493-3.945,3.852-7,7.931-7c0,4.079-3.055,7.438-7,7.931V80h20  v-6.069c-3.945-0.493-7-3.852-7-7.931c4.079,0,7.438,3.055,7.931,7h0.138c0.493-3.945,3.852-7,7.931-7c0,4.079-3.055,7.438-7,7.931  V80h21.578c-0.63-3.076-1.965-5.984-3.951-8.466L61,37V14H64z M54,15H38v-2h16V15z M58,15h-2v-2h2V15z"
     id="path4"
     style="fill:#999999;fill-opacity:1" /><rect
     height="2"
     width="2"
     x="90"
     y="2"
     id="rect6"
     style="fill:#f57c00;fill-opacity:1" /><rect
     height="2"
     width="2"
     x="90"
     y="6"
     id="rect8"
     style="fill:#f57c00;fill-opacity:1" /><rect
     height="2"
     width="2"
     x="92"
     y="4"
     id="rect10"
     style="fill:#f57c00;fill-opacity:1" /><rect
     height="2"
     width="2"
     x="88"
     y="4"
     id="rect12"
     style="fill:#f57c00;fill-opacity:1" /><rect
     height="2"
     width="2"
     x="78"
     y="29"
     id="rect14"
     style="fill:#f57c00;fill-opacity:1" /><rect
     height="2"
     width="2"
     x="78"
     y="33"
     id="rect16"
     style="fill:#f57c00;fill-opacity:1" /><rect
     height="2"
     width="2"
     x="80"
     y="31"
     id="rect18"
     style="fill:#f57c00;fill-opacity:1" /><rect
     height="2"
     width="2"
     x="76"
     y="31"
     id="rect20"
     style="fill:#f57c00;fill-opacity:1" /><rect
     height="2"
     width="2"
     x="20"
     y="26"
     id="rect22"
     style="fill:#f57c00;fill-opacity:1" /><rect
     height="2"
     width="2"
     x="20"
     y="30"
     id="rect24"
     style="fill:#f57c00;fill-opacity:1" /><rect
     height="2"
     width="2"
     x="22"
     y="28"
     id="rect26"
     style="fill:#f57c00;fill-opacity:1" /><rect
     height="2"
     width="2"
     x="18"
     y="28"
     id="rect28"
     style="fill:#f57c00;fill-opacity:1" /><rect
     height="2"
     width="2"
     x="4"
     y="7"
     id="rect30"
     style="fill:#f57c00;fill-opacity:1" /><rect
     height="2"
     width="2"
     x="4"
     y="11"
     id="rect32"
     style="fill:#f57c00;fill-opacity:1" /><rect
     height="2"
     width="2"
     x="6"
     y="9"
     id="rect34"
     style="fill:#f57c00;fill-opacity:1" /><rect
     height="2"
     width="2"
     x="2"
     y="9"
     id="rect36"
     style="fill:#f57c00;fill-opacity:1" /><path
     d="M 63.999999,14 V 2 H 32 v 12 h 3 V 37 L 7.373,71.534 C 5.387,74.016 4.052001,76.923999 3.422001,80 H 25 V 73.931 C 21.055,73.437999 18,70.079 18,66 c 4.079,0 7.438,3.054999 7.931,6.999999 h 0.138 C 26.562,69.054999 29.921,66 34,66 c 0,4.079 -3.055,7.437999 -7,7.931 V 80 H 47 V 73.931 C 43.055,73.437999 40,70.079 40,66 c 4.079,0 7.438,3.054999 7.931,6.999999 h 0.138 C 48.562,69.054999 51.921,66 56,66 c 0,4.079 -3.055,7.437999 -7,7.931 V 80 H 69 V 73.931 C 65.055,73.437999 62,70.079 62,66 c 4.078999,0 7.438,3.054999 7.930999,6.999999 h 0.138 C 70.562,69.054999 73.920999,66 78,66 c 0,4.079 -3.055,7.437999 -7,7.931 V 80 h 21.577999 c -0.63,-3.076001 -1.965,-5.984 -3.951,-8.466 L 60.999999,37 V 14 Z M 54,15 H 38 v -2 h 16 z m 3.999999,0 H 56 v -2 h 1.999999 z"
     id="path4-3"
     style="fill:#999999;fill-opacity:1;stroke-width:1" /></svg>
