<?xml version="1.0" encoding="UTF-8" standalone="no"?>
<svg
   xmlns:dc="http://purl.org/dc/elements/1.1/"
   xmlns:cc="http://creativecommons.org/ns#"
   xmlns:rdf="http://www.w3.org/1999/02/22-rdf-syntax-ns#"
   xmlns:svg="http://www.w3.org/2000/svg"
   xmlns="http://www.w3.org/2000/svg"
   xmlns:sodipodi="http://sodipodi.sourceforge.net/DTD/sodipodi-0.dtd"
   xmlns:inkscape="http://www.inkscape.org/namespaces/inkscape"
   fill="#000000"
   width="800px"
   height="800px"
   viewBox="0 0 96 96"
   id="Layer_1_1_"
   version="1.1"
   xml:space="preserve"
   sodipodi:docname="seedlings-orange.svg"
   inkscape:version="1.0.1 (3bc2e813f5, 2020-09-07)"
   inkscape:export-filename="C:\Users\keega\Documents\cannlytics\cannlytics\app\assets\images\icons\seedlings.png"
   inkscape:export-xdpi="96"
   inkscape:export-ydpi="96"><metadata
     id="metadata27"><rdf:RDF><cc:Work
         rdf:about=""><dc:format>image/svg+xml</dc:format><dc:type
           rdf:resource="http://purl.org/dc/dcmitype/StillImage" /><dc:title></dc:title></cc:Work></rdf:RDF></metadata><defs
     id="defs25" /><sodipodi:namedview
     pagecolor="#ffffff"
     bordercolor="#666666"
     borderopacity="1"
     objecttolerance="10"
     gridtolerance="10"
     guidetolerance="10"
     inkscape:pageopacity="0"
     inkscape:pageshadow="2"
     inkscape:window-width="1920"
     inkscape:window-height="1094"
     id="namedview23"
     showgrid="false"
     inkscape:zoom="0.470625"
     inkscape:cx="320.81537"
     inkscape:cy="553.19254"
     inkscape:window-x="-11"
     inkscape:window-y="-11"
     inkscape:window-maximized="1"
     inkscape:current-layer="Layer_1_1_" /><circle
     cx="48"
     cy="12"
     r="5"
     id="circle2"
     style="fill:#f57c00;fill-opacity:1" /><rect
     height="3"
     width="2"
     x="47"
     y="2"
     id="rect4"
     style="fill:#f57c00;fill-opacity:1" /><rect
     height="3"
     width="2"
     x="47"
     y="19"
     id="rect6"
     style="fill:#f57c00;fill-opacity:1" /><rect
     height="2"
     width="3"
     x="55"
     y="11"
     id="rect8"
     style="fill:#f57c00;fill-opacity:1" /><rect
     height="2"
     width="3"
     x="38"
     y="11"
     id="rect10"
     style="fill:#f57c00;fill-opacity:1" /><rect
     height="2"
     transform="matrix(0.7071 -0.7071 0.7071 0.7071 11.5843 39.9456)"
     width="3"
     x="52.511"
     y="4.989"
     id="rect12"
     style="fill:#f57c00;fill-opacity:1" /><rect
     height="2"
     transform="matrix(0.7071 -0.7071 0.7071 0.7071 -0.4371 34.9661)"
     width="3"
     x="40.489"
     y="17.011"
     id="rect14"
     style="fill:#f57c00;fill-opacity:1" /><rect
     height="3"
     transform="matrix(0.7071 -0.7071 0.7071 0.7071 3.0839 43.4666)"
     width="2"
     x="53.011"
     y="16.511"
     id="rect16"
     style="fill:#f57c00;fill-opacity:1" /><rect
     height="3"
     transform="matrix(0.7071 -0.7071 0.7071 0.7071 8.0633 31.4451)"
     width="2"
     x="40.989"
     y="4.489"
     id="rect18"
     style="fill:#f57c00;fill-opacity:1" /><path
     d="M87.25,47h-6.251l-0.008-8.038C87.134,38.576,92,33.485,92,27.245V27c-6.237,0-11.326,4.861-11.717,11L79.717,38  C79.326,31.862,74.237,27,68,27v0.245c0,6.234,4.857,11.321,10.991,11.717L78.999,47H72.75L72,45H56l-0.75,2h-6.251l-0.008-8.038  C55.134,38.576,60,33.485,60,27.245V27c-6.237,0-11.326,4.861-11.717,11L47.717,38C47.326,31.862,42.237,27,36,27v0.245  c0,6.234,4.857,11.321,10.991,11.717L46.999,47H40.75L40,45H24l-0.75,2h-6.251l-0.008-8.038C23.134,38.576,28,33.485,28,27.245V27  c-6.237,0-11.326,4.861-11.717,11L15.717,38C15.326,31.862,10.237,27,4,27v0.245c0,6.234,4.857,11.321,10.991,11.717L14.999,47H8.75  L8,45H2v49h92V45h-6L87.25,47z M5,70c-1.105,0-2-0.895-2-2c0-1.105,0.895-2,2-2s2,0.895,2,2C7,69.105,6.105,70,5,70z M15.45,73.236  c-2.293-1.511-3.454-3.139-3.45-4.838c0.004-1.476,0.885-2.431,1.663-3.273c0.579-0.627,1.126-1.22,1.384-2.028  c0.557-1.742-0.391-4.117-2.819-7.059l1.543-1.273c2.929,3.55,3.97,6.475,3.181,8.941c-0.394,1.23-1.151,2.051-1.82,2.775  c-0.722,0.782-1.131,1.258-1.133,1.923c-0.002,0.968,0.879,2.062,2.55,3.162L15.45,73.236z M18.461,65.125  c0.579-0.628,1.126-1.22,1.385-2.028c0.557-1.743-0.393-4.118-2.819-7.059l1.543-1.273c2.929,3.549,3.969,6.474,3.181,8.941  c-0.393,1.229-1.15,2.051-1.819,2.775c-0.723,0.782-1.131,1.258-1.133,1.922c-0.003,0.969,0.879,2.062,2.55,3.163l-1.1,1.67  c-2.294-1.512-3.455-3.139-3.45-4.838C16.801,66.922,17.683,65.967,18.461,65.125z M21.406,84.67  c-0.787-0.235-1.562-0.531-2.3-0.935l-0.548-0.3c-1.998-1.094-2.094-3.938-0.173-5.165h0c1.059-0.676,2.197-1.163,3.371-1.471  C22.272,79.404,22.152,82.106,21.406,84.67z M21,53H11l-1.5-4h13L21,53z M29,91c-1.105,0-2-0.895-2-2c0-1.105,0.895-2,2-2  s2,0.895,2,2C31,90.105,30.105,91,29,91z M42,86l-5.237-1.314c-1.554-0.39-2.976-1.16-4.182-2.208l-1.684,1.014  c-2.294,1.381-4.941,1.914-7.516,1.606c0.28-1.019,0.483-2.054,0.592-3.098h2.095v-2H24.07c-0.001-1.186-0.113-2.371-0.335-3.54  c2.72-0.236,5.498,0.463,7.83,2.101l1.173,0.824c1.172-0.978,2.539-1.698,4.026-2.071L42,76l-4.982,5L42,86z M47.046,73.236  c-2.294-1.51-3.455-3.138-3.45-4.838c0.004-1.476,0.885-2.431,1.663-3.273c0.579-0.628,1.126-1.22,1.385-2.028  c0.557-1.743-0.393-4.118-2.819-7.059l1.543-1.273c2.929,3.549,3.969,6.474,3.181,8.941c-0.393,1.229-1.15,2.051-1.819,2.775  c-0.723,0.782-1.131,1.258-1.133,1.922c-0.003,0.97,0.879,2.062,2.55,3.163L47.046,73.236z M52.75,63.706  c-0.393,1.229-1.15,2.051-1.819,2.775c-0.723,0.782-1.131,1.258-1.133,1.922c-0.003,0.969,0.879,2.062,2.55,3.163l-1.1,1.67  c-2.294-1.512-3.455-3.139-3.45-4.838c0.004-1.476,0.885-2.431,1.663-3.273c0.579-0.628,1.126-1.22,1.385-2.028  c0.557-1.743-0.393-4.118-2.819-7.059l1.543-1.273C52.498,58.313,53.538,61.238,52.75,63.706z M53,53H43l-1.5-4h13L53,53z M66,59  c1.105,0,2,0.895,2,2c0,1.105-0.895,2-2,2s-2-0.895-2-2C64,59.895,64.895,59,66,59z M77.93,88c0.001,1.186,0.113,2.371,0.335,3.54  c-2.72,0.236-5.498-0.463-7.83-2.101l-1.173-0.824c-1.172,0.978-2.539,1.698-4.026,2.071L60,92l4.982-5L60,82l5.237,1.314  c1.554,0.39,2.976,1.16,4.182,2.208l1.684-1.014c2.294-1.381,4.941-1.914,7.516-1.606c-0.28,1.019-0.483,2.054-0.592,3.098h-2.095v2  H77.93z M76,68.398c0.004-1.476,0.886-2.431,1.663-3.273c0.579-0.627,1.126-1.22,1.385-2.028c0.557-1.742-0.392-4.117-2.819-7.059  l1.543-1.273c2.93,3.551,3.97,6.476,3.181,8.941c-0.393,1.23-1.15,2.051-1.819,2.775c-0.722,0.782-1.131,1.258-1.133,1.923  c-0.003,0.968,0.879,2.062,2.55,3.162l-1.1,1.67C77.156,71.724,75.995,70.097,76,68.398z M83.616,89.73L83.616,89.73  c-1.059,0.676-2.197,1.163-3.371,1.471c-0.517-2.604-0.397-5.306,0.349-7.87c0.787,0.235,1.562,0.531,2.3,0.935l0.548,0.3  C85.44,85.659,85.536,88.503,83.616,89.73z M85.75,63.706c-0.393,1.229-1.15,2.051-1.819,2.775  c-0.723,0.782-1.131,1.258-1.133,1.922c-0.003,0.969,0.879,2.062,2.55,3.163l-1.1,1.67c-2.294-1.512-3.455-3.139-3.45-4.838  c0.004-1.476,0.885-2.431,1.663-3.273c0.579-0.628,1.126-1.22,1.385-2.028c0.557-1.743-0.393-4.118-2.819-7.059l1.543-1.273  C85.498,58.313,86.538,61.238,85.75,63.706z M85,53H75l-1.5-4h13L85,53z M91,73c0,1.105-0.895,2-2,2s-2-0.895-2-2  c0-1.105,0.895-2,2-2S91,71.895,91,73z"
     id="path20"
     style="fill:#7ed321;fill-opacity:1" /><path
     d="m 87.25,47 h -6.251 -2 -6.249 L 72,45 H 56 l -0.75,2 h -6.251 -2 -6.249 L 40,45 H 24 l -0.75,2 h -6.251 -2 H 8.75 L 8,45 H 2 V 94 H 94 V 45 H 88 Z M 5,70 c -1.105,0 -2,-0.895 -2,-2 0,-1.105 0.895,-2 2,-2 1.105,0 2,0.895 2,2 0,1.105 -0.895,2 -2,2 z m 10.45,3.236 C 13.157,71.725 11.996,70.097 12,68.398 c 0.004,-1.476 0.885,-2.431 1.663,-3.273 0.579,-0.627 1.126,-1.22 1.384,-2.028 0.557,-1.742 -0.391,-4.117 -2.819,-7.059 l 1.543,-1.273 c 2.929,3.55 3.97,6.475 3.181,8.941 -0.394,1.23 -1.151,2.051 -1.82,2.775 -0.722,0.782 -1.131,1.258 -1.133,1.923 -0.002,0.968 0.879,2.062 2.55,3.162 z m 3.011,-8.111 c 0.579,-0.628 1.126,-1.22 1.385,-2.028 0.557,-1.743 -0.393,-4.118 -2.819,-7.059 l 1.543,-1.273 c 2.929,3.549 3.969,6.474 3.181,8.941 -0.393,1.229 -1.15,2.051 -1.819,2.775 -0.723,0.782 -1.131,1.258 -1.133,1.922 -0.003,0.969 0.879,2.062 2.55,3.163 l -1.1,1.67 c -2.294,-1.512 -3.455,-3.139 -3.45,-4.838 0.002,-1.476 0.884,-2.431 1.662,-3.273 z m 2.945,19.545 c -0.787,-0.235 -1.562,-0.531 -2.3,-0.935001 l -0.548,-0.3 C 16.56,82.341 16.464,79.497 18.385,78.27 v 0 c 1.059,-0.676001 2.197,-1.163 3.371,-1.471 0.516,2.605 0.396,5.306999 -0.35,7.871 z M 21,53 H 11 L 9.5,49 h 13 z m 8,38 C 27.895,91 27,90.105 27,88.999999 27,87.895 27.895,87 29,87 c 1.105,0 2,0.895 2,1.999999 C 31,90.105 30.105,91 29,91 Z m 13,-5.000001 -5.237,-1.314 c -1.554,-0.39 -2.976,-1.159999 -4.182,-2.208 l -1.684,1.014 c -2.294,1.381001 -4.941,1.914 -7.516,1.606001 0.28,-1.019 0.483,-2.054 0.592,-3.098 h 2.095 V 79.999999 H 24.07 C 24.06904,78.814 23.957,77.629 23.735,76.46 c 2.72,-0.236 5.498,0.463 7.83,2.101 l 1.173,0.823999 c 1.172,-0.978 2.539,-1.698 4.026,-2.070999 L 42,76 37.018,81 Z M 47.046,73.236 c -2.294,-1.51 -3.455,-3.138 -3.45,-4.838 0.004,-1.476 0.885,-2.431 1.663,-3.273 0.579,-0.628 1.126,-1.22 1.385,-2.028 0.557,-1.743 -0.393,-4.118 -2.819,-7.059 l 1.543,-1.273 c 2.929,3.549 3.969,6.474 3.181,8.941 -0.393,1.229 -1.15,2.051 -1.819,2.775 -0.723,0.782 -1.131,1.258 -1.133,1.922 -0.003,0.97 0.879,2.062 2.55,3.163 z m 5.704,-9.53 c -0.393,1.229 -1.15,2.051 -1.819,2.775 -0.723,0.782 -1.131,1.258 -1.133,1.922 -0.003,0.969 0.879,2.062 2.55,3.163 l -1.1,1.67 c -2.294,-1.512 -3.455,-3.139 -3.45,-4.838 0.004,-1.476 0.885,-2.431 1.663,-3.273 0.579,-0.628 1.126,-1.22 1.385,-2.028 0.557,-1.743 -0.393,-4.118 -2.819,-7.059 l 1.543,-1.273 c 2.928,3.548 3.968,6.473 3.18,8.941 z M 53,53 H 43 l -1.5,-4 h 13 z m 13,6 c 1.105,0 2,0.895 2,2 0,1.105 -0.895,2 -2,2 -1.105,0 -2,-0.895 -2,-2 0,-1.105 0.895,-2 2,-2 z m 11.93,29 c 9.6e-4,1.185999 0.113,2.370999 0.335,3.54 -2.72,0.236 -5.498,-0.463 -7.83,-2.101 l -1.173,-0.824 c -1.172,0.978 -2.539,1.698 -4.026,2.070999 L 60,91.999999 64.982,87 60,82 l 5.237,1.314 c 1.554,0.39 2.976,1.16 4.182,2.208 l 1.684,-1.014 c 2.294,-1.381 4.941,-1.914 7.516,-1.606 -0.28,1.018999 -0.483,2.053999 -0.592,3.097999 H 75.932 V 88 Z M 76,68.398 c 0.004,-1.476 0.886,-2.431 1.663,-3.273 0.579,-0.627 1.126,-1.22 1.385,-2.028 0.557,-1.742 -0.392,-4.117 -2.819,-7.059 l 1.543,-1.273 c 2.93,3.551 3.97,6.476 3.181,8.941 -0.393,1.23 -1.15,2.051 -1.819,2.775 -0.722,0.782 -1.131,1.258 -1.133,1.923 -0.003,0.968 0.879,2.062 2.55,3.162 l -1.1,1.67 C 77.156,71.724 75.995,70.097 76,68.398 Z m 7.616,21.332 v 0 c -1.059,0.676 -2.197,1.162999 -3.371,1.471 -0.517,-2.604 -0.397,-5.306001 0.349,-7.87 0.787,0.235 1.562,0.531 2.3,0.934999 l 0.548,0.3 C 85.44,85.659 85.536,88.503 83.616,89.73 Z M 85.75,63.706 c -0.393,1.229 -1.15,2.051 -1.819,2.775 -0.723,0.782 -1.131,1.258 -1.133,1.922 -0.003,0.969 0.879,2.062 2.55,3.163 l -1.1,1.67 c -2.294,-1.512 -3.455,-3.139 -3.45,-4.838 0.004,-1.476 0.885,-2.431 1.663,-3.273 0.579,-0.628 1.126,-1.22 1.385,-2.028 0.557,-1.743 -0.393,-4.118 -2.819,-7.059 l 1.543,-1.273 c 2.928,3.548 3.968,6.473 3.18,8.941 z M 85,53 H 75 l -1.5,-4 h 13 z m 6,20 c 0,1.105 -0.895,2 -2,2 -1.105,0 -2,-0.895 -2,-2 0,-1.105 0.895,-2 2,-2 1.105,0 2,0.895 2,2 z"
     id="path20-0"
     style="fill:#999999;fill-opacity:1;stroke-width:1"
     sodipodi:nodetypes="cccccccccccccccccccccccssssscccccccccccccccccccccccscsscccccccssssscccccccccccccccccccccccccccccccccccccccccccssssscccccccccccccccccccccccccccssccscsccccccccccccccccsssss" /></svg>
