<?xml version="1.0" encoding="UTF-8" standalone="no"?>
<svg
   xmlns:dc="http://purl.org/dc/elements/1.1/"
   xmlns:cc="http://creativecommons.org/ns#"
   xmlns:rdf="http://www.w3.org/1999/02/22-rdf-syntax-ns#"
   xmlns:svg="http://www.w3.org/2000/svg"
   xmlns="http://www.w3.org/2000/svg"
   xmlns:sodipodi="http://sodipodi.sourceforge.net/DTD/sodipodi-0.dtd"
   xmlns:inkscape="http://www.inkscape.org/namespaces/inkscape"
   width="800px"
   height="800px"
   viewBox="0 0 64 64"
   version="1.1"
   id="svg31"
   sodipodi:docname="settings.svg"
   inkscape:export-filename="C:\Users\keega\Documents\cannlytics\cannlytics\app\assets\images\icons\settings.png"
   inkscape:export-xdpi="96"
   inkscape:export-ydpi="96"
   inkscape:version="1.0.1 (3bc2e813f5, 2020-09-07)">
  <metadata
     id="metadata35">
    <rdf:RDF>
      <cc:Work
         rdf:about="">
        <dc:format>image/svg+xml</dc:format>
        <dc:type
           rdf:resource="http://purl.org/dc/dcmitype/StillImage" />
      </cc:Work>
    </rdf:RDF>
  </metadata>
  <sodipodi:namedview
     pagecolor="#ffffff"
     bordercolor="#666666"
     borderopacity="1"
     objecttolerance="10"
     gridtolerance="10"
     guidetolerance="10"
     inkscape:pageopacity="0"
     inkscape:pageshadow="2"
     inkscape:window-width="1920"
     inkscape:window-height="1094"
     id="namedview33"
     showgrid="false"
     inkscape:zoom="0.66556426"
     inkscape:cx="191.62802"
     inkscape:cy="401.54024"
     inkscape:window-x="-11"
     inkscape:window-y="-11"
     inkscape:window-maximized="1"
     inkscape:current-layer="svg31" />
  <defs
     id="defs4">
    <style
       id="style2">.cls-1{fill:#999;}.cls-2{fill:#666;}.cls-3{fill:#f57c00;}</style>
  </defs>
  <title
     id="title6" />
  <g
     data-name="outline color"
     id="outline_color">
    <path
       class="cls-1"
       d="M21.67,55.1a5.06,5.06,0,0,1-1.79-.33,5,5,0,0,1-2.77-2.63L4.46,23.84A5,5,0,0,1,7,17.24l21-9.4a1,1,0,0,1,.82,1.82l-21,9.4a3,3,0,0,0-1.58,1.67A3,3,0,0,0,6.28,23l12.65,28.3A3,3,0,0,0,20.6,52.9a2.94,2.94,0,0,0,2.29-.06l4.36-2a1,1,0,1,1,.82,1.82l-4.36,1.95A5,5,0,0,1,21.67,55.1Z"
       id="path8" />
    <path
       class="cls-2"
       d="M18,34.41a3.5,3.5,0,1,1,3.19-4.93l0,.08a.92.92,0,0,1,.07.36,1,1,0,0,1-1.94.35,1.5,1.5,0,1,0-.75,2A1,1,0,0,1,19,32.2l0,1,.67.74-.67-.74.68.74a1.08,1.08,0,0,1-.31.19h0A3.39,3.39,0,0,1,18,34.41Z"
       id="path10" />
    <path
       class="cls-2"
       d="M22.84,24.31a1,1,0,0,1-.91-.59l-2.05-4.59a1,1,0,0,1,0-.77.94.94,0,0,1,.52-.55l4.59-2a1,1,0,0,1,.82,1.82l-3.68,1.64,1.64,3.67a1,1,0,0,1-.5,1.32A1,1,0,0,1,22.84,24.31Z"
       id="path12" />
    <path
       d="M20.31,30.89a1,1,0,0,1-.95-.68,1,1,0,0,1,1.91-.65,1,1,0,0,1-.61,1.27h0A1.19,1.19,0,0,1,20.31,30.89Z"
       id="path14" />
    <path
       class="cls-1"
       d="M27,45.37a.92.92,0,0,1-.36-.07l-6.91-2.64a5,5,0,0,1-2.88-6.45l2.53-6.63a1,1,0,0,1,0-.1L27.91,7.25a5,5,0,0,1,6.46-2.88l22.42,8.57a5,5,0,0,1,2.89,6.44l-4,10.32A1,1,0,0,1,53.87,29l3.94-10.31a3,3,0,0,0-1.74-3.87L33.65,6.23A3,3,0,0,0,29.77,8l-8.5,22.27,0,.08-2.53,6.61a3,3,0,0,0,1.74,3.87l6.91,2.64A1,1,0,0,1,27,45.37Z"
       id="path16" />
    <path
       class="cls-2"
       d="M31,28.17a3.43,3.43,0,0,1-1.25-.24,3.5,3.5,0,1,1,4.52-2h0a3.46,3.46,0,0,1-1.84,1.95A3.57,3.57,0,0,1,31,28.17Zm0-5a1.63,1.63,0,0,0-.61.13,1.48,1.48,0,0,0-.79.84,1.5,1.5,0,0,0,.87,1.94,1.51,1.51,0,0,0,1.93-.87h0a1.48,1.48,0,0,0,0-1.15,1.53,1.53,0,0,0-.83-.79A1.71,1.71,0,0,0,31,23.16Z"
       id="path18" />
    <path
       class="cls-2"
       d="M49,23.86a3.07,3.07,0,0,1-1.07-.2,3,3,0,0,1-1.73-3.87,2.92,2.92,0,0,1,1.58-1.67,3,3,0,0,1,2.29-.07,3,3,0,0,1,1.73,3.88h0A3,3,0,0,1,49,23.86Zm0-4a1,1,0,0,0-.41.09,1,1,0,0,0-.53.56,1,1,0,0,0,.58,1.29,1,1,0,0,0,1.29-.58h0a1,1,0,0,0-.57-1.29A1.15,1.15,0,0,0,49,19.85Zm1.87,1.72h0Z"
       id="path20" />
    <path
       class="cls-2"
       d="M38,28.34a.92.92,0,0,1-.36-.07A1,1,0,0,1,37,27l3.57-9.34a1,1,0,0,1,1.29-.57l5.6,2.14a1,1,0,1,1-.72,1.86l-4.66-1.78L38.89,27.7A1,1,0,0,1,38,28.34Z"
       id="path22" />
    <path
       class="cls-2"
       d="M38,28.34a1.13,1.13,0,0,1-.36-.06l-4.67-1.79a1,1,0,0,1,.71-1.87l4.67,1.79A1,1,0,0,1,38,28.34Z"
       id="path24" />
    <path
       class="cls-3"
       d="M47.8,60H42.2a1,1,0,0,1-1-1V55.6a9,9,0,0,1-1-.42l-2.4,2.41a1,1,0,0,1-.71.29h0a1,1,0,0,1-.71-.29l-4-4a1,1,0,0,1,0-1.42l2.41-2.4a9,9,0,0,1-.42-1H31a1,1,0,0,1-1-1V42.2a1,1,0,0,1,1-1h3.4a9,9,0,0,1,.42-1l-2.41-2.4a1,1,0,0,1,0-1.42l4-4a1,1,0,0,1,1.42,0l2.4,2.41a9,9,0,0,1,1-.42V31a1,1,0,0,1,1-1h5.6a1,1,0,0,1,1,1v3.4a9,9,0,0,1,1,.42l2.4-2.41a1,1,0,0,1,.71-.29h0a1,1,0,0,1,.71.29l4,4a1,1,0,0,1,0,1.42l-2.41,2.4a9,9,0,0,1,.42,1H59a1,1,0,0,1,1,1v5.6a1,1,0,0,1-1,1H55.6a9,9,0,0,1-.42,1l2.41,2.4a1,1,0,0,1,0,1.42l-4,4a1,1,0,0,1-1.42,0l-2.4-2.41a9,9,0,0,1-1,.42V59A1,1,0,0,1,47.8,60Zm-4.6-2h3.6V54.87a1,1,0,0,1,.73-1,9.38,9.38,0,0,0,2-.82,1,1,0,0,1,1.2.16l2.21,2.22,2.54-2.55-2.21-2.21a1,1,0,0,1-.16-1.2,9.38,9.38,0,0,0,.82-2,1,1,0,0,1,1-.73H58V43.2H54.87a1,1,0,0,1-1-.73,9.38,9.38,0,0,0-.82-2,1,1,0,0,1,.16-1.2l2.21-2.21-2.54-2.55-2.21,2.22a1,1,0,0,1-1.2.16,9.38,9.38,0,0,0-2-.82,1,1,0,0,1-.73-1V32H43.2v3.13a1,1,0,0,1-.73,1,9.38,9.38,0,0,0-2,.82,1,1,0,0,1-1.2-.16l-2.21-2.22-2.54,2.55,2.21,2.21a1,1,0,0,1,.16,1.2,9.38,9.38,0,0,0-.82,2,1,1,0,0,1-1,.73H32v3.6h3.13a1,1,0,0,1,1,.73,9.38,9.38,0,0,0,.82,2,1,1,0,0,1-.16,1.2l-2.21,2.21,2.54,2.55,2.21-2.22a1,1,0,0,1,1.2-.16,9.38,9.38,0,0,0,2,.82,1,1,0,0,1,.73,1Z"
       id="path26" />
    <path
       class="cls-3"
       d="M45,52a7,7,0,1,1,7-7A7,7,0,0,1,45,52Zm0-12a5,5,0,1,0,5,5A5,5,0,0,0,45,40Z"
       id="path28" />
  </g>
</svg>
