<?xml version="1.0" encoding="UTF-8" standalone="no"?>
<svg
   xmlns:dc="http://purl.org/dc/elements/1.1/"
   xmlns:cc="http://creativecommons.org/ns#"
   xmlns:rdf="http://www.w3.org/1999/02/22-rdf-syntax-ns#"
   xmlns:svg="http://www.w3.org/2000/svg"
   xmlns="http://www.w3.org/2000/svg"
   xmlns:sodipodi="http://sodipodi.sourceforge.net/DTD/sodipodi-0.dtd"
   xmlns:inkscape="http://www.inkscape.org/namespaces/inkscape"
   fill="#000000"
   width="800px"
   height="800px"
   viewBox="0 0 96 96"
   id="Layer_1_1_"
   version="1.1"
   xml:space="preserve"
   sodipodi:docname="stats.svg"
   inkscape:version="1.0.1 (3bc2e813f5, 2020-09-07)"
   inkscape:export-filename="C:\Users\keega\Documents\cannlytics\cannlytics\app\assets\images\icons\stats.png"
   inkscape:export-xdpi="96"
   inkscape:export-ydpi="96"><metadata
     id="metadata39"><rdf:RDF><cc:Work
         rdf:about=""><dc:format>image/svg+xml</dc:format><dc:type
           rdf:resource="http://purl.org/dc/dcmitype/StillImage" /></cc:Work></rdf:RDF></metadata><defs
     id="defs37" /><sodipodi:namedview
     pagecolor="#ffffff"
     bordercolor="#666666"
     borderopacity="1"
     objecttolerance="10"
     gridtolerance="10"
     guidetolerance="10"
     inkscape:pageopacity="0"
     inkscape:pageshadow="2"
     inkscape:window-width="1920"
     inkscape:window-height="1094"
     id="namedview35"
     showgrid="false"
     inkscape:zoom="0.66556426"
     inkscape:cx="217.98004"
     inkscape:cy="263.20802"
     inkscape:window-x="-11"
     inkscape:window-y="-11"
     inkscape:window-maximized="1"
     inkscape:current-layer="Layer_1_1_" /><path
     d="M60,35.11v9.259c2.345,3.942,9.074,6.799,17,6.799s14.655-2.857,17-6.799V35.11c-3.528,3.38-9.819,5.644-17,5.644  S63.528,38.491,60,35.11z"
     id="path2"
     style="fill:#999999;fill-opacity:1" /><path
     d="M65.701,75.936c-0.836,2.491-2.05,4.809-3.581,6.881c2.9,3.349,8.475,5.612,14.88,5.612c4.694,0,8.944-1.21,12.023-3.18  C92.092,83.28,94,81,94,78v-5.648C90.472,75.734,84.181,78,77,78C72.945,78,69.008,77.27,65.701,75.936z"
     id="path4"
     style="fill:#999999;fill-opacity:1" /><path
     d="M60,47.524v3.153c2.885,2.997,5.032,6.707,6.143,10.84C69.247,62.845,73.072,63.58,77,63.58c7.926,0,14.655-2.856,17-6.798  v-9.258c-3.528,3.38-9.819,5.644-17,5.644S63.528,50.905,60,47.524z"
     id="path6"
     style="fill:#999999;fill-opacity:1" /><path
     d="M66.655,63.882C66.878,65.222,67,66.597,67,68c0,2.067-0.257,4.075-0.732,5.998C69.363,75.294,73.117,76,77,76  c7.926,0,14.655-2.86,17-6.805v-9.259c-3.528,3.38-9.819,5.644-17,5.644C73.281,65.58,69.752,64.991,66.655,63.882z"
     id="path8"
     style="fill:#999999;fill-opacity:1" /><path
     d="M89,2.245V2c-6.406,0-11.605,5.126-11.742,11.499l-0.516,0C76.605,7.127,71.406,2,65,2v0.245  c0,6.234,4.857,11.321,10.991,11.717L76,20h2l-0.009-6.038C84.134,13.576,89,8.485,89,2.245z"
     id="path10"
     style="fill:#7ed321;fill-opacity:1" /><path
     d="M77.995,20.029L78,28.499L76,28.5l-0.005-8.471C67.078,20.335,60,24.648,60,29.93v2.026c2.345,3.942,9.074,6.799,17,6.799  s14.655-2.857,17-6.799V29.93C94,24.646,86.917,20.332,77.995,20.029z"
     id="path12"
     style="fill:#999999;fill-opacity:1" /><path
     d="M26.331,21.743c0.347,0.312,0.862,0.343,1.242,0.076L45.622,9.185l-0.608,3.651l1.973,0.328l1-6  c0.091-0.544-0.277-1.06-0.822-1.15l-6-1l-0.329,1.973l3.586,0.598l-17.344,12.14l-9.409-8.468  c-0.362-0.326-0.904-0.343-1.287-0.043l-14,11l1.235,1.572l13.339-10.48L26.331,21.743z"
     id="path14"
     style="fill:#f57c00;fill-opacity:1" /><rect
     height="12"
     width="2"
     x="6"
     y="24"
     id="rect16"
     style="fill:#999999;fill-opacity:1" /><rect
     height="15"
     width="2"
     x="11"
     y="21"
     id="rect18"
     style="fill:#999999;fill-opacity:1" /><rect
     height="19"
     width="2"
     x="16"
     y="17"
     id="rect20"
     style="fill:#999999;fill-opacity:1" /><rect
     height="15"
     width="2"
     x="21"
     y="21"
     id="rect22"
     style="fill:#999999;fill-opacity:1" /><rect
     height="12"
     width="2"
     x="26"
     y="24"
     id="rect24"
     style="fill:#999999;fill-opacity:1" /><rect
     height="13"
     width="2"
     x="31"
     y="23"
     id="rect26"
     style="fill:#999999;fill-opacity:1" /><rect
     height="17"
     width="2"
     x="36"
     y="19"
     id="rect28"
     style="fill:#999999;fill-opacity:1" /><rect
     height="21"
     width="2"
     x="41"
     y="15"
     id="rect30"
     style="fill:#999999;fill-opacity:1" /><path
     d="M39,42c-14.359,0-26,11.641-26,26c0,14.359,11.641,26,26,26s26-11.641,26-26C65,53.641,53.359,42,39,42z M59.285,55.134  l1,1.732l-2.598,1.5l-1-1.732L59.285,55.134z M38,44h2v7h-2V44z M37,71l9-15l5,3L38,79l-10-7l3-5L37,71z M27.866,46.716l1.5,2.598  l-1.732,1l-1.5-2.598L27.866,46.716z M15,67h5v2h-5V67z M18.715,80.866l-1-1.732l2.598-1.5l1,1.732L18.715,80.866z M20.313,58.366  l-2.598-1.5l1-1.732l2.598,1.5L20.313,58.366z M27.866,89.284l-1.732-1l1.5-2.598l1.732,1L27.866,89.284z M40,92h-2v-7h2V92z   M50.134,89.284l-1.5-2.598l1.732-1l1.5,2.598L50.134,89.284z M50.366,50.313l-1.732-1l1.5-2.598l1.732,1L50.366,50.313z   M59.285,80.866l-2.598-1.5l1-1.732l2.598,1.5L59.285,80.866z M58,69v-2h5v2H58z"
     id="path32"
     style="fill:#f57c00;fill-opacity:1" /></svg>
