<?xml version="1.0" encoding="UTF-8" standalone="no"?>
<svg
   xmlns:dc="http://purl.org/dc/elements/1.1/"
   xmlns:cc="http://creativecommons.org/ns#"
   xmlns:rdf="http://www.w3.org/1999/02/22-rdf-syntax-ns#"
   xmlns:svg="http://www.w3.org/2000/svg"
   xmlns="http://www.w3.org/2000/svg"
   xmlns:sodipodi="http://sodipodi.sourceforge.net/DTD/sodipodi-0.dtd"
   xmlns:inkscape="http://www.inkscape.org/namespaces/inkscape"
   width="800px"
   height="800px"
   viewBox="0 0 1024 1024"
   class="icon"
   version="1.1"
   id="svg10"
   sodipodi:docname="toolbox.svg"
   inkscape:export-filename="C:\Users\keega\Documents\cannlytics\cannlytics\app\assets\images\icons\toolbox.png"
   inkscape:export-xdpi="96"
   inkscape:export-ydpi="96"
   inkscape:version="1.0.1 (3bc2e813f5, 2020-09-07)">
  <metadata
     id="metadata16">
    <rdf:RDF>
      <cc:Work
         rdf:about="">
        <dc:format>image/svg+xml</dc:format>
        <dc:type
           rdf:resource="http://purl.org/dc/dcmitype/StillImage" />
      </cc:Work>
    </rdf:RDF>
  </metadata>
  <defs
     id="defs14" />
  <sodipodi:namedview
     pagecolor="#ffffff"
     bordercolor="#666666"
     borderopacity="1"
     objecttolerance="10"
     gridtolerance="10"
     guidetolerance="10"
     inkscape:pageopacity="0"
     inkscape:pageshadow="2"
     inkscape:window-width="1920"
     inkscape:window-height="1094"
     id="namedview12"
     showgrid="false"
     inkscape:zoom="0.94125"
     inkscape:cx="400"
     inkscape:cy="400"
     inkscape:window-x="-11"
     inkscape:window-y="-11"
     inkscape:window-maximized="1"
     inkscape:current-layer="svg10" />
  <path
     d="M619.52 194.56h35.84V128c0-5.632-4.608-10.24-10.24-10.24H378.88c-5.632 0-10.24 4.608-10.24 10.24v66.56h35.84v-30.72c0-5.632 4.608-10.24 10.24-10.24h194.56c5.632 0 10.24 4.608 10.24 10.24v30.72z"
     fill="#7ED321"
     id="path2"
     style="fill:#f57c00;fill-opacity:1" />
  <path
     d="M184.32 209.92v20.48h655.36v-20.48H184.32z m-5.12-15.36h665.6c5.632 0 10.24 4.608 10.24 10.24v30.72c0 5.632-4.608 10.24-10.24 10.24H179.2c-5.632 0-10.24-4.608-10.24-10.24v-30.72c0-5.632 4.608-10.24 10.24-10.24zM240.64 890.88h51.2v-10.24H240.64v10.24z m-5.12-25.6h61.44c5.632 0 10.24 4.608 10.24 10.24v20.48c0 5.632-4.608 10.24-10.24 10.24H235.52c-5.632 0-10.24-4.608-10.24-10.24v-20.48c0-5.632 4.608-10.24 10.24-10.24zM737.28 890.88h51.2v-10.24h-51.2v10.24z m-5.12-25.6h61.44c5.632 0 10.24 4.608 10.24 10.24v20.48c0 5.632-4.608 10.24-10.24 10.24h-61.44c-5.632 0-10.24-4.608-10.24-10.24v-20.48c0-5.632 4.608-10.24 10.24-10.24z"
     fill=""
     id="path4" />
  <path
     d="M199.68 343.04h122.88c5.632 0 10.24 4.608 10.24 10.24v81.92c0 5.632-4.608 10.24-10.24 10.24H199.68c-5.632 0-10.24-4.608-10.24-10.24V353.28c0-5.632 4.608-10.24 10.24-10.24zM701.44 343.04h122.88c5.632 0 10.24 4.608 10.24 10.24v81.92c0 5.632-4.608 10.24-10.24 10.24h-122.88c-5.632 0-10.24-4.608-10.24-10.24V353.28c0-5.632 4.608-10.24 10.24-10.24z"
     fill="#7ED321"
     id="path6"
     style="fill:#f57c00;fill-opacity:1" />
  <path
     d="M873.472 276.48H148.48c-11.264 1.024-19.456 10.752-18.432 22.016l48.128 522.24c1.024 10.752 9.728 18.432 20.48 18.432h626.688c10.752 0 19.456-8.192 20.48-18.432l48.64-522.24v-2.048c-0.512-10.752-9.728-19.968-20.992-19.968zM150.528 291.84h722.944c3.072 0 5.12 2.048 5.12 5.632L870.4 384h-35.84v-30.72c0-5.632-4.608-10.24-10.24-10.24h-122.88c-5.632 0-10.24 4.608-10.24 10.24v30.72H332.8v-30.72c0-5.632-4.608-10.24-10.24-10.24H199.68c-5.632 0-10.24 4.608-10.24 10.24v30.72h-36.352l-8.192-86.528c0-3.072 2.048-5.12 5.632-5.632zM819.2 358.4v71.68h-112.64V358.4h112.64z m-501.76 0v71.68H204.8V358.4h112.64z m513.024 461.312c0 2.56-2.56 4.608-5.12 4.608H198.144c-2.56 0-4.608-2.048-5.12-4.608L154.624 399.36H189.44v35.84c0 5.632 4.608 10.24 10.24 10.24h122.88c5.632 0 10.24-4.608 10.24-10.24v-35.84h358.4v35.84c0 5.632 4.608 10.24 10.24 10.24h122.88c5.632 0 10.24-4.608 10.24-10.24v-35.84h34.816l-38.912 420.352z"
     fill=""
     id="path8" />
</svg>
