<?xml version="1.0" encoding="utf-8"?>
<!-- Uploaded to: SVG Repo, www.svgrepo.com, Generator: SVG Repo Mixer Tools -->
<svg width="800px" height="800px" viewBox="0 0 1024 1024" class="icon"  version="1.1" xmlns="http://www.w3.org/2000/svg"><path d="M636.928 217.088c-7.68 22.016-21.504 41.472-34.816 60.416-7.68 10.752-14.848 22.528-23.552 32.256-7.168 8.192-15.872 14.848-25.088 20.992-0.512-28.16-1.024-56.32-1.024-84.48-1.024-68.096-1.536-135.68-1.536-203.776 28.672 18.432 87.04 62.464 73.728 116.736-6.144 25.6-4.096 43.52 7.168 53.76 2.048 2.048 3.584 3.072 5.12 4.096zM538.624 42.496c0 93.696 1.024 187.392 2.56 281.088-20.992-5.632-40.448-28.16-53.76-43.52-16.384-18.944-26.112-43.008-32.768-66.56 10.752-10.24 13.312-28.16 6.656-53.76-12.8-49.664 49.152-98.304 77.312-117.248z" fill="#BEDEBC" /><path d="M541.184 336.896c1.024 59.392 2.048 119.296 2.56 178.688h-0.512c-45.056 8.192-86.016-15.36-121.856-39.936-19.456-13.312-35.328-27.648-48.64-46.592-12.288-17.408-23.552-35.84-33.792-54.272 2.048-14.848-3.072-31.744-5.12-37.888-1.024-54.272 9.728-91.648 31.744-108.544 20.48-15.872 44.032-9.216 44.544-9.216 1.024 0.512 17.92 5.632 32.768 0.512 7.68 26.624 19.456 51.712 37.888 72.704 16.384 17.92 35.84 39.424 60.416 44.544zM720.384 227.84c22.016 16.896 33.28 54.784 32.256 109.056-2.048 6.144-6.656 22.528-5.632 36.352-19.456 37.376-39.424 73.728-72.704 100.864-34.304 27.648-75.264 41.472-117.76 51.2-1.024-59.904-2.048-119.296-2.56-179.2 0.512 0 0.512 0 0.512-0.512 11.264-7.168 23.04-14.848 31.744-25.088 8.704-10.24 15.872-21.504 23.552-32.768 14.848-20.992 30.208-41.984 38.912-66.56 13.312 2.048 26.112-2.048 26.624-2.048 1.024 0 24.576-6.656 45.056 8.704z" fill="#BEDEBC" /><path d="M770.048 401.92c20.48 11.776 36.352 22.528 32.768 43.52-6.144 35.84-31.744 93.184-31.744 93.696l-0.512 1.024c-0.512 1.024-5.632 23.04 0 46.08-10.24 20.48-25.088 37.888-39.936 55.296-14.848 16.896-30.72 30.72-50.176 41.472-38.4 20.992-79.36 39.936-121.344 52.736-0.512-66.048-1.024-132.096-2.048-197.632h0.512c44.032-9.728 86.528-24.064 122.368-52.224 32.768-25.6 53.76-60.416 72.704-96.256 0.512 0.512 1.024 1.536 2.048 2.048 4.096 3.584 9.728 6.656 15.36 10.24z" fill="#BEDEBC" /><path d="M779.264 608.768c8.192 12.8 16.384 44.032 5.632 73.216-8.704 23.04-27.648 39.424-56.832 48.64l-1.024 0.512-1.024 0.512c-1.536 1.024-40.448 27.648-56.32 70.656-12.288 33.792-36.352 75.264-110.592 96.768 0.512-49.664 0-99.328 0-148.992 45.568-13.312 90.624-34.304 131.584-57.344 20.48-11.776 36.352-27.136 51.712-45.056 12.288-14.336 24.064-28.672 33.792-44.544 1.024 1.536 2.048 3.584 3.072 5.632zM546.304 785.408v114.688c-66.048-7.68-108.544-39.936-130.048-98.304-15.872-43.008-54.784-69.632-56.32-70.656l-1.024-0.512-1.024-0.512c-29.184-8.704-48.128-25.088-56.832-48.64-10.752-29.184-2.56-59.904 5.632-73.216 5.12-8.192 8.192-16.896 9.728-25.088 54.784 74.752 134.144 133.12 229.888 136.704v65.536z" fill="#BEDEBC" /><path d="M543.744 528.384c1.024 59.392 1.536 119.296 2.048 178.688-96.256-3.584-175.104-66.56-227.84-143.36 0-12.8-2.56-22.528-2.56-23.552l-0.512-1.024c-0.512-0.512-25.6-57.856-31.744-93.696-3.584-21.504 11.776-31.744 32.768-43.52 6.144-3.584 11.264-6.656 15.36-9.728l1.536-1.536c10.752 18.432 22.016 36.352 34.304 53.248 14.336 18.944 31.744 33.28 51.712 46.08 37.376 24.576 78.848 46.08 124.928 38.4z" fill="#BEDEBC" /><path d="M602.112 277.504c13.312-18.944 27.136-38.4 34.816-60.416-1.536-1.024-3.584-2.048-4.608-3.584-11.264-10.24-13.824-28.16-7.168-53.76 13.312-54.272-45.056-98.304-73.728-116.736 0 68.096 0.512 135.68 1.536 203.776 0.512 28.16 0.512 56.32 1.024 84.48 9.216-6.144 17.92-12.8 25.088-20.992 8.192-10.24 15.36-22.016 23.04-32.768z m88.576 414.72c-41.472 23.552-86.016 44.032-131.584 57.344 0 49.664 0.512 99.328 0 148.992 74.24-21.504 98.304-62.976 110.592-96.768 15.872-43.008 54.784-69.632 56.32-70.656l1.024-0.512 1.024-0.512c29.184-8.704 48.128-25.088 56.832-48.64 10.752-29.184 2.048-59.904-5.632-73.216-1.024-2.048-2.048-3.584-3.072-5.632-9.216 15.872-21.504 30.208-33.792 44.544-14.848 17.92-31.232 33.28-51.712 45.056z m62.464-302.592c-18.944 36.352-39.936 70.656-72.704 96.256-35.84 28.16-78.336 42.496-122.368 52.224h-0.512c1.024 66.048 1.536 132.096 2.048 197.632 41.984-12.8 82.944-32.256 121.344-52.736 19.968-10.752 35.328-24.576 50.176-41.472 14.848-17.408 29.696-34.816 39.936-55.296-5.632-23.04 0-45.056 0-46.08l0.512-1.024c0.512-0.512 25.6-57.856 31.744-93.696 3.584-21.504-11.776-31.744-32.768-43.52-6.144-3.584-11.264-6.656-15.36-9.728-1.024-1.024-1.536-1.536-2.048-2.56zM674.304 474.112c33.28-27.136 53.248-63.488 72.704-100.864-1.536-14.336 3.584-30.72 5.632-36.352 1.024-54.272-9.728-92.16-32.256-109.056-20.48-15.872-44.032-8.704-44.544-8.704-0.512 0-13.312 4.608-26.624 2.048-8.704 24.576-23.552 45.568-38.912 66.56-7.68 10.752-14.848 22.528-23.552 32.768-9.216 10.24-20.48 17.92-31.744 25.088l-0.512 0.512c1.024 59.904 2.048 119.296 2.56 179.2 41.984-9.216 83.456-23.04 117.248-51.2z m-133.632-150.528c-1.536-93.696-2.56-187.392-2.56-281.088-28.16 18.944-89.6 67.584-76.8 117.248 6.656 25.088 4.096 43.52-6.656 53.76 6.656 24.064 16.384 47.616 32.768 66.56 13.312 15.36 32.256 37.888 53.248 43.52z m4.608 673.792c0.512-28.672 0.512-57.344 1.024-85.504l-0.512 4.096c-73.216-8.192-120.32-43.52-143.872-108.544-12.8-35.328-44.032-58.88-49.664-62.976-41.472-12.8-58.368-38.4-65.536-57.344-12.8-34.304-3.072-70.656 7.168-86.528 13.824-22.016 7.68-51.2 7.168-55.296-3.072-7.168-26.112-60.416-32.768-96.768-5.632-33.792 22.016-49.152 40.448-59.904 5.12-3.072 9.728-5.632 12.288-8.192 6.144-5.632 2.56-26.624-2.048-39.424l-0.512-1.024v-1.024c-1.536-60.928 11.264-102.4 37.888-122.88s57.344-11.776 58.368-11.264c5.632 1.536 21.504 4.608 29.184-2.56 6.656-6.144 7.168-19.456 2.56-38.4-18.432-71.68 83.968-134.656 96.256-142.336l0.512-1.024s0.512 0 0.512 0.512c11.264 6.144 115.712 62.976 95.744 142.848-4.608 19.456-3.584 32.768 2.56 38.912 7.68 7.168 23.04 4.096 28.672 2.56 1.536-0.512 31.744-9.216 58.368 11.264s39.424 61.952 37.888 122.88v1.024l-0.512 1.024c-4.608 12.8-8.192 33.792-2.048 39.424 2.56 2.048 7.168 5.12 12.288 8.192 18.432 10.24 46.08 26.112 40.448 59.904-6.144 36.352-29.696 89.6-32.768 96.768-1.024 4.096-6.656 33.28 7.168 55.296 9.728 15.872 19.968 52.224 7.168 86.528-7.168 18.944-24.576 44.544-65.536 57.344-5.632 4.096-36.864 27.648-49.664 62.976-13.824 38.4-40.96 84.48-125.44 107.52-0.512 27.648-0.512 55.296-1.024 82.432 1.024 7.68-12.288 7.68-11.776-0.512z m0.512-276.992C450.56 716.8 371.2 657.92 316.416 583.68c-1.536 8.192-4.608 16.896-9.728 25.088-8.192 12.8-16.384 44.032-5.632 73.216 8.704 23.04 27.648 39.424 56.832 48.64l1.024 0.512 1.024 0.512c1.536 1.024 40.448 27.648 56.32 70.656 21.504 58.368 64 90.624 130.048 98.304 0.512-38.4 0.512-76.8 0-114.688 0-22.528 0-44.032-0.512-65.536z m-227.84-156.672c52.736 76.8 131.584 139.776 227.84 143.36-0.512-59.392-1.024-118.784-2.048-178.688-46.08 7.68-87.552-13.824-124.928-38.912-19.456-13.312-37.376-27.136-51.712-46.08-12.8-16.896-23.552-34.816-34.304-53.248l-1.536 1.536c-3.584 3.584-9.216 6.656-15.36 9.728-20.992 11.776-36.352 22.528-32.768 43.52 6.144 35.84 31.232 93.184 31.744 93.696l0.512 1.024c0 1.536 2.56 11.264 2.56 24.064z m54.784-134.656c13.312 18.944 29.696 33.792 48.64 46.592 35.84 24.064 76.8 48.128 121.856 39.936h0.512c-1.024-59.392-2.048-119.296-2.56-178.688-24.576-5.12-44.032-26.112-59.904-44.544-18.432-20.48-30.208-46.08-37.888-72.704-14.848 5.12-31.744-0.512-32.768-0.512-0.512 0-24.064-6.656-44.544 9.216-22.016 16.896-32.768 54.784-31.744 108.544 2.048 6.144 7.168 23.552 5.12 37.888 10.24 18.944 20.992 36.864 33.28 54.272z" fill="#66A771" /></svg>