<?xml version="1.0" encoding="UTF-8" standalone="no"?>
<svg
   xmlns:dc="http://purl.org/dc/elements/1.1/"
   xmlns:cc="http://creativecommons.org/ns#"
   xmlns:rdf="http://www.w3.org/1999/02/22-rdf-syntax-ns#"
   xmlns:svg="http://www.w3.org/2000/svg"
   xmlns="http://www.w3.org/2000/svg"
   xmlns:sodipodi="http://sodipodi.sourceforge.net/DTD/sodipodi-0.dtd"
   xmlns:inkscape="http://www.inkscape.org/namespaces/inkscape"
   width="800px"
   height="800px"
   viewBox="0 0 64 64"
   version="1.1"
   id="svg41"
   sodipodi:docname="unknown-docs.svg"
   inkscape:export-filename="C:\Users\keega\Documents\cannlytics\cannlytics\app\assets\images\icons\unknown-docs.png"
   inkscape:export-xdpi="96"
   inkscape:export-ydpi="96"
   inkscape:version="1.0.1 (3bc2e813f5, 2020-09-07)">
  <metadata
     id="metadata45">
    <rdf:RDF>
      <cc:Work
         rdf:about="">
        <dc:format>image/svg+xml</dc:format>
        <dc:type
           rdf:resource="http://purl.org/dc/dcmitype/StillImage" />
      </cc:Work>
    </rdf:RDF>
  </metadata>
  <sodipodi:namedview
     pagecolor="#ffffff"
     bordercolor="#666666"
     borderopacity="1"
     objecttolerance="10"
     gridtolerance="10"
     guidetolerance="10"
     inkscape:pageopacity="0"
     inkscape:pageshadow="2"
     inkscape:window-width="1920"
     inkscape:window-height="1094"
     id="namedview43"
     showgrid="false"
     inkscape:zoom="0.94125"
     inkscape:cx="400"
     inkscape:cy="442.49668"
     inkscape:window-x="-11"
     inkscape:window-y="-11"
     inkscape:window-maximized="1"
     inkscape:current-layer="svg41" />
  <defs
     id="defs4">
    <style
       id="style2">.cls-1{fill:#666;}.cls-2{fill:#f57c00;}.cls-3{fill:#999;}</style>
  </defs>
  <title
     id="title6" />
  <g
     data-name="outline color"
     id="outline_color">
    <path
       class="cls-1"
       d="M17.92,35.39A1,1,0,0,1,17,34.8a2.76,2.76,0,0,1,.38-2.8,1,1,0,0,0,0-1.17,1,1,0,0,0-1.73,1,1,1,0,1,1-1.83.81,3,3,0,0,1,0-2.53A3,3,0,1,1,19,33.21a.77.77,0,0,0-.14.77,1,1,0,0,1-.51,1.32A1,1,0,0,1,17.92,35.39Z"
       id="path8" />
    <path
       class="cls-1"
       d="M22.46,23.5a1,1,0,0,1-.91-.59,2.73,2.73,0,0,1,.37-2.8,1,1,0,0,0,0-1.17,1,1,0,0,0-1.05-.4,1,1,0,0,0-.67.53,1,1,0,0,0,0,.85,1,1,0,1,1-1.82.81,3,3,0,0,1,2-4.13,3,3,0,0,1,3.11,4.72.78.78,0,0,0-.15.77,1,1,0,0,1-.5,1.32A1,1,0,0,1,22.46,23.5Z"
       id="path10" />
    <path
       class="cls-1"
       d="M30,25.68a1.13,1.13,0,0,1-.36-.06A1,1,0,0,1,29,24.33a2.74,2.74,0,0,1,2.24-1.71,1,1,0,1,0-1.07-1.35,1,1,0,0,1-1.29.57,1,1,0,0,1-.58-1.29,3,3,0,1,1,3.22,4.05.77.77,0,0,0-.65.44A1,1,0,0,1,30,25.68Z"
       id="path12" />
    <path
       class="cls-1"
       d="M29,28.36l-.2,0a.7.7,0,0,1-.19-.06.56.56,0,0,1-.17-.09l-.15-.12a1.19,1.19,0,0,1-.22-.33,1,1,0,0,1-.07-.38A1.07,1.07,0,0,1,28,27a1,1,0,0,1,.22-.32.57.57,0,0,1,.15-.12,1,1,0,0,1,.17-.1l.19-.05a1,1,0,0,1,.9.27.87.87,0,0,1,.22.32,1.07,1.07,0,0,1,.07.39,1,1,0,0,1-.07.38,1,1,0,0,1-.92.62Z"
       id="path14" />
    <path
       class="cls-1"
       d="M41.6,20.49a.92.92,0,0,1-.36-.07,1,1,0,0,1-.58-1.29,2.78,2.78,0,0,1,2.25-1.71,1,1,0,0,0,.84-.81,1,1,0,0,0-1.92-.54A1,1,0,1,1,40,15.36a3,3,0,0,1,1.82-1.76,3,3,0,0,1,2.53.26,3,3,0,0,1-1.14,5.54.78.78,0,0,0-.65.45A1,1,0,0,1,41.6,20.49Z"
       id="path16" />
    <path
       class="cls-1"
       d="M40.58,23.17l-.2,0-.19-.06L40,23a.93.93,0,0,1-.15-.13,1,1,0,0,1-.3-.7,1.23,1.23,0,0,1,0-.2l.06-.19.09-.17a.64.64,0,0,1,.13-.15.93.93,0,0,1,.15-.13l.17-.09.19,0a.86.86,0,0,1,.39,0l.19,0,.17.09a.64.64,0,0,1,.15.13,1,1,0,0,1-.7,1.71Z"
       id="path18" />
    <path
       class="cls-1"
       d="M48,29a1,1,0,0,1-.54-.16,1,1,0,0,1-.3-1.38,2.77,2.77,0,0,1,2-1.22,1,1,0,0,0,.84-.82,1,1,0,0,0-1.31-1.12,1,1,0,0,0-.62.6,1,1,0,1,1-1.86-.72,3,3,0,1,1,3.21,4,.78.78,0,0,0-.57.32A1,1,0,0,1,48,29Z"
       id="path20" />
    <path
       class="cls-1"
       d="M35.19,34.9a1.13,1.13,0,0,1-.36-.06l-8.4-3.22a1,1,0,0,1-.58-1.29,1,1,0,0,1,1.29-.57L35.55,33a1,1,0,0,1-.36,1.93Z"
       id="path22" />
    <path
       class="cls-1"
       d="M33.22,39.5a.92.92,0,0,1-.36-.07l-8.22-3.14a1,1,0,0,1,.72-1.86l8.22,3.14a1,1,0,0,1-.36,1.93Z"
       id="path24" />
    <path
       class="cls-2"
       d="M40.5,60A5.5,5.5,0,1,1,46,54.5,5.51,5.51,0,0,1,40.5,60Zm0-9A3.5,3.5,0,1,0,44,54.5,3.5,3.5,0,0,0,40.5,51Z"
       id="path26" />
    <path
       class="cls-2"
       d="M53.5,60A5.5,5.5,0,1,1,59,54.5,5.51,5.51,0,0,1,53.5,60Zm0-9A3.5,3.5,0,1,0,57,54.5,3.5,3.5,0,0,0,53.5,51Z"
       id="path28" />
    <path
       class="cls-2"
       d="M49,56H45a1,1,0,0,1,0-2h4a1,1,0,0,1,0,2Z"
       id="path30" />
    <path
       class="cls-2"
       d="M46.5,48C44.91,48,31,47.89,31,44c0-.66,0-2.66,8.33-3.61a1,1,0,0,1,.22,2c-4.21.49-6,1.26-6.44,1.64.91.75,5.42,2,13.39,2S59,44.76,59.89,44c-.48-.38-2.23-1.15-6.44-1.64a1,1,0,1,1,.22-2C62,41.34,62,43.34,62,44,62,47.89,48.09,48,46.5,48ZM60,44.14h0Z"
       id="path32" />
    <path
       class="cls-2"
       d="M54,45H39a1,1,0,0,1-1-1.16l2-12A1,1,0,0,1,41,31H52a1,1,0,0,1,1,.84l2,12A1,1,0,0,1,54,45ZM40.18,43H52.82L51.15,33h-9.3Z"
       id="path34" />
    <path
       class="cls-3"
       d="M21.66,55.1a5,5,0,0,1-4.57-3L4.44,23.84A5,5,0,0,1,7,17.23L28.2,7.74A1,1,0,0,1,29.54,9L18.71,37.36a3,3,0,0,0,.07,2.3,3,3,0,0,0,1.66,1.58l8.08,3.09a1,1,0,1,1-.72,1.86L19.72,43.1a5,5,0,0,1-2.87-6.46l10-26.09-19,8.5a3,3,0,0,0-1.52,4l12.65,28.3a3,3,0,0,0,4,1.52l9.71-4.34a1,1,0,1,1,.82,1.82l-9.71,4.34A4.89,4.89,0,0,1,21.66,55.1Z"
       id="path36" />
    <path
       class="cls-3"
       d="M55.42,29.16a.92.92,0,0,1-.36-.07,1,1,0,0,1-.57-1.29l3.32-8.69a3,3,0,0,0-1.73-3.86L33.65,6.67a3,3,0,0,0-2.3.07A3,3,0,0,0,29.77,8.4l-.22.6a1,1,0,1,1-1.88-.7l.23-.61a5,5,0,0,1,6.47-2.88l22.42,8.57a5,5,0,0,1,2.89,6.44l-3.33,8.7A1,1,0,0,1,55.42,29.16Z"
       id="path38" />
  </g>
</svg>
