<?xml version="1.0" encoding="UTF-8" standalone="no"?>
<svg
   xmlns:dc="http://purl.org/dc/elements/1.1/"
   xmlns:cc="http://creativecommons.org/ns#"
   xmlns:rdf="http://www.w3.org/1999/02/22-rdf-syntax-ns#"
   xmlns:svg="http://www.w3.org/2000/svg"
   xmlns="http://www.w3.org/2000/svg"
   xmlns:sodipodi="http://sodipodi.sourceforge.net/DTD/sodipodi-0.dtd"
   xmlns:inkscape="http://www.inkscape.org/namespaces/inkscape"
   width="800px"
   height="800px"
   viewBox="0 0 1024 1024"
   class="icon"
   version="1.1"
   id="svg12"
   sodipodi:docname="wrench.svg"
   inkscape:export-filename="C:\Users\keega\Documents\cannlytics\cannlytics\app\assets\images\icons\wrench.png"
   inkscape:export-xdpi="96"
   inkscape:export-ydpi="96"
   inkscape:version="1.0.1 (3bc2e813f5, 2020-09-07)">
  <metadata
     id="metadata18">
    <rdf:RDF>
      <cc:Work
         rdf:about="">
        <dc:format>image/svg+xml</dc:format>
        <dc:type
           rdf:resource="http://purl.org/dc/dcmitype/StillImage" />
      </cc:Work>
    </rdf:RDF>
  </metadata>
  <defs
     id="defs16" />
  <sodipodi:namedview
     pagecolor="#ffffff"
     bordercolor="#666666"
     borderopacity="1"
     objecttolerance="10"
     gridtolerance="10"
     guidetolerance="10"
     inkscape:pageopacity="0"
     inkscape:pageshadow="2"
     inkscape:window-width="1920"
     inkscape:window-height="1094"
     id="namedview14"
     showgrid="false"
     inkscape:zoom="0.66556426"
     inkscape:cx="501.70456"
     inkscape:cy="464.80067"
     inkscape:window-x="-11"
     inkscape:window-y="-11"
     inkscape:window-maximized="1"
     inkscape:current-layer="svg12" />
  <path
     d="M465.425064 456.68202c-3.982425-3.982425-10.499121-3.982425-14.481546 0l-286.010551 286.010551c-3.982425 3.982425-3.982425 10.499121 0 14.481547l97.750441 97.750441c3.982425 3.982425 10.499121 3.982425 14.481547 0L563.175506 568.914008c3.982425-3.982425 3.982425-10.499121 0-14.481546L465.425064 456.68202z m10.861161-10.86116l97.750441 97.750441c10.137083 10.137083 10.137083 26.066784 0 36.203868l-286.010551 286.01055c-10.137083 10.137083-26.066784 10.137083-36.203867 0L154.071806 768.035278c-10.137083-10.137083-10.137083-26.066784 0-36.203867L440.082357 445.82086c10.137083-10.137083 26.066784-10.137083 36.203868 0z"
     fill=""
     id="path2" />
  <path
     d="M302.807778 741.190027a25.6 25.6 0 1 0-51.2 0.000894 25.6 25.6 0 1 0 51.2-0.000894Z"
     fill="#7ED321"
     id="path4"
     style="fill:#f57c00;fill-opacity:1" />
  <path
     d="M882.131576 294.850734l-121.282955 121.282955-10.86116-10.86116c-70.235502-72.407734-123.455187-126.351497-159.297016-162.193325-17.739895-17.739895-31.135326-31.135326-40.186293-39.462216l-2.53427-2.53427C482.802921 276.386762 485.337191 389.704866 555.934732 460.302407c73.855889 73.855889 194.776806 73.131812 269.718811-1.810193 51.047453-51.047453 69.873464-105.353254 56.478033-163.64148z m-120.920917 99.198596L889.734388 265.525601C916.52525 339.38149 898.785355 407.082722 836.514703 469.353374 755.418041 550.450036 625.084119 551.174114 545.073572 471.163567S465.787103 260.819099 546.883766 179.722436c1.810193-1.810193 69.511425 65.891038 203.465733 203.465734l10.86116 10.86116z"
     fill=""
     id="path6" />
  <path
     d="M686.268654 279.283071L608.43034 201.444756l5.068541-6.516696c3.620387-5.068541 8.688928-10.86116 14.119508-16.29174C673.235262 133.019447 744.194842 127.226829 788.725598 165.240889L795.242295 170.309431 686.268654 279.283071z m-57.564149-79.286469L686.268654 257.560751 772.07182 171.757585c-38.738138-27.1529-95.940248-19.912127-133.59227 17.739895-3.258348 3.258348-6.878735 6.878735-9.775045 10.499122zM260.873215 758.984311c9.050967 9.050967 23.532514 9.050967 32.58348 0s9.050967-23.532514 0-32.58348-23.532514-9.050967-32.58348 0-9.050967 23.532514 0 32.58348z m-10.86116 10.86116c-14.843586-14.843586-14.843586-39.462215 0-54.3058s39.462215-14.843586 54.3058 0 14.843586 39.462215 0 54.3058-39.462215 14.843586-54.3058 0zM552.314346 355.311192l104.991215 104.991215L697.129814 420.478153 592.1386 315.486938l-39.824254 39.824254z m47.065027-54.305801l112.231988 112.231989c3.982425 3.982425 3.982425 10.499121 0 14.481546l-47.065027 47.065028c-3.982425 3.982425-10.499121 3.982425-14.481547 0L537.832799 362.551965c-3.982425-3.982425-3.982425-10.499121 0-14.481546L584.897826 301.005391c3.982425-3.982425 10.499121-3.982425 14.481547 0z"
     fill=""
     id="path8" />
  <path
     d="M624.72208 348.070419l-32.58348 32.58348c-3.982425 3.982425-10.499121 3.982425-14.481547 0l-10.86116-10.86116c-3.982425-3.982425-3.982425-10.499121 0-14.481547l32.221441-32.221442 25.704746 24.980669zM657.305561 380.653899l-32.583481 32.583481c-3.982425 3.982425-10.499121 3.982425-14.481547 0l-10.86116-10.861161c-3.982425-3.982425-3.982425-10.499121 0-14.481547l32.221442-32.221441 25.704746 24.980668zM689.889041 413.23738l-32.58348 32.58348c-3.982425 3.982425-10.499121 3.982425-14.481547 0l-10.861161-10.86116c-3.982425-3.982425-3.982425-10.499121 0-14.481547l32.221442-32.221442 25.704746 24.980669z"
     fill="#7ED321"
     id="path10"
     style="fill:#f57c00;fill-opacity:1" />
</svg>
