<?xml version="1.0" encoding="UTF-8" standalone="no"?>
<svg
   xmlns:dc="http://purl.org/dc/elements/1.1/"
   xmlns:cc="http://creativecommons.org/ns#"
   xmlns:rdf="http://www.w3.org/1999/02/22-rdf-syntax-ns#"
   xmlns:svg="http://www.w3.org/2000/svg"
   xmlns="http://www.w3.org/2000/svg"
   xmlns:sodipodi="http://sodipodi.sourceforge.net/DTD/sodipodi-0.dtd"
   xmlns:inkscape="http://www.inkscape.org/namespaces/inkscape"
   height="480pt"
   viewBox="0 -4 480 480"
   width="480pt"
   version="1.1"
   id="svg94"
   sodipodi:docname="organization.svg"
   inkscape:export-filename="C:\Users\keega\Documents\cannlytics\cannlytics-console\console\static\console\images\account\organization.png"
   inkscape:export-xdpi="96"
   inkscape:export-ydpi="96"
   inkscape:version="1.0.1 (3bc2e813f5, 2020-09-07)">
  <metadata
     id="metadata100">
    <rdf:RDF>
      <cc:Work
         rdf:about="">
        <dc:format>image/svg+xml</dc:format>
        <dc:type
           rdf:resource="http://purl.org/dc/dcmitype/StillImage" />
      </cc:Work>
    </rdf:RDF>
  </metadata>
  <defs
     id="defs98" />
  <sodipodi:namedview
     pagecolor="#ffffff"
     bordercolor="#666666"
     borderopacity="1"
     objecttolerance="10"
     gridtolerance="10"
     guidetolerance="10"
     inkscape:pageopacity="0"
     inkscape:pageshadow="2"
     inkscape:window-width="1920"
     inkscape:window-height="1094"
     id="namedview96"
     showgrid="false"
     inkscape:zoom="1.1765625"
     inkscape:cx="320"
     inkscape:cy="320"
     inkscape:window-x="-11"
     inkscape:window-y="-11"
     inkscape:window-maximized="1"
     inkscape:current-layer="svg94" />
  <path
     d="m352 80h120v192h-120zm0 0"
     fill="#e0e0de"
     id="path2" />
  <path
     d="m8 80h120v192h-120zm0 0"
     fill="#e0e0de"
     id="path4" />
  <path
     d="m128 128v144h64v-144zm0 0"
     fill="#c7c7c5"
     id="path6" />
  <path
     d="m288 128v144h64v-144zm0 0"
     fill="#c7c7c5"
     id="path8" />
  <path
     d="m160 48h32v80h-32zm0 0"
     fill="#bfbfbd"
     id="path10" />
  <path
     d="m288 48h32v80h-32zm0 0"
     fill="#bfbfbd"
     id="path12" />
  <path
     d="m192 272v-272h96v272"
     fill="#e0e0de"
     id="path14" />
  <g
     fill="#c7c7c5"
     id="g36">
    <path
       d="m216 24h16v16h-16zm0 0"
       id="path16" />
    <path
       d="m248 24h16v16h-16zm0 0"
       id="path18" />
    <path
       d="m216 56h16v16h-16zm0 0"
       id="path20" />
    <path
       d="m248 56h16v16h-16zm0 0"
       id="path22" />
    <path
       d="m216 88h16v16h-16zm0 0"
       id="path24" />
    <path
       d="m248 88h16v16h-16zm0 0"
       id="path26" />
    <path
       d="m216 120h16v16h-16zm0 0"
       id="path28" />
    <path
       d="m248 120h16v16h-16zm0 0"
       id="path30" />
    <path
       d="m216 152h16v16h-16zm0 0"
       id="path32" />
    <path
       d="m248 152h16v16h-16zm0 0"
       id="path34" />
  </g>
  <path
     d="m312 152h16v16h-16zm0 0"
     fill="#a3a3a1"
     id="path38" />
  <path
     d="m312 184h16v16h-16zm0 0"
     fill="#a3a3a1"
     id="path40" />
  <path
     d="m312 216h16v16h-16zm0 0"
     fill="#a3a3a1"
     id="path42" />
  <path
     d="m312 248h16v16h-16zm0 0"
     fill="#a3a3a1"
     id="path44" />
  <path
     d="m152 152h16v16h-16zm0 0"
     fill="#a3a3a1"
     id="path46" />
  <path
     d="m152 184h16v16h-16zm0 0"
     fill="#a3a3a1"
     id="path48" />
  <path
     d="m152 216h16v16h-16zm0 0"
     fill="#a3a3a1"
     id="path50" />
  <path
     d="m152 248h16v16h-16zm0 0"
     fill="#a3a3a1"
     id="path52" />
  <path
     d="m368 48h88v32h-88zm0 0"
     fill="#d6d6d4"
     id="path54" />
  <path
     d="m376 104h32v16h-32zm0 0"
     fill="#c7c7c5"
     id="path56" />
  <path
     d="m424 104h32v16h-32zm0 0"
     fill="#c7c7c5"
     id="path58" />
  <path
     d="m376 136h32v16h-32zm0 0"
     fill="#c7c7c5"
     id="path60" />
  <path
     d="m424 136h32v16h-32zm0 0"
     fill="#c7c7c5"
     id="path62" />
  <path
     d="m24 48h88v32h-88zm0 0"
     fill="#d6d6d4"
     id="path64" />
  <path
     d="m32 104h72v16h-72zm0 0"
     fill="#c7c7c5"
     id="path66" />
  <path
     d="m32 136h72v16h-72zm0 0"
     fill="#c7c7c5"
     id="path68" />
  <path
     d="m305.441406 294.078125c-5.714844-13.394531-18.875-22.085937-33.441406-22.078125h-64c-14.5625.003906-27.714844 8.691406-33.441406 22.078125l-18.558594 39.425781 20 42.496094 32-72v160h64v-152l32 64 20-42.496094zm0 0"
     fill="#4db7e5"
     id="path70" />
  <path
     d="m440 272h-64c-14.558594 0-27.71875 8.675781-33.457031 22.054688l-18.542969 39.449218-20 42.496094h40l32-72v160h64v-88h32v-72c0-17.671875-14.328125-32-32-32zm0 0"
     fill="#348fd9"
     id="path72" />
  <path
     d="m156 333.519531-18.550781-39.449219c-5.734375-13.382812-18.890625-22.0625-33.449219-22.070312h-64c-17.671875 0-32 14.328125-32 32v72h32v88h64v-152l32 64h40l-20-42.496094zm0 0"
     fill="#348fd9"
     id="path74" />
  <path
     d="m240 192c17.671875 0 32 14.328125 32 32v16c0 17.671875-14.328125 32-32 32s-32-14.328125-32-32v-16c0-17.671875 14.328125-32 32-32zm0 0"
     fill="#4db7e5"
     id="path76" />
  <path
     d="m72 192c17.671875 0 32 14.328125 32 32v16c0 17.671875-14.328125 32-32 32s-32-14.328125-32-32v-16c0-17.671875 14.328125-32 32-32zm0 0"
     fill="#348fd9"
     id="path78" />
  <path
     d="m408 272c-17.671875 0-32-14.328125-32-32v-16c0-17.671875 14.328125-32 32-32s32 14.328125 32 32v16c0 17.671875-14.328125 32-32 32zm0 0"
     fill="#348fd9"
     id="path80" />
  <path
     d="m64 376h16v88h-16zm0 0"
     fill="#2a71ad"
     id="path82" />
  <path
     d="m32 304h16v72h-16zm0 0"
     fill="#2a71ad"
     id="path84" />
  <path
     d="m432 296h16v80h-16zm0 0"
     fill="#2a71ad"
     id="path86" />
  <path
     d="m400 376h16v88h-16zm0 0"
     fill="#2a71ad"
     id="path88" />
  <path
     d="m232 384h16v80h-16zm0 0"
     fill="#419bc2"
     id="path90" />
  <path
     d="m0 456h480v16h-480zm0 0"
     fill="#e0e0de"
     id="path92" />
</svg>
