<?xml version="1.0" encoding="UTF-8" standalone="no"?>
<svg
   xmlns:dc="http://purl.org/dc/elements/1.1/"
   xmlns:cc="http://creativecommons.org/ns#"
   xmlns:rdf="http://www.w3.org/1999/02/22-rdf-syntax-ns#"
   xmlns:svg="http://www.w3.org/2000/svg"
   xmlns="http://www.w3.org/2000/svg"
   xmlns:sodipodi="http://sodipodi.sourceforge.net/DTD/sodipodi-0.dtd"
   xmlns:inkscape="http://www.inkscape.org/namespaces/inkscape"
   width="531px"
   height="531px"
   viewBox="0 0 531 531"
   version="1.1"
   id="svg8"
   sodipodi:docname="user.svg"
   inkscape:version="1.0.1 (3bc2e813f5, 2020-09-07)"
   inkscape:export-filename="C:\Users\keega\Documents\cannlytics\cannlytics\console\static\console\images\account\user.png"
   inkscape:export-xdpi="96"
   inkscape:export-ydpi="96">
  <metadata
     id="metadata14">
    <rdf:RDF>
      <cc:Work
         rdf:about="">
        <dc:format>image/svg+xml</dc:format>
        <dc:type
           rdf:resource="http://purl.org/dc/dcmitype/StillImage" />
        <dc:title>Combined Shape</dc:title>
      </cc:Work>
    </rdf:RDF>
  </metadata>
  <defs
     id="defs12" />
  <sodipodi:namedview
     pagecolor="#ffffff"
     bordercolor="#666666"
     borderopacity="1"
     objecttolerance="10"
     gridtolerance="10"
     guidetolerance="10"
     inkscape:pageopacity="0"
     inkscape:pageshadow="2"
     inkscape:window-width="1920"
     inkscape:window-height="1120"
     id="namedview10"
     showgrid="false"
     inkscape:zoom="1.4180791"
     inkscape:cx="265.5"
     inkscape:cy="265.5"
     inkscape:window-x="-11"
     inkscape:window-y="-11"
     inkscape:window-maximized="1"
     inkscape:current-layer="svg8"
     inkscape:document-rotation="0" />
  <!-- Generator: Sketch 64 (93537) - https://sketch.com -->
  <title
     id="title2">Combined Shape</title>
  <desc
     id="desc4">Created with Sketch.</desc>
  <g
     id="Page-1"
     stroke="none"
     stroke-width="1"
     fill="none"
     fill-rule="evenodd"
     style="fill:#666666;fill-opacity:1">
    <path
       d="M531,0 L531,531 L489.742337,531.001012 C489.912689,529.35716 490,527.688732 490,526 L490,484.4 C490,410.2 429.8,350 355.6,350 L338.9,350 C316.7,360.2 292,366 266,366 C240,366 215.4,360.2 193.1,350 L176.4,350 C102.2,350 42,410.2 42,484.4 L42,526 C42,527.688732 42.0873109,529.35716 42.2576626,531.001012 L0,531 L0,0 L531,0 Z M266,62 C195.3,62 138,119.3 138,190 C138,260.7 195.3,318 266,318 C336.7,318 394,260.7 394,190 C394,119.3 336.7,62 266,62 Z"
       id="Combined-Shape"
       fill="#000000"
       style="fill:#666666;fill-opacity:1" />
  </g>
</svg>
