<?xml version="1.0" encoding="UTF-8" standalone="no"?>
<!-- Created with Inkscape (http://www.inkscape.org/) -->
<svg
   xmlns:cdml="http://www.freesoftware.fsf.org/bkchem/cdml"
   xmlns:svg="http://www.w3.org/2000/svg"
   xmlns="http://www.w3.org/2000/svg"
   version="1.0"
   width="84.75mm"
   height="42.110161mm"
   viewBox="0 0 320 159"
   id="svg2">
  <defs
     id="defs177" />
  <path
     d="M 58,33 L 58,59.392532"
     id="line8"
     style="font-size:15px;stroke:#000000;stroke-width:1;stroke-linecap:round;font-family:Helvetica" />
  <path
     d="M 103.78163,32.953743 L 119,24.164452"
     id="line12"
     style="font-size:15px;stroke:#000000;stroke-width:1;stroke-linecap:round;font-family:Helvetica" />
  <path
     d="M 103.78163,59.384422 L 119,68.173706"
     id="line16"
     style="font-size:15px;stroke:#000000;stroke-width:1;stroke-linecap:round;font-family:Helvetica" />
  <path
     d="M 268.9899,99.113472 L 266.48547,103.44103"
     id="line20"
     style="font-size:15px;stroke:#000000;stroke-width:1;stroke-linecap:round;font-family:Helvetica" />
  <path
     d="M 272.74402,101.28603 L 270.23956,105.6136"
     id="line22"
     style="font-size:15px;stroke:#000000;stroke-width:1;stroke-linecap:round;font-family:Helvetica" />
  <path
     d="M 276.49811,103.4586 L 273.99368,107.78616"
     id="line24"
     style="font-size:15px;stroke:#000000;stroke-width:1;stroke-linecap:round;font-family:Helvetica" />
  <path
     d="M 280.25223,105.63116 L 277.74777,109.95872"
     id="line26"
     style="font-size:15px;stroke:#000000;stroke-width:1;stroke-linecap:round;font-family:Helvetica" />
  <path
     d="M 239.11481,59.449059 L 239.12936,39.998501"
     id="line30"
     style="font-size:15px;stroke:#000000;stroke-width:1;stroke-linecap:round;font-family:Helvetica" />
  <path
     d="M 243.11481,59.452057 L 243.12936,40.001499"
     id="line32"
     style="font-size:15px;stroke:#000000;stroke-width:1;stroke-linecap:round;font-family:Helvetica" />
  <path
     d="M 123.28163,72.38442 L 121.28163,45.953741 L 126.28163,45.953741 L 124.28163,72.38442 L 123.28163,72.38442 z"
     transform="translate(-20,-13)"
     id="polygon36"
     style="font-size:15px;fill:#000000;stroke:#000000;stroke-width:1;stroke-linecap:round;font-family:Helvetica" />
  <path
     d="M 172.43182,99.037727 L 172.45163,72.604424"
     id="line40"
     style="font-size:15px;stroke:#000000;stroke-width:1;stroke-linecap:round;font-family:Helvetica" />
  <path
     d="M 178.4343,95.738068 L 178.44916,75.913078"
     id="line42"
     style="font-size:15px;stroke:#000000;stroke-width:1;stroke-linecap:round;font-family:Helvetica" />
  <path
     d="M 102.78138,34.685646 L 87.999748,26.14859"
     id="line46"
     style="font-size:15px;stroke:#000000;stroke-width:1;stroke-linecap:round;font-family:Helvetica" />
  <path
     d="M 104.78188,31.221836 L 90.000252,22.684784"
     id="line48"
     style="font-size:15px;stroke:#000000;stroke-width:1;stroke-linecap:round;font-family:Helvetica" />
  <path
     d="M 149.56163,59.384422 L 172.45163,72.604424"
     id="line52"
     style="font-size:15px;stroke:#000000;stroke-width:1;stroke-linecap:round;font-family:Helvetica" />
  <path
     d="M 12.228699,59.392532 L 35.114349,72.614777"
     id="line56"
     style="font-size:15px;stroke:#000000;stroke-width:1;stroke-linecap:round;font-family:Helvetica" />
  <path
     d="M 12.228699,33 L 12.228699,59.392532"
     id="line64"
     style="font-size:15px;stroke:#000000;stroke-width:1;stroke-linecap:round;font-family:Helvetica" />
  <path
     d="M 18.228699,36.299068 L 18.228699,56.093468"
     id="line66"
     style="font-size:15px;stroke:#000000;stroke-width:1;stroke-linecap:round;font-family:Helvetica" />
  <path
     d="M 12.228699,33 L 35.114349,19.777756"
     id="line70"
     style="font-size:15px;stroke:#000000;stroke-width:1;stroke-linecap:round;font-family:Helvetica" />
  <path
     d="M 218.18661,99.070381 L 241.0752,112.2912"
     id="line74"
     style="font-size:15px;stroke:#000000;stroke-width:1;stroke-linecap:round;font-family:Helvetica" />
  <path
     d="M 263.98358,99.104691 L 263.99789,80"
     id="line78"
     style="font-size:15px;stroke:#000000;stroke-width:1;stroke-linecap:round;font-family:Helvetica" />
  <path
     d="M 80.891632,72.604424 L 103.78163,59.384422"
     id="line82"
     style="font-size:15px;stroke:#000000;stroke-width:1;stroke-linecap:round;font-family:Helvetica" />
  <path
     d="M 195.31642,59.417068 L 195.32219,40"
     id="line86"
     style="font-size:15px;stroke:#000000;stroke-width:1;stroke-linecap:round;font-family:Helvetica" />
  <path
     d="M 241.0752,112.2912 L 263.98358,99.104691"
     id="line90"
     style="font-size:15px;stroke:#000000;stroke-width:1;stroke-linecap:round;font-family:Helvetica" />
  <path
     d="M 241.11481,59.450562 L 218.20642,72.637062"
     id="line94"
     style="font-size:15px;stroke:#000000;stroke-width:1;stroke-linecap:round;font-family:Helvetica" />
  <path
     d="M 195.32182,112.25774 L 195.31686,129"
     id="line98"
     style="font-size:15px;stroke:#000000;stroke-width:1;stroke-linecap:round;font-family:Helvetica" />
  <path
     d="M 147.56163,59.384422 L 147.56163,40"
     id="line102"
     style="font-size:15px;stroke:#000000;stroke-width:1;stroke-linecap:round;font-family:Helvetica" />
  <path
     d="M 151.56163,59.384422 L 151.56163,40"
     id="line104"
     style="font-size:15px;stroke:#000000;stroke-width:1;stroke-linecap:round;font-family:Helvetica" />
  <path
     d="M 195.32182,112.25774 L 218.18661,99.070381"
     id="line108"
     style="font-size:15px;stroke:#000000;stroke-width:1;stroke-linecap:round;font-family:Helvetica" />
  <path
     d="M 195.18225,105.41182 L 212.33086,95.521301"
     id="line110"
     style="font-size:15px;stroke:#000000;stroke-width:1;stroke-linecap:round;font-family:Helvetica" />
  <path
     d="M 195.32182,112.25774 L 172.43182,99.037727"
     id="line114"
     style="font-size:15px;stroke:#000000;stroke-width:1;stroke-linecap:round;font-family:Helvetica" />
  <path
     d="M 172.45163,72.604424 L 195.31642,59.417068"
     id="line118"
     style="font-size:15px;stroke:#000000;stroke-width:1;stroke-linecap:round;font-family:Helvetica" />
  <path
     d="M 218.18661,99.070381 L 218.20642,72.637062"
     id="line122"
     style="font-size:15px;stroke:#000000;stroke-width:1;stroke-linecap:round;font-family:Helvetica" />
  <path
     d="M 256,68.048492 L 241.11481,59.450562"
     id="line126"
     style="font-size:15px;stroke:#000000;stroke-width:1;stroke-linecap:round;font-family:Helvetica" />
  <path
     d="M 195.31642,59.417068 L 218.20642,72.637062"
     id="line130"
     style="font-size:15px;stroke:#000000;stroke-width:1;stroke-linecap:round;font-family:Helvetica" />
  <path
     d="M 195.17693,66.265282 L 212.34442,76.180283"
     id="line132"
     style="font-size:15px;stroke:#000000;stroke-width:1;stroke-linecap:round;font-family:Helvetica" />
  <path
     d="M 35.114349,19.777756 L 58,33"
     id="line136"
     style="font-size:15px;stroke:#000000;stroke-width:1;stroke-linecap:round;font-family:Helvetica" />
  <path
     d="M 34.973488,26.625786 L 52.137726,36.542465"
     id="line138"
     style="font-size:15px;stroke:#000000;stroke-width:1;stroke-linecap:round;font-family:Helvetica" />
  <path
     d="M 58,59.392532 L 35.114349,72.614777"
     id="line142"
     style="font-size:15px;stroke:#000000;stroke-width:1;stroke-linecap:round;font-family:Helvetica" />
  <path
     d="M 52.137726,55.850067 L 34.973488,65.766747"
     id="line144"
     style="font-size:15px;stroke:#000000;stroke-width:1;stroke-linecap:round;font-family:Helvetica" />
  <path
     d="M 134,68.371956 L 149.56163,59.384422"
     id="line148"
     style="font-size:15px;stroke:#000000;stroke-width:1;stroke-linecap:round;font-family:Helvetica" />
  <path
     d="M 58,59.392532 L 80.891632,72.604424"
     id="line152"
     style="font-size:15px;stroke:#000000;stroke-width:1;stroke-linecap:round;font-family:Helvetica" />
  <path
     d="M 144.0251,32.072567 C 144.0251,30.290347 144.50362,28.895085 145.46065,27.886776 C 146.41768,26.878486 147.65303,26.374336 149.1667,26.374325 C 150.15791,26.374336 151.05146,26.611152 151.84737,27.084774 C 152.64326,27.558417 153.24994,28.218816 153.66743,29.065975 C 154.0849,29.913151 154.29364,30.873843 154.29366,31.948055 C 154.29364,33.036927 154.07392,34.011047 153.63448,34.870419 C 153.19501,35.729795 152.57245,36.380429 151.7668,36.822323 C 150.96113,37.264217 150.09199,37.485164 149.15938,37.485165 C 148.14863,37.485164 147.24531,37.241024 146.44942,36.752743 C 145.65352,36.264463 145.05049,35.597959 144.64034,34.753231 C 144.23018,33.908508 144.0251,33.014954 144.0251,32.072567 L 144.0251,32.072567 z M 145.48994,32.09454 C 145.48994,33.388489 145.83784,34.407775 146.53365,35.152401 C 147.22944,35.897031 148.10224,36.269345 149.15205,36.269344 C 150.22138,36.269345 151.10151,35.893369 151.79243,35.141415 C 152.48334,34.389464 152.8288,33.322571 152.82881,31.940731 C 152.8288,31.066714 152.6811,30.303775 152.3857,29.651913 C 152.09028,29.000066 151.65815,28.494695 151.08931,28.135799 C 150.52045,27.776922 149.88203,27.597479 149.17403,27.597469 C 148.16816,27.597479 147.30268,27.942938 146.57759,28.633846 C 145.85249,29.324772 145.48994,30.478336 145.48994,32.09454 L 145.48994,32.09454 z"
     id="text154"
     style="font-size:15px;fill:#000000;stroke-linecap:round;font-family:helvetica" />
  <path
     d="M 190.37341,32.105213 C 190.37341,30.322994 190.85193,28.927731 191.80896,27.919422 C 192.76599,26.911132 194.00134,26.406982 195.51501,26.406971 C 196.50622,26.406982 197.39977,26.643798 198.19568,27.11742 C 198.99157,27.591063 199.59826,28.251462 200.01575,29.098621 C 200.43322,29.945797 200.64196,30.906489 200.64197,31.980701 C 200.64196,33.069573 200.42223,34.043693 199.98279,34.903065 C 199.54333,35.762441 198.92077,36.413075 198.11511,36.854969 C 197.30944,37.296864 196.4403,37.517811 195.50769,37.517811 C 194.49694,37.517811 193.59362,37.27367 192.79773,36.785389 C 192.00183,36.297109 191.3988,35.630605 190.98865,34.785877 C 190.57849,33.941154 190.37341,33.0476 190.37341,32.105213 L 190.37341,32.105213 z M 191.83826,32.127186 C 191.83825,33.421135 192.18615,34.440421 192.88196,35.185047 C 193.57775,35.929677 194.45056,36.301992 195.50037,36.301991 C 196.5697,36.301992 197.44982,35.926015 198.14075,35.174061 C 198.83166,34.422111 199.17711,33.355217 199.17712,31.973377 C 199.17711,31.09936 199.02941,30.336421 198.73401,29.684559 C 198.43859,29.032712 198.00646,28.527341 197.43762,28.168446 C 196.86877,27.809568 196.23034,27.630125 195.52234,27.630116 C 194.51647,27.630125 193.651,27.975584 192.9259,28.666492 C 192.2008,29.357418 191.83825,30.510982 191.83826,32.127186 L 191.83826,32.127186 z M 202.50964,37.334705 L 202.50964,26.597401 L 203.93054,26.597401 L 203.93054,31.00658 L 209.5116,31.00658 L 209.5116,26.597401 L 210.9325,26.597401 L 210.9325,37.334705 L 209.5116,37.334705 L 209.5116,32.27367 L 203.93054,32.27367 L 203.93054,37.334705 L 202.50964,37.334705 z"
     id="text156"
     style="font-size:15px;fill:#000000;stroke-linecap:round;font-family:helvetica" />
  <path
     d="M 235.92398,31.239834 C 235.92398,29.457614 236.4025,28.062352 237.35953,27.054043 C 238.31656,26.045752 239.55191,25.541603 241.06558,25.541592 C 242.05679,25.541603 242.95034,25.778419 243.74625,26.252041 C 244.54214,26.725683 245.14882,27.386083 245.56631,28.233242 C 245.98378,29.080417 246.19252,30.04111 246.19254,31.115322 C 246.19252,32.204194 245.9728,33.178314 245.53336,34.037685 C 245.09389,34.897062 244.47133,35.547696 243.66568,35.98959 C 242.86001,36.431484 241.99087,36.652431 241.05826,36.652431 C 240.04751,36.652431 239.14419,36.408291 238.3483,35.92001 C 237.5524,35.431729 236.94937,34.765226 236.53922,33.920498 C 236.12906,33.075775 235.92398,32.182221 235.92398,31.239834 L 235.92398,31.239834 z M 237.38882,31.261806 C 237.38882,32.555756 237.73672,33.575042 238.43253,34.319668 C 239.12832,35.064298 240.00112,35.436612 241.05093,35.436611 C 242.12026,35.436612 243.00039,35.060636 243.69131,34.308681 C 244.38222,33.556731 244.72768,32.489838 244.72769,31.107998 C 244.72768,30.233981 244.57998,29.471042 244.28458,28.81918 C 243.98916,28.167332 243.55703,27.661962 242.98819,27.303066 C 242.41933,26.944189 241.78091,26.764746 241.07291,26.764736 C 240.06704,26.764746 239.20156,27.110205 238.47647,27.801113 C 237.75137,28.492039 237.38882,29.645602 237.38882,31.261806 L 237.38882,31.261806 z"
     id="text158"
     style="font-size:15px;fill:#000000;stroke-linecap:round;font-family:helvetica" />
  <path
     d="M 289.11835,114.27544 L 290.53925,114.63433 C 290.24138,115.80133 289.7055,116.69122 288.93158,117.30401 C 288.15765,117.9168 287.2116,118.2232 286.09344,118.2232 C 284.93621,118.2232 283.99505,117.9876 283.26996,117.51641 C 282.54486,117.04522 281.9931,116.36285 281.61469,115.46929 C 281.23627,114.57574 281.04706,113.61627 281.04706,112.59087 C 281.04706,111.47272 281.26068,110.49738 281.68793,109.66485 C 282.11517,108.83234 282.72308,108.20001 283.51166,107.76788 C 284.30023,107.33576 285.16815,107.11969 286.11542,107.11968 C 287.18963,107.11969 288.09295,107.39313 288.82538,107.93999 C 289.55779,108.48688 290.06804,109.25592 290.35614,110.24712 L 288.95721,110.57671 C 288.70818,109.79547 288.34685,109.22662 287.87323,108.87017 C 287.39959,108.51373 286.80389,108.33551 286.08612,108.3355 C 285.26092,108.33551 284.57122,108.53327 284.01703,108.92876 C 283.46283,109.32428 283.07342,109.85529 282.84882,110.52178 C 282.6242,111.18829 282.5119,111.87555 282.5119,112.58355 C 282.5119,113.49664 282.64496,114.29376 282.91107,114.97491 C 283.17718,115.65606 283.591,116.16509 284.15253,116.50201 C 284.71405,116.83892 285.32196,117.00738 285.97626,117.00738 C 286.77215,117.00738 287.44598,116.77789 287.99774,116.3189 C 288.54949,115.85992 288.92303,115.17877 289.11835,114.27544 L 289.11835,114.27544 z M 292.341,118.04009 L 292.341,107.30279 L 293.7619,107.30279 L 293.7619,111.71197 L 299.34296,111.71197 L 299.34296,107.30279 L 300.76385,107.30279 L 300.76385,118.04009 L 299.34296,118.04009 L 299.34296,112.97906 L 293.7619,112.97906 L 293.7619,118.04009 L 292.341,118.04009 z"
     id="text160"
     style="font-size:15px;fill:#000000;stroke-linecap:round;font-family:helvetica" />
  <path
     d="M 258.92395,71.790199 C 258.92395,70.00798 259.40246,68.612717 260.3595,67.604408 C 261.31653,66.596118 262.55188,66.091968 264.06555,66.091957 C 265.05676,66.091968 265.95031,66.328784 266.74622,66.802406 C 267.5421,67.276049 268.14879,67.936449 268.56628,68.783607 C 268.98375,69.630783 269.19249,70.591475 269.1925,71.665688 C 269.19249,72.754559 268.97277,73.728679 268.53333,74.588051 C 268.09386,75.447427 267.4713,76.098062 266.66565,76.539955 C 265.85998,76.98185 264.99084,77.202797 264.05823,77.202797 C 263.04748,77.202797 262.14416,76.958656 261.34827,76.470375 C 260.55237,75.982095 259.94934,75.315592 259.53918,74.470863 C 259.12903,73.62614 258.92395,72.732586 258.92395,71.790199 L 258.92395,71.790199 z M 260.38879,71.812172 C 260.38879,73.106121 260.73669,74.125407 261.4325,74.870033 C 262.12829,75.614664 263.00109,75.986978 264.0509,75.986977 C 265.12023,75.986978 266.00036,75.611001 266.69128,74.859047 C 267.38219,74.107097 267.72765,73.040203 267.72766,71.658363 C 267.72765,70.784346 267.57995,70.021407 267.28455,69.369545 C 266.98913,68.717698 266.557,68.212327 265.98816,67.853432 C 265.4193,67.494555 264.78088,67.315111 264.07288,67.315102 C 263.06701,67.315111 262.20153,67.66057 261.47644,68.351479 C 260.75134,69.042405 260.38879,70.195968 260.38879,71.812172 L 260.38879,71.812172 z"
     id="text164"
     style="font-size:15px;fill:#000000;stroke-linecap:round;font-family:helvetica" />
  <path
     d="M 198.01724,138.3732 L 199.43814,138.73209 C 199.14028,139.89908 198.60439,140.78897 197.83047,141.40176 C 197.05654,142.01456 196.1105,142.32095 194.99234,142.32095 C 193.83511,142.32095 192.89395,142.08536 192.16885,141.61417 C 191.44375,141.14298 190.892,140.4606 190.51358,139.56705 C 190.13516,138.6735 189.94595,137.71402 189.94595,136.68863 C 189.94595,135.57047 190.15958,134.59513 190.58682,133.7626 C 191.01407,132.93009 191.62198,132.29777 192.41055,131.86563 C 193.19912,131.43351 194.06704,131.21745 195.01431,131.21744 C 196.08852,131.21745 196.99184,131.49089 197.72427,132.03775 C 198.45669,132.58463 198.96694,133.35368 199.25504,134.34488 L 197.85611,134.67447 C 197.60708,133.89323 197.24575,133.32438 196.77213,132.96793 C 196.29849,132.61149 195.70278,132.43327 194.98502,132.43326 C 194.15982,132.43327 193.47012,132.63102 192.91592,133.02652 C 192.36172,133.42204 191.97232,133.95304 191.74771,134.61954 C 191.5231,135.28605 191.41079,135.9733 191.4108,136.6813 C 191.41079,137.5944 191.54385,138.39151 191.80997,139.07266 C 192.07608,139.75382 192.4899,140.26285 193.05142,140.59976 C 193.61294,140.93668 194.22085,141.10513 194.87515,141.10513 C 195.67104,141.10513 196.34487,140.87564 196.89664,140.41666 C 197.44839,139.95767 197.82192,139.27652 198.01724,138.3732 L 198.01724,138.3732 z M 200.9982,142.13785 L 200.9982,131.40054 L 202.31656,131.40054 L 202.31656,142.13785 L 200.9982,142.13785 z"
     id="text166"
     style="font-size:15px;fill:#000000;stroke-linecap:round;font-family:helvetica" />
  <path
     d="M 120.57566,18.403126 C 120.57566,16.620906 121.05418,15.225644 122.01121,14.217335 C 122.96824,13.209044 124.20359,12.704895 125.71726,12.704884 C 126.70847,12.704895 127.60202,12.941711 128.39793,13.415333 C 129.19382,13.888975 129.8005,14.549375 130.21799,15.396534 C 130.63546,16.243709 130.8442,17.204402 130.84422,18.278614 C 130.8442,19.367485 130.62448,20.341606 130.18504,21.200977 C 129.74557,22.060354 129.12301,22.710988 128.31736,23.152882 C 127.51169,23.594776 126.64255,23.815723 125.70994,23.815723 C 124.69919,23.815723 123.79587,23.571583 122.99998,23.083302 C 122.20408,22.595021 121.60105,21.928518 121.1909,21.08379 C 120.78074,20.239067 120.57566,19.345513 120.57566,18.403126 L 120.57566,18.403126 z M 122.0405,18.425098 C 122.0405,19.719048 122.3884,20.738334 123.08421,21.48296 C 123.78,22.22759 124.6528,22.599904 125.70261,22.599903 C 126.77194,22.599904 127.65207,22.223928 128.34299,21.471973 C 129.0339,20.720023 129.37936,19.65313 129.37937,18.27129 C 129.37936,17.397273 129.23166,16.634334 128.93626,15.982471 C 128.64084,15.330624 128.20871,14.825254 127.63987,14.466358 C 127.07101,14.107481 126.43259,13.928038 125.72459,13.928028 C 124.71872,13.928038 123.85324,14.273496 123.12815,14.964405 C 122.40305,15.655331 122.0405,16.808894 122.0405,18.425098 L 122.0405,18.425098 z M 132.71189,23.632618 L 132.71189,12.895313 L 134.13279,12.895313 L 134.13279,17.304493 L 139.71384,17.304493 L 139.71384,12.895313 L 141.13474,12.895313 L 141.13474,23.632618 L 139.71384,23.632618 L 139.71384,18.571583 L 134.13279,18.571583 L 134.13279,23.632618 L 132.71189,23.632618 z"
     id="text168"
     style="font-size:15px;fill:#000000;stroke-linecap:round;font-family:helvetica" />
  <path
     d="M 75.923981,18.852564 C 75.92398,17.070344 76.402495,15.675082 77.359528,14.666773 C 78.316556,13.658482 79.551906,13.154333 81.065582,13.154322 C 82.056786,13.154333 82.95034,13.391149 83.746246,13.864771 C 84.542135,14.338413 85.148824,14.998813 85.566315,15.845972 C 85.983784,16.693147 86.192524,17.65384 86.192535,18.728052 C 86.192524,19.816924 85.972798,20.791044 85.533356,21.650415 C 85.093893,22.509792 84.471335,23.160426 83.66568,23.60232 C 82.860008,24.044214 81.990868,24.265161 81.058258,24.265162 C 80.047511,24.265161 79.144192,24.021021 78.348297,23.53274 C 77.552396,23.044459 76.94937,22.377956 76.539215,21.533228 C 76.129058,20.688505 75.92398,19.794951 75.923981,18.852564 L 75.923981,18.852564 z M 77.388824,18.874537 C 77.388822,20.168486 77.736722,21.187772 78.432526,21.932398 C 79.128322,22.677028 80.001124,23.049342 81.050934,23.049341 C 82.120263,23.049342 83.000389,22.673366 83.691315,21.921412 C 84.382223,21.169461 84.727682,20.102568 84.727692,18.720728 C 84.727682,17.846711 84.579977,17.083772 84.284576,16.43191 C 83.989157,15.780062 83.557029,15.274692 82.98819,14.915796 C 82.419335,14.556919 81.780908,14.377476 81.072906,14.377466 C 80.067042,14.377476 79.201565,14.722935 78.476471,15.413843 C 77.751371,16.104769 77.388822,17.258332 77.388824,18.874537 L 77.388824,18.874537 z"
     id="text170"
     style="font-size:15px;fill:#000000;stroke-linecap:round;font-family:helvetica" />
  <path
     d="M 122.34146,76.053864 L 122.34146,65.316559 L 123.79898,65.316559 L 129.43863,73.746735 L 129.43863,65.316559 L 130.80093,65.316559 L 130.80093,76.053864 L 129.34341,76.053864 L 123.70377,67.616364 L 123.70377,76.053864 L 122.34146,76.053864 z"
     id="text172"
     style="font-size:15px;fill:#000000;stroke-linecap:round;font-family:helvetica" />
  <path
     d="M 122.40005,89.899582 L 122.40005,79.162277 L 123.82095,79.162277 L 123.82095,83.571457 L 129.40201,83.571457 L 129.40201,79.162277 L 130.82291,79.162277 L 130.82291,89.899582 L 129.40201,89.899582 L 129.40201,84.838547 L 123.82095,84.838547 L 123.82095,89.899582 L 122.40005,89.899582 z"
     id="text174"
     style="font-size:15px;fill:#000000;stroke-linecap:round;font-family:helvetica" />
  <cdml:cdml
     version="0.15">
    <cdml:info>
      <cdml:author_program
         version="0.12.0_pre1">BKchem</cdml:author_program>
    </cdml:info>
    <cdml:paper
       use_real_minus="0"
       type="A4"
       replace_minus="0"
       orientation="portrait"
       crop_svg="1"
       crop_margin="10" />
    <cdml:viewport
       viewport="0.000000 0.000000 640.000000 480.000000" />
    <cdml:standard
       paper_type="A4"
       paper_orientation="portrait"
       paper_crop_svg="1"
       paper_crop_margin="10"
       line_width="1.0px"
       line_color="#000"
       font_size="12"
       font_family="helvetica"
       area_color="">
      <cdml:bond
         width="6.0px"
         wedge-width="5.0px"
         length="0.7cm"
         double-ratio="0.75" />
      <cdml:arrow
         length="1.6cm" />
    </cdml:standard>
    <cdml:molecule
       name=""
       id="molecule56667">
      <cdml:atom
         valency="4"
         name="C"
         id="atom82039">
        <cdml:point
           y="1.218cm"
           x="0.854cm" />
      </cdml:atom>
      <cdml:atom
         valency="4"
         name="C"
         id="atom89571">
        <cdml:point
           y="0.868cm"
           x="1.460cm" />
      </cdml:atom>
      <cdml:atom
         valency="4"
         name="C"
         id="atom73740">
        <cdml:point
           y="1.218cm"
           x="2.066cm" />
      </cdml:atom>
      <cdml:atom
         valency="4"
         name="C"
         id="atom32476">
        <cdml:point
           y="1.917cm"
           x="2.066cm" />
      </cdml:atom>
      <cdml:atom
         valency="4"
         name="C"
         id="atom6245">
        <cdml:point
           y="1.917cm"
           x="0.854cm" />
      </cdml:atom>
      <cdml:atom
         valency="4"
         name="C"
         id="atom57807">
        <cdml:point
           y="2.267cm"
           x="1.460cm" />
      </cdml:atom>
      <cdml:atom
         valency="4"
         name="C"
         id="atom46570">
        <cdml:point
           y="2.267cm"
           x="2.672cm" />
      </cdml:atom>
      <cdml:atom
         valency="4"
         name="C"
         id="atom23502">
        <cdml:point
           y="1.917cm"
           x="3.278cm" />
      </cdml:atom>
      <cdml:atom
         valency="4"
         name="C"
         id="atom64494">
        <cdml:point
           y="1.917cm"
           x="4.491cm" />
      </cdml:atom>
      <cdml:atom
         valency="4"
         name="C"
         id="atom12645">
        <cdml:point
           y="2.267cm"
           x="5.097cm" />
      </cdml:atom>
      <cdml:atom
         valency="4"
         name="C"
         id="atom92415">
        <cdml:point
           y="3.317cm"
           x="5.703cm" />
      </cdml:atom>
      <cdml:atom
         valency="4"
         name="C"
         id="atom29455">
        <cdml:point
           y="2.967cm"
           x="5.096cm" />
      </cdml:atom>
      <cdml:atom
         valency="4"
         name="C"
         id="atom69449">
        <cdml:point
           y="1.918cm"
           x="5.703cm" />
      </cdml:atom>
      <cdml:atom
         valency="4"
         name="C"
         id="atom32495">
        <cdml:point
           y="2.968cm"
           x="6.308cm" />
      </cdml:atom>
      <cdml:atom
         valency="4"
         name="C"
         id="atom73454">
        <cdml:point
           y="2.268cm"
           x="6.309cm" />
      </cdml:atom>
      <cdml:atom
         valency="4"
         name="C"
         id="atom80718">
        <cdml:point
           y="3.318cm"
           x="6.914cm" />
      </cdml:atom>
      <cdml:atom
         valency="4"
         name="C"
         id="atom94995">
        <cdml:point
           y="2.969cm"
           x="7.521cm" />
      </cdml:atom>
      <cdml:atom
         valency="4"
         name="C"
         id="atom82710">
        <cdml:point
           y="1.919cm"
           x="6.915cm" />
      </cdml:atom>
      <cdml:atom
         valency="4"
         name="C"
         id="atom36489">
        <cdml:point
           y="1.217cm"
           x="3.278cm" />
      </cdml:atom>
      <cdml:atom
         valency="2"
         pos="center-first"
         name="O"
         id="atom42830">
        <cdml:point
           y="1.217cm"
           x="4.491cm" />
      </cdml:atom>
      <cdml:atom
         valency="2"
         pos="center-first"
         name="O"
         id="atom8376"
         hydrogens="on">
        <cdml:point
           y="1.218cm"
           x="5.703cm" />
      </cdml:atom>
      <cdml:atom
         valency="2"
         pos="center-first"
         name="O"
         id="atom69867">
        <cdml:point
           y="1.219cm"
           x="6.916cm" />
      </cdml:atom>
      <cdml:atom
         valency="4"
         show="yes"
         pos="center-first"
         name="C"
         id="atom70433"
         hydrogens="on">
        <cdml:point
           y="3.320cm"
           x="8.127cm" />
      </cdml:atom>
      <cdml:atom
         valency="2"
         pos="center-first"
         name="O"
         id="atom72968">
        <cdml:point
           y="2.269cm"
           x="7.522cm" />
      </cdml:atom>
      <cdml:atom
         valency="1"
         pos="center-first"
         name="Cl"
         id="atom29275">
        <cdml:point
           y="4.017cm"
           x="5.702cm" />
      </cdml:atom>
      <cdml:atom
         valency="2"
         pos="center-first"
         name="O"
         id="atom73321"
         hydrogens="on">
        <cdml:point
           y="0.867cm"
           x="3.885cm" />
      </cdml:atom>
      <cdml:atom
         valency="2"
         pos="center-first"
         name="O"
         id="atom92960">
        <cdml:point
           y="0.867cm"
           x="2.672cm" />
      </cdml:atom>
      <cdml:atom
         valency="3"
         pos="center-first"
         name="N"
         id="atom25940">
        <cdml:point
           y="2.267cm"
           x="3.885cm" />
      </cdml:atom>
      <cdml:atom
         valency="1"
         pos="center-first"
         name="H"
         id="atom91052">
        <cdml:point
           y="2.967cm"
           x="3.885cm" />
      </cdml:atom>
      <cdml:bond
         type="n1"
         start="atom73740"
         line_width="1.0"
         id="bond44218"
         end="atom32476"
         double_ratio="0.75" />
      <cdml:bond
         type="n1"
         start="atom36489"
         line_width="1.0"
         id="bond51877"
         equithick="1"
         end="atom73321"
         double_ratio="0.75" />
      <cdml:bond
         type="n1"
         start="atom23502"
         line_width="1.0"
         id="bond30309"
         equithick="1"
         end="atom25940"
         double_ratio="0.75" />
      <cdml:bond
         wedge_width="5.0"
         type="h1"
         start="atom94995"
         line_width="1.0"
         id="bond17468"
         equithick="1"
         end="atom70433"
         double_ratio="0.75" />
      <cdml:bond
         type="n2"
         start="atom82710"
         line_width="1.0"
         id="bond79194"
         equithick="1"
         end="atom69867"
         double_ratio="0.75"
         center="yes"
         bond_width="6.0" />
      <cdml:bond
         wedge_width="5.0"
         type="w1"
         start="atom23502"
         line_width="1.0"
         id="bond43449"
         equithick="1"
         end="atom36489"
         double_ratio="0.75" />
      <cdml:bond
         type="n2"
         start="atom29455"
         line_width="1.0"
         id="bond44409"
         end="atom12645"
         double_ratio="0.75"
         center="no"
         bond_width="-6.0" />
      <cdml:bond
         type="n2"
         start="atom36489"
         line_width="1.0"
         id="bond15585"
         equithick="1"
         end="atom92960"
         double_ratio="0.75"
         center="yes"
         bond_width="6.0" />
      <cdml:bond
         type="n1"
         start="atom64494"
         line_width="1.0"
         id="bond56710"
         equithick="1"
         end="atom12645"
         double_ratio="0.75" />
      <cdml:bond
         type="n1"
         start="atom6245"
         line_width="1.0"
         id="bond54073"
         end="atom57807"
         double_ratio="0.75" />
      <cdml:bond
         type="n1"
         start="atom25940"
         line_width="1.0"
         id="bond32572"
         equithick="1"
         end="atom91052"
         double_ratio="0.75" />
      <cdml:bond
         type="n2"
         start="atom82039"
         line_width="1.0"
         id="bond5350"
         end="atom6245"
         double_ratio="0.75"
         center="no"
         bond_width="6.0" />
      <cdml:bond
         type="n1"
         start="atom82039"
         line_width="1.0"
         id="bond76403"
         end="atom89571"
         double_ratio="0.75" />
      <cdml:bond
         type="n1"
         start="atom32495"
         line_width="1.0"
         id="bond84969"
         end="atom80718"
         double_ratio="0.75" />
      <cdml:bond
         type="n1"
         start="atom94995"
         line_width="1.0"
         id="bond28042"
         end="atom72968"
         double_ratio="0.75" />
      <cdml:bond
         type="n1"
         start="atom46570"
         line_width="1.0"
         id="bond32860"
         equithick="1"
         end="atom23502"
         double_ratio="0.75" />
      <cdml:bond
         type="n1"
         start="atom69449"
         line_width="1.0"
         id="bond24625"
         equithick="1"
         end="atom8376"
         double_ratio="0.75" />
      <cdml:bond
         type="n1"
         start="atom80718"
         line_width="1.0"
         id="bond43741"
         end="atom94995"
         double_ratio="0.75" />
      <cdml:bond
         type="n1"
         start="atom82710"
         line_width="1.0"
         id="bond89246"
         end="atom73454"
         double_ratio="0.75" />
      <cdml:bond
         type="n1"
         start="atom92415"
         line_width="1.0"
         id="bond45971"
         equithick="1"
         end="atom29275"
         double_ratio="0.75" />
      <cdml:bond
         type="n2"
         start="atom64494"
         line_width="1.0"
         id="bond50126"
         equithick="1"
         end="atom42830"
         double_ratio="0.75"
         center="yes"
         bond_width="6.0" />
      <cdml:bond
         type="n2"
         start="atom92415"
         line_width="1.0"
         id="bond89023"
         end="atom32495"
         double_ratio="0.75"
         center="no"
         bond_width="6.0" />
      <cdml:bond
         type="n1"
         start="atom92415"
         line_width="1.0"
         id="bond81500"
         end="atom29455"
         double_ratio="0.75" />
      <cdml:bond
         type="n1"
         start="atom12645"
         line_width="1.0"
         id="bond8387"
         end="atom69449"
         double_ratio="0.75" />
      <cdml:bond
         type="n1"
         start="atom32495"
         line_width="1.0"
         id="bond97066"
         end="atom73454"
         double_ratio="0.75" />
      <cdml:bond
         type="n1"
         start="atom72968"
         line_width="1.0"
         id="bond69618"
         end="atom82710"
         double_ratio="0.75" />
      <cdml:bond
         type="n2"
         start="atom69449"
         line_width="1.0"
         id="bond15736"
         end="atom73454"
         double_ratio="0.75"
         center="no"
         bond_width="-6.0" />
      <cdml:bond
         type="n2"
         start="atom89571"
         line_width="1.0"
         id="bond52377"
         end="atom73740"
         double_ratio="0.75"
         center="no"
         bond_width="-6.0" />
      <cdml:bond
         type="n2"
         start="atom32476"
         line_width="1.0"
         id="bond11327"
         end="atom57807"
         double_ratio="0.75"
         center="no"
         bond_width="-6.0" />
      <cdml:bond
         type="n1"
         start="atom25940"
         line_width="1.0"
         id="bond19529"
         equithick="1"
         end="atom64494"
         double_ratio="0.75" />
      <cdml:bond
         type="n1"
         start="atom32476"
         line_width="1.0"
         id="bond77755"
         equithick="1"
         end="atom46570"
         double_ratio="0.75" />
    </cdml:molecule>
  </cdml:cdml>
  <path
     d="M 302.07693,121.67624 L 303.13162,121.53561 C 303.25271,122.13327 303.45877,122.56394 303.74979,122.82761 C 304.0408,123.09128 304.39529,123.22311 304.81326,123.22311 C 305.30935,123.22311 305.7283,123.05124 306.0701,122.70749 C 306.41189,122.36374 306.58279,121.93796 306.58279,121.43015 C 306.58279,120.94577 306.42459,120.54636 306.10818,120.2319 C 305.79177,119.91745 305.38943,119.76023 304.90115,119.76022 C 304.70193,119.76023 304.45389,119.79929 304.15701,119.87741 L 304.2742,118.95163 C 304.34451,118.95945 304.40115,118.96335 304.44412,118.96335 C 304.89334,118.96335 305.29763,118.84617 305.65701,118.61179 C 306.01638,118.37742 306.19607,118.01609 306.19608,117.5278 C 306.19607,117.14109 306.06521,116.82078 305.8035,116.56686 C 305.54177,116.31297 305.20388,116.18601 304.78983,116.186 C 304.37967,116.18601 304.03787,116.31492 303.76443,116.57272 C 303.491,116.83054 303.31521,117.21726 303.23709,117.73288 L 302.1824,117.54538 C 302.31131,116.83836 302.60428,116.2905 303.06131,115.90182 C 303.51834,115.51316 304.0867,115.31883 304.76639,115.31882 C 305.23513,115.31883 305.66677,115.41941 306.06131,115.62057 C 306.45584,115.82175 306.75759,116.09617 306.96658,116.44382 C 307.17556,116.79148 307.28005,117.16062 307.28006,117.55124 C 307.28005,117.92234 307.18044,118.26023 306.98123,118.56491 C 306.78201,118.8696 306.48709,119.11179 306.09647,119.29147 C 306.60427,119.40867 306.9988,119.65183 307.28006,120.02097 C 307.5613,120.39011 307.70193,120.85202 307.70193,121.40671 C 307.70193,122.15671 307.42849,122.79245 306.88162,123.31393 C 306.33474,123.83542 305.64334,124.09616 304.8074,124.09616 C 304.05349,124.09616 303.42752,123.87155 302.92947,123.42233 C 302.43143,122.97311 302.14725,122.39108 302.07693,121.67624 L 302.07693,121.67624 z"
     id="text2416"
     style="font-size:12px;font-style:normal;font-weight:normal;fill:#000000;fill-opacity:1;stroke:none;stroke-width:1px;stroke-linecap:butt;stroke-linejoin:miter;stroke-opacity:1;font-family:Arial" />
</svg>
