<?xml version="1.0" encoding="UTF-8" standalone="no"?>
<svg
   xmlns:dc="http://purl.org/dc/elements/1.1/"
   xmlns:cc="http://creativecommons.org/ns#"
   xmlns:rdf="http://www.w3.org/1999/02/22-rdf-syntax-ns#"
   xmlns:svg="http://www.w3.org/2000/svg"
   xmlns="http://www.w3.org/2000/svg"
   xmlns:sodipodi="http://sodipodi.sourceforge.net/DTD/sodipodi-0.dtd"
   xmlns:inkscape="http://www.inkscape.org/namespaces/inkscape"
   id="green-shield-emoji"
   viewBox="0 0 72 72"
   version="1.1"
   sodipodi:docname="green-shield.svg"
   inkscape:version="1.0.1 (3bc2e813f5, 2020-09-07)">
  <metadata
     id="metadata22">
    <rdf:RDF>
      <cc:Work
         rdf:about="">
        <dc:format>image/svg+xml</dc:format>
        <dc:type
           rdf:resource="http://purl.org/dc/dcmitype/StillImage" />
      </cc:Work>
    </rdf:RDF>
  </metadata>
  <defs
     id="defs20" />
  <sodipodi:namedview
     pagecolor="#ffffff"
     bordercolor="#666666"
     borderopacity="1"
     objecttolerance="10"
     gridtolerance="10"
     guidetolerance="10"
     inkscape:pageopacity="0"
     inkscape:pageshadow="2"
     inkscape:window-width="1920"
     inkscape:window-height="1094"
     id="namedview18"
     showgrid="false"
     inkscape:zoom="10.458333"
     inkscape:cx="36"
     inkscape:cy="36"
     inkscape:window-x="-11"
     inkscape:window-y="-11"
     inkscape:window-maximized="1"
     inkscape:current-layer="color" />
  <g
     id="color">
    <path
       fill="#D0CFCE"
       stroke="none"
       d="M35.9899,10.9064c-11.0457,0-20,4.4773-20,10l0.0261,0.2749c2.9513,30.53,18.6744,39.0674,19.8983,39.6877 l0.0756,0.0374c0,0,17-8,20-40C56.5055,15.4078,47.0356,10.9064,35.9899,10.9064z M35.992,54.884l-0.0604-0.0299 c-0.978-0.4957-13.5423-7.318-15.9006-31.7145L20.01,22.9201c0-4.4133,7.1553-7.991,15.9819-7.991 c8.8265,0,16.3938,3.5969,15.9819,7.991C49.5766,48.4912,35.992,54.884,35.992,54.884z"
       id="path2" />
    <path
       fill="#EA5A47"
       stroke="none"
       d="M35,17.9064l3,4l-3,4l3,4l-3,4l3,4l-3,4l3,4l-3,4l1,5.2597c0,0-15-11-16-32c0,0,0-8,16-8L35,17.9064z"
       id="path4"
       style="fill:#45b649;fill-opacity:0.10196079" />
    <path
       fill="#D22F27"
       stroke="none"
       d="M36,15.1661l-1,2.7403l3,4l-3,4l3,4l-3,4l3,4l-3,4l3,4l-3,4l1.002,4.9774 c0,0,13.8441-8.9583,15.9819-31.9638C51.9839,22.92,51.1505,15.9498,36,15.1661z"
       id="path6"
       style="fill:#45b649;fill-opacity:1" />
  </g>
  <g
     id="hair" />
  <g
     id="skin" />
  <g
     id="skin-shadow" />
  <g
     id="line">
    <path
       fill="none"
       stroke="#000000"
       stroke-linecap="round"
       stroke-linejoin="round"
       stroke-miterlimit="10"
       stroke-width="2"
       d="M35.9245,60.8691c-1.2239-0.6204-16.947-9.1579-19.8983-39.6878L16,20.9064c0-5.5228,8.9543-10,20-10s20.5155,4.5013,20,10 c-3,32-20,40-20,40L35.9245,60.8691z"
       id="path12" />
    <path
       fill="none"
       stroke="#000000"
       stroke-linecap="round"
       stroke-linejoin="round"
       stroke-miterlimit="10"
       stroke-width="2"
       d="M35.9417,54.854c-0.978-0.4958-13.5423-7.318-15.9006-31.7144L20.0201,22.92c0-4.4133,7.1553-7.991,15.9819-7.991 s16.3938,3.5969,15.9819,7.991C49.5866,48.4911,36.002,54.8838,36.002,54.8838L35.9417,54.854z"
       id="path14" />
  </g>
</svg>
