<?xml version="1.0" encoding="UTF-8" standalone="no"?>
<svg
   xmlns:dc="http://purl.org/dc/elements/1.1/"
   xmlns:cc="http://creativecommons.org/ns#"
   xmlns:rdf="http://www.w3.org/1999/02/22-rdf-syntax-ns#"
   xmlns:svg="http://www.w3.org/2000/svg"
   xmlns="http://www.w3.org/2000/svg"
   xmlns:sodipodi="http://sodipodi.sourceforge.net/DTD/sodipodi-0.dtd"
   xmlns:inkscape="http://www.inkscape.org/namespaces/inkscape"
   id="oil-emoji"
   viewBox="0 0 72 72"
   version="1.1"
   sodipodi:docname="oil.svg"
   inkscape:version="1.0.1 (3bc2e813f5, 2020-09-07)">
  <metadata
     id="metadata15">
    <rdf:RDF>
      <cc:Work
         rdf:about="">
        <dc:format>image/svg+xml</dc:format>
        <dc:type
           rdf:resource="http://purl.org/dc/dcmitype/StillImage" />
      </cc:Work>
    </rdf:RDF>
  </metadata>
  <defs
     id="defs13" />
  <sodipodi:namedview
     pagecolor="#ffffff"
     bordercolor="#666666"
     borderopacity="1"
     objecttolerance="10"
     gridtolerance="10"
     guidetolerance="10"
     inkscape:pageopacity="0"
     inkscape:pageshadow="2"
     inkscape:window-width="1920"
     inkscape:window-height="1094"
     id="namedview11"
     showgrid="false"
     inkscape:zoom="5.2291667"
     inkscape:cx="7.5983634"
     inkscape:cy="23.617619"
     inkscape:window-x="-11"
     inkscape:window-y="-11"
     inkscape:window-maximized="1"
     inkscape:current-layer="color" />
  <g
     id="color">
    <path
       fill="#ea5a47"
       d="M56,46.7065C56,58.4814,47.0458,68.003,36,68.003s-20-9.5455-20-21.32c0,0-.2191-14.3086,16.6559-40.1878,0,0,3.1666-5.37,6.3541-.3523C55.8851,32.0216,56,46.7065,56,46.7065"
       id="path2"
       style="fill:#ffc864;fill-opacity:1" />
    <path
       fill="#d22f27"
       d="M36,3.9991C48.875,14.375,55.875,44.8744,55.875,44.8744c0,15.0006-8.8293,23.1265-19.875,23.1265,0,0,22-18.1265,0-64.0018"
       id="path4"
       style="fill:#ffa600;fill-opacity:1" />
  </g>
  <g
     id="line">
    <path
       fill="none"
       stroke="#000"
       stroke-linecap="round"
       stroke-linejoin="round"
       stroke-width="2"
       d="M56,46.7065C56,58.4814,47.0458,68.003,36,68.003s-20-9.5455-20-21.32c0,0-.2191-14.3086,16.6559-40.1878,0,0,3.1666-5.37,6.3541-.3523C55.8851,32.0216,56,46.7065,56,46.7065"
       id="path7" />
  </g>
</svg>
