<?xml version="1.0" encoding="UTF-8" standalone="no"?>
<svg
   xmlns:dc="http://purl.org/dc/elements/1.1/"
   xmlns:cc="http://creativecommons.org/ns#"
   xmlns:rdf="http://www.w3.org/1999/02/22-rdf-syntax-ns#"
   xmlns:svg="http://www.w3.org/2000/svg"
   xmlns="http://www.w3.org/2000/svg"
   xmlns:sodipodi="http://sodipodi.sourceforge.net/DTD/sodipodi-0.dtd"
   xmlns:inkscape="http://www.inkscape.org/namespaces/inkscape"
   id="emoji"
   viewBox="0 0 72 72"
   version="1.1"
   sodipodi:docname="performing-arts.svg"
   inkscape:version="1.0.1 (3bc2e813f5, 2020-09-07)">
  <metadata
     id="metadata44">
    <rdf:RDF>
      <cc:Work
         rdf:about="">
        <dc:format>image/svg+xml</dc:format>
        <dc:type
           rdf:resource="http://purl.org/dc/dcmitype/StillImage" />
      </cc:Work>
    </rdf:RDF>
  </metadata>
  <defs
     id="defs42" />
  <sodipodi:namedview
     pagecolor="#ffffff"
     bordercolor="#666666"
     borderopacity="1"
     objecttolerance="10"
     gridtolerance="10"
     guidetolerance="10"
     inkscape:pageopacity="0"
     inkscape:pageshadow="2"
     inkscape:window-width="1920"
     inkscape:window-height="1094"
     id="namedview40"
     showgrid="false"
     inkscape:zoom="10.708333"
     inkscape:cx="36.524368"
     inkscape:cy="34.628603"
     inkscape:window-x="-11"
     inkscape:window-y="-11"
     inkscape:window-maximized="1"
     inkscape:current-layer="color" />
  <g
     id="color">
    <path
       fill="#3F3F3F"
       d="m 33.6,29.0397 c -0.28,-2.33 -1.42,-9.24 -1.42,-9.24 -0.29,-2.37 -3.84,-4.66 -6.16,-4.03 0,0 -6.15,1.97 -7.9,2.44 -1.76,0.47 -8.08,1.84 -8.08,1.84 -2.31,0.62 -4.25,4.37 -3.31,6.57 0,0 2.47,6.55 3.39,8.71 0.69,1.63 3.13,4.58 4.05,6.18 1.95,3.4 6.01,7.46 9.8,6.45 l 3.95,-1.06 c 3.79,-1.02 5.28,-6.56 5.26,-10.48 0,-1.8499 0.63,-5.62 0.42,-7.38 z m -17.34,2.3501 c -1.07,0.28 -2.11,-0.13 -2.32,-0.93 -0.22,-0.8 0.47,-1.68 1.54,-1.97 1.07,-0.29 2.11,0.13 2.32,0.93 0.22,0.8 -0.48,1.68 -1.54,1.97 z m 9.85,-2.64 c -1.06,0.28 -2.1,-0.13 -2.32,-0.93 -0.21,-0.8 0.48,-1.69 1.55,-1.97 1.06,-0.29 2.1,0.1299 2.3199,0.93 0.2101,0.8 -0.4799,1.68 -1.5499,1.97 z m -1.3814,13.189766 c -2.4,0.65 -4.72575,-1.144757 -5.36575,-3.544757 -0.65,-2.4 3.536891,0.990357 5.936991,0.350457 2.4,-0.65 2.213131,-3.679453 2.853031,-1.279453 0.64,2.3999 -1.024272,3.833653 -3.424272,4.473753 z"
       id="path2"
       style="fill:#35a6ef;fill-opacity:1"
       sodipodi:nodetypes="ccccccccccccccscccccccccccc" />
    <path
       fill="#3F3F3F"
       d="M21.6693,23.4356c2.1356-0.765,4.0226-1.1808,5.0998-0.9136c1.2528,0.3108,2.2244,1.0304,3.1249,2.106 L21.6693,23.4356z"
       id="path4" />
    <path
       fill="#3F3F3F"
       d="M17.4538,24.5652c-2.232,0.4053-4.0741,0.9887-4.8733,1.7587c-0.9295,0.8956-1.4112,2.0046-1.6533,3.3863 L17.4538,24.5652z"
       id="path6" />
    <path
       fill="#FFFFFF"
       d="M61.96,28.0497c0,0-6.32-1.37-8.07-1.84c-1.76-0.47-7.91-2.45-7.91-2.45c-2.32-0.62-5.87,1.67-6.16,4.04 c0,0-1.14,6.91-1.42,9.24c-0.21,1.76,0.42,5.53,0.42,7.38c-0.02,3.92,1.47,9.46,5.26,10.48l3.95,1.06c3.79,1.01,7.85-3.05,9.8-6.45 c0.92-1.6,3.36-4.55,4.05-6.18c0.92-2.16,3.39-8.71,3.39-8.71C66.21,32.4197,64.27,28.6697,61.96,28.0497z M44.14,34.7297 c0.22-0.8,1.26-1.22,2.32-0.93c1.07,0.28,1.7599,1.16,1.55,1.96c-0.22,0.8-1.26,1.22-2.32,0.93 C44.62,36.4098,43.93,35.5298,44.14,34.7297z M53.31,45.7498c-0.65,2.4-3.11,3.83-5.51,3.18c-2.4-0.64-3.83-3.11-3.19-5.51 c0.65-2.4,1.48,2.26,3.88,2.9C50.9,46.9698,53.95,43.3498,53.31,45.7498z M57.86,38.3998c-0.21,0.8-1.25,1.22-2.32,0.94 c-1.06-0.29-1.7599-1.17-1.54-1.97c0.21-0.8,1.25-1.22,2.32-0.93C57.39,36.7198,58.08,37.5998,57.86,38.3998z"
       id="path8"
       style="fill:#f9b01c;fill-opacity:1" />
  </g>
  <g
     id="hair" />
  <g
     id="skin" />
  <g
     id="skin-shadow" />
  <g
     id="line">
    <path
       fill="none"
       stroke="#000000"
       stroke-linecap="round"
       stroke-linejoin="round"
       stroke-miterlimit="10"
       stroke-width="2"
       d="M27.9197,46.898l-3.9508,1.0585c-3.7855,1.0144-7.852-3.0433-9.7979-6.4451c-0.9177-1.6042-3.3572-4.5516-4.0536-6.1821 c-0.9213-2.1567-3.3831-8.7075-3.3831-8.7075c-0.9413-2.2036,0.9945-5.9547,3.3091-6.5749c0,0,6.3153-1.3686,8.0716-1.8392 c1.7562-0.4705,7.9098-2.4429,7.9098-2.4429c2.3145-0.6202,5.8665,1.6604,6.1531,4.0394c0,0,1.1435,6.9053,1.4241,9.234 c0.212,1.7598-0.427,5.5314-0.4197,7.3792C33.198,40.3363,31.7052,45.8836,27.9197,46.898z"
       id="path14" />
    <path
       fill="none"
       stroke="#000000"
       stroke-linecap="round"
       stroke-linejoin="round"
       stroke-miterlimit="10"
       stroke-width="2"
       d="m 27.69889,36.553424 c -0.62611,-2.405114 -1.496308,2.249583 -3.901471,2.875607 -2.405114,0.62611 -5.434323,-3.013452 -4.8083,-0.608289 0.626111,2.405113 3.083363,3.847318 5.488476,3.221208 2.405164,-0.626024 3.847368,-3.083276 3.221295,-5.488526 z"
       id="path16" />
    <ellipse
       cx="25.7256"
       cy="27.2976"
       rx="1.9999"
       ry="1.5"
       transform="matrix(0.9659 -0.2588 0.2588 0.9659 -6.1883 7.5881)"
       fill="none"
       stroke="#000000"
       stroke-linecap="round"
       stroke-linejoin="round"
       stroke-miterlimit="10"
       stroke-width="2"
       id="ellipse18" />
    <path
       fill="none"
       stroke="#000000"
       stroke-linecap="round"
       stroke-linejoin="round"
       stroke-miterlimit="10"
       stroke-width="2"
       d="M21.6693,23.4356c2.1356-0.765,4.0226-1.1808,5.0998-0.9136c1.2528,0.3108,2.2244,1.0304,3.1249,2.106"
       id="path20" />
    <ellipse
       cx="15.8699"
       cy="29.9379"
       rx="1.9999"
       ry="1.5"
       transform="matrix(0.9659 -0.2588 0.2588 0.9659 -7.2074 5.1273)"
       fill="none"
       stroke="#000000"
       stroke-linecap="round"
       stroke-linejoin="round"
       stroke-miterlimit="10"
       stroke-width="2"
       id="ellipse22" />
    <path
       fill="none"
       stroke="#000000"
       stroke-linecap="round"
       stroke-linejoin="round"
       stroke-miterlimit="10"
       stroke-width="2"
       d="M17.4538,24.5652c-2.232,0.4053-4.0741,0.9887-4.8733,1.7587c-0.9295,0.8956-1.4112,2.0046-1.6533,3.3863"
       id="path24" />
    <path
       fill="none"
       stroke="#000000"
       stroke-linecap="round"
       stroke-linejoin="round"
       stroke-miterlimit="10"
       stroke-width="2"
       d="M48.031,55.9565l-3.9507-1.0587c-3.7855-1.0143-5.2784-6.5616-5.2627-10.4806c0.0073-1.8481-0.6316-5.6204-0.4195-7.3807 c0.2805-2.3284,1.4239-9.2325,1.4239-9.2325c0.2866-2.379,3.8386-4.6597,6.1532-4.0395c0,0,6.1535,1.9724,7.9099,2.443 c1.7561,0.4706,8.0715,1.8393,8.0715,1.8393c2.3145,0.6201,4.2503,4.3712,3.309,6.5748c0,0-2.4623,6.5519-3.3837,8.7089 c-0.6963,1.63-3.1355,4.5768-4.0531,6.1807C55.8829,52.9132,51.8165,56.9708,48.031,55.9565z"
       id="path26" />
    <ellipse
       cx="55.9304"
       cy="37.8867"
       rx="1.5"
       ry="1.9999"
       transform="matrix(0.2588 -0.9659 0.9659 0.2588 4.8593 82.1061)"
       fill="none"
       stroke="#000000"
       stroke-linecap="round"
       stroke-linejoin="round"
       stroke-miterlimit="10"
       stroke-width="2"
       id="ellipse28" />
    <path
       fill="none"
       stroke="#000000"
       stroke-linecap="round"
       stroke-linejoin="round"
       stroke-miterlimit="10"
       stroke-width="2"
       d="M54.3491,32.5124c2.232,0.4053,4.0741,0.9887,4.8733,1.7587c0.9295,0.8956,1.4112,2.0046,1.6533,3.3863"
       id="path30" />
    <ellipse
       cx="46.074"
       cy="35.245"
       rx="1.5"
       ry="1.9999"
       transform="matrix(0.2588 -0.9659 0.9659 0.2588 0.1055 70.6275)"
       fill="none"
       stroke="#000000"
       stroke-linecap="round"
       stroke-linejoin="round"
       stroke-miterlimit="10"
       stroke-width="2"
       id="ellipse32" />
    <path
       fill="none"
       stroke="#000000"
       stroke-linecap="round"
       stroke-linejoin="round"
       stroke-miterlimit="10"
       stroke-width="2"
       d="M50.1336,31.3828c-2.1356-0.765-4.0226-1.1808-5.0998-0.9136c-1.2528,0.3108-2.2244,1.0304-3.1249,2.106"
       id="path34" />
    <path
       fill="none"
       stroke="#000000"
       stroke-linecap="round"
       stroke-linejoin="round"
       stroke-miterlimit="10"
       stroke-width="2"
       d="M44.6141,43.4203c0.6432-2.4006,1.4802,2.2601,3.8808,2.9033c2.4006,0.6433,5.4558-2.9746,4.8125-0.574 c-0.6432,2.4006-3.1107,3.8253-5.5113,3.182C45.3955,48.2884,43.9709,45.8209,44.6141,43.4203z"
       id="path36" />
  </g>
</svg>
