<?xml version="1.0" encoding="UTF-8" standalone="no"?>
<svg
   xmlns:dc="http://purl.org/dc/elements/1.1/"
   xmlns:cc="http://creativecommons.org/ns#"
   xmlns:rdf="http://www.w3.org/1999/02/22-rdf-syntax-ns#"
   xmlns:svg="http://www.w3.org/2000/svg"
   xmlns="http://www.w3.org/2000/svg"
   xmlns:sodipodi="http://sodipodi.sourceforge.net/DTD/sodipodi-0.dtd"
   xmlns:inkscape="http://www.inkscape.org/namespaces/inkscape"
   id="emoji"
   viewBox="0 0 72 72"
   version="1.1"
   sodipodi:docname="redeyes.svg"
   inkscape:version="1.0.1 (3bc2e813f5, 2020-09-07)">
  <metadata
     id="metadata31">
    <rdf:RDF>
      <cc:Work
         rdf:about="">
        <dc:format>image/svg+xml</dc:format>
        <dc:type
           rdf:resource="http://purl.org/dc/dcmitype/StillImage" />
      </cc:Work>
    </rdf:RDF>
  </metadata>
  <defs
     id="defs29" />
  <sodipodi:namedview
     pagecolor="#ffffff"
     bordercolor="#666666"
     borderopacity="1"
     objecttolerance="10"
     gridtolerance="10"
     guidetolerance="10"
     inkscape:pageopacity="0"
     inkscape:pageshadow="2"
     inkscape:window-width="1920"
     inkscape:window-height="1094"
     id="namedview27"
     showgrid="false"
     inkscape:zoom="5.3541667"
     inkscape:cx="-4.3117896"
     inkscape:cy="47.711516"
     inkscape:window-x="-11"
     inkscape:window-y="-11"
     inkscape:window-maximized="1"
     inkscape:current-layer="line" />
  <g
     id="color">
    <polygon
       fill="#fcea2b"
       points="35.94 12.58 27.04 14.31 21.58 17.43 16.54 22.66 13 30.24 13 42.96 18.77 52.65 27.04 58.27 35.94 60 43.34 58.81 51.28 54.35 56.55 48 59.64 38.51 58.87 30.28 54.94 22.13 50.6 17.67 43.13 13.7"
       id="polygon2" />
    <circle
       cx="44.45"
       cy="31.38"
       r="6.5"
       fill="#fff"
       id="circle4" />
    <circle
       cx="27.76"
       cy="31.38"
       r="6.5"
       fill="#fff"
       id="circle6" />
  </g>
  <g
     id="line">
    <circle
       cx="36"
       cy="36"
       r="23"
       fill="none"
       stroke="#000"
       stroke-miterlimit="10"
       stroke-width="2"
       id="circle9" />
    <path
       fill="none"
       stroke="#000"
       stroke-linecap="round"
       stroke-linejoin="round"
       stroke-width="2"
       d="m26.46 46.57c1.877-1.542 5.824-2.494 10-2.415 3.834 0.0726 7.293 1.003 9 2.415"
       id="path11" />
    <circle
       cx="27.56"
       cy="31.38"
       r="6.5"
       fill="none"
       stroke="#000"
       stroke-miterlimit="10"
       stroke-width="2"
       id="circle13"
       style="fill:#dc9385;fill-opacity:1" />
    <circle
       cx="44.65"
       cy="31.38"
       r="6.5"
       fill="none"
       stroke="#000"
       stroke-miterlimit="10"
       stroke-width="2"
       id="circle15"
       style="fill:#dc9385;fill-opacity:1" />
    <path
       fill-rule="evenodd"
       d="m27.53 25.77a4.619 4.619 0 0 0-4.592 4.619 4.619 4.619 0 0 0 4.619 4.619 4.619 4.619 0 0 0 4.619-4.619 4.619 4.619 0 0 0-4.619-4.619 4.619 4.619 0 0 0-0.02734 0zm-1.453 1.828a2 2 0 0 1 2 2 2 2 0 0 1-2 2 2 2 0 0 1-2-2 2 2 0 0 1 2-2z"
       paint-order="stroke fill markers"
       id="path17" />
    <path
       fill-rule="evenodd"
       d="m44.62 25.77a4.619 4.619 0 0 0-4.592 4.619 4.619 4.619 0 0 0 4.619 4.619 4.619 4.619 0 0 0 4.619-4.619 4.619 4.619 0 0 0-4.619-4.619 4.619 4.619 0 0 0-0.02734 0zm-1.453 1.828a2 2 0 0 1 2 2 2 2 0 0 1-2 2 2 2 0 0 1-2-2 2 2 0 0 1 2-2z"
       paint-order="stroke fill markers"
       id="path19" />
    <path
       fill="none"
       stroke="#000"
       stroke-linecap="round"
       stroke-linejoin="round"
       stroke-width="2"
       d="m52.32 24.93c-1.185-2.421-3-5-9-4"
       id="path21" />
    <path
       fill="none"
       stroke="#000"
       stroke-linecap="round"
       stroke-linejoin="round"
       stroke-width="2"
       d="m19.95 24.93c1.185-2.421 3-5 9-4"
       id="path23" />
  </g>
</svg>
