<?xml version="1.0" ?>
<!DOCTYPE svg  PUBLIC '-//W3C//DTD SVG 1.1//EN'  'http://www.w3.org/Graphics/SVG/1.1/DTD/svg11.dtd'>
<!-- Uploaded to: SVG Repo, www.svgrepo.com, Generator: SVG Repo Mixer Tools -->
<svg fill="#000000" width="800px" height="800px" viewBox="0 0 512 512" version="1.1" xml:space="preserve" xmlns="http://www.w3.org/2000/svg" xmlns:xlink="http://www.w3.org/1999/xlink">
<g id="_x35_58_x2C__award_x2C__cup_x2C__prize_x2C__reward_x2C__victory">
<g>
<path d="M330.444,277.939v-62.197c0-1.448,1.181-2.619,2.62-2.619h15.805    c1.438,0,2.609,1.171,2.609,2.619v36.211c0,3.236-0.502,6.411-1.428,9.393c-0.948,3.09-2.364,5.985-4.144,8.563    c-1.479,2.173-3.228,4.153-5.175,5.9c-1.865,1.661-3.962,3.109-6.221,4.323c-0.416,0.276-0.905,0.426-1.447,0.426    C331.625,280.559,330.444,279.387,330.444,277.939 M335.684,218.362v54.826l1.566-1.298c1.65-1.449,3.109-3.111,4.344-4.921    c1.492-2.173,2.686-4.601,3.473-7.157c0.768-2.471,1.182-5.111,1.182-7.859v-33.591H335.684z M181.556,215.742v62.197    c-0.021,0.426-0.116,0.83-0.319,1.213c-0.66,1.279-2.236,1.769-3.515,1.107c-2.278-1.191-4.408-2.662-6.315-4.344l-0.139-0.106    c-1.948-1.726-3.696-3.728-5.186-5.9c-1.779-2.578-3.185-5.474-4.143-8.563c-0.916-2.981-1.429-6.156-1.429-9.393v-36.211    c0-1.448,1.172-2.619,2.62-2.619h15.805C180.375,213.123,181.556,214.294,181.556,215.742z M226.5,417.454h58.947    c-2.226-4.323-4.271-8.69-6.007-13.078c-1.821-4.601-3.334-9.286-4.399-14.036c-1-4.494-1.617-9.053-1.714-13.653    c-0.107-4.622,0.288-9.287,1.29-13.994c0.19-0.916,0.872-1.704,1.842-1.981c7.253-2.087,14.068-5.261,20.224-9.308    c6.263-4.111,11.896-9.159,16.69-14.953c4.685-5.665,8.561-12.034,11.416-18.893l0.053-0.149    c2.789-6.71,4.611-13.908,5.305-21.406c0.084-1.023,0.777-1.96,1.832-2.279c4.227-1.321,8.189-3.28,11.735-5.751    c3.609-2.514,6.815-5.603,9.5-9.096c2.78-3.642,4.994-7.731,6.496-12.141c1.438-4.239,2.228-8.798,2.228-13.548V201.43h-28.873    c-1.439,0-2.62-1.172-2.62-2.621v-2.428h-85.393c-1.448,0-2.62-1.172-2.62-2.62s1.172-2.62,2.62-2.62h85.393v-14.122H181.556    v21.79c0,1.449-1.181,2.621-2.62,2.621h-28.873v51.758c0,4.75,0.79,9.309,2.227,13.548c1.491,4.409,3.706,8.499,6.496,12.141    c2.685,3.515,5.901,6.582,9.5,9.116c3.546,2.471,7.498,4.432,11.736,5.73c0.981,0.319,1.727,1.172,1.832,2.258    c0.683,7.52,2.515,14.74,5.305,21.449c2.853,6.922,6.752,13.333,11.479,19.043c4.771,5.771,10.416,10.819,16.7,14.951    c6.177,4.068,13.004,7.221,20.247,9.309c0.905,0.256,1.639,0.98,1.842,1.96c0.958,4.536,1.341,9.073,1.225,13.61    c-0.118,4.537-0.735,9.053-1.737,13.547c-1.055,4.707-2.544,9.437-4.366,14.122C230.803,408.488,228.746,412.981,226.5,417.454z     M313.563,422.694c-38.373,0-76.744,0-115.117,0v7.009h61.781c1.448,0,2.62,1.171,2.62,2.619s-1.172,2.62-2.62,2.62h-61.781    v11.416h115.117V422.694z M325.727,451.599c-46.487,0-92.966,0-139.442,0v9.904h139.442V451.599z M283.637,247.48    c-7.072-7.072-16.837-11.439-27.638-11.439c-10.788,0-20.564,4.367-27.625,11.439c-7.072,7.07-11.46,16.848-11.46,27.646    c0,10.778,4.388,20.555,11.46,27.627c7.061,7.071,16.837,11.438,27.625,11.438c10.735,0,20.448-4.303,27.509-11.289l0.129-0.148    c7.071-7.072,11.449-16.849,11.449-27.627c0-10.734-4.313-20.447-11.312-27.52L283.637,247.48z M255.999,230.802    c12.237,0,23.324,4.964,31.343,12.972l0.149,0.17c7.925,8.01,12.834,19.021,12.834,31.184c0,12.227-4.962,23.324-12.983,31.332    l-0.159,0.15c-8.009,7.923-19.03,12.822-31.184,12.822c-12.225,0-23.322-4.963-31.331-12.973    c-8.019-8.008-12.983-19.105-12.983-31.332c0-12.226,4.964-23.323,12.983-31.332C232.677,235.766,243.763,230.802,255.999,230.802    z M260.186,300.602h5.452v-50.971h-4.323c-0.618,1.32-1.364,2.578-2.259,3.75c-1.257,1.66-2.8,3.216-4.611,4.621    c-1.725,1.363-3.408,2.514-5.025,3.43c-1.034,0.596-2.046,1.107-3.046,1.512v4.154c1.204-0.555,2.364-1.15,3.471-1.789    c2.099-1.236,4.027-2.685,5.805-4.324c0.479-0.512,1.161-0.852,1.917-0.852c1.438,0,2.62,1.191,2.62,2.619V300.602z     M268.258,305.842h-10.692c-1.449,0-2.619-1.192-2.619-2.619v-34.996c-0.79,0.553-1.609,1.086-2.439,1.575    c-2.471,1.448-5.124,2.663-7.935,3.579c-1.374,0.469-2.854-0.277-3.312-1.662c-0.086-0.275-0.128-0.553-0.128-0.809v-9.756    c0-1.214,0.83-2.236,1.948-2.535c1.183-0.404,2.439-0.979,3.75-1.725c1.395-0.81,2.876-1.811,4.397-3.004    c1.46-1.15,2.685-2.363,3.653-3.663c0.981-1.278,1.725-2.642,2.248-4.089c0.372-1.065,1.385-1.727,2.449-1.727l8.68-0.021    c1.438,0,2.62,1.192,2.62,2.62v56.211C270.878,304.649,269.696,305.842,268.258,305.842z M226.904,191.141    c1.449,0,2.62,1.172,2.62,2.62s-1.17,2.62-2.62,2.62h-17.85c-1.448,0-2.62-1.172-2.62-2.62s1.172-2.62,2.62-2.62H226.904z     M284.104,429.703c1.449,0,2.62,1.171,2.62,2.619s-1.171,2.62-2.62,2.62H273.84c-1.439,0-2.609-1.172-2.609-2.62    s1.17-2.619,2.609-2.619H284.104z M253.379,28.621c0-1.448,1.172-2.619,2.62-2.619c1.449,0,2.621,1.171,2.621,2.619v39.172    c0,1.447-1.172,2.619-2.621,2.619c-1.448,0-2.62-1.172-2.62-2.619V28.621z M411.619,111.394c1.267-0.682,2.863-0.213,3.547,1.065    c0.681,1.256,0.212,2.854-1.055,3.535l-36.125,19.596c-1.257,0.682-2.855,0.213-3.536-1.064c-0.693-1.257-0.212-2.854,1.055-3.535    L411.619,111.394z M414.111,281.56c1.267,0.682,1.735,2.279,1.055,3.536c-0.684,1.278-2.28,1.746-3.547,1.064l-36.114-19.596    c-1.267-0.682-1.748-2.278-1.055-3.535c0.681-1.278,2.279-1.746,3.536-1.066L414.111,281.56z M100.381,286.16    c-1.267,0.682-2.853,0.214-3.546-1.064c-0.681-1.257-0.212-2.854,1.055-3.536l36.125-19.597c1.256-0.68,2.855-0.212,3.536,1.066    c0.693,1.257,0.212,2.854-1.044,3.535L100.381,286.16z M97.889,115.994c-1.267-0.682-1.735-2.279-1.055-3.535    c0.693-1.278,2.279-1.747,3.546-1.065l36.125,19.597c1.256,0.682,1.737,2.278,1.044,3.535c-0.681,1.277-2.279,1.746-3.536,1.064    L97.889,115.994z M332.988,68.516c0.757-1.234,2.365-1.618,3.602-0.872c1.225,0.767,1.607,2.386,0.851,3.599l-12.728,20.726    c-0.754,1.214-2.363,1.598-3.599,0.853c-1.225-0.746-1.607-2.365-0.853-3.601L332.988,68.516z M414.431,196.168    c1.447,0,2.619,1.172,2.619,2.598c0,1.449-1.172,2.621-2.619,2.621h-25.454c-1.438,0-2.621-1.172-2.621-2.621    c0-1.426,1.184-2.598,2.621-2.598H414.431z M97.57,201.387c-1.448,0-2.62-1.172-2.62-2.621c0-1.426,1.172-2.598,2.62-2.598h25.454    c1.448,0,2.62,1.172,2.62,2.598c0,1.449-1.172,2.621-2.62,2.621H97.57z M174.56,71.242c-0.756-1.213-0.374-2.832,0.861-3.599    c1.225-0.746,2.834-0.362,3.601,0.872l12.715,20.704c0.756,1.235,0.374,2.854-0.851,3.601c-1.235,0.745-2.855,0.361-3.599-0.853    L174.56,71.242z M253.379,102.81c0-1.448,1.183-2.62,2.62-2.62c1.449,0,2.621,1.172,2.621,2.62v22.088    c0,1.448-1.172,2.62-2.621,2.62c-1.437,0-2.62-1.172-2.62-2.62V102.81z M337.814,148.541c1.246-0.725,2.843-0.299,3.557,0.958    c0.713,1.235,0.277,2.833-0.971,3.558l-19.127,11.033c-1.245,0.725-2.842,0.299-3.557-0.959c-0.714-1.234-0.287-2.832,0.959-3.557    L337.814,148.541z M171.599,153.057c-1.248-0.725-1.672-2.322-0.97-3.558c0.725-1.257,2.321-1.683,3.557-0.958l19.15,11.033    c1.235,0.725,1.662,2.322,0.958,3.557c-0.725,1.258-2.322,1.684-3.557,0.959L171.599,153.057z M295.714,124.791    c0.713-1.256,2.312-1.683,3.558-0.958c1.245,0.702,1.672,2.3,0.958,3.558l-6.742,11.672c-0.712,1.235-2.311,1.683-3.557,0.958    c-1.246-0.702-1.673-2.321-0.958-3.557L295.714,124.791z M211.781,127.391c-0.725-1.236-0.298-2.855,0.947-3.558    c1.246-0.725,2.845-0.298,3.568,0.937l6.742,11.694c0.714,1.235,0.288,2.833-0.958,3.557c-1.246,0.725-2.844,0.298-3.567-0.958    L211.781,127.391z M154.239,476.413c-1.439,0-2.62-1.171-2.62-2.62c0-1.448,1.181-2.619,2.62-2.619h157.524    c1.438,0,2.619,1.171,2.619,2.619c0,1.449-1.181,2.62-2.619,2.62H154.239z M246.479,485.999c-1.449,0-2.62-1.172-2.62-2.62    s1.17-2.62,2.62-2.62h109.003c1.448,0,2.62,1.172,2.62,2.62s-1.172,2.62-2.62,2.62H246.479z M366.643,485.999    c-1.447,0-2.619-1.172-2.619-2.62s1.172-2.62,2.619-2.62h13.623c1.447,0,2.619,1.172,2.619,2.62s-1.172,2.62-2.619,2.62H366.643z     M148.029,485.7c-1.437,0-2.62-1.171-2.62-2.62c0-1.427,1.183-2.619,2.62-2.619h51.653c1.45,0,2.62,1.192,2.62,2.619    c0,1.449-1.17,2.62-2.62,2.62H148.029z M224.7,394.492c-0.16,1.3-1.267,2.301-2.599,2.301c-1.438,0-2.62-1.171-2.62-2.619    c0-0.277,0.042-0.533,0.118-0.788c0.916-4.11,1.469-8.222,1.565-12.29c0.096-3.621-0.16-7.264-0.82-10.885    c-7.2-2.236-13.973-5.452-20.139-9.5c-6.721-4.408-12.748-9.819-17.862-15.996c-5.036-6.092-9.2-12.951-12.29-20.384    c-2.971-7.2-4.931-14.91-5.665-22.962c-0.128-1.428,0.927-2.705,2.364-2.833c1.427-0.128,2.706,0.916,2.832,2.364    c0.683,7.498,2.515,14.719,5.305,21.449c2.854,6.923,6.752,13.334,11.481,19.043c4.771,5.751,10.415,10.819,16.698,14.931    c6.177,4.068,13.004,7.242,20.246,9.308c0.906,0.256,1.628,1.002,1.843,1.982c0.958,4.516,1.332,9.053,1.225,13.609    C226.265,385.654,225.668,390.084,224.7,394.492z M176.316,273.211v-54.849H165.75v33.591c0,2.748,0.416,5.389,1.172,7.859    c0.798,2.557,1.981,4.984,3.473,7.157c1.235,1.81,2.704,3.472,4.345,4.941L176.316,273.211z" style="fill-rule:evenodd;clip-rule:evenodd;"/>
</g>
</g>
<g id="Layer_1"/>
</svg>