<?xml version="1.0" encoding="UTF-8" standalone="no"?>
<svg
   xmlns:dc="http://purl.org/dc/elements/1.1/"
   xmlns:cc="http://creativecommons.org/ns#"
   xmlns:rdf="http://www.w3.org/1999/02/22-rdf-syntax-ns#"
   xmlns:svg="http://www.w3.org/2000/svg"
   xmlns="http://www.w3.org/2000/svg"
   xmlns:sodipodi="http://sodipodi.sourceforge.net/DTD/sodipodi-0.dtd"
   xmlns:inkscape="http://www.inkscape.org/namespaces/inkscape"
   width="800px"
   height="800px"
   viewBox="0 0 1024 1024"
   class="icon"
   version="1.1"
   id="svg10"
   sodipodi:docname="anchor.svg"
   inkscape:export-filename="C:\Users\keega\Documents\cannlytics\cannlytics\app\assets\images\icons\anchor.png"
   inkscape:export-xdpi="96"
   inkscape:export-ydpi="96"
   inkscape:version="1.0.1 (3bc2e813f5, 2020-09-07)">
  <metadata
     id="metadata16">
    <rdf:RDF>
      <cc:Work
         rdf:about="">
        <dc:format>image/svg+xml</dc:format>
        <dc:type
           rdf:resource="http://purl.org/dc/dcmitype/StillImage" />
      </cc:Work>
    </rdf:RDF>
  </metadata>
  <defs
     id="defs14" />
  <sodipodi:namedview
     pagecolor="#ffffff"
     bordercolor="#666666"
     borderopacity="1"
     objecttolerance="10"
     gridtolerance="10"
     guidetolerance="10"
     inkscape:pageopacity="0"
     inkscape:pageshadow="2"
     inkscape:window-width="1920"
     inkscape:window-height="1094"
     id="namedview12"
     showgrid="false"
     inkscape:zoom="0.94125"
     inkscape:cx="400"
     inkscape:cy="400"
     inkscape:window-x="-11"
     inkscape:window-y="-11"
     inkscape:window-maximized="1"
     inkscape:current-layer="svg10" />
  <path
     d="M508.416 921.6c-128 0-246.784-63.488-317.952-170.496l-33.792 43.008c-3.584 4.608-9.728 5.12-14.336 1.536-2.56-2.048-4.096-5.632-4.096-9.216l19.456-201.728c0.512-5.632 5.632-9.728 11.264-9.216 1.536 0 3.584 0.512 4.608 1.536l166.912 114.688c2.048 1.536 3.584 4.096 4.096 6.656s0 5.632-1.536 7.68c-2.048 3.072-5.12 4.608-8.704 4.608l-41.472-1.536c42.496 47.616 100.352 80.384 162.304 91.648V357.888C402.944 337.92 368.64 287.232 368.64 230.4c0-76.288 61.952-138.24 138.24-138.24s138.24 61.952 138.24 138.24c0 56.832-34.304 107.52-87.04 128.512v443.392c63.488-11.264 122.368-43.52 165.888-92.16l-39.424 1.536c-2.56 0-5.12-1.024-7.168-2.56-2.048-2.048-3.072-4.608-3.072-7.168 0-3.584 1.536-6.656 4.608-8.704l166.912-114.688c2.048-1.536 5.12-2.048 7.68-1.536s5.12 2.048 6.656 4.096c1.024 1.536 1.536 3.072 1.536 4.608l19.456 201.216c0.512 2.56-0.512 5.632-2.048 7.68-1.536 2.048-4.096 3.584-7.168 3.584-3.584 0.512-6.656-1.024-9.216-4.096l-35.328-45.568c-72.704 108.544-192 173.056-318.976 173.056z m-316.928-196.608l11.776 17.92c68.096 102.4 182.272 163.84 305.152 163.84 121.856 0 236.032-61.952 305.664-165.888l11.776-17.408 37.888 48.128-16.896-175.104-145.408 98.816 57.856-2.048-24.064 26.624c-45.568 51.2-107.52 85.504-174.592 97.28l-17.92 3.072V348.672l9.728-4.096C599.552 325.632 629.76 281.088 629.76 230.4c0-67.584-55.296-122.88-122.88-122.88S384 162.816 384 230.4c0 50.688 30.208 95.232 77.312 114.176l9.728 4.096v471.552l-17.92-3.584c-65.536-12.288-126.464-46.592-171.008-96.768l-24.064-26.624 59.392 2.048-145.408-99.84-16.896 175.104 36.352-45.568z m683.008 59.904z m-187.392-79.36z m-3.072-9.216z m161.792-109.056zM506.88 307.2c-42.496 0-76.8-34.304-76.8-76.8s34.304-76.8 76.8-76.8 76.8 34.304 76.8 76.8-34.304 76.8-76.8 76.8z m0-138.24c-33.792 0-61.44 27.648-61.44 61.44s27.648 61.44 61.44 61.44 61.44-27.648 61.44-61.44-27.648-61.44-61.44-61.44z"
     fill=""
     id="path2" />
  <path
     d="M384 424.96h245.76c5.632 0 10.24 4.608 10.24 10.24v56.32c0 5.632-4.608 10.24-10.24 10.24H384c-5.632 0-10.24-4.608-10.24-10.24V435.2c0-5.632 4.608-10.24 10.24-10.24z"
     fill="#7ED321"
     id="path4"
     style="fill:#f57c00;fill-opacity:1" />
  <path
     d="M629.76 509.44H384c-9.728 0-17.92-8.192-17.92-17.92V435.2c0-9.728 8.192-17.92 17.92-17.92h245.76c9.728 0 17.92 8.192 17.92 17.92v56.32c0 9.728-8.192 17.92-17.92 17.92z m-245.76-76.8c-1.536 0-2.56 1.024-2.56 2.56v56.32c0 1.536 1.024 2.56 2.56 2.56h245.76c1.536 0 2.56-1.024 2.56-2.56V435.2c0-1.536-1.024-2.56-2.56-2.56H384z"
     fill=""
     id="path6" />
  <path
     d="M506.88 230.4m-40.96 0a40.96 40.96 0 1 0 81.92 0 40.96 40.96 0 1 0-81.92 0Z"
     fill="#7ED321"
     id="path8"
     style="fill:#f57c00;fill-opacity:1" />
</svg>
