<?xml version="1.0" ?><!-- Uploaded to: SVG Repo, www.svgrepo.com, Generator: SVG Repo Mixer Tools -->
<svg width="800px" height="800px" viewBox="0 0 64 64" id="duotone_outline" xmlns="http://www.w3.org/2000/svg"><path d="M53,54H11a1,1,0,0,1,0-2H53a1,1,0,0,1,0,2Z" style="fill:#e78753"/><path d="M53,38H44a1,1,0,0,1-1-1,11,11,0,0,0-22,0,1,1,0,0,1-1,1H11a1,1,0,0,1,0-2h8.038a13,13,0,0,1,25.924,0H53a1,1,0,0,1,0,2Z" style="fill:#e78753"/><path d="M49,62H15a5.006,5.006,0,0,1-5-5V23a5.006,5.006,0,0,1,5-5V13a1,1,0,0,1,2,0v6a1,1,0,0,1-1,1H15a3,3,0,0,0-3,3V57a3,3,0,0,0,3,3H49a3,3,0,0,0,3-3V23a3,3,0,0,0-3-3H48a1,1,0,0,1-1-1V13a1,1,0,0,1,2,0v5a5.006,5.006,0,0,1,5,5V57A5.006,5.006,0,0,1,49,62Z" style="fill:#363636"/><path d="M48,20H30a1,1,0,0,1,0-2H48a1,1,0,0,1,0,2Z" style="fill:#363636"/><path d="M22,20H16a1,1,0,0,1,0-2h6a1,1,0,0,1,0,2Z" style="fill:#363636"/><path d="M49,14H15a5.006,5.006,0,0,1-5-5V7a5.006,5.006,0,0,1,5-5H49a5.006,5.006,0,0,1,5,5V9A5.006,5.006,0,0,1,49,14ZM15,4a3,3,0,0,0-3,3V9a3,3,0,0,0,3,3H49a3,3,0,0,0,3-3V7a3,3,0,0,0-3-3Z" style="fill:#e78753"/><path d="M32,46a9,9,0,1,1,9-9A9.01,9.01,0,0,1,32,46Zm0-16a7,7,0,1,0,7,7A7.008,7.008,0,0,0,32,30Z" style="fill:#e78753"/><rect height="2" rx="1" style="fill:#e78753" width="26" x="19" y="48"/></svg>