<?xml version="1.0" encoding="UTF-8" standalone="no"?>
<svg
   xmlns:dc="http://purl.org/dc/elements/1.1/"
   xmlns:cc="http://creativecommons.org/ns#"
   xmlns:rdf="http://www.w3.org/1999/02/22-rdf-syntax-ns#"
   xmlns:svg="http://www.w3.org/2000/svg"
   xmlns="http://www.w3.org/2000/svg"
   xmlns:sodipodi="http://sodipodi.sourceforge.net/DTD/sodipodi-0.dtd"
   xmlns:inkscape="http://www.inkscape.org/namespaces/inkscape"
   width="800px"
   height="800px"
   viewBox="0 0 2050 2050"
   data-name="Layer 3"
   id="Layer_3"
   version="1.1"
   sodipodi:docname="briefcase-orange.svg"
   inkscape:version="1.0.1 (3bc2e813f5, 2020-09-07)">
  <metadata
     id="metadata35">
    <rdf:RDF>
      <cc:Work
         rdf:about="">
        <dc:format>image/svg+xml</dc:format>
        <dc:type
           rdf:resource="http://purl.org/dc/dcmitype/StillImage" />
      </cc:Work>
    </rdf:RDF>
  </metadata>
  <sodipodi:namedview
     pagecolor="#ffffff"
     bordercolor="#666666"
     borderopacity="1"
     objecttolerance="10"
     gridtolerance="10"
     guidetolerance="10"
     inkscape:pageopacity="0"
     inkscape:pageshadow="2"
     inkscape:window-width="1920"
     inkscape:window-height="1094"
     id="namedview33"
     showgrid="false"
     inkscape:zoom="0.94125"
     inkscape:cx="400"
     inkscape:cy="400"
     inkscape:window-x="-11"
     inkscape:window-y="-11"
     inkscape:window-maximized="1"
     inkscape:current-layer="Layer_3" />
  <defs
     id="defs4">
    <style
       id="style2">.cls-1{fill:#1682fc;}.cls-2{fill:#e0e1e2;}.cls-3{fill:#2e3a58;}</style>
  </defs>
  <title
     id="title6" />
  <path
     class="cls-1"
     d="M1365.6,619.8h-60a15,15,0,0,1-15-15V547.5a17.2,17.2,0,0,0-17.2-17.2H776.6a17.2,17.2,0,0,0-17.2,17.2v57.3a15,15,0,0,1-15,15h-60a15,15,0,0,1-15-15V547.5A107.3,107.3,0,0,1,776.6,440.3h496.8a107.3,107.3,0,0,1,107.2,107.2v57.3A15,15,0,0,1,1365.6,619.8Zm-45-30h30V547.5a77.2,77.2,0,0,0-77.2-77.2H776.6a77.2,77.2,0,0,0-77.2,77.2v42.3h30V547.5a47.2,47.2,0,0,1,47.2-47.2h496.8a47.2,47.2,0,0,1,47.2,47.2Z"
     id="path8"
     style="fill:#f57c00;fill-opacity:1" />
  <path
     class="cls-2"
     d="M442.1,1414.4a121,121,0,0,0,115.2,84h935.4a121,121,0,0,0,115.2-84Z"
     id="path10" />
  <path
     class="cls-2"
     d="M499.6,1377.4V787.6a120.9,120.9,0,0,1,121-120.9H557.3a120.9,120.9,0,0,0-121,120.9v589.8a121,121,0,0,0,121,121h63.3A121,121,0,0,1,499.6,1377.4Z"
     id="path12" />
  <polygon
     class="cls-1"
     points="1165 1023.4 1084.1 1023.4 1084.1 942.5 965.9 942.5 965.9 1023.4 885 1023.4 885 1141.6 965.9 1141.6 965.9 1222.6 1084.1 1222.6 1084.1 1141.6 1165 1141.6 1165 1023.4"
     id="polygon14" />
  <path
     class="cls-1"
     d="M1576.3,762h-60a5,5,0,0,1,0-10h60a5,5,0,1,1,0,10Zm-120,0h-60a5,5,0,0,1,0-10h60a5,5,0,1,1,0,10Zm-120,0h-60a5,5,0,0,1,0-10h60a5,5,0,1,1,0,10Zm-120,0h-60a5,5,0,0,1,0-10h60a5,5,0,0,1,0,10Zm-120,0h-60a5,5,0,0,1,0-10h60a5,5,0,0,1,0,10Zm-120,0h-60a5,5,0,0,1,0-10h60a5,5,0,0,1,0,10Zm-120,0h-60a5,5,0,0,1,0-10h60a5,5,0,0,1,0,10Zm-120,0h-60a5,5,0,0,1,0-10h60a5,5,0,0,1,0,10Zm-120,0h-60a5,5,0,0,1,0-10h60a5,5,0,0,1,0,10Zm-120,0h-60a5,5,0,1,1,0-10h60a5,5,0,0,1,0,10Z"
     id="path16"
     style="fill:#f57c00;fill-opacity:1" />
  <path
     class="cls-1"
     d="M1576.3,1419.4h-60a5.1,5.1,0,0,1-5-5,5,5,0,0,1,5-5h60a5,5,0,0,1,5,5A5,5,0,0,1,1576.3,1419.4Zm-120,0h-60a5.1,5.1,0,0,1-5-5,5,5,0,0,1,5-5h60a5,5,0,0,1,5,5A5,5,0,0,1,1456.3,1419.4Zm-120,0h-60a5.1,5.1,0,0,1-5-5,5,5,0,0,1,5-5h60a5,5,0,0,1,5,5A5,5,0,0,1,1336.3,1419.4Zm-120,0h-60a5.1,5.1,0,0,1-5-5,5,5,0,0,1,5-5h60a5,5,0,0,1,5,5A5,5,0,0,1,1216.3,1419.4Zm-120,0h-60a5.1,5.1,0,0,1-5-5,5,5,0,0,1,5-5h60a5,5,0,0,1,5,5A5,5,0,0,1,1096.3,1419.4Zm-120,0h-60a5.1,5.1,0,0,1-5-5,5,5,0,0,1,5-5h60a5,5,0,0,1,5,5A5,5,0,0,1,976.3,1419.4Zm-120,0h-60a5.1,5.1,0,0,1-5-5,5,5,0,0,1,5-5h60a5,5,0,0,1,5,5A5,5,0,0,1,856.3,1419.4Zm-120,0h-60a5.1,5.1,0,0,1-5-5,5,5,0,0,1,5-5h60a5,5,0,0,1,5,5A5,5,0,0,1,736.3,1419.4Zm-120,0h-60a5.1,5.1,0,0,1-5-5,5,5,0,0,1,5-5h60a5,5,0,0,1,5,5A5,5,0,0,1,616.3,1419.4Zm-120,0h-60a5.1,5.1,0,0,1-5-5,5,5,0,0,1,5-5h60a5,5,0,0,1,5,5A5,5,0,0,1,496.3,1419.4Z"
     id="path18"
     style="fill:#f57c00;fill-opacity:1" />
  <path
     class="cls-3"
     d="M1025,1363.7a281.2,281.2,0,1,1,198.8-82.4A279.4,279.4,0,0,1,1025,1363.7Zm0-532.3a250.9,250.9,0,1,0,177.6,73.5A249.7,249.7,0,0,0,1025,831.4Z"
     id="path20" />
  <rect
     class="cls-2"
     height="61.9"
     width="57.8"
     x="744"
     y="604.8"
     id="rect22" />
  <rect
     class="cls-2"
     height="61.9"
     width="61.9"
     x="1361.2"
     y="604.8"
     id="rect24" />
  <path
     class="cls-3"
     d="M801.8,681.7H626.9a15,15,0,0,1-15-15V604.8a15,15,0,0,1,15-15H801.8a15,15,0,0,1,15,15v61.9A15,15,0,0,1,801.8,681.7Zm-159.9-30H786.8V619.8H641.9Z"
     id="path26" />
  <path
     class="cls-3"
     d="M1423.1,681.7H1248.2a15,15,0,0,1-15-15V604.8a15,15,0,0,1,15-15h174.9a15,15,0,0,1,15,15v61.9A15,15,0,0,1,1423.1,681.7Zm-159.9-30h144.9V619.8H1263.2Z"
     id="path28" />
  <path
     class="cls-3"
     d="M1492.7,1513.4H557.3c-75,0-136-61-136-136V787.6c0-74.9,61-135.9,136-135.9h935.4c75,0,136,61,136,135.9v589.8C1628.7,1452.4,1567.7,1513.4,1492.7,1513.4ZM557.3,681.7c-58.4,0-106,47.5-106,105.9v589.8a106.1,106.1,0,0,0,106,106h935.4a106.1,106.1,0,0,0,106-106V787.6c0-58.4-47.6-105.9-106-105.9Z"
     id="path30" />
</svg>
