<?xml version="1.0" ?><!-- Uploaded to: SVG Repo, www.svgrepo.com, Generator: SVG Repo Mixer Tools -->
<svg width="800px" height="800px" viewBox="0 0 2050 2050" data-name="Layer 3" id="Layer_3" xmlns="http://www.w3.org/2000/svg"><defs><style>.cls-1{fill:#e0e1e2;}.cls-2{fill:#2e3a58;}.cls-3{fill:#1682fc;}</style></defs><title/><path class="cls-1" d="M1533.2,1565.3H652.1a102.3,102.3,0,0,1-102.3-102.2V607.5a98.5,98.5,0,0,1,1.8-18.9,134.2,134.2,0,0,0-67.1,116.3v791.4a134.3,134.3,0,0,0,134.3,134.3h817a134.2,134.2,0,0,0,116.3-67.1A97.7,97.7,0,0,1,1533.2,1565.3Z"/><path class="cls-2" d="M1565.5,777.6H484.5a15,15,0,1,1,0-30h1081a15,15,0,0,1,0,30Z"/><path class="cls-2" d="M1429.8,1645.6H620.2c-83.1,0-150.7-67.6-150.7-150.7V706.3A150.7,150.7,0,0,1,598.4,557.2a15,15,0,1,1,4.3,29.7A120.6,120.6,0,0,0,499.5,706.3v788.6a120.8,120.8,0,0,0,120.7,120.7h809.6a120.8,120.8,0,0,0,120.7-120.7V706.3a120.7,120.7,0,0,0-102-119.3,15,15,0,1,1,4.6-29.6,150.6,150.6,0,0,1,127.4,148.9v788.6C1580.5,1578,1512.9,1645.6,1429.8,1645.6Z"/><path class="cls-2" d="M1352,585.6H1201a15,15,0,0,1,0-30h151a15,15,0,0,1,0,30Z"/><path class="cls-2" d="M1103.1,585.6H950.2a15,15,0,0,1,0-30h152.9a15,15,0,0,1,0,30Z"/><path class="cls-2" d="M851.4,585.6H702.2a15,15,0,0,1,0-30H851.4a15,15,0,0,1,0,30Z"/><polygon class="cls-3" points="1096.4 1111.5 1096.4 968.6 953.6 968.6 953.6 1111.5 810.7 1111.5 810.7 1254.3 953.6 1254.3 953.6 1397.2 1096.4 1397.2 1096.4 1254.3 1239.3 1254.3 1239.3 1111.5 1096.4 1111.5"/><path class="cls-3" d="M1025,1500.2a332.4,332.4,0,0,1-49.9-3.9,5,5,0,0,1-4.1-5.8,4.9,4.9,0,0,1,5.7-4.1,321,321,0,0,0,58.8,3.6,5,5,0,0,1,5.2,4.8,5,5,0,0,1-4.9,5.2Zm70.1-7.9a5,5,0,0,1-1.2-9.9,303.4,303.4,0,0,0,55.9-18.7,5,5,0,0,1,4.1,9.2,317.6,317.6,0,0,1-57.7,19.2Zm-177.2-11-1.7-.3a314.4,314.4,0,0,1-54.9-26.3,5,5,0,0,1-1.7-6.8,4.9,4.9,0,0,1,6.9-1.7,308.1,308.1,0,0,0,53.1,25.4,5,5,0,0,1,3,6.4A4.8,4.8,0,0,1,917.9,1481.3Zm286.1-37.5a5.2,5.2,0,0,1-4.1-2.1,5.1,5.1,0,0,1,1.2-7,309.3,309.3,0,0,0,44.8-38.3,5,5,0,0,1,7.1-.1,5,5,0,0,1,.1,7.1,316.1,316.1,0,0,1-46.2,39.5A5.2,5.2,0,0,1,1204,1443.8Zm-388.2-24.1a4.6,4.6,0,0,1-3.3-1.3,317.8,317.8,0,0,1-41.1-44.9,5,5,0,0,1,1-7,5.1,5.1,0,0,1,7,1,309.4,309.4,0,0,0,39.8,43.5,5,5,0,0,1,.3,7.1A4.9,4.9,0,0,1,815.8,1419.7Zm471.1-61.7a4.8,4.8,0,0,1-2.8-.8,5,5,0,0,1-1.4-6.9,304.6,304.6,0,0,0,27.2-52.2,5.1,5.1,0,0,1,6.6-2.8,5.1,5.1,0,0,1,2.7,6.5,325.7,325.7,0,0,1-28.1,54A5.2,5.2,0,0,1,1286.9,1358Zm-542.8-33.6a5,5,0,0,1-4.5-2.8,312.4,312.4,0,0,1-21.2-57,4.9,4.9,0,0,1,3.5-6.1,5,5,0,0,1,6.1,3.5,311.6,311.6,0,0,0,20.6,55.3,4.9,4.9,0,0,1-2.3,6.6A4.4,4.4,0,0,1,744.1,1324.4Zm587.5-76.9h-1a4.8,4.8,0,0,1-3.9-5.8,307.8,307.8,0,0,0,2.7-100.6,5,5,0,0,1,4.3-5.6,4.9,4.9,0,0,1,5.6,4.3,310.4,310.4,0,0,1,3,43.2,323.2,323.2,0,0,1-5.8,60.6A5,5,0,0,1,1331.6,1247.5Zm-618.1-38.3a5,5,0,0,1-5-4.6c-.5-7.2-.8-14.5-.8-21.7a339.2,339.2,0,0,1,2.4-39.1,5.1,5.1,0,0,1,5.6-4.4,5,5,0,0,1,4.4,5.6,299,299,0,0,0-2.4,37.9c0,7,.3,14.1.8,21a5,5,0,0,1-4.7,5.3Zm14.6-118.3-1.5-.2a4.9,4.9,0,0,1-3.2-6.3,307.1,307.1,0,0,1,24.3-55.8,5,5,0,0,1,8.8,4.9,294.6,294.6,0,0,0-23.6,54A5,5,0,0,1,728.1,1090.9Zm592.5-3.8a5.1,5.1,0,0,1-4.7-3.4,308.9,308.9,0,0,0-24.3-53.7,5,5,0,1,1,8.6-5,309.8,309.8,0,0,1,25.1,55.4,5,5,0,0,1-3.1,6.4A4.5,4.5,0,0,1,1320.6,1087.1ZM786.2,986.8a5.1,5.1,0,0,1-3.9-8.3A317.7,317.7,0,0,1,825.8,936a5,5,0,0,1,6.3,7.7A310.1,310.1,0,0,0,790,985,5.3,5.3,0,0,1,786.2,986.8Zm475-3.1a4.9,4.9,0,0,1-3.8-1.8,315.5,315.5,0,0,0-42.6-40.7,5,5,0,0,1-.9-7,5.2,5.2,0,0,1,7.1-.8,323.5,323.5,0,0,1,44,42,4.9,4.9,0,0,1-.5,7A4.8,4.8,0,0,1,1261.2,983.7ZM878.9,911.8a5,5,0,0,1-4.4-2.6,5.1,5.1,0,0,1,2.1-6.8,317.7,317.7,0,0,1,56.3-23.2,5,5,0,0,1,2.9,9.6,308.1,308.1,0,0,0-54.5,22.5A5.2,5.2,0,0,1,878.9,911.8Zm288.6-1.8a4.6,4.6,0,0,1-2.3-.6,300.5,300.5,0,0,0-54.8-21.7,5,5,0,0,1,2.8-9.6,312,312,0,0,1,56.5,22.4,5,5,0,0,1-2.2,9.5ZM993,877.3a5,5,0,0,1-.5-10,320.1,320.1,0,0,1,32.5-1.7c9.5,0,19,.5,28.4,1.3a5,5,0,0,1-.9,10c-9.1-.8-18.3-1.3-27.5-1.3s-21.1.6-31.5,1.6Z"/><path class="cls-3" d="M651.8,694.9a61.4,61.4,0,0,1-61.3-61.3v-126a61.3,61.3,0,1,1,122.5,0v126A61.3,61.3,0,0,1,651.8,694.9Zm0-218.6a31.3,31.3,0,0,0-31.3,31.3v126a31.3,31.3,0,0,0,31.3,31.3h0A31.3,31.3,0,0,0,683,633.6v-126A31.3,31.3,0,0,0,651.8,476.3Z"/><path class="cls-3" d="M900.6,694.9a61.4,61.4,0,0,1-61.3-61.3v-126a61.3,61.3,0,1,1,122.6,0v126A61.4,61.4,0,0,1,900.6,694.9Zm0-218.6a31.3,31.3,0,0,0-31.3,31.3v126a31.3,31.3,0,1,0,62.6,0v-126A31.4,31.4,0,0,0,900.6,476.3Z"/><path class="cls-3" d="M1149.4,694.9a61.4,61.4,0,0,1-61.3-61.3v-126a61.3,61.3,0,1,1,122.6,0v126A61.4,61.4,0,0,1,1149.4,694.9Zm0-218.6a31.4,31.4,0,0,0-31.3,31.3v126a31.3,31.3,0,1,0,62.6,0v-126A31.3,31.3,0,0,0,1149.4,476.3Z"/><path class="cls-3" d="M1398.2,694.9a61.3,61.3,0,0,1-61.2-61.3v-126a61.3,61.3,0,1,1,122.5,0v126A61.4,61.4,0,0,1,1398.2,694.9Zm0-218.6a31.3,31.3,0,0,0-31.2,31.3v126a31.3,31.3,0,1,0,62.5,0v-126A31.3,31.3,0,0,0,1398.2,476.3Z"/></svg>