<?xml version="1.0" ?><!-- Uploaded to: SVG Repo, www.svgrepo.com, Generator: SVG Repo Mixer Tools -->
<svg width="800px" height="800px" viewBox="0 0 2050 2050" data-name="Layer 3" id="Layer_3" xmlns="http://www.w3.org/2000/svg"><defs><style>.cls-1{fill:#e0e1e2;}.cls-2{fill:#57cff9;}.cls-3{fill:#ff4f75;}.cls-4{fill:#1682fc;}.cls-5{fill:#2e3a58;}</style></defs><title/><path class="cls-1" d="M1034.8,803.7,820.9,1017.6a255.7,255.7,0,0,0-67.1,118.8h0a254.5,254.5,0,0,1-67.1,118.7l-61.4,61.4a35.4,35.4,0,0,0,50,50.1l61.5-61.4A254.7,254.7,0,0,1,855.5,1238h0a253.9,253.9,0,0,0,118.8-67.1l367.1-367.2C1214.9,787.7,1098.6,852.8,1034.8,803.7Z"/><path class="cls-2" d="M629.8,1370.4l-.3-.2Z"/><path class="cls-2" d="M632,1371.9c0-.1-.1-.1-.2-.2S632,1371.8,632,1371.9Z"/><path class="cls-2" d="M634.5,1373.3l-.2-.2Z"/><path class="cls-2" d="M639.5,1375.3h0Z"/><path class="cls-2" d="M627.6,1368.7l-.4-.3Z"/><path class="cls-3" d="M639.4,1375.2a41.4,41.4,0,0,1-4.9-1.9A41.4,41.4,0,0,0,639.4,1375.2Z"/><path class="cls-3" d="M629.5,1370.2l-1.9-1.5Z"/><path class="cls-3" d="M644.7,1376.5a48.7,48.7,0,0,1-5.2-1.2A48.7,48.7,0,0,0,644.7,1376.5Z"/><path class="cls-3" d="M634.3,1373.1a25.3,25.3,0,0,1-2.3-1.2A25.3,25.3,0,0,0,634.3,1373.1Z"/><path class="cls-3" d="M631.8,1371.7a13.7,13.7,0,0,1-2-1.3A13.7,13.7,0,0,0,631.8,1371.7Z"/><path class="cls-3" d="M627.2,1368.4l-1.9-1.8Z"/><path class="cls-3" d="M829.6,1246Z"/><path class="cls-3" d="M846.9,1240.4l-.8.2Z"/><path class="cls-3" d="M833.9,1244.4h0Z"/><path class="cls-3" d="M838.2,1243h0Z"/><path class="cls-3" d="M842.5,1241.6l-.5.2Z"/><path class="cls-3" d="M851.2,1239.2l-.9.2Z"/><polygon class="cls-3" points="974.3 1170.9 1341.4 803.7 1341.4 803.7 974.3 1170.9"/><path class="cls-3" d="M846.1,1240.6l-3.6,1Z"/><path class="cls-3" d="M850.3,1239.4l-3.4,1Z"/><path class="cls-3" d="M855.5,1238l-4.3,1.2Z"/><path class="cls-3" d="M821.2,1249.2l8.4-3.2-8.4,3.2Z"/><path class="cls-3" d="M842,1241.8l-3.8,1.2Z"/><path class="cls-3" d="M837.8,1243.1l-3.9,1.3Z"/><path class="cls-3" d="M833.7,1244.5l-4.1,1.5Z"/><path class="cls-1" d="M1509.3,720.5l-99-99.1a40.6,40.6,0,0,1,0,57.5h0a40.6,40.6,0,0,1-57.5,0l99,99.1a40.8,40.8,0,0,0,57.5,0h0A40.6,40.6,0,0,0,1509.3,720.5Z"/><path class="cls-1" d="M1561.1,430.8h0a100.3,100.3,0,0,0-23.6-17.5,97.8,97.8,0,0,1-25,121.3l-104.4,84.7,41.1,41,104.4-84.6A97.6,97.6,0,0,0,1561.1,430.8Z"/><path class="cls-4" d="M1449.2,675.3a14.5,14.5,0,0,1-10.6-4.4L1320.9,553.3a15,15,0,0,1-1-20.1l84.6-104.3A112.7,112.7,0,1,1,1563,587.4L1458.6,672A15,15,0,0,1,1449.2,675.3Zm-97.5-133.7,98.5,98.6,93.9-76.1a82.7,82.7,0,1,0-116.3-116.3Z"/><rect class="cls-4" height="72.96" transform="translate(-140.6 1049) rotate(-45)" width="30" x="1180.9" y="657.7"/><rect class="cls-4" height="72.96" transform="translate(-208.3 1021) rotate(-45)" width="30" x="1113.3" y="725.4"/><rect class="cls-4" height="72.96" transform="translate(-275.9 992.9) rotate(-45)" width="30" x="1045.6" y="793"/><rect class="cls-4" height="72.96" transform="translate(-343.6 964.9) rotate(-45)" width="30" x="978" y="860.7"/><rect class="cls-4" height="72.96" transform="translate(-411.2 936.9) rotate(-45)" width="30" x="910.3" y="928.4"/><rect class="cls-4" height="72.96" transform="translate(-478.9 908.9) rotate(-45)" width="30" x="842.6" y="996"/><path class="cls-4" d="M820.5,1254.8a5.4,5.4,0,0,1-3.5-1.4,5.1,5.1,0,0,1,0-7.1l42.4-42.4a5,5,0,0,1,7.1,0,4.8,4.8,0,0,1,0,7l-42.4,42.5A5.4,5.4,0,0,1,820.5,1254.8Zm84.9-84.8a4.7,4.7,0,0,1-3.5-1.5,5,5,0,0,1,0-7.1l42.4-42.4a5,5,0,0,1,7.1,0,5.1,5.1,0,0,1,0,7.1l-42.5,42.4A4.7,4.7,0,0,1,905.4,1170Zm84.8-84.9a5,5,0,0,1-3.5-8.5l42.4-42.5a5.1,5.1,0,0,1,7.1,0,5,5,0,0,1,0,7.1l-42.4,42.4A5.1,5.1,0,0,1,990.2,1085.1Zm84.9-84.8a4.7,4.7,0,0,1-3.5-1.5,5,5,0,0,1,0-7.1l42.4-42.4a5,5,0,0,1,7.1,0,5.1,5.1,0,0,1,0,7.1l-42.5,42.4A4.7,4.7,0,0,1,1075.1,1000.3Zm84.9-84.9a5.1,5.1,0,0,1-3.6-1.5,5,5,0,0,1,0-7l42.4-42.5a5.1,5.1,0,0,1,7.1,0,5,5,0,0,1,0,7.1l-42.4,42.4A5,5,0,0,1,1160,915.4Zm84.8-84.8a4.7,4.7,0,0,1-3.5-1.5,5,5,0,0,1,0-7.1l42.4-42.4a5,5,0,0,1,7.1,0,5.1,5.1,0,0,1,0,7.1l-42.5,42.4A4.7,4.7,0,0,1,1244.8,830.6Zm84.9-84.9a5.1,5.1,0,0,1-3.6-1.5,5,5,0,0,1,0-7l42.5-42.5a5,5,0,0,1,7,0,5,5,0,0,1,0,7.1l-42.4,42.4A5,5,0,0,1,1329.7,745.7Z"/><path class="cls-1" d="M669.3,1534.9,601.6,1422l-27.5,46,40,66.9a78.8,78.8,0,0,1-11.9,96.3h0a77.4,77.4,0,0,1-28.1,18.1,78.7,78.7,0,0,0,83.3-18.1h0A78.8,78.8,0,0,0,669.3,1534.9Z"/><path class="cls-4" d="M601.6,1669.3a93.9,93.9,0,0,1-80.5-142.1l67.7-112.9a15,15,0,0,1,25.7,0l67.7,112.9a93.9,93.9,0,0,1-80.6,142.1Zm0-218.2-54.7,91.5a63.7,63.7,0,0,0,9.6,78h0a63.9,63.9,0,0,0,99.9-78Z"/><path class="cls-5" d="M650.3,1392a50.5,50.5,0,0,1-35.6-86.1l61.4-61.4a240,240,0,0,0,63.2-111.8,270.6,270.6,0,0,1,71-125.7l435.3-435.2a14.9,14.9,0,0,1,21.2,0l153.3,153.3a15,15,0,0,1,0,21.2L984.9,1181.5a269.7,269.7,0,0,1-125.8,71.1,239.7,239.7,0,0,0-111.7,63.2l-61.5,61.4A50,50,0,0,1,650.3,1392Zm605.9-788.4L831.6,1028.2A239.2,239.2,0,0,0,768.4,1140a269.4,269.4,0,0,1-71.1,125.7l-61.4,61.4a20.4,20.4,0,1,0,28.8,28.9l61.5-61.4a268.9,268.9,0,0,1,125.7-71.1,239.7,239.7,0,0,0,111.7-63.2l424.7-424.6Z"/><path class="cls-5" d="M1480.5,804.9a55.3,55.3,0,0,1-39.3-16.3h0L1203.3,550.7A55.6,55.6,0,1,1,1282,472l237.9,237.8a55.7,55.7,0,0,1-39.4,95.1ZM1242.7,485.7a25.6,25.6,0,0,0-25.7,25.6,25.8,25.8,0,0,0,7.5,18.2l237.9,237.9h0a25.7,25.7,0,0,0,36.3-36.3L1260.8,493.2A25.2,25.2,0,0,0,1242.7,485.7Z"/></svg>