<?xml version="1.0" encoding="UTF-8" standalone="no"?>
<svg
   xmlns:dc="http://purl.org/dc/elements/1.1/"
   xmlns:cc="http://creativecommons.org/ns#"
   xmlns:rdf="http://www.w3.org/1999/02/22-rdf-syntax-ns#"
   xmlns:svg="http://www.w3.org/2000/svg"
   xmlns="http://www.w3.org/2000/svg"
   xmlns:sodipodi="http://sodipodi.sourceforge.net/DTD/sodipodi-0.dtd"
   xmlns:inkscape="http://www.inkscape.org/namespaces/inkscape"
   fill="#000000"
   width="800px"
   height="800px"
   viewBox="0 0 512 512"
   version="1.1"
   xml:space="preserve"
   id="svg8"
   sodipodi:docname="employees-orange.svg"
   inkscape:version="1.0.1 (3bc2e813f5, 2020-09-07)"
   inkscape:export-filename="C:\Users\keega\Documents\cannlytics\cannlytics\app\assets\images\icons\employees.png"
   inkscape:export-xdpi="96"
   inkscape:export-ydpi="96"><metadata
   id="metadata14"><rdf:RDF><cc:Work
       rdf:about=""><dc:format>image/svg+xml</dc:format><dc:type
         rdf:resource="http://purl.org/dc/dcmitype/StillImage" /><dc:title /></cc:Work></rdf:RDF></metadata><defs
   id="defs12" /><sodipodi:namedview
   pagecolor="#ffffff"
   bordercolor="#666666"
   borderopacity="1"
   objecttolerance="10"
   gridtolerance="10"
   guidetolerance="10"
   inkscape:pageopacity="0"
   inkscape:pageshadow="2"
   inkscape:window-width="1920"
   inkscape:window-height="1094"
   id="namedview10"
   showgrid="false"
   inkscape:zoom="0.70710678"
   inkscape:cx="284.63211"
   inkscape:cy="362.70851"
   inkscape:window-x="-11"
   inkscape:window-y="-11"
   inkscape:window-maximized="1"
   inkscape:current-layer="g4"
   inkscape:document-rotation="0" />

<g
   id="B_-_147_x2C__team_x2C__Business_x2C__communication_x2C__hierarchy_x2C__people_x2C__social_x2C__structure">

<g
   id="g4">

<path
   d="m 285.286,377.092 -4.296,-3.976 -20.192,27.503 6.577,6.077 z m -41.576,31.203 7.583,-7.584 -20.192,-27.595 -4.479,4.066 z m 48.43,37.873 c -1.921,0 -3.564,-1.599 -3.564,-3.608 0,-2.009 1.644,-3.609 3.564,-3.609 h 19.187 c 2.006,0 3.65,1.6 3.65,3.609 0,2.009 -1.645,3.608 -3.65,3.608 z m 0,-11.969 c -1.921,0 -3.564,-1.645 -3.564,-3.655 0,-1.965 1.644,-3.609 3.564,-3.609 h 19.187 c 2.006,0 3.65,1.645 3.65,3.609 0,2.011 -1.645,3.655 -3.65,3.655 z M 244.9,417.157 c -0.092,0.093 -0.276,0.184 -0.46,0.275 v 0.045 h -0.092 v 0 l -0.092,0.046 v 0 0 l -0.092,0.046 -0.092,0.046 h -0.085 v 0.046 h -0.093 v 0 l -0.091,0.045 v 0 0 h -0.092 v 0 l -0.093,0.047 v 0 h -0.091 v 0 h -0.092 v 0 l -0.092,0.044 v 0 h -0.092 v 0 h -0.086 v 0 h -0.092 v 0 h -0.092 v 0.046 h -0.092 -0.092 -0.092 l -0.092,-0.046 h -0.092 -0.092 -0.085 v 0 h -0.093 v -0.044 h -0.091 v 0 0 h -0.092 v 0 l -0.092,-0.047 v 0 h -0.092 l -0.092,-0.045 v 0 H 241.7 v 0 l -0.177,-0.092 h -0.093 l -0.092,-0.092 h -0.091 v 0 -0.045 h -0.093 v -0.046 h -0.092 v 0 -0.046 l -0.184,-0.091 v 0 l -0.091,-0.047 -0.178,-0.09 v -0.047 -0.045 h -0.092 v -0.046 l -0.092,-0.046 v 0 -0.046 h -0.092 v -0.046 -0.045 l -0.092,-0.046 v 0 -0.046 -0.046 h -0.092 v -0.045 0 l -0.092,-0.047 v 0 l -0.092,-0.137 v -0.045 l -0.177,-0.184 v 0 -0.091 l -0.093,-0.184 -0.091,-0.137 -18.825,-34.402 c -7.308,4.067 -13.616,7.447 -19.002,10.327 -12.978,6.943 -19.739,10.553 -22.936,15.624 -3.38,5.482 -3.196,14.025 -3.019,31.844 l 0.185,15.396 c 26.684,5.984 53.362,8.908 80.04,8.863 26.593,-0.047 53.363,-3.061 80.042,-8.863 l 0.092,-14.985 c 0.276,-17.954 0.369,-26.589 -3.104,-32.209 -3.197,-5.116 -10.052,-8.816 -23.205,-15.898 -5.395,-2.833 -11.611,-6.214 -18.643,-10.188 l -19.923,32.711 c -0.184,0.275 -0.361,0.549 -0.546,0.777 -1.367,1.462 -3.656,1.554 -5.117,0.183 l -9.504,-8.863 -10.78,10.691 v 0.045 h -0.093 v 0.046 0.046 h -0.091 v 0.046 0 l -0.092,0.046 v 0 l -0.093,0.045 v 0 0.047 z M 427.459,217.371 c -2.008,0 -3.65,-1.598 -3.65,-3.607 0,-1.966 1.643,-3.609 3.65,-3.609 h 19.186 c 1.92,0 3.564,1.644 3.564,3.609 0,2.009 -1.645,3.607 -3.564,3.607 z m 0,12.015 c -2.008,0 -3.65,-1.598 -3.65,-3.607 0,-2.012 1.643,-3.609 3.65,-3.609 h 19.186 c 1.92,0 3.564,1.598 3.564,3.609 0,2.009 -1.645,3.607 -3.564,3.607 z M 392.098,48.562 c -10.419,0 -19.917,4.202 -26.678,11.009 -6.854,6.854 -11.057,16.266 -11.057,26.682 0,11.65 4.564,28.462 13.063,40.798 6.215,9 14.529,15.532 24.672,15.532 10.05,0 18.363,-6.532 24.58,-15.532 8.498,-12.336 13.063,-29.148 13.063,-40.798 0,-10.416 -4.203,-19.827 -11.05,-26.634 -6.855,-6.809 -16.267,-11.057 -26.593,-11.057 z m 28.506,111.748 -4.381,-3.975 -20.106,27.503 6.491,6.077 z m -41.662,31.157 7.584,-7.537 -20.192,-27.595 -4.387,4.021 z M 121.547,48.562 c -10.419,0 -19.831,4.248 -26.686,11.057 -6.761,6.807 -11.057,16.218 -11.057,26.634 0,11.65 4.571,28.462 13.07,40.798 6.215,9 14.529,15.532 24.672,15.532 10.05,0 18.364,-6.532 24.58,-15.532 8.584,-12.336 13.063,-29.148 13.063,-40.798 0,-10.416 -4.202,-19.827 -11.057,-26.634 -6.761,-6.809 -16.265,-11.057 -26.585,-11.057 z m 28.506,111.748 -4.387,-3.975 -20.101,27.503 6.485,6.077 z m -41.668,31.157 7.675,-7.537 -20.285,-27.595 -4.387,4.021 z m 48.522,25.904 c -2.012,0 -3.657,-1.598 -3.657,-3.607 0,-1.966 1.645,-3.609 3.657,-3.609 h 19.187 c 1.921,0 3.565,1.644 3.565,3.609 0,2.009 -1.645,3.607 -3.565,3.607 z m 0,12.015 c -2.012,0 -3.657,-1.598 -3.657,-3.607 0,-2.012 1.645,-3.609 3.657,-3.609 h 19.187 c 1.921,0 3.565,1.598 3.565,3.609 0,2.009 -1.645,3.607 -3.565,3.607 z m 15.352,175.39 c 1.822,0.96 2.466,3.244 1.46,5.026 -0.915,1.827 -3.197,2.512 -5.025,1.507 C 139.728,395.548 115.516,372.203 98.704,343.876 82.437,316.556 73.118,284.622 73.118,250.54 l 0.091,-5.758 0.092,-1.233 c -10.873,-1.415 -21.745,-3.335 -32.532,-5.756 l -0.178,-15.442 c -0.276,-17.772 -0.369,-26.314 3.013,-31.843 3.104,-5.024 9.866,-8.634 22.844,-15.58 5.393,-2.877 11.786,-6.257 19.001,-10.37 l 18.824,34.447 0.093,0.137 0.092,0.183 0.091,0.046 v 0 l 0.185,0.229 v 0.044 l 0.085,0.093 v 0 0.044 0.045 l 0.092,0.046 v 0 0.046 0.045 h 0.091 v 0.046 0 l 0.093,0.046 v 0.046 l 0.092,0.045 v 0 0.046 h 0.091 v 0.046 l 0.093,0.045 v 0 l 0.184,0.092 v 0.046 0.045 l 0.178,0.092 h 0.092 v 0.045 0 l 0.091,0.046 v 0 0 l 0.093,0.044 v 0 l 0.184,0.093 v 0 l 0.276,0.044 v 0.048 h 0.086 v 0 l 0.091,0.044 v 0 0 l 0.093,0.045 v 0 h 0.091 v 0 h 0.092 v 0 l 0.093,0.046 v 0 h 0.091 v 0 h 0.185 v 0 h 0.177 v 0 h 0.184 0.091 v 0 0 h 0.092 v 0 h 0.093 v 0 h 0.091 v 0 l 0.092,-0.046 v 0 h 0.085 v 0 h 0.092 v 0 l 0.092,-0.045 v 0 h 0.092 v 0 -0.044 h 0.092 v 0 h 0.092 v -0.048 h 0.092 v 0 l 0.184,-0.044 v -0.045 0 l 0.092,-0.048 v 0 h 0.085 v -0.044 h 0.092 c 0.093,-0.091 0.276,-0.183 0.46,-0.274 v -0.046 0 l 0.092,-0.046 v 0 l 0.092,-0.045 v 0 -0.046 0 l 0.086,-0.046 v -0.045 l 0.091,-0.046 v 0 -0.046 l 0.093,-0.046 10.695,-10.645 9.59,8.864 c 1.46,1.369 3.657,1.279 5.025,-0.183 0.276,-0.229 0.461,-0.503 0.553,-0.778 l 19.917,-32.71 c 7.038,3.976 13.339,7.356 18.64,10.189 13.247,7.081 20.101,10.782 23.298,15.897 3.38,5.619 3.289,14.254 3.11,32.209 l -0.184,14.984 c -26.685,5.802 -53.363,8.818 -80.042,8.864 -4.202,0 -8.32,-0.091 -12.523,-0.229 0,1.371 -0.085,2.742 -0.085,4.113 0,29.148 8.498,56.331 23.021,79.22 14.99,23.619 36.551,42.717 62.137,54.73 1.829,0.869 2.65,3.107 1.736,4.935 -0.821,1.874 -3.11,2.696 -4.939,1.828 -26.862,-12.608 -49.521,-32.665 -65.235,-57.52 -15.352,-24.029 -24.218,-52.584 -24.218,-83.194 0,-1.462 0,-2.925 0.092,-4.433 -6.669,-0.366 -13.339,-0.913 -20.008,-1.644 l -0.092,0.501 v 5.575 c 0,32.711 8.958,63.367 24.488,89.544 16.18,27.143 39.385,49.574 67.168,64.696 z m 266.532,-161.319 0.092,1.279 0.093,5.804 c 0,34.127 -9.413,66.062 -25.587,93.382 -16.904,28.28 -41.115,51.672 -70.083,67.433 -1.829,0.959 -4.11,0.319 -5.116,-1.507 -0.914,-1.782 -0.277,-4.067 1.552,-5.072 27.776,-15.076 50.988,-37.508 67.163,-64.646 15.621,-26.224 24.572,-56.833 24.572,-89.59 l -0.085,-5.575 v -0.593 c -6.677,0.73 -13.438,1.325 -20.107,1.689 l 0.092,4.479 c 0,30.61 -8.859,59.165 -24.119,83.24 -15.806,24.809 -38.472,44.865 -65.335,57.474 -1.828,0.868 -4.11,0.046 -4.932,-1.783 -0.916,-1.872 -0.093,-4.11 1.736,-4.979 25.586,-11.968 47.146,-31.065 62.131,-54.73 14.621,-22.89 23.027,-50.072 23.027,-79.22 l -0.093,-4.113 c -4.11,0.137 -8.313,0.183 -12.517,0.229 -26.586,0.046 -53.363,-2.879 -79.949,-8.864 l -0.184,-15.442 c -0.277,-17.772 -0.369,-26.314 3.012,-31.843 3.111,-5.024 9.873,-8.634 22.844,-15.58 5.393,-2.877 11.787,-6.257 19.009,-10.37 l 18.825,34.447 0.085,0.137 0.093,0.183 v 0 l 0.092,0.046 v 0 0.091 0 l 0.092,0.046 v 0.044 0 0.048 l 0.092,0.044 0.092,0.093 v 0 0.044 0.045 l 0.093,0.046 v 0 0.046 l 0.093,0.045 v 0 0.046 h 0.092 v 0.046 0.046 l 0.086,0.045 v 0 0.046 h 0.091 v 0.046 0.045 h 0.093 l 0.092,0.092 0.092,0.046 v 0.045 l 0.184,0.092 h 0.093 v 0.045 0 l 0.093,0.046 v 0 0 l 0.092,0.044 v 0 l 0.177,0.093 v 0 l 0.185,0.044 0.092,0.048 v 0 h 0.093 l 0.091,0.044 v 0 h 0.094 v 0.045 0 h 0.092 v 0 h 0.085 v 0 l 0.093,0.046 v 0 h 0.092 v 0 h 0.184 v 0 h 0.185 v 0 h 0.185 0.086 v 0 0 h 0.091 v 0 h 0.093 v 0 h 0.092 v 0 l 0.092,-0.046 v 0 0 h 0.093 0.091 v 0 -0.045 h 0.093 v 0 h 0.093 v -0.044 h 0.085 v 0 h 0.093 v -0.048 h 0.092 v 0 l 0.092,-0.044 0.092,-0.045 v 0 l 0.092,-0.048 v 0 h 0.093 v -0.044 h 0.092 l 0.093,-0.046 0.177,-0.137 v 0 l 0.093,-0.045 0.092,-0.046 v -0.046 0 l 0.092,-0.046 v 0 -0.045 h 0.093 v -0.046 0 l 0.091,-0.046 v -0.045 l 0.093,-0.046 v 0 -0.046 l 0.093,-0.046 10.688,-10.645 9.598,8.864 c 1.367,1.369 3.65,1.279 5.024,-0.183 0.269,-0.229 0.454,-0.503 0.546,-0.778 l 19.916,-32.71 c 7.038,3.976 13.346,7.356 18.641,10.189 13.254,7.081 20.102,10.782 23.305,15.897 3.381,5.619 3.289,14.254 3.012,32.209 l -0.092,14.984 c -10.886,2.332 -21.667,4.25 -32.539,5.666 z M 180.389,107.679 c -1.829,0.868 -4.019,0.138 -4.841,-1.644 -0.914,-1.783 -0.185,-3.929 1.552,-4.843 12.063,-6.031 24.942,-10.692 38.373,-13.844 12.978,-3.106 26.593,-4.706 40.569,-4.706 13.163,0 26.133,1.462 38.563,4.248 12.787,2.879 25.127,7.083 36.638,12.565 1.829,0.822 2.559,2.969 1.735,4.797 -0.821,1.783 -3.012,2.559 -4.84,1.691 -11.057,-5.209 -22.844,-9.274 -35.092,-12.016 -11.871,-2.65 -24.211,-4.067 -37.005,-4.067 -13.431,0 -26.494,1.554 -38.925,4.477 -12.878,3.063 -25.217,7.54 -36.727,13.342 z M 305.295,76.932 c -1.922,-0.549 -3.104,-2.513 -2.559,-4.431 0.453,-1.92 2.467,-3.062 4.387,-2.559 5.664,1.508 11.326,3.289 16.721,5.253 l 0.092,0.048 c 5.479,2.009 10.872,4.293 16.082,6.761 1.828,0.822 2.65,3.015 1.736,4.797 -0.822,1.781 -3.02,2.559 -4.756,1.735 -5.025,-2.375 -10.229,-4.568 -15.438,-6.486 l -0.184,-0.046 c -5.302,-1.92 -10.688,-3.609 -16.081,-5.072 z m -100.879,0.593 c -1.914,0.549 -3.927,-0.593 -4.473,-2.467 -0.46,-1.918 0.638,-3.928 2.559,-4.477 8.591,-2.421 17.45,-4.248 26.402,-5.481 8.958,-1.233 18.002,-1.873 27.138,-1.873 1.921,0 3.565,1.644 3.565,3.608 0,2.011 -1.645,3.609 -3.565,3.609 -8.952,0 -17.634,0.641 -26.131,1.783 -8.676,1.188 -17.175,2.968 -25.495,5.298 z m -73.457,326.064 c 1.46,1.326 1.645,3.609 0.27,5.117 -1.277,1.462 -3.565,1.645 -5.118,0.32 C 110.305,395.183 96.69,378.78 85.909,360.506 75.399,342.643 67.637,322.951 63.158,302.027 c -0.46,-1.918 0.822,-3.838 2.743,-4.248 1.915,-0.412 3.834,0.822 4.295,2.786 4.289,20.147 11.873,39.107 21.929,56.332 10.413,17.544 23.481,33.352 38.834,46.692 z m 291.382,-50.941 c 0.915,-1.735 3.11,-2.374 4.848,-1.417 1.729,1.007 2.374,3.199 1.368,4.937 -7.039,12.7 -15.443,24.578 -25.035,35.358 -9.596,10.783 -20.375,20.561 -32.255,29.059 -1.552,1.188 -3.841,0.821 -5.024,-0.823 -1.099,-1.599 -0.73,-3.838 0.822,-5.025 11.325,-8.131 21.744,-17.543 31.064,-28.005 9.228,-10.417 17.357,-21.839 24.212,-34.084 z M 446.099,260.5 c 0,-1.964 1.552,-3.609 3.564,-3.609 2.012,0 3.657,1.646 3.657,3.609 0,9.96 -0.736,19.781 -2.197,29.33 -1.46,9.777 -3.656,19.325 -6.484,28.6 -0.546,1.874 -2.559,2.971 -4.479,2.375 -1.922,-0.593 -3.014,-2.603 -2.375,-4.522 2.742,-8.862 4.748,-18.046 6.215,-27.503 1.369,-9.183 2.099,-18.64 2.099,-28.28 z m -189.327,4.843 c -10.412,0 -19.825,4.248 -26.678,11.057 -6.762,6.807 -10.964,16.264 -10.964,26.634 0,11.649 4.479,28.463 13.069,40.799 6.209,8.999 14.431,15.533 24.573,15.533 10.142,0 18.463,-6.534 24.672,-15.533 8.499,-12.336 13.069,-29.149 13.069,-40.799 0,-10.37 -4.295,-19.827 -11.057,-26.634 -6.852,-6.809 -16.265,-11.057 -26.684,-11.057 z"
   style="clip-rule:evenodd;fill:#999999;fill-opacity:1;fill-rule:evenodd"
   id="path2"
   sodipodi:nodetypes="ccccccccccsssssssssssssscccccccccccccccccccccccccccccccccccccccccccccccccccccccccccccccccccccccccccccccccccccccccccccccccccccccccccccccccccccccccccccccssssssssssssssscscscscsccccccccccscscscscsccccccccccsssssssssssssscccccccccccccccccccccccccccccccccccccccccccccccccccccccccccccccccccccccccccccccccccccccccccccccccccccccccccccccccccccccccccccccccccccccscccccscccsccccccccccccccccccccccccccccccccccccccccccccccccccccccccccccccccccccccccccccccccccccccccccccccccccccccccccccccccccccccccccccccccccccccccccccccccccccccccccccccccccccscccccscccccccccccccccccsssccccccccccccccccccccssscccccsscscscscs" />

<path
   d="m 172.259,404.77601 c 1.822,0.95999 2.466,3.244 1.46,5.026 -0.915,1.827 -3.197,2.512 -5.025,1.507 -28.966,-15.76101 -53.178,-39.106 -69.989997,-67.433 -16.267,-27.32 -25.586,-59.254 -25.586,-93.336 l 0.091,-5.758 0.092,-1.233 c 1.92838,-11.67608 35.899037,-4.79484 34.807997,6.989 0,29.148 8.498,56.331 23.02099,79.22 14.99,23.619 36.551,42.717 62.137,54.73 1.829,0.869 2.65,3.107 1.736,4.935 -0.821,1.874 -3.11,2.696 -4.939,1.828 -26.862,-12.608 -49.521,-32.665 -65.23499,-57.52 -15.352,-24.029 -24.218,-52.584 -24.218,-83.194 0,-1.462 0,-2.925 0.092,-4.433 -6.668997,-0.366 -13.338997,-0.913 -20.007997,-1.644 l -0.092,0.501 v 5.57499 c 0,32.71101 8.958,63.36701 24.487997,89.544 16.18,27.143 39.38499,49.574 67.16799,64.696 z M 438.791,243.457 l 0.092,1.279 0.093,5.804 c 0,34.127 -9.413,66.062 -25.587,93.382 -16.904,28.28 -41.115,51.672 -70.083,67.433 -1.829,0.959 -4.11,0.319 -5.116,-1.507 -0.914,-1.782 -0.277,-4.067 1.552,-5.072 27.776,-15.076 50.988,-37.508 67.163,-64.646 15.621,-26.224 24.572,-56.833 24.572,-89.59 l -0.085,-5.575 v -0.593 c -6.677,0.73 -13.438,1.325 -20.107,1.689 l 0.092,4.479 c 0,30.61 -8.859,59.165 -24.119,83.24 -15.806,24.809 -38.472,44.865 -65.335,57.474 -1.828,0.868 -4.11,0.046 -4.932,-1.783 20.46947,-15.02234 50.69306,-39.39604 63.867,-59.709 14.621,-22.89 23.027,-50.072 23.027,-79.22 l -0.093,-4.113 c 20.84134,-25.43927 35.091,-1.693 34.999,-2.97199 z M 180.389,107.679 c -1.829,0.868 -4.019,0.13801 -4.841,-1.644 -0.914,-1.783 -0.185,-3.929 1.552,-4.843 12.063,-6.031 24.942,-10.691995 38.373,-13.843995 C 228.451,84.242 242.066,82.642 256.042,82.642 c 13.163,0 26.133,1.462 38.563,4.248005 12.787,2.879 25.127,7.082995 36.638,12.564995 1.829,0.822 2.559,2.969 1.735,4.797 -0.821,1.783 -3.012,2.559 -4.84,1.691 -11.057,-5.209 -22.844,-9.274 -35.092,-12.016 -11.871,-2.649995 -24.211,-4.066995 -37.005,-4.066995 -13.431,0 -26.494,1.554 -38.925,4.476995 -12.878,3.063 -25.217,7.54 -36.727,13.342 z M 305.295,76.932 c -1.922,-0.549 -3.104,-2.513 -2.559,-4.431 0.453,-1.92 2.467,-3.062 4.387,-2.559 5.664,1.508 11.326,3.289 16.721,5.253 l 0.092,0.048 c 5.479,2.009 10.872,4.293 16.082,6.761 1.828,0.822 2.65,3.015 1.736,4.797005 -0.822,1.781 -3.02,2.559 -4.756,1.735 C 331.973,86.161 326.769,83.968 321.56,82.05 l -0.184,-0.046 c -5.302,-1.92 -10.688,-3.609 -16.081,-5.072 z m -100.879,0.593 c -1.914,0.549 -3.927,-0.593 -4.473,-2.467 -0.46,-1.918 0.638,-3.928 2.559,-4.477 8.591,-2.421 17.45,-4.248 26.402,-5.481 8.958,-1.233 18.002,-1.873 27.138,-1.873 1.921,0 3.565,1.644 3.565,3.608 0,2.011 -1.645,3.609 -3.565,3.609 -8.952,0 -17.634,0.641 -26.131,1.783 -8.676,1.188 -17.175,2.968 -25.495,5.298 z m -73.45699,326.064 c 1.46,1.32601 1.64499,3.609 0.26999,5.11701 -1.277,1.46199 -3.565,1.64499 -5.11799,0.32 -15.80601,-13.84301 -29.421007,-30.246 -40.202007,-48.52 -10.51,-17.863 -18.272,-37.555 -22.751,-58.479 -0.46,-1.918 0.822,-3.838 2.743,-4.248 1.915,-0.412 3.834,0.822 4.295,2.786 4.289,20.147 11.873,39.107 21.929,56.332 10.412997,17.544 23.480997,33.352 38.834007,46.69199 z M 422.341,352.64801 c 0.915,-1.735 3.11,-2.37401 4.848,-1.417 1.729,1.007 2.374,3.199 1.368,4.937 -7.039,12.7 -15.443,24.578 -25.035,35.358 -9.596,10.783 -20.375,20.561 -32.255,29.059 -1.552,1.188 -3.841,0.821 -5.024,-0.823 -1.099,-1.599 -0.73,-3.838 0.822,-5.025 11.325,-8.131 21.744,-17.543 31.064,-28.005 9.228,-10.417 17.357,-21.839 24.212,-34.084 z M 446.099,260.5 c 0,-1.964 1.552,-3.60899 3.564,-3.60899 2.012,0 3.657,1.646 3.657,3.60899 0,9.96 -0.736,19.781 -2.197,29.33 -1.46,9.777 -3.656,19.325 -6.484,28.6 -0.546,1.87401 -2.559,2.97101 -4.479,2.375 -1.922,-0.593 -3.014,-2.603 -2.375,-4.52199 2.742,-8.86201 4.748,-18.046 6.215,-27.503 1.369,-9.183 2.099,-18.64 2.099,-28.28001 z"
   style="clip-rule:evenodd;fill:#7ed321;fill-opacity:1;fill-rule:evenodd;stroke-width:1"
   id="path2-0"
   sodipodi:nodetypes="sccccccccccccscccscsscccccccccccccccccccccccccscccccscccccccccccccccccsssccccccccccccccccccccssscccccs" /><path
   d="m 285.286,377.092 -4.296,-3.976 -20.192,27.503 6.577,6.077 z m -41.576,31.203 7.583,-7.584 -20.192,-27.595 -4.479,4.066 z m 48.43,37.873 c -1.921,0 -3.564,-1.599 -3.564,-3.608 0,-2.009 1.644,-3.609 3.564,-3.609 h 19.187 c 2.006,0 3.65,1.6 3.65,3.609 0,2.009 -1.645,3.608 -3.65,3.608 z m 0,-11.969 c -1.921,0 -3.564,-1.645 -3.564,-3.655 0,-1.965 1.644,-3.609 3.564,-3.609 h 19.187 c 2.006,0 3.65,1.645 3.65,3.609 0,2.011 -1.645,3.655 -3.65,3.655 z M 244.9,417.157 c -0.092,0.093 -0.276,0.184 -0.46,0.275 v 0.045 h -0.092 v 0 l -0.092,0.046 v 0 0 l -0.092,0.046 -0.092,0.046 h -0.085 v 0.046 h -0.093 v 0 l -0.091,0.045 v 0 0 h -0.092 v 0 l -0.093,0.047 v 0 h -0.091 v 0 h -0.092 v 0 l -0.092,0.044 v 0 h -0.092 v 0 h -0.086 v 0 h -0.092 v 0 h -0.092 v 0.046 h -0.092 -0.092 -0.092 l -0.092,-0.046 h -0.092 -0.092 -0.085 v 0 h -0.093 v -0.044 h -0.091 v 0 0 h -0.092 v 0 l -0.092,-0.047 v 0 h -0.092 l -0.092,-0.045 v 0 H 241.7 v 0 l -0.177,-0.092 h -0.093 l -0.092,-0.092 h -0.091 v 0 -0.045 h -0.093 v -0.046 h -0.092 v 0 -0.046 l -0.184,-0.091 v 0 l -0.091,-0.047 -0.178,-0.09 v -0.047 -0.045 h -0.092 v -0.046 l -0.092,-0.046 v 0 -0.046 h -0.092 v -0.046 -0.045 l -0.092,-0.046 v 0 -0.046 -0.046 h -0.092 v -0.045 0 l -0.092,-0.047 v 0 l -0.092,-0.137 v -0.045 l -0.177,-0.184 v 0 -0.091 l -0.093,-0.184 -0.091,-0.13699 -18.825,-34.402 c -7.308,4.06699 -13.616,7.44699 -19.002,10.32699 -12.978,6.94301 -19.739,10.55301 -22.936,15.624 -3.38,5.48201 -3.196,14.02501 -3.019,31.844 l 0.185,15.396 c 26.684,5.984 53.362,8.908 80.04,8.86301 26.593,-0.047 53.363,-3.061 80.042,-8.86301 l 0.092,-14.98499 c 0.276,-17.954 0.369,-26.589 -3.104,-32.209 -3.197,-5.116 -10.052,-8.816 -23.205,-15.89801 -5.395,-2.83299 -11.611,-6.21399 -18.643,-10.188 l -19.923,32.71101 c -0.184,0.275 -0.361,0.54899 -0.546,0.77699 -1.367,1.46201 -3.656,1.55401 -5.117,0.18301 l -9.504,-8.86301 -10.78,10.69101 v 0.045 h -0.093 v 0.046 0.046 h -0.091 v 0.046 0 l -0.092,0.046 v 0 l -0.093,0.045 v 0 0.047 z M 427.459,217.371 c -2.008,0 -3.65,-1.598 -3.65,-3.607 0,-1.966 1.643,-3.609 3.65,-3.609 h 19.186 c 1.92,0 3.564,1.644 3.564,3.609 0,2.009 -1.645,3.607 -3.564,3.607 z m 0,12.015 c -2.008,0 -3.65,-1.598 -3.65,-3.607 0,-2.012 1.643,-3.609 3.65,-3.609 h 19.186 c 1.92,0 3.564,1.598 3.564,3.609 0,2.009 -1.645,3.607 -3.564,3.607 z M 392.098,48.561994 c -10.419,0 -19.917,4.202 -26.678,11.009 -6.854,6.854 -11.057,16.266 -11.057,26.682002 0,11.65 4.564,28.462004 13.063,40.798004 6.215,9 14.529,15.532 24.672,15.532 10.05,0 18.363,-6.532 24.58,-15.532 8.498,-12.336 13.063,-29.148004 13.063,-40.798004 0,-10.416002 -4.203,-19.827002 -11.05,-26.634002 -6.855,-6.809 -16.267,-11.057 -26.593,-11.057 z M 420.604,160.31 l -4.381,-3.975 -20.106,27.503 6.491,6.077 z m -41.662,31.157 7.584,-7.537 -20.192,-27.595 -4.387,4.021 z M 121.547,48.561994 c -10.419,0 -19.831,4.248 -26.686,11.057 -6.761,6.807 -11.057,16.218 -11.057,26.634002 0,11.65 4.571,28.462004 13.07,40.798004 6.215,9 14.529,15.532 24.672,15.532 10.05,0 18.364,-6.532 24.58,-15.532 8.584,-12.336 13.063,-29.148004 13.063,-40.798004 0,-10.416002 -4.202,-19.827002 -11.057,-26.634002 -6.761,-6.809 -16.265,-11.057 -26.585,-11.057 z M 150.053,160.31 l -4.387,-3.975 -20.101,27.503 6.485,6.077 z m -41.668,31.157 7.675,-7.537 -20.285,-27.595 -4.387,4.021 z m 48.522,25.904 c -2.012,0 -3.657,-1.598 -3.657,-3.607 0,-1.966 1.645,-3.609 3.657,-3.609 h 19.187 c 1.921,0 3.565,1.644 3.565,3.609 0,2.009 -1.645,3.607 -3.565,3.607 z m 0,12.015 c -2.012,0 -3.657,-1.598 -3.657,-3.607 0,-2.012 1.645,-3.609 3.657,-3.609 h 19.187 c 1.921,0 3.565,1.598 3.565,3.609 0,2.009 -1.645,3.607 -3.565,3.607 z m -116.138,8.407 -0.178,-15.442 c -0.276,-17.772 -0.369,-26.314 3.013,-31.843 3.104,-5.024 9.866,-8.634 22.844,-15.58 5.393,-2.877 11.786,-6.257 19.001,-10.37 l 18.824,34.447 0.093,0.137 0.092,0.183 0.091,0.046 v 0 l 0.185,0.229 v 0.044 l 0.085,0.093 v 0 0.044 0.045 l 0.092,0.046 v 0 0.046 0.045 h 0.091 v 0.046 0 l 0.093,0.046 v 0.046 l 0.092,0.045 v 0 0.046 h 0.091 v 0.046 l 0.093,0.045 v 0 l 0.184,0.092 v 0.046 0.045 l 0.17799,0.092 h 0.092 v 0.045 0 l 0.091,0.046 v 0 0 l 0.093,0.044 v 0 l 0.184,0.093 v 0 l 0.276,0.044 v 0.048 h 0.086 v 0 l 0.091,0.044 v 0 0 l 0.093,0.045 v 0 h 0.091 v 0 h 0.092 v 0 l 0.093,0.046 v 0 h 0.091 v 0 h 0.18501 v 0 h 0.177 v 0 h 0.184 0.091 v 0 0 h 0.092 v 0 h 0.093 v 0 h 0.091 v 0 l 0.092,-0.046 v 0 h 0.085 v 0 h 0.092 v 0 l 0.092,-0.045 v 0 h 0.092 v 0 -0.044 h 0.092 v 0 h 0.092 v -0.048 h 0.092 v 0 l 0.184,-0.044 v -0.045 0 l 0.092,-0.048 v 0 h 0.085 v -0.044 h 0.092 c 0.093,-0.091 0.276,-0.183 0.46,-0.274 v -0.046 0 l 0.092,-0.046 v 0 l 0.092,-0.045 v 0 -0.046 0 l 0.086,-0.046 v -0.045 l 0.091,-0.046 v 0 -0.046 l 0.093,-0.046 10.69499,-10.645 9.59,8.864 c 1.46,1.369 3.657,1.279 5.025,-0.183 0.276,-0.229 0.461,-0.503 0.553,-0.778 l 19.917,-32.71 c 7.038,3.976 13.339,7.356 18.64,10.189 13.247,7.081 20.101,10.782 23.298,15.897 3.38,5.619 3.289,14.254 3.11,32.209 l -0.184,14.984 c -27.83425,10.89438 -69.32423,29.12044 -159.98999,0.003 z m 270.557,0.001 -0.184,-15.442 c -0.277,-17.772 -0.369,-26.314 3.012,-31.843 3.111,-5.024 9.873,-8.634 22.844,-15.58 5.393,-2.877 11.787,-6.257 19.009,-10.37 l 18.825,34.447 0.085,0.137 0.093,0.183 v 0 l 0.092,0.046 v 0 0.091 0 l 0.092,0.046 v 0.044 0 0.048 l 0.092,0.044 0.092,0.093 v 0 0.044 0.045 l 0.093,0.046 v 0 0.046 l 0.093,0.045 v 0 0.046 h 0.092 v 0.046 0.046 l 0.086,0.045 v 0 0.046 h 0.091 v 0.046 0.045 h 0.093 l 0.092,0.092 0.092,0.046 v 0.045 l 0.184,0.092 h 0.093 v 0.045 0 l 0.093,0.046 v 0 0 l 0.092,0.044 v 0 l 0.177,0.093 v 0 l 0.185,0.044 0.092,0.048 v 0 h 0.093 l 0.091,0.044 v 0 h 0.094 v 0.045 0 h 0.092 v 0 h 0.085 v 0 l 0.093,0.046 v 0 h 0.092 v 0 h 0.184 v 0 h 0.185 v 0 h 0.185 0.086 v 0 0 h 0.091 v 0 h 0.093 v 0 h 0.092 v 0 l 0.092,-0.046 v 0 0 h 0.093 0.091 v 0 -0.045 h 0.093 v 0 h 0.093 v -0.044 h 0.085 v 0 h 0.093 v -0.048 h 0.092 v 0 l 0.092,-0.044 0.092,-0.045 v 0 l 0.092,-0.048 v 0 h 0.093 v -0.044 h 0.092 l 0.093,-0.046 0.177,-0.137 v 0 l 0.093,-0.045 0.092,-0.046 v -0.046 0 l 0.092,-0.046 v 0 -0.045 h 0.093 v -0.046 0 l 0.091,-0.046 v -0.045 l 0.093,-0.046 v 0 -0.046 l 0.093,-0.046 10.688,-10.64501 9.598,8.864 c 1.367,1.36901 3.65,1.279 5.024,-0.18299 0.269,-0.22901 0.454,-0.503 0.546,-0.77801 L 426.464,164.512 c 7.038,3.976 13.346,7.356 18.641,10.189 13.254,7.08099 20.102,10.78199 23.305,15.89699 3.381,5.61901 3.289,14.254 3.012,32.209 -6.09622,35.68172 -134.13714,37.24549 -160.096,14.98701 z m -54.554,27.549 c -10.412,0 -19.825,4.248 -26.678,11.057 -6.762,6.807 -10.964,16.264 -10.964,26.634 0,11.649 4.479,28.463 13.069,40.799 6.209,8.999 14.431,15.533 24.573,15.533 10.142,0 18.463,-6.534 24.672,-15.533 8.499,-12.336 13.069,-29.149 13.069,-40.799 0,-10.37 -4.295,-19.827 -11.057,-26.634 -6.852,-6.809 -16.265,-11.057 -26.684,-11.057 z"
   style="clip-rule:evenodd;fill:#999999;fill-opacity:1;fill-rule:evenodd;stroke-width:1"
   id="path2-6"
   sodipodi:nodetypes="ccccccccccsssssssssssssscccccccccccccccccccccccccccccccccccccccccccccccccccccccccccccccccccccccccccccccccccccccccccccccccccccccccccccccccccccccccccccccssssssssssssssscscscscsccccccccccscscscscsccccccccccsssssssssssssscccccccccccccccccccccccccccccccccccccccccccccccccccccccccccccccccccccccccccccccccccccccccccccccccccccccccccccccccccccccccccccccccccccccccccccccccccccccccccccccccccccccccccccccccccccccccccccccccccccccccccccccccccccccccccccccccccccccccccccccccccccccccccccccccccccccscscscscs" /><path
   d="m 285.28601,377.09199 -4.296,-3.976 -20.192,27.503 6.577,6.077 z m -41.57602,31.203 7.58302,-7.584 -20.19202,-27.595 -4.479,4.06601 z m 48.43002,37.873 c -1.921,0 -3.564,-1.59899 -3.564,-3.608 0,-2.009 1.644,-3.609 3.564,-3.609 h 19.187 c 2.006,0 3.65,1.6 3.65,3.609 0,2.00901 -1.645,3.608 -3.65,3.608 z m 0,-11.969 c -1.921,0 -3.564,-1.64499 -3.564,-3.655 0,-1.965 1.644,-3.609 3.564,-3.609 h 19.187 c 2.006,0 3.65,1.645 3.65,3.609 0,2.011 -1.645,3.655 -3.65,3.655 z M 244.89999,417.157 c -0.092,0.093 -0.276,0.184 -0.46,0.27499 v 0.045 h -0.092 v 0 l -0.092,0.046 v 0 0 l -0.092,0.046 -0.092,0.046 h -0.085 v 0.046 h -0.093 v 0 l -0.091,0.045 v 0 0 h -0.092 v 0 l -0.093,0.047 v 0 h -0.091 v 0 h -0.092 v 0 l -0.092,0.044 v 0 h -0.092 v 0 h -0.086 v 0 h -0.092 v 0 h -0.092 v 0.046 h -0.092 -0.092 -0.092 l -0.092,-0.046 h -0.092 -0.092 -0.085 v 0 h -0.093 v -0.044 h -0.091 v 0 0 h -0.092 v 0 l -0.092,-0.047 v 0 h -0.092 l -0.092,-0.045 v 0 h -0.092 v 0 l -0.177,-0.092 h -0.093 l -0.092,-0.092 h -0.091 v 0 -0.045 h -0.093 v -0.046 h -0.092 v 0 -0.046 l -0.184,-0.091 v 0 l -0.091,-0.047 -0.178,-0.09 v -0.047 -0.045 h -0.092 v -0.046 l -0.092,-0.046 v 0 -0.046 h -0.092 v -0.046 -0.045 l -0.092,-0.046 v 0 -0.046 -0.046 h -0.092 v -0.045 0 l -0.092,-0.047 v 0 l -0.092,-0.137 v -0.045 l -0.177,-0.184 v 0 -0.091 l -0.093,-0.184 -0.091,-0.13698 -18.825,-34.40201 c -7.308,4.06699 -13.616,7.44699 -19.002,10.32699 -12.978,6.94302 -19.739,10.55301 -22.936,15.624 -3.38,5.48201 -3.196,14.02501 -3.019,31.844 l 0.185,15.396 c 26.684,5.984 53.362,8.908 80.04002,8.86302 26.593,-0.047 53.363,-3.06101 80.042,-8.86302 l 0.092,-14.98498 c 0.276,-17.95401 0.369,-26.58901 -3.104,-32.20901 -3.197,-5.116 -10.052,-8.816 -23.205,-15.89801 -5.395,-2.83298 -11.611,-6.21399 -18.643,-10.188 l -19.923,32.71102 c -0.184,0.27499 -0.361,0.54898 -0.546,0.77698 -1.367,1.46201 -3.656,1.55401 -5.117,0.18302 l -9.504,-8.86302 -10.78002,10.69102 v 0.045 h -0.093 v 0.046 0.046 h -0.091 v 0.046 0 l -0.092,0.046 v 0 l -0.093,0.045 v 0 0.047 z M 427.45901,217.37099 c -2.008,0 -3.65,-1.59799 -3.65,-3.607 0,-1.96599 1.643,-3.609 3.65,-3.609 h 19.186 c 1.92,0 3.564,1.644 3.564,3.609 0,2.00901 -1.645,3.607 -3.564,3.607 z m 0,12.01501 c -2.008,0 -3.65,-1.59801 -3.65,-3.60701 0,-2.012 1.643,-3.60899 3.65,-3.60899 h 19.186 c 1.92,0 3.564,1.59799 3.564,3.60899 0,2.009 -1.645,3.60701 -3.564,3.60701 z m -6.855,-69.076 -4.381,-3.97501 -20.106,27.50301 6.491,6.07699 z m -41.662,31.15699 7.584,-7.53699 -20.192,-27.59501 -4.387,4.021 z M 150.05299,160.31 l -4.387,-3.97501 -20.101,27.50301 6.485,6.07699 z m -41.668,31.15699 7.67501,-7.53699 -20.28501,-27.59501 -4.38699,4.021 z m 48.522,25.904 c -2.012,0 -3.657,-1.59799 -3.657,-3.607 0,-1.96599 1.645,-3.609 3.657,-3.609 h 19.187 c 1.921,0 3.565,1.644 3.565,3.609 0,2.00901 -1.645,3.607 -3.565,3.607 z m 0,12.01501 c -2.012,0 -3.657,-1.59801 -3.657,-3.60701 0,-2.012 1.645,-3.60899 3.657,-3.60899 h 19.187 c 1.921,0 3.565,1.59799 3.565,3.60899 0,2.009 -1.645,3.60701 -3.565,3.60701 z m -116.138,8.407 -0.178,-15.44201 c -0.276,-17.772 -0.369,-26.31399 3.013,-31.843 3.104,-5.024 9.86601,-8.63399 22.84401,-15.58 5.39299,-2.877 11.786,-6.257 19.00099,-10.36999 l 18.824,34.447 0.093,0.137 0.092,0.183 0.091,0.046 v 0 l 0.185,0.229 v 0.044 l 0.085,0.093 v 0 0.044 0.045 l 0.092,0.046 v 0 0.046 0.045 h 0.091 v 0.046 0 l 0.093,0.046 v 0.046 l 0.092,0.045 v 0 0.046 h 0.091 v 0.046 l 0.093,0.045 v 0 l 0.184,0.092 v 0.046 0.045 l 0.17799,0.092 h 0.092 v 0.045 0 l 0.091,0.046 v 0 0 l 0.093,0.044 v 0 l 0.184,0.093 v 0 l 0.276,0.044 v 0.048 h 0.086 v 0 l 0.091,0.044 v 0 0 l 0.093,0.045 v 0 h 0.091 v 0 h 0.092 v 0 l 0.093,0.046 v 0 h 0.091 v 0 h 0.18501 v 0 h 0.177 v 0 h 0.184 0.091 v 0 0 h 0.092 v 0 h 0.093 v 0 h 0.091 v 0 l 0.092,-0.046 v 0 h 0.085 v 0 h 0.092 v 0 l 0.092,-0.045 v 0 h 0.092 v 0 -0.044 h 0.092 v 0 h 0.092 v -0.048 h 0.092 v 0 l 0.184,-0.044 v -0.045 0 l 0.092,-0.048 v 0 h 0.085 v -0.044 h 0.092 c 0.093,-0.091 0.276,-0.18301 0.46,-0.27401 v -0.046 0 l 0.092,-0.046 v 0 l 0.092,-0.045 v 0 -0.046 0 l 0.086,-0.046 v -0.045 l 0.091,-0.046 v 0 -0.046 l 0.093,-0.046 10.69499,-10.645 9.58999,8.864 c 1.46,1.369 3.657,1.279 5.025,-0.183 0.276,-0.229 0.46101,-0.50301 0.55301,-0.778 l 19.91699,-32.71 c 7.038,3.976 13.339,7.356 18.64,10.18899 13.247,7.08101 20.101,10.78201 23.298,15.89701 3.38,5.61899 3.289,14.254 3.11,32.209 l -0.184,14.984 c -27.83425,10.89438 -69.32423,29.12044 -159.98999,0.003 z m 270.55702,0.001 -0.184,-15.44201 c -0.277,-17.772 -0.369,-26.31399 3.012,-31.84299 3.111,-5.024 9.873,-8.634 22.844,-15.58 5.393,-2.87701 11.787,-6.25701 19.009,-10.37 l 18.825,34.447 0.085,0.137 0.093,0.183 v 0 l 0.092,0.046 v 0 0.091 0 l 0.092,0.046 v 0.044 0 0.048 l 0.092,0.044 0.092,0.093 v 0 0.044 0.045 l 0.093,0.046 v 0 0.046 l 0.093,0.045 v 0 0.046 h 0.092 v 0.046 0.046 l 0.086,0.045 v 0 0.046 h 0.091 v 0.046 0.045 h 0.093 l 0.092,0.092 0.092,0.046 v 0.045 l 0.184,0.092 h 0.093 v 0.045 0 l 0.093,0.046 v 0 0 l 0.092,0.044 v 0 l 0.177,0.093 v 0 l 0.185,0.044 0.092,0.048 v 0 h 0.093 l 0.091,0.044 v 0 h 0.094 v 0.045 0 h 0.092 v 0 h 0.085 v 0 l 0.093,0.046 v 0 h 0.092 v 0 h 0.184 v 0 h 0.185 v 0 h 0.185 0.086 v 0 0 h 0.091 v 0 h 0.093 v 0 h 0.092 v 0 l 0.092,-0.046 v 0 0 h 0.093 0.091 v 0 -0.045 h 0.093 v 0 h 0.093 v -0.044 h 0.085 v 0 h 0.093 v -0.048 h 0.092 v 0 l 0.092,-0.044 0.092,-0.045 v 0 l 0.092,-0.048 v 0 h 0.093 v -0.044 h 0.092 l 0.093,-0.046 0.177,-0.13699 v 0 l 0.093,-0.045 0.092,-0.046 v -0.046 0 l 0.092,-0.046 v 0 -0.045 h 0.093 v -0.046 0 l 0.091,-0.046 v -0.045 l 0.093,-0.046 v 0 -0.046 l 0.093,-0.046 10.688,-10.645 9.598,8.864 c 1.367,1.369 3.65,1.27899 5.024,-0.183 0.269,-0.229 0.454,-0.50299 0.546,-0.77801 l 19.916,-32.70999 c 7.038,3.976 13.346,7.356 18.641,10.18901 13.254,7.08098 20.102,10.78199 23.305,15.89698 3.381,5.61902 3.289,14.25401 3.012,32.20901 -6.0962,35.68171 -134.1372,37.24548 -160.096,14.98701 z"
   style="clip-rule:evenodd;fill:#f57c00;fill-opacity:1;fill-rule:evenodd;stroke-width:1"
   id="path2-6-5"
   sodipodi:nodetypes="ccccccccccsssssssssssssscccccccccccccccccccccccccccccccccccccccccccccccccccccccccccccccccccccccccccccccccccccccccccccccccccccccccccccccccccccccccccccccssssssssssssssccccccccccccccccccccsssssssssssssscccccccccccccccccccccccccccccccccccccccccccccccccccccccccccccccccccccccccccccccccccccccccccccccccccccccccccccccccccccccccccccccccccccccccccccccccccccccccccccccccccccccccccccccccccccccccccccccccccccccccccccccccccccccccccccccccccccccccccccccccccccccccccccccccccccccsc" /></g>

</g>

<g
   id="Layer_1" />

</svg>
