<?xml version="1.0" encoding="UTF-8" standalone="no"?>
<svg
   xmlns:dc="http://purl.org/dc/elements/1.1/"
   xmlns:cc="http://creativecommons.org/ns#"
   xmlns:rdf="http://www.w3.org/1999/02/22-rdf-syntax-ns#"
   xmlns:svg="http://www.w3.org/2000/svg"
   xmlns="http://www.w3.org/2000/svg"
   xmlns:sodipodi="http://sodipodi.sourceforge.net/DTD/sodipodi-0.dtd"
   xmlns:inkscape="http://www.inkscape.org/namespaces/inkscape"
   fill="#000000"
   width="800px"
   height="800px"
   viewBox="0 0 96 96"
   id="Layer_1_1_"
   version="1.1"
   xml:space="preserve"
   sodipodi:docname="plant-enviornment.svg"
   inkscape:version="1.0.1 (3bc2e813f5, 2020-09-07)"
   inkscape:export-filename="C:\Users\keega\Documents\cannlytics\cannlytics\app\assets\images\icons\plant-enviornment.png"
   inkscape:export-xdpi="96"
   inkscape:export-ydpi="96"><metadata
     id="metadata21"><rdf:RDF><cc:Work
         rdf:about=""><dc:format>image/svg+xml</dc:format><dc:type
           rdf:resource="http://purl.org/dc/dcmitype/StillImage" /></cc:Work></rdf:RDF></metadata><defs
     id="defs19" /><sodipodi:namedview
     pagecolor="#ffffff"
     bordercolor="#666666"
     borderopacity="1"
     objecttolerance="10"
     gridtolerance="10"
     guidetolerance="10"
     inkscape:pageopacity="0"
     inkscape:pageshadow="2"
     inkscape:window-width="1920"
     inkscape:window-height="1094"
     id="namedview17"
     showgrid="false"
     inkscape:zoom="0.470625"
     inkscape:cx="254.37719"
     inkscape:cy="161.22239"
     inkscape:window-x="-11"
     inkscape:window-y="-11"
     inkscape:window-maximized="1"
     inkscape:current-layer="Layer_1_1_" /><path
     d="M48.05,81H47.95C47.435,73.737,41.394,68,34,68c0,7.394,5.737,13.435,13,13.95V94h2V81.95c7.263-0.515,13-6.555,13-13.95  C54.606,68,48.565,73.737,48.05,81z"
     id="path2"
     style="fill:#7ed321;fill-opacity:1" /><path
     d="M17.05,86H16.95C16.435,78.737,10.394,73,3,73c0,7.394,5.737,13.435,13,13.95V94h2v-7.05c7.263-0.515,13-6.555,13-13.95  C23.606,73,17.565,78.737,17.05,86z"
     id="path4"
     style="fill:#7ed321;fill-opacity:1" /><path
     d="M80,94v-7.05c7.263-0.515,13-6.555,13-13.95c-7.394,0-13.435,5.737-13.95,13H78.95C78.435,78.737,72.394,73,65,73  c0,7.394,5.737,13.435,13,13.95V94H80z"
     id="path6"
     style="fill:#7ed321;fill-opacity:1" /><path
     d="M78,40c2.209,0,4-1.791,4-4c0-1.862-1.278-3.413-3-3.859V16h-2v16.141c-1.722,0.446-3,1.997-3,3.859  C74,38.209,75.791,40,78,40z"
     id="path8"
     style="fill:#f57c00;fill-opacity:1" /><path
     d="M57,16h8c1.104,0,2,0.896,2,2v30h27V2H57V16z M74,29.079V8h8v21.079c2.389,1.384,4,3.962,4,6.921c0,4.418-3.582,8-8,8  s-8-3.582-8-8C70,33.041,71.611,30.463,74,29.079z"
     id="path10"
     style="fill:#999999;fill-opacity:1" /><path
     d="M29,18c0-1.104,0.896-2,2-2h8V2H2v46h27V18z M11.224,38c-2.177,0-3.504-2.394-2.35-4.24l2.35-3.76l2.35,3.76  C14.728,35.606,13.401,38,11.224,38z M21.776,33c-2.177,0-3.504-2.394-2.35-4.24l2.35-3.76l2.35,3.76  C25.279,30.606,23.952,33,21.776,33z M25,20H11c-2.209,0-4-1.791-4-4c0-2.209,1.791-4,4-4c0.353,0,0.689,0.06,1.015,0.146  C12.013,12.096,12,12.05,12,12c0-2.761,2.239-5,5-5s5,2.239,5,5c0,0.047-0.013,0.091-0.014,0.137  c1.071,0.273,1.959,0.975,2.488,1.916C24.645,14.023,24.82,14,25,14c1.657,0,3,1.343,3,3S26.657,20,25,20z"
     id="path12"
     style="fill:#999999;fill-opacity:1" /><path
     d="M31,60h34V18H31V60z M39,56h-2v-2h2V56z M49,56h-2v-2h2V56z M59,56h-2v-2h2V56z M55,28h6v21h-6V28z M45,37h6v12h-6V37z   M35,32h6v17h-6V32z"
     id="path14"
     style="fill:#999999;fill-opacity:1" /></svg>
