<?xml version="1.0" encoding="UTF-8" standalone="no"?>
<svg
   xmlns:dc="http://purl.org/dc/elements/1.1/"
   xmlns:cc="http://creativecommons.org/ns#"
   xmlns:rdf="http://www.w3.org/1999/02/22-rdf-syntax-ns#"
   xmlns:svg="http://www.w3.org/2000/svg"
   xmlns="http://www.w3.org/2000/svg"
   xmlns:sodipodi="http://sodipodi.sourceforge.net/DTD/sodipodi-0.dtd"
   xmlns:inkscape="http://www.inkscape.org/namespaces/inkscape"
   width="800px"
   height="800px"
   viewBox="0 0 64 64"
   id="Layer_1"
   version="1.1"
   xml:space="preserve"
   sodipodi:docname="security.svg"
   inkscape:version="1.0.1 (3bc2e813f5, 2020-09-07)"
   inkscape:export-filename="C:\Users\keega\Documents\cannlytics\cannlytics\app\assets\images\icons\security.png"
   inkscape:export-xdpi="96"
   inkscape:export-ydpi="96"><metadata
     id="metadata21"><rdf:RDF><cc:Work
         rdf:about=""><dc:format>image/svg+xml</dc:format><dc:type
           rdf:resource="http://purl.org/dc/dcmitype/StillImage" /><dc:title></dc:title></cc:Work></rdf:RDF></metadata><defs
     id="defs19" /><sodipodi:namedview
     pagecolor="#ffffff"
     bordercolor="#666666"
     borderopacity="1"
     objecttolerance="10"
     gridtolerance="10"
     guidetolerance="10"
     inkscape:pageopacity="0"
     inkscape:pageshadow="2"
     inkscape:window-width="1920"
     inkscape:window-height="1094"
     id="namedview17"
     showgrid="false"
     inkscape:zoom="0.94125"
     inkscape:cx="400"
     inkscape:cy="400"
     inkscape:window-x="-11"
     inkscape:window-y="-11"
     inkscape:window-maximized="1"
     inkscape:current-layer="Layer_1" /><style
     type="text/css"
     id="style2">
	.st0{fill:none;stroke:#126BB5;stroke-width:2;stroke-linecap:round;stroke-linejoin:round;stroke-miterlimit:10;}
	.st1{fill:none;stroke:#00B1E4;stroke-width:2;stroke-linecap:round;stroke-linejoin:round;stroke-miterlimit:10;}
	.st2{fill:none;stroke:#00B1E4;stroke-width:2;stroke-linejoin:round;stroke-miterlimit:10;}
	.st3{fill:#FFFFFF;stroke:#00B1E4;stroke-width:2;stroke-linecap:round;stroke-linejoin:round;stroke-miterlimit:10;}
	.st4{fill:#00B1E4;}
	.st5{fill:none;stroke:#126BB5;stroke-width:2;stroke-miterlimit:10;}
	.st6{fill:none;stroke:#00B1E4;stroke-width:2;stroke-miterlimit:10;}
	.st7{fill:none;stroke:#2B3088;stroke-width:2;stroke-linejoin:round;stroke-miterlimit:10;}
	.st8{fill:none;stroke:#126BB5;stroke-width:2;stroke-linecap:round;stroke-miterlimit:10;}
	.st9{fill:none;stroke:#00B1E4;stroke-width:2;stroke-linecap:round;stroke-miterlimit:10;}
</style><path
     class="st0"
     d="M39,27v8c0,1.1-0.9,2-2,2H18c-1.1,0-2-0.9-2-2v-3h9l7-5H39z"
     id="path4"
     style="stroke:#2e3a58;stroke-opacity:1" /><polyline
     class="st0"
     points="25,37 25,46 18,49 "
     id="polyline6"
     style="stroke:#2e3a58;stroke-opacity:1" /><path
     class="st0"
     d="M15,52h-1.5c-0.9,0-1.5-0.7-1.5-1.5v-2.9c0-0.9,0.7-1.5,1.5-1.5H15c1.7,0,3,1.3,3,3v0C18,50.7,16.7,52,15,52z"
     id="path8"
     style="stroke:#2e3a58;stroke-opacity:1" /><path
     class="st1"
     d="M49.4,21.9l-2.8,4.2c-0.4,0.6-1,0.9-1.7,0.9H32l-6.4,4.5c-0.4,0.3-0.9,0.5-1.5,0.5h-9.7c-1.4,0-2.5-1.1-2.5-2.5  v-9c0-1.4,1.1-2.5,2.5-2.5h32.8C49.3,18,50.5,20.2,49.4,21.9z"
     id="path10"
     style="stroke:#f57c00;stroke-opacity:1" /><circle
     class="st4"
     cx="25"
     cy="46"
     r="3"
     id="circle12"
     style="fill:#f57c00;fill-opacity:1" /><path
     class="st0"
     d="M41.5,33.5H39v-3h2.5c0.8,0,1.5,0.7,1.5,1.5v0C43,32.8,42.3,33.5,41.5,33.5z"
     id="path14"
     style="stroke:#2e3a58;stroke-opacity:1" /></svg>
