<?xml version="1.0" encoding="utf-8"?>
<!-- Uploaded to: SVG Repo, www.svgrepo.com, Generator: SVG Repo Mixer Tools -->
<svg width="800px" height="800px" viewBox="0 0 1024 1024" class="icon"  version="1.1" xmlns="http://www.w3.org/2000/svg"><path d="M818.176 448c5.632-33.792-22.016-49.152-40.448-59.904-5.12-3.072-9.728-5.632-12.288-7.68-6.144-5.632-2.56-26.624 2.048-39.424l0.512-1.024v-1.024c1.536-60.928-11.264-102.4-37.888-122.88s-57.344-11.776-58.368-11.264c-5.12 1.536-20.992 4.608-28.672-2.56-6.656-6.144-7.68-19.456-2.56-38.912 19.968-79.872-84.48-136.704-95.744-142.848 0 0-0.512 0-0.512-0.512l-0.512 1.024c-12.8 7.68-115.2 70.656-96.256 142.336 5.12 18.944 4.096 32.256-2.56 38.4-7.68 7.168-23.552 4.608-29.184 2.56-1.024-0.512-31.744-9.216-58.368 11.264s-39.424 61.952-37.888 122.88v1.024l0.512 1.024c4.608 12.8 8.192 33.792 2.048 39.424-2.56 2.048-7.168 5.12-12.288 7.68-18.432 10.24-46.08 26.112-40.448 59.904 6.144 36.352 29.696 89.6 32.768 96.768 1.024 4.096 6.656 33.28-7.168 55.296-9.728 15.872-19.968 52.224-7.168 86.528 7.168 18.944 24.576 44.544 65.536 57.344 5.632 4.096 36.864 27.648 49.664 62.976 23.552 64.512 70.656 100.352 143.872 108.544l0.512-4.096c0 28.672-0.512 57.344-1.024 85.504 0 8.192 12.8 8.192 12.8 0 0.512-27.648 0.512-55.296 1.024-82.432 84.48-23.04 111.616-69.632 125.44-107.52 12.8-34.816 44.032-58.88 49.664-62.976 41.472-13.312 58.368-38.4 65.536-57.344 12.8-34.304 3.072-70.656-7.168-86.528-13.824-22.016-7.68-51.2-7.168-55.296 2.048-6.144 25.6-59.904 31.744-96.256zM675.84 219.136s24.064-7.168 44.544 8.704c22.016 16.896 33.28 54.784 32.256 109.056-2.048 6.144-6.656 22.528-5.12 36.352-19.456 37.376-39.424 73.728-72.704 100.864-34.304 27.648-75.264 41.472-117.76 51.2-1.024-59.904-2.048-119.296-2.56-179.2 0.512 0 0.512 0 1.024-0.512 11.264-7.68 22.528-14.848 31.744-25.088 8.704-10.24 15.872-21.504 23.552-32.256 14.848-20.992 30.208-41.984 38.912-66.56 12.8 2.048 25.6-2.048 26.112-2.56z m-51.2-59.392c-6.144 25.6-3.584 43.52 7.168 53.76 1.536 1.536 3.072 2.56 4.608 3.584-7.68 22.016-21.504 41.472-34.816 60.416-7.68 10.752-14.848 22.528-23.552 32.256-7.168 8.192-15.872 14.848-25.088 20.992-0.512-28.16-1.024-56.32-1.024-84.48-1.024-68.096-1.536-135.68-1.536-203.776 29.696 18.432 87.552 62.976 74.24 117.248z m-163.328 0c-12.8-49.152 49.152-97.792 76.8-117.248 0 93.696 1.024 187.392 2.56 281.088-20.992-5.632-40.448-28.16-53.76-43.52-16.384-18.944-26.112-43.008-32.768-66.56 11.776-10.752 13.824-28.672 7.168-53.76z m-95.744 68.608c20.48-15.872 43.52-9.216 44.544-9.216 1.024 0.512 17.92 5.632 32.768 0.512 7.68 26.624 18.944 51.712 37.888 72.704 16.384 17.92 35.328 39.424 59.904 44.544 1.024 59.392 2.048 119.296 2.56 178.688h-0.512c-45.056 8.192-86.016-15.36-121.856-39.936-19.456-13.312-35.328-27.648-48.64-46.592-12.288-17.408-23.552-35.84-33.792-54.272 2.048-14.336-3.072-31.744-5.12-37.888-0.512-54.272 10.24-91.648 32.256-108.544zM283.136 445.44c-3.584-20.992 11.776-31.744 32.768-43.52 6.144-3.584 11.264-6.656 15.36-9.728l1.536-1.536c10.752 18.432 21.504 36.352 34.304 53.248 14.336 18.944 31.744 33.28 51.712 46.592 37.376 25.088 79.36 46.592 124.928 38.912 1.024 59.392 1.536 119.296 2.048 178.688-96.256-3.584-175.104-66.56-227.84-143.36 0-12.8-2.56-22.528-2.56-23.552l-0.512-1.024c0-1.536-25.088-58.368-31.744-94.72z m133.12 356.352c-15.872-43.008-54.784-69.632-56.32-70.656l-1.024-0.512-1.024-0.512c-29.184-8.704-48.128-25.088-56.832-48.64-10.752-29.184-2.048-60.416 5.632-73.216 5.12-8.192 7.68-16.896 9.728-25.088 54.784 74.752 134.144 133.12 229.888 136.704 0 21.504 0.512 43.52 0.512 65.024v114.688c-66.56-7.168-109.056-39.424-130.56-97.792z m368.64-120.32c-8.704 23.04-27.648 39.424-56.832 48.64l-1.024 0.512-1.024 0.512c-1.536 1.024-40.448 27.648-56.32 70.656-12.288 33.792-36.352 75.264-110.592 96.768 0.512-49.664 0.512-99.328 0-148.992 45.568-13.312 90.624-34.304 131.584-57.344 20.48-11.776 36.352-27.136 51.712-45.056 12.288-14.336 24.064-28.672 33.792-44.544 1.024 2.048 2.048 3.584 3.072 5.632 8.192 13.312 16.896 44.544 5.632 73.216z m-13.824-142.336l-0.512 1.024c-0.512 1.024-5.632 23.04 0 46.08-10.24 20.48-25.088 37.888-39.936 55.296-14.848 16.896-30.72 30.72-50.176 41.472-38.4 20.992-79.36 39.936-121.344 52.736-0.512-66.048-1.024-132.096-2.048-197.632h0.512c44.032-9.728 86.528-24.064 122.368-52.224 32.768-25.6 53.76-59.904 72.704-96.256 0.512 0.512 1.024 1.536 2.048 2.048 3.584 3.584 9.216 6.656 15.36 9.728 20.48 11.776 36.352 22.528 32.768 43.52-6.144 36.864-31.232 93.696-31.744 94.208z" fill="#66A771" /></svg>