<?xml version="1.0" encoding="UTF-8" standalone="no"?>
<svg
   xmlns:dc="http://purl.org/dc/elements/1.1/"
   xmlns:cc="http://creativecommons.org/ns#"
   xmlns:rdf="http://www.w3.org/1999/02/22-rdf-syntax-ns#"
   xmlns:svg="http://www.w3.org/2000/svg"
   xmlns="http://www.w3.org/2000/svg"
   xmlns:sodipodi="http://sodipodi.sourceforge.net/DTD/sodipodi-0.dtd"
   xmlns:inkscape="http://www.inkscape.org/namespaces/inkscape"
   fill="#000000"
   width="800px"
   height="800px"
   viewBox="0 0 96 96"
   id="Layer_1_1_"
   version="1.1"
   xml:space="preserve"
   sodipodi:docname="water.svg"
   inkscape:version="1.0.1 (3bc2e813f5, 2020-09-07)"
   inkscape:export-filename="C:\Users\keega\Documents\cannlytics\cannlytics\app\assets\images\icons\water.png"
   inkscape:export-xdpi="96"
   inkscape:export-ydpi="96"><metadata
     id="metadata35"><rdf:RDF><cc:Work
         rdf:about=""><dc:format>image/svg+xml</dc:format><dc:type
           rdf:resource="http://purl.org/dc/dcmitype/StillImage" /></cc:Work></rdf:RDF></metadata><defs
     id="defs33" /><sodipodi:namedview
     pagecolor="#ffffff"
     bordercolor="#666666"
     borderopacity="1"
     objecttolerance="10"
     gridtolerance="10"
     guidetolerance="10"
     inkscape:pageopacity="0"
     inkscape:pageshadow="2"
     inkscape:window-width="1920"
     inkscape:window-height="1094"
     id="namedview31"
     showgrid="false"
     inkscape:zoom="0.66556426"
     inkscape:cx="133.14966"
     inkscape:cy="400.13039"
     inkscape:window-x="-11"
     inkscape:window-y="-11"
     inkscape:window-maximized="1"
     inkscape:current-layer="Layer_1_1_" /><circle
     cx="84"
     cy="12"
     r="5"
     id="circle2"
     style="fill:#f57c00;fill-opacity:1" /><rect
     height="3"
     width="2"
     x="83"
     y="2"
     id="rect4"
     style="fill:#f57c00;fill-opacity:1" /><rect
     height="3"
     width="2"
     x="83"
     y="19"
     id="rect6"
     style="fill:#f57c00;fill-opacity:1" /><rect
     height="2"
     width="3"
     x="91"
     y="11"
     id="rect8"
     style="fill:#f57c00;fill-opacity:1" /><rect
     height="2"
     width="3"
     x="74"
     y="11"
     id="rect10"
     style="fill:#f57c00;fill-opacity:1" /><rect
     height="2"
     transform="matrix(0.7072 -0.707 0.707 0.7072 22.1216 65.3934)"
     width="3"
     x="88.51"
     y="4.989"
     id="rect12"
     style="fill:#f57c00;fill-opacity:1" /><rect
     height="2"
     transform="matrix(0.7071 -0.7071 0.7071 0.7071 10.1071 60.4221)"
     width="3"
     x="76.489"
     y="17.011"
     id="rect14"
     style="fill:#f57c00;fill-opacity:1" /><rect
     height="3"
     transform="matrix(0.7071 -0.7071 0.7071 0.7071 13.6279 68.9223)"
     width="2"
     x="89.011"
     y="16.511"
     id="rect16"
     style="fill:#f57c00;fill-opacity:1" /><rect
     height="3"
     transform="matrix(0.707 -0.7072 0.7072 0.707 18.6134 56.908)"
     width="2"
     x="76.99"
     y="4.489"
     id="rect18"
     style="fill:#f57c00;fill-opacity:1" /><path
     d="M84.786,84.464l4.707,2.664l-0.985,1.74l-5-2.83c-0.19-0.107-0.34-0.274-0.426-0.476L82.41,84H79l-3,1.17l-6-2l-1.265-0.316  c-0.293,0.531-0.582,1.076-0.84,1.592c-0.097,0.193-0.254,0.351-0.447,0.447l-8,4l-0.895-1.789l7.704-3.852  c0.117-0.229,0.284-0.548,0.472-0.9L66,82.17h-4l-8-3h-5.002l-0.007-7.039C55.134,71.732,60,66.485,60,60.245V60  c-6.181,0-11.237,4.927-11.709,11.001l-0.583,0.001C47.236,64.942,42.18,60.17,36,60.17v0.245c0,6.234,4.857,11.321,10.991,11.717  l0.007,7.039H42l-4,2l-12,3l-2.954,0.454l0.55,0.688l2.72,0.907c0.084,0.027,0.165,0.066,0.238,0.116l3,2L28.445,90l-2.889-1.926  l-2.873-0.958c-0.183-0.061-0.344-0.173-0.464-0.323l-1.454-1.818L13,86.17l-11-2V94h92V84h-9.414L84.786,84.464z"
     id="path20"
     style="fill:#7ed321;fill-opacity:1" /><rect
     height="14"
     width="12"
     x="10"
     y="13"
     id="rect22"
     style="fill:#999999;fill-opacity:1" /><path
     d="M31,10v6h-7v8h18c1.105,0,2,0.895,2,2v5h7v-7c0-4.418-3.582-8-8-8h-2v-6h-2V8h1V6h7V4h-7V2h-8v2h-7v2h7v2h1v2H31z M35,8h2v2  h-2V8z"
     id="path24"
     style="fill:#999999;fill-opacity:1" /><path
     d="m 41.432702,47.465 c -2.59,4.747 0.846,10.535 6.253,10.535 5.407,0 8.843,-5.788 6.254,-10.535 L 47.685702,36 Z m 6.973,7.535 c -2.676,0 -4.854,-2.243 -4.854,-5 h 2 c 0,1.654 1.28,3 2.854,3 z"
     id="path26"
     style="fill:#f57c00;fill-opacity:1" /><rect
     height="10"
     width="6"
     x="2"
     y="15"
     id="rect28"
     style="fill:#999999;fill-opacity:1" /><path
     d="m 84.786,84.463997 4.707,2.664 -0.985,1.74 -5,-2.83 c -0.19,-0.107 -0.34,-0.274 -0.426,-0.476 l -0.672,-1.562 H 79 l -3,1.17 -6,-2 -1.265,-0.316 c -0.293,0.531 -0.582,1.076 -0.84,1.592 -0.097,0.193 -0.254,0.351 -0.447,0.447 l -8,4 -0.895,-1.789 7.704,-3.852 c 0.117,-0.229 0.284,-0.548 0.472,-0.9 L 66,82.169997 h -4 l -8,-3 h -5.002 l -2,0.001 H 42 l -4,2 -12,3 -2.954,0.454 0.55,0.688 2.72,0.907 c 0.084,0.027 0.165,0.066 0.238,0.116 l 3,2 L 28.445,90 l -2.889,-1.926003 -2.873,-0.958 c -0.183,-0.061 -0.344,-0.173 -0.464,-0.323 l -1.454,-1.818 -7.765,1.195 -11,-2 V 94 H 94 V 83.999997 h -9.414 z"
     id="path20-9"
     style="fill:#999999;fill-opacity:1;stroke-width:1"
     sodipodi:nodetypes="ccccccccccccccccccccccccccccccccccccccccc" /></svg>
