<?xml version="1.0" encoding="UTF-8" standalone="no"?>
<svg
   xmlns:dc="http://purl.org/dc/elements/1.1/"
   xmlns:cc="http://creativecommons.org/ns#"
   xmlns:rdf="http://www.w3.org/1999/02/22-rdf-syntax-ns#"
   xmlns:svg="http://www.w3.org/2000/svg"
   xmlns="http://www.w3.org/2000/svg"
   xmlns:sodipodi="http://sodipodi.sourceforge.net/DTD/sodipodi-0.dtd"
   xmlns:inkscape="http://www.inkscape.org/namespaces/inkscape"
   width="233.66614"
   height="228.50476"
   viewBox="0 0 61.824165 60.458549"
   version="1.1"
   id="svg1034"
   inkscape:version="1.0.1 (3bc2e813f5, 2020-09-07)"
   sodipodi:docname="certificate-access.svg"
   inkscape:export-filename="C:\Users\keega\Documents\cannlytics\assets\images\illustrations\multi-tone\certificate-access.png"
   inkscape:export-xdpi="96"
   inkscape:export-ydpi="96">
  <defs
     id="defs1028">
    <clipPath
       clipPathUnits="userSpaceOnUse"
       id="clipPath1824">
      <path
         d="m 466.283,741.164 h 63.482 v -19.581 h -63.482 z"
         id="path1822"
         inkscape:connector-curvature="0" />
    </clipPath>
    <filter
       inkscape:collect="always"
       style="color-interpolation-filters:sRGB"
       id="filter3124"
       x="-0.00024129886"
       width="1.0004826"
       y="-0.00024209845"
       height="1.0004842">
      <feGaussianBlur
         inkscape:collect="always"
         stdDeviation="0.0053203049"
         id="feGaussianBlur3126" />
    </filter>
  </defs>
  <sodipodi:namedview
     id="base"
     pagecolor="#323443"
     bordercolor="#666666"
     borderopacity="1.0"
     inkscape:pageopacity="0"
     inkscape:pageshadow="2"
     inkscape:zoom="1.4"
     inkscape:cx="108.88343"
     inkscape:cy="93.280954"
     inkscape:document-units="mm"
     inkscape:current-layer="layer1"
     inkscape:document-rotation="0"
     showgrid="false"
     inkscape:window-width="1624"
     inkscape:window-height="997"
     inkscape:window-x="230"
     inkscape:window-y="94"
     inkscape:window-maximized="0"
     units="px" />
  <metadata
     id="metadata1031">
    <rdf:RDF>
      <cc:Work
         rdf:about="">
        <dc:format>image/svg+xml</dc:format>
        <dc:type
           rdf:resource="http://purl.org/dc/dcmitype/StillImage" />
        <dc:title></dc:title>
      </cc:Work>
    </rdf:RDF>
  </metadata>
  <g
     inkscape:label="Layer 1"
     inkscape:groupmode="layer"
     id="layer1"
     transform="translate(-75.677204,-103.57435)"
     style="filter:url(#filter3124)">
    <path
       fill="#fdddd6"
       d="m 98.460332,123.90673 h -13.49075 a 4.8414129,4.8414129 0 0 0 0,9.68282 h 13.49075 a 4.8414129,4.8414129 0 0 0 0,-9.68282 z m 26.328928,3.56299 a 4.8414089,4.8414089 0 0 0 0,-9.68281 h -9.83261 a 4.8417024,4.8417024 0 1 0 0,9.68281 z m 3.36093,15.19765 h -9.80089 a 4.8414129,4.8414129 0 0 0 0,9.68282 h 9.80089 a 4.8417024,4.8417024 0 1 0 0,-9.68282 z"
       id="path2"
       style="stroke-width:0.587371" />
    <circle
       cx="83.731407"
       cy="147.09499"
       r="2.3923638"
       fill="#fdddd6"
       id="circle4"
       style="stroke-width:0.587371" />
    <path
       fill="#ffffff"
       d="m 119.01128,131.59543 a 15.397941,15.397941 0 0 1 -3.3257,9.58825 c -2.83641,3.60175 -7.2411,5.91129 -12.17327,5.91129 -4.932158,0 -9.337448,-2.30954 -12.186198,-5.91129 a 15.394417,15.394417 0 0 1 -3.325694,-9.58825 c 0,-3.42555 1.104259,-6.58854 2.986783,-9.1489 2.824081,-3.86491 7.379151,-6.36241 12.525109,-6.36241 5.14595,0 9.70103,2.4969 12.51218,6.36241 1.88252,2.56093 2.98679,5.72335 2.98679,9.1489 z"
       id="path6"
       style="stroke-width:0.587371" />
    <ellipse
       cx="103.2803"
       cy="131.59132"
       fill="#ffffff"
       rx="8.4099836"
       ry="15.503669"
       id="ellipse8"
       style="stroke-width:0.587371" />
    <path
       fill="#ffffff"
       d="m 103.50996,116.4289 v 30.66667 m 15.33333,-15.33333 H 88.17663"
       id="path10"
       style="stroke-width:0.587371" />
    <path
       fill="#f3765d"
       d="m 103.51172,115.49675 c -8.748308,0 -16.098672,7.08134 -16.098672,16.09926 0,8.91395 7.233484,16.08633 16.099262,16.08633 8.92042,0 16.08633,-7.22937 16.08633,-16.08633 0,-9.03966 -7.36327,-16.09986 -16.08633,-16.09986 z m 14.90161,15.82495 h -6.28487 c -0.0224,-2.36592 -0.32952,-4.60909 -0.86638,-6.61909 1.69456,-0.40528 3.21703,-0.94684 4.49221,-1.6094 1.69048,2.41999 2.60678,5.24934 2.65964,8.22849 z m -14.46284,-14.6373 c 3.04729,0.0906 5.29691,4.35595 6.21967,7.3492 -1.92246,0.39178 -4.04111,0.6138 -6.21967,0.64024 z m 2.98209,0.38885 a 14.92452,14.92452 0 0 1 8.29251,5.30044 c -1.18767,0.59911 -2.61969,1.09603 -4.21147,1.47312 -0.92098,-2.97092 -2.353,-5.35683 -4.08104,-6.77356 z m -7.523058,0.18204 c -1.61057,1.41791 -2.94684,3.69104 -3.82908,6.48869 -1.42496,-0.36299 -2.71013,-0.82466 -3.79265,-1.37033 a 14.976796,14.976796 0 0 1 7.62173,-5.11778 z m 3.659908,-0.57093 v 7.98944 c -2.34361,-0.0289 -4.616738,-0.28429 -6.650808,-0.73186 1.04141,-3.32454 3.15419,-7.15244 6.650808,-7.25758 z m 0,8.87049 v 5.76681 h -7.755058 c 0.0217,-2.34773 0.32892,-4.56447 0.85932,-6.53451 2.11395,0.46991 4.471068,0.73832 6.895738,0.7677 z m 0,6.64788 v 6.06049 c -2.37885,0.0282 -4.667248,0.27781 -6.728338,0.72245 -0.60499,-2.01936 -0.96975,-4.3254 -1.02203,-6.78294 z m 0,6.94625 v 7.34624 c -3.316298,-0.0968 -5.362108,-3.51481 -6.455208,-6.66196 1.9765,-0.41997 4.167398,-0.65669 6.455208,-0.68428 z m -3.645808,6.7906 c -2.80177,-0.79413 -5.32159,-2.40236 -7.26344,-4.67431 1.05844,-0.49692 2.27313,-0.91748 3.61116,-1.24817 0.88164,2.5404 2.14802,4.60501 3.65228,5.92248 z m 7.500718,0.17627 c 1.61646,-1.32158 2.97505,-3.48898 3.89839,-6.19208 1.50133,0.34421 2.86638,0.79296 4.03114,1.34099 -2.0887,2.45461 -4.85758,4.13508 -7.92953,4.85169 z m -2.97385,0.37944 v -7.34625 c 2.12393,0.0253 4.16741,0.22555 6.0282,0.58972 -0.94099,2.75418 -3.13069,6.67255 -6.0282,6.75653 z m 0,-8.232 v -6.06052 h 7.29164 c -0.0517,2.41996 -0.40588,4.69427 -0.99442,6.69133 -1.94538,-0.38768 -4.08107,-0.60499 -6.29664,-0.63083 z m 0,-6.94156 v -5.76682 c 2.28663,-0.0258 4.47811,-0.25492 6.4646,-0.66373 0.51337,1.94362 0.80999,4.12394 0.83172,6.43055 z m -12.691338,-8.22849 c 1.15654,0.59795 2.53921,1.10015 4.07342,1.49309 -0.55624,2.03937 -0.87635,4.32307 -0.89868,6.7354 h -5.835529 c 0.05346,-2.97856 0.969161,-5.80793 2.660789,-8.22849 z m -2.645518,9.10953 h 5.824958 c 0.0529,2.51804 0.42996,4.88928 1.06021,6.97913 -1.44846,0.36123 -2.76769,0.82233 -3.90308,1.37328 -1.840238,-2.43288 -2.861676,-5.30161 -2.982088,-8.35241 z m 26.804106,8.35183 c -1.24288,-0.60559 -2.7066,-1.10426 -4.32422,-1.47899 0.61145,-2.06404 0.97737,-4.39709 1.02965,-6.87284 h 6.27666 c -0.12032,3.04904 -1.14127,5.91718 -2.98209,8.35183 z"
       id="path12"
       style="stroke-width:0.587371" />
    <path
       fill="#f3765d"
       d="m 124.21775,128.29733 h -14.50222 a 1.393245,1.393245 0 0 0 -1.39324,1.39324 v 18.16917 a 1.393245,1.393245 0 0 0 1.39324,1.39324 h 14.50222 a 1.393245,1.393245 0 0 0 1.39264,-1.39324 v -18.16917 a 1.393245,1.393245 0 0 0 -1.39264,-1.39324 z"
       id="path14"
       style="stroke-width:0.587371" />
    <path
       fill="#ffffff"
       d="m 110.0844,146.65975 v -15.76917 c 0,-0.45933 0.37181,-0.83114 0.83054,-0.83114 h 12.10339 c 0.45814,0 0.83054,0.37181 0.83054,0.83114 v 15.76917 c 0,0.45813 -0.3718,0.83054 -0.83054,0.83054 h -12.10339 a 0.83054315,0.83054315 0 0 1 -0.83054,-0.83054 z"
       id="path16"
       style="stroke-width:0.587371" />
    <path
       fill="#f3765d"
       d="m 113.03594,131.67766 h 7.7821 v 1.76211 h -7.7821 z m 8.7489,4.16152 h -9.637 a 0.29368571,0.29368571 0 1 1 0,-0.58737 h 9.63583 a 0.29368571,0.29368571 0 1 1 0,0.58737 z m 0,1.87253 h -9.637 a 0.29368571,0.29368571 0 1 1 0,-0.58736 h 9.63583 a 0.29368571,0.29368571 0 1 1 0,0.58736 z m 0,1.87196 h -9.637 a 0.29368571,0.29368571 0 1 1 0,-0.58736 h 9.63583 a 0.29368571,0.29368571 0 1 1 0,0.58736 z m 0,1.87254 h -9.637 a 0.29368571,0.29368571 0 1 1 0,-0.58737 h 9.63583 a 0.29368571,0.29368571 0 1 1 0,0.58737 z"
       id="path18"
       style="stroke-width:0.587371" />
    <path
       fill="#ffffff"
       d="m 118.28235,148.26091 v 5.30748 l 2.20968,-1.76212 2.20911,1.76212 v -5.30748 z"
       id="path20"
       style="stroke-width:0.587371" />
    <circle
       cx="120.49203"
       cy="146.20039"
       r="3.525403"
       fill="#f3765d"
       id="circle22"
       style="stroke-width:0.587371" />
    <path
       fill="#010101"
       d="m 124.21715,128.0054 h -14.5022 c -0.92804,0 -1.68577,0.75773 -1.68577,1.68577 v 18.16739 c 0,0.92804 0.75773,1.68575 1.68577,1.68575 h 8.27607 v 4.63437 l 2.50219,-1.99707 2.50221,1.99707 v -4.63437 h 1.22173 c 0.92804,0 1.68577,-0.75771 1.68577,-1.68575 v -18.16739 c 0,-0.92804 -0.75773,-1.68577 -1.68577,-1.68577 z m -3.72394,21.42731 c -1.79382,0 -3.23055,-1.47194 -3.23055,-3.23055 0,-1.7856 1.44495,-3.23641 3.23055,-3.23641 1.77974,0 3.23055,1.45081 3.23055,3.23641 0,1.7357 -1.42437,3.23055 -3.23055,3.23055 z m 1.91483,3.52423 -1.91483,-1.52715 -1.91483,1.52715 v -3.45375 c 0.0235,0.0178 0.0471,0.0293 0.0764,0.0411 0.54625,0.30545 1.16887,0.47579 1.83848,0.47579 0.66373,0 1.29221,-0.17027 1.83846,-0.47579 0.0235,-0.0111 0.0528,-0.0235 0.0764,-0.0471 z m 2.90749,-5.09838 c 0,0.60499 -0.49339,1.09838 -1.09838,1.09838 h -1.0925 a 3.7773854,3.7773854 0 0 0 1.18647,-2.75478 c 0,-2.10865 -1.71512,-3.82377 -3.81791,-3.82377 -2.10865,0 -3.81791,1.71512 -3.81791,3.82377 0,1.08078 0.45228,2.06168 1.18061,2.75478 h -8.14096 c -0.60499,0 -1.09838,-0.49339 -1.09838,-1.09838 v -18.16739 c 0,-0.60499 0.49339,-1.09838 1.09838,-1.09838 h 14.5022 c 0.60499,0 1.09838,0.49339 1.09838,1.09838 z"
       id="path24"
       style="stroke-width:0.587371" />
    <path
       fill="#ffffff"
       d="m 120.49203,144.27031 0.47872,1.47429 h 1.55066 l -1.25462,0.91102 0.47929,1.47489 -1.25405,-0.91159 -1.25462,0.91159 0.47929,-1.47489 -1.25462,-0.91102 h 1.55066 z"
       id="path26"
       style="stroke-width:0.587371" />
    <circle
       cx="96.719963"
       cy="153.56839"
       r="1.2957413"
       fill="#dfebf8"
       id="circle28"
       style="stroke-width:0.587371" />
    <circle
       cx="130.9261"
       cy="131.35518"
       r="0.92158568"
       fill="#5dcae7"
       id="circle30"
       style="stroke-width:0.587371" />
    <circle
       cx="88.922005"
       cy="115.5079"
       r="0.92158568"
       fill="#f6e2ee"
       id="circle32"
       style="stroke-width:0.587371" />
    <circle
       cx="116.92672"
       cy="113.6647"
       r="0.92158568"
       fill="#fdbe5c"
       id="circle34"
       style="stroke-width:0.587371" />
  </g>
</svg>
