<?xml version="1.0" encoding="UTF-8" standalone="no"?>
<svg
   xmlns:dc="http://purl.org/dc/elements/1.1/"
   xmlns:cc="http://creativecommons.org/ns#"
   xmlns:rdf="http://www.w3.org/1999/02/22-rdf-syntax-ns#"
   xmlns:svg="http://www.w3.org/2000/svg"
   xmlns="http://www.w3.org/2000/svg"
   xmlns:sodipodi="http://sodipodi.sourceforge.net/DTD/sodipodi-0.dtd"
   xmlns:inkscape="http://www.inkscape.org/namespaces/inkscape"
   width="233.66614"
   height="228.50476"
   viewBox="0 0 61.824165 60.458549"
   version="1.1"
   id="svg1034"
   inkscape:version="1.0.1 (3bc2e813f5, 2020-09-07)"
   sodipodi:docname="certificate.svg"
   inkscape:export-filename="C:\Users\keega\Documents\cannlytics\assets\images\illustrations\multi-tone\certificate.png"
   inkscape:export-xdpi="96"
   inkscape:export-ydpi="96">
  <defs
     id="defs1028">
    <clipPath
       clipPathUnits="userSpaceOnUse"
       id="clipPath1824">
      <path
         d="m 466.283,741.164 h 63.482 v -19.581 h -63.482 z"
         id="path1822"
         inkscape:connector-curvature="0" />
    </clipPath>
    <filter
       inkscape:collect="always"
       style="color-interpolation-filters:sRGB"
       id="filter3044"
       x="-0.00015006585"
       width="1.0003001"
       y="-0.00017316235"
       height="1.0003463">
      <feGaussianBlur
         inkscape:collect="always"
         stdDeviation="0.0033087655"
         id="feGaussianBlur3046" />
    </filter>
  </defs>
  <sodipodi:namedview
     id="base"
     pagecolor="#323443"
     bordercolor="#666666"
     borderopacity="1.0"
     inkscape:pageopacity="0"
     inkscape:pageshadow="2"
     inkscape:zoom="1.4"
     inkscape:cx="108.88343"
     inkscape:cy="93.280954"
     inkscape:document-units="mm"
     inkscape:current-layer="layer1"
     inkscape:document-rotation="0"
     showgrid="false"
     inkscape:window-width="1624"
     inkscape:window-height="997"
     inkscape:window-x="230"
     inkscape:window-y="94"
     inkscape:window-maximized="0"
     units="px" />
  <metadata
     id="metadata1031">
    <rdf:RDF>
      <cc:Work
         rdf:about="">
        <dc:format>image/svg+xml</dc:format>
        <dc:type
           rdf:resource="http://purl.org/dc/dcmitype/StillImage" />
        <dc:title></dc:title>
      </cc:Work>
    </rdf:RDF>
  </metadata>
  <g
     inkscape:label="Layer 1"
     inkscape:groupmode="layer"
     id="layer1"
     transform="translate(-75.677204,-103.57435)"
     style="filter:url(#filter3044)">
    <path
       fill="#ffffff"
       d="m 81.012882,113.52111 h 51.152798 v 33.5139 H 81.012882 Z"
       id="path2"
       style="stroke-width:0.881944" />
    <path
       fill="#ffffff"
       d="m 124.22818,144.38918 v 9.7014 l -5.29166,-3.5278 -5.29167,3.5278 v -9.7014 z"
       id="path4"
       style="stroke-width:0.881944" />
    <path
       fill="#e6e6e6"
       d="m 124.22818,144.38918 v 2.83987 a 9.701389,9.701389 0 0 1 -10.58333,0 v -2.83987 z"
       id="path6"
       style="stroke-width:0.881944" />
    <path
       fill="#ffa88a"
       d="m 125.99205,139.09751 a 7.0555556,7.0555556 0 1 1 -4.8066,-6.68513 7.0555556,7.0555556 0 0 1 4.8066,6.68513 z"
       id="path8"
       style="stroke-width:0.881944" />
    <path
       fill="#fd9467"
       d="m 122.46428,136.45168 a 7.0555556,7.0555556 0 0 1 -9.30453,6.68513 7.0555556,7.0555556 0 0 1 8.0257,-10.72443 7.0555556,7.0555556 0 0 1 1.27883,4.0393 z"
       id="path10"
       style="stroke-width:0.881944" />
    <path
       fill="#4e5b5f"
       d="M 132.16568,112.63918 H 81.012882 a 0.88194444,0.88194444 0 0 0 -0.88193,0.88193 v 33.5139 a 0.88194444,0.88194444 0 0 0 0.88193,0.88194 h 31.749998 v 6.17363 a 0.88194444,0.88194444 0 0 0 0.46744,0.7761 0.88194444,0.88194444 0 0 0 0.88193,-0.044 l 4.82427,-3.20147 4.80656,3.20147 a 0.88194444,0.88194444 0 0 0 1.36704,-0.732 v -6.17363 h 7.05556 a 0.88194444,0.88194444 0 0 0 0.88194,-0.88194 v -33.5139 a 0.88194444,0.88194444 0 0 0 -0.88194,-0.88193 z m -8.81946,39.80217 -3.92464,-2.64584 a 0.88194444,0.88194444 0 0 0 -0.97016,0 l -3.92464,2.64584 v -6.7469 a 7.9375,7.9375 0 0 0 8.81944,0 z m -4.4097,-7.17024 a 6.173611,6.173611 0 1 1 6.1736,-6.1736 6.173611,6.173611 0 0 1 -6.1736,6.1736 z m 12.3472,0.88197 h -6.1736 v -2.07257 a 7.9375,7.9375 0 1 0 -12.34724,0 v 2.07257 H 81.894852 v -31.75 h 49.388868 z"
       id="path12"
       style="stroke-width:0.881944" />
    <path
       fill="#e6e6e6"
       d="m 88.950382,125.86835 h 35.277798 a 2.645835,2.645835 0 0 0 0,-5.29167 H 88.950382 a 2.645835,2.645835 0 0 0 0,5.29167 z"
       id="path14"
       style="stroke-width:0.881944" />
    <path
       fill="#7accbe"
       d="m 126.87402,121.45861 a 2.6458333,2.6458333 0 0 1 -2.64584,2.64584 H 88.950382 a 2.645835,2.645835 0 0 1 0,-5.29167 h 35.277798 a 2.6458333,2.6458333 0 0 1 2.64584,2.64583 z"
       id="path16"
       style="stroke-width:0.881944" />
    <path
       fill="#fd9467"
       d="m 111.88095,129.39611 h -11.46527 a 0.88195018,0.88195018 0 0 0 0,1.7639 h 11.46527 a 0.88195018,0.88195018 0 0 0 0,-1.7639 z m -3.52777,6.17364 H 91.596222 a 0.88194444,0.88194444 0 0 0 0,1.76386 h 16.756958 a 0.88194444,0.88194444 0 0 0 0,-1.76386 z"
       id="path18"
       style="stroke-width:0.881944" />
    <circle
       cx="118.93649"
       cy="139.09746"
       r="2.6458333"
       fill="#ffffff"
       id="circle20"
       style="stroke-width:0.881944" />
    <path
       fill="#61c3b6"
       d="m 119.08642,118.81278 a 18.935347,18.935347 0 0 1 -2.4077,5.29167 H 88.950382 a 2.645835,2.645835 0 0 1 0,-5.29167 z"
       id="path22"
       style="stroke-width:0.881944" />
  </g>
</svg>
