<?xml version="1.0" encoding="UTF-8" standalone="no"?>
<svg
   xmlns:dc="http://purl.org/dc/elements/1.1/"
   xmlns:cc="http://creativecommons.org/ns#"
   xmlns:rdf="http://www.w3.org/1999/02/22-rdf-syntax-ns#"
   xmlns:svg="http://www.w3.org/2000/svg"
   xmlns="http://www.w3.org/2000/svg"
   xmlns:sodipodi="http://sodipodi.sourceforge.net/DTD/sodipodi-0.dtd"
   xmlns:inkscape="http://www.inkscape.org/namespaces/inkscape"
   width="233.66614"
   height="228.50476"
   viewBox="0 0 61.824165 60.458549"
   version="1.1"
   id="svg1034"
   inkscape:version="1.0.1 (3bc2e813f5, 2020-09-07)"
   sodipodi:docname="documents.svg"
   inkscape:export-filename="C:\Users\keega\Documents\cannlytics\assets\images\illustrations\multi-tone\documents.png"
   inkscape:export-xdpi="96"
   inkscape:export-ydpi="96">
  <defs
     id="defs1028">
    <clipPath
       clipPathUnits="userSpaceOnUse"
       id="clipPath1824">
      <path
         d="m 466.283,741.164 h 63.482 v -19.581 h -63.482 z"
         id="path1822"
         inkscape:connector-curvature="0" />
    </clipPath>
    <filter
       inkscape:collect="always"
       style="color-interpolation-filters:sRGB"
       id="filter3124"
       x="-0.00024129886"
       width="1.0004826"
       y="-0.00024209845"
       height="1.0004842">
      <feGaussianBlur
         inkscape:collect="always"
         stdDeviation="0.0053203049"
         id="feGaussianBlur3126" />
    </filter>
  </defs>
  <sodipodi:namedview
     id="base"
     pagecolor="#323443"
     bordercolor="#666666"
     borderopacity="1.0"
     inkscape:pageopacity="0"
     inkscape:pageshadow="2"
     inkscape:zoom="1.4"
     inkscape:cx="108.88343"
     inkscape:cy="93.280954"
     inkscape:document-units="mm"
     inkscape:current-layer="layer1"
     inkscape:document-rotation="0"
     showgrid="false"
     inkscape:window-width="1624"
     inkscape:window-height="997"
     inkscape:window-x="230"
     inkscape:window-y="94"
     inkscape:window-maximized="0"
     units="px" />
  <metadata
     id="metadata1031">
    <rdf:RDF>
      <cc:Work
         rdf:about="">
        <dc:format>image/svg+xml</dc:format>
        <dc:type
           rdf:resource="http://purl.org/dc/dcmitype/StillImage" />
        <dc:title></dc:title>
      </cc:Work>
    </rdf:RDF>
  </metadata>
  <g
     inkscape:label="Layer 1"
     inkscape:groupmode="layer"
     id="layer1"
     transform="translate(-75.677204,-103.57435)"
     style="filter:url(#filter3124)">
    <path
       fill="#ffffff"
       d="m 81.021364,118.36959 h 12.465788 v 35.61651 a 1.7808262,1.7808262 0 0 1 -1.78083,1.78084 h -8.904131 a 1.7808262,1.7808262 0 0 1 -1.780827,-1.78084 z m 12.465788,0 h 12.465788 v 35.61651 a 1.7808262,1.7808262 0 0 1 -1.78084,1.78084 h -8.904128 a 1.7808262,1.7808262 0 0 1 -1.78082,-1.78084 z m 14.456758,2.37296 11.71425,-4.26331 12.18085,33.46794 a 1.7808262,1.7808262 0 0 1 -1.06402,2.28305 l -8.36722,3.0452 a 1.7808262,1.7808262 0 0 1 -2.28213,-1.06406 z"
       id="path2"
       style="stroke-width:0.890412" />
    <path
       fill="#ffa88a"
       d="M 105.95294,118.36959 H 93.487152 v -3.56165 a 1.7808262,1.7808262 0 0 1 1.78082,-1.78083 h 8.904128 a 1.7808262,1.7808262 0 0 1 1.78084,1.78083 z"
       id="path4"
       style="stroke-width:0.890412" />
    <path
       fill="#fd9467"
       d="m 103.2817,113.02711 a 7.1233048,7.1233048 0 0 1 -2.41303,5.34248 h -7.381518 v -3.56165 a 1.7808262,1.7808262 0 0 1 1.78082,-1.78083 z"
       id="path6"
       style="stroke-width:0.890412" />
    <path
       fill="#7accbe"
       d="m 119.84339,116.07234 -11.70893,4.26506 -1.21987,-3.34794 a 1.7808262,1.7808262 0 0 1 1.06849,-2.27948 l 8.36096,-3.0452 a 1.7808262,1.7808262 0 0 1 2.28836,1.0685 z"
       id="path8"
       style="stroke-width:0.890412" />
    <path
       fill="#61c3b6"
       d="m 115.45363,112.55519 a 7.1233048,7.1233048 0 0 1 -0.43628,5.8144 l -6.93634,2.51986 -1.23767,-3.31234 a 1.7808262,1.7808262 0 0 1 1.0685,-2.27944 z"
       id="path10"
       style="stroke-width:0.890412" />
    <path
       fill="#7accbe"
       d="m 93.487152,114.80794 v 3.56165 H 81.021364 v -3.56165 a 1.7808262,1.7808262 0 0 1 1.780827,-1.78083 h 8.904131 a 1.7808262,1.7808262 0 0 1 1.78083,1.78083 z"
       id="path12"
       style="stroke-width:0.890412" />
    <path
       fill="#61c3b6"
       d="m 90.815912,113.02711 a 7.1233048,7.1233048 0 0 1 -2.41302,5.34248 h -7.381528 v -3.56165 a 1.7808262,1.7808262 0 0 1 1.780827,-1.78083 z"
       id="path14"
       style="stroke-width:0.890412" />
    <rect
       width="3.5616522"
       height="17.808262"
       x="97.939209"
       y="125.49288"
       fill="#e6e6e6"
       rx="1.7808261"
       ry="1.7808261"
       id="rect16"
       style="stroke-width:0.890412" />
    <circle
       cx="99.720039"
       cy="150.42447"
       r="1.7808261"
       fill="#e6e6e6"
       id="circle18"
       style="stroke-width:0.890412" />
    <rect
       width="3.5616522"
       height="17.808262"
       x="85.473412"
       y="125.49288"
       fill="#e6e6e6"
       rx="1.7808261"
       ry="1.7808261"
       id="rect20"
       style="stroke-width:0.890412" />
    <circle
       cx="87.254242"
       cy="150.42447"
       r="1.7808261"
       fill="#e6e6e6"
       id="circle22"
       style="stroke-width:0.890412" />
    <rect
       width="3.5616522"
       height="17.808262"
       x="64.224403"
       y="157.35347"
       fill="#e6e6e6"
       rx="1.7808261"
       ry="1.7808261"
       transform="rotate(-20)"
       id="rect24"
       style="stroke-width:0.890412" />
    <circle
       cx="124.37556"
       cy="148.72379"
       r="1.7808261"
       fill="#e6e6e6"
       id="circle26"
       style="stroke-width:0.890412" />
    <rect
       width="3.5616522"
       height="17.808262"
       x="97.939209"
       y="123.71207"
       fill="#fd9467"
       rx="1.7808261"
       ry="1.7808261"
       id="rect28"
       style="stroke-width:0.890412" />
    <circle
       cx="99.720039"
       cy="148.64368"
       r="1.7808261"
       fill="#fd9467"
       id="circle30"
       style="stroke-width:0.890412" />
    <path
       fill="#4e5b5f"
       d="m 132.89684,149.53405 -12.18086,-33.47955 -1.21986,-3.34794 a 2.6712393,2.6712393 0 0 0 -3.42811,-1.59383 l -8.33427,3.0452 a 2.6712393,2.6712393 0 0 0 -0.8904,0.52536 2.6712393,2.6712393 0 0 0 -2.67124,-2.54659 h -8.904128 a 2.6712393,2.6712393 0 0 0 -1.78082,0.69451 2.6712393,2.6712393 0 0 0 -1.78083,-0.69451 h -8.904131 a 2.6712393,2.6712393 0 0 0 -2.671239,2.67124 v 39.17816 a 2.6712393,2.6712393 0 0 0 2.671239,2.67124 h 8.904131 a 2.6712393,2.6712393 0 0 0 1.78083,-0.69451 2.6712393,2.6712393 0 0 0 1.78082,0.69451 h 8.904128 a 2.6712393,2.6712393 0 0 0 2.67124,-2.67124 v -34.37884 l 12.66169,34.78843 a 2.6712393,2.6712393 0 0 0 2.51095,1.78084 2.7602806,2.7602806 0 0 0 0.8904,-0.16019 l 8.36099,-3.05411 a 2.6712393,2.6712393 0 0 0 1.5137,-1.38013 2.6712393,2.6712393 0 0 0 0.11577,-2.04794 z m -25.09185,-33.23913 a 0.89041308,0.89041308 0 0 1 0.50753,-0.463 l 8.32538,-3.04523 a 0.95274202,0.95274202 0 0 1 0.31163,-0.0535 0.89041308,0.89041308 0 0 1 0.83699,0.58765 l 0.8904,2.51099 -10.03497,3.65068 -0.8904,-2.51094 a 0.89041308,0.89041308 0 0 1 0.0535,-0.67674 z m -12.537018,-2.37741 h 8.904128 a 0.89041308,0.89041308 0 0 1 0.89041,0.89043 v 2.67124 H 94.377562 v -2.67124 a 0.89041308,0.89041308 0 0 1 0.89041,-0.89043 z m -12.465781,0 h 8.904131 a 0.89041308,0.89041308 0 0 1 0.89041,0.89043 v 2.67124 H 81.911779 v -2.67124 a 0.89041308,0.89041308 0 0 1 0.890412,-0.89043 z m 8.904131,40.95902 h -8.904131 a 0.89041308,0.89041308 0 0 1 -0.890412,-0.89043 v -34.72611 h 10.684953 v 34.72611 a 0.89041308,0.89041308 0 0 1 -0.89041,0.89043 z m 12.465778,0 h -8.904128 a 0.89041308,0.89041308 0 0 1 -0.89041,-0.89043 v -34.72611 h 10.684948 v 34.72611 a 0.89041308,0.89041308 0 0 1 -0.89041,0.89043 z m 27.01514,-4.06028 a 0.89041308,0.89041308 0 0 1 -0.49864,0.463 l -8.36987,3.04523 a 0.89041308,0.89041308 0 0 1 -1.13974,-0.53425 l -11.87811,-32.63364 10.00826,-3.67741 11.91371,32.65145 a 0.89041308,0.89041308 0 0 1 -0.0357,0.68562 z"
       id="path32"
       style="stroke-width:0.890412" />
    <rect
       width="3.5616522"
       height="17.808262"
       x="64.838379"
       y="155.68245"
       fill="#fd9467"
       rx="1.7808261"
       ry="1.7808261"
       transform="rotate(-20)"
       id="rect34"
       style="stroke-width:0.890412" />
    <circle
       cx="124.37556"
       cy="146.94298"
       r="1.7808261"
       fill="#fd9467"
       id="circle36"
       style="stroke-width:0.890412" />
    <rect
       width="3.5616522"
       height="17.808262"
       x="85.473412"
       y="123.71207"
       fill="#fd9467"
       rx="1.7808261"
       ry="1.7808261"
       id="rect38"
       style="stroke-width:0.890412" />
    <circle
       cx="87.254242"
       cy="148.64368"
       r="1.7808261"
       fill="#fd9467"
       id="circle40"
       style="stroke-width:0.890412" />
  </g>
</svg>
