<?xml version="1.0" encoding="UTF-8" standalone="no"?>
<svg
   xmlns:dc="http://purl.org/dc/elements/1.1/"
   xmlns:cc="http://creativecommons.org/ns#"
   xmlns:rdf="http://www.w3.org/1999/02/22-rdf-syntax-ns#"
   xmlns:svg="http://www.w3.org/2000/svg"
   xmlns="http://www.w3.org/2000/svg"
   xmlns:sodipodi="http://sodipodi.sourceforge.net/DTD/sodipodi-0.dtd"
   xmlns:inkscape="http://www.inkscape.org/namespaces/inkscape"
   width="233.66614"
   height="228.50476"
   viewBox="0 0 61.824165 60.458549"
   version="1.1"
   id="svg1034"
   inkscape:version="1.0.1 (3bc2e813f5, 2020-09-07)"
   sodipodi:docname="hourglass.svg"
   inkscape:export-filename="C:\Users\keega\Documents\cannlytics\assets\images\illustrations\multi-tone\hourglass.png"
   inkscape:export-xdpi="96"
   inkscape:export-ydpi="96">
  <defs
     id="defs1028">
    <clipPath
       clipPathUnits="userSpaceOnUse"
       id="clipPath1824">
      <path
         d="m 466.283,741.164 h 63.482 v -19.581 h -63.482 z"
         id="path1822"
         inkscape:connector-curvature="0" />
    </clipPath>
    <filter
       inkscape:collect="always"
       style="color-interpolation-filters:sRGB"
       id="filter2910"
       x="-5.4985312e-05"
       width="1.00011"
       y="-3.485019e-05"
       height="1.0000697">
      <feGaussianBlur
         inkscape:collect="always"
         stdDeviation="0.00076839824"
         id="feGaussianBlur2912" />
    </filter>
  </defs>
  <sodipodi:namedview
     id="base"
     pagecolor="#323443"
     bordercolor="#666666"
     borderopacity="1.0"
     inkscape:pageopacity="0"
     inkscape:pageshadow="2"
     inkscape:zoom="1.4"
     inkscape:cx="108.88343"
     inkscape:cy="135.25169"
     inkscape:document-units="mm"
     inkscape:current-layer="layer1"
     inkscape:document-rotation="0"
     showgrid="false"
     inkscape:window-width="1624"
     inkscape:window-height="997"
     inkscape:window-x="230"
     inkscape:window-y="94"
     inkscape:window-maximized="0"
     units="px" />
  <metadata
     id="metadata1031">
    <rdf:RDF>
      <cc:Work
         rdf:about="">
        <dc:format>image/svg+xml</dc:format>
        <dc:type
           rdf:resource="http://purl.org/dc/dcmitype/StillImage" />
        <dc:title></dc:title>
      </cc:Work>
    </rdf:RDF>
  </metadata>
  <g
     inkscape:label="Layer 1"
     inkscape:groupmode="layer"
     id="layer1"
     transform="translate(-75.677204,-103.57435)"
     style="filter:url(#filter2910)">
    <g
       id="g3334"
       transform="matrix(1.1913986,0,0,-1.1913986,110.64088,130.50717)">
      <path
         d="m 0,0 -0.604,-0.418 0.005,-3.954 0.603,-0.417 c 4.537,-3.139 7.38,-9.312 7.464,-16.224 h -21.74 c 0.068,6.875 2.916,13.075 7.467,16.225 l 0.6,0.416 0.008,3.953 -0.606,0.42 c -4.552,3.145 -7.401,9.344 -7.469,16.223 H 7.468 C 7.401,9.346 4.552,3.146 0,0 m 9.186,16.475 v 1.465 h -25.173 v -1.465 c 0,-7.465 3.089,-14.263 8.074,-17.791 l -0.003,-2.157 c -4.983,-3.53 -8.071,-10.328 -8.071,-17.789 v -1.464 H 9.186 v 1.464 c 0,7.46 -3.089,14.258 -8.071,17.789 l -0.003,2.158 c 4.984,3.53 8.074,10.328 8.074,17.79"
         style="fill:#fcf4d4;fill-opacity:1;fill-rule:nonzero;stroke:none"
         id="path3336" />
    </g>
    <g
       id="g3338"
       transform="matrix(1.1913986,0,0,-1.1913986,117.10981,152.04657)">
      <path
         d="m 0,0 c -0.313,3.27 -1.327,6.286 -2.932,8.721 l -0.174,0.263 h -4.572 v 9.75 l 0.235,0.121 c 1.855,0.953 3.514,2.571 4.801,4.68 l 0.541,0.889 h -13.461 l 0.542,-0.889 c 1.288,-2.11 2.948,-3.728 4.801,-4.679 l 0.235,-0.122 v -9.75 h -4.572 L -14.73,8.721 C -16.334,6.286 -17.347,3.27 -17.663,0 l -0.062,-0.639 H 0.062 Z"
         style="fill:#ec008c;fill-opacity:1;fill-rule:nonzero;stroke:none"
         id="path3340" />
    </g>
    <g
       id="g3342"
       transform="matrix(1.1913986,0,0,-1.1913986,123.35882,109.95327)">
      <path
         d="m 0,0 c 0,-1.209 -0.98,-2.189 -2.189,-2.189 h -23.773 c -1.208,0 -2.189,0.98 -2.189,2.189 0,1.209 0.981,2.189 2.189,2.189 H -2.189 C -0.98,2.189 0,1.209 0,0"
         style="fill:#fcf4d4;fill-opacity:1;fill-rule:nonzero;stroke:none"
         id="path3344" />
    </g>
    <g
       id="g3346"
       transform="matrix(1.1913986,0,0,-1.1913986,123.35882,157.65399)">
      <path
         d="m 0,0 c 0,-1.209 -0.98,-2.189 -2.189,-2.189 h -23.773 c -1.208,0 -2.189,0.98 -2.189,2.189 0,1.209 0.981,2.189 2.189,2.189 H -2.189 C -0.98,2.189 0,1.209 0,0"
         style="fill:#fcf4d4;fill-opacity:1;fill-rule:nonzero;stroke:none"
         id="path3348" />
    </g>
  </g>
</svg>
