<?xml version="1.0" encoding="UTF-8" standalone="no"?>
<svg
   xmlns:dc="http://purl.org/dc/elements/1.1/"
   xmlns:cc="http://creativecommons.org/ns#"
   xmlns:rdf="http://www.w3.org/1999/02/22-rdf-syntax-ns#"
   xmlns:svg="http://www.w3.org/2000/svg"
   xmlns="http://www.w3.org/2000/svg"
   xmlns:sodipodi="http://sodipodi.sourceforge.net/DTD/sodipodi-0.dtd"
   xmlns:inkscape="http://www.inkscape.org/namespaces/inkscape"
   width="233.66614"
   height="228.50476"
   viewBox="0 0 61.824165 60.458549"
   version="1.1"
   id="svg1034"
   inkscape:version="1.0.1 (3bc2e813f5, 2020-09-07)"
   sodipodi:docname="microscope.svg"
   inkscape:export-filename="C:\Users\keega\Documents\cannlytics\assets\images\illustrations\multi-tone\microscope.png"
   inkscape:export-xdpi="96"
   inkscape:export-ydpi="96">
  <defs
     id="defs1028">
    <filter
       inkscape:collect="always"
       style="color-interpolation-filters:sRGB"
       id="filter2482"
       x="-1.4645814e-06"
       width="1.0000029"
       y="-1.0163865e-06"
       height="1.000002">
      <feGaussianBlur
         inkscape:collect="always"
         stdDeviation="2.5211148e-05"
         id="feGaussianBlur2484" />
    </filter>
  </defs>
  <sodipodi:namedview
     id="base"
     pagecolor="#323443"
     bordercolor="#666666"
     borderopacity="1.0"
     inkscape:pageopacity="0"
     inkscape:pageshadow="2"
     inkscape:zoom="1.979899"
     inkscape:cx="159.04348"
     inkscape:cy="106.13341"
     inkscape:document-units="mm"
     inkscape:current-layer="layer1"
     inkscape:document-rotation="0"
     showgrid="false"
     inkscape:window-width="1624"
     inkscape:window-height="997"
     inkscape:window-x="230"
     inkscape:window-y="94"
     inkscape:window-maximized="0"
     units="px" />
  <metadata
     id="metadata1031">
    <rdf:RDF>
      <cc:Work
         rdf:about="">
        <dc:format>image/svg+xml</dc:format>
        <dc:type
           rdf:resource="http://purl.org/dc/dcmitype/StillImage" />
        <dc:title></dc:title>
      </cc:Work>
    </rdf:RDF>
  </metadata>
  <g
     inkscape:label="Layer 1"
     inkscape:groupmode="layer"
     id="layer1"
     transform="translate(-75.677204,-103.57435)"
     style="filter:url(#filter2482)">
    <path
       d="m 107.31871,155.7137 h 7.56195 v -4.50712 h -7.56195 z"
       style="fill:#8e724b;fill-opacity:1;fill-rule:nonzero;stroke:none;stroke-width:0.0150048"
       id="path184" />
    <path
       d="m 100.48702,158.35935 h 21.22504 v -2.64565 h -21.22504 z"
       style="fill:#8e724b;fill-opacity:1;fill-rule:nonzero;stroke:none;stroke-width:0.0150048"
       id="path186" />
    <path
       d="m 117.60705,122.36029 1.65173,-2.86096 -6.67804,-3.85548 -9.64028,16.69583 6.67878,3.85579 2.86712,-4.96554 5.12069,-8.86964"
       style="fill:#5ea1d1;fill-opacity:1;fill-rule:nonzero;stroke:none;stroke-width:0.0150048"
       id="path188" />
    <path
       d="m 118.45692,109.5627 3.12895,1.80657 -4.10186,7.10568 -3.12911,-1.80673 4.10202,-7.10552"
       style="fill:#438db3;fill-opacity:1;fill-rule:nonzero;stroke:none;stroke-width:0.0150048"
       id="path190" />
    <path
       d="m 118.554,107.34529 4.90432,2.83125 -0.98416,1.70545 -4.90417,-2.83125 0.98401,-1.70545"
       style="fill:#438db3;fill-opacity:1;fill-rule:nonzero;stroke:none;stroke-width:0.0150048"
       id="path192" />
    <path
       d="m 102.59085,137.82558 2.45268,1.41571 2.46259,-4.26617 -2.45223,-1.4157 -2.46304,4.26616"
       style="fill:#438db3;fill-opacity:1;fill-rule:nonzero;stroke:none;stroke-width:0.0150048"
       id="path194" />
    <path
       d="m 93.829991,143.25762 h 17.269779 v -1.99594 H 93.829991 v 1.99594"
       style="fill:#e6b542;fill-opacity:1;fill-rule:nonzero;stroke:none;stroke-width:0.0150048"
       id="path196" />
    <path
       d="m 117.40433,129.47962 c 2.08776,1.47347 4.07366,5.49011 4.07366,8.39518 0,5.73229 -4.64655,10.37777 -10.37822,10.37777 -3.7611,0 -7.05496,-2.00029 -8.8746,-4.99495 h -3.876784 c 2.098574,4.96884 7.018194,8.45536 12.751384,8.45536 7.64284,0 13.4455,-6.20599 13.83772,-13.83818 0.25448,-4.94768 -3.19317,-9.72986 -6.30817,-11.95537"
       style="fill:#ebb438;fill-opacity:1;fill-rule:nonzero;stroke:none;stroke-width:0.0150048"
       id="path198" />
    <path
       d="m 111.0519,126.69848 c 0,2.11402 1.7134,3.82877 3.82833,3.82877 2.11522,0 3.82847,-1.71475 3.82847,-3.82877 0,-2.11433 -1.71325,-3.82818 -3.82847,-3.82818 -2.11493,0 -3.82833,1.71385 -3.82833,3.82818"
       style="fill:#8e724b;fill-opacity:1;fill-rule:nonzero;stroke:none;stroke-width:0.0150048"
       id="path200" />
    <path
       d="m 112.73184,126.69848 c 0,1.18733 0.96256,2.14899 2.14839,2.14899 1.18657,0 2.14823,-0.96166 2.14823,-2.14899 0,-1.18628 -0.96166,-2.14824 -2.14823,-2.14824 -1.18583,0 -2.14839,0.96196 -2.14839,2.14824"
       style="fill:#ffffff;fill-opacity:1;fill-rule:nonzero;stroke:none;stroke-width:0.0150048"
       id="path202" />
    <path
       d="m 105.47057,130.91333 c -0.22672,0 -0.45735,-0.24083 -0.30955,-0.49996 2.30249,-4.03555 4.60422,-8.07093 6.90656,-12.10677 0.0657,-0.11509 0.16595,-0.1628 0.26678,-0.1628 0.22672,0 0.45705,0.24052 0.30956,0.49995 -2.30249,4.03554 -4.60453,8.07094 -6.90687,12.10678 -0.0656,0.11508 -0.16565,0.1628 -0.26649,0.1628"
       style="fill:#aed4e8;fill-opacity:1;fill-rule:nonzero;stroke:none;stroke-width:0.0150048"
       id="path204" />
    <path
       d="m 115.44966,116.68983 c -0.15395,0 -0.3103,-0.16355 -0.21007,-0.33971 1.06219,-1.8615 2.12483,-3.72434 3.18717,-5.58659 0.0445,-0.0783 0.11253,-0.11088 0.18125,-0.11088 0.15381,0 0.31046,0.16356 0.21023,0.3394 -1.06249,1.86225 -2.12513,3.7248 -3.18717,5.58689 -0.0447,0.0783 -0.11284,0.11089 -0.18141,0.11089"
       style="fill:#9dcad8;fill-opacity:1;fill-rule:nonzero;stroke:none;stroke-width:0.0150048"
       id="path206" />
    <path
       d="m 121.49269,111.53088 0.0932,-0.16161 -0.60064,-0.3469 v 0 l 0.6239,0.36026 c -0.002,0.004 -0.003,0.007 -0.005,0.0111 -0.0261,0.0561 -0.065,0.10248 -0.11148,0.13715"
       style="fill:#9f3f59;fill-opacity:1;fill-rule:nonzero;stroke:none;stroke-width:0.0150048"
       id="path268" />
    <path
       d="m 114.88068,155.54775 c -2.46304,-0.031 -4.9903,-0.05 -7.56197,-0.056 v -0.082 c 2.57107,0.006 5.09653,0.0244 7.56197,0.0548 v 0.0833"
       style="fill:#8e724b;fill-opacity:1;fill-rule:nonzero;stroke:none;stroke-width:0.0150048"
       id="path496" />
    <path
       d="m 114.88068,155.63088 c -2.46124,-0.0318 -4.98895,-0.0512 -7.56197,-0.0573 v -0.0818 c 2.57167,0.006 5.09893,0.0249 7.56197,0.056 v 0.0831"
       style="fill:#8e724b;fill-opacity:1;fill-rule:nonzero;stroke:none;stroke-width:0.0150048"
       id="path508" />
    <path
       d="m 114.88068,155.7137 h -0.0519 c -2.44474,-0.0321 -4.95173,-0.0519 -7.51005,-0.058 v -0.082 c 2.57302,0.006 5.10073,0.0255 7.56196,0.0573 v 0.0829"
       style="fill:#8e714a;fill-opacity:1;fill-rule:nonzero;stroke:none;stroke-width:0.0150048"
       id="path520" />
    <path
       d="m 118.49158,155.77207 c -0.0336,-4.2e-4 -0.0693,-8.9e-4 -0.10293,-0.002 l 0.0212,-0.0565 h 0.10429 l -0.0225,0.0584 m -1.12776,-0.0201 c -0.83547,-0.0142 -1.68354,-0.027 -2.53506,-0.0383 h 2.54947 l -0.0144,0.0383"
       style="fill:#8e714a;fill-opacity:1;fill-rule:nonzero;stroke:none;stroke-width:0.0150048"
       id="path522" />
    <path
       d="m 114.82876,155.7137 h -7.51005 v -0.058 c 2.55832,0.006 5.06532,0.026 7.51005,0.058"
       style="fill:#8c7149;fill-opacity:1;fill-rule:nonzero;stroke:none;stroke-width:0.0150048"
       id="path534" />
    <path
       d="m 118.45902,155.85655 c -0.0342,-8.5e-4 -0.0678,-8.9e-4 -0.10218,-0.002 l 0.0318,-0.0844 c 0.0336,4.3e-4 0.0693,8.9e-4 0.10293,0.002 l -0.0325,0.0844 m -1.12671,-0.0207 c -3.7677,-0.0656 -7.71336,-0.10038 -11.77516,-0.10038 -1.71235,0 -3.40414,0.006 -5.07012,0.0183 v -0.0401 h 14.34174 c 0.85152,0.0113 1.69959,0.024 2.53505,0.0383 l -0.0292,0.0776 c -8.5e-4,0.002 -0.002,0.004 -0.002,0.006"
       style="fill:#8c7149;fill-opacity:1;fill-rule:nonzero;stroke:none;stroke-width:0.0150048"
       id="path536" />
    <path
       d="m 118.42646,155.94102 c -0.0349,-8.4e-4 -0.0667,-8.9e-4 -0.10143,-0.002 l 0.0318,-0.0844 c 0.0344,4.3e-4 0.068,8.9e-4 0.10218,0.002 l -0.0325,0.0844 m -1.1231,-0.0211 c -3.75451,-0.0669 -7.68936,-0.10248 -11.74621,-0.10248 -1.71279,0 -3.40489,0.006 -5.07012,0.0186 v -0.0822 c 1.66598,-0.0122 3.35777,-0.0183 5.07012,-0.0183 4.0618,0 8.00746,0.0348 11.77516,0.10038 -0.01,0.0281 -0.0196,0.0561 -0.029,0.084"
       style="fill:#8d7049;fill-opacity:1;fill-rule:nonzero;stroke:none;stroke-width:0.0150048"
       id="path548" />
    <path
       d="m 118.3939,156.02535 c -0.0338,-4.2e-4 -0.0668,-8.9e-4 -0.10069,-0.002 l 0.0318,-0.0844 c 0.0348,8.5e-4 0.0667,8.9e-4 0.10143,0.002 l -0.0325,0.0844 m -1.11695,-0.0215 c -3.7407,-0.0684 -7.6682,-0.10473 -11.7198,-0.10473 -1.71445,0 -3.40474,0.006 -5.07012,0.0192 v -0.0824 c 1.66522,-0.0123 3.35733,-0.0186 5.07012,-0.0186 4.05685,0 7.9917,0.0356 11.74621,0.10248 -0.009,0.0281 -0.0179,0.0561 -0.0264,0.084"
       style="fill:#8b7048;fill-opacity:1;fill-rule:nonzero;stroke:none;stroke-width:0.0150048"
       id="path560" />
    <path
       d="m 118.36119,156.11013 c -0.0329,-4.2e-4 -0.0669,-8.8e-4 -0.0999,-0.002 l 0.0319,-0.0848 c 0.0339,4.2e-4 0.0669,8.9e-4 0.10068,0.002 l -0.0327,0.0848 m -1.10826,-0.0218 c -3.72734,-0.0701 -7.64839,-0.10729 -11.69578,-0.10729 -1.7152,0 -3.40549,0.006 -5.07013,0.0196 v -0.0824 c 1.66539,-0.0128 3.35567,-0.0192 5.07013,-0.0192 4.0516,0 7.9791,0.0364 11.71979,0.10473 -0.009,0.0282 -0.0165,0.0564 -0.024,0.0845"
       style="fill:#8b6f47;fill-opacity:1;fill-rule:nonzero;stroke:none;stroke-width:0.0150048"
       id="path572" />
    <path
       d="m 118.32848,156.19506 c -0.0332,-4.3e-4 -0.0652,-8.9e-4 -0.0984,-0.002 0.004,-0.01 0.007,-0.0199 0.0105,-0.03 l 0.0207,-0.0549 c 0.033,4.3e-4 0.0671,8.9e-4 0.0999,0.002 l -0.0327,0.0849 m -1.09716,-0.0222 c -3.71473,-0.0716 -7.62904,-0.10998 -11.67418,-0.10998 -1.71489,0 -3.40729,0.007 -5.07012,0.0204 v -0.0825 c 1.66463,-0.0131 3.35492,-0.0196 5.07012,-0.0196 4.04739,0 7.96845,0.0372 11.69579,0.10729 -0.008,0.0282 -0.0148,0.0564 -0.0216,0.0844"
       style="fill:#8a6f47;fill-opacity:1;fill-rule:nonzero;stroke:none;stroke-width:0.0150048"
       id="path586" />
    <path
       d="m 118.29561,156.28029 c -0.0309,-8.6e-4 -0.062,-8.9e-4 -0.0929,-0.002 0.009,-0.0284 0.0176,-0.0567 0.0273,-0.0851 0.0333,4.3e-4 0.0652,8.9e-4 0.0984,0.002 l -0.0329,0.0852 m -1.08334,-0.0227 c -3.70153,-0.0733 -7.61223,-0.11284 -11.65513,-0.11284 -1.7164,0 -3.40745,0.007 -5.07013,0.0209 v -0.0824 c 1.66283,-0.0135 3.35523,-0.0204 5.07013,-0.0204 4.04514,0 7.95945,0.0384 11.67418,0.10998 -0.007,0.0283 -0.0132,0.0565 -0.019,0.0848"
       style="fill:#8a6e48;fill-opacity:1;fill-rule:nonzero;stroke:none;stroke-width:0.0150048"
       id="path600" />
    <path
       d="m 118.26276,156.36551 c -0.0287,-4.2e-4 -0.0549,-8.9e-4 -0.0835,-0.002 0.007,-0.0284 0.0151,-0.057 0.0236,-0.0855 0.0309,8.5e-4 0.062,8.9e-4 0.0929,0.002 l -0.0328,0.0853 m -1.06715,-0.0228 c -3.68937,-0.0755 -7.59587,-0.11598 -11.63861,-0.11598 -1.71655,0 -3.40879,0.007 -5.06998,0.0215 v -0.0825 c 1.66269,-0.0137 3.35373,-0.0208 5.07013,-0.0208 4.04289,0 7.95359,0.0395 11.65512,0.11284 -0.006,0.0285 -0.0115,0.0569 -0.0167,0.0851"
       style="fill:#8a6e47;fill-opacity:1;fill-rule:nonzero;stroke:none;stroke-width:0.0150048"
       id="path614" />
    <path
       d="m 118.23065,156.45104 c -0.0242,-4.3e-4 -0.0471,-8.5e-4 -0.0713,-0.002 0.006,-0.0283 0.0126,-0.057 0.0198,-0.0857 0.0286,4.3e-4 0.0549,8.9e-4 0.0836,0.002 l -0.027,0.07 c 0,0 -0.002,0.005 -0.005,0.0156 m -1.04899,-0.0231 c -3.67752,-0.0776 -7.58042,-0.11929 -11.62451,-0.11929 -1.71805,0 -3.40955,0.007 -5.07013,0.0221 v -0.0825 c 1.66118,-0.0141 3.35343,-0.0214 5.06997,-0.0214 4.04275,0 7.94925,0.0404 11.63863,0.11599 -0.005,0.0285 -0.01,0.0569 -0.014,0.0852"
       style="fill:#896e46;fill-opacity:1;fill-rule:nonzero;stroke:none;stroke-width:0.0150048"
       id="path628" />
    <path
       d="m 118.20349,156.53702 c -0.0199,-4.2e-4 -0.0404,-8.5e-4 -0.0602,-8.9e-4 0.004,-0.0285 0.0101,-0.0573 0.016,-0.0863 0.0242,4.3e-4 0.0471,8.9e-4 0.0713,0.002 -0.005,0.0173 -0.0153,0.0476 -0.0272,0.086 m -1.03324,-0.0236 c -3.66536,-0.0798 -7.56676,-0.1229 -11.61311,-0.1229 -1.71909,0 -3.41044,0.008 -5.07012,0.0228 v -0.0827 c 1.66058,-0.0146 3.35208,-0.022 5.07012,-0.022 4.0441,0 7.947,0.0417 11.62452,0.11929 -0.004,0.0285 -0.008,0.0572 -0.0114,0.0855"
       style="fill:#896d46;fill-opacity:1;fill-rule:nonzero;stroke:none;stroke-width:0.0150048"
       id="path642" />
    <path
       d="m 118.17722,156.62315 c -0.0157,-4.3e-4 -0.0303,-8.6e-4 -0.046,-8.9e-4 0.004,-0.0285 0.007,-0.0572 0.0122,-0.0863 0.0198,4.2e-4 0.0402,8.5e-4 0.0602,8.9e-4 -0.008,0.0257 -0.017,0.0549 -0.0262,0.0861 m -1.01552,-0.024 c -3.65411,-0.0824 -7.55341,-0.12679 -11.60456,-0.12679 -1.71939,0 -3.41224,0.008 -5.07012,0.0236 v -0.0825 c 1.65968,-0.015 3.35103,-0.0228 5.07012,-0.0228 4.04635,0 7.94774,0.0431 11.61311,0.12289 -0.004,0.0287 -0.006,0.0572 -0.009,0.0857"
       style="fill:#886c45;fill-opacity:1;fill-rule:nonzero;stroke:none;stroke-width:0.0150048"
       id="path654" />
    <path
       d="m 118.15202,156.70973 c -0.009,-3.4e-4 -0.0201,-4.3e-4 -0.0288,-8.6e-4 0.002,-0.0287 0.004,-0.0576 0.008,-0.087 0.0157,4.3e-4 0.0303,8.5e-4 0.0461,8.9e-4 -0.008,0.0276 -0.0168,0.0567 -0.0252,0.0866 m -0.99602,-0.0245 c -3.64196,-0.0849 -7.54261,-0.13098 -11.59885,-0.13098 -1.72015,0 -3.4139,0.008 -5.07013,0.0243 v -0.0827 c 1.65788,-0.0156 3.35073,-0.0236 5.07013,-0.0236 4.05115,0 7.95045,0.0444 11.60455,0.12678 -0.003,0.0288 -0.004,0.0576 -0.005,0.0861"
       style="fill:#886c44;fill-opacity:1;fill-rule:nonzero;stroke:none;stroke-width:0.0150048"
       id="path666" />
    <path
       d="m 118.12832,156.7966 c -0.003,-1.1e-4 -0.005,-1.1e-4 -0.009,-3.3e-4 3.3e-4,-0.0285 0.002,-0.0576 0.004,-0.0874 0.009,1.2e-4 0.0203,4.3e-4 0.0288,8.5e-4 -0.008,0.0286 -0.016,0.0581 -0.0237,0.0868 m -0.97517,-0.0247 c -3.6298,-0.0879 -7.53256,-0.13565 -11.596,-0.13565 -1.72195,0 -3.41465,0.009 -5.07013,0.0251 v -0.0827 c 1.65623,-0.016 3.34997,-0.0243 5.07013,-0.0243 4.05625,0 7.95689,0.046 11.59886,0.13099 -0.002,0.0291 -0.003,0.058 -0.003,0.0866"
       style="fill:#876b43;fill-opacity:1;fill-rule:nonzero;stroke:none;stroke-width:0.0150048"
       id="path680" />
    <path
       d="m 117.15345,156.85902 c -3.61751,-0.0911 -7.52355,-0.14074 -11.59631,-0.14074 -1.72314,0 -3.41614,0.009 -5.07012,0.0259 v -0.083 c 1.65548,-0.0165 3.34818,-0.0251 5.07012,-0.0251 4.06345,0 7.96621,0.0477 11.59601,0.13565 -4.3e-4,0.0292 -3.4e-4,0.0584 3.4e-4,0.0872 m 0.96645,-0.0293 c -1e-4,-0.0111 -1e-4,-0.0222 -1e-4,-0.0334 0.003,1.1e-4 0.005,1.1e-4 0.009,3.3e-4 -0.003,0.0111 -0.005,0.0222 -0.009,0.0332"
       style="fill:#876b43;fill-opacity:1;fill-rule:nonzero;stroke:none;stroke-width:0.0150048"
       id="path694" />
    <path
       d="m 117.15721,156.94635 c -3.60551,-0.0947 -7.51516,-0.14645 -11.60007,-0.14645 -1.7248,0 -3.41749,0.009 -5.07012,0.027 v -0.0827 c 1.65398,-0.0171 3.34698,-0.026 5.07012,-0.026 4.07276,0 7.9788,0.0497 11.59631,0.14075 8.5e-4,0.0292 0.002,0.0585 0.004,0.0873"
       style="fill:#866a42;fill-opacity:1;fill-rule:nonzero;stroke:none;stroke-width:0.0150048"
       id="path708" />
    <path
       d="m 117.1644,157.03443 c -3.59229,-0.0984 -7.5087,-0.1526 -11.60726,-0.1526 -1.72629,0 -3.41929,0.01 -5.07012,0.0281 v -0.083 c 1.65263,-0.0177 3.34532,-0.027 5.07012,-0.027 4.08491,0 7.99456,0.0517 11.60007,0.14644 0.002,0.0296 0.004,0.0589 0.007,0.0881"
       style="fill:#866a41;fill-opacity:1;fill-rule:nonzero;stroke:none;stroke-width:0.0150048"
       id="path720" />
    <path
       d="m 117.17551,157.1231 c -3.57879,-0.10263 -7.5027,-0.15935 -11.61837,-0.15935 -1.72779,0 -3.4211,0.01 -5.07012,0.0292 v -0.0831 c 1.65083,-0.0185 3.34383,-0.0281 5.07012,-0.0281 4.09856,0 8.01497,0.0541 11.60726,0.15259 0.003,0.0299 0.007,0.0594 0.0111,0.0887"
       style="fill:#856940;fill-opacity:1;fill-rule:nonzero;stroke:none;stroke-width:0.0150048"
       id="path732" />
    <path
       d="m 117.19097,157.21253 c -3.56379,-0.10728 -7.49881,-0.16685 -11.63383,-0.16685 -1.72929,0 -3.4235,0.0105 -5.07012,0.0305 v -0.0831 c 1.64902,-0.0192 3.34233,-0.0292 5.07012,-0.0292 4.11567,0 8.03958,0.0567 11.61837,0.15936 0.004,0.0301 0.01,0.06 0.0155,0.0894"
       style="fill:#856741;fill-opacity:1;fill-rule:nonzero;stroke:none;stroke-width:0.0150048"
       id="path744" />
    <path
       d="m 118.34633,157.34112 c -0.006,-3.3e-4 -0.0131,-4.2e-4 -0.0192,-8.4e-4 -0.0384,-0.0205 -0.0635,-0.0438 -0.0804,-0.0635 0.0286,0.0237 0.0618,0.0458 0.0996,0.0642 m -1.13527,-0.0382 c -3.54787,-0.11254 -7.49519,-0.17526 -11.65392,-0.17526 -1.7317,0 -3.42545,0.0109 -5.07013,0.0316 v -0.0831 c 1.64664,-0.0199 3.34083,-0.0305 5.07013,-0.0305 4.13503,0 8.07003,0.0596 11.63382,0.16685 0.006,0.0306 0.0126,0.0606 0.0201,0.0903"
       style="fill:#856741;fill-opacity:1;fill-rule:nonzero;stroke:none;stroke-width:0.0150048"
       id="path756" />
    <path
       d="m 117.23657,157.39424 c -3.53032,-0.11839 -7.49249,-0.1847 -11.67943,-0.1847 -1.7335,0 -3.4283,0.0114 -5.07012,0.0331 v -0.0835 c 1.64468,-0.0207 3.33843,-0.0317 5.07012,-0.0317 4.15873,0 8.10605,0.0628 11.65393,0.17526 0.008,0.0309 0.0162,0.0615 0.0255,0.0914 m 1.34909,-8.4e-4 c -0.1229,0 -0.20407,-0.0238 -0.25854,-0.0532 0.006,3.4e-4 0.0131,4.3e-4 0.0192,8.6e-4 0.065,0.0315 0.1439,0.0523 0.23933,0.0523"
       style="fill:#846640;fill-opacity:1;fill-rule:nonzero;stroke:none;stroke-width:0.0150048"
       id="path768" />
    <path
       d="m 117.26824,157.48697 c -3.50977,-0.12499 -7.49144,-0.19551 -11.7111,-0.19551 -1.73545,0 -3.43159,0.012 -5.07012,0.0347 v -0.0835 c 1.64182,-0.0218 3.33662,-0.0332 5.07012,-0.0332 4.18694,0 8.1491,0.0663 11.67943,0.18471 0.01,0.0316 0.0203,0.0624 0.0316,0.0927"
       style="fill:#84653f;fill-opacity:1;fill-rule:nonzero;stroke:none;stroke-width:0.0150048"
       id="path780" />
    <path
       d="m 117.30725,157.58105 c -3.48652,-0.13249 -7.49085,-0.20781 -11.75011,-0.20781 -1.73845,0 -3.43445,0.0124 -5.07012,0.0364 v -0.0836 c 1.63853,-0.0227 3.33467,-0.0347 5.07012,-0.0347 4.21966,0 8.20133,0.0705 11.7111,0.19551 0.012,0.0319 0.0251,0.0633 0.039,0.0941"
       style="fill:#83653e;fill-opacity:1;fill-rule:nonzero;stroke:none;stroke-width:0.0150048"
       id="path788" />
    <path
       d="m 117.35542,157.67723 c -3.45876,-0.14104 -7.49144,-0.22191 -11.79843,-0.22191 -1.74115,0 -3.4382,0.0131 -5.06997,0.0383 v -0.0839 c 1.63567,-0.024 3.33167,-0.0365 5.07012,-0.0365 4.25926,0 8.26359,0.0754 11.75011,0.20782 0.015,0.0329 0.0309,0.065 0.0482,0.0962"
       style="fill:#83643e;fill-opacity:1;fill-rule:nonzero;stroke:none;stroke-width:0.0150048"
       id="path796" />
    <path
       d="m 117.41483,157.77581 c -3.42454,-0.1511 -7.49338,-0.23872 -11.85769,-0.23872 -1.7449,0 -3.44225,0.0139 -5.07012,0.0403 v -0.0839 c 1.63177,-0.0251 3.32882,-0.0383 5.06997,-0.0383 4.30699,0 8.33967,0.0809 11.79843,0.22192 0.0185,0.0339 0.0384,0.0667 0.0595,0.0986"
       style="fill:#82643d;fill-opacity:1;fill-rule:nonzero;stroke:none;stroke-width:0.0150048"
       id="path804" />
    <path
       d="m 117.49001,157.8777 c -3.38238,-0.1631 -7.49594,-0.25869 -11.93302,-0.25869 -1.74835,0 -3.44705,0.0148 -5.06997,0.0428 v -0.0844 c 1.62787,-0.0264 3.32522,-0.0403 5.07012,-0.0403 4.36431,0 8.43315,0.0876 11.85769,0.23873 0.006,0.009 0.0123,0.0183 0.0186,0.0273 0.0174,0.0244 0.0362,0.0495 0.0565,0.0746"
       style="fill:#82633c;fill-opacity:1;fill-rule:nonzero;stroke:none;stroke-width:0.0150048"
       id="path812" />
    <path
       d="m 117.58709,157.98423 c -3.32761,-0.1778 -7.49984,-0.28344 -12.02995,-0.28344 -1.75286,0 -3.4526,0.0159 -5.07012,0.0456 v -0.0846 c 1.62292,-0.0279 3.32162,-0.0428 5.06997,-0.0428 4.43708,0 8.55064,0.0956 11.93302,0.25869 0.029,0.0356 0.0612,0.0713 0.0971,0.10653"
       style="fill:#81623b;fill-opacity:1;fill-rule:nonzero;stroke:none;stroke-width:0.0150048"
       id="path820" />
    <path
       d="m 117.72018,158.09767 c -3.25304,-0.19611 -7.50764,-0.31495 -12.16304,-0.31495 -1.75795,0 -3.45905,0.017 -5.07012,0.0486 v -0.085 c 1.61752,-0.0297 3.31726,-0.0456 5.07012,-0.0456 4.53011,0 8.70234,0.10563 12.02995,0.28344 0.0397,0.0388 0.084,0.0772 0.13309,0.11344"
       style="fill:#81623a;fill-opacity:1;fill-rule:nonzero;stroke:none;stroke-width:0.0150048"
       id="path828" />
    <path
       d="m 117.9319,158.22386 c -3.14515,-0.22177 -7.52745,-0.35922 -12.37476,-0.35922 -1.7641,0 -3.46641,0.0183 -5.07012,0.0521 v -0.0854 c 1.61107,-0.0317 3.31217,-0.0486 5.07012,-0.0486 4.6554,0 8.91,0.11883 12.16304,0.31495 0.0624,0.046 0.13264,0.089 0.21172,0.12618"
       style="fill:#80623a;fill-opacity:1;fill-rule:nonzero;stroke:none;stroke-width:0.0150048"
       id="path836" />
    <path
       d="m 105.55714,160.26196 c -9.57036,0 -17.32934,-0.53747 -17.32934,-1.19919 0,-0.3136 1.739507,-0.59883 4.587417,-0.8122 0.07262,0.055 0.159801,0.0921 0.254631,0.10443 -2.285981,0.19251 -3.658319,0.43889 -3.658319,0.70777 0,0.61656 7.229011,1.11726 16.145611,1.11726 8.91705,0 16.14576,-0.5007 16.14576,-1.11726 0,-0.26678 -1.35132,-0.51151 -3.60625,-0.70342 h 0.48901 v 0 h 1.00382 c 2.07396,0.19747 3.29685,0.44039 3.29685,0.70342 0,0.66172 -7.75852,1.19919 -17.32919,1.19919 m -7.980752,-2.16984 c 0.01725,-0.0299 0.03181,-0.0615 0.04322,-0.0947 0.911542,-0.0325 1.870648,-0.0597 2.867412,-0.0807 v 0.086 c -1.019272,0.0233 -1.992782,0.0532 -2.910626,0.0894"
       style="fill:#1e3861;fill-opacity:1;fill-rule:nonzero;stroke:none;stroke-width:0.0150048"
       id="path840" />
    <path
       d="m 118.58566,158.35935 h -0.48901 c -2.96029,-0.25193 -7.47793,-0.41278 -12.53951,-0.41278 -1.77101,0 -3.47586,0.0196 -5.07012,0.0561 v -0.086 c 1.60371,-0.0338 3.30602,-0.0521 5.07012,-0.0521 4.84731,0 9.22961,0.13745 12.37476,0.35922 0.17301,0.0815 0.38803,0.1355 0.65376,0.1355"
       style="fill:#806139;fill-opacity:1;fill-rule:nonzero;stroke:none;stroke-width:0.0150048"
       id="path844" />
    <path
       d="m 105.55714,160.18003 c -8.9166,0 -16.145611,-0.5007 -16.145611,-1.11726 0,-0.26888 1.372338,-0.51526 3.658319,-0.70777 0.02266,0.003 0.04562,0.004 0.06902,0.004 h 1.445112 c -2.475191,0.18456 -3.988875,0.43154 -3.988875,0.70343 0,0.57123 6.699041,1.03533 14.962035,1.03533 8.2633,0 14.96204,-0.4641 14.96204,-1.03533 0,-0.27189 -1.51354,-0.51887 -3.98873,-0.70343 h 1.5662 c 2.25493,0.19191 3.60625,0.43664 3.60625,0.70343 0,0.61654 -7.22871,1.11726 -16.14576,1.11726 m -8.054277,-1.98935 c 0.02806,-0.0299 0.05282,-0.0628 0.07352,-0.0986 0.917843,-0.0362 1.891354,-0.0661 2.910627,-0.0894 v 0.0866 c -1.054832,0.0262 -2.054453,0.0604 -2.984151,0.10143"
       style="fill:#1f3761;fill-opacity:1;fill-rule:nonzero;stroke:none;stroke-width:0.0150048"
       id="path848" />
    <path
       d="m 118.09665,158.35935 h -1.5662 c -2.73267,-0.20362 -6.63737,-0.331 -10.97331,-0.331 -1.77986,0 -3.48682,0.0215 -5.07012,0.0609 v -0.0866 c 1.59426,-0.0365 3.29911,-0.0561 5.07012,-0.0561 5.06158,0 9.57922,0.16085 12.53951,0.41278"
       style="fill:#7f6039;fill-opacity:1;fill-rule:nonzero;stroke:none;stroke-width:0.0150048"
       id="path852" />
    <path
       d="m 105.55714,160.09811 c -8.262992,0 -14.962033,-0.4641 -14.962033,-1.03534 0,-0.27188 1.513684,-0.51886 3.988875,-0.70342 h 1.679937 c -2.756081,0.17406 -4.485234,0.42463 -4.485234,0.70342 0,0.52608 6.169223,0.95341 13.778455,0.95341 7.60969,0 13.77831,-0.42733 13.77831,-0.95341 0,-0.27879 -1.729,-0.52936 -4.48493,-0.70342 h 1.67993 c 2.47519,0.18456 3.98873,0.43154 3.98873,0.70342 0,0.57124 -6.69874,1.03534 -14.96204,1.03534 m -8.19292,-1.80133 c 0.05192,-0.0277 0.09858,-0.0636 0.138645,-0.10609 0.929698,-0.0411 1.929319,-0.0752 2.984155,-0.10143 v 0.0875 c -1.120409,0.0307 -2.168944,0.0711 -3.1228,0.12004"
       style="fill:#1f3661;fill-opacity:1;fill-rule:nonzero;stroke:none;stroke-width:0.0150048"
       id="path854" />
    <path
       d="m 116.53045,158.35935 h -1.67993 c -2.45013,-0.1547 -5.71204,-0.24908 -9.29338,-0.24908 -1.79037,0 -3.50092,0.0236 -5.07012,0.0665 v -0.0875 c 1.5833,-0.0395 3.29026,-0.0609 5.07012,-0.0609 4.33594,0 8.24064,0.12739 10.97331,0.33101"
       style="fill:#7f6039;fill-opacity:1;fill-rule:nonzero;stroke:none;stroke-width:0.0150048"
       id="path858" />
    <path
       d="m 105.55714,160.01618 c -7.609232,0 -13.778455,-0.42733 -13.778455,-0.95341 0,-0.27879 1.729153,-0.52936 4.485234,-0.70342 h 0.848671 c 0.09093,0 0.176606,-0.0227 0.25163,-0.0626 0.953856,-0.0489 2.002391,-0.0894 3.1228,-0.12004 v 0.0888 c -4.430768,0.13459 -7.524756,0.44068 -7.524756,0.7972 0,0.48091 5.639403,0.87148 12.594876,0.87148 6.95592,0 12.59488,-0.39057 12.59488,-0.87148 0,-0.28929 -2.0351,-0.54512 -5.1684,-0.70342 h 1.8669 c 2.75593,0.17405 4.48493,0.42463 4.48493,0.70342 0,0.52607 -6.16862,0.9534 -13.77831,0.9534"
       style="fill:#1f3660;fill-opacity:1;fill-rule:nonzero;stroke:none;stroke-width:0.0150048"
       id="path860" />
    <path
       d="m 114.85052,158.35935 h -1.8669 c -2.08222,-0.10519 -4.64953,-0.16715 -7.42648,-0.16715 -1.80387,0 -3.51878,0.0261 -5.07012,0.0733 v -0.0888 c 1.5692,-0.0429 3.27975,-0.0665 5.07012,-0.0665 3.58135,0 6.84325,0.0944 9.29338,0.24909"
       style="fill:#7e5f38;fill-opacity:1;fill-rule:nonzero;stroke:none;stroke-width:0.0150048"
       id="path864" />
    <path
       d="m 105.55714,159.93425 c -6.955473,0 -12.594876,-0.39057 -12.594876,-0.87148 0,-0.35651 3.093988,-0.66261 7.524756,-0.7972 v 0.0903 c -3.757952,0.12889 -6.341028,0.39672 -6.341028,0.70687 0,0.4356 5.109284,0.78971 11.411148,0.78971 6.30217,0 11.41115,-0.35411 11.41115,-0.78971 0,-0.30744 -2.53731,-0.57318 -6.24184,-0.70342 h 2.25717 c 3.1333,0.1583 5.1684,0.41414 5.1684,0.70342 0,0.48091 -5.63896,0.87148 -12.59488,0.87148"
       style="fill:#1f355f;fill-opacity:1;fill-rule:nonzero;stroke:none;stroke-width:0.0150048"
       id="path866" />
    <path
       d="m 112.98362,158.35935 h -2.25717 c -1.5518,-0.0545 -3.30871,-0.0852 -5.16931,-0.0852 -1.82128,0 -3.54263,0.0294 -5.07012,0.0818 v -0.0903 c 1.55134,-0.0473 3.26625,-0.0733 5.07012,-0.0733 2.77694,0 5.34426,0.062 7.42648,0.16716"
       style="fill:#7e5e37;fill-opacity:1;fill-rule:nonzero;stroke:none;stroke-width:0.0150048"
       id="path868" />
    <path
       d="m 105.55714,159.85248 c -6.301864,0 -11.411148,-0.35411 -11.411148,-0.78971 0,-0.31015 2.583076,-0.57798 6.341028,-0.70687 v 0.004 h 4.06315 c -5.175308,0.0349 -9.220599,0.33595 -9.220599,0.70342 0,0.39043 4.579462,0.70777 10.227569,0.70777 5.64856,0 10.22743,-0.31734 10.22743,-0.70777 0,-0.36747 -4.04485,-0.66846 -9.2206,-0.70342 h 4.16248 c 3.70453,0.13024 6.24184,0.39597 6.24184,0.70342 0,0.43558 -5.10898,0.7897 -11.41115,0.7897"
       style="fill:#1f345e;fill-opacity:1;fill-rule:nonzero;stroke:none;stroke-width:0.0150048"
       id="path870" />
    <path
       d="m 110.72645,158.35935 h -4.16248 c -0.33131,-0.002 -0.66696,-0.004 -1.00683,-0.004 -0.34001,0 -0.67551,8.5e-4 -1.00697,0.004 h -4.06315 v -0.004 c 1.52749,-0.0524 3.24884,-0.0818 5.07012,-0.0818 1.8606,0 3.61751,0.0307 5.16931,0.0852"
       style="fill:#7d5e36;fill-opacity:1;fill-rule:nonzero;stroke:none;stroke-width:0.0150048"
       id="path872" />
    <path
       d="m 105.55714,159.77055 c -5.648107,0 -10.227569,-0.31735 -10.227569,-0.70778 0,-0.36746 4.045291,-0.66846 9.220599,-0.70342 h 2.0138 c 5.17575,0.0349 9.22059,0.33596 9.22059,0.70342 0,0.39043 -4.57886,0.70778 -10.22742,0.70778 m 0,-1.33258 c -4.9945,0 -9.043991,0.2791 -9.043991,0.6248 0,0.34512 4.049491,0.626 9.043991,0.626 4.9948,0 9.04399,-0.28088 9.04399,-0.626 0,-0.3457 -4.04919,-0.6248 -9.04399,-0.6248"
       style="fill:#1f335d;fill-opacity:1;fill-rule:nonzero;stroke:none;stroke-width:0.0150048"
       id="path874" />
    <path
       d="m 106.56397,158.35935 h -2.0138 c 0.33146,-0.002 0.66696,-0.004 1.00697,-0.004 0.33987,0 0.67552,8.5e-4 1.00683,0.004"
       style="fill:#7c5d36;fill-opacity:1;fill-rule:nonzero;stroke:none;stroke-width:0.0150048"
       id="path876" />
    <path
       d="m 105.55714,159.68877 c -4.9945,0 -9.043991,-0.28088 -9.043991,-0.626 0,-0.3457 4.049491,-0.6248 9.043991,-0.6248 4.9948,0 9.04399,0.2791 9.04399,0.6248 0,0.34512 -4.04919,0.626 -9.04399,0.626"
       style="fill:#1f335c;fill-opacity:1;fill-rule:nonzero;stroke:none;stroke-width:0.0150048"
       id="path878" />
  </g>
</svg>
