<?xml version="1.0" encoding="UTF-8" standalone="no"?>
<svg
   xmlns:dc="http://purl.org/dc/elements/1.1/"
   xmlns:cc="http://creativecommons.org/ns#"
   xmlns:rdf="http://www.w3.org/1999/02/22-rdf-syntax-ns#"
   xmlns:svg="http://www.w3.org/2000/svg"
   xmlns="http://www.w3.org/2000/svg"
   xmlns:sodipodi="http://sodipodi.sourceforge.net/DTD/sodipodi-0.dtd"
   xmlns:inkscape="http://www.inkscape.org/namespaces/inkscape"
   width="61.824165mm"
   height="60.458549mm"
   viewBox="0 0 61.824165 60.458549"
   version="1.1"
   id="svg1034"
   inkscape:version="1.0.1 (3bc2e813f5, 2020-09-07)"
   sodipodi:docname="vials.svg"
   inkscape:export-filename="C:\Users\keega\Documents\cannlytics\assets\images\illustrations\multi-tone\vials.png"
   inkscape:export-xdpi="96"
   inkscape:export-ydpi="96">
  <defs
     id="defs1028" />
  <sodipodi:namedview
     id="base"
     pagecolor="#ffffff"
     bordercolor="#666666"
     borderopacity="1.0"
     inkscape:pageopacity="0.0"
     inkscape:pageshadow="2"
     inkscape:zoom="1.4"
     inkscape:cx="146.54485"
     inkscape:cy="80.556601"
     inkscape:document-units="mm"
     inkscape:current-layer="layer1"
     inkscape:document-rotation="0"
     showgrid="false"
     inkscape:window-width="1624"
     inkscape:window-height="997"
     inkscape:window-x="230"
     inkscape:window-y="94"
     inkscape:window-maximized="0" />
  <metadata
     id="metadata1031">
    <rdf:RDF>
      <cc:Work
         rdf:about="">
        <dc:format>image/svg+xml</dc:format>
        <dc:type
           rdf:resource="http://purl.org/dc/dcmitype/StillImage" />
        <dc:title></dc:title>
      </cc:Work>
    </rdf:RDF>
  </metadata>
  <g
     inkscape:label="Layer 1"
     inkscape:groupmode="layer"
     id="layer1"
     transform="translate(-75.677204,-103.57435)">
    <path
       d="m 124.1325,117.13957 c 1.26012,-0.20673 2.33398,0.86748 2.1269,2.12689 -0.12488,0.76341 -0.74013,1.37795 -1.50319,1.50354 -1.26012,0.20673 -2.33398,-0.86748 -2.12725,-2.1269 0.12524,-0.7627 0.74048,-1.3783 1.50354,-1.50353"
       style="fill:#8dd141;fill-opacity:1;fill-rule:nonzero;stroke:none;stroke-width:0.0352777"
       id="path82" />
    <path
       d="m 124.44471,117.34206 c -0.0907,0 -0.18274,0.008 -0.27517,0.0229 -0.66498,0.10866 -1.20579,0.64946 -1.31515,1.31516 -0.0861,0.52705 0.0773,1.04245 0.44944,1.41463 0.37253,0.37289 0.88794,0.53587 1.41534,0.4498 0.66534,-0.10866 1.2058,-0.64982 1.31516,-1.31516 0.0864,-0.52634 -0.0776,-1.04246 -0.4498,-1.41464 -0.30726,-0.30727 -0.7119,-0.47272 -1.13982,-0.47272 z m -0.003,3.683 c -0.54822,0 -1.0668,-0.21237 -1.46085,-0.60713 -0.47731,-0.47766 -0.68792,-1.13841 -0.57715,-1.81222 0.14041,-0.85584 0.83609,-1.55152 1.69157,-1.69157 l 0.037,0.22543 -0.037,-0.22543 c 0.67451,-0.11007 1.33491,0.0998 1.81222,0.5775 0.47766,0.47766 0.68792,1.13841 0.57715,1.81222 -0.14041,0.85548 -0.83573,1.55081 -1.69157,1.69227 -0.11783,0.0191 -0.23566,0.0289 -0.35137,0.0289"
       style="fill:#4ba946;fill-opacity:1;fill-rule:nonzero;stroke:none;stroke-width:0.0352777"
       id="path84" />
    <path
       d="m 126.69825,115.60287 c 0.54893,-0.0833 1.01459,0.38205 0.93063,0.93098 -0.0522,0.34254 -0.33161,0.62159 -0.6738,0.6738 -0.54893,0.085 -1.01495,-0.3817 -0.93063,-0.93063 0.0526,-0.34184 0.33161,-0.62159 0.6738,-0.67415"
       style="fill:#8dd141;fill-opacity:1;fill-rule:nonzero;stroke:none;stroke-width:0.0352777"
       id="path86" />
    <path
       d="m 126.73283,115.829 c -0.24271,0.0374 -0.44556,0.23988 -0.4826,0.48295 -0.0289,0.18873 0.031,0.37359 0.16369,0.50659 0.13299,0.13299 0.31714,0.19226 0.50694,0.16404 0.24236,-0.0381 0.4452,-0.2406 0.4826,-0.48331 0.0286,-0.18944 -0.031,-0.37324 -0.1644,-0.50694 -0.13264,-0.13229 -0.31714,-0.19226 -0.50623,-0.16333 z m 0.0928,1.61783 c -0.27553,0 -0.53693,-0.10759 -0.73484,-0.30515 -0.23671,-0.23777 -0.34325,-0.56444 -0.2921,-0.89923 0.0674,-0.44168 0.42333,-0.79728 0.86501,-0.86466 v 0 c 0.33338,-0.0526 0.66181,0.055 0.89853,0.2921 0.23706,0.23707 0.3436,0.56445 0.2928,0.89853 -0.0677,0.44168 -0.42369,0.79798 -0.86536,0.86536 -0.055,0.008 -0.11007,0.0131 -0.16404,0.0131"
       style="fill:#4ba946;fill-opacity:1;fill-rule:nonzero;stroke:none;stroke-width:0.0352777"
       id="path88" />
    <path
       d="m 125.08077,113.23502 c 0.30762,-0.0469 0.56867,0.21414 0.52176,0.52141 -0.0296,0.19226 -0.18627,0.34854 -0.37783,0.37747 -0.30762,0.0476 -0.56868,-0.21343 -0.52141,-0.52141 0.0293,-0.19155 0.18557,-0.34784 0.37748,-0.37747"
       style="fill:#8dd141;fill-opacity:1;fill-rule:nonzero;stroke:none;stroke-width:0.0352777"
       id="path90" />
    <path
       d="m 125.11534,113.4608 c -0.0938,0.0145 -0.17216,0.0924 -0.18662,0.18627 -0.0113,0.0741 0.012,0.14605 0.0635,0.19826 0.0519,0.0511 0.12382,0.0737 0.19791,0.0635 0.0935,-0.0152 0.1718,-0.0931 0.18662,-0.18698 0.0113,-0.0737 -0.012,-0.14605 -0.0635,-0.19755 -0.0519,-0.0519 -0.12383,-0.0744 -0.19791,-0.0635 z m 0.0363,0.90734 c -0.18097,0 -0.35207,-0.0702 -0.48225,-0.20037 -0.15592,-0.15558 -0.22577,-0.37077 -0.19191,-0.58985 0.0441,-0.28998 0.27764,-0.52423 0.56833,-0.56903 2.6e-4,0 2.6e-4,0 2.6e-4,0 0.22049,-0.0339 0.43427,0.037 0.58985,0.19226 0.15557,0.15558 0.22577,0.37077 0.19191,0.59055 -0.0444,0.28999 -0.2787,0.52423 -0.56903,0.56833 -0.0356,0.006 -0.0716,0.008 -0.10725,0.008"
       style="fill:#4ba946;fill-opacity:1;fill-rule:nonzero;stroke:none;stroke-width:0.0352777"
       id="path92" />
    <path
       d="m 122.53124,115.65755 c 0.30763,-0.0476 0.56903,0.21343 0.52176,0.5214 -0.0293,0.19156 -0.18627,0.3489 -0.37782,0.37783 -0.30763,0.0466 -0.56868,-0.21449 -0.52176,-0.52176 0.0296,-0.19156 0.18626,-0.34855 0.37782,-0.37747"
       style="fill:#8dd141;fill-opacity:1;fill-rule:nonzero;stroke:none;stroke-width:0.0352777"
       id="path94" />
    <path
       d="m 122.53124,115.65755 h 0.002 z m 0.0713,0.2226 c -0.012,0 -0.024,0.001 -0.0367,0.002 v 0 c -0.0935,0.0145 -0.1718,0.0931 -0.18626,0.18697 -0.0116,0.0737 0.0116,0.14605 0.0635,0.19756 0.0515,0.0519 0.12241,0.0744 0.19755,0.0635 0.0935,-0.0145 0.17251,-0.0931 0.18697,-0.18662 0.0109,-0.0737 -0.012,-0.14535 -0.0638,-0.19721 -0.043,-0.0434 -0.10054,-0.0667 -0.16122,-0.0667 z m -2.6e-4,0.91017 c -0.18063,0 -0.35208,-0.0698 -0.48225,-0.20003 -0.15558,-0.15557 -0.22578,-0.37042 -0.19226,-0.59055 0.0448,-0.28998 0.27904,-0.52423 0.56903,-0.56832 0.21943,-0.0339 0.43462,0.036 0.58984,0.19155 0.15593,0.15628 0.22613,0.37077 0.19226,0.59055 -0.0444,0.29069 -0.27834,0.52423 -0.56902,0.56833 -0.036,0.006 -0.072,0.008 -0.1076,0.008"
       style="fill:#4ba946;fill-opacity:1;fill-rule:nonzero;stroke:none;stroke-width:0.0352777"
       id="path96" />
    <path
       d="m 123.56664,109.75769 c 0.6597,-0.10125 1.22026,0.45896 1.11902,1.11901 -0.0631,0.41134 -0.39899,0.74719 -0.80998,0.81033 -0.66005,0.1009 -1.22026,-0.45896 -1.11936,-1.11901 0.0631,-0.41134 0.39934,-0.74753 0.81032,-0.81033"
       style="fill:#8dd141;fill-opacity:1;fill-rule:nonzero;stroke:none;stroke-width:0.0352777"
       id="path98" />
    <path
       d="m 123.56664,109.75769 h 0.002 z m 0.15382,0.21661 c -0.0392,0 -0.0794,0.003 -0.11924,0.009 v 0 c -0.31115,0.0476 -0.5715,0.30797 -0.61878,0.61912 -0.0374,0.24165 0.0392,0.47837 0.20955,0.64876 0.1704,0.17039 0.40782,0.24659 0.64876,0.2099 0.31115,-0.048 0.5715,-0.30833 0.61948,-0.61912 0.0367,-0.24201 -0.0395,-0.47837 -0.21025,-0.64876 -0.14217,-0.14252 -0.33056,-0.21907 -0.52952,-0.21907 z m -8e-4,1.95297 c -0.31891,0 -0.62159,-0.12382 -0.85055,-0.35313 -0.27446,-0.2741 -0.39793,-0.65334 -0.33866,-1.04069 0.078,-0.51118 0.49001,-0.92322 1.00154,-1.00154 0.38735,-0.0593 0.76693,0.0639 1.04104,0.33832 0.27446,0.27446 0.39758,0.65369 0.33832,1.04104 -0.078,0.51118 -0.49001,0.92322 -1.00154,1.00154 -0.0635,0.01 -0.12735,0.0145 -0.19015,0.0145"
       style="fill:#4ba946;fill-opacity:1;fill-rule:nonzero;stroke:none;stroke-width:0.0352777"
       id="path100" />
    <path
       d="m 89.786057,111.04286 c -0.462845,-0.0759 -0.856897,0.31856 -0.78105,0.7807 0.04586,0.2801 0.271992,0.50588 0.552097,0.55174 0.462139,0.0759 0.856545,-0.3182 0.780345,-0.78034 -0.04586,-0.28046 -0.271639,-0.50589 -0.551392,-0.5521"
       style="fill:#fae952;fill-opacity:1;fill-rule:nonzero;stroke:none;stroke-width:0.0352777"
       id="path102" />
    <path
       d="m 89.671757,111.26194 c -0.119239,0 -0.231775,0.0459 -0.316795,0.13123 -0.103011,0.10301 -0.148519,0.24694 -0.12453,0.3937 0.03034,0.1838 0.179917,0.33302 0.363714,0.36265 0.14605,0.0247 0.290336,-0.0208 0.3937,-0.12417 0.103011,-0.10337 0.148166,-0.2466 0.124178,-0.39335 -0.02999,-0.18415 -0.179212,-0.33338 -0.363362,-0.36371 -0.0254,-0.004 -0.05151,-0.006 -0.07691,-0.006 z m 0.0011,1.35113 c -0.0508,0 -0.1016,-0.004 -0.152753,-0.0123 -0.374297,-0.0614 -0.678744,-0.36583 -0.740127,-0.74013 -0.04833,-0.29387 0.04374,-0.58208 0.252236,-0.79058 0.208491,-0.20849 0.497416,-0.30021 0.790575,-0.25259 v 0 c 0.37465,0.0617 0.678744,0.36584 0.74048,0.74049 0.04833,0.29386 -0.04374,0.58208 -0.252589,0.79057 -0.172155,0.17216 -0.398638,0.26458 -0.637822,0.26458"
       style="fill:#f89e2a;fill-opacity:1;fill-rule:nonzero;stroke:none;stroke-width:0.0352777"
       id="path104" />
    <path
       d="m 91.787012,112.11178 c -1.23825,-0.20285 -2.293408,0.85231 -2.090208,2.09056 0.122414,0.74965 0.727781,1.35466 1.477081,1.47778 1.23825,0.2025 2.293761,-0.85231 2.090561,-2.09056 -0.122767,-0.75 -0.727781,-1.35466 -1.477434,-1.47778"
       style="fill:#fae952;fill-opacity:1;fill-rule:nonzero;stroke:none;stroke-width:0.0352777"
       id="path106" />
    <path
       d="m 91.480096,112.31568 c -0.419453,0 -0.816328,0.16193 -1.117247,0.46249 -0.364773,0.36513 -0.525639,0.87066 -0.440973,1.38677 0.106892,0.65264 0.637117,1.18251 1.289403,1.29011 0.516467,0.0847 1.021644,-0.0765 1.386769,-0.44097 0.365125,-0.36548 0.525639,-0.8703 0.440973,-1.38783 -0.106892,-0.65193 -0.637117,-1.1818 -1.28905,-1.28905 v 0 c -0.09031,-0.0148 -0.180623,-0.0215 -0.269875,-0.0215 z m 0.0028,3.61809 c -0.1143,0 -0.230011,-0.009 -0.345722,-0.0282 -0.843139,-0.13864 -1.527881,-0.82338 -1.665817,-1.66617 -0.109008,-0.66357 0.09807,-1.31374 0.568325,-1.78435 0.470606,-0.4699 1.120775,-0.67768 1.78435,-0.56868 v 0 c 0.842433,0.13829 1.527528,0.82374 1.665817,1.66617 0.109008,0.66358 -0.09842,1.3141 -0.568678,1.78471 -0.388056,0.3877 -0.898525,0.59654 -1.438275,0.59654"
       style="fill:#f89e2a;fill-opacity:1;fill-rule:nonzero;stroke:none;stroke-width:0.0352777"
       id="path108" />
    <path
       d="m 86.688668,112.00136 c -0.789869,-0.12947 -1.462617,0.54328 -1.333147,1.33279 0.07867,0.47802 0.463903,0.86395 0.942269,0.94262 0.789517,0.12947 1.462617,-0.54363 1.333148,-1.3335 -0.07867,-0.47801 -0.464256,-0.8636 -0.94227,-0.94191"
       style="fill:#fae952;fill-opacity:1;fill-rule:nonzero;stroke:none;stroke-width:0.0352777"
       id="path110" />
    <path
       d="m 86.493229,112.21408 c -0.245886,0 -0.478014,0.0942 -0.654403,0.27094 -0.213078,0.21378 -0.307622,0.50941 -0.25788,0.81244 0.06279,0.381 0.372533,0.69109 0.753886,0.75389 0.303036,0.0497 0.599017,-0.0441 0.812447,-0.25823 0.213431,-0.21379 0.307975,-0.50942 0.257881,-0.81245 -0.06244,-0.38135 -0.372181,-0.69145 -0.753534,-0.75353 v 0 c -0.05292,-0.009 -0.106538,-0.0131 -0.158397,-0.0131 z m 0.0018,2.30717 c -0.07691,0 -0.155928,-0.006 -0.234244,-0.0194 -0.57188,-0.0935 -1.036841,-0.5588 -1.13068,-1.13066 -0.07373,-0.44908 0.06703,-0.89076 0.385939,-1.20932 0.318911,-0.31891 0.760236,-0.46002 1.209675,-0.38594 v 0 c 0.571853,0.0938 1.036814,0.5588 1.130653,1.13101 0.07373,0.44979 -0.06703,0.89006 -0.385939,1.20932 -0.263173,0.26317 -0.6096,0.40499 -0.975431,0.40499"
       style="fill:#f89e2a;fill-opacity:1;fill-rule:nonzero;stroke:none;stroke-width:0.0352777"
       id="path112" />
    <path
       d="m 86.289676,107.35175 c -0.589138,-0.0903 -1.089025,0.40957 -0.999066,0.99871 0.05644,0.36689 0.356305,0.6671 0.723194,0.72319 0.589492,0.0903 1.089025,-0.40957 0.998714,-0.99871 -0.05644,-0.36689 -0.356305,-0.6671 -0.722842,-0.72319"
       style="fill:#fae952;fill-opacity:1;fill-rule:nonzero;stroke:none;stroke-width:0.0352777"
       id="path114" />
    <path
       d="m 86.152446,107.56941 c -0.17145,0 -0.333375,0.0663 -0.455789,0.18874 -0.14605,0.1464 -0.211667,0.3496 -0.18027,0.55774 0.04127,0.2674 0.264584,0.49071 0.531989,0.53163 0.208139,0.0314 0.411339,-0.0339 0.558095,-0.18027 0.146403,-0.1464 0.212372,-0.3496 0.180269,-0.55774 -0.04092,-0.26776 -0.264583,-0.49106 -0.531636,-0.53234 -0.03422,-0.005 -0.06879,-0.008 -0.102658,-0.008 z m 7.14e-4,1.74308 c -0.0575,0 -0.115358,-0.004 -0.173919,-0.0134 -0.466725,-0.0709 -0.842786,-0.44697 -0.9144,-0.91405 -0.05433,-0.35313 0.05856,-0.69956 0.30868,-0.95003 0.250825,-0.25047 0.596548,-0.36371 0.950737,-0.30903 v 0 c 0.466725,0.0713 0.842433,0.44732 0.914047,0.9144 0.05468,0.35348 -0.05856,0.69956 -0.308681,0.95003 -0.209197,0.2092 -0.485422,0.32208 -0.776464,0.32208"
       style="fill:#f89e2a;fill-opacity:1;fill-rule:nonzero;stroke:none;stroke-width:0.0352777"
       id="path116" />
    <path
       d="m 87.550504,103.80809 c -0.307975,-0.0466 -0.56903,0.21414 -0.521758,0.52176 0.02928,0.19191 0.185914,0.34819 0.377825,0.37783 0.307269,0.0469 0.568678,-0.21414 0.521405,-0.52141 -0.02963,-0.19191 -0.185913,-0.3489 -0.377472,-0.37818"
       style="fill:#fae952;fill-opacity:1;fill-rule:nonzero;stroke:none;stroke-width:0.0352777"
       id="path118" />
    <path
       d="m 87.479243,104.0314 c -0.06068,0 -0.118533,0.0229 -0.160867,0.0663 -0.05186,0.0519 -0.07514,0.12348 -0.06385,0.19756 0.01411,0.0938 0.09278,0.17216 0.186619,0.18662 0.07373,0.0116 0.14605,-0.012 0.197556,-0.0639 0.05151,-0.0512 0.07444,-0.12348 0.0635,-0.19756 -0.01411,-0.0938 -0.09243,-0.17215 -0.186267,-0.18662 -0.01235,-0.002 -0.02434,-0.002 -0.03669,-0.002 z m 3.44e-4,0.91017 c -0.03563,0 -0.07161,-0.003 -0.10795,-0.008 -0.289983,-0.0448 -0.524228,-0.27834 -0.569031,-0.56868 -0.03316,-0.21943 0.03669,-0.43462 0.192264,-0.5902 0.155575,-0.15557 0.371475,-0.22542 0.590197,-0.19226 v 0 c 0.290337,0.0448 0.524581,0.27869 0.568678,0.56903 0.03351,0.21943 -0.03634,0.43427 -0.192264,0.5902 -0.130175,0.12982 -0.300919,0.20002 -0.481894,0.20002"
       style="fill:#f89e2a;fill-opacity:1;fill-rule:nonzero;stroke:none;stroke-width:0.0352777"
       id="path120" />
    <path
       d="m 91.773607,108.68772 c -0.307622,-0.0469 -0.568678,0.21378 -0.521406,0.52175 0.02928,0.19121 0.185914,0.3482 0.377472,0.37748 0.307975,0.0473 0.568678,-0.21379 0.521759,-0.52141 -0.02893,-0.19156 -0.185914,-0.34854 -0.377825,-0.37782"
       style="fill:#fae952;fill-opacity:1;fill-rule:nonzero;stroke:none;stroke-width:0.0352777"
       id="path122" />
    <path
       d="m 91.702346,108.91067 c -0.06103,0 -0.117828,0.0233 -0.160867,0.0663 -0.0515,0.0519 -0.07479,0.12383 -0.0635,0.19756 0.01411,0.0938 0.09278,0.17251 0.186267,0.18662 0.07408,0.0113 0.14605,-0.0116 0.197555,-0.0635 0.05221,-0.0515 0.07514,-0.12383 0.06385,-0.19791 -0.01446,-0.0935 -0.09313,-0.1718 -0.186267,-0.18627 v 0 c -0.0127,-0.002 -0.02505,-0.003 -0.03704,-0.003 z m 3.44e-4,0.91052 c -0.03563,0 -0.07161,-0.003 -0.107597,-0.008 -0.290336,-0.0441 -0.524228,-0.27834 -0.568678,-0.56868 -0.03351,-0.21942 0.03634,-0.43427 0.191911,-0.58984 0.155575,-0.15593 0.371122,-0.22613 0.589844,-0.19227 0.290689,0.0444 0.524581,0.27799 0.568678,0.56904 0.03387,0.21907 -0.03598,0.43426 -0.191558,0.58984 -0.129822,0.12982 -0.301625,0.20038 -0.4826,0.20038"
       style="fill:#f89e2a;fill-opacity:1;fill-rule:nonzero;stroke:none;stroke-width:0.0352777"
       id="path124" />
    <path
       d="m 88.190443,115.74292 c -0.4191,-0.0794 -0.780344,0.28116 -0.700969,0.70061 0.0441,0.23354 0.23495,0.4244 0.468136,0.46779 0.4191,0.0801 0.780344,-0.28081 0.700969,-0.69991 -0.0441,-0.23425 -0.234597,-0.42439 -0.468136,-0.46849"
       style="fill:#fae952;fill-opacity:1;fill-rule:nonzero;stroke:none;stroke-width:0.0352777"
       id="path126" />
    <path
       d="m 88.074026,115.95988 c -0.09772,0 -0.189794,0.0381 -0.259644,0.10759 -0.08749,0.0875 -0.124178,0.20955 -0.100542,0.33408 0.02681,0.14147 0.144639,0.2593 0.286103,0.28611 0.124883,0.024 0.246239,-0.013 0.333728,-0.10054 0.08714,-0.0878 0.124178,-0.20885 0.100189,-0.33373 -0.02646,-0.14111 -0.143934,-0.25965 -0.286103,-0.28575 v 0 c -0.02469,-0.005 -0.04904,-0.008 -0.07373,-0.008 z m -0.0025,1.19133 c -0.05151,0 -0.10407,-0.005 -0.156986,-0.0152 -0.32632,-0.0621 -0.587375,-0.32315 -0.649817,-0.64982 -0.05115,-0.27129 0.03316,-0.54822 0.226836,-0.74119 0.192969,-0.19367 0.470606,-0.27763 0.741539,-0.22683 v 0 c 0.326672,0.0621 0.58808,0.32314 0.649464,0.64981 0.05186,0.27164 -0.03281,0.54857 -0.226131,0.74225 -0.155575,0.15557 -0.366536,0.24095 -0.584905,0.24095"
       style="fill:#f89e2a;fill-opacity:1;fill-rule:nonzero;stroke:none;stroke-width:0.0352777"
       id="path128" />
    <path
       d="m 90.114493,105.95933 c -0.659694,-0.1016 -1.219906,0.45897 -1.119011,1.11866 0.06315,0.41134 0.399344,0.74754 0.81033,0.81033 0.660048,0.1009 1.220259,-0.45896 1.119012,-1.11901 -0.06279,-0.41134 -0.398992,-0.74718 -0.810331,-0.80998"
       style="fill:#fae952;fill-opacity:1;fill-rule:nonzero;stroke:none;stroke-width:0.0352777"
       id="path130" />
    <path
       d="m 89.960682,106.17559 c -0.198967,0 -0.38735,0.0769 -0.52952,0.21907 -0.170391,0.17039 -0.246944,0.40675 -0.209902,0.64876 0.04763,0.31115 0.307975,0.5715 0.619125,0.61912 0.242358,0.0377 0.478366,-0.0395 0.648758,-0.2099 0.170392,-0.17039 0.246944,-0.4071 0.209903,-0.64876 -0.04763,-0.31115 -0.307975,-0.57114 -0.619125,-0.61912 -0.04022,-0.006 -0.07973,-0.009 -0.119239,-0.009 z m 7.14e-4,1.95297 c -0.06279,0 -0.126294,-0.005 -0.190147,-0.0145 -0.511175,-0.0783 -0.923219,-0.49001 -1.001536,-1.00154 -0.05927,-0.38735 0.06421,-0.76658 0.338667,-1.04105 0.274108,-0.2741 0.653697,-0.39828 1.040694,-0.33831 v 0 c 0.511175,0.0783 0.92322,0.49001 1.001536,1.00154 0.05927,0.38699 -0.06421,0.76658 -0.338314,1.04069 -0.228952,0.22931 -0.531636,0.35313 -0.8509,0.35313"
       style="fill:#f89e2a;fill-opacity:1;fill-rule:nonzero;stroke:none;stroke-width:0.0352777"
       id="path132" />
    <path
       d="m 87.717368,109.46912 c -0.299861,-0.0459 -0.554919,0.20884 -0.509058,0.5087 0.02893,0.18698 0.181328,0.33973 0.368653,0.36795 0.299508,0.0462 0.554213,-0.20849 0.507999,-0.50835 -0.02858,-0.18662 -0.180974,-0.33937 -0.367594,-0.3683"
       style="fill:#fae952;fill-opacity:1;fill-rule:nonzero;stroke:none;stroke-width:0.0352777"
       id="path134" />
    <path
       d="m 87.647165,109.69243 c -0.0575,0 -0.111477,0.0222 -0.152752,0.0631 -0.04868,0.049 -0.07091,0.11748 -0.06033,0.18768 0.01376,0.0875 0.08961,0.16334 0.177094,0.17674 0.0702,0.0113 0.138994,-0.0109 0.188031,-0.06 0.04868,-0.0494 0.07056,-0.11747 0.06033,-0.18803 -0.01341,-0.0875 -0.08961,-0.16334 -0.177095,-0.17709 -0.01199,-0.002 -0.02328,-0.002 -0.03528,-0.002 z m 7.15e-4,0.88759 c -0.03492,0 -0.07056,-0.003 -0.105481,-0.008 -0.28575,-0.0434 -0.516114,-0.27376 -0.559858,-0.5588 -0.03316,-0.2159 0.03598,-0.42757 0.189089,-0.58032 0.152752,-0.15311 0.363713,-0.22261 0.579966,-0.18874 h 3.44e-4 c 0.285397,0.0438 0.515409,0.27376 0.5588,0.55915 0.03316,0.21555 -0.03563,0.42722 -0.188736,0.58032 -0.127705,0.12771 -0.296686,0.19685 -0.474133,0.19685"
       style="fill:#f89e2a;fill-opacity:1;fill-rule:nonzero;stroke:none;stroke-width:0.0352777"
       id="path136" />
    <path
       d="m 108.48928,113.95575 c -0.55669,-0.0917 -1.03117,0.38276 -0.9398,0.93909 0.055,0.33761 0.32702,0.60889 0.66428,0.66463 0.55633,0.091 1.03081,-0.38311 0.93944,-0.9398 -0.055,-0.3369 -0.32702,-0.60889 -0.66392,-0.66392"
       style="fill:#f14e27;fill-opacity:1;fill-rule:nonzero;stroke:none;stroke-width:0.0352777"
       id="path138" />
    <path
       d="m 108.35169,114.1727 c -0.15592,0 -0.30268,0.06 -0.41381,0.17075 -0.13511,0.13582 -0.19473,0.32314 -0.16298,0.5147 0.0392,0.2406 0.2353,0.43603 0.47554,0.47625 0.19121,0.031 0.37924,-0.0282 0.51435,-0.16404 0.13512,-0.13441 0.19474,-0.32173 0.16299,-0.514 -0.0392,-0.24059 -0.23495,-0.43603 -0.47555,-0.47554 -0.0339,-0.005 -0.0674,-0.008 -0.10054,-0.008 z m 10e-4,1.62666 c -0.0582,0 -0.11677,-0.005 -0.17639,-0.0145 -0.43074,-0.0709 -0.78175,-0.42086 -0.85266,-0.85301 -0.055,-0.33902 0.0508,-0.67099 0.29139,-0.91158 0.23989,-0.23989 0.57221,-0.34572 0.91123,-0.28999 0.43109,0.0702 0.78176,0.42087 0.85266,0.85232 0.0554,0.33902 -0.0508,0.67098 -0.29069,0.91157 -0.19896,0.19826 -0.45966,0.30516 -0.73554,0.30516"
       style="fill:#c12f23;fill-opacity:1;fill-rule:nonzero;stroke:none;stroke-width:0.0352777"
       id="path140" />
    <path
       d="m 105.45503,114.78089 c -1.17827,-0.19261 -2.18228,0.81174 -1.98896,1.98932 0.11712,0.71402 0.69251,1.28905 1.40582,1.40617 1.17793,0.19297 2.18229,-0.81068 1.98861,-1.98896 -0.11677,-0.71402 -0.69215,-1.2894 -1.40547,-1.40653"
       style="fill:#f14e27;fill-opacity:1;fill-rule:nonzero;stroke:none;stroke-width:0.0352777"
       id="path142" />
    <path
       d="m 105.16293,114.9855 c -0.39616,0 -0.77081,0.15311 -1.05515,0.4378 -0.34467,0.34431 -0.49636,0.82197 -0.41664,1.30987 0.10125,0.61595 0.60184,1.11689 1.21779,1.21814 0.48754,0.0797 0.9652,-0.0723 1.31022,-0.41699 0.34467,-0.34431 0.49601,-0.82197 0.41593,-1.30986 -0.10055,-0.61595 -0.60149,-1.11689 -1.21709,-1.21744 v 0 c -0.0857,-0.0145 -0.17074,-0.0215 -0.25506,-0.0215 z m 0.003,3.44312 c -0.10971,0 -0.22013,-0.009 -0.33055,-0.0268 -0.8068,-0.133 -1.46226,-0.78811 -1.59455,-1.59421 -0.10408,-0.63535 0.0942,-1.25765 0.54398,-1.70744 0.44979,-0.45015 1.07244,-0.64841 1.70709,-0.54363 v 0 c 0.8068,0.13158 1.46226,0.7874 1.59455,1.59349 0.10408,0.63536 -0.0942,1.25766 -0.54398,1.70745 -0.37147,0.37147 -0.86007,0.57115 -1.37654,0.57115"
       style="fill:#c12f23;fill-opacity:1;fill-rule:nonzero;stroke:none;stroke-width:0.0352777"
       id="path144" />
    <path
       d="m 104.27993,109.51145 c -0.70873,-0.1083 -1.31057,0.49354 -1.20226,1.20262 0.0677,0.44168 0.42897,0.80257 0.87065,0.8703 0.70908,0.10866 1.31092,-0.49318 1.20227,-1.20226 -0.0674,-0.44168 -0.42863,-0.80292 -0.87066,-0.87066"
       style="fill:#f14e27;fill-opacity:1;fill-rule:nonzero;stroke:none;stroke-width:0.0352777"
       id="path146" />
    <path
       d="m 104.11448,109.7277 c -0.21802,0 -0.42439,0.084 -0.58067,0.23989 -0.18698,0.18698 -0.27094,0.44662 -0.23037,0.71191 0.0526,0.34114 0.33796,0.62724 0.6791,0.6791 0.26529,0.0402 0.52458,-0.043 0.71226,-0.23001 0.18662,-0.18698 0.27093,-0.44627 0.23036,-0.71191 -0.0526,-0.34114 -0.33796,-0.62689 -0.67945,-0.6791 v 0 c -0.0444,-0.007 -0.0882,-0.01 -0.13123,-0.01 z m 0.001,2.09797 c -0.0667,0 -0.13406,-0.005 -0.20179,-0.0155 -0.54222,-0.0829 -0.97896,-0.51929 -1.06186,-1.06151 -0.0628,-0.41063 0.0681,-0.81315 0.35913,-1.10419 0.29068,-0.29034 0.69321,-0.42157 1.10384,-0.35842 v 0 c 0.54187,0.0829 0.97825,0.51964 1.06151,1.0615 0.0631,0.41099 -0.0677,0.81316 -0.35878,1.10385 -0.24306,0.24306 -0.56374,0.37429 -0.90205,0.37429"
       style="fill:#c12f23;fill-opacity:1;fill-rule:nonzero;stroke:none;stroke-width:0.0352777"
       id="path148" />
    <path
       d="m 105.24972,106.3421 c -0.37007,-0.0572 -0.68439,0.25717 -0.62759,0.62759 0.0353,0.23071 0.22401,0.41945 0.45473,0.45473 0.37041,0.0568 0.68474,-0.25753 0.62759,-0.62795 -0.0353,-0.23071 -0.22366,-0.4191 -0.45473,-0.45437"
       style="fill:#f14e27;fill-opacity:1;fill-rule:nonzero;stroke:none;stroke-width:0.0352777"
       id="path150" />
    <path
       d="m 105.16364,106.56364 c -0.085,0 -0.16545,0.0328 -0.22613,0.0935 -0.073,0.073 -0.10583,0.17427 -0.0896,0.27799 0.0201,0.13229 0.13123,0.24341 0.26352,0.26352 0.10407,0.0155 0.20497,-0.0166 0.27764,-0.0896 0.073,-0.0727 0.10583,-0.17427 0.0896,-0.27798 -0.0198,-0.1323 -0.13088,-0.24342 -0.26317,-0.26318 v 0 c -0.0177,-0.003 -0.0346,-0.004 -0.0519,-0.004 z m 7.9e-4,1.09573 c -0.0402,0 -0.0811,-0.003 -0.12206,-0.009 -0.32984,-0.0504 -0.59513,-0.31574 -0.64593,-0.64594 -0.0385,-0.24906 0.0413,-0.49318 0.21837,-0.67028 0.17639,-0.17674 0.42157,-0.25646 0.67027,-0.21766 0.3295,0.0501 0.59514,0.31574 0.64559,0.64523 0.0384,0.24942 -0.0416,0.49389 -0.21802,0.67028 -0.14746,0.14817 -0.34254,0.22754 -0.54822,0.22754"
       style="fill:#c12f23;fill-opacity:1;fill-rule:nonzero;stroke:none;stroke-width:0.0352777"
       id="path152" />
    <path
       d="m 109.34053,110.95467 c -0.75212,-0.11501 -1.39065,0.52352 -1.27565,1.27599 0.072,0.46849 0.45474,0.85126 0.92358,0.92358 0.75282,0.115 1.391,-0.52353 1.27599,-1.27565 -0.072,-0.46884 -0.45473,-0.85196 -0.92392,-0.92392"
       style="fill:#f14e27;fill-opacity:1;fill-rule:nonzero;stroke:none;stroke-width:0.0352777"
       id="path154" />
    <path
       d="m 109.1652,111.16951 c -0.23531,0 -0.45791,0.091 -0.62583,0.25929 -0.20179,0.20144 -0.29245,0.48119 -0.24835,0.76694 0.0561,0.3683 0.36406,0.67663 0.73236,0.73236 0.28575,0.0441 0.5655,-0.0466 0.76729,-0.24765 0.20109,-0.20143 0.29175,-0.48154 0.24801,-0.76729 -0.0564,-0.3683 -0.36442,-0.67627 -0.73272,-0.73272 -0.0469,-0.007 -0.0945,-0.0109 -0.14076,-0.0109 z m 7.9e-4,2.22744 c -0.0698,0 -0.14076,-0.006 -0.21202,-0.0166 -0.56938,-0.0875 -1.02764,-0.5461 -1.11477,-1.11549 -0.066,-0.43109 0.0713,-0.85337 0.37676,-1.15923 0.30551,-0.3055 0.72849,-0.44308 1.15958,-0.37641 v 0 c 0.56903,0.0871 1.02764,0.54539 1.11478,1.11478 0.066,0.43109 -0.0716,0.85407 -0.37676,1.15923 -0.25542,0.25576 -0.59197,0.3937 -0.94757,0.3937"
       style="fill:#c12f23;fill-opacity:1;fill-rule:nonzero;stroke:none;stroke-width:0.0352777"
       id="path156" />
    <path
       d="m 106.56875,119.61324 c -0.50517,-0.096 -0.9398,0.33902 -0.84419,0.84385 0.0533,0.28116 0.28292,0.51082 0.56338,0.56374 0.50518,0.0956 0.9398,-0.33832 0.84385,-0.8442 -0.0529,-0.28116 -0.28222,-0.50976 -0.56304,-0.56339"
       style="fill:#f14e27;fill-opacity:1;fill-rule:nonzero;stroke:none;stroke-width:0.0352777"
       id="path158" />
    <path
       d="m 106.42799,119.82879 c -0.12946,0 -0.25188,0.0497 -0.34501,0.14323 -0.11677,0.11571 -0.1651,0.27763 -0.1337,0.44309 0.0353,0.18803 0.19226,0.34537 0.38135,0.381 0.1658,0.0318 0.32667,-0.0173 0.44309,-0.13371 0.11606,-0.11641 0.16545,-0.27763 0.13405,-0.44308 -0.036,-0.18874 -0.19261,-0.34573 -0.38135,-0.38171 h -2.7e-4 c -0.0325,-0.006 -0.0656,-0.009 -0.0981,-0.009 z m -0.002,1.43298 c -0.06,0 -0.12029,-0.005 -0.18027,-0.0169 -0.375,-0.0706 -0.67415,-0.37006 -0.74541,-0.74506 -0.0589,-0.31115 0.0381,-0.62971 0.25964,-0.85161 0.2219,-0.22119 0.5401,-0.3182 0.85125,-0.25894 0.37465,0.0709 0.67416,0.37007 0.74542,0.74472 0.0589,0.3122 -0.0381,0.63041 -0.25964,0.8516 -0.17886,0.17851 -0.42051,0.27623 -0.67099,0.27623"
       style="fill:#c12f23;fill-opacity:1;fill-rule:nonzero;stroke:none;stroke-width:0.0352777"
       id="path160" />
    <path
       d="m 107.94882,106.97463 c -0.57891,-0.0889 -1.07103,0.40287 -0.98213,0.98178 0.0554,0.36089 0.34995,0.65581 0.71084,0.71084 0.57926,0.0885 1.07069,-0.40287 0.98143,-0.98178 -0.0547,-0.36053 -0.3496,-0.65581 -0.71014,-0.71084"
       style="fill:#f14e27;fill-opacity:1;fill-rule:nonzero;stroke:none;stroke-width:0.0352777"
       id="path162" />
    <path
       d="m 107.81371,107.19264 c -0.16722,0 -0.32527,0.0646 -0.44486,0.18415 -0.14322,0.14323 -0.20743,0.34149 -0.17638,0.54505 0.0402,0.26105 0.25858,0.47977 0.51964,0.51999 0.20284,0.0303 0.40216,-0.0335 0.54539,-0.17674 0.14288,-0.14323 0.20743,-0.34184 0.17604,-0.54504 -0.0399,-0.26106 -0.25824,-0.47978 -0.51965,-0.51965 v 0 c -0.0339,-0.006 -0.067,-0.008 -0.10018,-0.008 z m 2.6e-4,1.7138 c -0.0564,0 -0.11359,-0.005 -0.1711,-0.0134 -0.46072,-0.0705 -0.83185,-0.44168 -0.90205,-0.90205 -0.0533,-0.34855 0.0575,-0.69039 0.3048,-0.93733 0.2473,-0.2473 0.58914,-0.35807 0.93733,-0.3048 v 0 c 0.46073,0.0705 0.83185,0.44132 0.90205,0.90205 0.0536,0.34855 -0.0575,0.69003 -0.30444,0.93698 -0.20638,0.20673 -0.47907,0.31856 -0.76659,0.31856"
       style="fill:#c12f23;fill-opacity:1;fill-rule:nonzero;stroke:none;stroke-width:0.0352777"
       id="path164" />
    <path
       d="m 105.99867,112.06098 c -0.3609,-0.0554 -0.66746,0.25117 -0.61208,0.61207 0.0342,0.22507 0.21802,0.40887 0.44309,0.44344 0.3609,0.055 0.66746,-0.25153 0.61207,-0.61242 -0.0346,-0.22472 -0.21801,-0.40852 -0.44308,-0.44309"
       style="fill:#f14e27;fill-opacity:1;fill-rule:nonzero;stroke:none;stroke-width:0.0352777"
       id="path166" />
    <path
       d="m 105.91506,112.28323 c -0.0822,0 -0.15911,0.0314 -0.21732,0.0896 -0.0695,0.0692 -0.10089,0.16651 -0.0857,0.266 0.0194,0.12629 0.12559,0.23212 0.25224,0.25153 0.0991,0.0152 0.1965,-0.0159 0.266,-0.0857 0.0699,-0.0695 0.10089,-0.16651 0.0857,-0.26564 -0.0194,-0.127 -0.12524,-0.23283 -0.25154,-0.25188 h -2.6e-4 c -0.0166,-0.003 -0.0328,-0.004 -0.049,-0.004 z m 0,1.06821 c -0.0395,0 -0.0794,-0.003 -0.11995,-0.01 -0.32385,-0.0494 -0.5849,-0.31009 -0.63429,-0.63394 -0.0378,-0.24483 0.0406,-0.48472 0.21413,-0.65828 0.17357,-0.17322 0.41346,-0.25224 0.65793,-0.21414 0.32421,0.0494 0.58526,0.31044 0.63465,0.63465 0.0374,0.24447 -0.0406,0.48471 -0.21414,0.65828 -0.14534,0.14464 -0.33655,0.22331 -0.53833,0.22331"
       style="fill:#c12f23;fill-opacity:1;fill-rule:nonzero;stroke:none;stroke-width:0.0352777"
       id="path168" />
    <path
       d="m 93.387565,122.95899 h -9.432219 c -0.340431,0 -0.616656,0.27552 -0.616656,0.61595 v 0.73942 c 0,0.34043 0.276225,0.61665 0.616656,0.61665 h 0.786694 v 30.02069 c 0,2.11102 1.687689,3.82446 3.786717,3.87279 v 0 c 0.03069,8e-4 0.06068,0.005 0.09102,0.005 2.142066,0 3.878086,-1.73637 3.878086,-3.87773 v -30.02065 h 0.889705 c 0.340431,0 0.616656,-0.27622 0.616656,-0.61665 v -0.73942 c 0,-0.34043 -0.276225,-0.61595 -0.616656,-0.61595"
       style="fill:#ffffff;fill-opacity:1;fill-rule:nonzero;stroke:none;stroke-width:0.0352777"
       id="path170" />
    <path
       d="m 83.955346,123.48322 c -0.05045,0 -0.09208,0.0416 -0.09208,0.0917 v 0.73942 c 0,0.0501 0.04163,0.0917 0.09208,0.0917 h 1.311275 v 30.54561 c 0,1.80446 1.468967,3.30659 3.274483,3.34857 0.02187,7.9e-4 0.0441,0.002 0.06632,0.003 7.15e-4,0 0.0014,0 0.0021,0 1.860197,0 3.363383,-1.50389 3.363383,-3.35174 v -30.54564 h 1.414639 c 0.05045,0 0.09172,-0.0416 0.09172,-0.0917 v -0.73942 c 0,-0.0501 -0.04127,-0.0917 -0.09172,-0.0917 z m 4.664428,35.87044 c -0.02928,0 -0.05786,-0.001 -0.08678,-0.004 -2.386894,-0.0557 -4.315883,-2.02918 -4.315883,-4.39843 v -29.49649 h -0.261765 c -0.629356,0 -1.141236,-0.51188 -1.141236,-1.14088 v -0.73942 c 0,-0.62901 0.51188,-1.14089 1.141236,-1.14089 h 9.432219 c 0.629356,0 1.141236,0.51188 1.141236,1.14089 v 0.73942 c 0,0.629 -0.51188,1.14088 -1.141236,1.14088 H 93.02244 v 29.49646 c 0,2.42711 -1.97485,4.40196 -4.402666,4.40196"
       style="fill:#469edd;fill-opacity:1;fill-rule:nonzero;stroke:none;stroke-width:0.0352777"
       id="path172" />
    <path
       d="m 85.993343,143.82403 v 10.64577 c 0,1.59244 1.143353,2.88502 2.565047,2.92241 v 0 c 0.02082,0 0.04092,0.003 0.06138,0.003 1.450975,0 2.62643,-1.30986 2.62643,-2.92558 v -10.6458 h -5.252861"
       style="fill:#fae952;fill-opacity:1;fill-rule:nonzero;stroke:none;stroke-width:0.0352777"
       id="path174" />
    <path
       d="m 86.22159,144.05192 v 10.41788 c 0,1.45204 1.050925,2.6603 2.342797,2.69346 l 0.03951,0.002 c 7.14e-4,0 0.0011,0 0.0018,0 1.337734,0 2.412295,-1.20861 2.412295,-2.69557 v -10.41787 z m 2.398184,13.57172 c -0.01764,0 -0.03457,-8e-4 -0.05221,-0.002 -1.578327,-0.042 -2.802466,-1.42487 -2.802466,-3.15172 v -10.87474 h 5.710061 v 10.87472 c 0,1.7392 -1.280936,3.15384 -2.855383,3.15384"
       style="fill:#f89e2a;fill-opacity:1;fill-rule:nonzero;stroke:none;stroke-width:0.0352777"
       id="path176" />
    <path
       d="m 111.49847,122.95899 h -9.43187 c -0.34043,0 -0.61665,0.27552 -0.61665,0.61595 v 0.73942 c 0,0.34043 0.27622,0.61665 0.61665,0.61665 h 0.78634 v 30.02069 c 0,2.11102 1.68769,3.82446 3.78743,3.87279 v 0 c 0.03,8e-4 0.06,0.005 0.0907,0.005 2.14171,0 3.87773,-1.73637 3.87773,-3.87773 v -30.02065 h 0.8897 c 0.34044,0 0.61631,-0.27622 0.61631,-0.61665 v -0.73942 c 0,-0.34043 -0.27587,-0.61595 -0.61631,-0.61595"
       style="fill:#ffffff;fill-opacity:1;fill-rule:nonzero;stroke:none;stroke-width:0.0352777"
       id="path178" />
    <path
       d="m 102.0666,123.48322 c -0.0508,0 -0.0917,0.0416 -0.0917,0.0917 v 0.73942 c 0,0.0501 0.0409,0.0917 0.0917,0.0917 h 1.31128 v 30.54561 c 0,1.80446 1.46861,3.30659 3.27448,3.34857 0.0215,7.9e-4 0.0438,0.002 0.066,0.003 7.9e-4,0 10e-4,0 0.002,0 1.86091,0 3.36444,-1.50389 3.36444,-3.35174 v -30.54564 h 1.41394 c 0.0504,0 0.0921,-0.0416 0.0921,-0.0917 v -0.73942 c 0,-0.0501 -0.0416,-0.0917 -0.0921,-0.0917 z m 4.66443,35.87044 c -0.0293,0 -0.0582,-0.001 -0.0868,-0.004 -2.38725,-0.0557 -4.31588,-2.02847 -4.31588,-4.39843 v -29.49649 h -0.26177 c -0.62935,0 -1.14123,-0.51188 -1.14123,-1.14088 v -0.73942 c 0,-0.62901 0.51188,-1.14089 1.14123,-1.14089 h 9.43187 c 0.62936,0 1.14124,0.51188 1.14124,1.14089 v 0.73942 c 0,0.629 -0.51188,1.14088 -1.14124,1.14088 h -0.36477 v 29.49646 c 0,2.42711 -1.97521,4.40196 -4.40267,4.40196"
       style="fill:#469edd;fill-opacity:1;fill-rule:nonzero;stroke:none;stroke-width:0.0352777"
       id="path180" />
    <path
       d="m 104.29687,135.00776 v 19.6977 c 0,1.43686 1.05974,2.60244 2.37701,2.63631 v 0 c 0.0191,0 0.0378,0.003 0.0572,0.003 1.34409,0 2.43346,-1.18181 2.43346,-2.63913 v -19.6977 h -4.86762"
       style="fill:#f14e27;fill-opacity:1;fill-rule:nonzero;stroke:none;stroke-width:0.0352777"
       id="path182" />
    <path
       d="m 104.52582,135.23671 v 19.46875 c 0,1.29752 0.9659,2.37807 2.15406,2.40735 l 0.0378,0.002 c 2.6e-4,0 7.9e-4,0 0.001,0 1.22872,0 2.21721,-1.08091 2.21721,-2.40947 v -19.46873 z m 2.20521,22.33648 c -0.0166,0 -0.0332,-0.001 -0.049,-0.003 -1.47108,-0.037 -2.61302,-1.2954 -2.61302,-2.86491 v -19.6977 c 0,-0.12594 0.10195,-0.2286 0.22825,-0.2286 h 4.86727 c 0.12665,0 0.2286,0.10266 0.2286,0.2286 v 19.6977 c 0,1.5815 -1.19415,2.86773 -2.66206,2.86773"
       style="fill:#c12f23;fill-opacity:1;fill-rule:nonzero;stroke:none;stroke-width:0.0352777"
       id="path184" />
    <path
       d="m 129.60938,122.95899 h -9.43187 c -0.34043,0 -0.6163,0.27552 -0.6163,0.61595 v 0.73942 c 0,0.34043 0.27587,0.61665 0.6163,0.61665 h 0.78634 v 30.02069 c 0,2.11102 1.68804,3.82446 3.78707,3.87279 v 0 c 0.0307,8e-4 0.0603,0.005 0.091,0.005 2.14171,0 3.87808,-1.73637 3.87808,-3.87773 v -30.02065 h 0.88936 c 0.34078,0 0.61665,-0.27622 0.61665,-0.61665 v -0.73942 c 0,-0.34043 -0.27587,-0.61595 -0.61665,-0.61595"
       style="fill:#ffffff;fill-opacity:1;fill-rule:nonzero;stroke:none;stroke-width:0.0352777"
       id="path186" />
    <path
       d="m 120.17751,123.48322 c -0.0504,0 -0.0914,0.0416 -0.0914,0.0917 v 0.73942 c 0,0.0501 0.0409,0.0917 0.0914,0.0917 h 1.31092 v 30.54561 c 0,1.80446 1.46932,3.30659 3.27484,3.34857 0.0215,7.9e-4 0.0441,0.002 0.066,0.003 7.9e-4,0 0.001,0 0.002,0 1.8609,0 3.36374,-1.50389 3.36374,-3.35174 v -30.54564 h 1.41428 c 0.0508,0 0.0917,-0.0416 0.0917,-0.0917 v -0.73942 c 0,-0.0501 -0.0409,-0.0917 -0.0917,-0.0917 z m 4.66443,35.87044 c -0.0293,0 -0.0578,-0.001 -0.0868,-0.004 -2.38725,-0.0557 -4.31589,-2.02918 -4.31589,-4.39843 v -29.49649 h -0.26176 c -0.629,0 -1.14088,-0.51188 -1.14088,-1.14088 v -0.73942 c 0,-0.62901 0.51188,-1.14089 1.14088,-1.14089 h 9.43187 c 0.62935,0 1.14123,0.51188 1.14123,1.14089 v 0.73942 c 0,0.629 -0.51188,1.14088 -1.14123,1.14088 h -0.36477 v 29.49646 c 0,2.42711 -1.97521,4.40196 -4.40267,4.40196"
       style="fill:#469edd;fill-opacity:1;fill-rule:nonzero;stroke:none;stroke-width:0.0352777"
       id="path188" />
    <path
       d="m 122.09627,143.82403 v 10.27924 c 0,1.68416 1.21779,3.05117 2.73191,3.08962 v 0 c 0.0219,8e-4 0.043,0.004 0.0653,0.004 1.54481,0 2.79717,-1.38571 2.79717,-3.09386 v -10.27924 h -5.59435"
       style="fill:#8dd141;fill-opacity:1;fill-rule:nonzero;stroke:none;stroke-width:0.0352777"
       id="path190" />
    <path
       d="m 122.32522,144.05192 v 10.05135 c 0,1.54199 1.12501,2.82575 2.5086,2.86173 l 0.0409,0.002 c 8e-4,0 0.001,0 0.002,0 1.43405,0 2.58516,-1.28482 2.58516,-2.86349 v -10.0514 z m 2.56822,13.3731 c -0.018,0 -0.036,-7.9e-4 -0.0533,-0.002 -1.67464,-0.0441 -2.97215,-1.50177 -2.97215,-3.31964 v -10.27924 c 0,-0.12629 0.1023,-0.22895 0.22825,-0.22895 h 5.59435 c 0.12594,0 0.22824,0.10266 0.22824,0.22895 v 10.27924 c 0,1.83163 -1.35678,3.32176 -3.02542,3.32176"
       style="fill:#4ba946;fill-opacity:1;fill-rule:nonzero;stroke:none;stroke-width:0.0352777"
       id="path192" />
    <path
       d="m 135.63799,130.66718 c 0,0.47131 -0.41416,0.85372 -0.92498,0.85372 H 78.17353 c -0.511105,0 -0.92523,-0.38241 -0.92523,-0.85372 v -0.24341 c 0,-0.47132 0.414125,-0.85302 0.92523,-0.85302 h 56.53948 c 0.51082,0 0.92498,0.3817 0.92498,0.85302 v 0.24341"
       style="fill:#4c4564;fill-opacity:1;fill-rule:nonzero;stroke:none;stroke-width:0.0352777"
       id="path194" />
    <path
       d="m 81.366662,162.56782 h -1.571977 v -32.02199 h 1.571977 v 32.02199"
       style="fill:#4c4564;fill-opacity:1;fill-rule:nonzero;stroke:none;stroke-width:0.0352777"
       id="path196" />
    <path
       d="m 133.38374,162.56782 h -1.57162 v -32.02199 h 1.57162 v 32.02199"
       style="fill:#4c4564;fill-opacity:1;fill-rule:nonzero;stroke:none;stroke-width:0.0352777"
       id="path198" />
    <path
       d="m 137.50137,163.17918 c 0,0.47202 -0.41417,0.85372 -0.92499,0.85372 H 76.602011 c -0.510717,0 -0.924807,-0.3817 -0.924807,-0.85372 v -0.97367 c 0,-0.47131 0.41409,-0.85372 0.924807,-0.85372 h 59.974369 c 0.51082,0 0.92499,0.38241 0.92499,0.85372 v 0.97367"
       style="fill:#4c4564;fill-opacity:1;fill-rule:nonzero;stroke:none;stroke-width:0.0352777"
       id="path200" />
  </g>
</svg>
