<?xml version="1.0" encoding="UTF-8" standalone="no"?>
<svg
   xmlns:dc="http://purl.org/dc/elements/1.1/"
   xmlns:cc="http://creativecommons.org/ns#"
   xmlns:rdf="http://www.w3.org/1999/02/22-rdf-syntax-ns#"
   xmlns:svg="http://www.w3.org/2000/svg"
   xmlns="http://www.w3.org/2000/svg"
   xmlns:sodipodi="http://sodipodi.sourceforge.net/DTD/sodipodi-0.dtd"
   xmlns:inkscape="http://www.inkscape.org/namespaces/inkscape"
   version="1.1"
   viewBox="0 0 1024 1024"
   id="svg232"
   sodipodi:docname="cannabis-receipt.svg"
   inkscape:version="1.0.1 (3bc2e813f5, 2020-09-07)"
   inkscape:export-filename="C:\Users\keega\OneDrive\Cannlytics\assets\images\ai\midjourney\cannabis-receipt.png"
   inkscape:export-xdpi="96"
   inkscape:export-ydpi="96">
  <metadata
     id="metadata238">
    <rdf:RDF>
      <cc:Work
         rdf:about="">
        <dc:format>image/svg+xml</dc:format>
        <dc:type
           rdf:resource="http://purl.org/dc/dcmitype/StillImage" />
      </cc:Work>
    </rdf:RDF>
  </metadata>
  <defs
     id="defs236" />
  <sodipodi:namedview
     pagecolor="#ffffff"
     bordercolor="#666666"
     borderopacity="1"
     objecttolerance="10"
     gridtolerance="10"
     guidetolerance="10"
     inkscape:pageopacity="0"
     inkscape:pageshadow="2"
     inkscape:window-width="1920"
     inkscape:window-height="1094"
     id="namedview234"
     showgrid="false"
     inkscape:zoom="0.73535156"
     inkscape:cx="358.0844"
     inkscape:cy="538.54211"
     inkscape:window-x="-11"
     inkscape:window-y="-11"
     inkscape:window-maximized="1"
     inkscape:current-layer="g1186" />
  <g
     id="g1186"
     transform="matrix(1.5637609,0,0,1.5641722,-299.24177,-328.89262)"
     style="stroke-width:0.6394">
    <g
       id="g1369"
       transform="matrix(1.097328,0,0,1.0973642,-18.917845,-17.445205)"
       style="stroke-width:0.582679">
      <g
         stroke-width="1.16536"
         fill="none"
         stroke-linecap="butt"
         id="g136">
        <g
           id="g1254"
           style="stroke-width:1.16536">
          <path
             stroke="#cff9d5"
             vector-effect="non-scaling-stroke"
             d="m 462.43,337.25 c 0.7,4.09 4.89,8.4 9.26,6.44 q 55.6,-24.82 111.21,-49.61 4.81,-2.14 6.28,-3.9 c 5.2,-6.27 -0.14,-17.53 -9.7,-13.24 q -55.14,24.77 -110.36,49.4 c -5.13,2.29 -7.65,5.29 -6.69,10.91"
             id="path2"
             style="stroke-width:0.745129" />
          <path
             stroke="#cff9d5"
             vector-effect="non-scaling-stroke"
             d="m 564.24,332.85 q 2.56,1.76 5.39,0.5 30.98,-13.78 62.99,-28.07 c 10.49,-4.69 5.15,-21.54 -5.9,-16.27 q -15.46,7.37 -60.75,27.35 c -7.25,3.2 -8.18,12.05 -1.73,16.49"
             id="path4"
             style="stroke-width:0.745129" />
          <path
             stroke="#cff9d5"
             vector-effect="non-scaling-stroke"
             d="m 297.26,371.74 c 2.58,2.78 5.06,0.73 7.69,-0.42 q 32.5,-14.26 64.73,-29.1 c 5.42,-2.49 6.36,-11.26 0.28,-11.14 q -1.45,0.03 -4.71,1.49 -32.89,14.72 -66.25,29.61 -2.02,0.91 -2.88,2.96 -1.55,3.72 1.14,6.6"
             id="path6"
             style="stroke-width:0.745129" />
          <path
             stroke="#819c9e"
             vector-effect="non-scaling-stroke"
             d="m 785.71,516.75 q 4.24,-22.27 0.65,-44.67 -7.83,-48.89 -33.23,-91.28 c -13.35,-22.3 -38.16,-48.97 -66.46,-44.22 q -5.48,0.92 -18.7,6.89 C 542.35,400.18 435.38,446.78 277.16,519.56 q -9.69,4.46 -13.88,7.73 c -14.21,11.09 -20.9,31.51 -21.57,49.23 -1.25,33.36 9.4,69.03 22.58,97.73"
             id="path10"
             style="stroke-width:0.745129" />
          <path
             stroke="#779294"
             vector-effect="non-scaling-stroke"
             d="m 785.71,516.75 c -5.81,18.83 -13.29,31.99 -32.11,39.61 q -6.38,2.59 -6.48,2.63 -190.97,83.88 -382.12,167.38 -15.44,6.74 -18.48,7.57 c -38.66,10.47 -67.6,-31.2 -82.23,-59.69"
             id="path12"
             style="stroke-width:0.745129" />
          <path
             stroke="#cff9d5"
             vector-effect="non-scaling-stroke"
             d="m 298.4,397.28 a 2.26,2.25 -32.6 0 0 2.12,0.46 q 3.26,-0.96 5.82,-2.1 32.84,-14.72 65.64,-29.51 c 3.75,-1.69 6.86,-3.77 5.28,-8.16 -1.76,-4.89 -5.89,-2.97 -9.7,-1.28 q -33.6,14.94 -67.17,30.01 c -4.86,2.18 -6.47,6.67 -1.99,10.58"
             id="path14"
             style="stroke-width:0.745129" />
          <path
             stroke="#cff9d5"
             vector-effect="non-scaling-stroke"
             d="m 405.5856,370.1523 a 5.28,5.28 0 0 0 -6.9711,-2.6759 l -99.613,44.3505 a 5.28,5.28 0 0 0 -2.6759,6.9711 l 0.0488,0.1097 a 5.28,5.28 0 0 0 6.9711,2.6759 l 99.613,-44.3505 a 5.28,5.28 0 0 0 2.6759,-6.9711 l -0.0488,-0.1097"
             id="path16"
             style="stroke-width:0.745129" />
          <path
             stroke="#cff9d5"
             vector-effect="non-scaling-stroke"
             d="m 291.13,441.83 c -4.43,5.94 0.64,16.7 8.94,13.01 q 62.38,-27.74 124.84,-55.31 c 6.56,-2.9 12.74,-6.09 9.87,-14 q -1.65,-4.53 -5.55,-5.26 -2.4,-0.44 -6.61,1.44 -62.91,28.17 -125.86,56.18 -4.02,1.79 -5.63,3.94"
             id="path18"
             style="stroke-width:0.745129" />
          <path
             stroke="#819c9e"
             vector-effect="non-scaling-stroke"
             d="m 256.5,401.03 a 1.78,1.78 0 0 0 -1.78,-1.78 h -60.94 a 1.78,1.78 0 0 0 -1.78,1.78 v 62.94 a 1.78,1.78 0 0 0 1.78,1.78 h 60.94 a 1.78,1.78 0 0 0 1.78,-1.78 v -62.94"
             id="path20"
             style="stroke-width:0.745129" />
          <path
             stroke="#17644e"
             vector-effect="non-scaling-stroke"
             d="m 742.54,507.38 c 0.69,16.33 -1.3,33.83 -9.72,48.25 q -0.43,0.73 0.34,0.37 9.26,-4.29 18.64,-8.13 c 21.57,-8.84 28.37,-32.9 28,-54.56 q -0.01,-0.65 -0.36,-1.78"
             id="path22"
             style="stroke-width:0.745129" />
          <path
             stroke="#519674"
             vector-effect="non-scaling-stroke"
             d="m 779.44,491.53 q -0.03,-16.56 -4.43,-34.29 c -9.15,-36.89 -26.69,-83.61 -59.74,-105.5 -7.36,-4.88 -20.64,-10.03 -29.61,-6.6 q -9.5,3.63 -20.51,9.37 -0.45,0.23 0,0.45 c 20.72,9.92 35.71,30.78 46.37,50.67 16.25,30.33 28.96,67.11 31.02,101.75"
             id="path24"
             style="stroke-width:0.745129" />
          <path
             stroke="#64c184"
             vector-effect="non-scaling-stroke"
             d="m 779.44,491.53 -36.9,15.85"
             id="path26"
             style="stroke-width:0.745129" />
          <path
             stroke="#779294"
             vector-effect="non-scaling-stroke"
             d="m 584.25,540.54 q 5.14,19.67 6.29,39.96"
             id="path28"
             style="stroke-width:0.745129" />
          <path
             stroke="#607a80"
             vector-effect="non-scaling-stroke"
             d="m 590.54,580.5 c 0.33,14.38 -1.21,28 -7.79,40.99 q -0.23,0.46 0.24,0.25 61.25,-27.08 122.56,-54.04 c 10.27,-4.51 13.94,-5.49 19.26,-13.88 6.7,-10.59 9.5,-25.28 9.3,-37.63"
             id="path30"
             style="stroke-width:0.745129" />
          <path
             stroke="#779294"
             vector-effect="non-scaling-stroke"
             d="m 734.11,516.19 q 0.71,-13.7 -2.15,-27.94"
             id="path32"
             style="stroke-width:0.745129" />
          <path
             stroke="#819c9e"
             vector-effect="non-scaling-stroke"
             d="m 731.96,488.25 q -7.79,-40.72 -27.05,-77.43 c -9.49,-18.07 -27.52,-44.6 -49.13,-50.81 q -1.78,-0.51 -3.47,0.25 -64.46,28.84 -128.96,57.47 -5.75,2.55 -11.43,5.21 -0.45,0.21 0,0.44 c 19.96,9.98 34.36,29.33 44.96,48.73 q 17.78,32.55 27.37,68.43"
             id="path34"
             style="stroke-width:0.745129" />
          <path
             stroke="#f5f5f5"
             vector-effect="non-scaling-stroke"
             d="m 731.96,488.25 q -0.08,0.41 -0.32,0.59 -0.43,0.33 -0.4,-0.22 l 0.02,-0.38 a 0.07,0.07 0 0 0 -0.08,-0.08 l -0.53,0.08 a 0.84,0.82 -27.3 0 1 -0.69,-0.21 l -0.9,-0.81 a 0.88,0.88 0 0 0 -0.97,-0.13 q -4.35,2.11 -7.43,5.83 a 1.7,1.68 -78.6 0 1 -0.83,0.56 c -3.06,0.91 -5.73,1.5 -8.35,3.74 -4.04,3.47 -6.54,2.92 -11.43,3.9 a 0.72,0.71 88.9 0 0 -0.56,0.59 l -0.31,2.05 q -0.02,0.14 -0.08,0.01 l -0.13,-0.27 a 0.41,0.41 0 0 0 -0.48,-0.23 q -0.26,0.06 -0.45,0.23"
             id="path36"
             style="stroke-width:0.745129" />
          <path
             stroke="#819c9e"
             vector-effect="non-scaling-stroke"
             d="m 698.04,503.5 -7.03,-21.07 q -0.96,-2.88 -3.76,-1.68 l -21.95,9.44 a 0.6,0.58 69.5 0 0 -0.32,0.72 l 2.77,8.8"
             id="path38"
             style="stroke-width:0.745129" />
          <path
             stroke="#f5f5f5"
             vector-effect="non-scaling-stroke"
             d="m 667.75,499.71 c -2.16,1.71 -5.19,4.44 -7.61,4.23 a 0.87,0.86 80.1 0 1 -0.72,-0.51 l -0.73,-1.62"
             id="path40"
             style="stroke-width:0.745129" />
          <path
             stroke="#819c9e"
             vector-effect="non-scaling-stroke"
             d="m 658.69,501.81 q -1.98,-9.46 -5.71,-18.19 a 1.04,1.04 0 0 1 0.53,-1.36 l 15.75,-6.99 q 1.96,-0.87 1.15,-2.86 L 661,449.39 q -1.01,-2.45 -3.44,-1.41 l -16.67,7.09 a 1.08,1.07 -24.1 0 1 -1.39,-0.53 l -7.91,-16.68 a 1.56,1.56 0 0 0 -2.06,-0.75 l -22.04,10 a 0.79,0.79 0 0 0 -0.46,0.83 c 0.81,5.9 5.45,13.36 7.83,19.1 a 0.53,0.53 0 0 1 -0.26,0.68 q -10.42,5.03 -12.57,5.57 -5.78,1.47 -3.49,6.91 4.33,10.31 8.29,20.35 1.04,2.65 3.66,1.53 l 16.4,-7.04 a 0.52,0.52 0 0 1 0.69,0.3 l 6.1,15.84 a 1.34,1.33 -87.8 0 0 0.67,0.73 q 1.23,0.61 2.61,-0.16"
             id="path42"
             style="stroke-width:0.745129" />
          <path
             stroke="#f5f5f5"
             vector-effect="non-scaling-stroke"
             d="m 636.96,511.75 c 1.59,0.97 -0.86,2.08 -0.57,3.62 a 0.71,0.71 0 0 1 -0.4,0.77 q -2.18,1.02 -2.17,3.54 a 1.06,1.03 70.8 0 1 -0.38,0.81 c -0.66,0.55 -4.76,2.58 -5.29,1.02 a 0.38,0.38 0 0 1 0.16,-0.46 c 0.81,-0.49 -0.82,-1.43 -1.31,-1.51"
             id="path44"
             style="stroke-width:0.745129" />
          <path
             stroke="#819c9e"
             vector-effect="non-scaling-stroke"
             d="m 627,519.54 -3.49,-9.12 q -0.82,-2.15 -2.93,-1.22 l -20.35,9.04 q -2.66,1.18 -1.71,3.94 l 3.98,11.53"
             id="path46"
             style="stroke-width:0.745129" />
          <path
             stroke="#f5f5f5"
             vector-effect="non-scaling-stroke"
             d="m 602.5,533.71 -18.25,6.83"
             id="path48"
             style="stroke-width:0.745129" />
          <path
             stroke="#d3d3d6"
             vector-effect="non-scaling-stroke"
             d="m 734.11,516.19 q -70.25,30.75 -140.41,61.53 -2.36,1.03 -3.16,2.78"
             id="path50"
             style="stroke-width:0.745129" />
          <path
             stroke="#779294"
             vector-effect="non-scaling-stroke"
             d="m 602.5,533.71 4.29,12.11 q 0.72,2.04 2.71,1.2 l 21.12,-9 q 2.28,-0.97 1.49,-3.33 L 627,519.54"
             id="path52"
             style="stroke-width:0.745129" />
          <path
             stroke="#779294"
             vector-effect="non-scaling-stroke"
             d="m 658.69,501.81 -21.73,9.94"
             id="path54"
             style="stroke-width:0.745129" />
          <path
             stroke="#779294"
             vector-effect="non-scaling-stroke"
             d="m 698.04,503.5 0.83,3.51 a 0.88,0.87 -28.7 0 1 -0.25,0.84 q -1.31,1.18 -4.11,2.43 -8.32,3.71 -17.46,7.62 -2.1,0.9 -3.35,-1.01 -0.54,-0.82 -1.06,-2.68 -2.07,-7.38 -4.89,-14.5"
             id="path56"
             style="stroke-width:0.745129" />
          <path
             stroke="#227155"
             vector-effect="non-scaling-stroke"
             d="m 420.25,647.79 0.57,9.38"
             id="path58"
             style="stroke-width:0.745129" />
          <path
             stroke="#668385"
             vector-effect="non-scaling-stroke"
             d="m 420.82,657.17 c 0.35,12.37 -1.78,28.36 -8.76,39.1 q -0.24,0.37 0.16,0.19 75.46,-33.2 150.98,-66.25 c 3.24,-1.42 6.38,-2.71 8.58,-5.6 8,-10.51 10.72,-24.58 10.78,-37.51"
             id="path60"
             style="stroke-width:0.745129" />
          <path
             stroke="#227155"
             vector-effect="non-scaling-stroke"
             d="m 582.56,587.1 q 0.39,-3.6 -0.31,-8.14"
             id="path62"
             style="stroke-width:0.745129" />
          <path
             stroke="#519674"
             vector-effect="non-scaling-stroke"
             d="m 582.25,578.96 q -0.72,-15.07 -4.5,-30.46 c -7.86,-32.01 -20.43,-64.05 -39.71,-90.77 -8.58,-11.9 -20.8,-25.16 -35.18,-29.34 q -1.54,-0.45 -3,0.21 l -161.14,72.34 q -0.93,0.42 0.02,0.79 c 26.1,10.22 44.32,35.71 56.1,60.2 12.85,26.71 22.33,56.73 25.41,85.86"
             id="path64"
             style="stroke-width:0.745129" />
          <path
             stroke="#6fcd8b"
             vector-effect="non-scaling-stroke"
             d="m 582.25,578.96 q -0.71,0.43 -1.41,-0.15 a 0.89,0.89 0 0 0 -0.94,-0.13 l -46.93,20.75 a 0.22,0.21 59.2 0 0 -0.08,0.33 q 0.23,0.27 -0.03,0.44 a 1.42,1.41 51.6 0 1 -1.76,-0.21 q -2.23,-2.26 -5.2,-0.97 -42.35,18.42 -84.62,37.01 c -3.45,1.52 -5.25,3.17 -5.31,6.94 a 0.49,0.49 0 0 1 -0.5,0.48 c -3.16,-0.01 -8.64,2.78 -13.23,4.76 q -1.04,0.46 -1.99,-0.42"
             id="path66"
             style="stroke-width:0.745129" />
          <path
             stroke="#85bb9d"
             vector-effect="non-scaling-stroke"
             d="m 582.56,587.1 -48.49,20.81 q -0.23,0.1 -0.47,0.1 h -0.39 a 1.3,1.25 -65.5 0 0 -0.86,0.34 q -2,1.92 -6.04,3.72 -39.75,17.68 -79.65,35.05 -2.18,0.94 -4.44,1.74 -1.58,0.56 -3.08,1.33 -8.77,4.52 -18.32,6.98"
             id="path68"
             style="stroke-width:0.745129" />
          <path
             stroke="#17644e"
             vector-effect="non-scaling-stroke"
             d="m 378.29,665 c 1.35,16.63 -0.46,36.29 -10.12,50.49 q -0.47,0.69 0.29,0.34 12.06,-5.62 24.27,-10.85 c 18.07,-7.74 20.83,-36.52 19.74,-52.98 q -0.03,-0.53 -0.51,-1.75"
             id="path70"
             style="stroke-width:0.745129" />
          <path
             stroke="#519674"
             vector-effect="non-scaling-stroke"
             d="m 411.96,650.25 q -1.45,-18.31 -7.51,-39.49 c -8.66,-30.24 -20.71,-59.02 -41.52,-81.94 -7.25,-7.99 -28.09,-26.18 -40.21,-20.61 q -14.09,6.49 -28.36,12.73 -0.77,0.34 0.04,0.54 c 24.8,6.13 44.97,32.16 56.2,53.61 q 22.2,42.37 27.69,89.91"
             id="path72"
             style="stroke-width:0.745129" />
          <path
             stroke="#64c184"
             vector-effect="non-scaling-stroke"
             d="M 411.96,650.25 378.29,665"
             id="path74"
             style="stroke-width:0.745129" />
          <path
             stroke="#17644e"
             vector-effect="non-scaling-stroke"
             d="m 297.75,708.54 q 9.24,10.02 21.7,15.44 c 19.32,8.39 37.52,-1.1 45.47,-19.56 6.41,-14.9 6.34,-32.77 3.95,-48.59 -5.2,-34.45 -18.91,-74.35 -41.86,-101.41"
             id="path76"
             style="stroke-width:0.745129" />
          <path
             stroke="#227155"
             vector-effect="non-scaling-stroke"
             d="m 327.01,554.42 c -8.98,-10.93 -19.26,-19.61 -32.76,-24.41 -21.43,-7.61 -37.35,11.3 -41.79,29.75 -7.12,29.63 0.6,62.48 10.69,90.2 8,22.01 18.43,41.36 34.6,58.58"
             id="path78"
             style="stroke-width:0.745129" />
          <path
             stroke="#359c65"
             vector-effect="non-scaling-stroke"
             d="m 327.01,554.42 q -6.12,6.98 -10.84,14.96"
             id="path80"
             style="stroke-width:0.745129" />
          <path
             stroke="#227155"
             vector-effect="non-scaling-stroke"
             d="m 316.17,569.38 c -26.64,-25.14 -48.13,-7.51 -48.52,24.1 -0.3,24.05 7.81,48.25 18.54,69.76"
             id="path82"
             style="stroke-width:0.745129" />
          <path
             stroke="#359c65"
             vector-effect="non-scaling-stroke"
             d="m 286.19,663.24 q 4.01,21.42 11.18,40.97 0.84,2.32 0.38,4.33"
             id="path84"
             style="stroke-width:0.745129" />
          <path
             stroke="#17644e"
             vector-effect="non-scaling-stroke"
             d="m 286.19,663.24 c 8.64,15.35 30.59,44.52 51.88,31.36 10,-6.19 14.58,-19.88 14.45,-31.61 -0.36,-31.85 -14.3,-70.41 -36.35,-93.61"
             id="path86"
             style="stroke-width:0.745129" />
          <path
             stroke="#519674"
             vector-effect="non-scaling-stroke"
             d="m 753.6385,449.3919 a 6.95,6.34 68.4 0 0 3.3363,-8.7958 6.95,6.34 68.4 0 0 -8.4533,-4.128 6.95,6.34 68.4 0 0 -3.3363,8.7958 6.95,6.34 68.4 0 0 8.4533,4.128"
             id="path88"
             style="stroke-width:0.745129" />
          <path
             stroke="#819c9e"
             vector-effect="non-scaling-stroke"
             d="m 656.7014,404.6831 a 2.58,2.58 0 0 0 -3.4199,-1.2718 l -20.476,9.3747 a 2.58,2.58 0 0 0 -1.2718,3.4198 l 10.8649,23.7311 a 2.58,2.58 0 0 0 3.4199,1.2718 l 20.476,-9.3747 a 2.58,2.58 0 0 0 1.2718,-3.4198 l -10.8649,-23.7311"
             id="path90"
             style="stroke-width:0.745129" />
          <path
             stroke="#819c9e"
             vector-effect="non-scaling-stroke"
             d="m 589.32,433.45 a 2.05,2.05 0 0 0 -1.91,-0.13 l -21.17,9.45 a 0.87,0.87 0 0 0 -0.52,0.84 q 0.11,2.07 1.46,4.96 4.79,10.27 9.24,20.41 1.02,2.32 3.35,1.34 l 21.78,-9.17 a 0.83,0.82 -13.4 0 0 0.5,-0.8 c -0.18,-3.48 -10,-25.21 -12.73,-26.9"
             id="path92"
             style="stroke-width:0.745129" />
          <path
             stroke="#519674"
             vector-effect="non-scaling-stroke"
             d="m 247.3984,408.5395 a 0.58,0.58 0 0 0 -0.5811,-0.579 l -45.2799,0.0791 a 0.58,0.58 0 0 0 -0.579,0.581 l 0.0832,47.6799 a 0.58,0.58 0 0 0 0.5811,0.579 l 45.2799,-0.0791 a 0.58,0.58 0 0 0 0.579,-0.581 l -0.0832,-47.6799"
             id="path94"
             style="stroke-width:0.745129" />
          <path
             stroke="#17644e"
             vector-effect="non-scaling-stroke"
             d="m 652.7586,412.7817 a 0.36,0.36 0 0 0 -0.4769,-0.1783 l -11.9751,5.4574 a 0.36,0.36 0 0 0 -0.1783,0.4769 l 6.3531,13.9406 a 0.36,0.36 0 0 0 0.4769,0.1783 l 11.9751,-5.4574 a 0.36,0.36 0 0 0 0.1783,-0.4769 l -6.3531,-13.9406"
             id="path96"
             style="stroke-width:0.745129" />
          <path
             stroke="#519674"
             vector-effect="non-scaling-stroke"
             d="m 219.59,428.25 h -9.51 a 0.88,0.87 -79.1 0 0 -0.81,0.55 q -1.35,3.39 -0.35,6.96 a 1.29,1.28 -8 0 0 1.27,0.95 l 9.26,-0.16 a 0.42,0.42 0 0 1 0.43,0.4 l 0.57,10.37 a 0.83,0.82 6.4 0 0 0.61,0.75 q 3.19,0.87 6.41,0.09 a 1.27,1.27 0 0 0 0.96,-1.18 l 0.44,-10.29 a 0.45,0.45 0 0 1 0.45,-0.43 l 9.22,-0.02 a 1.27,1.27 0 0 0 1.24,-1.01 q 0.66,-3.2 -0.21,-6.27 a 0.92,0.91 83.4 0 0 -0.84,-0.67 l -9.02,-0.39 a 0.97,0.96 0.9 0 1 -0.93,-0.95 l -0.11,-9.92 q -0.03,-2.03 -2.05,-2.06 l -4.13,-0.07 q -2.19,-0.03 -2.21,2.16 l -0.09,10.6 a 0.6,0.6 0 0 1 -0.6,0.59"
             id="path98"
             style="stroke-width:0.745129" />
          <path
             stroke="#6fcd8b"
             vector-effect="non-scaling-stroke"
             d="m 492.9372,486.5575 a 13.32,11.01 47.1 0 0 -1.0019,-17.2522 13.32,11.01 47.1 0 0 -17.1325,-2.2628 13.32,11.01 47.1 0 0 1.0019,17.2522 13.32,11.01 47.1 0 0 17.1325,2.2628"
             id="path100"
             style="stroke-width:0.745129" />
          <path
             stroke="#519674"
             vector-effect="non-scaling-stroke"
             d="m 524.5685,492.0418 a 4.75,4.75 0 0 0 -6.2797,-2.3855 l -41.3008,18.5613 a 4.75,4.75 0 0 0 -2.3854,6.2797 l 0.3689,0.8209 a 4.75,4.75 0 0 0 6.2797,2.3855 l 41.3008,-18.5613 a 4.75,4.75 0 0 0 2.3854,-6.2797 l -0.3689,-0.8209"
             id="path102"
             style="stroke-width:0.745129" />
          <path
             stroke="#6fcd8b"
             vector-effect="non-scaling-stroke"
             d="m 434.0549,501.1704 a 5.51,5.51 0 0 0 -7.2747,-2.7925 l -35.6466,15.8708 a 5.51,5.51 0 0 0 -2.7925,7.2748 l 0.724,1.6261 a 5.51,5.51 0 0 0 7.2747,2.7925 l 35.6466,-15.8708 a 5.51,5.51 0 0 0 2.7925,-7.2748 l -0.724,-1.6261"
             id="path104"
             style="stroke-width:0.745129" />
          <path
             stroke="#6fcd8b"
             vector-effect="non-scaling-stroke"
             d="m 491.206,541.2767 a 5.31,5.31 0 0 0 -7.0107,-2.6912 l -62.9067,28.0079 a 5.31,5.31 0 0 0 -2.6912,7.0107 l 0.7566,1.6992 a 5.31,5.31 0 0 0 7.0107,2.6912 l 62.9067,-28.0079 a 5.31,5.31 0 0 0 2.6912,-7.0107 l -0.7566,-1.6992"
             id="path106"
             style="stroke-width:0.745129" />
          <path
             stroke="#6fcd8b"
             vector-effect="non-scaling-stroke"
             d="m 520.7506,577.3178 a 13.13,11.04 76.7 0 0 7.7233,-15.3175 13.13,11.04 76.7 0 0 -13.7645,-10.2381 13.13,11.04 76.7 0 0 -7.7233,15.3175 13.13,11.04 76.7 0 0 13.7645,10.2381"
             id="path108"
             style="stroke-width:0.745129" />
          <path
             stroke="#519674"
             vector-effect="non-scaling-stroke"
             d="m 475.292,581.0178 a 4.73,4.73 0 0 0 -6.2533,-2.3754 l -37.9806,17.0692 a 4.73,4.73 0 0 0 -2.3754,6.2532 l 0.3853,0.8574 a 4.73,4.73 0 0 0 6.2533,2.3754 l 37.9806,-17.0692 a 4.73,4.73 0 0 0 2.3754,-6.2532 l -0.3853,-0.8574"
             id="path110"
             style="stroke-width:0.745129" />
          <path
             stroke="#17644e"
             vector-effect="non-scaling-stroke"
             d="m 587.2902,442.5269 a 0.26,0.26 0 0 0 -0.343,-0.1323 l -12.1779,5.3965 a 0.26,0.26 0 0 0 -0.1323,0.343 l 6.0528,13.659 a 0.26,0.26 0 0 0 0.343,0.1323 l 12.1779,-5.3965 a 0.26,0.26 0 0 0 0.1323,-0.343 l -6.0528,-13.659"
             id="path112"
             style="stroke-width:0.745129" />
          <path
             stroke="#17644e"
             vector-effect="non-scaling-stroke"
             d="m 628.91,486.5 q 2.1,0.16 2.93,2.09 l 5.97,13.86 a 0.5,0.49 66.3 0 0 0.65,0.26 l 12.26,-5.5 a 0.66,0.66 0 0 0 0.31,-0.91 c -2.01,-3.7 -9.06,-17.41 -3.06,-19.81 4.57,-1.82 9.02,-4.02 13.56,-5.88 a 0.51,0.51 0 0 0 0.28,-0.66 l -5,-12.4 a 1.12,1.12 0 0 0 -1.5,-0.6 q -6.18,2.78 -12.78,5.76 c -5.76,2.62 -6.51,0.3 -8.95,-4.7 q -2.81,-5.77 -5.72,-11.58 a 0.48,0.46 -25.4 0 0 -0.62,-0.21 l -11.33,5.37 a 0.35,0.35 0 0 0 -0.17,0.47 q 3.21,7.29 5.96,14.7 c 1.21,3.28 1.44,5 -2.03,6.77 q -6.63,3.39 -13.62,6.03 a 0.49,0.48 -23.1 0 0 -0.27,0.66 l 5.45,11.89 a 1.52,1.51 65.5 0 0 2,0.75 c 3.33,-1.49 12.68,-6.59 15.68,-6.36"
             id="path114"
             style="stroke-width:0.745129" />
          <path
             stroke="#17644e"
             vector-effect="non-scaling-stroke"
             d="m 678.09,508.54 a 0.85,0.85 0 0 0 1.16,0.52 l 10.95,-4.86 a 0.85,0.85 0 0 0 0.46,-1.03 l -4.01,-12.75 a 0.85,0.85 0 0 0 -1.14,-0.53 l -11.05,4.66 a 0.85,0.85 0 0 0 -0.48,1.04 l 4.11,12.95"
             id="path116"
             style="stroke-width:0.745129" />
          <path
             stroke="#519674"
             vector-effect="non-scaling-stroke"
             d="m 379.3622,594.3315 a 6.94,6.18 68.6 0 0 3.2217,-8.7164 6.94,6.18 68.6 0 0 -8.2861,-4.2066 6.94,6.18 68.6 0 0 -3.2217,8.7164 6.94,6.18 68.6 0 0 8.2861,4.2066"
             id="path118"
             style="stroke-width:0.745129" />
          <path
             stroke="#519674"
             vector-effect="non-scaling-stroke"
             d="m 392.3224,641.2822 a 6.76,6.13 82.5 0 0 5.1952,-7.5023 6.76,6.13 82.5 0 0 -6.96,-5.9021 6.76,6.13 82.5 0 0 -5.1952,7.5023 6.76,6.13 82.5 0 0 6.96,5.9021"
             id="path120"
             style="stroke-width:0.745129" />
          <path
             stroke="#17644e"
             vector-effect="non-scaling-stroke"
             d="m 619.224,518.5129 a 0.27,0.27 0 0 0 -0.3472,-0.159 l -12.7471,4.7406 a 0.27,0.27 0 0 0 -0.1589,0.3472 l 5.3052,14.2654 a 0.27,0.27 0 0 0 0.3472,0.159 l 12.7471,-4.7406 a 0.27,0.27 0 0 0 0.1589,-0.3472 l -5.3052,-14.2654"
             id="path122"
             style="stroke-width:0.745129" />
          <path
             stroke="#819c9e"
             vector-effect="non-scaling-stroke"
             d="m 276.73,605.97 q 0.18,3.61 0.33,4.47 c 4.66,25.57 16.17,59.24 38.53,74.96 5.84,4.11 14.28,5.87 19.91,0.39"
             id="path124"
             style="stroke-width:0.745129" />
          <path
             stroke="#607a80"
             vector-effect="non-scaling-stroke"
             d="m 335.5,685.79 q 6.47,-6.42 8.23,-15.97"
             id="path126"
             style="stroke-width:0.745129" />
          <path
             stroke="#304b54"
             vector-effect="non-scaling-stroke"
             d="m 343.73,669.82 q 0.45,-2.24 0.48,-5.07 c 0.22,-24.19 -7.05,-46.16 -18.39,-68.07 -6.3,-12.18 -14.96,-23.45 -26.88,-29.6 q -0.5,-0.26 -2.17,-0.46"
             id="path128"
             style="stroke-width:0.745129" />
          <path
             stroke="#607a80"
             vector-effect="non-scaling-stroke"
             d="m 296.77,566.62 q -4.54,-1.81 -8.78,-0.29 c -13.05,4.68 -12.88,29.17 -11.26,39.64"
             id="path130"
             style="stroke-width:0.745129" />
          <path
             stroke="#8d8c97"
             vector-effect="non-scaling-stroke"
             d="m 296.77,566.62 q -1.39,12.67 1.92,26.69 c 7.21,30.51 21.89,56.01 45.04,76.51"
             id="path132"
             style="stroke-width:0.745129" />
          <path
             stroke="#dedde1"
             vector-effect="non-scaling-stroke"
             d="m 335.5,685.79 -1.62,-0.24 a 1.38,1.36 74.1 0 1 -0.83,-0.47 q -8.54,-10.01 -16.11,-20.77 -20.38,-28.96 -40.21,-58.34"
             id="path134"
             style="stroke-width:0.745129" />
        </g>
      </g>
      <path
         fill="#9ef2aa"
         d="m 471.69,343.69 c -4.37,1.96 -8.56,-2.35 -9.26,-6.44 -0.96,-5.62 1.56,-8.62 6.69,-10.91 q 55.22,-24.63 110.36,-49.4 c 9.56,-4.29 14.9,6.97 9.7,13.24 q -1.47,1.76 -6.28,3.9 -55.61,24.79 -111.21,49.61 z"
         id="path140"
         style="stroke-width:0.372564" />
      <path
         fill="#9ef2aa"
         d="m 564.24,332.85 c -6.45,-4.44 -5.52,-13.29 1.73,-16.49 q 45.29,-19.98 60.75,-27.35 c 11.05,-5.27 16.39,11.58 5.9,16.27 q -32.01,14.29 -62.99,28.07 -2.83,1.26 -5.39,-0.5 z"
         id="path142"
         style="stroke-width:0.372564" />
      <path
         fill="#9ef2aa"
         d="m 297.26,371.74 q -2.69,-2.88 -1.14,-6.6 0.86,-2.05 2.88,-2.96 33.36,-14.89 66.25,-29.61 3.26,-1.46 4.71,-1.49 c 6.08,-0.12 5.14,8.65 -0.28,11.14 q -32.23,14.84 -64.73,29.1 c -2.63,1.15 -5.11,3.2 -7.69,0.42 z"
         id="path144"
         style="stroke-width:0.372564" />
      <path
         fill="#03393d"
         d="m 785.71,516.75 c -5.81,18.83 -13.29,31.99 -32.11,39.61 q -6.38,2.59 -6.48,2.63 -190.97,83.88 -382.12,167.38 -15.44,6.74 -18.48,7.57 c -38.66,10.47 -67.6,-31.2 -82.23,-59.69 -13.18,-28.7 -23.83,-64.37 -22.58,-97.73 0.67,-17.72 7.36,-38.14 21.57,-49.23 q 4.19,-3.27 13.88,-7.73 C 435.38,446.78 542.35,400.18 667.97,343.47 q 13.22,-5.97 18.7,-6.89 c 28.3,-4.75 53.11,21.92 66.46,44.22 q 25.4,42.39 33.23,91.28 3.59,22.4 -0.65,44.67 z m -43.17,-9.37 c 0.69,16.33 -1.3,33.83 -9.72,48.25 q -0.43,0.73 0.34,0.37 9.26,-4.29 18.64,-8.13 c 21.57,-8.84 28.37,-32.9 28,-54.56 q -0.01,-0.65 -0.36,-1.78 -0.03,-16.56 -4.43,-34.29 c -9.15,-36.89 -26.69,-83.61 -59.74,-105.5 -7.36,-4.88 -20.64,-10.03 -29.61,-6.6 q -9.5,3.63 -20.51,9.37 -0.45,0.23 0,0.45 c 20.72,9.92 35.71,30.78 46.37,50.67 16.25,30.33 28.96,67.11 31.02,101.75 z m -158.29,33.16 q 5.14,19.67 6.29,39.96 c 0.33,14.38 -1.21,28 -7.79,40.99 q -0.23,0.46 0.24,0.25 61.25,-27.08 122.56,-54.04 c 10.27,-4.51 13.94,-5.49 19.26,-13.88 6.7,-10.59 9.5,-25.28 9.3,-37.63 q 0.71,-13.7 -2.15,-27.94 -7.79,-40.72 -27.05,-77.43 c -9.49,-18.07 -27.52,-44.6 -49.13,-50.81 q -1.78,-0.51 -3.47,0.25 -64.46,28.84 -128.96,57.47 -5.75,2.55 -11.43,5.21 -0.45,0.21 0,0.44 c 19.96,9.98 34.36,29.33 44.96,48.73 q 17.78,32.55 27.37,68.43 z m -164,107.25 0.57,9.38 c 0.35,12.37 -1.78,28.36 -8.76,39.1 q -0.24,0.37 0.16,0.19 75.46,-33.2 150.98,-66.25 c 3.24,-1.42 6.38,-2.71 8.58,-5.6 8,-10.51 10.72,-24.58 10.78,-37.51 q 0.39,-3.6 -0.31,-8.14 -0.72,-15.07 -4.5,-30.46 c -7.86,-32.01 -20.43,-64.05 -39.71,-90.77 -8.58,-11.9 -20.8,-25.16 -35.18,-29.34 q -1.54,-0.45 -3,0.21 l -161.14,72.34 q -0.93,0.42 0.02,0.79 c 26.1,10.22 44.32,35.71 56.1,60.2 12.85,26.71 22.33,56.73 25.41,85.86 z M 378.29,665 c 1.35,16.63 -0.46,36.29 -10.12,50.49 q -0.47,0.69 0.29,0.34 12.06,-5.62 24.27,-10.85 c 18.07,-7.74 20.83,-36.52 19.74,-52.98 q -0.03,-0.53 -0.51,-1.75 -1.45,-18.31 -7.51,-39.49 c -8.66,-30.24 -20.71,-59.02 -41.52,-81.94 -7.25,-7.99 -28.09,-26.18 -40.21,-20.61 q -14.09,6.49 -28.36,12.73 -0.77,0.34 0.04,0.54 c 24.8,6.13 44.97,32.16 56.2,53.61 q 22.2,42.37 27.69,89.91 z m -80.54,43.54 q 9.24,10.02 21.7,15.44 c 19.32,8.39 37.52,-1.1 45.47,-19.56 6.41,-14.9 6.34,-32.77 3.95,-48.59 -5.2,-34.45 -18.91,-74.35 -41.86,-101.41 -8.98,-10.93 -19.26,-19.61 -32.76,-24.41 -21.43,-7.61 -37.35,11.3 -41.79,29.75 -7.12,29.63 0.6,62.48 10.69,90.2 8,22.01 18.43,41.36 34.6,58.58 z"
         id="path146"
         style="stroke-width:0.372564" />
      <path
         fill="#9ef2aa"
         d="m 779.44,491.53 -36.9,15.85 c -2.06,-34.64 -14.77,-71.42 -31.02,-101.75 -10.66,-19.89 -25.65,-40.75 -46.37,-50.67 q -0.45,-0.22 0,-0.45 11.01,-5.74 20.51,-9.37 c 8.97,-3.43 22.25,1.72 29.61,6.6 33.05,21.89 50.59,68.61 59.74,105.5 q 4.4,17.73 4.43,34.29 z m -25.8015,-42.1381 a 6.95,6.34 68.4 0 0 3.3363,-8.7958 6.95,6.34 68.4 0 0 -8.4533,-4.128 6.95,6.34 68.4 0 0 -3.3363,8.7958 6.95,6.34 68.4 0 0 8.4533,4.128 z"
         id="path148"
         style="stroke-width:0.372564" />
      <path
         fill="#9ef2aa"
         d="m 298.4,397.28 c -4.48,-3.91 -2.87,-8.4 1.99,-10.58 q 33.57,-15.07 67.17,-30.01 c 3.81,-1.69 7.94,-3.61 9.7,1.28 1.58,4.39 -1.53,6.47 -5.28,8.16 q -32.8,14.79 -65.64,29.51 -2.56,1.14 -5.82,2.1 a 2.26,2.25 -32.6 0 1 -2.12,-0.46 z"
         id="path150"
         style="stroke-width:0.372564" />
      <path
         fill="#ffffff"
         d="m 731.96,488.25 q -0.08,0.41 -0.32,0.59 -0.43,0.33 -0.4,-0.22 l 0.02,-0.38 a 0.07,0.07 0 0 0 -0.08,-0.08 l -0.53,0.08 a 0.84,0.82 -27.3 0 1 -0.69,-0.21 l -0.9,-0.81 a 0.88,0.88 0 0 0 -0.97,-0.13 q -4.35,2.11 -7.43,5.83 a 1.7,1.68 -78.6 0 1 -0.83,0.56 c -3.06,0.91 -5.73,1.5 -8.35,3.74 -4.04,3.47 -6.54,2.92 -11.43,3.9 a 0.72,0.71 88.9 0 0 -0.56,0.59 l -0.31,2.05 q -0.02,0.14 -0.08,0.01 l -0.13,-0.27 a 0.41,0.41 0 0 0 -0.48,-0.23 q -0.26,0.06 -0.45,0.23 l -7.03,-21.07 q -0.96,-2.88 -3.76,-1.68 l -21.95,9.44 a 0.6,0.58 69.5 0 0 -0.32,0.72 l 2.77,8.8 c -2.16,1.71 -5.19,4.44 -7.61,4.23 a 0.87,0.86 80.1 0 1 -0.72,-0.51 l -0.73,-1.62 q -1.98,-9.46 -5.71,-18.19 a 1.04,1.04 0 0 1 0.53,-1.36 l 15.75,-6.99 q 1.96,-0.87 1.15,-2.86 L 661,449.39 q -1.01,-2.45 -3.44,-1.41 l -16.67,7.09 a 1.08,1.07 -24.1 0 1 -1.39,-0.53 l -7.91,-16.68 a 1.56,1.56 0 0 0 -2.06,-0.75 l -22.04,10 a 0.79,0.79 0 0 0 -0.46,0.83 c 0.81,5.9 5.45,13.36 7.83,19.1 a 0.53,0.53 0 0 1 -0.26,0.68 q -10.42,5.03 -12.57,5.57 -5.78,1.47 -3.49,6.91 4.33,10.31 8.29,20.35 1.04,2.65 3.66,1.53 l 16.4,-7.04 a 0.52,0.52 0 0 1 0.69,0.3 l 6.1,15.84 a 1.34,1.33 -87.8 0 0 0.67,0.73 q 1.23,0.61 2.61,-0.16 c 1.59,0.97 -0.86,2.08 -0.57,3.62 a 0.71,0.71 0 0 1 -0.4,0.77 q -2.18,1.02 -2.17,3.54 a 1.06,1.03 70.8 0 1 -0.38,0.81 c -0.66,0.55 -4.76,2.58 -5.29,1.02 a 0.38,0.38 0 0 1 0.16,-0.46 c 0.81,-0.49 -0.82,-1.43 -1.31,-1.51 l -3.49,-9.12 q -0.82,-2.15 -2.93,-1.22 l -20.35,9.04 q -2.66,1.18 -1.71,3.94 l 3.98,11.53 -18.25,6.83 q -9.59,-35.88 -27.37,-68.43 c -10.6,-19.4 -25,-38.75 -44.96,-48.73 q -0.45,-0.23 0,-0.44 5.68,-2.66 11.43,-5.21 64.5,-28.63 128.96,-57.47 1.69,-0.76 3.47,-0.25 c 21.61,6.21 39.64,32.74 49.13,50.81 q 19.26,36.71 27.05,77.43 z m -75.2586,-83.5669 a 2.58,2.58 0 0 0 -3.4199,-1.2718 l -20.476,9.3747 a 2.58,2.58 0 0 0 -1.2718,3.4198 l 10.8649,23.7311 a 2.58,2.58 0 0 0 3.4199,1.2718 l 20.476,-9.3747 a 2.58,2.58 0 0 0 1.2718,-3.4198 z M 589.32,433.45 a 2.05,2.05 0 0 0 -1.91,-0.13 l -21.17,9.45 a 0.87,0.87 0 0 0 -0.52,0.84 q 0.11,2.07 1.46,4.96 4.79,10.27 9.24,20.41 1.02,2.32 3.35,1.34 l 21.78,-9.17 a 0.83,0.82 -13.4 0 0 0.5,-0.8 c -0.18,-3.48 -10,-25.21 -12.73,-26.9 z"
         id="path152"
         style="stroke-width:0.372564" />
      <rect
         fill="#9ef2aa"
         x="-59.799999"
         y="-5.3400002"
         transform="rotate(-24,1103.5489,-628.35054)"
         width="119.6"
         height="10.68"
         rx="5.2800002"
         id="rect154"
         style="stroke-width:0.372564" />
      <path
         fill="#9ef2aa"
         d="m 300.07,454.84 c -8.3,3.69 -13.37,-7.07 -8.94,-13.01 q 1.61,-2.15 5.63,-3.94 62.95,-28.01 125.86,-56.18 4.21,-1.88 6.61,-1.44 3.9,0.73 5.55,5.26 c 2.87,7.91 -3.31,11.1 -9.87,14 q -62.46,27.57 -124.84,55.31 z"
         id="path156"
         style="stroke-width:0.372564" />
      <path
         fill="#03393d"
         d="m 256.5,463.97 a 1.78,1.78 0 0 1 -1.78,1.78 H 193.78 A 1.78,1.78 0 0 1 192,463.97 v -62.94 a 1.78,1.78 0 0 1 1.78,-1.78 h 60.94 a 1.78,1.78 0 0 1 1.78,1.78 z m -9.1016,-55.4305 a 0.58,0.58 0 0 0 -0.5811,-0.579 l -45.2799,0.0791 a 0.58,0.58 0 0 0 -0.579,0.581 l 0.0832,47.6799 a 0.58,0.58 0 0 0 0.5811,0.579 l 45.2799,-0.0791 a 0.58,0.58 0 0 0 0.579,-0.581 z"
         id="path158"
         style="stroke-width:0.372564" />
      <path
         fill="#03393d"
         d="m 667.5663,428.4142 a 2.58,2.58 0 0 1 -1.2718,3.4198 l -20.476,9.3747 a 2.58,2.58 0 0 1 -3.4199,-1.2718 l -10.8649,-23.7311 a 2.58,2.58 0 0 1 1.2718,-3.4198 l 20.476,-9.3747 a 2.58,2.58 0 0 1 3.4199,1.2718 z m -14.8077,-15.6325 a 0.36,0.36 0 0 0 -0.4769,-0.1783 l -11.9751,5.4574 a 0.36,0.36 0 0 0 -0.1783,0.4769 l 6.3531,13.9406 a 0.36,0.36 0 0 0 0.4769,0.1783 l 11.9751,-5.4574 a 0.36,0.36 0 0 0 0.1783,-0.4769 z"
         id="path160"
         style="stroke-width:0.372564" />
      <path
         fill="#9ef2aa"
         d="m 247.4816,456.2194 a 0.58,0.58 0 0 1 -0.579,0.581 l -45.2799,0.0791 a 0.58,0.58 0 0 1 -0.5811,-0.579 l -0.0832,-47.6799 a 0.58,0.58 0 0 1 0.579,-0.581 l 45.2799,-0.0791 a 0.58,0.58 0 0 1 0.5811,0.579 z M 219.59,428.25 h -9.51 a 0.88,0.87 -79.1 0 0 -0.81,0.55 q -1.35,3.39 -0.35,6.96 a 1.29,1.28 -8 0 0 1.27,0.95 l 9.26,-0.16 a 0.42,0.42 0 0 1 0.43,0.4 l 0.57,10.37 a 0.83,0.82 6.4 0 0 0.61,0.75 q 3.19,0.87 6.41,0.09 a 1.27,1.27 0 0 0 0.96,-1.18 l 0.44,-10.29 a 0.45,0.45 0 0 1 0.45,-0.43 l 9.22,-0.02 a 1.27,1.27 0 0 0 1.24,-1.01 q 0.66,-3.2 -0.21,-6.27 a 0.92,0.91 83.4 0 0 -0.84,-0.67 l -9.02,-0.39 a 0.97,0.96 0.9 0 1 -0.93,-0.95 l -0.11,-9.92 q -0.03,-2.03 -2.05,-2.06 l -4.13,-0.07 q -2.19,-0.03 -2.21,2.16 l -0.09,10.6 a 0.6,0.6 0 0 1 -0.6,0.59 z"
         id="path162"
         style="stroke-width:0.372564" />
      <rect
         fill="#2a8f5e"
         x="-6.9400001"
         y="-8.0200005"
         transform="rotate(-24.5,1298.0679,-1284.6692)"
         width="13.88"
         height="16.040001"
         rx="0.36000001"
         id="rect164"
         style="stroke-width:0.372564" />
      <path
         fill="#03393d"
         d="m 220.19,427.66 0.09,-10.6 q 0.02,-2.19 2.21,-2.16 l 4.13,0.07 q 2.02,0.03 2.05,2.06 l 0.11,9.92 a 0.97,0.96 0.9 0 0 0.93,0.95 l 9.02,0.39 a 0.92,0.91 83.4 0 1 0.84,0.67 q 0.87,3.07 0.21,6.27 a 1.27,1.27 0 0 1 -1.24,1.01 l -9.22,0.02 a 0.45,0.45 0 0 0 -0.45,0.43 l -0.44,10.29 a 1.27,1.27 0 0 1 -0.96,1.18 q -3.22,0.78 -6.41,-0.09 a 0.83,0.82 6.4 0 1 -0.61,-0.75 l -0.57,-10.37 a 0.42,0.42 0 0 0 -0.43,-0.4 l -9.26,0.16 a 1.29,1.28 -8 0 1 -1.27,-0.95 q -1,-3.57 0.35,-6.96 a 0.88,0.87 -79.1 0 1 0.81,-0.55 h 9.51 a 0.6,0.6 0 0 0 0.6,-0.59 z"
         id="path166"
         style="stroke-width:0.372564" />
      <path
         fill="#9ef2aa"
         d="m 582.25,578.96 q -0.71,0.43 -1.41,-0.15 a 0.89,0.89 0 0 0 -0.94,-0.13 l -46.93,20.75 a 0.22,0.21 59.2 0 0 -0.08,0.33 q 0.23,0.27 -0.03,0.44 a 1.42,1.41 51.6 0 1 -1.76,-0.21 q -2.23,-2.26 -5.2,-0.97 -42.35,18.42 -84.62,37.01 c -3.45,1.52 -5.25,3.17 -5.31,6.94 a 0.49,0.49 0 0 1 -0.5,0.48 c -3.16,-0.01 -8.64,2.78 -13.23,4.76 q -1.04,0.46 -1.99,-0.42 c -3.08,-29.13 -12.56,-59.15 -25.41,-85.86 -11.78,-24.49 -30,-49.98 -56.1,-60.2 q -0.95,-0.37 -0.02,-0.79 L 499.86,428.6 q 1.46,-0.66 3,-0.21 c 14.38,4.18 26.6,17.44 35.18,29.34 19.28,26.72 31.85,58.76 39.71,90.77 q 3.78,15.39 4.5,30.46 z m -89.3128,-92.4025 a 13.32,11.01 47.1 0 0 -1.0019,-17.2522 13.32,11.01 47.1 0 0 -17.1325,-2.2628 13.32,11.01 47.1 0 0 1.0019,17.2522 13.32,11.01 47.1 0 0 17.1325,2.2628 z m 31.6313,5.4843 a 4.75,4.75 0 0 0 -6.2797,-2.3855 l -41.3008,18.5613 a 4.75,4.75 0 0 0 -2.3854,6.2797 l 0.3689,0.8209 a 4.75,4.75 0 0 0 6.2797,2.3855 l 41.3008,-18.5613 a 4.75,4.75 0 0 0 2.3854,-6.2797 z m -90.5136,9.1286 a 5.51,5.51 0 0 0 -7.2747,-2.7925 l -35.6466,15.8708 a 5.51,5.51 0 0 0 -2.7925,7.2748 l 0.724,1.6261 a 5.51,5.51 0 0 0 7.2747,2.7925 l 35.6466,-15.8708 a 5.51,5.51 0 0 0 2.7925,-7.2748 z m 57.1511,40.1063 a 5.31,5.31 0 0 0 -7.0107,-2.6912 l -62.9067,28.0079 a 5.31,5.31 0 0 0 -2.6912,7.0107 l 0.7566,1.6992 a 5.31,5.31 0 0 0 7.0107,2.6912 l 62.9067,-28.0079 a 5.31,5.31 0 0 0 2.6912,-7.0107 z m 29.5446,36.0411 a 13.13,11.04 76.7 0 0 7.7233,-15.3175 13.13,11.04 76.7 0 0 -13.7645,-10.2381 13.13,11.04 76.7 0 0 -7.7233,15.3175 13.13,11.04 76.7 0 0 13.7645,10.2381 z m -45.4586,3.7 a 4.73,4.73 0 0 0 -6.2533,-2.3754 l -37.9806,17.0692 a 4.73,4.73 0 0 0 -2.3754,6.2532 l 0.3853,0.8574 a 4.73,4.73 0 0 0 6.2533,2.3754 l 37.9806,-17.0692 a 4.73,4.73 0 0 0 2.3754,-6.2532 z"
         id="path168"
         style="stroke-width:0.372564" />
      <path
         fill="#03393d"
         d="m 589.32,433.45 c 2.73,1.69 12.55,23.42 12.73,26.9 a 0.83,0.82 -13.4 0 1 -0.5,0.8 l -21.78,9.17 q -2.33,0.98 -3.35,-1.34 -4.45,-10.14 -9.24,-20.41 -1.35,-2.89 -1.46,-4.96 a 0.87,0.87 0 0 1 0.52,-0.84 l 21.17,-9.45 a 2.05,2.05 0 0 1 1.91,0.13 z m -2.0298,9.0769 a 0.26,0.26 0 0 0 -0.343,-0.1323 l -12.1779,5.3965 a 0.26,0.26 0 0 0 -0.1323,0.343 l 6.0528,13.659 a 0.26,0.26 0 0 0 0.343,0.1323 l 12.1779,-5.3965 a 0.26,0.26 0 0 0 0.1323,-0.343 z"
         id="path170"
         style="stroke-width:0.372564" />
      <ellipse
         fill="#03393d"
         cx="0"
         cy="0"
         transform="rotate(68.4,49.664148,774.05533)"
         rx="6.9499998"
         ry="6.3400002"
         id="ellipse172"
         style="stroke-width:0.372564" />
      <path
         fill="#03393d"
         d="m 658.69,501.81 -21.73,9.94 q -1.38,0.77 -2.61,0.16 a 1.34,1.33 -87.8 0 1 -0.67,-0.73 l -6.1,-15.84 a 0.52,0.52 0 0 0 -0.69,-0.3 l -16.4,7.04 q -2.62,1.12 -3.66,-1.53 -3.96,-10.04 -8.29,-20.35 -2.29,-5.44 3.49,-6.91 2.15,-0.54 12.57,-5.57 a 0.53,0.53 0 0 0 0.26,-0.68 c -2.38,-5.74 -7.02,-13.2 -7.83,-19.1 a 0.79,0.79 0 0 1 0.46,-0.83 l 22.04,-10 a 1.56,1.56 0 0 1 2.06,0.75 l 7.91,16.68 a 1.08,1.07 -24.1 0 0 1.39,0.53 l 16.67,-7.09 q 2.43,-1.04 3.44,1.41 l 9.41,23.02 q 0.81,1.99 -1.15,2.86 l -15.75,6.99 a 1.04,1.04 0 0 0 -0.53,1.36 q 3.73,8.73 5.71,18.19 z M 628.91,486.5 q 2.1,0.16 2.93,2.09 l 5.97,13.86 a 0.5,0.49 66.3 0 0 0.65,0.26 l 12.26,-5.5 a 0.66,0.66 0 0 0 0.31,-0.91 c -2.01,-3.7 -9.06,-17.41 -3.06,-19.81 4.57,-1.82 9.02,-4.02 13.56,-5.88 a 0.51,0.51 0 0 0 0.28,-0.66 l -5,-12.4 a 1.12,1.12 0 0 0 -1.5,-0.6 q -6.18,2.78 -12.78,5.76 c -5.76,2.62 -6.51,0.3 -8.95,-4.7 q -2.81,-5.77 -5.72,-11.58 a 0.48,0.46 -25.4 0 0 -0.62,-0.21 l -11.33,5.37 a 0.35,0.35 0 0 0 -0.17,0.47 q 3.21,7.29 5.96,14.7 c 1.21,3.28 1.44,5 -2.03,6.77 q -6.63,3.39 -13.62,6.03 a 0.49,0.48 -23.1 0 0 -0.27,0.66 l 5.45,11.89 a 1.52,1.51 65.5 0 0 2,0.75 c 3.33,-1.49 12.68,-6.59 15.68,-6.36 z"
         id="path174"
         style="stroke-width:0.372564" />
      <rect
         fill="#2a8f5e"
         x="-6.9200001"
         y="-7.73"
         transform="rotate(-23.9,1360.2007,-1153.5675)"
         width="13.84"
         height="15.46"
         rx="0.25999999"
         id="rect176"
         style="stroke-width:0.372564" />
      <path
         fill="#2a8f5e"
         d="m 628.91,486.5 c -3,-0.23 -12.35,4.87 -15.68,6.36 a 1.52,1.51 65.5 0 1 -2,-0.75 l -5.45,-11.89 a 0.49,0.48 -23.1 0 1 0.27,-0.66 q 6.99,-2.64 13.62,-6.03 c 3.47,-1.77 3.24,-3.49 2.03,-6.77 q -2.75,-7.41 -5.96,-14.7 a 0.35,0.35 0 0 1 0.17,-0.47 l 11.33,-5.37 a 0.48,0.46 -25.4 0 1 0.62,0.21 q 2.91,5.81 5.72,11.58 c 2.44,5 3.19,7.32 8.95,4.7 q 6.6,-2.98 12.78,-5.76 a 1.12,1.12 0 0 1 1.5,0.6 l 5,12.4 a 0.51,0.51 0 0 1 -0.28,0.66 c -4.54,1.86 -8.99,4.06 -13.56,5.88 -6,2.4 1.05,16.11 3.06,19.81 a 0.66,0.66 0 0 1 -0.31,0.91 l -12.26,5.5 a 0.5,0.49 66.3 0 1 -0.65,-0.26 l -5.97,-13.86 q -0.83,-1.93 -2.93,-2.09 z"
         id="path178"
         style="stroke-width:0.372564" />
      <ellipse
         fill="#40a86c"
         cx="0"
         cy="0"
         transform="rotate(47.1,-305.04164,793.48722)"
         rx="13.32"
         ry="11.01"
         id="ellipse180"
         style="stroke-width:0.372564" />
      <path
         fill="#03393d"
         d="m 698.04,503.5 0.83,3.51 a 0.88,0.87 -28.7 0 1 -0.25,0.84 q -1.31,1.18 -4.11,2.43 -8.32,3.71 -17.46,7.62 -2.1,0.9 -3.35,-1.01 -0.54,-0.82 -1.06,-2.68 -2.07,-7.38 -4.89,-14.5 l -2.77,-8.8 a 0.6,0.58 69.5 0 1 0.32,-0.72 l 21.95,-9.44 q 2.8,-1.2 3.76,1.68 z m -19.95,5.04 a 0.85,0.85 0 0 0 1.16,0.52 l 10.95,-4.86 a 0.85,0.85 0 0 0 0.46,-1.03 l -4.01,-12.75 a 0.85,0.85 0 0 0 -1.14,-0.53 l -11.05,4.66 a 0.85,0.85 0 0 0 -0.48,1.04 z"
         id="path182"
         style="stroke-width:0.372564" />
      <path
         fill="#eaeaea"
         d="m 731.96,488.25 q 2.86,14.24 2.15,27.94 -70.25,30.75 -140.41,61.53 -2.36,1.03 -3.16,2.78 -1.15,-20.29 -6.29,-39.96 l 18.25,-6.83 4.29,12.11 q 0.72,2.04 2.71,1.2 l 21.12,-9 q 2.28,-0.97 1.49,-3.33 L 627,519.54 c 0.49,0.08 2.12,1.02 1.31,1.51 a 0.38,0.38 0 0 0 -0.16,0.46 c 0.53,1.56 4.63,-0.47 5.29,-1.02 a 1.06,1.03 70.8 0 0 0.38,-0.81 q -0.01,-2.52 2.17,-3.54 a 0.71,0.71 0 0 0 0.4,-0.77 c -0.29,-1.54 2.16,-2.65 0.57,-3.62 l 21.73,-9.94 0.73,1.62 a 0.87,0.86 80.1 0 0 0.72,0.51 c 2.42,0.21 5.45,-2.52 7.61,-4.23 q 2.82,7.12 4.89,14.5 0.52,1.86 1.06,2.68 1.25,1.91 3.35,1.01 9.14,-3.91 17.46,-7.62 2.8,-1.25 4.11,-2.43 a 0.88,0.87 -28.7 0 0 0.25,-0.84 l -0.83,-3.51 q 0.19,-0.17 0.45,-0.23 a 0.41,0.41 0 0 1 0.48,0.23 l 0.13,0.27 q 0.06,0.13 0.08,-0.01 l 0.31,-2.05 a 0.72,0.71 88.9 0 1 0.56,-0.59 c 4.89,-0.98 7.39,-0.43 11.43,-3.9 2.62,-2.24 5.29,-2.83 8.35,-3.74 a 1.7,1.68 -78.6 0 0 0.83,-0.56 q 3.08,-3.72 7.43,-5.83 a 0.88,0.88 0 0 1 0.97,0.13 l 0.9,0.81 a 0.84,0.82 -27.3 0 0 0.69,0.21 l 0.53,-0.08 a 0.07,0.07 0 0 1 0.08,0.08 l -0.02,0.38 q -0.03,0.55 0.4,0.22 0.24,-0.18 0.32,-0.59 z"
         id="path184"
         style="stroke-width:0.372564" />
      <rect
         fill="#03393d"
         x="-27.389999"
         y="-5.1999998"
         transform="rotate(-24.2,1424.6136,-913.76938)"
         width="54.779999"
         height="10.4"
         rx="4.75"
         id="rect186"
         style="stroke-width:0.372564" />
      <path
         fill="#2a8f5e"
         d="m 678.09,508.54 -4.11,-12.95 a 0.85,0.85 0 0 1 0.48,-1.04 l 11.05,-4.66 a 0.85,0.85 0 0 1 1.14,0.53 l 4.01,12.75 a 0.85,0.85 0 0 1 -0.46,1.03 l -10.95,4.86 a 0.85,0.85 0 0 1 -1.16,-0.52 z"
         id="path188"
         style="stroke-width:0.372564" />
      <path
         fill="#2a8f5e"
         d="m 779.44,491.53 q 0.35,1.13 0.36,1.78 c 0.37,21.66 -6.43,45.72 -28,54.56 q -9.38,3.84 -18.64,8.13 -0.77,0.36 -0.34,-0.37 c 8.42,-14.42 10.41,-31.92 9.72,-48.25 z"
         id="path190"
         style="stroke-width:0.372564" />
      <rect
         fill="#40a86c"
         x="-25.02"
         y="-6.4000001"
         transform="rotate(-24,1410.5417,-712.03878)"
         width="50.040001"
         height="12.8"
         rx="5.5100002"
         id="rect192"
         style="stroke-width:0.372564" />
      <path
         fill="#9ef2aa"
         d="M 411.96,650.25 378.29,665 Q 372.8,617.46 350.6,575.09 c -11.23,-21.45 -31.4,-47.48 -56.2,-53.61 q -0.81,-0.2 -0.04,-0.54 14.27,-6.24 28.36,-12.73 c 12.12,-5.57 32.96,12.62 40.21,20.61 20.81,22.92 32.86,51.7 41.52,81.94 q 6.06,21.18 7.51,39.49 z m -32.5978,-55.9185 a 6.94,6.18 68.6 0 0 3.2217,-8.7164 6.94,6.18 68.6 0 0 -8.2861,-4.2066 6.94,6.18 68.6 0 0 -3.2217,8.7164 6.94,6.18 68.6 0 0 8.2861,4.2066 z m 12.9602,46.9507 a 6.76,6.13 82.5 0 0 5.1952,-7.5023 6.76,6.13 82.5 0 0 -6.96,-5.9021 6.76,6.13 82.5 0 0 -5.1952,7.5023 6.76,6.13 82.5 0 0 6.96,5.9021 z"
         id="path194"
         style="stroke-width:0.372564" />
      <path
         fill="#03393d"
         d="m 627,519.54 5.11,15.15 q 0.79,2.36 -1.49,3.33 l -21.12,9 q -1.99,0.84 -2.71,-1.2 l -4.29,-12.11 -3.98,-11.53 q -0.95,-2.76 1.71,-3.94 l 20.35,-9.04 q 2.11,-0.93 2.93,1.22 z m -7.776,-1.0271 a 0.27,0.27 0 0 0 -0.3472,-0.159 l -12.7471,4.7406 a 0.27,0.27 0 0 0 -0.1589,0.3472 l 5.3052,14.2654 a 0.27,0.27 0 0 0 0.3472,0.159 l 12.7471,-4.7406 a 0.27,0.27 0 0 0 0.1589,-0.3472 z"
         id="path196"
         style="stroke-width:0.372564" />
      <path
         fill="#bcbbc2"
         d="m 734.11,516.19 c 0.2,12.35 -2.6,27.04 -9.3,37.63 -5.32,8.39 -8.99,9.37 -19.26,13.88 q -61.31,26.96 -122.56,54.04 -0.47,0.21 -0.24,-0.25 c 6.58,-12.99 8.12,-26.61 7.79,-40.99 q 0.8,-1.75 3.16,-2.78 70.16,-30.78 140.41,-61.53 z"
         id="path198"
         style="stroke-width:0.372564" />
      <rect
         fill="#2a8f5e"
         x="-7.0700002"
         y="-7.8800001"
         transform="rotate(-20.4,1775.181,-1445.6529)"
         width="14.14"
         height="15.76"
         rx="0.27000001"
         id="rect202"
         style="stroke-width:0.372564" />
      <path
         fill="#40a86c"
         d="m 327.01,554.42 q -6.12,6.98 -10.84,14.96 c -26.64,-25.14 -48.13,-7.51 -48.52,24.1 -0.3,24.05 7.81,48.25 18.54,69.76 q 4.01,21.42 11.18,40.97 0.84,2.32 0.38,4.33 c -16.17,-17.22 -26.6,-36.57 -34.6,-58.58 -10.09,-27.72 -17.81,-60.57 -10.69,-90.2 4.44,-18.45 20.36,-37.36 41.79,-29.75 13.5,4.8 23.78,13.48 32.76,24.41 z"
         id="path204"
         style="stroke-width:0.372564" />
      <rect
         fill="#40a86c"
         x="-39.740002"
         y="-6.2399998"
         transform="rotate(-24,1540.914,-791.817)"
         width="79.480003"
         height="12.48"
         rx="5.3099999"
         id="rect206"
         style="stroke-width:0.372564" />
      <ellipse
         fill="#40a86c"
         cx="0"
         cy="0"
         transform="rotate(76.7,-97.910254,609.4625)"
         rx="13.13"
         ry="11.04"
         id="ellipse208"
         style="stroke-width:0.372564" />
      <path
         fill="#2a8f5e"
         d="m 327.01,554.42 c 22.95,27.06 36.66,66.96 41.86,101.41 2.39,15.82 2.46,33.69 -3.95,48.59 -7.95,18.46 -26.15,27.95 -45.47,19.56 q -12.46,-5.42 -21.7,-15.44 0.46,-2.01 -0.38,-4.33 -7.17,-19.55 -11.18,-40.97 c 8.64,15.35 30.59,44.52 51.88,31.36 10,-6.19 14.58,-19.88 14.45,-31.61 -0.36,-31.85 -14.3,-70.41 -36.35,-93.61 q 4.72,-7.98 10.84,-14.96 z"
         id="path210"
         style="stroke-width:0.372564" />
      <path
         fill="#03393d"
         d="m 316.17,569.38 c 22.05,23.2 35.99,61.76 36.35,93.61 0.13,11.73 -4.45,25.42 -14.45,31.61 -21.29,13.16 -43.24,-16.01 -51.88,-31.36 -10.73,-21.51 -18.84,-45.71 -18.54,-69.76 0.39,-31.61 21.88,-49.24 48.52,-24.1 z m -39.44,36.59 q 0.18,3.61 0.33,4.47 c 4.66,25.57 16.17,59.24 38.53,74.96 5.84,4.11 14.28,5.87 19.91,0.39 q 6.47,-6.42 8.23,-15.97 0.45,-2.24 0.48,-5.07 c 0.22,-24.19 -7.05,-46.16 -18.39,-68.07 -6.3,-12.18 -14.96,-23.45 -26.88,-29.6 q -0.5,-0.26 -2.17,-0.46 -4.54,-1.81 -8.78,-0.29 c -13.05,4.68 -12.88,29.17 -11.26,39.64 z"
         id="path212"
         style="stroke-width:0.372564" />
      <path
         fill="#bcbbc2"
         d="m 296.77,566.62 q -1.39,12.67 1.92,26.69 c 7.21,30.51 21.89,56.01 45.04,76.51 q -1.76,9.55 -8.23,15.97 l -1.62,-0.24 a 1.38,1.36 74.1 0 1 -0.83,-0.47 q -8.54,-10.01 -16.11,-20.77 -20.38,-28.96 -40.21,-58.34 c -1.62,-10.47 -1.79,-34.96 11.26,-39.64 q 4.24,-1.52 8.78,0.29 z"
         id="path214"
         style="stroke-width:0.372564" />
      <path
         fill="#5d5d6b"
         d="m 296.77,566.62 q 1.67,0.2 2.17,0.46 c 11.92,6.15 20.58,17.42 26.88,29.6 11.34,21.91 18.61,43.88 18.39,68.07 q -0.03,2.83 -0.48,5.07 c -23.15,-20.5 -37.83,-46 -45.04,-76.51 q -3.31,-14.02 -1.92,-26.69 z"
         id="path216"
         style="stroke-width:0.372564" />
      <rect
         fill="#03393d"
         x="-25.549999"
         y="-5.1999998"
         transform="rotate(-24.2,1606.6201,-758.65563)"
         width="51.099998"
         height="10.4"
         rx="4.73"
         id="rect218"
         style="stroke-width:0.372564" />
      <path
         fill="#40a86c"
         d="m 582.25,578.96 q 0.7,4.54 0.31,8.14 l -48.49,20.81 q -0.23,0.1 -0.47,0.1 h -0.39 a 1.3,1.25 -65.5 0 0 -0.86,0.34 q -2,1.92 -6.04,3.72 -39.75,17.68 -79.65,35.05 -2.18,0.94 -4.44,1.74 -1.58,0.56 -3.08,1.33 -8.77,4.52 -18.32,6.98 l -0.57,-9.38 q 0.95,0.88 1.99,0.42 c 4.59,-1.98 10.07,-4.77 13.23,-4.76 a 0.49,0.49 0 0 0 0.5,-0.48 c 0.06,-3.77 1.86,-5.42 5.31,-6.94 q 42.27,-18.59 84.62,-37.01 2.97,-1.29 5.2,0.97 a 1.42,1.41 51.6 0 0 1.76,0.21 q 0.26,-0.17 0.03,-0.44 a 0.22,0.21 59.2 0 1 0.08,-0.33 l 46.93,-20.75 a 0.89,0.89 0 0 1 0.94,0.13 q 0.7,0.58 1.41,0.15 z"
         id="path220"
         style="stroke-width:0.372564" />
      <ellipse
         fill="#03393d"
         cx="0"
         cy="0"
         transform="rotate(68.6,-242.4776,570.14106)"
         rx="6.9400001"
         ry="6.1799998"
         id="ellipse222"
         style="stroke-width:0.372564" />
      <path
         fill="#c9cdcd"
         d="m 582.56,587.1 c -0.06,12.93 -2.78,27 -10.78,37.51 -2.2,2.89 -5.34,4.18 -8.58,5.6 q -75.52,33.05 -150.98,66.25 -0.4,0.18 -0.16,-0.19 c 6.98,-10.74 9.11,-26.73 8.76,-39.1 q 9.55,-2.46 18.32,-6.98 1.5,-0.77 3.08,-1.33 2.26,-0.8 4.44,-1.74 39.9,-17.37 79.65,-35.05 4.04,-1.8 6.04,-3.72 a 1.3,1.25 -65.5 0 1 0.86,-0.34 h 0.39 q 0.24,0 0.47,-0.1 z"
         id="path224"
         style="stroke-width:0.372564" />
      <path
         fill="#ffffff"
         d="m 335.5,685.79 c -5.63,5.48 -14.07,3.72 -19.91,-0.39 -22.36,-15.72 -33.87,-49.39 -38.53,-74.96 q -0.15,-0.86 -0.33,-4.47 19.83,29.38 40.21,58.34 7.57,10.76 16.11,20.77 a 1.38,1.36 74.1 0 0 0.83,0.47 z"
         id="path226"
         style="stroke-width:0.372564" />
      <ellipse
         fill="#03393d"
         cx="0"
         cy="0"
         transform="rotate(82.5,-166.0799,540.46589)"
         rx="6.7600002"
         ry="6.1300001"
         id="ellipse228"
         style="stroke-width:0.372564" />
      <path
         fill="#2a8f5e"
         d="m 411.96,650.25 q 0.48,1.22 0.51,1.75 c 1.09,16.46 -1.67,45.24 -19.74,52.98 q -12.21,5.23 -24.27,10.85 -0.76,0.35 -0.29,-0.34 c 9.66,-14.2 11.47,-33.86 10.12,-50.49 z"
         id="path230"
         style="stroke-width:0.372564" />
    </g>
  </g>
</svg>
