<?xml version="1.0" encoding="utf-8"?>
<!-- Generator: Adobe Illustrator 13.0.2, SVG Export Plug-In . SVG Version: 6.00 Build 14948)  -->
<!DOCTYPE svg PUBLIC "-//W3C//DTD SVG 1.1//EN" "http://www.w3.org/Graphics/SVG/1.1/DTD/svg11.dtd">
<svg version="1.1" id="Ebene_1" xmlns="http://www.w3.org/2000/svg" xmlns:xlink="http://www.w3.org/1999/xlink" x="0px" y="0px"
	 width="221.84px" height="106.58px" viewBox="0 0 221.84 106.58" enable-background="new 0 0 221.84 106.58" xml:space="preserve">
<path d="M44.65,22.182V5.002h2.273v7.055h8.93V5.002h2.273v17.18h-2.273v-8.098h-8.93v8.098H44.65z"/>
<path d="M56.653,55.851l2.273,0.574c-0.477,1.867-1.334,3.291-2.572,4.271s-2.752,1.471-4.541,1.471
	c-1.852,0-3.357-0.377-4.518-1.131s-2.043-1.846-2.648-3.275s-0.908-2.965-0.908-4.605c0-1.789,0.342-3.35,1.025-4.682
	s1.656-2.344,2.918-3.035s2.65-1.037,4.166-1.037c1.719,0,3.164,0.438,4.336,1.313s1.988,2.105,2.449,3.691l-2.238,0.527
	c-0.398-1.25-0.977-2.16-1.734-2.73s-1.711-0.855-2.859-0.855c-1.32,0-2.424,0.316-3.311,0.949s-1.51,1.482-1.869,2.549
	s-0.539,2.166-0.539,3.299c0,1.461,0.213,2.736,0.639,3.826s1.088,1.904,1.986,2.443s1.871,0.809,2.918,0.809
	c1.273,0,2.352-0.367,3.234-1.102S56.341,57.296,56.653,55.851z"/>
<rect x="50.534" y="24.43" width="1.7" height="17.7"/>
<path d="M44.65,101.578v-17.18h2.273v7.055h8.93v-7.055h2.273v17.18h-2.273V93.48h-8.93v8.098H44.65z"/>
<rect x="50.534" y="64.48" width="1.7" height="17.65"/>
<path d="M96.302,55.851l2.273,0.574c-0.477,1.867-1.334,3.291-2.572,4.271s-2.752,1.471-4.541,1.471
	c-1.852,0-3.357-0.377-4.518-1.131s-2.043-1.846-2.648-3.275s-0.908-2.965-0.908-4.605c0-1.789,0.342-3.35,1.025-4.682
	s1.656-2.344,2.918-3.035s2.65-1.037,4.166-1.037c1.719,0,3.164,0.438,4.336,1.313s1.988,2.105,2.449,3.691l-2.238,0.527
	c-0.398-1.25-0.977-2.16-1.734-2.73s-1.711-0.855-2.859-0.855c-1.32,0-2.424,0.316-3.311,0.949s-1.51,1.482-1.869,2.549
	s-0.539,2.166-0.539,3.299c0,1.461,0.213,2.736,0.639,3.826s1.088,1.904,1.986,2.443s1.871,0.809,2.918,0.809
	c1.273,0,2.352-0.367,3.234-1.102S95.989,57.296,96.302,55.851z"/>
<rect x="61.284" y="51.58" width="19.8" height="1.701"/>
<path d="M5.002,61.875v-17.18h2.273v7.055h8.93v-7.055h2.273v17.18h-2.273v-8.098h-8.93v8.098H5.002z"/>
<rect x="20.834" y="51.58" width="20.601" height="1.701"/>
<path d="M135.997,55.851l2.273,0.574c-0.477,1.867-1.334,3.291-2.572,4.271s-2.752,1.471-4.541,1.471
	c-1.852,0-3.357-0.377-4.518-1.131s-2.043-1.846-2.648-3.275s-0.908-2.965-0.908-4.605c0-1.789,0.342-3.35,1.025-4.682
	s1.656-2.344,2.918-3.035s2.65-1.037,4.166-1.037c1.719,0,3.164,0.438,4.336,1.313s1.988,2.105,2.449,3.691l-2.238,0.527
	c-0.398-1.25-0.977-2.16-1.734-2.73s-1.711-0.855-2.859-0.855c-1.32,0-2.424,0.316-3.311,0.949s-1.51,1.482-1.869,2.549
	s-0.539,2.166-0.539,3.299c0,1.461,0.213,2.736,0.639,3.826s1.088,1.904,1.986,2.443s1.871,0.809,2.918,0.809
	c1.273,0,2.352-0.367,3.234-1.102S135.685,57.296,135.997,55.851z"/>
<rect x="100.935" y="51.58" width="19.85" height="1.701"/>
<path d="M84.299,22.226V5.046h2.273v7.055h8.93V5.046h2.273v17.18h-2.273v-8.098h-8.93v8.098H84.299z"/>
<rect x="90.185" y="24.48" width="1.699" height="17.65"/>
<path d="M84.299,101.534v-17.18h2.273v7.055h8.93v-7.055h2.273v17.18h-2.273v-8.098h-8.93v8.098H84.299z"/>
<rect x="90.185" y="64.48" width="1.699" height="17.6"/>
<path d="M175.689,55.851l2.273,0.574c-0.477,1.867-1.334,3.291-2.572,4.271s-2.752,1.471-4.541,1.471
	c-1.852,0-3.357-0.377-4.518-1.131s-2.043-1.846-2.648-3.275s-0.908-2.965-0.908-4.605c0-1.789,0.342-3.35,1.025-4.682
	s1.656-2.344,2.918-3.035s2.65-1.037,4.166-1.037c1.719,0,3.164,0.438,4.336,1.313s1.988,2.105,2.449,3.691l-2.238,0.527
	c-0.398-1.25-0.977-2.16-1.734-2.73s-1.711-0.855-2.859-0.855c-1.32,0-2.424,0.316-3.311,0.949s-1.51,1.482-1.869,2.549
	s-0.539,2.166-0.539,3.299c0,1.461,0.213,2.736,0.639,3.826s1.088,1.904,1.986,2.443s1.871,0.809,2.918,0.809
	c1.273,0,2.352-0.367,3.234-1.102S175.377,57.296,175.689,55.851z"/>
<rect x="140.634" y="51.58" width="19.851" height="1.701"/>
<path d="M124.002,22.226V5.046h2.273v7.055h8.93V5.046h2.273v17.18h-2.273v-8.098h-8.93v8.098H124.002z"/>
<rect x="129.834" y="24.48" width="1.7" height="17.65"/>
<path d="M124.002,101.534v-17.18h2.273v7.055h8.93v-7.055h2.273v17.18h-2.273v-8.098h-8.93v8.098H124.002z"/>
<rect x="129.834" y="64.48" width="1.7" height="17.6"/>
<path d="M203.361,61.875v-17.18h2.273v7.055h8.93v-7.055h2.273v17.18h-2.273v-8.098h-8.93v8.098H203.361z"/>
<rect x="180.284" y="51.58" width="20.8" height="1.701"/>
<path d="M163.708,22.226V5.046h2.273v7.055h8.93V5.046h2.273v17.18h-2.273v-8.098h-8.93v8.098H163.708z"/>
<rect x="169.534" y="24.48" width="1.7" height="17.65"/>
<path d="M163.708,101.534v-17.18h2.273v7.055h8.93v-7.055h2.273v17.18h-2.273v-8.098h-8.93v8.098H163.708z"/>
<rect x="169.534" y="64.48" width="1.7" height="17.6"/>
</svg>
