<?xml version="1.0" encoding="UTF-8" standalone="no"?>
<!-- Created with Inkscape (http://www.inkscape.org/) -->

<svg
   xmlns:dc="http://purl.org/dc/elements/1.1/"
   xmlns:cc="http://creativecommons.org/ns#"
   xmlns:rdf="http://www.w3.org/1999/02/22-rdf-syntax-ns#"
   xmlns:svg="http://www.w3.org/2000/svg"
   xmlns="http://www.w3.org/2000/svg"
   xmlns:sodipodi="http://sodipodi.sourceforge.net/DTD/sodipodi-0.dtd"
   xmlns:inkscape="http://www.inkscape.org/namespaces/inkscape"
   width="150"
   height="150"
   viewBox="0 0 39.687499 39.687499"
   version="1.1"
   id="svg1987"
   inkscape:version="0.92.4 (5da689c313, 2019-01-14)"
   sodipodi:docname="two_tone_gears.svg"
   inkscape:export-filename="C:\Users\Keegan\repos\cannlytics-website\assets\images\lab_icons\two_tone_gears.png"
   inkscape:export-xdpi="96"
   inkscape:export-ydpi="96">
  <defs
     id="defs1981">
    <clipPath
       clipPathUnits="userSpaceOnUse"
       id="clipPath238">
      <path
         d="m 5440.09,7219.29 -0.38,257.5 257.5,0.38 0.38,-257.49 z"
         id="path236"
         inkscape:connector-curvature="0" />
    </clipPath>
  </defs>
  <sodipodi:namedview
     id="base"
     pagecolor="#ffffff"
     bordercolor="#666666"
     borderopacity="1.0"
     inkscape:pageopacity="0.0"
     inkscape:pageshadow="2"
     inkscape:zoom="1.979899"
     inkscape:cx="-15.542558"
     inkscape:cy="57.366681"
     inkscape:document-units="mm"
     inkscape:current-layer="layer1"
     showgrid="false"
     fit-margin-top="0"
     fit-margin-left="0"
     fit-margin-right="0"
     fit-margin-bottom="0"
     units="px"
     inkscape:window-width="1636"
     inkscape:window-height="912"
     inkscape:window-x="2593"
     inkscape:window-y="54"
     inkscape:window-maximized="0" />
  <metadata
     id="metadata1984">
    <rdf:RDF>
      <cc:Work
         rdf:about="">
        <dc:format>image/svg+xml</dc:format>
        <dc:type
           rdf:resource="http://purl.org/dc/dcmitype/StillImage" />
        <dc:title></dc:title>
      </cc:Work>
    </rdf:RDF>
  </metadata>
  <g
     inkscape:label="Layer 1"
     inkscape:groupmode="layer"
     id="layer1"
     transform="translate(-101.80076,-164.15401)">
    <path
       d="m 117.90117,194.52413 c -3.7264,0 -6.74688,-3.02225 -6.74688,-6.74687 0,-3.7271 3.02048,-6.74758 6.74688,-6.74758 3.72604,0 6.74617,3.02048 6.74617,6.74758 0,3.72462 -3.02013,6.74687 -6.74617,6.74687"
       style="fill:#f2552d;fill-opacity:1;fill-rule:nonzero;stroke:none;stroke-width:0.03527778"
       id="path42"
       inkscape:connector-curvature="0" />
    <path
       d="m 117.90046,194.52413 c -3.72639,0 -6.74687,-3.02225 -6.74687,-6.74687 0,-3.7271 3.02048,-6.74758 6.74687,-6.74758 3.72604,0 6.74617,3.02048 6.74617,6.74758 0,3.72462 -3.02013,6.74687 -6.74617,6.74687"
       style="fill:#e53a23;fill-opacity:1;fill-rule:nonzero;stroke:none;stroke-width:0.03527778"
       id="path44"
       inkscape:connector-curvature="0" />
    <path
       d="m 116.74406,200.06733 c -0.16369,0 -0.29669,-0.133 -0.29669,-0.29633 v -1.80164 l -0.29386,-0.0497 c -0.51788,-0.0875 -1.03788,-0.21837 -1.54517,-0.38912 l -0.2734,-0.0917 -0.92322,1.59703 c -0.0522,0.091 -0.14993,0.14746 -0.25577,0.14746 -0.0529,0 -0.10266,-0.0134 -0.14887,-0.0402 l -2.2539,-1.30034 c -0.0688,-0.0392 -0.11747,-0.1023 -0.13758,-0.17815 -0.0208,-0.0773 -0.0106,-0.15734 0.0296,-0.22648 l 0.89888,-1.55893 -0.2286,-0.19015 c -0.39687,-0.32914 -0.78069,-0.70379 -1.14087,-1.1123 l -0.19085,-0.21661 -1.59879,0.92216 c -0.0452,0.0257 -0.0949,0.0392 -0.14747,0.0392 -0.10724,0 -0.20708,-0.0572 -0.25999,-0.14852 l -1.29964,-2.25284 c -0.0811,-0.14182 -0.0328,-0.3235 0.10831,-0.40463 l 1.5561,-0.89888 -0.10301,-0.27905 c -0.18309,-0.4953 -0.32808,-1.01177 -0.43215,-1.53494 l -0.0564,-0.28433 h -1.84256 c -0.1651,0 -0.29915,-0.13371 -0.29915,-0.29775 v -2.60032 c 0,-0.1644 0.13405,-0.2981 0.29915,-0.2981 h 1.79846 l 0.0501,-0.29386 c 0.0882,-0.52035 0.21907,-1.03999 0.38947,-1.54411 l 0.0921,-0.27376 -1.59561,-0.92251 c -0.0695,-0.0399 -0.11889,-0.10407 -0.1397,-0.18062 -0.0205,-0.0762 -0.0102,-0.15664 0.0293,-0.22543 l 1.30245,-2.25072 c 0.0536,-0.0924 0.15311,-0.14993 0.26,-0.14993 0.0529,0 0.10301,0.0134 0.14958,0.0402 l 1.55469,0.89782 0.19015,-0.22895 c 0.3309,-0.39829 0.70449,-0.7814 1.1116,-1.13877 l 0.21696,-0.1905 -0.92287,-1.60055 c -0.0402,-0.0688 -0.0504,-0.14958 -0.0296,-0.22648 0.0205,-0.0762 0.0688,-0.13935 0.13582,-0.1778 l 2.25248,-1.3021 c 0.0466,-0.0265 0.0977,-0.0402 0.15134,-0.0402 0.10831,0 0.20567,0.0557 0.26,0.14958 l 0.89465,1.55398 0.27904,-0.10266 c 0.49389,-0.18168 1.01036,-0.32737 1.53529,-0.43321 l 0.28293,-0.0572 v -1.8422 c 0,-0.16404 0.13476,-0.29775 0.30092,-0.29775 h 2.59821 c 0.16404,0 0.29774,0.13371 0.29774,0.29775 v 1.80022 l 0.29316,0.0501 c 0.53375,0.0914 1.05375,0.22295 1.54517,0.39123 l 0.27481,0.0942 0.92181,-1.59879 c 0.054,-0.0931 0.15134,-0.14922 0.25964,-0.14922 0.0519,0 0.1016,0.0131 0.14747,0.0392 l 2.25001,1.3007 c 0.14429,0.0836 0.19262,0.26352 0.10901,0.40957 l -0.89817,1.55504 0.22895,0.19015 c 0.40393,0.33514 0.7874,0.70944 1.14124,1.11196 l 0.19085,0.21766 1.59844,-0.92357 c 0.0455,-0.0261 0.0945,-0.0395 0.14675,-0.0395 0.10689,0 0.20708,0.0575 0.26106,0.14993 l 1.29928,2.25002 c 0.0811,0.14216 0.0321,0.32631 -0.11007,0.40851 l -1.55293,0.89606 0.10196,0.27869 c 0.18062,0.49389 0.32702,1.01142 0.43568,1.53847 l 0.0579,0.28187 h 1.83938 c 0.0797,0 0.15417,0.031 0.21061,0.0875 0.0554,0.0557 0.0861,0.12983 0.0857,0.20885 v 2.60173 c -3.5e-4,0.16475 -0.13336,0.29916 -0.29634,0.29916 h -1.79704 l -0.0512,0.29175 c -0.0942,0.53728 -0.22613,1.05657 -0.39229,1.54375 l -0.0935,0.27411 1.59949,0.92357 c 0.14041,0.0815 0.18909,0.26318 0.10725,0.40499 l -1.30034,2.25355 c -0.0533,0.0914 -0.15276,0.14922 -0.25859,0.14922 -0.0522,0 -0.1016,-0.0134 -0.14781,-0.0399 l -1.55716,-0.89959 -0.19015,0.2286 c -0.33585,0.40323 -0.7105,0.78635 -1.11407,1.13877 l -0.21837,0.19085 0.92463,1.59915 c 0.0402,0.0699 0.0508,0.15098 0.0296,0.2286 -0.0201,0.0762 -0.0688,0.13899 -0.13582,0.17744 l -2.25495,1.3014 c -0.0466,0.0268 -0.097,0.0406 -0.14993,0.0406 -0.10619,0 -0.20109,-0.0554 -0.25436,-0.14817 l -0.89958,-1.55363 -0.27799,0.1016 c -0.49212,0.18027 -1.00894,0.32597 -1.5367,0.43286 l -0.28257,0.0575 v 1.84221 c 0,0.16404 -0.13371,0.29739 -0.2974,0.29739 l -2.60208,-10e-4"
       style="fill:#ffffff;fill-opacity:1;fill-rule:nonzero;stroke:none;stroke-width:0.03527778"
       id="path612"
       inkscape:connector-curvature="0" />
    <path
       d="m 119.05581,175.13159 h -2.59821 c -0.36301,0 -0.6537,0.2921 -0.6537,0.65052 v 1.55363 c -0.54292,0.10971 -1.0735,0.25894 -1.58679,0.44803 l -0.74719,-1.29752 c -0.121,-0.2092 -0.33937,-0.32526 -0.56515,-0.32526 -0.11112,0 -0.22401,0.0282 -0.32773,0.0875 l -2.25178,1.3014 c -0.30938,0.1778 -0.41522,0.57608 -0.23636,0.88688 l 0.77858,1.34973 c -0.41239,0.36265 -0.79904,0.756 -1.1497,1.17828 l -1.29822,-0.74966 c -0.10301,-0.0589 -0.21449,-0.0868 -0.32491,-0.0868 -0.22578,0 -0.4445,0.11747 -0.56515,0.32597 l -1.30316,2.25178 c -0.17851,0.31079 -0.0723,0.70802 0.23989,0.88723 l 1.34549,0.77788 c -0.17427,0.51682 -0.31009,1.05022 -0.40287,1.59808 h -1.50072 c -0.36124,0 -0.65193,0.29281 -0.65193,0.65088 v 2.60032 c 0,0.35983 0.29069,0.65052 0.65193,0.65052 h 1.55293 c 0.1083,0.54575 0.25859,1.07774 0.44732,1.58891 l -1.29822,0.74966 c -0.3115,0.17921 -0.41557,0.57749 -0.23777,0.88688 l 1.29963,2.25249 c 0.1203,0.20849 0.34008,0.32526 0.56515,0.32526 0.11042,0 0.2219,-0.0279 0.32421,-0.0864 l 1.34866,-0.77788 c 0.36372,0.41275 0.75777,0.8001 1.18005,1.15076 l -0.75036,1.30069 c -0.17957,0.3108 -0.0737,0.70909 0.23706,0.88689 l 2.25461,1.30104 c 0.1023,0.0589 0.21413,0.0868 0.32455,0.0868 0.22437,0 0.44239,-0.11607 0.56162,-0.32385 l 0.77859,-1.34726 c 0.51717,0.17392 1.04986,0.30938 1.59843,0.40252 v 1.50354 c 0,0.35948 0.29069,0.64911 0.64911,0.64911 l 2.60244,0.001 c 0.35878,0 0.65017,-0.29069 0.65017,-0.65017 v -1.55399 c 0.54293,-0.11007 1.07351,-0.25894 1.5875,-0.44697 l 0.75036,1.29611 c 0.1203,0.20919 0.33655,0.32526 0.56057,0.32526 0.11077,0 0.22295,-0.0282 0.32632,-0.0878 l 2.25389,-1.3007 c 0.30939,-0.17709 0.41663,-0.57608 0.23636,-0.889 l -0.77928,-1.34761 c 0.41451,-0.3623 0.80045,-0.75565 1.15252,-1.17898 l 1.30034,0.75106 c 0.10231,0.0589 0.21378,0.0871 0.3235,0.0871 0.22472,0 0.44309,-0.11712 0.56444,-0.32561 l 1.30034,-2.25355 c 0.17921,-0.31009 0.0716,-0.70838 -0.23636,-0.88688 l -1.34832,-0.77858 c 0.17569,-0.51541 0.3101,-1.05057 0.4057,-1.59632 h 1.50071 c 0.35843,0 0.64841,-0.2921 0.64912,-0.65194 v -2.60032 c 0.001,-0.36054 -0.2914,-0.65052 -0.64912,-0.65052 h -1.55151 c -0.11254,-0.54646 -0.26212,-1.07492 -0.45015,-1.58891 l 1.29681,-0.74825 c 0.3101,-0.17991 0.41699,-0.57749 0.23848,-0.89005 l -1.30034,-2.25178 c -0.12206,-0.2085 -0.34148,-0.32456 -0.5655,-0.32456 -0.11042,0 -0.22154,0.0279 -0.32314,0.0868 l -1.34797,0.77858 c -0.36301,-0.41345 -0.75776,-0.79904 -1.18074,-1.15076 l 0.75035,-1.29857 c 0.17886,-0.31362 0.0723,-0.70979 -0.23918,-0.89041 l -2.25107,-1.30069 c -0.1016,-0.0582 -0.21308,-0.0861 -0.3228,-0.0861 -0.22472,0 -0.44379,0.11641 -0.5655,0.32596 l -0.77646,1.34691 c -0.51753,-0.17709 -1.05199,-0.3115 -1.59985,-0.40534 v -1.50248 c 0,-0.35842 -0.28998,-0.65052 -0.65052,-0.65052 z m -0.055,0.70555 v 2.04258 l 0.58667,0.10055 c 0.51471,0.0878 1.01636,0.21519 1.49049,0.37712 l 0.54928,0.18838 0.29033,-0.50342 0.7493,-1.30033 2.15618,1.24636 -0.7232,1.25166 -0.29774,0.5154 0.45755,0.3803 c 0.38982,0.3235 0.76059,0.68474 1.10173,1.0735 l 0.38206,0.43498 0.50129,-0.28963 1.30034,-0.75107 1.24531,2.15724 -1.24954,0.72108 -0.514,0.29668 0.20391,0.55704 c 0.17462,0.47731 0.31644,0.97825 0.42157,1.48837 l 0.11571,0.56338 h 0.57538 1.49507 v 2.49167 h -1.44427 -0.59267 l -0.1023,0.5835 c -0.091,0.51964 -0.21873,1.02129 -0.37889,1.49084 l -0.18662,0.54856 0.50201,0.29034 1.29822,0.74965 -1.2446,2.15795 -1.25166,-0.7232 -0.51505,-0.29774 -0.3803,0.4572 c -0.32385,0.38911 -0.68509,0.75847 -1.07456,1.0989 l -0.43744,0.3817 0.29069,0.50271 0.75212,1.30069 -2.15583,1.2446 -0.72249,-1.24812 -0.29703,-0.51259 -0.55633,0.20355 c -0.4752,0.17392 -0.97508,0.31433 -1.4852,0.41805 l -0.5655,0.115 v 0.57644 1.4986 l -2.49061,-0.001 v -1.44709 -0.59584 l -0.58738,-0.0998 c -0.49988,-0.0847 -1.00189,-0.21096 -1.4926,-0.37571 l -0.5461,-0.18344 -0.28893,0.49918 -0.75035,1.29787 -2.15583,-1.2439 0.72249,-1.25271 0.29739,-0.51541 -0.4579,-0.37994 c -0.38277,-0.31785 -0.75354,-0.67945 -1.10173,-1.07421 l -0.3817,-0.43321 -0.49989,0.28857 -1.3014,0.75071 -1.2446,-2.15723 1.24954,-0.72108 0.51506,-0.29775 -0.20603,-0.55774 c -0.17638,-0.47836 -0.31714,-0.97684 -0.41698,-1.48166 l -0.11254,-0.56868 h -0.57961 -1.4993 v -2.49061 h 1.44709 0.59549 l 0.0998,-0.58738 c 0.0857,-0.502 0.21201,-1.00365 0.37641,-1.49048 l 0.1845,-0.54752 -0.50024,-0.28892 -1.29893,-0.75106 1.24778,-2.15618 1.2513,0.72284 0.51541,0.29739 0.3803,-0.45826 c 0.31855,-0.38382 0.6798,-0.75353 1.07244,-1.09855 l 0.43462,-0.3817 -0.28892,-0.50095 -0.75071,-1.30175 2.15723,-1.24707 0.72002,1.2506 0.29704,0.51541 0.55809,-0.20567 c 0.47661,-0.17533 0.97579,-0.31574 1.48273,-0.41804 l 0.56621,-0.1143 v -0.5775 -1.4986 h 2.49131"
       style="fill:#2e6096;fill-opacity:1;fill-rule:nonzero;stroke:none;stroke-width:0.03527778"
       id="path614"
       inkscape:connector-curvature="0" />
    <path
       d="m 131.57801,175.95285 c -1.06222,0 -1.92299,-0.86113 -1.92299,-1.92299 0,-1.06327 0.86077,-1.9237 1.92299,-1.9237 1.06186,0 1.92334,0.86043 1.92334,1.9237 0,1.06186 -0.86148,1.92299 -1.92334,1.92299 z m 5.70441,-3.05082 h -0.94368 c -0.21907,0 -0.45684,-0.16898 -0.52458,-0.37783 l -0.17639,-0.4265 c -0.0977,-0.19544 -0.0515,-0.48155 0.10266,-0.63712 l 0.66781,-0.6671 c 0.15487,-0.15487 0.15487,-0.40852 0,-0.56163 l -1.03082,-1.03328 c -0.15416,-0.15452 -0.40851,-0.15452 -0.56373,0 l -0.66817,0.66745 c -0.15522,0.15452 -0.44026,0.20109 -0.63676,0.10266 l -0.4258,-0.17639 c -0.20673,-0.0681 -0.37606,-0.30374 -0.37606,-0.52281 v -0.94333 c 0,-0.21837 -0.18063,-0.39899 -0.399,-0.39899 h -1.46014 c -0.21908,0 -0.39688,0.18062 -0.39688,0.39899 v 0.94333 c 0,0.21907 -0.17004,0.45473 -0.37818,0.52281 l -0.4265,0.17639 c -0.19721,0.0984 -0.48296,0.0519 -0.63747,-0.10266 l -0.66746,-0.66745 c -0.15381,-0.15452 -0.40816,-0.15452 -0.56162,0 l -1.03293,1.03328 c -0.15417,0.15311 -0.15417,0.40676 0,0.56163 l 0.66851,0.6671 c 0.15346,0.15557 0.19967,0.44168 0.10336,0.63712 l -0.17568,0.4265 c -0.0698,0.20885 -0.30621,0.37783 -0.52529,0.37783 h -0.94368 c -0.21801,0 -0.39758,0.17886 -0.39758,0.39829 v 1.45838 c 0,0.21907 0.17957,0.39829 0.39758,0.39829 h 0.94368 c 0.21908,0 0.45544,0.16968 0.52529,0.37711 l 0.17568,0.42722 c 0.0963,0.19544 0.0501,0.48295 -0.10336,0.63712 l -0.66851,0.6678 c -0.15417,0.15417 -0.15417,0.40852 0,0.56268 l 1.03293,1.03223 c 0.15346,0.15452 0.40781,0.15452 0.56162,0 l 0.66746,-0.66816 c 0.15451,-0.15452 0.44026,-0.20144 0.63747,-0.10336 l 0.4265,0.17639 c 0.20814,0.0695 0.37818,0.30444 0.37818,0.52352 v 0.94403 c 0,0.21908 0.1778,0.39829 0.39688,0.39829 h 1.46014 c 0.21837,0 0.399,-0.17921 0.399,-0.39829 v -0.94403 c 0,-0.21908 0.16933,-0.45403 0.37606,-0.52352 l 0.4258,-0.17639 c 0.1965,-0.0981 0.48154,-0.0512 0.63676,0.10336 l 0.66817,0.66816 c 0.15522,0.15452 0.40957,0.15452 0.56373,0 l 1.03082,-1.03223 c 0.15487,-0.15416 0.15487,-0.40851 0,-0.56268 l -0.66781,-0.6678 c -0.15416,-0.15417 -0.20038,-0.44168 -0.10266,-0.63712 l 0.17639,-0.42722 c 0.0677,-0.20743 0.30551,-0.37711 0.52458,-0.37711 h 0.94368 c 0.21873,0 0.39758,-0.17922 0.39758,-0.39829 v -1.45838 c 0,-0.21943 -0.17885,-0.39829 -0.39758,-0.39829"
       style="fill:#9cdee4;fill-opacity:1;fill-rule:nonzero;stroke:none;stroke-width:0.03527778"
       id="path616"
       inkscape:connector-curvature="0" />
    <path
       d="m 131.57801,172.45894 c -0.86572,0 -1.57022,0.70485 -1.57022,1.57092 0,0.86572 0.7045,1.57021 1.57022,1.57021 0.86607,0 1.57056,-0.70449 1.57056,-1.57021 0,-0.86607 -0.70449,-1.57092 -1.57056,-1.57092 z m 0,3.84669 c -1.25483,0 -2.27577,-1.02059 -2.27577,-2.27577 0,-1.25554 1.02094,-2.27647 2.27577,-2.27647 1.25518,0 2.27612,1.02093 2.27612,2.27647 0,1.25518 -1.02094,2.27577 -2.27612,2.27577 z m -2.165,1.38007 c 0.13935,0 0.27411,0.0303 0.38982,0.0878 l 0.40464,0.16651 c 0.32984,0.10936 0.59619,0.47801 0.59619,0.84949 v 0.94403 c 0,0.0247 0.0205,0.0455 0.0441,0.0455 h 1.46014 c 0.024,0 0.0462,-0.0219 0.0462,-0.0455 v -0.94403 c 0,-0.37077 0.26493,-0.73978 0.6163,-0.85796 l 0.40323,-0.16792 c 0.0935,-0.0476 0.2286,-0.078 0.36759,-0.078 0.2473,0 0.49142,0.0963 0.65299,0.25717 l 0.66887,0.66887 c 0.0106,0.01 0.0236,0.0123 0.0328,0.0123 l 1.06256,-1.04458 2.7e-4,-0.0639 -0.66781,-0.66781 c -0.26247,-0.26247 -0.33514,-0.71155 -0.16863,-1.04457 l 0.16581,-0.40394 c 0.10583,-0.32843 0.47554,-0.59513 0.85055,-0.59513 h 0.94368 c 0.024,0 0.0448,-0.0212 0.0448,-0.0455 v -1.45838 c 0,-0.0243 -0.0208,-0.0455 -0.0448,-0.0455 h -0.94368 c -0.37571,0 -0.74578,-0.26741 -0.86008,-0.62195 l -0.16677,-0.4004 c -0.15522,-0.30833 -0.0833,-0.75671 0.17815,-1.02024 l 0.66887,-0.66816 -0.001,-0.001 7.9e-4,-0.0621 -1.03081,-1.03329 c -0.0409,-0.0124 -0.0543,-0.0102 -0.0653,0.001 l -0.66746,0.66675 c -0.25443,0.25365 -0.72363,0.33055 -1.0443,0.16863 l -0.40288,-0.16581 c -0.32773,-0.10724 -0.59372,-0.47625 -0.59372,-0.84878 v -0.94333 c 0,-0.0236 -0.0226,-0.0462 -0.0462,-0.0462 h -1.46014 c -0.0233,0 -0.0441,0.0219 -0.0441,0.0462 v 0.94333 c 0,0.37288 -0.26705,0.74189 -0.62124,0.85795 l -0.40146,0.16722 c -0.0935,0.048 -0.22896,0.0787 -0.36866,0.0787 -0.24729,0 -0.49177,-0.0967 -0.65299,-0.25788 l -0.66745,-0.66746 h -0.0628 l -1.03293,1.03329 c -0.0123,0.0395 -0.0102,0.0526 7.1e-4,0.0635 l 0.66745,0.66604 c 0.26106,0.26459 0.33373,0.71226 0.17039,1.04317 l -0.1658,0.40463 c -0.10901,0.3302 -0.47872,0.5962 -0.85126,0.5962 h -0.94368 c -0.0236,0 -0.0448,0.0215 -0.0448,0.0455 v 1.45838 c 0,0.024 0.0212,0.0455 0.0448,0.0455 h 0.94368 c 0.37183,0 0.74154,0.26529 0.85972,0.61736 l 0.16722,0.40534 c 0.15416,0.3108 0.0811,0.75883 -0.17921,1.02023 l -0.66922,0.66852 c -0.0166,0.0166 -0.0166,0.0476 0,0.0639 l 1.03293,1.03223 h 0.0628 l 0.66745,-0.66816 c 0.16158,-0.16158 0.40605,-0.25788 0.6537,-0.25788 z m 2.89489,2.79894 h -1.46014 c -0.41346,0 -0.74966,-0.33691 -0.74966,-0.75107 v -0.94403 c 0,-0.0667 -0.073,-0.16792 -0.13723,-0.18909 l -0.44943,-0.18486 c -0.13194,-0.0617 -0.21661,-0.0102 -0.25329,0.0268 l -0.66746,0.66817 c -0.28117,0.28257 -0.77858,0.28328 -1.06116,-7.2e-4 l -1.03223,-1.03152 c -0.2928,-0.29281 -0.2928,-0.7687 0,-1.06151 l 0.66852,-0.66781 c 0.0466,-0.0473 0.0663,-0.17074 0.0363,-0.23177 l -0.18555,-0.44909 c -0.0296,-0.0857 -0.13124,-0.1584 -0.19898,-0.1584 h -0.94368 c -0.41379,0 -0.75034,-0.3369 -0.75034,-0.75106 v -1.45838 c 0,-0.41416 0.33655,-0.75107 0.75034,-0.75107 h 0.94368 c 0.0681,0 0.16935,-0.0727 0.1905,-0.13652 l 0.18416,-0.44944 c 0.0395,-0.0822 0.0198,-0.20638 -0.0282,-0.25506 l -0.6664,-0.66499 c -0.14252,-0.14287 -0.22014,-0.33231 -0.21943,-0.5341 7.1e-4,-0.20003 0.079,-0.3877 0.22013,-0.52776 l 1.03188,-1.03222 c 0.28116,-0.28258 0.77858,-0.28328 1.06115,7e-4 l 0.66675,0.66675 c 0.037,0.0367 0.1711,0.0674 0.23036,0.0367 l 0.44944,-0.18697 c 0.0882,-0.03 0.16016,-0.13018 0.16016,-0.19685 v -0.94332 c 0,-0.41451 0.3362,-0.75177 0.74966,-0.75177 h 1.46014 c 0.41452,0 0.75177,0.33726 0.75177,0.75177 v 0.94333 c 0,0.067 0.0713,0.16721 0.13406,0.18803 l 0.45014,0.18521 c 0.0825,0.0388 0.21097,0.0152 0.25295,-0.0268 l 0.66745,-0.66675 c 0.28434,-0.28363 0.78035,-0.28222 1.06257,0 l 1.03117,1.03364 c 0.1397,0.13829 0.21872,0.32597 0.21907,0.52635 8e-4,0.20214 -0.0773,0.39158 -0.21943,0.53375 l -0.6678,0.6671 c -0.0462,0.0469 -0.0663,0.17004 -0.0363,0.23001 l 0.18662,0.44944 c 0.03,0.0885 0.13053,0.15981 0.19861,0.15981 h 0.94368 c 0.41381,0 0.75036,0.3369 0.75036,0.75107 v 1.45838 c 0,0.41416 -0.33655,0.75106 -0.75036,0.75106 h -0.94368 c -0.0667,0 -0.16933,0.0723 -0.18909,0.13335 l -0.18591,0.45262 c -0.0406,0.0836 -0.0208,0.20602 0.0261,0.25329 l 0.6678,0.66781 c 0.14147,0.14076 0.21979,0.32914 0.21979,0.53093 0,0.20144 -0.0783,0.38982 -0.22049,0.53128 l -1.02976,1.03153 c -0.28293,0.28257 -0.77929,0.28328 -1.06221,7.1e-4 l -0.66887,-0.66887 c -0.0409,-0.0413 -0.20884,-0.0487 -0.23001,-0.037 l -0.44803,0.18662 c -0.0861,0.0296 -0.15839,0.13053 -0.15839,0.19756 v 0.94403 c 0,0.41416 -0.33726,0.75106 -0.75178,0.75106"
       style="fill:#2e6096;fill-opacity:1;fill-rule:nonzero;stroke:none;stroke-width:0.03527778"
       id="path618"
       inkscape:connector-curvature="0" />
    <path
       d="m 119.74514,181.62375 h -3.69077 v 12.3056 h 3.69077 v -12.3056"
       style="fill:#2e6096;fill-opacity:1;fill-rule:nonzero;stroke:none;stroke-width:0.03527778"
       id="path620"
       inkscape:connector-curvature="0" />
    <path
       d="m 124.05255,189.62229 v -3.69147 h -12.30524 v 3.69147 h 12.30524"
       style="fill:#2e6096;fill-opacity:1;fill-rule:nonzero;stroke:none;stroke-width:0.03527778"
       id="path622"
       inkscape:connector-curvature="0" />
  </g>
</svg>
