<?xml version="1.0" encoding="UTF-8" standalone="no"?>
<!-- Created with Inkscape (http://www.inkscape.org/) -->
<svg
   xmlns:svg="http://www.w3.org/2000/svg"
   xmlns="http://www.w3.org/2000/svg"
   version="1.0"
   width="181.82385"
   height="146.05708"
   id="svg2">
  <defs
     id="defs4" />
  <g
     transform="matrix(0.536899,0,0,0.536899,-83.973691,-207.52292)"
     id="layer1">
    <path
       d="M 408.55588,465.75538 C 377.99253,412.69417 304.24488,390.57949 249.53099,418.06619 C 211.10491,437.01539 187.47769,475.66669 172.79284,514.33483 C 162.25218,542.23637 155.74885,573.42997 163.60256,602.92129 C 173.255,625.84713 197.85095,636.74406 220.0781,643.92728 C 264.43256,657.99511 314.77465,659.8929 358.28792,641.06373 C 411.46599,615.50212 440.03422,548.96995 420.96155,493.00748 C 417.95724,483.50127 413.69397,474.35023 408.55588,465.75538 z"
       id="path2383"
       style="fill:#a05a2c;fill-opacity:1;fill-rule:nonzero;stroke:#000000;stroke-width:7.45018959;stroke-linecap:round;stroke-linejoin:round;stroke-miterlimit:4;stroke-opacity:1" />
    <path
       d="M 323.03125,408.15625 C 331.353,412.65863 339.09192,418.25604 345.9375,424.96875 C 352.62864,431.32045 358.6636,438.37282 363.6875,446.0625 C 394.4932,490.98721 385.65658,557.12707 344.8125,593 C 310.87391,620.5016 265.72065,631.29206 222.875,629.8125 C 205.52028,629.11854 186.20874,626.66909 171.90625,616.3125 C 183.90766,630.42273 202.69754,638.32561 220.0625,643.9375 C 264.41697,658.0053 314.76798,659.89167 358.28125,641.0625 C 411.45931,615.5009 440.04142,548.96247 420.96875,493 C 417.96444,483.49379 413.70059,474.34485 408.5625,465.75 C 390.68092,434.70569 358.01663,414.27843 323.03125,408.15625 z"
       id="path3250"
       style="fill:#000000;fill-opacity:0.31372549;fill-rule:nonzero;stroke:none;stroke-width:3.99999976;stroke-linecap:round;stroke-linejoin:round;stroke-miterlimit:4;stroke-opacity:1" />
    <path
       d="M 412.48334,455.53177 C 427.55241,432.1347 475.42828,419.59873 485.34976,431.83349 C 495.27124,444.06825 490.54315,465.57744 487.52866,468.13436 C 484.51415,470.69127 464.88606,455.07917 447.77431,462.9174 C 430.66255,470.75564 421.0067,478.77995 421.0067,478.77995 L 412.48334,455.53177 z"
       id="path3239"
       style="fill:#502d16;fill-opacity:1;fill-rule:evenodd;stroke:#000000;stroke-width:7.45019054;stroke-linecap:butt;stroke-linejoin:miter;stroke-miterlimit:4;stroke-dasharray:none;stroke-opacity:1" />
    <path
       d="M 490.84375,445.21875 C 490.36259,448.09308 489.35083,450.31078 488.375,451 C 485.5515,452.99419 464.95278,444.76067 448.46875,451.6875 C 431.98473,458.61431 422.9375,464.875 422.9375,464.875 L 414.5,452.78125 C 413.79142,453.68728 413.07556,454.58909 412.46875,455.53125 L 421,478.78125 C 421,478.78125 430.66948,470.7445 447.78125,462.90625 C 464.893,455.06802 484.51674,470.6819 487.53125,468.125 C 489.59971,466.37051 492.44813,455.70066 490.84375,445.21875 z"
       id="path3263"
       style="fill:#000000;fill-opacity:0.31372549;fill-rule:evenodd;stroke:none;stroke-width:4;stroke-linecap:butt;stroke-linejoin:miter;stroke-miterlimit:4;stroke-dasharray:none;stroke-opacity:1" />
    <path
       d="M 422.00746,458.2417 C 391.88399,406.566 326.7308,377.78514 270.77026,395.47012 C 258.36044,398.52163 257.64797,414.3873 257.80945,414.16469 C 279.69773,404.71606 294.20394,425.49149 314.08805,449.78899 C 338.40716,479.50587 362.62608,521.57013 378.29589,560.36354 C 389.26131,587.51039 395.513,612.95629 381.62745,625.8382 C 382.08719,626.12898 395.17523,633.93004 405.16014,622.46148 C 454.19974,569.65453 451.5732,505.58382 422.00746,458.2417 z"
       id="path3201"
       style="fill:#502d16;fill-opacity:1;fill-rule:nonzero;stroke:#000000;stroke-width:7.45019054;stroke-linecap:round;stroke-linejoin:round;stroke-miterlimit:4;stroke-opacity:1" />
    <path
       d="M 420.00492,452.85358 C 423.95736,490.13396 413.71463,521.64674 388.97427,548.06495 C 383.36218,554.05764 378.21973,550.25046 373.40625,548.84375 C 375.10303,552.70393 376.74154,556.56316 378.28125,560.375 C 389.24666,587.52186 395.51055,612.96184 381.625,625.84375 C 382.08475,626.13453 395.17134,633.93731 405.15625,622.46875 C 450.07375,574.10058 453.38386,509.21763 420.00492,452.85358 z"
       id="path3269"
       style="fill:#000000;fill-opacity:0.31372549;fill-rule:nonzero;stroke:none;stroke-width:4;stroke-linecap:round;stroke-linejoin:round;stroke-miterlimit:4;stroke-opacity:1" />
  </g>
</svg>
