<?xml version="1.0" encoding="UTF-8" standalone="no"?>
<!-- Created with Inkscape (http://www.inkscape.org/) -->

<svg
   xmlns:dc="http://purl.org/dc/elements/1.1/"
   xmlns:cc="http://creativecommons.org/ns#"
   xmlns:rdf="http://www.w3.org/1999/02/22-rdf-syntax-ns#"
   xmlns:svg="http://www.w3.org/2000/svg"
   xmlns="http://www.w3.org/2000/svg"
   xmlns:sodipodi="http://sodipodi.sourceforge.net/DTD/sodipodi-0.dtd"
   xmlns:inkscape="http://www.inkscape.org/namespaces/inkscape"
   width="45"
   height="410"
   viewBox="0 0 11.906249 108.47917"
   version="1.1"
   id="svg924"
   inkscape:version="0.92.4 (5da689c313, 2019-01-14)"
   sodipodi:docname="bean_stalk_complex.svg">
  <defs
     id="defs918" />
  <sodipodi:namedview
     id="base"
     pagecolor="#ffffff"
     bordercolor="#666666"
     borderopacity="1.0"
     inkscape:pageopacity="0.0"
     inkscape:pageshadow="2"
     inkscape:zoom="1.979899"
     inkscape:cx="-20.334826"
     inkscape:cy="189.94902"
     inkscape:document-units="mm"
     inkscape:current-layer="layer1"
     showgrid="false"
     fit-margin-top="0"
     fit-margin-left="0"
     fit-margin-right="0"
     fit-margin-bottom="0"
     units="px"
     inkscape:window-width="1920"
     inkscape:window-height="1051"
     inkscape:window-x="-9"
     inkscape:window-y="-9"
     inkscape:window-maximized="1" />
  <metadata
     id="metadata921">
    <rdf:RDF>
      <cc:Work
         rdf:about="">
        <dc:format>image/svg+xml</dc:format>
        <dc:type
           rdf:resource="http://purl.org/dc/dcmitype/StillImage" />
        <dc:title></dc:title>
      </cc:Work>
    </rdf:RDF>
  </metadata>
  <g
     inkscape:label="Layer 1"
     inkscape:groupmode="layer"
     id="layer1"
     transform="translate(-97.332654,-35.410613)">
    <path
       d="m 103.22684,46.347002 c 0.46849,-0.752828 0.67945,-1.636536 0.63183,-2.59468 -0.0392,-0.790223 -0.16404,-1.568098 -0.17286,-2.361848 -0.004,-0.384527 0.0501,-0.754591 0.15204,-1.126066 0.20814,-0.673806 0.69392,-0.889353 1.45803,-0.646995 0.15029,0.04763 0.76906,0.848078 0.59655,1.037167 -0.25929,0.283633 -0.72319,-0.08643 -0.99942,-0.149578 -0.55351,-0.127353 -0.52211,0.6223 -0.32667,0.959908 0.22613,0.390525 0.66781,0.397581 1.04105,0.220487 1.06856,-0.506942 0.25082,-1.985786 -0.4505,-2.378075 -0.96344,-0.539398 -1.58397,0.747536 -1.7212,1.44145 -0.14252,0.7239 -0.0469,1.520825 0.007,2.250016 0.0783,1.055159 -0.0575,1.933222 -0.46391,2.748845 -0.32067,-0.828323 -0.56338,-1.7018 -0.63429,-2.694517 -0.0949,-2.854678 1.33174,-4.853164 2.85468,-7.041797 -6.651977,2.124781 -4.78296,12.679186 -3.10056,18.08233 -0.83715,-0.350308 -2.09797,-0.03457 -2.894545,0.283986 h 0.09525 c 0.475544,0.571147 1.522235,1.522589 2.283885,1.713089 0.46743,0.07197 0.86642,-0.01976 1.12571,-0.212372 0.11148,0.28575 0.22296,0.56903 0.33126,0.851605 0.39017,-2.739319 1.00753,-5.459236 1.19133,-8.23595 -0.33584,-0.728486 -0.69074,-1.427691 -1.00436,-2.147005"
       style="fill:#96e6a1;fill-opacity:1;fill-rule:nonzero;stroke:none;stroke-width:0.03527778"
       id="path34"
       inkscape:connector-curvature="0" />
    <path
       d="m 104.60091,56.196557 c -0.34889,1.058334 -0.33337,2.131484 -0.0289,3.147484 0.62513,-0.976137 1.23931,-1.893359 1.38818,-3.15842 0.001,0.02963 0.002,0.06174 0.003,0.09207 0.0547,-0.681214 0.0804,-1.3716 0.0762,-2.065514 -0.62371,0.555625 -1.17439,1.18357 -1.43827,1.984375"
       style="fill:#7f9b28;fill-opacity:1;fill-rule:nonzero;stroke:none;stroke-width:0.03527778"
       id="path36"
       inkscape:connector-curvature="0" />
    <path
       d="m 104.1543,55.449374 c 0.51893,-0.771878 1.15323,-1.3716 1.87642,-1.914878 -0.096,-2.851502 -0.69074,-5.677958 -1.78329,-7.816497 0.0579,0.93345 0.0441,1.857728 -0.0162,2.776008 -0.1838,2.776714 -0.80116,5.496631 -1.19133,8.23595 -0.28152,1.975203 -0.44203,3.960284 -0.23742,5.983816 0.32244,-0.753885 0.67522,-1.475669 1.04422,-2.152649 -0.67804,-1.595261 -0.6537,-3.680531 0.30762,-5.11175"
       style="fill:#ffa600;fill-opacity:1;fill-rule:nonzero;stroke:none;stroke-width:0.03527778"
       id="path38"
       inkscape:connector-curvature="0" />
    <path
       d="m 105.96299,56.277696 c -0.001,-0.03034 -0.002,-0.06244 -0.003,-0.09207 -0.14887,1.265061 -0.76306,2.182283 -1.38818,3.15842 -0.30445,-1.016 -0.31997,-2.08915 0.0289,-3.147484 0.26387,-0.800805 0.81456,-1.42875 1.43827,-1.984375 0.43145,-0.384527 0.89676,-0.735189 1.32997,-1.080558 0.63606,-0.505883 2.10574,-2.02565 0.94122,-2.795058 -0.0949,-0.0628 -0.20321,-0.113242 -0.30481,-0.164042 -0.0949,-0.04763 -0.19155,-0.09172 -0.29174,-0.126294 -0.16334,-0.05609 -0.3362,-0.08643 -0.50871,-0.06526 -0.13758,0.01693 -0.27023,0.06526 -0.38911,0.136525 -0.10936,0.06491 -0.20673,0.148872 -0.28716,0.247297 -0.0804,0.09913 -0.14358,0.211667 -0.18768,0.331611 -0.0399,0.109714 -0.0646,0.226483 -0.066,0.343606 -7.1e-4,0.09842 0.0166,0.19685 0.0508,0.289277 0.0452,0.12065 0.12488,0.249414 0.25576,0.287162 0.12806,0.03669 0.26035,-0.01058 0.37324,-0.0702 0.18274,-0.09666 0.39194,-0.222603 0.43709,-0.44062 0.018,-0.08925 0.0318,-0.182033 0.002,-0.270227 -0.0303,-0.09137 -0.10054,-0.163689 -0.18168,-0.212373 -0.0258,-0.01482 -0.0529,-0.02822 -0.0801,-0.04022 -0.0236,-0.0099 -0.0621,-0.03457 -0.0878,-0.03528 1.4217,0.0321 1.58009,1.087261 0.63042,1.780116 -0.32703,0.322792 -0.73096,0.56515 -1.10772,0.82162 -0.18451,0.125942 -0.36231,0.254353 -0.53658,0.385233 -0.72319,0.543278 -1.35749,1.143 -1.87642,1.914878 -0.96132,1.431219 -0.98567,3.516489 -0.30763,5.11175 -0.369,0.67698 -0.72178,1.398764 -1.04422,2.152649 -0.21272,0.496006 -0.41134,1.006829 -0.59443,1.526471 -0.44027,-0.77964 -1.99037,-1.355373 -2.730145,-1.043517 0.192264,0.6096 1.519415,2.45745 2.359375,2.188986 -0.70802,2.40171 -1.02341,4.951941 -0.60713,7.311673 0.30974,-3.54824 1.69792,-7.206547 4.18606,-9.71903 0.56727,-2.161115 0.61489,-4.745213 0.54681,-6.70066"
       style="fill:#45b649;fill-opacity:1;fill-rule:nonzero;stroke:none;stroke-width:0.03527778"
       id="path40"
       inkscape:connector-curvature="0" />
    <path
       d="m 104.36208,82.459452 c 0.42616,-1.155348 0.76659,-2.347738 0.99448,-3.716514 -0.13723,-1.521177 -0.45014,-3.013427 -0.63394,-4.571649 -0.0632,-0.746476 -0.0991,-1.508476 -0.10407,-2.277885 0.70168,-0.213783 1.83833,-1.731785 2.10291,-2.194631 h 0.0952 c -0.5842,-0.05856 -1.52612,-0.0078 -2.14454,0.369358 0.10019,-1.710267 0.35596,-3.419827 0.81175,-5.032375 0.38135,-1.268942 0.88829,-2.410529 1.64958,-3.489324 -0.62371,0.415925 -1.19203,0.901347 -1.71732,1.431924 -2.48814,2.512483 -3.87632,6.17079 -4.18606,9.71903 -0.0642,0.732366 -0.0875,1.4605 -0.06,2.1717 0.0427,1.260827 0.20885,2.49202 0.41381,3.712278 0.44697,0.195088 0.86325,0.475192 1.19909,0.826559 0.75283,0.7874 1.30634,1.882775 1.57904,3.051529"
       style="fill:#96e6a1;fill-opacity:1;fill-rule:nonzero;stroke:none;stroke-width:0.03527778"
       id="path42"
       inkscape:connector-curvature="0" />
    <path
       d="m 103.0882,85.428077 c 0.20003,-1.370896 0.5274,-2.657123 -0.1584,-4.091164 -0.25223,-0.527402 -0.65052,-1.181807 -1.15781,-1.683102 0.37077,2.035175 0.78599,4.050945 0.8576,6.127395 0,0.216255 -0.004,0.42898 -0.007,0.642763 0.0243,-0.05574 0.0459,-0.11148 0.0702,-0.167217 0.13582,-0.282223 0.2667,-0.556683 0.39546,-0.828675"
       style="fill:#45b649;fill-opacity:1;fill-rule:nonzero;stroke:none;stroke-width:0.03527778"
       id="path44"
       inkscape:connector-curvature="0" />
    <path
       d="m 105.82787,73.222319 c 0.004,-0.285046 0.006,-0.571148 0.006,-0.859015 -0.005,0.286457 -0.007,0.57291 -0.006,0.859015"
       style="fill:#edf185;fill-opacity:1;fill-rule:nonzero;stroke:none;stroke-width:0.03527778"
       id="path46"
       inkscape:connector-curvature="0" />
    <path
       d="m 105.82787,73.222319 c -0.0247,1.880658 -0.1397,3.69852 -0.4706,5.516737 -3.5e-4,0.0013 -7.2e-4,0.0028 -7.2e-4,0.0039 -0.22789,1.368777 -0.56832,2.561167 -0.99448,3.716515 -0.27269,-1.168754 -0.8262,-2.264129 -1.57903,-3.051529 -0.33584,-0.351367 -0.75212,-0.631471 -1.19909,-0.826559 -1.42028,-0.620535 -3.159478,-0.36336 -3.690408,1.370542 -0.402167,1.312688 1.082322,1.82598 2.026002,0.952148 0.406046,-0.37606 0.753176,-0.847373 0.04621,-1.355725 -0.608541,-0.437798 -1.289755,0.347133 -1.221669,0.819857 0.0314,0.506941 -0.563739,0.581376 -0.471664,-0.276225 0.20708,-0.845257 1.143,-1.223082 1.929699,-1.211088 0.59301,0.0092 1.12359,0.331964 1.56985,0.772938 0.5073,0.501295 0.90559,1.1557 1.15782,1.683101 0.6858,1.434042 0.35842,2.720269 0.1584,4.091165 -0.12877,0.271992 -0.25965,0.546452 -0.39547,0.828675 -0.0243,0.05574 -0.0459,0.111477 -0.0702,0.167217 -0.30233,0.702027 -0.5715,1.400175 -0.80609,2.095145 -0.61772,-0.606777 -1.847852,-0.9906 -2.481793,-0.7239 0.16898,0.537282 1.217083,2.031649 2.039403,2.199923 -0.6357,2.426759 -0.79622,4.836229 -0.29457,7.302849 0.33338,-4.20299 1.99532,-8.133995 4.02732,-11.793357 1.29363,-3.930298 0.73166,-8.071556 0.72107,-12.28231"
       style="fill:#ffa600;fill-opacity:1;fill-rule:nonzero;stroke:none;stroke-width:0.03527778"
       id="path48"
       inkscape:connector-curvature="0" />
    <path
       d="m 106.64843,82.864439 c 0.18239,-0.29845 0.36513,-0.595135 0.54857,-0.890058 -0.18908,0.287163 -0.37112,0.585258 -0.54857,0.890058"
       style="fill:#cce429;fill-opacity:1;fill-rule:nonzero;stroke:none;stroke-width:0.03527778"
       id="path50"
       inkscape:connector-curvature="0" />
    <path
       d="m 104.44675,102.21184 c -0.36477,-1.56034 -0.79975,-3.112565 -0.96097,-4.725815 -0.002,-0.0229 -0.003,-0.0469 -0.006,-0.0702 0.055,-0.28116 0.13018,-0.56727 0.23107,-0.86042 0.46637,-1.35432 1.9498,-2.785537 3.38455,-1.41605 0.82938,0.79163 0.49177,1.90782 -0.19297,2.61902 -1.20015,0.75071 -1.89618,-0.15311 -2.02424,-0.52564 -0.17639,-0.9398 0.0681,-1.07879 0.73449,-0.41734 -0.006,-0.002 -0.009,0.007 -0.004,0.009 1.22696,0.49141 0.80892,-1.44322 -0.31574,-1.08198 -1.40123,0.4505 -0.18027,3.47381 1.45662,2.32975 1.83444,-1.28129 0.87983,-4.230158 -1.44392,-3.71687 -0.93768,0.20708 -1.52894,1.03682 -1.91205,1.91523 -0.21449,-4.510966 1.04598,-9.609661 3.25402,-13.406258 -0.5267,0.863248 -1.04422,1.744134 -1.54164,2.64019 -2.032,3.659362 -3.69394,7.590367 -4.02731,11.793358 -0.0399,0.50342 -0.0677,1.00895 -0.0677,1.52048 0,1.285525 0.29633,2.538585 0.65581,3.778255 -1.14088,-1.42558 -1.914875,-2.853985 -1.872894,-4.887045 7.06e-4,-0.0254 -0.03634,-0.0293 -0.03986,-0.003 -0.250472,1.70215 -0.137231,3.291065 0.726374,4.809075 0.66286,1.16522 1.4739,2.08033 2.10043,3.1951 0.38277,1.44322 0.59373,2.92947 0.94721,4.38037 0.049,-0.14167 0.0991,-0.28321 0.14711,-0.42432 0.8001,-2.39959 0.80645,-4.93889 0.77082,-7.4549"
       style="fill:#96e6a1;fill-opacity:1;fill-rule:nonzero;stroke:none;stroke-width:0.03527778"
       id="path52"
       inkscape:connector-curvature="0" />
    <path
       d="m 104.49437,113.51272 c 0.20708,-0.70968 0.38383,-1.44597 0.51435,-2.22829 0.57045,-3.80633 1.23684,-8.65984 -0.57114,-12.275825 -0.0289,1.054815 -0.006,2.126905 0.009,3.203235 0.0356,2.51601 0.0293,5.0553 -0.77082,7.4549 -0.048,0.14111 -0.0981,0.28264 -0.14711,0.42432 -0.0448,0.12721 -0.0882,0.25425 -0.133,0.38146 -0.1972,-0.36933 -0.4191,-0.71018 -0.63182,-0.99911 -0.65335,-0.88582 -1.80411,-2.31633 -3.064935,-1.83162 -0.02716,0.0106 -0.01835,0.054 0.0095,0.0554 1.137005,0.0557 1.754365,1.41428 2.298695,2.26462 0.32456,0.50655 0.58632,1.06193 0.76271,1.63573 0.0441,0.14304 0.0681,0.28292 0.0836,0.42142 -0.0737,0.21495 -0.1457,0.42993 -0.21625,0.64534 -0.32456,-0.92304 -0.97649,-1.65682 -2.04717,-1.82866 -1.886305,-0.30289 -2.893839,2.81972 -1.169461,3.65647 0.630061,0.30607 1.429101,0.34325 1.782581,-0.38777 0.21626,-0.44785 0.387,-1.36882 -0.18203,-1.66621 -0.4512,-0.2359 -1.077381,-0.0329 -1.00859,0.55827 0.0614,0.52779 0.59831,0.68214 0.88723,0.36862 0.14676,-0.15931 0.15946,-0.48341 0,-0.58748 -0.37288,-0.25079 -0.0854,-0.29351 0.0561,-0.21428 0.25824,0.1378 0.29457,0.52229 0.29881,0.77033 0.009,0.53537 -0.32315,1.0487 -0.8509,1.18442 -0.805393,0.20672 -1.450623,-0.63828 -1.577271,-1.31989 -0.114652,-0.61556 0.173214,-1.29148 0.594784,-1.72349 1.210027,-1.23885 2.717447,0.85947 2.955927,1.89522 0.006,0.0265 0.008,0.053 0.013,0.0795 -0.61595,2.04572 -0.98249,4.12308 -0.52494,6.2818 0.14535,-0.67567 0.33408,-1.35434 0.57397,-2.03923 0.46461,-1.36066 1.15711,-2.85831 2.05493,-4.17918"
       style="fill:#45b649;fill-opacity:1;fill-rule:nonzero;stroke:none;stroke-width:0.03527778"
       id="path54"
       inkscape:connector-curvature="0" />
    <path
       d="m 105.04577,135.72188 c -0.0653,-1.76431 -0.653,-3.46343 -1.04529,-5.2276 -0.8763,-3.60977 -1.41993,-6.97562 -0.23248,-10.28979 0.8816,-3.55783 0.99166,-6.64051 3.68336,-9.6176 -1.14971,0.66544 -2.13854,1.72212 -2.95699,2.92583 -0.89782,1.32087 -1.59032,2.81852 -2.05493,4.17918 -0.23989,0.68489 -0.42862,1.36356 -0.57397,2.03923 -0.12382,0.57559 -0.21307,1.14928 -0.27375,1.72212 -0.62018,-0.35468 -1.59385,-0.3992 -2.102556,-0.27216 l -0.285397,-0.0951 c 0.252236,0.50451 1.506363,1.71814 2.296583,1.89893 -0.0293,1.98247 0.27375,3.97814 0.81209,6.06309 0.75389,2.90699 1.87008,5.58617 2.42464,8.50156 0.0356,0.1047 0.0677,0.21014 0.1009,0.31541 0.13264,-0.68791 0.23954,-1.38493 0.20779,-2.14312"
       style="fill:#96e6a1;fill-opacity:1;fill-rule:nonzero;stroke:none;stroke-width:0.03527778"
       id="path56"
       inkscape:connector-curvature="0" />
    <path
       d="m 99.367103,63.246821 c 0.03316,-0.02082 0.07302,-0.03457 0.110772,-0.05009 -0.0042,-0.0141 -0.0092,-0.02928 -0.01235,-0.04163 l -0.09842,0.09172"
       style="fill:#a0bf20;fill-opacity:1;fill-rule:nonzero;stroke:none;stroke-width:0.03527778"
       id="path58"
       inkscape:connector-curvature="0" />
    <path
       d="m 106.43994,132.45043 c -0.80927,-2.25697 -1.98966,-4.36562 -2.57034,-6.7262 -1.02517,-4.16969 0.78,-6.80932 1.23684,-8.1164 l 0.005,-0.0519 c -0.59231,0.88167 -1.02587,1.76319 -1.34337,2.64859 -1.18745,3.31417 -0.64382,6.68002 0.23248,10.28979 0.39229,1.76417 0.98001,3.46329 1.04528,5.2276 0.0318,0.75819 -0.0751,1.45521 -0.20779,2.14312 -0.0332,-0.10527 -0.0653,-0.21071 -0.10089,-0.31541 -0.52776,-1.55734 -1.2954,-3.05072 -2.16676,-4.3706 -0.73131,-1.10614 -2.571047,-2.46144 -3.333753,-0.6029 -0.348897,0.85093 0.804683,2.77442 1.793173,1.93449 0.79833,-0.67867 -0.30269,-1.91823 -0.95991,-0.9102 -0.0159,0.0246 0.018,0.0588 0.0395,0.0358 -0.485071,0.51883 -1.020941,-2.2159 0.77822,-1.18992 0.40111,0.22917 0.75742,0.81301 0.99096,1.17958 0.41804,0.65596 0.72531,1.38864 1.02446,2.10425 0.69004,1.65065 0.92746,3.49127 1.60091,5.1284 0.28257,1.17063 1.51165,1.9433 2.11032,3.03126 0.0593,-3.07027 0.91334,-6.51218 0.3556,-9.55793 0.77328,-0.35775 1.02411,-2.72686 0.79833,-3.2537 l 0.0952,-0.2855 c -0.3556,0.25396 -1.00683,0.9416 -1.42346,1.65777"
       style="fill:#45b649;fill-opacity:1;fill-rule:nonzero;stroke:none;stroke-width:0.03527778"
       id="path60"
       inkscape:connector-curvature="0" />
    <path
       d="m 99.223875,87.845663 c 0.03316,-0.02082 0.07303,-0.03457 0.110773,-0.05045 -0.0042,-0.01376 -0.0095,-0.02857 -0.0127,-0.04163 l -0.09807,0.09207"
       style="fill:#edf185;fill-opacity:1;fill-rule:nonzero;stroke:none;stroke-width:0.03527778"
       id="path62"
       inkscape:connector-curvature="0" />
  </g>
</svg>
