<?xml version="1.0" encoding="UTF-8" standalone="no"?>
<!-- Created with Inkscape (http://www.inkscape.org/) -->

<svg
   xmlns:dc="http://purl.org/dc/elements/1.1/"
   xmlns:cc="http://creativecommons.org/ns#"
   xmlns:rdf="http://www.w3.org/1999/02/22-rdf-syntax-ns#"
   xmlns:svg="http://www.w3.org/2000/svg"
   xmlns="http://www.w3.org/2000/svg"
   xmlns:sodipodi="http://sodipodi.sourceforge.net/DTD/sodipodi-0.dtd"
   xmlns:inkscape="http://www.inkscape.org/namespaces/inkscape"
   width="60"
   height="405"
   viewBox="0 0 15.874999 107.15625"
   version="1.1"
   id="svg924"
   inkscape:version="0.92.4 (5da689c313, 2019-01-14)"
   sodipodi:docname="bean_stalk_curly.svg">
  <defs
     id="defs918" />
  <sodipodi:namedview
     id="base"
     pagecolor="#ffffff"
     bordercolor="#666666"
     borderopacity="1.0"
     inkscape:pageopacity="0.0"
     inkscape:pageshadow="2"
     inkscape:zoom="1.4"
     inkscape:cx="-155.27904"
     inkscape:cy="192.0702"
     inkscape:document-units="mm"
     inkscape:current-layer="layer1"
     showgrid="false"
     fit-margin-top="0"
     fit-margin-left="0"
     fit-margin-right="0"
     fit-margin-bottom="0"
     units="px"
     inkscape:window-width="1920"
     inkscape:window-height="1051"
     inkscape:window-x="-9"
     inkscape:window-y="-9"
     inkscape:window-maximized="1" />
  <metadata
     id="metadata921">
    <rdf:RDF>
      <cc:Work
         rdf:about="">
        <dc:format>image/svg+xml</dc:format>
        <dc:type
           rdf:resource="http://purl.org/dc/dcmitype/StillImage" />
        <dc:title></dc:title>
      </cc:Work>
    </rdf:RDF>
  </metadata>
  <g
     inkscape:label="Layer 1"
     inkscape:groupmode="layer"
     id="layer1"
     transform="translate(-93.879763,-53.374516)">
    <path
       d="m 107.16129,110.59937 c -0.0483,-0.25718 -0.18591,-0.45896 -0.52705,-0.51294 -0.22719,-0.0356 -0.4445,0.0776 -0.60819,0.22684 -0.36547,0.33302 -0.58384,0.91334 -0.34642,1.38253 1.07562,2.12549 3.46639,0.49318 3.55317,-1.35713 0.0526,-1.09961 -0.73095,-2.02954 -1.63089,-2.51778 -1.03293,-0.56021 -2.21086,0.10125 -3.00284,0.74754 -1.40088,1.1437 -1.90606,2.95769 -1.90112,4.81612 -0.0751,-0.20743 -0.15311,-0.41487 -0.23142,-0.6223 -0.28293,-2.38302 0.68544,-4.77485 3.10021,-5.71571 0.0155,-0.006 0.007,-0.0279 -0.008,-0.0261 -1.54764,0.18768 -2.73756,1.23649 -3.35068,2.6416 -0.21414,0.49107 -0.32562,0.96203 -0.36019,1.42064 -0.81492,-2.32199 -1.40406,-4.62633 -1.73567,-6.96278 -0.0378,-1.09961 -0.001,-2.20874 0.15699,-3.3535 0.40993,-2.96933 1.5621,-5.759451 3.09033,-8.31744 0.0173,-0.02858 -0.0229,-0.05786 -0.0427,-0.02999 -1.69687,2.389365 -2.96475,5.34176 -3.500266,8.38835 -0.06562,-1.831975 0.02858,-3.696759 0.297746,-5.617634 0.63182,-4.507441 2.42923,-8.67551 3.34574,-13.1064 1.92335,0.58279 2.5714,-1.04281 2.5714,-1.04281 0.44168,-1.049866 1.69369,-2.107847 1.69369,-2.107847 -2.36538,0.307975 -3.48756,1.121833 -4.02167,1.834797 0.0649,-0.403578 0.12418,-0.808919 0.17004,-1.218141 0.33302,-2.968625 0.3496,-6.03885 0.0744,-9.088614 0.18873,-0.966611 0.52846,-1.889125 1.09749,-2.756959 0.38382,-0.584552 1.11619,-1.090436 1.82104,-1.112308 0.62829,-0.0194 0.98319,0.638528 1.10243,1.148644 0.0935,0.399345 -0.0631,1.011414 -0.44027,1.216731 -0.35348,0.191911 -0.76976,0.05186 -1.08091,-0.153106 -0.2099,-0.138994 -0.51047,-0.413455 -0.3175,-0.677686 0.19755,-0.27058 0.59372,-0.117122 0.8636,-0.08749 0.0318,0.0035 -0.13335,-0.345722 -0.19967,-0.383822 -0.12524,-0.07126 -0.2981,-0.06526 -0.42933,-0.01623 -0.37395,0.1397 -0.5902,0.653697 -0.56057,1.030111 0.0254,0.320675 0.22084,0.648405 0.51647,0.788105 0.50553,0.238478 1.25836,-0.0381 1.645,-0.386291 0.21378,-0.192617 0.4505,-0.517878 0.50624,-0.808567 0.36868,-1.914875 -1.3504,-2.947455 -2.97847,-2.107491 -0.87172,0.449438 -1.44392,1.232958 -1.79,2.142419 -0.29174,-2.135002 -0.72778,-4.24426 -1.3021,-6.286843 -0.20708,-2.704747 -0.0522,-5.551664 0.81492,-7.973836 0.0148,-0.04163 -0.0483,-0.07796 -0.0706,-0.03669 -0.92357,1.739547 -1.39982,3.895372 -1.4104,6.036381 -0.52353,-1.387475 -1.49225,-2.544939 -3.125968,-2.824339 -1.465439,-0.250472 -3.192287,0.977547 -2.63772,2.660297 0.341136,1.033991 2.283531,2.100791 2.899481,0.679097 0.56515,-1.303514 -1.112661,-2.391128 -1.398059,-0.890058 -0.0053,0.03104 0.04269,0.04092 0.05327,0.01199 0.849489,-0.805039 1.236133,-0.614186 1.158875,0.572911 -0.122061,0.354542 -0.363361,0.56762 -0.724959,0.639586 -0.545747,0.141464 -1.106664,-0.236008 -1.442155,-0.623358 -1.007886,-1.164167 0.4445,-2.838803 1.734255,-2.464858 1.456267,0.421922 2.22321,1.661583 2.84974,2.944283 1.97238,5.865636 2.48779,12.467519 1.89018,18.608674 -0.13864,-0.404636 -0.34043,-0.805038 -0.62441,-1.201561 -1.04599,-1.462263 -2.422529,-2.222147 -4.218873,-1.803752 -0.0095,0.0021 -0.0067,0.01693 0.0028,0.01446 1.835502,-0.449791 3.305883,0.684036 4.120443,2.244373 0.45897,0.880533 0.52388,1.708855 0.49989,2.55517 -0.0113,0.07161 -0.0247,0.142521 -0.0367,0.213784 -0.23989,-1.21391 -0.76765,-2.350207 -1.6697,-3.278013 -1.637946,-1.684514 -4.801305,-0.911578 -4.684535,1.729317 0.04586,1.043516 0.455436,1.744133 1.386769,2.214033 0.601486,0.303389 1.670756,0.0882 1.9939,-0.544687 0.547866,-1.075621 -0.675922,-2.873377 -1.342672,-1.430163 -0.0071,0.01517 0.01517,0.02399 0.02399,0.0127 -0.968022,1.720146 -1.483431,1.629129 -1.546931,-0.272697 0.195086,-1.280936 1.032228,-1.884892 2.512484,-1.811867 1.322215,0.348545 2.024945,1.973439 2.381255,3.131962 0.30127,0.980016 0.4011,1.990725 0.369,3.001433 -0.97331,3.890082 -2.462036,7.642932 -3.024716,11.654367 -0.11677,0.832908 -0.193675,1.665462 -0.239537,2.496608 -0.52352,-0.810679 -1.32362,-1.128179 -1.32362,-1.128179 -1.580092,-0.663575 -3.171825,-2.547763 -3.171825,-2.547763 0.789869,6.070597 3.795888,6.706657 4.482041,6.772627 0.155222,3.28683 0.836083,6.53062 1.977677,9.65765 0.9151,2.50754 1.97132,4.92725 2.49555,7.55791 0.54433,2.72768 0.47766,5.54108 0.10054,8.28357 -0.0896,0.65201 -0.21202,1.29279 -0.35984,1.92532 -0.0981,-1.62101 -0.6357,-3.17733 -1.80692,-4.38206 -1.637951,-1.68487 -4.80131,-0.91158 -4.684893,1.72896 0.04551,1.04355 0.455436,1.74385 1.387122,2.21418 0.601486,0.3036 1.670756,0.0882 1.9939,-0.54459 0.547861,-1.07551 -0.675922,-2.87327 -1.343377,-1.4304 -0.0071,0.0152 0.01517,0.024 0.02469,0.0127 -0.968023,1.72003 -1.483431,1.62951 -1.546931,-0.27235 0.195086,-1.28129 1.032228,-1.88489 2.512131,-1.81187 1.321508,0.3482 2.025298,1.97309 2.381258,3.1319 0.41204,1.34154 0.44873,2.74009 0.28222,4.11744 -1.14759,3.40858 -2.730859,6.67565 -3.440648,10.24407 -0.377825,1.90031 -0.561622,3.89089 -0.553861,5.90049 -0.581378,-4.61229 -0.301272,-9.32452 1.569508,-13.54032 0.0085,-0.0189 -0.01976,-0.0283 -0.02963,-0.011 -1.719791,3.3321 -2.505075,6.79401 -2.342444,10.55275 0.119944,2.77728 0.460728,5.86797 1.340908,8.65822 0.451203,2.39435 1.183567,4.71756 2.204507,6.84223 0.0131,0.0276 0.0272,0.0547 0.0409,0.082 0.25823,0.51029 1.06292,0.13133 0.80327,-0.38172 -2.829984,-5.58687 -3.227918,-12.59089 -2.027768,-18.6224 0.547868,-2.7503 1.711328,-5.22553 2.745668,-7.80701 0.44662,-1.11457 0.80998,-2.26 1.1049,-3.42332 1.61608,0.26236 2.17347,-1.13757 2.17347,-1.13757 0.44167,-1.04979 1.69368,-2.10806 1.69368,-2.10806 -1.70709,0.22222 -2.76754,0.70824 -3.42617,1.22982 0.10371,-0.55905 0.19543,-1.12046 0.27234,-1.68243 0.48436,-3.53096 0.0896,-6.87882 -0.82762,-10.17623 -0.19932,-1.48202 -0.16404,-2.95028 0.20285,-4.46299 0.27199,-1.12148 0.85372,-2.06022 1.72403,-2.81552 1.14511,-0.83467 2.13113,-0.60995 2.95839,0.67557 0.1778,0.27622 0.16863,0.77929 0.14887,1.09502 -0.0282,0.45685 -0.22013,0.88265 -0.514,1.22978 -0.14746,0.17428 -0.38981,0.43886 -0.6477,0.38912 -0.25646,-0.0494 -0.30726,-0.3429 -0.32279,-0.56057 -0.0222,-0.31679 0.0826,-0.77646 0.0166,-1.131"
       style="fill:#45b649;fill-opacity:1;fill-rule:nonzero;stroke:none;stroke-width:0.03527778"
       id="path32"
       inkscape:connector-curvature="0" />
  </g>
</svg>
