<?xml version="1.0" encoding="UTF-8" standalone="no"?>
<!-- Created with Inkscape (http://www.inkscape.org/) -->

<svg
   xmlns:dc="http://purl.org/dc/elements/1.1/"
   xmlns:cc="http://creativecommons.org/ns#"
   xmlns:rdf="http://www.w3.org/1999/02/22-rdf-syntax-ns#"
   xmlns:svg="http://www.w3.org/2000/svg"
   xmlns="http://www.w3.org/2000/svg"
   xmlns:sodipodi="http://sodipodi.sourceforge.net/DTD/sodipodi-0.dtd"
   xmlns:inkscape="http://www.inkscape.org/namespaces/inkscape"
   width="50"
   height="395"
   viewBox="0 0 13.229166 104.51041"
   version="1.1"
   id="svg924"
   inkscape:version="0.92.4 (5da689c313, 2019-01-14)"
   sodipodi:docname="bean_stalk_simple.svg">
  <defs
     id="defs918" />
  <sodipodi:namedview
     id="base"
     pagecolor="#ffffff"
     bordercolor="#666666"
     borderopacity="1.0"
     inkscape:pageopacity="0.0"
     inkscape:pageshadow="2"
     inkscape:zoom="1.979899"
     inkscape:cx="-6.6107403"
     inkscape:cy="188.8382"
     inkscape:document-units="mm"
     inkscape:current-layer="layer1"
     showgrid="false"
     fit-margin-top="0"
     fit-margin-left="0"
     fit-margin-right="0"
     fit-margin-bottom="0"
     units="px"
     inkscape:window-width="1920"
     inkscape:window-height="1051"
     inkscape:window-x="-9"
     inkscape:window-y="-9"
     inkscape:window-maximized="1" />
  <metadata
     id="metadata921">
    <rdf:RDF>
      <cc:Work
         rdf:about="">
        <dc:format>image/svg+xml</dc:format>
        <dc:type
           rdf:resource="http://purl.org/dc/dcmitype/StillImage" />
        <dc:title></dc:title>
      </cc:Work>
    </rdf:RDF>
  </metadata>
  <g
     inkscape:label="Layer 1"
     inkscape:groupmode="layer"
     id="layer1"
     transform="translate(-95.097955,-56.020355)">
    <path
       d="m 95.641115,57.104015 c 0.390878,0.05221 0.782814,0.110067 1.169459,0.178858 0.387702,0.06879 0.770819,0.148167 1.140883,0.242006 0.372886,0.09454 0.733778,0.203906 1.075619,0.331964 0.344311,0.129822 0.670984,0.278694 0.972256,0.451908 0.292808,0.168628 0.537288,0.35807 0.739078,0.563386 0.20355,0.207081 0.36265,0.430389 0.48189,0.664281 0.121,0.236008 0.20108,0.482953 0.24518,0.734836 0.0441,0.254353 0.0519,0.513644 0.0261,0.771878 -0.0275,0.282575 -0.13441,0.554919 -0.29422,0.820561 -0.16192,0.268464 -0.37676,0.529872 -0.61947,0.787047 -0.24448,0.26035 -0.51648,0.516114 -0.788114,0.771525 -0.274814,0.25788 -0.549275,0.515408 -0.795162,0.776111 -0.273402,0.290336 -0.500238,0.588081 -0.680155,0.893939 -0.182386,0.309739 -0.3175,0.627592 -0.404283,0.954616 -0.0889,0.330906 -0.128764,0.671337 -0.12065,1.021998 0.0078,0.354541 0.06562,0.720372 0.172155,1.097139 0.106186,0.371475 0.267406,0.733425 0.458964,1.0922 0.193675,0.363008 0.418394,0.723194 0.646994,1.087261 0.230717,0.368652 0.466373,0.741891 0.678039,1.126772 0.214842,0.390525 0.404992,0.793397 0.541512,1.217789 0.12065,0.37465 0.17992,0.747536 0.18874,1.120422 0.009,0.376766 -0.0335,0.75318 -0.11712,1.1303 -0.0833,0.381353 -0.2085,0.763058 -0.363012,1.146175 -0.156281,0.388055 -0.342547,0.777875 -0.546453,1.170164 -0.215547,0.414513 -0.435328,0.833613 -0.646994,1.260827 -0.213431,0.432506 -0.417337,0.873478 -0.597253,1.326092 -0.182739,0.458258 -0.339725,0.929217 -0.456142,1.415697 -0.117122,0.493536 -0.193675,1.003653 -0.212372,1.534231 -0.01658,0.506236 0.02646,1.007533 0.119944,1.503539 0.09525,0.503412 0.242712,1.001184 0.433564,1.493661 0.192264,0.498826 0.428978,0.99201 0.699206,1.478491 0.274814,0.493535 0.5842,0.979665 0.917928,1.459442 0.148872,0.213077 0.303034,0.423685 0.457904,0.635352 0.15663,0.212373 0.31221,0.426508 0.46109,0.645583 0.14957,0.221192 0.2928,0.447323 0.42227,0.684038 0.12982,0.237419 0.24624,0.48542 0.34114,0.747887 0.10266,0.282223 0.18626,0.570442 0.25364,0.8636 0.0681,0.29563 0.11994,0.596196 0.15769,0.900642 0.0381,0.306565 0.0628,0.617363 0.0765,0.930981 0.013,0.31609 0.0159,0.634294 0.0102,0.954617 -0.0109,0.648406 -0.0631,1.305983 -0.14993,1.970617 -0.0889,0.67486 -0.21377,1.35678 -0.36723,2.04188 -0.15593,0.69638 -0.34184,1.396292 -0.55069,2.096202 -0.21237,0.7112 -0.44874,1.4224 -0.70062,2.12937 -0.258585,0.72531 -0.534104,1.44603 -0.798688,2.17593 -0.268816,0.74119 -0.526344,1.49155 -0.742244,2.26554 -0.219075,0.78705 -0.39617,1.59879 -0.499534,2.45216 -0.104422,0.86748 -0.13335,1.77976 -0.05433,2.75378 0.04127,0.49707 0.127,0.98037 0.24518,1.45345 0.119945,0.47801 0.272345,0.94509 0.447323,1.40582 0.176388,0.4639 0.375002,0.9218 0.583494,1.37512 0.210256,0.45791 0.431447,0.91193 0.649817,1.36596 0.248002,0.51682 0.494592,1.04105 0.737312,1.57656 0.24447,0.54011 0.48507,1.09115 0.71931,1.65383 0.23707,0.56867 0.46707,1.1497 0.68968,1.74483 0.22401,0.60255 0.43956,1.2192 0.64488,1.85209 0.41345,1.28376 0.6858,2.55474 0.82973,3.82161 0.14746,1.29518 0.16051,2.58434 0.055,3.87667 -0.1076,1.32017 -0.33902,2.64308 -0.67874,3.97842 -0.34714,1.36313 -0.80751,2.73995 -1.36348,4.13988 -0.55316,1.39086 -1.11267,2.79259 -1.659828,4.23333 -0.5588,1.47218 -1.105253,2.98552 -1.61925,4.57069 -0.525639,1.62222 -1.018469,3.32271 -1.456619,5.13663 -0.405697,1.67777 -0.76553,3.4575 -1.064333,5.36857 h 5.17173 c 0.26246,-1.62306 0.57926,-3.18093 0.93697,-4.66506 0.46249,-1.91661 0.99413,-3.71564 1.56669,-5.37877 0.57608,-1.67679 1.15922,-3.2668 1.70462,-4.82082 0.53269,-1.51969 1.03011,-3.00548 1.4478,-4.50408 0.40922,-1.46488 0.74189,-2.93939 0.9585,-4.46321 0.21131,-1.48787 0.31079,-3.01957 0.26176,-4.62774 -0.0483,-1.5985 -0.24518,-3.13115 -0.54646,-4.59673 -0.29421,-1.4291 -0.68827,-2.79611 -1.143,-4.09963 -0.4445,-1.27458 -0.94756,-2.48955 -1.47249,-3.64384 -0.514,-1.13136 -1.05022,-2.20557 -1.57515,-3.22333 -0.24307,-0.47096 -0.48084,-0.92393 -0.70062,-1.37266 -0.21696,-0.44485 -0.41557,-0.88582 -0.58244,-1.33491 -0.16439,-0.44556 -0.29809,-0.89888 -0.38628,-1.37336 -0.0875,-0.4699 -0.13159,-0.95956 -0.11783,-1.48061 0.0123,-0.47943 0.0709,-0.9518 0.15981,-1.41464 0.0882,-0.45861 0.20602,-0.9084 0.34042,-1.34867 0.1323,-0.43603 0.27976,-0.86184 0.42863,-1.27741 0.14817,-0.41169 0.29668,-0.81244 0.4325,-1.20085 0.28681,-0.81845 0.54716,-1.63442 0.77858,-2.44617 0.22684,-0.79762 0.42651,-1.59102 0.5962,-2.37948 0.16651,-0.7747 0.30515,-1.543762 0.41204,-2.306822 0.10513,-0.75 0.18098,-1.49295 0.22578,-2.229197 0.042,-0.696735 0.0413,-1.393825 -0.007,-2.080332 -0.0483,-0.675216 -0.14217,-1.339495 -0.28751,-1.983316 -0.14253,-0.633235 -0.33479,-1.24601 -0.58138,-1.829504 -0.24271,-0.574675 -0.53834,-1.12113 -0.89112,-1.63054 -0.33408,-0.481541 -0.68121,-0.945798 -1.01529,-1.405115 -0.3302,-0.454376 -0.6484,-0.903816 -0.92886,-1.36172 -0.27764,-0.451556 -0.51894,-0.910873 -0.70027,-1.388533 -0.17851,-0.471665 -0.298804,-0.960967 -0.336904,-1.477787 -0.03563,-0.486481 -0.0028,-0.95885 0.07796,-1.41852 0.0794,-0.453319 0.20602,-0.893938 0.36018,-1.323975 0.15311,-0.424391 0.33373,-0.837847 0.52247,-1.241425 0.18733,-0.398638 0.38382,-0.788105 0.57115,-1.1684 0.1785,-0.361244 0.34396,-0.719313 0.49001,-1.076677 0.14463,-0.353484 0.27058,-0.705556 0.37041,-1.058686 0.0995,-0.348898 0.17322,-0.6985 0.2159,-1.049514 0.0413,-0.347486 0.0522,-0.696736 0.0254,-1.049161 -0.0318,-0.418042 -0.11289,-0.815623 -0.23213,-1.199092 -0.11782,-0.378178 -0.27163,-0.741892 -0.44873,-1.09608 -0.17498,-0.349603 -0.37324,-0.690387 -0.58208,-1.025878 -0.20673,-0.331611 -0.42369,-0.658284 -0.63994,-0.983897 -0.23496,-0.355248 -0.44098,-0.708025 -0.60573,-1.059392 -0.162629,-0.346781 -0.285396,-0.691797 -0.355599,-1.036108 -0.0695,-0.340078 -0.0889,-0.678745 -0.04692,-1.017411 0.04127,-0.334081 0.143228,-0.667809 0.31503,-1.000831 0.143939,-0.278694 0.319619,-0.544689 0.510469,-0.802922 0.18945,-0.256117 0.39265,-0.505178 0.59409,-0.751417 0.19967,-0.244828 0.39758,-0.487539 0.57644,-0.733425 0.17709,-0.243064 0.33619,-0.489303 0.46108,-0.742597 0.11712,-0.23883 0.19896,-0.481894 0.248,-0.726017 0.0483,-0.241652 0.0642,-0.484363 0.0504,-0.724958 -7.2e-4,-0.0088 -0.002,-0.01693 -0.002,-0.02505 l -0.0145,-0.160161 c -0.0215,-0.174977 -0.0579,-0.348896 -0.10972,-0.519288 -0.0688,-0.228247 -0.16475,-0.451556 -0.28293,-0.666397 -0.23988,-0.431095 -0.59478,-0.792692 -1.03222,-1.095022 -0.43286,-0.298803 -0.94757,-0.541867 -1.513782,-0.738364 -0.562328,-0.195086 -1.177572,-0.345017 -1.815747,-0.458964 -0.635353,-0.113242 -1.2954,-0.190853 -1.951214,-0.240947 -0.0014,-3.53e-4 -0.0021,-3.53e-4 -0.0035,-7.06e-4 h -0.0039 c -0.0014,0 -0.0021,0 -0.0035,0 -0.0014,0 -0.0028,0 -0.0042,0 -0.02399,3.53e-4 -0.0448,0.0067 -0.06068,0.01588 -0.01587,0.0095 -0.02611,0.02152 -0.03104,0.03422 0,0.0011 0,0.0021 0,0.0032 l -0.0014,0.01729 c 0.0021,0.006 0.0042,0.01129 0.0085,0.01623 0.0088,0.01058 0.02611,0.01905 0.05151,0.02258"
       style="fill:#45b649;fill-opacity:1;fill-rule:nonzero;stroke:none;stroke-width:0.03527778"
       id="path26"
       inkscape:connector-curvature="0" />
  </g>
</svg>
