<?xml version="1.0" encoding="UTF-8" standalone="no"?>
<!-- Created with Inkscape (http://www.inkscape.org/) -->

<svg
   xmlns:dc="http://purl.org/dc/elements/1.1/"
   xmlns:cc="http://creativecommons.org/ns#"
   xmlns:rdf="http://www.w3.org/1999/02/22-rdf-syntax-ns#"
   xmlns:svg="http://www.w3.org/2000/svg"
   xmlns="http://www.w3.org/2000/svg"
   xmlns:sodipodi="http://sodipodi.sourceforge.net/DTD/sodipodi-0.dtd"
   xmlns:inkscape="http://www.inkscape.org/namespaces/inkscape"
   width="120"
   height="180"
   viewBox="0 0 31.749999 47.625001"
   version="1.1"
   id="svg1066"
   inkscape:version="0.92.4 (5da689c313, 2019-01-14)"
   sodipodi:docname="green_beans_on_vine.svg">
  <defs
     id="defs1060" />
  <sodipodi:namedview
     id="base"
     pagecolor="#ffffff"
     bordercolor="#666666"
     borderopacity="1.0"
     inkscape:pageopacity="0.0"
     inkscape:pageshadow="2"
     inkscape:zoom="2.8"
     inkscape:cx="-11.688839"
     inkscape:cy="76.197413"
     inkscape:document-units="mm"
     inkscape:current-layer="layer1"
     showgrid="false"
     inkscape:window-width="1920"
     inkscape:window-height="1051"
     inkscape:window-x="-9"
     inkscape:window-y="-9"
     inkscape:window-maximized="1"
     fit-margin-top="0"
     fit-margin-left="0"
     fit-margin-right="0"
     fit-margin-bottom="0"
     units="px" />
  <metadata
     id="metadata1063">
    <rdf:RDF>
      <cc:Work
         rdf:about="">
        <dc:format>image/svg+xml</dc:format>
        <dc:type
           rdf:resource="http://purl.org/dc/dcmitype/StillImage" />
        <dc:title></dc:title>
      </cc:Work>
    </rdf:RDF>
  </metadata>
  <g
     inkscape:label="Layer 1"
     inkscape:groupmode="layer"
     id="layer1"
     transform="translate(-92.42129,-123.48971)">
    <g
       transform="matrix(0.26458333,0,0,0.26458333,76.750976,106.67411)"
       style="overflow:visible"
       id="g94">
      <path
         inkscape:connector-curvature="0"
         d="m 74.461,128.933 c -0.306,0.417 -0.542,0.973 -0.653,1.779 -0.153,0.792 -0.278,1.793 -0.056,2.892 0.208,1.057 0.583,2.072 1.39,3.42 0.765,1.32 2.572,2.988 3.393,4.462 0.82,1.432 1.042,2.626 1.473,4.128 0.417,1.46 0.932,3.087 0.946,4.769 -0.042,1.668 -0.487,3.601 -1.126,5.199 -0.653,1.516 -1.529,2.613 -2.683,4.046 -1.182,1.444 -2.697,3.405 -4.226,4.531 -1.571,1.028 -3.072,1.488 -4.935,1.862 -1.877,0.39 -3.934,0.46 -6.228,0.363 v 0 c 0.806,0.166 1.432,0.401 1.933,0.708 0.486,0.292 0.278,0.723 1.028,1.028 0.723,0.25 2.169,0.626 3.322,0.64 1.071,0.015 2.044,-0.125 3.351,-0.64 1.362,-0.569 3.183,-1.668 4.601,-2.766 1.349,-1.127 2.447,-2.462 3.518,-4.005 1.028,-1.584 1.987,-3.739 2.669,-5.227 0.653,-1.502 1.153,-1.96 1.292,-3.684 0.098,-1.808 -0.25,-4.727 -0.556,-6.771 -0.333,-2.085 -0.625,-3.781 -1.362,-5.352 -0.792,-1.557 -2.349,-2.822 -3.114,-3.851 -0.751,-1.07 -0.959,-1.445 -1.376,-2.307 -0.459,-0.876 -0.904,-2.099 -1.224,-2.919 -0.348,-0.834 -0.64,-1.543 -0.82,-2.127 v 0 c -0.182,-0.053 -0.362,-0.109 -0.557,-0.178 z"
         id="path96"
         style="fill:#5a965a;fill-rule:evenodd" />
      <path
         inkscape:connector-curvature="0"
         d="m 96.856,115.031 c -1.195,0.014 -1.918,0.181 -2.377,0.5 -0.445,0.292 -0.292,0.806 -0.181,1.321 0.069,0.487 0.681,0.751 0.709,1.599 -0.014,0.793 -0.403,2.03 -0.57,3.337 -0.152,1.279 -0.514,2.683 -0.333,4.476 0.153,1.766 0.64,3.559 1.307,6.13 0.626,2.544 1.807,6.688 2.475,9.106 0.612,2.349 1.057,3.49 1.279,5.144 0.167,1.64 0.028,3.351 -0.097,4.698 -0.181,1.293 -0.682,1.96 -0.64,3.073 0.069,1.083 0.486,2.224 1.029,3.53 0.528,1.279 1.182,2.53 1.904,4.184 0.64,1.613 1.501,2.531 2.002,5.548 0.459,3.002 0.75,7.146 0.82,12.484 v 0 c -0.681,1.265 -1.404,2.349 -2.224,3.307 -0.821,0.96 -1.724,1.725 -2.711,2.406 v 0 c -0.278,-3.114 -0.695,-5.77 -1.251,-8.077 -0.584,-2.335 -1.863,-3.781 -2.127,-5.685 -0.292,-1.935 0.598,-3.77 0.528,-5.715 -0.111,-1.96 -0.487,-3.322 -1.07,-5.908 -0.653,-2.642 -1.919,-7.09 -2.516,-9.648 -0.584,-2.543 -0.751,-3.308 -0.932,-5.672 -0.223,-2.474 -0.042,-6.311 -0.208,-8.771 -0.194,-2.446 -0.556,-3.92 -0.862,-5.769 -0.32,-1.905 -0.695,-3.976 -1.071,-5.463 -0.431,-1.488 -0.764,-2.851 -1.265,-3.393 -0.542,-0.542 -1.223,-0.139 -1.724,0.083 -0.556,0.139 -1.14,0.223 -1.265,1.001 -0.125,0.737 0.431,1.474 0.695,3.712 0.278,2.307 0.723,6.506 0.904,9.8 0.125,3.239 0.111,6.201 -0.097,9.467 -0.25,3.239 -1.237,6.617 -1.307,9.814 -0.125,3.114 0.056,5.825 0.695,8.939 0.612,3.141 2.336,6.798 2.975,9.634 0.556,2.737 0.57,4.739 0.64,6.923 0.014,2.154 -0.445,4.156 -0.25,6.116 0.223,1.961 0.737,3.768 1.543,5.532 v 0 c -1.821,1.989 -3.142,3.769 -4.115,5.283 -0.973,1.529 -1.237,2.864 -1.654,3.837 -0.459,0.945 -0.751,1.029 -0.987,1.863 -0.278,0.82 -0.695,2.614 -0.556,2.961 0.139,0.265 0.667,-0.556 1.321,-1.111 0.64,-0.585 1.418,-1.878 2.391,-2.156 0.918,-0.291 1.891,-0.138 3.031,0.459 v 0 c -0.473,0.319 -0.612,1.266 -0.417,2.836 0.167,1.571 1.196,4.755 1.585,6.548 0.417,1.752 0.667,2.698 0.75,3.962 0.056,1.238 -0.473,2.363 -0.458,3.489 -0.028,1.099 0.083,1.71 0.389,3.129 0.264,1.39 0.778,3.1 1.39,5.186 v 0 c -1.418,2.446 -2.335,4.476 -2.752,6.088 -0.417,1.612 -0.111,2.28 0.223,3.614 0.306,1.307 1.251,3.712 1.543,4.269 0.222,0.5 -0.153,-0.445 -0.056,-1.183 0.056,-0.778 0.236,-2.474 0.486,-3.322 0.208,-0.861 0.542,-1.473 0.89,-1.835 0.292,-0.375 0.667,-0.527 1.014,-0.403 v 0 c -0.167,1.002 -0.139,1.919 0.028,2.753 0.139,0.819 0.542,1.529 0.945,2.28 0.348,0.737 1.251,2.183 1.362,2.085 0.07,-0.153 -0.597,-1.988 -0.708,-2.878 -0.098,-0.904 -0.042,-1.793 0.111,-2.503 0.083,-0.75 0.278,-1.348 0.528,-1.849 v 0 c 0.917,0.07 2.099,-0.166 3.6,-0.765 1.474,-0.666 3.545,-1.64 5.255,-2.863 1.655,-1.223 2.878,-2.363 4.796,-4.226 1.946,-1.919 4.727,-4.657 6.687,-6.924 1.919,-2.279 3.295,-4.004 4.769,-6.52 1.417,-2.6 2.53,-5.644 3.768,-8.592 1.209,-2.974 2.474,-5.936 3.53,-8.827 1.016,-2.933 1.96,-5.269 2.628,-8.355 0.625,-3.1 1.085,-6.658 1.265,-9.98 0.195,-3.378 0.125,-6.533 -0.153,-9.787 -0.319,-3.225 -0.75,-6.116 -1.557,-9.48 -0.819,-3.435 -2.084,-7.368 -3.211,-10.788 -1.14,-3.476 -2.698,-7.479 -3.601,-9.592 -0.933,-2.099 -0.889,-0.778 -1.961,-2.794 -1.126,-2.058 -1.695,-5.408 -4.545,-9.3 -2.892,-3.961 -10.037,-11.191 -12.484,-13.86 -2.405,-2.628 -1.432,-1.446 -1.96,-1.877 -0.542,-0.514 -0.848,-0.819 -1.292,-0.917 -0.515,-0.097 -0.987,0.111 -1.571,0.417 -0.653,0.292 -1.626,0.667 -2.001,1.349 -0.375,0.639 -0.375,1.473 -0.111,2.502 v 0 c -0.473,-0.194 -0.917,-0.264 -1.334,-0.264 -0.435,-0.013 -0.824,0.097 -1.228,0.278 z m 11.275,37.966 c -0.32,1.391 -0.473,3.003 -0.612,4.894 -0.153,1.877 -0.389,4.17 -0.111,6.353 0.278,2.169 0.82,4.269 1.738,6.506 v 0 c 0.57,-1.153 0.903,-2.432 1.209,-3.836 0.25,-1.446 0.403,-3.059 0.403,-4.574 -0.028,-1.529 -0.167,-2.892 -0.584,-4.462 -0.43,-1.586 -1.111,-3.157 -2.043,-4.881 z m 10.037,3.642 c -0.432,0.959 -0.793,2.016 -1.029,3.336 -0.264,1.294 -0.557,2.851 -0.445,4.407 0.126,1.488 0.82,2.96 1.016,4.74 0.166,1.738 0.098,3.614 -0.153,5.797 -0.361,2.169 -1.085,5.214 -1.682,7.146 -0.598,1.877 -0.904,2.613 -1.78,4.144 -0.903,1.501 -2.07,3.128 -3.559,4.879 v 0 c 0.264,2.294 0.348,4.199 0.306,5.714 -0.083,1.5 -0.236,2.419 -0.667,3.351 -0.473,0.889 -1.57,1.542 -1.946,2.071 -0.361,0.485 -0.375,0.472 -0.25,0.972 0.083,0.474 0.737,1.586 0.778,1.947 -0.055,0.265 -0.528,0.209 -0.82,-0.014 -0.292,-0.195 -0.667,-0.599 -0.806,-1.21 -0.153,-0.667 -0.083,-1.446 0,-2.559 0.097,-1.152 0.458,-3.015 0.5,-4.142 -0.014,-1.126 -0.195,-1.975 -0.542,-2.544 v 0 c -1.418,1.515 -2.766,2.752 -4.045,3.878 -1.307,1.085 -2.502,2.002 -3.643,2.697 v 0 c 0.514,1.767 0.792,3.67 0.89,5.866 0.056,2.184 -0.57,4.824 -0.431,7.063 0.139,2.21 0.5,4.185 1.195,6.075 v 0 c 2.461,-2.503 4.727,-5.116 6.91,-8.063 2.155,-2.961 4.31,-6.464 5.978,-9.439 1.599,-2.975 2.837,-5.073 3.822,-8.327 0.987,-3.321 1.544,-7.688 2.1,-11.273 0.542,-3.587 0.974,-6.881 1.07,-10.037 0.057,-3.17 -0.319,-5.978 -0.751,-8.744 -0.474,-2.796 -1.126,-5.284 -2.016,-7.731 z"
         id="path98"
         style="fill:#5a965a;fill-rule:evenodd" />
      <path
         inkscape:connector-curvature="0"
         d="m 135.949,100.045 c -1.196,0.64 -3.518,1.21 -6.965,1.766 -3.531,0.542 -8.856,1.293 -13.721,1.446 -4.88,0.097 -10.774,-0.167 -15.112,-0.737 -4.352,-0.64 -7.854,-1.85 -10.676,-2.767 -2.864,-0.917 -4.212,-1.445 -6.131,-2.558 -1.905,-1.153 -3.976,-2.919 -5.199,-4.115 -1.265,-1.195 -1.946,-2.182 -2.196,-3.016 v 0 c 0.292,-0.139 0.528,-0.278 0.653,-0.417 0.125,-0.153 0.139,-0.264 0.097,-0.389 v 0 c 0.946,1.445 2.294,2.78 4.101,4.17 1.751,1.363 3.74,2.78 6.714,3.99 2.975,1.182 7.799,2.363 11.205,3.114 3.378,0.708 5.478,1.098 9.079,1.278 3.614,0.153 8.647,-0.097 12.317,-0.319 3.601,-0.292 6.519,-0.806 9.188,-1.224 2.627,-0.445 4.811,-0.862 6.604,-1.306 v 0 c 0.013,0.361 0.027,0.723 0.042,1.084 z"
         id="path100"
         style="fill:#5a965a;fill-rule:evenodd" />
      <path
         inkscape:connector-curvature="0"
         d="m 105.031,79.29 c -0.278,0.89 -1.057,2.461 -2.447,4.921 -1.432,2.418 -3.878,6.436 -5.838,9.591 -1.975,3.142 -3.878,6.201 -5.769,9.12 -1.891,2.85 -3.503,5.213 -5.533,8.049 -2.113,2.878 -4.532,6.089 -6.826,8.883 -2.335,2.739 -4.893,5.324 -6.867,7.438 -1.988,2.043 -4.491,4.296 -4.824,4.824 -0.306,0.472 1.432,-0.737 2.85,-1.808 1.362,-1.098 3.698,-3.169 5.296,-4.657 1.585,-1.502 2.502,-2.572 4.143,-4.282 1.613,-1.792 3.67,-3.976 5.478,-6.117 1.793,-2.168 3.614,-4.532 5.144,-6.547 1.459,-2.002 2.46,-3.559 3.698,-5.421 1.224,-1.933 2.377,-3.907 3.67,-5.922 1.237,-2.016 2.794,-4.227 3.864,-6.047 1.029,-1.863 1.404,-2.975 2.364,-4.894 0.945,-1.946 1.987,-4.045 3.239,-6.521 v 0 c -0.544,-0.193 -1.086,-0.401 -1.642,-0.61 z"
         id="path102"
         style="fill:#5a965a;fill-rule:evenodd" />
      <path
         inkscape:connector-curvature="0"
         d="m 135.086,99.434 c -0.305,0.083 -0.236,-0.181 0.098,-0.848 0.291,-0.709 0.806,-2.197 1.975,-3.17 1.195,-1.001 3.433,-1.905 5.06,-2.544 1.543,-0.639 2.683,-0.987 4.338,-1.196 1.626,-0.278 3.934,-0.598 5.531,-0.264 1.571,0.32 2.447,0.973 3.963,2.28 1.474,1.293 3.476,3.559 4.935,5.463 1.46,1.863 2.489,3.323 3.781,5.714 1.294,2.349 2.545,5.839 3.698,8.383 1.112,2.53 2.029,5.115 2.808,6.742 0.724,1.543 0.668,1.64 1.501,2.697 0.85,1.043 2.42,2.683 3.421,3.587 0.946,0.875 1.71,1.432 2.294,1.724 v 0 c -1.559,-0.347 -2.989,-0.514 -4.407,-0.445 -1.418,0.042 -2.697,0.458 -4.059,0.765 -1.418,0.306 -2.489,0.89 -4.281,1.001 -1.85,0.056 -4.282,-0.153 -6.548,-0.625 -2.254,-0.487 -4.422,-1.042 -6.994,-2.266 -2.626,-1.292 -6.325,-3.322 -8.632,-5.228 -2.308,-1.904 -3.865,-3.559 -5.158,-6.144 -1.349,-2.655 -2.293,-6.771 -2.836,-9.397 -0.543,-2.629 -0.724,-4.686 -0.488,-6.229 z"
         id="path104"
         style="fill:#5a965a;fill-rule:evenodd" />
      <path
         inkscape:connector-curvature="0"
         d="m 117.904,106.203 c 0.402,0.529 0.599,1.224 0.528,2.085 -0.097,0.848 -0.126,1.96 -0.89,3.128 -0.807,1.167 -2.53,2.752 -3.67,3.892 -1.127,1.084 -2.211,1.752 -2.989,2.753 -0.806,1.001 -1.224,2.001 -1.793,3.225 -0.598,1.196 -1.599,2.239 -1.724,3.935 -0.139,1.682 0.32,4.059 0.834,6.06 0.472,1.975 1.015,4.087 1.946,5.742 0.875,1.571 2.377,2.892 3.322,3.961 0.917,1.098 1.599,1.807 2.196,2.559 0.584,0.68 0.932,1.194 1.195,1.765 0.223,0.542 0.208,1.126 0.07,1.64 -0.152,0.515 -0.542,1.016 -1.057,1.502 v 0 c 1.126,-0.027 2.085,-0.278 2.877,-0.694 0.793,-0.445 1.321,-0.82 1.905,-1.877 0.556,-1.099 1.028,-3.212 1.418,-4.519 0.333,-1.334 0.32,-2.002 0.766,-3.28 0.472,-1.307 1.082,-2.725 1.986,-4.463 0.849,-1.766 2.434,-4.101 3.198,-6.089 0.709,-2.058 1.098,-3.809 1.223,-5.949 0.111,-2.184 0.111,-4.825 -0.542,-6.854 -0.737,-2.03 -2.336,-3.809 -3.559,-5.115 -1.237,-1.279 -2.392,-2.183 -3.614,-2.711 -1.207,-0.598 -2.416,-0.778 -3.626,-0.696 z"
         id="path106"
         style="fill:#5a965a;fill-rule:evenodd" />
      <path
         inkscape:connector-curvature="0"
         d="m 110.87,118.41 c -0.056,-1.001 -0.014,-2.308 0.181,-3.865 0.167,-1.599 0.43,-3.393 0.847,-5.547 v 0 c 0.25,-1.042 0.626,-2.029 1.127,-2.905 0.514,-0.904 1.154,-1.752 1.918,-2.489 v 0 c 1.14,0.626 1.974,1.224 2.558,2.002 0.542,0.723 0.835,1.445 0.82,2.433 0,0.986 -0.236,2.14 -0.876,3.35 -0.736,1.154 -1.974,2.335 -3.113,3.544 -1.1,1.169 -2.252,2.309 -3.462,3.477 z"
         id="path108"
         style="fill:#aad7a5;fill-rule:evenodd" />
      <path
         inkscape:connector-curvature="0"
         d="m 102.654,73.313 c 0.306,0.25 0.723,1.098 1.307,2.655 0.556,1.543 1.334,3.948 2.113,6.519 0.723,2.544 1.459,5.978 2.377,8.578 0.917,2.516 2.322,5.102 3.142,6.575 0.793,1.433 1.335,2.113 1.627,2.044 v 0 c 0.473,-1.237 0.792,-2.752 1.015,-4.713 0.194,-2.015 0.306,-4.894 0.181,-6.922 -0.181,-2.016 -0.403,-3.406 -1.153,-4.977 -0.82,-1.626 -2.225,-3.281 -3.518,-4.477 -1.334,-1.167 -3.03,-1.765 -4.226,-2.599 -1.211,-0.904 -2.128,-1.781 -2.865,-2.683 z"
         id="path110"
         style="fill:#aad7a5;fill-rule:evenodd" />
      <path
         inkscape:connector-curvature="0"
         d="m 113.191,99.586 c 0.32,-0.667 0.528,-1.542 0.737,-2.626 0.152,-1.099 0.306,-2.155 0.347,-3.92 0.016,-1.807 0.168,-4.727 -0.125,-6.673 -0.291,-1.974 -0.736,-3.518 -1.598,-4.894 -0.932,-1.404 -2.392,-2.336 -3.837,-3.393 -1.474,-1.112 -3.712,-2.099 -4.783,-3.113 -1.126,-1.084 -1.446,-1.974 -1.654,-3.045 -0.236,-1.084 -0.25,-2.071 0.5,-3.225 0.75,-1.182 2.183,-2.919 4.073,-3.712 1.863,-0.82 4.504,-0.958 7.118,-1.057 2.627,-0.125 5.574,0 8.41,0.32 2.738,0.278 5.422,0.918 8.104,1.487 2.684,0.542 5.366,1.224 7.896,1.725 2.517,0.472 4.796,0.75 6.992,0.987 2.113,0.195 3.948,0.25 5.713,0.167 1.753,-0.139 3.268,-0.362 4.699,-0.821 v 0 c -1.056,0.39 -2.112,0.89 -3.169,1.502 -1.098,0.583 -1.85,1.07 -3.211,2.155 -1.404,1.07 -3.392,2.558 -4.95,4.351 -1.584,1.766 -3.072,4.045 -4.351,6.242 -1.279,2.183 -2.21,4.81 -3.337,6.756 -1.181,1.891 -2.558,3.378 -3.6,4.629 -1.071,1.224 -1.197,1.836 -2.628,2.753 -1.474,0.89 -3.893,1.848 -5.964,2.558 -2.1,0.653 -4.56,1.404 -6.464,1.557 -1.929,0.139 -3.514,-0.098 -4.918,-0.71 z"
         id="path112"
         style="fill:#5a965a;fill-rule:evenodd" />
      <path
         inkscape:connector-curvature="0"
         d="m 87.695,121.065 c -0.584,-0.083 -1.125,0.027 -1.626,0.333 -0.528,0.264 -1.362,0.64 -1.376,1.502 -0.028,0.89 0.765,0.834 1.195,3.739 0.375,2.878 1.182,7.716 1.126,13.332 -0.097,5.644 -1.849,13.762 -1.445,19.963 0.389,6.116 3.142,12.107 3.809,16.473 0.598,4.324 -0.278,6.591 0,9.37 0.25,2.726 0.792,5.005 1.571,6.951 v 0 l 0.625,-0.82 v 0 c -0.723,-1.418 -1.167,-3.17 -1.334,-5.311 -0.208,-2.196 0.473,-5.199 0.32,-7.451 -0.167,-2.238 -0.598,-3.267 -1.238,-5.825 -0.667,-2.6 -2.113,-6.757 -2.627,-9.522 -0.542,-2.795 -0.542,-4.393 -0.486,-6.992 0.014,-2.613 0.403,-5.506 0.681,-8.522 0.222,-3.071 0.903,-6.241 0.862,-9.564 -0.042,-3.336 -0.75,-7.743 -1.057,-10.162 -0.347,-2.433 -0.778,-3.364 -0.917,-4.296 -0.167,-0.917 -0.139,-0.986 0.139,-1.224 0.278,-0.264 1.292,-0.18 1.599,-0.444 0.305,-0.335 0.346,-0.863 0.179,-1.53 z"
         id="path114"
         style="fill-rule:evenodd;stroke:#000000;stroke-width:0.036;stroke-miterlimit:10" />
      <path
         inkscape:connector-curvature="0"
         d="m 98.136,113.822 c -1.196,0.556 -1.808,1.32 -1.835,2.182 0,0.82 0.779,1.321 1.641,3.059 0.82,1.751 2.252,4.74 3.169,7.409 0.876,2.627 1.321,4.908 2.085,8.341 0.737,3.434 1.293,8.313 2.363,12.067 1.071,3.697 3.058,7.048 3.935,10.051 0.834,2.947 1.168,4.99 0.945,7.785 -0.292,2.836 -1.321,6.103 -2.502,8.883 -1.195,2.711 -3.364,5.297 -4.629,7.271 -1.307,1.891 -1.39,2.684 -3.1,4.254 -1.766,1.585 -5.714,3.837 -7.284,5.144 -1.585,1.251 -0.946,0.723 -2.1,2.336 -1.223,1.64 -3.767,4.823 -4.949,7.242 -1.168,2.349 -1.849,4.588 -2.044,6.826 v 0 c 0.111,-0.667 0.556,-1.808 1.279,-3.364 0.737,-1.599 1.877,-4.184 3.1,-6.048 1.21,-1.932 2.725,-3.753 4.004,-5.143 1.195,-1.404 2.072,-2.071 3.434,-3.128 1.376,-1.071 3.434,-2.086 4.782,-3.31 1.292,-1.292 2.015,-2.78 3.086,-4.253 1.07,-1.474 2.169,-2.767 3.239,-4.477 1.028,-1.794 2.183,-3.768 2.933,-5.923 0.737,-2.169 1.182,-4.67 1.334,-6.867 0.097,-2.21 0.014,-3.795 -0.625,-6.256 -0.709,-2.516 -2.433,-6.019 -3.294,-8.479 -0.862,-2.476 -1.238,-3.489 -1.821,-6.201 -0.612,-2.78 -1.196,-7.228 -1.752,-10.078 -0.597,-2.822 -0.862,-4.545 -1.654,-6.839 -0.821,-2.377 -2.475,-5.534 -3.198,-7.105 -0.765,-1.557 -1.334,-1.598 -1.279,-2.224 0,-0.667 1.404,-1.224 1.529,-1.725 0.125,-0.54 -0.139,-0.999 -0.792,-1.43 z"
         id="path116"
         style="fill-rule:evenodd;stroke:#000000;stroke-width:0.036;stroke-miterlimit:10" />
      <path
         inkscape:connector-curvature="0"
         d="m 113.261,140.917 c -0.098,-0.334 0.389,0.931 1.348,3.948 0.959,3.03 3.322,9.689 4.462,13.915 1.126,4.17 1.92,7.396 2.225,10.954 0.237,3.504 -0.18,5.826 -0.667,10.023 -0.528,4.226 -0.64,9.884 -2.322,14.874 -1.737,4.908 -5.574,10.664 -7.812,14.432 -2.294,3.711 -3.295,4.894 -5.63,7.785 -2.35,2.849 -6.159,6.603 -8.202,9.328 -2.03,2.683 -3.184,4.796 -3.948,6.825 -0.807,1.987 -0.959,3.517 -0.89,5.186 0.014,1.681 0.348,3.155 1,4.684 v 0 c -1.112,-1.751 -1.765,-3.392 -1.959,-4.976 -0.237,-1.599 0.18,-2.822 0.82,-4.574 0.626,-1.766 1.293,-3.615 3.017,-6.033 1.696,-2.488 4.894,-5.895 7.229,-8.717 2.335,-2.85 4.073,-4.156 6.659,-8.104 2.558,-4.003 6.687,-10.635 8.578,-15.542 1.792,-4.936 1.988,-8.98 2.46,-13.805 0.473,-4.879 1.21,-9.578 0.487,-15.069 -0.779,-5.561 -3.644,-13.275 -4.949,-17.738 -1.293,-4.448 -2.266,-7.299 -2.864,-8.758 v 0 z"
         id="path118"
         style="fill-rule:evenodd;stroke:#000000;stroke-width:0.036;stroke-miterlimit:10" />
      <path
         inkscape:connector-curvature="0"
         d="m 107.311,127.584 c -0.75,-2.335 -1.751,-4.379 -3.002,-6.283 -1.307,-1.933 -3.601,-3.614 -4.462,-5.046 -0.806,-1.46 -0.612,-2.6 -0.542,-3.476 0,-0.875 0.167,-1.334 0.723,-1.751 0.57,-0.458 1.404,-0.709 2.613,-0.862 v 0 c 0.876,0.223 1.084,0.598 0.626,1.07 -0.542,0.417 -2.864,0.973 -3.42,1.724 -0.528,0.765 -0.223,1.738 0.389,2.808 0.584,1.029 2.335,2.364 3.225,3.407 0.89,0.973 1.376,1.417 2.043,2.571 0.64,1.112 1.238,2.503 1.793,4.171 v 0 z"
         id="path120"
         style="fill-rule:evenodd;stroke:#000000;stroke-width:0.036;stroke-miterlimit:10" />
      <path
         inkscape:connector-curvature="0"
         d="m 96.272,114.92 c -1.056,-0.139 -1.724,-0.07 -2.168,0.153 -0.431,0.223 -0.473,0.473 -0.347,1.182 0.097,0.667 0.834,1.111 0.917,2.891 0.014,1.78 -0.778,4.908 -0.556,7.716 0.223,2.794 1.042,5.436 1.876,8.883 0.807,3.393 2.517,8.119 2.934,11.441 0.319,3.28 -1.126,5.311 -0.64,8.229 0.5,2.919 2.711,6.006 3.628,9.105 0.904,3.059 1.376,6.423 1.738,9.12 0.306,2.642 0.333,4.893 0.139,6.756 v 0 l 0.667,-0.64 v 0 c 0.097,-3.128 -0.028,-5.991 -0.375,-8.8 -0.361,-2.822 -1.001,-5.532 -1.765,-7.813 -0.807,-2.266 -2.35,-4.171 -2.919,-5.769 -0.556,-1.655 -0.57,-2.518 -0.473,-4.088 0.014,-1.585 0.945,-3.211 0.764,-5.366 -0.236,-2.252 -1.125,-5.046 -1.863,-7.784 -0.75,-2.753 -1.96,-6.229 -2.502,-8.55 -0.542,-2.364 -0.751,-3.281 -0.737,-5.325 -0.042,-2.058 0.653,-5.282 0.639,-6.825 -0.014,-1.571 -0.681,-1.85 -0.723,-2.447 -0.083,-0.625 0.014,-1.015 0.348,-1.168 0.32,-0.153 1.279,0.278 1.543,0.167 0.224,-0.178 0.182,-0.485 -0.125,-1.068 z"
         id="path122"
         style="fill-rule:evenodd;stroke:#000000;stroke-width:0.036;stroke-miterlimit:10" />
      <path
         inkscape:connector-curvature="0"
         d="m 106.755,194.786 c 0.208,1.417 0.333,2.641 0.32,3.823 -0.056,1.167 -0.278,2.14 -0.348,3.071 -0.055,0.877 -0.222,1.655 0.084,2.28 0.306,0.612 0.848,1.057 1.682,1.335 v 0 c -0.654,-0.445 -1.071,-1.057 -1.196,-1.835 -0.111,-0.821 0.25,-1.835 0.39,-2.879 0.069,-1.069 0.139,-2.195 0.097,-3.322 -0.083,-1.126 -0.167,-2.21 -0.403,-3.308 v 0 c -0.209,0.279 -0.418,0.556 -0.626,0.835 z"
         id="path124"
         style="fill-rule:evenodd;stroke:#000000;stroke-width:0.036;stroke-miterlimit:10" />
      <path
         inkscape:connector-curvature="0"
         d="m 84.303,206.546 c 0.709,-0.904 1.391,-1.683 2.1,-2.336 0.653,-0.667 1.07,-1.487 2.057,-1.543 1.001,-0.069 2.335,1.237 3.851,1.183 1.459,-0.085 2.877,-0.501 4.852,-1.627 1.96,-1.183 4.935,-3.559 6.784,-5.145 1.766,-1.569 2.461,-2.377 4.018,-4.142 1.557,-1.809 3.851,-3.948 5.324,-6.424 1.459,-2.474 2.586,-5.436 3.323,-8.299 0.667,-2.933 0.833,-6.27 0.819,-8.827 -0.056,-2.559 -1.07,-4.115 -0.945,-6.283 0.111,-2.197 0.64,-4.338 1.585,-6.632 v 0 c -0.375,1.182 -0.64,2.419 -0.792,3.768 -0.181,1.334 -0.321,2.669 -0.195,4.226 0.097,1.502 0.82,3.045 0.932,4.894 0.098,1.849 -0.042,3.852 -0.306,6.061 -0.292,2.184 -0.375,4.297 -1.432,6.882 -1.126,2.531 -3.532,6.062 -5.13,8.286 -1.613,2.182 -2.753,3.238 -4.435,4.935 -1.724,1.682 -3.907,3.643 -5.797,5.13 -1.932,1.418 -3.906,2.809 -5.546,3.476 -1.655,0.639 -3.059,0.445 -4.213,0.389 -1.14,-0.11 -1.863,-1.015 -2.599,-0.944 -0.751,0.068 -1.251,0.652 -1.932,1.209 -0.738,0.498 -1.474,1.068 -2.323,1.763 z"
         id="path126"
         style="fill-rule:evenodd;stroke:#000000;stroke-width:0.036;stroke-miterlimit:10" />
      <path
         inkscape:connector-curvature="0"
         d="m 90.226,203.918 c -0.25,1.111 -0.181,2.655 0.208,4.74 0.375,2.086 1.696,5.283 2.03,7.66 0.264,2.321 -0.501,4.045 -0.264,6.242 0.236,2.141 0.736,4.337 1.613,6.645 v 0 l 0.486,-1.001 v 0 c -1.015,-2.126 -1.585,-4.031 -1.766,-5.921 -0.194,-1.892 0.945,-2.989 0.681,-5.228 -0.278,-2.294 -2.002,-6.006 -2.335,-8.188 -0.389,-2.196 -0.278,-3.767 0.181,-4.824 v 0 c -0.278,-0.041 -0.556,-0.083 -0.834,-0.125 z"
         id="path128"
         style="fill-rule:evenodd;stroke:#000000;stroke-width:0.036;stroke-miterlimit:10" />
      <path
         inkscape:connector-curvature="0"
         d="m 94.924,236.352 c 0.139,1.848 0.445,3.293 0.862,4.504 0.417,1.181 0.945,2.015 1.64,2.558 v 0 c -0.598,-1.084 -0.987,-2.225 -1.321,-3.42 -0.333,-1.224 -0.514,-2.461 -0.598,-3.768 v 0 c -0.193,0.042 -0.388,0.083 -0.583,0.126 z"
         id="path130"
         style="fill-rule:evenodd;stroke:#000000;stroke-width:0.036;stroke-miterlimit:10" />
      <path
         inkscape:connector-curvature="0"
         d="m 97.273,242.246 c -0.347,-1.321 -0.486,-2.502 -0.528,-3.489 -0.056,-1.028 0.097,-1.862 0.348,-2.559 v 0 l 0.931,-0.306 v 0.001 c -0.403,0.945 -0.64,1.862 -0.764,2.961 -0.125,1.057 -0.139,2.169 0.013,3.392 z"
         id="path132"
         style="fill-rule:evenodd;stroke:#000000;stroke-width:0.036;stroke-miterlimit:10" />
      <path
         inkscape:connector-curvature="0"
         d="m 93.02,241.453 c 0,-1.682 0.195,-2.905 0.584,-3.821 0.348,-0.946 0.862,-1.238 1.766,-1.571 0.917,-0.293 2.21,0.11 3.726,-0.293 1.487,-0.472 3.016,-0.986 5.185,-2.404 2.127,-1.487 4.769,-3.309 7.66,-6.215 2.905,-2.905 6.533,-6.074 9.536,-11.01 2.962,-5.005 6.048,-13.373 8.021,-18.572 1.905,-5.171 2.851,-7.132 3.476,-12.317 0.611,-5.31 0.974,-12.47 0.181,-18.851 -0.904,-6.408 -3.419,-13.985 -5.129,-18.976 -1.669,-4.949 -3.253,-8.383 -4.811,-10.51 v 0 l 0.209,-0.611 v 0 c 0.514,-0.265 1.252,0.834 2.377,3.294 1.099,2.502 2.961,7.52 4.198,11.456 1.21,3.879 2.362,7.909 3.086,11.719 0.668,3.781 0.974,7.034 1.085,10.718 0.138,3.67 -0.028,7.438 -0.445,11.08 -0.458,3.572 -1.278,6.575 -2.405,10.286 -1.224,3.657 -3.308,8.175 -4.698,11.678 -1.418,3.447 -2.113,6.229 -3.754,9.093 -1.751,2.849 -3.796,5.324 -6.284,8.021 -2.488,2.711 -5.783,5.867 -8.382,7.966 -2.642,2.002 -5.296,3.309 -7.215,4.129 -1.933,0.82 -3.309,0.472 -4.337,0.723 -1.071,0.194 -1.501,-0.056 -1.988,0.528 -0.514,0.542 -0.862,2.058 -1.098,2.822 -0.266,0.749 -0.447,1.276 -0.544,1.638 z"
         id="path134"
         style="fill-rule:evenodd;stroke:#000000;stroke-width:0.036;stroke-miterlimit:10" />
      <path
         inkscape:connector-curvature="0"
         d="m 99.275,201.36 c 0.167,1.738 0.375,3.698 0.473,5.992 0.083,2.294 0.083,5.381 0.223,7.646 0.153,2.195 0.361,4.045 0.681,5.547 v 0 L 101,219.862 v 0 c -0.208,-1.75 -0.403,-3.711 -0.473,-5.991 -0.125,-2.321 0,-5.323 -0.111,-7.563 -0.125,-2.251 -0.334,-4.115 -0.625,-5.755 v 0 c -0.168,0.266 -0.334,0.53 -0.516,0.807 z"
         id="path136"
         style="fill-rule:evenodd;stroke:#000000;stroke-width:0.036;stroke-miterlimit:10" />
      <path
         inkscape:connector-curvature="0"
         d="m 108.465,204.711 c -0.612,-0.751 -0.778,-1.46 -0.556,-2.183 0.208,-0.695 1.376,-1.141 1.849,-2.085 0.445,-1.029 0.654,-2.266 0.778,-3.865 0.111,-1.626 -0.014,-3.504 -0.222,-5.741 v 0 l 0.5,-0.403 v 0 c 0.25,1.015 0.348,2.321 0.348,3.92 0,1.571 -0.055,4.269 -0.487,5.686 -0.542,1.363 -2.029,1.947 -2.418,2.711 -0.376,0.779 -0.307,1.432 0.208,1.96 z"
         id="path138"
         style="fill-rule:evenodd;stroke:#000000;stroke-width:0.036;stroke-miterlimit:10" />
      <path
         inkscape:connector-curvature="0"
         d="m 108.979,170.958 c -0.695,-1.78 -1.209,-3.601 -1.487,-5.574 -0.306,-1.975 -0.431,-3.977 -0.32,-6.215 0.056,-2.279 0.306,-4.629 0.75,-7.256 v 0 l 0.361,1.223 v 0 c -0.319,2.517 -0.473,4.63 -0.514,6.507 -0.042,1.821 0.083,3.1 0.264,4.531 0.125,1.475 0.333,2.92 0.57,4.073 0.236,1.071 0.556,1.891 0.903,2.405 v 0 c -0.166,0.097 -0.346,0.194 -0.527,0.306 z"
         id="path140"
         style="fill-rule:evenodd;stroke:#000000;stroke-width:0.036;stroke-miterlimit:10" />
      <path
         inkscape:connector-curvature="0"
         d="m 98.984,185.958 c -0.278,-2.489 -0.695,-4.838 -1.251,-7.312 -0.598,-2.475 -1.835,-4.866 -2.155,-7.326 -0.306,-2.447 0.792,-3.518 0.236,-7.341 -0.598,-3.934 -3.142,-11.121 -3.823,-15.667 -0.709,-4.546 -0.195,-7.618 -0.5,-11.26 -0.375,-3.685 -1.057,-7.869 -1.613,-10.413 -0.556,-2.544 -1.126,-4.101 -1.709,-4.727 v 0 c 0.208,-0.362 0.5,-0.111 0.875,0.806 0.376,0.876 0.89,2.586 1.377,4.602 0.473,2.016 1.057,4.462 1.376,7.396 0.222,2.906 -0.069,7.063 0.195,9.842 0.25,2.738 0.75,3.865 1.39,6.59 0.625,2.683 1.779,7.089 2.335,9.578 0.515,2.446 0.75,3.489 0.82,5.214 0.042,1.71 -0.64,3.559 -0.542,5.004 0.098,1.418 0.515,2.141 0.932,3.405 0.361,1.224 0.751,1.961 1.223,3.921 0.473,1.946 0.876,4.406 1.418,7.591 v 0 c -0.195,0.028 -0.39,0.055 -0.584,0.097 z"
         id="path142"
         style="fill-rule:evenodd;stroke:#000000;stroke-width:0.036;stroke-miterlimit:10" />
      <path
         inkscape:connector-curvature="0"
         d="m 92.046,100.698 c -3.35,5.38 -6.575,10.051 -9.828,14.333 -3.294,4.268 -7.118,8.257 -9.537,11.01 -2.433,2.711 -3.99,4.296 -4.824,5.019 v 0 c 1.724,-1.502 3.851,-3.601 6.436,-6.353 2.586,-2.808 5.964,-6.229 9.009,-10.205 3.044,-4.017 6.019,-8.424 9.092,-13.539 v 0 z"
         id="path144"
         style="fill-rule:evenodd;stroke:#000000;stroke-width:0.036;stroke-miterlimit:10" />
      <path
         inkscape:connector-curvature="0"
         d="m 93.562,99.364 c 2.794,-4.045 5.102,-7.632 6.979,-10.816 1.89,-3.211 3.211,-5.922 4.17,-8.244 v 0 c -1.446,2.725 -3.1,5.575 -5.075,8.772 -1.987,3.156 -4.184,6.492 -6.701,10.12 v 0 z"
         id="path146"
         style="fill-rule:evenodd;stroke:#000000;stroke-width:0.036;stroke-miterlimit:10" />
      <path
         inkscape:connector-curvature="0"
         d="m 94.688,101.45 c -0.125,0.75 -1.224,2.53 -3.239,5.338 -2.085,2.836 -6.297,8.341 -8.938,11.483 -2.641,3.072 -4.476,4.866 -6.798,7.035 -2.335,2.168 -4.671,4.101 -7.117,5.908 v 0 c 1.821,-1.404 3.892,-3.226 6.214,-5.519 2.363,-2.335 5.172,-5.31 7.729,-8.229 2.516,-2.99 5.31,-6.521 7.312,-9.245 2.002,-2.711 3.434,-5.004 4.504,-6.937 v 0 z"
         id="path148"
         style="fill-rule:evenodd;stroke:#000000;stroke-width:0.036;stroke-miterlimit:10" />
      <path
         inkscape:connector-curvature="0"
         d="m 95.286,99.962 c 0,0 2.475,-3.643 5.005,-8.008 2.516,-4.365 3.434,-6.45 5.074,-9.453 0,0 -2.029,4.56 -3.461,7.464 -1.432,2.893 -0.765,1.613 -2.28,4.115 -1.515,2.517 -3.795,5.909 -3.795,5.909 v 0 z"
         id="path150"
         style="fill-rule:evenodd;stroke:#000000;stroke-width:0.036;stroke-miterlimit:10" />
      <path
         inkscape:connector-curvature="0"
         d="m 82.677,117.631 c 0.584,0.18 1.057,0.652 1.585,1.362 0.486,0.709 0.973,1.654 1.404,2.892 v 0 l 0.389,-0.083 v 0 c -0.556,-1.445 -1.043,-2.517 -1.515,-3.364 -0.515,-0.862 -0.89,-1.349 -1.334,-1.613 v 0 c -0.167,0.264 -0.348,0.528 -0.529,0.806 z"
         id="path152"
         style="fill-rule:evenodd;stroke:#000000;stroke-width:0.036;stroke-miterlimit:10" />
      <path
         inkscape:connector-curvature="0"
         d="m 94.771,101.283 c 1.738,1.445 3.086,3.003 4.102,4.727 1.015,1.724 1.585,3.503 1.863,5.491 v 0 l 0.375,-0.084 v 0.001 c -0.431,-2.392 -1.084,-4.31 -1.959,-5.964 -0.876,-1.64 -1.975,-2.877 -3.295,-3.767 v 0 c -0.363,-0.127 -0.724,-0.265 -1.086,-0.404 z"
         id="path154"
         style="fill-rule:evenodd;stroke:#000000;stroke-width:0.036;stroke-miterlimit:10" />
      <path
         inkscape:connector-curvature="0"
         d="m 94.521,114.934 c -0.222,-1.139 -0.528,-2.196 -0.917,-3.169 -0.417,-0.988 -0.959,-1.918 -1.404,-2.642 -0.487,-0.736 -0.876,-1.362 -1.334,-1.821 v 0 l 1.07,-1.751 v 0 c 0.932,0.903 1.71,1.779 2.391,2.683 0.654,0.848 0.988,1.543 1.543,2.614 0.528,1.057 1.07,2.293 1.682,3.767 v 0 l -0.306,0.223 v 0 c -0.653,-1.599 -1.279,-2.906 -1.821,-3.92 -0.598,-1.029 -1.015,-1.724 -1.516,-2.197 -0.542,-0.528 -1.279,-0.834 -1.404,-0.75 -0.139,0.07 0.334,0.57 0.667,1.293 0.333,0.737 0.862,2.002 1.209,3.045 0.306,0.987 0.5,1.918 0.64,2.85 v 0 c -0.166,-0.072 -0.333,-0.142 -0.5,-0.225 z"
         id="path156"
         style="fill-rule:evenodd;stroke:#000000;stroke-width:0.036;stroke-miterlimit:10" />
      <path
         inkscape:connector-curvature="0"
         d="m 135.629,99.073 c -6.646,1.25 -12.499,1.974 -17.989,2.335 -5.478,0.334 -9.453,0.319 -14.556,-0.361 C 97.94,100.31 91.727,99.142 87.278,97.112 82.83,95.041 79.354,92.317 76.629,88.771 v 0 c 0.39,1.279 1.474,2.613 3.253,4.157 1.793,1.501 3.99,3.489 7.396,4.894 3.406,1.404 8.036,2.711 12.817,3.489 4.727,0.695 10.663,0.987 15.403,0.931 4.698,-0.056 9.287,-0.709 12.692,-1.209 3.393,-0.53 5.784,-1.182 7.439,-1.96 z"
         id="path158"
         style="fill-rule:evenodd;stroke:#000000;stroke-width:0.036;stroke-miterlimit:10" />
      <path
         inkscape:connector-curvature="0"
         d="m 135.045,100.49 c -6.646,1.251 -12.498,1.974 -17.989,2.335 -5.478,0.333 -9.467,0.32 -14.542,-0.361 -5.171,-0.737 -11.316,-1.905 -15.806,-3.934 -4.435,-2.072 -7.952,-4.81 -10.663,-8.327 v 0 c 0.389,1.278 1.474,2.613 3.253,4.156 1.793,1.474 3.99,3.475 7.396,4.879 3.406,1.404 8.036,2.711 12.818,3.489 4.727,0.682 10.662,1.015 15.402,0.945 4.755,-0.056 9.26,-0.695 12.707,-1.224 3.393,-0.526 5.796,-1.179 7.424,-1.958 z"
         id="path160"
         style="fill-rule:evenodd;stroke:#000000;stroke-width:0.036;stroke-miterlimit:10" />
      <path
         inkscape:connector-curvature="0"
         d="m 135.156,98.85 c 0.5,-2.572 2.224,-4.435 5.282,-5.644 3.06,-1.238 8.897,-3.337 12.957,-1.627 4.004,1.738 7.91,7.104 11.024,11.914 3.03,4.796 5.115,12.512 7.438,16.613 2.321,4.073 4.461,6.576 6.478,7.66 v 0 c -0.875,0 -1.918,-0.625 -3.128,-1.877 -1.251,-1.251 -2.585,-2.641 -4.115,-5.616 -1.57,-3.044 -3.169,-8.758 -5.004,-12.373 -1.835,-3.642 -3.697,-6.576 -5.798,-9.176 -2.111,-2.599 -4.559,-5.046 -6.645,-6.214 -2.113,-1.182 -3.56,-1.07 -5.84,-0.792 -2.334,0.277 -5.936,1.584 -7.797,2.418 -1.835,0.778 -2.447,1.543 -3.226,2.35 -0.82,0.806 -1.362,1.543 -1.626,2.364 z"
         id="path162"
         style="fill-rule:evenodd;stroke:#000000;stroke-width:0.036;stroke-miterlimit:10" />
      <path
         inkscape:connector-curvature="0"
         d="m 177.57,127.848 c -1.181,-0.264 -2.864,-0.194 -5.157,0.056 -2.322,0.223 -5.033,1.85 -8.563,1.558 -3.601,-0.32 -8.493,-1.099 -12.581,-3.198 -4.115,-2.126 -8.967,-5.046 -11.72,-9.286 -2.738,-4.282 -4.184,-9.495 -4.49,-16.014 v 0 c 0.583,4.42 1.405,7.979 2.405,10.842 0.988,2.836 1.794,4.171 3.601,6.201 1.822,2.016 4.407,4.129 7.159,5.797 2.697,1.64 6.104,3.059 9.036,3.934 2.961,0.779 5.853,1.113 8.452,1.058 2.544,-0.084 4.672,-1.251 6.701,-1.405 1.988,-0.168 3.656,-0.015 5.157,0.457 z"
         id="path164"
         style="fill-rule:evenodd;stroke:#000000;stroke-width:0.036;stroke-miterlimit:10" />
      <path
         inkscape:connector-curvature="0"
         d="m 115.249,103.91 c 1.946,0.945 2.988,2.113 3.28,3.656 0.237,1.53 -0.389,3.406 -1.724,5.408 -1.376,1.946 -4.781,4.032 -6.297,6.311 -1.571,2.197 -2.85,4.212 -2.822,7.174 0.013,2.989 1.459,7.618 2.988,10.677 1.516,3.003 5.158,5.505 6.048,7.396 0.875,1.862 0.568,3.114 -0.862,3.809 v 0 c 0.64,-0.639 0.918,-1.236 0.944,-1.946 0,-0.723 -0.236,-1.209 -0.931,-2.21 -0.765,-1.071 -2.434,-2.488 -3.448,-3.823 -1.056,-1.334 -1.959,-2.251 -2.766,-3.99 -0.848,-1.766 -1.724,-4.42 -2.085,-6.52 -0.375,-2.154 -0.75,-4.073 -0.056,-6.186 0.667,-2.196 2.516,-4.601 4.101,-6.575 1.543,-1.96 3.976,-3.448 5.103,-5.047 1.069,-1.654 1.501,-3.197 1.292,-4.573 -0.263,-1.378 -1.167,-2.546 -2.765,-3.561 z"
         id="path166"
         style="fill-rule:evenodd;stroke:#000000;stroke-width:0.036;stroke-miterlimit:10" />
      <path
         inkscape:connector-curvature="0"
         d="m 118.362,106.121 c 2.044,-0.015 3.893,0.652 5.658,2.057 1.737,1.363 3.907,3.532 4.797,6.297 0.862,2.809 1.126,6.604 0.361,10.316 -0.862,3.656 -4.046,8.493 -5.213,11.566 -1.21,3.044 -1.125,4.712 -1.737,6.506 -0.627,1.751 -0.946,3.058 -1.878,3.976 -0.959,0.932 -2.182,1.334 -3.726,1.418 v 0 c 1.307,-0.251 2.335,-0.751 3.142,-1.501 0.765,-0.765 1.127,-1.654 1.613,-3.045 0.444,-1.46 0.515,-3.406 1.224,-5.408 0.694,-2.043 2.084,-4.587 2.988,-6.506 0.89,-1.876 1.696,-2.905 2.309,-4.81 0.597,-2.002 1.084,-4.684 1.14,-6.923 -0.042,-2.266 -0.501,-4.615 -1.154,-6.352 -0.695,-1.71 -1.627,-2.836 -2.683,-3.907 -1.084,-1.112 -2.392,-2.043 -3.545,-2.641 -1.142,-0.627 -2.239,-0.975 -3.296,-1.043 z"
         id="path168"
         style="fill-rule:evenodd;stroke:#000000;stroke-width:0.036;stroke-miterlimit:10" />
      <path
         inkscape:connector-curvature="0"
         d="m 112.983,99.836 c 0.778,-2.849 1.223,-5.574 1.223,-8.285 -0.014,-2.767 -0.431,-5.852 -1.14,-7.965 -0.723,-2.085 -1.557,-2.961 -3.197,-4.505 -1.737,-1.57 -5.533,-3.141 -6.825,-4.768 -1.293,-1.627 -1.683,-3.365 -0.737,-5.005 0.917,-1.751 3.044,-4.129 6.381,-5.033 3.364,-0.89 8.493,-0.723 13.623,-0.194 5.116,0.528 12.651,2.459 16.821,3.225 4.073,0.681 5.116,0.945 7.785,1.057 2.656,0.097 5.324,-0.028 8.119,-0.375 v 0 c -2.752,0.695 -5.366,1.001 -8.049,0.973 -2.67,-0.041 -5.27,-0.848 -7.855,-1.237 -2.655,-0.445 -5.24,-0.862 -7.7,-1.307 -2.434,-0.487 -4.088,-1.168 -6.841,-1.557 -2.863,-0.473 -6.923,-0.821 -9.813,-0.821 -2.906,0.015 -5.27,0.334 -7.202,1.07 -1.918,0.737 -3.378,2.003 -4.157,3.365 -0.792,1.292 -1.028,3.211 -0.542,4.476 0.431,1.224 1.96,2.016 3.294,3.073 1.334,1.014 3.378,1.918 4.629,3.141 1.209,1.21 2.155,2.516 2.781,4.087 0.611,1.557 0.834,2.961 0.987,5.172 0.111,2.21 0.041,6.005 -0.209,7.951 -0.278,1.906 -0.736,3.06 -1.376,3.462 z"
         id="path170"
         style="fill-rule:evenodd;stroke:#000000;stroke-width:0.036;stroke-miterlimit:10" />
      <path
         inkscape:connector-curvature="0"
         d="m 154.022,68.571 c -1.794,0.765 -3.672,2.085 -5.784,4.115 -2.086,1.974 -4.185,4.101 -6.729,7.827 -2.628,3.684 -5.38,11.01 -8.785,14.263 -3.435,3.24 -8.301,4.227 -11.54,5.103 -3.238,0.834 -5.769,0.82 -7.701,-0.042 v 0 c 1.487,0.264 3.086,0.348 4.741,0.195 1.64,-0.18 3.238,-0.528 5.171,-1.153 1.918,-0.668 4.394,-1.321 6.353,-2.6 1.934,-1.292 3.531,-2.975 5.116,-5.046 1.501,-2.128 2.809,-5.159 4.087,-7.424 1.251,-2.251 1.933,-3.962 3.602,-5.992 1.653,-2.099 4.322,-4.656 6.282,-6.227 1.905,-1.559 3.616,-2.546 5.187,-3.019 z"
         id="path172"
         style="fill-rule:evenodd;stroke:#000000;stroke-width:0.036;stroke-miterlimit:10" />
      <path
         inkscape:connector-curvature="0"
         d="m 141.133,73.91 c -7.854,3.865 -13.79,7.659 -18.183,11.594 -4.366,3.934 -6.924,7.798 -7.841,11.802 v 0 c 0.986,-3.67 3.56,-7.368 7.938,-11.302 4.379,-3.934 10.302,-7.896 18.086,-12.094 z"
         id="path174"
         style="fill-rule:evenodd;stroke:#000000;stroke-width:0.036;stroke-miterlimit:10" />
      <path
         inkscape:connector-curvature="0"
         d="m 119.516,113.321 c -1.737,3.934 -2.559,7.799 -2.516,11.747 0.056,3.935 2.475,8.591 2.808,11.775 0.307,3.169 -0.014,5.422 -0.96,7.021 v 0 c 0.46,-2.072 0.654,-4.101 0.529,-6.089 -0.152,-2.016 -0.862,-3.711 -1.32,-5.839 -0.459,-2.168 -1.419,-4.782 -1.488,-7.034 -0.139,-2.322 0.307,-4.546 0.807,-6.507 0.499,-1.932 1.195,-3.642 2.14,-5.074 z"
         id="path176"
         style="fill-rule:evenodd;stroke:#000000;stroke-width:0.036;stroke-miterlimit:10" />
      <path
         inkscape:connector-curvature="0"
         d="m 140.202,101.241 c 3.629,0.347 7.41,1.918 11.399,4.88 4.045,2.975 9.022,9.509 12.456,12.678 3.352,3.073 5.798,5.005 7.508,5.797 v 0 c -0.752,0.111 -1.821,-0.403 -3.378,-1.543 -1.53,-1.182 -3.379,-2.795 -5.812,-5.269 -2.529,-2.531 -6.158,-7.131 -9.009,-9.62 -2.877,-2.488 -5.699,-4.06 -7.924,-5.199 -2.195,-1.168 -3.961,-1.724 -5.24,-1.724 z"
         id="path178"
         style="fill-rule:evenodd;stroke:#000000;stroke-width:0.036;stroke-miterlimit:10" />
      <path
         inkscape:connector-curvature="0"
         d="m 74.072,130.031 c -0.792,1.584 -0.765,3.531 0.083,5.839 0.848,2.266 3.962,4.893 5.004,7.938 0.987,3.059 2.016,7.076 1.057,10.398 -1.029,3.294 -4.685,7.242 -6.896,9.272 -2.224,1.932 -3.934,2.183 -6.145,2.571 -2.224,0.39 -4.573,0.25 -7.104,-0.306 v 0 c 0.807,0.473 1.904,0.709 3.294,0.862 1.39,0.083 3.239,0.264 5.061,-0.153 1.779,-0.459 3.74,-0.891 5.616,-2.475 1.905,-1.612 4.268,-4.922 5.533,-7.146 1.21,-2.294 1.724,-3.935 1.696,-6.367 -0.083,-2.488 -0.959,-5.699 -2.03,-8.133 -1.084,-2.418 -3.559,-4.517 -4.421,-6.242 -0.931,-1.737 -0.82,-3.058 -0.945,-4.073 -0.109,-0.998 -0.081,-1.679 0.197,-1.985 z"
         id="path180"
         style="fill-rule:evenodd;stroke:#000000;stroke-width:0.036;stroke-miterlimit:10" />
      <path
         inkscape:connector-curvature="0"
         d="m 74.155,128.544 c 0.445,-0.431 0.806,-0.514 1.084,-0.195 0.25,0.292 0.25,0.875 0.639,1.974 0.348,1.029 0.626,2.502 1.696,4.365 1.084,1.863 3.656,4.115 4.713,6.812 0.973,2.668 1.307,6.561 1.32,9.162 -0.028,2.571 -0.306,3.781 -1.265,6.089 -0.96,2.266 -2.419,5.365 -4.435,7.423 -2.071,2.03 -5.491,3.948 -7.632,4.74 -2.155,0.724 -3.948,0.07 -5.06,-0.193 -1.112,-0.292 -1.266,-1.07 -1.641,-1.378 -0.417,-0.333 -0.723,-0.472 -0.862,-0.472 v 0 c 0.403,-0.084 0.736,-0.015 1.153,0.208 0.348,0.182 0.487,0.778 1.168,1.043 0.709,0.265 1.863,0.612 3.03,0.556 1.112,-0.097 2.28,-0.389 3.712,-1.084 1.404,-0.751 3.517,-2.086 4.838,-3.253 1.292,-1.195 2.071,-2.183 3.086,-3.768 1.015,-1.612 2.293,-4.086 2.919,-5.755 0.528,-1.696 0.528,-2.419 0.486,-4.268 -0.083,-1.904 -0.333,-5.019 -0.751,-6.771 -0.375,-1.751 -0.736,-2.057 -1.626,-3.601 -1.015,-1.584 -3.114,-4.128 -4.046,-5.755 -0.89,-1.64 -0.848,-3.267 -1.223,-4.017 -0.431,-0.793 -1.015,-0.32 -1.224,-0.626 -0.218,-0.333 -0.246,-0.708 -0.079,-1.236 z"
         id="path182"
         style="fill-rule:evenodd;stroke:#000000;stroke-width:0.036;stroke-miterlimit:10" />
      <path
         inkscape:connector-curvature="0"
         d="m 74.726,128.238 c 0.027,-0.486 0.069,-1.015 0.278,-1.584 0.181,-0.557 0.445,-1.154 0.792,-1.793 v 0 l 1.349,-0.973 v 0 c -0.583,0.542 -0.987,1.279 -1.418,2.21 -0.403,0.932 -0.75,2.002 -0.987,3.323 v 0 c -10e-4,-0.391 -10e-4,-0.78 -0.014,-1.183 z"
         id="path184"
         style="fill-rule:evenodd;stroke:#000000;stroke-width:0.036;stroke-miterlimit:10" />
      <path
         inkscape:connector-curvature="0"
         d="m 103.696,111.083 c 1.112,1.404 2.196,2.656 3.406,3.962 1.181,1.307 2.405,2.46 3.67,3.671 v 0 l 0.528,-0.668 v 0 c -1.015,-1.168 -2.155,-2.335 -3.42,-3.503 -1.278,-1.154 -2.654,-2.308 -4.184,-3.462 z"
         id="path186"
         style="fill-rule:evenodd;stroke:#000000;stroke-width:0.036;stroke-miterlimit:10" />
      <path
         inkscape:connector-curvature="0"
         d="m 104.085,75.773 c -0.333,-1.363 -0.333,-1.363 0,0 0.361,1.39 1.154,5.116 2.058,8.118 0.848,2.934 1.918,6.798 3.044,9.453 1.126,2.614 2.266,4.657 3.587,6.186 v 0 c -1.349,-2.321 -2.573,-4.935 -3.726,-7.951 -1.21,-3.086 -2.322,-7.438 -3.17,-10.106 -0.833,-2.656 -1.431,-4.518 -1.793,-5.7 z"
         id="path188"
         style="fill-rule:evenodd;stroke:#000000;stroke-width:0.036;stroke-miterlimit:10" />
      <path
         inkscape:connector-curvature="0"
         d="m 114.943,103.938 c -1.307,0.848 -2.294,2.419 -3.017,4.769 -0.751,2.321 -1.182,5.366 -1.349,9.189 v 0 l 0.529,-0.111 v 0 c 0.083,-3.475 0.445,-6.367 1.084,-8.675 0.64,-2.309 1.558,-4.032 2.753,-5.172 z"
         id="path190"
         style="fill-rule:evenodd;stroke:#000000;stroke-width:0.036;stroke-miterlimit:10" />
    </g>
  </g>
</svg>
