<?xml version="1.0" encoding="UTF-8" standalone="no"?>
<!DOCTYPE svg PUBLIC "-//W3C//DTD SVG 1.1//EN" "http://www.w3.org/Graphics/SVG/1.1/DTD/svg11.dtd">
<svg xmlns="http://www.w3.org/2000/svg" version="1.1" viewBox="0.00 0.00 1540.00 594.00">
<path fill="#000000" d="
  M 1010.83 107.27
  C 972.97 100.19 975.60 36.20 1013.95 32.66
  C 1035.84 30.64 1051.85 42.15 1053.48 64.27
  C 1055.41 90.56 1039.59 112.64 1010.83 107.27
  Z
  M 996.44 56.69
  C 992.58 67.46 992.94 82.61 1000.41 91.51
  C 1006.47 98.72 1017.17 100.69 1025.76 98.72
  C 1050.38 93.09 1050.98 43.22 1021.43 41.20
  C 1009.96 40.41 1000.38 45.69 996.44 56.69
  Z"
/>
<path fill="#000000" d="
  M 1075.30 64.00
  L 1111.43 64.00
  A 0.57 0.57 0.0 0 0 1112.00 63.43
  L 1112.00 34.82
  A 0.57 0.57 0.0 0 1 1112.57 34.25
  L 1121.18 34.25
  A 0.57 0.57 0.0 0 1 1121.75 34.82
  L 1121.75 105.43
  A 0.57 0.57 0.0 0 1 1121.18 106.00
  L 1112.57 106.00
  A 0.57 0.57 0.0 0 1 1112.00 105.43
  L 1112.00 73.05
  A 0.57 0.57 0.0 0 0 1111.43 72.48
  L 1075.30 72.51
  A 0.57 0.57 0.0 0 0 1074.73 73.08
  L 1074.76 105.43
  A 0.57 0.57 0.0 0 1 1074.19 106.00
  L 1065.32 106.00
  A 0.57 0.57 0.0 0 1 1064.75 105.43
  L 1064.75 34.82
  A 0.57 0.57 0.0 0 1 1065.32 34.25
  L 1074.19 34.25
  A 0.57 0.57 0.0 0 1 1074.76 34.82
  L 1074.73 63.43
  A 0.57 0.57 0.0 0 0 1075.30 64.00
  Z"
/>
<path fill="#000000" d="
  M 1147.00 284.29
  L 1147.00 427.72
  A 0.48 0.48 0.0 0 0 1147.24 428.14
  L 1268.76 497.86
  A 0.48 0.48 0.0 0 0 1269.24 497.86
  L 1392.76 426.15
  A 0.48 0.48 0.0 0 1 1393.24 426.15
  L 1519.62 498.77
  A 0.48 0.48 0.0 0 1 1519.81 499.41
  L 1517.22 504.54
  A 0.48 0.48 0.0 0 1 1516.55 504.73
  L 1393.24 433.14
  A 0.48 0.48 0.0 0 0 1392.76 433.14
  L 1269.24 504.86
  A 0.48 0.48 0.0 0 1 1268.76 504.86
  L 1144.23 433.15
  A 0.48 0.48 0.0 0 0 1143.75 433.15
  L 1019.25 504.87
  A 0.48 0.48 0.0 0 1 1018.77 504.87
  L 895.23 433.14
  A 0.48 0.48 0.0 0 0 894.75 433.14
  L 832.42 468.78
  A 0.48 0.48 0.0 0 1 831.77 468.61
  L 829.25 464.42
  A 0.48 0.48 0.0 0 1 829.43 463.76
  L 891.76 428.14
  A 0.48 0.48 0.0 0 0 892.00 427.72
  L 892.00 288.28
  A 0.48 0.48 0.0 0 0 891.76 287.86
  L 770.24 217.16
  A 0.48 0.48 0.0 0 0 769.76 217.16
  L 648.24 287.86
  A 0.48 0.48 0.0 0 0 648.00 288.28
  L 648.00 427.72
  A 0.48 0.48 0.0 0 0 648.24 428.14
  L 716.57 467.77
  A 0.48 0.48 0.0 0 1 716.74 468.43
  L 714.26 472.62
  A 0.48 0.48 0.0 0 1 713.61 472.79
  L 648.72 435.39
  A 0.48 0.48 0.0 0 0 648.00 435.81
  L 648.00 573.52
  A 0.48 0.48 0.0 0 1 647.52 574.00
  L 642.48 574.00
  A 0.48 0.48 0.0 0 1 642.00 573.52
  L 642.00 435.84
  A 0.48 0.48 0.0 0 0 641.28 435.43
  L 521.24 504.87
  A 0.48 0.48 0.0 0 1 520.76 504.87
  L 396.24 433.15
  A 0.48 0.48 0.0 0 0 395.76 433.15
  L 271.24 504.86
  A 0.48 0.48 0.0 0 1 270.76 504.86
  L 147.24 433.15
  A 0.48 0.48 0.0 0 0 146.76 433.15
  L 23.45 504.74
  A 0.48 0.48 0.0 0 1 22.78 504.54
  L 20.19 499.41
  A 0.48 0.48 0.0 0 1 20.38 498.77
  L 143.76 428.15
  A 0.48 0.48 0.0 0 0 144.00 427.73
  L 144.00 286.48
  A 0.48 0.48 0.0 0 1 144.48 286.00
  L 149.52 286.00
  A 0.48 0.48 0.0 0 1 150.00 286.48
  L 150.00 427.72
  A 0.48 0.48 0.0 0 0 150.24 428.14
  L 270.76 497.86
  A 0.48 0.48 0.0 0 0 271.24 497.86
  L 395.76 426.15
  A 0.48 0.48 0.0 0 1 396.24 426.15
  L 520.75 497.86
  A 0.48 0.48 0.0 0 0 521.23 497.86
  L 641.76 428.15
  A 0.48 0.48 0.0 0 0 642.00 427.73
  L 642.00 284.28
  A 0.48 0.48 0.0 0 1 642.24 283.86
  L 769.75 210.14
  A 0.48 0.48 0.0 0 1 770.23 210.14
  L 894.76 281.86
  A 0.48 0.48 0.0 0 0 895.24 281.86
  L 1015.76 212.15
  A 0.48 0.48 0.0 0 0 1016.00 211.73
  L 1016.00 123.48
  A 0.48 0.48 0.0 0 1 1016.48 123.00
  L 1021.52 123.00
  A 0.48 0.48 0.0 0 1 1022.00 123.48
  L 1022.00 211.72
  A 0.48 0.48 0.0 0 0 1022.24 212.14
  L 1146.76 283.87
  A 0.48 0.48 0.0 0 1 1147.00 284.29
  Z
  M 898.00 427.43
  A 1.00 1.00 0.0 0 0 898.50 428.30
  L 1018.49 497.71
  A 1.00 1.00 0.0 0 0 1019.49 497.71
  L 1140.50 428.29
  A 1.00 1.00 0.0 0 0 1141.00 427.42
  L 1141.00 288.59
  A 1.00 1.00 0.0 0 0 1140.50 287.72
  L 1019.50 217.30
  A 1.00 1.00 0.0 0 0 1018.49 217.31
  L 898.49 287.71
  A 1.00 1.00 0.0 0 0 898.00 288.57
  L 898.00 427.43
  Z"
/>
<path fill="#000000" d="
  M 670.05 298.55
  A 0.39 0.39 0.0 0 1 670.19 298.02
  L 766.51 241.73
  A 2.33 1.28 -30.3 0 1 769.17 241.66
  L 771.18 245.10
  A 2.33 1.28 -30.3 0 1 769.81 247.38
  L 673.49 303.67
  A 0.39 0.39 0.0 0 1 672.96 303.53
  L 670.05 298.55
  Z"
/>
<rect fill="#000000" x="-57.24" y="-3.13" transform="translate(1069.01,272.26) rotate(30.2)" width="114.48" height="6.26" rx="0.26"/>
<rect fill="#000000" x="918.00" y="301.00" width="6.00" height="114.00" rx="0.50"/>
<rect fill="#000000" x="-57.15" y="-3.35" transform="translate(221.99,443.50) rotate(29.9)" width="114.30" height="6.70" rx="0.66"/>
<rect fill="#000000" x="-57.14" y="-3.35" transform="translate(1069.01,443.50) rotate(-30.0)" width="114.28" height="6.70" rx="0.71"/>
<path fill="#000000" d="
  M 763.48 539.50
  C 724.23 535.25 725.91 467.71 765.08 464.62
  C 785.49 463.01 801.44 472.37 804.23 494.04
  C 807.65 520.62 793.01 542.70 763.48 539.50
  Z
  M 745.03 502.37
  C 744.70 519.75 754.64 533.32 773.26 531.20
  C 786.67 529.68 792.09 520.21 794.34 507.76
  C 797.10 492.50 790.21 474.70 773.20 473.19
  C 754.31 471.52 745.36 485.13 745.03 502.37
  Z"
/>
</svg>
