<?xml version="1.0" standalone="no" ?>
<!DOCTYPE svg PUBLIC "-//W3C//DTD SVG 1.1//EN" "http://www.w3.org/Graphics/SVG/1.1/DTD/svg11.dtd">
<svg width="131px" height="75px" viewBox="0 0 131 75" style="background-color: #ffffff00" xmlns="http://www.w3.org/2000/svg" xmlns:xlink="http://www.w3.org/1999/xlink" version="1.1" >
<text x="0" y="0" stroke="none" fill="#000000" transform="matrix(0.05 0 0 0.05 25.5039 70.9849)" font-style="normal" font-weight="normal" font-size="200px" font-family="Helvetica" >
O</text>
<path stroke="none" fill="#000000" transform="matrix(0.05 0 0 0.05 -212 -112)" d="M 4600.61,3393.82 L 4540.61,3393.82 L 4542.15,3381.78 L 4599.07,3381.78 L 4600.61,3393.82 Z " />
<path stroke="none" fill="#000000" transform="matrix(0.05 0 0 0.05 -212 -112)" d="M 4593.13,3335.28 L 4548.09,3335.28 L 4549.63,3323.25 L 4591.59,3323.25 L 4593.13,3335.28 Z " />
<path stroke="none" fill="#000000" transform="matrix(0.05 0 0 0.05 -212 -112)" d="M 4585.65,3276.75 L 4555.58,3276.75 L 4557.11,3264.72 L 4584.11,3264.72 L 4585.65,3276.75 Z " />
<path stroke="none" fill="#000000" transform="matrix(0.05 0 0 0.05 -212 -112)" d="M 4578.17,3218.22 L 4563.06,3218.22 L 4564.6,3206.18 L 4576.63,3206.18 L 4578.17,3218.22 Z " />
<path stroke="none" fill="#000000" transform="matrix(0.05 0 0 0.05 -212 -112)" d="M 4731.69,3530.04 L 4725.68,3540.46 L 4572.81,3452.2 L 4570.61,3443.98 L 4572.22,3437.97 L 4731.69,3530.04 Z " />
<path stroke="none" fill="#000000" transform="matrix(0.05 0 0 0.05 -212 -112)" d="M 5063.37,3440.51 L 5069.39,3443.98 L 5069.39,3450.93 L 4914.48,3540.36 L 4908.47,3529.95 L 5063.37,3440.51 Z " />
<path stroke="none" fill="#000000" transform="matrix(0.05 0 0 0.05 -212 -112)" d="M 5063.37,3188.23 L 5069.39,3156.02 L 5075.4,3159.49 L 5075.4,3440.51 L 5069.39,3443.98 L 5063.37,3440.51 L 5063.37,3188.23 Z " />
<path stroke="none" fill="#000000" transform="matrix(0.05 0 0 0.05 -212 -112)" d="M 5115.21,3185.94 L 5127.24,3185.94 L 5127.24,3414.06 L 5115.21,3414.06 L 5115.21,3185.94 Z " />
<path stroke="none" fill="#000000" transform="matrix(0.05 0 0 0.05 -212 -112)" d="M 4819.72,3019.14 L 4820,3012.03 L 4826.02,3008.24 L 5094.28,3134.7 L 5069.39,3156.02 L 5063.37,3188.23 L 4819.72,3019.14 Z " />
<path stroke="none" fill="#000000" transform="matrix(0.05 0 0 0.05 -212 -112)" d="M 4570.61,3162.96 L 4570.61,3149.07 L 4813.98,3008.56 L 4820,3012.03 L 4819.72,3019.14 L 4570.61,3162.96 Z " />
<path stroke="none" fill="#000000" transform="matrix(0.05 0 0 0.05 -212 -112)" d="M 5318.78,3581.02 L 5318.78,3594.91 L 5069.39,3450.93 L 5069.39,3443.98 L 5075.4,3440.51 L 5318.78,3581.02 Z " />
<path stroke="none" fill="#000000" transform="matrix(0.05 0 0 0.05 -212 -112)" d="M 5562.15,3440.51 L 5568.16,3443.98 L 5568.16,3450.93 L 5318.78,3594.91 L 5318.78,3581.02 L 5562.15,3440.51 Z " />
<path stroke="none" fill="#000000" transform="matrix(0.05 0 0 0.05 -212 -112)" d="M 5513.32,3408.85 L 5519.34,3419.27 L 5321.78,3533.33 L 5315.77,3522.91 L 5513.32,3408.85 Z " />
<path stroke="none" fill="#000000" transform="matrix(0.05 0 0 0.05 -212 -112)" d="M 5562.15,3159.49 L 5574.18,3152.54 L 5574.18,3440.51 L 5568.16,3443.98 L 5562.15,3440.51 L 5562.15,3159.49 Z " />
<path stroke="none" fill="#000000" transform="matrix(0.05 0 0 0.05 -212 -112)" d="M 5318.78,3018.98 L 5318.78,3012.03 L 5324.79,3008.56 L 5574.18,3152.54 L 5562.15,3159.49 L 5318.78,3018.98 Z " />
<path stroke="none" fill="#000000" transform="matrix(0.05 0 0 0.05 -212 -112)" d="M 5315.77,3077.09 L 5321.78,3066.67 L 5519.34,3180.73 L 5513.32,3191.15 L 5315.77,3077.09 Z " />
<path stroke="none" fill="#000000" transform="matrix(0.05 0 0 0.05 -212 -112)" d="M 5075.4,3159.49 L 5069.39,3156.02 L 5094.28,3134.7 L 5312.76,3008.56 L 5318.78,3012.03 L 5318.78,3018.98 L 5075.4,3159.49 Z " />
<text x="0" y="0" stroke="none" fill="#000000" transform="matrix(0.05 0 0 0.05 50.4427 27.7896)" font-style="normal" font-weight="normal" font-size="200px" font-family="Helvetica" >
OH</text>
<path stroke="none" fill="#000000" transform="matrix(0.05 0 0 0.05 -212 -112)" d="M 5312.76,2834.41 L 5324.79,2834.41 L 5324.79,3008.56 L 5318.78,3012.03 L 5312.76,3008.56 L 5312.76,2834.41 Z " />
<path stroke="none" fill="#000000" transform="matrix(0.05 0 0 0.05 -212 -112)" d="M 4813.98,2727.54 L 4826.02,2720.59 L 4826.02,3008.24 L 4820,3012.03 L 4813.98,3008.56 L 4813.98,2727.54 Z " />
<path stroke="none" fill="#000000" transform="matrix(0.05 0 0 0.05 -212 -112)" d="M 4570.61,2587.02 L 4570.61,2580.08 L 4576.63,2576.61 L 4826.02,2720.59 L 4813.98,2727.54 L 4570.61,2587.02 Z " />
<path stroke="none" fill="#000000" transform="matrix(0.05 0 0 0.05 -212 -112)" d="M 4327.24,2727.54 L 4315.21,2720.59 L 4564.6,2576.61 L 4570.61,2580.08 L 4570.61,2587.02 L 4327.24,2727.54 Z " />
<path stroke="none" fill="#000000" transform="matrix(0.05 0 0 0.05 -212 -112)" d="M 4376.07,2759.2 L 4370.05,2748.78 L 4567.6,2634.72 L 4573.62,2645.14 L 4376.07,2759.2 Z " />
<path stroke="none" fill="#000000" transform="matrix(0.05 0 0 0.05 -212 -112)" d="M 4327.24,3008.56 L 4315.21,3015.5 L 4315.21,2720.59 L 4327.24,2727.54 L 4327.24,3008.56 Z " />
<path stroke="none" fill="#000000" transform="matrix(0.05 0 0 0.05 -212 -112)" d="M 4570.61,3149.07 L 4570.61,3162.96 L 4315.21,3015.5 L 4327.24,3008.56 L 4570.61,3149.07 Z " />
<path stroke="none" fill="#000000" transform="matrix(0.05 0 0 0.05 -212 -112)" d="M 4282.64,3450 L 4282.64,3437.97 L 4572.22,3437.97 L 4570.61,3443.98 L 4560.19,3450 L 4282.64,3450 Z " />
<path stroke="none" fill="#000000" transform="matrix(0.05 0 0 0.05 -212 -112)" d="M 4431.84,3696.38 L 4421.42,3690.36 L 4560.19,3450 L 4570.61,3443.98 L 4572.81,3452.2 L 4431.84,3696.38 Z " />
<path stroke="none" fill="#000000" transform="matrix(0.05 0 0 0.05 -212 -112)" d="M 4564.6,2292.11 L 4576.63,2292.11 L 4576.63,2576.61 L 4570.61,2580.08 L 4564.6,2576.61 L 4564.6,2292.11 Z " />
<path stroke="none" fill="#000000" transform="matrix(0.05 0 0 0.05 -212 -112)" d="M 5817.55,3581.02 L 5817.55,3594.91 L 5568.16,3450.93 L 5568.16,3443.98 L 5574.18,3440.51 L 5817.55,3581.02 Z " />
<path stroke="none" fill="#000000" transform="matrix(0.05 0 0 0.05 -212 -112)" d="M 6066.94,3437.04 L 6066.94,3450.93 L 5817.55,3594.91 L 5817.55,3581.02 L 6066.94,3437.04 Z " />
<path stroke="none" fill="#000000" transform="matrix(0.05 0 0 0.05 -212 -112)" d="M 6316.33,3581.02 L 6316.33,3594.91 L 6066.94,3450.93 L 6066.94,3437.04 L 6316.33,3581.02 Z " />
<path stroke="none" fill="#000000" transform="matrix(0.05 0 0 0.05 -212 -112)" d="M 6565.72,3437.04 L 6565.72,3450.93 L 6316.33,3594.91 L 6316.33,3581.02 L 6565.72,3437.04 Z " />
<path stroke="none" fill="#000000" transform="matrix(0.05 0 0 0.05 -212 -112)" d="M 6818.11,3582.76 L 6812.1,3593.18 L 6565.72,3450.93 L 6565.72,3437.04 L 6818.11,3582.76 Z " />
</svg>
