<svg id="0" version="1.0" viewBox="0 0 1003.5296 551.75696" xmlns="http://www.w3.org/2000/svg" xmlns:svg="http://www.w3.org/2000/svg">
  <g id="1" transform="matrix(2.7691693,0,0,2.7691693,-919.10461,-450.12847)">
    <path d="m446.2,324.8,0-38.5" fill="none" id="2" stroke="#000" stroke-linecap="butt" stroke-linejoin="miter" stroke-miterlimit="4" stroke-width="0.80000001px" style="stroke-dasharray:none;"/>
    <path d="m447.05,325.5-0.85,0.5-0.85-0.5,0-39.9,0.85-0.5,0.85,0.5,0,39.9z" fill="#000" fill-rule="evenodd" id="3"/>
    <path d="m453.55,320.55,0-30" fill="none" id="4" stroke="#000" stroke-linecap="butt" stroke-linejoin="miter" stroke-miterlimit="4" stroke-width="0.80000001px" style="stroke-dasharray:none;"/>
    <path d="m452.7,289.35,0,32.4,1.7,0,0-32.4-1.7,0z" fill="#000" fill-rule="evenodd" id="5"/>
    <path d="m480.4,345.2-33-18" fill="none" id="6" stroke="#000" stroke-linecap="butt" stroke-linejoin="miter" stroke-miterlimit="4" stroke-width="0.80000001px" style="stroke-dasharray:none;"/>
    <path d="m481.6,345.45,0,1.95-35.4-20.45,0-0.95,0.85-0.5,34.55,19.95z" fill="#000" fill-rule="evenodd" id="7"/>
    <path d="m515.8,327.2-33,18" fill="none" id="8" stroke="#000" stroke-linecap="butt" stroke-linejoin="miter" stroke-miterlimit="4" stroke-width="0.80000001px" style="stroke-dasharray:none;"/>
    <path d="m516.15,325.5,0.85,0.5,0,0.95-35.4,20.45,0-1.95,34.55-19.95z" fill="#000" fill-rule="evenodd" id="9"/>
    <path d="M508.45,322.95,482.8,336.7" fill="none" id="10" stroke="#000" stroke-linecap="butt" stroke-linejoin="miter" stroke-miterlimit="4" stroke-width="0.80000001px" style="stroke-dasharray:none;"/>
    <path d="m509.2,321,0.85,1.45-28,16.2-0.85-1.45,28-16.2z" fill="#000" fill-rule="evenodd" id="11"/>
    <path d="m517,286.3,0,38.5" fill="none" id="12" stroke="#000" stroke-linecap="butt" stroke-linejoin="miter" stroke-miterlimit="4" stroke-width="0.80000001px" style="stroke-dasharray:none;"/>
    <path d="m516.15,285.6,1.7-0.95,0,40.85-0.85,0.5-0.85-0.5,0-39.9z" fill="#000" fill-rule="evenodd" id="13"/>
    <path d="m482.8,265.9,33,18" fill="none" id="14" stroke="#000" stroke-linecap="butt" stroke-linejoin="miter" stroke-miterlimit="4" stroke-width="0.80000001px" style="stroke-dasharray:none;"/>
    <path d="m481.6,265.65,0-0.95,0.85-0.5,35.4,20.45-1.7,0.95-34.55-19.95z" fill="#000" fill-rule="evenodd" id="15"/>
    <path d="m482.8,274.4,25.65,13.75" fill="none" id="16" stroke="#000" stroke-linecap="butt" stroke-linejoin="miter" stroke-miterlimit="4" stroke-width="0.80000001px" style="stroke-dasharray:none;"/>
    <path d="m481.2,273.9,0.85-1.45,28,16.2-0.85,1.45-28-16.2z" fill="#000" fill-rule="evenodd" id="17"/>
    <path d="m447.4,283.9,33-18" fill="none" id="18" stroke="#000" stroke-linecap="butt" stroke-linejoin="miter" stroke-miterlimit="4" stroke-width="0.80000001px" style="stroke-dasharray:none;"/>
    <path d="m447.05,285.6-0.85-0.5,0-0.95,34.55-19.95,0.85,0.5,0,0.95-34.55,19.95z" fill="#000" fill-rule="evenodd" id="19"/>
    <path d="m551.2,345.2-33-18" fill="none" id="20" stroke="#000" stroke-linecap="butt" stroke-linejoin="miter" stroke-miterlimit="4" stroke-width="0.80000001px" style="stroke-dasharray:none;"/>
    <path d="m552.4,345.45,0,1.95-35.4-20.45,0-0.95,0.85-0.5,34.55,19.95z" fill="#000" fill-rule="evenodd" id="21"/>
    <path d="m586.55,327.2-32.95,18" fill="none" id="22" stroke="#000" stroke-linecap="butt" stroke-linejoin="miter" stroke-miterlimit="4" stroke-width="0.80000001px" style="stroke-dasharray:none;"/>
    <path d="m587.75,325,0,1.95-35.35,20.45,0-1.95,35.35-20.45z" fill="#000" fill-rule="evenodd" id="23"/>
    <path d="m621.95,345.2-33-18" fill="none" id="24" stroke="#000" stroke-linecap="butt" stroke-linejoin="miter" stroke-miterlimit="4" stroke-width="0.80000001px" style="stroke-dasharray:none;"/>
    <path d="m623.15,345.45,0,1.95-35.4-20.45,0-1.95,35.4,20.45z" fill="#000" fill-rule="evenodd" id="25"/>
    <path d="m657.3,327.2-32.95,18" fill="none" id="26" stroke="#000" stroke-linecap="butt" stroke-linejoin="miter" stroke-miterlimit="4" stroke-width="0.80000001px" style="stroke-dasharray:none;"/>
    <path d="m658.5,325,0,1.95-35.35,20.45,0-1.95l35.35-20.45z" fill="#000" fill-rule="evenodd" id="27"/>
    <path d="m692.7,345.2-33-18" fill="none" id="28" stroke="#000" stroke-linecap="butt" stroke-linejoin="miter" stroke-miterlimit="4" stroke-width="0.80000001px" style="stroke-dasharray:none;"/>
    <path d="m694.3,345.65-0.85,1.5-34.95-20.2,0-1.95,35.8,20.65z" fill="#000" fill-rule="evenodd" id="29"/>
    <text fill="#000000" font-family="Arial" font-size="28.79999924px" font-style="normal" font-weight="normal" id="30" style="text-anchor:start;text-align:start;" x="470.39999" xml:space="preserve" y="234.39999">O</text>
    <text fill="#000000" font-family="Arial" font-size="28.79999924px" font-style="normal" font-weight="normal" id="31" style="text-anchor:start;text-align:start;" x="492.79999" xml:space="preserve" y="234.39999">H</text>
    <path d="m481.6,240.85,0,22.65" fill="none" id="32" stroke="#000" stroke-linecap="butt" stroke-linejoin="miter" stroke-miterlimit="4" stroke-width="0.80000001px" style="stroke-dasharray:none;"/>
    <path d="m480.75,239.65,1.7,0,0,24.55-0.85,0.5-0.85-0.5,0-24.55z" fill="#000" fill-rule="evenodd" id="33"/>
    <text fill="#000000" font-family="Arial" font-size="28.79999924px" font-style="normal" font-weight="normal" id="34" style="text-anchor:start;text-align:start;" x="400" xml:space="preserve" y="357.60001">O</text>
    <path d="m412,265.9,33,18" fill="none" id="35" stroke="#000" stroke-linecap="butt" stroke-linejoin="miter" stroke-miterlimit="4" stroke-width="0.80000001px" style="stroke-dasharray:none;"/>
    <path d="m410.8,265.65,0-0.95,0.85-0.5,34.55,19.95,0,0.95-0.85,0.5-34.55-19.95z" fill="#000" fill-rule="evenodd" id="36"/>
    <path d="m376.65,283.9,32.95-18" fill="none" id="37" stroke="#000" stroke-linecap="butt" stroke-linejoin="miter" stroke-miterlimit="4" stroke-width="0.80000001px" style="stroke-dasharray:none;"/>
    <path d="m376.3,285.6-0.85-0.5,0-0.95,34.5-19.95,0.85,0.5,0,0.95-34.5,19.95z" fill="#000" fill-rule="evenodd" id="38"/>
    <path d="m375.45,324.8,0-38.5" fill="none" id="39" stroke="#000" stroke-linecap="butt" stroke-linejoin="miter" stroke-miterlimit="4" stroke-width="0.80000001px" style="stroke-dasharray:none;"/>
    <path d="m376.3,325.5-0.85,0.5-0.85-0.85,0-38.4,0.85-1.65,0.85,0.5,0,39.9z" fill="#000" fill-rule="evenodd" id="40"/>
    <path d="m396.45,337.6-19.8-10.4" fill="none" id="41" stroke="#000" stroke-linecap="butt" stroke-linejoin="miter" stroke-miterlimit="4" stroke-width="0.80000001px" style="stroke-dasharray:none;"/>
    <path d="m398.05,338.05-0.85,1.5-21.45-12.4-0.3-1.15,0.85-0.5,21.75,12.55z" fill="#000" fill-rule="evenodd" id="42"/>
    <path d="m445,327.2-20.55,10.85" fill="none" id="43" stroke="#000" stroke-linecap="butt" stroke-linejoin="miter" stroke-miterlimit="4" stroke-width="0.80000001px" style="stroke-dasharray:none;"/>
    <path d="m445.35,325.5,0.85,0.5,0,0.95-22.55,13.05-0.85-1.5,22.55-13z" fill="#000" fill-rule="evenodd" id="44"/>
    <path d="m410.8,225,0,38.5" fill="none" id="45" stroke="#000" stroke-linecap="butt" stroke-linejoin="miter" stroke-miterlimit="4" stroke-width="0.80000001px" style="stroke-dasharray:none;"/>
    <path d="m409.95,224.3,1.7-0.95,0,40.85-0.85,0.5-0.85-0.5,0-39.9z" fill="#000" fill-rule="evenodd" id="46"/>
    <path d="m376.65,204.6,32.95,18" fill="none" id="47" stroke="#000" stroke-linecap="butt" stroke-linejoin="miter" stroke-miterlimit="4" stroke-width="0.80000001px" style="stroke-dasharray:none;"/>
    <path d="m375.45,204.35,0-0.95,0.85-0.5,35.35,20.45-1.7,0.95-34.5-19.95z" fill="#000" fill-rule="evenodd" id="48"/>
    <path d="m376.65,213.1,25.6,13.75" fill="none" id="49" stroke="#000" stroke-linecap="butt" stroke-linejoin="miter" stroke-miterlimit="4" stroke-width="0.80000001px" style="stroke-dasharray:none;"/>
    <path d="m375,212.6,0.85-1.45,28.05,16.2-0.85,1.45l-28.05-16.20z" fill="#000" fill-rule="evenodd" id="50"/>
    <path d="m341.25,222.6,33-18" fill="none" id="51" stroke="#000" stroke-linecap="butt" stroke-linejoin="miter" stroke-miterlimit="4" stroke-width="0.80000001px" style="stroke-dasharray:none;"/>
    <path d="m340.9,224.3-1.7-0.95,35.4-20.45,0.85,0.5,0,0.95-34.55,19.95z" fill="#000" fill-rule="evenodd" id="52"/>
    <path d="m340.05,263.5,0-38.5" fill="none" id="53" stroke="#000" stroke-linecap="butt" stroke-linejoin="miter" stroke-miterlimit="4" stroke-width="0.80000001px" style="stroke-dasharray:none;"/>
    <path d="m340.9,264.2-1.7,0.95,0-41.8,1.7,0.95,0,39.9z" fill="#000" fill-rule="evenodd" id="54"/>
    <path d="m374.25,283.9-33-18" fill="none" id="55" stroke="#000" stroke-linecap="butt" stroke-linejoin="miter" stroke-miterlimit="4" stroke-width="0.80000001px" style="stroke-dasharray:none;"/>
    <path d="m375.45,284.15,0,0.95-1.85-0.05-34.4-19.9,1.7-0.95,34.55,19.95z" fill="#000" fill-rule="evenodd" id="56"/>
    <path d="m375.45,163.75,0,38.45" fill="none" id="57" stroke="#000" stroke-linecap="butt" stroke-linejoin="miter" stroke-miterlimit="4" stroke-width="0.80000001px" style="stroke-dasharray:none;"/>
    <path d="m374.6,162.55,1.7,0,0,40.35-0.85,0.5-0.85-0.5,0-40.35z" fill="#000" fill-rule="evenodd" id="58"/>
    <path d="m335.75,326,38.5,0" fill="none" id="59" stroke="#000" stroke-linecap="butt" stroke-linejoin="miter" stroke-miterlimit="4" stroke-width="0.80000001px" style="stroke-dasharray:none;"/>
    <path d="m334.55,326.85,0-1.7,40.05,0,0.85,0.85-1.5,0.85-39.4,0z" fill="#000" fill-rule="evenodd" id="60"/>
    <path d="M356.2,360.15,374.25,327.2" fill="none" id="61" stroke="#000" stroke-linecap="butt" stroke-linejoin="miter" stroke-miterlimit="4" stroke-width="0.80000001px" style="stroke-dasharray:none;"/>
    <path d="m355.75,361.8-1.5-0.85,19.7-34.1,1.5-0.85,0.3,1.15-20,34.65z" fill="#000" fill-rule="evenodd" id="62"/>
    <text fill="#000000" font-family="Arial" font-size="28.79999924px" font-style="normal" font-weight="normal" id="63" style="text-anchor:start;text-align:start;" x="329.60001" xml:space="preserve" y="316">H</text>
    <path d="m354.7,296.6,19.55-10.3" fill="none" id="64" stroke="#000" stroke-linecap="butt" stroke-linejoin="miter" stroke-miterlimit="4" stroke-width="0.80000001px" style="stroke-dasharray:none;"/>
    <path d="m355.6,301.45-4.25-7.35,22.15-9.1,1.95,0.1-0.85,1.75-19,14.6z" fill="#000" fill-rule="evenodd" id="65"/>
    <text fill="#000000" font-family="Arial" font-size="28.79999924px" font-style="normal" font-weight="normal" id="66" style="text-anchor:start;text-align:start;" x="436" xml:space="preserve" y="255.2">H</text>
    <path d="m430.9,255.9-1.65-4.65" fill="none" id="67" stroke="#000" stroke-linecap="butt" stroke-linejoin="miter" stroke-miterlimit="4" stroke-width="0.80000001px" style="stroke-dasharray:none;"/>
    <path d="m428.7,249.45,4.25,7.4-1.65,0.5-3.9-6.7,1.3-1.2z" fill="#000" fill-rule="evenodd" id="68"/>
    <path d="m423.95,258.15-0.15-2" fill="none" id="69" stroke="#000" stroke-linecap="butt" stroke-linejoin="miter" stroke-miterlimit="4" stroke-width="0.80000001px" style="stroke-dasharray:none;"/>
    <path d="m423.25,254.35,2.75,4.75-1.65,0.5-2.4-4.1,1.3-1.15z" fill="#000" fill-rule="evenodd" id="70"/>
    <path d="m417.05,260.4,1.35,0.6" fill="none" id="71" stroke="#000" stroke-linecap="butt" stroke-linejoin="miter" stroke-miterlimit="4" stroke-width="0.80000001px" style="stroke-dasharray:none;"/>
    <path d="m417.85,259.25,1.2,2.1-1.65,0.5-0.85-1.45,1.3-1.15z" fill="#000" fill-rule="evenodd" id="72"/>
  </g>
</svg>