<?xml version="1.0" encoding="UTF-8" standalone="no"?>
<svg
   xmlns:dc="http://purl.org/dc/elements/1.1/"
   xmlns:cc="http://creativecommons.org/ns#"
   xmlns:rdf="http://www.w3.org/1999/02/22-rdf-syntax-ns#"
   xmlns:svg="http://www.w3.org/2000/svg"
   xmlns="http://www.w3.org/2000/svg"
   xmlns:sodipodi="http://sodipodi.sourceforge.net/DTD/sodipodi-0.dtd"
   xmlns:inkscape="http://www.inkscape.org/namespaces/inkscape"
   viewBox="85.94 130.25 103.38 71.54"
   preserveAspectRatio="xMidYMid"
   width="100%"
   height="100%"
   id="svg3285"
   version="1.1"
   inkscape:version="0.48.1 "
   sodipodi:docname="d.svg">
  <metadata
     id="metadata3433">
    <rdf:RDF>
      <cc:Work
         rdf:about="">
        <dc:format>image/svg+xml</dc:format>
        <dc:type
           rdf:resource="http://purl.org/dc/dcmitype/StillImage" />
      </cc:Work>
    </rdf:RDF>
  </metadata>
  <defs
     id="defs3431" />
  <sodipodi:namedview
     pagecolor="#ffffff"
     bordercolor="#666666"
     borderopacity="1"
     objecttolerance="10"
     gridtolerance="10"
     guidetolerance="10"
     inkscape:pageopacity="0"
     inkscape:pageshadow="2"
     inkscape:window-width="640"
     inkscape:window-height="480"
     id="namedview3429"
     showgrid="false"
     inkscape:zoom="3.6063741"
     inkscape:cx="51.69"
     inkscape:cy="35.77"
     inkscape:window-x="0"
     inkscape:window-y="0"
     inkscape:window-maximized="0"
     inkscape:current-layer="svg3285" />
  <clipPath
     id="68">
    <rect
       x="0.3"
       y="0.3"
       width="539.4"
       height="719.15"
       id="rect3288" />
  </clipPath>
  <g
     id="drawing"
     transform="matrix(0.95348837,0,0,0.95348837,5.9972096,8.0581398)">
    <path
       style="fill:#ffffff;fill-opacity:0"
       d="m 85.940002,130.25 103.379998,0 0,71.54 -103.379998,0 z"
       id="rect3291"
       inkscape:connector-curvature="0" />
    <g
       id="page"
       clip-path="url(#68)">
      <g
         id="Solid">
        <path
           d="m 89.23,151.63 0,0 0.3,0.17 0.3,0.17 0,14.06 -0.3,0.17 -0.3,0.17 z"
           shape-rendering="geometricPrecision"
           id="path3295"
           inkscape:connector-curvature="0"
           style="fill:#000000;fill-rule:evenodd;stroke:#000000;stroke-width:0;stroke-linejoin:miter" />
      </g>
      <g
         id="g3297">
        <path
           d="m 89.23,166.37 0,0 0.3,-0.17 0.3,-0.17 12.17,7.02 0,0.35 -0.65,-0.03 z"
           shape-rendering="geometricPrecision"
           id="path3299"
           inkscape:connector-curvature="0"
           style="fill:#000000;fill-rule:evenodd;stroke:#000000;stroke-width:0;stroke-linejoin:miter" />
      </g>
      <g
         id="g3301">
        <path
           d="m 102.3,173.57 0,0 -0.3,-0.17 0,-0.35 12.17,-7.02 0.3,0.17 0,0.35 z"
           shape-rendering="geometricPrecision"
           id="path3303"
           inkscape:connector-curvature="0"
           style="fill:#000000;fill-rule:evenodd;stroke:#000000;stroke-width:0;stroke-linejoin:miter" />
      </g>
      <g
         id="g3305">
        <path
           d="m 114.77,166.03 0,0 -0.3,0.17 -0.3,-0.17 0,-14.06 0.3,-0.17 0.3,-0.17 z"
           shape-rendering="geometricPrecision"
           id="path3307"
           inkscape:connector-curvature="0"
           style="fill:#000000;fill-rule:evenodd;stroke:#000000;stroke-width:0;stroke-linejoin:miter" />
      </g>
      <g
         id="g3309">
        <path
           d="m 114.77,151.63 0,0 -0.3,0.17 -0.3,0.17 -12.17,-7.02 0,-0.35 0.3,-0.17 z"
           shape-rendering="geometricPrecision"
           id="path3311"
           inkscape:connector-curvature="0"
           style="fill:#000000;fill-rule:evenodd;stroke:#000000;stroke-width:0;stroke-linejoin:miter" />
        <path
           style="stroke:#000000;stroke-width:0.60000002"
           d="M 111.88,153.3 102,147.59"
           id="line3313"
           inkscape:connector-curvature="0" />
      </g>
      <g
         id="g3315">
        <path
           d="m 101.7,144.43 0,0 0.3,0.17 0,0.35 -12.17,7.02 -0.3,-0.17 -0.3,-0.17 z"
           shape-rendering="geometricPrecision"
           id="path3317"
           inkscape:connector-curvature="0"
           style="fill:#000000;fill-rule:evenodd;stroke:#000000;stroke-width:0;stroke-linejoin:miter" />
      </g>
      <g
         id="g3319">
        <g
           style="text-anchor:start"
           id="text3321">
          <path
             d="m 111.0434,195.18367 c 0,-1.18815 0.31901,-2.11832 0.95703,-2.79053 0.63802,-0.67219 1.46158,-1.00829 2.4707,-1.0083 0.6608,1e-5 1.25651,0.15789 1.78711,0.47363 0.53059,0.31577 0.93505,0.75603 1.21338,1.32081 0.27831,0.56478 0.41747,1.20524 0.41748,1.92138 -1e-5,0.72592 -0.14649,1.37533 -0.43945,1.94824 -0.29298,0.57292 -0.70802,1.00668 -1.24512,1.30127 -0.53712,0.2946 -1.11654,0.4419 -1.73828,0.4419 -0.67383,0 -1.27605,-0.16276 -1.80664,-0.48828 -0.5306,-0.32552 -0.93262,-0.76986 -1.20606,-1.33301 -0.27344,-0.56315 -0.41015,-1.15885 -0.41015,-1.78711 z m 0.97656,0.0146 c 0,0.86263 0.23193,1.54216 0.6958,2.03857 0.46386,0.49642 1.04573,0.74463 1.7456,0.74463 0.71289,0 1.29964,-0.25065 1.76026,-0.75195 0.4606,-0.5013 0.69091,-1.21256 0.69092,-2.13379 -1e-5,-0.58268 -0.0985,-1.0913 -0.29541,-1.52588 -0.19695,-0.43456 -0.48504,-0.77148 -0.86426,-1.01074 -0.37924,-0.23925 -0.80486,-0.35888 -1.27686,-0.35889 -0.67057,1e-5 -1.24756,0.23031 -1.73095,0.69092 -0.4834,0.46062 -0.7251,1.22966 -0.7251,2.30713 z"
             style="font-size:10px;fill:#000000;font-family:Arial"
             id="path3438"
             inkscape:connector-curvature="0" />
        </g>
      </g>
      <g
         id="g3325">
        <path
           d="m 101.7,173.97 0,0 0.3,-0.57 0.3,0.17 0,14.06 -0.3,0.17 -0.3,-0.23 z"
           shape-rendering="geometricPrecision"
           id="path3327"
           inkscape:connector-curvature="0"
           style="fill:#000000;fill-rule:evenodd;stroke:#000000;stroke-width:0;stroke-linejoin:miter" />
      </g>
      <g
         id="g3329">
        <path
           d="m 102.19,188.26 0,0 -0.19,-0.46 0.3,-0.17 7.86,4.54 -0.15,0.26 -0.15,0.26 z"
           shape-rendering="geometricPrecision"
           id="path3331"
           inkscape:connector-curvature="0"
           style="fill:#000000;fill-rule:evenodd;stroke:#000000;stroke-width:0;stroke-linejoin:miter" />
      </g>
      <g
         id="g3333">
        <path
           d="m 119.24,192.59 0,0 -0.15,-0.25 -0.15,-0.26 7.7,-4.45 0.3,0.17 0,0.35 z"
           shape-rendering="geometricPrecision"
           id="path3335"
           inkscape:connector-curvature="0"
           style="fill:#000000;fill-rule:evenodd;stroke:#000000;stroke-width:0;stroke-linejoin:miter" />
      </g>
      <g
         id="g3337">
        <path
           d="m 127.24,187.63 0,0 -0.3,0.17 -0.3,-0.17 0,-14.06 0.3,-0.17 0.3,0.17 z"
           shape-rendering="geometricPrecision"
           id="path3339"
           inkscape:connector-curvature="0"
           style="fill:#000000;fill-rule:evenodd;stroke:#000000;stroke-width:0;stroke-linejoin:miter" />
        <path
           style="stroke:#000000;stroke-width:0.60000002"
           d="m 129.53,186.3 0,-11.40001"
           id="line3341"
           inkscape:connector-curvature="0" />
      </g>
      <g
         id="g3343">
        <path
           d="m 126.94,173.05 0,0 0,0.35 -0.3,0.17 -12.17,-7.02 0,-0.35 0.3,-0.17 z"
           shape-rendering="geometricPrecision"
           id="path3345"
           inkscape:connector-curvature="0"
           style="fill:#000000;fill-rule:evenodd;stroke:#000000;stroke-width:0;stroke-linejoin:miter" />
      </g>
      <g
         id="g3347">
        <path
           d="m 126.94,188.15 0,0 0,-0.35 0.3,-0.17 12.17,7.02 0,0.35 0,0.35 z"
           shape-rendering="geometricPrecision"
           id="path3349"
           inkscape:connector-curvature="0"
           style="fill:#000000;fill-rule:evenodd;stroke:#000000;stroke-width:0;stroke-linejoin:miter" />
      </g>
      <g
         id="g3351">
        <path
           d="m 139.41,195.35 0,0 0,-0.35 0,-0.35 12.17,-7.02 0.3,0.17 0,0.35 z"
           shape-rendering="geometricPrecision"
           id="path3353"
           inkscape:connector-curvature="0"
           style="fill:#000000;fill-rule:evenodd;stroke:#000000;stroke-width:0;stroke-linejoin:miter" />
        <path
           style="stroke:#000000;stroke-width:0.60000002"
           d="M 139.41,192.00999 149.28999,186.3"
           id="line3355"
           inkscape:connector-curvature="0" />
      </g>
      <g
         id="g3357">
        <path
           d="m 152.18,187.63 0,0 -0.3,0.17 -0.3,-0.17 0,-14.06 0.3,-0.17 0.3,-0.17 z"
           shape-rendering="geometricPrecision"
           id="path3359"
           inkscape:connector-curvature="0"
           style="fill:#000000;fill-rule:evenodd;stroke:#000000;stroke-width:0;stroke-linejoin:miter" />
      </g>
      <g
         id="g3361">
        <path
           d="m 152.18,173.23 0,0 -0.3,0.17 -0.3,0.17 -12.17,-7.02 0,-0.35 0.3,-0.17 z"
           shape-rendering="geometricPrecision"
           id="path3363"
           inkscape:connector-curvature="0"
           style="fill:#000000;fill-rule:evenodd;stroke:#000000;stroke-width:0;stroke-linejoin:miter" />
        <path
           style="stroke:#000000;stroke-width:0.60000002"
           d="M 149.28999,174.89999 139.41,169.19"
           id="line3365"
           inkscape:connector-curvature="0" />
      </g>
      <g
         id="g3367">
        <path
           d="m 139.11,166.03 0,0 0.3,0.17 0,0.35 -12.17,7.02 -0.3,-0.17 0,-0.35 z"
           shape-rendering="geometricPrecision"
           id="path3369"
           inkscape:connector-curvature="0"
           style="fill:#000000;fill-rule:evenodd;stroke:#000000;stroke-width:0;stroke-linejoin:miter" />
      </g>
      <g
         id="g3371">
        <path
           d="m 101.58,188.22 0,0 0.42,-0.42 0.19,0.46 -3.63,13.53 -0.29,-0.08 -0.29,-0.08 z"
           shape-rendering="geometricPrecision"
           id="path3373"
           inkscape:connector-curvature="0"
           style="fill:#000000;fill-rule:evenodd;stroke:#000000;stroke-width:0;stroke-linejoin:miter" />
      </g>
      <g
         id="g3375">
        <path
           d="m 101.7,187.57 0,0 0.3,0.23 -0.42,0.42 -13.41,3.6 -0.08,-0.29 -0.08,-0.29 z"
           shape-rendering="geometricPrecision"
           id="path3377"
           inkscape:connector-curvature="0"
           style="fill:#000000;fill-rule:evenodd;stroke:#000000;stroke-width:0;stroke-linejoin:miter" />
      </g>
      <g
         id="g3379">
        <g
           style="text-anchor:start"
           id="text3381">
          <path
             d="m 135.99339,152.03368 c 0,-1.18815 0.31901,-2.11833 0.95703,-2.79053 0.63802,-0.67219 1.46159,-1.00829 2.47071,-1.0083 0.6608,1e-5 1.2565,0.15788 1.78711,0.47363 0.53059,0.31576 0.93505,0.75603 1.21338,1.3208 0.27831,0.56479 0.41747,1.20525 0.41748,1.92139 -1e-5,0.72591 -0.1465,1.37533 -0.43946,1.94824 -0.29297,0.57292 -0.70801,1.00667 -1.24511,1.30127 -0.53712,0.2946 -1.11655,0.44189 -1.73829,0.44189 -0.67383,0 -1.27604,-0.16276 -1.80664,-0.48828 -0.5306,-0.32552 -0.93261,-0.76985 -1.20605,-1.333 -0.27344,-0.56315 -0.41016,-1.15886 -0.41016,-1.78711 z m 0.97657,0.0146 c -10e-6,0.86264 0.23193,1.54216 0.6958,2.03858 0.46386,0.49642 1.04573,0.74463 1.7456,0.74463 0.71289,0 1.29964,-0.25065 1.76026,-0.75196 0.4606,-0.5013 0.69091,-1.21256 0.69091,-2.13378 0,-0.58268 -0.0985,-1.09131 -0.29541,-1.52588 -0.19694,-0.43457 -0.48503,-0.77148 -0.86425,-1.01075 -0.37924,-0.23925 -0.80486,-0.35888 -1.27686,-0.35888 -0.67058,0 -1.24756,0.23031 -1.73096,0.69092 -0.4834,0.46061 -0.7251,1.22966 -0.72509,2.30712 z"
             style="font-size:10px;fill:#000000;font-family:Arial"
             id="path3444"
             inkscape:connector-curvature="0" />
          <path
             d="m 144.08421,155.52 0,-7.1582 0.94727,0 0,2.93945 3.7207,0 0,-2.93945 0.94727,0 0,7.1582 -0.94727,0 0,-3.37402 -3.7207,0 0,3.37402 z"
             style="font-size:10px;fill:#000000;font-family:Arial"
             id="path3446"
             inkscape:connector-curvature="0" />
        </g>
      </g>
      <g
         id="g3385">
        <path
           d="m 139.71,166.03 0,0 -0.3,0.17 -0.3,-0.17 0,-8.73 0.3,0 0.3,0 z"
           shape-rendering="geometricPrecision"
           id="path3387"
           inkscape:connector-curvature="0"
           style="fill:#000000;fill-rule:evenodd;stroke:#000000;stroke-width:0;stroke-linejoin:miter" />
      </g>
      <g
         id="g3389">
        <path
           d="m 151.88,188.15 0,0 0,-0.35 0.3,-0.17 12.13,6.99 0,0.35 0,0.35 z"
           shape-rendering="geometricPrecision"
           id="path3391"
           inkscape:connector-curvature="0"
           style="fill:#000000;fill-rule:evenodd;stroke:#000000;stroke-width:0;stroke-linejoin:miter" />
      </g>
      <g
         id="g3393">
        <path
           d="m 164.31,195.32 0,0 0,-0.35 0,-0.35 12.43,-7.17 0,0.35 0,0.35 z"
           shape-rendering="geometricPrecision"
           id="path3395"
           inkscape:connector-curvature="0"
           style="fill:#000000;fill-rule:evenodd;stroke:#000000;stroke-width:0;stroke-linejoin:miter" />
      </g>
      <g
         id="g3397">
        <path
           d="m 176.74,188.15 0,0 0,-0.35 0,-0.35 12.58,7.26 -0.15,0.26 -0.15,0.26 z"
           shape-rendering="geometricPrecision"
           id="path3399"
           inkscape:connector-curvature="0"
           style="fill:#000000;fill-rule:evenodd;stroke:#000000;stroke-width:0;stroke-linejoin:miter" />
      </g>
      <g
         id="g3401">
        <path
           d="m 102.3,144.43 0,0 -0.3,0.17 -0.3,-0.17 0,-14.18 0.3,0 0.3,0 z"
           shape-rendering="geometricPrecision"
           id="path3403"
           inkscape:connector-curvature="0"
           style="fill:#000000;fill-rule:evenodd;stroke:#000000;stroke-width:0;stroke-linejoin:miter" />
      </g>
      <g
         id="g3405">
        <g
           style="text-anchor:start"
           id="text3407">
          <path
             d="m 86.740784,184.17 0,-7.1582 0.947265,0 0,2.93945 3.720703,0 0,-2.93945 0.947266,0 0,7.1582 -0.947266,0 0,-3.37403 -3.720703,0 0,3.37403 z"
             style="font-size:10px;fill:#000000;font-family:Arial"
             id="path3449"
             inkscape:connector-curvature="0" />
        </g>
      </g>
      <g
         id="WedgeBegin">
        <path
           d="m 101.35,173.37 0,0 0.65,0.03 -0.3,0.57 -7.16,5.47 -0.75,-1.3 -0.75,-1.3 z"
           shape-rendering="geometricPrecision"
           id="path3412"
           inkscape:connector-curvature="0"
           style="fill:#000000;fill-rule:evenodd;stroke:#000000;stroke-width:0;stroke-linejoin:miter" />
      </g>
      <g
         id="g3414">
        <g
           style="text-anchor:start"
           id="text3416">
          <path
             d="m 124.15078,162.57001 0,-7.15821 0.94727,0 0,2.93946 3.7207,0 0,-2.93946 0.94726,0 0,7.15821 -0.94726,0 0,-3.37403 -3.7207,0 0,3.37403 z"
             style="font-size:10px;fill:#000000;font-family:Arial"
             id="path3452"
             inkscape:connector-curvature="0" />
        </g>
      </g>
      <g
         id="Wedged Hash Begin Bond">
        <path
           d="m 114.62,166.46 0,0 -0.3,-0.52 0.48,-0.36 0.38,0.64 z"
           shape-rendering="geometricPrecision"
           id="path3421"
           inkscape:connector-curvature="0"
           style="fill:#000000;fill-rule:evenodd;stroke:#000000;stroke-width:0;stroke-linejoin:miter" />
        <path
           d="m 117.42,165.28 0,0 -0.68,-1.17 0.48,-0.37 0.75,1.3 z"
           shape-rendering="geometricPrecision"
           id="path3423"
           inkscape:connector-curvature="0"
           style="fill:#000000;fill-rule:evenodd;stroke:#000000;stroke-width:0;stroke-linejoin:miter" />
        <path
           d="m 120.21,164.1 0,0 -1.05,-1.82 0.48,-0.37 1.13,1.95 z"
           shape-rendering="geometricPrecision"
           id="path3425"
           inkscape:connector-curvature="0"
           style="fill:#000000;fill-rule:evenodd;stroke:#000000;stroke-width:0;stroke-linejoin:miter" />
        <path
           d="m 123.01,162.92 0,0 -1.43,-2.47 0.48,-0.37 1.5,2.6 z"
           shape-rendering="geometricPrecision"
           id="path3427"
           inkscape:connector-curvature="0"
           style="fill:#000000;fill-rule:evenodd;stroke:#000000;stroke-width:0;stroke-linejoin:miter" />
      </g>
    </g>
  </g>
</svg>
