<?xml version="1.0" encoding="UTF-8" standalone="no"?>
<svg
   xmlns:dc="http://purl.org/dc/elements/1.1/"
   xmlns:cc="http://creativecommons.org/ns#"
   xmlns:rdf="http://www.w3.org/1999/02/22-rdf-syntax-ns#"
   xmlns:svg="http://www.w3.org/2000/svg"
   xmlns="http://www.w3.org/2000/svg"
   xmlns:sodipodi="http://sodipodi.sourceforge.net/DTD/sodipodi-0.dtd"
   xmlns:inkscape="http://www.inkscape.org/namespaces/inkscape"
   version="1.1"
   id="svg2"
   xml:space="preserve"
   width="459.4762"
   height="399.88959"
   viewBox="0 0 459.4762 399.88959"
   sodipodi:docname="lab_scientist_2.svg"
   inkscape:version="1.0.1 (3bc2e813f5, 2020-09-07)"><metadata
     id="metadata8"><rdf:RDF><cc:Work
         rdf:about=""><dc:format>image/svg+xml</dc:format><dc:type
           rdf:resource="http://purl.org/dc/dcmitype/StillImage" /><dc:title></dc:title></cc:Work></rdf:RDF></metadata><defs
     id="defs6"><clipPath
       clipPathUnits="userSpaceOnUse"
       id="clipPath84"><path
         d="M 0,0 H 3893 V 3272 H 0 Z"
         id="path82" /></clipPath><clipPath
       clipPathUnits="userSpaceOnUse"
       id="clipPath90"><path
         d="M 3893.4,272.828 H 0 V 3272.4 h 3893.4 z"
         id="path88" /></clipPath></defs><sodipodi:namedview
     pagecolor="#ffffff"
     bordercolor="#666666"
     borderopacity="1"
     objecttolerance="10"
     gridtolerance="10"
     guidetolerance="10"
     inkscape:pageopacity="0"
     inkscape:pageshadow="2"
     inkscape:window-width="1920"
     inkscape:window-height="1166"
     id="namedview4"
     showgrid="false"
     inkscape:zoom="1.7257976"
     inkscape:cx="190.93528"
     inkscape:cy="188.04775"
     inkscape:window-x="-11"
     inkscape:window-y="-11"
     inkscape:window-maximized="1"
     inkscape:current-layer="g12" /><g
     id="g10"
     inkscape:groupmode="layer"
     inkscape:label="ink_ext_XXXXXX"
     transform="matrix(1.3333333,0,0,-1.3333333,-44.303708,436.26666)"><g
       id="g12"
       transform="scale(0.1)"><g
         id="g78"><g
           id="g80"
           clip-path="url(#clipPath84)"><g
             id="g86"
             clip-path="url(#clipPath90)"><path
               d="m 1008.28,3147.4 c 2.7,1.08 5.4,2.15 8.11,3.21 203.21,79.32 413.53,51.14 625.37,62.67 202.74,11.03 395.62,44.44 590.46,105.17 252.97,78.85 646.79,194.82 850.88,-52.85 70.95,-86.11 92.41,-201.76 106.91,-312.39 45.46,-346.7 80.99,-703.3 278.76,-1002.99 231.89,-351.43 527.49,-833.1 67.62,-1166.919 C 3246.17,572.621 2848.18,656.211 2544.49,472.23 2350.12,354.469 2156.06,195.141 1937.88,106.211 1693.59,6.62891 1419.4,15.75 1161.81,48.4297 853.773,87.5117 518.379,233.199 422.32,528.461 c -68.965,211.98 5.192,430.527 41.735,640.779 35.031,201.55 29.808,410.04 17.949,613.81 -11.473,197.1 -69.285,412.14 -44.41,605.79 41.176,320.66 269.777,637.5 570.686,758.56"
               style="fill:#dab3de;fill-opacity:1;fill-rule:nonzero;stroke:none"
               id="path92" /><path
               d="M 3041.2,1663.02 C 2908.65,1339.91 2842.27,991.781 2697.63,673.898 2607.29,475.32 2487.1,290.211 2413.07,84.9883 c -4.2,-11.6602 -8.26,-24.5586 -3.9,-36.1563 6.83,-18.1718 31.88,-23.3632 49.62,-15.4609 17.74,7.8984 29.69,24.6094 40.68,40.6172 64.86,94.5237 126.94,191.1717 198.76,280.5237 60.96,75.816 128.62,145.976 191.35,220.347 182.01,215.782 320.8,467.511 408.31,735.791 41.22,126.38 64.25,255.61 92.79,385.02 17.8,80.76 30.66,159.63 -58.94,200.62 -145.46,66.56 -246.82,-126.68 -290.54,-233.27"
               style="fill:#b46ebe;fill-opacity:1;fill-rule:nonzero;stroke:none"
               id="path94" /><path
               d="m 3276.41,1908.32 c -12.07,-41.53 -19.99,-84.05 -30.86,-126.07 -11.08,-41.94 -23.28,-83.43 -35.54,-124.98 -24.72,-83 -51.1,-165.5 -79.24,-247.41 -56.27,-163.8 -119.71,-325.23 -191.8,-482.758 -72.6,-157.192 -147.48,-313.493 -231.46,-465.043 -41.92,-75.789 -85.78,-150.528 -132.59,-223.411 -23.53,-36.347 -47.39,-72.507 -72.49,-107.796 -12.64,-17.524 -24.43,-35.8325 -39,-52.0434 -7.16,-8.1602 -14.68,-15.9805 -22.32,-23.6602 l -11.52,-11.4375 -5.79,-5.6992 c -0.97,-0.9336 -1.9,-1.8711 -1.96,-2.6719 -0.35,-0.6679 1.21,-0.8515 0.8,-0.8085 0.14,0.4882 0.66,0.7773 1.15,0.6406 0.5,-0.1406 0.8,-0.6524 0.65,-1.1524 -1.65,-2.8711 -4.83,-0.6406 -4.51,1.4805 0.28,1.9805 1.62,2.9492 2.49,3.8984 l 5.72,5.7618 11.38,11.5507 c 7.54,7.75 14.94,15.6094 21.96,23.7891 14.24,16.1992 25.78,34.539 38.25,52.23 24.6,35.59 48.29,71.782 71.59,108.211 46.36,73.047 89.75,147.93 131.21,223.848 82.68,151.992 157.97,307.93 230.41,465.07 72,157.321 135.34,318.531 191.55,482.161 28.1,81.82 54.46,164.24 79.15,247.15 12.22,41.47 24.31,83.08 36.04,124.63 11.14,41.67 20.66,84.1 34.95,125.09 0.17,0.49 0.7,0.74 1.19,0.57 0.47,-0.16 0.73,-0.67 0.59,-1.14"
               style="fill:#ffffff;fill-opacity:1;fill-rule:nonzero;stroke:none"
               id="path96" /><path
               d="m 3153.42,1847.37 c 9.5,-4.62 17.77,-11.02 25.53,-17.93 7.82,-6.85 15.39,-13.99 22.71,-21.38 14.56,-14.84 28.36,-30.52 40.43,-47.49 l -5.32,0.76 c 43.31,32.91 90.44,61.15 140.91,81.26 0.47,0.19 1.02,-0.05 1.21,-0.52 0.18,-0.46 -0.02,-0.97 -0.45,-1.19 -48.25,-24.41 -94.64,-52.27 -137.08,-85.49 -1.62,-1.27 -3.97,-0.99 -5.23,0.64 l -0.04,0.04 -0.05,0.07 c -12.28,16.36 -25.21,32.25 -39.48,46.94 -7.11,7.36 -14.47,14.48 -22.08,21.32 -7.67,6.79 -15.32,13.54 -22.2,21.48 -0.34,0.4 -0.3,1.01 0.1,1.35 0.3,0.26 0.71,0.3 1.04,0.14"
               style="fill:#ffffff;fill-opacity:1;fill-rule:nonzero;stroke:none"
               id="path98" /><path
               d="m 3043.41,1671.04 c 11.9,-8.39 22.69,-17.91 33.36,-27.58 10.71,-9.63 21.52,-19.14 32.42,-28.55 21.76,-18.87 44.08,-37.05 66.43,-55.21 l -4.2,0.35 c 34.87,19.28 69.61,38.83 104.61,57.89 35.09,18.93 69.89,38.34 105.32,56.66 0.46,0.23 1.02,0.05 1.26,-0.41 0.22,-0.43 0.07,-0.97 -0.35,-1.23 -34.09,-20.69 -68.8,-40.28 -103.23,-60.37 -34.51,-19.94 -69.29,-39.4 -103.92,-59.12 -1.36,-0.78 -3.05,-0.57 -4.21,0.34 -22.67,17.92 -44.63,36.73 -66.38,55.74 -10.85,9.53 -21.61,19.18 -32.26,28.93 -10.7,9.7 -21.07,19.79 -30.14,31.2 -0.32,0.41 -0.25,1 0.16,1.33 0.33,0.26 0.79,0.26 1.13,0.03"
               style="fill:#ffffff;fill-opacity:1;fill-rule:nonzero;stroke:none"
               id="path100" /><path
               d="m 2978.76,1503.24 c 12.07,-10.95 22.71,-23.11 33.23,-35.38 l 31.53,-36.84 62.91,-73.78 -4.27,1.06 c 41.07,16.12 81.21,34.53 120.66,54.34 39.52,19.68 77.8,41.76 115.64,64.63 0.45,0.26 1.02,0.12 1.29,-0.32 0.26,-0.43 0.13,-0.98 -0.27,-1.26 -36.44,-25.19 -74.79,-47.55 -113.85,-68.49 -39.16,-20.81 -79.58,-39.22 -120.67,-55.91 -1.54,-0.62 -3.26,-0.13 -4.28,1.06 l -62.58,74.07 -31.23,37.08 c -10.4,12.37 -20.68,24.85 -29.53,38.54 -0.28,0.43 -0.16,1.02 0.28,1.3 0.36,0.23 0.84,0.19 1.14,-0.1"
               style="fill:#ffffff;fill-opacity:1;fill-rule:nonzero;stroke:none"
               id="path102" /><path
               d="m 2911.22,1281.97 c 14.19,-10.96 26.66,-23.62 39.1,-36.3 l 37.5,-37.87 37.48,-37.85 c 3.03,-3.07 6.03,-5.76 9.29,-7.04 3.17,-1.27 7.06,-1.21 11.18,-0.56 8.45,1.54 17.3,3.33 25.88,5.24 34.57,7.57 68.61,17.41 102.14,28.81 33.52,11.48 66.22,25.25 98.43,40.16 0.47,0.21 1.03,0.01 1.24,-0.46 0.21,-0.45 0.03,-0.98 -0.4,-1.21 -31.25,-17.04 -63.99,-31.33 -97.36,-43.83 -33.34,-12.64 -67.71,-22.52 -102.47,-30.54 -8.74,-2.02 -17.29,-3.84 -26.3,-5.56 -4.58,-0.74 -9.92,-1.12 -15.1,0.87 -5.09,2 -8.79,5.5 -11.99,8.69 l -37.19,38.2 -37.18,38.18 c -12.45,12.68 -24.88,25.37 -35.58,39.76 -0.31,0.42 -0.23,1.01 0.19,1.32 0.35,0.26 0.81,0.24 1.14,-0.01"
               style="fill:#ffffff;fill-opacity:1;fill-rule:nonzero;stroke:none"
               id="path104" /><path
               d="m 2851.32,1095.54 c 12,-12.45 22.03,-26.32 32.04,-40.2 l 30.22,-41.52 30.16,-41.332 c 2.5,-3.16 4.6,-4.758 7.93,-4.968 3.3,-0.29 7.55,0.671 11.77,1.371 8.41,1.41 16.77,3.019 25.13,4.668 33.43,6.742 66.38,15.66 98.94,25.851 32.52,10.36 64.32,22.89 95.75,36.39 0.47,0.21 1.02,-0.01 1.23,-0.49 0.19,-0.45 0,-0.98 -0.44,-1.2 -30.51,-15.65 -62.35,-28.68 -94.74,-40.09 -32.41,-11.418 -65.66,-20.379 -99.27,-27.559 -8.41,-1.731 -16.84,-3.441 -25.3,-4.941 -4.2,-0.68 -8.38,-1.872 -13.66,-1.579 -2.57,0.149 -5.47,0.95 -7.83,2.508 -2.35,1.512 -4.09,3.422 -5.54,5.25 l -30.01,41.891 -29.85,41.77 c -10.02,13.88 -20.01,27.78 -28.04,43.09 -0.24,0.46 -0.07,1.03 0.4,1.27 0.38,0.2 0.83,0.12 1.11,-0.18"
               style="fill:#ffffff;fill-opacity:1;fill-rule:nonzero;stroke:none"
               id="path106" /><path
               d="m 2788.01,901.121 c 9.59,-12.793 17.05,-26.73 24.48,-40.68 l 22.51,-41.742 22.5,-41.73 c 1.89,-3.547 3.67,-7.36 4.96,-7.438 1.46,-0.761 5.49,0.449 9.33,1.438 l 22.96,5.922 c 30.61,7.859 61.18,15.929 91.9,23.39 30.52,7.571 61.25,15.938 87.58,33.367 0.43,0.293 1.01,0.172 1.3,-0.257 0.27,-0.411 0.17,-0.961 -0.21,-1.262 -25.45,-19.68 -56.97,-28.801 -87.22,-37.34 -30.42,-8.648 -60.99,-16.668 -91.51,-24.91 l -22.9,-6.149 c -3.71,-0.66 -7.54,-3.101 -13.85,-1.332 -3.12,1.102 -5.08,3.672 -6.2,5.571 l -2.94,5.371 -22.1,41.949 -22.11,41.949 c -7.43,13.953 -14.84,27.91 -20.13,43 -0.17,0.5 0.09,1.032 0.58,1.211 0.4,0.141 0.83,0 1.07,-0.328"
               style="fill:#ffffff;fill-opacity:1;fill-rule:nonzero;stroke:none"
               id="path108" /><path
               d="m 2706.05,685.43 c 6.66,-9.508 11.3,-19.95 15.55,-30.532 4.36,-10.539 8.57,-21.136 12.62,-31.789 8.14,-21.32 15.72,-42.847 22.25,-64.711 l -3.56,2.582 c 25.09,0.149 49.53,8.598 74.08,15.989 24.55,7.609 49.24,14.832 74.04,21.672 0.5,0.129 1.01,-0.161 1.15,-0.661 0.13,-0.46 -0.13,-0.949 -0.58,-1.121 -24.13,-8.929 -48.38,-17.48 -72.76,-25.64 -24.19,-8.239 -49.18,-16.918 -75.83,-17.598 -1.64,-0.039 -3.05,1.008 -3.54,2.5 l -0.03,0.09 c -6.99,21.559 -14.16,43.078 -21.95,64.379 -3.91,10.64 -7.96,21.23 -12.16,31.762 -4.3,10.5 -8.51,21.007 -10.99,32.328 -0.11,0.519 0.21,1.019 0.73,1.14 0.38,0.078 0.77,-0.082 0.98,-0.39"
               style="fill:#ffffff;fill-opacity:1;fill-rule:nonzero;stroke:none"
               id="path110" /><path
               d="m 2602.23,481.02 c 7.65,-8.801 11.17,-19.551 15.72,-29.782 4.35,-10.34 8.48,-20.769 12.39,-31.277 7.77,-21.051 14.07,-42.609 19.77,-64.289 l -4.02,2.359 c 11.18,2.571 22.24,5.598 33.24,8.867 11,3.282 21.95,6.793 32.86,10.551 0.5,0.16 1.03,-0.097 1.19,-0.59 0.16,-0.449 -0.05,-0.937 -0.46,-1.14 -10.41,-5.11 -21.08,-9.668 -31.98,-13.66 -10.9,-4 -22.01,-7.418 -33.22,-10.469 -1.74,-0.481 -3.53,0.539 -4,2.281 l -0.02,0.078 c -5.91,21.442 -13.03,42.512 -20.45,63.449 -3.68,10.481 -7.6,20.883 -11.72,31.204 -3.92,10.429 -9.31,20.16 -11,31.628 -0.08,0.54 0.29,1.04 0.82,1.11 0.34,0.051 0.67,-0.078 0.88,-0.32"
               style="fill:#ffffff;fill-opacity:1;fill-rule:nonzero;stroke:none"
               id="path112" /><path
               d="m 2502.8,298.078 c 4.62,-5.68 6.7,-12.226 8.96,-18.719 l 6.85,-19.449 c 4.65,-12.93 9.08,-25.941 13.25,-39.039 l 6.41,-19.601 1.6,-4.891 0.67,-2 c 0.24,-0.219 -0.6,0.473 -0.74,0.32 -0.1,-0.179 2.24,0.602 3.73,1.082 l 4.9,1.571 c 13.06,4.289 26.29,8.089 39.59,11.679 0.51,0.141 1.02,-0.172 1.16,-0.672 0.12,-0.437 -0.12,-0.91 -0.54,-1.097 -12.64,-5.481 -25.37,-10.723 -38.26,-15.5 l -4.82,-1.813 c -1.79,-0.48 -2.58,-1.48 -6.15,-1.679 -1.9,-0.129 -4.27,1.789 -4.74,3.128 -0.67,1.372 -0.77,2 -1.1,2.84 l -1.71,4.864 -6.86,19.437 c -4.67,12.93 -9.08,25.949 -13.26,39.043 l -6.41,19.59 c -2.16,6.527 -4.49,12.988 -4.3,20.316 0.02,0.543 0.47,0.981 1.03,0.961 0.3,-0.008 0.57,-0.14 0.74,-0.371"
               style="fill:#ffffff;fill-opacity:1;fill-rule:nonzero;stroke:none"
               id="path114" /><path
               d="m 1437.62,615.469 c -0.05,0.551 -0.09,1.09 -0.13,1.64 -49,615.531 -74.69,1242.711 -323.37,1817.481 -45.82,105.9 -93.95,209.44 -167.503,299.2 -75.035,91.57 -230.758,240.57 -349.898,141.82 -81.989,-67.96 -80.692,-192.31 -78.278,-290.34 2.903,-117.79 36.914,-232.35 73.606,-343.4 78.105,-236.41 169.371,-468.79 266.355,-698.03 85.821,-202.85 167.938,-402.08 227.588,-613.969 88.19,-313.34 227.77,-604.851 387.43,-887.4608 10.36,-18.3399 27.72,-39.57036 47.76,-33.05082 20.73,6.75002 21.37,35.58982 17.34,57.01172 -20.44,108.4299 -56.22,213.5589 -75.75,322.1489 -13.47,74.949 -19.12,151.05 -25.15,226.949"
               style="fill:#515ab2;fill-opacity:1;fill-rule:nonzero;stroke:none"
               id="path116" /><path
               d="m 1514.29,16.8398 c -48.03,115.6992 -93.93,232.2192 -135.77,350.4612 -20.97,59.07 -40.87,118.629 -58.74,178.801 -17.94,60.148 -34.14,120.769 -49.32,181.609 -60.86,243.449 -103.83,490.289 -171.73,731.199 -32.86,120.73 -68.35,240.78 -104.234,360.74 -36.398,119.92 -68.891,240.95 -103.203,361.32 -68.184,240.49 -145.32,480.16 -265.176,700.37 -0.535,0.98 -0.187,2.2 0.789,2.74 0.961,0.54 2.188,0.18 2.735,-0.78 61.406,-109.27 113.89,-223.67 157.093,-341.39 44.051,-117.45 80.922,-237.37 116.317,-357.54 35.265,-120.24 69.035,-240.78 105.429,-360.52 36.22,-119.89 72.07,-239.96 105.31,-360.82 33.36,-120.78 63.45,-242.7 89.66,-365.22 26.5,-122.419 52.24,-244.919 82.18,-366.341 14.98,-60.699 30.97,-121.141 48.67,-181.059 17.62,-59.93 37.28,-119.238 58.04,-178.238 41.54,-117.942 87.35,-234.551 125.73,-353.9337 0.34,-1.0664 -0.24,-2.1992 -1.3,-2.5391 -1.01,-0.3203 -2.08,0.1797 -2.48,1.1406"
               style="fill:#ffffff;fill-opacity:1;fill-rule:nonzero;stroke:none"
               id="path118" /><path
               d="m 544.004,2775.17 c 18.156,0.81 34.894,-5.5 50.851,-12.22 16.063,-6.72 31.68,-14.29 46.997,-22.32 30.507,-16.31 59.711,-34.58 88.523,-52.99 l -11.934,-7.76 c -4.496,36.39 -6.781,73.1 -5.418,109.7 0.981,36.59 5.504,73.07 13.426,108.66 0.246,1.09 1.324,1.78 2.414,1.54 1,-0.23 1.664,-1.17 1.571,-2.16 -3.317,-36.12 -4.786,-72.18 -4.536,-108.17 0.625,-35.97 2.856,-71.91 8.141,-107.44 0.633,-4.28 -2.316,-8.26 -6.59,-8.89 -1.859,-0.28 -3.664,0.12 -5.16,1.02 l -0.184,0.11 c -29.425,17.62 -58.277,35.77 -87.984,52.13 -14.785,8.28 -29.801,16.1 -45.144,23.03 -15.45,6.89 -30.93,12.52 -45.965,21.85 -0.996,0.6 -1.317,1.9 -0.715,2.89 0.371,0.61 1.043,0.98 1.707,1.02"
               style="fill:#ffffff;fill-opacity:1;fill-rule:nonzero;stroke:none"
               id="path120" /><path
               d="m 516.52,2646.79 c 25.593,-7.82 48.464,-20.62 71.57,-33 l 69.332,-37.09 c 46.113,-24.92 92.09,-50.09 137.844,-75.68 L 784,2496.38 c 15.215,49.91 31.176,99.59 49.137,148.57 17.644,49.09 37.074,97.52 58.301,145.14 l 0.082,0.19 c 0.535,1.2 1.949,1.75 3.152,1.21 1.121,-0.5 1.668,-1.75 1.308,-2.9 l -2.488,-7.97 c -0.332,-1.07 -1.465,-1.66 -2.531,-1.32 -1,0.31 -1.582,1.34 -1.371,2.34 l 1.754,8.18 4.547,-1.5 c -17.274,-49.12 -34.145,-98.28 -50.563,-147.59 -16.098,-49.41 -31.969,-98.87 -46.312,-148.8 -1.188,-4.13 -5.496,-6.51 -9.625,-5.33 -0.524,0.15 -1.016,0.35 -1.481,0.6 l -0.156,0.09 c -46.234,24.7 -92.246,49.81 -138.113,75.17 l -68.649,38.35 c -22.887,12.78 -46.012,25.11 -66.406,42.44 -0.863,0.73 -0.973,2.04 -0.234,2.9 0.546,0.65 1.406,0.87 2.168,0.64"
               style="fill:#ffffff;fill-opacity:1;fill-rule:nonzero;stroke:none"
               id="path122" /><path
               d="m 538.355,2425.29 c 29.907,-9.69 57.118,-24.35 84.747,-38.28 l 83.109,-41.26 c 27.719,-13.72 55.535,-27.24 83.441,-40.57 27.809,-13.54 55.711,-26.89 83.703,-40.05 l -10.601,-4.38 c 21.699,57.77 45.512,114.76 72.355,170.3 13.235,27.86 27.301,55.31 42.09,82.36 14.571,27.16 30.331,53.66 46.361,79.95 0.59,0.95 1.83,1.25 2.78,0.67 0.91,-0.56 1.22,-1.73 0.73,-2.66 -14.33,-27.2 -27.832,-54.8 -41.414,-82.32 -13.375,-27.63 -26.347,-55.42 -39.011,-83.35 -24.965,-56.02 -48.411,-112.7 -69.25,-170.35 -1.457,-4.03 -5.907,-6.11 -9.934,-4.66 l -0.57,0.23 -0.098,0.05 c -28.199,12.88 -56.313,25.95 -84.332,39.23 -27.918,13.47 -55.746,27.15 -83.477,41.01 -27.683,13.96 -55.211,28.23 -82.664,42.62 -27.441,14.41 -55.097,28.47 -79.859,47.89 -0.895,0.7 -1.047,1.99 -0.352,2.87 0.547,0.7 1.45,0.95 2.246,0.7"
               style="fill:#ffffff;fill-opacity:1;fill-rule:nonzero;stroke:none"
               id="path124" /><path
               d="m 620.531,2168.4 c 31.043,-10.1 59.41,-25.29 87.965,-40.13 l 85.723,-44.4 85.722,-44.41 c 14.489,-7.01 28.664,-17.42 41.403,-21.92 6.586,-2.25 11.336,-1.89 15.758,1.2 4.531,3.51 8.308,9.5 11.742,16.48 6.871,13.65 11.66,28.81 17.371,44.12 5.652,15.67 13.269,29.95 19.957,44.56 13.878,29.12 27.378,58.41 42.118,87.09 29.09,57.56 60.87,113.74 94.7,168.57 0.58,0.95 1.82,1.24 2.78,0.67 0.9,-0.57 1.21,-1.73 0.72,-2.67 -30.04,-56.92 -58.8,-114.39 -86.78,-172.22 -14.04,-28.89 -26.59,-58.47 -40.261,-87.52 -6.554,-14.7 -13.953,-28.99 -19.054,-43.7 -5.395,-14.87 -10.11,-30.58 -17.547,-45.82 -3.633,-7.34 -8.047,-15.78 -16.27,-22.3 -4.348,-3 -9.66,-5.55 -15.226,-5.82 -5.403,-0.37 -10.625,0.49 -14.973,2.02 -8.957,2.92 -16.16,7.24 -23.223,11.19 -7.07,4.09 -13.64,7.62 -20.929,11.36 l -85.27,45.27 -85.266,45.27 c -28.445,15.06 -57.074,29.75 -83.031,49.54 -0.894,0.69 -1.07,1.97 -0.383,2.87 0.536,0.71 1.453,0.96 2.254,0.7"
               style="fill:#ffffff;fill-opacity:1;fill-rule:nonzero;stroke:none"
               id="path126" /><path
               d="m 1185.45,2241.72 c -8.54,-39.7 -24.82,-76.36 -39,-113.85 l -43.5,-112.08 c -14.36,-37.41 -29.11,-74.68 -44.08,-111.85 l -44.63,-111.63 -13.71,5.39 c -0.42,-0.89 -0.573,-2.06 -0.38,-3.05 0.09,-0.69 0.17,-1.06 0.41,-1.55 0.53,-0.93 0.3,-0.62 0.58,-0.91 -0.09,0.07 -0.3,0.3 -0.78,0.64 -0.837,0.64 -2.047,1.38 -3.282,2.08 -2.492,1.42 -5.265,2.78 -8.074,4.08 -5.621,2.63 -11.488,5.05 -17.379,7.42 -11.801,4.71 -23.762,9.27 -35.797,13.65 -24.07,8.78 -48.367,17.12 -72.711,25.31 l -73.047,24.72 c -12.218,4.02 -24.328,8.29 -36.531,12.55 -11.726,4.72 -24.621,6.84 -36.652,12.32 l -0.09,0.05 c -1.016,0.45 -1.461,1.65 -1,2.66 0.445,0.98 1.57,1.43 2.558,1.05 11.766,-4.55 24.692,-5.86 37.165,-9.95 l 37.117,-10.43 74.086,-21.8 c 24.59,-7.64 49.144,-15.43 73.601,-23.71 12.219,-4.17 24.442,-8.37 36.567,-13.09 6.07,-2.37 12.113,-4.79 18.179,-7.54 3.035,-1.37 6.06,-2.81 9.17,-4.53 1.57,-0.88 3.13,-1.78 4.88,-3.06 0.83,-0.59 1.83,-1.42 2.87,-2.5 0.73,-0.95 1.14,-1.19 1.94,-2.87 0.37,-0.88 0.66,-1.6 0.82,-2.68 0.15,-1.39 -0.05,-2.96 -0.51,-4.25 l -13.7,5.39 43.47,112.09 c 14.38,37.41 29,74.72 44,111.89 l 44.6,111.64 c 15.19,37.09 28.27,75.01 49.09,109.88 0.58,0.97 1.84,1.29 2.8,0.71 0.77,-0.46 1.13,-1.36 0.95,-2.19"
               style="fill:#ffffff;fill-opacity:1;fill-rule:nonzero;stroke:none"
               id="path128" /><path
               d="m 789.492,1699.7 c 27.301,-2.22 52.891,-10.01 78.664,-17.23 l 77.293,-21.72 77.141,-22.21 19.25,-5.71 c 5.86,-1.65 14.57,-4.66 15.99,-4.11 0.53,-0.01 2.01,0.76 4.04,2.83 l 6.74,7.12 13.65,14.6 c 36.22,39.13 70.26,80.23 102.98,122.37 32.45,42.36 63.63,85.74 93.36,130.27 0.62,0.93 1.87,1.18 2.8,0.56 0.88,-0.59 1.14,-1.75 0.65,-2.66 -25.98,-46.96 -54.88,-92.4 -86.61,-135.8 -31.44,-43.63 -65.67,-85.24 -101.63,-125.26 l -13.59,-14.91 -6.98,-7.55 c -2.61,-2.63 -6.59,-6.4 -12.79,-7.49 -5.95,-0.87 -10.24,0.74 -13.35,1.5 l -9.66,2.75 -19.33,5.49 -77.153,22.61 -77.004,23.11 c -25.656,7.71 -51.496,14.87 -75.629,27.59 -1.004,0.52 -1.39,1.77 -0.859,2.77 0.39,0.75 1.234,1.15 2.027,1.08"
               style="fill:#ffffff;fill-opacity:1;fill-rule:nonzero;stroke:none"
               id="path130" /><path
               d="m 898.355,1447.54 c 22.915,-4.61 44.012,-13.63 64.84,-23.14 20.883,-9.4 41.635,-19.09 62.265,-29.05 41.16,-20.12 81.84,-41.28 121.56,-64.12 l -10.09,-1.85 c 36.64,42.97 71,87.84 104.2,133.56 33.02,45.87 64.56,92.81 95.19,140.52 0.6,0.93 1.85,1.21 2.79,0.6 0.88,-0.56 1.17,-1.71 0.7,-2.62 -26.24,-50.39 -55.79,-99.1 -87.84,-146.09 -31.88,-47.13 -66.57,-92.32 -102.73,-136.28 -2.46,-3 -6.67,-3.72 -9.95,-1.92 l -0.13,0.08 c -39.92,21.91 -80.05,43.41 -120.78,63.8 -20.31,10.29 -40.759,20.32 -61.333,30.08 -20.629,9.66 -41.246,19.26 -60.285,32.72 -0.926,0.66 -1.153,1.95 -0.492,2.87 0.484,0.69 1.312,0.99 2.085,0.84"
               style="fill:#ffffff;fill-opacity:1;fill-rule:nonzero;stroke:none"
               id="path132" /><path
               d="m 1002.05,1192.3 c 16.86,-0.48 32.96,-4.11 48.76,-8.64 15.79,-4.61 31.51,-9.44 47.16,-14.5 31.34,-10.01 62.22,-21.43 92.8,-33.57 l -10,-3.12 93.49,144.7 c 15.89,23.92 31.44,48.06 47.63,71.82 16.07,23.82 32.29,47.56 49.03,71 l 0.05,0.05 c 0.65,0.91 1.9,1.12 2.81,0.47 0.84,-0.6 1.08,-1.74 0.59,-2.62 -14.08,-25.08 -28.7,-49.84 -43.45,-74.53 -14.64,-24.75 -29.92,-49.12 -44.85,-73.7 l -91.47,-146.34 c -2.1,-3.36 -6.28,-4.63 -9.84,-3.19 l -0.16,0.07 c -30.21,12.25 -60.81,23.46 -91.56,34.28 -15.39,5.35 -30.87,10.48 -46.41,15.39 -15.54,4.98 -30.91,10.41 -45.64,18.54 -0.998,0.55 -1.365,1.81 -0.81,2.82 0.38,0.7 1.12,1.09 1.87,1.07"
               style="fill:#ffffff;fill-opacity:1;fill-rule:nonzero;stroke:none"
               id="path134" /><path
               d="m 1065.45,1012.4 c 16.94,-3.3 31.98,-10.51 46.74,-18.189 14.81,-7.609 29.54,-15.371 44.19,-23.301 14.68,-7.851 29.09,-16.199 43.51,-24.531 14.43,-8.32 28.7,-16.91 42.77,-25.809 l -10.65,-1.961 c 27.37,34.672 53.93,69.95 80.73,105.081 26.71,35.19 53.36,70.44 80.79,105.22 0.68,0.88 1.95,1.02 2.83,0.33 0.81,-0.64 1,-1.77 0.48,-2.63 -23.03,-37.88 -47.75,-74.65 -73.29,-110.83 -25.47,-36.249 -52.05,-71.678 -78.71,-107.061 -2.48,-3.289 -7,-4.117 -10.45,-2.071 l -0.21,0.122 -42.6,25.41 -42.93,24.871 c -14.34,8.238 -28.78,16.32 -43.29,24.258 -14.56,7.871 -29.01,15.882 -41.72,27.491 -0.86,0.78 -0.92,2.1 -0.14,2.96 0.51,0.55 1.26,0.77 1.95,0.64"
               style="fill:#ffffff;fill-opacity:1;fill-rule:nonzero;stroke:none"
               id="path136" /><path
               d="m 1127.1,801.352 c 15.31,-0.653 29.22,-5.614 42.76,-11.243 13.59,-5.558 27.03,-11.48 40.32,-17.75 13.33,-6.187 26.32,-13.078 39.21,-20.129 12.9,-7.05 25.56,-14.531 37.9,-22.511 l -10.64,-1.809 c 24.57,29.988 47.17,61.551 68.75,93.82 21.49,32.34 41.66,65.559 61.41,99.27 0.56,0.961 1.8,1.289 2.76,0.719 0.88,-0.508 1.23,-1.59 0.85,-2.508 -14.98,-36.262 -33.26,-71.141 -53.72,-104.68 -20.38,-33.609 -43.23,-65.691 -67.38,-96.742 -2.51,-3.23 -7.02,-4.008 -10.45,-1.93 l -0.19,0.121 c -12.33,7.461 -24.74,14.782 -37.28,21.872 -12.55,7.089 -25.37,13.668 -38.19,20.269 -12.85,6.52 -25.89,12.719 -39.07,18.559 -13.23,5.789 -26.4,11.539 -38.42,20.89 -0.93,0.711 -1.1,2.039 -0.38,2.969 0.43,0.551 1.11,0.84 1.76,0.813"
               style="fill:#ffffff;fill-opacity:1;fill-rule:nonzero;stroke:none"
               id="path138" /><path
               d="m 1187.97,626.469 c 14.45,-0.949 26.85,-6.719 39.07,-12.688 12.28,-5.883 24.44,-12.019 36.48,-18.39 11.99,-6.469 23.8,-13.282 35.5,-20.262 11.73,-6.949 23.06,-14.527 34.37,-22.117 l -11.15,-2.5 c 16.33,25.957 32.66,51.918 50.47,76.898 17.49,25.18 36.11,49.578 56,72.942 0.72,0.847 2,0.949 2.85,0.226 0.77,-0.648 0.93,-1.758 0.42,-2.59 -15.93,-26.16 -32.12,-52.019 -48.42,-77.777 -15.98,-25.973 -32.39,-51.621 -47.75,-77.93 -2.18,-3.722 -6.96,-4.98 -10.69,-2.812 l -0.29,0.179 -0.18,0.122 c -11.25,7.308 -22.78,14.171 -34.19,21.199 -11.43,7 -23.04,13.722 -34.72,20.301 -11.63,6.679 -23.4,13.128 -35.29,19.351 -11.95,6.129 -23.96,11.981 -34.14,22.168 -0.85,0.84 -0.85,2.211 -0.01,3.051 0.45,0.449 1.07,0.66 1.67,0.629"
               style="fill:#ffffff;fill-opacity:1;fill-rule:nonzero;stroke:none"
               id="path140" /><path
               d="m 1283.56,416.82 c 10.94,-0.172 19.91,-4.511 28.77,-9.019 l 26.77,-13.199 c 17.74,-9.032 35.5,-18.032 52.92,-27.653 l -11.07,-3.41 c 11.09,21.152 21.67,42.57 33.19,63.531 5.68,10.5 11.31,21.039 17.42,31.34 5.43,10.602 14.06,20.11 12.42,30.711 l -0.01,0.098 c -0.17,1.101 0.59,2.14 1.69,2.312 0.93,0.141 1.81,-0.371 2.17,-1.179 2.82,-6.372 1.34,-13.582 -0.58,-19.473 -1.99,-6.078 -4.58,-11.277 -6.82,-16.867 -4.54,-11.082 -9.55,-21.934 -14.5,-32.813 -9.77,-21.82 -20.47,-43.179 -30.66,-64.789 -1.84,-3.898 -6.5,-5.582 -10.41,-3.738 l -0.08,0.039 -0.59,0.277 c -17.72,8.731 -35.1,18.071 -52.5,27.403 l -25.95,14.3 c -8.71,4.668 -17.3,9.5 -23.94,18.5 l -0.07,0.098 c -0.72,0.981 -0.51,2.371 0.48,3.102 0.4,0.289 0.88,0.437 1.35,0.429"
               style="fill:#ffffff;fill-opacity:1;fill-rule:nonzero;stroke:none"
               id="path142" /><path
               d="m 1355.8,263.199 c 9.4,1.68 16.35,-1.918 23.56,-4.98 l 21.58,-9.231 21.37,-9.699 10.58,-5.09 c 1.78,-0.898 2.9,-1.269 3.01,-1.277 0,0 -0.51,0.019 -1.3,-0.332 -0.74,-0.309 -1.4,-1.11 -1.4,-1.211 -0.09,-0.418 0.79,1.961 1.45,3.793 l 2.08,5.598 4.38,11.089 c 2.99,7.371 6.3,14.61 9.81,21.743 7.15,14.179 15.49,27.769 25.27,40.289 0.7,0.89 1.97,1.05 2.86,0.347 0.73,-0.558 0.96,-1.527 0.64,-2.34 l -16.89,-43.527 c -2.79,-7.191 -5.39,-14.449 -7.94,-21.699 l -3.64,-10.961 -1.71,-5.512 c -0.69,-1.84 -0.66,-3.347 -2.73,-7.16 -1,-1.769 -3.12,-4 -5.67,-5.098 -2.57,-1.171 -5.14,-1.25 -7.04,-1.043 -3.79,0.461 -6.28,1.793 -8.03,2.532 l -10.71,4.781 -21.21,10.051 -20.99,10.519 c -7,3.52 -14.24,6.489 -19.03,14.758 -0.68,1.18 -0.28,2.68 0.9,3.371 0.25,0.141 0.53,0.238 0.8,0.289"
               style="fill:#ffffff;fill-opacity:1;fill-rule:nonzero;stroke:none"
               id="path144" /><path
               d="m 2979.4,2143.7 c 18.41,67.15 35.65,134.46 51.74,201.8 27.21,113.83 46.81,229.97 51.25,347.13 3.85,101.7 12.81,240.16 -56.06,324.01 -136.32,166 -322.74,-89.8 -395.26,-188.22 -192.05,-260.62 -280.46,-580.38 -336.06,-894.36 -57.34,-323.87 -98.86,-650.94 -135.46,-977.669 -29.95,-270.102 -63.47,-558.469 -25.41,-827.75 1.63,-11.5 3.63,-23.801 11.74,-32.2191 14.72,-15.2735 42.42,-8.7031 55.87,7.5271 13.45,16.242 16.6,38.289 19.58,59.11 25.45,177.543 75.32,351.472 147.43,515.742 105.51,240.371 243.88,465.089 347.07,706.399 105.37,246.44 192.75,500.14 263.57,758.5"
               style="fill:#515ab2;fill-opacity:1;fill-rule:nonzero;stroke:none"
               id="path146" /><path
               d="m 2160.37,83.2891 c -2.05,64.4809 4.27,129.1089 14.31,192.7109 9.74,63.73 22.99,126.711 34.24,189.852 21.36,126.597 42.95,253.636 70.88,379.328 13.94,62.859 29.19,125.461 46.68,187.49 17.44,62.07 36.94,123.42 57.24,184.49 40.88,122.05 85.53,242.67 129.01,363.59 21.77,60.46 43.16,121.03 63.44,181.89 20.09,60.95 38.86,122.34 56.81,183.97 35.37,123.43 67.33,247.86 96.76,372.93 29.44,125.07 56.74,250.66 83.76,376.33 26.31,125.91 61.42,250.45 110.67,369.42 l 3.5,-1.42 c -47.51,-119.41 -79.99,-244.06 -105.75,-369.78 -26.08,-125.88 -52.46,-251.73 -81.01,-377.14 -28.59,-125.4 -59.37,-250.37 -94.78,-374.12 -17.84,-61.82 -36.52,-123.43 -56.52,-184.62 -20.2,-61.14 -41.47,-121.84 -63.11,-182.39 -43.22,-121.11 -87.5,-241.76 -128.03,-363.58 -20.39,-60.87 -39.98,-122.01 -57.46,-183.67 C 2323.46,966.91 2308.14,904.602 2294.09,842 2265.94,716.738 2244.14,590.262 2222.43,463.422 2199.55,336.73 2169.73,211.691 2164.14,83.2813 l -3.77,0.0078"
               style="fill:#b46ebe;fill-opacity:1;fill-rule:nonzero;stroke:none"
               id="path148" /><path
               d="m 2768.65,2991.46 c 8.68,-13.06 14.07,-26.97 19.58,-40.92 5.56,-13.91 11.54,-27.65 17.93,-41.19 6.45,-13.51 12.99,-26.97 20.08,-40.16 7.09,-13.18 14.51,-26.18 22.12,-39.06 l -8.62,3.34 c 39.21,11.02 77.69,24.5 115.67,39.33 37.96,14.9 75.28,31.42 112.43,48.74 l 1.8,-3.32 c -34.84,-21.86 -71.63,-40.66 -109.43,-57.05 -37.8,-16.47 -76.74,-30.24 -116.19,-42.29 l -5.48,-1.68 -3.15,5.01 c -8.13,12.94 -15.68,26.23 -22.76,39.76 -7.08,13.54 -13.89,27.21 -19.98,41.23 -6.15,13.97 -11.88,28.12 -17.18,42.44 -5.35,14.26 -9.96,28.91 -10.42,44.68 l 3.6,1.14"
               style="fill:#b46ebe;fill-opacity:1;fill-rule:nonzero;stroke:none"
               id="path150" /><path
               d="m 2625.98,2821.96 c 16.12,-23.51 27.71,-48.95 40.09,-74.08 12.41,-25.11 25.23,-50.01 38.46,-74.68 l 41.07,-73.28 5.05,-9.2 c 1.9,-3.4 3.53,-6.86 4.98,-10.07 l 8.59,-19.18 c 2.89,-6.25 5.89,-12.43 9.22,-18.03 1.65,-2.78 3.44,-5.45 5.19,-7.42 2.02,-2.06 1.82,-1.86 4.27,-2.29 4.69,-0.32 11.38,1.41 17.51,3.57 6.26,2.18 12.54,4.89 18.78,7.78 12.38,5.71 25.02,12.63 38.24,18.22 l 76.56,34.27 c 50.31,24.46 99.73,50.87 147.9,79.69 l 2.06,-3.17 c -46.08,-32.29 -94.39,-61.61 -144.64,-87.2 -25.34,-12.34 -50.89,-24.29 -76.49,-36.16 -12.6,-5.5 -24.55,-12.24 -37.59,-18.45 -6.47,-3.08 -13.06,-6.03 -20.02,-8.55 -7.06,-2.39 -14.12,-4.93 -23.51,-4.59 -2.33,0.19 -5.1,0.66 -7.78,2.04 -3.04,1.55 -4.47,3.23 -6.15,4.86 -2.95,3.26 -5.05,6.47 -7.05,9.69 -3.92,6.43 -7.1,12.88 -10.18,19.33 l -8.85,19.16 c -1.47,3.17 -2.88,6.05 -4.43,8.76 l -5.16,9.21 -40.51,74.15 c -13.04,24.97 -25.66,50.14 -37.86,75.52 -12.23,25.35 -24.4,50.81 -31.2,78.57 l 3.45,1.53"
               style="fill:#b46ebe;fill-opacity:1;fill-rule:nonzero;stroke:none"
               id="path152" /><path
               d="m 2451.25,2509.62 c 25.54,-19.95 46.38,-44.49 66.73,-69.2 20.4,-24.72 40.12,-49.96 59.39,-75.5 38.14,-51.25 76.47,-102.87 110.38,-156.41 4.39,-5.82 9.04,-10.48 14.58,-11.7 5.5,-1.53 12.41,-0.39 19.24,2.09 l 44.33,17.38 89.1,34.88 c 59.05,23.59 117.81,48.53 169.89,85.32 l 2.28,-3.01 c -50.09,-40.41 -108.79,-68.74 -167.65,-93.35 l -88.59,-36.56 c -14.91,-6 -29.33,-12.07 -44.64,-18 -8.02,-2.91 -17.52,-5.19 -27.62,-2.67 -10.33,2.43 -17.49,10.15 -22.61,16.83 -5.22,6.93 -9.23,13.9 -13.47,20.51 -4.13,6.61 -8.63,12.78 -13.34,19.39 l -27.82,38.93 c -18.36,26.06 -36.85,52.02 -55.79,77.61 -18.94,25.59 -38.28,50.86 -58.29,75.57 -20.05,24.71 -40.94,48.51 -58.87,75.32 l 2.77,2.57"
               style="fill:#b46ebe;fill-opacity:1;fill-rule:nonzero;stroke:none"
               id="path154" /><path
               d="m 2355.33,2213.04 c 29.16,-20.11 53.42,-45.55 77.68,-70.8 24.22,-25.33 47.81,-51.27 70.72,-77.8 22.84,-26.57 45.29,-53.52 66.52,-81.42 21.27,-27.86 41.83,-56.27 61.64,-85.18 l -9,2.39 c 54.53,25.83 109.09,51.57 163.85,76.89 l 82.28,37.72 c 27.4,12.63 55.13,24.58 82.68,36.87 l 1.63,-3.4 c -26.86,-13.74 -53.56,-27.84 -80.58,-41.26 l -80.99,-40.41 c -54.07,-26.77 -108.35,-53.1 -162.67,-79.36 l -5.48,-2.65 -3.52,5.04 c -19.95,28.51 -40.63,56.51 -62.01,83.97 -21.41,27.42 -43.02,54.71 -65.58,81.2 -22.5,26.55 -45.68,52.53 -69.5,77.91 -23.79,25.45 -48.87,49.48 -70.27,77.56 l 2.6,2.73"
               style="fill:#b46ebe;fill-opacity:1;fill-rule:nonzero;stroke:none"
               id="path156" /><path
               d="m 2295.09,1906.78 c 22.53,-21.2 41.19,-45.21 60.62,-68.69 19.46,-23.44 39.35,-46.52 59.68,-69.2 20.32,-22.69 41.06,-45 62.22,-66.9 20.96,-22.09 42.29,-43.84 64.05,-65.15 l -7.77,1.55 c 57.16,21.99 113.47,46.14 169.28,71.39 27.84,12.79 55.57,25.82 83.19,39.13 27.51,13.51 55.12,26.88 82.4,40.95 l 1.84,-3.31 c -26.43,-15.68 -53.02,-31.16 -80.17,-45.6 -27.05,-14.64 -54.44,-28.65 -82.17,-41.98 -55.31,-27 -111.85,-51.42 -169.03,-74.2 l -4.34,-1.74 -3.42,3.3 c -22.1,21.22 -43.83,42.84 -65.1,64.91 -21.07,22.26 -41.72,44.91 -61.94,67.94 -20.21,23.02 -39.99,46.43 -59.32,70.2 -19.35,23.73 -38.58,47.67 -53.03,75.11 l 3.01,2.29"
               style="fill:#b46ebe;fill-opacity:1;fill-rule:nonzero;stroke:none"
               id="path158" /><path
               d="m 2244.07,1631.64 c 21.21,-15.23 39.26,-33.53 57.1,-52.01 l 53.85,-55.15 53.85,-55.15 c 18.05,-18.29 35.57,-37.08 53.38,-55.6 l -8.24,1.69 c 54.62,23.64 109.02,47.81 163.85,71.02 54.68,23.53 109.7,46.34 165.12,68.39 l 1.59,-3.42 c -53.54,-26.15 -107.48,-51.53 -161.76,-76.18 -54.13,-24.99 -108.7,-49 -163.03,-73.56 l -4.59,-2.07 -3.66,3.76 c -17.89,18.45 -36.06,36.62 -53.71,55.3 l -53.23,55.74 -53.24,55.74 c -17.85,18.48 -35.5,37.15 -49.99,58.88 l 2.71,2.62"
               style="fill:#b46ebe;fill-opacity:1;fill-rule:nonzero;stroke:none"
               id="path160" /><path
               d="m 2208.58,1343.29 c 18.08,-14.54 31.93,-32.63 45.6,-50.75 13.72,-18.1 27.08,-36.48 40.07,-55.13 25.78,-37.42 49.97,-75.97 72.12,-115.66 l -8.71,3.35 c 45.54,15.45 90.94,31.32 136.66,46.29 45.59,15.35 91.5,29.79 137.67,43.68 l 1.31,-3.55 c -44.73,-17.85 -89.7,-35.14 -135,-51.52 -45.18,-16.76 -90.67,-32.63 -136.03,-48.91 l -5.58,-2 -3.13,5.34 c -22.76,38.88 -46.62,77.11 -71.84,114.43 -12.51,18.73 -25.4,37.21 -38.64,55.44 -13.29,18.22 -27.13,35.93 -37.44,56.62 l 2.94,2.37"
               style="fill:#b46ebe;fill-opacity:1;fill-rule:nonzero;stroke:none"
               id="path162" /><path
               d="m 2165.8,1025.61 c 13.97,-11.26 24.16,-25.23 34.35,-39.188 l 30.82,-41.731 c 20.35,-27.961 40.66,-55.953 60.49,-84.293 l -8.52,2.672 c 36.93,12.571 73.16,27.059 109.26,41.899 35.97,15.172 71.67,31.043 107.28,47.429 l 1.77,-3.328 c -33.55,-20.461 -68.39,-38.851 -104.13,-55.269 -35.62,-16.742 -72.28,-31.16 -109.21,-44.75 l -5.16,-1.891 -3.36,4.559 c -20.56,27.812 -40.64,55.972 -60.67,84.16 l -29.76,42.492 c -9.99,14.109 -19.99,28.209 -26.23,45.029 l 3.07,2.21"
               style="fill:#b46ebe;fill-opacity:1;fill-rule:nonzero;stroke:none"
               id="path164" /><path
               d="m 2136.73,732.16 c 11.47,-7.488 18.61,-17.851 26.44,-27.808 7.81,-9.961 15.86,-19.711 24.02,-29.372 8.06,-9.73 16.33,-19.289 24.78,-28.691 8.3,-9.527 16.76,-18.918 25.43,-28.129 l 5.95,-6.238 c 0.5,-0.16 -1.35,0.367 -0.81,0.18 0.29,-0.032 2.07,0.449 3.49,0.859 5.86,1.57 11.67,3.48 17.37,5.769 11.4,4.54 22.64,10 33.73,16 11.05,6.059 22.15,12.34 33.58,18.192 5.72,2.937 11.42,5.91 17.37,8.437 2.94,1.332 5.91,2.571 8.91,3.77 l 2.24,0.91 c 0.24,0.09 0.87,0.391 1.67,0.531 0.71,0.121 1.34,0.09 1.93,-0.011 1.17,-0.188 2.16,-0.579 3.17,-1.321 0.48,-0.449 1.13,-0.699 1.55,-2.218 0.28,-2.051 -1.45,-2.911 -1.92,-3.02 l -1.4,3.512 c 0.22,0.179 -0.68,-0.114 -0.58,-1.313 0.23,-0.719 0.18,-0.437 0.03,-0.461 -0.32,0.141 -0.89,0.262 -1.3,0.223 -0.21,-0.02 -0.38,-0.07 -0.45,-0.121 0,0 -0.07,-0.078 -0.54,-0.352 l -2.05,-1.187 c -2.74,-1.582 -5.45,-3.192 -8.12,-4.879 l -16,-10.203 c -10.57,-7.008 -21.11,-14.18 -32.14,-20.828 -10.98,-6.719 -22.29,-13.289 -34.51,-18.321 -6.06,-2.609 -12.32,-4.851 -18.72,-6.73 -1.64,-0.469 -2.89,-1.031 -5.78,-1.418 -2.62,-0.66 -7.78,0.808 -9.7,2.758 -2.21,1.84 -2.88,2.73 -4.11,3.91 l -3.39,3.422 c -9.02,9.129 -17.88,18.429 -26.53,27.929 -8.49,9.629 -16.79,19.43 -24.9,29.387 -8.02,10.031 -15.76,20.281 -23.33,30.641 -7.55,10.363 -15.39,20.609 -18.48,34.043 l 3.1,2.148"
               style="fill:#b46ebe;fill-opacity:1;fill-rule:nonzero;stroke:none"
               id="path166" /><path
               d="m 2121.15,484.691 c 10.98,-3.421 17.7,-11.281 24.79,-18.652 7.04,-7.437 14.01,-14.969 20.61,-22.82 13.24,-15.68 25.43,-32.219 36.61,-49.41 l -9.44,2.492 c 33.23,15.871 62.66,38.84 88.99,65.758 l 2.97,-2.329 c -20.22,-32.75 -50.88,-58.769 -85.35,-76.691 l -5.66,-2.937 -3.79,5.429 c -11.46,16.43 -23.54,32.399 -36.08,48 -6.28,7.789 -12.58,15.59 -19.16,23.149 -6.54,7.629 -13.81,14.441 -17.16,25.34 l 2.67,2.671"
               style="fill:#b46ebe;fill-opacity:1;fill-rule:nonzero;stroke:none"
               id="path168" /><path
               d="m 2124.53,291.082 c 7.86,1.109 12.8,-2.391 18.03,-5.453 l 15.67,-9.141 15.42,-9.558 c 2.46,-1.61 5.6,-3.711 5.7,-3.59 -0.42,-0.078 0.55,-0.231 3.08,1.148 20.92,10.614 39.65,24.703 59.17,39.141 l 2.77,-2.57 c -13.38,-21.039 -33.31,-37.02 -54.8,-49.68 -1.46,-0.82 -3.23,-1.789 -5.6,-2.527 -2.29,-0.743 -5.63,-1.063 -8.54,-0.25 -5.75,1.847 -7.38,3.75 -10.11,5.179 l -15.22,9.867 -14.97,10.262 c -4.99,3.43 -10.27,6.399 -12.62,13.981 l 2.02,3.191"
               style="fill:#b46ebe;fill-opacity:1;fill-rule:nonzero;stroke:none"
               id="path170" /><path
               d="m 824.137,1234 c -24.028,37.51 -48.617,74.53 -73.707,111.01 -42.418,61.67 -89.137,120.78 -142.735,173.17 -46.535,45.48 -108.316,109.15 -177.105,112.75 -136.16,7.13 -93.758,-190.43 -77.781,-266.82 42.312,-202.28 156.39,-381.188 281.586,-542.18 129.144,-166.059 266.488,-326.039 405.745,-483.559 115.25,-130.07 237.65,-269.6718 381.24,-367.3905 6.13,-4.1719 12.8,-8.5 20.21,-8.3008 13.44,0.3594 22.03,16.2187 20.02,29.51952 C 1459.6,5.5 1450.49,16.4492 1441.89,26.8008 1368.57,115.012 1307.27,213.16 1259.94,317.629 1190.67,470.488 1142.69,632.102 1072,784.281 999.805,939.68 916.566,1089.74 824.137,1234"
               style="fill:#a050ae;fill-opacity:1;fill-rule:nonzero;stroke:none"
               id="path172" /><path
               d="M 1453.91,-36.1484 C 1390.82,17.582 1343.28,86.2695 1293.32,151.02 1242.47,215.5 1191.5,280.262 1143.88,347.422 1047.06,481.09 972.047,628.43 893.961,772.852 c -19.477,36.187 -39.176,72.25 -59.477,107.91 -20.425,35.597 -41.613,70.769 -63.257,105.66 -43.633,69.568 -89.008,138.058 -135.805,205.608 -46.789,67.55 -94.727,134.32 -142.824,201 -48.5,66.44 -92.641,136.43 -128.184,210.71 -0.289,0.6 -0.035,1.31 0.563,1.6 0.593,0.28 1.304,0.04 1.597,-0.55 36.492,-73.64 81.801,-142.44 130.453,-208.54 48.59,-66.33 97.039,-132.77 144.371,-200.05 47.293,-67.3 93.512,-135.41 137.036,-205.278 21.699,-34.973 42.937,-70.242 63.425,-105.942 20.379,-35.789 40.094,-71.878 59.586,-108.089 78.172,-144.571 152.965,-291.442 249.385,-424.532 47.51,-66.98 98.28,-131.5 149.24,-196.097 50.44,-65.0823 97,-132.8401 155.46,-190.6409 0.48,-0.4609 0.48,-1.2227 0.02,-1.6992 -0.44,-0.4532 -1.16,-0.4727 -1.64,-0.0703"
               style="fill:#5055ae;fill-opacity:1;fill-rule:nonzero;stroke:none"
               id="path174" /><path
               d="m 333.723,1498.86 c 9.863,-1.53 18.726,-4.93 27.64,-8.38 8.914,-3.39 17.934,-6.52 27.032,-9.37 18.183,-5.81 36.777,-10.09 55.425,-14.02 l -5.289,-2.67 c 22.66,46.49 39.762,95.4 54.625,145.19 0.188,0.64 0.86,1.01 1.492,0.82 0.59,-0.18 0.942,-0.77 0.84,-1.36 -8.804,-51.51 -26.254,-101.34 -48.23,-148.8 -0.93,-2.01 -3.082,-3.06 -5.164,-2.69 l -0.125,0.02 c -19.156,3.43 -37.914,8.79 -56.383,14.82 -9.223,3.06 -18.348,6.4 -27.367,10.01 -9.028,3.56 -17.887,7.7 -25.504,14.25 -0.524,0.45 -0.586,1.24 -0.137,1.76 0.293,0.33 0.735,0.48 1.145,0.42"
               style="fill:#5055ae;fill-opacity:1;fill-rule:nonzero;stroke:none"
               id="path176" /><path
               d="m 353.73,1358.94 c 18.129,-1.92 35.129,-7.08 52.239,-12.02 l 51.316,-14.75 c 17.238,-4.41 34.649,-8.15 51.957,-12.25 l 6.492,-1.57 c 2.348,-0.55 4.754,-1.27 6.86,-1.96 l 12.695,-4.19 c 4.176,-1.33 8.359,-2.59 12.422,-3.43 1.988,-0.39 4.07,-0.78 5.73,-0.78 1.93,0.06 1.797,0.03 2.938,0.88 2.117,2.02 4.148,5.92 5.726,9.72 1.622,3.89 2.993,8.02 4.266,12.2 2.539,8.29 4.578,17.18 7.531,25.84 l 16.121,50.82 c 9.68,34.22 18.04,68.83 24.739,103.88 0.121,0.65 0.75,1.08 1.398,0.96 0.625,-0.12 1.043,-0.7 0.969,-1.32 -4.156,-35.52 -10.676,-70.85 -19.785,-105.52 -4.867,-17.23 -10.004,-34.41 -15.199,-51.58 -2.719,-8.28 -4.571,-16.84 -7.145,-25.64 -1.277,-4.37 -2.672,-8.75 -4.434,-13.12 -1.875,-4.35 -3.652,-8.79 -7.906,-13.09 -1.254,-1 -2.461,-2.17 -4.465,-2.74 -2.039,-0.71 -3.355,-0.6 -4.828,-0.67 -2.808,0.01 -5.14,0.47 -7.527,0.89 -4.688,0.93 -9.07,2.21 -13.418,3.53 l -12.777,4.06 c -2.145,0.67 -4.02,1.2 -6.024,1.66 l -6.535,1.52 c -17.375,4.32 -34.844,8.27 -52.137,12.89 l -51.441,15.39 c -17.149,5.1 -34.406,9.99 -50.528,18.11 -0.601,0.3 -0.839,1.03 -0.542,1.63 0.234,0.46 0.722,0.71 1.21,0.66 l 0.082,-0.01"
               style="fill:#5055ae;fill-opacity:1;fill-rule:nonzero;stroke:none"
               id="path178" /><path
               d="m 427.848,1142.59 c 20.277,3.32 40.718,2.8 61.011,1.68 20.317,-1.01 40.594,-2.57 60.821,-4.47 40.355,-4.06 80.949,-8.18 120.59,-15.21 4.597,-0.43 8.793,-0.28 11.703,1.8 3.039,1.91 5.425,5.65 7.132,9.93 l 10.5,28.35 21.122,56.96 c 13.781,37.94 26.765,76.32 31.328,116.55 0.074,0.66 0.664,1.13 1.324,1.06 0.637,-0.07 1.098,-0.63 1.07,-1.25 -2.004,-40.81 -13.351,-80.6 -26.566,-118.89 l -20.113,-57.42 -10.332,-28.76 c -2.012,-5.03 -4.958,-10.51 -10.481,-14.21 -5.586,-3.84 -12.277,-3.83 -17.59,-3.38 -11,1.36 -19.914,3.63 -30.176,4.52 l -30.164,3.62 c -20.082,2.55 -40.16,4.99 -60.265,7.07 -20.106,2.08 -40.231,3.82 -60.379,5.02 -20.168,1.1 -40.266,1.69 -60.512,4.63 -0.664,0.09 -1.129,0.71 -1.031,1.37 0.078,0.54 0.5,0.95 1.008,1.03"
               style="fill:#5055ae;fill-opacity:1;fill-rule:nonzero;stroke:none"
               id="path180" /><path
               d="m 527.777,970.109 c 21.914,4.922 44.207,5.661 66.426,6.141 22.238,0.531 44.485,0.48 66.727,-0.129 44.48,-1.051 88.886,-5.019 132.933,-11.23 l -4.996,-3.25 32.785,110.139 c 11.028,36.68 22.524,73.23 34.34,109.68 0.203,0.63 0.879,0.98 1.512,0.77 0.605,-0.19 0.949,-0.83 0.793,-1.44 -9.484,-37.13 -19.281,-74.16 -29.551,-111.07 L 797.633,959.109 c -0.617,-2.199 -2.738,-3.55 -4.934,-3.257 h -0.062 c -43.813,5.668 -87.879,9.089 -132.012,10.878 -22.07,0.821 -44.164,1.071 -66.254,0.758 -22.101,-0.367 -44.113,-1.597 -66.422,0.231 -0.668,0.051 -1.168,0.633 -1.113,1.301 0.043,0.55 0.441,0.98 0.941,1.089"
               style="fill:#5055ae;fill-opacity:1;fill-rule:nonzero;stroke:none"
               id="path182" /><path
               d="m 647.363,810.25 c 19.567,1.371 38.813,0.039 58.125,-0.969 19.309,-0.91 38.633,-1.461 57.961,-1.64 38.653,-0.243 77.297,0.687 115.899,2.718 l -4.078,-3.031 c 13.734,36.371 26.082,73.25 37.699,110.371 11.383,37.18 22.16,74.582 31.996,112.291 0.168,0.65 0.82,1.03 1.465,0.86 0.617,-0.16 0.992,-0.77 0.875,-1.39 -7.328,-38.319 -16.258,-76.39 -27.055,-113.929 -10.57,-37.601 -22.891,-74.711 -36.258,-111.429 -0.637,-1.774 -2.246,-2.903 -4.008,-3.032 h -0.066 c -38.801,-2.718 -77.727,-3.601 -116.602,-2.73 -19.445,0.371 -38.871,1.121 -58.281,2.23 -19.41,1.008 -38.84,2.43 -57.887,7.289 -0.648,0.161 -1.043,0.832 -0.878,1.481 0.132,0.519 0.585,0.871 1.093,0.91"
               style="fill:#5055ae;fill-opacity:1;fill-rule:nonzero;stroke:none"
               id="path184" /><path
               d="m 756.105,668.102 c 16.204,3.429 32.485,4.07 48.774,4.527 l 48.855,1.66 48.86,1.652 c 16.285,0.649 32.582,0.821 48.871,1.25 l -4.348,-3.203 c 11.875,35.864 23.403,71.84 35.563,107.614 11.953,35.839 24.39,71.539 37.35,107.097 0.2,0.641 0.88,0.981 1.51,0.781 0.6,-0.191 0.93,-0.871 0.79,-1.468 -10.23,-36.403 -20.99,-72.684 -32.232,-108.801 -11.032,-36.191 -22.696,-72.191 -34.012,-108.301 -0.598,-1.898 -2.32,-3.129 -4.207,-3.191 h -0.145 c -16.289,-0.5 -32.57,-1.25 -48.863,-1.528 L 854,665.07 805.129,663.949 c -16.289,-0.469 -32.586,-0.758 -48.957,1.75 -0.664,0.102 -1.121,0.731 -1.02,1.391 0.078,0.512 0.469,0.898 0.953,1.012"
               style="fill:#5055ae;fill-opacity:1;fill-rule:nonzero;stroke:none"
               id="path186" /><path
               d="m 877.656,527.582 c 14.571,2.25 29,1.039 43.352,-0.383 14.367,-1.371 28.715,-3.019 43.019,-4.969 28.629,-3.8 57.093,-8.878 85.203,-15.539 l -5.32,-2.703 c 11.91,28.071 23.57,56.25 35.79,84.203 11.98,28.047 24.53,55.868 37.45,83.571 0.26,0.609 0.97,0.898 1.58,0.636 0.58,-0.25 0.85,-0.929 0.66,-1.519 -10.43,-28.699 -21.24,-57.277 -32.61,-85.629 -11.14,-28.441 -22.83,-56.668 -34.27,-85 -0.84,-2.07 -3.04,-3.191 -5.16,-2.738 l -0.17,0.039 c -28,5.937 -56.149,11.211 -84.453,15.5 -14.161,2.109 -28.368,3.937 -42.598,5.488 -14.254,1.492 -28.488,2.633 -42.617,6.652 -0.657,0.18 -1.032,0.86 -0.848,1.508 0.133,0.481 0.535,0.813 0.992,0.883"
               style="fill:#5055ae;fill-opacity:1;fill-rule:nonzero;stroke:none"
               id="path188" /><path
               d="m 1010.02,371.039 c 11.26,1.723 22.19,0.563 33.1,-0.711 l 32.76,-3.558 c 21.84,-2.348 43.69,-4.661 65.47,-7.551 l -4.92,-2.91 c 9.65,22.812 18.09,46.089 26.31,69.461 7.98,23.441 15.61,47.039 22.84,70.839 0.19,0.641 0.86,0.993 1.5,0.801 0.59,-0.18 0.94,-0.769 0.83,-1.359 -4.51,-24.531 -10.45,-48.821 -17.79,-72.68 -7.11,-23.941 -15.77,-47.402 -24.94,-70.633 -0.78,-1.976 -2.77,-3.129 -4.79,-2.918 l -0.14,0.012 c -21.86,2.219 -43.65,5.02 -65.45,7.77 l -32.69,4.097 c -10.91,1.281 -21.81,2.68 -32.37,6.949 -0.63,0.262 -0.94,0.981 -0.68,1.622 0.17,0.429 0.54,0.699 0.96,0.769"
               style="fill:#5055ae;fill-opacity:1;fill-rule:nonzero;stroke:none"
               id="path190" /><path
               d="m 1136.7,231.352 c 8.42,2.179 16.34,1.089 24.36,0.5 8.01,-0.602 16.03,-1 24.04,-1.321 16.03,-0.66 32.08,-0.922 48.13,-0.761 l 5.46,0.121 c 0.27,0.16 -0.8,-0.512 -0.47,-0.332 0.13,0.113 0.66,1.179 1.07,2.019 1.74,3.442 3.28,6.992 4.6,10.66 2.67,7.332 4.83,14.953 6.66,22.75 1.8,7.793 3.51,15.703 5.57,23.602 1.02,3.941 2.02,7.898 3.33,11.789 0.61,1.953 1.29,3.891 1.99,5.82 l 0.51,1.442 c 0.04,0.32 0.73,1.64 1.27,1.929 0.6,0.469 1.2,0.782 1.99,0.942 0.42,0.027 0.82,0.226 1.71,-0.231 1.06,-0.742 0.74,-1.91 0.59,-2.179 -0.31,-0.582 -1.04,-0.813 -1.62,-0.5 -0.42,0.218 -0.65,0.648 -0.64,1.097 l 0.01,0.223 c 0,0.18 -0.23,-0.363 0.36,-0.82 0.43,-0.204 0.29,-0.114 0.23,-0.18 -0.19,-0.094 -0.49,-0.313 -0.64,-0.512 -0.18,-0.101 -0.22,-1.078 -0.49,-2.14 -0.41,-1.961 -0.79,-3.938 -1.12,-5.918 l -1.92,-11.883 c -1.14,-7.969 -2.19,-16 -3.7,-24.039 -1.45,-8.032 -3.12,-16.168 -5.89,-24.09 -1.32,-3.961 -2.91,-7.891 -4.72,-11.719 -0.48,-0.973 -0.73,-1.781 -1.76,-3.332 -0.8,-1.519 -3.71,-3.367 -5.47,-3.437 -3.13,-0.332 -4.37,-0.243 -6.65,-0.383 -16.29,-0.75 -32.62,-0.598 -48.89,0.41 -8.13,0.531 -16.25,1.293 -24.35,2.18 -8.09,0.902 -16.25,1.613 -23.86,5.91 -0.63,0.351 -0.85,1.14 -0.5,1.769 0.18,0.313 0.48,0.532 0.81,0.614"
               style="fill:#5055ae;fill-opacity:1;fill-rule:nonzero;stroke:none"
               id="path192" /><path
               d="m 1926.72,2308.37 c -3.89,65.46 -8.71,130.73 -14.42,195.69 -9.66,109.82 -25.75,219.57 -53.73,325.89 -24.3,92.32 -54.53,219.04 -129.74,274.68 -148.88,110.13 -223.16,-172.25 -252.35,-281.14 -77.3,-288.32 -59.37,-600.23 -17.85,-897.62 42.83,-306.77 98.64,-611.91 158.12,-915.35 49.41,-250.75 100.98,-518.918 202.27,-749.61 4.33,-9.84 9.16,-20.308 17.63,-25.551 15.36,-9.507 34.82,4.243 40.77,22.629 5.95,18.383 2.46,39.063 -0.83,58.582 -28.06,166.461 -36.46,336.621 -25.22,504.442 16.43,245.558 62.23,486.438 76.63,732.178 14.71,250.97 13.68,503.33 -1.28,755.18"
               style="fill:#a050ae;fill-opacity:1;fill-rule:nonzero;stroke:none"
               id="path194" /><path
               d="m 1851.12,227.762 c -38.26,115.617 -49.14,237.668 -65.62,357.047 -17.56,119.589 -35.04,239.57 -47.31,360.101 -26.86,241.29 -20.36,484.33 -18.6,726.02 0.48,60.48 0.65,120.96 -0.12,181.36 -0.94,60.42 -3.01,120.82 -5.76,181.2 -5.98,120.74 -14.79,241.36 -25.72,361.82 -10.91,120.46 -23.6,240.78 -36.53,361.08 -13.54,120.31 -19.95,241.75 -14.03,362.76 0.04,0.91 0.81,1.61 1.73,1.57 0.9,-0.04 1.59,-0.81 1.56,-1.71 -4.35,-120.89 4.27,-241.76 18.22,-361.79 13.75,-120.22 27.28,-240.49 39.03,-360.97 11.7,-120.49 21.64,-241.2 27.67,-362.18 2.9,-60.49 5.11,-121.02 6.19,-181.58 0.92,-60.6 0.89,-121.13 0.54,-181.64 -0.66,-121.04 -2.25,-242 -0.65,-362.88 0.68,-60.43 2.05,-120.87 5.17,-181.14 3.08,-60.3 8.02,-120.52 14.02,-180.631 11.99,-120.277 29.14,-239.91 46.47,-359.758 16.42,-120.043 26.99,-240.531 56.91,-357.75 0.23,-0.882 -0.31,-1.781 -1.19,-2.011 -0.84,-0.219 -1.7,0.269 -1.98,1.082"
               style="fill:#5055ae;fill-opacity:1;fill-rule:nonzero;stroke:none"
               id="path196" /><path
               d="m 1538.36,3008.67 c 10.5,-9.34 18.26,-20.24 26.15,-31.13 7.94,-10.83 16.18,-21.43 24.72,-31.79 8.57,-10.33 17.2,-20.6 26.24,-30.5 9.07,-9.89 18.28,-19.64 27.72,-29.16 l -8.74,0.46 c 27.52,21.38 53.52,44.66 78.7,68.82 25.11,24.26 49.17,49.6 72.8,75.56 0.62,0.67 1.66,0.73 2.34,0.11 0.62,-0.57 0.71,-1.5 0.24,-2.18 -20.34,-28.76 -43.14,-55.81 -67.66,-81.2 -24.44,-25.49 -50.8,-49.11 -78.19,-71.45 -2.59,-2.1 -6.3,-1.9 -8.64,0.35 l -0.11,0.11 c -9.86,9.48 -19.38,19.32 -28.46,29.54 -9.1,10.22 -18.02,20.59 -26.4,31.39 -8.42,10.77 -16.52,21.78 -24.3,33 -7.85,11.16 -15.2,22.76 -19.19,36.31 -0.27,0.9 0.25,1.86 1.16,2.13 0.58,0.17 1.19,0.01 1.62,-0.37"
               style="fill:#5055ae;fill-opacity:1;fill-rule:nonzero;stroke:none"
               id="path198" /><path
               d="m 1474.49,2816.1 c 18.78,-16.49 34.12,-35.62 50.05,-54.32 15.94,-18.67 32.18,-37.1 48.7,-55.26 l 50.55,-53.55 c 4.25,-4.64 8.2,-8.62 12.75,-13.96 l 11.58,-14.55 c 3.8,-4.76 7.62,-9.44 11.59,-13.76 1.98,-2.13 4.01,-4.26 6.03,-5.98 1.8,-1.77 4.63,-3.3 4.47,-3.15 1.51,-0.32 7.34,2.74 11.37,6.38 4.38,3.68 8.58,7.94 12.67,12.32 8.26,8.75 15.82,18.43 24.77,27.62 l 50.42,53.51 c 32.46,36.74 63.48,74.84 92.71,114.43 0.54,0.74 1.58,0.89 2.31,0.35 0.7,-0.52 0.87,-1.49 0.41,-2.21 -26.37,-41.68 -55.51,-81.75 -87.55,-119.4 -16.39,-18.5 -33.03,-36.8 -49.75,-55.03 -8.16,-8.54 -15.69,-18.37 -24.22,-27.65 -4.26,-4.64 -8.65,-9.24 -13.66,-13.54 -2.57,-2.13 -5.22,-4.22 -8.39,-6.08 -3.18,-1.73 -6.98,-3.76 -12.62,-3.38 -6.3,1.3 -8.46,3.9 -11.3,6.03 -2.69,2.25 -4.93,4.58 -7.17,6.92 -4.41,4.7 -8.42,9.51 -12.36,14.33 l -11.58,14.22 c -3.43,4.02 -8.2,8.75 -12.28,13.17 l -50.26,54.4 c -16.41,18.45 -32.53,37.14 -48.35,56.08 -15.84,18.92 -31.67,37.91 -43.48,60.01 -0.43,0.81 -0.13,1.83 0.69,2.26 0.63,0.35 1.39,0.23 1.9,-0.21"
               style="fill:#5055ae;fill-opacity:1;fill-rule:nonzero;stroke:none"
               id="path200" /><path
               d="m 1424.31,2486.3 c 25.63,-11.22 48.25,-27.37 70.48,-43.78 22.27,-16.39 44.07,-33.39 65.56,-50.74 42.71,-34.96 85.52,-69.95 125.25,-107.93 4.84,-4.2 9.8,-7.17 14.15,-7.13 4.37,0.01 9.48,2.91 14.08,7.12 l 29.6,28.48 59.5,57.22 c 39.31,38.28 77.56,77.87 106.85,124.46 0.48,0.77 1.5,1 2.27,0.52 0.74,-0.46 0.98,-1.42 0.57,-2.18 -26.43,-48.8 -63.5,-91.13 -102.34,-130.2 l -58.55,-58.41 c -9.91,-9.71 -19.37,-19.3 -29.66,-29.11 -5.44,-4.92 -12.62,-10.15 -22.25,-10.47 -9.68,0.04 -16.98,5.41 -22.47,9.94 -5.63,4.77 -10.45,9.71 -15.39,14.34 -4.82,4.62 -9.96,8.86 -15.28,13.41 l -31.45,26.75 c -20.83,17.98 -41.74,35.82 -62.96,53.28 -21.21,17.46 -42.7,34.55 -64.63,51.02 -21.98,16.48 -44.46,31.98 -65.12,50.64 -0.68,0.61 -0.74,1.67 -0.12,2.36 0.49,0.55 1.27,0.69 1.91,0.41"
               style="fill:#5055ae;fill-opacity:1;fill-rule:nonzero;stroke:none"
               id="path202" /><path
               d="m 1430.28,2193.06 c 28.62,-10.44 54.25,-26.49 79.81,-42.41 25.54,-15.98 50.66,-32.66 75.32,-49.98 24.62,-17.37 48.98,-35.16 72.51,-53.99 23.55,-18.81 46.62,-38.22 69.17,-58.2 l -8.81,-0.53 c 34.87,38.68 69.79,77.32 105.02,115.67 l 53.04,57.37 c 17.64,19.15 35.77,37.87 53.65,56.81 0.63,0.67 1.67,0.7 2.33,0.07 0.64,-0.6 0.69,-1.6 0.13,-2.26 -16.83,-19.89 -33.41,-39.99 -50.48,-59.66 l -51.1,-59.1 c -34.18,-39.29 -68.68,-78.3 -103.24,-117.26 -2.27,-2.57 -6.18,-2.82 -8.76,-0.58 l -0.05,0.04 c -22.59,19.62 -45.68,38.66 -69.23,57.09 -23.58,18.4 -47.29,36.64 -71.65,54.01 -24.31,17.42 -49.08,34.21 -74.29,50.32 -25.2,16.18 -51.18,30.86 -74.98,49.71 -0.73,0.57 -0.85,1.62 -0.28,2.35 0.46,0.58 1.23,0.77 1.89,0.53"
               style="fill:#5055ae;fill-opacity:1;fill-rule:nonzero;stroke:none"
               id="path204" /><path
               d="m 1466.18,1901.25 c 23.2,-12.88 43.73,-28.94 64.79,-44.41 21.08,-15.42 42.44,-30.44 64.09,-45.04 21.65,-14.6 43.58,-28.77 65.79,-42.5 22.08,-13.91 44.39,-27.47 67,-40.53 l -7.6,-0.94 c 38.29,36.35 75.12,74.23 111.17,112.84 35.8,38.84 70.97,78.31 105.18,118.71 0.59,0.7 1.63,0.78 2.33,0.2 0.67,-0.57 0.77,-1.55 0.26,-2.25 -31.47,-42.65 -64.74,-84.05 -100.03,-123.67 -35.05,-39.86 -72,-78.03 -110.04,-115.05 -2.07,-2.01 -5.15,-2.34 -7.55,-0.99 l -0.06,0.04 c -22.89,12.93 -45.53,26.27 -67.86,40.13 -22.22,14.05 -44.15,28.54 -65.79,43.45 -21.63,14.91 -42.98,30.24 -64.02,45.97 -21.05,15.69 -42.03,31.6 -59.72,51.47 -0.61,0.69 -0.56,1.75 0.14,2.36 0.54,0.48 1.32,0.54 1.92,0.21"
               style="fill:#5055ae;fill-opacity:1;fill-rule:nonzero;stroke:none"
               id="path206" /><path
               d="m 1500.8,1640 c 20.75,-8.06 39.51,-19.33 58.13,-30.84 l 56.06,-34.2 56.06,-34.2 c 18.75,-11.3 37.18,-23.11 55.78,-34.67 l -8.07,-0.96 c 35.55,36.77 70.74,73.89 106.59,110.39 35.64,36.7 71.77,72.95 108.5,108.69 l 0.05,0.05 c 0.65,0.64 1.7,0.62 2.33,-0.03 0.6,-0.62 0.62,-1.6 0.05,-2.24 -33.82,-38.43 -68.24,-76.38 -103.16,-113.86 -34.71,-37.69 -70.08,-74.76 -105.09,-112.17 -2.08,-2.22 -5.39,-2.6 -7.89,-1.07 l -0.17,0.11 c -18.65,11.46 -37.46,22.65 -55.96,34.36 l -55.67,34.82 -55.68,34.83 c -18.63,11.49 -37.11,23.22 -53.6,38.18 -0.68,0.62 -0.73,1.68 -0.11,2.37 0.48,0.53 1.22,0.68 1.85,0.44"
               style="fill:#5055ae;fill-opacity:1;fill-rule:nonzero;stroke:none"
               id="path208" /><path
               d="m 1550.86,1371.29 c 18.45,-8.43 34.02,-20.85 49.4,-33.37 15.42,-12.49 30.6,-25.3 45.52,-38.4 14.91,-13.1 29.57,-26.5 43.97,-40.18 14.28,-13.8 28.16,-28 41.83,-42.39 l -8.79,0.43 c 30.76,26.86 61.31,53.96 92.37,80.48 30.84,26.79 62.27,52.92 94.05,78.73 l 0.05,0.04 c 0.71,0.57 1.75,0.47 2.32,-0.24 0.54,-0.67 0.47,-1.63 -0.13,-2.22 -29.35,-28.48 -59.04,-56.65 -89.33,-84.15 -30.05,-27.76 -60.63,-54.96 -90.99,-82.39 -2.5,-2.26 -6.32,-2.12 -8.64,0.27 l -0.16,0.16 c -13.73,14.11 -27.78,27.89 -41.98,41.52 -14.09,13.75 -28.45,27.22 -43.06,40.41 -14.62,13.18 -29.5,26.08 -44.63,38.67 -15.18,12.56 -30.68,24.61 -43.79,40 -0.6,0.71 -0.52,1.78 0.19,2.39 0.52,0.43 1.22,0.51 1.8,0.24"
               style="fill:#5055ae;fill-opacity:1;fill-rule:nonzero;stroke:none"
               id="path210" /><path
               d="m 1603.19,1074.21 c 14.2,-6.51 25.74,-16.19 37.3,-25.82 l 34.86,-28.72 c 23.09,-19.3 46.15,-38.658 68.88,-58.408 l -8.51,-0.121 c 25.21,22.058 49.2,45.469 72.94,69.149 23.51,23.9 46.58,48.28 69.4,73.06 0.62,0.67 1.66,0.71 2.33,0.09 0.63,-0.57 0.71,-1.51 0.22,-2.18 -19.81,-27.33 -41.32,-53.48 -64.26,-78.31 -22.72,-25.04 -47.06,-48.579 -71.97,-71.47 -2.38,-2.179 -5.97,-2.218 -8.39,-0.218 l -0.13,0.097 c -23.24,19.141 -46.16,38.661 -69.04,58.241 l -34.11,29.59 c -11.42,9.81 -22.87,19.58 -31.66,32.5 -0.53,0.79 -0.32,1.85 0.46,2.38 0.51,0.35 1.15,0.38 1.68,0.14"
               style="fill:#5055ae;fill-opacity:1;fill-rule:nonzero;stroke:none"
               id="path212" /><path
               d="m 1659.53,802.77 c 11.2,-3.809 19.34,-11 27.97,-17.688 8.61,-6.691 17.39,-13.16 26.24,-19.523 17.65,-12.778 35.64,-25.071 53.95,-36.879 l 6.14,-3.86 c 0.08,-0.031 -0.38,0.149 -1.03,0.071 -0.57,-0.071 -0.73,-0.231 -0.58,-0.141 0.29,0.102 1.67,1.191 2.61,1.93 4.17,3.101 8.08,6.621 11.88,10.289 7.54,7.402 14.62,15.543 21.46,23.992 6.78,8.5 13.52,17.18 20.68,25.641 3.58,4.226 7.13,8.488 11.02,12.476 1.9,2.031 3.86,4.012 5.85,5.953 l 1.49,1.469 c 0.2,0.328 1.74,1.621 2.74,1.648 1.1,0.223 2.08,0.161 3.17,-0.257 0.51,-0.262 1.24,-0.493 1.79,-1.661 0.51,-1.41 -0.36,-2.441 -0.76,-2.769 -0.68,-0.57 -1.69,-0.492 -2.26,0.187 -0.4,0.481 -0.47,1.114 -0.26,1.641 l 0.22,0.531 c 0.05,0.141 -0.38,-0.199 -0.16,-0.941 0.27,-0.539 0.32,-0.418 0.21,-0.449 -0.21,0.011 -0.66,-0.032 -0.89,-0.18 -0.03,0.141 -0.89,-1.25 -1.77,-2.32 -1.66,-2.16 -3.27,-4.348 -4.83,-6.59 l -9.33,-13.442 c -6.07,-9.078 -12.07,-18.296 -18.62,-27.269 -6.51,-8.988 -13.25,-18.008 -21.3,-26.098 -4,-4.07 -8.17,-8.019 -12.72,-11.601 -1.22,-0.95 -1.9,-1.7 -4,-2.989 -1.03,-0.589 -2.48,-1.3 -4.43,-1.511 -2.02,-0.219 -3.86,0.3 -5.04,0.8 -2.47,1.122 -3.14,1.731 -4.44,2.442 l -3.56,2.137 c -19.06,11.312 -37.46,23.711 -55.13,37.07 -8.82,6.711 -17.44,13.68 -25.94,20.762 -8.48,7.089 -17.18,14.019 -22.54,24.648 -0.45,0.871 -0.09,1.949 0.78,2.391 0.45,0.218 0.95,0.242 1.39,0.09"
               style="fill:#5055ae;fill-opacity:1;fill-rule:nonzero;stroke:none"
               id="path214" /><path
               d="m 1713.87,576.398 c 9.89,-0.546 17.23,-5.597 24.7,-10.289 7.47,-4.73 14.87,-9.578 22.06,-14.738 14.38,-10.312 28.02,-21.621 40.89,-33.742 l -9.07,-0.57 c 10.95,12.242 20.33,25.863 28.79,40.07 8.25,14.351 15.65,29.293 22.14,44.891 0.35,0.839 1.32,1.242 2.17,0.902 0.73,-0.313 1.13,-1.094 0.99,-1.84 -3.07,-16.82 -8.48,-33.363 -16.16,-48.832 -7.46,-15.602 -17.15,-30.148 -28.3,-43.512 -2.21,-2.648 -6.16,-3.008 -8.81,-0.797 l -0.04,0.039 -0.22,0.192 c -13.1,11.258 -26.54,22.066 -40.28,32.508 -6.86,5.218 -13.77,10.39 -20.87,15.32 -7.08,4.969 -14.53,9.199 -19.68,17.559 -0.54,0.871 -0.27,2.019 0.6,2.562 0.34,0.211 0.72,0.301 1.09,0.277"
               style="fill:#5055ae;fill-opacity:1;fill-rule:nonzero;stroke:none"
               id="path216" /><path
               d="m 1768.28,403.738 c 6.28,2.782 11.16,1 16.19,-0.316 l 15.09,-3.973 14.96,-4.379 c 1.25,-0.39 2.55,-0.832 2.97,-0.898 0.61,-0.082 -0.15,-0.063 -0.31,-0.242 -0.11,-0.301 1.64,1.422 3.21,3.511 12.92,15.508 22.93,33 33.94,50.789 0.48,0.79 1.51,1.032 2.3,0.551 0.61,-0.371 0.89,-1.07 0.78,-1.73 -3.84,-21.031 -14.12,-40.332 -26.73,-57.621 -1.65,-1.91 -2.87,-4.75 -7.66,-7.481 -2.51,-1.359 -5.99,-1.48 -7.92,-1.051 -2.14,0.403 -3.3,0.821 -4.53,1.172 l -14.87,4.668 -14.75,5.09 c -4.91,1.703 -9.96,2.942 -13.63,8.75 -0.64,1.024 -0.34,2.363 0.68,3.012 0.09,0.051 0.19,0.109 0.28,0.148"
               style="fill:#5055ae;fill-opacity:1;fill-rule:nonzero;stroke:none"
               id="path218" /><path
               d="m 1137.36,2387.99 c -2.99,1.91 -6.64,3.89 -9.91,2.48 -0.16,-0.07 -0.29,-0.19 -0.44,-0.27 -1.87,-1.02 -3.1,-2.98 -4.04,-4.93 -6,-12.4 -6.33,-26.93 -3.58,-40.43 1.33,-6.52 3.35,-12.84 5.69,-19.07 1.38,3.8 3.49,7.18 6.76,9.62 9.23,6.89 22.35,3.1 32.75,-1.85 21.04,-10 40.47,-23.88 55.18,-41.94 2.5,-3.08 4.86,-6.32 6.96,-9.71 -8,49.58 -49.06,80.43 -89.37,106.1"
               style="fill:#86d6d6;fill-opacity:1;fill-rule:nonzero;stroke:none"
               id="path220" /><path
               d="m 2114.81,2129.05 c -34.26,-4.43 -68.76,-3.11 -97.09,2.85 -26.87,5.64 -51.42,16.06 -72.97,30.28 -5.87,-27.12 -16.45,-53.21 -31.22,-76.65 -7.19,-11.4 -15.32,-22.18 -24.43,-32.13 -23.64,-25.82 -53.55,-45.88 -86.36,-58.01 -33.28,-65.61 -56.85,-137.13 -50.44,-208.97 41.96,28.32 88.26,50.87 133.97,71.33 67.21,30.09 137.05,61.04 192.19,108.4 -1.77,6.55 -3.36,13.07 -4.59,19.55 -12.38,65.17 8.43,106.71 40.94,143.35"
               style="fill:#f78fc9;fill-opacity:1;fill-rule:nonzero;stroke:none"
               id="path222" /><path
               d="m 1882.62,2090.93 c -33.25,0.16 -60.27,-11.74 -85.02,-28.34 -35.5,-23.8 -66.32,-57.26 -104.12,-78.66 2.66,-24.4 8.17,-48.5 16.37,-71.63 -31.54,-0.41 -63.07,-0.83 -94.61,-1.24 20.45,-72.4 31.65,-147.37 33.52,-222.57 4.74,7.31 9.77,14.47 15.36,21.38 25.14,31.02 55.33,56.73 88.18,78.9 -6.41,71.84 17.16,143.37 50.44,208.97 32.81,12.13 62.72,32.2 86.36,58.02 9.11,9.94 17.24,20.73 24.43,32.12 -10.27,1.6 -20.54,3 -30.91,3.05"
               style="fill:#fffcfe;fill-opacity:1;fill-rule:nonzero;stroke:none"
               id="path224" /><path
               d="m 1318.34,2261.84 c -5.46,22.85 -10.92,45.71 -16.38,68.57 -13.02,10.25 -22.13,25.51 -24.33,41.97 3.91,-0.55 7.8,-1.25 11.69,-1.89 -9.49,56.03 -18.97,112.05 -28.46,168.08 -21.89,-5.03 -44.26,-7.99 -66.72,-8.71 -0.67,-0.02 -1.36,-0.02 -2.04,-0.04 2.73,-22.12 6.83,-44.16 12.21,-65.84 16.22,-6.6 31.99,-14.31 47.15,-23.1 6.9,-4 14.61,-10.03 13.62,-17.95 -0.69,-5.61 -5.9,-9.81 -11.39,-11.15 -5.49,-1.35 -11.25,-0.44 -16.82,0.48 -6.35,1.04 -12.7,2.08 -19.05,3.12 0.47,-2 0.93,-4.02 1.4,-6.03 5.58,-24.12 10.45,-48.26 15.46,-72.35 8.4,-40.33 17.19,-80.51 30.46,-120.17 6.34,-18.98 13.51,-38.22 26.48,-53.46 5.07,-5.97 12.1,-11.62 19.87,-10.6 10.81,1.43 15.71,14.27 16.92,25.11 3.14,28.16 -3.49,56.39 -10.07,83.96"
               style="fill:#e0e2f4;fill-opacity:1;fill-rule:nonzero;stroke:none"
               id="path226" /><path
               d="m 2259.98,2395.94 c -8.02,55.56 -77.58,80.43 -104.3,131.52 -21.09,40.3 -46.62,78.11 -67.61,118.49 -8.86,-40.13 -43.7,-70.86 -82.52,-84.38 -38.16,-13.29 -83.1,-14.35 -124.28,-5.71 -31.68,-80.45 -42.84,-176.54 -25.47,-258.77 11.84,-56.05 43.77,-102.76 88.95,-132.55 21.55,-14.22 46.1,-24.64 72.97,-30.29 28.33,-5.95 62.83,-7.28 97.09,-2.84 4.84,5.46 9.92,10.82 15.21,16.11 24.22,24.27 52.39,47.55 77.73,75.76 41.19,45.85 61.02,111.62 52.23,172.66"
               style="fill:#f794c4;fill-opacity:1;fill-rule:nonzero;stroke:none"
               id="path228" /><path
               d="m 2119.03,1874.44 c -17.72,30.81 -32.09,62.75 -40.57,94.07 -55.14,-47.36 -124.98,-78.31 -192.19,-108.4 -45.71,-20.46 -92.01,-43.02 -133.97,-71.34 -32.85,-22.17 -63.04,-47.88 -88.18,-78.9 -5.59,-6.91 -10.62,-14.07 -15.36,-21.38 -2.43,-3.73 -4.75,-7.5 -6.96,-11.33 2.34,1.91 4.72,3.75 7.11,5.6 9.43,7.32 19.2,14.23 29.33,20.56 79.06,49.31 213.63,85.38 296.13,26.81 0.81,37.78 -2.45,75.65 -9.69,112.74 26.98,-19.31 55.27,-36.79 84.61,-52.26 22.36,22.28 49.32,51.51 69.74,83.83"
               style="fill:#fffcfe;fill-opacity:1;fill-rule:nonzero;stroke:none"
               id="path230" /><path
               d="m 1234.47,2261.96 c -1.03,7.13 -3.93,13.78 -7.74,19.93 -2.1,3.39 -4.46,6.63 -6.96,9.71 -14.71,18.06 -34.14,31.94 -55.18,41.94 -10.4,4.95 -23.52,8.74 -32.75,1.85 -3.27,-2.44 -5.38,-5.82 -6.76,-9.62 -1.85,-5.07 -2.34,-10.9 -2.13,-16.36 0.54,-13.99 4.15,-27.81 10.3,-40.39 1.61,3.32 3.92,6.43 7.31,9.16 8.91,7.2 21.94,5.48 32.9,2.18 22.32,-6.71 43.66,-19.59 58.47,-37.23 2.58,5.8 3.45,12.51 2.54,18.83"
               style="fill:#76d1ca;fill-opacity:1;fill-rule:nonzero;stroke:none"
               id="path232" /><path
               d="m 1766.73,1340.97 c 48.12,1.71 102.97,6.91 148.03,28.79 0.75,14.88 2.29,37.62 -4.31,48.28 -14.64,-13.69 -32.88,-23.58 -52.47,-27.92 -13.36,-2.95 -27.12,-3.44 -40.79,-3.92 -35.5,-1.24 -71.75,-2.39 -105.79,7.78 -21.47,6.41 -41.79,17.22 -63.06,23.73 -4.45,-1.17 -8.9,-2.38 -13.32,-3.7 10.64,-12.58 21.29,-25.17 31.93,-37.75 3.32,-3.93 6.69,-7.91 8.82,-12.59 1.66,-3.64 2.5,-7.52 2.92,-11.49 27.5,-12.22 58.15,-12.28 88.04,-11.21"
               style="fill:#fffeff;fill-opacity:1;fill-rule:nonzero;stroke:none"
               id="path234" /><path
               d="m 2484.8,1202.3 c -25.61,119.16 -55.05,236.36 -83.24,354.22 -7.12,29.78 -14.32,59.73 -22.41,89.38 -61.7,17.72 -119.7,53.55 -160.23,96.17 -34.51,36.28 -71.43,82.86 -99.89,132.37 -20.42,-32.32 -47.38,-61.55 -69.74,-83.83 -29.34,15.47 -57.63,32.95 -84.61,52.26 7.24,-37.09 10.5,-74.96 9.69,-112.74 -82.5,58.57 -217.07,22.5 -296.13,-26.81 -10.13,-6.33 -19.9,-13.24 -29.33,-20.56 -2.39,-1.85 -4.77,-3.69 -7.11,-5.6 -37.39,-64.69 -45.4,-142.48 -43.41,-216.84 5.73,-213.64 74.18,-418.69 100.3,-629.699 8.58,-69.301 14.18,-139 25.37,-207.93 21.7,-133.66 64.1,-262.742 109.7,-390.453 54.78,-0.386 109.48,-3.199 163.75,-8.218 135.6,-12.559 269.89,-38.641 400.84,-75.848 13.14,-3.731 26.52,-7.481 40.02,-11.32 -58.39,238.886 -130.96,475.277 -237.31,697.429 -24.47,51.141 -51.97,100.278 -79.98,149.16 -22.76,39.749 -34.52,90.959 -42.63,138.569 -7.59,5.14 -15.17,10.29 -22.76,15.43 -10.1,6.85 -20.88,13.94 -33.06,14.59 -11.19,0.6 -21.95,-4.38 -31.31,-10.55 -16.96,-11.15 -31.77,-26.82 -51.43,-31.88 -9.16,-2.37 -18.77,-2.23 -28.2,-1.52 -1.51,0.12 -3.02,0.29 -4.53,0.44 -0.53,-5.2 -1.07,-10.4 -1.6,-15.61 -0.19,-1.9 -0.41,-3.86 -1.31,-5.54 -1.3,-2.41 -3.8,-3.89 -6.21,-5.19 -46.8,-25.13 -103.54,-25.11 -155.4,-13.6 -17.04,3.78 -34.03,8.82 -49,17.79 -2.67,1.6 -5.36,3.42 -6.96,6.08 -1.69,2.83 -1.95,6.27 -2.17,9.56 -5.1,78.75 -6.93,157.72 -5.49,236.62 0.08,4.5 0.14,9.09 -0.33,13.55 -0.42,3.97 -1.26,7.85 -2.92,11.49 -2.13,4.68 -5.5,8.66 -8.82,12.59 -10.64,12.58 -21.29,25.17 -31.93,37.75 4.42,1.32 8.87,2.53 13.32,3.7 78.41,20.56 161.48,17.55 242.28,8.79 5.45,-0.59 11.1,-1.27 15.76,-4.18 1.62,-1.01 2.96,-2.48 4.07,-4.28 6.6,-10.66 5.06,-33.4 4.31,-48.28 -0.17,-3.58 -0.31,-6.74 -0.27,-9.12 0.09,-5.05 0.11,-10.1 0.16,-15.15 4.85,-4.1 9.69,-8.2 14.54,-12.31 7.47,-6.33 14.99,-12.69 23.41,-17.69 7.93,-4.71 16.55,-8.14 25.12,-11.55 15.65,-6.21 31.29,-12.43 46.93,-18.65 13.18,-5.24 26.46,-10.5 40.39,-13.15 4.73,-0.89 9.5,-1.41 14.29,-1.79 7.08,32.53 15.84,64.7 26.33,96.3 10.53,31.7 26.66,58.92 41.97,87.56 6.86,-21.59 14.26,-42.94 23.61,-63.75 13.89,-30.91 30.65,-60.69 52.05,-87.07 7.3,-9 13.88,-18.35 21.2,-27.14 2.54,-3.06 4.9,-6.66 4.72,-10.63 -0.41,-9.18 -48.36,-11.41 -53.2,-7.08 34.52,-30.81 1.69,-107.37 -19.44,-137.08 -6.17,-8.68 -13.4,-16.92 -21.97,-23.11 41.08,-34.37 90.77,-58.33 143.11,-69.62 53.18,-11.47 134.68,-17.6 173.93,28.81 32.48,38.4 23.73,95.59 13.16,144.76"
               style="fill:#ffffff;fill-opacity:1;fill-rule:nonzero;stroke:none"
               id="path236" /><path
               d="m 2196.01,1258.54 c -4.03,3.59 -8.91,6.6 -14.89,8.79 -7.95,2.93 -16.63,2.89 -25.1,2.8 -15.72,-0.15 -31.43,-0.3 -47.14,-0.45 -9.86,-0.09 -19.75,-0.11 -29.55,0.67 -4.79,0.38 -9.56,0.9 -14.29,1.79 -13.93,2.65 -27.21,7.91 -40.39,13.15 -15.64,6.22 -31.28,12.44 -46.93,18.65 -8.57,3.41 -17.19,6.84 -25.12,11.55 -8.42,5 -15.94,11.36 -23.41,17.69 -4.85,4.11 -9.69,8.21 -14.54,12.31 0.13,-13.1 0.3,-26.2 0.52,-39.3 -20.11,1.26 -40.75,-2.9 -60.45,-5.6 -26.7,-3.66 -53.36,-7.62 -79.96,-11.88 -14.07,-2.25 -28.82,-4.89 -39.83,-13.91 -6.26,-5.13 -10.96,-14.64 -6.03,-21.05 3.93,-5.11 11.48,-5.1 17.91,-4.73 21.12,1.23 42.29,1.27 63.42,0.26 12.71,-0.61 34.87,6.53 46.45,1.11 1.96,-0.92 3.58,-2.95 3.31,-5.11 -0.45,-3.52 -4.91,-4.61 -8.41,-5.19 -21.63,-3.55 -40.58,-11.35 -63.2,-10.58 -22.77,0.77 -45.42,7 -65.06,18.62 -2.94,1.73 -6.41,3.65 -9.57,2.36 -4.49,-1.83 -4.33,-8.6 -1.5,-12.54 2.82,-3.94 7.3,-6.48 10.02,-10.5 4.53,-6.7 3.23,-15.79 6.38,-23.24 3.68,-8.71 12.2,-12.98 18.42,-19.52 5.45,-5.72 7.08,-12.66 12.36,-18.28 6.67,-7.11 14.93,-12.5 23.1,-17.81 18.28,-11.88 36.53,-15.81 56.35,-23.46 22.03,-8.51 44.78,-14.37 68.28,-16.62 1.51,-0.15 3.02,-0.32 4.53,-0.44 9.43,-0.71 19.04,-0.85 28.2,1.52 19.66,5.06 34.47,20.73 51.43,31.88 9.36,6.17 20.12,11.15 31.31,10.55 12.18,-0.65 22.96,-7.74 33.06,-14.59 7.59,-5.14 15.17,-10.29 22.76,-15.43 13.2,-8.95 26.4,-17.9 39.6,-26.85 3.9,-2.65 8,-5.37 12.69,-5.92 3.68,-0.43 7.39,0.54 10.85,1.88 4.68,1.81 8.98,4.31 13.01,7.23 8.57,6.19 15.8,14.43 21.97,23.11 21.13,29.71 53.96,106.27 19.44,137.08"
               style="fill:#9adde1;fill-opacity:1;fill-rule:nonzero;stroke:none"
               id="path238" /><path
               d="m 2713.54,2225.63 c -61.17,72.09 -138.37,134.51 -181.7,220.05 -33.5,66.15 -33.72,141.29 -65.39,208.09 -59.03,124.52 -197.22,233.12 -340.01,174.86 -8.8,-3.59 -17.56,-7.81 -27.02,-8.73 -9.34,-0.91 -18.64,1.47 -27.93,2.86 -56.25,8.43 -111.53,-19.63 -157.63,-52.96 -114.98,-83.12 -191.03,-199.12 -235.75,-332.35 -30.9,-92.06 -56.35,-186.66 -63.64,-283.49 -3.66,-48.63 -2.47,-97.95 4.64,-146.2 26.47,24.53 56.32,44.43 93.83,53.98 27.62,7.03 56.89,7.22 84.66,0.85 24.75,16.6 51.77,28.5 85.02,28.34 10.37,-0.05 20.64,-1.45 30.91,-3.05 14.77,23.44 25.35,49.54 31.22,76.66 -45.18,29.79 -77.11,76.5 -88.95,132.55 -17.37,82.23 -6.21,178.32 25.47,258.77 41.18,-8.64 86.12,-7.58 124.28,5.71 38.82,13.52 73.66,44.25 82.52,84.38 20.99,-40.38 46.52,-78.19 67.61,-118.49 26.72,-51.09 96.28,-75.96 104.3,-131.52 8.79,-61.04 -11.04,-126.81 -52.23,-172.66 -25.34,-28.21 -53.51,-51.49 -77.73,-75.76 -5.29,-5.29 -10.37,-10.65 -15.21,-16.11 -32.51,-36.64 -53.32,-78.18 -40.94,-143.36 1.23,-6.47 2.82,-13 4.59,-19.54 8.48,-31.32 22.85,-63.26 40.57,-94.07 28.46,-49.51 65.38,-96.09 99.89,-132.37 40.53,-42.62 98.53,-78.45 160.23,-96.17 69.2,-19.86 143.06,-16.92 202.14,24.92 42.41,30.03 75.58,70.92 117.35,101.67 39.52,29.09 86.5,46.14 115.49,88.13 80.48,116.55 -24.97,275.87 -100.59,365.01"
               style="fill:#131c2c;fill-opacity:1;fill-rule:nonzero;stroke:none"
               id="path240" /><path
               d="m 1734.93,1274.8 c 11.01,9.02 25.76,11.66 39.83,13.91 26.6,4.26 53.26,8.22 79.96,11.88 19.7,2.7 40.34,6.86 60.45,5.6 -0.22,13.1 -0.39,26.2 -0.52,39.3 -0.05,5.05 -0.07,10.1 -0.16,15.15 -0.04,2.38 0.1,5.54 0.27,9.12 -45.06,-21.88 -99.91,-27.08 -148.03,-28.79 -29.89,-1.07 -60.54,-1.01 -88.04,11.21 0.47,-4.46 0.41,-9.05 0.33,-13.55 -1.44,-78.9 0.39,-157.87 5.49,-236.62 0.22,-3.29 0.48,-6.73 2.17,-9.56 1.6,-2.66 4.29,-4.48 6.96,-6.08 14.97,-8.97 31.96,-14.01 49,-17.79 51.86,-11.51 108.6,-11.53 155.4,13.6 2.41,1.3 4.91,2.78 6.21,5.19 0.9,1.68 1.12,3.64 1.31,5.54 0.53,5.21 1.07,10.41 1.6,15.61 -23.5,2.25 -46.25,8.11 -68.28,16.62 -19.82,7.65 -38.07,11.58 -56.35,23.46 -8.17,5.31 -16.43,10.7 -23.1,17.81 -5.28,5.62 -6.91,12.56 -12.36,18.28 -6.22,6.54 -14.74,10.81 -18.42,19.52 -3.15,7.45 -1.85,16.54 -6.38,23.24 -2.72,4.02 -7.2,6.56 -10.02,10.5 -2.83,3.94 -2.99,10.71 1.5,12.54 3.16,1.29 6.63,-0.63 9.57,-2.36 19.64,-11.62 42.29,-17.85 65.06,-18.62 22.62,-0.77 41.57,7.03 63.2,10.58 3.5,0.58 7.96,1.67 8.41,5.19 0.27,2.16 -1.35,4.19 -3.31,5.11 -11.58,5.42 -33.74,-1.72 -46.45,-1.11 -21.13,1.01 -42.3,0.97 -63.42,-0.26 -6.43,-0.37 -13.98,-0.38 -17.91,4.73 -4.93,6.41 -0.23,15.92 6.03,21.05"
               style="fill:#a555b1;fill-opacity:1;fill-rule:nonzero;stroke:none"
               id="path242" /><path
               d="m 1817.19,1386.2 c 13.67,0.48 27.43,0.97 40.79,3.92 19.59,4.34 37.83,14.23 52.47,27.92 -1.11,1.8 -2.45,3.27 -4.07,4.28 -4.66,2.91 -10.31,3.59 -15.76,4.18 -80.8,8.76 -163.87,11.77 -242.28,-8.79 21.27,-6.51 41.59,-17.32 63.06,-23.73 34.04,-10.17 70.29,-9.02 105.79,-7.78"
               style="fill:#ffffff;fill-opacity:1;fill-rule:nonzero;stroke:none"
               id="path244" /><path
               d="m 1362.47,2341.27 c -8.02,14.2 -25.45,19.67 -41.37,23.21 -10.52,2.35 -21.13,4.28 -31.78,6.01 -3.89,0.64 -7.78,1.34 -11.69,1.89 2.2,-16.46 11.31,-31.72 24.33,-41.97 5.46,-22.86 10.92,-45.72 16.38,-68.57 6.58,-27.57 13.21,-55.8 10.07,-83.96 -1.21,-10.84 -6.11,-23.68 -16.92,-25.11 -7.77,-1.02 -14.8,4.63 -19.87,10.6 -12.97,15.24 -20.14,34.48 -26.48,53.46 -13.27,39.66 -22.06,79.84 -30.46,120.17 -0.34,0.11 -0.7,0.19 -1.05,0.3 -13.09,4.26 -23.54,14.55 -30.71,26.3 -7.19,11.75 -11.48,24.99 -15.72,38.08 -1.92,5.96 -2.9,14.26 2.81,16.82 2.28,1.02 4.91,0.64 7.38,0.23 6.81,-1.11 13.62,-2.23 20.43,-3.35 6.35,-1.04 12.7,-2.08 19.05,-3.12 5.57,-0.92 11.33,-1.83 16.82,-0.48 5.49,1.34 10.7,5.54 11.39,11.15 0.99,7.92 -6.72,13.95 -13.62,17.95 -15.16,8.79 -30.93,16.5 -47.15,23.1 -5.82,2.37 -11.68,4.61 -17.61,6.68 -4.11,1.44 -8.38,2.83 -12.72,2.49 -6.21,-0.48 -11.56,-4.36 -16.54,-8.1 -12.37,-9.28 -25.43,-19.52 -30.07,-34.26 -2.89,-9.17 -2.13,-19.04 -1.34,-28.62 0.32,-3.99 0.65,-7.99 0.98,-11.97 0.15,0.08 0.28,0.2 0.44,0.27 3.27,1.41 6.92,-0.57 9.91,-2.48 40.31,-25.67 81.37,-56.52 89.37,-106.1 3.81,-6.15 6.71,-12.8 7.74,-19.93 0.91,-6.32 0.04,-13.03 -2.54,-18.83 8.32,-9.92 14.6,-21.32 17.79,-34.01 -9.94,-4.65 -21.79,-2.69 -31.92,1.49 -10.14,4.19 -19.32,10.44 -29.45,14.64 -16.77,6.96 -36.04,8.38 -53.63,12.74 3.85,-9.6 9.7,-18.66 14.69,-25.26 14.95,-19.76 31.82,-38.04 50.23,-54.61 -5.55,-82.97 -39.29,-156.24 -69.59,-233.7 -1.61,-4.13 -3.26,-8.51 -2.52,-12.87 0.76,-4.5 3.9,-8.19 6.91,-11.61 2.91,-3.3 5.85,-6.62 8.84,-9.92 21.36,-23.65 44.97,-46.4 75.43,-54.43 35.07,-9.25 72.47,3.18 103.77,21.56 0.07,0.04 0.15,0.09 0.23,0.13 4.7,2.77 9.51,5.87 12.15,10.64 3.02,5.45 2.67,12.06 2.28,18.28 -4.43,70.67 -0.53,140.05 5.41,210.4 5.45,64.63 -0.68,128.66 17.59,192.28 4.97,17.29 11.17,36.72 2.33,52.39"
               style="fill:#9adde1;fill-opacity:1;fill-rule:nonzero;stroke:none"
               id="path246" /><path
               d="M 1536.83,1144.86 C 1474.96,908.059 1416.61,670.5 1378.7,428.301 1364.78,339.352 1353.17,250.039 1343.82,160.5 c 157.33,51.621 323.94,72.949 489.94,71.738 -45.6,127.711 -88,256.793 -109.7,390.453 -11.19,68.93 -16.79,138.629 -25.37,207.93 -26.12,211.009 -94.57,416.059 -100.3,629.699 -1.99,74.36 6.02,152.15 43.41,216.84 2.21,3.83 4.53,7.6 6.96,11.33 -1.87,75.2 -13.07,150.17 -33.52,222.57 31.54,0.41 63.07,0.83 94.61,1.24 -8.2,23.13 -13.71,47.23 -16.37,71.63 37.8,21.4 68.62,54.86 104.12,78.66 -27.77,6.37 -57.04,6.18 -84.66,-0.85 -37.51,-9.55 -67.36,-29.45 -93.83,-53.98 -42.13,-39.02 -75.68,-89.79 -117.73,-129.41 -49.42,-46.56 -104.32,-87.31 -163.23,-121.07 -3.52,33.53 -8.76,66.87 -15.67,99.87 -31.3,-18.38 -68.7,-30.81 -103.77,-21.56 -30.46,8.03 -54.07,30.78 -75.43,54.43 -3.42,-6.68 -6.16,-13.6 -7.82,-20.86 -6.89,-30.17 -11.36,-58.93 -22.54,-88.23 -19.43,-50.9 -65.69,-114.72 -62.35,-170.48 3.45,-57.67 11.08,-120.96 35.09,-174.13 3.87,-8.55 8.35,-17.17 15.64,-23.07 10.5,-8.5 24.94,-9.92 38.45,-10.17 70.7,-1.29 140.37,19.98 203.8,51.23 53.39,26.3 102.91,59.55 151.66,93.79 3.99,-103.81 20.65,-207.86 41.89,-309.68 4.03,-19.31 8.25,-38.91 6.7,-58.58 -0.94,-11.87 -3.96,-23.46 -6.97,-34.98"
               style="fill:#ffffff;fill-opacity:1;fill-rule:nonzero;stroke:none"
               id="path248" /><path
               d="m 1231.93,2243.13 c -14.81,17.64 -36.15,30.52 -58.47,37.23 -10.96,3.3 -23.99,5.02 -32.9,-2.18 -3.39,-2.73 -5.7,-5.84 -7.31,-9.16 -4.51,-9.33 -2.77,-20.48 1.47,-31.03 17.59,-4.36 36.86,-5.78 53.63,-12.74 10.13,-4.2 19.31,-10.45 29.45,-14.64 10.13,-4.18 21.98,-6.14 31.92,-1.49 -3.19,12.69 -9.47,24.09 -17.79,34.01"
               style="fill:#9adde1;fill-opacity:1;fill-rule:nonzero;stroke:none"
               id="path250" /><path
               d="m 1175.7,2557.83 c -1.3,-0.42 -2.79,-0.8 -4.34,-1.22 -7.31,-1.97 -15.99,-4.6 -12.74,-14.02 0.72,-2.1 2.23,-3.84 3.91,-5.29 7.88,-6.81 19.06,-7.69 29.57,-7.48 0.68,0.02 1.37,0.02 2.04,0.04 22.46,0.72 44.83,3.68 66.72,8.71 0.96,0.22 1.92,0.38 2.87,0.6 7.49,1.79 16.25,5.18 17.68,12.75 7.68,40.91 -91.44,10.48 -105.71,5.91"
               style="fill:#fffeff;fill-opacity:1;fill-rule:nonzero;stroke:none"
               id="path252" /><path
               d="m 1301.96,2330.41 c -13.02,10.25 -22.13,25.51 -24.33,41.97 3.91,-0.55 7.8,-1.25 11.69,-1.89 -7.14,42.17 -14.28,84.34 -21.42,126.51 -24.04,-1.44 -48.3,0.54 -71.75,5.99 2.28,-13.09 4.96,-26.11 8.16,-39.01 16.22,-6.6 31.99,-14.31 47.15,-23.1 6.9,-4 14.61,-10.03 13.62,-17.95 -0.69,-5.61 -5.9,-9.81 -11.39,-11.15 -5.49,-1.35 -11.25,-0.44 -16.82,0.48 -6.35,1.04 -12.7,2.08 -19.05,3.12 0.47,-2 0.93,-4.02 1.4,-6.03 5.58,-24.12 10.45,-48.26 15.46,-72.35 8.4,-40.33 17.19,-80.51 30.46,-120.17 6.34,-18.98 13.51,-38.22 26.48,-53.46 5.07,-5.97 12.1,-11.62 19.87,-10.6 10.81,1.43 15.71,14.27 16.92,25.11 3.14,28.16 -3.49,56.39 -10.07,83.96 -5.46,22.85 -10.92,45.71 -16.38,68.57"
               style="fill:#a555b1;fill-opacity:1;fill-rule:nonzero;stroke:none"
               id="path254" /><path
               d="m 2251.45,1264.28 c 5.26,1.42 10.65,2.43 16.05,3.03 5.42,0.38 10.86,0.44 16.3,0.55 l 16.3,-0.69 16.23,-1.7 c 21.58,-2.84 42.79,-8.51 62.92,-16.76 20.14,-8.18 39.44,-18.6 56.86,-31.58 17.44,-12.89 33.5,-27.77 46.71,-44.9 0.27,-0.34 0.2,-0.83 -0.14,-1.1 -0.32,-0.25 -0.78,-0.2 -1.05,0.09 -14.58,15.74 -30.61,30.05 -48.27,42.04 -17.68,11.91 -36.5,22.11 -56.35,29.83 -19.84,7.66 -40.5,13.19 -61.53,16.38 l -15.85,1.85 -15.92,0.86 c -5.33,-0.05 -10.64,-0.14 -15.97,0.07 -5.32,-0.25 -10.66,-0.09 -16.12,0.48 h -0.05 c -0.43,0.05 -0.74,0.44 -0.7,0.87 0.03,0.34 0.27,0.6 0.58,0.68"
               style="fill:#e1def2;fill-opacity:1;fill-rule:nonzero;stroke:none"
               id="path256" /><path
               d="m 1333.62,1760.53 c 3.36,-12.66 4.58,-25.58 5.64,-38.51 1.01,-12.93 1.79,-25.88 2.31,-38.86 1.03,-25.94 0.59,-52 -2.08,-77.9 -2.6,-25.88 -7.05,-51.69 -14.8,-76.58 -7.64,-24.88 -17.94,-49.07 -32.01,-70.93 -0.23,-0.36 -0.71,-0.46 -1.08,-0.23 -0.34,0.22 -0.45,0.67 -0.26,1.03 12.3,22.69 22.05,46.64 28.79,71.45 6.66,24.82 11.08,50.21 13.34,75.83 2.19,25.62 2.65,51.39 2.05,77.14 -0.4,12.88 -1.05,25.76 -1.92,38.63 -0.98,12.86 -2.15,25.69 -1.53,38.76 0.02,0.44 0.38,0.77 0.82,0.75 0.35,-0.01 0.64,-0.26 0.73,-0.58"
               style="fill:#e1def2;fill-opacity:1;fill-rule:nonzero;stroke:none"
               id="path258" /><path
               d="m 2065.19,1469.62 c 0.8,5.19 2.09,10.26 3.59,15.25 1.74,4.9 3.75,9.7 5.69,14.53 l 6.43,14.22 7.01,13.95 c 9.66,18.46 21.01,36.02 33.85,52.41 25.5,32.86 56.48,61.71 91.96,83.21 0.36,0.23 0.85,0.11 1.07,-0.26 0.21,-0.35 0.11,-0.8 -0.21,-1.04 -33.31,-24.3 -63.22,-52.92 -88.01,-85.6 -12.3,-16.39 -23.45,-33.62 -33.32,-51.58 l -7.07,-13.65 -6.5,-13.92 c -4.03,-9.44 -7.71,-18.94 -13,-28.02 -0.21,-0.38 -0.7,-0.53 -1.08,-0.32 -0.3,0.16 -0.44,0.51 -0.41,0.82"
               style="fill:#e1def2;fill-opacity:1;fill-rule:nonzero;stroke:none"
               id="path260" /><path
               d="m 2070.13,833.359 13.19,-62.257 -245.36,-10.672 v 65.82 l 232.17,7.109"
               style="fill:#e1def2;fill-opacity:1;fill-rule:nonzero;stroke:none"
               id="path262" /><path
               d="m 1449.37,806.77 c -2.44,-6.782 -17.78,-63.629 -11.57,-61.18 6.21,2.449 123.2,1.14 123.2,1.14 l 11.73,62.071 -123.36,-2.031"
               style="fill:#e1def2;fill-opacity:1;fill-rule:nonzero;stroke:none"
               id="path264" /><path
               d="m 1230.76,2250.62 c -10.93,11.11 -22.03,22.28 -35.23,30.57 -13.2,8.3 -28.86,13.58 -44.34,11.71 -8.48,-1.02 -16.66,-4.25 -23.64,-9.17 1.57,-5.03 3.39,-9.98 5.7,-14.71 1.61,3.32 3.92,6.43 7.31,9.16 8.91,7.2 21.94,5.48 32.9,2.18 22.32,-6.71 43.66,-19.59 58.47,-37.23 0.65,1.47 1.19,2.99 1.62,4.56 -0.92,0.99 -1.86,1.97 -2.79,2.93"
               style="fill:#55b7af;fill-opacity:1;fill-rule:nonzero;stroke:none"
               id="path266" /><path
               d="m 1135.85,2344.3 c -5.23,-1.35 -10.14,-3.74 -14.59,-6.8 1.12,-3.96 2.37,-7.87 3.82,-11.73 1.38,3.8 3.49,7.18 6.76,9.62 9.23,6.89 22.35,3.1 32.75,-1.85 21.04,-10 40.47,-23.88 55.18,-41.94 2.5,-3.08 4.86,-6.32 6.96,-9.71 -0.73,4.52 -1.82,8.83 -3.07,13.04 -5.37,6.06 -10.84,12.03 -16.49,17.84 -18.73,19.3 -42.59,39 -71.32,31.53"
               style="fill:#55b7af;fill-opacity:1;fill-rule:nonzero;stroke:none"
               id="path268" /><path
               d="m 1233.31,2246.9 c 2.45,-5.06 5.14,-8.95 8.55,-13.52 1.69,-2.23 3.49,-4.49 5.15,-7.04 1.62,-2.56 3.33,-5.71 3.22,-9.67 -0.4,-3.53 -1.86,-7.74 -5.55,-9.65 -3.3,-1.8 -6.83,-2.33 -9.89,-2.16 -6.28,0.24 -11.94,1.86 -17.47,3.68 -22.15,7.31 -40.45,21.39 -62.79,24.79 l 0.1,1.55 c 11.57,0.07 22.93,-3.54 33.38,-7.97 10.58,-4.33 20.62,-9.38 31.18,-12.62 5.24,-1.6 10.65,-2.93 15.71,-2.99 2.58,-0.21 4.85,0.36 6.5,1.18 1.72,0.7 2.1,2.61 2.55,4.49 0.29,3.67 -3.52,8.46 -6.71,13.01 -3.22,4.41 -7.28,10.39 -5.49,16.84 l 1.56,0.08"
               style="fill:#55b7af;fill-opacity:1;fill-rule:nonzero;stroke:none"
               id="path270" /><path
               d="m 1724.06,622.691 c -11.19,68.93 -16.79,138.629 -25.37,207.93 -26.12,211.009 -94.57,416.059 -100.3,629.699 -1.99,74.36 6.02,152.15 43.41,216.84 2.21,3.83 4.53,7.6 6.96,11.33 -0.17,6.51 -0.49,13.02 -0.8,19.53 -104.71,-169.44 -48.89,-383.93 -14.2,-566.23 17.29,-90.79 34.07,-181.688 50.34,-272.669 15.63,-87.43 16.11,-177.351 32.57,-265.32 16.55,-88.473 35.09,-176.699 45.28,-266.211 4.02,-35.258 6.87,-71.07 13.36,-105.899 19.48,0.5 38.97,0.7 58.45,0.547 -45.6,127.711 -88,256.793 -109.7,390.453"
               style="fill:#e1def2;fill-opacity:1;fill-rule:nonzero;stroke:none"
               id="path272" /><path
               d="m 1901.31,1749.55 c 14.6,-2.48 28.92,-6.54 42.63,-12.12 13.99,-5.7 22,-13.55 33.05,-23.5 5.83,31.94 7.13,64.66 0.68,96.57 23.91,-8.59 46.71,-25.53 67.81,-39.52 28.22,29.68 55.46,62.42 71.08,99.75 -20.09,-30.83 -45.78,-58.71 -67.27,-80.12 -29.34,15.47 -57.63,32.95 -84.61,52.26 7.24,-37.09 10.5,-74.96 9.69,-112.74 -82.5,58.57 -217.07,22.5 -296.13,-26.81 -7.38,-4.61 -14.5,-9.61 -21.5,-14.76 50.54,25.02 102.72,49.14 158.51,59.34 28.36,5.19 57.56,6.49 86.06,1.65"
               style="fill:#e1def2;fill-opacity:1;fill-rule:nonzero;stroke:none"
               id="path274" /><path
               d="m 2079.39,1114.92 c -0.17,0.55 -0.17,1.62 -0.16,2.77 -0.26,1.43 -0.53,2.89 -0.78,4.32 0.25,-1.43 0.52,-2.89 0.78,-4.32 0,1.8 -0.02,3.8 -0.78,4.32 -7.59,5.14 -15.17,10.29 -22.76,15.43 -10.1,6.85 -20.88,13.94 -33.06,14.59 -11.19,0.6 -21.95,-4.38 -31.31,-10.55 -16.96,-11.15 -31.77,-26.82 -51.43,-31.88 -9.16,-2.37 -18.77,-2.23 -28.2,-1.52 -1.51,0.12 -3.02,0.29 -4.53,0.44 -0.53,-5.2 -1.07,-10.4 -1.6,-15.61 -0.19,-1.9 -0.41,-3.86 -1.31,-5.54 -1.3,-2.41 -3.8,-3.89 -6.21,-5.19 -46.8,-25.13 -103.54,-25.11 -155.4,-13.6 -17.04,3.78 -34.03,8.82 -49,17.79 -2.67,1.6 -5.36,3.42 -6.96,6.08 -1.69,2.83 -1.95,6.27 -2.17,9.56 -5.1,78.75 -6.93,157.72 -5.49,236.62 0.08,4.5 0.14,9.09 -0.33,13.55 -0.42,3.97 -1.26,7.85 -2.92,11.49 -2.13,4.68 -5.5,8.66 -8.82,12.59 -10.64,12.58 -21.29,25.17 -31.93,37.75 4.42,1.32 8.87,2.53 13.32,3.7 78.41,20.56 161.48,17.55 242.28,8.79 5.45,-0.59 11.1,-1.27 15.76,-4.18 1.62,-1.01 2.96,-2.48 4.07,-4.28 6.6,-10.66 5.06,-33.4 4.31,-48.28 -0.17,-3.58 -0.31,-6.74 -0.27,-9.12 0.09,-5.05 0.11,-10.1 0.16,-15.15 4.85,-4.1 9.69,-8.2 14.54,-12.31 7.47,-6.33 14.99,-12.69 23.41,-17.69 7.93,-4.71 16.55,-8.14 25.12,-11.55 15.65,-6.21 31.29,-12.43 46.93,-18.65 13.18,-5.24 26.46,-10.5 40.39,-13.15 4.73,-0.89 9.5,-1.41 14.29,-1.79 1.13,5.2 2.37,10.36 3.59,15.54 -45.43,3.53 -89.17,31.69 -128.67,53.03 -6.55,3.54 -13.32,7.26 -17.78,13.23 -13.39,17.98 0.39,45.74 -10.82,65.16 -6.15,10.68 -18.41,16.11 -30.09,20.06 -85.8,29.06 -180.4,14.92 -267.06,-11.49 -3.46,-1.05 -7.52,-2.82 -7.93,-6.41 -0.26,-2.35 1.24,-4.5 2.66,-6.39 11.74,-15.61 26.26,-31.08 36.33,-47.72 8.63,-14.27 9.3,-33.04 9.94,-49.34 1.5,-38.64 2.03,-77.31 1.6,-115.98 -0.21,-18.55 -0.68,-37.1 -1.18,-55.64 -0.43,-15.72 -3.38,-33.6 4.32,-48.11 5.7,-10.73 16.58,-17.74 27.74,-22.53 48.9,-21.01 100.02,-30.37 152.23,-16.45 35.74,9.54 66.44,25.23 104.65,19.03 43.65,-7.08 89.56,-22.61 128.55,-43.52 4.07,-2.18 8.21,-4.52 12.78,-5.24 0.41,-0.06 0.83,-0.02 1.25,-0.06 -9.7,27.55 -16.35,57.29 -21.49,86.14 -0.17,0.43 -0.42,0.8 -0.56,1.26"
               style="fill:#e1def2;fill-opacity:1;fill-rule:nonzero;stroke:none"
               id="path276" /><path
               d="m 1651.48,1419.4 c 19.58,-11.17 40.76,-19.18 62.71,-23.86 21.92,-4.72 44.35,-7.04 66.8,-7.47 22.46,-0.16 45.08,0.23 66.97,4.28 10.94,2.09 21.73,5.03 31.9,9.39 10.25,4.32 19.51,10.01 29.07,16.12 l 1.08,-1.14 c -7.07,-9.28 -17.3,-15.71 -27.9,-20.2 -10.59,-4.68 -21.73,-7.84 -32.99,-10.11 -22.6,-4.6 -45.56,-5 -68.28,-4.39 -22.76,0.75 -45.62,3.09 -67.75,8.9 -22.1,5.58 -43.68,14.2 -62.45,27.16 l 0.84,1.32"
               style="fill:#e1def2;fill-opacity:1;fill-rule:nonzero;stroke:none"
               id="path278" /><path
               d="m 1745.69,2031.58 c -19.75,-17.49 -40.67,-33.64 -62.59,-48.3 -1.77,-1.19 -3.68,-2.53 -4.27,-4.58 -0.51,-1.77 0.09,-3.65 0.67,-5.39 6.08,-17.93 12.16,-35.87 18.23,-53.8 -33.84,-0.26 -67.68,-0.52 -101.52,-0.78 17.71,-34.95 25.19,-74.08 31.14,-112.81 6.54,-42.56 11.43,-85.37 14.74,-128.3 2.12,3.66 4.34,7.29 6.67,10.87 -1.87,75.2 -13.07,150.17 -33.52,222.57 31.54,0.41 63.07,0.83 94.61,1.24 -8.2,23.13 -13.71,47.23 -16.37,71.63 37.8,21.4 68.62,54.86 104.12,78.66 -4.76,1.1 -9.59,1.93 -14.42,2.63 -11.07,-12.6 -26.31,-23.74 -37.49,-33.64"
               style="fill:#e1def2;fill-opacity:1;fill-rule:nonzero;stroke:none"
               id="path280" /><path
               d="m 1647.93,1708.76 c 0.32,-6.75 0.65,-13.51 0.83,-20.27 4.74,7.31 9.77,14.47 15.36,21.38 25.14,31.02 55.33,56.73 88.18,78.9 -0.3,3.39 -0.47,6.77 -0.64,10.15 -27.25,-15.6 -53.63,-32.69 -75.61,-54.95 -10.57,-10.71 -20,-22.54 -28.12,-35.21"
               style="fill:#e1def2;fill-opacity:1;fill-rule:nonzero;stroke:none"
               id="path282" /><path
               d="m 1988.05,2057.23 c 28.67,0.21 57.41,0.44 86.12,1.21 6.73,28.46 21.66,51.58 40.64,72.97 -34.26,-4.44 -68.76,-3.11 -97.09,2.84 -26.87,5.65 -51.42,16.07 -72.97,30.29 -5.87,-27.12 -16.45,-53.22 -31.22,-76.66 -5.57,-8.83 -11.72,-17.27 -18.44,-25.27 30.21,-5.55 62.07,-5.61 92.96,-5.38"
               style="fill:#ee7aad;fill-opacity:1;fill-rule:nonzero;stroke:none"
               id="path284" /><path
               d="m 1766.19,1819.07 c -7.75,6.57 -6.66,18.63 -4.72,28.59 9.96,50.91 24.84,100.84 44.26,148.94 -1,-0.39 -1.98,-0.84 -2.99,-1.21 -33.28,-65.61 -56.85,-137.14 -50.44,-208.97 14.09,9.5 28.69,18.31 43.56,26.66 -3.44,0.37 -6.88,0.76 -10.33,0.96 -6.77,0.38 -14.16,0.64 -19.34,5.03"
               style="fill:#ee7aad;fill-opacity:1;fill-rule:nonzero;stroke:none"
               id="path286" /><path
               d="m 2144.73,1475.56 c -5.09,-1.31 -8.1,-6.41 -10.55,-11.07 -20.78,-39.39 -41.69,-79.11 -54.18,-121.86 -6.73,-23.02 -10.86,-47.12 -11.09,-71.08 3.45,-0.51 6.93,-0.92 10.42,-1.2 7.08,32.53 15.84,64.7 26.33,96.3 10.53,31.7 26.66,58.92 41.97,87.56 6.86,-21.59 14.26,-42.94 23.61,-63.75 13.56,-30.17 29.89,-59.24 50.55,-85.14 -24.94,47.96 -44.7,98.62 -58.58,150.87 -2.56,9.63 -8.82,21.84 -18.48,19.37"
               style="fill:#e1def2;fill-opacity:1;fill-rule:nonzero;stroke:none"
               id="path288" /><path
               d="m 1904.16,2288.69 c 14.26,-2.5 26.83,-5.93 39.33,-8.77 12.4,-2.97 24.45,-5.69 36.5,-7.97 12.05,-2.26 24.06,-4.15 36.48,-5.47 12.47,-1.47 25.18,-2.07 39.63,-3.13 -10.63,-9.98 -24.29,-15.72 -38.37,-18.71 -14.15,-2.87 -28.87,-2.72 -42.94,-0.01 -14.1,2.7 -27.59,7.89 -39.73,15.18 -12.03,7.45 -22.99,16.68 -30.9,28.88"
               style="fill:#fffeff;fill-opacity:1;fill-rule:nonzero;stroke:none"
               id="path290" /><path
               d="m 1921.51,2442.13 c 0,-10.63 -3.89,-19.25 -8.68,-19.25 -4.79,0 -8.67,8.62 -8.67,19.25 0,10.62 3.88,19.24 8.67,19.24 4.79,0 8.68,-8.62 8.68,-19.24"
               style="fill:#211d1d;fill-opacity:1;fill-rule:nonzero;stroke:none"
               id="path292" /><path
               d="m 2065.93,2422.88 c 0,-13.61 -4.97,-24.64 -11.1,-24.64 -6.13,0 -11.11,11.03 -11.11,24.64 0,13.6 4.98,24.64 11.11,24.64 6.13,0 11.1,-11.04 11.1,-24.64"
               style="fill:#211d1d;fill-opacity:1;fill-rule:nonzero;stroke:none"
               id="path294" /><path
               d="m 1958.19,2486.21 c -5.47,2 -6.97,5.17 -9.34,8.2 -2.33,2.97 -5,5.65 -7.84,8.09 -5.6,4.94 -12.07,8.89 -19.01,11.52 -14.07,5.22 -29.95,4.57 -45.63,-0.22 l -1.56,2.72 c 13.33,11.79 33.54,14.66 51.14,9.21 8.88,-2.7 16.99,-7.6 23.62,-14 3.28,-3.23 6.15,-6.85 8.64,-10.68 2.46,-3.77 5.07,-7.93 2.85,-13.61 l -2.87,-1.23"
               style="fill:#211d1d;fill-opacity:1;fill-rule:nonzero;stroke:none"
               id="path296" /><path
               d="m 2029.7,2482.63 c 1.9,6.82 7.42,9.81 12.66,12.33 5.31,2.56 10.91,4.59 16.69,5.86 11.59,2.39 23.78,2.12 35.22,-1.19 11.61,-3.35 21.54,-9.87 30.32,-16.1 8.9,-6.33 17.6,-12.99 25.91,-20.28 l -1.66,-2.65 c -10.19,4.28 -19.99,9.18 -29.59,14.4 -9.59,5.41 -18.5,10.53 -28.15,12.68 -9.66,2.28 -19.81,2.46 -29.63,0.79 -4.93,-0.82 -9.79,-2.14 -14.44,-4 -4.72,-1.92 -8.65,-4.5 -15.41,-4.32 l -1.92,2.48"
               style="fill:#211d1d;fill-opacity:1;fill-rule:nonzero;stroke:none"
               id="path298" /><path
               d="m 1964.64,2443.9 c 0,-39.3 -31.86,-71.16 -71.16,-71.16 -39.3,0 -71.16,31.86 -71.16,71.16 0,39.3 31.86,71.16 71.16,71.16 39.3,0 71.16,-31.86 71.16,-71.16 z"
               style="fill:none;stroke:#211d1d;stroke-width:5.56282;stroke-linecap:butt;stroke-linejoin:miter;stroke-miterlimit:10;stroke-dasharray:none;stroke-opacity:1"
               id="path300" /><path
               d="m 2153.14,2406.7 c 0,-44.25 -35.87,-80.13 -80.12,-80.13 -44.26,0 -80.13,35.88 -80.13,80.13 0,44.25 35.87,80.13 80.13,80.13 44.25,0 80.12,-35.88 80.12,-80.13 z"
               style="fill:none;stroke:#211d1d;stroke-width:6.26368;stroke-linecap:butt;stroke-linejoin:miter;stroke-miterlimit:10;stroke-dasharray:none;stroke-opacity:1"
               id="path302" /><path
               d="m 1964.29,2461.64 c 13.35,5.52 30.27,0.39 38.3,-11.63"
               style="fill:none;stroke:#211d1d;stroke-width:6.26368;stroke-linecap:butt;stroke-linejoin:miter;stroke-miterlimit:10;stroke-dasharray:none;stroke-opacity:1"
               id="path304" /><path
               d="m 2157.25,2407.56 c 17.83,3.22 35.91,4.75 53.97,6.27 13.58,1.15 27.17,2.3 40.76,3.45"
               style="fill:none;stroke:#211d1d;stroke-width:6.26368;stroke-linecap:round;stroke-linejoin:round;stroke-miterlimit:10;stroke-dasharray:none;stroke-opacity:1"
               id="path306" /><path
               d="m 1636.1,1636.57 c -3.88,-30.24 45.8,-28.83 41.2,1.56 -3.43,22.65 -38.63,18.48 -41.2,-1.56"
               style="fill:#e1def2;fill-opacity:1;fill-rule:nonzero;stroke:none"
               id="path308" /><path
               d="m 1612.67,1456.05 c -3.89,-30.24 45.8,-28.83 41.19,1.55 -3.43,22.65 -38.62,18.48 -41.19,-1.55"
               style="fill:#e1def2;fill-opacity:1;fill-rule:nonzero;stroke:none"
               id="path310" /><path
               d="m 1627.7,1256.11 c -3.88,-30.24 45.8,-28.83 41.2,1.56 -3.44,22.64 -38.63,18.48 -41.2,-1.56"
               style="fill:#e1def2;fill-opacity:1;fill-rule:nonzero;stroke:none"
               id="path312" /><path
               d="m 1669.41,1044.3 c -3.88,-30.24 45.81,-28.83 41.2,1.55 -3.43,22.65 -38.63,18.49 -41.2,-1.55"
               style="fill:#e1def2;fill-opacity:1;fill-rule:nonzero;stroke:none"
               id="path314" /><path
               d="m 1711.13,855.34 c -3.88,-30.238 45.8,-28.84 41.19,1.551 -3.42,22.648 -38.62,18.48 -41.19,-1.551"
               style="fill:#e1def2;fill-opacity:1;fill-rule:nonzero;stroke:none"
               id="path316" /><path
               d="m 1743.74,636.93 c -3.88,-30.239 45.8,-28.828 41.2,1.558 -3.43,22.641 -38.63,18.481 -41.2,-1.558"
               style="fill:#e1def2;fill-opacity:1;fill-rule:nonzero;stroke:none"
               id="path318" /><path
               d="m 1797.08,414.859 c -3.88,-30.238 45.8,-28.828 41.19,1.551 -3.43,22.649 -38.62,18.488 -41.19,-1.551"
               style="fill:#e1def2;fill-opacity:1;fill-rule:nonzero;stroke:none"
               id="path320" /></g></g></g></g></g></svg>
