<?xml version="1.0" encoding="UTF-8"?>
<!-- Converted by misc2svg (http://www.network-science.de/tools/misc2svg/) -->
<svg xmlns="http://www.w3.org/2000/svg" xmlns:xlink="http://www.w3.org/1999/xlink" width="356pt" height="256pt" viewBox="0 0 356 256" version="1.1">
<defs>
<clipPath id="clip1">
  <path d="M 0 256.25 L 356.25 256.25 L 356.25 0 L 0 0 L 0 256.25 Z M 0 256.25 "/>
</clipPath>
</defs>
<g id="misc2svg">
<g clip-path="url(#clip1)" clip-rule="nonzero">
<path style=" stroke:none;fill-rule: nonzero; fill: rgb(0%,0%,0%); fill-opacity: 1;" d="M 137.9375 215.875 L 136.875 216.5 L 135.8125 215.75 L 135.8125 167.6875 L 136.875 166.875 L 137.9375 167.5 L 137.9375 215.875 Z M 137.9375 215.875 "/>
<path style=" stroke:none;fill-rule: nonzero; fill: rgb(0%,0%,0%); fill-opacity: 1;" d="M 143.25 212.1875 L 145.375 212.1875 L 145.375 171.1875 L 143.25 171.1875 L 143.25 212.1875 Z M 143.25 212.1875 "/>
<path style=" stroke:none;fill-rule: nonzero; fill: rgb(0%,0%,0%); fill-opacity: 1;" d="M 179.8125 240.0625 L 179.8125 242.5 L 136.8125 217.6875 L 136.875 216.5 L 137.9375 215.875 L 179.8125 240.0625 Z M 179.8125 240.0625 "/>
<path style=" stroke:none;fill-rule: nonzero; fill: rgb(0%,0%,0%); fill-opacity: 1;" d="M 221.75 215.875 L 222.8125 216.5 L 222.8125 217.6875 L 179.8125 242.5 L 179.8125 240.0625 L 221.75 215.875 Z M 221.75 215.875 "/>
<path style=" stroke:none;fill-rule: nonzero; fill: rgb(0%,0%,0%); fill-opacity: 1;" d="M 214.8125 211.25 L 215.875 213.125 L 180.375 233.625 L 179.3125 231.75 L 214.8125 211.25 Z M 214.8125 211.25 "/>
<path style=" stroke:none;fill-rule: nonzero; fill: rgb(0%,0%,0%); fill-opacity: 1;" d="M 221.75 167.5 L 222.8125 166.875 L 223.875 167.5 L 223.875 215.875 L 222.8125 216.5 L 221.75 215.875 L 221.75 167.5 Z M 221.75 167.5 "/>
<path style=" stroke:none;fill-rule: nonzero; fill: rgb(0%,0%,0%); fill-opacity: 1;" d="M 179.8125 143.3125 L 179.8125 142.0625 L 180.875 141.4375 L 222.8125 165.625 L 222.8125 166.875 L 221.75 167.5 L 179.8125 143.3125 Z M 179.8125 143.3125 "/>
<path style=" stroke:none;fill-rule: nonzero; fill: rgb(0%,0%,0%); fill-opacity: 1;" d="M 179.3125 151.5625 L 180.375 149.75 L 215.875 170.25 L 214.8125 172.0625 L 179.3125 151.5625 Z M 179.3125 151.5625 "/>
<path style=" stroke:none;fill-rule: nonzero; fill: rgb(0%,0%,0%); fill-opacity: 1;" d="M 137.9375 167.5 L 136.875 166.875 L 136.75 165.75 L 178.75 141.4375 L 179.8125 142.0625 L 179.8125 143.3125 L 137.9375 167.5 Z M 137.9375 167.5 "/>
<path style=" stroke:none;fill-rule: nonzero; fill: rgb(0%,0%,0%); fill-opacity: 1;" d="M 82.945312 234.65625 C 82.945312 231.101562 83.902344 228.320312 85.816406 226.296875 C 87.730469 224.28125 90.203125 223.269531 93.238281 223.269531 C 95.214844 223.269531 97 223.75 98.589844 224.695312 C 100.191406 225.632812 101.40625 226.957031 102.242188 228.660156 C 103.070312 230.355469 103.492188 232.273438 103.492188 234.421875 C 103.492188 236.601562 103.046875 238.542969 102.164062 240.261719 C 101.289062 241.980469 100.046875 243.285156 98.433594 244.167969 C 96.816406 245.054688 95.078125 245.496094 93.21875 245.496094 C 91.195312 245.496094 89.390625 245.007812 87.789062 244.03125 C 86.195312 243.054688 84.996094 241.722656 84.175781 240.027344 C 83.355469 238.335938 82.945312 236.546875 82.945312 234.65625 Z M 85.875 234.714844 C 85.875 237.292969 86.570312 239.335938 87.964844 240.828125 C 89.355469 242.3125 91.101562 243.054688 93.199219 243.054688 C 95.347656 243.054688 97.109375 242.308594 98.492188 240.808594 C 99.867188 239.300781 100.5625 237.164062 100.5625 234.402344 C 100.5625 232.660156 100.257812 231.136719 99.664062 229.832031 C 99.078125 228.519531 98.210938 227.503906 97.066406 226.785156 C 95.933594 226.070312 94.664062 225.710938 93.257812 225.710938 C 91.234375 225.710938 89.5 226.40625 88.042969 227.78125 C 86.597656 229.164062 85.875 231.472656 85.875 234.714844 Z M 85.875 234.714844 "/>
<path style=" stroke:none;fill-rule: nonzero; fill: rgb(0%,0%,0%); fill-opacity: 1;" d="M 89.4375 155.25 L 88.9375 154.0625 L 89.5625 153.0625 L 136.75 165.75 L 136.875 166.875 L 135.8125 167.6875 L 89.4375 155.25 Z M 89.4375 155.25 "/>
<path style=" stroke:none;fill-rule: nonzero; fill: rgb(0%,0%,0%); fill-opacity: 1;" d="M 63.25 195.5625 L 61.9375 195.625 L 61.4375 194.4375 L 87.625 154.125 L 88.9375 154.0625 L 89.4375 155.25 L 63.25 195.5625 Z M 63.25 195.5625 "/>
<path style=" stroke:none;fill-rule: nonzero; fill: rgb(0%,0%,0%); fill-opacity: 1;" d="M 85.375 222.875 L 83.6875 224.25 L 61.3125 196.625 L 61.9375 195.625 L 63.25 195.5625 L 85.375 222.875 Z M 85.375 222.875 "/>
<path style=" stroke:none;fill-rule: nonzero; fill: rgb(0%,0%,0%); fill-opacity: 1;" d="M 135.8125 215.75 L 136.875 216.5 L 136.8125 217.6875 L 105.9375 230.1875 L 105.125 228.1875 L 135.8125 215.75 Z M 135.8125 215.75 "/>
<path style=" stroke:none;fill-rule: nonzero; fill: rgb(0%,0%,0%); fill-opacity: 1;" d="M 4.632812 185.40625 C 4.632812 181.851562 5.589844 179.070312 7.503906 177.046875 C 9.417969 175.03125 11.890625 174.019531 14.925781 174.019531 C 16.902344 174.019531 18.6875 174.5 20.277344 175.445312 C 21.878906 176.382812 23.09375 177.707031 23.929688 179.410156 C 24.757812 181.105469 25.179688 183.023438 25.179688 185.171875 C 25.179688 187.351562 24.734375 189.292969 23.851562 191.011719 C 22.976562 192.730469 21.734375 194.035156 20.121094 194.917969 C 18.503906 195.804688 16.765625 196.246094 14.90625 196.246094 C 12.882812 196.246094 11.078125 195.757812 9.476562 194.78125 C 7.882812 193.804688 6.683594 192.472656 5.863281 190.777344 C 5.042969 189.085938 4.632812 187.296875 4.632812 185.40625 Z M 7.5625 185.464844 C 7.5625 188.042969 8.257812 190.085938 9.652344 191.578125 C 11.042969 193.0625 12.789062 193.804688 14.886719 193.804688 C 17.035156 193.804688 18.796875 193.058594 20.179688 191.558594 C 21.554688 190.050781 22.25 187.914062 22.25 185.152344 C 22.25 183.410156 21.945312 181.886719 21.351562 180.582031 C 20.765625 179.269531 19.898438 178.253906 18.753906 177.535156 C 17.621094 176.820312 16.351562 176.460938 14.945312 176.460938 C 12.921875 176.460938 11.1875 177.15625 9.730469 178.53125 C 8.285156 179.914062 7.5625 182.222656 7.5625 185.464844 Z M 7.5625 185.464844 "/>
<path style=" stroke:none;fill-rule: nonzero; fill: rgb(0%,0%,0%); fill-opacity: 1;" d="M 56.3125 117.6875 L 56.9375 115.125 L 89.5625 153.0625 L 88.9375 154.0625 L 87.625 154.125 L 56.3125 117.6875 Z M 56.3125 117.6875 "/>
<path style=" stroke:none;fill-rule: nonzero; fill: rgb(0%,0%,0%); fill-opacity: 1;" d="M 12 136.125 L 9.6875 134.8125 L 56.9375 115.125 L 56.3125 117.6875 L 12 136.125 Z M 12 136.125 "/>
<path style=" stroke:none;fill-rule: nonzero; fill: rgb(0%,0%,0%); fill-opacity: 1;" d="M 19.125 141.25 L 18.3125 139.25 L 54.125 124.375 L 54.9375 126.3125 L 19.125 141.25 Z M 19.125 141.25 "/>
<path style=" stroke:none;fill-rule: nonzero; fill: rgb(0%,0%,0%); fill-opacity: 1;" d="M 15.9375 171.1875 L 13.8125 171.4375 L 9.6875 134.8125 L 12 136.125 L 15.9375 171.1875 Z M 15.9375 171.1875 "/>
<path style=" stroke:none;fill-rule: nonzero; fill: rgb(0%,0%,0%); fill-opacity: 1;" d="M 61.4375 194.4375 L 61.9375 195.625 L 61.3125 196.625 L 27.625 188.9375 L 28.0625 186.8125 L 61.4375 194.4375 Z M 61.4375 194.4375 "/>
<path style=" stroke:none;fill-rule: nonzero; fill: rgb(0%,0%,0%); fill-opacity: 1;" d="M 169.632812 92.90625 C 169.632812 89.351562 170.589844 86.570312 172.503906 84.546875 C 174.417969 82.53125 176.890625 81.519531 179.925781 81.519531 C 181.902344 81.519531 183.6875 82 185.277344 82.945312 C 186.878906 83.882812 188.09375 85.207031 188.929688 86.910156 C 189.757812 88.605469 190.179688 90.523438 190.179688 92.671875 C 190.179688 94.851562 189.734375 96.792969 188.851562 98.511719 C 187.976562 100.230469 186.734375 101.535156 185.121094 102.417969 C 183.503906 103.304688 181.765625 103.746094 179.90625 103.746094 C 177.882812 103.746094 176.078125 103.257812 174.476562 102.28125 C 172.882812 101.304688 171.683594 99.972656 170.863281 98.277344 C 170.042969 96.585938 169.632812 94.796875 169.632812 92.90625 Z M 172.5625 92.964844 C 172.5625 95.542969 173.257812 97.585938 174.652344 99.078125 C 176.042969 100.5625 177.789062 101.304688 179.886719 101.304688 C 182.035156 101.304688 183.796875 100.558594 185.179688 99.058594 C 186.554688 97.550781 187.25 95.414062 187.25 92.652344 C 187.25 90.910156 186.945312 89.386719 186.351562 88.082031 C 185.765625 86.769531 184.898438 85.753906 183.753906 85.035156 C 182.621094 84.320312 181.351562 83.960938 179.945312 83.960938 C 177.921875 83.960938 176.1875 84.65625 174.730469 86.03125 C 173.285156 87.414062 172.5625 89.722656 172.5625 92.964844 Z M 172.5625 92.964844 "/>
<path style=" stroke:none;fill-rule: nonzero; fill: rgb(0%,0%,0%); fill-opacity: 1;" d="M 264.6875 141.4375 L 265.75 142.0625 L 265.875 143.25 L 223.875 167.5 L 222.8125 166.875 L 222.8125 165.625 L 264.6875 141.4375 Z M 264.6875 141.4375 "/>
<path style=" stroke:none;fill-rule: nonzero; fill: rgb(0%,0%,0%); fill-opacity: 1;" d="M 264.6875 93.0625 L 265.75 92.4375 L 266.8125 93.25 L 266.8125 141.3125 L 265.75 142.0625 L 264.6875 141.4375 L 264.6875 93.0625 Z M 264.6875 93.0625 "/>
<path style=" stroke:none;fill-rule: nonzero; fill: rgb(0%,0%,0%); fill-opacity: 1;" d="M 257.25 137.75 L 259.375 137.75 L 259.375 96.75 L 257.25 96.75 L 257.25 137.75 Z M 257.25 137.75 "/>
<path style=" stroke:none;fill-rule: nonzero; fill: rgb(0%,0%,0%); fill-opacity: 1;" d="M 222.8125 68.875 L 222.8125 66.4375 L 265.875 91.3125 L 265.75 92.4375 L 264.6875 93.0625 L 222.8125 68.875 Z M 222.8125 68.875 "/>
<path style=" stroke:none;fill-rule: nonzero; fill: rgb(0%,0%,0%); fill-opacity: 1;" d="M 192.0625 86.625 L 191 84.8125 L 222.8125 66.4375 L 222.8125 68.875 L 192.0625 86.625 Z M 192.0625 86.625 "/>
<path style=" stroke:none;fill-rule: nonzero; fill: rgb(0%,0%,0%); fill-opacity: 1;" d="M 180.875 141.4375 L 179.8125 142.0625 L 178.75 141.4375 L 178.75 106.625 L 180.875 106.625 L 180.875 141.4375 Z M 180.875 141.4375 "/>
<path style=" stroke:none;fill-rule: nonzero; fill: rgb(0%,0%,0%); fill-opacity: 1;" d="M 312.5625 156.125 L 313.375 158.625 L 265.875 143.25 L 265.75 142.0625 L 266.8125 141.3125 L 312.5625 156.125 Z M 312.5625 156.125 "/>
<path style=" stroke:none;fill-rule: nonzero; fill: rgb(0%,0%,0%); fill-opacity: 1;" d="M 340.8125 117.25 L 343.4375 117.25 L 313.375 158.625 L 312.5625 156.125 L 340.8125 117.25 Z M 340.8125 117.25 "/>
<path style=" stroke:none;fill-rule: nonzero; fill: rgb(0%,0%,0%); fill-opacity: 1;" d="M 312.5625 78.375 L 313.375 75.875 L 343.4375 117.25 L 340.8125 117.25 L 312.5625 78.375 Z M 312.5625 78.375 "/>
<path style=" stroke:none;fill-rule: nonzero; fill: rgb(0%,0%,0%); fill-opacity: 1;" d="M 266.8125 93.25 L 265.75 92.4375 L 265.875 91.3125 L 313.375 75.875 L 312.5625 78.375 L 266.8125 93.25 Z M 266.8125 93.25 "/>
<path style=" stroke:none;fill-rule: nonzero; fill: rgb(0%,0%,0%); fill-opacity: 1;" d="M 255.570312 241.78125 C 255.570312 238.226562 256.527344 235.445312 258.441406 233.421875 C 260.355469 231.40625 262.828125 230.394531 265.863281 230.394531 C 267.839844 230.394531 269.625 230.875 271.214844 231.820312 C 272.816406 232.757812 274.03125 234.082031 274.867188 235.785156 C 275.695312 237.480469 276.117188 239.398438 276.117188 241.546875 C 276.117188 243.726562 275.671875 245.667969 274.789062 247.386719 C 273.914062 249.105469 272.671875 250.410156 271.058594 251.292969 C 269.441406 252.179688 267.703125 252.621094 265.84375 252.621094 C 263.820312 252.621094 262.015625 252.132812 260.414062 251.15625 C 258.820312 250.179688 257.621094 248.847656 256.800781 247.152344 C 255.980469 245.460938 255.570312 243.671875 255.570312 241.78125 Z M 258.5 241.839844 C 258.5 244.417969 259.195312 246.460938 260.589844 247.953125 C 261.980469 249.4375 263.726562 250.179688 265.824219 250.179688 C 267.972656 250.179688 269.734375 249.433594 271.117188 247.933594 C 272.492188 246.425781 273.1875 244.289062 273.1875 241.527344 C 273.1875 239.785156 272.882812 238.261719 272.289062 236.957031 C 271.703125 235.644531 270.835938 234.628906 269.691406 233.910156 C 268.558594 233.195312 267.289062 232.835938 265.882812 232.835938 C 263.859375 232.835938 262.125 233.53125 260.667969 234.90625 C 259.222656 236.289062 258.5 238.597656 258.5 241.839844 Z M 258.5 241.839844 "/>
<path style=" stroke:none;fill-rule: nonzero; fill: rgb(0%,0%,0%); fill-opacity: 1;" d="M 254.6875 233.6875 L 253.625 235.5 L 222.8125 217.6875 L 222.8125 216.5 L 223.875 215.875 L 254.6875 233.6875 Z M 254.6875 233.6875 "/>
<path style=" stroke:none;fill-rule: nonzero; fill: rgb(0%,0%,0%); fill-opacity: 1;" d="M 315.386719 219.898438 L 318.238281 220.621094 C 317.636719 222.953125 316.5625 224.738281 315.015625 225.972656 C 313.460938 227.199219 311.570312 227.808594 309.332031 227.808594 C 307.027344 227.808594 305.140625 227.339844 303.6875 226.402344 C 302.242188 225.453125 301.140625 224.085938 300.386719 222.300781 C 299.628906 220.503906 299.253906 218.585938 299.253906 216.539062 C 299.253906 214.304688 299.671875 212.351562 300.523438 210.679688 C 301.382812 209.015625 302.597656 207.75 304.175781 206.890625 C 305.75 206.03125 307.484375 205.601562 309.390625 205.601562 C 311.539062 205.601562 313.339844 206.148438 314.800781 207.242188 C 316.269531 208.335938 317.289062 209.875 317.867188 211.851562 L 315.074219 212.515625 C 314.566406 210.953125 313.835938 209.816406 312.886719 209.097656 C 311.949219 208.382812 310.761719 208.023438 309.332031 208.023438 C 307.675781 208.023438 306.296875 208.421875 305.191406 209.214844 C 304.082031 210.011719 303.300781 211.070312 302.847656 212.398438 C 302.402344 213.726562 302.183594 215.101562 302.183594 216.519531 C 302.183594 218.34375 302.441406 219.9375 302.964844 221.304688 C 303.496094 222.671875 304.320312 223.695312 305.445312 224.371094 C 306.578125 225.035156 307.792969 225.367188 309.097656 225.367188 C 310.699219 225.367188 312.046875 224.914062 313.140625 224 C 314.242188 223.078125 314.996094 221.710938 315.386719 219.898438 Z M 315.386719 219.898438 "/>
<path style=" stroke:none;fill-rule: nonzero; fill: rgb(0%,0%,0%); fill-opacity: 1;" d="M 321.8125 227.4375 L 321.8125 205.953125 L 324.664062 205.953125 L 324.664062 214.78125 L 335.816406 214.78125 L 335.816406 205.953125 L 338.667969 205.953125 L 338.667969 227.4375 L 335.816406 227.4375 L 335.816406 217.320312 L 324.664062 217.320312 L 324.664062 227.4375 L 321.8125 227.4375 Z M 321.8125 227.4375 "/>
<path style=" stroke:none;fill-rule: nonzero; fill: rgb(0%,0%,0%); fill-opacity: 1;" d="M 342.082031 229.535156 L 344.074219 229.28125 C 344.292969 230.40625 344.679688 231.210938 345.226562 231.703125 C 345.773438 232.203125 346.4375 232.445312 347.21875 232.445312 C 348.15625 232.445312 348.941406 232.128906 349.582031 231.488281 C 350.214844 230.839844 350.539062 230.039062 350.539062 229.085938 C 350.539062 228.179688 350.234375 227.425781 349.640625 226.839844 C 349.054688 226.246094 348.300781 225.941406 347.394531 225.941406 C 347.011719 225.941406 346.542969 226.019531 345.988281 226.175781 L 346.203125 224.4375 C 346.328125 224.453125 346.441406 224.457031 346.535156 224.457031 C 347.363281 224.457031 348.121094 224.238281 348.800781 223.792969 C 349.472656 223.355469 349.816406 222.675781 349.816406 221.761719 C 349.816406 221.035156 349.566406 220.433594 349.074219 219.964844 C 348.574219 219.488281 347.945312 219.242188 347.179688 219.242188 C 346.40625 219.242188 345.761719 219.488281 345.246094 219.964844 C 344.738281 220.449219 344.410156 221.175781 344.269531 222.152344 L 342.296875 221.800781 C 342.53125 220.472656 343.078125 219.449219 343.9375 218.714844 C 344.796875 217.988281 345.859375 217.621094 347.140625 217.621094 C 348.007812 217.621094 348.820312 217.8125 349.5625 218.1875 C 350.304688 218.570312 350.871094 219.082031 351.261719 219.730469 C 351.652344 220.386719 351.847656 221.074219 351.847656 221.800781 C 351.847656 222.503906 351.65625 223.144531 351.28125 223.714844 C 350.914062 224.277344 350.363281 224.726562 349.621094 225.0625 C 350.566406 225.289062 351.304688 225.746094 351.828125 226.449219 C 352.359375 227.144531 352.628906 228.003906 352.628906 229.027344 C 352.628906 230.433594 352.109375 231.636719 351.085938 232.621094 C 350.070312 233.597656 348.78125 234.085938 347.21875 234.085938 C 345.796875 234.085938 344.621094 233.667969 343.683594 232.816406 C 342.753906 231.972656 342.222656 230.878906 342.082031 229.535156 Z M 342.082031 229.535156 "/>
<path style=" stroke:none;fill-rule: nonzero; fill: rgb(0%,0%,0%); fill-opacity: 1;" d="M 296.875 222.125 L 297.9375 223.9375 L 277.9375 235.5 L 276.875 233.625 L 296.875 222.125 Z M 296.875 222.125 "/>
<path style=" stroke:none;fill-rule: nonzero; fill: rgb(0%,0%,0%); fill-opacity: 1;" d="M 315.570312 29.65625 C 315.570312 26.101562 316.527344 23.320312 318.441406 21.296875 C 320.355469 19.28125 322.828125 18.269531 325.863281 18.269531 C 327.839844 18.269531 329.625 18.75 331.214844 19.695312 C 332.816406 20.632812 334.03125 21.957031 334.867188 23.660156 C 335.695312 25.355469 336.117188 27.273438 336.117188 29.421875 C 336.117188 31.601562 335.671875 33.542969 334.789062 35.261719 C 333.914062 36.980469 332.671875 38.285156 331.058594 39.167969 C 329.441406 40.054688 327.703125 40.496094 325.84375 40.496094 C 323.820312 40.496094 322.015625 40.007812 320.414062 39.03125 C 318.820312 38.054688 317.621094 36.722656 316.800781 35.027344 C 315.980469 33.335938 315.570312 31.546875 315.570312 29.65625 Z M 318.5 29.714844 C 318.5 32.292969 319.195312 34.335938 320.589844 35.828125 C 321.980469 37.3125 323.726562 38.054688 325.824219 38.054688 C 327.972656 38.054688 329.734375 37.308594 331.117188 35.808594 C 332.492188 34.300781 333.1875 32.164062 333.1875 29.402344 C 333.1875 27.660156 332.882812 26.136719 332.289062 24.832031 C 331.703125 23.519531 330.835938 22.503906 329.691406 21.785156 C 328.558594 21.070312 327.289062 20.710938 325.882812 20.710938 C 323.859375 20.710938 322.125 21.40625 320.667969 22.78125 C 319.222656 24.164062 318.5 26.472656 318.5 29.714844 Z M 318.5 29.714844 "/>
<path style=" stroke:none;fill-rule: nonzero; fill: rgb(0%,0%,0%); fill-opacity: 1;" d="M 317.5 41.625 L 319.5625 42.1875 L 309.75 78.75 L 307.6875 78.25 L 317.5 41.625 Z M 317.5 41.625 "/>
<path style=" stroke:none;fill-rule: nonzero; fill: rgb(0%,0%,0%); fill-opacity: 1;" d="M 324.6875 43.5625 L 326.75 44.125 L 316.8125 81.25 L 314.75 80.75 L 324.6875 43.5625 Z M 324.6875 43.5625 "/>
<path style=" stroke:none;fill-rule: nonzero; fill: rgb(0%,0%,0%); fill-opacity: 1;" d="M 212.570312 18.53125 C 212.570312 14.976562 213.527344 12.195312 215.441406 10.171875 C 217.355469 8.15625 219.828125 7.144531 222.863281 7.144531 C 224.839844 7.144531 226.625 7.625 228.214844 8.570312 C 229.816406 9.507812 231.03125 10.832031 231.867188 12.535156 C 232.695312 14.230469 233.117188 16.148438 233.117188 18.296875 C 233.117188 20.476562 232.671875 22.417969 231.789062 24.136719 C 230.914062 25.855469 229.671875 27.160156 228.058594 28.042969 C 226.441406 28.929688 224.703125 29.371094 222.84375 29.371094 C 220.820312 29.371094 219.015625 28.882812 217.414062 27.90625 C 215.820312 26.929688 214.621094 25.597656 213.800781 23.902344 C 212.980469 22.210938 212.570312 20.421875 212.570312 18.53125 Z M 215.5 18.589844 C 215.5 21.167969 216.195312 23.210938 217.589844 24.703125 C 218.980469 26.1875 220.726562 26.929688 222.824219 26.929688 C 224.972656 26.929688 226.734375 26.183594 228.117188 24.683594 C 229.492188 23.175781 230.1875 21.039062 230.1875 18.277344 C 230.1875 16.535156 229.882812 15.011719 229.289062 13.707031 C 228.703125 12.394531 227.835938 11.378906 226.691406 10.660156 C 225.558594 9.945312 224.289062 9.585938 222.882812 9.585938 C 220.859375 9.585938 219.125 10.28125 217.667969 11.65625 C 216.222656 13.039062 215.5 15.347656 215.5 18.589844 Z M 215.5 18.589844 "/>
<path style=" stroke:none;fill-rule: nonzero; fill: rgb(0%,0%,0%); fill-opacity: 1;" d="M 218 69.8125 L 220.125 69.8125 L 220.125 32.1875 L 218 32.1875 L 218 69.8125 Z M 218 69.8125 "/>
<path style=" stroke:none;fill-rule: nonzero; fill: rgb(0%,0%,0%); fill-opacity: 1;" d="M 225.4375 69.8125 L 227.5625 69.8125 L 227.5625 32.1875 L 225.4375 32.1875 L 225.4375 69.8125 Z M 225.4375 69.8125 "/>
<path style=" stroke:none;fill-rule: nonzero; fill: rgb(0%,0%,0%); fill-opacity: 1;" d="M 93.339844 116.875 L 93.339844 95.390625 L 96.191406 95.390625 L 96.191406 104.21875 L 107.34375 104.21875 L 107.34375 95.390625 L 110.195312 95.390625 L 110.195312 116.875 L 107.34375 116.875 L 107.34375 106.757812 L 96.191406 106.757812 L 96.191406 116.875 L 93.339844 116.875 Z M 93.339844 116.875 "/>
<path style=" stroke:none;fill-rule: nonzero; fill: rgb(0%,0%,0%); fill-opacity: 1;" d="M 93.1875 119.75 L 102.4375 122.25 L 101.4375 124.6875 L 92.8125 122.375 L 93.1875 119.75 Z M 93.1875 119.75 "/>
<path style=" stroke:none;fill-rule: nonzero; fill: rgb(0%,0%,0%); fill-opacity: 1;" d="M 92.5 125 L 100.4375 127.125 L 99.375 129.5625 L 92.125 127.625 L 92.5 125 Z M 92.5 125 "/>
<path style=" stroke:none;fill-rule: nonzero; fill: rgb(0%,0%,0%); fill-opacity: 1;" d="M 91.75 130.25 L 98.375 132.0625 L 97.375 134.5 L 91.4375 132.875 L 91.75 130.25 Z M 91.75 130.25 "/>
<path style=" stroke:none;fill-rule: nonzero; fill: rgb(0%,0%,0%); fill-opacity: 1;" d="M 91.0625 135.5 L 96.375 136.9375 L 95.375 139.375 L 90.6875 138.125 L 91.0625 135.5 Z M 91.0625 135.5 "/>
<path style=" stroke:none;fill-rule: nonzero; fill: rgb(0%,0%,0%); fill-opacity: 1;" d="M 90.375 140.75 L 94.375 141.8125 L 93.375 144.25 L 90 143.375 L 90.375 140.75 Z M 90.375 140.75 "/>
<path style=" stroke:none;fill-rule: nonzero; fill: rgb(0%,0%,0%); fill-opacity: 1;" d="M 89.625 146 L 92.375 146.75 L 91.375 149.1875 L 89.3125 148.625 L 89.625 146 Z M 89.625 146 "/>
<path style=" stroke:none;fill-rule: nonzero; fill: rgb(0%,0%,0%); fill-opacity: 1;" d="M 18.402344 241.5 L 18.402344 220.015625 L 21.253906 220.015625 L 21.253906 228.84375 L 32.40625 228.84375 L 32.40625 220.015625 L 35.257812 220.015625 L 35.257812 241.5 L 32.40625 241.5 L 32.40625 231.382812 L 21.253906 231.382812 L 21.253906 241.5 L 18.402344 241.5 Z M 18.402344 241.5 "/>
<path style=" stroke:none;fill-rule: nonzero; fill: rgb(0%,0%,0%); fill-opacity: 1;" d="M 41.75 222.5625 L 35 215.8125 L 37.5 213.9375 L 43.6875 220.0625 L 41.75 222.5625 Z M 41.75 222.5625 "/>
<path style=" stroke:none;fill-rule: nonzero; fill: rgb(0%,0%,0%); fill-opacity: 1;" d="M 45.5625 217.625 L 40 212 L 42.5 210.125 L 47.5 215.125 L 45.5625 217.625 Z M 45.5625 217.625 "/>
<path style=" stroke:none;fill-rule: nonzero; fill: rgb(0%,0%,0%); fill-opacity: 1;" d="M 49.375 212.625 L 44.9375 208.1875 L 47.4375 206.25 L 51.3125 210.125 L 49.375 212.625 Z M 49.375 212.625 "/>
<path style=" stroke:none;fill-rule: nonzero; fill: rgb(0%,0%,0%); fill-opacity: 1;" d="M 53.1875 207.625 L 49.9375 204.375 L 52.4375 202.4375 L 55.125 205.125 L 53.1875 207.625 Z M 53.1875 207.625 "/>
<path style=" stroke:none;fill-rule: nonzero; fill: rgb(0%,0%,0%); fill-opacity: 1;" d="M 57 202.625 L 54.9375 200.5625 L 57.4375 198.625 L 58.9375 200.125 L 57 202.625 Z M 57 202.625 "/>
</g>
</g>
</svg>
