<?xml version="1.0" encoding="UTF-8" standalone="no"?>
<svg
   xmlns:dc="http://purl.org/dc/elements/1.1/"
   xmlns:cc="http://creativecommons.org/ns#"
   xmlns:rdf="http://www.w3.org/1999/02/22-rdf-syntax-ns#"
   xmlns:svg="http://www.w3.org/2000/svg"
   xmlns="http://www.w3.org/2000/svg"
   xmlns:sodipodi="http://sodipodi.sourceforge.net/DTD/sodipodi-0.dtd"
   xmlns:inkscape="http://www.inkscape.org/namespaces/inkscape"
   width="233.66614"
   height="228.50476"
   viewBox="0 0 61.824165 60.458549"
   version="1.1"
   id="svg1034"
   inkscape:version="1.0.1 (3bc2e813f5, 2020-09-07)"
   sodipodi:docname="clients.svg"
   inkscape:export-filename="C:\Users\keega\Documents\cannlytics\assets\images\illustrations\multi-tone\clients.png"
   inkscape:export-xdpi="96"
   inkscape:export-ydpi="96">
  <defs
     id="defs1028">
    <clipPath
       clipPathUnits="userSpaceOnUse"
       id="clipPath1824">
      <path
         d="m 466.283,741.164 h 63.482 v -19.581 h -63.482 z"
         id="path1822"
         inkscape:connector-curvature="0" />
    </clipPath>
    <filter
       inkscape:collect="always"
       style="color-interpolation-filters:sRGB"
       id="filter3124"
       x="-0.00024129886"
       width="1.0004826"
       y="-0.00024209845"
       height="1.0004842">
      <feGaussianBlur
         inkscape:collect="always"
         stdDeviation="0.0053203049"
         id="feGaussianBlur3126" />
    </filter>
  </defs>
  <sodipodi:namedview
     id="base"
     pagecolor="#323443"
     bordercolor="#666666"
     borderopacity="1.0"
     inkscape:pageopacity="0"
     inkscape:pageshadow="2"
     inkscape:zoom="1.4"
     inkscape:cx="108.88343"
     inkscape:cy="93.280954"
     inkscape:document-units="mm"
     inkscape:current-layer="layer1"
     inkscape:document-rotation="0"
     showgrid="false"
     inkscape:window-width="1624"
     inkscape:window-height="997"
     inkscape:window-x="230"
     inkscape:window-y="94"
     inkscape:window-maximized="0"
     units="px" />
  <metadata
     id="metadata1031">
    <rdf:RDF>
      <cc:Work
         rdf:about="">
        <dc:format>image/svg+xml</dc:format>
        <dc:type
           rdf:resource="http://purl.org/dc/dcmitype/StillImage" />
        <dc:title></dc:title>
      </cc:Work>
    </rdf:RDF>
  </metadata>
  <g
     inkscape:label="Layer 1"
     inkscape:groupmode="layer"
     id="layer1"
     transform="translate(-75.677204,-103.57435)"
     style="filter:url(#filter3124)">
    <path
       fill="#ffa88a"
       d="m 110.11705,111.66781 a 3.5277777,3.5277777 0 1 1 -1.76387,-3.05154 3.5277777,3.5277777 0 0 1 1.76387,3.05154 z"
       id="path2"
       style="stroke-width:0.881943" />
    <path
       fill="#fd9467"
       d="m 108.35318,108.61627 a 4.841875,4.841875 0 0 1 -4.81543,4.8154 3.5277777,3.5277777 0 0 1 4.81543,-4.8154 z"
       id="path4"
       style="stroke-width:0.881943" />
    <path
       fill="#ffa88a"
       d="m 110.11705,146.94557 a 3.5277777,3.5277777 0 1 1 -1.76387,-3.05153 3.5277777,3.5277777 0 0 1 1.76387,3.05153 z"
       id="path6"
       style="stroke-width:0.881943" />
    <path
       fill="#fd9467"
       d="m 108.35318,143.89404 a 4.841875,4.841875 0 0 1 -4.81543,4.81543 3.5277777,3.5277777 0 0 1 4.81543,-4.81543 z"
       id="path8"
       style="stroke-width:0.881943" />
    <path
       fill="#7accbe"
       d="m 89.832352,129.30667 a 3.5277777,3.5277777 0 1 1 -1.7639,-3.05153 3.5277777,3.5277777 0 0 1 1.7639,3.05153 z"
       id="path10"
       style="stroke-width:0.881943" />
    <path
       fill="#61c3b6"
       d="m 88.068452,126.25514 a 4.841875,4.841875 0 0 1 -4.8154,4.81543 3.5277777,3.5277777 0 0 1 4.8154,-4.81543 z"
       id="path12"
       style="stroke-width:0.881943" />
    <path
       fill="#7accbe"
       d="m 130.40178,129.30667 a 3.5277777,3.5277777 0 1 1 -1.7639,-3.05153 3.5277777,3.5277777 0 0 1 1.7639,3.05153 z"
       id="path14"
       style="stroke-width:0.881943" />
    <path
       fill="#61c3b6"
       d="m 128.63788,126.25514 a 4.841875,4.841875 0 0 1 -4.8154,4.81543 3.5277777,3.5277777 0 0 1 4.8154,-4.81543 z"
       id="path16"
       style="stroke-width:0.881943" />
    <path
       fill="#4e5b5f"
       d="m 129.71388,132.64924 a 4.4097223,4.4097223 0 0 0 -1.70216,-7.5847 23.036389,23.036389 0 0 0 -17.0127,-13.776 4.4097223,4.4097223 0 0 0 -8.74007,-0.0707 22.983472,22.983472 0 0 0 -16.836328,13.77597 4.4097223,4.4097223 0 0 0 -1.92264,7.65527 6.173611,6.173611 0 0 0 -3.36903,5.4769 v 3.52776 a 0.88194443,0.88194443 0 0 0 0.88193,0.88194 h 4.40974 a 22.868819,22.868819 0 0 0 14.993058,13.22916 v 3.5278 a 0.88194443,0.88194443 0 0 0 0.88194,0.88194 h 10.58333 a 0.88194443,0.88194443 0 0 0 0.88193,-0.88194 v -3.5278 a 22.868819,22.868819 0 0 0 14.99307,-13.22916 h 4.40973 a 0.88194443,0.88194443 0 0 0 0.88194,-0.88194 v -3.52776 a 6.173611,6.173611 0 0 0 -3.33374,-5.4769 z m -0.194,-3.34257 a 2.6458333,2.6458333 0 1 1 -2.64583,-2.64583 2.6458333,2.6458333 0 0 1 2.64583,2.64583 z m -22.93056,-20.2847 a 2.6458333,2.6458333 0 1 1 -2.64584,2.64584 2.6458333,2.6458333 0 0 1 2.64584,-2.64584 z m 0,7.179 a 4.4097223,4.4097223 0 0 1 4.40973,4.33917 v 2.64583 l -8.81947,0.13234 v -2.64584 a 4.4097223,4.4097223 0 0 1 4.40974,-4.47146 z m -22.930568,13.1057 a 2.6458333,2.6458333 0 1 1 2.64583,2.64584 2.6458333,2.6458333 0 0 1 -2.64583,-2.64584 z m -1.76387,8.81947 a 4.4097223,4.4097223 0 0 1 8.81944,0 v 2.64583 h -8.81944 z m 29.104168,20.2847 h -8.81947 v -2.64583 a 4.409735,4.409735 0 0 1 8.81947,0 z m -7.05557,-11.46527 a 2.6458333,2.6458333 0 1 1 2.64584,2.64584 2.6458333,2.6458333 0 0 1 -2.64584,-2.64584 z m 8.5725,7.05557 a 6.173611,6.173611 0 0 0 -3.0868,-3.74827 4.4097223,4.4097223 0 1 0 -5.67973,0 6.173611,6.173611 0 0 0 -3.0868,3.74827 21.166667,21.166667 0 0 1 -13.317368,-11.4653 h 4.25097 a 0.88194443,0.88194443 0 0 0 0.88197,-0.88193 v -3.52777 a 6.173611,6.173611 0 0 0 -3.33377,-5.4769 4.4097223,4.4097223 0 0 0 -1.85207,-7.6288 21.210764,21.210764 0 0 1 15.107698,-12.04737 4.3391667,4.3391667 0 0 0 1.4464,2.11667 6.367639,6.367639 0 0 0 -1.6669,1.21707 6.173611,6.173611 0 0 0 -1.76386,4.40973 l 0.053,3.52777 a 0.88194443,0.88194443 0 0 0 0.27333,0.61736 0.88194443,0.88194443 0 0 0 0.60853,0.247 l 10.58334,-0.16766 a 0.88194443,0.88194443 0 0 0 0.88193,-0.88194 l -0.053,-3.57186 a 6.173611,6.173611 0 0 0 -3.43957,-5.43277 4.4890973,4.4890973 0 0 0 1.4111,-2.0373 21.290139,21.290139 0 0 1 15.31057,11.95917 4.4097223,4.4097223 0 0 0 -2.01083,7.6729 6.173611,6.173611 0 0 0 -3.33377,5.4769 v 3.52776 a 0.88194443,0.88194443 0 0 0 0.88197,0.88194 h 4.25096 a 21.166667,21.166667 0 0 1 -13.31736,11.4653 z m 18.76777,-13.22917 h -8.81943 v -2.64583 a 4.4097223,4.4097223 0 0 1 8.81943,0 z"
       id="path18"
       style="stroke-width:0.881943" />
  </g>
</svg>
