<?xml version="1.0" encoding="UTF-8" standalone="no"?>
<svg
   xmlns:dc="http://purl.org/dc/elements/1.1/"
   xmlns:cc="http://creativecommons.org/ns#"
   xmlns:rdf="http://www.w3.org/1999/02/22-rdf-syntax-ns#"
   xmlns:svg="http://www.w3.org/2000/svg"
   xmlns="http://www.w3.org/2000/svg"
   xmlns:sodipodi="http://sodipodi.sourceforge.net/DTD/sodipodi-0.dtd"
   xmlns:inkscape="http://www.inkscape.org/namespaces/inkscape"
   width="233.66614"
   height="228.50476"
   viewBox="0 0 61.824165 60.458549"
   version="1.1"
   id="svg1034"
   inkscape:version="1.0.1 (3bc2e813f5, 2020-09-07)"
   sodipodi:docname="compound.svg"
   inkscape:export-filename="C:\Users\keega\Documents\cannlytics\assets\images\illustrations\multi-tone\compound.png"
   inkscape:export-xdpi="96"
   inkscape:export-ydpi="96">
  <defs
     id="defs1028">
    <filter
       inkscape:collect="always"
       style="color-interpolation-filters:sRGB"
       id="filter2482"
       x="-1.4645814e-06"
       width="1.0000029"
       y="-1.0163865e-06"
       height="1.000002">
      <feGaussianBlur
         inkscape:collect="always"
         stdDeviation="2.5211148e-05"
         id="feGaussianBlur2484" />
    </filter>
  </defs>
  <sodipodi:namedview
     id="base"
     pagecolor="#323443"
     bordercolor="#666666"
     borderopacity="1.0"
     inkscape:pageopacity="0"
     inkscape:pageshadow="2"
     inkscape:zoom="1.4"
     inkscape:cx="186.75969"
     inkscape:cy="131.64833"
     inkscape:document-units="mm"
     inkscape:current-layer="layer1"
     inkscape:document-rotation="0"
     showgrid="false"
     inkscape:window-width="1624"
     inkscape:window-height="997"
     inkscape:window-x="230"
     inkscape:window-y="94"
     inkscape:window-maximized="0"
     units="px" />
  <metadata
     id="metadata1031">
    <rdf:RDF>
      <cc:Work
         rdf:about="">
        <dc:format>image/svg+xml</dc:format>
        <dc:type
           rdf:resource="http://purl.org/dc/dcmitype/StillImage" />
        <dc:title></dc:title>
      </cc:Work>
    </rdf:RDF>
  </metadata>
  <g
     inkscape:label="Layer 1"
     inkscape:groupmode="layer"
     id="layer1"
     transform="translate(-75.677204,-103.57435)"
     style="filter:url(#filter2482)">
    <path
       d="m 100.62244,143.33144 0.001,-0.0766 3.94878,-2.16466 -3.95048,2.24129 m -0.43229,-0.11411 -7.737955,-4.54559 v -0.0295 l 0.331863,-0.20461 -0.227486,-0.37006 -0.100485,0.0621 0.0669,-8.79244 5.856755,-3.32251 v 0.49925 l -5.424409,3.07703 -0.06715,8.83306 7.552067,4.4366 -0.245,0.13431 -0.005,0.22238 m 4.17433,-2.50796 3.82397,-2.16903 0.0669,-8.83354 -5.0979,-2.99481 v -0.50363 l 4.58818,2.69505 -0.0942,0.0579 0.22725,0.37006 0.2905,-0.17907 0.52237,0.3068 -0.005,0.62309 -0.38368,0.2365 0.227,0.36981 0.15279,-0.0942 -0.0613,8.0596 -0.24063,-0.14647 -4.01641,2.20188"
       style="fill:#536e91;fill-opacity:1;fill-rule:nonzero;stroke:none;stroke-width:0.0243301"
       id="path42" />
    <path
       d="m 93.303698,138.25276 h 0.434524 v -8.1985 h -0.434524 z"
       style="fill:#536e91;fill-opacity:1;fill-rule:nonzero;stroke:none;stroke-width:0.0243301"
       id="path44" />
    <path
       d="m 107.87867,129.33139 -0.22725,-0.37007 0.0942,-0.0579 9.38633,-5.78668 0.22724,0.36982 -9.18998,5.66576 -0.2905,0.17908"
       style="fill:#536e91;fill-opacity:1;fill-rule:nonzero;stroke:none;stroke-width:0.0243301"
       id="path46" />
    <path
       d="m 108.52999,130.68852 -0.227,-0.36982 0.38368,-0.23648 9.0968,-5.60834 0.227,0.37006 -9.32769,5.75043 -0.15279,0.0942"
       style="fill:#536e91;fill-opacity:1;fill-rule:nonzero;stroke:none;stroke-width:0.0243301"
       id="path48" />
    <path
       d="m 83.303523,144.2825 -0.22773,-0.37006 9.380243,-5.78279 0.100485,-0.0621 0.227486,0.37006 -0.331862,0.20462 -9.14862,5.6402"
       style="fill:#536e91;fill-opacity:1;fill-rule:nonzero;stroke:none;stroke-width:0.0243301"
       id="path50" />
    <path
       d="m 100.71344,123.11673 -0.0686,-7.62725 0.43429,-0.002 0.0686,7.62701 -0.43429,0.002"
       style="fill:#536e91;fill-opacity:1;fill-rule:nonzero;stroke:none;stroke-width:0.0243301"
       id="path52" />
    <path
       d="m 98.970919,114.36762 c -1.074904,0 -1.884367,-0.67906 -1.884367,-1.92963 0,-1.19436 0.809463,-2.00358 1.991659,-2.00358 0.475413,0 0.775159,0.10192 0.905569,0.17007 l -0.119217,0.40194 c -0.186611,-0.091 -0.452536,-0.15864 -0.769565,-0.15864 -0.893644,0 -1.488515,0.57103 -1.488515,1.57269 0,0.93355 0.537938,1.53354 1.466376,1.53354 0.299264,0 0.605093,-0.0621 0.803139,-0.15838 l 0.101947,0.39073 c -0.180777,0.0902 -0.543048,0.18126 -1.007026,0.18126"
       style="fill:#536e91;fill-opacity:1;fill-rule:nonzero;stroke:none;stroke-width:0.0243301"
       id="path54" />
    <path
       d="m 103.43136,114.31069 h -0.49779 v -1.78802 h -1.84471 v 1.78802 h -0.49244 v -3.81375 h 0.49244 v 1.59557 h 1.84471 v -1.59557 h 0.49779 v 3.81375"
       style="fill:#536e91;fill-opacity:1;fill-rule:nonzero;stroke:none;stroke-width:0.0243301"
       id="path56" />
    <path
       d="m 104.48607,115.75955 c -0.2231,0 -0.41847,-0.0699 -0.51579,-0.1343 l 0.073,-0.20754 c 0.0766,0.0487 0.25303,0.12555 0.4394,0.12555 0.34525,0 0.45132,-0.22043 0.44865,-0.38466 -0.004,-0.27785 -0.25304,-0.39708 -0.51288,-0.39708 h -0.14963 v -0.20145 h 0.14963 c 0.19586,0 0.44257,-0.10047 0.44257,-0.33551 0,-0.15911 -0.10072,-0.2995 -0.34768,-0.2995 -0.15888,0 -0.31167,0.0703 -0.39683,0.13114 l -0.0706,-0.19513 c 0.10413,-0.0759 0.3051,-0.1528 0.51896,-0.1528 0.39075,0 0.56811,0.23211 0.56811,0.47347 0,0.20438 -0.12238,0.37833 -0.36592,0.46641 v 0.007 c 0.24354,0.0487 0.44159,0.23211 0.44159,0.50972 0,0.31751 -0.24671,0.59511 -0.72261,0.59511"
       style="fill:#536e91;fill-opacity:1;fill-rule:nonzero;stroke:none;stroke-width:0.0243301"
       id="path58" />
    <path
       d="m 119.11068,144.16889 -0.003,-0.43454 7.62725,-0.0691 0.002,0.43454 -7.627,0.0691"
       style="fill:#536e91;fill-opacity:1;fill-rule:nonzero;stroke:none;stroke-width:0.0243301"
       id="path60" />
    <path
       d="m 130.11642,145.42723 c -1.07538,0 -1.88461,-0.67954 -1.88461,-1.92987 0,-1.19363 0.80923,-2.00309 1.99167,-2.00309 0.47541,0 0.77564,0.1017 0.90557,0.16958 l -0.11873,0.40218 c -0.1871,-0.0908 -0.45279,-0.15863 -0.76982,-0.15863 -0.89412,0 -1.48778,0.57103 -1.48778,1.57294 0,0.9333 0.5377,1.53304 1.46565,1.53304 0.29975,0 0.60485,-0.0621 0.80314,-0.15789 l 0.10192,0.39025 c -0.18101,0.0908 -0.54353,0.18149 -1.00702,0.18149"
       style="fill:#536e91;fill-opacity:1;fill-rule:nonzero;stroke:none;stroke-width:0.0243301"
       id="path62" />
    <path
       d="m 134.57663,145.37054 h -0.49805 v -1.7885 h -1.84447 v 1.7885 h -0.49147 v -3.81423 h 0.49147 v 1.59558 h 1.84447 v -1.59558 h 0.49805 v 3.81423"
       style="fill:#536e91;fill-opacity:1;fill-rule:nonzero;stroke:none;stroke-width:0.0243301"
       id="path64" />
    <path
       d="m 135.63134,146.81941 c -0.22286,0 -0.41849,-0.0703 -0.5158,-0.13479 l 0.0732,-0.20705 c 0.0762,0.0484 0.25352,0.12555 0.43988,0.12555 0.34428,0 0.45132,-0.22044 0.44791,-0.38516 -0.002,-0.27736 -0.25277,-0.39706 -0.51213,-0.39706 h -0.14964 v -0.20098 h 0.14964 c 0.19463,0 0.44207,-0.10091 0.44207,-0.33599 0,-0.15862 -0.10047,-0.2995 -0.34768,-0.2995 -0.15888,0 -0.31191,0.0705 -0.39658,0.13163 l -0.0703,-0.19513 c 0.10316,-0.0764 0.30511,-0.1528 0.51848,-0.1528 0.39074,0 0.56811,0.23163 0.56811,0.47347 0,0.20438 -0.12213,0.37832 -0.36666,0.46665 v 0.006 c 0.24453,0.0492 0.44306,0.23258 0.44306,0.50972 0,0.31749 -0.24743,0.59559 -0.72358,0.59559"
       style="fill:#536e91;fill-opacity:1;fill-rule:nonzero;stroke:none;stroke-width:0.0243301"
       id="path66" />
    <path
       d="m 78.707803,150.42926 c -1.074906,0 -1.884126,-0.67905 -1.884126,-1.92962 0,-1.19412 0.80922,-2.00309 1.991909,-2.00309 0.475168,0 0.774915,0.10147 0.905081,0.16981 l -0.118731,0.40171 c -0.186612,-0.0908 -0.453027,-0.15864 -0.769563,-0.15864 -0.894132,0 -1.488275,0.57128 -1.488275,1.57294 0,0.93355 0.53721,1.53329 1.465405,1.53329 0.299991,0 0.605821,-0.0618 0.803624,-0.15815 l 0.101453,0.39049 c -0.18053,0.0902 -0.542562,0.18126 -1.006782,0.18126"
       style="fill:#536e91;fill-opacity:1;fill-rule:nonzero;stroke:none;stroke-width:0.0243301"
       id="path68" />
    <path
       d="m 83.168492,150.37234 h -0.498038 v -1.78802 h -1.844469 v 1.78802 h -0.492442 v -3.81375 h 0.492442 v 1.59581 h 1.844469 v -1.59581 h 0.498038 v 3.81375"
       style="fill:#536e91;fill-opacity:1;fill-rule:nonzero;stroke:none;stroke-width:0.0243301"
       id="path70" />
    <path
       d="m 84.222959,151.82144 c -0.223107,0 -0.418235,-0.0699 -0.515798,-0.13455 l 0.07324,-0.20729 c 0.07591,0.0487 0.253277,0.12555 0.439403,0.12555 0.344758,0 0.451324,-0.22067 0.448405,-0.38466 -0.0027,-0.27786 -0.25279,-0.39707 -0.512637,-0.39707 h -0.149143 v -0.20146 h 0.149143 c 0.195372,0 0.442323,-0.10046 0.442323,-0.3355 0,-0.15914 -0.100485,-0.29951 -0.347921,-0.29951 -0.15839,0 -0.311427,0.0703 -0.395852,0.13089 l -0.07056,-0.19512 c 0.103398,-0.0759 0.304855,-0.15255 0.518475,-0.15255 0.390985,0 0.568352,0.23186 0.568352,0.47322 0,0.20462 -0.122138,0.37857 -0.366898,0.46665 v 0.007 c 0.24476,0.0489 0.442808,0.23211 0.442808,0.50995 0,0.31727 -0.247438,0.59512 -0.723336,0.59512"
       style="fill:#536e91;fill-opacity:1;fill-rule:nonzero;stroke:none;stroke-width:0.0243301"
       id="path72" />
    <path
       d="m 120.34617,124.47388 c -0.92722,0 -1.57806,-0.71896 -1.57806,-1.78146 0,-1.11481 0.69244,-1.84447 1.63037,-1.84447 0.95861,0 1.5783,0.73502 1.5783,1.77659 0,1.20848 -0.73477,1.84934 -1.63061,1.84934 m 0.0317,-3.25586 c -0.7501,0 -1.12503,0.69316 -1.12503,1.46394 0,0.75035 0.40607,1.4221 1.11992,1.4221 0.71822,0 1.12478,-0.66154 1.12478,-1.4586 0,-0.69778 -0.36447,-1.42744 -1.11967,-1.42744"
       style="fill:#536e91;fill-opacity:1;fill-rule:nonzero;stroke:none;stroke-width:0.0243301"
       id="path74" />
    <path
       d="m 102.44137,128.00029 h -0.53673 l -1.30482,-2.08534 c -0.28636,-0.45717 -0.56081,-0.92673 -0.767858,-1.37222 l -0.01848,0.007 c 0.03042,0.51822 0.04207,1.01213 0.04207,1.69507 v 1.75616 h -0.499495 v -4.10985 h 0.579539 l 1.316264,2.07924 c 0.30583,0.48175 0.54329,0.91458 0.73818,1.33524 l 0.0122,-0.006 c -0.0487,-0.54889 -0.061,-1.04912 -0.061,-1.68924 v -1.71941 h 0.50022 v 4.10984"
       style="fill:#536e91;fill-opacity:1;fill-rule:nonzero;stroke:none;stroke-width:0.0243301"
       id="path76" />
    <path
       d="m 107.96772,157.17285 -7.97883,-4.84534 0.20121,-9.11018 0.005,-0.22238 0.245,-0.1343 3.92421,-2.15127 4.01642,-2.20188 0.24063,0.14647 5.51467,3.34905 -0.43576,0.24305 -5.33048,-3.23688 -3.79697,2.08096 -3.94878,2.16465 -10e-4,0.0766 -0.19416,8.75519 7.55013,4.58478 7.74648,-4.24536 0.13114,-5.91102 0.43916,-0.24524 -0.14136,6.4161 -8.18612,4.48696"
       style="fill:#536e91;fill-opacity:1;fill-rule:nonzero;stroke:none;stroke-width:0.0243301"
       id="path78" />
    <path
       d="m 101.18812,143.91341 -0.21167,-0.37906 7.15915,-3.995 0.21118,0.37882 -7.15866,3.99524"
       style="fill:#536e91;fill-opacity:1;fill-rule:nonzero;stroke:none;stroke-width:0.0243301"
       id="path80" />
    <path
       d="m 116.74749,145.94839 -0.463,-0.002 -1.11748,-1.80407 c -0.24598,-0.39634 -0.48052,-0.80169 -0.65765,-1.18732 l -0.0161,0.007 c 0.0248,0.44646 0.0331,0.87297 0.0301,1.46248 l -0.007,1.5148 -0.43064,-0.001 0.0158,-3.5466 0.49974,0.002 1.12819,1.79921 c 0.26155,0.41702 0.46495,0.79145 0.63112,1.15543 l 0.0109,-0.006 c -0.0395,-0.47322 -0.0482,-0.90508 -0.0455,-1.4569 l 0.006,-1.48437 0.43138,0.002 -0.0158,3.54636"
       style="fill:#536e91;fill-opacity:1;fill-rule:nonzero;stroke:none;stroke-width:0.0243301"
       id="path82" />
  </g>
</svg>
