<?xml version="1.0" encoding="UTF-8" standalone="no"?>
<svg
   xmlns:dc="http://purl.org/dc/elements/1.1/"
   xmlns:cc="http://creativecommons.org/ns#"
   xmlns:rdf="http://www.w3.org/1999/02/22-rdf-syntax-ns#"
   xmlns:svg="http://www.w3.org/2000/svg"
   xmlns="http://www.w3.org/2000/svg"
   xmlns:sodipodi="http://sodipodi.sourceforge.net/DTD/sodipodi-0.dtd"
   xmlns:inkscape="http://www.inkscape.org/namespaces/inkscape"
   width="233.66614"
   height="228.50476"
   viewBox="0 0 61.824165 60.458549"
   version="1.1"
   id="svg1034"
   inkscape:version="1.0.1 (3bc2e813f5, 2020-09-07)"
   sodipodi:docname="microscope-particles.svg"
   inkscape:export-filename="C:\Users\keega\Documents\cannlytics\assets\images\illustrations\multi-tone\microscope-particles.png"
   inkscape:export-xdpi="96"
   inkscape:export-ydpi="96">
  <defs
     id="defs1028">
    <clipPath
       clipPathUnits="userSpaceOnUse"
       id="clipPath1824">
      <path
         d="m 466.283,741.164 h 63.482 v -19.581 h -63.482 z"
         id="path1822"
         inkscape:connector-curvature="0" />
    </clipPath>
    <filter
       inkscape:collect="always"
       style="color-interpolation-filters:sRGB"
       id="filter2984"
       x="-4.8417312e-05"
       width="1.0000968"
       y="-5.6567825e-05"
       height="1.0001131">
      <feGaussianBlur
         inkscape:collect="always"
         stdDeviation="0.0010676785"
         id="feGaussianBlur2986" />
    </filter>
    <clipPath
       clipPathUnits="userSpaceOnUse"
       id="clipPath334-3">
      <path
         d="m 1729.7,3013.83 c 29.87,-155.68 -72.13,-306.09 -227.8,-335.96 -155.69,-29.87 -306.1,72.13 -335.97,227.81 -29.86,155.68 72.13,306.09 227.81,335.96 155.68,29.87 306.1,-72.13 335.96,-227.81 z"
         id="path332-9" />
    </clipPath>
    <clipPath
       clipPathUnits="userSpaceOnUse"
       id="clipPath374-5">
      <path
         d="m 1491.59,2403.34 c 29.87,-155.68 -72.12,-306.1 -227.8,-335.96 -155.68,-29.87 -306.099,72.13 -335.966,227.8 -29.863,155.69 72.129,306.1 227.806,335.97 155.68,29.86 306.1,-72.13 335.96,-227.81 z"
         id="path372-2" />
    </clipPath>
  </defs>
  <sodipodi:namedview
     id="base"
     pagecolor="#323443"
     bordercolor="#666666"
     borderopacity="1.0"
     inkscape:pageopacity="0"
     inkscape:pageshadow="2"
     inkscape:zoom="1.979899"
     inkscape:cx="50.57712"
     inkscape:cy="101.61356"
     inkscape:document-units="mm"
     inkscape:current-layer="layer1"
     inkscape:document-rotation="0"
     showgrid="false"
     inkscape:window-width="1920"
     inkscape:window-height="1120"
     inkscape:window-x="-11"
     inkscape:window-y="-11"
     inkscape:window-maximized="1"
     units="px" />
  <metadata
     id="metadata1031">
    <rdf:RDF>
      <cc:Work
         rdf:about="">
        <dc:format>image/svg+xml</dc:format>
        <dc:type
           rdf:resource="http://purl.org/dc/dcmitype/StillImage" />
        <dc:title></dc:title>
      </cc:Work>
    </rdf:RDF>
  </metadata>
  <g
     inkscape:label="Layer 1"
     inkscape:groupmode="layer"
     id="layer1"
     transform="translate(-75.677204,-103.57435)"
     style="filter:url(#filter2984)">
    <path
       fill="#f6e2ee"
       d="m 98.704337,128.62715 h -13.66795 a 4.9054313,4.9054313 0 1 0 0,9.81086 h 13.66913 a 4.9054313,4.9054313 0 0 0 0,-9.81086 z m 29.437853,-8.5873 h -5.20116 a 4.9054313,4.9054313 0 1 0 0,9.81086 h 5.20116 a 4.9054313,4.9054313 0 1 0 0,-9.81086 z m -1.47403,23.84746 h -8.74074 a 4.9054313,4.9054313 0 0 0 0,9.81086 h 8.74074 a 4.9054313,4.9054313 0 1 0 0,-9.81086 z"
       id="path2"
       style="stroke-width:0.587969" />
    <path
       fill="#cf95c2"
       d="m 115.54138,131.6367 a 1.2758935,1.2758935 0 0 0 -1.27589,1.2759 v 1.88974 h 2.55179 v -1.88974 a 1.2758935,1.2758935 0 0 0 -1.2759,-1.2759 z"
       id="path10"
       style="stroke-width:0.587969" />
    <ellipse
       cx="107.13816"
       cy="122.7598"
       fill="#cf95c2"
       rx="2.418318"
       ry="1.0213028"
       id="ellipse18"
       style="stroke-width:0.587969" />
    <circle
       cx="91.979134"
       cy="115.53719"
       r="1.11479"
       fill="#f3765d"
       id="circle22"
       style="stroke-width:0.587969" />
    <circle
       cx="83.449471"
       cy="145.52835"
       r="1.6339669"
       fill="#d2edf6"
       id="circle24"
       style="stroke-width:0.587969" />
    <circle
       cx="118.50596"
       cy="112.78842"
       r="1.6339669"
       fill="#dfebf8"
       id="circle26"
       style="stroke-width:0.587969" />
    <circle
       cx="130.26476"
       cy="136.86873"
       r="0.77964741"
       fill="#fdbe5c"
       id="circle28"
       style="stroke-width:0.587969" />
    <circle
       cx="97.504875"
       cy="153.95099"
       r="2.5018098"
       fill="#fdddd6"
       id="circle30"
       style="stroke-width:0.587969" />
    <g
       id="g1096"
       transform="matrix(1.5449526,0,0,1.5449526,24.373397,-58.644605)">
      <path
         d="m 53.594609,120.15467 h 0.630879 v 3.06923 h -0.630879 c -3.631088,0 -6.585053,3.0789 -6.585053,6.86333 0,3.78465 2.953965,6.86334 6.585053,6.86334 2.165347,0 4.192993,-1.11077 5.424048,-2.97144 l 0.358339,-0.54151 2.423416,1.74291 -0.358127,0.54151 c -1.780762,2.69111 -4.714561,4.29771 -7.847676,4.29771 -5.254466,0 -9.529155,-4.45565 -9.529155,-9.93252 0,-5.47666 4.274689,-9.93256 9.529155,-9.93256"
         style="fill:#d4d6d3;fill-opacity:1;fill-rule:nonzero;stroke:none;stroke-width:0.0210293"
         id="path274" />
      <path
         d="m 54.435782,120.54392 h 0.63088 v 2.94411 h -0.63088 c -3.631089,0 -6.585054,2.95335 -6.585054,6.58343 0,3.63029 2.953965,6.58365 6.585054,6.58365 2.165345,0 4.192991,-1.06535 5.424048,-2.85032 l 0.358338,-0.51921 2.423418,1.67183 -0.358129,0.51942 c -1.780762,2.58137 -4.714561,4.12234 -7.847675,4.12234 -5.254468,0 -9.529158,-4.27396 -9.529158,-9.52771 0,-5.25333 4.27469,-9.52754 9.529158,-9.52754"
         style="fill:#e7e8e5;fill-opacity:1;fill-rule:nonzero;stroke:none;stroke-width:0.0210293"
         id="path276" />
      <path
         d="m 47.046924,112.8329 -1.454954,1.2565 2.437002,2.82192 1.45506,-1.2565 -2.437108,-2.82192"
         style="fill:#b497d2;fill-opacity:1;fill-rule:nonzero;stroke:none;stroke-width:0.0210293"
         id="path278" />
      <path
         d="m 48.182507,113.50983 -2.08617,1.80158 12.173887,14.09658 2.086106,-1.80159 -12.173823,-14.09657"
         style="fill:#17282f;fill-opacity:1;fill-rule:nonzero;stroke:none;stroke-width:0.0210293"
         id="path280" />
      <path
         d="m 59.836065,125.21222 -3.858666,3.33251 -9.150294,-10.5954 3.858793,-3.33252 9.150167,10.59541"
         style="fill:#e7e8e5;fill-opacity:1;fill-rule:nonzero;stroke:none;stroke-width:0.0210293"
         id="path282" />
      <path
         d="m 57.993268,123.90083 -0.794908,0.6864 -0.951156,-1.10131 0.794908,-0.68661 0.951156,1.10152"
         style="fill:#ffffff;fill-opacity:1;fill-rule:nonzero;stroke:none;stroke-width:0.0210293"
         id="path284" />
      <path
         d="m 56.58115,122.26538 -0.795119,0.68682 -5.499689,-6.36831 0.795013,-0.6866 5.499795,6.36809"
         style="fill:#ffffff;fill-opacity:1;fill-rule:nonzero;stroke:none;stroke-width:0.0210293"
         id="path286" />
      <path
         d="m 52.84033,121.36785 c 0.791481,0.91646 0.690203,2.30082 -0.226297,3.09236 -0.916415,0.79154 -2.3009,0.69018 -3.09238,-0.22628 -0.791312,-0.91645 -0.690118,-2.30102 0.226318,-3.09235 0.916499,-0.79155 2.3009,-0.69019 3.092359,0.22627"
         style="fill:#b497d2;fill-opacity:1;fill-rule:nonzero;stroke:none;stroke-width:0.0210293"
         id="path288" />
      <path
         d="m 52.203289,121.91798 c 0.487713,0.56463 0.425277,1.41758 -0.139381,1.90525 -0.564595,0.48767 -1.417523,0.42522 -1.905214,-0.13963 -0.487543,-0.56443 -0.425108,-1.41738 0.139487,-1.90505 0.564658,-0.48746 1.417586,-0.42521 1.905108,0.13943 z"
         style="fill:none;stroke:#17282f;stroke-width:0.210293;stroke-linecap:butt;stroke-linejoin:miter;stroke-miterlimit:10;stroke-dasharray:none;stroke-opacity:1"
         id="path290" />
      <path
         d="m 56.327326,132.4667 c 2.406594,0.0603 5.210432,0.037 7.430073,-2.46316 0.04669,1.93932 -3.317791,3.01076 -3.317791,3.01076 0,0 -2.943894,0.77073 -4.112282,-0.5476"
         style="fill:#8c74bc;fill-opacity:1;fill-rule:nonzero;stroke:none;stroke-width:0.0210293"
         id="path292" />
      <path
         d="m 66.411508,131.85075 -11.342218,2.97943 c 0,0 0,0 0,0 l -0.19921,-0.7581 11.342154,-2.97944 c 0,0 0,0 2.11e-4,0 l 0.199149,0.75811"
         style="fill:#273d47;fill-opacity:1;fill-rule:nonzero;stroke:none;stroke-width:0.0210293"
         id="path294" />
      <path
         d="m 62.827695,133.53688 c 0.791333,0.91625 0.690182,2.30082 -0.226275,3.09236 -0.916459,0.79133 -2.301027,0.68997 -3.092359,-0.22628 -0.791544,-0.91666 -0.690183,-2.30102 0.226275,-3.09236 0.916457,-0.79154 2.301024,-0.69018 3.092359,0.22628"
         style="fill:#b497d2;fill-opacity:1;fill-rule:nonzero;stroke:none;stroke-width:0.0210293"
         id="path296" />
      <path
         d="m 62.190508,134.08701 c 0.487668,0.56463 0.425211,1.41737 -0.139214,1.90525 -0.564637,0.48746 -1.417586,0.425 -1.905256,-0.13942 -0.487669,-0.56485 -0.425212,-1.4178 0.139425,-1.90526 0.564637,-0.48767 1.417584,-0.42521 1.905045,0.13943 z"
         style="fill:none;stroke:#17282f;stroke-width:0.210293;stroke-linecap:butt;stroke-linejoin:miter;stroke-miterlimit:10;stroke-dasharray:none;stroke-opacity:1"
         id="path298" />
      <path
         d="m 45.000354,138.88589 -0.0026,1.91195 -0.0027,1.91227 5.064048,0.007 0.0017,-1.2515 c 4.79e-4,-0.36482 0.368413,-0.66028 0.821784,-0.65946 l 7.155285,0.007 c 0.45339,6.4e-4 0.820561,0.29687 0.819931,0.66175 l -0.0017,1.2515 5.064068,0.007 0.0025,-1.91194 0.0025,-1.91218 -18.924859,-0.0232"
         style="fill:#f6f6f4;fill-opacity:1;fill-rule:nonzero;stroke:#273d47;stroke-width:0.138618;stroke-miterlimit:4;stroke-dasharray:none;stroke-opacity:1"
         id="path300" />
      <path
         d="m 63.688633,139.66545 c -0.488088,-0.10283 -1.028964,-0.0486 -1.526728,-0.053 -0.535193,-0.005 -1.070602,-0.01 -1.605795,-0.0141 -1.05441,-0.009 -2.10861,-0.008 -3.163019,-0.008 -2.092626,-6.4e-4 -6.28791,-9.5e-4 -8.38041,-0.001 -0.584068,-2.1e-4 -1.168031,0.004 -1.75193,0.007 -0.580768,0.003 -1.182732,-0.009 -1.73393,0.18229 -0.11583,0.04 -0.11623,0.18573 -3.38e-4,0.22631 0.477849,0.16717 0.984929,0.17539 1.490136,0.18506 0.535007,0.0105 1.070771,0.0101 1.605862,0.0124 1.054346,0.005 2.108692,0.005 3.163018,0.008 2.092332,0.005 6.288097,0.0236 8.380514,0.0118 0.583773,-0.003 1.167756,-0.007 1.751741,-0.0104 0.292097,-0.002 0.583983,-0.003 0.87608,-0.005 0.298407,-0.002 0.600807,0.0159 0.894167,-0.0448 0.255295,-0.053 0.256136,-0.44204 6.35e-4,-0.49543"
         style="fill:#17282f;fill-opacity:1;fill-rule:nonzero;stroke:none;stroke-width:0.0210293"
         id="path302" />
      <path
         d="m 49.022038,137.48869 c 0.368434,-0.22731 0.892506,-0.14105 1.299297,-0.14845 0.457976,-0.008 0.9161,-0.0204 1.374054,-0.0311 0.898099,-0.021 1.796702,-0.0298 2.695032,-0.0311 0.898267,-0.001 1.79727,-0.0124 2.695221,6.4e-4 0.924869,0.0132 1.831444,0.10342 2.747901,0.23807 0.278637,0.041 0.278849,0.4637 0,0.5047 -0.916247,0.13455 -1.823032,0.22622 -2.747901,0.23806 -0.898161,0.0116 -1.796954,0.002 -2.695221,6.3e-4 -0.89833,-9.4e-4 -1.796933,-0.01 -2.695032,-0.0311 -0.457954,-0.0107 -0.916078,-0.0228 -1.374054,-0.0311 -0.405047,-0.007 -0.932524,0.0779 -1.299297,-0.14851 -0.18409,-0.11377 -0.18409,-0.44688 0,-0.56065"
         style="fill:#d4d6d3;fill-opacity:1;fill-rule:nonzero;stroke:none;stroke-width:0.0210293"
         id="path304" />
      <path
         d="m 64.673435,137.79977 -20.41815,-0.0253 c -0.491475,-6.3e-4 -0.890528,0.39727 -0.891285,0.88891 v 0.13209 c -7.32e-4,0.49164 0.397181,0.89038 0.888742,0.8912 l 20.418046,0.0253 c 0.491663,6.3e-4 0.890591,-0.39725 0.891222,-0.88872 l 2.11e-4,-0.13211 c 7.75e-4,-0.49164 -0.397033,-0.89078 -0.888697,-0.89135"
         style="fill:#f6f6f4;fill-opacity:1;fill-rule:nonzero;stroke:#273d47;stroke-width:0.138618;stroke-miterlimit:4;stroke-dasharray:none;stroke-opacity:1"
         id="path306" />
    </g>
  </g>
</svg>
