<?xml version="1.0" encoding="UTF-8" standalone="no"?>
<svg
   xmlns:dc="http://purl.org/dc/elements/1.1/"
   xmlns:cc="http://creativecommons.org/ns#"
   xmlns:rdf="http://www.w3.org/1999/02/22-rdf-syntax-ns#"
   xmlns:svg="http://www.w3.org/2000/svg"
   xmlns="http://www.w3.org/2000/svg"
   xmlns:sodipodi="http://sodipodi.sourceforge.net/DTD/sodipodi-0.dtd"
   xmlns:inkscape="http://www.inkscape.org/namespaces/inkscape"
   version="1.1"
   viewBox="0 0 525 525"
   id="svg64"
   sodipodi:docname="leaf.svg"
   width="525"
   height="525"
   inkscape:version="1.0.1 (3bc2e813f5, 2020-09-07)"
   inkscape:export-filename="C:\Users\keega\OneDrive\Cannlytics\assets\images\ai\midjourney\cannabis-leaf.png"
   inkscape:export-xdpi="96"
   inkscape:export-ydpi="96">
  <metadata
     id="metadata70">
    <rdf:RDF>
      <cc:Work
         rdf:about="">
        <dc:format>image/svg+xml</dc:format>
        <dc:type
           rdf:resource="http://purl.org/dc/dcmitype/StillImage" />
        <dc:title></dc:title>
      </cc:Work>
    </rdf:RDF>
  </metadata>
  <defs
     id="defs68" />
  <sodipodi:namedview
     pagecolor="#ffffff"
     bordercolor="#666666"
     borderopacity="1"
     objecttolerance="10"
     gridtolerance="10"
     guidetolerance="10"
     inkscape:pageopacity="0"
     inkscape:pageshadow="2"
     inkscape:window-width="1920"
     inkscape:window-height="1094"
     id="namedview66"
     showgrid="false"
     inkscape:zoom="1.0399442"
     inkscape:cx="218.29705"
     inkscape:cy="276.59003"
     inkscape:window-x="-11"
     inkscape:window-y="-11"
     inkscape:window-maximized="1"
     inkscape:current-layer="svg64" />
  <g
     id="g934"
     transform="translate(30.50377,2.4861776)">
    <g
       stroke-width="2"
       fill="none"
       stroke-linecap="butt"
       id="g42"
       transform="translate(-280.27718,-252.29996)">
      <path
         stroke="#888184"
         vector-effect="non-scaling-stroke"
         d="m 586.46,478.23 q 2.85,-20.35 1.87,-40.93 -2.35,-48.83 -20.01,-94.37 c -10.26,-26.46 -25.1,-55.2 -36.52,-76.73 -8.96,-16.9 -28.62,-17.45 -37.49,-0.14 -19.18,37.42 -34.63,65.95 -45.42,101.86 q -12.12,40.35 -12.04,82.52 0.03,12.26 1.85,27.94 0.32,2.81 -1.69,0.83 -22.3,-21.84 -50.7,-35.02 -13.43,-6.24 -74.36,-33.9 c -15.31,-6.94 -32,3.5 -30.59,20.77 0.31,3.71 1.91,7.71 3.26,11.36 q 15.79,42.66 31.83,85.22 c 12.42,32.96 29.44,58.53 57.93,79.96 q 5.06,3.8 10.26,6.9 1.9,1.13 -0.21,1.81 -14.84,4.76 -28.72,11.67 -18.51,9.22 -36.89,18.64 c -15.71,8.05 -15.34,28.39 0.17,36.4 q 25.79,13.3 51.82,26.11 c 30.48,14.98 59.06,21.99 91.83,7.1 q 11.11,-5.05 21.09,-12.08 1.62,-1.14 1.58,0.84 -0.38,16.51 -0.03,33.19 c 0.06,2.79 -0.08,5.54 0.31,8.15 5.28,35.17 52.33,32.41 53.91,-3.12 q 0.84,-19.08 0.27,-38.19 -0.06,-2.04 1.59,-0.84 16.44,11.99 36.15,17.57 c 22.15,6.26 44.41,1.86 65.41,-7.35 19.7,-8.63 38.81,-18.89 57.84,-28.87 q 8.38,-4.4 11.27,-7.6 c 7.89,-8.75 6.41,-24.68 -4.55,-30.7 q -7.36,-4.04 -41.96,-20.96 -12.01,-5.88 -24.77,-9.93 -2.15,-0.68 -0.2,-1.82 7.02,-4.07 13.4,-9.33 37.17,-30.67 53.56,-75.74 c 10.64,-29.25 21.77,-58.33 32.46,-87.57 4.35,-11.92 5.86,-21.73 -4.79,-29.84 -10.47,-7.98 -21.49,-2.29 -31.76,2.36 q -27.03,12.27 -53.91,24.85 c -20.91,9.78 -40.55,19.45 -57.24,35.93 q -2.03,2.01 -4.15,3.93 -2.04,1.85 -1.66,-0.88"
         id="path2" />
      <path
         stroke="#2c6533"
         vector-effect="non-scaling-stroke"
         d="m 478.04,538.75 c 3.96,12.65 -12.54,19.36 -19.01,7.17 q -4.58,-8.62 -8.78,-14.96"
         id="path4" />
      <path
         stroke="#45712f"
         vector-effect="non-scaling-stroke"
         d="m 450.25,530.96 c -16.38,-27.77 -43.7,-52.22 -73.04,-65.44 q -34.65,-15.62 -69.14,-31.63 -2.2,-1.03 -1.36,1.25 17.06,45.97 34.54,92.11 4.7,12.4 13.04,25.25"
         id="path6" />
      <path
         stroke="#2c6533"
         vector-effect="non-scaling-stroke"
         d="m 354.29,552.5 c 11.05,17.16 27.14,34.31 45.4,42.8 q 9.99,4.65 50.87,24.15 c 4.11,1.96 7.54,2.8 8.69,7.67 1.38,5.82 -2.02,11.39 -8.05,12.31 q -2.38,0.37 -6.82,-0.75 -8.1,-2.03 -14.69,-3.34 c -26.64,-5.25 -51.54,6.92 -76.82,19.72 q -8.71,4.41 -17.59,8.59 -1.47,0.7 -0.02,1.44 12.14,6.17 24.2,12.48 18,9.42 36.74,17.18 c 23.88,9.88 48.24,6.23 69.97,-7.1 q 10.47,-6.42 20.37,-15.22 1.99,-1.76 -0.67,-1.75 l -42.6,0.29 a 1.06,1.05 -67.9 0 0 -0.72,0.31 q -9.05,9.41 -15.11,16.41 c -2.45,2.83 -5.66,5.24 -9.56,3.81 -5.11,-1.85 -5.8,-7.07 -2.91,-11.36 q 2.68,-3.97 6.5,-7.12 2.17,-1.78 -0.64,-1.77 -16,0.05 -33.01,-0.06 c -10.26,-0.06 -11.65,-14.56 1.49,-14.82 q 15.36,-0.3 30.8,0.1 1.94,0.05 0.6,-1.35 -1.1,-1.16 -2.3,-2.21 c -2.69,-2.37 -5.01,-4.84 -4.16,-8.14 q 2.04,-7.92 10.41,-5.98 a 1.08,0.97 -13.2 0 1 0.49,0.27 l 16.61,16.82 a 0.99,0.98 66.5 0 0 0.72,0.29 l 58.54,-0.24 q 2.29,-0.01 0.73,-1.68 l -65.95,-70.6 a 1.06,1.03 68.9 0 0 -0.7,-0.32 q -14.4,-0.53 -31.84,-0.29 c -10.66,0.14 -11.3,-14.32 1.13,-14.26 q 7.82,0.05 15.69,-0.15 2.22,-0.05 0.71,-1.68 l -12.23,-13.14 a 1.02,1.01 -21.5 0 0 -0.74,-0.32 q -16.65,0.04 -33.28,-0.01 c -4.07,-0.02 -6.67,-1.06 -8.25,-4.73"
         id="path8" />
      <path
         stroke="#45712f"
         vector-effect="non-scaling-stroke"
         d="m 366.29,548.75 c -1.26,-7.98 3.86,-10.12 10.81,-9.94 q 7.48,0.19 15.83,0.19 2.56,-0.01 0.68,-1.74 -6.73,-6.22 -12.44,-12.43 -4.97,-5.39 -31.28,-32.22 c -6.84,-6.97 1.12,-16.4 8.95,-11.58 q 2.23,1.38 4.03,3.28 22.46,23.78 46.17,48.69 0.32,0.33 0.7,1.14 0.05,0.11 0.11,0.22 1.12,1.98 1.2,-0.29 0.24,-7.21 0.2,-14.41 -0.03,-4.67 1,-6.63 c 3.43,-6.51 13,-3.89 12.99,4.09 q -0.01,14.95 0.05,29.88"
         id="path10" />
      <path
         stroke="#2c6533"
         vector-effect="non-scaling-stroke"
         d="m 425.29,547 q -0.49,3.3 1.78,5.69 12.73,13.38 25.59,26.65 1.62,1.67 1.72,-0.65 0.31,-6.9 0.1,-11.71 c -0.35,-8.08 10.01,-10.18 13.3,-3.76 q 1.27,2.49 1.13,7.79 -0.35,13.05 -0.1,26.13 a 0.94,0.92 26.9 0 0 0.19,0.56 q 2.06,2.87 3.47,4.33 16.3,16.91 31.88,34.53 1.4,1.58 1.4,-0.53 v -48.32 a 0.99,0.99 0 0 0 -0.48,-0.85 q -10.63,-6.44 -21.24,-12.87 c -9.94,-6.03 -2.24,-17.87 8.6,-11.86 q 5.94,3.3 11.61,7.05 1.56,1.03 1.55,-0.84 l -0.05,-16.35 q -0.01,-2.25 -1.89,-3.33 l -22.22,-12.75"
         id="path12" />
      <path
         stroke="#45712f"
         vector-effect="non-scaling-stroke"
         d="m 481.63,535.91 q -5.16,-7.29 1.22,-11.3 c 3.09,-1.96 6.33,-1.59 9.34,0.22 q 6.01,3.6 12.02,7.29 1.52,0.93 1.52,-0.85 l 0.06,-18.98 a 0.99,0.98 -74.5 0 0 -0.49,-0.87 q -11.31,-6.69 -23,-13.23 c -6.88,-3.86 -2.38,-17.49 8.64,-12.01 q 7.09,3.52 13.52,7.49 1.56,0.96 1.53,-0.87 l -0.34,-18.76 a 1.01,1 -76.1 0 0 -0.51,-0.86 q -9.86,-5.5 -19.69,-11.27 -4.17,-2.45 -5.28,-4.06 c -2.68,-3.86 0.3,-10.03 4.95,-10.96 3.27,-0.65 6.99,1.42 9.79,3.2 q 4.7,2.99 9.38,5.86 1.52,0.93 1.52,-0.85 l 0.1,-18.41 a 1.02,1.01 14.5 0 0 -0.53,-0.89 q -11.35,-6.17 -22.45,-12.48 c -8.69,-4.93 -1.66,-17.89 8.83,-12.21 q 6.44,3.49 12.46,7.23 1.53,0.95 1.53,-0.85 0,-30.33 0.09,-59.99 c 0.02,-7.1 9.21,-10.06 12.63,-4.76 q 1.32,2.05 1.3,6.29 c -0.07,15.14 -0.08,30.26 0.23,45.4 q 0.14,6.49 -0.19,13.06 -0.1,1.89 1.52,0.9 6.42,-3.92 12.9,-7.93 c 8.28,-5.12 17.75,6.39 7.06,12.86 q -10.39,6.29 -20.87,12.52 a 1,1 0 0 0 -0.49,0.86 l 0.05,18.45 q 0,1.76 1.51,0.86 4.77,-2.86 9.62,-5.95 c 5,-3.17 10.59,-5.97 14.27,0.22 2.61,4.4 0.28,7.92 -3.62,10.24 q -10.24,6.1 -21.23,12.62 a 1.02,1.01 -15.1 0 0 -0.49,0.85 l -0.21,19.35 q -0.02,1.8 1.52,0.87 6.27,-3.81 12.48,-7.68 c 10.64,-6.64 17.43,6.16 8.73,11.55 q -9.3,5.75 -20.82,12.23 -1.98,1.12 -1.96,3.43 l 0.15,17.42 a 1,1 0 0 0 1.47,0.87 q 5.6,-3.03 11.01,-6.38 3.7,-2.3 5.56,-2.54 c 4.77,-0.62 9.87,4.38 8.26,9.16 -1.34,3.97 -9.41,7.79 -13.02,9.73"
         id="path14" />
      <path
         stroke="#2c6533"
         vector-effect="non-scaling-stroke"
         d="m 533.21,542 -12.98,7.44 a 1.01,1.01 0 0 0 -0.5,0.89 l 0.26,18.13 a 1,1 0 0 0 1.48,0.86 q 6.28,-3.44 12.58,-7.52 c 8.94,-5.79 18.49,6.21 7.3,12.42 q -10.41,5.78 -19.47,11.58 -2.13,1.37 -2.11,4.2 l 0.28,46.33 q 0.01,2.02 1.38,0.54 l 36.53,-39.43 a 0.98,0.96 68.2 0 0 0.27,-0.65 q 0.4,-14.33 0.27,-28.83 -0.03,-3.57 0.89,-5.27 c 2.42,-4.45 9.78,-3.92 12.23,0.03 q 1.38,2.22 1.39,6.99 0.01,3.99 -0.14,8.01 -0.11,2.78 1.74,0.7 l 14.43,-16.17"
         id="path16" />
      <path
         stroke="#45712f"
         vector-effect="non-scaling-stroke"
         d="m 589.04,562.25 11.52,-12.35 a 1.05,1.04 -24.3 0 0 0.27,-0.7 q -0.25,-16.61 0.11,-31.75 c 0.26,-11.03 14.43,-10.81 14.29,1.4 q -0.08,7.11 0.14,14.17 0.06,1.96 1.39,0.52 29.82,-32.43 47.58,-50.96 c 6.96,-7.26 18.2,1.98 11.25,9.29 q -21.47,22.56 -43.08,45.05 -1.54,1.6 0.67,1.7 7.58,0.33 15.11,0.36 c 6.78,0.03 12.47,1.13 11.12,9.39"
         id="path18" />
      <path
         stroke="#2c6533"
         vector-effect="non-scaling-stroke"
         d="m 659.41,548.37 q -2.75,5.07 -7.72,5.09 -17.64,0.08 -35.04,0.03 a 1.01,0.99 -68.5 0 0 -0.74,0.33 l -11.89,13.1 q -1.47,1.62 0.71,1.67 9.35,0.25 18.69,0.2 c 6.82,-0.04 9.6,9.49 3.41,12.95 q -1.87,1.04 -5.87,1.12 -14.85,0.3 -30.36,0.08 a 1.02,0.98 -67 0 0 -0.75,0.32 l -65.18,71 q -1.54,1.67 0.73,1.68 l 57.22,0.18 a 1.03,1.01 -67.2 0 0 0.72,-0.3 q 6.49,-6.72 14.35,-14.57 c 7.72,-7.72 16.82,2.28 11.28,8.94 q -2.24,2.69 -4.91,4.93 -1.69,1.43 0.52,1.42 14.68,-0.09 29.33,-0.27 c 5.1,-0.06 9.95,1.08 10.37,6.72 0.45,5.98 -4.33,7.8 -9.64,8 q -15.39,0.57 -30.91,0.12 -2.01,-0.06 -0.58,1.36 3.29,3.29 6.29,6.83 c 6.43,7.59 -3.57,17.15 -10.65,9.67 q -8.78,-9.28 -16.94,-17.56 a 1.02,0.98 -21.8 0 0 -0.71,-0.29 l -41.98,-0.4 q -2.68,-0.03 -0.67,1.75 7.27,6.42 17.44,13.32 19.44,13.18 41.86,14.81 c 16.61,1.21 34.57,-6.55 48.7,-13.62 q 21.47,-10.73 42.36,-21.76 1.75,-0.92 -0.03,-1.79 -17.18,-8.31 -33.63,-16.38 c -20.39,-9.99 -42.29,-16.07 -64.94,-10.78 -5.5,1.28 -16.42,5.64 -20.74,0.94 -6.9,-7.51 -3.01,-13.54 4.54,-17.18 q 26.17,-12.63 52.41,-25.11 c 16.77,-7.98 31.61,-24.07 42.08,-39.06"
         id="path20" />
      <path
         stroke="#45712f"
         vector-effect="non-scaling-stroke"
         d="m 668.54,555.86 q 9.68,-14.36 15.21,-28.86 17.5,-45.87 34.16,-92.23 0.65,-1.81 -1.09,-1 -35.01,16.29 -70.09,32.69 c -35.18,16.44 -60.3,42.49 -78.77,76.04"
         id="path22" />
      <path
         stroke="#2c6533"
         vector-effect="non-scaling-stroke"
         d="m 567.96,542.5 c -1.48,2.57 -3.04,5.78 -5.16,7.57 -7.31,6.16 -17.36,-0.58 -15.84,-10.07"
         id="path24" />
      <path
         stroke="#45712f"
         vector-effect="non-scaling-stroke"
         d="m 546.96,540 q 6.11,-16.82 11.28,-37.26 c 12.56,-49.61 7.92,-99.75 -9.83,-147.25 Q 540,333 529.26,311.52 q -7.73,-15.46 -15.45,-30.97 -0.89,-1.78 -1.79,0 -10.51,20.78 -20.8,41.69 c -9.94,20.19 -18.46,41.79 -23.79,63.68 q -18.92,77.74 10.61,152.83"
         id="path26" />
      <path
         stroke="#61d358"
         vector-effect="non-scaling-stroke"
         d="m 546.96,540 -0.3,0.29 a 1,0.99 40.4 0 1 -1.29,0.1 q -2.94,-2.12 -5.45,0.63 a 0.96,0.94 13.5 0 1 -0.5,0.3 c -1.02,0.25 -6.74,3.25 -6.21,0.68"
         id="path28" />
      <path
         stroke="#61d358"
         vector-effect="non-scaling-stroke"
         d="m 481.63,535.91 q -1.2,1.64 -3.59,2.84"
         id="path30" />
      <path
         stroke="#61d358"
         vector-effect="non-scaling-stroke"
         d="m 668.54,555.86 q -1.18,-1.25 0.02,-2.15 a 1.01,1 -15.2 0 0 0.4,-0.69 l 0.14,-1.23 q 0.22,-1.95 -1.3,-0.71 l -1.61,1.31 a 1.01,1 50.2 0 1 -1.4,-0.13 q -2.23,-2.65 -5.38,-3.89"
         id="path32" />
      <path
         stroke="#61d358"
         vector-effect="non-scaling-stroke"
         d="m 589.04,562.25 q -1.01,-0.36 -1.5,-1.2 a 0.98,0.98 0 0 1 0.19,-1.24 q 5.43,-4.93 10.07,-10.59 a 1.01,1 -25.5 0 0 0.23,-0.64 L 598,524.76 a 1.02,1.01 -68.5 0 0 -0.32,-0.74 q -0.33,-0.3 -0.53,-0.79 a 0.8,0.79 -17.1 0 0 -0.92,-0.48 q -0.51,0.12 -0.9,-0.28 a 0.81,0.8 63.7 0 0 -0.67,-0.23 c -2.6,0.32 -5.53,3.51 -7.38,5.3 -3.19,3.07 -3.07,6.25 -7.79,8.44 q -0.18,0.08 -0.32,0.23 l -2.46,2.73 q -0.71,0.8 -0.71,-0.27 v -0.27 q 0.01,-2.86 -1.78,-0.63 -1.68,2.1 -3.01,4.41 -1.03,1.81 -3.25,0.32"
         id="path34" />
      <path
         stroke="#61d358"
         vector-effect="non-scaling-stroke"
         d="m 450.25,530.96 q -1.61,-0.25 -2.33,-1.73 a 1.02,1.01 79.4 0 0 -0.79,-0.55 q -3.12,-0.34 -4.32,-2.49 -1.6,-2.89 -4.23,-3.3 a 1.02,1.01 10.4 0 0 -1.14,0.78 q -0.28,1.33 -1.97,2.52 c -3.74,2.63 -4.66,6.93 -6.69,10.99 q -0.77,1.54 -0.84,3.28 a 1,0.99 -11.7 0 1 -0.58,0.87 q -1.4,0.64 -1.09,2.32 a 1,0.98 -34.4 0 1 -0.14,0.71 q -0.74,1.16 -0.84,2.64"
         id="path36" />
      <path
         stroke="#61d358"
         vector-effect="non-scaling-stroke"
         d="m 366.29,548.75 c -3.19,2.21 -8.48,2.43 -12,3.75"
         id="path38" />
      <path
         stroke="#2c6533"
         vector-effect="non-scaling-stroke"
         d="m 517.1988,672.7418 a 4.62,4.62 0 0 0 -4.6281,-4.6119 l -0.18,3e-4 a 4.62,4.62 0 0 0 -4.6119,4.6281 l 0.1224,70.1599 a 4.62,4.62 0 0 0 4.6281,4.6119 l 0.18,-3e-4 a 4.62,4.62 0 0 0 4.6119,-4.6281 l -0.1224,-70.1599"
         id="path40" />
    </g>
    <path
       fill="#100309"
       d="m 307.84282,226.81004 q 2.12,-1.92 4.15,-3.93 c 16.69,-16.48 36.33,-26.15 57.24,-35.93 q 26.88,-12.58 53.91,-24.85 c 10.27,-4.65 21.29,-10.34 31.76,-2.36 10.65,8.11 9.14,17.92 4.79,29.84 -10.69,29.24 -21.82,58.32 -32.46,87.57 q -16.39,45.07 -53.56,75.74 -6.38,5.26 -13.4,9.33 -1.95,1.14 0.2,1.82 12.76,4.05 24.77,9.93 34.6,16.92 41.96,20.96 c 10.96,6.02 12.44,21.95 4.55,30.7 q -2.89,3.2 -11.27,7.6 c -19.03,9.98 -38.14,20.24 -57.84,28.87 -21,9.21 -43.26,13.61 -65.41,7.35 q -19.71,-5.58 -36.15,-17.57 -1.65,-1.2 -1.59,0.84 0.57,19.11 -0.27,38.19 c -1.58,35.53 -48.63,38.29 -53.91,3.12 -0.39,-2.61 -0.25,-5.36 -0.31,-8.15 q -0.35,-16.68 0.03,-33.19 0.04,-1.98 -1.58,-0.84 -9.98,7.03 -21.09,12.08 c -32.77,14.89 -61.35,7.88 -91.829995,-7.1 q -26.03,-12.81 -51.82,-26.11 c -15.51,-8.01 -15.88,-28.35 -0.17,-36.4 q 18.38,-9.42 36.89,-18.64 13.88,-6.91 28.719995,-11.67 2.11,-0.68 0.21,-1.81 -5.199995,-3.1 -10.259995,-6.9 c -28.49,-21.43 -45.51,-47 -57.93,-79.96 q -16.04,-42.56 -31.8300004,-85.22 c -1.35,-3.65 -2.95,-7.65 -3.26,-11.36 -1.41000003,-17.27 15.2800004,-27.71 30.5900004,-20.77 q 60.93,27.66 74.359995,33.9 28.4,13.18 50.7,35.02 2.01,1.98 1.69,-0.83 -1.82,-15.68 -1.85,-27.94 -0.08,-42.17 12.04,-82.52 c 10.79,-35.909998 26.24,-64.439998 45.42,-101.859998 8.87,-17.3100005 28.53,-16.7600005 37.49,0.14 11.42,21.53 26.26,50.27 36.52,76.73 q 17.66,45.539998 20.01,94.369998 0.98,20.58 -1.87,40.93 -0.38,2.73 1.66,0.88 z m -110.08,59.64 c 3.96,12.65 -12.54,19.36 -19.01,7.17 q -4.58,-8.62 -8.78,-14.96 c -16.38,-27.77 -43.7,-52.22 -73.039995,-65.44 q -34.65,-15.62 -69.14,-31.63 -2.2,-1.03 -1.36,1.25 17.06,45.97 34.54,92.11 4.7,12.4 13.04,25.25 c 11.05,17.16 27.139995,34.31 45.399995,42.8 q 9.99,4.65 50.87,24.15 c 4.11,1.96 7.54,2.8 8.69,7.67 1.38,5.82 -2.02,11.39 -8.05,12.31 q -2.38,0.37 -6.82,-0.75 -8.1,-2.03 -14.69,-3.34 c -26.64,-5.25 -51.539995,6.92 -76.819995,19.72 q -8.71,4.41 -17.59,8.59 -1.47,0.7 -0.02,1.44 12.14,6.17 24.2,12.48 18,9.42 36.739995,17.18 c 23.88,9.88 48.24,6.23 69.97,-7.1 q 10.47,-6.42 20.37,-15.22 1.99,-1.76 -0.67,-1.75 l -42.6,0.29 a 1.05,1.06 22.1 0 0 -0.72,0.31 q -9.05,9.41 -15.11,16.41 c -2.45,2.83 -5.66,5.24 -9.56,3.81 -5.11,-1.85 -5.8,-7.07 -2.91,-11.36 q 2.68,-3.97 6.5,-7.12 2.17,-1.78 -0.64,-1.77 -16,0.05 -33.01,-0.06 c -10.259995,-0.06 -11.649995,-14.56 1.49,-14.82 q 15.36,-0.3 30.8,0.1 1.94,0.05 0.6,-1.35 -1.1,-1.16 -2.3,-2.21 c -2.69,-2.37 -5.01,-4.84 -4.16,-8.14 q 2.04,-7.92 10.41,-5.98 a 0.97,1.08 76.8 0 1 0.49,0.27 l 16.61,16.82 a 0.99,0.98 66.5 0 0 0.72,0.29 l 58.54,-0.24 q 2.29,-0.01 0.73,-1.68 l -65.95,-70.6 a 1.06,1.03 68.9 0 0 -0.7,-0.32 q -14.4,-0.53 -31.84,-0.29 c -10.66,0.14 -11.3,-14.32 1.13,-14.26 q 7.82,0.05 15.69,-0.15 2.22,-0.05 0.71,-1.68 l -12.23,-13.14 a 1.01,1.02 68.5 0 0 -0.74,-0.32 q -16.65,0.04 -33.279995,-0.01 c -4.07,-0.02 -6.67,-1.06 -8.25,-4.73 -1.26,-7.98 3.86,-10.12 10.81,-9.94 q 7.479995,0.19 15.829995,0.19 2.56,-0.01 0.68,-1.74 -6.73,-6.22 -12.44,-12.43 -4.969995,-5.39 -31.279995,-32.22 c -6.84,-6.97 1.12,-16.4 8.95,-11.58 q 2.23,1.38 4.03,3.28 22.459995,23.78 46.169995,48.69 0.32,0.33 0.7,1.14 0.05,0.11 0.11,0.22 1.12,1.98 1.2,-0.29 0.24,-7.21 0.2,-14.41 -0.03,-4.67 1,-6.63 c 3.43,-6.51 13,-3.89 12.99,4.09 q -0.01,14.95 0.05,29.88 -0.49,3.3 1.78,5.69 12.73,13.38 25.59,26.65 1.62,1.67 1.72,-0.65 0.31,-6.9 0.1,-11.71 c -0.35,-8.08 10.01,-10.18 13.3,-3.76 q 1.27,2.49 1.13,7.79 -0.35,13.05 -0.1,26.13 a 0.94,0.92 26.9 0 0 0.19,0.56 q 2.06,2.87 3.47,4.33 16.3,16.91 31.88,34.53 1.4,1.58 1.4,-0.53 v -48.32 a 0.99,0.99 0 0 0 -0.48,-0.85 q -10.63,-6.44 -21.24,-12.87 c -9.94,-6.03 -2.24,-17.87 8.6,-11.86 q 5.94,3.3 11.61,7.05 1.56,1.03 1.55,-0.84 l -0.05,-16.35 q -0.01,-2.25 -1.89,-3.33 l -22.22,-12.75 q -5.16,-7.29 1.22,-11.3 c 3.09,-1.96 6.33,-1.59 9.34,0.22 q 6.01,3.6 12.02,7.29 1.52,0.93 1.52,-0.85 l 0.06,-18.98 a 0.98,0.99 15.5 0 0 -0.49,-0.87 q -11.31,-6.69 -23,-13.23 c -6.88,-3.86 -2.38,-17.49 8.64,-12.01 q 7.09,3.52 13.52,7.49 1.56,0.96 1.53,-0.87 l -0.34,-18.76 a 1,1.01 13.9 0 0 -0.51,-0.86 q -9.86,-5.5 -19.69,-11.27 -4.17,-2.45 -5.28,-4.06 c -2.68,-3.86 0.3,-10.03 4.95,-10.96 3.27,-0.65 6.99,1.42 9.79,3.2 q 4.7,2.99 9.38,5.86 1.52,0.93 1.52,-0.85 l 0.1,-18.41 a 1.02,1.01 14.5 0 0 -0.53,-0.89 q -11.35,-6.17 -22.45,-12.48 c -8.69,-4.93 -1.66,-17.89 8.83,-12.21 q 6.44,3.49 12.46,7.23 1.53,0.95 1.53,-0.85 0,-30.33 0.09,-59.99 c 0.02,-7.099998 9.21,-10.059998 12.63,-4.76 q 1.32,2.05 1.3,6.29 c -0.07,15.14 -0.08,30.26 0.23,45.4 q 0.14,6.49 -0.19,13.06 -0.1,1.89 1.52,0.9 6.42,-3.92 12.9,-7.93 c 8.28,-5.12 17.75,6.39 7.06,12.86 q -10.39,6.29 -20.87,12.52 a 1,1 0 0 0 -0.49,0.86 l 0.05,18.45 q 0,1.76 1.51,0.86 4.77,-2.86 9.62,-5.95 c 5,-3.17 10.59,-5.97 14.27,0.22 2.61,4.4 0.28,7.92 -3.62,10.24 q -10.24,6.1 -21.23,12.62 a 1.01,1.02 74.9 0 0 -0.49,0.85 l -0.21,19.35 q -0.02,1.8 1.52,0.87 6.27,-3.81 12.48,-7.68 c 10.64,-6.64 17.43,6.16 8.73,11.55 q -9.3,5.75 -20.82,12.23 -1.98,1.12 -1.96,3.43 l 0.15,17.42 a 1,1 0 0 0 1.47,0.87 q 5.6,-3.03 11.01,-6.38 3.7,-2.3 5.56,-2.54 c 4.77,-0.62 9.87,4.38 8.26,9.16 -1.34,3.97 -9.41,7.79 -13.02,9.73 l -12.98,7.44 a 1.01,1.01 0 0 0 -0.5,0.89 l 0.26,18.13 a 1,1 0 0 0 1.48,0.86 q 6.28,-3.44 12.58,-7.52 c 8.94,-5.79 18.49,6.21 7.3,12.42 q -10.41,5.78 -19.47,11.58 -2.13,1.37 -2.11,4.2 l 0.28,46.33 q 0.01,2.02 1.38,0.54 l 36.53,-39.43 a 0.98,0.96 68.2 0 0 0.27,-0.65 q 0.4,-14.33 0.27,-28.83 -0.03,-3.57 0.89,-5.27 c 2.42,-4.45 9.78,-3.92 12.23,0.03 q 1.38,2.22 1.39,6.99 0.01,3.99 -0.14,8.01 -0.11,2.78 1.74,0.7 l 14.43,-16.17 11.52,-12.35 a 1.04,1.05 65.7 0 0 0.27,-0.7 q -0.25,-16.61 0.11,-31.75 c 0.26,-11.03 14.43,-10.81 14.29,1.4 q -0.08,7.11 0.14,14.17 0.06,1.96 1.39,0.52 29.82,-32.43 47.58,-50.96 c 6.96,-7.26 18.2,1.98 11.25,9.29 q -21.47,22.56 -43.08,45.05 -1.54,1.6 0.67,1.7 7.58,0.33 15.11,0.36 c 6.78,0.03 12.47,1.13 11.12,9.39 q -2.75,5.07 -7.72,5.09 -17.64,0.08 -35.04,0.03 a 0.99,1.01 21.5 0 0 -0.74,0.33 l -11.89,13.1 q -1.47,1.62 0.71,1.67 9.35,0.25 18.69,0.2 c 6.82,-0.04 9.6,9.49 3.41,12.95 q -1.87,1.04 -5.87,1.12 -14.85,0.3 -30.36,0.08 a 0.98,1.02 23 0 0 -0.75,0.32 l -65.18,71 q -1.54,1.67 0.73,1.68 l 57.22,0.18 a 1.01,1.03 22.8 0 0 0.72,-0.3 q 6.49,-6.72 14.35,-14.57 c 7.72,-7.72 16.82,2.28 11.28,8.94 q -2.24,2.69 -4.91,4.93 -1.69,1.43 0.52,1.42 14.68,-0.09 29.33,-0.27 c 5.1,-0.06 9.95,1.08 10.37,6.72 0.45,5.98 -4.33,7.8 -9.64,8 q -15.39,0.57 -30.91,0.12 -2.01,-0.06 -0.58,1.36 3.29,3.29 6.29,6.83 c 6.43,7.59 -3.57,17.15 -10.65,9.67 q -8.78,-9.28 -16.94,-17.56 a 0.98,1.02 68.2 0 0 -0.71,-0.29 l -41.98,-0.4 q -2.68,-0.03 -0.67,1.75 7.27,6.42 17.44,13.32 19.44,13.18 41.86,14.81 c 16.61,1.21 34.57,-6.55 48.7,-13.62 q 21.47,-10.73 42.36,-21.76 1.75,-0.92 -0.03,-1.79 -17.18,-8.31 -33.63,-16.38 c -20.39,-9.99 -42.29,-16.07 -64.94,-10.78 -5.5,1.28 -16.42,5.64 -20.74,0.94 -6.9,-7.51 -3.01,-13.54 4.54,-17.18 q 26.17,-12.63 52.41,-25.11 c 16.77,-7.98 31.61,-24.07 42.08,-39.06 q 9.68,-14.36 15.21,-28.86 17.5,-45.87 34.16,-92.23 0.65,-1.81 -1.09,-1 -35.01,16.29 -70.09,32.69 c -35.18,16.44 -60.3,42.49 -78.77,76.04 -1.48,2.57 -3.04,5.78 -5.16,7.57 -7.31,6.16 -17.36,-0.58 -15.84,-10.07 q 6.11,-16.82 11.28,-37.26 c 12.56,-49.61 7.92,-99.75 -9.83,-147.25 q -8.41,-22.489998 -19.15,-43.969998 -7.73,-15.46 -15.45,-30.97 -0.89,-1.78 -1.79,0 -10.51,20.78 -20.8,41.69 c -9.94,20.19 -18.46,41.789998 -23.79,63.679998 q -18.92,77.74 10.61,152.83 z m 39.1588,133.9918 a 4.62,4.62 0 0 0 -4.6281,-4.6119 l -0.18,3e-4 a 4.62,4.62 0 0 0 -4.6119,4.6281 l 0.1224,70.1599 a 4.62,4.62 0 0 0 4.6281,4.6119 l 0.18,-3e-4 a 4.62,4.62 0 0 0 4.6119,-4.6281 z"
       id="path46" />
    <path
       fill="#7adf54"
       d="m 266.68282,287.70004 -0.3,0.29 a 1,0.99 40.4 0 1 -1.29,0.1 q -2.94,-2.12 -5.45,0.63 a 0.96,0.94 13.5 0 1 -0.5,0.3 c -1.02,0.25 -6.74,3.25 -6.21,0.68 3.61,-1.94 11.68,-5.76 13.02,-9.73 1.61,-4.78 -3.49,-9.78 -8.26,-9.16 q -1.86,0.24 -5.56,2.54 -5.41,3.35 -11.01,6.38 a 1,1 0 0 1 -1.47,-0.87 l -0.15,-17.42 q -0.02,-2.31 1.96,-3.43 11.52,-6.48 20.82,-12.23 c 8.7,-5.39 1.91,-18.19 -8.73,-11.55 q -6.21,3.87 -12.48,7.68 -1.54,0.93 -1.52,-0.87 l 0.21,-19.35 a 1.01,1.02 74.9 0 1 0.49,-0.85 q 10.99,-6.52 21.23,-12.62 c 3.9,-2.32 6.23,-5.84 3.62,-10.24 -3.68,-6.19 -9.27,-3.39 -14.27,-0.22 q -4.85,3.09 -9.62,5.95 -1.51,0.9 -1.51,-0.86 l -0.05,-18.45 a 1,1 0 0 1 0.49,-0.86 q 10.48,-6.23 20.87,-12.52 c 10.69,-6.47 1.22,-17.98 -7.06,-12.86 q -6.48,4.01 -12.9,7.93 -1.62,0.99 -1.52,-0.9 0.33,-6.57 0.19,-13.06 c -0.31,-15.14 -0.3,-30.26 -0.23,-45.4 q 0.02,-4.24 -1.3,-6.29 c -3.42,-5.299998 -12.61,-2.339998 -12.63,4.76 q -0.09,29.66 -0.09,59.99 0,1.8 -1.53,0.85 -6.02,-3.74 -12.46,-7.23 c -10.49,-5.68 -17.52,7.28 -8.83,12.21 q 11.1,6.31 22.45,12.48 a 1.02,1.01 14.5 0 1 0.53,0.89 l -0.1,18.41 q 0,1.78 -1.52,0.85 -4.68,-2.87 -9.38,-5.86 c -2.8,-1.78 -6.52,-3.85 -9.79,-3.2 -4.65,0.93 -7.63,7.1 -4.95,10.96 q 1.11,1.61 5.28,4.06 9.83,5.77 19.69,11.27 a 1,1.01 13.9 0 1 0.51,0.86 l 0.34,18.76 q 0.03,1.83 -1.53,0.87 -6.43,-3.97 -13.52,-7.49 c -11.02,-5.48 -15.52,8.15 -8.64,12.01 q 11.69,6.54 23,13.23 a 0.98,0.99 15.5 0 1 0.49,0.87 l -0.06,18.98 q 0,1.78 -1.52,0.85 -6.01,-3.69 -12.02,-7.29 c -3.01,-1.81 -6.25,-2.18 -9.34,-0.22 q -6.38,4.01 -1.22,11.3 -1.2,1.64 -3.59,2.84 -29.53,-75.09 -10.61,-152.83 c 5.33,-21.89 13.85,-43.489998 23.79,-63.679998 q 10.29,-20.91 20.8,-41.69 0.9,-1.78 1.79,0 7.72,15.51 15.45,30.97 10.74,21.48 19.15,43.969998 c 17.75,47.5 22.39,97.64 9.83,147.25 q -5.17,20.44 -11.28,37.26 z"
       id="path48" />
    <path
       fill="#7adf54"
       d="m 388.26282,303.56004 q -1.18,-1.25 0.02,-2.15 a 1,1.01 74.8 0 0 0.4,-0.69 l 0.14,-1.23 q 0.22,-1.95 -1.3,-0.71 l -1.61,1.31 a 1.01,1 50.2 0 1 -1.4,-0.13 q -2.23,-2.65 -5.38,-3.89 c 1.35,-8.26 -4.34,-9.36 -11.12,-9.39 q -7.53,-0.03 -15.11,-0.36 -2.21,-0.1 -0.67,-1.7 21.61,-22.49 43.08,-45.05 c 6.95,-7.31 -4.29,-16.55 -11.25,-9.29 q -17.76,18.53 -47.58,50.96 -1.33,1.44 -1.39,-0.52 -0.22,-7.06 -0.14,-14.17 c 0.14,-12.21 -14.03,-12.43 -14.29,-1.4 q -0.36,15.14 -0.11,31.75 a 1.04,1.05 65.7 0 1 -0.27,0.7 l -11.52,12.35 q -1.01,-0.36 -1.5,-1.2 a 0.98,0.98 0 0 1 0.19,-1.24 q 5.43,-4.93 10.07,-10.59 a 1,1.01 64.5 0 0 0.23,-0.64 l -0.03,-23.82 a 1.01,1.02 21.5 0 0 -0.32,-0.74 q -0.33,-0.3 -0.53,-0.79 a 0.79,0.8 72.9 0 0 -0.92,-0.48 q -0.51,0.12 -0.9,-0.28 a 0.81,0.8 63.7 0 0 -0.67,-0.23 c -2.6,0.32 -5.53,3.51 -7.38,5.3 -3.19,3.07 -3.07,6.25 -7.79,8.44 q -0.18,0.08 -0.32,0.23 l -2.46,2.73 q -0.71,0.8 -0.71,-0.27 v -0.27 q 0.01,-2.86 -1.78,-0.63 -1.68,2.1 -3.01,4.41 -1.03,1.81 -3.25,0.32 c 18.47,-33.55 43.59,-59.6 78.77,-76.04 q 35.08,-16.4 70.09,-32.69 1.74,-0.81 1.09,1 -16.66,46.36 -34.16,92.23 -5.53,14.5 -15.21,28.86 z"
       id="path50" />
    <path
       fill="#7adf54"
       d="m 169.97282,278.66004 q -1.61,-0.25 -2.33,-1.73 a 1.02,1.01 79.4 0 0 -0.79,-0.55 q -3.12,-0.34 -4.32,-2.49 -1.6,-2.89 -4.23,-3.3 a 1.02,1.01 10.4 0 0 -1.14,0.78 q -0.28,1.33 -1.97,2.52 c -3.74,2.63 -4.66,6.93 -6.69,10.99 q -0.77,1.54 -0.84,3.28 a 0.99,1 78.3 0 1 -0.58,0.87 q -1.4,0.64 -1.09,2.32 a 0.98,1 55.6 0 1 -0.14,0.71 q -0.74,1.16 -0.84,2.64 -0.06,-14.93 -0.05,-29.88 c 0.01,-7.98 -9.56,-10.6 -12.99,-4.09 q -1.03,1.96 -1,6.63 0.04,7.2 -0.2,14.41 -0.08,2.27 -1.2,0.29 -0.06,-0.11 -0.11,-0.22 -0.38,-0.81 -0.7,-1.14 -23.71,-24.91 -46.169995,-48.69 -1.8,-1.9 -4.03,-3.28 c -7.83,-4.82 -15.79,4.61 -8.95,11.58 q 26.31,26.83 31.279995,32.22 5.71,6.21 12.44,12.43 1.88,1.73 -0.68,1.74 -8.35,0 -15.829995,-0.19 c -6.95,-0.18 -12.07,1.96 -10.81,9.94 -3.19,2.21 -8.48,2.43 -12,3.75 q -8.34,-12.85 -13.04,-25.25 -17.48,-46.14 -34.54,-92.11 -0.84,-2.28 1.36,-1.25 34.49,16.01 69.14,31.63 c 29.339995,13.22 56.659995,37.67 73.039995,65.44 z"
       id="path52" />
    <path
       fill="#48c75c"
       d="m 308.76282,309.95004 -14.43,16.17 q -1.85,2.08 -1.74,-0.7 0.15,-4.02 0.14,-8.01 -0.01,-4.77 -1.39,-6.99 c -2.45,-3.95 -9.81,-4.48 -12.23,-0.03 q -0.92,1.7 -0.89,5.27 0.13,14.5 -0.27,28.83 a 0.98,0.96 68.2 0 1 -0.27,0.65 l -36.53,39.43 q -1.37,1.48 -1.38,-0.54 l -0.28,-46.33 q -0.02,-2.83 2.11,-4.2 9.06,-5.8 19.47,-11.58 c 11.19,-6.21 1.64,-18.21 -7.3,-12.42 q -6.3,4.08 -12.58,7.52 a 1,1 0 0 1 -1.48,-0.86 l -0.26,-18.13 a 1.01,1.01 0 0 1 0.5,-0.89 l 12.98,-7.44 c -0.53,2.57 5.19,-0.43 6.21,-0.68 a 0.96,0.94 13.5 0 0 0.5,-0.3 q 2.51,-2.75 5.45,-0.63 a 1,0.99 40.4 0 0 1.29,-0.1 l 0.3,-0.29 c -1.52,9.49 8.53,16.23 15.84,10.07 2.12,-1.79 3.68,-5 5.16,-7.57 q 2.22,1.49 3.25,-0.32 1.33,-2.31 3.01,-4.41 1.79,-2.23 1.78,0.63 v 0.27 q 0,1.07 0.71,0.27 l 2.46,-2.73 q 0.14,-0.15 0.32,-0.23 c 4.72,-2.19 4.6,-5.37 7.79,-8.44 1.85,-1.79 4.78,-4.98 7.38,-5.3 a 0.81,0.8 63.7 0 1 0.67,0.23 q 0.39,0.4 0.9,0.28 a 0.79,0.8 72.9 0 1 0.92,0.48 q 0.2,0.49 0.53,0.79 a 1.01,1.02 21.5 0 1 0.32,0.74 l 0.03,23.82 a 1,1.01 64.5 0 1 -0.23,0.64 q -4.64,5.66 -10.07,10.59 a 0.98,0.98 0 0 0 -0.19,1.24 q 0.49,0.84 1.5,1.2 z"
       id="path54" />
    <path
       fill="#48c75c"
       d="m 169.97282,278.66004 q 4.2,6.34 8.78,14.96 c 6.47,12.19 22.97,5.48 19.01,-7.17 q 2.39,-1.2 3.59,-2.84 l 22.22,12.75 q 1.88,1.08 1.89,3.33 l 0.05,16.35 q 0.01,1.87 -1.55,0.84 -5.67,-3.75 -11.61,-7.05 c -10.84,-6.01 -18.54,5.83 -8.6,11.86 q 10.61,6.43 21.24,12.87 a 0.99,0.99 0 0 1 0.48,0.85 v 48.32 q 0,2.11 -1.4,0.53 -15.58,-17.62 -31.88,-34.53 -1.41,-1.46 -3.47,-4.33 a 0.94,0.92 26.9 0 1 -0.19,-0.56 q -0.25,-13.08 0.1,-26.13 0.14,-5.3 -1.13,-7.79 c -3.29,-6.42 -13.65,-4.32 -13.3,3.76 q 0.21,4.81 -0.1,11.71 -0.1,2.32 -1.72,0.65 -12.86,-13.27 -25.59,-26.65 -2.27,-2.39 -1.78,-5.69 0.1,-1.48 0.84,-2.64 a 0.98,1 55.6 0 0 0.14,-0.71 q -0.31,-1.68 1.09,-2.32 a 0.99,1 78.3 0 0 0.58,-0.87 q 0.07,-1.74 0.84,-3.28 c 2.03,-4.06 2.95,-8.36 6.69,-10.99 q 1.69,-1.19 1.97,-2.52 a 1.02,1.01 10.4 0 1 1.14,-0.78 q 2.63,0.41 4.23,3.3 1.2,2.15 4.32,2.49 a 1.02,1.01 79.4 0 1 0.79,0.55 q 0.72,1.48 2.33,1.73 z"
       id="path56" />
    <path
       fill="#48c75c"
       d="m 388.26282,303.56004 c -10.47,14.99 -25.31,31.08 -42.08,39.06 q -26.24,12.48 -52.41,25.11 c -7.55,3.64 -11.44,9.67 -4.54,17.18 4.32,4.7 15.24,0.34 20.74,-0.94 22.65,-5.29 44.55,0.79 64.94,10.78 q 16.45,8.07 33.63,16.38 1.78,0.87 0.03,1.79 -20.89,11.03 -42.36,21.76 c -14.13,7.07 -32.09,14.83 -48.7,13.62 q -22.42,-1.63 -41.86,-14.81 -10.17,-6.9 -17.44,-13.32 -2.01,-1.78 0.67,-1.75 l 41.98,0.4 a 0.98,1.02 68.2 0 1 0.71,0.29 q 8.16,8.28 16.94,17.56 c 7.08,7.48 17.08,-2.08 10.65,-9.67 q -3,-3.54 -6.29,-6.83 -1.43,-1.42 0.58,-1.36 15.52,0.45 30.91,-0.12 c 5.31,-0.2 10.09,-2.02 9.64,-8 -0.42,-5.64 -5.27,-6.78 -10.37,-6.72 q -14.65,0.18 -29.33,0.27 -2.21,0.01 -0.52,-1.42 2.67,-2.24 4.91,-4.93 c 5.54,-6.66 -3.56,-16.66 -11.28,-8.94 q -7.86,7.85 -14.35,14.57 a 1.01,1.03 22.8 0 1 -0.72,0.3 l -57.22,-0.18 q -2.27,-0.01 -0.73,-1.68 l 65.18,-71 a 0.98,1.02 23 0 1 0.75,-0.32 q 15.51,0.22 30.36,-0.08 4,-0.08 5.87,-1.12 c 6.19,-3.46 3.41,-12.99 -3.41,-12.95 q -9.34,0.05 -18.69,-0.2 -2.18,-0.05 -0.71,-1.67 l 11.89,-13.1 a 0.99,1.01 21.5 0 1 0.74,-0.33 q 17.4,0.05 35.04,-0.03 4.97,-0.02 7.72,-5.09 3.15,1.24 5.38,3.89 a 1.01,1 50.2 0 0 1.4,0.13 l 1.61,-1.31 q 1.52,-1.24 1.3,0.71 l -0.14,1.23 a 1,1.01 74.8 0 1 -0.4,0.69 q -1.2,0.9 -0.02,2.15 z"
       id="path58" />
    <path
       fill="#48c75c"
       d="m 86.012825,296.45004 c 1.58,3.67 4.18,4.71 8.25,4.73 q 16.629995,0.05 33.279995,0.01 a 1.01,1.02 68.5 0 1 0.74,0.32 l 12.23,13.14 q 1.51,1.63 -0.71,1.68 -7.87,0.2 -15.69,0.15 c -12.43,-0.06 -11.79,14.4 -1.13,14.26 q 17.44,-0.24 31.84,0.29 a 1.06,1.03 68.9 0 1 0.7,0.32 l 65.95,70.6 q 1.56,1.67 -0.73,1.68 l -58.54,0.24 a 0.99,0.98 66.5 0 1 -0.72,-0.29 l -16.61,-16.82 a 0.97,1.08 76.8 0 0 -0.49,-0.27 q -8.37,-1.94 -10.41,5.98 c -0.85,3.3 1.47,5.77 4.16,8.14 q 1.2,1.05 2.3,2.21 1.34,1.4 -0.6,1.35 -15.44,-0.4 -30.8,-0.1 c -13.139995,0.26 -11.749995,14.76 -1.49,14.82 q 17.01,0.11 33.01,0.06 2.81,-0.01 0.64,1.77 -3.82,3.15 -6.5,7.12 c -2.89,4.29 -2.2,9.51 2.91,11.36 3.9,1.43 7.11,-0.98 9.56,-3.81 q 6.06,-7 15.11,-16.41 a 1.05,1.06 22.1 0 1 0.72,-0.31 l 42.6,-0.29 q 2.66,-0.01 0.67,1.75 -9.9,8.8 -20.37,15.22 c -21.73,13.33 -46.09,16.98 -69.97,7.1 q -18.739995,-7.76 -36.739995,-17.18 -12.06,-6.31 -24.2,-12.48 -1.45,-0.74 0.02,-1.44 8.88,-4.18 17.59,-8.59 c 25.28,-12.8 50.179995,-24.97 76.819995,-19.72 q 6.59,1.31 14.69,3.34 4.44,1.12 6.82,0.75 c 6.03,-0.92 9.43,-6.49 8.05,-12.31 -1.15,-4.87 -4.58,-5.71 -8.69,-7.67 q -40.88,-19.5 -50.87,-24.15 c -18.26,-8.49 -34.349995,-25.64 -45.399995,-42.8 3.52,-1.32 8.81,-1.54 12,-3.75 z"
       id="path60" />
    <rect
       fill="#48c75c"
       x="226.76743"
       y="416.23474"
       transform="rotate(-0.1)"
       width="9.4200001"
       height="79.400002"
       rx="4.6199999"
       id="rect62" />
  </g>
</svg>
