<?xml version="1.0" encoding="UTF-8"?>
<svg width="1500" height="300" version="1.1" viewBox="0 0 1500 300" xml:space="preserve" xmlns="http://www.w3.org/2000/svg" xmlns:xlink="http://www.w3.org/1999/xlink"><defs><linearGradient id="linearGradient152" x2="1" gradientTransform="matrix(242.66 -204.34 -204.34 -242.66 413.51 699.71)" gradientUnits="userSpaceOnUse"><stop stop-color="#65b045" offset="0"/><stop stop-color="#65b045" offset=".17978"/><stop stop-color="#cddd4d" offset=".66364"/><stop stop-color="#cddd4d" offset="1"/></linearGradient><linearGradient id="linearGradient244" x2="1" gradientTransform="matrix(126.65 0 0 -126.65 556.92 479.15)" gradientUnits="userSpaceOnUse"><stop stop-color="#1b5f2f" offset="0"/><stop stop-color="#1b5f2f" offset=".005618"/><stop stop-color="#90c73e" offset="1"/></linearGradient><linearGradient id="linearGradient268" x2="1" gradientTransform="matrix(171.6 0 0 -171.6 512.54 532.6)" gradientUnits="userSpaceOnUse"><stop stop-color="#65b045" offset="0"/><stop stop-color="#65b045" offset=".17978"/><stop stop-color="#cddd4d" offset=".66364"/><stop stop-color="#cddd4d" offset="1"/></linearGradient><linearGradient id="linearGradient10793" x2="1" gradientTransform="matrix(2.0458 -116.57 -116.57 -2.0458 457.48 537.38)" gradientUnits="userSpaceOnUse"><stop stop-color="#f79c00" offset="0"/><stop stop-color="#ff5b00" offset=".5421"/><stop stop-color="#ffae00" offset="1"/></linearGradient><linearGradient id="linearGradient3300" x1="317.06" x2="580.34" y1="468.43" y2="468.43" gradientUnits="userSpaceOnUse" xlink:href="#linearGradient152"/><linearGradient id="linearGradient3308" x1="359.43" x2="578.74" y1="435.47" y2="435.47" gradientUnits="userSpaceOnUse" xlink:href="#linearGradient268"/><linearGradient id="linearGradient3316" x1="349.83" x2="580.34" y1="476.58" y2="476.58" gradientUnits="userSpaceOnUse" xlink:href="#linearGradient244"/><linearGradient id="linearGradient1954" x2="1" gradientTransform="matrix(2.0458 -116.57 -116.57 -2.0458 457.48 537.38)" gradientUnits="userSpaceOnUse" xlink:href="#linearGradient10793"/><clipPath id="clipPath346-5"><path d="m0 1e3h1e3v-1e3h-1e3z"/></clipPath><radialGradient id="radialGradient336-7" cx="0" cy="0" r="1" gradientTransform="matrix(8.1565 0 0 -8.1565 612.09 594.81)" gradientUnits="userSpaceOnUse"><stop stop-color="#fff" offset="0"/><stop stop-color="#a6ce38" offset="1"/></radialGradient><clipPath id="clipPath346-1"><path d="m0 1e3h1e3v-1e3h-1e3z"/></clipPath><clipPath id="clipPath346-11"><path d="m0 1e3h1e3v-1e3h-1e3z"/></clipPath><clipPath id="clipPath346-0"><path d="m0 1e3h1e3v-1e3h-1e3z"/></clipPath><clipPath id="clipPath346-9"><path d="m0 1e3h1e3v-1e3h-1e3z"/></clipPath><clipPath id="clipPath346-12"><path d="m0 1e3h1e3v-1e3h-1e3z"/></clipPath><clipPath id="clipPath346-7"><path d="m0 1e3h1e3v-1e3h-1e3z"/></clipPath><clipPath id="clipPath346-00"><path d="m0 1e3h1e3v-1e3h-1e3z"/></clipPath><clipPath id="clipPath346-3"><path d="m0 1e3h1e3v-1e3h-1e3z"/></clipPath><clipPath id="clipPath346-6"><path d="m0 1e3h1e3v-1e3h-1e3z"/></clipPath><clipPath id="clipPath346-55"><path d="m0 1e3h1e3v-1e3h-1e3z"/></clipPath><clipPath id="clipPath346-03"><path d="m0 1e3h1e3v-1e3h-1e3z"/></clipPath><clipPath id="clipPath346-57"><path d="m0 1e3h1e3v-1e3h-1e3z"/></clipPath><clipPath id="clipPath346-53"><path d="m0 1e3h1e3v-1e3h-1e3z"/></clipPath><clipPath id="clipPath346-4"><path d="m0 1e3h1e3v-1e3h-1e3z"/></clipPath><clipPath id="clipPath346-59"><path d="m0 1e3h1e3v-1e3h-1e3z"/></clipPath><clipPath id="clipPath346-8"><path d="m0 1e3h1e3v-1e3h-1e3z"/></clipPath></defs><g transform="matrix(1.3333 0 0 -1.3333 -425.82 1148.8)"><g transform="matrix(3.3924 0 0 3.3924 -929.92 -433.17)"/><g transform="matrix(.35118 0 0 .35118 207.21 559)"><g><g transform="translate(2.3112 2.7288)" fill="url(#linearGradient3300)"><g fill="url(#linearGradient3300)"><g fill="url(#linearGradient3300)"><g fill="url(#linearGradient3300)"><path d="m357.26 365.86c30.696-39.504 112.28-95.572 212.54-58.76 3.608 1.352 7.12 2.79 10.537 4.309 0 0-4.998 53.97-47.32 101.87-42.323 47.9-95.472 71.522-125.66 106.3-30.183 34.777-48.094 71.976-48.094 122.17-76.2-127.36-31.748-237.61-2.006-275.89" fill="url(#linearGradient3300)"/></g></g></g></g><g transform="translate(2.3112 2.7288)" fill="url(#linearGradient3308)"><g fill="url(#linearGradient3308)"><g fill="url(#linearGradient3308)"><g fill="url(#linearGradient3308)"><path d="m359.43 478.45c0-91.617 74.27-165.89 165.89-165.89 18.694 0 36.665 3.095 53.431 8.795-3.551 17.787-14.437 56.512-45.726 91.925-42.323 47.9-95.472 71.522-125.66 106.3-10.809 12.456-20.035 25.226-27.438 38.789-13.06-23.706-20.497-50.944-20.497-79.921" fill="url(#linearGradient3308)"/></g></g></g></g><g transform="translate(2.3112 2.7288)" fill="url(#linearGradient3316)"><g fill="url(#linearGradient3316)"><g fill="url(#linearGradient3316)"><g fill="url(#linearGradient3316)"><path d="m349.83 624.89c2.201-66.212 41.131-115.34 94.552-152.2 77.097-48.842 122.68-96.799 135.96-161.28-2e-3 0.011-5.002 53.974-47.32 101.87-42.323 47.9-95.472 71.522-125.66 106.3-30.183 34.777-48.094 71.976-48.094 122.17-3.384-5.656-6.518-11.276-9.439-16.86" fill="url(#linearGradient3316)"/></g></g></g></g></g><g transform="matrix(5.2653 .19255 -.19255 5.2653 -1829.6 -1960.5)"><path d="m444.88 458.44c5.091-6.891 13.535-10.484 20.015-16.027 7.019-6.005 10.326-16.068 10.326-23.604 9.132 17.176 1.7966 29.774-10.308 43.191-11.451 12.691-20.325 24.215-13.677 40.553-10.701-11.782-18.154-28.146-6.3556-44.113" fill="url(#linearGradient1954)"/></g><g transform="matrix(5.2148 -.75294 .75294 5.2148 -2171.4 -1419.4)"><path d="m444.88 458.44c5.091-6.891 13.535-10.484 20.015-16.027 7.019-6.005 10.326-16.068 10.326-23.604 9.132 17.176 1.7966 29.774-10.308 43.191-11.451 12.691-20.325 24.215-13.677 40.553-10.701-11.782-18.154-28.146-6.3556-44.113" fill="url(#linearGradient1954)"/></g><g transform="translate(-59.086 -261.79)"><path d="m597.63 595.76c2.049-21.116 42.65-9.236 13.822 6.899-1.206 0.675-2.77 1.009-4.411 1.009-4.65 0-9.919-2.683-9.411-7.908" fill="url(#radialGradient336-7)"/><g clip-path="url(#clipPath346-5)"><g transform="translate(618.42 597.69)"><path d="m0 0c12.223-11.924-12.638-19.168-19.29-7.01 0.137-0.206 4.762-6.999 13.682-4.775 9.042 2.255 8.958 7.332 5.608 11.785" fill="#008845" fill-rule="evenodd"/></g><g transform="translate(617.66 592.31)"><path d="m0 0s2.26 2.019-1.239 5.759c-3.499 3.741-9.138 5.554-12.757 3.282-3.619-2.273-1.794-6.134 0.847-4.47 2.64 1.664 6.33 0.471 6.003-1.055-0.328-1.526-2.955-2.645-1.409-4.925 1.545-2.28 6.858-1.284 7.706 0.063z" fill="#dae79c" fill-rule="evenodd"/></g><g transform="translate(612.57 599.31)"><path d="m0 0c-1.751 1.832-4.351 2.794-6.25 1.862-2.125-1.042-1.344-3.274 0.207-2.51 0.697 0.343 4.163 0.315 3.093-1.222 0.652-7e-3 2.562 1.445 2.95 1.87" fill="#fff" fill-rule="evenodd"/></g><g transform="translate(616.09 593.34)"><path d="m0 0c1.119 0.805 0.156 2.591-0.388 3.292-1.021-0.932-2.955-2.373-4.47-2.396-1.022-1.985 3.314-2.857 4.313-1.589z" fill="#fff" fill-rule="evenodd"/></g><g transform="translate(614.77 587.99)"><path d="m0 0s-3.414-3.185-8.948 0.409c-5.534 3.593-5.9 5.948-6.461 7.892-0.561 1.945-2.206-0.811 0.479-4.809 2.687-3.999 5.606-4.249 8.329-5.089 2.723-0.839 6.601 1.597 6.601 1.597" fill="#53ba62" fill-rule="evenodd"/></g></g></g><g transform="translate(-77.813 -223.59)"><path d="m597.63 595.76c2.049-21.116 42.65-9.236 13.822 6.899-1.206 0.675-2.77 1.009-4.411 1.009-4.65 0-9.919-2.683-9.411-7.908" fill="url(#radialGradient336-7)"/><g clip-path="url(#clipPath346-1)"><g transform="translate(618.42 597.69)"><path d="m0 0c12.223-11.924-12.638-19.168-19.29-7.01 0.137-0.206 4.762-6.999 13.682-4.775 9.042 2.255 8.958 7.332 5.608 11.785" fill="#008845" fill-rule="evenodd"/></g><g transform="translate(617.66 592.31)"><path d="m0 0s2.26 2.019-1.239 5.759c-3.499 3.741-9.138 5.554-12.757 3.282-3.619-2.273-1.794-6.134 0.847-4.47 2.64 1.664 6.33 0.471 6.003-1.055-0.328-1.526-2.955-2.645-1.409-4.925 1.545-2.28 6.858-1.284 7.706 0.063z" fill="#dae79c" fill-rule="evenodd"/></g><g transform="translate(612.57 599.31)"><path d="m0 0c-1.751 1.832-4.351 2.794-6.25 1.862-2.125-1.042-1.344-3.274 0.207-2.51 0.697 0.343 4.163 0.315 3.093-1.222 0.652-7e-3 2.562 1.445 2.95 1.87" fill="#fff" fill-rule="evenodd"/></g><g transform="translate(616.09 593.34)"><path d="m0 0c1.119 0.805 0.156 2.591-0.388 3.292-1.021-0.932-2.955-2.373-4.47-2.396-1.022-1.985 3.314-2.857 4.313-1.589z" fill="#fff" fill-rule="evenodd"/></g><g transform="translate(614.77 587.99)"><path d="m0 0s-3.414-3.185-8.948 0.409c-5.534 3.593-5.9 5.948-6.461 7.892-0.561 1.945-2.206-0.811 0.479-4.809 2.687-3.999 5.606-4.249 8.329-5.089 2.723-0.839 6.601 1.597 6.601 1.597" fill="#53ba62" fill-rule="evenodd"/></g></g></g><g transform="translate(-102.53 -273.02)"><path d="m597.63 595.76c2.049-21.116 42.65-9.236 13.822 6.899-1.206 0.675-2.77 1.009-4.411 1.009-4.65 0-9.919-2.683-9.411-7.908" fill="url(#radialGradient336-7)"/><g clip-path="url(#clipPath346-11)"><g transform="translate(618.42 597.69)"><path d="m0 0c12.223-11.924-12.638-19.168-19.29-7.01 0.137-0.206 4.762-6.999 13.682-4.775 9.042 2.255 8.958 7.332 5.608 11.785" fill="#008845" fill-rule="evenodd"/></g><g transform="translate(617.66 592.31)"><path d="m0 0s2.26 2.019-1.239 5.759c-3.499 3.741-9.138 5.554-12.757 3.282-3.619-2.273-1.794-6.134 0.847-4.47 2.64 1.664 6.33 0.471 6.003-1.055-0.328-1.526-2.955-2.645-1.409-4.925 1.545-2.28 6.858-1.284 7.706 0.063z" fill="#dae79c" fill-rule="evenodd"/></g><g transform="translate(612.57 599.31)"><path d="m0 0c-1.751 1.832-4.351 2.794-6.25 1.862-2.125-1.042-1.344-3.274 0.207-2.51 0.697 0.343 4.163 0.315 3.093-1.222 0.652-7e-3 2.562 1.445 2.95 1.87" fill="#fff" fill-rule="evenodd"/></g><g transform="translate(616.09 593.34)"><path d="m0 0c1.119 0.805 0.156 2.591-0.388 3.292-1.021-0.932-2.955-2.373-4.47-2.396-1.022-1.985 3.314-2.857 4.313-1.589z" fill="#fff" fill-rule="evenodd"/></g><g transform="translate(614.77 587.99)"><path d="m0 0s-3.414-3.185-8.948 0.409c-5.534 3.593-5.9 5.948-6.461 7.892-0.561 1.945-2.206-0.811 0.479-4.809 2.687-3.999 5.606-4.249 8.329-5.089 2.723-0.839 6.601 1.597 6.601 1.597" fill="#53ba62" fill-rule="evenodd"/></g></g></g><g transform="translate(-116.76 -229.58)"><path d="m597.63 595.76c2.049-21.116 42.65-9.236 13.822 6.899-1.206 0.675-2.77 1.009-4.411 1.009-4.65 0-9.919-2.683-9.411-7.908" fill="url(#radialGradient336-7)"/><g clip-path="url(#clipPath346-0)"><g transform="translate(618.42 597.69)"><path d="m0 0c12.223-11.924-12.638-19.168-19.29-7.01 0.137-0.206 4.762-6.999 13.682-4.775 9.042 2.255 8.958 7.332 5.608 11.785" fill="#008845" fill-rule="evenodd"/></g><g transform="translate(617.66 592.31)"><path d="m0 0s2.26 2.019-1.239 5.759c-3.499 3.741-9.138 5.554-12.757 3.282-3.619-2.273-1.794-6.134 0.847-4.47 2.64 1.664 6.33 0.471 6.003-1.055-0.328-1.526-2.955-2.645-1.409-4.925 1.545-2.28 6.858-1.284 7.706 0.063z" fill="#dae79c" fill-rule="evenodd"/></g><g transform="translate(612.57 599.31)"><path d="m0 0c-1.751 1.832-4.351 2.794-6.25 1.862-2.125-1.042-1.344-3.274 0.207-2.51 0.697 0.343 4.163 0.315 3.093-1.222 0.652-7e-3 2.562 1.445 2.95 1.87" fill="#fff" fill-rule="evenodd"/></g><g transform="translate(616.09 593.34)"><path d="m0 0c1.119 0.805 0.156 2.591-0.388 3.292-1.021-0.932-2.955-2.373-4.47-2.396-1.022-1.985 3.314-2.857 4.313-1.589z" fill="#fff" fill-rule="evenodd"/></g><g transform="translate(614.77 587.99)"><path d="m0 0s-3.414-3.185-8.948 0.409c-5.534 3.593-5.9 5.948-6.461 7.892-0.561 1.945-2.206-0.811 0.479-4.809 2.687-3.999 5.606-4.249 8.329-5.089 2.723-0.839 6.601 1.597 6.601 1.597" fill="#53ba62" fill-rule="evenodd"/></g></g></g><g transform="translate(-110.77 -187.63)"><path d="m597.63 595.76c2.049-21.116 42.65-9.236 13.822 6.899-1.206 0.675-2.77 1.009-4.411 1.009-4.65 0-9.919-2.683-9.411-7.908" fill="url(#radialGradient336-7)"/><g clip-path="url(#clipPath346-9)"><g transform="translate(618.42 597.69)"><path d="m0 0c12.223-11.924-12.638-19.168-19.29-7.01 0.137-0.206 4.762-6.999 13.682-4.775 9.042 2.255 8.958 7.332 5.608 11.785" fill="#008845" fill-rule="evenodd"/></g><g transform="translate(617.66 592.31)"><path d="m0 0s2.26 2.019-1.239 5.759c-3.499 3.741-9.138 5.554-12.757 3.282-3.619-2.273-1.794-6.134 0.847-4.47 2.64 1.664 6.33 0.471 6.003-1.055-0.328-1.526-2.955-2.645-1.409-4.925 1.545-2.28 6.858-1.284 7.706 0.063z" fill="#dae79c" fill-rule="evenodd"/></g><g transform="translate(612.57 599.31)"><path d="m0 0c-1.751 1.832-4.351 2.794-6.25 1.862-2.125-1.042-1.344-3.274 0.207-2.51 0.697 0.343 4.163 0.315 3.093-1.222 0.652-7e-3 2.562 1.445 2.95 1.87" fill="#fff" fill-rule="evenodd"/></g><g transform="translate(616.09 593.34)"><path d="m0 0c1.119 0.805 0.156 2.591-0.388 3.292-1.021-0.932-2.955-2.373-4.47-2.396-1.022-1.985 3.314-2.857 4.313-1.589z" fill="#fff" fill-rule="evenodd"/></g><g transform="translate(614.77 587.99)"><path d="m0 0s-3.414-3.185-8.948 0.409c-5.534 3.593-5.9 5.948-6.461 7.892-0.561 1.945-2.206-0.811 0.479-4.809 2.687-3.999 5.606-4.249 8.329-5.089 2.723-0.839 6.601 1.597 6.601 1.597" fill="#53ba62" fill-rule="evenodd"/></g></g></g><g transform="translate(-154.97 -193.62)"><path d="m597.63 595.76c2.049-21.116 42.65-9.236 13.822 6.899-1.206 0.675-2.77 1.009-4.411 1.009-4.65 0-9.919-2.683-9.411-7.908" fill="url(#radialGradient336-7)"/><g clip-path="url(#clipPath346-12)"><g transform="translate(618.42 597.69)"><path d="m0 0c12.223-11.924-12.638-19.168-19.29-7.01 0.137-0.206 4.762-6.999 13.682-4.775 9.042 2.255 8.958 7.332 5.608 11.785" fill="#008845" fill-rule="evenodd"/></g><g transform="translate(617.66 592.31)"><path d="m0 0s2.26 2.019-1.239 5.759c-3.499 3.741-9.138 5.554-12.757 3.282-3.619-2.273-1.794-6.134 0.847-4.47 2.64 1.664 6.33 0.471 6.003-1.055-0.328-1.526-2.955-2.645-1.409-4.925 1.545-2.28 6.858-1.284 7.706 0.063z" fill="#dae79c" fill-rule="evenodd"/></g><g transform="translate(612.57 599.31)"><path d="m0 0c-1.751 1.832-4.351 2.794-6.25 1.862-2.125-1.042-1.344-3.274 0.207-2.51 0.697 0.343 4.163 0.315 3.093-1.222 0.652-7e-3 2.562 1.445 2.95 1.87" fill="#fff" fill-rule="evenodd"/></g><g transform="translate(616.09 593.34)"><path d="m0 0c1.119 0.805 0.156 2.591-0.388 3.292-1.021-0.932-2.955-2.373-4.47-2.396-1.022-1.985 3.314-2.857 4.313-1.589z" fill="#fff" fill-rule="evenodd"/></g><g transform="translate(614.77 587.99)"><path d="m0 0s-3.414-3.185-8.948 0.409c-5.534 3.593-5.9 5.948-6.461 7.892-0.561 1.945-2.206-0.811 0.479-4.809 2.687-3.999 5.606-4.249 8.329-5.089 2.723-0.839 6.601 1.597 6.601 1.597" fill="#53ba62" fill-rule="evenodd"/></g></g></g><g transform="translate(-164.7 -229.58)"><path d="m597.63 595.76c2.049-21.116 42.65-9.236 13.822 6.899-1.206 0.675-2.77 1.009-4.411 1.009-4.65 0-9.919-2.683-9.411-7.908" fill="url(#radialGradient336-7)"/><g clip-path="url(#clipPath346-7)"><g transform="translate(618.42 597.69)"><path d="m0 0c12.223-11.924-12.638-19.168-19.29-7.01 0.137-0.206 4.762-6.999 13.682-4.775 9.042 2.255 8.958 7.332 5.608 11.785" fill="#008845" fill-rule="evenodd"/></g><g transform="translate(617.66 592.31)"><path d="m0 0s2.26 2.019-1.239 5.759c-3.499 3.741-9.138 5.554-12.757 3.282-3.619-2.273-1.794-6.134 0.847-4.47 2.64 1.664 6.33 0.471 6.003-1.055-0.328-1.526-2.955-2.645-1.409-4.925 1.545-2.28 6.858-1.284 7.706 0.063z" fill="#dae79c" fill-rule="evenodd"/></g><g transform="translate(612.57 599.31)"><path d="m0 0c-1.751 1.832-4.351 2.794-6.25 1.862-2.125-1.042-1.344-3.274 0.207-2.51 0.697 0.343 4.163 0.315 3.093-1.222 0.652-7e-3 2.562 1.445 2.95 1.87" fill="#fff" fill-rule="evenodd"/></g><g transform="translate(616.09 593.34)"><path d="m0 0c1.119 0.805 0.156 2.591-0.388 3.292-1.021-0.932-2.955-2.373-4.47-2.396-1.022-1.985 3.314-2.857 4.313-1.589z" fill="#fff" fill-rule="evenodd"/></g><g transform="translate(614.77 587.99)"><path d="m0 0s-3.414-3.185-8.948 0.409c-5.534 3.593-5.9 5.948-6.461 7.892-0.561 1.945-2.206-0.811 0.479-4.809 2.687-3.999 5.606-4.249 8.329-5.089 2.723-0.839 6.601 1.597 6.601 1.597" fill="#53ba62" fill-rule="evenodd"/></g></g></g><g transform="translate(-158.71 -265.53)"><path d="m597.63 595.76c2.049-21.116 42.65-9.236 13.822 6.899-1.206 0.675-2.77 1.009-4.411 1.009-4.65 0-9.919-2.683-9.411-7.908" fill="url(#radialGradient336-7)"/><g clip-path="url(#clipPath346-00)"><g transform="translate(618.42 597.69)"><path d="m0 0c12.223-11.924-12.638-19.168-19.29-7.01 0.137-0.206 4.762-6.999 13.682-4.775 9.042 2.255 8.958 7.332 5.608 11.785" fill="#008845" fill-rule="evenodd"/></g><g transform="translate(617.66 592.31)"><path d="m0 0s2.26 2.019-1.239 5.759c-3.499 3.741-9.138 5.554-12.757 3.282-3.619-2.273-1.794-6.134 0.847-4.47 2.64 1.664 6.33 0.471 6.003-1.055-0.328-1.526-2.955-2.645-1.409-4.925 1.545-2.28 6.858-1.284 7.706 0.063z" fill="#dae79c" fill-rule="evenodd"/></g><g transform="translate(612.57 599.31)"><path d="m0 0c-1.751 1.832-4.351 2.794-6.25 1.862-2.125-1.042-1.344-3.274 0.207-2.51 0.697 0.343 4.163 0.315 3.093-1.222 0.652-7e-3 2.562 1.445 2.95 1.87" fill="#fff" fill-rule="evenodd"/></g><g transform="translate(616.09 593.34)"><path d="m0 0c1.119 0.805 0.156 2.591-0.388 3.292-1.021-0.932-2.955-2.373-4.47-2.396-1.022-1.985 3.314-2.857 4.313-1.589z" fill="#fff" fill-rule="evenodd"/></g><g transform="translate(614.77 587.99)"><path d="m0 0s-3.414-3.185-8.948 0.409c-5.534 3.593-5.9 5.948-6.461 7.892-0.561 1.945-2.206-0.811 0.479-4.809 2.687-3.999 5.606-4.249 8.329-5.089 2.723-0.839 6.601 1.597 6.601 1.597" fill="#53ba62" fill-rule="evenodd"/></g></g></g><g transform="translate(-207.4 -231.08)"><path d="m597.63 595.76c2.049-21.116 42.65-9.236 13.822 6.899-1.206 0.675-2.77 1.009-4.411 1.009-4.65 0-9.919-2.683-9.411-7.908" fill="url(#radialGradient336-7)"/><g clip-path="url(#clipPath346-3)"><g transform="translate(618.42 597.69)"><path d="m0 0c12.223-11.924-12.638-19.168-19.29-7.01 0.137-0.206 4.762-6.999 13.682-4.775 9.042 2.255 8.958 7.332 5.608 11.785" fill="#008845" fill-rule="evenodd"/></g><g transform="translate(617.66 592.31)"><path d="m0 0s2.26 2.019-1.239 5.759c-3.499 3.741-9.138 5.554-12.757 3.282-3.619-2.273-1.794-6.134 0.847-4.47 2.64 1.664 6.33 0.471 6.003-1.055-0.328-1.526-2.955-2.645-1.409-4.925 1.545-2.28 6.858-1.284 7.706 0.063z" fill="#dae79c" fill-rule="evenodd"/></g><g transform="translate(612.57 599.31)"><path d="m0 0c-1.751 1.832-4.351 2.794-6.25 1.862-2.125-1.042-1.344-3.274 0.207-2.51 0.697 0.343 4.163 0.315 3.093-1.222 0.652-7e-3 2.562 1.445 2.95 1.87" fill="#fff" fill-rule="evenodd"/></g><g transform="translate(616.09 593.34)"><path d="m0 0c1.119 0.805 0.156 2.591-0.388 3.292-1.021-0.932-2.955-2.373-4.47-2.396-1.022-1.985 3.314-2.857 4.313-1.589z" fill="#fff" fill-rule="evenodd"/></g><g transform="translate(614.77 587.99)"><path d="m0 0s-3.414-3.185-8.948 0.409c-5.534 3.593-5.9 5.948-6.461 7.892-0.561 1.945-2.206-0.811 0.479-4.809 2.687-3.999 5.606-4.249 8.329-5.089 2.723-0.839 6.601 1.597 6.601 1.597" fill="#53ba62" fill-rule="evenodd"/></g></g></g><g transform="translate(-206.65 -187.63)"><path d="m597.63 595.76c2.049-21.116 42.65-9.236 13.822 6.899-1.206 0.675-2.77 1.009-4.411 1.009-4.65 0-9.919-2.683-9.411-7.908" fill="url(#radialGradient336-7)"/><g clip-path="url(#clipPath346-6)"><g transform="translate(618.42 597.69)"><path d="m0 0c12.223-11.924-12.638-19.168-19.29-7.01 0.137-0.206 4.762-6.999 13.682-4.775 9.042 2.255 8.958 7.332 5.608 11.785" fill="#008845" fill-rule="evenodd"/></g><g transform="translate(617.66 592.31)"><path d="m0 0s2.26 2.019-1.239 5.759c-3.499 3.741-9.138 5.554-12.757 3.282-3.619-2.273-1.794-6.134 0.847-4.47 2.64 1.664 6.33 0.471 6.003-1.055-0.328-1.526-2.955-2.645-1.409-4.925 1.545-2.28 6.858-1.284 7.706 0.063z" fill="#dae79c" fill-rule="evenodd"/></g><g transform="translate(612.57 599.31)"><path d="m0 0c-1.751 1.832-4.351 2.794-6.25 1.862-2.125-1.042-1.344-3.274 0.207-2.51 0.697 0.343 4.163 0.315 3.093-1.222 0.652-7e-3 2.562 1.445 2.95 1.87" fill="#fff" fill-rule="evenodd"/></g><g transform="translate(616.09 593.34)"><path d="m0 0c1.119 0.805 0.156 2.591-0.388 3.292-1.021-0.932-2.955-2.373-4.47-2.396-1.022-1.985 3.314-2.857 4.313-1.589z" fill="#fff" fill-rule="evenodd"/></g><g transform="translate(614.77 587.99)"><path d="m0 0s-3.414-3.185-8.948 0.409c-5.534 3.593-5.9 5.948-6.461 7.892-0.561 1.945-2.206-0.811 0.479-4.809 2.687-3.999 5.606-4.249 8.329-5.089 2.723-0.839 6.601 1.597 6.601 1.597" fill="#53ba62" fill-rule="evenodd"/></g></g></g><g transform="translate(-169.2 -151.68)"><path d="m597.63 595.76c2.049-21.116 42.65-9.236 13.822 6.899-1.206 0.675-2.77 1.009-4.411 1.009-4.65 0-9.919-2.683-9.411-7.908" fill="url(#radialGradient336-7)"/><g clip-path="url(#clipPath346-55)"><g transform="translate(618.42 597.69)"><path d="m0 0c12.223-11.924-12.638-19.168-19.29-7.01 0.137-0.206 4.762-6.999 13.682-4.775 9.042 2.255 8.958 7.332 5.608 11.785" fill="#008845" fill-rule="evenodd"/></g><g transform="translate(617.66 592.31)"><path d="m0 0s2.26 2.019-1.239 5.759c-3.499 3.741-9.138 5.554-12.757 3.282-3.619-2.273-1.794-6.134 0.847-4.47 2.64 1.664 6.33 0.471 6.003-1.055-0.328-1.526-2.955-2.645-1.409-4.925 1.545-2.28 6.858-1.284 7.706 0.063z" fill="#dae79c" fill-rule="evenodd"/></g><g transform="translate(612.57 599.31)"><path d="m0 0c-1.751 1.832-4.351 2.794-6.25 1.862-2.125-1.042-1.344-3.274 0.207-2.51 0.697 0.343 4.163 0.315 3.093-1.222 0.652-7e-3 2.562 1.445 2.95 1.87" fill="#fff" fill-rule="evenodd"/></g><g transform="translate(616.09 593.34)"><path d="m0 0c1.119 0.805 0.156 2.591-0.388 3.292-1.021-0.932-2.955-2.373-4.47-2.396-1.022-1.985 3.314-2.857 4.313-1.589z" fill="#fff" fill-rule="evenodd"/></g><g transform="translate(614.77 587.99)"><path d="m0 0s-3.414-3.185-8.948 0.409c-5.534 3.593-5.9 5.948-6.461 7.892-0.561 1.945-2.206-0.811 0.479-4.809 2.687-3.999 5.606-4.249 8.329-5.089 2.723-0.839 6.601 1.597 6.601 1.597" fill="#53ba62" fill-rule="evenodd"/></g></g></g><g transform="translate(-252.34 -183.89)"><path d="m597.63 595.76c2.049-21.116 42.65-9.236 13.822 6.899-1.206 0.675-2.77 1.009-4.411 1.009-4.65 0-9.919-2.683-9.411-7.908" fill="url(#radialGradient336-7)"/><g clip-path="url(#clipPath346-03)"><g transform="translate(618.42 597.69)"><path d="m0 0c12.223-11.924-12.638-19.168-19.29-7.01 0.137-0.206 4.762-6.999 13.682-4.775 9.042 2.255 8.958 7.332 5.608 11.785" fill="#008845" fill-rule="evenodd"/></g><g transform="translate(617.66 592.31)"><path d="m0 0s2.26 2.019-1.239 5.759c-3.499 3.741-9.138 5.554-12.757 3.282-3.619-2.273-1.794-6.134 0.847-4.47 2.64 1.664 6.33 0.471 6.003-1.055-0.328-1.526-2.955-2.645-1.409-4.925 1.545-2.28 6.858-1.284 7.706 0.063z" fill="#dae79c" fill-rule="evenodd"/></g><g transform="translate(612.57 599.31)"><path d="m0 0c-1.751 1.832-4.351 2.794-6.25 1.862-2.125-1.042-1.344-3.274 0.207-2.51 0.697 0.343 4.163 0.315 3.093-1.222 0.652-7e-3 2.562 1.445 2.95 1.87" fill="#fff" fill-rule="evenodd"/></g><g transform="translate(616.09 593.34)"><path d="m0 0c1.119 0.805 0.156 2.591-0.388 3.292-1.021-0.932-2.955-2.373-4.47-2.396-1.022-1.985 3.314-2.857 4.313-1.589z" fill="#fff" fill-rule="evenodd"/></g><g transform="translate(614.77 587.99)"><path d="m0 0s-3.414-3.185-8.948 0.409c-5.534 3.593-5.9 5.948-6.461 7.892-0.561 1.945-2.206-0.811 0.479-4.809 2.687-3.999 5.606-4.249 8.329-5.089 2.723-0.839 6.601 1.597 6.601 1.597" fill="#53ba62" fill-rule="evenodd"/></g></g></g><g transform="translate(-221.63 -139.69)"><path d="m597.63 595.76c2.049-21.116 42.65-9.236 13.822 6.899-1.206 0.675-2.77 1.009-4.411 1.009-4.65 0-9.919-2.683-9.411-7.908" fill="url(#radialGradient336-7)"/><g clip-path="url(#clipPath346-57)"><g transform="translate(618.42 597.69)"><path d="m0 0c12.223-11.924-12.638-19.168-19.29-7.01 0.137-0.206 4.762-6.999 13.682-4.775 9.042 2.255 8.958 7.332 5.608 11.785" fill="#008845" fill-rule="evenodd"/></g><g transform="translate(617.66 592.31)"><path d="m0 0s2.26 2.019-1.239 5.759c-3.499 3.741-9.138 5.554-12.757 3.282-3.619-2.273-1.794-6.134 0.847-4.47 2.64 1.664 6.33 0.471 6.003-1.055-0.328-1.526-2.955-2.645-1.409-4.925 1.545-2.28 6.858-1.284 7.706 0.063z" fill="#dae79c" fill-rule="evenodd"/></g><g transform="translate(612.57 599.31)"><path d="m0 0c-1.751 1.832-4.351 2.794-6.25 1.862-2.125-1.042-1.344-3.274 0.207-2.51 0.697 0.343 4.163 0.315 3.093-1.222 0.652-7e-3 2.562 1.445 2.95 1.87" fill="#fff" fill-rule="evenodd"/></g><g transform="translate(616.09 593.34)"><path d="m0 0c1.119 0.805 0.156 2.591-0.388 3.292-1.021-0.932-2.955-2.373-4.47-2.396-1.022-1.985 3.314-2.857 4.313-1.589z" fill="#fff" fill-rule="evenodd"/></g><g transform="translate(614.77 587.99)"><path d="m0 0s-3.414-3.185-8.948 0.409c-5.534 3.593-5.9 5.948-6.461 7.892-0.561 1.945-2.206-0.811 0.479-4.809 2.687-3.999 5.606-4.249 8.329-5.089 2.723-0.839 6.601 1.597 6.601 1.597" fill="#53ba62" fill-rule="evenodd"/></g></g></g><g transform="translate(-265.08 -132.95)"><path d="m597.63 595.76c2.049-21.116 42.65-9.236 13.822 6.899-1.206 0.675-2.77 1.009-4.411 1.009-4.65 0-9.919-2.683-9.411-7.908" fill="url(#radialGradient336-7)"/><g clip-path="url(#clipPath346-53)"><g transform="translate(618.42 597.69)"><path d="m0 0c12.223-11.924-12.638-19.168-19.29-7.01 0.137-0.206 4.762-6.999 13.682-4.775 9.042 2.255 8.958 7.332 5.608 11.785" fill="#008845" fill-rule="evenodd"/></g><g transform="translate(617.66 592.31)"><path d="m0 0s2.26 2.019-1.239 5.759c-3.499 3.741-9.138 5.554-12.757 3.282-3.619-2.273-1.794-6.134 0.847-4.47 2.64 1.664 6.33 0.471 6.003-1.055-0.328-1.526-2.955-2.645-1.409-4.925 1.545-2.28 6.858-1.284 7.706 0.063z" fill="#dae79c" fill-rule="evenodd"/></g><g transform="translate(612.57 599.31)"><path d="m0 0c-1.751 1.832-4.351 2.794-6.25 1.862-2.125-1.042-1.344-3.274 0.207-2.51 0.697 0.343 4.163 0.315 3.093-1.222 0.652-7e-3 2.562 1.445 2.95 1.87" fill="#fff" fill-rule="evenodd"/></g><g transform="translate(616.09 593.34)"><path d="m0 0c1.119 0.805 0.156 2.591-0.388 3.292-1.021-0.932-2.955-2.373-4.47-2.396-1.022-1.985 3.314-2.857 4.313-1.589z" fill="#fff" fill-rule="evenodd"/></g><g transform="translate(614.77 587.99)"><path d="m0 0s-3.414-3.185-8.948 0.409c-5.534 3.593-5.9 5.948-6.461 7.892-0.561 1.945-2.206-0.811 0.479-4.809 2.687-3.999 5.606-4.249 8.329-5.089 2.723-0.839 6.601 1.597 6.601 1.597" fill="#53ba62" fill-rule="evenodd"/></g></g></g><g transform="translate(-259.08 -87.257)"><path d="m597.63 595.76c2.049-21.116 42.65-9.236 13.822 6.899-1.206 0.675-2.77 1.009-4.411 1.009-4.65 0-9.919-2.683-9.411-7.908" fill="url(#radialGradient336-7)"/><g clip-path="url(#clipPath346-4)"><g transform="translate(618.42 597.69)"><path d="m0 0c12.223-11.924-12.638-19.168-19.29-7.01 0.137-0.206 4.762-6.999 13.682-4.775 9.042 2.255 8.958 7.332 5.608 11.785" fill="#008845" fill-rule="evenodd"/></g><g transform="translate(617.66 592.31)"><path d="m0 0s2.26 2.019-1.239 5.759c-3.499 3.741-9.138 5.554-12.757 3.282-3.619-2.273-1.794-6.134 0.847-4.47 2.64 1.664 6.33 0.471 6.003-1.055-0.328-1.526-2.955-2.645-1.409-4.925 1.545-2.28 6.858-1.284 7.706 0.063z" fill="#dae79c" fill-rule="evenodd"/></g><g transform="translate(612.57 599.31)"><path d="m0 0c-1.751 1.832-4.351 2.794-6.25 1.862-2.125-1.042-1.344-3.274 0.207-2.51 0.697 0.343 4.163 0.315 3.093-1.222 0.652-7e-3 2.562 1.445 2.95 1.87" fill="#fff" fill-rule="evenodd"/></g><g transform="translate(616.09 593.34)"><path d="m0 0c1.119 0.805 0.156 2.591-0.388 3.292-1.021-0.932-2.955-2.373-4.47-2.396-1.022-1.985 3.314-2.857 4.313-1.589z" fill="#fff" fill-rule="evenodd"/></g><g transform="translate(614.77 587.99)"><path d="m0 0s-3.414-3.185-8.948 0.409c-5.534 3.593-5.9 5.948-6.461 7.892-0.561 1.945-2.206-0.811 0.479-4.809 2.687-3.999 5.606-4.249 8.329-5.089 2.723-0.839 6.601 1.597 6.601 1.597" fill="#53ba62" fill-rule="evenodd"/></g></g></g><g transform="translate(-211.14 -105.98)"><path d="m597.63 595.76c2.049-21.116 42.65-9.236 13.822 6.899-1.206 0.675-2.77 1.009-4.411 1.009-4.65 0-9.919-2.683-9.411-7.908" fill="url(#radialGradient336-7)"/><g clip-path="url(#clipPath346-59)"><g transform="translate(618.42 597.69)"><path d="m0 0c12.223-11.924-12.638-19.168-19.29-7.01 0.137-0.206 4.762-6.999 13.682-4.775 9.042 2.255 8.958 7.332 5.608 11.785" fill="#008845" fill-rule="evenodd"/></g><g transform="translate(617.66 592.31)"><path d="m0 0s2.26 2.019-1.239 5.759c-3.499 3.741-9.138 5.554-12.757 3.282-3.619-2.273-1.794-6.134 0.847-4.47 2.64 1.664 6.33 0.471 6.003-1.055-0.328-1.526-2.955-2.645-1.409-4.925 1.545-2.28 6.858-1.284 7.706 0.063z" fill="#dae79c" fill-rule="evenodd"/></g><g transform="translate(612.57 599.31)"><path d="m0 0c-1.751 1.832-4.351 2.794-6.25 1.862-2.125-1.042-1.344-3.274 0.207-2.51 0.697 0.343 4.163 0.315 3.093-1.222 0.652-7e-3 2.562 1.445 2.95 1.87" fill="#fff" fill-rule="evenodd"/></g><g transform="translate(616.09 593.34)"><path d="m0 0c1.119 0.805 0.156 2.591-0.388 3.292-1.021-0.932-2.955-2.373-4.47-2.396-1.022-1.985 3.314-2.857 4.313-1.589z" fill="#fff" fill-rule="evenodd"/></g><g transform="translate(614.77 587.99)"><path d="m0 0s-3.414-3.185-8.948 0.409c-5.534 3.593-5.9 5.948-6.461 7.892-0.561 1.945-2.206-0.811 0.479-4.809 2.687-3.999 5.606-4.249 8.329-5.089 2.723-0.839 6.601 1.597 6.601 1.597" fill="#53ba62" fill-rule="evenodd"/></g></g></g><g transform="translate(-259.83 -40.816)"><path d="m597.63 595.76c2.049-21.116 42.65-9.236 13.822 6.899-1.206 0.675-2.77 1.009-4.411 1.009-4.65 0-9.919-2.683-9.411-7.908" fill="url(#radialGradient336-7)"/><g clip-path="url(#clipPath346-8)"><g transform="translate(618.42 597.69)"><path d="m0 0c12.223-11.924-12.638-19.168-19.29-7.01 0.137-0.206 4.762-6.999 13.682-4.775 9.042 2.255 8.958 7.332 5.608 11.785" fill="#008845" fill-rule="evenodd"/></g><g transform="translate(617.66 592.31)"><path d="m0 0s2.26 2.019-1.239 5.759c-3.499 3.741-9.138 5.554-12.757 3.282-3.619-2.273-1.794-6.134 0.847-4.47 2.64 1.664 6.33 0.471 6.003-1.055-0.328-1.526-2.955-2.645-1.409-4.925 1.545-2.28 6.858-1.284 7.706 0.063z" fill="#dae79c" fill-rule="evenodd"/></g><g transform="translate(612.57 599.31)"><path d="m0 0c-1.751 1.832-4.351 2.794-6.25 1.862-2.125-1.042-1.344-3.274 0.207-2.51 0.697 0.343 4.163 0.315 3.093-1.222 0.652-7e-3 2.562 1.445 2.95 1.87" fill="#fff" fill-rule="evenodd"/></g><g transform="translate(616.09 593.34)"><path d="m0 0c1.119 0.805 0.156 2.591-0.388 3.292-1.021-0.932-2.955-2.373-4.47-2.396-1.022-1.985 3.314-2.857 4.313-1.589z" fill="#fff" fill-rule="evenodd"/></g><g transform="translate(614.77 587.99)"><path d="m0 0s-3.414-3.185-8.948 0.409c-5.534 3.593-5.9 5.948-6.461 7.892-0.561 1.945-2.206-0.811 0.479-4.809 2.687-3.999 5.606-4.249 8.329-5.089 2.723-0.839 6.601 1.597 6.601 1.597" fill="#53ba62" fill-rule="evenodd"/></g></g></g></g><text transform="scale(1,-1)" x="477.87888" y="-677.59149" fill="#000000" font-family="sans-serif" font-size="205.14px" letter-spacing="-10.684px" stroke-width="1.0684" style="line-height:1.25" xml:space="preserve"><tspan x="477.87888" y="-677.59149" fill="#ffffff" font-family="'Space Grotesk'" font-size="205.14px" font-weight="300" stroke-width="1.0684">Cannlytics</tspan></text></g></svg>
