<?xml version="1.0" encoding="UTF-8" standalone="no"?>
<!-- Created with Inkscape (http://www.inkscape.org/) -->

<svg
   xmlns:dc="http://purl.org/dc/elements/1.1/"
   xmlns:cc="http://creativecommons.org/ns#"
   xmlns:rdf="http://www.w3.org/1999/02/22-rdf-syntax-ns#"
   xmlns:svg="http://www.w3.org/2000/svg"
   xmlns="http://www.w3.org/2000/svg"
   xmlns:sodipodi="http://sodipodi.sourceforge.net/DTD/sodipodi-0.dtd"
   xmlns:inkscape="http://www.inkscape.org/namespaces/inkscape"
   width="400"
   height="400"
   viewBox="0 0 105.83333 105.83333"
   version="1.1"
   id="svg1987"
   inkscape:version="0.92.4 (5da689c313, 2019-01-14)"
   sodipodi:docname="cannlytics_atom.svg"
   inkscape:export-filename="C:\Users\Keegan\repos\cannlytics-website\assets\images\lab_icons\two_tone_atom.png"
   inkscape:export-xdpi="96"
   inkscape:export-ydpi="96">
  <defs
     id="defs1981" />
  <sodipodi:namedview
     id="base"
     pagecolor="#ffffff"
     bordercolor="#666666"
     borderopacity="1.0"
     inkscape:pageopacity="0.0"
     inkscape:pageshadow="2"
     inkscape:zoom="0.9899495"
     inkscape:cx="174.01645"
     inkscape:cy="89.089221"
     inkscape:document-units="mm"
     inkscape:current-layer="layer1"
     showgrid="false"
     fit-margin-top="0"
     fit-margin-left="0"
     fit-margin-right="0"
     fit-margin-bottom="0"
     units="px"
     inkscape:window-width="1920"
     inkscape:window-height="1051"
     inkscape:window-x="-9"
     inkscape:window-y="-9"
     inkscape:window-maximized="1" />
  <metadata
     id="metadata1984">
    <rdf:RDF>
      <cc:Work
         rdf:about="">
        <dc:format>image/svg+xml</dc:format>
        <dc:type
           rdf:resource="http://purl.org/dc/dcmitype/StillImage" />
        <dc:title></dc:title>
      </cc:Work>
    </rdf:RDF>
  </metadata>
  <g
     inkscape:label="Layer 1"
     inkscape:groupmode="layer"
     id="layer1"
     transform="translate(-101.80076,-98.008177)">
    <path
       d="m 154.71635,100.41509 c -9.43139,0 -17.39819,23.1314 -17.39819,50.50976 0,27.37839 7.9668,50.50979 17.39819,50.50979 9.43136,0 17.39941,-23.1314 17.39941,-50.50979 0,-27.37836 -7.96805,-50.50976 -17.39941,-50.50976 z m 0,103.42642 c -11.10659,0 -19.80509,-23.24453 -19.80509,-52.91666 0,-29.67214 8.6985,-52.916671 19.80509,-52.916671 11.10538,0 19.80628,23.244531 19.80628,52.916671 0,29.67213 -8.7009,52.91666 -19.80628,52.91666"
       style="fill:#7db63c;fill-opacity:1;fill-rule:nonzero;stroke:none;stroke-width:0.12034449"
       id="path138"
       inkscape:connector-curvature="0" />
    <path
       d="m 121.58912,121.65948 c -3.78722,0 -8.70089,0.6956 -10.61438,4.00989 -4.71508,8.16777 11.33166,26.63461 35.04188,40.32381 15.39811,8.88865 31.03566,14.19585 41.82814,14.19585 3.78605,0 8.70213,-0.69561 10.61557,-4.00867 4.71393,-8.1678 -11.3328,-26.63346 -35.04308,-40.32265 -15.39929,-8.89104 -31.03802,-14.19823 -41.82813,-14.19823 z m 66.25564,60.93641 c -11.19683,0 -27.28327,-5.42631 -43.03155,-14.51834 -25.69594,-14.83725 -41.4743,-33.99369 -35.92282,-43.61163 1.96881,-3.41056 6.36019,-5.21332 12.69873,-5.21332 11.19446,0 27.28209,5.42751 43.03158,14.51955 25.69596,14.83728 41.47432,33.99369 35.924,43.61162 -1.97002,3.40937 -6.3614,5.21212 -12.69994,5.21212"
       style="fill:#7db63c;fill-opacity:1;fill-rule:nonzero;stroke:none;stroke-width:0.12034449"
       id="path140"
       inkscape:connector-curvature="0" />
    <path
       d="m 187.84476,121.65948 c -10.79248,0 -26.42884,5.30719 -41.82814,14.19823 -23.71022,13.68919 -39.75696,32.15485 -35.04188,40.32265 1.91349,3.31306 6.82835,4.00867 10.61438,4.00867 10.79131,0 26.42884,-5.3072 41.82813,-14.19585 23.71028,-13.6892 39.75701,-32.15604 35.04308,-40.32381 -1.91344,-3.31429 -6.82952,-4.00989 -10.61557,-4.00989 z m -66.25443,60.93641 c 0,0 0,0 -10e-4,0 -6.33854,0 -10.72993,-1.80275 -12.69875,-5.21212 -5.55149,-9.61793 10.22687,-28.77434 35.92281,-43.61162 15.74947,-9.09204 31.83591,-14.51955 43.03155,-14.51955 6.33854,0 10.72992,1.80276 12.69993,5.21332 5.55033,9.61794 -10.22804,28.77557 -35.92398,43.61163 -15.74962,9.09084 -31.83606,14.51834 -43.0305,14.51834"
       style="fill:#7db63c;fill-opacity:1;fill-rule:nonzero;stroke:none;stroke-width:0.12034449"
       id="path142"
       inkscape:connector-curvature="0" />
    <path
       d="m 164.90108,150.92485 c 0,5.62488 -4.55865,10.18356 -10.18473,10.18356 -5.62492,0 -10.18355,-4.55868 -10.18355,-10.18356 0,-5.62489 4.55863,-10.18596 10.18355,-10.18596 5.62608,0 10.18473,4.56107 10.18473,10.18596"
       style="fill:#e53a23;fill-opacity:1;fill-rule:nonzero;stroke:none;stroke-width:0.12034449"
       id="path144"
       inkscape:connector-curvature="0" />
    <path
       d="m 155.61532,149.42656 c 0,2.31663 -1.87859,4.19399 -4.19282,4.19399 -2.3166,0 -4.19281,-1.87736 -4.19281,-4.19399 0,-2.31541 1.87621,-4.19278 4.19281,-4.19278 2.31423,0 4.19282,1.87737 4.19282,4.19278"
       style="fill:#ff9200;fill-opacity:1;fill-rule:nonzero;stroke:none;stroke-width:0.12034449"
       id="path146"
       inkscape:connector-curvature="0" />
    <path
       d="m 130.09268,119.65215 c 0,3.5947 -2.91476,6.50942 -6.50945,6.50942 -3.59466,0 -6.51061,-2.91472 -6.51061,-6.50942 0,-3.59709 2.91595,-6.51184 6.51061,-6.51184 3.59469,0 6.50945,2.91475 6.50945,6.51184"
       style="fill:#1f622f;fill-opacity:1;fill-rule:nonzero;stroke:none;stroke-width:0.12034449"
       id="path148"
       inkscape:connector-curvature="0" />
    <path
       d="m 124.15729,118.6954 c 0,1.47782 -1.20103,2.67885 -2.67886,2.67885 -1.48144,0 -2.6849,-1.20103 -2.6849,-2.67885 0,-1.48264 1.20346,-2.68247 2.6849,-2.68247 1.47783,0 2.67886,1.19983 2.67886,2.68247"
       style="fill:#7db63c;fill-opacity:1;fill-rule:nonzero;stroke:none;stroke-width:0.12034449"
       id="path150"
       inkscape:connector-curvature="0" />
    <path
       d="m 201.24273,141.13481 c 0,3.59713 -2.91356,6.51065 -6.50825,6.51065 -3.59467,0 -6.51062,-2.91352 -6.51062,-6.51065 0,-3.59347 2.91595,-6.51061 6.51062,-6.51061 3.59469,0 6.50825,2.91714 6.50825,6.51061"
       style="fill:#1f622f;fill-opacity:1;fill-rule:nonzero;stroke:none;stroke-width:0.12034449"
       id="path152"
       inkscape:connector-curvature="0" />
    <path
       d="m 195.30853,140.17811 c 0,1.48263 -1.20102,2.68124 -2.68008,2.68124 -1.48021,0 -2.68248,-1.19861 -2.68248,-2.68124 0,-1.48025 1.20227,-2.68009 2.68248,-2.68009 1.47906,0 2.68008,1.19984 2.68008,2.68009"
       style="fill:#7db63c;fill-opacity:1;fill-rule:nonzero;stroke:none;stroke-width:0.12034449"
       id="path154"
       inkscape:connector-curvature="0" />
    <path
       d="m 151.01697,191.0814 c 0,3.59589 -2.91236,6.50941 -6.50703,6.50941 -3.59469,0 -6.51183,-2.91352 -6.51183,-6.50941 0,-3.5947 2.91714,-6.51184 6.51183,-6.51184 3.59467,0 6.50703,2.91714 6.50703,6.51184"
       style="fill:#1f622f;fill-opacity:1;fill-rule:nonzero;stroke:none;stroke-width:0.12034449"
       id="path156"
       inkscape:connector-curvature="0" />
    <path
       d="m 145.08396,190.12346 c 0,1.48144 -1.19983,2.68247 -2.68004,2.68247 -1.48025,0 -2.68009,-1.20103 -2.68009,-2.68247 0,-1.48025 1.19984,-2.67886 2.68009,-2.67886 1.48021,0 2.68004,1.19861 2.68004,2.67886"
       style="fill:#7db63c;fill-opacity:1;fill-rule:nonzero;stroke:none;stroke-width:0.12034449"
       id="path158"
       inkscape:connector-curvature="0" />
  </g>
</svg>
