<?xml version="1.0" encoding="UTF-8" standalone="no"?>
<!-- Created with Inkscape (http://www.inkscape.org/) -->

<svg
   xmlns:dc="http://purl.org/dc/elements/1.1/"
   xmlns:cc="http://creativecommons.org/ns#"
   xmlns:rdf="http://www.w3.org/1999/02/22-rdf-syntax-ns#"
   xmlns:svg="http://www.w3.org/2000/svg"
   xmlns="http://www.w3.org/2000/svg"
   xmlns:sodipodi="http://sodipodi.sourceforge.net/DTD/sodipodi-0.dtd"
   xmlns:inkscape="http://www.inkscape.org/namespaces/inkscape"
   width="400"
   height="400"
   viewBox="0 0 105.83333 105.83333"
   version="1.1"
   id="svg1987"
   inkscape:version="0.92.4 (5da689c313, 2019-01-14)"
   sodipodi:docname="cannlytics_brain.svg"
   inkscape:export-filename="C:\Users\Keegan\repos\cannlytics-website\assets\images\lab_icons\two_tone_brain.png"
   inkscape:export-xdpi="96"
   inkscape:export-ydpi="96">
  <defs
     id="defs1981" />
  <sodipodi:namedview
     id="base"
     pagecolor="#ffffff"
     bordercolor="#666666"
     borderopacity="1.0"
     inkscape:pageopacity="0.0"
     inkscape:pageshadow="2"
     inkscape:zoom="1.4"
     inkscape:cx="38.10898"
     inkscape:cy="212.05988"
     inkscape:document-units="mm"
     inkscape:current-layer="layer1"
     showgrid="false"
     fit-margin-top="0"
     fit-margin-left="0"
     fit-margin-right="0"
     fit-margin-bottom="0"
     units="px"
     inkscape:window-width="1920"
     inkscape:window-height="1051"
     inkscape:window-x="-9"
     inkscape:window-y="-9"
     inkscape:window-maximized="1" />
  <metadata
     id="metadata1984">
    <rdf:RDF>
      <cc:Work
         rdf:about="">
        <dc:format>image/svg+xml</dc:format>
        <dc:type
           rdf:resource="http://purl.org/dc/dcmitype/StillImage" />
        <dc:title></dc:title>
      </cc:Work>
    </rdf:RDF>
  </metadata>
  <g
     inkscape:label="Layer 1"
     inkscape:groupmode="layer"
     id="layer1"
     transform="translate(-101.80076,-98.008177)">
    <path
       d="m 130.38168,202.88707 c -7.50113,0 -13.6126,-6.06347 -13.68712,-13.54732 l 0.001,-2.15914 -1.92488,-0.49522 c -4.22111,-1.08489 -7.167,-4.87606 -7.167,-9.21965 0,-2.18446 0.72815,-4.24511 2.10589,-5.95966 l 1.97417,-2.45867 -2.80877,-1.43103 c -3.00977,-1.53083 -4.88006,-4.56324 -4.88006,-7.91511 0,-3.1975 1.82769,-6.21923 4.76826,-7.88455 l 2.83808,-1.60939 -2.23502,-2.37611 c -1.83308,-1.94884 -2.84341,-4.48339 -2.84341,-7.13775 0,-4.82414 3.28135,-8.9894 7.979,-10.13021 l 3.42379,-0.83064 -1.845,-3.00177 c -0.89724,-1.45898 -1.37246,-3.12294 -1.37246,-4.81221 0,-4.73361 3.69532,-8.77239 8.41301,-9.19173 l 1.99941,-0.17848 0.30489,-1.98477 c 1.01701,-6.61325 6.82358,-11.599833 13.50604,-11.599833 7.54642,0 13.68577,6.139393 13.68577,13.684443 v 76.5516 c 0,7.54773 -6.13935,13.68708 -13.68577,13.68708 h -8.5501"
       style="fill:#9cdee4;fill-opacity:1;fill-rule:nonzero;stroke:none;stroke-width:0.13311702"
       id="path74"
       inkscape:connector-curvature="0" />
    <path
       d="m 138.93178,99.629529 c -6.35772,0 -11.88069,4.744291 -12.84849,11.035411 l -0.38469,2.50127 -2.51859,0.22376 c -4.37688,0.3887 -7.80599,4.13594 -7.80599,8.52878 0,1.56547 0.44062,3.10962 1.27261,4.46476 l 2.32555,3.78053 -4.31299,1.04628 c -4.3982,1.06761 -7.47053,4.96794 -7.47053,9.48326 0,2.48399 0.94512,4.85614 2.66235,6.68114 l 2.81673,2.99381 -3.5768,2.02737 c -2.73156,1.54683 -4.43016,4.34627 -4.43016,7.30548 0,3.1003 1.73052,5.90639 4.51532,7.32277 l 3.53824,1.8024 -2.48527,3.0963 c -1.28194,1.59475 -1.95949,3.51163 -1.95949,5.543 0,4.0401 2.74221,7.56634 6.6665,8.57538 l 2.42539,0.62299 -10e-4,2.67564 c 0.0706,7.10047 5.91306,12.88173 13.02153,12.88173 h 8.5501 c 7.179,0 13.02018,-5.84118 13.02018,-13.0215 V 112.6485 c 0,-7.179 -5.84118,-13.018857 -13.02018,-13.018857 z m 0,103.923131 h -8.5501 c -7.83527,0 -14.27419,-6.37233 -14.35271,-14.20623 l 0.001,-1.65068 -1.42434,-0.36602 c -4.51397,-1.15945 -7.66751,-5.21687 -7.66751,-9.86395 0,-2.33755 0.77876,-4.54332 2.25367,-6.37633 l 1.4603,-1.81972 -2.07929,-1.0596 c -3.23471,-1.64532 -5.24344,-4.90534 -5.24344,-8.50882 0,-3.43711 1.95681,-6.68118 5.10503,-8.46361 l 2.10193,-1.19138 -1.65599,-1.7598 c -1.94885,-2.07265 -3.02309,-4.76961 -3.02309,-7.59301 0,-5.13167 3.49031,-9.56311 8.48749,-10.7758 l 2.53456,-0.61503 -1.36575,-2.22306 c -0.96244,-1.56411 -1.47094,-3.34922 -1.47094,-5.16094 0,-5.07575 3.96157,-9.4047 9.02,-9.85464 l 1.47894,-0.13169 0.22641,-1.46963 c 1.06625,-6.93539 7.15503,-12.164218 14.16363,-12.164218 7.91247,0 14.35135,6.437528 14.35135,14.349998 v 76.55159 c 0,7.91515 -6.43888,14.35268 -14.35135,14.35268"
       style="fill:#2e6096;fill-opacity:1;fill-rule:nonzero;stroke:none;stroke-width:0.13311702"
       id="path76"
       inkscape:connector-curvature="0" />
    <path
       d="m 141.51422,123.16597 c -0.36753,0 -0.66559,-0.29696 -0.66559,-0.66559 0,-4.54328 -3.69661,-8.23996 -8.23993,-8.23996 h -8.6659 c -0.36866,0 -0.66559,-0.2981 -0.66559,-0.66559 0,-0.36866 0.29696,-0.66555 0.66559,-0.66555 h 8.6659 c 5.27676,0 9.57111,4.29299 9.57111,9.5711 0,0.36866 -0.2981,0.66559 -0.66559,0.66559"
       style="fill:#1f622f;fill-opacity:1;fill-rule:nonzero;stroke:none;stroke-width:0.13311702"
       id="path78"
       inkscape:connector-curvature="0" />
    <path
       d="m 138.93178,203.84151 h -8.5501 c -8.34781,0 -14.64153,-6.83686 -14.64153,-15.90215 0,-0.70819 0.57371,-1.28057 1.2819,-1.28057 0.70687,0 1.28194,0.57238 1.28194,1.28057 0,7.60498 5.19151,13.33967 12.07769,13.33967 h 8.5501 c 6.66114,0 12.07906,-5.4192 12.07906,-12.07905 v -76.55159 c 0,-6.65986 -5.41792,-12.0777 -12.07906,-12.0777 -6.65985,0 -12.07905,5.41784 -12.07905,12.0777 0,0.70819 -0.57371,1.28189 -1.2819,1.28189 -0.70691,0 -1.28062,-0.5737 -1.28062,-1.28189 0,-8.0722 6.56801,-14.640213 14.64157,-14.640213 8.07356,0 14.64289,6.568013 14.64289,14.640213 v 76.55159 c 0,8.07356 -6.56933,14.64153 -14.64289,14.64153"
       style="fill:#1f622f;fill-opacity:1;fill-rule:nonzero;stroke:none;stroke-width:0.13311702"
       id="path80"
       inkscape:connector-curvature="0" />
    <path
       d="m 123.9428,132.10477 c -5.61885,0 -10.1901,-4.56992 -10.1901,-10.18613 0,-5.61753 4.57125,-10.18742 10.1901,-10.18742 h 1.8636 c 0.70819,0 1.28198,0.57371 1.28198,1.28058 0,0.70819 -0.57379,1.2819 -1.28198,1.2819 h -1.8636 c -4.20515,0 -7.62758,3.42111 -7.62758,7.62494 0,4.20386 3.42239,7.62362 7.62758,7.62362 0.70687,0 1.28193,0.57374 1.28193,1.28193 0,0.70683 -0.57506,1.28058 -1.28193,1.28058"
       style="fill:#1f622f;fill-opacity:1;fill-rule:nonzero;stroke:none;stroke-width:0.13311702"
       id="path82"
       inkscape:connector-curvature="0" />
    <path
       d="m 116.95813,152.13622 h -0.16528 c -0.0302,0 -0.0573,0 -0.0864,-0.003 -6.19259,-0.1332 -11.18981,-5.21419 -11.18981,-11.44007 0,-6.3084 5.13298,-11.44007 11.44142,-11.44007 h 4.33428 c 0.73479,0 1.33117,0.59503 1.33117,1.33118 0,0.73479 -0.59638,1.33118 -1.33117,1.33118 h -4.33428 c -4.84149,0 -8.77907,3.93758 -8.77907,8.77771 0,4.84145 3.93758,8.78039 8.77907,8.78039 0.73612,0 1.33114,0.59638 1.33114,1.33118 0,0.73615 -0.59502,1.33118 -1.33114,1.33118"
       style="fill:#1f622f;fill-opacity:1;fill-rule:nonzero;stroke:none;stroke-width:0.13311702"
       id="path84"
       inkscape:connector-curvature="0" />
    <path
       d="m 132.30521,188.00325 h -15.16468 c -5.81189,0 -10.53886,-4.72697 -10.53886,-10.53751 0,-5.8119 4.72693,-10.54023 10.53886,-10.54023 0.73612,0 1.33118,0.59639 1.33118,1.33118 0,0.73612 -0.5951,1.33118 -1.33118,1.33118 -4.34227,0 -7.87654,3.53424 -7.87654,7.87787 0,4.34227 3.53427,7.87519 7.87654,7.87519 h 15.16468 c 0.73611,0 1.33114,0.59635 1.33114,1.33118 0,0.73611 -0.59503,1.33114 -1.33114,1.33114"
       style="fill:#1f622f;fill-opacity:1;fill-rule:nonzero;stroke:none;stroke-width:0.13311702"
       id="path86"
       inkscape:connector-curvature="0" />
    <path
       d="m 121.7623,169.58787 h -8.88287 c -5.45248,0 -9.88928,-4.43548 -9.88928,-9.8866 0,-5.38328 4.81485,-10.10625 10.30458,-10.10625 h 4.38759 c 0.73479,0 1.33118,0.59635 1.33118,1.33114 0,0.73484 -0.59643,1.33118 -1.33118,1.33118 h -4.38759 c -4.07199,0 -7.64219,3.47836 -7.64219,7.44393 0,3.98418 3.24135,7.22424 7.22689,7.22424 h 8.88287 c 0.73615,0 1.33118,0.59639 1.33118,1.33118 0,0.73612 -0.59503,1.33118 -1.33118,1.33118"
       style="fill:#1f622f;fill-opacity:1;fill-rule:nonzero;stroke:none;stroke-width:0.13311702"
       id="path88"
       inkscape:connector-curvature="0" />
    <path
       d="m 136.45575,178.18853 h -18.77079 c -0.36866,0 -0.66559,-0.29696 -0.66559,-0.66559 0,-0.36753 0.29697,-0.66555 0.66559,-0.66555 h 18.77079 c 2.81949,0 5.11303,-2.2923 5.11303,-5.1117 v -17.9322 c 0,-2.81808 -2.29358,-5.11303 -5.11303,-5.11303 -0.36752,0 -0.66555,-0.29696 -0.66555,-0.66558 0,-0.36753 0.2981,-0.66559 0.66555,-0.66559 3.55292,0 6.44425,2.89132 6.44425,6.4442 v 17.9322 c 0,3.55287 -2.89129,6.44284 -6.44425,6.44284"
       style="fill:#1f622f;fill-opacity:1;fill-rule:nonzero;stroke:none;stroke-width:0.13311702"
       id="path90"
       inkscape:connector-curvature="0" />
    <path
       d="m 136.63948,194.55926 c -0.36753,0 -0.66559,-0.2981 -0.66559,-0.66555 0,-0.36753 0.2981,-0.66559 0.66559,-0.66559 2.71824,0 4.9293,-2.21242 4.9293,-4.93202 v -19.13557 c 0,-0.36753 0.2981,-0.66555 0.66559,-0.66555 0.36753,0 0.66559,0.2981 0.66559,0.66555 v 19.13557 c 0,3.45307 -2.80744,6.26316 -6.26048,6.26316"
       style="fill:#1f622f;fill-opacity:1;fill-rule:nonzero;stroke:none;stroke-width:0.13311702"
       id="path92"
       inkscape:connector-curvature="0" />
    <path
       d="m 128.27439,141.84228 h -11.79412 c -0.36753,0 -0.66559,-0.2981 -0.66559,-0.66559 0,-0.36753 0.29809,-0.66559 0.66559,-0.66559 h 11.79412 c 2.02205,0 3.66876,-1.64531 3.66876,-3.66868 v -11.55459 c 0,-2.02201 -1.64671,-3.66737 -3.66876,-3.66737 h -3.12826 c -0.36753,0 -0.66559,-0.29809 -0.66559,-0.66559 0,-0.36866 0.2981,-0.66558 0.66559,-0.66558 h 3.12826 c 2.75684,0 4.99986,2.24302 4.99986,4.99854 v 11.55459 c 0,2.75684 -2.24302,4.99986 -4.99986,4.99986"
       style="fill:#1f622f;fill-opacity:1;fill-rule:nonzero;stroke:none;stroke-width:0.13311702"
       id="path94"
       inkscape:connector-curvature="0" />
    <path
       d="m 142.14788,136.15951 c -0.36866,0 -0.66559,-0.29697 -0.66559,-0.66559 0,-2.02205 -1.64663,-3.66736 -3.66868,-3.66736 h -4.45944 c -0.36752,0 -0.66559,-0.2981 -0.66559,-0.66559 0,-0.36866 0.2981,-0.66559 0.66559,-0.66559 h 4.45944 c 2.75681,0 4.99986,2.24302 4.99986,4.99854 0,0.36866 -0.29809,0.66559 -0.66559,0.66559"
       style="fill:#1f622f;fill-opacity:1;fill-rule:nonzero;stroke:none;stroke-width:0.13311702"
       id="path96"
       inkscape:connector-curvature="0" />
    <path
       d="m 137.90278,160.85804 h -21.42251 c -0.36753,0 -0.66559,-0.2981 -0.66559,-0.66559 0,-0.36866 0.29809,-0.66559 0.66559,-0.66559 h 21.42251 c 2.02337,0 3.66872,-1.64663 3.66872,-3.66868 v -1.44434 c 0,-0.36753 0.2981,-0.66559 0.66559,-0.66559 0.36753,0 0.66559,0.2981 0.66559,0.66559 v 1.44434 c 0,2.75684 -2.24302,4.99986 -4.9999,4.99986"
       style="fill:#1f622f;fill-opacity:1;fill-rule:nonzero;stroke:none;stroke-width:0.13311702"
       id="path98"
       inkscape:connector-curvature="0" />
    <path
       d="m 133.81211,177.5589 c -0.36753,0 -0.66559,-0.29809 -0.66559,-0.66559 v -4.45543 c 0,-2.02069 -1.64538,-3.66469 -3.66876,-3.66469 -0.36752,0 -0.66558,-0.29809 -0.66558,-0.66559 0,-0.36866 0.29809,-0.66559 0.66558,-0.66559 2.75685,0 4.99991,2.2417 4.99991,4.99587 v 4.45543 c 0,0.36753 -0.2981,0.66559 -0.66556,0.66559"
       style="fill:#1f622f;fill-opacity:1;fill-rule:nonzero;stroke:none;stroke-width:0.13311702"
       id="path100"
       inkscape:connector-curvature="0" />
    <path
       d="m 129.96102,160.46667 c -0.36753,0 -0.66559,-0.29697 -0.66559,-0.66559 v -4.4514 c 0,-2.02341 -1.64531,-3.66872 -3.66868,-3.66872 -0.36866,0 -0.66559,-0.29697 -0.66559,-0.66559 0,-0.36753 0.29697,-0.66559 0.66559,-0.66559 2.75681,0 4.99986,2.24302 4.99986,4.9999 v 4.4514 c 0,0.36866 -0.29696,0.66559 -0.66559,0.66559"
       style="fill:#1f622f;fill-opacity:1;fill-rule:nonzero;stroke:none;stroke-width:0.13311702"
       id="path102"
       inkscape:connector-curvature="0" />
    <path
       d="m 124.18505,200.31527 c -0.36866,0 -0.66559,-0.2981 -0.66559,-0.66559 0,-2.75688 2.24174,-4.9999 4.99854,-4.9999 0.36866,0 0.66559,0.2981 0.66559,0.66559 0,0.36753 -0.29697,0.66559 -0.66559,0.66559 -2.02205,0 -3.66736,1.64531 -3.66736,3.66872 0,0.36753 -0.2981,0.66559 -0.66559,0.66559"
       style="fill:#1f622f;fill-opacity:1;fill-rule:nonzero;stroke:none;stroke-width:0.13311702"
       id="path104"
       inkscape:connector-curvature="0" />
    <path
       d="m 179.0532,202.88707 c 7.50114,0 13.61257,-6.06347 13.68709,-13.54732 v -2.15914 l 1.92356,-0.49522 c 4.22111,-1.08489 7.167,-4.87606 7.167,-9.21965 0,-2.18446 -0.72815,-4.24511 -2.10589,-5.95966 l -1.97413,-2.45867 2.81009,-1.43103 c 3.00845,-1.53083 4.87873,-4.56324 4.87873,-7.91511 0,-3.1975 -1.82768,-6.21923 -4.76825,-7.88455 l -2.83804,-1.60939 2.23502,-2.37611 c 1.83304,-1.94884 2.8434,-4.48339 2.8434,-7.13775 0,-4.82414 -3.28135,-8.9894 -7.97903,-10.13021 l -3.42379,-0.83064 1.845,-3.00177 c 0.89724,-1.45898 1.37246,-3.12294 1.37246,-4.81221 0,-4.73361 -3.69533,-8.77239 -8.41302,-9.19173 l -1.9994,-0.17848 -0.30489,-1.98477 c -1.01701,-6.61325 -6.82359,-11.599833 -13.50604,-11.599833 -7.54642,0 -13.68577,6.139393 -13.68577,13.684443 v 76.5516 c 0,7.54773 6.13935,13.68708 13.68577,13.68708 h 8.5501"
       style="fill:#9cdee4;fill-opacity:1;fill-rule:nonzero;stroke:none;stroke-width:0.13311702"
       id="path106"
       inkscape:connector-curvature="0" />
    <path
       d="m 170.5031,99.629529 c -7.17899,0 -13.02017,5.839861 -13.02017,13.018861 v 76.55159 c 0,7.18032 5.84118,13.0215 13.02017,13.0215 h 8.5501 c 7.10848,0 12.95098,-5.78126 13.0215,-12.88837 v -2.669 l 2.42407,-0.62299 c 3.92429,-1.00904 6.66649,-4.53528 6.66649,-8.57538 0,-2.03137 -0.67755,-3.94826 -1.95948,-5.54301 l -2.48527,-3.09629 3.53823,-1.8024 c 2.78481,-1.41639 4.51532,-4.22247 4.51532,-7.32277 0,-2.95921 -1.69855,-5.75865 -4.43011,-7.30548 l -3.57684,-2.02737 2.81672,-2.99381 c 1.71724,-1.82501 2.66236,-4.19715 2.66236,-6.68114 0,-4.51532 -3.07234,-8.41565 -7.47053,-9.48326 l -4.31299,-1.04629 2.32554,-3.78053 c 0.832,-1.35513 1.27262,-2.89928 1.27262,-4.46475 0,-4.39284 -3.42911,-8.14008 -7.80599,-8.52878 l -2.51859,-0.22376 -0.3847,-2.50128 c -0.96776,-6.29111 -6.49077,-11.035404 -12.84845,-11.035404 z m 8.5501,103.923131 h -8.5501 c -7.91243,0 -14.35135,-6.43753 -14.35135,-14.35268 v -76.55159 c 0,-7.91247 6.43888,-14.350001 14.35135,-14.350001 7.00867,0 13.09738,5.228831 14.16367,12.164221 l 0.2264,1.46962 1.47891,0.13169 c 5.05846,0.44994 9.02004,4.7789 9.02004,9.85464 0,1.81172 -0.50854,3.59684 -1.47091,5.16095 l -1.36582,2.22306 2.53459,0.61503 c 4.99719,1.21269 8.48754,5.64413 8.48754,10.77579 0,2.82341 -1.07429,5.52037 -3.02309,7.59302 l -1.65603,1.7598 2.10193,1.19137 c 3.14822,1.78244 5.10506,5.0265 5.10506,8.46362 0,3.60348 -2.00873,6.8635 -5.24347,8.50881 l -2.07929,1.05961 1.4603,1.81972 c 1.47495,1.833 2.25366,4.03878 2.25366,6.37632 0,4.64709 -3.15357,8.70451 -7.66757,9.86396 l -1.42299,0.36602 v 1.64267 c -0.0785,7.84191 -6.51745,14.21423 -14.35268,14.21423"
       style="fill:#2e6096;fill-opacity:1;fill-rule:nonzero;stroke:none;stroke-width:0.13311702"
       id="path108"
       inkscape:connector-curvature="0" />
    <path
       d="m 167.92067,123.16597 c -0.36753,0 -0.66559,-0.29696 -0.66559,-0.66559 0,-5.27811 4.29431,-9.5711 9.57106,-9.5711 h 8.66595 c 0.36866,0 0.66559,0.29696 0.66559,0.66555 0,0.36753 -0.29697,0.66559 -0.66559,0.66559 h -8.66595 c -4.54328,0 -8.23992,3.69668 -8.23992,8.23996 0,0.36866 -0.2981,0.66559 -0.66555,0.66559"
       style="fill:#1f622f;fill-opacity:1;fill-rule:nonzero;stroke:none;stroke-width:0.13311702"
       id="path110"
       inkscape:connector-curvature="0" />
    <path
       d="m 179.0532,203.84151 h -8.5501 c -8.07355,0 -14.64288,-6.56797 -14.64288,-14.64153 v -76.55159 c 0,-8.0722 6.56933,-14.640213 14.64288,-14.640213 8.07356,0 14.64153,6.568013 14.64153,14.640213 0,0.70819 -0.5737,1.28189 -1.28057,1.28189 -0.70819,0 -1.2819,-0.5737 -1.2819,-1.28189 0,-6.65986 -5.4192,-12.0777 -12.07906,-12.0777 -6.66117,0 -12.07905,5.41784 -12.07905,12.0777 v 76.55159 c 0,6.65985 5.41788,12.07905 12.07905,12.07905 h 8.5501 c 6.88615,0 12.0777,-5.73469 12.0777,-13.33967 0,-0.70819 0.57506,-1.28057 1.28193,-1.28057 0.7082,0 1.2819,0.57238 1.2819,1.28057 0,9.06529 -6.29376,15.90215 -14.64153,15.90215"
       style="fill:#1f622f;fill-opacity:1;fill-rule:nonzero;stroke:none;stroke-width:0.13311702"
       id="path112"
       inkscape:connector-curvature="0" />
    <path
       d="m 185.49209,132.10477 c -0.70687,0 -1.28194,-0.57375 -1.28194,-1.28058 0,-0.70819 0.57507,-1.28193 1.28194,-1.28193 4.20515,0 7.62758,-3.41976 7.62758,-7.62362 0,-4.20383 -3.42243,-7.62494 -7.62758,-7.62494 h -1.86364 c -0.70688,0 -1.28194,-0.57371 -1.28194,-1.2819 0,-0.70687 0.57506,-1.28058 1.28194,-1.28058 h 1.86364 c 5.61885,0 10.19009,4.56989 10.19009,10.18742 0,5.61621 -4.57124,10.18613 -10.19009,10.18613"
       style="fill:#1f622f;fill-opacity:1;fill-rule:nonzero;stroke:none;stroke-width:0.13311702"
       id="path114"
       inkscape:connector-curvature="0" />
    <path
       d="m 192.6418,152.13622 h -0.16527 c -0.73479,0 -1.33118,-0.59503 -1.33118,-1.33118 0,-0.7348 0.59639,-1.33118 1.33118,-1.33118 4.84149,0 8.77907,-3.93894 8.77907,-8.78039 0,-4.84013 -3.93758,-8.77771 -8.77907,-8.77771 h -4.33427 c -0.7348,0 -1.33118,-0.59639 -1.33118,-1.33118 0,-0.73615 0.59638,-1.33118 1.33118,-1.33118 h 4.33427 c 6.30844,0 11.44143,5.13167 11.44143,11.44007 0,6.22588 -4.99723,11.30698 -11.18982,11.44007 -0.0302,0.003 -0.0574,0.003 -0.0864,0.003"
       style="fill:#1f622f;fill-opacity:1;fill-rule:nonzero;stroke:none;stroke-width:0.13311702"
       id="path116"
       inkscape:connector-curvature="0" />
    <path
       d="m 192.29435,188.00325 h -15.16467 c -0.73612,0 -1.33118,-0.59503 -1.33118,-1.33114 0,-0.73483 0.59506,-1.33118 1.33118,-1.33118 h 15.16467 c 4.34227,0 7.87787,-3.53292 7.87787,-7.87519 0,-4.34363 -3.5356,-7.87787 -7.87787,-7.87787 -0.73611,0 -1.33118,-0.59506 -1.33118,-1.33118 0,-0.73479 0.59507,-1.33118 1.33118,-1.33118 5.8119,0 10.54023,4.72833 10.54023,10.54023 0,5.81054 -4.72833,10.53751 -10.54023,10.53751"
       style="fill:#1f622f;fill-opacity:1;fill-rule:nonzero;stroke:none;stroke-width:0.13311702"
       id="path118"
       inkscape:connector-curvature="0" />
    <path
       d="m 196.55542,169.58787 h -8.88284 c -0.73615,0 -1.33118,-0.59506 -1.33118,-1.33118 0,-0.73479 0.59503,-1.33118 1.33118,-1.33118 h 8.88284 c 3.98554,0 7.22692,-3.24006 7.22692,-7.22424 0,-3.96557 -3.57016,-7.44393 -7.64222,-7.44393 h -4.38755 c -0.7348,0 -1.33118,-0.59634 -1.33118,-1.33118 0,-0.73479 0.59638,-1.33114 1.33118,-1.33114 h 4.38755 c 5.48972,0 10.30458,4.72297 10.30458,10.10625 0,5.45112 -4.4368,9.8866 -9.88928,9.8866"
       style="fill:#1f622f;fill-opacity:1;fill-rule:nonzero;stroke:none;stroke-width:0.13311702"
       id="path120"
       inkscape:connector-curvature="0" />
    <path
       d="m 191.74992,178.18853 h -18.77079 c -3.55292,0 -6.4442,-2.88997 -6.4442,-6.44284 v -17.9322 c 0,-3.55288 2.89125,-6.4442 6.4442,-6.4442 0.36753,0 0.66559,0.29809 0.66559,0.66559 0,0.36866 -0.2981,0.66558 -0.66559,0.66558 -2.81944,0 -5.11303,2.29495 -5.11303,5.11303 v 17.9322 c 0,2.8194 2.29359,5.1117 5.11303,5.1117 h 18.77079 c 0.36867,0 0.66556,0.2981 0.66556,0.66555 0,0.36866 -0.29697,0.66559 -0.66556,0.66559"
       style="fill:#1f622f;fill-opacity:1;fill-rule:nonzero;stroke:none;stroke-width:0.13311702"
       id="path122"
       inkscape:connector-curvature="0" />
    <path
       d="m 172.7954,194.55926 c -3.45303,0 -6.26047,-2.81009 -6.26047,-6.26316 v -19.13557 c 0,-0.36753 0.29809,-0.66555 0.66558,-0.66555 0.36753,0 0.66559,0.2981 0.66559,0.66555 v 19.13557 c 0,2.7196 2.21106,4.93202 4.9293,4.93202 0.36753,0 0.66559,0.2981 0.66559,0.66559 0,0.36753 -0.2981,0.66555 -0.66559,0.66555"
       style="fill:#1f622f;fill-opacity:1;fill-rule:nonzero;stroke:none;stroke-width:0.13311702"
       id="path124"
       inkscape:connector-curvature="0" />
    <path
       d="m 192.95462,141.84228 h -11.79416 c -2.75681,0 -4.99983,-2.24302 -4.99983,-4.99986 v -11.55459 c 0,-2.75552 2.24302,-4.99854 4.99983,-4.99854 h 3.12825 c 0.36753,0 0.66563,0.29696 0.66563,0.66558 0,0.36753 -0.2981,0.66559 -0.66563,0.66559 h -3.12825 c -2.02205,0 -3.66873,1.64536 -3.66873,3.66737 v 11.55459 c 0,2.02337 1.64668,3.66868 3.66873,3.66868 h 11.79416 c 0.36753,0 0.66559,0.2981 0.66559,0.66559 0,0.36753 -0.2981,0.66559 -0.66559,0.66559"
       style="fill:#1f622f;fill-opacity:1;fill-rule:nonzero;stroke:none;stroke-width:0.13311702"
       id="path126"
       inkscape:connector-curvature="0" />
    <path
       d="m 167.287,136.15951 c -0.36753,0 -0.66559,-0.29697 -0.66559,-0.66559 0,-2.75552 2.24302,-4.99854 4.99986,-4.99854 h 4.45944 c 0.36753,0 0.66559,0.29696 0.66559,0.66559 0,0.36753 -0.2981,0.66559 -0.66559,0.66559 h -4.45944 c -2.02205,0 -3.66868,1.64531 -3.66868,3.66736 0,0.36866 -0.29697,0.66559 -0.66559,0.66559"
       style="fill:#1f622f;fill-opacity:1;fill-rule:nonzero;stroke:none;stroke-width:0.13311702"
       id="path128"
       inkscape:connector-curvature="0" />
    <path
       d="m 192.95462,160.85804 h -21.42251 c -2.75688,0 -4.9999,-2.24302 -4.9999,-4.99986 v -1.44434 c 0,-0.36753 0.2981,-0.66559 0.66559,-0.66559 0.36753,0 0.66559,0.2981 0.66559,0.66559 v 1.44434 c 0,2.02205 1.64535,3.66868 3.66872,3.66868 h 21.42251 c 0.36753,0 0.66559,0.29697 0.66559,0.66559 0,0.36753 -0.2981,0.66559 -0.66559,0.66559"
       style="fill:#1f622f;fill-opacity:1;fill-rule:nonzero;stroke:none;stroke-width:0.13311702"
       id="path130"
       inkscape:connector-curvature="0" />
    <path
       d="m 175.62277,177.5589 c -0.36753,0 -0.66559,-0.29809 -0.66559,-0.66559 v -4.45543 c 0,-2.75417 2.2431,-4.99587 4.9999,-4.99587 0.36753,0 0.66559,0.29697 0.66559,0.66559 0,0.36753 -0.2981,0.66559 -0.66559,0.66559 -2.02337,0 -3.66872,1.644 -3.66872,3.66469 v 4.45543 c 0,0.36753 -0.2981,0.66559 -0.66559,0.66559"
       style="fill:#1f622f;fill-opacity:1;fill-rule:nonzero;stroke:none;stroke-width:0.13311702"
       id="path132"
       inkscape:connector-curvature="0" />
    <path
       d="m 179.47386,160.46667 c -0.36866,0 -0.66559,-0.29697 -0.66559,-0.66559 v -4.4514 c 0,-2.75688 2.24302,-4.9999 5.00122,-4.9999 0.36753,0 0.66559,0.2981 0.66559,0.66559 0,0.36866 -0.2981,0.66559 -0.66559,0.66559 -2.02473,0 -3.67004,1.64531 -3.67004,3.66872 v 4.4514 c 0,0.36866 -0.2981,0.66559 -0.66559,0.66559"
       style="fill:#1f622f;fill-opacity:1;fill-rule:nonzero;stroke:none;stroke-width:0.13311702"
       id="path134"
       inkscape:connector-curvature="0" />
    <path
       d="m 185.25116,200.31527 c -0.36866,0 -0.66559,-0.2981 -0.66559,-0.66559 0,-2.02341 -1.64664,-3.66872 -3.66872,-3.66872 -0.36867,0 -0.66559,-0.2981 -0.66559,-0.66559 0,-0.36753 0.29696,-0.66559 0.66559,-0.66559 2.75684,0 4.99986,2.24302 4.99986,4.9999 0,0.36753 -0.2981,0.66559 -0.66555,0.66559"
       style="fill:#1f622f;fill-opacity:1;fill-rule:nonzero;stroke:none;stroke-width:0.13311702"
       id="path136"
       inkscape:connector-curvature="0" />
  </g>
</svg>
