<?xml version="1.0" encoding="UTF-8" standalone="no"?>
<svg
   xmlns:dc="http://purl.org/dc/elements/1.1/"
   xmlns:cc="http://creativecommons.org/ns#"
   xmlns:rdf="http://www.w3.org/1999/02/22-rdf-syntax-ns#"
   xmlns:svg="http://www.w3.org/2000/svg"
   xmlns="http://www.w3.org/2000/svg"
   xmlns:sodipodi="http://sodipodi.sourceforge.net/DTD/sodipodi-0.dtd"
   xmlns:inkscape="http://www.inkscape.org/namespaces/inkscape"
   version="1.1"
   id="Capa_1"
   x="0px"
   y="0px"
   width="550"
   height="550"
   viewBox="0 0 550.00002 550.00001"
   xml:space="preserve"
   sodipodi:docname="expert_plus_dark.svg"
   inkscape:version="1.0.1 (3bc2e813f5, 2020-09-07)"><metadata
   id="metadata41"><rdf:RDF><cc:Work
       rdf:about=""><dc:format>image/svg+xml</dc:format><dc:type
         rdf:resource="http://purl.org/dc/dcmitype/StillImage" /><dc:title></dc:title></cc:Work></rdf:RDF></metadata><defs
   id="defs39" /><sodipodi:namedview
   pagecolor="#ffffff"
   bordercolor="#666666"
   borderopacity="1"
   objecttolerance="10"
   gridtolerance="10"
   guidetolerance="10"
   inkscape:pageopacity="0"
   inkscape:pageshadow="2"
   inkscape:window-width="1920"
   inkscape:window-height="1166"
   id="namedview37"
   showgrid="false"
   fit-margin-top="0"
   fit-margin-left="0"
   fit-margin-right="0"
   fit-margin-bottom="0"
   inkscape:zoom="1.0407613"
   inkscape:cx="413.6421"
   inkscape:cy="244.5143"
   inkscape:window-x="-11"
   inkscape:window-y="-11"
   inkscape:window-maximized="1"
   inkscape:current-layer="Capa_1" />
<g
   id="g4"
   transform="translate(-73.897254,19.200893)"
   style="fill:#cccccc;fill-opacity:1">
	<path
   d="m 410.935,358.861 c -3.281,-2.523 -7.848,-4.684 -13.277,-6.562 6.446,-58.607 21.066,-220.488 -6.621,-277.507 C 358.002,6.761 294.328,-13.125 257.299,8.104 c -1.186,-0.035 -2.307,-0.21 -3.491,-0.21 -1.95,0 -3.848,0.245 -5.774,0.339 -59.629,-18.964 -134.591,8.641 -145.818,70.658 -11.589,64.025 2.727,198.219 2.044,277.25 -0.023,2.393 0.082,4.682 0.263,6.854 -3.299,2.359 -6.025,4.928 -7.882,7.789 -21.247,32.591 -21.726,130.654 -21.737,134.824 l -0.012,5.99 h 361.604 l 0.117,-5.862 c 0.245,-12.822 1.74,-125.892 -25.678,-146.875 z M 297.119,287.643 v 60.814 l 23.179,-0.713 -62.029,137.708 -61.591,-137.054 22.707,1.342 V 291.472 C 175.526,275.194 142.76,228.649 138.159,172.377 l 8.991,-3.141 v 20.493 h 95.157 v -17.703 h 22.98 v 17.703 h 95.156 V 165.09 l 9.307,0.748 c -2.324,55.233 -31.715,102.058 -72.631,121.805 z M 156.765,180.119 v -42.691 h 75.942 v 42.691 z m 118.155,0 v -42.691 h 75.948 v 42.691 z m 85.535,-27.02 v -25.293 h -95.156 v 17.703 h -22.98 v -17.703 h -95.157 v 28.772 l -9.563,3.328 c 0,-0.385 -0.035,-0.759 -0.035,-1.145 0,-8.104 0.701,-16.009 1.816,-23.728 3.241,-7.754 7.141,-14.877 11.205,-23.448 8.798,-18.613 19.168,-25.211 19.168,-25.211 0,0 52.874,23.681 111.545,18.637 -12.085,-8.945 -12.085,-26.881 -12.202,-38.395 29.298,15.928 75.703,26.145 87.986,28.667 7.638,17.667 12.156,37.519 12.764,58.572 z"
   id="path2"
   style="fill:#cccccc;fill-opacity:1" />
</g>
<g
   id="g6"
   transform="translate(-17.1347,-25)"
   style="fill:#cccccc;fill-opacity:1">
</g>
<g
   id="g8"
   transform="translate(-17.1347,-25)"
   style="fill:#cccccc;fill-opacity:1">
</g>
<g
   id="g10"
   transform="translate(-17.1347,-25)"
   style="fill:#cccccc;fill-opacity:1">
</g>
<g
   id="g12"
   transform="translate(-17.1347,-25)"
   style="fill:#cccccc;fill-opacity:1">
</g>
<g
   id="g14"
   transform="translate(-17.1347,-25)"
   style="fill:#cccccc;fill-opacity:1">
</g>
<g
   id="g16"
   transform="translate(-17.1347,-25)"
   style="fill:#cccccc;fill-opacity:1">
</g>
<g
   id="g18"
   transform="translate(-17.1347,-25)"
   style="fill:#cccccc;fill-opacity:1">
</g>
<g
   id="g20"
   transform="translate(-17.1347,-25)"
   style="fill:#cccccc;fill-opacity:1">
</g>
<g
   id="g22"
   transform="translate(-17.1347,-25)"
   style="fill:#cccccc;fill-opacity:1">
</g>
<g
   id="g24"
   transform="translate(-17.1347,-25)"
   style="fill:#cccccc;fill-opacity:1">
</g>
<g
   id="g26"
   transform="translate(-17.1347,-25)"
   style="fill:#cccccc;fill-opacity:1">
</g>
<g
   id="g28"
   transform="translate(-17.1347,-25)"
   style="fill:#cccccc;fill-opacity:1">
</g>
<g
   id="g30"
   transform="translate(-17.1347,-25)"
   style="fill:#cccccc;fill-opacity:1">
</g>
<g
   id="g32"
   transform="translate(-17.1347,-25)"
   style="fill:#cccccc;fill-opacity:1">
</g>
<g
   id="g34"
   transform="translate(-17.1347,-25)"
   style="fill:#cccccc;fill-opacity:1">
</g>
<g
   id="g876"
   transform="matrix(10.526871,0,0,10.526871,-4571.7694,-980.22121)"
   style="fill:#cccccc;fill-opacity:1"><path
     fill="#000000"
     d="m 483.66593,97.912103 c -1.794,-1.794 -4.18,-2.782 -6.718,-2.782 -2.538,0 -4.923,0.988 -6.718,2.782 -1.795,1.794 -2.782,4.179997 -2.782,6.716997 0,2.537 0.988,4.923 2.782,6.718 1.794,1.795 4.18,2.782 6.718,2.782 2.538,0 4.923,-0.988 6.718,-2.782 1.795,-1.794 2.782,-4.18 2.782,-6.718 0,-2.538 -0.988,-4.922997 -2.782,-6.716997 z m -6.718,15.217997 c -4.687,0 -8.5,-3.813 -8.5,-8.5 0,-4.686997 3.813,-8.499997 8.5,-8.499997 4.687,0 8.5,3.813 8.5,8.499997 0,4.687 -3.813,8.5 -8.5,8.5 z"
     id="path2-7"
     style="fill:#cccccc;fill-opacity:1" /><path
     fill="#000000"
     d="m 482.94793,104.1301 h -5.5 v -5.499997 c 0,-0.276 -0.224,-0.5 -0.5,-0.5 -0.276,0 -0.5,0.224 -0.5,0.5 v 5.499997 h -5.5 c -0.276,0 -0.5,0.224 -0.5,0.5 0,0.276 0.224,0.5 0.5,0.5 h 5.5 v 5.5 c 0,0.276 0.224,0.5 0.5,0.5 0.276,0 0.5,-0.224 0.5,-0.5 v -5.5 h 5.5 c 0.276,0 0.5,-0.224 0.5,-0.5 0,-0.276 -0.224,-0.5 -0.5,-0.5 z"
     id="path4"
     style="fill:#cccccc;fill-opacity:1" /></g></svg>
