<?xml version="1.0" encoding="UTF-8" standalone="no"?>
<svg
   xmlns:dc="http://purl.org/dc/elements/1.1/"
   xmlns:cc="http://creativecommons.org/ns#"
   xmlns:rdf="http://www.w3.org/1999/02/22-rdf-syntax-ns#"
   xmlns:svg="http://www.w3.org/2000/svg"
   xmlns="http://www.w3.org/2000/svg"
   xmlns:sodipodi="http://sodipodi.sourceforge.net/DTD/sodipodi-0.dtd"
   xmlns:inkscape="http://www.inkscape.org/namespaces/inkscape"
   width="500"
   height="500"
   viewBox="0 0 132.29167 132.29167"
   version="1.1"
   id="svg1346"
   inkscape:version="1.0.1 (3bc2e813f5, 2020-09-07)"
   sodipodi:docname="lab_desktop.svg"
   inkscape:export-filename="C:\Users\keega\Documents\cannlytics\assets\images\illustrations\outline\lab_desktop.png"
   inkscape:export-xdpi="96"
   inkscape:export-ydpi="96">
  <defs
     id="defs1340" />
  <sodipodi:namedview
     id="base"
     pagecolor="#ffffff"
     bordercolor="#666666"
     borderopacity="1.0"
     inkscape:pageopacity="0"
     inkscape:pageshadow="2"
     inkscape:zoom="1.4"
     inkscape:cx="236.27509"
     inkscape:cy="245.73099"
     inkscape:document-units="mm"
     inkscape:current-layer="layer1"
     inkscape:document-rotation="0"
     showgrid="false"
     units="px"
     inkscape:window-width="1920"
     inkscape:window-height="1120"
     inkscape:window-x="-11"
     inkscape:window-y="-11"
     inkscape:window-maximized="1" />
  <metadata
     id="metadata1343">
    <rdf:RDF>
      <cc:Work
         rdf:about="">
        <dc:format>image/svg+xml</dc:format>
        <dc:type
           rdf:resource="http://purl.org/dc/dcmitype/StillImage" />
        <dc:title></dc:title>
      </cc:Work>
    </rdf:RDF>
  </metadata>
  <g
     inkscape:label="Layer 1"
     inkscape:groupmode="layer"
     id="layer1"
     transform="translate(1.6666668e-7,-28.612678)">
    <path
       d="M 5.4676104,95.728034 H 97.586879 V 28.612676 H 5.4676104 v 67.115358"
       style="fill:#e1e3e6;fill-opacity:1;fill-rule:nonzero;stroke:none;stroke-width:0.0346655"
       id="path16" />
    <path
       d="M 20.493793,95.728034 H 97.586879 V 28.612676 H 20.493793 v 67.115358"
       style="fill:#f6f6f4;fill-opacity:1;fill-rule:nonzero;stroke:none;stroke-width:0.0346655"
       id="path18" />
    <path
       d="m 89.446011,91.073138 h 3.147983 V 33.267572 h -3.147983 v 57.805566"
       style="fill:#e1e3e6;fill-opacity:1;fill-rule:nonzero;stroke:none;stroke-width:0.0346655"
       id="path20" />
    <path
       d="M 25.486955,91.073138 H 92.773214 V 33.267572 H 25.486955 Z"
       style="fill:none;stroke:#ffffff;stroke-width:1.03996;stroke-linecap:butt;stroke-linejoin:miter;stroke-miterlimit:10;stroke-dasharray:none;stroke-opacity:1"
       id="path22" />
    <path
       d="m 32.246398,70.259573 h -2.56768 V 55.005671 h 2.56768 v 15.253902"
       style="fill:#e1e3e6;fill-opacity:1;fill-rule:nonzero;stroke:none;stroke-width:0.0346655"
       id="path24" />
    <path
       d="m 35.818341,55.005671 h -3.918598 v 15.253902 h 3.918598 z m -1.039967,1.039967 V 69.219604 H 32.939711 V 56.045638 h 1.838663"
       style="fill:#ffffff;fill-opacity:1;fill-rule:nonzero;stroke:none;stroke-width:0.0346655"
       id="path26" />
    <path
       d="m 101.91592,157.22438 v 3.6472 H 68.049369 c -2.728181,0 -5.006406,-1.43266 -6.282446,-3.49565 l 2.537521,-5.95491 1.490969,-3.5004 1.276385,-2.99206 2.542028,-5.96975 h 23.320583 l -2.546879,5.96975 -1.27604,2.99206 -1.261481,2.9628 c -1.280894,3.00169 0.924183,6.34096 4.189682,6.34096 h 9.876229"
       style="fill:#e1e3e6;fill-opacity:1;fill-rule:nonzero;stroke:none;stroke-width:0.0346655"
       id="path108" />
    <path
       d="m 90.38753,144.92856 -1.27604,2.99206 H 64.534277 v -2.99206 H 90.38753"
       style="fill:#d2d4d7;fill-opacity:1;fill-rule:nonzero;stroke:none;stroke-width:0.0346655"
       id="path110" />
    <path
       d="m 84.877432,157.2206 v 3.65209 H 68.049369 c -2.728181,0 -5.006406,-1.43242 -6.282446,-3.49568 -1.207749,-1.941 -1.534992,-4.43938 -0.523104,-6.80558 l 4.947822,-11.61159 h 3.422185 l -5.309382,12.46228 c -1.173429,2.74763 0.84584,5.79848 3.832976,5.79848 h 16.740012"
       style="fill:#d2d4d7;fill-opacity:1;fill-rule:nonzero;stroke:none;stroke-width:0.0346655"
       id="path112" />
    <path
       d="M 101.91453,157.22264 H 76.171171 v 3.65099 h 25.743359 v -3.65099"
       style="fill:#f6f6f4;fill-opacity:1;fill-rule:nonzero;stroke:none;stroke-width:0.0346655"
       id="path114" />
    <path
       d="M 124.10155,144.92683 H 37.229923 c -1.849062,0 -3.472797,-1.49859 -3.627407,-3.34766 L 29.001699,86.444242 c -0.154608,-1.849063 1.21919,-3.347656 3.068253,-3.347656 h 86.871618 c 1.84907,0 3.4728,1.498593 3.62707,3.347656 l 4.6015,55.134928 c 0.15392,1.84907 -1.21988,3.34766 -3.06859,3.34766"
       style="fill:#d2d4d7;fill-opacity:1;fill-rule:nonzero;stroke:none;stroke-width:0.0346655"
       id="path116" />
    <path
       d="m 40.850399,144.7535 c -1.757894,0 -3.307791,-1.43064 -3.454426,-3.18888 L 32.794809,86.429683 c -0.07072,-0.847226 0.19274,-1.642801 0.741497,-2.239397 0.545983,-0.593476 1.311399,-0.920372 2.154119,-0.920372 h 83.251145 c 1.75824,0 3.30745,1.430302 3.45443,3.188541 l 4.60151,55.135275 c 0.0704,0.84723 -0.19309,1.64281 -0.74219,2.23975 -0.54598,0.59347 -1.3107,0.92002 -2.15377,0.92002 H 40.850399"
       style="fill:#f6f6f4;fill-opacity:1;fill-rule:nonzero;stroke:none;stroke-width:0.0346655"
       id="path118" />
    <path
       d="M 118.94157,83.096586 H 35.690425 c -1.848717,0 -3.222514,1.498593 -3.06825,3.347656 l 4.601163,55.134928 c 0.154261,1.84907 1.777999,3.34766 3.627061,3.34766 h 83.251151 c 1.84871,0 3.22251,-1.49859 3.06859,-3.34766 l -4.6015,-55.134928 c -0.15427,-1.849063 -1.778,-3.347656 -3.62707,-3.347656 z m 0,0.346657 c 1.67019,0 3.14244,1.359239 3.28179,3.029772 l 4.60117,55.134935 c 0.0665,0.79834 -0.18096,1.54747 -0.69643,2.10802 -0.51305,0.55707 -1.23271,0.8642 -2.02655,0.8642 H 40.850399 c -1.670188,0 -3.142436,-1.35923 -3.281792,-3.02977 L 32.96779,86.415472 c -0.06691,-0.798696 0.180609,-1.547473 0.696084,-2.108015 0.513052,-0.557423 1.23271,-0.864214 2.026551,-0.864214 h 83.251145"
       style="fill:#e1e3e6;fill-opacity:1;fill-rule:nonzero;stroke:none;stroke-width:0.0346655"
       id="path120" />
    <path
       d="M 126.6467,135.30852 H 36.699888 L 32.622175,86.444242 c -0.154264,-1.849063 1.219533,-3.347656 3.06825,-3.347656 h 83.251145 c 1.84907,0 3.4728,1.498593 3.62707,3.347656 l 4.07806,48.864278"
       style="fill:#273d47;fill-opacity:1;fill-rule:nonzero;stroke:none;stroke-width:0.0346655"
       id="path122" />
    <path
       d="M 121.45829,132.12829 H 41.35721 c -1.057647,0 -1.986684,-0.85762 -2.075081,-1.91492 L 35.775703,88.191736 c -0.0884,-1.057647 0.697472,-1.915275 1.755119,-1.915275 h 80.101088 c 1.05799,0 1.98703,0.857628 2.07508,1.915275 l 3.50712,42.021634 c 0.088,1.0573 -0.69782,1.91492 -1.75582,1.91492"
       style="fill:#e1e3e6;fill-opacity:1;fill-rule:nonzero;stroke:none;stroke-width:0.0346655"
       id="path124" />
    <path
       d="m 123.21445,130.21198 c 0.0884,1.05764 -0.69643,1.91527 -1.75407,1.91527 H 41.357904 c -1.057647,0 -1.988418,-0.85763 -2.076816,-1.91527 l -2.903589,-34.849665 -0.323431,-3.85343 h 83.929202 l 0.32343,3.85343 2.90775,34.849665"
       style="fill:#ffffff;fill-opacity:1;fill-rule:nonzero;stroke:none;stroke-width:0.0346655"
       id="path126" />
    <path
       d="M 120.3067,95.362315 H 36.377499 l -0.323431,-3.85343 h 83.929202 l 0.32343,3.85343"
       style="fill:#9ac0e9;fill-opacity:1;fill-rule:nonzero;stroke:none;stroke-width:0.0346655"
       id="path128" />
    <path
       d="m 80.539727,121.08349 c -0.350121,0 -0.650671,-0.2645 -0.688459,-0.62017 L 77.997006,102.9624 c -0.04055,-0.38063 0.235381,-0.72209 0.616009,-0.76265 0.38236,-0.0357 0.722429,0.23608 0.762642,0.61636 l 1.854262,17.50092 c 0.04055,0.38063 -0.235378,0.72208 -0.616354,0.76265 -0.02463,0.002 -0.04957,0.004 -0.07384,0.004"
       style="fill:#d4d6d3;fill-opacity:1;fill-rule:nonzero;stroke:none;stroke-width:0.0346655"
       id="path130" />
    <path
       d="m 84.592136,119.83276 c -0.350123,0 -0.651021,-0.26416 -0.688804,-0.62017 l -1.58942,-14.99946 c -0.04021,-0.38097 0.235727,-0.72208 0.616355,-0.76299 0.383748,-0.0354 0.722432,0.23608 0.762643,0.61671 l 1.589419,14.99945 c 0.04021,0.38097 -0.235727,0.72208 -0.616355,0.76299 -0.02496,0.002 -0.04957,0.004 -0.07384,0.004"
       style="fill:#d4d6d3;fill-opacity:1;fill-rule:nonzero;stroke:none;stroke-width:0.0346655"
       id="path132" />
    <path
       d="m 88.390443,116.18732 c -0.35012,0 -0.650671,-0.2645 -0.688458,-0.62017 l -0.817414,-7.71309 c -0.04021,-0.38098 0.235726,-0.72208 0.616354,-0.76299 0.384094,-0.0364 0.722432,0.23607 0.762643,0.6167 l 0.817069,7.7131 c 0.04055,0.38063 -0.235378,0.72208 -0.616356,0.76264 -0.02463,0.002 -0.04956,0.004 -0.07384,0.004"
       style="fill:#d4d6d3;fill-opacity:1;fill-rule:nonzero;stroke:none;stroke-width:0.0346655"
       id="path134" />
    <path
       d="m 57.601158,121.08349 c -0.350121,0 -0.650671,-0.2645 -0.688456,-0.62017 L 55.058091,102.9624 c -0.04021,-0.38063 0.235727,-0.72209 0.616356,-0.76265 0.382707,-0.0357 0.722431,0.23608 0.762641,0.61636 l 1.854263,17.50092 c 0.04055,0.38063 -0.235379,0.72208 -0.616007,0.76265 -0.02496,0.002 -0.04957,0.004 -0.07419,0.004"
       style="fill:#d4d6d3;fill-opacity:1;fill-rule:nonzero;stroke:none;stroke-width:0.0346655"
       id="path136" />
    <path
       d="m 61.453547,119.83276 c -0.350124,0 -0.650674,-0.26416 -0.688459,-0.62017 l -1.589419,-14.99946 c -0.04055,-0.38097 0.235381,-0.72208 0.616355,-0.76299 0.383748,-0.0354 0.722083,0.23608 0.762296,0.61671 l 1.589418,14.99945 c 0.04055,0.38097 -0.23538,0.72208 -0.616353,0.76299 -0.02463,0.002 -0.04957,0.004 -0.07384,0.004"
       style="fill:#d4d6d3;fill-opacity:1;fill-rule:nonzero;stroke:none;stroke-width:0.0346655"
       id="path138" />
    <path
       d="m 65.051835,116.18732 c -0.349777,0 -0.650674,-0.2645 -0.688458,-0.62017 l -0.817414,-7.71309 c -0.04055,-0.38098 0.235724,-0.72208 0.616352,-0.76299 0.384096,-0.0364 0.722086,0.23607 0.762645,0.6167 l 0.817415,7.7131 c 0.04021,0.38063 -0.235728,0.72208 -0.616356,0.76264 -0.02496,0.002 -0.04957,0.004 -0.07418,0.004"
       style="fill:#d4d6d3;fill-opacity:1;fill-rule:nonzero;stroke:none;stroke-width:0.0346655"
       id="path140" />
    <path
       d="m 103.12817,121.08349 c -0.35012,0 -0.65102,-0.2645 -0.6888,-0.62017 l -1.85426,-17.50092 c -0.0405,-0.38063 0.23537,-0.72209 0.61635,-0.76265 0.38375,-0.0357 0.72208,0.23608 0.7623,0.61636 l 1.8546,17.50092 c 0.0406,0.38063 -0.23572,0.72208 -0.61635,0.76265 -0.025,0.002 -0.0496,0.004 -0.0738,0.004"
       style="fill:#d4d6d3;fill-opacity:1;fill-rule:nonzero;stroke:none;stroke-width:0.0346655"
       id="path142" />
    <path
       d="m 99.010594,119.83276 c -0.349775,0 -0.650673,-0.26416 -0.688458,-0.62017 l -1.589071,-14.99946 c -0.04056,-0.38097 0.235379,-0.72208 0.616007,-0.76299 0.382708,-0.0354 0.722431,0.23608 0.762644,0.61671 l 1.589418,14.99945 c 0.04021,0.38097 -0.235728,0.72208 -0.616356,0.76299 -0.02496,0.002 -0.04957,0.004 -0.07418,0.004"
       style="fill:#d4d6d3;fill-opacity:1;fill-rule:nonzero;stroke:none;stroke-width:0.0346655"
       id="path144" />
    <path
       d="m 94.640304,116.19148 c -0.350123,0 -0.65102,-0.26416 -0.688458,-0.62017 l -0.817415,-7.71274 c -0.04055,-0.38063 0.235378,-0.72209 0.616006,-0.76265 0.382709,-0.0357 0.722432,0.23608 0.762643,0.61636 l 0.817415,7.71274 c 0.04055,0.38098 -0.235725,0.72208 -0.616353,0.76299 -0.02496,0.002 -0.04958,0.004 -0.07384,0.004"
       style="fill:#d4d6d3;fill-opacity:1;fill-rule:nonzero;stroke:none;stroke-width:0.0346655"
       id="path146" />
    <path
       d="m 76.209301,119.71003 c -0.349775,0 -0.650671,-0.26449 -0.688459,-0.62016 l -1.589416,-14.9998 c -0.04055,-0.38063 0.235727,-0.72208 0.616355,-0.76264 0.3834,-0.035 0.722083,0.23607 0.762642,0.61635 l 1.589417,14.9998 c 0.04021,0.38063 -0.235725,0.72209 -0.616353,0.76265 -0.02496,0.002 -0.04957,0.004 -0.07419,0.004"
       style="fill:#d4d6d3;fill-opacity:1;fill-rule:nonzero;stroke:none;stroke-width:0.0346655"
       id="path148" />
    <path
       d="m 71.684402,116.49723 c -0.350121,0 -0.65102,-0.26416 -0.688805,-0.62017 l -0.904772,-8.53987 c -0.04055,-0.38062 0.235727,-0.72207 0.616355,-0.76264 0.383748,-0.0343 0.722084,0.23607 0.762642,0.6167 l 0.904772,8.53953 c 0.04055,0.38097 -0.235727,0.72207 -0.616355,0.76264 -0.02496,0.002 -0.04957,0.004 -0.07384,0.004"
       style="fill:#d4d6d3;fill-opacity:1;fill-rule:nonzero;stroke:none;stroke-width:0.0346655"
       id="path150" />
    <path
       d="m 80.537996,121.08349 c -6.221436,0 -9.789217,-4.58452 -13.239484,-9.01791 -3.394801,-4.36232 -6.601716,-8.48301 -12.145089,-8.48301 -0.383055,0 -0.693314,-0.31026 -0.693314,-0.69332 0,-0.38271 0.310259,-0.69331 0.693314,-0.69331 6.221432,0 9.789216,4.58453 13.239481,9.01791 3.394802,4.36232 6.601715,8.48302 12.145092,8.48302 5.478201,0 7.788664,-4.0798 10.234668,-8.39878 2.534053,-4.47499 5.15408,-9.10215 11.440686,-9.10215 0.38305,0 0.69331,0.3106 0.69331,0.69331 0,0.38306 -0.31026,0.69332 -0.69331,0.69332 -5.478205,0 -7.788319,4.07979 -10.234323,8.39878 -2.534056,4.47497 -5.154426,9.10214 -11.441031,9.10214"
       style="fill:#273d47;fill-opacity:1;fill-rule:nonzero;stroke:none;stroke-width:0.0346655"
       id="path152" />
    <path
       d="m 104.0735,121.08349 c -6.222123,0 -9.790253,-4.58452 -13.240863,-9.01791 -3.39515,-4.36232 -6.602064,-8.48301 -12.146478,-8.48301 -5.478896,0 -7.789704,4.07979 -10.235708,8.39878 -2.53475,4.47497 -5.155469,9.10214 -11.442766,9.10214 -0.383054,0 -0.693313,-0.31061 -0.693313,-0.69332 0,-0.38304 0.310259,-0.6933 0.693313,-0.6933 5.478896,0 7.789704,-4.0798 10.236054,-8.39878 2.534402,-4.47499 5.155121,-9.10215 11.44242,-9.10215 6.222126,0 9.790256,4.58453 13.240869,9.01791 3.395147,4.36232 6.602407,8.48302 12.146472,8.48302 0.38306,0 0.69331,0.31026 0.69331,0.6933 0,0.38271 -0.31025,0.69332 -0.69331,0.69332"
       style="fill:#79a7dc;fill-opacity:1;fill-rule:nonzero;stroke:none;stroke-width:0.0346655"
       id="path154" />
    <path
       d="m 68.416822,101.00032 c 0.06621,0.62502 -0.386868,1.13183 -1.012234,1.13183 -0.624674,0 -1.185217,-0.50681 -1.251427,-1.13183 -0.06621,-0.62536 0.386868,-1.132174 1.011889,-1.132174 0.625021,0 1.185564,0.506814 1.251772,1.132174"
       style="fill:#9ac0e9;fill-opacity:1;fill-rule:nonzero;stroke:none;stroke-width:0.0346655"
       id="path156" />
    <path
       d="m 92.095155,122.45659 c 0.06621,0.62468 -0.387214,1.13149 -1.011886,1.13149 -0.625369,0 -1.185912,-0.50681 -1.252121,-1.13149 -0.06621,-0.62537 0.387213,-1.13218 1.011888,-1.13218 0.625021,0 1.185561,0.50681 1.252119,1.13218"
       style="fill:#9ac0e9;fill-opacity:1;fill-rule:nonzero;stroke:none;stroke-width:0.0346655"
       id="path158" />
    <path
       d="m 94.7963,101.00032 c 0.06621,0.62502 -0.386868,1.13183 -1.012237,1.13183 -0.625021,0 -1.185216,-0.50681 -1.251773,-1.13183 -0.06621,-0.62536 0.387213,-1.132174 1.011888,-1.132174 0.625021,0 1.185563,0.506814 1.252122,1.132174"
       style="fill:#9ac0e9;fill-opacity:1;fill-rule:nonzero;stroke:none;stroke-width:0.0346655"
       id="path160" />
    <path
       d="m 54.586986,113.12254 c 0.06621,0.62502 -0.386868,1.13183 -1.011889,1.13183 -0.625021,0 -1.185564,-0.50681 -1.251773,-1.13183 -0.06621,-0.62537 0.386868,-1.13218 1.011889,-1.13218 0.62502,0 1.185563,0.50681 1.251773,1.13218"
       style="fill:#79a7dc;fill-opacity:1;fill-rule:nonzero;stroke:none;stroke-width:0.0346655"
       id="path162" />
    <path
       d="m 70.684646,122.45659 c 0.06621,0.62468 -0.386868,1.13149 -1.011888,1.13149 -0.62502,0 -1.185217,-0.50681 -1.251775,-1.13149 -0.06621,-0.62537 0.386868,-1.13218 1.011888,-1.13218 0.625021,0 1.185564,0.50681 1.251775,1.13218"
       style="fill:#79a7dc;fill-opacity:1;fill-rule:nonzero;stroke:none;stroke-width:0.0346655"
       id="path164" />
    <path
       d="m 107.71201,111.51682 c 0.0662,0.62537 -0.38687,1.13219 -1.0119,1.13219 -0.62502,0 -1.18556,-0.50682 -1.25177,-1.13219 -0.0662,-0.62502 0.38687,-1.13183 1.01189,-1.13183 0.62502,0 1.18556,0.50681 1.25178,1.13183"
       style="fill:#79a7dc;fill-opacity:1;fill-rule:nonzero;stroke:none;stroke-width:0.0346655"
       id="path166" />
    <path
       d="M 53.175404,87.654765 H 38.382208 c -0.730749,0 -1.263213,0.592782 -1.188683,1.323533 l 0.261726,2.580854 H 56.484927 L 54.407766,88.345303 C 54.13252,87.919611 53.660029,87.654765 53.175404,87.654765"
       style="fill:#9ac0e9;fill-opacity:1;fill-rule:nonzero;stroke:none;stroke-width:0.0346655"
       id="path168" />
    <path
       d="m 42.645036,89.606784 c 0.05304,0.520678 -0.326202,0.942905 -0.846534,0.942905 -0.520676,0 -0.985541,-0.422227 -1.038234,-0.942905 -0.05304,-0.520329 0.326204,-0.942211 0.846879,-0.942211 0.520333,0 0.985199,0.421882 1.037889,0.942211 z"
       style="fill:none;stroke:#ffffff;stroke-width:0.346655;stroke-linecap:butt;stroke-linejoin:miter;stroke-miterlimit:10;stroke-dasharray:none;stroke-opacity:1"
       id="path170" />
    <path
       d="m 46.604888,89.606784 c 0.05269,0.520678 -0.326205,0.942905 -0.846881,0.942905 -0.520678,0 -0.985197,-0.422227 -1.038236,-0.942905 -0.05269,-0.520329 0.326205,-0.942211 0.846883,-0.942211 0.52033,0 0.985195,0.421882 1.038234,0.942211 z"
       style="fill:none;stroke:#ffffff;stroke-width:0.346655;stroke-linecap:butt;stroke-linejoin:miter;stroke-miterlimit:10;stroke-dasharray:none;stroke-opacity:1"
       id="path172" />
    <path
       d="m 50.56439,89.606784 c 0.05304,0.520678 -0.326202,0.942905 -0.846534,0.942905 -0.520675,0 -0.98554,-0.422227 -1.038579,-0.942905 -0.05269,-0.520329 0.32655,-0.942211 0.84688,-0.942211 0.520678,0 0.985543,0.421882 1.038233,0.942211 z"
       style="fill:none;stroke:#ffffff;stroke-width:0.346655;stroke-linecap:butt;stroke-linejoin:miter;stroke-miterlimit:10;stroke-dasharray:none;stroke-opacity:1"
       id="path174" />
    <path
       d="M 97.699889,94.375385 H 58.661234 c -0.48844,0 -0.895761,-0.374389 -0.93632,-0.861094 v 0 c -0.04611,-0.548062 0.386177,-1.018128 0.93632,-1.018128 h 39.038655 c 0.488437,0 0.895412,0.374388 0.935971,0.861093 v 0 c 0.04611,0.548064 -0.386176,1.018129 -0.935971,1.018129"
       style="fill:#ffffff;fill-opacity:1;fill-rule:nonzero;stroke:none;stroke-width:0.0346655"
       id="path176" />
    <path
       d="m 35.201641,157.41886 -2.625919,-18.50686 0.686725,-0.0974 2.625573,18.50689 -0.686379,0.0974"
       style="fill:#79a7dc;fill-opacity:1;fill-rule:nonzero;stroke:none;stroke-width:0.0346655"
       id="path178" />
    <path
       d="m 32.795501,140.28719 0.677368,-5.69036 11.779366,-17.93806 c 4.816785,19.1309 -6.165275,16.84783 -12.456734,23.62842"
       style="fill:#79a7dc;fill-opacity:1;fill-rule:nonzero;stroke:none;stroke-width:0.0346655"
       id="path180" />
    <path
       d="m 32.795501,140.28719 c -3.517517,-8.33049 6.853388,-15.50245 12.456734,-23.62842 3.677674,14.61467 -11.054509,12.9736 -12.456734,23.62842"
       style="fill:#9ac0e9;fill-opacity:1;fill-rule:nonzero;stroke:none;stroke-width:0.0346655"
       id="path182" />
    <path
       d="m 39.756005,157.86191 h -0.69331 c 0,-15.81024 3.731404,-19.28755 3.890171,-19.42795 l 0.45932,0.51964 c -0.03467,0.0315 -3.656181,3.51198 -3.656181,18.90831"
       style="fill:#79a7dc;fill-opacity:1;fill-rule:nonzero;stroke:none;stroke-width:0.0346655"
       id="path184" />
    <path
       d="m 40.653845,143.27605 c 2.499043,-3.70817 18.724618,2.62245 19.969459,-16.79617 -8.800898,5.28304 -16.79513,4.21568 -19.969459,16.79617"
       style="fill:#79a7dc;fill-opacity:1;fill-rule:nonzero;stroke:none;stroke-width:0.0346655"
       id="path186" />
    <path
       d="m 40.653845,143.27605 c 3.500184,-7.46142 14.386221,-6.2814 19.969459,-16.79617 -8.800898,5.28304 -16.79513,4.21568 -19.969459,16.79617"
       style="fill:#9ac0e9;fill-opacity:1;fill-rule:nonzero;stroke:none;stroke-width:0.0346655"
       id="path188" />
    <path
       d="m 31.445971,160.29475 c -1.730853,0 -3.138624,-1.40666 -3.138624,-3.13547 v -10.87251 h 16.546929 v 10.87251 c 0,1.72881 -1.408117,3.13547 -3.138623,3.13547 H 31.445971"
       style="fill:#f6f6f4;fill-opacity:1;fill-rule:nonzero;stroke:none;stroke-width:0.0346655"
       id="path190" />
    <path
       d="M 45.027602,146.11344 H 28.134019 v 11.04542 c 0,1.82861 1.482995,3.30921 3.311952,3.30921 h 10.269682 c 1.828609,0 3.311949,-1.4806 3.311949,-3.30921 z m -0.346655,0.34665 v 10.69877 c 0,1.63389 -1.330119,2.96256 -2.965294,2.96256 H 31.445971 c -1.635176,0 -2.965295,-1.32867 -2.965295,-2.96256 v -10.69877 h 16.200271"
       style="fill:#e1e3e6;fill-opacity:1;fill-rule:nonzero;stroke:none;stroke-width:0.0346655"
       id="path192" />
    <path
       d="m 28.134019,146.11344 v 11.04584 c 0,1.82819 1.482995,3.30879 3.311952,3.30879 h 9.891479 c -3.846495,-2.06153 -6.675898,-7.37472 -9.304937,-14.35463 h -3.898494"
       style="fill:#e1e3e6;fill-opacity:1;fill-rule:nonzero;stroke:none;stroke-width:0.0346655"
       id="path194" />
    <path
       d="M 64.97037,70.325091 H 79.109426 V 58.446578 H 64.97037 v 11.878513"
       style="fill:#e1e3e6;fill-opacity:1;fill-rule:nonzero;stroke:none;stroke-width:0.0346655"
       id="path196" />
    <path
       d="M 67.407362,68.933959 H 81.546416 L 79.109426,58.446578 H 64.970718 l 2.436644,10.487381"
       style="fill:#9ac0e9;fill-opacity:1;fill-rule:nonzero;stroke:none;stroke-width:0.0346655"
       id="path198" />
    <path
       d="M 64.970718,58.446578 H 79.109426 V 54.940153 H 64.970718 v 3.506425"
       style="fill:#79a7dc;fill-opacity:1;fill-rule:nonzero;stroke:none;stroke-width:0.0346655"
       id="path200" />
    <path
       d="m 68.011235,61.674638 c 1.700347,0.548409 3.393764,-0.447531 5.111096,-0.235032 0.433321,0.05339 0.863173,0.16778 1.301346,0.166049 0.476999,-0.0021 0.843413,-0.237807 1.280549,-0.401082 0.833705,-0.310605 1.683013,0.09637 2.432484,0.48393 0.129647,0.06691 0.01905,0.275247 -0.109197,0.211114 -0.430201,-0.214925 -0.872532,-0.430199 -1.343293,-0.510275 -0.494678,-0.08355 -0.882932,0.06413 -1.322839,0.29223 -0.383748,0.199326 -0.763681,0.275592 -1.187642,0.245433 -0.435052,-0.0312 -0.862134,-0.140396 -1.29788,-0.164316 -1.654589,-0.08978 -3.317498,0.864214 -4.95718,0.298123 -0.2229,-0.07661 -0.133117,-0.458971 0.09255,-0.386174"
       style="fill:#273d47;fill-opacity:1;fill-rule:nonzero;stroke:none;stroke-width:0.0346655"
       id="path202" />
    <path
       d="m 68.95622,65.070827 c 0.328284,-0.161195 0.763336,-0.126876 1.117966,-0.148023 0.404893,-0.02426 0.81048,-0.03328 1.215721,-0.03328 0.782402,0 1.564459,0.03432 2.346168,0.06552 0.785871,0.03086 1.571391,0.0631 2.356913,0.09775 0.812215,0.03536 1.622004,0.109891 2.433873,0.14629 0.121328,0.0052 0.122368,0.210419 0,0.207647 -0.781016,-0.01698 -1.562031,0.0045 -2.343048,-0.01318 -0.800774,-0.01768 -1.60155,-0.03778 -2.402325,-0.05928 -0.782055,-0.0208 -1.564111,-0.04542 -2.346515,-0.03674 -0.39068,0.0045 -0.781017,0.01734 -1.171005,0.04334 -0.194819,0.01318 -0.389293,0.02981 -0.583422,0.05339 -0.195513,0.02392 -0.386519,0.06968 -0.582033,0.03189 -0.145595,-0.02843 -0.180263,-0.287723 -0.04229,-0.35532"
       style="fill:#273d47;fill-opacity:1;fill-rule:nonzero;stroke:none;stroke-width:0.0346655"
       id="path204" />
    <path
       d="M 45.03835,63.43773 H 59.177403 V 51.559219 H 45.03835 V 63.43773"
       style="fill:#e1e3e6;fill-opacity:1;fill-rule:nonzero;stroke:none;stroke-width:0.0346655"
       id="path206" />
    <path
       d="M 47.404622,62.046601 H 61.54333 L 59.177403,51.559219 H 45.03835 l 2.366272,10.487382"
       style="fill:#9ac0e9;fill-opacity:1;fill-rule:nonzero;stroke:none;stroke-width:0.0346655"
       id="path208" />
    <path
       d="M 45.03835,51.559219 H 59.177403 V 48.052794 H 45.03835 v 3.506425"
       style="fill:#79a7dc;fill-opacity:1;fill-rule:nonzero;stroke:none;stroke-width:0.0346655"
       id="path210" />
    <path
       d="m 50.228481,54.160871 c 0.165355,0.13589 0.316499,0.278365 0.443026,0.413214 0.139704,0.149063 0.274552,0.30263 0.408707,0.456545 -0.17506,0.243352 -0.341455,0.495025 -0.52033,0.738031 -0.08042,-0.536623 -0.215619,-1.073592 -0.331403,-1.60779 z m 1.433075,0.920372 c 0.106077,-0.137276 0.218047,-0.269698 0.343884,-0.390683 0.18858,-0.181646 0.399348,-0.301589 0.622247,-0.377507 0.01526,0.273859 0.02947,0.547022 0.03952,0.820534 0.0111,0.302979 0.0024,0.614621 0.06101,0.917946 -0.271086,-0.170901 -0.524144,-0.384443 -0.741151,-0.609768 -0.111622,-0.11613 -0.219084,-0.237806 -0.32551,-0.360522 z m 1.256975,1.080872 c 0.0013,-0.0038 0.0059,-0.0059 0.0063,-0.0104 0.04194,-0.327935 -0.02114,-0.68083 -0.0513,-1.01674 -0.0267,-0.291885 -0.04888,-0.583076 -0.06899,-0.874267 0.452386,-0.09707 0.950879,-0.0031 1.443129,0.253059 0.401774,0.209032 0.763337,0.483932 1.111381,0.778243 -0.176795,0.281483 -0.375777,0.544594 -0.625715,0.753283 -0.0028,-0.02912 -0.0052,-0.05824 -0.0077,-0.08736 -0.0084,-0.09394 -0.01664,-0.18754 -0.02463,-0.281486 -0.01664,-0.18754 -0.03294,-0.375081 -0.04957,-0.562275 -0.007,-0.08077 -0.128955,-0.08077 -0.123755,-7.79e-4 l 0.03571,0.562276 c 0.0063,0.0936 0.01215,0.187195 0.01802,0.281138 0.0041,0.06205 0.0086,0.124101 0.01802,0.185808 -0.06206,0.04332 -0.122368,0.08909 -0.191354,0.125142 -0.133462,0.07002 -0.270392,0.105382 -0.407668,0.126182 0.0093,-0.01526 0.02009,-0.02981 0.01768,-0.05339 -0.06205,-0.590702 -0.159807,-1.180018 -0.221513,-1.770719 -0.0073,-0.06968 -0.113703,-0.07037 -0.107463,-7.01e-4 0.05339,0.590354 0.07106,1.17967 0.124102,1.770026 0.0028,0.03085 0.01768,0.05304 0.0364,0.06968 -0.314762,0.01178 -0.631261,-0.0877 -0.931117,-0.24682 z m 2.857486,-0.972716 c 0.07211,-0.133115 0.142822,-0.267271 0.213194,-0.399694 0.155995,-0.293964 0.333481,-0.604221 0.552223,-0.871493 0.04437,0.415988 0.0884,0.831975 0.132767,1.247613 0.02358,0.220474 0.04715,0.440601 0.07072,0.660729 0.0093,0.08978 0.01386,0.186154 0.0215,0.282523 -0.276285,-0.238154 -0.539398,-0.495025 -0.79835,-0.740109 -0.06344,-0.06031 -0.127567,-0.119945 -0.192045,-0.179569 z m 1.895513,1.561686 c -0.238499,-0.126876 -0.460358,-0.287725 -0.675979,-0.45932 -0.0111,-0.153915 -0.04853,-0.316844 -0.06864,-0.463826 -0.03016,-0.220473 -0.05997,-0.440601 -0.08978,-0.660725 -0.05997,-0.4406 -0.119596,-0.880854 -0.17922,-1.321453 -0.0024,-0.01595 -0.01144,-0.02634 -0.02046,-0.03605 0.188235,-0.206607 0.404548,-0.380281 0.663846,-0.483585 0.06136,0.583769 0.12237,1.167537 0.183379,1.751304 0.03086,0.294311 0.06171,0.588622 0.09256,0.882933 0.0267,0.253061 0.02218,0.539051 0.0943,0.790724 z m -9.541704,-3.008281 c 0.560543,-0.463826 1.308279,-0.169168 1.911809,0.273165 -0.0059,0.01248 -0.01352,0.02288 -0.01006,0.04195 0.110931,0.597634 0.192049,1.204282 0.34319,1.797064 0.01006,0.03917 0.03917,0.05686 0.07072,0.06517 -0.210074,0.269351 -0.446841,0.524144 -0.739417,0.704749 -0.03674,0.02254 -0.07626,0.03952 -0.114397,0.05963 -0.0891,-0.452734 -0.204528,-0.904772 -0.30679,-1.355772 -0.115783,-0.51201 -0.230179,-1.024021 -0.34319,-1.536379 -0.02358,-0.106077 -0.189968,-0.109544 -0.167781,-0.0011 0.105037,0.510624 0.209034,1.021249 0.310951,1.531873 0.09671,0.48393 0.178874,0.97237 0.292576,1.45422 -0.0565,0.01976 -0.112316,0.0416 -0.172288,0.05408 -0.169861,0.03467 -0.34215,0.0066 -0.482197,0.11405 -0.08354,0.06413 -0.106077,0.189275 -0.01006,0.276632 0.302285,0.274898 0.793842,0.09047 1.082952,-0.04715 0.362258,-0.172286 0.665234,-0.454811 0.919332,-0.756056 0.262766,-0.311991 0.477693,-0.662806 0.707178,-1.001489 0.350123,0.389296 0.718272,0.757444 1.175858,1.030607 0.700244,0.418067 1.510727,0.479775 2.133668,0.05166 0.372654,-0.256178 0.63542,-0.617395 0.864905,-1.003223 0.819148,0.720007 1.594964,1.499634 2.679651,1.742986 0.154607,0.03467 0.19378,-0.195514 0.03813,-0.234685 -0.17194,-0.04368 -0.334521,-0.109196 -0.493636,-0.183382 0.0052,-0.008 0.01248,-0.01385 0.01386,-0.02496 0.03016,-0.261033 -0.04368,-0.567823 -0.07279,-0.835095 l -0.09568,-0.882932 c -0.06413,-0.588274 -0.127916,-1.176896 -0.192049,-1.765518 -0.0019,-0.01768 -0.01281,-0.02773 -0.0215,-0.04021 0.08389,-0.02253 0.169514,-0.04298 0.261724,-0.05061 0.06482,-0.0055 0.0572,-0.107117 -0.01006,-0.10469 -0.860053,0.03258 -1.438276,0.675285 -1.849408,1.338784 -0.105037,0.169861 -0.205568,0.34839 -0.308871,0.526918 -0.495025,-0.43436 -1.028877,-0.823654 -1.642457,-1.045168 -0.739763,-0.266578 -1.495475,-0.176794 -2.069188,0.267271 -0.188583,0.14629 -0.347003,0.317885 -0.495719,0.496758 -0.398308,-0.471798 -0.804241,-0.937704 -1.334972,-1.258707 -0.687071,-0.415987 -1.601896,-0.568516 -2.201264,-0.08563 -0.26242,0.211113 0.07245,0.595902 0.327241,0.385135"
       style="fill:#273d47;fill-opacity:1;fill-rule:nonzero;stroke:none;stroke-width:0.0346655"
       id="path212" />
    <path
       d="m 48.970814,58.775208 c 3.102918,-0.06136 6.213462,-0.07279 9.316723,-0.04368 0.09464,0.0011 0.103305,0.144901 0.0073,0.147675 -3.100142,0.09671 -6.208954,0.152529 -9.31083,0.158075 -0.168128,2.6e-4 -0.182687,-0.258607 -0.01318,-0.262072"
       style="fill:#273d47;fill-opacity:1;fill-rule:nonzero;stroke:none;stroke-width:0.0346655"
       id="path214" />
    <path
       d="m 51.016431,59.953491 c 1.884076,-0.03328 3.775428,0.0011 5.659849,0.0215 0.0773,7.8e-4 0.08423,0.118556 0.0059,0.120982 -1.881646,0.05408 -3.770228,0.122716 -5.652224,0.123062 -0.170555,0 -0.18546,-0.262418 -0.01352,-0.265538"
       style="fill:#273d47;fill-opacity:1;fill-rule:nonzero;stroke:none;stroke-width:0.0346655"
       id="path216" />
    <path
       d="m 95.594995,160.73091 h -2.07855 V 145.2052 h 2.07855 v 15.52571"
       style="fill:#f6f6f4;fill-opacity:1;fill-rule:nonzero;stroke:none;stroke-width:0.0346655"
       id="path324" />
    <path
       d="m 95.594995,160.73091 h -2.07855 V 145.2052 h 2.07855 z"
       style="fill:none;stroke:#273d47;stroke-width:0.346655;stroke-linecap:butt;stroke-linejoin:miter;stroke-miterlimit:10;stroke-dasharray:none;stroke-opacity:1"
       id="path326" />
    <path
       d="m 121.69021,160.73091 h -2.0782 V 145.2052 h 2.0782 v 15.52571"
       style="fill:#f6f6f4;fill-opacity:1;fill-rule:nonzero;stroke:none;stroke-width:0.0346655"
       id="path328" />
    <path
       d="m 121.69021,160.73091 h -2.0782 V 145.2052 h 2.0782 z"
       style="fill:none;stroke:#273d47;stroke-width:0.346655;stroke-linecap:butt;stroke-linejoin:miter;stroke-miterlimit:10;stroke-dasharray:none;stroke-opacity:1"
       id="path330" />
    <path
       d="m 99.669935,157.14815 v 0 c -1.212257,0 -2.195027,-0.98267 -2.195027,-2.19503 v -14.24648 h 4.390052 v 14.24648 c 0,1.21236 -0.98277,2.19503 -2.195025,2.19503"
       style="fill:#f6f6f4;fill-opacity:1;fill-rule:nonzero;stroke:none;stroke-width:0.0346655"
       id="path332" />
    <path
       d="m 99.669935,157.14815 v 0 c -1.212257,0 -2.195027,-0.98267 -2.195027,-2.19503 v -14.24648 h 4.390052 v 14.24648 c 0,1.21236 -0.98277,2.19503 -2.195025,2.19503 z"
       style="fill:none;stroke:#273d47;stroke-width:0.346655;stroke-linecap:butt;stroke-linejoin:miter;stroke-miterlimit:10;stroke-dasharray:none;stroke-opacity:1"
       id="path334" />
    <path
       d="m 99.669935,156.16884 v 0 c -0.691925,0 -1.252816,-0.56084 -1.252816,-1.2528 v -12.28199 h 2.505281 v 12.28199 c 0,0.69196 -0.56054,1.2528 -1.252465,1.2528"
       style="fill:#79a7dc;fill-opacity:1;fill-rule:nonzero;stroke:none;stroke-width:0.0346655"
       id="path336" />
    <path
       d="m 96.639814,140.70664 h 6.059896"
       style="fill:none;stroke:#273d47;stroke-width:0.346655;stroke-linecap:butt;stroke-linejoin:miter;stroke-miterlimit:10;stroke-dasharray:none;stroke-opacity:1"
       id="path338" />
    <path
       d="m 107.51753,157.14815 v 0 c -1.21225,0 -2.19503,-0.98267 -2.19503,-2.19503 v -14.24648 h 4.39005 v 14.24648 c 0,1.21236 -0.98276,2.19503 -2.19502,2.19503"
       style="fill:#f6f6f4;fill-opacity:1;fill-rule:nonzero;stroke:none;stroke-width:0.0346655"
       id="path340" />
    <path
       d="m 107.51753,157.14815 v 0 c -1.21225,0 -2.19503,-0.98267 -2.19503,-2.19503 v -14.24648 h 4.39005 v 14.24648 c 0,1.21236 -0.98276,2.19503 -2.19502,2.19503 z"
       style="fill:none;stroke:#273d47;stroke-width:0.346655;stroke-linecap:butt;stroke-linejoin:miter;stroke-miterlimit:10;stroke-dasharray:none;stroke-opacity:1"
       id="path342" />
    <path
       d="m 107.51753,156.16884 v 0 c -0.69192,0 -1.25282,-0.56084 -1.25282,-1.2528 v -3.16598 H 108.77 v 3.16598 c 0,0.69196 -0.5609,1.2528 -1.25247,1.2528"
       style="fill:#79a7dc;fill-opacity:1;fill-rule:nonzero;stroke:none;stroke-width:0.0346655"
       id="path344" />
    <path
       d="m 104.48776,140.70664 h 6.05954"
       style="fill:none;stroke:#273d47;stroke-width:0.346655;stroke-linecap:butt;stroke-linejoin:miter;stroke-miterlimit:10;stroke-dasharray:none;stroke-opacity:1"
       id="path346" />
    <path
       d="m 115.36513,157.14815 v 0 c -1.21261,0 -2.19503,-0.98267 -2.19503,-2.19503 v -14.24648 h 4.39005 v 14.24648 c 0,1.21236 -0.98277,2.19503 -2.19502,2.19503"
       style="fill:#f6f6f4;fill-opacity:1;fill-rule:nonzero;stroke:none;stroke-width:0.0346655"
       id="path348" />
    <path
       d="m 115.36513,157.14815 v 0 c -1.21261,0 -2.19503,-0.98267 -2.19503,-2.19503 v -14.24648 h 4.39005 v 14.24648 c 0,1.21236 -0.98277,2.19503 -2.19502,2.19503 z"
       style="fill:none;stroke:#273d47;stroke-width:0.346655;stroke-linecap:butt;stroke-linejoin:miter;stroke-miterlimit:10;stroke-dasharray:none;stroke-opacity:1"
       id="path350" />
    <path
       d="m 115.36513,156.16884 v 0 c -0.69193,0 -1.25282,-0.56084 -1.25282,-1.2528 v -6.41491 h 2.50528 v 6.41491 c 0,0.69196 -0.56088,1.2528 -1.25246,1.2528"
       style="fill:#79a7dc;fill-opacity:1;fill-rule:nonzero;stroke:none;stroke-width:0.0346655"
       id="path352" />
    <path
       d="m 112.335,140.70664 h 6.05989"
       style="fill:none;stroke:#273d47;stroke-width:0.346655;stroke-linecap:butt;stroke-linejoin:miter;stroke-miterlimit:10;stroke-dasharray:none;stroke-opacity:1"
       id="path354" />
    <path
       d="M 122.73988,147.25532 H 92.097929 v -2.05012 h 30.641951 v 2.05012"
       style="fill:#f6f6f4;fill-opacity:1;fill-rule:nonzero;stroke:none;stroke-width:0.0346655"
       id="path356" />
    <path
       d="M 122.73988,147.25532 H 92.097929 v -2.05012 h 30.641951 z"
       style="fill:none;stroke:#273d47;stroke-width:0.346655;stroke-linecap:butt;stroke-linejoin:miter;stroke-miterlimit:10;stroke-dasharray:none;stroke-opacity:1"
       id="path358" />
    <path
       d="M 122.73988,160.73091 H 92.097929 v -4.27607 h 30.641951 v 4.27607"
       style="fill:#f6f6f4;fill-opacity:1;fill-rule:nonzero;stroke:none;stroke-width:0.0346655"
       id="path360" />
    <path
       d="M 122.73988,160.73091 H 92.097929 v -4.27607 h 30.641951 z"
       style="fill:none;stroke:#273d47;stroke-width:0.346874;stroke-linecap:butt;stroke-linejoin:miter;stroke-miterlimit:10;stroke-dasharray:none;stroke-opacity:1"
       id="path362" />
    <path
       d="M 32.452311,157.55967 H 5.2831894 v 3.17124 H 32.452311 v -3.17124"
       style="fill:#f6f6f4;fill-opacity:1;fill-rule:nonzero;stroke:#273d47;stroke-width:0.346874;stroke-miterlimit:4;stroke-dasharray:none;stroke-opacity:1"
       id="path364" />
    <path
       d="m 27.178983,129.60013 v 0 c -1.515233,0 -2.743436,-1.22855 -2.743436,-2.74378 v -20.26862 h 5.486871 v 20.26862 c 0,1.51523 -1.228203,2.74378 -2.743435,2.74378"
       style="fill:#f6f6f4;fill-opacity:1;fill-rule:nonzero;stroke:none;stroke-width:0.0346655"
       id="path366" />
    <path
       d="m 27.178983,129.60013 v 0 c -1.515233,0 -2.743436,-1.22855 -2.743436,-2.74378 v -20.26862 h 5.486871 v 20.26862 c 0,1.51523 -1.228203,2.74378 -2.743435,2.74378 z"
       style="fill:none;stroke:#273d47;stroke-width:0.346655;stroke-linecap:butt;stroke-linejoin:miter;stroke-miterlimit:10;stroke-dasharray:none;stroke-opacity:1"
       id="path368" />
    <path
       d="m 27.178983,128.34558 v 0 c -0.989703,0 -1.791865,-0.8025 -1.791865,-1.79186 v -8.10482 h 3.583729 v 8.10482 c 0,0.98936 -0.802162,1.79186 -1.791864,1.79186"
       style="fill:#9ac0e9;fill-opacity:1;fill-rule:nonzero;stroke:none;stroke-width:0.0346655"
       id="path370" />
    <path
       d="M 5.2831894,111.57541 H 32.452311"
       style="fill:none;stroke:#17282f;stroke-width:0.346655;stroke-linecap:butt;stroke-linejoin:miter;stroke-miterlimit:10;stroke-dasharray:none;stroke-opacity:1"
       id="path372" />
    <path
       d="M 12.548196,157.55967 V 98.352913"
       style="fill:none;stroke:#17282f;stroke-width:0.346655;stroke-linecap:butt;stroke-linejoin:miter;stroke-miterlimit:10;stroke-dasharray:none;stroke-opacity:1"
       id="path374" />
    <path
       d="m 16.482741,111.57541 c 0,2.17319 -1.761567,3.93489 -3.934545,3.93489 -2.173082,0 -3.9346831,-1.7617 -3.9346831,-3.93489 0,-2.17318 1.7616011,-3.93455 3.9346831,-3.93455 2.172978,0 3.934545,1.76137 3.934545,3.93455"
       style="fill:#9ac0e9;fill-opacity:1;fill-rule:nonzero;stroke:none;stroke-width:0.0346655"
       id="path376" />
    <path
       d="m 15.145828,111.57541 c 0,1.43481 -1.163066,2.59784 -2.597632,2.59784 -1.43467,0 -2.5977352,-1.16303 -2.5977352,-2.59784 0,-1.4348 1.1630652,-2.59749 2.5977352,-2.59749 1.434566,0 2.597632,1.16269 2.597632,2.59749 z"
       style="fill:none;stroke:#17282f;stroke-width:0.346655;stroke-linecap:butt;stroke-linejoin:miter;stroke-miterlimit:10;stroke-dasharray:none;stroke-opacity:1"
       id="path378" />
    <path
       d="M 32.452311,113.46711 H 21.906 v -3.78305 h 10.546311 v 3.78305"
       style="fill:#f6f6f4;fill-opacity:1;fill-rule:nonzero;stroke:#273d47;stroke-width:0.346874;stroke-miterlimit:4;stroke-dasharray:none;stroke-opacity:1"
       id="path380" />
    <path
       d="m 22.824291,106.58773 h 8.709383"
       style="fill:none;stroke:#273d47;stroke-width:0.346655;stroke-linecap:butt;stroke-linejoin:miter;stroke-miterlimit:10;stroke-dasharray:none;stroke-opacity:1"
       id="path382" />
    <path
       d="m 116.5396,66.91157 c 0.51201,-0.215273 1.02401,-0.326899 1.53602,-0.407667 0.51202,-0.07592 1.02403,-0.111625 1.53639,-0.112317 0.51201,-7.8e-4 1.02402,0.03501 1.53603,0.110928 0.51201,0.08043 1.02436,0.192395 1.53603,0.409056 -0.51167,0.216659 -1.02402,0.32863 -1.53603,0.408708 -0.51201,0.07626 -1.02402,0.111967 -1.53603,0.110928 -0.51236,-2.61e-4 -1.02437,-0.03605 -1.53639,-0.112317 -0.51201,-0.08042 -1.02401,-0.192045 -1.53602,-0.407319"
       style="fill:#9ac0e9;fill-opacity:1;fill-rule:nonzero;stroke:none;stroke-width:0.0346655"
       id="path384" />
    <path
       d="m 119.61201,63.839156 c 0.21492,0.512013 0.32654,1.024023 0.40732,1.536381 0.0766,0.51201 0.11163,1.02402 0.11231,1.536033 9.9e-4,0.51201 -0.035,1.024019 -0.11093,1.536032 -0.0804,0.51201 -0.19239,1.024021 -0.4087,1.536033 -0.21666,-0.512012 -0.32864,-1.024023 -0.40906,-1.536033 -0.076,-0.512013 -0.11163,-1.024022 -0.11093,-1.536032 7.8e-4,-0.512013 0.0364,-1.024023 0.11232,-1.536033 0.0808,-0.512358 0.19239,-1.024368 0.40767,-1.536381"
       style="fill:#9ac0e9;fill-opacity:1;fill-rule:nonzero;stroke:none;stroke-width:0.0346655"
       id="path386" />
  </g>
</svg>
