<?xml version="1.0" encoding="UTF-8" standalone="no"?>
<!-- Created with Inkscape (http://www.inkscape.org/) -->

<svg
   xmlns:dc="http://purl.org/dc/elements/1.1/"
   xmlns:cc="http://creativecommons.org/ns#"
   xmlns:rdf="http://www.w3.org/1999/02/22-rdf-syntax-ns#"
   xmlns:svg="http://www.w3.org/2000/svg"
   xmlns="http://www.w3.org/2000/svg"
   xmlns:sodipodi="http://sodipodi.sourceforge.net/DTD/sodipodi-0.dtd"
   xmlns:inkscape="http://www.inkscape.org/namespaces/inkscape"
   width="150"
   height="150"
   viewBox="0 0 39.687499 39.687499"
   version="1.1"
   id="svg1987"
   inkscape:version="0.92.4 (5da689c313, 2019-01-14)"
   sodipodi:docname="two_tone_report.svg"
   inkscape:export-filename="C:\Users\Keegan\repos\cannlytics-website\assets\images\lab_icons\two_tone_report.png"
   inkscape:export-xdpi="96"
   inkscape:export-ydpi="96">
  <defs
     id="defs1981" />
  <sodipodi:namedview
     id="base"
     pagecolor="#ffffff"
     bordercolor="#666666"
     borderopacity="1.0"
     inkscape:pageopacity="0.0"
     inkscape:pageshadow="2"
     inkscape:zoom="1.979899"
     inkscape:cx="-15.542558"
     inkscape:cy="57.366681"
     inkscape:document-units="mm"
     inkscape:current-layer="layer1"
     showgrid="false"
     fit-margin-top="0"
     fit-margin-left="0"
     fit-margin-right="0"
     fit-margin-bottom="0"
     units="px"
     inkscape:window-width="1920"
     inkscape:window-height="1051"
     inkscape:window-x="2391"
     inkscape:window-y="-9"
     inkscape:window-maximized="1" />
  <metadata
     id="metadata1984">
    <rdf:RDF>
      <cc:Work
         rdf:about="">
        <dc:format>image/svg+xml</dc:format>
        <dc:type
           rdf:resource="http://purl.org/dc/dcmitype/StillImage" />
        <dc:title></dc:title>
      </cc:Work>
    </rdf:RDF>
  </metadata>
  <g
     inkscape:label="Layer 1"
     inkscape:groupmode="layer"
     id="layer1"
     transform="translate(-101.80076,-164.15401)">
    <path
       d="m 133.68763,198.64562 c 0,0.5976 -0.48436,1.08197 -1.08197,1.08197 h -21.92231 c -0.59726,0 -1.08197,-0.48437 -1.08197,-1.08197 v -28.26879 c 0,-0.59761 0.48471,-1.08197 1.08197,-1.08197 h 21.92231 c 0.59761,0 1.08197,0.48436 1.08197,1.08197 v 28.26879"
       style="fill:#9cdee4;fill-opacity:1;fill-rule:nonzero;stroke:none;stroke-width:0.03527778"
       id="path326"
       inkscape:connector-curvature="0" />
    <path
       d="m 110.68335,169.51499 c -0.47519,0 -0.86184,0.38665 -0.86184,0.86184 v 28.26879 c 0,0.47519 0.38665,0.86183 0.86184,0.86183 h 21.92231 c 0.47519,0 0.86184,-0.38664 0.86184,-0.86183 v -28.26879 c 0,-0.47519 -0.38665,-0.86184 -0.86184,-0.86184 z m 21.92231,30.43273 h -21.92231 c -0.71791,0 -1.30211,-0.5842 -1.30211,-1.3021 v -28.26879 c 0,-0.71825 0.5842,-1.3021 1.30211,-1.3021 h 21.92231 c 0.71826,0 1.30211,0.58385 1.30211,1.3021 v 28.26879 c 0,0.7179 -0.58385,1.3021 -1.30211,1.3021"
       style="fill:#2e6096;fill-opacity:1;fill-rule:nonzero;stroke:none;stroke-width:0.03527778"
       id="path328"
       inkscape:connector-curvature="0" />
    <path
       d="m 133.68763,197.8307 c 0,0.59796 -0.48436,1.08162 -1.08197,1.08162 h -21.92231 c -0.59726,0 -1.08197,-0.48366 -1.08197,-1.08162 v -28.26844 c 0,-0.59725 0.48471,-1.08161 1.08197,-1.08161 h 21.92231 c 0.59761,0 1.08197,0.48436 1.08197,1.08161 v 28.26844"
       style="fill:#9cdee4;fill-opacity:1;fill-rule:nonzero;stroke:none;stroke-width:0.03527778"
       id="path330"
       inkscape:connector-curvature="0" />
    <path
       d="m 110.68335,168.83343 c -0.40217,0 -0.72919,0.32668 -0.72919,0.72883 v 28.26844 c 0,0.40181 0.32702,0.72884 0.72919,0.72884 h 21.92231 c 0.40217,0 0.72919,-0.32703 0.72919,-0.72884 v -28.26844 c 0,-0.40216 -0.32702,-0.72883 -0.72919,-0.72883 z m 21.92231,30.43166 h -21.92231 c -0.79093,0 -1.43475,-0.64346 -1.43475,-1.43439 v -28.26844 c 0,-0.79092 0.64383,-1.43439 1.43475,-1.43439 h 21.92231 c 0.79128,0 1.43475,0.64347 1.43475,1.43439 v 28.26844 c 0,0.79093 -0.64347,1.43439 -1.43475,1.43439"
       style="fill:#2e6096;fill-opacity:1;fill-rule:nonzero;stroke:none;stroke-width:0.03527778"
       id="path332"
       inkscape:connector-curvature="0" />
    <path
       d="m 111.54871,196.96534 v -26.53771 h 20.19159 v 26.53771 h -20.19159"
       style="fill:#ffffff;fill-opacity:1;fill-rule:nonzero;stroke:none;stroke-width:0.03527778"
       id="path334"
       inkscape:connector-curvature="0" />
    <path
       d="m 111.76884,196.7452 h 19.75133 v -26.09744 h -19.75133 z m 20.19159,0.44027 H 111.32858 V 170.2075 h 20.63185 v 26.97797"
       style="fill:#2e6096;fill-opacity:1;fill-rule:nonzero;stroke:none;stroke-width:0.03527778"
       id="path336"
       inkscape:connector-curvature="0" />
    <path
       d="m 126.33186,171.83521 v -1.08161 c 0,-0.35913 -0.29033,-0.64982 -0.64875,-0.64982 h -8.0772 c -0.35843,0 -0.64841,0.29069 -0.64841,0.64982 v 1.08161 h 9.37436"
       style="fill:#e53a23;fill-opacity:1;fill-rule:nonzero;stroke:none;stroke-width:0.03527778"
       id="path338"
       inkscape:connector-curvature="0" />
    <path
       d="m 126.33186,171.36461 v -1.08162 c 0,-0.35842 -0.29033,-0.64911 -0.64875,-0.64911 h -8.0772 c -0.35843,0 -0.64841,0.29069 -0.64841,0.64911 v 1.08162 h 9.37436"
       style="fill:#f2552d;fill-opacity:1;fill-rule:nonzero;stroke:none;stroke-width:0.03527778"
       id="path340"
       inkscape:connector-curvature="0" />
    <path
       d="m 123.15898,169.56226 c 0,0.83644 -0.67804,1.51448 -1.51483,1.51448 -0.83643,0 -1.51412,-0.67804 -1.51412,-1.51448 0,-0.83643 0.67769,-1.51447 1.51412,-1.51447 0.83679,0 1.51483,0.67805 1.51483,1.51447"
       style="fill:#f2552d;fill-opacity:1;fill-rule:nonzero;stroke:none;stroke-width:0.03527778"
       id="path342"
       inkscape:connector-curvature="0" />
    <path
       d="m 122.29326,169.56226 c 0,0.35843 -0.28998,0.64912 -0.64911,0.64912 -0.35807,0 -0.64876,-0.29069 -0.64876,-0.64912 0,-0.35842 0.29069,-0.64911 0.64876,-0.64911 0.35913,0 0.64911,0.29069 0.64911,0.64911"
       style="fill:#9cdee4;fill-opacity:1;fill-rule:nonzero;stroke:none;stroke-width:0.03527778"
       id="path344"
       inkscape:connector-curvature="0" />
    <path
       d="m 121.17355,175.42931 h 8.01546"
       style="fill:#ffffff;fill-opacity:1;fill-rule:nonzero;stroke:none;stroke-width:0.03527778"
       id="path346"
       inkscape:connector-curvature="0" />
    <path
       d="m 129.18901,175.64945 h -8.01546 v -0.44027 h 8.01546 v 0.44027"
       style="fill:#2e6096;fill-opacity:1;fill-rule:nonzero;stroke:none;stroke-width:0.03527778"
       id="path348"
       inkscape:connector-curvature="0" />
    <path
       d="m 121.17355,177.30045 h 8.01546"
       style="fill:#ffffff;fill-opacity:1;fill-rule:nonzero;stroke:none;stroke-width:0.03527778"
       id="path350"
       inkscape:connector-curvature="0" />
    <path
       d="m 129.18901,177.52058 h -8.01546 v -0.44026 h 8.01546 v 0.44026"
       style="fill:#2e6096;fill-opacity:1;fill-rule:nonzero;stroke:none;stroke-width:0.03527778"
       id="path352"
       inkscape:connector-curvature="0" />
    <path
       d="m 121.17355,179.17193 h 8.01546"
       style="fill:#ffffff;fill-opacity:1;fill-rule:nonzero;stroke:none;stroke-width:0.03527778"
       id="path354"
       inkscape:connector-curvature="0" />
    <path
       d="m 129.18901,179.39206 h -8.01546 v -0.44026 h 8.01546 v 0.44026"
       style="fill:#2e6096;fill-opacity:1;fill-rule:nonzero;stroke:none;stroke-width:0.03527778"
       id="path356"
       inkscape:connector-curvature="0" />
    <path
       d="m 121.17355,181.04342 h 8.01546"
       style="fill:#ffffff;fill-opacity:1;fill-rule:nonzero;stroke:none;stroke-width:0.03527778"
       id="path358"
       inkscape:connector-curvature="0" />
    <path
       d="m 129.18901,181.26355 h -8.01546 v -0.44027 h 8.01546 v 0.44027"
       style="fill:#2e6096;fill-opacity:1;fill-rule:nonzero;stroke:none;stroke-width:0.03527778"
       id="path360"
       inkscape:connector-curvature="0" />
    <path
       d="m 113.73699,182.91455 h 15.45202"
       style="fill:#ffffff;fill-opacity:1;fill-rule:nonzero;stroke:none;stroke-width:0.03527778"
       id="path362"
       inkscape:connector-curvature="0" />
    <path
       d="m 129.18901,183.13468 h -15.45202 v -0.44026 h 15.45202 v 0.44026"
       style="fill:#2e6096;fill-opacity:1;fill-rule:nonzero;stroke:none;stroke-width:0.03527778"
       id="path364"
       inkscape:connector-curvature="0" />
    <path
       d="m 113.73699,184.78604 h 15.45202"
       style="fill:#ffffff;fill-opacity:1;fill-rule:nonzero;stroke:none;stroke-width:0.03527778"
       id="path366"
       inkscape:connector-curvature="0" />
    <path
       d="m 129.18901,185.00617 h -15.45202 v -0.44027 h 15.45202 v 0.44027"
       style="fill:#2e6096;fill-opacity:1;fill-rule:nonzero;stroke:none;stroke-width:0.03527778"
       id="path368"
       inkscape:connector-curvature="0" />
    <path
       d="m 113.73699,186.65717 h 15.45202"
       style="fill:#ffffff;fill-opacity:1;fill-rule:nonzero;stroke:none;stroke-width:0.03527778"
       id="path370"
       inkscape:connector-curvature="0" />
    <path
       d="m 129.18901,186.8773 h -15.45202 v -0.44026 h 15.45202 v 0.44026"
       style="fill:#2e6096;fill-opacity:1;fill-rule:nonzero;stroke:none;stroke-width:0.03527778"
       id="path372"
       inkscape:connector-curvature="0" />
    <path
       d="m 113.73699,188.52866 h 15.45202"
       style="fill:#ffffff;fill-opacity:1;fill-rule:nonzero;stroke:none;stroke-width:0.03527778"
       id="path374"
       inkscape:connector-curvature="0" />
    <path
       d="m 129.18901,188.74879 h -15.45202 v -0.44027 h 15.45202 v 0.44027"
       style="fill:#2e6096;fill-opacity:1;fill-rule:nonzero;stroke:none;stroke-width:0.03527778"
       id="path376"
       inkscape:connector-curvature="0" />
    <path
       d="m 113.73699,190.39979 h 15.45202"
       style="fill:#ffffff;fill-opacity:1;fill-rule:nonzero;stroke:none;stroke-width:0.03527778"
       id="path378"
       inkscape:connector-curvature="0" />
    <path
       d="m 129.18901,190.61992 h -15.45202 v -0.44026 h 15.45202 v 0.44026"
       style="fill:#2e6096;fill-opacity:1;fill-rule:nonzero;stroke:none;stroke-width:0.03527778"
       id="path380"
       inkscape:connector-curvature="0" />
    <path
       d="m 113.73699,192.27128 h 10.553"
       style="fill:#ffffff;fill-opacity:1;fill-rule:nonzero;stroke:none;stroke-width:0.03527778"
       id="path382"
       inkscape:connector-curvature="0" />
    <path
       d="m 124.28999,192.49141 h -10.553 v -0.44027 h 10.553 v 0.44027"
       style="fill:#2e6096;fill-opacity:1;fill-rule:nonzero;stroke:none;stroke-width:0.03527778"
       id="path384"
       inkscape:connector-curvature="0" />
    <path
       d="m 119.88026,181.3073 h -6.08541 v -6.08542 h 6.08541 v 6.08542"
       style="fill:#9cdee4;fill-opacity:1;fill-rule:nonzero;stroke:none;stroke-width:0.03527778"
       id="path386"
       inkscape:connector-curvature="0" />
    <path
       d="m 119.07205,180.06481 c -0.51188,-0.24447 -1.06257,-0.39899 -1.62243,-0.46637 0.0187,-0.13159 0.0374,-0.26564 0.0572,-0.39864 0.12383,-0.0794 0.21344,-0.1965 0.22084,-0.29457 0.0148,-0.12418 0.0293,-0.24659 0.0438,-0.37042 0.0173,0.018 0.0406,0.0307 0.067,0.0339 0.0589,0.006 0.11183,-0.037 0.11782,-0.0967 l 0.0589,-0.56903 c 0.006,-0.06 -0.0367,-0.11183 -0.0956,-0.11783 -0.0222,-0.002 -0.0441,0.002 -0.0635,0.0127 0.0131,-0.10901 0.0265,-0.21696 0.0385,-0.32596 0.01,-0.14782 0.084,-0.54399 -0.20214,-0.7994 -0.41452,-0.40605 -1.32539,-0.40605 -1.7392,0 -0.2861,0.25541 -0.21237,0.65158 -0.20285,0.7994 0.0124,0.109 0.0258,0.21695 0.0385,0.32596 -0.0183,-0.0102 -0.0406,-0.0148 -0.0639,-0.0127 -0.0579,0.006 -0.10195,0.0579 -0.0953,0.11783 l 0.0586,0.56903 c 0.007,0.0596 0.0593,0.10231 0.11782,0.0967 0.0268,-0.003 0.0501,-0.0159 0.0677,-0.0339 0.0145,0.12383 0.0286,0.24624 0.042,0.37042 0.009,0.0981 0.0981,0.21521 0.22366,0.29457 0.0183,0.133 0.0363,0.2667 0.0557,0.39864 -0.55986,0.0674 -1.11055,0.2219 -1.62454,0.46637 -0.16546,0.0868 -0.28117,0.31186 -0.26388,0.48648 0.0187,0.20073 0.0395,0.40076 0.06,0.60078 0.018,0.17463 0.16757,0.34819 0.33337,0.37924 1.40794,0.22578 2.83634,0.22578 4.24427,0 0.16652,-0.031 0.31574,-0.20461 0.33408,-0.37924 0.0201,-0.20002 0.0399,-0.40005 0.0593,-0.60078 0.0169,-0.17462 -0.0984,-0.39968 -0.26564,-0.48648"
       style="fill:#ffffff;fill-opacity:1;fill-rule:nonzero;stroke:none;stroke-width:0.03527778"
       id="path388"
       inkscape:connector-curvature="0" />
    <path
       d="m 131.7403,193.48377 -3.48156,3.48158 v -3.48158 z"
       style="fill:#f2552d;fill-opacity:1;fill-rule:nonzero;stroke:none;stroke-width:0.03527778"
       id="path390"
       inkscape:connector-curvature="0" />
  </g>
</svg>
