<?xml version="1.0" encoding="UTF-8" standalone="no"?>
<svg
   xmlns:dc="http://purl.org/dc/elements/1.1/"
   xmlns:cc="http://creativecommons.org/ns#"
   xmlns:rdf="http://www.w3.org/1999/02/22-rdf-syntax-ns#"
   xmlns:svg="http://www.w3.org/2000/svg"
   xmlns="http://www.w3.org/2000/svg"
   xmlns:sodipodi="http://sodipodi.sourceforge.net/DTD/sodipodi-0.dtd"
   xmlns:inkscape="http://www.inkscape.org/namespaces/inkscape"
   width="250"
   height="250"
   viewBox="0 0 66.145833 66.145831"
   version="1.1"
   id="svg1034"
   inkscape:version="1.0.1 (3bc2e813f5, 2020-09-07)"
   sodipodi:docname="lab_large.svg"
   inkscape:export-filename="C:\Users\keega\Documents\cannlytics\assets\images\illustrations\multi-tone\lab_large.png"
   inkscape:export-xdpi="96"
   inkscape:export-ydpi="96">
  <defs
     id="defs1028">
    <clipPath
       clipPathUnits="userSpaceOnUse"
       id="clipPath1824">
      <path
         d="m 466.283,741.164 h 63.482 v -19.581 h -63.482 z"
         id="path1822"
         inkscape:connector-curvature="0" />
    </clipPath>
    <filter
       inkscape:collect="always"
       style="color-interpolation-filters:sRGB"
       id="filter884"
       x="-5.9231945e-05"
       width="1.0001185"
       y="-6.6475472e-05"
       height="1.000133">
      <feGaussianBlur
         inkscape:collect="always"
         stdDeviation="0.0014691907"
         id="feGaussianBlur886" />
    </filter>
  </defs>
  <sodipodi:namedview
     id="base"
     pagecolor="#323443"
     bordercolor="#666666"
     borderopacity="1.0"
     inkscape:pageopacity="0"
     inkscape:pageshadow="2"
     inkscape:zoom="1.979899"
     inkscape:cx="-12.355217"
     inkscape:cy="135.46201"
     inkscape:document-units="mm"
     inkscape:current-layer="layer1"
     inkscape:document-rotation="0"
     showgrid="false"
     inkscape:window-width="1920"
     inkscape:window-height="1120"
     inkscape:window-x="-11"
     inkscape:window-y="-11"
     inkscape:window-maximized="1"
     units="px" />
  <metadata
     id="metadata1031">
    <rdf:RDF>
      <cc:Work
         rdf:about="">
        <dc:format>image/svg+xml</dc:format>
        <dc:type
           rdf:resource="http://purl.org/dc/dcmitype/StillImage" />
        <dc:title></dc:title>
      </cc:Work>
    </rdf:RDF>
  </metadata>
  <g
     inkscape:label="Layer 1"
     inkscape:groupmode="layer"
     id="layer1"
     transform="translate(-75.677204,-103.57435)"
     style="filter:url(#filter884)">
    <path
       fill="#f6e2ee"
       d="M 99.884256,129.77978 H 84.510002 a 5.5178243,5.5178243 0 1 0 0,11.03564 h 15.375584 a 5.5178243,5.5178243 0 0 0 0,-11.03564 z m 33.112874,-9.65934 h -5.85047 a 5.517825,5.517825 0 1 0 0,11.03565 h 5.85047 a 5.517825,5.517825 0 1 0 0,-11.03565 z m -1.65804,26.82457 h -9.83194 a 5.517825,5.517825 0 0 0 0,11.03565 h 9.83194 a 5.517825,5.517825 0 1 0 0,-11.03565 z"
       id="path2"
       style="stroke-width:0.66137;filter:url(#filter2984)" />
    <path
       fill="#cf95c2"
       d="m 126.42311,128.91998 a 1.4351758,1.4351758 0 0 0 -1.43517,1.43519 v 2.12565 h 2.87035 v -2.12565 a 1.4351758,1.4351758 0 0 0 -1.43518,-1.43519 z"
       id="path10"
       style="stroke-width:0.66137;filter:url(#filter2984)" />
    <circle
       cx="92.319473"
       cy="115.05567"
       r="1.25396"
       fill="#f3765d"
       id="circle22"
       style="stroke-width:0.66137;filter:url(#filter2984)" />
    <circle
       cx="82.724976"
       cy="148.79091"
       r="1.8379509"
       fill="#d2edf6"
       id="circle24"
       style="stroke-width:0.66137;filter:url(#filter2984)" />
    <circle
       cx="122.15791"
       cy="111.96372"
       r="1.8379509"
       fill="#dfebf8"
       id="circle26"
       style="stroke-width:0.66137;filter:url(#filter2984)" />
    <circle
       cx="135.38467"
       cy="139.05023"
       r="0.8769784"
       fill="#fdbe5c"
       id="circle28"
       style="stroke-width:0.66137;filter:url(#filter2984)" />
    <circle
       cx="98.535049"
       cy="158.26503"
       r="2.8141353"
       fill="#fdddd6"
       id="circle30"
       style="stroke-width:0.66137;filter:url(#filter2984)" />
    <path
       d="M 132.90772,162.67983 H 86.922751 v -40.82012 h 45.984969 z"
       style="fill:#84aacf;fill-opacity:1;fill-rule:nonzero;stroke:none;stroke-width:0.234617"
       id="path2010"
       inkscape:connector-curvature="0" />
    <path
       d="m 97.439698,138.18343 h -7.038044 v -7.03804 h 7.038044 z"
       style="fill:#fd3977;fill-opacity:1;fill-rule:nonzero;stroke:none;stroke-width:0.234617"
       id="path2012"
       inkscape:connector-curvature="0" />
    <path
       d="m 107.99699,138.18343 h -7.03826 v -7.03804 h 7.03826 z"
       style="fill:#594a83;fill-opacity:1;fill-rule:nonzero;stroke:none;stroke-width:0.234617"
       id="path2014"
       inkscape:connector-curvature="0" />
    <path
       d="m 118.55406,138.18343 h -7.03828 v -7.03804 h 7.03828 z"
       style="fill:#594a83;fill-opacity:1;fill-rule:nonzero;stroke:none;stroke-width:0.234617"
       id="path2016"
       inkscape:connector-curvature="0" />
    <path
       d="m 129.11114,138.18343 h -7.03805 v -7.03804 h 7.03805 z"
       style="fill:#fd3976;fill-opacity:1;fill-rule:nonzero;stroke:none;stroke-width:0.234617"
       id="path2018"
       inkscape:connector-curvature="0" />
    <path
       d="M 107.99699,148.38881 H 90.049728 v -6.3342 h 17.947262 z"
       style="fill:#ffec9e;fill-opacity:1;fill-rule:nonzero;stroke:none;stroke-width:0.234617"
       id="path2020"
       inkscape:connector-curvature="0" />
    <path
       d="m 129.11137,148.38881 h -17.9475 v -6.3342 h 17.9475 z"
       style="fill:#ffec9e;fill-opacity:1;fill-rule:nonzero;stroke:none;stroke-width:0.234617"
       id="path2022"
       inkscape:connector-curvature="0" />
    <path
       d="M 96.184966,137.01692 H 91.64888 v -4.5361 h 4.536086 z"
       style="fill:#ffffff;fill-opacity:1;fill-rule:nonzero;stroke:none;stroke-width:0.234617"
       id="path2024"
       inkscape:connector-curvature="0" />
    <path
       d="m 106.74274,137.01692 h -4.53609 v -4.5361 h 4.53609 z"
       style="fill:#ffffff;fill-opacity:1;fill-rule:nonzero;stroke:none;stroke-width:0.234617"
       id="path2026"
       inkscape:connector-curvature="0" />
    <path
       d="m 117.30051,137.01692 h -4.53608 v -4.5361 h 4.53608 z"
       style="fill:#ffffff;fill-opacity:1;fill-rule:nonzero;stroke:none;stroke-width:0.234617"
       id="path2028"
       inkscape:connector-curvature="0" />
    <path
       d="m 127.85829,137.01692 h -4.5361 v -4.5361 h 4.5361 z"
       style="fill:#ffffff;fill-opacity:1;fill-rule:nonzero;stroke:none;stroke-width:0.234617"
       id="path2030"
       inkscape:connector-curvature="0" />
    <path
       d="M 135.95656,128.09912 H 83.874136 v -6.57256 h 52.082424 z"
       style="fill:#640981;fill-opacity:1;fill-rule:nonzero;stroke:none;stroke-width:0.234617"
       id="path2032"
       inkscape:connector-curvature="0" />
    <path
       d="M 120.64851,163.16876 H 99.182196 v -12.66839 h 21.466314 z"
       style="fill:#594982;fill-opacity:1;fill-rule:nonzero;stroke:none;stroke-width:0.234617"
       id="path2036"
       inkscape:connector-curvature="0" />
    <g
       id="g2038"
       transform="matrix(0.23461715,0,0,-0.23461715,118.55158,156.14958)">
      <path
         d="m 0,0 c 0,-2.209 -1.791,-4 -4,-4 -2.209,0 -4,1.791 -4,4 0,2.209 1.791,4 4,4 2.209,0 4,-1.791 4,-4"
         style="fill:#152c47;fill-opacity:1;fill-rule:nonzero;stroke:none"
         id="path2040"
         inkscape:connector-curvature="0" />
    </g>
    <g
       id="g2074"
       transform="matrix(0.23461715,0,0,-0.23461715,127.76031,145.42361)">
      <path
         d="m 0,0 c 0,-4.694 -3.805,-8.5 -8.5,-8.5 -4.693,0 -8.5,3.806 -8.5,8.5 0,4.694 3.807,8.5 8.5,8.5 C -3.805,8.5 0,4.694 0,0"
         style="fill:#594a83;fill-opacity:1;fill-rule:nonzero;stroke:none"
         id="path2076"
         inkscape:connector-curvature="0" />
    </g>
    <g
       id="g2078"
       transform="matrix(0.23461715,0,0,-0.23461715,126.76319,145.42361)">
      <path
         d="m 0,0 c 0,-2.348 -1.902,-4.25 -4.25,-4.25 -2.347,0 -4.25,1.902 -4.25,4.25 0,2.348 1.903,4.25 4.25,4.25 C -1.902,4.25 0,2.348 0,0"
         style="fill:#84aacf;fill-opacity:1;fill-rule:nonzero;stroke:none"
         id="path2080"
         inkscape:connector-curvature="0" />
    </g>
    <g
       id="g2082"
       transform="matrix(0.23461715,0,0,-0.23461715,121.89487,145.42361)">
      <path
         d="m 0,0 c 0,-4.694 -3.805,-8.5 -8.5,-8.5 -4.693,0 -8.5,3.806 -8.5,8.5 0,4.694 3.807,8.5 8.5,8.5 C -3.805,8.5 0,4.694 0,0"
         style="fill:#594a83;fill-opacity:1;fill-rule:nonzero;stroke:none"
         id="path2084"
         inkscape:connector-curvature="0" />
    </g>
    <g
       id="g2086"
       transform="matrix(0.23461715,0,0,-0.23461715,120.89776,145.42361)">
      <path
         d="m 0,0 c 0,-2.348 -1.902,-4.25 -4.25,-4.25 -2.347,0 -4.25,1.902 -4.25,4.25 0,2.348 1.903,4.25 4.25,4.25 C -1.902,4.25 0,2.348 0,0"
         style="fill:#84aacf;fill-opacity:1;fill-rule:nonzero;stroke:none"
         id="path2088"
         inkscape:connector-curvature="0" />
    </g>
    <g
       id="g2090"
       transform="matrix(0.23461715,0,0,-0.23461715,116.02945,145.42361)">
      <path
         d="m 0,0 c 0,-4.694 -3.805,-8.5 -8.5,-8.5 -4.693,0 -8.5,3.806 -8.5,8.5 0,4.694 3.807,8.5 8.5,8.5 C -3.805,8.5 0,4.694 0,0"
         style="fill:#594a83;fill-opacity:1;fill-rule:nonzero;stroke:none"
         id="path2092"
         inkscape:connector-curvature="0" />
    </g>
    <g
       id="g2094"
       transform="matrix(0.23461715,0,0,-0.23461715,115.03232,145.42361)">
      <path
         d="m 0,0 c 0,-2.348 -1.902,-4.25 -4.25,-4.25 -2.347,0 -4.25,1.902 -4.25,4.25 0,2.348 1.903,4.25 4.25,4.25 C -1.902,4.25 0,2.348 0,0"
         style="fill:#84aacf;fill-opacity:1;fill-rule:nonzero;stroke:none"
         id="path2096"
         inkscape:connector-curvature="0" />
    </g>
    <g
       id="g2098"
       transform="matrix(0.23461715,0,0,-0.23461715,106.87937,145.42361)">
      <path
         d="m 0,0 c 0,-4.694 -3.805,-8.5 -8.5,-8.5 -4.693,0 -8.5,3.806 -8.5,8.5 0,4.694 3.807,8.5 8.5,8.5 C -3.805,8.5 0,4.694 0,0"
         style="fill:#594a83;fill-opacity:1;fill-rule:nonzero;stroke:none"
         id="path2100"
         inkscape:connector-curvature="0" />
    </g>
    <g
       id="g2102"
       transform="matrix(0.23461715,0,0,-0.23461715,105.88225,145.42361)">
      <path
         d="m 0,0 c 0,-2.348 -1.902,-4.25 -4.25,-4.25 -2.347,0 -4.25,1.902 -4.25,4.25 0,2.348 1.903,4.25 4.25,4.25 C -1.902,4.25 0,2.348 0,0"
         style="fill:#84aacf;fill-opacity:1;fill-rule:nonzero;stroke:none"
         id="path2104"
         inkscape:connector-curvature="0" />
    </g>
    <g
       id="g2106"
       transform="matrix(0.23461715,0,0,-0.23461715,101.01397,145.42361)">
      <path
         d="m 0,0 c 0,-4.694 -3.805,-8.5 -8.5,-8.5 -4.693,0 -8.5,3.806 -8.5,8.5 0,4.694 3.807,8.5 8.5,8.5 C -3.805,8.5 0,4.694 0,0"
         style="fill:#594a83;fill-opacity:1;fill-rule:nonzero;stroke:none"
         id="path2108"
         inkscape:connector-curvature="0" />
    </g>
    <g
       id="g2110"
       transform="matrix(0.23461715,0,0,-0.23461715,100.01683,145.42361)">
      <path
         d="m 0,0 c 0,-2.348 -1.902,-4.25 -4.25,-4.25 -2.347,0 -4.25,1.902 -4.25,4.25 0,2.348 1.903,4.25 4.25,4.25 C -1.902,4.25 0,2.348 0,0"
         style="fill:#84aacf;fill-opacity:1;fill-rule:nonzero;stroke:none"
         id="path2112"
         inkscape:connector-curvature="0" />
    </g>
    <g
       id="g2114"
       transform="matrix(0.23461715,0,0,-0.23461715,95.148513,145.42361)">
      <path
         d="m 0,0 c 0,-4.694 -3.805,-8.5 -8.5,-8.5 -4.693,0 -8.5,3.806 -8.5,8.5 0,4.694 3.807,8.5 8.5,8.5 C -3.805,8.5 0,4.694 0,0"
         style="fill:#594a83;fill-opacity:1;fill-rule:nonzero;stroke:none"
         id="path2116"
         inkscape:connector-curvature="0" />
    </g>
    <g
       id="g2118"
       transform="matrix(0.23461715,0,0,-0.23461715,94.151411,145.42361)">
      <path
         d="m 0,0 c 0,-2.348 -1.902,-4.25 -4.25,-4.25 -2.347,0 -4.25,1.902 -4.25,4.25 0,2.348 1.903,4.25 4.25,4.25 C -1.902,4.25 0,2.348 0,0"
         style="fill:#84aacf;fill-opacity:1;fill-rule:nonzero;stroke:none"
         id="path2120"
         inkscape:connector-curvature="0" />
    </g>
  </g>
</svg>
