<?xml version="1.0" encoding="UTF-8" standalone="no"?>
<!-- Created with Inkscape (http://www.inkscape.org/) -->

<svg
   xmlns:dc="http://purl.org/dc/elements/1.1/"
   xmlns:cc="http://creativecommons.org/ns#"
   xmlns:rdf="http://www.w3.org/1999/02/22-rdf-syntax-ns#"
   xmlns:svg="http://www.w3.org/2000/svg"
   xmlns="http://www.w3.org/2000/svg"
   xmlns:sodipodi="http://sodipodi.sourceforge.net/DTD/sodipodi-0.dtd"
   xmlns:inkscape="http://www.inkscape.org/namespaces/inkscape"
   width="150"
   height="150"
   viewBox="0 0 39.687499 39.687499"
   version="1.1"
   id="svg1987"
   inkscape:version="0.92.4 (5da689c313, 2019-01-14)"
   sodipodi:docname="two_tone_dialog.svg"
   inkscape:export-filename="C:\Users\Keegan\repos\cannlytics-website\assets\images\lab_icons\two_tone_dialog.png"
   inkscape:export-xdpi="96"
   inkscape:export-ydpi="96">
  <defs
     id="defs1981">
    <clipPath
       clipPathUnits="userSpaceOnUse"
       id="clipPath238">
      <path
         d="m 5440.09,7219.29 -0.38,257.5 257.5,0.38 0.38,-257.49 z"
         id="path236"
         inkscape:connector-curvature="0" />
    </clipPath>
  </defs>
  <sodipodi:namedview
     id="base"
     pagecolor="#ffffff"
     bordercolor="#666666"
     borderopacity="1.0"
     inkscape:pageopacity="0.0"
     inkscape:pageshadow="2"
     inkscape:zoom="1.979899"
     inkscape:cx="-15.542558"
     inkscape:cy="57.366681"
     inkscape:document-units="mm"
     inkscape:current-layer="layer1"
     showgrid="false"
     fit-margin-top="0"
     fit-margin-left="0"
     fit-margin-right="0"
     fit-margin-bottom="0"
     units="px"
     inkscape:window-width="1636"
     inkscape:window-height="912"
     inkscape:window-x="2593"
     inkscape:window-y="54"
     inkscape:window-maximized="0" />
  <metadata
     id="metadata1984">
    <rdf:RDF>
      <cc:Work
         rdf:about="">
        <dc:format>image/svg+xml</dc:format>
        <dc:type
           rdf:resource="http://purl.org/dc/dcmitype/StillImage" />
        <dc:title></dc:title>
      </cc:Work>
    </rdf:RDF>
  </metadata>
  <g
     inkscape:label="Layer 1"
     inkscape:groupmode="layer"
     id="layer1"
     transform="translate(-101.80076,-164.15401)">
    <path
       d="m 137.46405,190.21829 c 0,0.63605 -0.47942,1.14935 -1.07209,1.14935 h -2.07821 v 4.31164 l -5.09305,-4.31164 h -13.26374 c -0.59302,0 -1.0728,-0.5133 -1.0728,-1.14935 v -13.04784 c 0,-0.63606 0.47978,-1.15006 1.0728,-1.15006 h 20.435 c 0.59267,0 1.07209,0.514 1.07209,1.15006 v 13.04784"
       style="fill:#9cdee4;fill-opacity:1;fill-rule:nonzero;stroke:none;stroke-width:0.03527778"
       id="path736"
       inkscape:connector-curvature="0" />
    <path
       d="m 115.95696,176.37317 c -0.39688,0 -0.72002,0.35772 -0.72002,0.79728 v 13.04784 c 0,0.4392 0.32314,0.79658 0.72002,0.79658 h 13.39285 l 4.61116,3.90348 v -3.90348 h 2.43099 c 0.39652,0 0.71932,-0.35738 0.71932,-0.79658 v -13.04784 c 0,-0.43956 -0.3228,-0.79728 -0.71932,-0.79728 z m 18.70957,20.06741 -5.57495,-4.72017 h -13.13462 c -0.78599,0 -1.42558,-0.6738 -1.42558,-1.50212 v -13.04784 c 0,-0.82868 0.63959,-1.50284 1.42558,-1.50284 h 20.435 c 0.78599,0 1.42487,0.67416 1.42487,1.50284 v 13.04784 c 0,0.82832 -0.63888,1.50212 -1.42487,1.50212 h -1.72543 v 4.72017"
       style="fill:#2e6096;fill-opacity:1;fill-rule:nonzero;stroke:none;stroke-width:0.03527778"
       id="path738"
       inkscape:connector-curvature="0" />
    <path
       d="m 105.82497,186.1056 c 0,0.63535 0.47963,1.14935 1.0723,1.14935 h 2.07786 v 4.31165 l 5.0927,-4.31164 h 13.26409 c 0.59338,0 1.07351,-0.514 1.07351,-1.14935 v -13.0489 c 0,-0.635 -0.48013,-1.14899 -1.07351,-1.14899 h -20.43465 c -0.59267,0 -1.0723,0.51399 -1.0723,1.14899 v 13.0489"
       style="fill:#ffffff;fill-opacity:1;fill-rule:nonzero;stroke:none;stroke-width:0.03527778"
       id="path740"
       inkscape:connector-curvature="0" />
    <path
       d="m 106.89727,172.26049 c -0.39652,0 -0.71931,0.35701 -0.71931,0.79621 v 13.0489 c 0,0.43921 0.32279,0.79657 0.71931,0.79657 h 2.43064 v 3.90349 l 4.61081,-3.90349 h 13.3932 c 0.39758,0 0.72073,-0.35736 0.72073,-0.79657 v -13.0489 c 0,-0.4392 -0.32315,-0.79621 -0.72073,-0.79621 z m 1.72508,20.06705 v -4.71981 h -1.72508 c -0.78595,0 -1.42508,-0.67416 -1.42508,-1.50213 v -13.0489 c 0,-0.82796 0.63913,-1.50177 1.42508,-1.50177 h 20.43465 c 0.7867,0 1.42628,0.67381 1.42628,1.50177 v 13.0489 c 0,0.82797 -0.63958,1.50213 -1.42628,1.50213 h -13.13497 l -5.5746,4.71981"
       style="fill:#2e6096;fill-opacity:1;fill-rule:nonzero;stroke:none;stroke-width:0.03527778"
       id="path742"
       inkscape:connector-curvature="0" />
    <path
       d="m 125.02264,177.08754 h -15.81503 v -0.98671 h 15.81503 v 0.98671"
       style="fill:#2e6096;fill-opacity:1;fill-rule:nonzero;stroke:none;stroke-width:0.03527778"
       id="path744"
       inkscape:connector-curvature="0" />
    <path
       d="m 125.02264,180.21386 h -15.81503 v -0.98742 h 15.81503 v 0.98742"
       style="fill:#2e6096;fill-opacity:1;fill-rule:nonzero;stroke:none;stroke-width:0.03527778"
       id="path746"
       inkscape:connector-curvature="0" />
    <path
       d="m 121.51815,183.33912 h -12.31054 v -0.98672 h 12.31054 v 0.98672"
       style="fill:#2e6096;fill-opacity:1;fill-rule:nonzero;stroke:none;stroke-width:0.03527778"
       id="path748"
       inkscape:connector-curvature="0" />
  </g>
</svg>
