<?xml version="1.0" encoding="UTF-8" standalone="no"?>
<svg
   xmlns:dc="http://purl.org/dc/elements/1.1/"
   xmlns:cc="http://creativecommons.org/ns#"
   xmlns:rdf="http://www.w3.org/1999/02/22-rdf-syntax-ns#"
   xmlns:svg="http://www.w3.org/2000/svg"
   xmlns="http://www.w3.org/2000/svg"
   xmlns:sodipodi="http://sodipodi.sourceforge.net/DTD/sodipodi-0.dtd"
   xmlns:inkscape="http://www.inkscape.org/namespaces/inkscape"
   width="541"
   height="163"
   viewBox="0 0 143.13959 43.127083"
   version="1.1"
   id="svg2601"
   sodipodi:docname="new-and-exclusive-ribbon.svg"
   inkscape:version="1.0.1 (3bc2e813f5, 2020-09-07)"
   inkscape:export-filename="C:\Users\keega\OneDrive\Cannlytics\assets\images\decoration\new-and-exclusive-ribbon.png"
   inkscape:export-xdpi="96"
   inkscape:export-ydpi="96">
  <defs
     id="defs2595">
    <inkscape:path-effect
       effect="skeletal"
       id="path-effect3352"
       is_visible="true"
       lpeversion="1"
       pattern="m -6.8508184,11.151563 c 0,-2.7600005 2.24,-5.0000005 4.9999999,-5.0000005 2.76000003,0 5.0000001,2.24 5.0000001,5.0000005 0,2.76 -2.24000007,5 -5.0000001,5 -2.7599999,0 -4.9999999,-2.24 -4.9999999,-5 z"
       copytype="single_stretched"
       prop_scale="0.0054950446"
       scale_y_rel="false"
       spacing="0"
       normal_offset="0"
       tang_offset="0"
       prop_units="false"
       vertical_pattern="false"
       hide_knot="false"
       fuse_tolerance="0" />
    <inkscape:path-effect
       effect="skeletal"
       id="path-effect3348"
       is_visible="true"
       lpeversion="1"
       pattern="M 0,5 C 0,2.24 2.24,0 5,0 7.76,0 10,2.24 10,5 10,7.76 7.76,10 5,10 2.24,10 0,7.76 0,5 Z"
       copytype="single_stretched"
       prop_scale="1"
       scale_y_rel="false"
       spacing="0"
       normal_offset="0"
       tang_offset="0"
       prop_units="false"
       vertical_pattern="false"
       hide_knot="false"
       fuse_tolerance="0" />
    <rect
       x="59.720238"
       y="94.683037"
       width="136.97974"
       height="45.406933"
       id="rect3342" />
    <clipPath
       clipPathUnits="userSpaceOnUse"
       id="clipPath478">
      <path
         d="m 564.59,4483.87 c -69.633,26.72 -139.246,58.66 -208.875,96.45 69.648,-37.8 139.285,-69.68 208.933,-96.39 -0.019,-0.02 -0.039,-0.04 -0.058,-0.06"
         id="path476" />
    </clipPath>
    <radialGradient
       fx="0"
       fy="0"
       cx="0"
       cy="0"
       r="1"
       gradientUnits="userSpaceOnUse"
       gradientTransform="matrix(4168.22,-4721.36,-4721.36,-4168.22,4478.23,4356.56)"
       spreadMethod="pad"
       id="radialGradient484">
      <stop
         style="stop-opacity:1;stop-color:#ffffff"
         offset="0"
         id="stop480" />
      <stop
         style="stop-opacity:1;stop-color:#cbbfce"
         offset="1"
         id="stop482" />
    </radialGradient>
    <clipPath
       clipPathUnits="userSpaceOnUse"
       id="clipPath496">
      <path
         d="m 946.652,4386.18 c -22.636,3.11 -45.312,6.66 -67.953,10.67 0.02,0.01 0.051,0.05 0.071,0.06 22.628,-4 45.253,-7.54 67.882,-10.64 0,-0.03 0,-0.06 0,-0.09"
         id="path494" />
    </clipPath>
    <radialGradient
       fx="0"
       fy="0"
       cx="0"
       cy="0"
       r="1"
       gradientUnits="userSpaceOnUse"
       gradientTransform="matrix(4168.22,-4721.36,-4721.36,-4168.22,4478.23,4356.56)"
       spreadMethod="pad"
       id="radialGradient502">
      <stop
         style="stop-opacity:1;stop-color:#ffffff"
         offset="0"
         id="stop498" />
      <stop
         style="stop-opacity:1;stop-color:#cbbfce"
         offset="1"
         id="stop500" />
    </radialGradient>
    <clipPath
       clipPathUnits="userSpaceOnUse"
       id="clipPath530">
      <path
         d="m 4411.63,3976.35 c -0.34,0.18 -0.68,0.37 -1.03,0.55 0.35,-0.18 0.68,-0.36 1.03,-0.55 v 0 m -12.18,6.55 c -0.18,0.1 -0.37,0.2 -0.55,0.29 0.17,-0.09 0.37,-0.2 0.55,-0.29 m -1.02,0.54 c -16.16,8.6 -32.33,16.88 -48.5,24.86 0,0 0,0.02 -0.01,0.02 16.18,-7.98 32.34,-16.27 48.51,-24.88"
         id="path528" />
    </clipPath>
    <radialGradient
       fx="0"
       fy="0"
       cx="0"
       cy="0"
       r="1"
       gradientUnits="userSpaceOnUse"
       gradientTransform="matrix(4168.22,-4721.36,-4721.36,-4168.22,4478.23,4356.56)"
       spreadMethod="pad"
       id="radialGradient536">
      <stop
         style="stop-opacity:1;stop-color:#ffffff"
         offset="0"
         id="stop532" />
      <stop
         style="stop-opacity:1;stop-color:#cbbfce"
         offset="1"
         id="stop534" />
    </radialGradient>
    <clipPath
       clipPathUnits="userSpaceOnUse"
       id="clipPath560">
      <path
         d="m 1587.42,4591.11 -0.13,0.14 c 314.43,45.83 628.86,138.4 943.29,222.35 0.02,-0.02 0.04,-0.04 0.06,-0.06 -49,-13.09 -97.97,-26.38 -146.97,-39.67 -265.43,-72.03 -530.81,-144.05 -796.25,-182.76"
         id="path558" />
    </clipPath>
    <radialGradient
       fx="0"
       fy="0"
       cx="0"
       cy="0"
       r="1"
       gradientUnits="userSpaceOnUse"
       gradientTransform="matrix(4168.22,-4721.36,-4721.36,-4168.22,4478.23,4356.56)"
       spreadMethod="pad"
       id="radialGradient566">
      <stop
         style="stop-opacity:1;stop-color:#ffffff"
         offset="0"
         id="stop562" />
      <stop
         style="stop-opacity:1;stop-color:#d0c2d4"
         offset="1"
         id="stop564" />
    </radialGradient>
    <clipPath
       clipPathUnits="userSpaceOnUse"
       id="clipPath578">
      <path
         d="m 2850.66,4893.86 c -0.01,0.01 -0.02,0.02 -0.03,0.03 22.36,5.1 44.71,10.05 67.07,14.83 -22.34,-4.8 -44.7,-9.76 -67.04,-14.86"
         id="path576" />
    </clipPath>
    <radialGradient
       fx="0"
       fy="0"
       cx="0"
       cy="0"
       r="1"
       gradientUnits="userSpaceOnUse"
       gradientTransform="matrix(4168.22,-4721.36,-4721.36,-4168.22,4478.23,4356.56)"
       spreadMethod="pad"
       id="radialGradient584">
      <stop
         style="stop-opacity:1;stop-color:#ffffff"
         offset="0"
         id="stop580" />
      <stop
         style="stop-opacity:1;stop-color:#d0c2d4"
         offset="1"
         id="stop582" />
    </radialGradient>
    <clipPath
       clipPathUnits="userSpaceOnUse"
       id="clipPath596">
      <path
         d="m 3820.77,4967.99 c -2.13,0.3 -4.29,0.59 -6.43,0.87 2.15,-0.28 4.29,-0.57 6.43,-0.87"
         id="path594" />
    </clipPath>
    <radialGradient
       fx="0"
       fy="0"
       cx="0"
       cy="0"
       r="1"
       gradientUnits="userSpaceOnUse"
       gradientTransform="matrix(4168.22,-4721.36,-4721.36,-4168.22,4478.23,4356.56)"
       spreadMethod="pad"
       id="radialGradient602">
      <stop
         style="stop-opacity:1;stop-color:#ffffff"
         offset="0"
         id="stop598" />
      <stop
         style="stop-opacity:1;stop-color:#d0c2d4"
         offset="1"
         id="stop600" />
    </radialGradient>
    <clipPath
       clipPathUnits="userSpaceOnUse"
       id="clipPath614">
      <path
         d="m 1212.84,4562.06 c -50.03,0 -100.13,1.75 -150.15,5.45 -0.05,0.05 -0.09,0.09 -0.14,0.14 50,-3.71 100.01,-5.36 150.01,-5.36 1.11,0 2.22,0 3.33,0.01 0.08,-0.08 0.15,-0.16 0.23,-0.24 -1.08,0 -2.2,0 -3.28,0"
         id="path612" />
    </clipPath>
    <radialGradient
       fx="0"
       fy="0"
       cx="0"
       cy="0"
       r="1"
       gradientUnits="userSpaceOnUse"
       gradientTransform="matrix(4168.22,-4721.36,-4721.36,-4168.22,4478.23,4356.56)"
       spreadMethod="pad"
       id="radialGradient620">
      <stop
         style="stop-opacity:1;stop-color:#ffffff"
         offset="0"
         id="stop616" />
      <stop
         style="stop-opacity:1;stop-color:#d0c2d4"
         offset="1"
         id="stop618" />
    </radialGradient>
  </defs>
  <sodipodi:namedview
     id="base"
     pagecolor="#ffffff"
     bordercolor="#666666"
     borderopacity="1.0"
     inkscape:pageopacity="0.0"
     inkscape:pageshadow="2"
     inkscape:zoom="1.4"
     inkscape:cx="195.84189"
     inkscape:cy="20.514156"
     inkscape:document-units="mm"
     inkscape:current-layer="layer1"
     inkscape:document-rotation="0"
     showgrid="false"
     inkscape:window-width="1920"
     inkscape:window-height="1094"
     inkscape:window-x="-11"
     inkscape:window-y="-11"
     inkscape:window-maximized="1"
     units="px" />
  <metadata
     id="metadata2598">
    <rdf:RDF>
      <cc:Work
         rdf:about="">
        <dc:format>image/svg+xml</dc:format>
        <dc:type
           rdf:resource="http://purl.org/dc/dcmitype/StillImage" />
        <dc:title></dc:title>
      </cc:Work>
    </rdf:RDF>
  </metadata>
  <g
     inkscape:label="Layer 1"
     inkscape:groupmode="layer"
     id="layer1"
     transform="translate(-54.702208,-130.40874)">
    <path
       d="m 54.73016,166.03818 c 12.580796,6.8273 25.162051,8.25182 37.742458,7.12434 0,-7.10141 0,-14.20248 0,-21.30354 -12.58076,1.12748 -25.161662,-0.29704 -37.742458,-7.1247 1.79765,4.52649 3.5953,8.94221 5.392949,13.25633 -1.797649,2.78694 -3.595299,5.47264 -5.392949,8.04757"
       style="fill:#76389f;fill-opacity:1;fill-rule:nonzero;stroke:none;stroke-width:0.0352777"
       id="path470" />
    <g
       id="g472"
       transform="matrix(0.03527778,0,0,-0.03527778,42.181326,306.31779)">
      <g
         id="g474"
         clip-path="url(#clipPath478)">
        <path
           d="m 564.59,4483.87 c -69.633,26.72 -139.246,58.66 -208.875,96.45 69.648,-37.8 139.285,-69.68 208.933,-96.39 -0.019,-0.02 -0.039,-0.04 -0.058,-0.06"
           style="fill:url(#radialGradient484);fill-opacity:1;fill-rule:nonzero;stroke:none"
           id="path486" />
      </g>
    </g>
    <path
       d="m 57.808005,152.37368 c -1.025948,-2.51283 -2.052037,-5.05636 -3.077845,-7.6394 v 0 0 c 2.456357,1.33315 4.912149,2.45992 7.368646,3.40254 -1.429032,1.41358 -2.859864,2.8254 -4.290801,4.23686"
       style="fill:#823ca2;fill-opacity:1;fill-rule:nonzero;stroke:none;stroke-width:0.0352777"
       id="path488" />
    <g
       id="g490"
       transform="matrix(0.03527778,0,0,-0.03527778,42.181326,306.31779)">
      <g
         id="g492"
         clip-path="url(#clipPath496)">
        <path
           d="m 946.652,4386.18 c -22.636,3.11 -45.312,6.66 -67.953,10.67 0.02,0.01 0.051,0.05 0.071,0.06 22.628,-4 45.253,-7.54 67.882,-10.64 0,-0.03 0,-0.06 0,-0.09"
           style="fill:url(#radialGradient502);fill-opacity:1;fill-rule:nonzero;stroke:none"
           id="path504" />
      </g>
    </g>
    <path
       d="m 63.143063,169.82595 c -2.04858,-0.74295 -4.096208,-1.60831 -6.144365,-2.61585 5.394043,-5.33435 10.801737,-10.65424 16.181175,-16.00341 0.798724,0.14147 1.598683,0.2667 2.397231,0.37642 v 0 c 0,1.9244 0,3.8481 0,5.7725 -4.138225,4.16313 -8.284069,8.3185 -12.434041,12.47034"
       style="fill:#823ca2;fill-opacity:1;fill-rule:nonzero;stroke:none;stroke-width:0.0352777"
       id="path506" />
    <path
       d="m 92.355497,173.17275 c 0.03916,-0.003 0.07796,-0.007 0.117121,-0.0102 v 0 c -0.03916,0.004 -0.07832,0.007 -0.117121,0.0102"
       style="fill:#dcd3df;fill-opacity:1;fill-rule:nonzero;stroke:none;stroke-width:0.0352777"
       id="path508" />
    <path
       d="m 84.983499,173.50895 c -3.533775,0 -7.068255,-0.24624 -10.602524,-0.80081 1.59826,-1.6009 3.195955,-3.20251 4.791922,-4.80553 4.433359,2.15335 8.866363,3.86503 13.299721,5.25991 -0.03916,0.004 -0.07796,0.007 -0.117121,0.0102 -2.457804,0.21732 -4.914548,0.3362 -7.371998,0.3362"
       style="fill:#823ca2;fill-opacity:1;fill-rule:nonzero;stroke:none;stroke-width:0.0352777"
       id="path510" />
    <path
       d="m 79.172897,167.90261 c -1.197328,-0.58138 -2.394409,-1.19522 -3.591913,-1.84362 0.295169,0.0406 0.59048,0.079 0.885508,0.11536 1.352091,0.16651 2.703935,0.28963 4.056133,0.37288 -0.449792,0.45191 -0.899584,0.90347 -1.349728,1.35538"
       style="fill:#552785;fill-opacity:1;fill-rule:nonzero;stroke:none;stroke-width:0.0352777"
       id="path512" />
    <path
       d="m 92.472618,173.16252 c -4.433358,-1.39488 -8.866362,-3.10656 -13.299721,-5.25991 0.450144,-0.45191 0.899936,-0.90347 1.349728,-1.35538 1.482372,0.091 2.962626,0.13441 4.444647,0.13441 2.502252,0 5.003094,-0.12347 7.505346,-0.34784 0,2.27648 0,4.55225 0,6.82872 v 0"
       style="fill:#63238e;fill-opacity:1;fill-rule:nonzero;stroke:none;stroke-width:0.0352777"
       id="path514" />
    <path
       d="m 75.577104,166.05687 c -0.0011,-7.9e-4 -0.0025,-0.001 -0.0034,-0.002 9.52e-4,2.7e-4 0.0023,2.7e-4 0.0034,8e-4 0,2.6e-4 0,7.9e-4 0,0.001"
       style="fill:#552785;fill-opacity:1;fill-rule:nonzero;stroke:none;stroke-width:0.0352777"
       id="path516" />
    <path
       d="m 197.81382,166.041 c -12.58076,-6.82766 -25.16222,-8.25218 -37.74298,-7.12435 0,-7.10106 0,-14.20213 0,-21.30284 12.58146,-1.12818 25.16222,0.29669 37.74298,7.12435 -1.79775,2.57457 -3.59551,5.25992 -5.39326,8.04686 1.79811,4.31412 3.59551,8.72984 5.39326,13.25598"
       style="fill:#76389f;fill-opacity:1;fill-rule:nonzero;stroke:none;stroke-width:0.0352777"
       id="path518" />
    <path
       d="m 160.07084,158.91665 v 0 c 2.50225,-0.22437 5.00274,-0.34784 7.50534,-0.34784 1.79247,0 3.58564,0.0635 5.37775,0.19826 2.6e-4,2.7e-4 7.9e-4,8e-4 7.9e-4,0.001 -1.79493,-0.13546 -3.58916,-0.19861 -5.38409,-0.19861 -2.49979,0 -5.00027,0.12312 -7.49971,0.34713"
       style="fill:#dcd3df;fill-opacity:1;fill-rule:nonzero;stroke:none;stroke-width:0.0352777"
       id="path520" />
    <path
       d="m 160.07084,158.91665 c 3.01484,-1.48907 6.02967,-2.83139 9.04451,-3.98815 1.27918,1.27952 2.55905,2.5594 3.83858,3.83857 -1.79211,-0.13476 -3.58528,-0.19826 -5.37775,-0.19826 -2.5026,0 -5.00309,0.12347 -7.50534,0.34784"
       style="fill:#823ca2;fill-opacity:1;fill-rule:nonzero;stroke:none;stroke-width:0.0352777"
       id="path522" />
    <g
       id="g524"
       transform="matrix(0.03527778,0,0,-0.03527778,42.181326,306.31779)">
      <g
         id="g526"
         clip-path="url(#clipPath530)">
        <path
           d="m 4411.63,3976.35 c -0.34,0.18 -0.68,0.37 -1.03,0.55 0.35,-0.18 0.68,-0.36 1.03,-0.55 v 0 m -12.18,6.55 c -0.18,0.1 -0.37,0.2 -0.55,0.29 0.17,-0.09 0.37,-0.2 0.55,-0.29 m -1.02,0.54 c -16.16,8.6 -32.33,16.88 -48.5,24.86 0,0 0,0.02 -0.01,0.02 16.18,-7.98 32.34,-16.27 48.51,-24.88"
           style="fill:url(#radialGradient536);fill-opacity:1;fill-rule:nonzero;stroke:none"
           id="path538" />
      </g>
    </g>
    <path
       d="m 195.63719,164.91387 c -1.45239,-0.71614 -2.90513,-1.36243 -4.35752,-1.94451 -0.002,-0.002 -0.004,-0.004 -0.006,-0.006 1.4545,0.58279 2.909,1.23084 4.36315,1.94945 2.7e-4,0 2.7e-4,8e-4 2.7e-4,8e-4 m -3.21653,-12.12899 v 0 c 0.48048,-0.74471 0.96096,-1.48237 1.4411,-2.21227 2.6e-4,3.5e-4 2.6e-4,3.5e-4 7.9e-4,7.2e-4 -0.48084,0.73025 -0.96132,1.46649 -1.44181,2.21156"
       style="fill:#dcd3df;fill-opacity:1;fill-rule:nonzero;stroke:none;stroke-width:0.0352777"
       id="path540" />
    <path
       d="m 197.81382,166.041 c -0.0123,-0.007 -0.024,-0.013 -0.0363,-0.0194 -0.13088,-0.0713 -0.26212,-0.14182 -0.39335,-0.21167 -0.006,-0.003 -0.0134,-0.007 -0.0194,-0.0102 -0.006,-0.003 -0.0109,-0.006 -0.0166,-0.009 -0.57044,-0.30374 -1.14053,-0.59619 -1.71133,-0.87771 -1.45415,-0.71861 -2.90865,-1.36666 -4.36315,-1.94945 -4.76779,-4.76779 -9.53629,-9.53664 -14.30408,-14.30443 0,-1.23296 0,-2.46627 0,-3.69958 v 0 -7.0672 c 1.71238,0.23566 3.42547,0.54187 5.13785,0.92604 3.9176,3.91831 7.8359,7.83626 11.75421,11.75421 -0.48014,0.72989 -0.96062,1.46755 -1.4411,2.21227 v 0 0 c 1.79811,4.31412 3.59551,8.72983 5.39326,13.25597"
       style="fill:#823ca2;fill-opacity:1;fill-rule:nonzero;stroke:none;stroke-width:0.0352777"
       id="path542" />
    <path
       d="m 176.9696,152.36098 c -16.89947,-2.32269 -33.79858,2.26307 -50.6977,6.84848 -16.89841,4.5854 -33.796459,9.17081 -50.694796,6.84882 0,-7.10106 0,-14.20212 0,-21.30319 16.898337,2.32199 33.796386,-2.26342 50.694796,-6.84882 16.89912,-4.58541 33.79858,-9.17082 50.6977,-6.84813 0,7.10107 0,14.20213 0,21.30284"
       style="fill:#8e49aa;fill-opacity:1;fill-rule:nonzero;stroke:none;stroke-width:0.0352777"
       id="path544" />
    <path
       d="m 75.580984,166.05899 c -0.0014,-2.6e-4 -0.0025,-2.6e-4 -0.0039,-7.9e-4 v 0 c 9.79e-4,2.6e-4 0.0029,2.6e-4 0.0039,7.9e-4 v 0"
       style="fill:#873fa4;fill-opacity:1;fill-rule:nonzero;stroke:none;stroke-width:0.0352777"
       id="path546" />
    <path
       d="m 76.466492,166.17435 c -0.295028,-0.0363 -0.590339,-0.0748 -0.885508,-0.11536 v 0 c 0.295028,0.0406 0.590621,0.079 0.885508,0.11536"
       style="fill:#77309a;fill-opacity:1;fill-rule:nonzero;stroke:none;stroke-width:0.0352777"
       id="path548" />
    <path
       d="m 84.945399,166.67917 c -2.826102,0 -5.652558,-0.15698 -8.478907,-0.50482 -0.294887,-0.0363 -0.59048,-0.0748 -0.885508,-0.11536 -9.79e-4,-2.6e-4 -0.0029,-2.6e-4 -0.0039,-7.9e-4 v -10.83266 c 3.802521,3.81105 7.610757,7.61612 11.413348,11.42682 -0.681566,0.0177 -1.363133,0.0268 -2.045052,0.0268"
       style="fill:#9e54b0;fill-opacity:1;fill-rule:nonzero;stroke:none;stroke-width:0.0352777"
       id="path550" />
    <path
       d="m 137.44543,156.25142 c 3.74439,-0.94157 7.48665,-1.80799 11.23068,-2.52519 2.7e-4,3.5e-4 8e-4,7.2e-4 0.001,0.001 -3.74368,0.71685 -7.48806,1.58327 -11.23174,2.52413"
       style="fill:#ded4e2;fill-opacity:1;fill-rule:nonzero;stroke:none;stroke-width:0.0352777"
       id="path552" />
    <g
       id="g554"
       transform="matrix(0.03527778,0,0,-0.03527778,42.181326,306.31779)">
      <g
         id="g556"
         clip-path="url(#clipPath560)">
        <path
           d="m 1587.42,4591.11 -0.13,0.14 c 314.43,45.83 628.86,138.4 943.29,222.35 0.02,-0.02 0.04,-0.04 0.06,-0.06 -49,-13.09 -97.97,-26.38 -146.97,-39.67 -265.43,-72.03 -530.81,-144.05 -796.25,-182.76"
           style="fill:url(#radialGradient566);fill-opacity:1;fill-rule:nonzero;stroke:none"
           id="path568" />
      </g>
    </g>
    <path
       d="M 115.8131,161.98441 98.181974,144.35363 c 9.364136,-1.3656 18.726146,-3.90631 28.089926,-6.44736 1.72861,-0.46885 3.45617,-0.93769 5.18478,-1.39947 5.74004,5.74004 11.47974,11.47974 17.21943,17.21943 -3.74403,0.7172 -7.48629,1.58362 -11.23068,2.52519 -7.21113,1.81257 -14.4212,3.90172 -21.63233,5.73299"
       style="fill:#9e54b0;fill-opacity:1;fill-rule:nonzero;stroke:none;stroke-width:0.0352777"
       id="path570" />
    <g
       id="g572"
       transform="matrix(0.03527778,0,0,-0.03527778,42.181326,306.31779)">
      <g
         id="g574"
         clip-path="url(#clipPath578)">
        <path
           d="m 2850.66,4893.86 c -0.01,0.01 -0.02,0.02 -0.03,0.03 22.36,5.1 44.71,10.05 67.07,14.83 -22.34,-4.8 -44.7,-9.76 -67.04,-14.86"
           style="fill:url(#radialGradient584);fill-opacity:1;fill-rule:nonzero;stroke:none"
           id="path586" />
      </g>
    </g>
    <path
       d="m 161.07414,152.0008 c -6.10906,-6.10941 -12.21846,-12.21846 -18.32787,-18.32751 0.78811,-0.17992 1.57692,-0.3549 2.36502,-0.52423 1.64818,-0.35313 3.29601,-0.68086 4.94454,-0.97967 6.53238,6.53239 13.06442,13.06478 19.5968,19.59681 -0.69215,-0.0194 -1.3843,-0.0286 -2.07645,-0.0286 -2.16746,0 -4.33458,0.0924 -6.50204,0.26317"
       style="fill:#9e54b0;fill-opacity:1;fill-rule:nonzero;stroke:none;stroke-width:0.0352777"
       id="path588" />
    <g
       id="g590"
       transform="matrix(0.03527778,0,0,-0.03527778,42.181326,306.31779)">
      <g
         id="g592"
         clip-path="url(#clipPath596)">
        <path
           d="m 3820.77,4967.99 c -2.13,0.3 -4.29,0.59 -6.43,0.87 2.15,-0.28 4.29,-0.57 6.43,-0.87"
           style="fill:url(#radialGradient602);fill-opacity:1;fill-rule:nonzero;stroke:none"
           id="path604" />
      </g>
    </g>
    <path
       d="m 176.9696,144.9597 c -4.78826,-4.7879 -9.5758,-9.57615 -14.36476,-14.36405 1.67075,-0.10266 3.34045,-0.15734 5.01121,-0.15734 3.042,0 6.08506,0.18204 9.12671,0.58914 0.0755,0.01 0.1517,0.0201 0.22684,0.0307 v 0 c 0,4.63409 0,9.26783 0,13.90156"
       style="fill:#9e54b0;fill-opacity:1;fill-rule:nonzero;stroke:none;stroke-width:0.0352777"
       id="path606" />
    <g
       id="g608"
       transform="matrix(0.03527778,0,0,-0.03527778,42.181326,306.31779)">
      <g
         id="g610"
         clip-path="url(#clipPath614)">
        <path
           d="m 1212.84,4562.06 c -50.03,0 -100.13,1.75 -150.15,5.45 -0.05,0.05 -0.09,0.09 -0.14,0.14 50,-3.71 100.01,-5.36 150.01,-5.36 1.11,0 2.22,0 3.33,0.01 0.08,-0.08 0.15,-0.16 0.23,-0.24 -1.08,0 -2.2,0 -3.28,0"
           style="fill:url(#radialGradient620);fill-opacity:1;fill-rule:nonzero;stroke:none"
           id="path622" />
      </g>
    </g>
    <path
       d="m 99.834033,165.40177 c -6.703484,-6.7564 -13.4493,-13.47012 -20.163367,-20.21558 1.764594,0.13053 3.53201,0.19226 5.296958,0.19226 0.0381,0 0.07761,0 0.115711,0 6.408914,6.40856 12.817123,12.81712 19.226035,19.22568 -1.49155,0.29034 -2.9838,0.55845 -4.475337,0.79764"
       style="fill:#9e54b0;fill-opacity:1;fill-rule:nonzero;stroke:none;stroke-width:0.0352777"
       id="path624" />
    <path
       d="m 169.11535,154.9285 c -1.05586,-1.05587 -2.11137,-2.11138 -3.16724,-3.16724 0.5327,-0.0106 1.06539,-0.0162 1.59773,-0.0162 0.70521,0 1.4097,0.01 2.11455,0.0293 -0.002,-0.003 -0.005,-0.005 -0.008,-0.008 2.4384,0.0684 4.87856,0.25964 7.31696,0.59478 v 0 c -2.61796,0.6985 -5.23627,1.56316 -7.85424,2.56752"
       style="fill:#552785;fill-opacity:1;fill-rule:nonzero;stroke:none;stroke-width:0.0352777"
       id="path626" />
    <path
       d="m 160.07084,158.91665 c 0,-2.27718 0,-4.55436 0,-6.83154 0.33514,-0.03 0.66816,-0.0582 1.0033,-0.0843 0.001,0.001 0.002,0.002 0.004,0.004 1.62348,-0.12771 3.24696,-0.2099 4.87045,-0.24306 1.05586,1.05586 2.11137,2.11137 3.16724,3.16724 -3.01484,1.15675 -6.02968,2.49907 -9.04452,3.98815 v 0"
       style="fill:#63238e;fill-opacity:1;fill-rule:nonzero;stroke:none;stroke-width:0.0352777"
       id="path628" />
    <path
       d="m 176.9696,152.36098 c -2.4384,-0.33514 -4.87857,-0.52634 -7.31697,-0.59478 v 0 c 2.43911,0.0684 4.87821,0.25964 7.31697,0.59478 m -16.89876,-0.27587 v 0 c 0.33443,-0.03 0.66886,-0.0582 1.0033,-0.0843 v 0 c -0.33514,0.0261 -0.66816,0.0543 -1.0033,0.0843"
       style="fill:#75339c;fill-opacity:1;fill-rule:nonzero;stroke:none;stroke-width:0.0352777"
       id="path630" />
    <path
       d="m 169.66039,151.77431 c -0.70485,-0.0198 -1.40934,-0.0293 -2.11455,-0.0293 -0.53234,0 -1.06503,0.006 -1.59773,0.0162 -0.002,-0.002 -0.004,-0.004 -0.006,-0.006 0.54434,-0.0116 1.09009,-0.0173 1.63478,-0.0173 0.69215,0 1.38394,0.009 2.07609,0.0286 0.003,0.003 0.005,0.005 0.008,0.008"
       style="fill:#692591;fill-opacity:1;fill-rule:nonzero;stroke:none;stroke-width:0.0352777"
       id="path632" />
    <path
       d="m 161.07766,152.00432 c -0.001,-0.001 -0.002,-0.003 -0.004,-0.004 1.62243,-0.1277 3.24485,-0.21166 4.86763,-0.24588 0.002,0.002 0.004,0.004 0.006,0.006 -1.62348,0.0332 -3.24697,0.11536 -4.87045,0.24306"
       style="fill:#722996;fill-opacity:1;fill-rule:nonzero;stroke:none;stroke-width:0.0352777"
       id="path634" />
    <path
       d="m 161.07414,152.0008 v 0 c 2.16746,-0.17075 4.33458,-0.26318 6.50204,-0.26318 0.69215,0 1.3843,0.009 2.07645,0.0286 v 0 c -0.69215,-0.0194 -1.38394,-0.0286 -2.07609,-0.0286 -0.54469,0 -1.09044,0.006 -1.63478,0.0173 -1.62277,0.0342 -3.2452,0.11818 -4.86762,0.24589"
       style="fill:#80379f;fill-opacity:1;fill-rule:nonzero;stroke:none;stroke-width:0.0352777"
       id="path636" />
    <path
       d="m 70.040433,159.77108 c 0,1.06786 -0.864976,1.93322 -1.933116,1.93322 -1.068247,0 -1.933646,-0.86536 -1.933646,-1.93322 0,-1.06821 0.865399,-1.93358 1.933646,-1.93358 1.06814,0 1.933116,0.86537 1.933116,1.93358"
       style="fill:#fab90a;fill-opacity:1;fill-rule:nonzero;stroke:none;stroke-width:0.0352777"
       id="path666" />
    <path
       d="m 186.09243,148.55804 c 0,1.06786 -0.86607,1.93322 -1.93393,1.93322 -1.0675,0 -1.93322,-0.86536 -1.93322,-1.93322 0,-1.06821 0.86572,-1.93358 1.93322,-1.93358 1.06786,0 1.93393,0.86537 1.93393,1.93358"
       style="fill:#fab90a;fill-opacity:1;fill-rule:nonzero;stroke:none;stroke-width:0.0352777"
       id="path668" />
    <path
       id="path3483"
       style="font-style:normal;font-variant:normal;font-weight:normal;font-stretch:normal;font-size:14.8167px;line-height:1.25;font-family:'Poor Richard';-inkscape-font-specification:'Poor Richard';white-space:pre;fill:#ffffff;fill-opacity:1;stroke:none;stroke-width:1"
       d="m 141.90973,139.43972 c -0.0337,0.003 -0.069,0.009 -0.10646,0.0181 -0.0797,0.0192 -0.19618,0.0621 -0.34881,0.12868 -0.15263,0.0666 -0.26859,0.10947 -0.3483,0.12867 -0.0703,0.0169 -0.18425,0.0291 -0.34107,0.0372 -0.15213,0.007 -0.26552,0.0197 -0.34054,0.0377 -0.0844,0.0204 -0.16147,0.0611 -0.231,0.12248 -0.0649,0.0603 -0.0888,0.12552 -0.0718,0.19585 0.0169,0.0703 0.0532,0.1286 0.10904,0.17467 0.0605,0.0449 0.21502,0.0675 0.46302,0.0672 0.24801,-2.9e-4 0.42465,0.0538 0.5302,0.16226 0.10441,0.10381 0.17641,0.23794 0.21601,0.40204 l 1.83038,7.58869 c 0.0385,0.15941 0.0353,0.30906 -0.0103,0.44907 -0.0421,0.13418 -0.17817,0.24897 -0.40824,0.34416 -0.2265,0.0894 -0.35724,0.16503 -0.39171,0.22789 -0.0297,0.0618 -0.0356,0.13014 -0.0176,0.20516 0.0181,0.075 0.0582,0.12788 0.11989,0.15761 0.0664,0.0286 0.19331,0.0199 0.38085,-0.0253 0.13129,-0.0317 0.31956,-0.0942 0.56483,-0.1881 0.24527,-0.0939 0.43354,-0.15695 0.56482,-0.18862 0.14066,-0.0339 0.35366,-0.0674 0.63821,-0.10129 0.28454,-0.0339 0.49702,-0.0679 0.63768,-0.1018 0.22976,-0.0554 0.32663,-0.15847 0.29043,-0.30851 -0.0204,-0.0844 -0.063,-0.14843 -0.12816,-0.19223 -0.0605,-0.045 -0.20773,-0.0592 -0.44184,-0.0424 -0.2341,0.0168 -0.395,-0.0115 -0.48214,-0.0847 -0.0871,-0.0733 -0.14568,-0.17313 -0.17621,-0.29972 l -2.03967,-8.45323 c -0.0498,-0.20631 -0.11922,-0.34086 -0.20878,-0.40359 -0.0672,-0.047 -0.15151,-0.0665 -0.25269,-0.0579 z m 17.28938,0.19224 c -0.20708,0.0113 -0.38616,0.0957 -0.53692,0.25373 -0.14593,0.15772 -0.21364,0.33774 -0.20257,0.54002 0.0116,0.2119 0.0989,0.39072 0.26148,0.5364 0.1671,0.1406 0.35896,0.20513 0.57568,0.19327 0.21672,-0.0119 0.40088,-0.0895 0.55242,-0.23306 0.15127,-0.14836 0.22164,-0.32138 0.21084,-0.51884 -0.0121,-0.22153 -0.10455,-0.40711 -0.27698,-0.55707 -0.16789,-0.15505 -0.36242,-0.22659 -0.58395,-0.21445 z m 2.61948,2.26342 c -0.24573,-0.005 -0.37065,0.0917 -0.37466,0.28939 -0.002,0.0868 0.0429,0.16239 0.13333,0.22686 0.0905,0.0595 0.22034,0.0907 0.38912,0.0941 0.15432,0.003 0.31914,0.0715 0.49507,0.20516 0.18084,0.12888 0.31765,0.29291 0.41031,0.49247 l 1.70273,3.67213 c 0.0972,0.21407 0.19639,0.32253 0.29766,0.32453 0.11573,0.002 0.21626,-0.10204 0.30231,-0.31264 0.0203,-0.0526 0.0355,-0.0889 0.0455,-0.10801 l 1.61851,-3.2613 c 0.13036,-0.258 0.24006,-0.44644 0.32918,-0.56534 0.094,-0.12361 0.1848,-0.20388 0.27233,-0.24081 0.0876,-0.0417 0.24768,-0.0844 0.48007,-0.12816 0.23733,-0.0485 0.37302,-0.0845 0.40722,-0.108 0.0389,-0.0282 0.0599,-0.1051 0.0625,-0.23048 0.003,-0.16882 -0.11838,-0.25527 -0.36432,-0.25993 -0.0868,-0.002 -0.22218,0.0151 -0.40617,0.0501 -0.17916,0.0353 -0.37004,0.0505 -0.57258,0.0465 -0.21218,-0.004 -0.39272,-0.0244 -0.54156,-0.061 -0.14885,-0.0365 -0.27391,-0.0554 -0.37518,-0.0574 -0.13505,-0.003 -0.23425,0.0148 -0.29765,0.0522 -0.0631,0.0325 -0.096,0.1113 -0.0987,0.23668 -0.002,0.10128 0.0261,0.17169 0.0832,0.21135 0.0571,0.0397 0.1695,0.0831 0.33744,0.12971 0.17276,0.0419 0.25795,0.1349 0.25528,0.27957 -0.002,0.12538 -0.0313,0.23823 -0.0863,0.33848 l -1.00097,2.00711 c -0.0653,0.13897 -0.12418,0.20753 -0.17725,0.20619 -0.0386,-7.4e-4 -0.0834,-0.0546 -0.13436,-0.16174 l -0.95136,-2.09497 c -0.0922,-0.20923 -0.13813,-0.33782 -0.13746,-0.38602 0.001,-0.053 0.0211,-0.0986 0.0605,-0.13643 0.0441,-0.0377 0.15087,-0.0742 0.3204,-0.10955 0.17435,-0.0352 0.28624,-0.0767 0.33538,-0.12402 0.049,-0.0473 0.0741,-0.10218 0.0754,-0.16485 0.002,-0.10611 -0.0348,-0.18148 -0.1111,-0.22634 -0.0714,-0.0496 -0.19434,-0.0762 -0.36794,-0.0796 -0.12538,-0.002 -0.32099,0.0154 -0.58704,0.0538 -0.26123,0.0382 -0.46649,0.0564 -0.61599,0.0537 -0.12538,-0.002 -0.30076,-0.0277 -0.52658,-0.0755 -0.22581,-0.0475 -0.45479,-0.0734 -0.68626,-0.078 z m -2.15956,0.18914 c -0.0819,0.004 -0.20638,0.0235 -0.37362,0.0568 -0.16724,0.0331 -0.29175,0.0522 -0.37362,0.0568 -0.0722,0.004 -0.18614,-0.007 -0.3421,-0.032 -0.15113,-0.0257 -0.26797,-0.0362 -0.34985,-0.0315 -0.0963,0.005 -0.17897,0.0385 -0.24805,0.10026 -0.0645,0.0567 -0.0941,0.12828 -0.0894,0.21497 0.004,0.0771 0.0268,0.14137 0.0682,0.19224 0.0462,0.0506 0.15464,0.0882 0.32504,0.11265 0.1704,0.0245 0.30081,0.0681 0.39119,0.13074 0.0904,0.0627 0.14112,0.19754 0.15245,0.40463 l 0.13384,2.44171 c 0.0182,0.3323 -0.006,0.54343 -0.0739,0.63407 -0.0627,0.0904 -0.18253,0.15512 -0.35915,0.19379 -0.17658,0.0386 -0.28483,0.0833 -0.32556,0.13384 -0.0409,0.0457 -0.0597,0.0997 -0.0563,0.16226 0.006,0.10113 0.0482,0.18086 0.12868,0.23927 0.0853,0.0581 0.18327,0.084 0.29404,0.078 0.11076,-0.006 0.27615,-0.0341 0.49557,-0.0847 0.21943,-0.051 0.38672,-0.0798 0.5023,-0.0858 0.11558,-0.006 0.29454,-0.001 0.53692,0.0145 0.24237,0.0158 0.42375,0.0201 0.54415,0.0134 0.27929,-0.0153 0.41484,-0.10256 0.40618,-0.26148 -0.007,-0.12043 -0.0422,-0.198 -0.10697,-0.23307 -0.0599,-0.0354 -0.16246,-0.0589 -0.30799,-0.0703 -0.1458,-0.0162 -0.26438,-0.0581 -0.35502,-0.12558 -0.0906,-0.0675 -0.1421,-0.21877 -0.15503,-0.45475 l -0.16588,-3.01274 c -0.001,-0.0289 -0.002,-0.0818 -0.001,-0.15916 6.7e-4,-0.0822 -4.3e-4,-0.1472 -0.003,-0.19534 -0.0163,-0.29856 -0.11378,-0.4433 -0.29197,-0.43356 z m -4.48035,0.0548 c -0.0956,0.002 -0.19143,0.008 -0.28732,0.0186 -0.46024,0.0506 -0.85103,0.22262 -1.17305,0.51521 -0.31723,0.29207 -0.45558,0.62495 -0.41445,0.99891 0.0311,0.28286 0.13942,0.53771 0.32453,0.76481 0.18937,0.22178 0.56385,0.43025 1.12396,0.6258 0.5649,0.19503 0.91592,0.3631 1.05265,0.50333 0.1362,0.13544 0.21355,0.2894 0.23255,0.46199 0.029,0.26368 -0.0359,0.48913 -0.19482,0.67644 -0.15893,0.18733 -0.36551,0.29504 -0.6196,0.32298 -0.20616,0.0227 -0.39885,-0.0121 -0.57878,-0.10387 -0.17513,-0.0923 -0.33645,-0.28076 -0.48421,-0.56534 -0.14829,-0.28938 -0.25204,-0.45743 -0.31057,-0.50436 -0.0585,-0.0469 -0.11905,-0.0673 -0.18139,-0.0605 -0.21577,0.0237 -0.3106,0.15317 -0.28473,0.3881 0.0127,0.11505 0.0393,0.26767 0.0796,0.45733 0.0397,0.18487 0.0669,0.34185 0.0811,0.47129 0.0174,0.15821 0.20933,0.29488 0.57619,0.4098 0.37217,0.11915 0.7356,0.15888 1.09037,0.11988 0.64243,-0.0707 1.14926,-0.27162 1.52032,-0.60358 0.37587,-0.33248 0.53696,-0.74103 0.4837,-1.22524 -0.0343,-0.31163 -0.16508,-0.59571 -0.39223,-0.85215 -0.22288,-0.26177 -0.62815,-0.50822 -1.21646,-0.73949 -0.5883,-0.23126 -0.94176,-0.39883 -1.05988,-0.50229 -0.11334,-0.10399 -0.17597,-0.21065 -0.18811,-0.32091 -0.0142,-0.12944 0.0518,-0.25835 0.19792,-0.38603 0.15035,-0.13297 0.31406,-0.20887 0.49145,-0.22841 0.17738,-0.0195 0.34178,-0.004 0.49299,0.0476 0.15121,0.0513 0.27423,0.11299 0.36949,0.185 0.0952,0.072 0.17009,0.17524 0.22376,0.31005 0.0537,0.1348 0.10504,0.22884 0.15451,0.28164 0.0537,0.0475 0.1357,0.0648 0.24598,0.0527 0.0767,-0.008 0.13468,-0.0534 0.17415,-0.13539 0.0443,-0.0825 0.0612,-0.17424 0.0501,-0.27492 -0.009,-0.0815 -0.0307,-0.18827 -0.0646,-0.32039 -0.034,-0.13214 -0.0562,-0.24378 -0.0661,-0.33487 -0.0163,-0.14862 -0.21361,-0.26772 -0.59221,-0.35708 -0.28435,-0.0706 -0.56997,-0.10271 -0.8568,-0.0966 z m 16.49254,0.0718 c -0.66522,-0.018 -1.29494,0.16507 -1.88981,0.54881 -0.67505,0.43909 -1.05253,1.01591 -1.13223,1.73013 -0.0872,0.78131 0.1202,1.48637 0.6227,2.11511 0.5025,0.62875 1.16856,0.98905 1.99781,1.08159 0.56083,0.0626 1.11871,-0.001 1.6738,-0.19172 0.56041,-0.19467 0.85045,-0.37831 0.86972,-0.55087 0.008,-0.0719 -0.0115,-0.13482 -0.0589,-0.18862 -0.0426,-0.0533 -0.107,-0.0844 -0.19327,-0.094 -0.0575,-0.006 -0.18578,0.0303 -0.38396,0.11007 -0.51835,0.20907 -0.98844,0.28995 -1.41025,0.24288 -0.55604,-0.062 -1.03664,-0.31964 -1.44229,-0.77256 -0.40029,-0.45719 -0.57188,-0.93988 -0.51521,-1.44798 0.0776,-0.69504 0.34828,-1.20835 0.81235,-1.53995 0.46887,-0.33108 0.90233,-0.47435 1.30018,-0.42995 0.5752,0.0642 0.98603,0.27256 1.233,0.62528 0.25178,0.35325 0.35694,0.71456 0.31574,1.08366 -0.0113,0.10066 -0.038,0.16799 -0.0806,0.20205 -0.0426,0.0341 -0.11919,0.0449 -0.22945,0.0326 l -2.2934,-0.2558 c -0.27801,-0.031 -0.42768,0.0466 -0.44855,0.23358 -0.0219,0.19654 0.10157,0.3101 0.37,0.34003 l 3.30006,0.36845 c 0.20611,0.023 0.34951,0.0219 0.42995,-0.003 0.0809,-0.0298 0.13014,-0.12153 0.14728,-0.27492 0.0797,-0.71421 -0.10132,-1.35538 -0.5426,-1.92391 -0.44128,-0.56853 -1.16291,-0.90882 -2.16473,-1.02061 -0.0965,-0.0108 -0.19229,-0.0176 -0.28732,-0.0202 z m -20.77858,0.94 c -0.0148,-0.002 -0.0305,-0.001 -0.0465,0.002 -0.0237,0.004 -0.0833,0.0256 -0.17931,0.0631 -0.096,0.0375 -0.17752,0.0626 -0.24392,0.0749 -0.24659,0.0458 -0.48309,0.0653 -0.71003,0.0584 -0.22308,-0.0125 -0.37019,-0.0122 -0.44132,10e-4 -0.27029,0.0502 -0.38917,0.16303 -0.35656,0.33849 0.0141,0.0758 0.0543,0.13461 0.12092,0.17621 0.0657,0.0368 0.21331,0.0511 0.44235,0.0429 0.37954,-0.0166 0.60057,0.14589 0.66404,0.48731 l 0.3545,1.90635 c 0.11809,0.63542 0.20235,1.06356 0.25321,1.28467 0.0556,0.22021 0.10805,0.35528 0.15658,0.40514 0.0485,0.0499 0.12461,0.0649 0.22893,0.0455 0.0427,-0.008 0.12515,-0.0401 0.24701,-0.0971 0.12187,-0.057 0.22772,-0.0939 0.31781,-0.11059 0.0854,-0.0159 0.23331,-0.0263 0.44339,-0.031 0.2101,-0.005 0.34112,-0.012 0.39326,-0.0217 0.12327,-0.0229 0.21801,-0.0671 0.28422,-0.13332 0.0709,-0.0671 0.10034,-0.13161 0.0889,-0.19327 -0.01,-0.0522 -0.0392,-0.0935 -0.0889,-0.12351 -0.0497,-0.03 -0.16911,-0.0517 -0.35812,-0.0656 -0.36205,-0.021 -0.57474,-0.0969 -0.63821,-0.22738 -0.0644,-0.1352 -0.29972,-1.2959 -0.7059,-3.48195 -0.047,-0.25312 -0.12244,-0.38656 -0.22634,-0.39998 z m -24.34683,0.31109 c -0.0758,-0.003 -0.16724,0.01 -0.27441,0.0382 l -5.38158,1.43971 c -0.12111,0.0324 -0.2118,0.0944 -0.27233,0.18552 -0.0617,0.0864 -0.0805,0.17347 -0.0568,0.262 0.0262,0.0978 0.0919,0.16775 0.19792,0.20929 0.1094,0.0356 0.24827,0.0309 0.416,-0.014 0.27955,-0.0748 0.47434,-0.0919 0.58498,-0.0517 0.10939,0.0356 0.20573,0.16189 0.28887,0.3793 0.0831,0.21741 0.21701,0.67108 0.40152,1.36064 l 1.71101,6.39496 c 0.0636,0.23762 0.0591,0.42609 -0.0134,0.56534 -0.0738,0.13459 -0.28102,0.24747 -0.62115,0.33848 -0.26559,0.0711 -0.37256,0.20171 -0.32142,0.39274 0.0324,0.12113 0.12874,0.19304 0.28938,0.21497 0.1653,0.0207 0.4463,-0.0222 0.84233,-0.12815 l 5.65392,-1.51309 c 0.22362,-0.0598 0.35302,-0.12673 0.38809,-0.20102 0.01,-0.017 0.0166,-0.0381 0.0212,-0.062 0.067,0.0497 0.16185,0.061 0.29248,0.0238 0.0789,-0.0225 0.18045,-0.0713 0.30438,-0.14676 0.12988,-0.0722 0.29198,-0.13619 0.48679,-0.19172 0.20408,-0.0582 0.39612,-0.0977 0.57567,-0.11886 0.17955,-0.0211 0.32016,-0.0463 0.4222,-0.0754 0.14378,-0.041 0.22927,-0.0852 0.2558,-0.13281 0.0278,-0.043 0.0287,-0.10876 0.004,-0.19689 -0.0278,-0.0974 -0.0981,-0.15972 -0.21136,-0.18759 -0.10863,-0.0292 -0.20226,-0.0328 -0.28112,-0.0103 -0.11132,0.0317 -0.18345,-0.0101 -0.21652,-0.12609 -0.0199,-0.0696 -0.0113,-0.14502 0.0258,-0.22583 l 0.50229,-1.11362 c 0.0458,-0.1033 0.0895,-0.16119 0.13126,-0.17312 0.0278,-0.008 0.0634,0.002 0.10645,0.03 l 0.82062,0.55604 c 0.17356,0.11605 0.28153,0.20578 0.32453,0.26872 0.0417,0.0583 0.0712,0.1175 0.0884,0.17776 0.0159,0.0557 -0.0372,0.11601 -0.15916,0.18087 -0.11863,0.0589 -0.18956,0.1167 -0.21343,0.17364 -0.0239,0.057 -0.0261,0.12007 -0.006,0.18965 0.045,0.1577 0.19967,0.19891 0.46406,0.1235 0.0325,-0.009 0.15299,-0.0609 0.36173,-0.15554 0.21337,-0.096 0.49186,-0.19305 0.83509,-0.29094 0.0974,-0.0278 0.24268,-0.0545 0.43615,-0.0796 0.19811,-0.0264 0.34131,-0.0519 0.42943,-0.077 0.13915,-0.0397 0.23851,-0.0958 0.29817,-0.16795 0.061,-0.0675 0.0828,-0.13138 0.0656,-0.19172 -0.0291,-0.10202 -0.0736,-0.1619 -0.13384,-0.17983 -0.0603,-0.0178 -0.18888,-0.0189 -0.38499,-0.003 -0.19611,0.0159 -0.36824,-2.6e-4 -0.51728,-0.0481 -0.15037,-0.0524 -0.38453,-0.18606 -0.70176,-0.40153 l -1.55753,-1.08313 c -0.0623,-0.0424 -0.0982,-0.0802 -0.10749,-0.11266 -0.008,-0.0278 0.001,-0.0676 0.0264,-0.11989 l 0.35811,-0.80202 c 0.14392,-0.3219 0.28471,-0.54769 0.42323,-0.67748 0.14185,-0.13574 0.30012,-0.24096 0.47439,-0.31574 0.17294,-0.0794 0.27883,-0.1398 0.3173,-0.18087 0.0418,-0.047 0.0492,-0.11652 0.0227,-0.20929 -0.0489,-0.17159 -0.15911,-0.23341 -0.33073,-0.18448 -0.0835,0.0238 -0.18999,0.072 -0.31987,0.14418 -0.12658,0.0662 -0.28734,0.12688 -0.48214,0.18241 -0.19944,0.0568 -0.37093,0.0886 -0.5147,0.0946 -0.1451,0.001 -0.269,0.0163 -0.37104,0.0455 -0.26434,0.0754 -0.36942,0.20826 -0.31522,0.39842 0.0264,0.0927 0.0872,0.15542 0.1819,0.18862 0.098,0.0272 0.18417,0.0305 0.25838,0.009 0.0974,-0.0278 0.15415,-0.0143 0.17001,0.0413 0.0133,0.0464 -0.007,0.12503 -0.061,0.23564 l -0.28164,0.62218 c -0.0371,0.0808 -0.0719,0.12561 -0.10439,0.13488 -0.0232,0.007 -0.0895,-0.0246 -0.19947,-0.0935 l -0.41651,-0.27233 c -0.17356,-0.11603 -0.26615,-0.19494 -0.27802,-0.23668 -0.0159,-0.0557 0.038,-0.11343 0.16123,-0.17363 0.12195,-0.0649 0.19473,-0.126 0.21859,-0.18293 0.0239,-0.057 0.0261,-0.12008 0.006,-0.18966 -0.0516,-0.18088 -0.19338,-0.23821 -0.42529,-0.17208 -0.0325,0.009 -0.16346,0.0688 -0.39275,0.17932 -0.2306,0.10588 -0.51977,0.20878 -0.86764,0.30799 -0.0974,0.0278 -0.23667,0.0497 -0.41755,0.0661 -0.18219,0.0118 -0.31961,0.0309 -0.41237,0.0573 -0.13454,0.0384 -0.22923,0.093 -0.28423,0.16382 -0.0563,0.0662 -0.0754,0.13195 -0.0568,0.19689 0.0569,0.19944 0.21776,0.26142 0.48214,0.18603 0.34323,-0.0979 0.75025,0.0369 1.22112,0.40411 l 0.0842,0.0589 1.01441,0.6811 c 0.0503,0.0358 0.0794,0.0673 0.0873,0.0951 0.008,0.0278 0.003,0.0645 -0.014,0.10956 l -0.5979,1.35909 c -0.17311,0.39543 -0.30073,0.64236 -0.38292,0.74104 -0.0822,0.0987 -0.24908,0.20895 -0.50023,0.33073 -0.12498,0.058 -0.213,0.12121 -0.2651,0.18913 -0.0201,-0.072 -0.0562,-0.18436 -0.11627,-0.35605 -0.0651,-0.18729 -0.1197,-0.36248 -0.1633,-0.52555 -0.0436,-0.16307 -0.11579,-0.28383 -0.21652,-0.36173 -0.0961,-0.0791 -0.19773,-0.10412 -0.30489,-0.0754 -0.10717,0.0287 -0.18615,0.10729 -0.23668,0.23564 -0.0521,0.1237 -0.0541,0.27409 -0.007,0.45114 0.0523,0.19569 0.0322,0.37332 -0.0599,0.53278 -0.0875,0.1582 -0.24969,0.26868 -0.48731,0.33228 l -2.40347,0.64337 c -0.28888,0.0773 -0.50466,0.0923 -0.64699,0.0455 -0.13768,-0.048 -0.23739,-0.1882 -0.29973,-0.42116 l -1.19527,-4.46588 c -0.0349,-0.13046 -0.008,-0.24251 0.0822,-0.33641 0.0885,-0.0986 0.21674,-0.17063 0.38447,-0.21549 l 1.84485,-0.49351 c 0.21432,-0.0573 0.37831,-0.0615 0.49145,-0.0119 0.1131,0.0496 0.19341,0.16298 0.24081,0.34003 0.0399,0.1491 0.10435,0.25915 0.19327,0.33021 0.0877,0.0664 0.18017,0.0867 0.27802,0.0605 0.0932,-0.0249 0.16532,-0.0814 0.21652,-0.17002 0.0512,-0.0886 0.0628,-0.18688 0.0341,-0.29404 -0.0112,-0.0419 -0.0644,-0.15505 -0.15865,-0.33951 -0.0896,-0.18572 -0.15775,-0.3671 -0.20515,-0.54416 -0.0311,-0.11648 -0.0574,-0.26917 -0.078,-0.45837 -0.0173,-0.19509 -0.0389,-0.3414 -0.0651,-0.43925 -0.0299,-0.11184 -0.0834,-0.19027 -0.16019,-0.23461 -0.0768,-0.0443 -0.16158,-0.0539 -0.25477,-0.0289 -0.0885,0.0237 -0.15799,0.0724 -0.20825,0.14573 -0.0515,0.0687 -0.0667,0.14249 -0.0455,0.22169 0.0409,0.15376 0.0388,0.30414 -0.007,0.45114 -0.0468,0.14235 -0.14752,0.2343 -0.30127,0.27543 l -1.8588,0.49713 c -0.28422,0.0762 -0.48741,0.0734 -0.60927,-0.009 -0.1231,-0.0869 -0.23072,-0.30272 -0.32298,-0.64751 l -0.39429,-1.47485 c -0.0487,-0.18171 -0.0431,-0.32776 0.0171,-0.43873 0.0589,-0.11562 0.24902,-0.21679 0.5705,-0.30282 l 1.91513,-0.51212 c 0.11182,-0.0299 0.21774,-0.0262 0.31781,0.0119 0.10474,0.0369 0.226,0.15465 0.36381,0.35243 0.14121,0.19188 0.25209,0.30673 0.33228,0.3452 0.0836,0.0325 0.16933,0.0371 0.25786,0.0134 0.15373,-0.0412 0.20673,-0.15264 0.15813,-0.33435 -0.10597,-0.39603 -0.19876,-0.67607 -0.2775,-0.83974 -0.0741,-0.16491 -0.15551,-0.2824 -0.24443,-0.35347 -0.0445,-0.0355 -0.10454,-0.0555 -0.18035,-0.0589 z m 20.80958,0.34675 c -0.0284,0.005 -0.10079,0.0384 -0.21704,0.0992 -0.11236,0.0552 -0.19982,0.0883 -0.26148,0.0997 -0.17072,0.0317 -0.385,0.0522 -0.64338,0.061 -0.25361,0.008 -0.39476,0.0143 -0.42323,0.0196 -0.0948,0.0176 -0.17149,0.054 -0.22996,0.10904 -0.0537,0.0541 -0.0735,0.11895 -0.0594,0.19482 0.0211,0.11393 0.13749,0.1731 0.34933,0.17777 0.48412,0.018 0.74735,0.14083 0.78962,0.36845 0.31454,1.69288 0.51512,2.66647 0.60151,2.92023 0.0911,0.25288 0.28461,0.46206 0.58033,0.62787 0.30045,0.16495 0.6238,0.21523 0.96996,0.1509 0.44575,-0.0828 0.8249,-0.25852 1.13792,-0.52762 0.31688,-0.27473 0.46339,-0.47856 0.43873,-0.61133 -0.0212,-0.11379 -0.0793,-0.16178 -0.17415,-0.14418 -0.0948,0.0176 -0.23491,0.10717 -0.42065,0.26923 -0.18187,0.15644 -0.34899,0.24879 -0.50074,0.27699 -0.24658,0.0458 -0.47374,0.01 -0.68213,-0.10852 -0.20362,-0.11915 -0.32732,-0.29526 -0.37052,-0.52762 l -0.47026,-2.53214 c -0.11982,-0.6449 -0.25795,-0.95253 -0.41444,-0.92346 z m -8.01346,1.5999 c -0.41363,0.006 -0.7812,0.053 -1.10226,0.14056 -0.79567,0.21712 -1.40774,0.66679 -1.83658,1.34876 -0.42884,0.68196 -0.54886,1.36962 -0.35967,2.06292 0.21331,0.78171 0.69284,1.34822 1.43867,1.69964 0.74457,0.34676 1.54061,0.4042 2.38745,0.17312 0.51649,-0.14095 0.97982,-0.38481 1.3901,-0.73174 0.40898,-0.35159 0.5941,-0.5968 0.55603,-0.73639 -0.0597,-0.21867 -0.15444,-0.31045 -0.28473,-0.27492 -0.10237,0.0279 -0.25475,0.14682 -0.45734,0.35708 -0.19794,0.209 -0.38829,0.36368 -0.57102,0.46354 -0.18273,0.0998 -0.36476,0.17474 -0.54622,0.22428 -0.49787,0.13586 -1.02866,0.0781 -1.59215,-0.17312 -0.56477,-0.25584 -0.92837,-0.68185 -1.09089,-1.27744 -0.17649,-0.64678 -0.10833,-1.20276 0.20464,-1.66812 0.31761,-0.46663 0.71601,-0.76529 1.19527,-0.89606 0.38155,-0.10414 0.72519,-0.10778 1.03146,-0.0114 0.30502,0.0917 0.53564,0.26639 0.69092,0.524 0.15994,0.25629 0.31154,0.36437 0.45578,0.32504 0.19078,-0.0521 0.25764,-0.18233 0.20051,-0.39171 -0.006,-0.0233 -0.0455,-0.11296 -0.11782,-0.2682 -0.0724,-0.15523 -0.14387,-0.36316 -0.21498,-0.62373 -0.0394,-0.14424 -0.35561,-0.23012 -0.94826,-0.25838 -0.14816,-0.007 -0.29104,-0.01 -0.42891,-0.008 z m -27.19731,1.62626 c -0.0958,-0.007 -0.23548,0.0107 -0.41858,0.0537 l -3.26078,0.7674 c -0.45071,0.10605 -0.76448,0.19281 -0.94206,0.25941 -0.17402,0.0608 -0.25003,0.13762 -0.2279,0.23152 0.009,0.0376 0.0406,0.0797 0.0961,0.12609 l 2.51251,2.21071 c 0.0867,0.0737 0.13338,0.12476 0.14004,0.15296 0.007,0.0282 -0.0314,0.057 -0.11368,0.0863 -0.87435,0.28506 -1.57318,0.84071 -2.09704,1.66759 -0.52026,0.82109 -0.68103,1.65451 -0.48214,2.49959 0.25524,1.08451 0.86561,1.89966 1.83142,2.44533 0.9658,0.54566 2.05923,0.67486 3.2799,0.38757 0.61503,-0.14474 1.20901,-0.43107 1.78232,-0.85834 0.57221,-0.43196 0.99019,-0.92932 1.25419,-1.4919 0.26288,-0.56727 0.32659,-1.13923 0.19068,-1.71669 -0.1558,-0.66198 -0.47092,-1.16991 -0.94568,-1.52394 -0.47006,-0.35513 -0.91437,-0.48384 -1.33221,-0.3855 -0.0845,0.0199 -0.13076,0.0132 -0.1385,-0.0196 -0.008,-0.0329 0.0481,-0.0905 0.16743,-0.17312 0.1229,-0.0884 0.44523,-0.19361 0.96635,-0.31626 0.9155,-0.21546 1.62256,-0.4219 2.12132,-0.61856 0.50345,-0.19778 0.93745,-0.45818 1.30225,-0.78187 0.3684,-0.32949 0.63533,-0.66959 0.80046,-1.02061 0.16872,-0.35683 0.21889,-0.68095 0.15038,-0.97203 -0.0365,-0.15493 -0.10788,-0.28931 -0.21394,-0.40308 -0.10716,-0.11845 -0.21955,-0.16403 -0.33693,-0.13642 -0.20187,0.0475 -0.28361,0.15349 -0.24494,0.31781 0.0121,0.0516 0.0525,0.11666 0.1204,0.19482 0.0669,0.0734 0.10531,0.13136 0.11524,0.17363 0.0873,0.37089 -0.0977,0.70135 -0.55449,0.99219 -0.45318,0.28503 -1.07876,0.52167 -1.87689,0.70951 -0.87794,0.20663 -1.56966,0.44621 -2.07532,0.71882 -0.50565,0.27261 -0.93324,0.62346 -1.28313,1.05265 -0.35099,0.42449 -0.57168,0.81362 -0.66197,1.16686 -0.0914,0.34853 -0.0967,0.6939 -0.016,1.03663 0.0674,0.28638 0.19419,0.50935 0.38034,0.66869 0.18504,0.15467 0.3617,0.21188 0.53071,0.17208 0.0704,-0.0166 0.13501,-0.0589 0.19327,-0.12712 0.0571,-0.0729 0.078,-0.14201 0.0625,-0.20774 -0.0122,-0.0517 -0.079,-0.10268 -0.19998,-0.15348 -0.22676,-0.10024 -0.36288,-0.2493 -0.40928,-0.44649 -0.0696,-0.29578 -0.0296,-0.55557 0.12092,-0.77928 0.14939,-0.22839 0.36275,-0.37508 0.63975,-0.44028 0.35212,-0.0829 0.72335,7.1e-4 1.11415,0.25063 0.38969,0.24522 0.64948,0.64236 0.77876,1.19166 0.17237,0.7324 -0.0165,1.43602 -0.56637,2.11047 -0.55093,0.66974 -1.20421,1.09334 -1.96009,1.27123 -0.75587,0.1779 -1.48989,0.0165 -2.20245,-0.48472 -0.71366,-0.50591 -1.16639,-1.16493 -1.35754,-1.97714 -0.23866,-1.01409 -0.12367,-1.83146 0.34468,-2.45205 0.47305,-0.62168 0.93728,-0.98629 1.39268,-1.09347 0.0798,-0.0188 0.18463,-0.0359 0.31471,-0.0517 0.12896,-0.0205 0.21457,-0.0355 0.25684,-0.0455 0.15495,-0.0365 0.22018,-0.10652 0.19585,-0.20981 -0.0221,-0.0939 -0.0898,-0.17221 -0.20361,-0.23461 -0.11487,-0.0671 -0.18832,-0.11676 -0.22066,-0.14883 l -1.41283,-1.26504 c -0.0879,-0.0784 -0.14188,-0.15992 -0.16175,-0.24443 -0.0398,-0.169 0.0791,-0.2862 0.35606,-0.3514 l 1.95078,-0.4594 c 0.10329,-0.0243 0.21863,0.0456 0.34623,0.20877 0.14141,0.17978 0.27782,0.25418 0.40928,0.22325 0.12679,-0.0298 0.2122,-0.0994 0.2558,-0.20878 0.0436,-0.10936 0.0139,-0.38244 -0.0889,-0.81907 -0.0619,-0.26291 -0.1326,-0.44721 -0.21187,-0.55242 -0.0757,-0.11099 -0.161,-0.17005 -0.25683,-0.17725 z m -23.094196,4.46691 c -0.106082,0.002 -0.278839,0.0305 -0.518832,0.0842 -0.235281,0.0487 -0.425334,0.0747 -0.569989,0.078 -0.110906,0.003 -0.336042,-0.0212 -0.674894,-0.0713 -0.334145,-0.0551 -0.53022,-0.082 -0.588079,-0.0806 -0.110903,0.003 -0.213611,0.0383 -0.30851,0.108 -0.09018,0.0648 -0.133791,0.15265 -0.131257,0.26355 0.0021,0.0916 0.054,0.16512 0.156581,0.22066 0.102579,0.0558 0.236029,0.082 0.399973,0.078 0.212164,-0.005 0.387268,0.0515 0.525034,0.16898 0.142457,0.11254 0.215609,0.26739 0.220141,0.46509 l 0.131776,5.77174 c 0.0059,0.26013 -0.04378,0.39163 -0.149863,0.39429 -0.04822,0.001 -0.09982,-0.0338 -0.154511,-0.1049 l -3.287138,-4.19458 c -1.232382,-1.57356 -1.954795,-2.47147 -2.167311,-2.69337 -0.207693,-0.22214 -0.381579,-0.33148 -0.521414,-0.32815 -0.08197,0.002 -0.182939,0.019 -0.302824,0.0506 -0.115176,0.0267 -0.21603,0.0409 -0.302823,0.0429 -0.115727,0.003 -0.260462,-0.006 -0.4346,-0.0264 -0.174246,-0.0247 -0.283194,-0.0363 -0.326596,-0.0357 -0.245933,0.006 -0.366784,0.10719 -0.362252,0.3049 0.0025,0.11087 0.04549,0.19167 0.128675,0.24287 0.08801,0.0508 0.254828,0.0735 0.500745,0.0682 0.183232,-0.004 0.336698,0.0624 0.460436,0.19947 0.123735,0.13708 0.188389,0.3239 0.193789,0.56017 l 0.176215,7.71736 c 0.0056,0.24592 -0.06203,0.43788 -0.203605,0.57619 -0.136861,0.13345 -0.3239,0.20292 -0.560173,0.20826 -0.289285,0.007 -0.431631,0.10392 -0.427363,0.29197 0.0052,0.22634 0.130805,0.33658 0.376722,0.33124 0.07715,-0.002 0.264789,-0.0273 0.562755,-0.0775 0.297966,-0.0504 0.509733,-0.0774 0.635103,-0.0801 0.09162,-0.002 0.291923,0.0153 0.601515,0.0517 0.309591,0.0361 0.541782,0.0524 0.696081,0.0491 0.159126,-0.004 0.259496,-0.0299 0.301789,-0.0791 0.04227,-0.0492 0.06271,-0.11251 0.06098,-0.18966 -0.0057,-0.25073 -0.201292,-0.37157 -0.587044,-0.36277 -0.1543,0.004 -0.319755,-0.0534 -0.496094,-0.17001 -0.171543,-0.11669 -0.259466,-0.276 -0.264067,-0.47852 l -0.152961,-6.69055 c -0.0042,-0.18355 0.02999,-0.27566 0.102319,-0.27699 0.05304,-0.001 0.111662,0.0383 0.176215,0.11886 l 6.199622,7.83311 c 0.09941,0.128 0.174143,0.21058 0.223242,0.24805 0.0491,0.0374 0.119224,0.0552 0.210841,0.0532 0.130178,-0.003 0.193569,-0.0789 0.190169,-0.22841 -0.0036,-0.15912 -0.06161,-0.36784 -0.173632,-0.6258 -0.10721,-0.25807 -0.166243,-0.62834 -0.17725,-1.11052 l -0.164849,-7.21817 c -0.0039,-0.16876 0.0052,-0.30678 0.02687,-0.41341 0.0264,-0.11157 0.09636,-0.20701 0.210326,-0.2868 0.118784,-0.0796 0.303749,-0.12268 0.554487,-0.12868 0.289285,-0.007 0.431631,-0.10391 0.427363,-0.29197 -0.0053,-0.23151 -0.152519,-0.3436 -0.441833,-0.33693 z m 15.639356,2.94452 c -0.0437,-0.003 -0.0931,7.7e-4 -0.14883,0.0109 -0.13764,0.0248 -0.29205,0.0674 -0.4625,0.12764 -0.17049,0.0603 -0.27221,0.0932 -0.30541,0.0992 -0.15662,0.0281 -0.3328,0.0431 -0.52865,0.0444 -0.1911,2.6e-4 -0.30815,0.004 -0.35089,0.0119 -0.14712,0.0266 -0.2496,0.0697 -0.30747,0.12919 -0.054,0.0539 -0.0707,0.13776 -0.0501,0.25167 0.012,0.0664 0.0431,0.11693 0.0935,0.15193 0.0543,0.0294 0.16866,0.0358 0.34209,0.0191 0.17822,-0.0175 0.2929,-0.006 0.34417,0.0336 0.0552,0.0341 0.0896,0.0889 0.10335,0.16485 0.009,0.0474 -0.0183,0.1971 -0.0806,0.44855 l -0.51677,2.06344 c -0.0195,0.0819 -0.0503,0.12662 -0.093,0.13435 -0.0427,0.008 -0.0899,-0.0229 -0.1416,-0.092 l -2.02571,-2.50114 c -0.13232,-0.1623 -0.22927,-0.23748 -0.29094,-0.22634 -0.0664,0.012 -0.11937,0.0705 -0.15916,0.1757 -0.0359,0.0996 -0.0863,0.29736 -0.150381,0.59324 l -0.584462,2.53938 c -0.02773,0.11775 -0.06074,0.17969 -0.0987,0.18656 -0.04746,0.009 -0.10737,-0.0367 -0.179318,-0.13643 l -1.291911,-1.73684 c -0.130111,-0.17745 -0.200022,-0.29447 -0.210322,-0.35141 -0.02231,-0.12339 0.04915,-0.22961 0.214458,-0.31832 0.164454,-0.0934 0.235916,-0.19967 0.214455,-0.31833 -0.01888,-0.1044 -0.07033,-0.17099 -0.153995,-0.19999 -0.07977,-0.0344 -0.207314,-0.0359 -0.382921,-0.004 -0.05221,0.009 -0.181205,0.0551 -0.387059,0.13642 -0.201107,0.0805 -0.332589,0.12633 -0.39429,0.13746 -0.118655,0.0215 -0.279307,0.0282 -0.481624,0.0207 -0.202319,-0.008 -0.417107,0.009 -0.644922,0.0506 -0.242054,0.0438 -0.345762,0.16301 -0.310575,0.3576 0.01545,0.0854 0.07385,0.15097 0.175183,0.19637 0.100475,0.0407 0.23386,0.0461 0.399976,0.016 0.242054,-0.0438 0.512836,0.13749 0.811837,0.54415 l 2.334741,3.19516 c 0.09047,0.12089 0.16178,0.20358 0.21394,0.24804 0.05301,0.0492 0.114842,0.0671 0.186036,0.0543 0.118652,-0.0215 0.200131,-0.1415 0.243912,-0.36018 l 0.02015,-0.092 0.635622,-2.82773 c 0.0321,-0.14792 0.0719,-0.22601 0.11937,-0.23461 0.0522,-0.009 0.12862,0.0477 0.22944,0.17157 l 1.87741,2.29236 c 0.0185,0.0212 0.0657,0.0911 0.14108,0.20981 0.0762,0.12345 0.17134,0.17511 0.28525,0.15451 0.11387,-0.0206 0.20138,-0.17388 0.26252,-0.4594 l 0.78341,-3.67782 c 0.10271,-0.4891 0.27709,-0.77094 0.52348,-0.84491 0.3008,-0.0985 0.43641,-0.22827 0.40721,-0.38963 -0.0225,-0.12459 -0.0994,-0.19102 -0.23047,-0.19948 z m -11.539865,1.71411 c -0.222594,-0.007 -0.458623,0.003 -0.709001,0.032 -0.771499,0.0882 -1.439659,0.42232 -2.004529,1.00149 -0.560078,0.57863 -0.799428,1.2249 -0.717785,1.9389 0.08931,0.78108 0.448903,1.42209 1.079005,1.92288 0.6301,0.50079 1.359493,0.70354 2.188496,0.60875 0.560655,-0.0641 1.09043,-0.25072 1.58905,-0.56018 0.502865,-0.31478 0.744231,-0.5587 0.724504,-0.73122 -0.0082,-0.0719 -0.04103,-0.12866 -0.09922,-0.17053 -0.0534,-0.0425 -0.123553,-0.059 -0.209807,-0.0491 -0.0575,0.007 -0.173953,0.0713 -0.349332,0.19327 -0.458639,0.31947 -0.898644,0.50319 -1.320332,0.55139 -0.555863,0.0636 -1.082249,-0.0805 -1.578715,-0.4315 -0.492223,-0.35636 -0.767194,-0.7881 -0.825273,-1.29605 -0.07945,-0.69482 0.07015,-1.2558 0.448551,-1.68258 0.383196,-0.42734 0.773777,-0.66354 1.171504,-0.709 0.575032,-0.0658 1.022088,0.0456 1.341522,0.33434 0.324223,0.28819 0.507642,0.6165 0.549836,0.98547 0.01151,0.10063 -1.54e-4,0.17225 -0.0341,0.21498 -0.03395,0.0427 -0.105794,0.0706 -0.216009,0.0832 l -2.292884,0.262 c -0.277929,0.0318 -0.406355,0.14126 -0.384987,0.32814 0.02246,0.19645 0.167801,0.27923 0.436147,0.24856 l 3.299542,-0.37723 c 0.206052,-0.0235 0.345225,-0.0564 0.418063,-0.0987 0.07228,-0.0471 0.0997,-0.14741 0.08216,-0.30076 -0.08164,-0.71399 -0.401092,-1.29866 -0.95808,-1.75442 -0.417742,-0.34181 -0.96054,-0.52311 -1.628325,-0.54415 z" />
  </g>
</svg>
