<?xml version="1.0" encoding="UTF-8" standalone="no"?>
<svg
   xmlns:dc="http://purl.org/dc/elements/1.1/"
   xmlns:cc="http://creativecommons.org/ns#"
   xmlns:rdf="http://www.w3.org/1999/02/22-rdf-syntax-ns#"
   xmlns:svg="http://www.w3.org/2000/svg"
   xmlns="http://www.w3.org/2000/svg"
   xmlns:sodipodi="http://sodipodi.sourceforge.net/DTD/sodipodi-0.dtd"
   xmlns:inkscape="http://www.inkscape.org/namespaces/inkscape"
   width="632.22791"
   height="500"
   viewBox="0 0 167.27698 132.29167"
   version="1.1"
   id="svg8"
   inkscape:version="1.0.1 (3bc2e813f5, 2020-09-07)"
   sodipodi:docname="skunkfx_icon.svg"
   inkscape:export-filename="C:\Users\keega\OneDrive\Cannlytics\assets\images\logos\skunkfx_icon.png"
   inkscape:export-xdpi="96"
   inkscape:export-ydpi="96">
  <defs
     id="defs2">
    <rect
       x="88.733482"
       y="91.138908"
       width="247.19856"
       height="94.623192"
       id="rect907" />
    <rect
       x="88.733482"
       y="91.138908"
       width="247.19856"
       height="94.623192"
       id="rect907-4" />
    <rect
       x="88.733482"
       y="91.138908"
       width="247.19856"
       height="94.623192"
       id="rect920" />
  </defs>
  <sodipodi:namedview
     id="base"
     pagecolor="#ffffff"
     bordercolor="#666666"
     borderopacity="1.0"
     inkscape:pageopacity="0.0"
     inkscape:pageshadow="2"
     inkscape:zoom="0.7"
     inkscape:cx="668.95926"
     inkscape:cy="350.86775"
     inkscape:document-units="mm"
     inkscape:current-layer="layer1"
     inkscape:document-rotation="0"
     showgrid="false"
     inkscape:window-width="1920"
     inkscape:window-height="1094"
     inkscape:window-x="-11"
     inkscape:window-y="-11"
     inkscape:window-maximized="1"
     units="px" />
  <metadata
     id="metadata5">
    <rdf:RDF>
      <cc:Work
         rdf:about="">
        <dc:format>image/svg+xml</dc:format>
        <dc:type
           rdf:resource="http://purl.org/dc/dcmitype/StillImage" />
        <dc:title></dc:title>
      </cc:Work>
    </rdf:RDF>
  </metadata>
  <g
     inkscape:label="Layer 1"
     inkscape:groupmode="layer"
     id="layer1"
     transform="translate(-30.212745,-116.86294)">
    <g
       id="g863"
       transform="matrix(-2.5287911,0,0,2.5287911,185.23878,92.166914)">
      <g
         id="color">
        <path
           fill="#3f3f3f"
           d="m 29.3689,54.3966 -1.1,3 -3,3.1 h -4 c -1.6,-1.2 3.4,-3.7 3.4,-3.7 v -3.7 l -0.2,-3.1 a 15.8574,15.8574 0 0 1 4.9,4.4 z"
           id="path2" />
        <path
           fill="#3f3f3f"
           d="m 60.7613,30.1692 c -0.22,-0.03 -1.41,-1.41 -2.99,-2.89 0,0 -2.5,-2.7 -4.6,-3 a 2.4863,2.4863 0 0 0 -2.8,2.1 2.7819,2.7819 0 0 0 0.5444,1.9944 4.67,4.67 0 0 0 1.6571,1.3719 c 6.6971,3.5671 7.8255,6.304 7.9106,10.9578 0.0695,3.7993 -2.4122,6.8759 -5.8122,8.5759 l -0.6,7.1 -2.6,4.5 c -6.3,0.7 -1,-2.2 -1,-2.2 l -0.5,-2.3 -0.8,-2.1 a 3.36,3.36 0 0 1 -1.4,0.5 v 2.7 l -4,3.8 c -7.4,0.9 -1.1,-3.3 -1.1,-3.3 l 0.1,-3 a 4.6271,4.6271 0 0 1 -1.8,-2.1 c -2.6,-0.7 -5.9,0.7 -5.9,0.7 l -1.1,3.7 -2,3.9 c -1.92,0.24 -2.81,0.12 -3.12,-0.17 -0.7,-0.63 1.62,-2.13 1.62,-2.13 a 5.6779,5.6779 0 0 0 -0.69,-3.32 c -0.07,-0.14 -0.15,-0.29 -0.23,-0.43 -0.07,-0.12 -0.15,-0.24 -0.23,-0.36 a 16.23,16.23 0 0 0 -4.85,-4.29 c -1,-0.59 -2.01,-1.1 -3.07,-1.61 a 2.7956,2.7956 0 0 0 -0.26,-0.12 c -0.12,-0.05 -0.24,-0.11 -0.37,-0.17 a 11.6107,11.6107 0 0 1 -3.95,0.16 q -0.36,-0.045 -0.69,-0.12 c -0.23,-0.04 -0.46,-0.1 -0.68,-0.16 -0.22,-0.05 -0.43,-0.12 -0.64,-0.19 -2.09,-0.7 -3.49,-1.93 -3.7,-2.87 a 0.8018,0.8018 0 0 1 0.23,-0.86 1.1669,1.1669 0 0 1 0.43,-0.26 c 2.6,-1 5.2,-4.9 5.2,-4.9 l 0.43,-0.13 0.87,-0.27 0.02,-0.01 1.78,-0.66 0.9,-0.33 a 6.6361,6.6361 0 0 1 0.86,-0.13 1.84,1.84 0 0 1 0.33,-0.03 9.5961,9.5961 0 0 1 5.76,1.82 c 0.14,0.11 0.25,0.19 0.33,0.25 l 0.12,0.09 0.18,-0.15 a 5.8242,5.8242 0 0 1 3.2,-1.33 4.51,4.51 0 0 1 0.52,0 4.3966,4.3966 0 0 1 1.46,-1.12 12.1247,12.1247 0 0 1 1.56,-0.72 c 0.2,-0.07 0.4,-0.15 0.61,-0.22 0.42,-0.14 0.87,-0.28 1.34,-0.39 0.23,-0.06 0.47,-0.11 0.71,-0.16 a 16.6432,16.6432 0 0 1 2.29,-0.3 11.5969,11.5969 0 0 1 7.45,1.98 c 0.11,0.08 0.22,0.16 0.33,0.25 a 10.4526,10.4526 0 0 1 1.65,1.56 c 1.2193,1.252 2.9785,0.0951 1.0886,-3.2621 -2.2047,-3.9165 -7.9986,-8.0879 -7.9986,-8.0879 a 9.8505,9.8505 0 0 1 -0.7,-14 9.9552,9.9552 0 0 1 3.76,-2.61 1.33,1.33 0 0 1 0.18,-0.07 3.5033,3.5033 0 0 1 0.55,-0.17 9.8226,9.8226 0 0 1 1.72,-0.3 9.46,9.46 0 0 1 9.3,5 z"
           id="path4" />
        <path
           fill="#ffffff"
           d="m 60.8213,29.0892 c -0.0319,0.3587 -0.02,0.72 -0.05,1.09 l -0.01,-0.01 A 22.483,22.483 0 0 0 54.5337,18.7884 c -4.1993,-3.9209 -9.7862,0.6277 -9.0862,5.2277 1.3,8.4 13.3138,13.0131 11.7138,17.6131 -2,5.7 -10,2.8 -10,2.8 -10,-5.3 -19.7,0 -19.7,0 -5.49,-0.47 -8.83,-4.97 -9.17,-5.46 -0.01,-0.01 -0.02,-0.02 -0.02,-0.03 l -0.01,-0.01 2.7,-1 a 7.6331,7.6331 0 0 1 3.98,0.21 c 0.18,0.06 0.34,0.11 0.51,0.17 a 6.7635,6.7635 0 0 1 0.9,0.38 10.18,10.18 0 0 1 2.01,1.24 5.2616,5.2616 0 0 1 1.19,-0.82 3.5482,3.5482 0 0 1 0.44,-0.21 c 0.14,-0.06 0.28,-0.12 0.43,-0.17 a 0.3518,0.3518 0 0 1 0.06,-0.01 5.2837,5.2837 0 0 1 1.79,-0.22 4.3966,4.3966 0 0 1 1.46,-1.12 13.6486,13.6486 0 0 1 1.56,-0.72 c 0.2,-0.07 0.4,-0.15 0.61,-0.22 0.42,-0.14 0.87,-0.27 1.34,-0.39 0.23,-0.06 0.47,-0.11 0.71,-0.16 a 16.6432,16.6432 0 0 1 2.29,-0.3 11.5969,11.5969 0 0 1 7.45,1.98 c 0.11,0.08 0.22,0.16 0.33,0.25 a 10.4526,10.4526 0 0 1 1.65,1.56 c 0.01,0.01 0.02,0.03 0.03,0.04 0.02,0.04 0.04,0.07 0.06,0.11 a 1.5576,1.5576 0 0 0 1.5,-1.6 2,2 0 0 0 -0.02,-0.36 0.9086,0.9086 0 0 0 -0.18,-0.44 c -2.4,-3.8 -8.3,-9.1 -8.3,-9.1 a 9.8505,9.8505 0 0 1 -0.7,-14 9.9552,9.9552 0 0 1 3.76,-2.61 1.33,1.33 0 0 1 0.18,-0.07 3.5033,3.5033 0 0 1 0.55,-0.17 9.8571,9.8571 0 0 1 9.51,2.15 10.1013,10.1013 0 0 1 1.9,2.3 c 0.05,0 3.6149,4.9708 2.86,13.46 z"
           id="path6" />
      </g>
      <g
         id="line">
        <path
           fill="none"
           stroke="#000000"
           stroke-linecap="round"
           stroke-miterlimit="10"
           stroke-width="1.64"
           d="m 43.3689,47.0966 a 4.2988,4.2988 0 0 0 -2.3,5.6 5.5091,5.5091 0 0 0 1.7,2 l -0.1,3 c 0,0 -6.3,4.2 1.1,3.3 l 4,-3.8 v -2.7"
           id="path9" />
        <path
           fill="none"
           stroke="#000000"
           stroke-linecap="round"
           stroke-miterlimit="10"
           stroke-width="1.64"
           d="m 49.7713,39.4992 a 0.5716,0.5716 0 0 0 -0.07,-0.08 c -0.01,-0.02 -0.03,-0.03 -0.04,-0.05 -6.3516,-6.9244 -16.5251,-2.5368 -17.39,-0.87 a 2.62,2.62 0 0 0 -0.28,-0.01 1.9269,1.9269 0 0 0 -0.24,0.01 4.512,4.512 0 0 0 -1.27,0.22 0.3536,0.3536 0 0 0 -0.06,0.01 c -0.15,0.05 -0.29,0.11 -0.43,0.17 a 3.5482,3.5482 0 0 0 -0.44,0.21 5.081,5.081 0 0 0 -1,0.72 c -0.06,0.05 -0.12,0.11 -0.18,0.17 0,0 -0.04,-0.04 -0.12,-0.11 -0.08,-0.06 -0.19,-0.14 -0.33,-0.25 a 9.9668,9.9668 0 0 0 -1.57,-0.95 c -0.28,-0.13 -0.58,-0.26 -0.9,-0.38 -0.17,-0.06 -0.33,-0.11 -0.51,-0.17 a 7.5208,7.5208 0 0 0 -2.78,-0.32 1.8413,1.8413 0 0 0 -0.33,0.03 6.7463,6.7463 0 0 0 -0.86,0.15 l -0.9,0.31 -1.8,0.63 -0.87,0.31 -0.43,0.15 c 0,0 -2.6,4 -5.2,4.9 a 1.1791,1.1791 0 0 0 -0.43,0.24 0.802,0.802 0 0 0 -0.23,0.86 c 0.23,0.93 1.63,2.15 3.7,2.87 0.21,0.07 0.42,0.14 0.64,0.19 0.22,0.06 0.45,0.12 0.68,0.16 q 0.33,0.075 0.69,0.12 a 11.0949,11.0949 0 0 0 3.95,-0.14 c 0,0 0.13,0.05 0.37,0.15 a 2.7837,2.7837 0 0 1 0.26,0.12 c 1.62,0.71 5.9,2.81 7.92,5.9 0.08,0.12 0.16,0.24 0.23,0.36 0.08,0.14 0.16,0.28 0.23,0.43 a 5.5213,5.5213 0 0 1 0.59,3.24 c 0,0 -2.51,1.62 -1.52,2.21 0.38,0.23 1.27,0.31 3.02,0.09 l 2,-3.9"
           id="path11" />
        <path
           fill="none"
           stroke="#000000"
           stroke-linecap="round"
           stroke-miterlimit="10"
           stroke-width="1.64"
           d="m 42.7689,27.8966 a 9.9156442,9.9156442 0 0 1 13.2,-14.8 11.6021,11.6021 0 0 1 2,2.4"
           id="path13" />
        <path
           fill="none"
           stroke="#000000"
           stroke-linecap="round"
           stroke-miterlimit="10"
           stroke-width="1.64"
           d="m 35.0689,53.3966 c 0,0 3.3,-1.3 5.9,-0.7"
           id="path15" />
        <path
           fill="none"
           stroke="#000000"
           stroke-linecap="round"
           stroke-miterlimit="10"
           stroke-width="1.64"
           d="m 50.1689,56.0966 0.5,2.3 c 0,0 -5.3,2.9 1,2.2 l 2.6,-4.5 0.7,-6.9 a 9.9631,9.9631 0 0 0 4.5,-13.3 10.24,10.24 0 0 0 -4.6,-4.6"
           id="path17" />
        <path
           fill="none"
           stroke="#000000"
           stroke-linecap="round"
           stroke-miterlimit="10"
           stroke-width="1.64"
           d="m 24.6689,53.3966 v 3.6 c 0,0 -5,2.5 -3.4,3.7 h 4 l 3,-3.1"
           id="path19" />
      </g>
    </g>
    <g
       id="g857"
       transform="matrix(0.55130571,0.34162595,-0.34162595,0.55130571,170.87224,189.32062)">
      <g
         id="color-2">
        <path
           fill="#61b2e4"
           d="m 55.0226,24.3487 c -0.3898,10e-5 -0.7744,0.0223 -1.1547,0.0586 -1.0062,-3.2881 -4.0639,-5.6796 -7.6814,-5.6788 -1.3943,3e-4 -2.705,0.3568 -3.8475,0.982 -1.6049,-4.7693 -6.1041,-8.2084 -11.4143,-8.2072 -6.6537,0.0015 -12.0464,5.3965 -12.0449,12.0502 10e-5,0.5504 0.05,1.088 0.1216,1.6188 L 4,31.4967 v 11 l 14.8887,5.8841 c -10e-5,0.0239 -0.0035,0.047 -0.0035,0.071 0.0015,6.6537 5.3965,12.0464 12.0502,12.0449 4.8176,-10e-4 8.962,-2.8365 10.8885,-6.9231 1.2585,0.8182 2.7574,1.2979 4.3704,1.2975 3.9024,-9e-4 7.1514,-2.7856 7.8764,-6.4755 0.3167,0.0249 0.634,0.0482 0.9571,0.0482 C 61.6815,48.4423 67.0742,43.0473 67.0727,36.3936 67.0712,29.7399 61.6763,24.3473 55.0226,24.3487 Z"
           id="path2-4" />
        <path
           fill="#92d3f5"
           d="m 55.4863,24.3487 c -0.3898,10e-5 -0.7744,0.0223 -1.1547,0.0586 -1.0062,-3.2881 -4.0639,-5.6796 -7.6814,-5.6788 -1.3943,3e-4 -2.705,0.3568 -3.8475,0.982 -1.6049,-4.7693 -6.1041,-8.2084 -11.4143,-8.2072 -6.6537,0.0015 -12.0464,5.3965 -12.0449,12.0502 10e-5,0.5504 0.05,1.088 0.1216,1.6188 l -3.9779,1.6927 c 2.7356,1.4296 4.8538,3.8796 5.8519,6.8455 1.1426,-0.6252 2.4532,-0.9817 3.8475,-0.982 3.6175,-8e-4 6.6752,2.3907 7.6814,5.6788 0.3804,-0.0363 0.7649,-0.0585 1.1547,-0.0586 6.6537,-0.0014 12.0487,5.3913 12.0502,12.045 4e-4,1.5325 -0.2968,2.9927 -0.8183,4.3412 0.457,0.0814 0.9229,0.1364 1.4035,0.1363 3.9024,-9e-4 7.1514,-2.7856 7.8764,-6.4755 0.3167,0.0249 0.634,0.0482 0.9571,0.0482 C 62.1453,48.4424 67.538,43.0474 67.5365,36.3937 67.535,29.74 62.14,24.3473 55.4863,24.3487 Z"
           id="path4-4" />
      </g>
      <g
         id="hair" />
      <g
         id="skin" />
      <g
         id="skin-shadow" />
      <g
         id="line-6">
        <path
           fill="none"
           stroke="#000000"
           stroke-linecap="round"
           stroke-linejoin="round"
           stroke-miterlimit="10"
           stroke-width="2"
           d="m 5,42.2734 14.3524,6.1074 c -10e-5,0.0239 -0.0035,0.047 -0.0035,0.071 0.0014,6.6537 5.3965,12.0464 12.0501,12.0449 4.8176,-10e-4 8.962,-2.8365 10.8885,-6.9231 1.2585,0.8182 2.7574,1.2979 4.3704,1.2975 3.9024,-9e-4 7.1514,-2.7856 7.8764,-6.4755 0.3167,0.0249 0.634,0.0482 0.9571,0.0482 6.6537,-0.0015 12.0464,-5.3965 12.0449,-12.0502 -0.0015,-6.6537 -5.3963,-12.0463 -12.05,-12.0449 -0.3898,10e-5 -0.7744,0.0223 -1.1547,0.0586 -1.0062,-3.2881 -4.0639,-5.6796 -7.6814,-5.6788 -1.3943,3e-4 -2.705,0.3568 -3.8475,0.982 -1.6049,-4.7693 -6.1041,-8.2084 -11.4143,-8.2072 -6.6537,0.0015 -12.0464,5.3965 -12.0449,12.0502 10e-5,0.5504 0.05,1.088 0.1216,1.6188 L 5,31.3276"
           id="path10" />
        <path
           fill="none"
           stroke="#000000"
           stroke-linecap="round"
           stroke-linejoin="round"
           stroke-miterlimit="10"
           stroke-width="2"
           d="m 5,25.4967 9,-4 c 0,0 -1,-5 4,-8"
           id="path12" />
        <path
           fill="none"
           stroke="#000000"
           stroke-linecap="round"
           stroke-linejoin="round"
           stroke-miterlimit="10"
           stroke-width="2"
           d="m 5,47.4967 9,4 c 0,0 -1,5 4,8"
           id="path14" />
      </g>
    </g>
    <path
       d="m 140.11662,201.41998 c 0,1.46124 -1.18597,2.64584 -2.64584,2.64584 -1.4599,0 -2.64583,-1.1847 -2.64583,-2.64584 0,-1.45976 1.18593,-2.64583 2.64583,-2.64583 1.45987,0 2.64584,1.18607 2.64584,2.64583"
       id="path18"
       style="fill:#ffffff;fill-opacity:1;stroke-width:0.88194" />
    <path
       fill="none"
       stroke="#000000"
       stroke-linecap="round"
       stroke-linejoin="round"
       stroke-width="1.79538"
       d="m 134.32378,208.16814 c 3.60713,2.37881 8.09863,3.74114 11.83562,3.45856"
       id="path20"
       style="fill:#ffffff;fill-opacity:1;stroke:#ffffff;stroke-opacity:1" />
    <path
       fill="none"
       stroke="#000000"
       stroke-linecap="round"
       stroke-linejoin="round"
       stroke-miterlimit="10"
       stroke-width="1.57977"
       d="m 142.98394,200.3527 c -0.39526,-0.15521 -2.09437,-0.87307 -3.00015,-2.77591 -0.73481,-1.54371 -0.51944,-2.96818 -0.42333,-3.45441"
       id="path14-6"
       style="fill:none;fill-opacity:1;stroke:#ffffff;stroke-opacity:1" />
    <path
       d="m 140.11662,201.41998 c 0,1.09593 -0.88947,1.98438 -1.98438,1.98438 -1.09493,0 -1.98437,-0.88853 -1.98437,-1.98438 0,-1.09482 0.88944,-1.98437 1.98437,-1.98437 1.09491,0 1.98438,0.88955 1.98438,1.98437"
       id="path18-2"
       style="fill:#000000;fill-opacity:1;stroke-width:0.661456" />
  </g>
</svg>
