<?xml version="1.0" encoding="UTF-8" standalone="no"?>
<!-- Created with Inkscape (http://www.inkscape.org/) -->

<svg
   xmlns:dc="http://purl.org/dc/elements/1.1/"
   xmlns:cc="http://creativecommons.org/ns#"
   xmlns:rdf="http://www.w3.org/1999/02/22-rdf-syntax-ns#"
   xmlns:svg="http://www.w3.org/2000/svg"
   xmlns="http://www.w3.org/2000/svg"
   xmlns:sodipodi="http://sodipodi.sourceforge.net/DTD/sodipodi-0.dtd"
   xmlns:inkscape="http://www.inkscape.org/namespaces/inkscape"
   width="150"
   height="150"
   viewBox="0 0 39.687499 39.687499"
   version="1.1"
   id="svg1987"
   inkscape:version="0.92.4 (5da689c313, 2019-01-14)"
   sodipodi:docname="two_tone_bottle.svg"
   inkscape:export-filename="C:\Users\Keegan\repos\cannlytics-website\assets\images\lab_icons\two_tone_bottle.png"
   inkscape:export-xdpi="96"
   inkscape:export-ydpi="96">
  <defs
     id="defs1981">
    <clipPath
       clipPathUnits="userSpaceOnUse"
       id="clipPath238">
      <path
         d="m 5440.09,7219.29 -0.38,257.5 257.5,0.38 0.38,-257.49 z"
         id="path236"
         inkscape:connector-curvature="0" />
    </clipPath>
  </defs>
  <sodipodi:namedview
     id="base"
     pagecolor="#ffffff"
     bordercolor="#666666"
     borderopacity="1.0"
     inkscape:pageopacity="0.0"
     inkscape:pageshadow="2"
     inkscape:zoom="1.979899"
     inkscape:cx="-15.542558"
     inkscape:cy="57.366681"
     inkscape:document-units="mm"
     inkscape:current-layer="layer1"
     showgrid="false"
     fit-margin-top="0"
     fit-margin-left="0"
     fit-margin-right="0"
     fit-margin-bottom="0"
     units="px"
     inkscape:window-width="1920"
     inkscape:window-height="1051"
     inkscape:window-x="2391"
     inkscape:window-y="-9"
     inkscape:window-maximized="1" />
  <metadata
     id="metadata1984">
    <rdf:RDF>
      <cc:Work
         rdf:about="">
        <dc:format>image/svg+xml</dc:format>
        <dc:type
           rdf:resource="http://purl.org/dc/dcmitype/StillImage" />
        <dc:title></dc:title>
      </cc:Work>
    </rdf:RDF>
  </metadata>
  <g
     inkscape:label="Layer 1"
     inkscape:groupmode="layer"
     id="layer1"
     transform="translate(-101.80076,-164.15401)">
    <path
       d="m 113.26604,177.91234 v 16.40417 c 0,1.55857 1.264,2.82222 2.82222,2.82222 h 11.1125 c 1.55857,0 2.82222,-1.26365 2.82222,-2.82222 v -16.40417 h -16.75694"
       style="fill:#9cdee4;fill-opacity:1;fill-rule:nonzero;stroke:none;stroke-width:0.03527778"
       id="path396"
       inkscape:connector-curvature="0" />
    <path
       d="m 116.08826,175.4429 c -1.36137,0 -2.46944,1.10772 -2.46944,2.46944 v 16.40417 c 0,1.36172 1.10807,2.46944 2.46944,2.46944 h 11.1125 c 1.36172,0 2.46944,-1.10772 2.46944,-2.46944 v -16.40417 c 0,-1.36172 -1.10772,-2.46944 -2.46944,-2.46944 z m 11.1125,22.04861 h -11.1125 c -1.75048,0 -3.175,-1.42452 -3.175,-3.175 v -16.40417 c 0,-1.75083 1.42452,-3.175 3.175,-3.175 h 11.1125 c 1.75084,0 3.175,1.42417 3.175,3.175 v 16.40417 c 0,1.75048 -1.42416,3.175 -3.175,3.175"
       style="fill:#2e6096;fill-opacity:1;fill-rule:nonzero;stroke:none;stroke-width:0.03527778"
       id="path398"
       inkscape:connector-curvature="0" />
    <path
       d="m 128.0827,191.84707 h -12.87638 v -10.93612 h 12.87638 v 10.93612"
       style="fill:#ffffff;fill-opacity:1;fill-rule:nonzero;stroke:none;stroke-width:0.03527778"
       id="path400"
       inkscape:connector-curvature="0" />
    <path
       d="m 128.0827,184.08595 h -12.87638 v -3.175 h 12.87638 v 3.175"
       style="fill:#f2552d;fill-opacity:1;fill-rule:nonzero;stroke:none;stroke-width:0.03527778"
       id="path402"
       inkscape:connector-curvature="0" />
    <path
       d="m 125.08409,182.67484 h -6.87916 v -0.35277 h 6.87916 v 0.35277"
       style="fill:#ffffff;fill-opacity:1;fill-rule:nonzero;stroke:none;stroke-width:0.03527778"
       id="path404"
       inkscape:connector-curvature="0" />
    <path
       d="m 125.08409,186.20262 h -6.87916 v -0.35278 h 6.87916 v 0.35278"
       style="fill:#2e6096;fill-opacity:1;fill-rule:nonzero;stroke:none;stroke-width:0.03527778"
       id="path406"
       inkscape:connector-curvature="0" />
    <path
       d="m 126.4751,187.37843 h -9.66082 v -0.35278 h 9.66082 v 0.35278"
       style="fill:#2e6096;fill-opacity:1;fill-rule:nonzero;stroke:none;stroke-width:0.03527778"
       id="path408"
       inkscape:connector-curvature="0" />
    <path
       d="m 123.43803,190.67126 h -3.58669 v -0.35278 h 3.58669 v 0.35278"
       style="fill:#2e6096;fill-opacity:1;fill-rule:nonzero;stroke:none;stroke-width:0.03527778"
       id="path410"
       inkscape:connector-curvature="0" />
    <path
       d="m 115.11812,174.11998 h 13.05278 v -2.91041 h -13.05278 z m 13.75833,0.70556 h -14.46388 v -4.32153 h 14.46388 v 4.32153"
       style="fill:#2e6096;fill-opacity:1;fill-rule:nonzero;stroke:none;stroke-width:0.03527778"
       id="path412"
       inkscape:connector-curvature="0" />
    <path
       d="M 115.86777,173.67901 H 115.515 v -2.82222 h 0.35277 v 2.82222"
       style="fill:#2e6096;fill-opacity:1;fill-rule:nonzero;stroke:none;stroke-width:0.03527778"
       id="path414"
       inkscape:connector-curvature="0" />
    <path
       d="m 117.19069,173.67901 h -0.35278 v -2.82222 h 0.35278 v 2.82222"
       style="fill:#2e6096;fill-opacity:1;fill-rule:nonzero;stroke:none;stroke-width:0.03527778"
       id="path416"
       inkscape:connector-curvature="0" />
    <path
       d="m 118.51361,173.67901 h -0.35278 v -2.82222 h 0.35278 v 2.82222"
       style="fill:#2e6096;fill-opacity:1;fill-rule:nonzero;stroke:none;stroke-width:0.03527778"
       id="path418"
       inkscape:connector-curvature="0" />
    <path
       d="m 119.83652,173.67901 h -0.35277 v -2.82222 h 0.35277 v 2.82222"
       style="fill:#2e6096;fill-opacity:1;fill-rule:nonzero;stroke:none;stroke-width:0.03527778"
       id="path420"
       inkscape:connector-curvature="0" />
    <path
       d="m 121.15944,173.67901 h -0.35278 v -2.82222 h 0.35278 v 2.82222"
       style="fill:#2e6096;fill-opacity:1;fill-rule:nonzero;stroke:none;stroke-width:0.03527778"
       id="path422"
       inkscape:connector-curvature="0" />
    <path
       d="m 122.48236,173.67901 h -0.35278 v -2.82222 h 0.35278 v 2.82222"
       style="fill:#2e6096;fill-opacity:1;fill-rule:nonzero;stroke:none;stroke-width:0.03527778"
       id="path424"
       inkscape:connector-curvature="0" />
    <path
       d="m 123.80527,173.67901 h -0.35277 v -2.82222 h 0.35277 v 2.82222"
       style="fill:#2e6096;fill-opacity:1;fill-rule:nonzero;stroke:none;stroke-width:0.03527778"
       id="path426"
       inkscape:connector-curvature="0" />
    <path
       d="m 125.12819,173.67901 h -0.35278 v -2.82222 h 0.35278 v 2.82222"
       style="fill:#2e6096;fill-opacity:1;fill-rule:nonzero;stroke:none;stroke-width:0.03527778"
       id="path428"
       inkscape:connector-curvature="0" />
    <path
       d="m 126.45111,173.67901 h -0.35278 v -2.82222 h 0.35278 v 2.82222"
       style="fill:#2e6096;fill-opacity:1;fill-rule:nonzero;stroke:none;stroke-width:0.03527778"
       id="path430"
       inkscape:connector-curvature="0" />
    <path
       d="m 127.77402,173.67901 h -0.35277 v -2.82222 h 0.35277 v 2.82222"
       style="fill:#2e6096;fill-opacity:1;fill-rule:nonzero;stroke:none;stroke-width:0.03527778"
       id="path432"
       inkscape:connector-curvature="0" />
  </g>
</svg>
