<?xml version="1.0" encoding="UTF-8" standalone="no"?>
<!-- Created with Inkscape (http://www.inkscape.org/) -->

<svg
   xmlns:dc="http://purl.org/dc/elements/1.1/"
   xmlns:cc="http://creativecommons.org/ns#"
   xmlns:rdf="http://www.w3.org/1999/02/22-rdf-syntax-ns#"
   xmlns:svg="http://www.w3.org/2000/svg"
   xmlns="http://www.w3.org/2000/svg"
   xmlns:sodipodi="http://sodipodi.sourceforge.net/DTD/sodipodi-0.dtd"
   xmlns:inkscape="http://www.inkscape.org/namespaces/inkscape"
   width="150"
   height="150"
   viewBox="0 0 39.687499 39.687499"
   version="1.1"
   id="svg1987"
   inkscape:version="0.92.4 (5da689c313, 2019-01-14)"
   sodipodi:docname="two_tone_network.svg"
   inkscape:export-filename="C:\Users\Keegan\repos\cannlytics-website\assets\images\lab_icons\two_tone_network.png"
   inkscape:export-xdpi="96"
   inkscape:export-ydpi="96">
  <defs
     id="defs1981">
    <clipPath
       clipPathUnits="userSpaceOnUse"
       id="clipPath238">
      <path
         d="m 5440.09,7219.29 -0.38,257.5 257.5,0.38 0.38,-257.49 z"
         id="path236"
         inkscape:connector-curvature="0" />
    </clipPath>
  </defs>
  <sodipodi:namedview
     id="base"
     pagecolor="#ffffff"
     bordercolor="#666666"
     borderopacity="1.0"
     inkscape:pageopacity="0.0"
     inkscape:pageshadow="2"
     inkscape:zoom="1.979899"
     inkscape:cx="-15.542558"
     inkscape:cy="57.366681"
     inkscape:document-units="mm"
     inkscape:current-layer="layer1"
     showgrid="false"
     fit-margin-top="0"
     fit-margin-left="0"
     fit-margin-right="0"
     fit-margin-bottom="0"
     units="px"
     inkscape:window-width="1636"
     inkscape:window-height="912"
     inkscape:window-x="2593"
     inkscape:window-y="54"
     inkscape:window-maximized="0" />
  <metadata
     id="metadata1984">
    <rdf:RDF>
      <cc:Work
         rdf:about="">
        <dc:format>image/svg+xml</dc:format>
        <dc:type
           rdf:resource="http://purl.org/dc/dcmitype/StillImage" />
        <dc:title></dc:title>
      </cc:Work>
    </rdf:RDF>
  </metadata>
  <g
     inkscape:label="Layer 1"
     inkscape:groupmode="layer"
     id="layer1"
     transform="translate(-101.80076,-164.15401)">
    <path
       d="m 119.58683,194.27204 -9.70844,-11.24269 0.53375,-0.46143 9.7088,11.24267 -0.53411,0.46145"
       style="fill:#2e6096;fill-opacity:1;fill-rule:nonzero;stroke:none;stroke-width:0.03527778"
       id="path548"
       inkscape:connector-curvature="0" />
    <path
       d="m 120.23771,194.34118 -0.43957,-0.55209 14.82267,-11.79301 0.43956,0.55208 -14.82266,11.79302"
       style="fill:#2e6096;fill-opacity:1;fill-rule:nonzero;stroke:none;stroke-width:0.03527778"
       id="path550"
       inkscape:connector-curvature="0" />
    <path
       d="m 134.17701,182.36367 -7.57555,-8.57955 0.52917,-0.46709 7.57555,8.57956 -0.52917,0.46708"
       style="fill:#2e6096;fill-opacity:1;fill-rule:nonzero;stroke:none;stroke-width:0.03527778"
       id="path552"
       inkscape:connector-curvature="0" />
    <path
       d="m 110.48763,183.24844 -0.59266,-0.38241 7.48453,-11.59934 0.59267,0.38242 -7.48454,11.59933"
       style="fill:#2e6096;fill-opacity:1;fill-rule:nonzero;stroke:none;stroke-width:0.03527778"
       id="path554"
       inkscape:connector-curvature="0" />
    <path
       d="m 124.66013,184.24151 -0.10689,-0.69744 10.13953,-1.55011 0.1069,0.69709 -10.13954,1.55046"
       style="fill:#2e6096;fill-opacity:1;fill-rule:nonzero;stroke:none;stroke-width:0.03527778"
       id="path556"
       inkscape:connector-curvature="0" />
    <path
       d="m 125.04148,184.49586 -0.68474,-0.17004 2.63666,-10.62425 0.68509,0.17004 -2.63701,10.62425"
       style="fill:#2e6096;fill-opacity:1;fill-rule:nonzero;stroke:none;stroke-width:0.03527778"
       id="path558"
       inkscape:connector-curvature="0" />
    <path
       d="m 120.12411,194.52286 -0.63606,-0.30515 4.82248,-10.05381 0.6357,0.30515 -4.82212,10.05381"
       style="fill:#2e6096;fill-opacity:1;fill-rule:nonzero;stroke:none;stroke-width:0.03527778"
       id="path560"
       inkscape:connector-curvature="0" />
    <path
       d="m 124.58499,184.24468 -13.99223,-0.85725 0.0434,-0.70414 13.99223,0.85725 -0.0434,0.70414"
       style="fill:#2e6096;fill-opacity:1;fill-rule:nonzero;stroke:none;stroke-width:0.03527778"
       id="path562"
       inkscape:connector-curvature="0" />
    <path
       d="m 110.53208,183.38707 -0.35207,-0.61135 16.32162,-9.3906 0.35207,0.61136 -16.32162,9.39059"
       style="fill:#2e6096;fill-opacity:1;fill-rule:nonzero;stroke:none;stroke-width:0.03527778"
       id="path564"
       inkscape:connector-curvature="0" />
    <path
       d="m 126.93166,174.08361 -9.28475,-2.02247 0.15028,-0.68933 9.28476,2.02248 -0.15029,0.68932"
       style="fill:#2e6096;fill-opacity:1;fill-rule:nonzero;stroke:none;stroke-width:0.03527778"
       id="path566"
       inkscape:connector-curvature="0" />
    <path
       d="m 124.25479,183.81041 -6.58072,-11.37567 0.61066,-0.35313 6.58036,11.37566 -0.6103,0.35313"
       style="fill:#2e6096;fill-opacity:1;fill-rule:nonzero;stroke:none;stroke-width:0.03527778"
       id="path568"
       inkscape:connector-curvature="0" />
    <path
       d="m 130.09326,192.88703 -5.06871,-8.04474 0.5969,-0.37642 5.06871,8.0451 -0.5969,0.37606"
       style="fill:#2e6096;fill-opacity:1;fill-rule:nonzero;stroke:none;stroke-width:0.03527778"
       id="path570"
       inkscape:connector-curvature="0" />
    <path
       d="m 131.81622,192.63621 -0.65228,-0.26777 3.86468,-9.41952 0.65229,0.26776 -3.86469,9.41953"
       style="fill:#2e6096;fill-opacity:1;fill-rule:nonzero;stroke:none;stroke-width:0.03527778"
       id="path572"
       inkscape:connector-curvature="0" />
    <path
       d="m 120.32343,195.48454 -0.18062,-0.68228 10.00936,-2.64407 0.18063,0.68228 -10.00937,2.64407"
       style="fill:#2e6096;fill-opacity:1;fill-rule:nonzero;stroke:none;stroke-width:0.03527778"
       id="path574"
       inkscape:connector-curvature="0" />
    <path
       d="m 132.66219,194.69925 c -1.14512,0.85478 -2.76578,0.61913 -3.62021,-0.52634 -0.85443,-1.14477 -0.61877,-2.76614 0.52635,-3.62022 1.14511,-0.85443 2.76613,-0.61877 3.6202,0.52635 0.85478,1.14511 0.61913,2.76613 -0.52634,3.62021"
       style="fill:#9cdee4;fill-opacity:1;fill-rule:nonzero;stroke:none;stroke-width:0.03527778"
       id="path576"
       inkscape:connector-curvature="0" />
    <path
       d="m 131.11349,190.39184 c -0.48366,0 -0.94509,0.15344 -1.3342,0.44379 -0.47837,0.35666 -0.78917,0.87842 -0.87489,1.46897 -0.0857,0.59055 0.0635,1.17898 0.42051,1.65735 0.4258,0.57114 1.07879,0.89852 1.79246,0.89852 0.48366,0 0.94439,-0.15346 1.3335,-0.44379 0.47872,-0.35701 0.78952,-0.87842 0.87524,-1.46932 0.0861,-0.59021 -0.0631,-1.17899 -0.42051,-1.65701 -0.4258,-0.57114 -1.07914,-0.89851 -1.79211,-0.89851 z m 0.004,5.17419 c -0.92428,0 -1.80587,-0.44203 -2.35832,-1.18216 -0.46955,-0.62936 -0.66604,-1.4037 -0.5528,-2.18087 0.11289,-0.77718 0.52176,-1.46369 1.15111,-1.93288 0.51188,-0.38171 1.11901,-0.58385 1.75613,-0.58385 0.92428,0 1.80587,0.44203 2.35797,1.18216 0.46954,0.629 0.66604,1.40335 0.55315,2.18052 -0.11289,0.77718 -0.52211,1.46368 -1.15182,1.93322 -0.51153,0.38171 -1.11865,0.58386 -1.75542,0.58386"
       style="fill:#2e6096;fill-opacity:1;fill-rule:nonzero;stroke:none;stroke-width:0.03527778"
       id="path578"
       inkscape:connector-curvature="0" />
    <path
       d="m 119.6595,198.84263 c -2.44192,-0.3549 -4.13385,-2.62255 -3.7786,-5.06483 0.35489,-2.44228 2.62255,-4.13421 5.06483,-3.77896 2.44228,0.35525 4.13385,2.62325 3.77896,5.06448 -0.35525,2.44228 -2.62255,4.13419 -5.06519,3.77931"
       style="fill:#9cdee4;fill-opacity:1;fill-rule:nonzero;stroke:none;stroke-width:0.03527778"
       id="path580"
       inkscape:connector-curvature="0" />
    <path
       d="m 120.29697,190.30469 c -2.02635,0 -3.77472,1.51483 -4.06717,3.52354 -0.15805,1.08833 0.11712,2.17277 0.77434,3.054 0.65723,0.88089 1.61855,1.45345 2.70616,1.61149 0.19791,0.0286 0.39935,0.0434 0.59761,0.0434 2.02671,0 3.77507,-1.51517 4.06753,-3.5246 0.15839,-1.08761 -0.11677,-2.17169 -0.774,-3.05259 -0.65758,-0.88124 -1.6189,-1.45379 -2.70651,-1.61184 -0.19826,-0.0289 -0.3997,-0.0434 -0.59796,-0.0434 z m 0.0109,8.93799 c -0.23248,0 -0.46743,-0.0173 -0.69885,-0.0508 -1.27459,-0.18521 -2.4003,-0.85584 -3.17042,-1.88807 -0.77011,-1.03222 -1.09185,-2.30223 -0.90664,-3.5768 0.34184,-2.35338 2.39007,-4.12786 4.76497,-4.12786 0.23248,0 0.46779,0.0169 0.69921,0.0505 1.27458,0.18556 2.40065,0.85619 3.17076,1.88807 0.77012,1.03223 1.09185,2.30258 0.90664,3.57646 -0.34219,2.35373 -2.39077,4.12855 -4.76567,4.12855"
       style="fill:#2e6096;fill-opacity:1;fill-rule:nonzero;stroke:none;stroke-width:0.03527778"
       id="path582"
       inkscape:connector-curvature="0" />
    <path
       d="m 126.46988,176.70441 c -1.67111,-0.24271 -2.82893,-1.79458 -2.58586,-3.46534 0.24306,-1.6711 1.79458,-2.82821 3.46569,-2.58586 1.67075,0.24307 2.82857,1.79458 2.58586,3.46569 -0.24342,1.67146 -1.79458,2.82893 -3.46569,2.58551"
       style="fill:#9cdee4;fill-opacity:1;fill-rule:nonzero;stroke:none;stroke-width:0.03527778"
       id="path584"
       inkscape:connector-curvature="0" />
    <path
       d="m 126.90626,170.97389 c -1.33173,0 -2.48108,0.99589 -2.67335,2.31598 -0.10371,0.71509 0.0769,1.42769 0.50871,2.00659 0.43215,0.57892 1.06398,0.95498 1.77871,1.05905 0.13088,0.019 0.26317,0.0286 0.3937,0.0286 1.33103,0 2.48002,-0.99589 2.67264,-2.31599 0.21378,-1.47567 -0.81209,-2.85115 -2.28776,-3.06564 -0.13018,-0.019 -0.26212,-0.0286 -0.39265,-0.0286 z m 0.008,6.11575 c -0.16439,0 -0.33125,-0.012 -0.49494,-0.036 -0.90135,-0.13088 -1.69792,-0.60537 -2.24261,-1.33527 -0.54469,-0.73025 -0.77294,-1.62878 -0.64135,-2.53013 0.242,-1.66475 1.69122,-2.91994 3.37114,-2.91994 0.1644,0 0.33056,0.012 0.49424,0.0356 1.86055,0.27058 3.15419,2.00449 2.88396,3.86574 -0.24236,1.66476 -1.69157,2.91994 -3.37044,2.91994"
       style="fill:#2e6096;fill-opacity:1;fill-rule:nonzero;stroke:none;stroke-width:0.03527778"
       id="path586"
       inkscape:connector-curvature="0" />
    <path
       d="m 137.46526,186.18319 c -1.97838,1.47532 -4.77803,1.06856 -6.2537,-0.90981 -1.47567,-1.97802 -1.06856,-4.77767 0.90946,-6.2537 1.97768,-1.47567 4.77768,-1.0682 6.25334,0.90946 1.47602,1.97803 1.06892,4.77767 -0.9091,6.25405"
       style="fill:#ffffff;fill-opacity:1;fill-rule:nonzero;stroke:none;stroke-width:0.03527778"
       id="path588"
       inkscape:connector-curvature="0" />
    <path
       d="m 134.78944,178.48523 c -0.89147,0 -1.74096,0.28257 -2.45745,0.81703 -1.81857,1.3575 -2.19463,3.94158 -0.8375,5.76016 0.78458,1.05198 1.98791,1.65487 3.30165,1.65487 0.89147,0 1.74131,-0.28256 2.45816,-0.81702 1.81856,-1.35714 2.19427,-3.94123 0.83714,-5.76017 -0.78423,-1.05162 -1.98826,-1.65487 -3.302,-1.65487 z m 0.007,8.93763 c -1.53882,0 -2.94816,-0.70662 -3.86715,-1.93816 -1.58962,-2.13078 -1.14935,-5.15798 0.98143,-6.74758 0.8389,-0.62619 1.83444,-0.95744 2.87902,-0.95744 1.53882,0 2.94852,0.70661 3.86785,1.93851 1.58962,2.13078 1.1497,5.15761 -0.98142,6.74758 -0.83926,0.62618 -1.83515,0.95709 -2.87973,0.95709"
       style="fill:#2e6096;fill-opacity:1;fill-rule:nonzero;stroke:none;stroke-width:0.03527778"
       id="path590"
       inkscape:connector-curvature="0" />
    <path
       d="m 119.10458,173.76612 c -1.14547,0.85443 -2.76648,0.61877 -3.62091,-0.52635 -0.85407,-1.14511 -0.61842,-2.76613 0.52635,-3.62056 1.14547,-0.85407 2.76648,-0.61842 3.62091,0.5267 0.85407,1.14476 0.61842,2.76578 -0.52635,3.62021"
       style="fill:#ffffff;fill-opacity:1;fill-rule:nonzero;stroke:none;stroke-width:0.03527778"
       id="path592"
       inkscape:connector-curvature="0" />
    <path
       d="m 117.55483,169.45835 c -0.48366,0 -0.94474,0.15345 -1.33385,0.4438 -0.98707,0.7366 -1.19098,2.13924 -0.45438,3.12666 0.4258,0.57079 1.0795,0.89817 1.79246,0.89817 0.48402,0 0.94545,-0.15346 1.33456,-0.44344 0.98707,-0.73695 1.19098,-2.1396 0.45438,-3.12667 -0.4258,-0.57078 -1.07915,-0.89852 -1.79317,-0.89852 z m 0.004,5.1742 c -0.92427,0 -1.80587,-0.44168 -2.35832,-1.18182 -0.96872,-1.29928 -0.70026,-3.14465 0.59867,-4.11409 0.51153,-0.38171 1.11901,-0.58385 1.75542,-0.58385 0.92463,0 1.80658,0.44203 2.35903,1.18181 0.96908,1.29929 0.70061,3.14502 -0.59832,4.11444 -0.51223,0.38171 -1.11936,0.5835 -1.75648,0.5835"
       style="fill:#2e6096;fill-opacity:1;fill-rule:nonzero;stroke:none;stroke-width:0.03527778"
       id="path594"
       inkscape:connector-curvature="0" />
    <path
       d="m 114.74143,188.17181 c -2.96686,2.21438 -7.16668,1.60408 -9.38072,-1.36384 -2.21332,-2.96651 -1.60302,-7.16633 1.36455,-9.38036 2.96615,-2.21333 7.16668,-1.60303 9.37965,1.36383 2.21404,2.96792 1.60338,7.16739 -1.36348,9.38037"
       style="fill:#ffffff;fill-opacity:1;fill-rule:nonzero;stroke:none;stroke-width:0.03527778"
       id="path596"
       inkscape:connector-curvature="0" />
    <path
       d="m 110.72788,176.44971 c -1.37513,0 -2.68605,0.43602 -3.79166,1.26047 -1.35961,1.01459 -2.24296,2.49767 -2.48708,4.17617 -0.24377,1.67852 0.18027,3.3514 1.1945,4.71065 1.21038,1.62277 3.06741,2.5534 5.09411,2.5534 1.37548,0 2.68676,-0.43602 3.79272,-1.26118 1.3596,-1.01424 2.24261,-2.49696 2.48637,-4.17511 0.24413,-1.67852 -0.18026,-3.35176 -1.19485,-4.71136 -1.21003,-1.62278 -3.0667,-2.55305 -5.09411,-2.55304 z m 0.01,13.40626 c -2.25178,0 -4.31447,-1.034 -5.65996,-2.83704 -1.12678,-1.51024 -1.59809,-3.36938 -1.3268,-5.23417 0.27129,-1.86513 1.25271,-3.51296 2.76331,-4.64009 1.22802,-0.91617 2.68534,-1.40053 4.21358,-1.40053 2.25248,0 4.31517,1.03364 5.65996,2.83633 1.12713,1.51096 1.59844,3.37009 1.32715,5.23487 -0.27093,1.86514 -1.25201,3.51261 -2.76295,4.63938 -1.22838,0.91687 -2.6857,1.40124 -4.21429,1.40124"
       style="fill:#2e6096;fill-opacity:1;fill-rule:nonzero;stroke:none;stroke-width:0.03527778"
       id="path598"
       inkscape:connector-curvature="0" />
    <path
       d="m 126.59829,186.95543 c -1.35361,1.00999 -3.26919,0.73131 -4.27955,-0.62266 -1.0093,-1.3529 -0.7306,-3.26849 0.62301,-4.27848 1.35325,-1.00965 3.26884,-0.73131 4.27849,0.6223 1.00965,1.3536 0.73095,3.26919 -0.62195,4.27884"
       style="fill:#ffffff;fill-opacity:1;fill-rule:nonzero;stroke:none;stroke-width:0.03527778"
       id="path600"
       inkscape:connector-curvature="0" />
    <path
       d="m 124.76773,181.79993 c -0.58562,0 -1.14442,0.18592 -1.61502,0.53728 -0.57926,0.43216 -0.95532,1.06363 -1.05939,1.77871 -0.10407,0.71473 0.0762,1.42734 0.50835,2.00589 0.51576,0.69145 1.30704,1.08797 2.17029,1.08797 0.58596,0 1.14441,-0.18556 1.61537,-0.53693 1.19486,-0.89217 1.44145,-2.59009 0.54998,-3.7853 -0.51541,-0.69109 -1.30634,-1.08762 -2.16958,-1.08762 z m 0.004,6.11541 c -1.07245,0 -2.09515,-0.51259 -2.73615,-1.37125 -0.54398,-0.73026 -0.77187,-1.62842 -0.64064,-2.52978 0.13088,-0.9017 0.60537,-1.69792 1.33562,-2.24261 0.59372,-0.44309 1.29787,-0.67733 2.03694,-0.67733 1.07209,0 2.09479,0.51258 2.73543,1.37124 1.12395,1.50707 0.8128,3.64808 -0.69391,4.77238 -0.59372,0.44344 -1.29822,0.67734 -2.03729,0.67734"
       style="fill:#2e6096;fill-opacity:1;fill-rule:nonzero;stroke:none;stroke-width:0.03527778"
       id="path602"
       inkscape:connector-curvature="0" />
  </g>
</svg>
