<?xml version="1.0" encoding="UTF-8" standalone="no"?>
<!-- Created with Inkscape (http://www.inkscape.org/) -->

<svg
   xmlns:dc="http://purl.org/dc/elements/1.1/"
   xmlns:cc="http://creativecommons.org/ns#"
   xmlns:rdf="http://www.w3.org/1999/02/22-rdf-syntax-ns#"
   xmlns:svg="http://www.w3.org/2000/svg"
   xmlns="http://www.w3.org/2000/svg"
   xmlns:sodipodi="http://sodipodi.sourceforge.net/DTD/sodipodi-0.dtd"
   xmlns:inkscape="http://www.inkscape.org/namespaces/inkscape"
   width="150"
   height="150"
   viewBox="0 0 39.687499 39.687499"
   version="1.1"
   id="svg1987"
   inkscape:version="0.92.4 (5da689c313, 2019-01-14)"
   sodipodi:docname="two_tone_graph.svg"
   inkscape:export-filename="C:\Users\Keegan\repos\cannlytics-website\assets\images\lab_icons\two_tone_graph.png"
   inkscape:export-xdpi="96"
   inkscape:export-ydpi="96">
  <defs
     id="defs1981">
    <clipPath
       clipPathUnits="userSpaceOnUse"
       id="clipPath238">
      <path
         d="m 5440.09,7219.29 -0.38,257.5 257.5,0.38 0.38,-257.49 z"
         id="path236"
         inkscape:connector-curvature="0" />
    </clipPath>
  </defs>
  <sodipodi:namedview
     id="base"
     pagecolor="#ffffff"
     bordercolor="#666666"
     borderopacity="1.0"
     inkscape:pageopacity="0.0"
     inkscape:pageshadow="2"
     inkscape:zoom="1.979899"
     inkscape:cx="-15.542558"
     inkscape:cy="57.366681"
     inkscape:document-units="mm"
     inkscape:current-layer="layer1"
     showgrid="false"
     fit-margin-top="0"
     fit-margin-left="0"
     fit-margin-right="0"
     fit-margin-bottom="0"
     units="px"
     inkscape:window-width="1920"
     inkscape:window-height="1051"
     inkscape:window-x="2391"
     inkscape:window-y="-9"
     inkscape:window-maximized="1" />
  <metadata
     id="metadata1984">
    <rdf:RDF>
      <cc:Work
         rdf:about="">
        <dc:format>image/svg+xml</dc:format>
        <dc:type
           rdf:resource="http://purl.org/dc/dcmitype/StillImage" />
        <dc:title></dc:title>
      </cc:Work>
    </rdf:RDF>
  </metadata>
  <g
     inkscape:label="Layer 1"
     inkscape:groupmode="layer"
     id="layer1"
     transform="translate(-101.80076,-164.15401)">
    <path
       d="m 136.6686,189.18941 v -16.18474 h -30.0482 v 21.98617 h 5.9937 7.90398 2.25284 8.09625 5.80144 v -5.80143"
       style="fill:#ffffff;fill-opacity:1;fill-rule:nonzero;stroke:none;stroke-width:0.03527778"
       id="path268"
       inkscape:connector-curvature="0" />
    <path
       d="m 106.84054,194.77071 h 29.60793 v -21.5459 h -29.60793 z m 30.0482,0.44027 h -30.48847 v -22.42644 h 30.48847 v 22.42644"
       style="fill:#2e6096;fill-opacity:1;fill-rule:nonzero;stroke:none;stroke-width:0.03527778"
       id="path270"
       inkscape:connector-curvature="0" />
    <path
       d="m 107.67874,193.93251 v -19.8695 h 27.93153 v 19.8695 h -27.93153"
       style="fill:#2e6096;fill-opacity:1;fill-rule:nonzero;stroke:none;stroke-width:0.03527778"
       id="path272"
       inkscape:connector-curvature="0" />
    <path
       d="m 107.24729,182.98687 3.76308,-2.58692 5.17419,6.46748 7.76111,-6.5853"
       style="fill:#2e6096;fill-opacity:1;fill-rule:nonzero;stroke:none;stroke-width:0.03527778"
       id="path274"
       inkscape:connector-curvature="0" />
    <path
       d="m 116.15422,187.18211 -5.18795,-6.48476 -3.5941,2.4712 -0.24941,-0.363 3.93171,-2.70264 5.16043,6.45019 7.5886,-6.43854 0.28469,0.33549 -7.93397,6.73206"
       style="fill:#ffffff;fill-opacity:1;fill-rule:nonzero;stroke:none;stroke-width:0.03527778"
       id="path276"
       inkscape:connector-curvature="0" />
    <path
       d="m 116.06673,194.27576 5.1742,-4.46863 4.82141,1.64641 4.1155,-5.64444"
       style="fill:#2e6096;fill-opacity:1;fill-rule:nonzero;stroke:none;stroke-width:0.03527778"
       id="path278"
       inkscape:connector-curvature="0" />
    <path
       d="m 116.21102,194.44263 -0.28822,-0.33338 5.27015,-4.55119 4.78719,1.63478 4.02026,-5.51321 0.35524,0.25893 -4.21075,5.77604 -4.85563,-1.65841 -5.07824,4.38644"
       style="fill:#ffffff;fill-opacity:1;fill-rule:nonzero;stroke:none;stroke-width:0.03527778"
       id="path280"
       inkscape:connector-curvature="0" />
    <path
       d="m 126.66559,178.9765 h -5.64445 v -2.11667 h 5.64445 v 2.11667"
       style="fill:#f2552d;fill-opacity:1;fill-rule:nonzero;stroke:none;stroke-width:0.03527778"
       id="path282"
       inkscape:connector-curvature="0" />
    <path
       d="m 123.84337,179.61044 -0.53587,-0.92816 -0.53622,-0.92851 h 2.14418 l -0.53587,0.92851 -0.53622,0.92816"
       style="fill:#f2552d;fill-opacity:1;fill-rule:nonzero;stroke:none;stroke-width:0.03527778"
       id="path284"
       inkscape:connector-curvature="0" />
    <path
       d="m 133.01559,184.26816 h -5.64445 v -2.11666 h 5.64445 v 2.11666"
       style="fill:#9cdee4;fill-opacity:1;fill-rule:nonzero;stroke:none;stroke-width:0.03527778"
       id="path286"
       inkscape:connector-curvature="0" />
    <path
       d="m 130.19337,184.9021 -0.53586,-0.92815 -0.53623,-0.92852 h 2.14418 l -0.53586,0.92852 -0.53622,0.92815"
       style="fill:#9cdee4;fill-opacity:1;fill-rule:nonzero;stroke:none;stroke-width:0.03527778"
       id="path288"
       inkscape:connector-curvature="0" />
    <path
       d="m 124.27623,180.3555 c 0,0.25612 -0.20744,0.4632 -0.4632,0.4632 -0.25541,0 -0.46285,-0.20708 -0.46285,-0.4632 0,-0.25576 0.20744,-0.46284 0.46285,-0.46284 0.25576,0 0.4632,0.20708 0.4632,0.46284"
       style="fill:#ffffff;fill-opacity:1;fill-rule:nonzero;stroke:none;stroke-width:0.03527778"
       id="path290"
       inkscape:connector-curvature="0" />
    <path
       d="m 130.49393,185.82356 c 0,0.25612 -0.20743,0.4632 -0.46319,0.4632 -0.25542,0 -0.46285,-0.20708 -0.46285,-0.4632 0,-0.25576 0.20743,-0.46285 0.46285,-0.46285 0.25576,0 0.46319,0.20709 0.46319,0.46285"
       style="fill:#ffffff;fill-opacity:1;fill-rule:nonzero;stroke:none;stroke-width:0.03527778"
       id="path292"
       inkscape:connector-curvature="0" />
  </g>
</svg>
