<?xml version="1.0" encoding="UTF-8" standalone="no"?>
<!-- Created with Inkscape (http://www.inkscape.org/) -->

<svg
   xmlns:dc="http://purl.org/dc/elements/1.1/"
   xmlns:cc="http://creativecommons.org/ns#"
   xmlns:rdf="http://www.w3.org/1999/02/22-rdf-syntax-ns#"
   xmlns:svg="http://www.w3.org/2000/svg"
   xmlns="http://www.w3.org/2000/svg"
   xmlns:sodipodi="http://sodipodi.sourceforge.net/DTD/sodipodi-0.dtd"
   xmlns:inkscape="http://www.inkscape.org/namespaces/inkscape"
   width="150"
   height="150"
   viewBox="0 0 39.687499 39.687499"
   version="1.1"
   id="svg1987"
   inkscape:version="0.92.4 (5da689c313, 2019-01-14)"
   sodipodi:docname="two_tone_microscope.svg"
   inkscape:export-filename="C:\Users\Keegan\repos\cannlytics-website\assets\images\lab_icons\two_tone_microscope.png"
   inkscape:export-xdpi="96"
   inkscape:export-ydpi="96">
  <defs
     id="defs1981" />
  <sodipodi:namedview
     id="base"
     pagecolor="#ffffff"
     bordercolor="#666666"
     borderopacity="1.0"
     inkscape:pageopacity="0.0"
     inkscape:pageshadow="2"
     inkscape:zoom="1.979899"
     inkscape:cx="-15.542558"
     inkscape:cy="57.366681"
     inkscape:document-units="mm"
     inkscape:current-layer="layer1"
     showgrid="false"
     fit-margin-top="0"
     fit-margin-left="0"
     fit-margin-right="0"
     fit-margin-bottom="0"
     units="px"
     inkscape:window-width="1920"
     inkscape:window-height="1051"
     inkscape:window-x="2391"
     inkscape:window-y="-9"
     inkscape:window-maximized="1" />
  <metadata
     id="metadata1984">
    <rdf:RDF>
      <cc:Work
         rdf:about="">
        <dc:format>image/svg+xml</dc:format>
        <dc:type
           rdf:resource="http://purl.org/dc/dcmitype/StillImage" />
        <dc:title></dc:title>
      </cc:Work>
    </rdf:RDF>
  </metadata>
  <g
     inkscape:label="Layer 1"
     inkscape:groupmode="layer"
     id="layer1"
     transform="translate(-101.80076,-164.15401)">
    <path
       d="m 128.88873,202.51343 v -1.97167 c 0,-0.29916 -0.35419,-0.54293 -0.79163,-0.54293 h -17.32175 c -0.4385,0 -0.79233,0.24377 -0.79233,0.54293 v 1.97167 h 18.90571"
       style="fill:#2e6096;fill-opacity:1;fill-rule:nonzero;stroke:none;stroke-width:0.03527778"
       id="path40"
       inkscape:connector-curvature="0" />
    <path
       d="m 129.22316,203.12339 h -19.57387 v -1.06645 h 19.57387 v 1.06645"
       style="fill:#9cdee4;fill-opacity:1;fill-rule:nonzero;stroke:none;stroke-width:0.03527778"
       id="path42"
       inkscape:connector-curvature="0" />
    <path
       d="m 110.00207,202.77061 h 18.86831 v -0.3609 h -18.86831 z m 19.57387,0.70555 h -20.27943 v -1.772 h 20.27943 v 1.772"
       style="fill:#2e6096;fill-opacity:1;fill-rule:nonzero;stroke:none;stroke-width:0.03527778"
       id="path44"
       inkscape:connector-curvature="0" />
    <path
       d="m 128.44917,172.03767 c -0.066,0.13899 -0.22049,0.20531 -0.34572,0.14675 l -3.35986,-1.57092 c -0.12453,-0.0579 -0.17427,-0.21907 -0.10795,-0.35983 l 2.4384,-5.21653 c 0.0653,-0.1397 0.22049,-0.20602 0.34572,-0.14675 l 3.35915,1.57021 c 0.12594,0.0586 0.17357,0.21978 0.10866,0.35984 l -2.4384,5.21723"
       style="fill:#9cdee4;fill-opacity:1;fill-rule:nonzero;stroke:none;stroke-width:0.03527778"
       id="path46"
       inkscape:connector-curvature="0" />
    <path
       d="m 124.98595,170.33692 3.175,1.48449 2.37631,-5.08458 -3.175,-1.48379 z m 3.21416,2.22145 c -0.0857,0 -0.16863,-0.018 -0.24589,-0.0543 l -3.35986,-1.57092 c -0.14075,-0.0656 -0.24906,-0.1845 -0.30338,-0.33443 -0.0575,-0.1584 -0.0483,-0.33867 0.025,-0.4953 l 2.4384,-5.21582 c 0.14428,-0.30798 0.52458,-0.45403 0.81597,-0.31609 l 3.35809,1.56951 c 0.30021,0.13934 0.42616,0.51082 0.2794,0.82761 l -2.43875,5.21864 c -0.10795,0.22613 -0.33091,0.37113 -0.56903,0.37113"
       style="fill:#2e6096;fill-opacity:1;fill-rule:nonzero;stroke:none;stroke-width:0.03527778"
       id="path48"
       inkscape:connector-curvature="0" />
    <path
       d="m 129.47857,170.94053 c -0.0797,0.17109 -0.26917,0.25082 -0.42298,0.17991 l -4.10598,-1.92017 c -0.15346,-0.0716 -0.21272,-0.26881 -0.133,-0.43956 l 0.1517,-0.32455 c 0.0808,-0.1711 0.26952,-0.25153 0.42298,-0.17992 l 4.10527,1.91947 c 0.15382,0.072 0.21343,0.26811 0.13371,0.43991 l -0.1517,0.32491"
       style="fill:#ffffff;fill-opacity:1;fill-rule:nonzero;stroke:none;stroke-width:0.03527778"
       id="path50"
       inkscape:connector-curvature="0" />
    <path
       d="m 125.14082,168.90006 4.02166,1.88101 0.14358,-0.3048 -4.02096,-1.8803 z m 4.03331,2.59891 c -0.0931,0 -0.18274,-0.0194 -0.26635,-0.0582 l -4.10739,-1.92088 c -0.15381,-0.0716 -0.27129,-0.20108 -0.33056,-0.36477 -0.0631,-0.17357 -0.0529,-0.37183 0.0272,-0.54398 l 0.15169,-0.32421 c 0.15981,-0.33831 0.57044,-0.49988 0.89182,-0.35031 l 4.10563,1.91947 c 0.32879,0.15381 0.46567,0.56127 0.30374,0.90805 l -0.15169,0.32561 c -0.11642,0.24871 -0.36125,0.40922 -0.62406,0.40922"
       style="fill:#2e6096;fill-opacity:1;fill-rule:nonzero;stroke:none;stroke-width:0.03527778"
       id="path52"
       inkscape:connector-curvature="0" />
    <path
       d="m 120.85421,195.09557 c -0.0794,0.17075 -0.28328,0.24448 -0.45402,0.16475 l -4.17477,-1.95121 c -0.17075,-0.0808 -0.24518,-0.28399 -0.16545,-0.45473 l 0.0974,-0.20673 c 0.079,-0.1711 0.28293,-0.24483 0.45403,-0.16475 l 4.17477,1.95192 c 0.17145,0.0801 0.24518,0.28328 0.1651,0.45473 l -0.097,0.20602"
       style="fill:#2e6096;fill-opacity:1;fill-rule:nonzero;stroke:none;stroke-width:0.03527778"
       id="path54"
       inkscape:connector-curvature="0" />
    <path
       d="m 117.61854,193.71198 c -0.16334,0.3489 -0.43321,0.56515 -0.60431,0.48507 l -4.17477,-1.95192 c -0.17075,-0.0801 -0.17851,-0.42651 -0.0159,-0.77435 l 0.1965,-0.4191 c 0.16263,-0.34854 0.43321,-0.5648 0.60431,-0.48507 l 4.17477,1.95192 c 0.17145,0.0794 0.17709,0.42651 0.0152,0.774 l -0.19579,0.41945"
       style="fill:#2e6096;fill-opacity:1;fill-rule:nonzero;stroke:none;stroke-width:0.03527778"
       id="path56"
       inkscape:connector-curvature="0" />
    <path
       d="m 129.12368,178.563 c 0.072,-0.9578 -0.44203,-1.90324 -1.36278,-2.33398 -0.121,-0.0568 -0.24412,-0.0998 -0.36865,-0.13406 l 0.84807,-1.81469 c 0.0801,-0.17145 0.006,-0.37465 -0.16369,-0.45473 l -0.51752,-0.24165 0.58067,-1.24178 c 0.10619,-0.22683 0.0967,-0.45473 -0.0191,-0.50905 l -3.11855,-1.45733 c -0.11572,-0.0543 -0.29704,0.0847 -0.40252,0.3115 l -0.58068,1.24178 -0.51682,-0.2413 c -0.17109,-0.0801 -0.375,-0.006 -0.45473,0.1644 l -3.95851,8.46737 c -0.0797,0.1718 -0.006,0.375 0.16474,0.45543 l 0.51647,0.24166 -0.41522,0.88794 c -0.10548,0.22648 -0.097,0.45402 0.0201,0.50835 l 0.31644,0.14817 -1.30245,2.78624 c -0.0744,0.1591 -0.0684,0.31926 0.0131,0.35701 l 2.18828,1.02305 c 0.0819,0.0381 0.20814,-0.0593 0.28328,-0.21837 l 1.3021,-2.78588 0.31644,0.14781 c 0.11713,0.055 0.29739,-0.0847 0.40288,-0.31221 l 0.41521,-0.88794 0.51647,0.24165 c 0.17145,0.0801 0.37465,0.007 0.45473,-0.16404 l 0.0744,-0.15875 c 1.37407,-1.16205 2.82963,-1.62983 3.96522,-1.09925 2.05317,0.95955 2.28142,4.80942 0.51047,8.59754 -1.772,3.78884 -4.87186,6.08189 -6.92467,5.12198 -0.79763,-0.37253 -1.31868,-1.18357 -1.55469,-2.25601 l 1.10137,0.51506 c 0.1711,0.079 0.44168,-0.13794 0.6036,-0.48507 l 0.1965,-0.42051 c 0.16334,-0.34714 0.15487,-0.69357 -0.0152,-0.77435 l -4.17478,-1.95122 c -0.1718,-0.0801 -0.44167,0.13688 -0.60431,0.48437 l -0.19579,0.42016 c -0.16333,0.34819 -0.15557,0.69462 0.0152,0.77399 l 2.29341,1.0728 -1.77377,3.79377 c 0.50906,0.40075 1.06786,0.74965 1.67429,1.03258 4.74098,2.21721 10.59638,-0.28504 13.07606,-5.5887 2.35902,-5.04508 0.81244,-10.80524 -3.42512,-13.26374"
       style="fill:#9cdee4;fill-opacity:1;fill-rule:nonzero;stroke:none;stroke-width:0.03527778"
       id="path58"
       inkscape:connector-curvature="0" />
    <path
       d="m 120.04106,192.4187 1.50001,0.70167 c 0.0314,-0.0321 0.12171,-0.12523 0.1965,-0.28575 l 0.1965,-0.42016 c 0.0713,-0.15169 0.0875,-0.27516 0.0847,-0.33866 l -4.04319,-1.89019 c -0.0314,0.0325 -0.12136,0.12559 -0.19685,0.28611 l -0.19544,0.41945 c -0.0709,0.15169 -0.0875,0.27411 -0.085,0.33831 z m -1.80234,3.8555 c 0.43498,0.31997 0.89958,0.59549 1.38324,0.82162 1.09961,0.51435 2.27895,0.7747 3.50485,0.77506 3.77049,0 7.34342,-2.43099 9.10237,-6.19337 2.24896,-4.81013 0.80716,-10.43658 -3.2826,-12.80936 l -0.1912,-0.11077 0.0166,-0.22049 c 0.0624,-0.83538 -0.40393,-1.63442 -1.16064,-1.98861 -0.0946,-0.0441 -0.19685,-0.0815 -0.31291,-0.11324 l -0.40217,-0.11148 1.02447,-2.19286 -0.8308,-0.37677 0.73025,-1.56139 c 0.0169,-0.0356 0.0272,-0.0681 0.0335,-0.0949 l -2.88324,-1.34761 c -0.0162,0.0219 -0.0346,0.0504 -0.0512,0.0861 l -0.73025,1.56174 -0.83644,-0.39052 -3.94406,8.46172 0.83044,0.37748 -0.56444,1.2072 c -0.0166,0.0356 -0.0268,0.0677 -0.0332,0.0945 l 0.51893,0.24236 -1.43686,3.07446 1.84503,0.86289 1.43722,-3.07375 0.51823,0.24201 c 0.0166,-0.0215 0.0346,-0.0505 0.0511,-0.0861 l 0.56479,-1.20827 0.83644,0.39088 0.0928,-0.2226 0.0589,-0.0501 c 1.53141,-1.2954 3.12631,-1.71874 4.34234,-1.14971 2.26377,1.05834 2.56258,5.0412 0.68121,9.0671 -1.52717,3.2639 -4.08869,5.5432 -6.23111,5.54355 0,0 0,0 -3.4e-4,0 -0.41416,0 -0.8054,-0.0847 -1.16241,-0.25118 -0.87489,-0.40922 -1.48025,-1.27353 -1.74977,-2.50013 l -0.0808,-0.36654 z m 4.88844,2.30223 c -3.4e-4,0 0,0 -3.4e-4,0 -1.32997,-2.6e-4 -2.60985,-0.28293 -3.80365,-0.84102 -0.61595,-0.28822 -1.20227,-0.64982 -1.74308,-1.07562 l -0.21978,-0.17321 1.74308,-3.72745 -1.97415,-0.92322 c -0.13299,-0.0621 -0.23318,-0.17498 -0.28822,-0.32703 -0.0896,-0.24518 -0.0508,-0.58808 0.10337,-0.91651 l 0.19544,-0.4191 c 0.15945,-0.34114 0.46566,-0.70485 0.84666,-0.70485 0.0797,0 0.15558,0.0166 0.22613,0.0497 l 4.17548,1.95121 c 0.36548,0.17321 0.44274,0.69603 0.18486,1.24425 l -0.19615,0.41945 c -0.24976,0.53552 -0.72072,0.81774 -1.07174,0.65581 l -0.38029,-0.1778 c 0.21519,0.51259 0.56409,1.01424 1.13136,1.27917 0.26317,0.12313 0.55386,0.18521 0.86395,0.18521 3.4e-4,0 3.4e-4,0 3.4e-4,0 1.84821,-2.6e-4 4.19947,-2.16076 5.59153,-5.13715 1.65735,-3.54506 1.50142,-7.26757 -0.34043,-8.12835 -0.93733,-0.43815 -2.25072,-0.06 -3.52954,1.00013 l -0.0413,0.0878 c -0.15628,0.33549 -0.58596,0.49142 -0.92287,0.33408 l -0.19755,-0.0924 -0.26564,0.56867 c -0.19156,0.41311 -0.57256,0.62019 -0.8689,0.48366 l -1.15252,2.46662 c -0.16227,0.34362 -0.49353,0.50766 -0.75106,0.38948 l -2.18969,-1.02412 c -0.10795,-0.0505 -0.19156,-0.14358 -0.2346,-0.26211 -0.0589,-0.16228 -0.0402,-0.36795 0.0511,-0.56409 l 1.15359,-2.46662 c -0.17745,-0.084 -0.28505,-0.26424 -0.29351,-0.49425 -0.006,-0.1531 0.0307,-0.31926 0.10583,-0.48118 l 0.26635,-0.56904 -0.19721,-0.0917 c -0.34642,-0.16369 -0.496,-0.57785 -0.33478,-0.92428 l 3.95852,-8.46772 c 0.15734,-0.33584 0.58667,-0.49283 0.92392,-0.33514 l 0.19685,0.0924 0.43145,-0.92251 c 0.19297,-0.41417 0.57679,-0.61984 0.87242,-0.48119 l 3.1175,1.45662 c 0.30797,0.14499 0.38699,0.55633 0.18944,0.9786 l -0.4311,0.92181 0.19756,0.0924 c 0.34607,0.16333 0.49565,0.57749 0.33443,0.92322 l -0.68439,1.46438 c 0.0116,0.005 0.0229,0.0106 0.0342,0.0155 0.95321,0.44626 1.56493,1.41464 1.57304,2.45745 4.26332,2.61302 5.75416,8.54322 3.38561,13.60981 -1.87502,4.00932 -5.69913,6.60012 -9.74161,6.60012"
       style="fill:#2e6096;fill-opacity:1;fill-rule:nonzero;stroke:none;stroke-width:0.03527778"
       id="path60"
       inkscape:connector-curvature="0" />
    <path
       d="m 124.59683,177.37696 c 0.50024,-1.06998 1.6944,-1.59068 2.79542,-1.282 l 0.84807,-1.81469 c 0.0801,-0.17145 0.006,-0.37465 -0.16369,-0.45473 l -4.57447,-2.13783 c -0.17109,-0.0801 -0.375,-0.006 -0.45473,0.1644 l -3.95851,8.46737 c -0.0797,0.1718 -0.006,0.375 0.16474,0.45543 l 4.57306,2.13748 c 0.17145,0.0801 0.37465,0.007 0.45473,-0.16404 l 1.1243,-2.40524 c -0.94262,-0.64699 -1.30845,-1.89653 -0.80892,-2.96615"
       style="fill:#ffffff;fill-opacity:1;fill-rule:nonzero;stroke:none;stroke-width:0.03527778"
       id="path62"
       inkscape:connector-curvature="0" />
    <path
       d="m 123.35259,172.00733 -3.94406,8.46172 4.55824,2.11949 0.99978,-2.13889 c -0.9197,-0.79128 -1.21321,-2.09973 -0.68933,-3.22192 0.44732,-0.95603 1.41887,-1.57374 2.47509,-1.57374 0.14781,0 0.29492,0.012 0.43991,0.0356 l 0.72849,-1.55892 z m 0.61947,11.2903 v 0 c -0.1023,0 -0.20108,-0.0222 -0.29421,-0.0656 l -4.57377,-2.13713 c -0.34642,-0.16369 -0.496,-0.57785 -0.33478,-0.92428 l 3.95852,-8.46772 c 0.15734,-0.33584 0.58667,-0.49283 0.92392,-0.33514 l 4.57412,2.13819 c 0.34607,0.16333 0.49565,0.57749 0.33443,0.92322 l -0.97508,2.08597 -0.28786,-0.0804 c -0.17745,-0.0497 -0.36089,-0.0751 -0.54504,-0.0751 -0.78388,0 -1.50425,0.45826 -1.83551,1.16664 -0.42086,0.90064 -0.13088,1.96321 0.68898,2.52624 l 0.24624,0.16898 -1.25095,2.67652 c -0.1136,0.24272 -0.36054,0.3997 -0.62901,0.3997"
       style="fill:#2e6096;fill-opacity:1;fill-rule:nonzero;stroke:none;stroke-width:0.03527778"
       id="path64"
       inkscape:connector-curvature="0" />
    <path
       d="m 128.23362,179.07699 c -0.38241,0.81774 -1.35572,1.17052 -2.17346,0.78776 -0.81704,-0.38206 -1.17017,-1.35502 -0.78811,-2.17276 0.38276,-0.81704 1.35502,-1.17052 2.17311,-0.78775 0.81774,0.38205 1.17087,1.35501 0.78846,2.17275"
       style="fill:#2e6096;fill-opacity:1;fill-rule:nonzero;stroke:none;stroke-width:0.03527778"
       id="path66"
       inkscape:connector-curvature="0" />
    <path
       d="m 122.88763,192.49807 c -0.11042,0.23495 -0.33832,0.36089 -0.50942,0.28117 l -10.70998,-5.00733 c -0.17145,-0.0797 -0.22119,-0.33549 -0.11112,-0.57044 l 0.133,-0.28434 c 0.11042,-0.23566 0.33831,-0.36125 0.5087,-0.28117 l 10.70998,5.00698 c 0.17181,0.0801 0.22119,0.33549 0.11113,0.57044 l -0.13229,0.28469"
       style="fill:#2e6096;fill-opacity:1;fill-rule:nonzero;stroke:none;stroke-width:0.03527778"
       id="path68"
       inkscape:connector-curvature="0" />
    <path
       d="m 127.77889,201.17146 -1.48837,-3.7786 c -0.39687,-1.00682 -1.02447,-1.82315 -2.08351,-1.82315 -0.75247,0 -1.43192,0.81633 -1.51729,1.82315 l -0.31821,3.7786 h 5.40738"
       style="fill:#2e6096;fill-opacity:1;fill-rule:nonzero;stroke:none;stroke-width:0.03527778"
       id="path70"
       inkscape:connector-curvature="0" />
    <path
       d="m 125.58214,197.45354 c 0,0.63782 -0.51717,1.15535 -1.15676,1.15535 -0.63817,0 -1.15464,-0.51753 -1.15464,-1.15535 0,-0.63888 0.51647,-1.1564 1.15464,-1.1564 0.63959,0 1.15676,0.51752 1.15676,1.1564"
       style="fill:#9cdee4;fill-opacity:1;fill-rule:nonzero;stroke:none;stroke-width:0.03527778"
       id="path72"
       inkscape:connector-curvature="0" />
  </g>
</svg>
