<?xml version="1.0" encoding="UTF-8" standalone="no"?>
<!-- Created with Inkscape (http://www.inkscape.org/) -->

<svg
   xmlns:dc="http://purl.org/dc/elements/1.1/"
   xmlns:cc="http://creativecommons.org/ns#"
   xmlns:rdf="http://www.w3.org/1999/02/22-rdf-syntax-ns#"
   xmlns:svg="http://www.w3.org/2000/svg"
   xmlns="http://www.w3.org/2000/svg"
   xmlns:sodipodi="http://sodipodi.sourceforge.net/DTD/sodipodi-0.dtd"
   xmlns:inkscape="http://www.inkscape.org/namespaces/inkscape"
   width="150"
   height="150"
   viewBox="0 0 39.687499 39.687499"
   version="1.1"
   id="svg1987"
   inkscape:version="0.92.4 (5da689c313, 2019-01-14)"
   sodipodi:docname="two_tone_vial.svg"
   inkscape:export-filename="C:\Users\Keegan\repos\cannlytics-website\assets\images\lab_icons\two_tone_vial.png"
   inkscape:export-xdpi="96"
   inkscape:export-ydpi="96">
  <defs
     id="defs1981" />
  <sodipodi:namedview
     id="base"
     pagecolor="#ffffff"
     bordercolor="#666666"
     borderopacity="1.0"
     inkscape:pageopacity="0.0"
     inkscape:pageshadow="2"
     inkscape:zoom="1.979899"
     inkscape:cx="-15.542558"
     inkscape:cy="57.366681"
     inkscape:document-units="mm"
     inkscape:current-layer="layer1"
     showgrid="false"
     fit-margin-top="0"
     fit-margin-left="0"
     fit-margin-right="0"
     fit-margin-bottom="0"
     units="px"
     inkscape:window-width="1920"
     inkscape:window-height="1051"
     inkscape:window-x="2391"
     inkscape:window-y="-9"
     inkscape:window-maximized="1" />
  <metadata
     id="metadata1984">
    <rdf:RDF>
      <cc:Work
         rdf:about="">
        <dc:format>image/svg+xml</dc:format>
        <dc:type
           rdf:resource="http://purl.org/dc/dcmitype/StillImage" />
        <dc:title></dc:title>
      </cc:Work>
    </rdf:RDF>
  </metadata>
  <g
     inkscape:label="Layer 1"
     inkscape:groupmode="layer"
     id="layer1"
     transform="translate(-101.80076,-164.15401)">
    <path
       d="m 118.25467,170.00867 v 24.886 c 0,1.86902 1.52082,3.38985 3.38984,3.38985 1.86901,0 3.38984,-1.52083 3.38984,-3.38985 v -24.886 c -2.23732,-0.39723 -4.54166,-0.39723 -6.77968,0 z m 3.38984,28.9814 c -2.25813,0 -4.0954,-1.83727 -4.0954,-4.0954 v -25.47055 l 0.2861,-0.0554 c 2.50825,-0.48436 5.10964,-0.48436 7.61859,0 l 0.2861,0.0554 v 25.47055 c 0,2.25813 -1.83691,4.0954 -4.09539,4.0954"
       style="fill:#2e6096;fill-opacity:1;fill-rule:nonzero;stroke:none;stroke-width:0.03527778"
       id="path294"
       inkscape:connector-curvature="0" />
    <path
       d="m 121.64451,197.75676 c -1.57798,0 -2.86209,-1.28411 -2.86209,-2.86209 v -18.27283 c 0.94791,-0.14569 1.90747,-0.21907 2.86209,-0.21907 0.95461,0 1.91417,0.0734 2.86208,0.21907 v 18.27283 c 0,1.57798 -1.28411,2.86209 -2.86208,2.86209"
       style="fill:#f2552d;fill-opacity:1;fill-rule:nonzero;stroke:none;stroke-width:0.03527778"
       id="path296"
       inkscape:connector-curvature="0" />
    <path
       d="m 121.6438,170.6666 c -3.98533,0 -3.98533,-0.52775 -3.98533,-0.7814 h 0.70556 c 0,-0.11924 -0.0695,-0.19932 -0.10301,-0.21943 0.1725,0.10301 1.34161,0.29528 3.38278,0.29528 2.04153,0 3.21098,-0.19227 3.38349,-0.29528 -0.0335,0.0201 -0.10301,0.10019 -0.10301,0.21943 h 0.70556 c 0,0.25365 0,0.7814 -3.98604,0.7814"
       style="fill:#2e6096;fill-opacity:1;fill-rule:nonzero;stroke:none;stroke-width:0.03527778"
       id="path298"
       inkscape:connector-curvature="0" />
    <path
       d="m 125.49719,172.98929 h -2.75166 v -0.44027 h 2.75166 v 0.44027"
       style="fill:#2e6096;fill-opacity:1;fill-rule:nonzero;stroke:none;stroke-width:0.03527778"
       id="path300"
       inkscape:connector-curvature="0" />
    <path
       d="m 125.49719,174.86042 h -2.75166 v -0.44026 h 2.75166 v 0.44026"
       style="fill:#2e6096;fill-opacity:1;fill-rule:nonzero;stroke:none;stroke-width:0.03527778"
       id="path302"
       inkscape:connector-curvature="0" />
    <path
       d="m 125.49719,176.73191 h -2.75166 v -0.44062 h 2.75166 v 0.44062"
       style="fill:#2e6096;fill-opacity:1;fill-rule:nonzero;stroke:none;stroke-width:0.03527778"
       id="path304"
       inkscape:connector-curvature="0" />
    <path
       d="m 125.49719,178.60304 h -2.75166 v -0.44026 h 2.75166 v 0.44026"
       style="fill:#2e6096;fill-opacity:1;fill-rule:nonzero;stroke:none;stroke-width:0.03527778"
       id="path306"
       inkscape:connector-curvature="0" />
    <path
       d="m 125.49719,180.47453 h -2.75166 v -0.44027 h 2.75166 v 0.44027"
       style="fill:#2e6096;fill-opacity:1;fill-rule:nonzero;stroke:none;stroke-width:0.03527778"
       id="path308"
       inkscape:connector-curvature="0" />
    <path
       d="m 125.49719,182.34566 h -2.75166 v -0.44026 h 2.75166 v 0.44026"
       style="fill:#2e6096;fill-opacity:1;fill-rule:nonzero;stroke:none;stroke-width:0.03527778"
       id="path310"
       inkscape:connector-curvature="0" />
    <path
       d="m 125.49719,184.21715 h -2.75166 v -0.44027 h 2.75166 v 0.44027"
       style="fill:#2e6096;fill-opacity:1;fill-rule:nonzero;stroke:none;stroke-width:0.03527778"
       id="path312"
       inkscape:connector-curvature="0" />
    <path
       d="m 125.49719,186.08828 h -2.75166 v -0.44026 h 2.75166 v 0.44026"
       style="fill:#2e6096;fill-opacity:1;fill-rule:nonzero;stroke:none;stroke-width:0.03527778"
       id="path314"
       inkscape:connector-curvature="0" />
    <path
       d="m 125.49719,187.95977 h -2.75166 v -0.44027 h 2.75166 v 0.44027"
       style="fill:#2e6096;fill-opacity:1;fill-rule:nonzero;stroke:none;stroke-width:0.03527778"
       id="path316"
       inkscape:connector-curvature="0" />
    <path
       d="m 125.49719,189.8309 h -2.75166 v -0.44026 h 2.75166 v 0.44026"
       style="fill:#2e6096;fill-opacity:1;fill-rule:nonzero;stroke:none;stroke-width:0.03527778"
       id="path318"
       inkscape:connector-curvature="0" />
    <path
       d="m 125.49719,191.70239 h -2.75166 v -0.44027 h 2.75166 v 0.44027"
       style="fill:#2e6096;fill-opacity:1;fill-rule:nonzero;stroke:none;stroke-width:0.03527778"
       id="path320"
       inkscape:connector-curvature="0" />
    <path
       d="m 125.49719,193.57352 h -2.75166 v -0.44027 h 2.75166 v 0.44027"
       style="fill:#2e6096;fill-opacity:1;fill-rule:nonzero;stroke:none;stroke-width:0.03527778"
       id="path322"
       inkscape:connector-curvature="0" />
    <path
       d="m 120.13038,194.6562 v -23.34366 c -0.3376,-0.0349 -0.66569,-0.0794 -0.98107,-0.13653 v 23.18914 c 0,1.60938 1.19062,2.95099 2.77036,3.25791 -1.06821,-0.59126 -1.78929,-1.69722 -1.78929,-2.96686"
       style="fill:#ffffff;fill-opacity:1;fill-rule:nonzero;stroke:none;stroke-width:0.03527778"
       id="path324"
       inkscape:connector-curvature="0" />
  </g>
</svg>
