<?xml version="1.0" encoding="UTF-8" standalone="no"?>
<!-- Created with Inkscape (http://www.inkscape.org/) -->

<svg
   xmlns:dc="http://purl.org/dc/elements/1.1/"
   xmlns:cc="http://creativecommons.org/ns#"
   xmlns:rdf="http://www.w3.org/1999/02/22-rdf-syntax-ns#"
   xmlns:svg="http://www.w3.org/2000/svg"
   xmlns="http://www.w3.org/2000/svg"
   xmlns:sodipodi="http://sodipodi.sourceforge.net/DTD/sodipodi-0.dtd"
   xmlns:inkscape="http://www.inkscape.org/namespaces/inkscape"
   width="150"
   height="150"
   viewBox="0 0 39.687499 39.687499"
   version="1.1"
   id="svg1987"
   inkscape:version="0.92.4 (5da689c313, 2019-01-14)"
   sodipodi:docname="two_tone_brain.svg"
   inkscape:export-filename="C:\Users\Keegan\repos\cannlytics-website\assets\images\lab_icons\two_tone_brain.png"
   inkscape:export-xdpi="96"
   inkscape:export-ydpi="96">
  <defs
     id="defs1981" />
  <sodipodi:namedview
     id="base"
     pagecolor="#ffffff"
     bordercolor="#666666"
     borderopacity="1.0"
     inkscape:pageopacity="0.0"
     inkscape:pageshadow="2"
     inkscape:zoom="1.979899"
     inkscape:cx="-15.542558"
     inkscape:cy="57.366681"
     inkscape:document-units="mm"
     inkscape:current-layer="layer1"
     showgrid="false"
     fit-margin-top="0"
     fit-margin-left="0"
     fit-margin-right="0"
     fit-margin-bottom="0"
     units="px"
     inkscape:window-width="1920"
     inkscape:window-height="1051"
     inkscape:window-x="2391"
     inkscape:window-y="-9"
     inkscape:window-maximized="1" />
  <metadata
     id="metadata1984">
    <rdf:RDF>
      <cc:Work
         rdf:about="">
        <dc:format>image/svg+xml</dc:format>
        <dc:type
           rdf:resource="http://purl.org/dc/dcmitype/StillImage" />
        <dc:title></dc:title>
      </cc:Work>
    </rdf:RDF>
  </metadata>
  <g
     inkscape:label="Layer 1"
     inkscape:groupmode="layer"
     id="layer1"
     transform="translate(-101.80076,-164.15401)">
    <path
       d="m 115.19521,197.76844 c -1.9879,0 -3.60752,-1.6069 -3.62727,-3.59022 l 3.4e-4,-0.5722 -0.51012,-0.13124 c -1.11865,-0.28751 -1.89935,-1.29222 -1.89935,-2.44333 0,-0.57891 0.19297,-1.12501 0.55809,-1.57939 l 0.52318,-0.65158 -0.74436,-0.37924 c -0.79763,-0.40569 -1.29328,-1.20932 -1.29328,-2.09761 0,-0.84738 0.48436,-1.64818 1.26365,-2.08951 l 0.75213,-0.42651 -0.59231,-0.6297 c -0.48579,-0.51647 -0.75354,-1.18816 -0.75354,-1.8916 0,-1.27846 0.8696,-2.38231 2.11454,-2.68464 l 0.90735,-0.22013 -0.48895,-0.79551 c -0.23778,-0.38665 -0.36372,-0.82762 -0.36372,-1.2753 0,-1.25447 0.97931,-2.3248 2.22956,-2.43593 l 0.52987,-0.0473 0.0808,-0.52599 c 0.26952,-1.7526 1.80834,-3.07411 3.57928,-3.07411 1.9999,0 3.62691,1.62702 3.62691,3.62656 v 20.28719 c 0,2.00025 -1.62701,3.62726 -3.62691,3.62726 h -2.26589"
       style="fill:#9cdee4;fill-opacity:1;fill-rule:nonzero;stroke:none;stroke-width:0.03527778"
       id="path74"
       inkscape:connector-curvature="0" />
    <path
       d="m 117.4611,170.40382 c -1.68488,0 -3.14854,1.2573 -3.40502,2.92453 l -0.10195,0.66287 -0.66746,0.0593 c -1.15993,0.10301 -2.06869,1.09608 -2.06869,2.26024 0,0.41487 0.11677,0.82409 0.33726,1.18322 l 0.6163,1.00189 -1.143,0.27728 c -1.16558,0.28293 -1.97979,1.31657 -1.97979,2.51319 0,0.65829 0.25047,1.28694 0.70556,1.77059 l 0.74647,0.7934 -0.9479,0.53728 c -0.7239,0.40993 -1.17405,1.15182 -1.17405,1.93605 0,0.82162 0.45861,1.56527 1.19662,1.94063 l 0.93768,0.47766 -0.65863,0.82056 c -0.33973,0.42263 -0.51929,0.93063 -0.51929,1.46897 0,1.07068 0.72672,2.00518 1.76671,2.27259 l 0.64276,0.1651 -3.5e-4,0.70908 c 0.0187,1.88172 1.56704,3.41383 3.45088,3.41383 h 2.26589 c 1.90253,0 3.45052,-1.54799 3.45052,-3.45087 v -20.28719 c 0,-1.90253 -1.54799,-3.45017 -3.45052,-3.45017 z m 0,27.54101 h -2.26589 c -2.07645,0 -3.78285,-1.68875 -3.80366,-3.76484 l 3.4e-4,-0.43745 -0.37747,-0.097 c -1.19626,-0.30727 -2.03199,-1.38254 -2.03199,-2.61408 0,-0.61948 0.20638,-1.20404 0.59725,-1.68981 l 0.387,-0.48225 -0.55104,-0.28081 c -0.85724,-0.43603 -1.38958,-1.29998 -1.38958,-2.25495 0,-0.91088 0.51858,-1.7706 1.3529,-2.24297 l 0.55704,-0.31573 -0.43886,-0.46637 c -0.51647,-0.54928 -0.80116,-1.26401 -0.80116,-2.01225 0,-1.35996 0.92498,-2.53435 2.2493,-2.85573 l 0.67169,-0.16299 -0.36194,-0.58914 c -0.25506,-0.41451 -0.38982,-0.88759 -0.38982,-1.36772 0,-1.34514 1.04987,-2.49237 2.39042,-2.61161 l 0.39194,-0.0349 0.06,-0.38947 c 0.28257,-1.83797 1.89618,-3.22368 3.75355,-3.22368 2.09691,0 3.8033,1.70603 3.8033,3.80294 v 20.28719 c 0,2.09762 -1.70639,3.80365 -3.8033,3.80365"
       style="fill:#2e6096;fill-opacity:1;fill-rule:nonzero;stroke:none;stroke-width:0.03527778"
       id="path76"
       inkscape:connector-curvature="0" />
    <path
       d="m 118.14548,176.64129 c -0.0974,0 -0.17639,-0.0787 -0.17639,-0.17639 0,-1.20403 -0.97965,-2.1837 -2.18369,-2.1837 h -2.29658 c -0.0977,0 -0.17639,-0.079 -0.17639,-0.17639 0,-0.0977 0.0787,-0.17638 0.17639,-0.17638 h 2.29658 c 1.39841,0 2.53647,1.1377 2.53647,2.53647 0,0.0977 -0.079,0.17639 -0.17639,0.17639"
       style="fill:#2e6096;fill-opacity:1;fill-rule:nonzero;stroke:none;stroke-width:0.03527778"
       id="path78"
       inkscape:connector-curvature="0" />
    <path
       d="m 117.4611,198.02138 h -2.26589 c -2.21228,0 -3.8802,-1.81186 -3.8802,-4.21428 0,-0.18768 0.15204,-0.33937 0.33972,-0.33937 0.18733,0 0.33973,0.15169 0.33973,0.33937 0,2.01542 1.37582,3.53519 3.20075,3.53519 h 2.26589 c 1.76529,0 3.20111,-1.43616 3.20111,-3.20111 v -20.28719 c 0,-1.76495 -1.43582,-3.20075 -3.20111,-3.20075 -1.76495,0 -3.20111,1.4358 -3.20111,3.20075 0,0.18768 -0.15204,0.33972 -0.33972,0.33972 -0.18734,0 -0.33938,-0.15204 -0.33938,-0.33972 0,-2.13924 1.74061,-3.87985 3.88021,-3.87985 2.1396,0 3.88056,1.74061 3.88056,3.87985 v 20.28719 c 0,2.1396 -1.74096,3.8802 -3.88056,3.8802"
       style="fill:#2e6096;fill-opacity:1;fill-rule:nonzero;stroke:none;stroke-width:0.03527778"
       id="path80"
       inkscape:connector-curvature="0" />
    <path
       d="m 113.48882,179.01019 c -1.48907,0 -2.70051,-1.21109 -2.70051,-2.69946 0,-1.48872 1.21144,-2.6998 2.70051,-2.6998 h 0.49388 c 0.18768,0 0.33974,0.15204 0.33974,0.33937 0,0.18768 -0.15206,0.33972 -0.33974,0.33972 h -0.49388 c -1.11442,0 -2.02141,0.90664 -2.02141,2.02071 0,1.11408 0.90698,2.02036 2.02141,2.02036 0.18733,0 0.33973,0.15205 0.33973,0.33973 0,0.18732 -0.1524,0.33937 -0.33973,0.33937"
       style="fill:#2e6096;fill-opacity:1;fill-rule:nonzero;stroke:none;stroke-width:0.03527778"
       id="path82"
       inkscape:connector-curvature="0" />
    <path
       d="m 111.63779,184.31879 h -0.0438 c -0.008,0 -0.0152,0 -0.0229,-7.1e-4 -1.64112,-0.0353 -2.96545,-1.38183 -2.96545,-3.03177 0,-1.67181 1.36031,-3.03177 3.03213,-3.03177 h 1.14864 c 0.19473,0 0.35278,0.15769 0.35278,0.35278 0,0.19473 -0.15805,0.35278 -0.35278,0.35278 h -1.14864 c -1.28306,0 -2.32657,1.04351 -2.32657,2.32621 0,1.28305 1.04351,2.32692 2.32657,2.32692 0.19508,0 0.35277,0.15805 0.35277,0.35278 0,0.19509 -0.15769,0.35278 -0.35277,0.35278"
       style="fill:#2e6096;fill-opacity:1;fill-rule:nonzero;stroke:none;stroke-width:0.03527778"
       id="path84"
       inkscape:connector-curvature="0" />
    <path
       d="m 115.70497,193.82403 h -4.01884 c -1.54023,0 -2.79294,-1.25271 -2.79294,-2.79258 0,-1.54023 1.2527,-2.7933 2.79294,-2.7933 0.19508,0 0.35278,0.15805 0.35278,0.35278 0,0.19508 -0.15771,0.35278 -0.35278,0.35278 -1.15076,0 -2.08739,0.93662 -2.08739,2.08774 0,1.15076 0.93663,2.08703 2.08739,2.08703 h 4.01884 c 0.19508,0 0.35277,0.15804 0.35277,0.35278 0,0.19508 -0.15769,0.35277 -0.35277,0.35277"
       style="fill:#2e6096;fill-opacity:1;fill-rule:nonzero;stroke:none;stroke-width:0.03527778"
       id="path86"
       inkscape:connector-curvature="0" />
    <path
       d="m 112.91096,188.94371 h -2.35408 c -1.44498,0 -2.62079,-1.17546 -2.62079,-2.62008 0,-1.42664 1.276,-2.67829 2.73085,-2.67829 h 1.16277 c 0.19473,0 0.35278,0.15804 0.35278,0.35277 0,0.19474 -0.15806,0.35278 -0.35278,0.35278 h -1.16277 c -1.07913,0 -2.02528,0.92181 -2.02528,1.97274 0,1.05586 0.859,1.91452 1.91522,1.91452 h 2.35408 c 0.19509,0 0.35278,0.15805 0.35278,0.35278 0,0.19508 -0.15769,0.35278 -0.35278,0.35278"
       style="fill:#2e6096;fill-opacity:1;fill-rule:nonzero;stroke:none;stroke-width:0.03527778"
       id="path88"
       inkscape:connector-curvature="0" />
    <path
       d="m 116.80492,191.223 h -4.97451 c -0.0977,0 -0.17639,-0.0787 -0.17639,-0.17639 0,-0.0974 0.0787,-0.17638 0.17639,-0.17638 h 4.97451 c 0.7472,0 1.35502,-0.60749 1.35502,-1.35467 v -4.75227 c 0,-0.74683 -0.60783,-1.35502 -1.35502,-1.35502 -0.0974,0 -0.17638,-0.0787 -0.17638,-0.17639 0,-0.0974 0.079,-0.17639 0.17638,-0.17639 0.94157,0 1.70781,0.76624 1.70781,1.7078 v 4.75227 c 0,0.94156 -0.76623,1.70744 -1.70781,1.70744"
       style="fill:#2e6096;fill-opacity:1;fill-rule:nonzero;stroke:none;stroke-width:0.03527778"
       id="path90"
       inkscape:connector-curvature="0" />
    <path
       d="m 116.85361,195.56146 c -0.0974,0 -0.17639,-0.079 -0.17639,-0.17638 0,-0.0974 0.079,-0.17639 0.17639,-0.17639 0.72037,0 1.30633,-0.58632 1.30633,-1.30705 v -5.07118 c 0,-0.0974 0.079,-0.17638 0.17639,-0.17638 0.0974,0 0.17639,0.079 0.17639,0.17638 v 5.07118 c 0,0.91511 -0.74401,1.65982 -1.65911,1.65982"
       style="fill:#2e6096;fill-opacity:1;fill-rule:nonzero;stroke:none;stroke-width:0.03527778"
       id="path92"
       inkscape:connector-curvature="0" />
    <path
       d="m 114.63675,181.59076 h -3.1256 c -0.0974,0 -0.17639,-0.079 -0.17639,-0.17639 0,-0.0974 0.079,-0.17639 0.17639,-0.17639 h 3.1256 c 0.53587,0 0.97227,-0.43603 0.97227,-0.97225 v -3.06212 c 0,-0.53586 -0.4364,-0.9719 -0.97227,-0.9719 h -0.82903 c -0.0974,0 -0.17639,-0.079 -0.17639,-0.17639 0,-0.0977 0.079,-0.17639 0.17639,-0.17639 h 0.82903 c 0.7306,0 1.32503,0.59443 1.32503,1.32468 v 3.06212 c 0,0.7306 -0.59443,1.32503 -1.32503,1.32503"
       style="fill:#2e6096;fill-opacity:1;fill-rule:nonzero;stroke:none;stroke-width:0.03527778"
       id="path94"
       inkscape:connector-curvature="0" />
    <path
       d="m 118.31341,180.08475 c -0.0977,0 -0.17639,-0.0787 -0.17639,-0.17639 0,-0.53587 -0.43638,-0.9719 -0.97225,-0.9719 h -1.18181 c -0.0974,0 -0.17639,-0.079 -0.17639,-0.17639 0,-0.0977 0.079,-0.17639 0.17639,-0.17639 h 1.18181 c 0.73059,0 1.32503,0.59443 1.32503,1.32468 0,0.0977 -0.079,0.17639 -0.17639,0.17639"
       style="fill:#2e6096;fill-opacity:1;fill-rule:nonzero;stroke:none;stroke-width:0.03527778"
       id="path96"
       inkscape:connector-curvature="0" />
    <path
       d="m 117.1884,186.63019 h -5.67725 c -0.0974,0 -0.17639,-0.079 -0.17639,-0.17639 0,-0.0977 0.079,-0.17639 0.17639,-0.17639 h 5.67725 c 0.53622,0 0.97226,-0.43638 0.97226,-0.97225 v -0.38277 c 0,-0.0974 0.079,-0.17639 0.17639,-0.17639 0.0974,0 0.17639,0.079 0.17639,0.17639 v 0.38277 c 0,0.7306 -0.59443,1.32503 -1.32504,1.32503"
       style="fill:#2e6096;fill-opacity:1;fill-rule:nonzero;stroke:none;stroke-width:0.03527778"
       id="path98"
       inkscape:connector-curvature="0" />
    <path
       d="m 116.10432,191.05614 c -0.0974,0 -0.17639,-0.079 -0.17639,-0.17639 V 189.699 c 0,-0.53551 -0.43605,-0.97119 -0.97227,-0.97119 -0.0974,0 -0.17639,-0.079 -0.17639,-0.17639 0,-0.0977 0.079,-0.17639 0.17639,-0.17639 0.7306,0 1.32504,0.59408 1.32504,1.32397 v 1.18075 c 0,0.0974 -0.079,0.17639 -0.17638,0.17639"
       style="fill:#2e6096;fill-opacity:1;fill-rule:nonzero;stroke:none;stroke-width:0.03527778"
       id="path100"
       inkscape:connector-curvature="0" />
    <path
       d="m 115.08373,186.52647 c -0.0974,0 -0.17639,-0.0787 -0.17639,-0.17639 v -1.17968 c 0,-0.53623 -0.43603,-0.97226 -0.97225,-0.97226 -0.0977,0 -0.17639,-0.0787 -0.17639,-0.17639 0,-0.0974 0.0787,-0.17639 0.17639,-0.17639 0.73059,0 1.32503,0.59443 1.32503,1.32504 v 1.17968 c 0,0.0977 -0.0787,0.17639 -0.17639,0.17639"
       style="fill:#2e6096;fill-opacity:1;fill-rule:nonzero;stroke:none;stroke-width:0.03527778"
       id="path102"
       inkscape:connector-curvature="0" />
    <path
       d="m 113.55302,197.08688 c -0.0977,0 -0.17639,-0.079 -0.17639,-0.17639 0,-0.73061 0.59409,-1.32504 1.32468,-1.32504 0.0977,0 0.17639,0.079 0.17639,0.17639 0,0.0974 -0.0787,0.17639 -0.17639,0.17639 -0.53587,0 -0.9719,0.43603 -0.9719,0.97226 0,0.0974 -0.079,0.17639 -0.17639,0.17639"
       style="fill:#2e6096;fill-opacity:1;fill-rule:nonzero;stroke:none;stroke-width:0.03527778"
       id="path104"
       inkscape:connector-curvature="0" />
    <path
       d="m 128.09381,197.76844 c 1.9879,0 3.60751,-1.6069 3.62726,-3.59022 v -0.5722 l 0.50977,-0.13124 c 1.11865,-0.28751 1.89935,-1.29222 1.89935,-2.44333 0,-0.57891 -0.19297,-1.12501 -0.55809,-1.57939 l -0.52317,-0.65158 0.74471,-0.37924 c 0.79728,-0.40569 1.29293,-1.20932 1.29293,-2.09761 0,-0.84738 -0.48436,-1.64818 -1.26365,-2.08951 l -0.75212,-0.42651 0.59231,-0.6297 c 0.48578,-0.51647 0.75354,-1.18816 0.75354,-1.8916 0,-1.27846 -0.8696,-2.38231 -2.11455,-2.68464 l -0.90735,-0.22013 0.48895,-0.79551 c 0.23778,-0.38665 0.36372,-0.82762 0.36372,-1.2753 0,-1.25447 -0.97931,-2.3248 -2.22956,-2.43593 l -0.52987,-0.0473 -0.0808,-0.52599 c -0.26952,-1.7526 -1.80834,-3.07411 -3.57928,-3.07411 -1.9999,0 -3.62691,1.62702 -3.62691,3.62656 v 20.28719 c 0,2.00025 1.62701,3.62726 3.62691,3.62726 h 2.26589"
       style="fill:#9cdee4;fill-opacity:1;fill-rule:nonzero;stroke:none;stroke-width:0.03527778"
       id="path106"
       inkscape:connector-curvature="0" />
    <path
       d="m 125.82792,170.40382 c -1.90253,0 -3.45052,1.54764 -3.45052,3.45017 v 20.28719 c 0,1.90288 1.54799,3.45087 3.45052,3.45087 h 2.26589 c 1.88384,0 3.43218,-1.53211 3.45087,-3.41559 v -0.70732 l 0.64241,-0.1651 c 1.03999,-0.26741 1.76671,-1.20191 1.76671,-2.27259 0,-0.53834 -0.17956,-1.04634 -0.51929,-1.46897 l -0.65863,-0.82056 0.93768,-0.47766 c 0.73801,-0.37536 1.19662,-1.11901 1.19662,-1.94063 0,-0.78423 -0.45014,-1.52612 -1.17404,-1.93605 l -0.94791,-0.53728 0.74647,-0.7934 c 0.45509,-0.48365 0.70556,-1.1123 0.70556,-1.77059 0,-1.19662 -0.81421,-2.23026 -1.97979,-2.51319 l -1.143,-0.27728 0.6163,-1.00189 c 0.22049,-0.35913 0.33726,-0.76835 0.33726,-1.18322 0,-1.16416 -0.90876,-2.15723 -2.06869,-2.26024 l -0.66746,-0.0593 -0.10195,-0.66287 c -0.25647,-1.66723 -1.72014,-2.92453 -3.40501,-2.92453 z m 2.26589,27.54101 h -2.26589 c -2.0969,0 -3.8033,-1.70603 -3.8033,-3.80365 v -20.28719 c 0,-2.09691 1.70639,-3.80294 3.8033,-3.80294 1.85739,0 3.47098,1.38571 3.75356,3.22368 l 0.06,0.38947 0.39193,0.0349 c 1.34056,0.11924 2.39043,1.26647 2.39043,2.61161 0,0.48013 -0.13477,0.95321 -0.38981,1.36772 l -0.36196,0.58914 0.6717,0.16299 c 1.32432,0.32138 2.24931,1.49577 2.24931,2.85573 0,0.74824 -0.2847,1.46297 -0.80116,2.01225 l -0.43887,0.46637 0.55704,0.31573 c 0.83432,0.47237 1.35291,1.33209 1.35291,2.24297 0,0.95497 -0.53234,1.81892 -1.38959,2.25495 l -0.55104,0.28081 0.387,0.48225 c 0.39088,0.48577 0.59725,1.07033 0.59725,1.68981 0,1.23154 -0.83574,2.30681 -2.03201,2.61408 l -0.37711,0.097 v 0.43533 c -0.0208,2.07821 -1.72721,3.76696 -3.80365,3.76696"
       style="fill:#2e6096;fill-opacity:1;fill-rule:nonzero;stroke:none;stroke-width:0.03527778"
       id="path108"
       inkscape:connector-curvature="0" />
    <path
       d="m 125.14354,176.64129 c -0.0974,0 -0.17639,-0.0787 -0.17639,-0.17639 0,-1.39877 1.13805,-2.53647 2.53646,-2.53647 h 2.29659 c 0.0977,0 0.17639,0.0787 0.17639,0.17638 0,0.0974 -0.0787,0.17639 -0.17639,0.17639 h -2.29659 c -1.20403,0 -2.18369,0.97967 -2.18369,2.1837 0,0.0977 -0.079,0.17639 -0.17638,0.17639"
       style="fill:#2e6096;fill-opacity:1;fill-rule:nonzero;stroke:none;stroke-width:0.03527778"
       id="path110"
       inkscape:connector-curvature="0" />
    <path
       d="m 128.09381,198.02138 h -2.26589 c -2.1396,0 -3.88056,-1.7406 -3.88056,-3.8802 v -20.28719 c 0,-2.13924 1.74096,-3.87985 3.88056,-3.87985 2.1396,0 3.8802,1.74061 3.8802,3.87985 0,0.18768 -0.15204,0.33972 -0.33937,0.33972 -0.18768,0 -0.33972,-0.15204 -0.33972,-0.33972 0,-1.76495 -1.43616,-3.20075 -3.20111,-3.20075 -1.7653,0 -3.20111,1.4358 -3.20111,3.20075 v 20.28719 c 0,1.76495 1.43581,3.20111 3.20111,3.20111 h 2.26589 c 1.82492,0 3.20075,-1.51977 3.20075,-3.53519 0,-0.18768 0.1524,-0.33937 0.33973,-0.33937 0.18768,0 0.33972,0.15169 0.33972,0.33937 0,2.40242 -1.66793,4.21428 -3.8802,4.21428"
       style="fill:#2e6096;fill-opacity:1;fill-rule:nonzero;stroke:none;stroke-width:0.03527778"
       id="path112"
       inkscape:connector-curvature="0" />
    <path
       d="m 129.8002,179.01019 c -0.18733,0 -0.33973,-0.15205 -0.33973,-0.33937 0,-0.18768 0.1524,-0.33973 0.33973,-0.33973 1.11442,0 2.02141,-0.90628 2.02141,-2.02036 0,-1.11407 -0.90699,-2.02071 -2.02141,-2.02071 h -0.49389 c -0.18733,0 -0.33973,-0.15204 -0.33973,-0.33972 0,-0.18733 0.1524,-0.33937 0.33973,-0.33937 h 0.49389 c 1.48907,0 2.70051,1.21108 2.70051,2.6998 0,1.48837 -1.21144,2.69946 -2.70051,2.69946"
       style="fill:#2e6096;fill-opacity:1;fill-rule:nonzero;stroke:none;stroke-width:0.03527778"
       id="path114"
       inkscape:connector-curvature="0" />
    <path
       d="m 131.69497,184.31879 h -0.0438 c -0.19473,0 -0.35278,-0.15769 -0.35278,-0.35278 0,-0.19473 0.15805,-0.35278 0.35278,-0.35278 1.28306,0 2.32657,-1.04387 2.32657,-2.32692 0,-1.2827 -1.04351,-2.32621 -2.32657,-2.32621 h -1.14864 c -0.19473,0 -0.35278,-0.15805 -0.35278,-0.35278 0,-0.19509 0.15805,-0.35278 0.35278,-0.35278 h 1.14864 c 1.67182,0 3.03213,1.35996 3.03213,3.03177 0,1.64994 -1.32433,2.9965 -2.96545,3.03177 -0.008,7.2e-4 -0.0152,7.2e-4 -0.0229,7.2e-4"
       style="fill:#2e6096;fill-opacity:1;fill-rule:nonzero;stroke:none;stroke-width:0.03527778"
       id="path116"
       inkscape:connector-curvature="0" />
    <path
       d="m 131.60289,193.82403 h -4.01884 c -0.19508,0 -0.35278,-0.15769 -0.35278,-0.35277 0,-0.19474 0.1577,-0.35278 0.35278,-0.35278 h 4.01884 c 1.15076,0 2.08774,-0.93627 2.08774,-2.08703 0,-1.15112 -0.93698,-2.08774 -2.08774,-2.08774 -0.19508,0 -0.35278,-0.1577 -0.35278,-0.35278 0,-0.19473 0.1577,-0.35278 0.35278,-0.35278 1.54023,0 2.7933,1.25307 2.7933,2.7933 0,1.53987 -1.25307,2.79258 -2.7933,2.79258"
       style="fill:#2e6096;fill-opacity:1;fill-rule:nonzero;stroke:none;stroke-width:0.03527778"
       id="path118"
       inkscape:connector-curvature="0" />
    <path
       d="m 132.73213,188.94371 h -2.35407 c -0.19509,0 -0.35278,-0.1577 -0.35278,-0.35278 0,-0.19473 0.15769,-0.35278 0.35278,-0.35278 h 2.35407 c 1.05622,0 1.91523,-0.85866 1.91523,-1.91452 0,-1.05093 -0.94614,-1.97274 -2.02529,-1.97274 h -1.16276 c -0.19473,0 -0.35278,-0.15804 -0.35278,-0.35278 0,-0.19473 0.15805,-0.35277 0.35278,-0.35277 h 1.16276 c 1.45485,0 2.73085,1.25165 2.73085,2.67829 0,1.44462 -1.17581,2.62008 -2.62079,2.62008"
       style="fill:#2e6096;fill-opacity:1;fill-rule:nonzero;stroke:none;stroke-width:0.03527778"
       id="path120"
       inkscape:connector-curvature="0" />
    <path
       d="m 131.45861,191.223 h -4.97451 c -0.94157,0 -1.7078,-0.76588 -1.7078,-1.70744 v -4.75227 c 0,-0.94156 0.76622,-1.7078 1.7078,-1.7078 0.0974,0 0.17639,0.079 0.17639,0.17639 0,0.0977 -0.079,0.17639 -0.17639,0.17639 -0.74719,0 -1.35502,0.60819 -1.35502,1.35502 v 4.75227 c 0,0.74718 0.60783,1.35467 1.35502,1.35467 h 4.97451 c 0.0977,0 0.17638,0.079 0.17638,0.17638 0,0.0977 -0.0787,0.17639 -0.17638,0.17639"
       style="fill:#2e6096;fill-opacity:1;fill-rule:nonzero;stroke:none;stroke-width:0.03527778"
       id="path122"
       inkscape:connector-curvature="0" />
    <path
       d="m 126.43541,195.56146 c -0.9151,0 -1.65911,-0.74471 -1.65911,-1.65982 v -5.07118 c 0,-0.0974 0.079,-0.17638 0.17639,-0.17638 0.0974,0 0.17639,0.079 0.17639,0.17638 v 5.07118 c 0,0.72073 0.58596,1.30705 1.30633,1.30705 0.0974,0 0.17639,0.079 0.17639,0.17639 0,0.0974 -0.079,0.17638 -0.17639,0.17638"
       style="fill:#2e6096;fill-opacity:1;fill-rule:nonzero;stroke:none;stroke-width:0.03527778"
       id="path124"
       inkscape:connector-curvature="0" />
    <path
       d="m 131.77787,181.59076 h -3.12561 c -0.73059,0 -1.32502,-0.59443 -1.32502,-1.32503 v -3.06212 c 0,-0.73025 0.59443,-1.32468 1.32502,-1.32468 h 0.82903 c 0.0974,0 0.1764,0.0787 0.1764,0.17639 0,0.0974 -0.079,0.17639 -0.1764,0.17639 h -0.82903 c -0.53587,0 -0.97226,0.43604 -0.97226,0.9719 v 3.06212 c 0,0.53622 0.43639,0.97225 0.97226,0.97225 h 3.12561 c 0.0974,0 0.17639,0.079 0.17639,0.17639 0,0.0974 -0.079,0.17639 -0.17639,0.17639"
       style="fill:#2e6096;fill-opacity:1;fill-rule:nonzero;stroke:none;stroke-width:0.03527778"
       id="path126"
       inkscape:connector-curvature="0" />
    <path
       d="m 124.97561,180.08475 c -0.0974,0 -0.17639,-0.0787 -0.17639,-0.17639 0,-0.73025 0.59443,-1.32468 1.32503,-1.32468 h 1.18181 c 0.0974,0 0.17639,0.0787 0.17639,0.17639 0,0.0974 -0.079,0.17639 -0.17639,0.17639 h -1.18181 c -0.53587,0 -0.97225,0.43603 -0.97225,0.9719 0,0.0977 -0.0787,0.17639 -0.17639,0.17639"
       style="fill:#2e6096;fill-opacity:1;fill-rule:nonzero;stroke:none;stroke-width:0.03527778"
       id="path128"
       inkscape:connector-curvature="0" />
    <path
       d="m 131.77787,186.63019 h -5.67725 c -0.73061,0 -1.32504,-0.59443 -1.32504,-1.32503 v -0.38277 c 0,-0.0974 0.079,-0.17639 0.17639,-0.17639 0.0974,0 0.17639,0.079 0.17639,0.17639 v 0.38277 c 0,0.53587 0.43604,0.97225 0.97226,0.97225 h 5.67725 c 0.0974,0 0.17639,0.0787 0.17639,0.17639 0,0.0974 -0.079,0.17639 -0.17639,0.17639"
       style="fill:#2e6096;fill-opacity:1;fill-rule:nonzero;stroke:none;stroke-width:0.03527778"
       id="path130"
       inkscape:connector-curvature="0" />
    <path
       d="m 127.1847,191.05614 c -0.0974,0 -0.17639,-0.079 -0.17639,-0.17639 V 189.699 c 0,-0.72989 0.59445,-1.32397 1.32504,-1.32397 0.0974,0 0.17639,0.0787 0.17639,0.17639 0,0.0974 -0.079,0.17639 -0.17639,0.17639 -0.53622,0 -0.97226,0.43568 -0.97226,0.97119 v 1.18075 c 0,0.0974 -0.079,0.17639 -0.17639,0.17639"
       style="fill:#2e6096;fill-opacity:1;fill-rule:nonzero;stroke:none;stroke-width:0.03527778"
       id="path132"
       inkscape:connector-curvature="0" />
    <path
       d="m 128.20529,186.52647 c -0.0977,0 -0.17639,-0.0787 -0.17639,-0.17639 v -1.17968 c 0,-0.73061 0.59443,-1.32504 1.32539,-1.32504 0.0974,0 0.17639,0.079 0.17639,0.17639 0,0.0977 -0.079,0.17639 -0.17639,0.17639 -0.53658,0 -0.97261,0.43603 -0.97261,0.97226 v 1.17968 c 0,0.0977 -0.079,0.17639 -0.17639,0.17639"
       style="fill:#2e6096;fill-opacity:1;fill-rule:nonzero;stroke:none;stroke-width:0.03527778"
       id="path134"
       inkscape:connector-curvature="0" />
    <path
       d="m 129.73635,197.08688 c -0.0977,0 -0.17639,-0.079 -0.17639,-0.17639 0,-0.53623 -0.43638,-0.97226 -0.97226,-0.97226 -0.0977,0 -0.17639,-0.079 -0.17639,-0.17639 0,-0.0974 0.0787,-0.17639 0.17639,-0.17639 0.7306,0 1.32503,0.59443 1.32503,1.32504 0,0.0974 -0.079,0.17639 -0.17638,0.17639"
       style="fill:#2e6096;fill-opacity:1;fill-rule:nonzero;stroke:none;stroke-width:0.03527778"
       id="path136"
       inkscape:connector-curvature="0" />
  </g>
</svg>
