<?xml version="1.0" encoding="UTF-8" standalone="no"?>
<svg
   xmlns:dc="http://purl.org/dc/elements/1.1/"
   xmlns:cc="http://creativecommons.org/ns#"
   xmlns:rdf="http://www.w3.org/1999/02/22-rdf-syntax-ns#"
   xmlns:svg="http://www.w3.org/2000/svg"
   xmlns="http://www.w3.org/2000/svg"
   xmlns:sodipodi="http://sodipodi.sourceforge.net/DTD/sodipodi-0.dtd"
   xmlns:inkscape="http://www.inkscape.org/namespaces/inkscape"
   version="1.1"
   id="svg2"
   xml:space="preserve"
   width="771.11719"
   height="554.1637"
   viewBox="0 0 771.11719 554.1637"
   sodipodi:docname="lab_teamwork.svg"
   inkscape:version="1.0.1 (3bc2e813f5, 2020-09-07)"><metadata
     id="metadata8"><rdf:RDF><cc:Work
         rdf:about=""><dc:format>image/svg+xml</dc:format><dc:type
           rdf:resource="http://purl.org/dc/dcmitype/StillImage" /><dc:title></dc:title></cc:Work></rdf:RDF></metadata><defs
     id="defs6"><clipPath
       clipPathUnits="userSpaceOnUse"
       id="clipPath320"><path
         d="m 4001.34,2592.62 h 294.4 c 93.73,0 169.11,-77.11 167,-170.81 l -14.68,-652.27 h -588.4 l 78.76,493.42 -188.44,-230.22 c -30.58,-37.36 -86.73,-40.16 -120.87,-6.01 v 0 c -27.57,27.55 -31.79,70.77 -10.09,103.15 l 269.95,402.78 c 25.11,37.47 67.25,59.96 112.37,59.96 z"
         id="path318" /></clipPath></defs><sodipodi:namedview
     pagecolor="#ffffff"
     bordercolor="#666666"
     borderopacity="1"
     objecttolerance="10"
     gridtolerance="10"
     guidetolerance="10"
     inkscape:pageopacity="0"
     inkscape:pageshadow="2"
     inkscape:window-width="1920"
     inkscape:window-height="1166"
     id="namedview4"
     showgrid="false"
     inkscape:zoom="1.1589846"
     inkscape:cx="532.61741"
     inkscape:cy="214.01407"
     inkscape:window-x="-11"
     inkscape:window-y="-11"
     inkscape:window-maximized="1"
     inkscape:current-layer="g12" /><g
     id="g10"
     inkscape:groupmode="layer"
     inkscape:label="ink_ext_XXXXXX"
     transform="matrix(1.3333333,0,0,-1.3333333,-11.294786,609.81065)"><g
       id="g12"
       transform="scale(0.1)"><path
         d="M 429.203,1204.79 H 5447.95 V 4190.98 H 429.203 Z M 5454.9,1197.84 H 422.258 V 4197.93 H 5454.9 V 1197.84"
         style="fill:#f9b01a;fill-opacity:1;fill-rule:nonzero;stroke:none"
         id="path78" /><path
         d="M 5716.92,616.77 H 691.23 V 823.652 H 5716.92 V 616.77"
         style="fill:#f9b01a;fill-opacity:1;fill-rule:nonzero;stroke:none"
         id="path80" /><path
         d="M 691.234,977.57 V 902.43 H 5716.92 v 75.14 H 691.234"
         style="fill:#e3dccf;fill-opacity:1;fill-rule:nonzero;stroke:none"
         id="path82" /><path
         d="m 691.234,1145.65 v -75.16 H 5716.92 v 75.16 H 691.234"
         style="fill:#e3dccf;fill-opacity:1;fill-rule:nonzero;stroke:none"
         id="path84" /><path
         d="m 691.234,1313.72 v -75.15 H 5716.92 v 75.15 H 691.234"
         style="fill:#e3dccf;fill-opacity:1;fill-rule:nonzero;stroke:none"
         id="path86" /><path
         d="m 691.234,1481.79 v -75.14 H 5716.92 v 75.14 H 691.234"
         style="fill:#e3dccf;fill-opacity:1;fill-rule:nonzero;stroke:none"
         id="path88" /><path
         d="M 3980.68,3054.46 H 2508.9 V 4526.24 H 3980.68 V 3054.46"
         style="fill:#f9b01a;fill-opacity:1;fill-rule:nonzero;stroke:none"
         id="path90" /><path
         d="m 5053.95,1044.62 c 0.77,1.04 -0.8,-1.03 0,0 11.65,2.97 51.99,8.26 97.07,8.26 42.23,0 81.45,-6.15 95.42,-8.86 1.08,-1.38 -1.05,1.45 0,0 -10.78,-3.08 -49.4,-5.35 -95.42,-5.35 -48.86,0 -89.39,2.58 -97.07,5.95"
         style="fill:#423734;fill-opacity:1;fill-rule:nonzero;stroke:none"
         id="path92" /><path
         d="m 5041.28,1288.11 c 4.17,-3.04 67.36,-160.54 76.64,-209.65 7.66,-40.58 21.09,-137.71 21.09,-137.71 l -11.42,0.52 c 0,0 -25.57,150.49 -33.8,190.54 -11.78,57.3 -60.6,159.92 -60.6,159.92 l 8.09,-3.62"
         style="fill:#100f0d;fill-opacity:1;fill-rule:nonzero;stroke:none"
         id="path94" /><path
         d="m 5041.28,1288.11 c 0,0 32.05,12.18 36.33,27.75 4.27,15.56 -43.24,9.8 -57.72,22.61 -14.48,12.83 -27.31,14.1 -57.29,16.15 -29.98,2.05 -56.78,5.39 -73.54,-1.04 -2.68,-1.02 8.75,1.64 19.36,-7.65 29.72,-26.04 67.66,-24.57 89.21,-37.31 20.35,-12.02 34.54,-15.81 43.65,-20.51"
         style="fill:#100f0d;fill-opacity:1;fill-rule:nonzero;stroke:none"
         id="path96" /><path
         d="m 5251.94,1177.74 c -4.16,-3.06 -67.36,-160.55 -76.64,-209.65 -7.66,-40.578 -21.1,-137.719 -21.1,-137.719 l 11.44,0.52 c 0,0 25.57,150.488 33.79,190.549 11.79,57.3 60.6,159.91 60.6,159.91 l -8.09,-3.61"
         style="fill:#100f0d;fill-opacity:1;fill-rule:nonzero;stroke:none"
         id="path98" /><path
         d="m 5251.94,1177.74 c 0,0 -32.05,12.18 -36.32,27.75 -4.27,15.56 43.24,9.8 57.71,22.61 14.48,12.82 27.32,14.09 57.3,16.14 29.99,2.05 56.78,5.4 73.53,-1.03 2.69,-1.03 -8.75,1.63 -19.35,-7.65 -29.73,-26.04 -67.67,-24.57 -89.2,-37.32 -20.35,-12.02 -34.55,-15.8 -43.67,-20.5"
         style="fill:#100f0d;fill-opacity:1;fill-rule:nonzero;stroke:none"
         id="path100" /><path
         d="m 5183.85,965.949 c -3.46,37.371 -22.17,156.621 -17.28,262.721 2.58,56.06 37.93,243.33 56.69,284.7 11.02,24.24 20.6,42.65 26.75,52.38 1.17,3.69 17.68,13.2 7.67,-4.1 -10.03,-17.31 -50.5,-78.75 -77.44,-308.95 -13.02,-111.19 24.65,-362.798 27.2,-368.071 2.55,-5.289 -11.79,-9.758 -11.79,-9.758 -7.92,61.129 -8.7,57.578 -11.8,91.078"
         style="fill:#100f0d;fill-opacity:1;fill-rule:nonzero;stroke:none"
         id="path102" /><path
         d="m 5263.14,1565.75 c 0,0 68.94,90.78 137.91,129.85 68.95,39.07 140.21,56.56 160.88,99.53 20.69,42.98 -45.96,11.01 -71.25,4.02 -25.27,-7.01 -56.89,-9.86 -94.22,-14.24 -37.93,-4.44 -147.39,-49.37 -160.9,-103.69 -11.63,-46.75 -4.59,-93.64 27.58,-115.47"
         style="fill:#433397;fill-opacity:1;fill-rule:nonzero;stroke:none"
         id="path104" /><path
         d="m 5232.42,1665.93 c 0,0 -34.22,-63.83 -17.83,-94.08 16.38,-30.24 39.22,-17.5 39.22,-17.5 l 9.33,11.4 c 0,0 -37.2,23.96 -30.72,100.18"
         style="fill:#100f0d;fill-opacity:1;fill-rule:nonzero;stroke:none"
         id="path106" /><path
         d="m 5212.87,1765.31 -26.5,-43.74 c 0,0 -57.78,18.55 -57.78,43.74 0,25.18 -7.16,17.22 -16.45,22.52 -9.27,5.3 -7.95,22.54 0,35.79 7.95,13.25 -6.3,15.58 -12.93,22.2 -6.62,6.63 -27.82,54.67 56.01,81.18 35.65,11.29 33.79,2.65 44.4,0 10.6,-2.65 -33.14,-86.14 13.25,-161.69"
         style="fill:#100f0d;fill-opacity:1;fill-rule:nonzero;stroke:none"
         id="path108" /><path
         d="m 5219.5,1765.31 c 0,0 -37.11,7.95 -31.8,30.47 5.29,22.55 6.62,41.09 -7.96,55.67 -14.57,14.58 9.27,94.11 39.76,124.59 30.48,30.49 107.36,68.78 133.87,90.06 26.49,21.28 58.32,27.02 92.77,43.38 34.46,16.34 103.39,70.68 104.72,101.16 1.32,30.48 22.54,-48.6 -29.16,-101.16 -51.7,-52.58 -182.91,-155.96 -202.79,-189.09 -19.89,-33.15 -87.48,-116.65 -99.41,-155.08"
         style="fill:#433397;fill-opacity:1;fill-rule:nonzero;stroke:none"
         id="path110" /><path
         d="m 5222.84,1774.09 c 0,0 -48.31,-84.33 -70.46,-386.54 -6.49,-88.58 18.28,-346.25 18.28,-346.25 l -14.49,0.08 c 0,0 -21.07,261.29 -13.12,350.79 7.96,89.49 37.1,310.81 43.32,329.4 11.24,33.62 36.47,52.52 36.47,52.52"
         style="fill:#100f0d;fill-opacity:1;fill-rule:nonzero;stroke:none"
         id="path112" /><path
         d="m 5046.39,1421.04 25.03,-29.81 c 0,0 41.29,20.68 38.36,39.62 -2.93,18.94 3.38,13.79 9.75,18.84 6.36,5.08 3.36,17.88 -4.16,26.93 -7.53,9.04 2.92,12.45 7.13,18.2 4.21,5.76 14.58,44.37 -51.56,54.54 -28.14,4.33 -25.72,-1.94 -33.4,-5.16 -7.66,-3.25 34.95,-60.94 8.85,-123.16"
         style="fill:#100f0d;fill-opacity:1;fill-rule:nonzero;stroke:none"
         id="path114" /><path
         d="m 5041.41,1420.27 c 0,0 26.98,10.3 20.38,26.63 -6.61,16.33 -9.77,30.13 -0.5,42.78 9.27,12.67 -17.93,69.71 -44.39,89.09 -26.48,19.38 -88.75,39.23 -111.17,52.15 -22.41,12.92 -47,13.54 -74.83,21.82 -27.8,8.29 -85.97,41.14 -90.52,63.91 -4.54,22.78 -11.28,-39.17 33.71,-72.69 44.99,-33.53 155.71,-96.01 174.51,-118.63 18.8,-22.61 79.37,-77.54 92.81,-105.06"
         style="fill:#433397;fill-opacity:1;fill-rule:nonzero;stroke:none"
         id="path116" /><path
         d="m 5037.87,1426.49 c 0,0 46.13,-57.8 97.95,-282.51 15.2,-65.87 26.54,-262.539 26.54,-262.539 l 10.89,1.75 c 0,0 -14.55,198.959 -30.94,265.339 -16.4,66.4 -64.06,229.45 -70.89,242.7 -12.37,23.97 -33.55,35.26 -33.55,35.26"
         style="fill:#100f0d;fill-opacity:1;fill-rule:nonzero;stroke:none"
         id="path118" /><path
         d="m 5013.85,1634.24 c 0,0 62.83,-124.4 82.01,-236.23 19.19,-111.83 57.66,-436.838 56.75,-460.678 -0.9,-23.863 15.75,1.93 15.75,1.93 0,0 -49.55,427.828 -73.26,515.108 -24.89,91.6 -70.82,181.16 -70.82,181.16 l -10.43,-1.29"
         style="fill:#100f0d;fill-opacity:1;fill-rule:nonzero;stroke:none"
         id="path120" /><path
         d="m 4856.26,1879.84 c 0,0 99.54,-35.9 111.08,-52.19 11.54,-16.3 45.49,-59.74 52.71,-79.77 7.24,-20.03 32.31,-18.38 40.2,-23.37 7.9,-4.97 12.9,-50.18 20.54,-66.57 7.66,-16.38 13.19,-30.5 10.38,-43.26 -2.79,-12.75 -26.5,-29.19 -35.61,-22.02 -9.09,7.21 -103.32,142.94 -142.06,159.86 -38.75,16.92 -74.81,19.15 -87.87,50.31 -8.27,19.68 17.45,65.29 30.63,77.01"
         style="fill:#100f0d;fill-opacity:1;fill-rule:nonzero;stroke:none"
         id="path122" /><path
         d="m 4856.9,1874.42 c 0,0 77.66,-106.21 115.16,-150.69 37.5,-44.49 75.47,-103.9 75.47,-103.9 0,0 -109.28,143.18 -117.61,152.67 -8.34,9.49 -64.84,91.21 -73.02,101.92"
         style="fill:#100f0d;fill-opacity:1;fill-rule:nonzero;stroke:none"
         id="path124" /><path
         d="m 5033.52,1587.26 c 0,0 18.8,-3.52 25.06,9.81 6.27,13.35 -14.82,47.9 -25.64,57.29 -10.83,9.4 -10.62,31.79 -13.7,35.94 -6.27,8.46 -87.85,41.75 -86.71,57.8 1.14,16.06 -52.44,21.42 -80.31,27.82 -12.57,2.9 52.18,-22.32 91.76,-63.36 29.6,-30.69 70.58,-62.16 89.54,-125.3"
         style="fill:#433397;fill-opacity:1;fill-rule:nonzero;stroke:none"
         id="path126" /><path
         d="m 5255.36,1398.05 c -25.08,-64.28 -105.61,-405.14 -106.08,-427.081 -0.47,-21.949 -23.55,-9.86 -23.55,-9.86 0,0 106.24,420.931 126.18,448.391 36.64,50.47 13.62,14.65 3.45,-11.45"
         style="fill:#100f0d;fill-opacity:1;fill-rule:nonzero;stroke:none"
         id="path128" /><path
         d="m 5312.98,1373.31 c 0,0 -39.57,-6.99 -55.77,23.34 -16.2,30.32 -14.78,40.61 -11.22,48.57 3.54,7.96 -12.61,23.58 -12.61,23.58 0,0 -3.88,29.99 16.01,52.74 19.9,22.74 25.83,18.12 37.84,29.73 11.99,11.6 28.5,56.43 69.07,63.64 7.44,1.33 14.39,-2.61 14.39,-2.61 0,0 14.28,15.44 49.96,23.23 35.68,7.8 39.22,15.76 51.25,25.65 12.06,9.9 28.64,11.13 34.42,24.62 5.78,13.49 8.66,-50.12 -4.49,-69.27 -13.17,-19.16 -30.39,-38.77 -34.34,-57.33 -4.37,-20.55 -14.53,-42.75 -25.89,-52.09 -3.01,-2.46 -46.21,-25.39 -59.8,-53.45 -13.16,-27.13 -25.19,-62.5 -68.82,-80.35"
         style="fill:#433397;fill-opacity:1;fill-rule:nonzero;stroke:none"
         id="path130" /><path
         d="m 5492.66,1654.07 c 0,0 -227.48,-190.59 -240.83,-246.75 l 5.38,-10.67 c 0,0 10.82,32.78 37.91,62.21 65.55,71.25 159.18,156.24 197.54,195.21"
         style="fill:#100f0d;fill-opacity:1;fill-rule:nonzero;stroke:none"
         id="path132" /><path
         d="m 5056.5,1043.68 c 12.48,-2.88 49.66,-4.98 93.74,-4.99 45.94,0.01 84.51,2.28 95.26,5.37 17.32,-23.9 -7.89,-62.681 -7.89,-95.841 0,-53.879 8.18,-92.239 -31.8,-115.289 0.03,-0.008 0.07,-0.02 0.1,-0.051 -6.5,-3.731 -13.33,-6.809 -20.42,-9.227 -74.91,41.18 -110.06,134.598 -128.99,220.028"
         style="fill:#100f0d;fill-opacity:1;fill-rule:nonzero;stroke:none"
         id="path134" /><path
         d="m 5054.96,1044.06 c 0.45,-0.13 1.01,-0.25 1.54,-0.38 18.93,-85.43 54.08,-178.848 128.99,-220.028 -0.94,-0.32 -1.88,-0.66 -2.82,-0.972 h -32.43 -32.44 c -8.11,2.539 -15.9,5.98 -23.24,10.199 0.03,0.031 0.07,0.043 0.09,0.051 -39.97,23.05 -31.79,61.41 -31.79,115.289 0,33.16 -25.21,71.941 -7.9,95.841"
         style="fill:#100f0d;fill-opacity:1;fill-rule:nonzero;stroke:none"
         id="path136" /><path
         d="m 1772.74,1863.32 c 0,0 -135.68,-36.19 -190.33,-161.01 -54.65,-124.81 -31.62,-213.45 -13.1,-242.98 18.5,-29.53 23.44,-127.75 2.76,-183.14 0,0 23.64,73.86 22.15,183.14 -1.47,109.3 41.77,109.31 66.31,190.54 24.53,81.24 64.42,155.83 66.64,158.79 2.2,2.95 33.97,39.88 33.97,39.88 l 11.6,14.78"
         style="fill:#433397;fill-opacity:1;fill-rule:nonzero;stroke:none"
         id="path138" /><path
         d="m 1464.81,1508.09 c 0,0 4.43,285.8 228.21,398.79 0,0 -54,-103.03 -62.45,-176.13 -8.46,-73.13 -66.06,-134.04 -88.21,-160.64 -22.17,-26.58 -77.55,-62.02 -77.55,-62.02"
         style="fill:#433397;fill-opacity:1;fill-rule:nonzero;stroke:none"
         id="path140" /><path
         d="m 1591.22,1775.67 c -8.08,-14.77 -16.66,-32.48 -24.5,-52 -7.88,-19.51 -15.4,-40.68 -22.15,-62.05 -6.59,-21.45 -12.5,-43.08 -17.56,-63.47 -4.8,-19.34 -8.54,-37.58 -11.62,-53.5 1.08,0.88 2.15,1.77 3.2,2.65 3.36,15.06 7.51,31.92 12.16,49.9 5.21,20.3 11.3,41.8 18.05,63.1 13.09,42.69 29.3,84.43 44.63,114.19 7.7,14.85 14.84,26.86 20.52,34.83 5.59,8.03 9.27,12.27 9.27,12.27 0,0 -3.86,-4.06 -9.87,-11.82 -5.99,-7.76 -14.02,-19.32 -22.13,-34.1"
         style="fill:#100f0d;fill-opacity:1;fill-rule:nonzero;stroke:none"
         id="path142" /><path
         d="m 1390.5,1753.68 c 19.55,0 20.12,-30.35 0.53,-30.35 -19.56,0 -20.12,30.35 -0.53,30.35 z m -44.93,58.75 c 1.92,-5.3 3.8,-10.65 5.58,-16.05 1.19,0.3 2.49,0.49 3.9,0.49 18.03,0 19.86,-25.72 4.71,-29.75 3.23,-12.51 5.7,-24.82 7.03,-36.37 8.47,-73.13 66.09,-134.04 88.22,-160.64 22.17,-26.58 77.55,-62.02 77.55,-62.02 0,0 -4.42,285.8 -228.19,398.79 0,0 15.73,-30.05 31.55,-69.21 12.96,-1.44 16.34,-17.06 9.65,-25.24"
         style="fill:#433397;fill-opacity:1;fill-rule:nonzero;stroke:none"
         id="path144" /><path
         d="m 1406.14,1775.67 c 8.09,-14.77 16.66,-32.48 24.52,-52 7.87,-19.51 15.37,-40.68 22.15,-62.05 6.57,-21.45 12.48,-43.08 17.55,-63.47 4.81,-19.34 8.54,-37.58 11.62,-53.5 -1.08,0.88 -2.14,1.77 -3.22,2.65 -3.34,15.06 -7.5,31.92 -12.13,49.9 -5.22,20.3 -11.29,41.8 -18.05,63.1 -13.09,42.69 -29.32,84.43 -44.64,114.19 -7.7,14.85 -14.85,26.86 -20.52,34.83 -5.6,8.03 -9.26,12.27 -9.26,12.27 0,0 3.86,-4.06 9.86,-11.82 5.99,-7.76 14.03,-19.32 22.12,-34.1"
         style="fill:#100f0d;fill-opacity:1;fill-rule:nonzero;stroke:none"
         id="path146" /><path
         d="m 1563.21,908.402 c 0,0 -31.02,149.178 -35.45,172.818 -4.42,23.63 -8.13,115.2 -42.83,123.33 -34.71,8.11 -69.79,-29.36 -69.79,-29.36 0,0 84.2,-24.37 106.9,-92.5 22.73,-68.13 36.56,-174.288 36.56,-174.288 h 4.61"
         style="fill:#100f0d;fill-opacity:1;fill-rule:nonzero;stroke:none"
         id="path148" /><path
         d="m 1234.01,1138.07 c 11.56,18.7 24.59,32.83 37.58,43.58 2.81,-2.77 6.66,-4.46 10.88,-4.46 h 1.11 c 8.27,0 15.05,7.29 14.89,15.43 -0.03,2.21 -0.57,4.25 -1.44,6.12 22.43,11.78 41.4,13.85 47.57,11.54 11.81,-4.43 53.55,-8.5 86.05,-2.77 32.49,5.72 54.28,-2.96 54.28,-2.96 0,0 -58.42,-27.41 -69.79,-29.36 -11.36,-1.92 -47.62,-17.17 -93.62,-56.49 -45.95,-39.34 -127.39,-141.239 -137.35,-142.911 -9.97,-1.66 9.41,96.931 49.84,162.281"
         style="fill:#433397;fill-opacity:1;fill-rule:nonzero;stroke:none"
         id="path150" /><path
         d="m 1373.18,1205.53 c 4.66,-0.48 3.4,-0.29 8.75,-0.53 -51.92,-14.87 -160.48,-63.68 -194.99,-215.91 0,0 19.11,156.75 186.24,216.44"
         style="fill:#100f0d;fill-opacity:1;fill-rule:nonzero;stroke:none"
         id="path152" /><path
         d="m 1578.91,908.402 c 0,0 31.02,149.178 35.45,172.818 4.44,23.63 8.13,115.2 42.83,123.33 34.71,8.11 69.79,-29.36 69.79,-29.36 0,0 -84.2,-24.37 -106.9,-92.5 -22.71,-68.13 -36.56,-174.288 -36.56,-174.288 h -4.61"
         style="fill:#100f0d;fill-opacity:1;fill-rule:nonzero;stroke:none"
         id="path154" /><path
         d="m 1657.19,1204.55 c 0,0 21.79,8.68 54.28,2.96 32.5,-5.73 74.23,-1.66 86.05,2.77 11.8,4.42 70.15,-6.85 110.59,-72.21 40.44,-65.35 59.82,-163.941 49.85,-162.281 -9.98,1.672 -91.4,103.571 -137.37,142.911 -45.97,39.32 -82.25,54.57 -93.61,56.49 -11.35,1.95 -69.79,29.36 -69.79,29.36"
         style="fill:#433397;fill-opacity:1;fill-rule:nonzero;stroke:none"
         id="path156" /><path
         d="m 1768.94,1205.53 c -4.66,-0.48 -3.4,-0.29 -8.74,-0.53 51.91,-14.87 160.47,-63.68 194.99,-215.91 0,0 -19.11,156.75 -186.25,216.44"
         style="fill:#100f0d;fill-opacity:1;fill-rule:nonzero;stroke:none"
         id="path158" /><path
         d="m 1396.04,1450.14 c 19.55,0 20.11,-30.33 0.53,-30.33 -19.55,0 -20.11,30.33 -0.53,30.33 z m -290.71,34.31 c 0,0 79.75,59.08 165.42,3.69 11.33,-7.32 21.39,-14.38 30.58,-21.23 2.13,4.35 6.34,7.6 12.72,7.6 15.07,0 18.82,-17.95 10.83,-26.22 4.03,-3.37 7.93,-6.73 11.69,-10.02 2.03,1.16 4.46,1.89 7.41,1.89 12.43,0 17.14,-12.23 13.93,-21.18 26.93,-24.78 51.83,-47.97 96,-72.64 81.98,-45.78 87.89,-138.09 87.89,-179.45 0,-41.38 18.46,-74.6 16.25,-101.92 -2.22,-27.33 5.16,-156.568 5.16,-156.568 h 8.86 c 0,0 1.49,315.268 -8.86,336.348 -10.34,21.1 -50.96,134.83 -59.08,170.28 -8.12,35.45 -5.17,56.13 -5.17,56.13 0,0 -23.64,52.43 -91.57,65.72 -67.96,13.3 -91.58,20.69 -114.48,35.45 -22.89,14.78 -145.49,24.38 -187.58,-87.88"
         style="fill:#433397;fill-opacity:1;fill-rule:nonzero;stroke:none"
         id="path160" /><path
         d="m 1263.42,1528.35 c 7.24,-0.51 15.32,-1.63 24.11,-3.19 8.75,-1.72 18.18,-3.8 28.01,-6.6 9.82,-2.77 20.05,-6.18 30.48,-10.11 10.41,-3.97 21,-8.51 31.6,-13.47 10.52,-5.06 21.14,-10.42 31.49,-16.26 36.08,-20.39 69.54,-44.85 95.57,-65.96 0.15,-0.69 0.34,-1.39 0.51,-2.11 -26.32,21.14 -60.43,45.77 -97.17,66.12 -10.26,5.89 -20.77,11.33 -31.24,16.46 -10.52,5.02 -21.02,9.64 -31.36,13.66 -10.35,3.99 -20.51,7.46 -30.27,10.31 -9.76,2.87 -19.15,5.01 -27.84,6.8 -8.75,1.54 -16.77,2.86 -23.95,3.55 -7.18,1 -13.49,0.89 -18.65,1.3 -10.36,0.05 -16.3,-0.12 -16.3,-0.12 0,0 5.91,0.3 16.3,0.51 5.18,-0.3 11.52,-0.06 18.71,-0.89"
         style="fill:#100f0d;fill-opacity:1;fill-rule:nonzero;stroke:none"
         id="path162" /><path
         d="m 1715.09,1552.8 c 19.53,0 20.11,-30.35 0.52,-30.35 -19.55,0 -20.12,30.35 -0.52,30.35 z M 1539.4,922.898 h 8.88 c 0,0 7.37,129.242 5.16,156.552 -2.21,27.33 16.24,60.57 16.24,101.92 0,41.37 5.92,133.68 87.9,179.48 81.97,45.78 97.47,86.4 183.16,141.79 85.67,55.38 165.42,-3.7 165.42,-3.7 -30.02,80.04 -100.91,98.11 -147.45,96.55 3.65,-8.95 -0.59,-21.34 -13.13,-21.34 -10.79,0 -15.77,9.25 -14.77,17.56 -5.3,-1.44 -9.5,-3.11 -12.22,-4.88 -22.92,-14.77 -46.53,-22.17 -114.49,-35.46 -67.94,-13.29 -91.57,-65.72 -91.57,-65.72 0,0 2.95,-20.68 -5.17,-56.12 -8.13,-35.45 -48.75,-149.19 -59.08,-170.29 -10.35,-21.09 -8.88,-336.342 -8.88,-336.342"
         style="fill:#433397;fill-opacity:1;fill-rule:nonzero;stroke:none"
         id="path164" /><path
         d="m 1848.07,1542.84 c -7.24,-0.51 -15.33,-1.64 -24.11,-3.19 -8.75,-1.7 -18.18,-3.79 -28.01,-6.6 -9.81,-2.77 -20.06,-6.19 -30.49,-10.11 -10.41,-3.96 -20.99,-8.51 -31.58,-13.46 -10.54,-5.08 -21.15,-10.43 -31.51,-16.28 -36.09,-20.38 -69.55,-44.83 -95.57,-65.97 -0.15,-0.66 -0.32,-1.35 -0.52,-2.09 26.33,21.15 60.44,45.76 97.18,66.14 10.27,5.88 20.79,11.31 31.26,16.44 10.51,5.02 21.01,9.62 31.34,13.66 10.37,3.99 20.52,7.47 30.28,10.31 9.76,2.87 19.14,5.03 27.84,6.79 8.73,1.56 16.76,2.87 23.95,3.56 7.17,0.99 13.48,0.91 18.64,1.32 10.36,0.04 16.3,-0.13 16.3,-0.13 0,0 -5.92,0.3 -16.3,0.5 -5.18,-0.32 -11.51,-0.06 -18.7,-0.89"
         style="fill:#100f0d;fill-opacity:1;fill-rule:nonzero;stroke:none"
         id="path166" /><path
         d="m 1409,1657.64 c 0,0 -33.74,16.61 -72.52,16.23 -38.76,-0.37 -50.96,11.46 -63.52,16.63 -12.54,5.16 -122.96,-9.98 -187.94,-94.91 0,0 80.5,43.57 185.73,54.28 105.23,10.71 91.22,4.44 91.22,4.44 l 33.23,-8.12 13.8,11.45"
         style="fill:#433397;fill-opacity:1;fill-rule:nonzero;stroke:none"
         id="path168" /><path
         d="m 1572.07,908.402 c 0,0 -1.48,283.588 0,367.788 1.49,84.19 -31.02,254.05 -50.22,302.79 -19.19,48.73 -141.04,118.9 -251.1,70.89 0,0 67.95,-0.73 85.68,-21.4 17.73,-20.69 61.29,-73.86 86.41,-92.32 25.09,-18.47 36.18,-140.32 67.2,-202.36 31.01,-62.05 50.22,-89.36 53.17,-140.32 2.95,-50.95 5.08,-285.068 5.08,-285.068 h 3.78"
         style="fill:#100f0d;fill-opacity:1;fill-rule:nonzero;stroke:none"
         id="path170" /><path
         d="m 1857.69,1868.11 c 0,0 -102.46,16.62 -152.31,-46.52 -49.85,-63.15 -170.09,-219.35 -133.22,-313.5 36.84,-94.17 -0.09,-231.9 -0.09,-231.9 0,0 38.04,74.74 33.61,193.76 -4.42,118.99 62.04,133.41 111.89,257.47 49.85,124.07 84.16,135.15 140.12,140.69"
         style="fill:#100f0d;fill-opacity:1;fill-rule:nonzero;stroke:none"
         id="path172" /><path
         d="m 1578.91,1307.75 -2.03,-399.348 h -4.81 l 0.46,369.598 6.38,29.75"
         style="fill:#100f0d;fill-opacity:1;fill-rule:nonzero;stroke:none"
         id="path174" /><path
         d="m 1532.56,1194.96 c 0,0 -6.19,-36.94 15.74,-110.04 V 908.402 h 5.32 v 172.088 c 0,0 24.89,56.85 56.38,69.41 0,0 -58.6,42.09 -77.44,45.06"
         style="fill:#100f0d;fill-opacity:1;fill-rule:nonzero;stroke:none"
         id="path176" /><path
         d="m 1603.05,1157.3 c 0,0 -6.18,80.21 20.96,108.82 27.16,28.6 100.33,36.88 129.13,104.26 28.8,67.38 61.49,109.37 61.49,109.37 0,0 -148.28,-33.72 -190.62,-109.37 C 1581.69,1294.72 1592,1157.3 1592,1157.3 h 11.05"
         style="fill:#100f0d;fill-opacity:1;fill-rule:nonzero;stroke:none"
         id="path178" /><path
         d="m 1720.24,1446.78 c 0,0 89.28,35.93 156.71,13.46 67.44,-22.48 77.64,19.51 77.64,19.51 0,0 -4.08,-11.34 -74.57,4.99 -70.5,16.36 -123.38,-8.48 -159.78,-37.96"
         style="fill:#433397;fill-opacity:1;fill-rule:nonzero;stroke:none"
         id="path180" /><path
         d="m 1458.52,980.73 c 0.03,0 0.08,-0.019 0.09,-0.031 -9.81,-113.801 69.48,-193.707 166.54,-231 -8.02,-4.629 -16.5,-8.379 -25.36,-11.136 h -72.99 c -57.09,17.839 -98.98,76.457 -98.98,146.046 0,36.493 11.53,69.961 30.7,96.121"
         style="fill:#100f0d;fill-opacity:1;fill-rule:nonzero;stroke:none"
         id="path182" /><path
         d="m 1458.44,980.699 c 8.57,-3.668 52.66,-6.457 105.81,-6.457 50.21,0 92.36,2.5 104.1,5.848 18.91,-26.07 30.25,-59.289 30.25,-95.481 0,-58.8 -29.92,-109.757 -73.63,-134.91 -97.06,37.293 -176.34,117.199 -166.53,231"
         style="fill:#100f0d;fill-opacity:1;fill-rule:nonzero;stroke:none"
         id="path184" /><path
         d="m 1635.64,1211.05 c 0,0 -49.86,-22.08 -103.04,-16.17 0,0 128.54,-50.22 127.96,-355.97 0,0 74.78,190.39 -24.92,372.14"
         style="fill:#433397;fill-opacity:1;fill-rule:nonzero;stroke:none"
         id="path186" /><path
         d="m 1600.42,1199.9 c 1,-1.47 1.99,-2.83 3.04,-4.36 4.3,-6.13 8.31,-13.17 12.82,-20.49 4.02,-7.58 8.81,-15.32 12.53,-23.92 1.99,-4.24 4.01,-8.56 6.06,-12.92 1.8,-4.48 3.62,-9.01 5.45,-13.59 3.91,-9.04 6.66,-18.67 9.91,-28.13 3.08,-9.51 5.07,-19.34 7.59,-28.86 2.1,-9.61 3.56,-19.2 5.32,-28.39 1.44,-9.24 2.02,-18.31 2.93,-26.83 1.15,-8.52 0.75,-16.668 1.11,-24.148 0.11,-7.481 0.62,-14.332 0.01,-20.391 -0.37,-6.07 -0.69,-11.351 -0.94,-15.711 -0.54,-8.691 -0.84,-13.66 -0.84,-13.66 0,0 0.04,4.969 0.09,13.699 0.02,4.352 0.06,9.621 0.09,15.692 0.26,6.039 -0.63,12.851 -0.9,20.281 -0.58,7.418 -0.44,15.508 -1.83,23.938 -1.18,8.43 -2.07,17.37 -3.53,26.53 -1.81,9.11 -3.36,18.58 -5.54,28.07 -2.6,9.39 -4.66,19.1 -7.77,28.48 -3.14,9.4 -5.78,18.97 -9.55,27.95 -1.77,4.53 -3.53,9.05 -5.26,13.49 -1.98,4.34 -3.94,8.64 -5.85,12.87 -3.7,8.51 -8.12,16.33 -11.88,23.98 -4.25,7.38 -8.03,14.51 -12.12,20.72 -1.13,1.79 -2.2,3.44 -3.29,5.15 0.8,0.17 1.57,0.37 2.35,0.55"
         style="fill:#100f0d;fill-opacity:1;fill-rule:nonzero;stroke:none"
         id="path188" /><path
         d="m 4635.5,4504.96 c -5.79,-9.78 -8.95,-20.39 -9.71,-31.01 -0.57,-8.12 -1.91,-16.12 -4,-23.84 l -209.02,123.47 -123.46,-209.02 c 7.72,-2.09 15.72,-3.43 23.84,-4.01 10.62,-0.75 21.23,-3.91 31.01,-9.69 36.2,-21.39 46.49,-69.87 20.31,-104.4 -19.1,-25.18 -53.96,-34.74 -83.18,-22.68 -14.76,6.09 -26.16,16.24 -33.7,28.45 -4.04,6.55 -8.77,12.53 -14.04,17.94 l -116.82,-197.75 501.15,-296.05 296.06,501.16 -197.76,116.82 c 5.41,5.27 11.4,10 17.94,14.04 12.22,7.54 22.36,18.94 28.46,33.7 12.05,29.21 2.5,64.09 -22.7,83.19 -34.52,26.17 -83,15.88 -104.38,-20.32"
         style="fill:#100f0d;fill-opacity:1;fill-rule:nonzero;stroke:none"
         id="path190" /><path
         d="m 4154.72,3632.02 -34.88,-128.18 c -13.86,-50.93 20.08,-102.48 72.35,-109.87 l 73.44,-10.39 78.18,-77.03 94.98,99.61 -102.57,226.43 -181.5,-0.57"
         style="fill:#f03c7a;fill-opacity:1;fill-rule:nonzero;stroke:none"
         id="path192" /><path
         d="m 4260.68,3662.06 c 0,-38.38 -31.11,-69.5 -69.49,-69.5 -38.38,0 -69.49,31.12 -69.49,69.5 0,38.38 31.11,69.49 69.49,69.49 38.38,0 69.49,-31.11 69.49,-69.49"
         style="fill:#100f0d;fill-opacity:1;fill-rule:nonzero;stroke:none"
         id="path194" /><path
         d="m 4212.52,3728.19 c 0,0 78.01,-3.67 256.39,-66.13 0,0 186.47,-103.01 295.35,8.19 0,0 123.93,136.67 225.87,90.34 0,0 120.46,-27.8 91.5,-202.7 0,0 -31.28,-169.1 -281.46,-136.67 l -437.83,37.48 v 0 l -72.96,32.01 -9.84,4.33 c -47.86,21.06 -81.32,65.48 -88.35,117.29 v 0 l 21.33,115.86"
         style="fill:#100f0d;fill-opacity:1;fill-rule:nonzero;stroke:none"
         id="path196" /><path
         d="m 4258.09,3479.64 v 0 c 16.31,-9.42 37.16,-3.83 46.58,12.48 l 5.24,9.08 c 9.43,16.31 3.83,37.17 -12.48,46.58 v 0 c -16.31,9.42 -37.17,3.83 -46.58,-12.48 l -5.24,-9.08 c -9.43,-16.31 -3.83,-37.17 12.48,-46.58"
         style="fill:#f03c7a;fill-opacity:1;fill-rule:nonzero;stroke:none"
         id="path198" /><path
         d="m 5101.32,2639.76 597.66,-746.3 30.11,-90.34 11.59,-111.19 71.81,99.61 -16.02,92.21 50.77,-38.93 20.85,25.48 -50.83,66.08 c -12.11,15.76 -29.03,27.12 -48.18,32.41 v 0 c -24.06,6.64 -44.36,22.82 -56.2,44.8 l -240.2,446.09 c -21.58,40.06 -54.99,72.48 -95.7,92.82 v 0 l -69.49,190.43 -206.17,-103.17"
         style="fill:#f03c7a;fill-opacity:1;fill-rule:nonzero;stroke:none"
         id="path200" /><path
         d="m 5317.95,2714.27 v 0 l -10.46,28.66 -206.17,-103.17 45.8,-57.19 v 0 c 0,0 105.34,35.9 170.83,131.7"
         style="fill:#100f0d;fill-opacity:1;fill-rule:nonzero;stroke:none"
         id="path202" /><path
         d="m 4665.81,2604.65 -68.3,-86.73 c -39.03,-49.57 -20.07,-122.7 38.13,-147.05 l 509.69,-213.31 64.87,-88.03 37.06,-104.25 32.43,120.46 -37.06,76.44 62.55,-20.85 8.1,27.81 -43.28,33.2 c -20.56,15.78 -45.05,25.65 -70.81,28.51 v 0 c -25.4,2.82 -49.56,12.44 -69.95,27.84 l -260.8,197.02 c -18,13.59 -39.93,20.95 -62.48,20.95 v 0 l 126.83,115.96 -266.98,12.03"
         style="fill:#f03c7a;fill-opacity:1;fill-rule:nonzero;stroke:none"
         id="path204" /><path
         d="m 4631.69,2561.32 c 0,0 168.3,-39.18 257.32,-8.73 v 0 l 13.28,12.14 c -1.28,9.03 -20.44,20.01 -48.68,31.46 l -187.8,8.46 -34.12,-43.33 v 0"
         style="fill:#100f0d;fill-opacity:1;fill-rule:nonzero;stroke:none"
         id="path206" /><path
         d="m 5796.47,1883.75 50.77,-38.93 20.85,25.48 -50.83,66.08 c -8.3,10.79 -18.89,19.47 -30.87,25.6 l -11.42,-22.83 c -7.65,-15.3 -11.63,-32.15 -11.63,-49.25 v -14.68 c 0,-30.42 -11.58,-59.7 -32.41,-81.87 l -0.73,-0.78 10.48,-100.64 71.81,99.61 -16.02,92.21"
         style="fill:#100f0d;fill-opacity:1;fill-rule:nonzero;stroke:none"
         id="path208" /><path
         d="m 5242.63,2162.18 62.55,-20.85 8.1,27.81 -43.28,33.21 c -13.09,10.04 -27.78,17.67 -43.37,22.63 l -4.27,-11.39 c -7.93,-21.19 -9.36,-44.27 -4.12,-66.29 v 0 c 5.01,-21.02 3.93,-43.04 -3.11,-63.48 l -4.93,-14.29 37.06,-104.25 32.43,120.46 -37.06,76.44"
         style="fill:#100f0d;fill-opacity:1;fill-rule:nonzero;stroke:none"
         id="path210" /><path
         d="m 3667.33,2694.87 c 4.16,-10.58 10.58,-19.6 18.48,-26.73 6.06,-5.45 11.53,-11.43 16.34,-17.83 l -225.96,-88.76 88.77,-225.96 c 6.4,4.81 12.37,10.29 17.83,16.34 7.13,7.9 16.16,14.32 26.73,18.48 39.13,15.37 83.68,-6.36 94.79,-48.25 8.09,-30.54 -5.83,-63.91 -33.31,-79.53 -13.89,-7.88 -28.9,-10.61 -43.17,-9.04 -7.64,0.84 -15.28,0.79 -22.78,-0.03 l 83.97,-213.78 541.77,212.83 -212.83,541.76 -213.78,-83.97 c -0.82,7.51 -0.87,15.13 -0.03,22.78 1.57,14.27 -1.16,29.29 -9.04,43.16 -15.62,27.48 -48.98,41.42 -79.53,33.31 -41.89,-11.1 -63.62,-55.65 -48.25,-94.78"
         style="fill:#6bc3ef;fill-opacity:1;fill-rule:nonzero;stroke:none"
         id="path212" /><path
         d="m 2706.71,2498.5 18.94,19.81 c 4.91,5.14 13.59,1.77 13.75,-5.33 l 0.43,-18.94 36.67,-10.01 c 15.75,-4.3 25.42,-20.11 22.07,-36.08 -2.94,-14.03 -15.16,-24.18 -29.49,-24.51 l -58.9,-1.32 -96.82,-76.55 -43.83,85.53 137.18,67.4"
         style="fill:#f03c7a;fill-opacity:1;fill-rule:nonzero;stroke:none"
         id="path214" /><path
         d="m 3031.25,2941.88 c -2.25,-11.14 -1.75,-22.21 1.03,-32.48 2.12,-7.86 3.48,-15.85 4.05,-23.84 l -237.98,47.93 -47.92,-237.99 c 7.98,0.57 15.97,1.94 23.84,4.06 10.27,2.78 21.33,3.28 32.47,1.03 41.22,-8.3 66.87,-50.7 53.49,-91.92 -9.76,-30.06 -39.55,-50.55 -71.11,-48.76 -15.94,0.9 -30.04,6.74 -41.18,15.8 -5.97,4.85 -12.4,8.94 -19.16,12.32 l -45.34,-225.15 570.61,-114.91 114.92,570.61 -225.16,45.34 c 3.38,6.76 7.47,13.2 12.32,19.16 9.06,11.14 14.91,25.24 15.8,41.17 1.79,31.57 -18.7,61.36 -48.77,71.12 -41.21,13.38 -83.61,-12.27 -91.91,-53.49"
         style="fill:#433397;fill-opacity:1;fill-rule:nonzero;stroke:none"
         id="path216" /><path
         d="m 2272.64,3574.16 c -11.37,0 -22.11,-2.67 -31.63,-7.42 -7.29,-3.64 -14.86,-6.55 -22.57,-8.68 v 242.76 h -242.76 c 2.13,-7.72 5.04,-15.28 8.68,-22.58 4.75,-9.52 7.42,-20.25 7.42,-31.63 0,-42.04 -36.51,-75.56 -79.55,-70.58 -31.4,3.63 -57.37,28.8 -61.85,60.09 -2.26,15.8 0.68,30.78 7.36,43.48 3.59,6.81 6.33,13.93 8.31,21.22 h -229.68 v -582.07 h 582.07 v 229.68 c 7.29,-1.98 14.41,-4.72 21.21,-8.3 12.71,-6.69 27.68,-9.63 43.49,-7.36 31.29,4.47 56.45,30.43 60.08,61.84 4.98,43.04 -28.54,79.55 -70.58,79.55"
         style="fill:#e3dccf;fill-opacity:1;fill-rule:nonzero;stroke:none"
         id="path218" /><path
         d="m 3299.3,3563.43 c -11.37,0 -22.11,-2.67 -31.63,-7.42 -7.29,-3.64 -14.86,-6.55 -22.57,-8.68 v 242.76 h -242.77 c 2.14,-7.72 5.05,-15.28 8.69,-22.57 4.75,-9.53 7.42,-20.27 7.42,-31.63 0,-42.05 -36.51,-75.57 -79.55,-70.59 -31.4,3.63 -57.37,28.79 -61.84,60.09 -2.27,15.8 0.68,30.78 7.36,43.48 3.58,6.81 6.32,13.93 8.3,21.22 h -229.68 v -582.07 h 582.07 v 229.68 c 7.28,-1.98 14.4,-4.72 21.21,-8.3 12.71,-6.68 27.68,-9.63 43.49,-7.37 31.29,4.49 56.45,30.45 60.08,61.85 4.98,43.05 -28.53,79.55 -70.58,79.55"
         style="fill:#100f0d;fill-opacity:1;fill-rule:nonzero;stroke:none"
         id="path220" /><path
         d="m 3471.13,3844.29 c 0,-11.37 2.68,-22.11 7.43,-31.63 3.64,-7.29 6.55,-14.86 8.68,-22.57 h -242.76 v -242.76 c 7.72,2.13 15.28,5.04 22.57,8.68 9.52,4.75 20.27,7.42 31.63,7.42 42.04,0 75.57,-36.5 70.59,-79.55 -3.63,-31.4 -28.8,-57.36 -60.09,-61.85 -15.8,-2.26 -30.78,0.69 -43.49,7.37 -6.8,3.58 -13.92,6.32 -21.21,8.3 v -229.68 h 582.06 v 582.07 h -229.67 c 1.98,7.28 4.72,14.4 8.3,21.21 6.69,12.71 9.63,27.69 7.36,43.49 -4.47,31.29 -30.44,56.45 -61.85,60.09 -43.03,4.97 -79.55,-28.54 -79.55,-70.59"
         style="fill:#433397;fill-opacity:1;fill-rule:nonzero;stroke:none"
         id="path222" /><path
         d="m 3190.27,4017.27 c 11.37,0 22.11,2.68 31.63,7.43 7.3,3.63 14.87,6.55 22.58,8.68 v -242.76 h 242.76 c -2.13,7.71 -5.04,15.28 -8.68,22.57 -4.75,9.52 -7.43,20.26 -7.43,31.63 0,42.05 36.52,75.56 79.55,70.59 31.41,-3.64 57.37,-28.8 61.85,-60.09 2.27,-15.8 -0.67,-30.78 -7.36,-43.49 -3.58,-6.8 -6.32,-13.92 -8.3,-21.21 h 229.67 v 582.06 h -582.06 v -229.67 c -7.29,1.98 -14.41,4.72 -21.22,8.3 -12.7,6.68 -27.68,9.62 -43.48,7.37 -31.29,-4.49 -56.46,-30.45 -60.09,-61.85 -4.97,-43.05 28.54,-79.56 70.58,-79.56"
         style="fill:#e3dccf;fill-opacity:1;fill-rule:nonzero;stroke:none"
         id="path224" /><path
         d="m 3018.44,3736.41 c 0,11.37 -2.67,22.11 -7.42,31.64 -3.64,7.29 -6.55,14.85 -8.69,22.57 h 242.77 v 242.76 c -7.72,-2.13 -15.28,-5.04 -22.57,-8.68 -9.52,-4.75 -20.26,-7.43 -31.63,-7.43 -42.05,0 -75.57,36.51 -70.59,79.56 3.64,31.4 28.79,57.36 60.09,61.85 15.8,2.25 30.77,-0.69 43.49,-7.37 6.8,-3.58 13.92,-6.32 21.21,-8.3 v 229.67 h -582.07 v -582.06 h 229.68 c -1.98,-7.29 -4.72,-14.41 -8.3,-21.21 -6.68,-12.71 -9.63,-27.69 -7.37,-43.49 4.48,-31.29 30.45,-56.46 61.85,-60.09 43.04,-4.98 79.55,28.54 79.55,70.58"
         style="fill:#6bc3ef;fill-opacity:1;fill-rule:nonzero;stroke:none"
         id="path226" /><path
         d="m 581.359,1638.82 -219.578,-47.3 64.078,-287.07 v 0 c 24.161,15.12 37.829,42.49 35.395,70.89 l -6.887,80.46 c -3.172,36.98 25.313,69.02 62.406,70.27 47.79,1.6 102.817,4.7 101.012,10.43 -3.176,10.08 -36.426,102.32 -36.426,102.32"
         style="fill:#f03c7a;fill-opacity:1;fill-rule:nonzero;stroke:none"
         id="path228" /><path
         d="m 361.781,1591.52 64.078,-287.07 c 24.164,15.12 37.832,42.49 35.395,70.89 l -6.887,80.46 c -0.859,9.98 0.656,19.57 3.957,28.33 l -4.816,2.7 c -20.25,11.4 -34.102,31.5 -37.547,54.48 l -8.969,59.95 -45.211,-9.74"
         style="fill:#100f0d;fill-opacity:1;fill-rule:nonzero;stroke:none"
         id="path230" /><path
         d="M 386.242,2091.68 172.324,2160.17 84.7109,1879.4 v 0 c 28.4841,1.06 53.9771,17.96 66.0311,43.79 l 34.153,73.18 c 15.691,33.64 56.359,47.2 89.132,29.79 42.227,-22.44 91.465,-47.21 92.762,-41.34 2.274,10.32 19.453,106.86 19.453,106.86"
         style="fill:#f03c7a;fill-opacity:1;fill-rule:nonzero;stroke:none"
         id="path232" /><path
         d="M 172.324,2160.17 84.7109,1879.4 c 28.4841,1.06 53.9801,17.96 66.0311,43.79 l 34.153,73.18 c 4.23,9.08 10.332,16.63 17.558,22.57 l -2.828,4.76 c -11.871,19.97 -13.852,44.3 -5.375,65.94 l 22.117,56.43 -44.043,14.1"
         style="fill:#100f0d;fill-opacity:1;fill-rule:nonzero;stroke:none"
         id="path234" /><path
         d="m 2017.35,3478.5 2.28,27.32 c 0.6,7.08 9.46,9.92 14.06,4.49 l 12.23,-14.46 34.82,15.26 c 14.94,6.55 32.4,0.33 39.84,-14.19 6.52,-12.77 3.4,-28.34 -7.54,-37.6 l -44.98,-38.05 -27.21,-120.39 -87.85,38.98 64.35,138.64"
         style="fill:#f03c7a;fill-opacity:1;fill-rule:nonzero;stroke:none"
         id="path236" /><path
         d="m 3227.93,2446.37 18.94,19.82 c 4.91,5.14 13.59,1.78 13.76,-5.33 l 0.42,-18.95 36.68,-10 c 15.74,-4.3 25.41,-20.12 22.07,-36.08 -2.95,-14.03 -15.17,-24.18 -29.5,-24.51 l -58.9,-1.33 -96.83,-76.54 -43.83,85.52 137.19,67.4"
         style="fill:#f03c7a;fill-opacity:1;fill-rule:nonzero;stroke:none"
         id="path238" /><path
         d="m 4465.71,4153.25 -1.21,27.37 c -0.31,7.11 8.12,11.05 13.37,6.25 l 13.98,-12.79 32.58,19.58 c 14,8.39 32.1,4.44 41.32,-9.02 8.11,-11.82 6.99,-27.67 -2.68,-38.24 l -39.78,-43.48 -19.56,-117.79 -84.19,22.41 46.17,145.71"
         style="fill:#f03c7a;fill-opacity:1;fill-rule:nonzero;stroke:none"
         id="path240" /><path
         d="m 2750.69,692.16 c -4.8,16.711 -1.41,34.699 9.13,48.512 l 90.9,119.027 -88.13,47.86 -129.96,-239.36 30.66,-16.64 8.89,16.382 79.56,-77.191 c 0.95,-0.918 2.02,-1.699 3.17,-2.34 11.27,-6.109 24.33,4.379 20.79,16.699 l -25.01,87.051"
         style="fill:#f03c7a;fill-opacity:1;fill-rule:nonzero;stroke:none"
         id="path242" /><path
         d="m 2751.17,690.492 v 0 l 24.28,-84.551 c 2.82,-9.781 -3.16,-19.082 -13.34,-19.269 -3.98,-0.07 -7.67,1.457 -10.37,4.078 l -79.56,77.191 -8.89,-16.382 -30.66,16.64 41.81,77 42.38,-57.136 c 8.89,-11.993 27.22,-10.692 34.35,2.429"
         style="fill:#433397;fill-opacity:1;fill-rule:nonzero;stroke:none"
         id="path244" /><path
         d="m 2344.4,802.66 c -0.74,17.371 6.78,34.059 20.28,45 L 2481,942 l -74.42,67.22 -182.56,-202.111 25.88,-23.379 12.49,13.829 59.21,-93.727 c 0.7,-1.113 1.55,-2.121 2.53,-3 9.51,-8.602 24.67,-1.473 24.12,11.328 l -3.85,90.5"
         style="fill:#f03c7a;fill-opacity:1;fill-rule:nonzero;stroke:none"
         id="path246" /><path
         d="m 2344.47,800.91 v 0 l 3.75,-87.879 c 0.43,-10.172 -7.57,-17.812 -17.51,-15.59 -3.88,0.86 -7.1,3.211 -9.11,6.391 l -59.21,93.727 -12.49,-13.829 -25.88,23.379 58.73,65.02 27.77,-65.488 c 5.82,-13.75 23.95,-16.801 33.95,-5.731"
         style="fill:#433397;fill-opacity:1;fill-rule:nonzero;stroke:none"
         id="path248" /><path
         d="m 4094.06,2653.36 47.94,-7.91 c 45.43,-7.49 88.74,23.55 96.23,68.99 l 9.97,60.46 c 10.74,65.12 -33.76,127.19 -98.87,137.92 l -12.15,2 c -65.12,10.74 -127.19,-33.76 -137.92,-98.88 l -4.07,-24.66 c -10.74,-65.12 33.76,-127.19 98.87,-137.92"
         style="fill:#f03c7a;fill-opacity:1;fill-rule:nonzero;stroke:none"
         id="path250" /><path
         d="m 4090.99,2582.57 -8.18,115.31 h 122.09 l 21.72,-115.31 h -135.63"
         style="fill:#f03c7a;fill-opacity:1;fill-rule:nonzero;stroke:none"
         id="path252" /><path
         d="m 4010.01,2872.81 c 12.29,33.7 47.31,55.18 83.93,49.14 l 98.63,-16.26 c 41.34,-6.82 69.58,-46.21 62.76,-87.55 l -22.08,-133.88 c -4.75,-28.83 -32.23,-48.54 -61.08,-43.78 v 0 c -28.68,4.72 -53.12,23.45 -65.15,49.92 l -15.29,33.66 c -15.28,33.64 -23.19,70.17 -23.19,107.12 v 0 c 0,0 -38.3,10.56 -58.53,41.63"
         style="fill:#433397;fill-opacity:1;fill-rule:nonzero;stroke:none"
         id="path254" /><path
         d="m 4076.5,2713.09 v 0 c 14.22,-8.21 32.58,-3.29 40.79,10.93 l 4.6,7.96 c 8.2,14.22 3.29,32.57 -10.93,40.78 v 0 c -14.22,8.2 -32.58,3.29 -40.78,-10.93 l -4.6,-7.96 c -8.21,-14.22 -3.29,-32.56 10.92,-40.78"
         style="fill:#f03c7a;fill-opacity:1;fill-rule:nonzero;stroke:none"
         id="path256" /><path
         d="m 1346.93,3815.88 h -82.94 c -1.92,0 -3.47,1.55 -3.47,3.47 0,1.93 1.55,3.48 3.47,3.48 h 82.94 c 1.92,0 3.48,-1.55 3.48,-3.48 0,-1.92 -1.56,-3.47 -3.48,-3.47"
         style="fill:#e3dccf;fill-opacity:1;fill-rule:nonzero;stroke:none"
         id="path258" /><path
         d="m 1305.46,3774.41 c -1.91,0 -3.47,1.55 -3.47,3.47 v 82.94 c 0,1.93 1.56,3.48 3.47,3.48 1.92,0 3.48,-1.55 3.48,-3.48 v -82.94 c 0,-1.92 -1.56,-3.47 -3.48,-3.47"
         style="fill:#e3dccf;fill-opacity:1;fill-rule:nonzero;stroke:none"
         id="path260" /><path
         d="m 1375.22,3872.1 c 0,-8.18 -6.64,-14.82 -14.83,-14.82 -8.18,0 -14.82,6.64 -14.82,14.82 0,8.19 6.64,14.82 14.82,14.82 8.19,0 14.83,-6.63 14.83,-14.82"
         style="fill:#e3dccf;fill-opacity:1;fill-rule:nonzero;stroke:none"
         id="path262" /><path
         d="m 4189.54,3823.19 c 16.6,2.5 32.08,-8.94 34.57,-25.53 2.5,-16.59 -8.92,-32.07 -25.52,-34.57 -16.6,-2.5 -32.08,8.93 -34.58,25.52 -2.5,16.6 8.94,32.08 25.53,34.58"
         style="fill:#e3dccf;fill-opacity:1;fill-rule:nonzero;stroke:none"
         id="path264" /><path
         d="m 4083.99,3957.38 c 38.26,5.75 73.92,-20.59 79.68,-58.83 5.75,-38.25 -20.58,-73.91 -58.83,-79.67 -38.24,-5.76 -73.91,20.58 -79.66,58.82 -5.77,38.25 20.57,73.92 58.81,79.68"
         style="fill:#e3dccf;fill-opacity:1;fill-rule:nonzero;stroke:none"
         id="path266" /><path
         d="m 3253.55,1661.21 c -0.89,0 -1.79,0.33 -2.47,1.01 l -58.65,58.65 c -1.36,1.35 -1.36,3.56 0,4.92 1.36,1.36 3.56,1.36 4.91,0 l 58.66,-58.65 c 1.35,-1.36 1.35,-3.56 0,-4.92 -0.68,-0.68 -1.57,-1.01 -2.45,-1.01"
         style="fill:#e3dccf;fill-opacity:1;fill-rule:nonzero;stroke:none"
         id="path268" /><path
         d="m 3194.89,1661.21 c -0.89,0 -1.77,0.33 -2.46,1.01 -1.36,1.36 -1.36,3.56 0,4.92 l 58.65,58.65 c 1.36,1.36 3.56,1.36 4.92,0 1.35,-1.36 1.35,-3.57 0,-4.92 l -58.66,-58.65 c -0.67,-0.68 -1.56,-1.01 -2.45,-1.01"
         style="fill:#e3dccf;fill-opacity:1;fill-rule:nonzero;stroke:none"
         id="path270" /><path
         d="m 3425.78,1828.77 c 0,-38.69 -31.35,-70.03 -70.03,-70.03 -38.67,0 -70.02,31.34 -70.02,70.03 0,38.67 31.35,70.02 70.02,70.02 38.68,0 70.03,-31.35 70.03,-70.02"
         style="fill:#e3dccf;fill-opacity:1;fill-rule:nonzero;stroke:none"
         id="path272" /><path
         d="m 3274.16,1975.03 c -43.08,0 -78.12,-35.05 -78.12,-78.13 0,-43.08 35.04,-78.11 78.12,-78.11 43.08,0 78.13,35.03 78.13,78.11 0,43.08 -35.05,78.13 -78.13,78.13 z m 0,-163.2 c -46.91,0 -85.07,38.17 -85.07,85.07 0,46.92 38.16,85.08 85.07,85.08 46.91,0 85.07,-38.16 85.07,-85.08 0,-46.9 -38.16,-85.07 -85.07,-85.07"
         style="fill:#e3dccf;fill-opacity:1;fill-rule:nonzero;stroke:none"
         id="path274" /><path
         d="m 5205.55,3326 h 0.07 z m -28.8,36.53 c -11.28,0 -21.81,-7.13 -25.56,-18.39 -2.28,-6.82 -1.77,-14.12 1.46,-20.55 3.2,-6.43 8.73,-11.23 15.55,-13.5 14.05,-4.69 29.34,2.93 34.05,17.01 4.7,14.07 -2.93,29.35 -17.01,34.05 -2.82,0.94 -5.68,1.38 -8.49,1.38 z m -0.05,-60.78 c -3.55,0 -7.16,0.57 -10.7,1.75 -8.58,2.86 -15.53,8.89 -19.57,16.99 -4.05,8.09 -4.7,17.27 -1.84,25.84 5.92,17.72 25.19,27.31 42.85,21.41 17.72,-5.91 27.32,-25.13 21.41,-42.84 v 0 c -4.74,-14.17 -17.98,-23.15 -32.15,-23.15"
         style="fill:#e3dccf;fill-opacity:1;fill-rule:nonzero;stroke:none"
         id="path276" /><path
         d="m 5350.27,3465.25 -20.58,-69.94 -20.6,-69.94 -50.27,52.8 -50.27,52.8 70.86,17.14 70.86,17.14"
         style="fill:#e3dccf;fill-opacity:1;fill-rule:nonzero;stroke:none"
         id="path278" /><path
         d="m 876.496,2938.96 -91.726,-83.64 -91.723,-83.64 -26.57,121.26 -26.579,121.25 118.297,-37.62 118.301,-37.61"
         style="fill:#e3dccf;fill-opacity:1;fill-rule:nonzero;stroke:none"
         id="path280" /><path
         d="m 905.895,2476.08 -214.086,-449.41 -340.536,90.34 -27.796,-142.46 330.804,-117.56 c 53.239,-18.93 112.59,-0.77 146.145,44.69 l 266.664,361.28 -86.875,-514.27 -430.875,-93.82 24.324,-159.84 488.846,105.77 c 64.51,13.95 115.52,63.31 131.59,127.33 l 140.23,558.44 -428.435,189.51"
         style="fill:#100f0d;fill-opacity:1;fill-rule:nonzero;stroke:none"
         id="path282" /><path
         d="M 4076.93,761.801 4195.9,571.289 3945.27,417.352 v 0 c -5.97,27.859 4.15,56.738 26.22,74.769 l 62.54,51.09 c 28.74,23.48 31.91,66.23 6.97,93.719 -32.13,35.41 -68.24,77.062 -62.86,79.761 9.44,4.731 98.79,45.11 98.79,45.11"
         style="fill:#f03c7a;fill-opacity:1;fill-rule:nonzero;stroke:none"
         id="path284" /><path
         d="M 4195.9,571.289 3945.27,417.352 c -5.97,27.867 4.15,56.738 26.22,74.769 l 62.54,51.09 c 7.76,6.34 13.59,14.102 17.57,22.57 l 5.3,-1.57 c 22.28,-6.609 46.35,-2.539 65.24,10.988 l 49.27,35.313 24.49,-39.223"
         style="fill:#100f0d;fill-opacity:1;fill-rule:nonzero;stroke:none"
         id="path286" /><path
         d="M 4677.97,967.68 4844.82,817.301 4646.3,600.281 v 0 c -13.43,25.141 -11.65,55.68 4.6,79.098 l 46.05,66.34 c 21.17,30.492 12.43,72.461 -19.13,92.011 -40.64,25.2 -86.82,55.282 -82.4,59.36 7.77,7.152 82.55,70.59 82.55,70.59"
         style="fill:#f03c7a;fill-opacity:1;fill-rule:nonzero;stroke:none"
         id="path288" /><path
         d="M 4844.82,817.301 4646.3,600.281 c -13.43,25.149 -11.65,55.68 4.6,79.098 l 46.05,66.34 c 5.72,8.23 9.17,17.293 10.67,26.531 l 5.53,-0.051 c 23.23,-0.199 45.26,10.34 59.68,28.551 l 37.64,47.52 34.35,-30.969"
         style="fill:#100f0d;fill-opacity:1;fill-rule:nonzero;stroke:none"
         id="path290" /><path
         d="m 1510.36,3383.38 22.88,-104.15 c 6.39,-29.11 -9.17,-58.57 -36.81,-69.71 l -56.85,-22.89 -9.82,-141.07 -145.68,45.24 42.48,153.17 -42.48,86.67 101.31,61.44 124.97,-8.7"
         style="fill:#f03c7a;fill-opacity:1;fill-rule:nonzero;stroke:none"
         id="path292" /><path
         d="m 1474.18,3464.86 2.19,1.47 c 16.9,11.3 39.32,9.7 54.46,-3.89 v 0 c 15.76,-14.15 19.35,-37.47 8.58,-55.71 l -2.79,-4.74 c -5.71,-9.68 -14.88,-16.84 -25.66,-20.04 l -110.48,-32.77 v 0 c 15.33,-22 16.66,-50.84 3.43,-74.15 l -3.29,-5.79 -36.62,20.64 -2.93,-42.11 c -0.86,-12.39 -6.86,-23.84 -16.54,-31.61 l -21.95,-17.58 -17.08,46.03 c -3.06,8.25 -8.11,15.61 -14.7,21.43 l -39.9,35.22 50.85,85.23 172.43,78.37"
         style="fill:#433397;fill-opacity:1;fill-rule:nonzero;stroke:none"
         id="path294" /><path
         d="m 1401.78,3449.92 c -1.53,-21.95 15.04,-41 37,-42.53 21.96,-1.52 41,15.04 42.53,37 1.53,21.96 -15.04,41 -36.99,42.53 -21.97,1.53 -41.01,-15.03 -42.54,-37"
         style="fill:#433397;fill-opacity:1;fill-rule:nonzero;stroke:none"
         id="path296" /><path
         d="m 1338.6,3428.64 c -1.53,-21.96 15.03,-41.01 37,-42.53 21.96,-1.53 41,15.03 42.53,36.99 1.53,21.96 -15.04,41 -37,42.53 -21.95,1.53 -41,-15.03 -42.53,-36.99"
         style="fill:#433397;fill-opacity:1;fill-rule:nonzero;stroke:none"
         id="path298" /><path
         d="m 1279.84,3392.78 c -1.53,-21.97 15.03,-41.01 37,-42.54 21.95,-1.53 41,15.04 42.53,37 1.52,21.96 -15.04,41 -37,42.53 -21.96,1.53 -41,-15.04 -42.53,-36.99"
         style="fill:#433397;fill-opacity:1;fill-rule:nonzero;stroke:none"
         id="path300" /><path
         d="m 1240.8,3337.93 c -2.2,-31.64 21.66,-59.08 53.3,-61.28 31.64,-2.2 59.07,21.66 61.28,53.3 2.2,31.64 -21.66,59.07 -53.3,61.27 -31.64,2.21 -59.08,-21.65 -61.28,-53.29"
         style="fill:#433397;fill-opacity:1;fill-rule:nonzero;stroke:none"
         id="path302" /><path
         d="m 1382.17,3235.34 v 0 c 12.75,7.25 17.24,23.61 10,36.36 l -4.06,7.13 c -7.25,12.75 -23.61,17.25 -36.36,10 v 0 c -12.75,-7.25 -17.24,-23.61 -10,-36.36 l 4.06,-7.13 c 7.25,-12.75 23.61,-17.25 36.36,-10"
         style="fill:#f03c7a;fill-opacity:1;fill-rule:nonzero;stroke:none"
         id="path304" /><path
         d="m 1384.8,3171.41 54.78,15.22 -1.32,-18.94 z"
         style="fill:#100f0d;fill-opacity:1;fill-rule:nonzero;stroke:none"
         id="path306" /><path
         d="m 2606.42,2429.74 -226.68,20.61 c -67.53,6.14 -129.46,-37.84 -145.9,-103.62 v 0 c -32.76,-131.02 -9.67,-269.74 63.74,-383.08 l 82.98,-128.1 -34.75,-196.73 496.89,130.72 -170.26,444.76 160.61,-53.53 c 36.97,-12.33 77.49,-7.71 110.74,12.62 l 260.29,159.06 -66.02,72.97 -243.24,-114.67 -288.4,138.99"
         style="fill:#6bc3ef;fill-opacity:1;fill-rule:nonzero;stroke:none"
         id="path308" /><path
         d="m 2345.81,1638.82 c 0,0 -41.7,-150.75 125.09,-244.57 l 170.26,-114.66 -316.2,-347.481 72.97,-76.449 377.5,340.33 c 33.37,30.09 41.89,79.09 20.62,118.67 l -84.36,156.98 197.03,-240.7 -197.03,-389.178 82.36,-72.961 282.51,415.109 c 35.45,52.08 37.82,119.91 6.07,174.33 l -239.93,411.3 -496.89,-130.72"
         style="fill:#433397;fill-opacity:1;fill-rule:nonzero;stroke:none"
         id="path310" /><path
         d="m 4001.34,2592.62 h 294.4 c 93.73,0 169.11,-77.11 167,-170.81 l -14.68,-652.27 h -588.4 l 78.76,493.42 -188.44,-230.22 c -30.58,-37.36 -86.73,-40.16 -120.87,-6.01 v 0 c -27.57,27.55 -31.79,70.77 -10.09,103.15 l 269.95,402.78 c 25.11,37.47 67.25,59.96 112.37,59.96"
         style="fill:#e3dccf;fill-opacity:1;fill-rule:nonzero;stroke:none"
         id="path312" /><g
         id="g314"><g
           id="g316"
           clip-path="url(#clipPath320)"><path
             d="m 5218.42,1825.46 -1340.05,1204.41 41.82,46.52 1340.04,-1204.42 -41.81,-46.51"
             style="fill:#100f0d;fill-opacity:1;fill-rule:nonzero;stroke:none"
             id="path322" /><path
             d="m 5117.9,1724.94 -1340.04,1204.41 41.81,46.52 1340.04,-1204.41 -41.81,-46.52"
             style="fill:#100f0d;fill-opacity:1;fill-rule:nonzero;stroke:none"
             id="path324" /><path
             d="m 5017.38,1624.42 -1340.04,1204.41 41.81,46.53 1340.05,-1204.42 -41.82,-46.52"
             style="fill:#100f0d;fill-opacity:1;fill-rule:nonzero;stroke:none"
             id="path326" /><path
             d="m 4916.87,1523.9 -1340.04,1204.42 41.8,46.52 1340.05,-1204.41 -41.81,-46.53"
             style="fill:#100f0d;fill-opacity:1;fill-rule:nonzero;stroke:none"
             id="path328" /><path
             d="m 4816.36,1423.4 -1340.05,1204.41 41.81,46.51 1340.04,-1204.41 -41.8,-46.51"
             style="fill:#100f0d;fill-opacity:1;fill-rule:nonzero;stroke:none"
             id="path330" /><path
             d="m 4715.84,1322.88 -1340.05,1204.41 41.82,46.52 1340.04,-1204.42 -41.81,-46.51"
             style="fill:#100f0d;fill-opacity:1;fill-rule:nonzero;stroke:none"
             id="path332" /><path
             d="m 4615.32,1222.36 -1340.05,1204.41 41.82,46.52 1340.04,-1204.42 -41.81,-46.51"
             style="fill:#100f0d;fill-opacity:1;fill-rule:nonzero;stroke:none"
             id="path334" /><path
             d="m 4514.81,1121.84 -1340.04,1204.42 41.8,46.52 1340.04,-1204.42 -41.8,-46.52"
             style="fill:#100f0d;fill-opacity:1;fill-rule:nonzero;stroke:none"
             id="path336" /></g></g><path
         d="M 3901.36,1769.54 3698.6,1176.78 c -15.2,-44.43 -7.64,-93.48 20.22,-131.28 l 279.83,-379.57 101.93,79.269 -213.13,383.001 254.83,450.22 h 38.22 l 26.75,-385.1 c 2.85,-41.07 24.58,-78.49 58.82,-101.34 l 358.04,-238.839 97.3,90.55 L 4411,1217.73 v 551.81 h -509.64"
         style="fill:#433397;fill-opacity:1;fill-rule:nonzero;stroke:none"
         id="path338" /><path
         d="m 4010.01,2872.81 c 0,0 -77.35,79.31 23.98,147.65 v -50.97 c 0,0 5.2,75.29 140.72,92.66 l -33.6,-79.91 c 0,0 26.62,48.64 115.24,30.11 l -59.64,-75.28 c 0,0 41.7,35.9 92.67,5.79 l -46.33,-38.22 c 0,0 26.36,-17.72 10.28,-98.63 l -243.32,66.8"
         style="fill:#433397;fill-opacity:1;fill-rule:nonzero;stroke:none"
         id="path340" /><path
         d="m 4438.79,3406.16 -94.98,-99.61 34.76,-71.81 7.22,-117.06 c 3.16,-50.94 43.67,-91.61 94.6,-94.94 l 88.13,-5.76 173.74,-196.91 -139,-227.45 c 0,0 505.01,-169.64 773.72,188.74 l -105.02,135.66 c -108.63,140.32 -271.67,228 -448.63,241.27 v 0 l -216.49,299.08 c -5.41,7.48 -12.33,13.74 -20.3,18.39 v 0 c -10.28,5.99 -18.76,14.66 -24.54,25.06 l -106.99,192.59 c 0,0 71.81,368.33 62.54,368.33 -9.26,0 -81.07,20.85 -81.07,20.85 l -106.52,-358.46 c -8.99,-30.27 -6.78,-62.77 6.26,-91.54 l 102.57,-226.43"
         style="fill:#433397;fill-opacity:1;fill-rule:nonzero;stroke:none"
         id="path342" /><path
         d="M 998.746,3832.4 H 699.914 c -45.867,0 -83.394,-37.53 -83.394,-83.39 v -136.68 c 0,-45.86 37.527,-83.39 83.394,-83.39 h 298.832 c 0.055,0 0.102,0 0.152,0 9.122,0.02 17.482,-5.04 21.032,-13.45 l 62.21,-147.55 v 244.39 56.76 79.92 c 0,45.86 -37.53,83.39 -83.394,83.39"
         style="fill:#e3dccf;fill-opacity:1;fill-rule:nonzero;stroke:none"
         id="path344" /><path
         d="m 1650.84,2391.58 v 161.75 c 0,45.87 37.52,83.4 83.39,83.4 h 136.68 c 45.87,0 83.39,-37.53 83.39,-83.4 v -161.75 c 0,-0.05 0,-0.1 0,-0.15 -0.02,-9.13 5.04,-17.49 13.45,-21.03 l 147.55,-62.21 h -244.39 -56.75 -79.93 c -45.87,0 -83.39,37.52 -83.39,83.39"
         style="fill:#e3dccf;fill-opacity:1;fill-rule:nonzero;stroke:none"
         id="path346" /><path
         d="m 872.496,2488.82 c 32.035,-15.6 514.264,-225.86 514.264,-225.86 l 159.85,621.98 326.59,110.81 c 39.69,13.47 71.43,43.73 86.77,82.73 l 97.43,247.76 -104.25,41.7 -113.51,-244.4 -301.14,-46.33 -242.27,65.78 c -62.1,16.87 -127.3,-13.52 -154.32,-71.91 L 872.496,2488.82"
         style="fill:#433397;fill-opacity:1;fill-rule:nonzero;stroke:none"
         id="path348" /><path
         d="m 2115.23,2394.31 585.24,36.97 -7.79,48.88 c -4.87,30.59 -27.84,55.16 -58.04,62.07 v 0 c -29.75,6.27 -50.14,33.77 -47.5,64.07 v 0 c 2.37,27.17 -14.9,52.21 -41.15,59.64 v 0 c -18.29,5.18 -31.56,21 -33.47,39.92 l -0.31,3.03 c -4.92,48.57 -47.19,84.65 -95.93,81.89 l -22.09,-1.26 c -54.02,-3.07 -96.1,-48.03 -95.58,-102.14 l 0.08,-8.74 c 0.28,-28.18 -17.87,-53.24 -44.73,-61.79 v 0 c -25.55,-8.12 -42.2,-32.69 -40.26,-59.43 l 1.91,-26.56 c 1.2,-16.67 -9.62,-31.84 -25.77,-36.13 v 0 c -42.61,-11.3 -72.8,-49.16 -74.36,-93.22 l -0.25,-7.2"
         style="fill:#100f0d;fill-opacity:1;fill-rule:nonzero;stroke:none"
         id="path350" /><path
         d="m 4840.7,3062.15 h -239.75 c -45.87,0 -83.4,-37.52 -83.4,-83.39 v -64.69 c 0,-39.05 -26.2,-73.26 -63.91,-83.43 l -91.3,-24.63 h 238.61 81.08 158.67 c 45.87,0 83.4,37.53 83.4,83.4 v 89.35 c 0,45.87 -37.53,83.39 -83.4,83.39"
         style="fill:#e3dccf;fill-opacity:1;fill-rule:nonzero;stroke:none"
         id="path352" /><path
         d="M 3884.59,1720.52 4411,1769.54 H 3901.36 Z"
         style="fill:#100f0d;fill-opacity:1;fill-rule:nonzero;stroke:none"
         id="path354" /><path
         d="m 2672.44,2214.3 -74.48,10.68 86.42,-43.9 z"
         style="fill:#100f0d;fill-opacity:1;fill-rule:nonzero;stroke:none"
         id="path356" /><path
         d="m 2345.81,1638.82 496.89,130.72 -501.46,-168.28 z"
         style="fill:#100f0d;fill-opacity:1;fill-rule:nonzero;stroke:none"
         id="path358" /><path
         d="m 4438.79,3406.16 34.82,-88.62 -54.07,68.43 z"
         style="fill:#100f0d;fill-opacity:1;fill-rule:nonzero;stroke:none"
         id="path360" /><path
         d="M 985.504,3734.37 H 707.969 c -8.281,0 -15.059,6.77 -15.059,15.06 v 0 c 0,8.28 6.778,15.05 15.059,15.05 h 277.535 c 8.281,0 15.056,-6.77 15.056,-15.05 v 0 c 0,-8.29 -6.775,-15.06 -15.056,-15.06"
         style="fill:#6bc3ef;fill-opacity:1;fill-rule:nonzero;stroke:none"
         id="path362" /><path
         d="m 743.137,3706.57 h -34.641 c -6.855,0 -13.262,-4.35 -15.039,-10.97 -2.684,-10.02 4.898,-19.14 14.512,-19.14 h 35.168 c 8.32,0 15.058,6.74 15.058,15.05 v 0 c 0,8.32 -6.738,15.06 -15.058,15.06"
         style="fill:#6bc3ef;fill-opacity:1;fill-rule:nonzero;stroke:none"
         id="path364" /><path
         d="M 984.977,3706.57 H 784.883 c -8.317,0 -15.059,-6.74 -15.059,-15.06 v 0 c 0,-8.31 6.742,-15.05 15.059,-15.05 h 200.621 c 9.613,0 17.196,9.12 14.516,19.14 -1.782,6.62 -8.188,10.97 -15.043,10.97"
         style="fill:#6bc3ef;fill-opacity:1;fill-rule:nonzero;stroke:none"
         id="path366" /><path
         d="M 846.738,3618.54 H 707.969 c -8.281,0 -15.059,6.78 -15.059,15.06 v 0 c 0,8.28 6.778,15.06 15.059,15.06 h 138.769 c 8.282,0 15.055,-6.78 15.055,-15.06 v 0 c 0,-8.28 -6.773,-15.06 -15.055,-15.06"
         style="fill:#6bc3ef;fill-opacity:1;fill-rule:nonzero;stroke:none"
         id="path368" /><path
         d="m 985.504,3618.54 h -97.949 c -8.282,0 -15.059,6.78 -15.059,15.06 v 0 c 0,8.28 6.777,15.06 15.059,15.06 h 97.949 c 8.281,0 15.056,-6.78 15.056,-15.06 v 0 c 0,-8.28 -6.775,-15.06 -15.056,-15.06"
         style="fill:#6bc3ef;fill-opacity:1;fill-rule:nonzero;stroke:none"
         id="path370" /><path
         d="m 4588.15,2891.23 h 277.54 c 8.29,0 15.06,-6.78 15.06,-15.06 v 0 c 0,-8.28 -6.77,-15.06 -15.06,-15.06 h -277.54 c -8.28,0 -15.05,6.78 -15.05,15.06 v 0 c 0,8.28 6.77,15.06 15.05,15.06"
         style="fill:#6bc3ef;fill-opacity:1;fill-rule:nonzero;stroke:none"
         id="path372" /><path
         d="m 4830.52,2919.03 h 34.65 c 6.85,0 13.26,4.35 15.03,10.97 2.69,10.02 -4.9,19.14 -14.51,19.14 h -35.17 c -8.31,0 -15.05,-6.74 -15.05,-15.06 v 0 c 0,-8.31 6.74,-15.05 15.05,-15.05"
         style="fill:#6bc3ef;fill-opacity:1;fill-rule:nonzero;stroke:none"
         id="path374" /><path
         d="m 4588.68,2919.03 h 200.1 c 8.31,0 15.06,6.74 15.06,15.05 v 0 c 0,8.32 -6.75,15.06 -15.06,15.06 h -200.63 c -9.6,0 -17.19,-9.12 -14.51,-19.14 1.78,-6.62 8.19,-10.97 15.04,-10.97"
         style="fill:#6bc3ef;fill-opacity:1;fill-rule:nonzero;stroke:none"
         id="path376" /><path
         d="m 4726.92,3007.05 h 138.77 c 8.29,0 15.06,-6.77 15.06,-15.05 v 0 c 0,-8.28 -6.77,-15.06 -15.06,-15.06 h -138.77 c -8.28,0 -15.05,6.78 -15.05,15.06 v 0 c 0,8.28 6.77,15.05 15.05,15.05"
         style="fill:#6bc3ef;fill-opacity:1;fill-rule:nonzero;stroke:none"
         id="path378" /><path
         d="m 4588.15,3007.05 h 97.95 c 8.29,0 15.06,-6.77 15.06,-15.05 v 0 c 0,-8.28 -6.77,-15.06 -15.06,-15.06 h -97.95 c -8.28,0 -15.05,6.78 -15.05,15.06 v 0 c 0,8.28 6.77,15.05 15.05,15.05"
         style="fill:#6bc3ef;fill-opacity:1;fill-rule:nonzero;stroke:none"
         id="path380" /><path
         d="m 1693.02,2440.88 h 211.91 c 8.28,0 15.06,-6.78 15.06,-15.06 v 0 c 0,-8.28 -6.78,-15.06 -15.06,-15.06 h -211.91 c -8.29,0 -15.06,6.78 -15.06,15.06 v 0 c 0,8.28 6.77,15.06 15.06,15.06"
         style="fill:#6bc3ef;fill-opacity:1;fill-rule:nonzero;stroke:none"
         id="path382" /><path
         d="m 1869.77,2468.67 h 34.63 c 6.86,0 13.27,4.34 15.04,10.98 2.69,10 -4.89,19.14 -14.51,19.14 h -35.16 c -8.32,0 -15.06,-6.74 -15.06,-15.06 v 0 c 0,-8.31 6.74,-15.06 15.06,-15.06"
         style="fill:#6bc3ef;fill-opacity:1;fill-rule:nonzero;stroke:none"
         id="path384" /><path
         d="m 1693.55,2468.67 h 134.47 c 8.32,0 15.06,6.75 15.06,15.06 v 0 c 0,8.32 -6.74,15.06 -15.06,15.06 h -135.01 c -9.61,0 -17.19,-9.14 -14.5,-19.14 1.77,-6.64 8.18,-10.98 15.04,-10.98"
         style="fill:#6bc3ef;fill-opacity:1;fill-rule:nonzero;stroke:none"
         id="path386" /><path
         d="m 1831.78,2556.7 h 73.15 c 8.28,0 15.06,-6.77 15.06,-15.05 v 0 c 0,-8.28 -6.78,-15.06 -15.06,-15.06 h -73.15 c -8.28,0 -15.06,6.78 -15.06,15.06 v 0 c 0,8.28 6.78,15.05 15.06,15.05"
         style="fill:#6bc3ef;fill-opacity:1;fill-rule:nonzero;stroke:none"
         id="path388" /><path
         d="m 1693.02,2556.7 h 97.95 c 8.28,0 15.06,-6.77 15.06,-15.05 v 0 c 0,-8.28 -6.78,-15.06 -15.06,-15.06 h -97.95 c -8.29,0 -15.06,6.78 -15.06,15.06 v 0 c 0,8.28 6.77,15.05 15.06,15.05"
         style="fill:#6bc3ef;fill-opacity:1;fill-rule:nonzero;stroke:none"
         id="path390" /></g></g></svg>
