<?xml version="1.0" encoding="UTF-8" standalone="no"?>
<svg
   xmlns:dc="http://purl.org/dc/elements/1.1/"
   xmlns:cc="http://creativecommons.org/ns#"
   xmlns:rdf="http://www.w3.org/1999/02/22-rdf-syntax-ns#"
   xmlns:svg="http://www.w3.org/2000/svg"
   xmlns="http://www.w3.org/2000/svg"
   xmlns:sodipodi="http://sodipodi.sourceforge.net/DTD/sodipodi-0.dtd"
   xmlns:inkscape="http://www.inkscape.org/namespaces/inkscape"
   version="1.1"
   id="svg2"
   xml:space="preserve"
   width="1498.3199"
   height="1123.7333"
   viewBox="0 0 1498.3199 1123.7333"
   sodipodi:docname="lab_office_cat_tea.svg"
   inkscape:version="1.0.1 (3bc2e813f5, 2020-09-07)"><metadata
     id="metadata8"><rdf:RDF><cc:Work
         rdf:about=""><dc:format>image/svg+xml</dc:format><dc:type
           rdf:resource="http://purl.org/dc/dcmitype/StillImage" /><dc:title></dc:title><cc:license
           rdf:resource="http://creativecommons.org/licenses/by/4.0/" /></cc:Work><cc:License
         rdf:about="http://creativecommons.org/licenses/by/4.0/"><cc:permits
           rdf:resource="http://creativecommons.org/ns#Reproduction" /><cc:permits
           rdf:resource="http://creativecommons.org/ns#Distribution" /><cc:requires
           rdf:resource="http://creativecommons.org/ns#Notice" /><cc:requires
           rdf:resource="http://creativecommons.org/ns#Attribution" /><cc:permits
           rdf:resource="http://creativecommons.org/ns#DerivativeWorks" /></cc:License></rdf:RDF></metadata><defs
     id="defs6"><clipPath
       clipPathUnits="userSpaceOnUse"
       id="clipPath62"><path
         d="m 852.133,6293.06 153.657,397.5 105.91,273.95 c 0,0 -29.78,-6.24 -79.33,12.92 -57.253,22.13 -67.358,43.79 -67.358,43.79 l -105.907,-273.95 -153.66,-397.53 73.328,-28.34 73.36,-28.34"
         id="path60" /></clipPath><clipPath
       clipPathUnits="userSpaceOnUse"
       id="clipPath348"><path
         d="m 3608.37,4696.29 c -2.47,38.65 -34.62,69.08 -73.67,69.16 39.05,-0.08 71.2,-30.5 73.67,-69.16 v 0 m -73.82,69.17 v 0 0 0"
         id="path346" /></clipPath></defs><sodipodi:namedview
     pagecolor="#ffffff"
     bordercolor="#666666"
     borderopacity="1"
     objecttolerance="10"
     gridtolerance="10"
     guidetolerance="10"
     inkscape:pageopacity="0"
     inkscape:pageshadow="2"
     inkscape:window-width="1920"
     inkscape:window-height="1166"
     id="namedview4"
     showgrid="false"
     inkscape:zoom="0.67008784"
     inkscape:cx="744.8908"
     inkscape:cy="641.21893"
     inkscape:window-x="-11"
     inkscape:window-y="-11"
     inkscape:window-maximized="1"
     inkscape:current-layer="g12"
     inkscape:document-rotation="0" /><g
     id="g10"
     inkscape:groupmode="layer"
     inkscape:label="ink_ext_XXXXXX"
     transform="matrix(1.3333333,0,0,-1.3333333,0,1123.7333)"><g
       id="g12"
       transform="scale(0.1)"><path
         d="m 9510.76,2924.36 c -21.72,370.18 -152.01,592.27 -238.93,937.78 -195.49,616.97 217.21,1579.43 -238.93,2048.33 -217.17,222.12 -608.18,271.47 -847.12,419.54 -390.94,222.09 -390.94,493.56 -586.45,888.44 -217.19,444.19 -564.75,592.26 -999.14,691 -499.58,98.69 -695.09,-74.04 -1129.5,-370.19 -282.37,-197.44 -477.85,-98.74 -781.94,-222.12 -238.93,-74.04 -390.97,-370.17 -651.63,-419.53 h -21.71 c -325.81,49.36 -716.8,123.37 -1042.61,49.36 -369.26,-98.71 -521.31,-518.25 -781.94,-789.74 C 1756.45,5713.04 1083.1,5564.95 1061.38,4799.94 1039.64,4182.96 778.984,3837.45 648.684,3245.15 561.785,2899.66 453.203,2159.31 626.938,1838.5 778.984,1567.02 1278.57,1394.32 1517.52,1221.53 1778.14,1048.76 2017.08,802 2299.45,727.93 2885.91,530.531 3624.44,407.148 4232.61,456.512 c 716.78,49.347 1498.74,123.367 2193.81,320.801 304.07,98.75 629.92,222.128 933.97,271.447 116.37,8.82 232.75,1.9 347.15,-5.02 205.88,-12.46 405.35,-24.93 586.87,54.39 260.65,123.4 521.32,345.51 760.23,518.26 130.32,74.04 456.12,197.42 521.29,345.52 65.15,148.07 -65.17,765.02 -65.17,962.45"
         style="fill:#f25761;fill-opacity:1;fill-rule:nonzero;stroke:none"
         id="path16" /><path
         d="m 6172.58,4668.71 h 4160.02 v 2780 H 6172.58 Z"
         style="fill:#f1f1f1;fill-opacity:1;fill-rule:nonzero;stroke:none"
         id="path18" /><path
         d="m 6172.58,4674.67 h 4163.12 v 464.72 h -24.1 v 45.84 h -35 v -63.01 h -31.6 v 28.62 h -53.3 v 55.01 h -64.1 v -55.01 h -5.8 v -25.19 h -60.8 v 13.74 h -24.2 v 20.62 h -24.1 v 69.88 h -61.63 v -43.52 h -30.81 v -69.89 h -29.13 v 96.24 h -29.14 v 182.2 l -81.04,-0.05 h -17.83 l -31.19,67.6 h -57.92 l -22.23,-77.16 -20.44,-24.52 V 5061.5 h -18.32 v 657.58 h -24.98 v 28.61 l -34.96,48.97 v 41.58 h -96.6 v -40.35 l -42.46,-58.77 v -21.18 h -20.82 v -178.7 h -59.11 v -107.7 h -22.48 v -146.67 h -50.78 v 321.95 h -16.67 v 130.62 h -24.14 v 436.41 l -15.96,-0.29 -24.83,60.19 -99.94,-0.27 -14.74,-0.04 -22.87,-62.99 -14.83,-0.27 v -446.29 l -16.61,-23.12 h -45 v 291.81 l -62.16,86.24 h -103.54 v -66.44 h -25.81 v -459.41 h -24.83 l 0.35,317.7 -24.65,0.11 v 11.78 l -41.63,0.22 v -13.62 h -8.33 V 5674.4 h -17.48 v 514.41 h -38.3 v 10.3 h -33.1 l 0.21,59.29 -51.21,0.29 v -59.58 h -27.48 v -10.3 h -39.13 v -740.09 h -24.07 l -0.9,1095.23 h -29.15 v 26.34 h -87.42 v -26.72 l -81.6,-0.29 v 24.74 h -92.43 v -24.07 h -29.14 V 5294.33 l -23.19,-0.23 -0.78,1024.16 h -48.46 v 16.02 h -58.29 v -14.88 h -44.96 v 13.77 h -45.8 v -13.77 h -19.97 v -822.57 h -22.53 l -41.59,-57.12 V 6033 h -44.13 v 34.35 H 7662.99 V 6033 h -44.96 v -615.21 h -82.43 v 935.79 l -77.15,-0.55 -0.28,463.59 h -59.11 l -0.3,-459.75 -77.97,-0.83 v -834 h -112.42 v 96.22 h -44.12 v 139.78 h -20.82 v 14.9 h -14.16 v -14.9 h -53.28 v 12.6 h -67.44 v -12.6 h -32.31 l -57.62,-79.52 v -219.48 h -152.37 v 60.71 h -25.82 v 48.11 h -33.3 v -48.11 h -10.83 v -184.44 h -29.14 v -81.34 h -28.31 v 54.97 h -31.63 v 43.56 h -61.62 v -69.9 h -24.14 v -20.63 h -24.15 v -13.73 h -59.95 v 25.2 h -6.66 v 53.85 h -64.11 v -53.85 h -53.3 v -28.67 h -31.64 v 63.05 h -34.14 v -45.85 h -29.13 v 86.92 l -45.75,0.23 0.37,-386.15 h -0.42 v -288.3"
         style="fill:#b6addd;fill-opacity:1;fill-rule:nonzero;stroke:none"
         id="path20" /><path
         d="M 10332.6,7251.99 H 6172.58 v 74.99 h 4160.02 v -74.99"
         style="fill:#1c1b1b;fill-opacity:1;fill-rule:nonzero;stroke:none"
         id="path22" /><path
         d="M 10332.6,7091.99 H 6172.58 v 74.99 h 4160.02 v -74.99"
         style="fill:#1c1b1b;fill-opacity:1;fill-rule:nonzero;stroke:none"
         id="path24" /><path
         d="M 10332.6,6931.99 H 6172.58 v 74.99 h 4160.02 v -74.99"
         style="fill:#1c1b1b;fill-opacity:1;fill-rule:nonzero;stroke:none"
         id="path26" /><path
         d="M 10332.6,6771.99 H 6172.58 v 74.99 h 4160.02 v -74.99"
         style="fill:#1c1b1b;fill-opacity:1;fill-rule:nonzero;stroke:none"
         id="path28" /><path
         d="m 903.066,6286.56 299.974,770.54 90.88,-35.37 -299.994,-770.57 -90.86,35.4"
         style="fill:#2b2f36;fill-opacity:1;fill-rule:nonzero;stroke:none"
         id="path30" /><path
         d="m 1163.63,6955.87 7.1,18.2 90.88,-35.38 -7.09,-18.19 -90.89,35.37"
         style="fill:#e4e2cc;fill-opacity:1;fill-rule:nonzero;stroke:none"
         id="path32" /><path
         d="m 932.543,6362.27 7.051,18.18 90.886,-35.37 -7.08,-18.2 -90.857,35.39"
         style="fill:#e4e2cc;fill-opacity:1;fill-rule:nonzero;stroke:none"
         id="path34" /><path
         d="m 993.426,6422.3 180.914,464.66 25.73,-10 -180.91,-464.66 -25.734,10"
         style="fill:#e4e2cc;fill-opacity:1;fill-rule:nonzero;stroke:none"
         id="path36" /><path
         d="m 947.594,6269.21 -44.528,17.35 44.528,-17.35 v 0"
         style="fill:#9a848d;fill-opacity:1;fill-rule:nonzero;stroke:none"
         id="path38" /><path
         d="m 947.594,6269.21 -44.528,17.35 29.797,76.53 -0.32,-0.82 44.527,-17.34 -29.476,-75.72"
         style="fill:#1e1c1f;fill-opacity:1;fill-rule:nonzero;stroke:none"
         id="path40" /><path
         d="m 1247.58,7039.77 -44.54,17.33 44.54,-17.33"
         style="fill:#9a848d;fill-opacity:1;fill-rule:nonzero;stroke:none"
         id="path42" /><path
         d="m 984.148,6363.11 -44.531,17.33 263.423,676.66 44.54,-17.33 -32.32,-83.04 -44.53,17.34 -7.1,-18.2 44.54,-17.34 -21.88,-56.21 -11.95,4.64 -180.914,-464.66 11.954,-4.65 -21.232,-54.54"
         style="fill:#1e1c1f;fill-opacity:1;fill-rule:nonzero;stroke:none"
         id="path44" /><path
         d="m 1208.17,6938.53 -44.54,17.34 7.1,18.2 44.53,-17.34 -7.09,-18.2"
         style="fill:#927c79;fill-opacity:1;fill-rule:nonzero;stroke:none"
         id="path46" /><path
         d="m 977.07,6344.93 -44.527,17.34 0.32,0.82 6.754,17.35 44.531,-17.33 -7.078,-18.18"
         style="fill:#927c79;fill-opacity:1;fill-rule:nonzero;stroke:none"
         id="path48" /><path
         d="m 1005.38,6417.65 -11.954,4.65 180.914,464.66 11.95,-4.64 -180.91,-464.67"
         style="fill:#927c79;fill-opacity:1;fill-rule:nonzero;stroke:none"
         id="path50" /><path
         d="m 942.906,7062.32 33.067,-12.77 -270.528,-699.81 146.688,-56.68 270.507,699.77 33.02,-12.74 -286.523,-741.24 -212.774,82.23 286.543,741.24"
         style="fill:#2b2f36;fill-opacity:1;fill-rule:nonzero;stroke:none"
         id="path52" /><path
         d="m 852.133,6293.06 153.657,397.5 105.91,273.95 c 0,0 -29.78,-6.24 -79.33,12.92 -57.253,22.13 -67.358,43.79 -67.358,43.79 l -105.907,-273.95 -153.66,-397.53 73.328,-28.34 73.36,-28.34"
         style="fill:#ffffff;fill-opacity:1;fill-rule:nonzero;stroke:none"
         id="path54" /><g
         id="g56"><g
           id="g58"
           clip-path="url(#clipPath62)"><path
             d="m 724.137,6328.92 265.636,687.16 -7.742,2.99 -265.64,-687.16 7.746,-2.99"
             style="fill:#c8d2cc;fill-opacity:1;fill-rule:nonzero;stroke:none"
             id="path64" /><path
             d="m 746.223,6320.39 265.617,687.16 -7.7,2.99 -265.628,-687.18 7.711,-2.97"
             style="fill:#c8d2cc;fill-opacity:1;fill-rule:nonzero;stroke:none"
             id="path66" /><path
             d="m 768.32,6311.82 265.64,687.19 -7.75,3 -265.636,-687.18 7.746,-3.01"
             style="fill:#c8d2cc;fill-opacity:1;fill-rule:nonzero;stroke:none"
             id="path68" /><path
             d="m 790.395,6303.29 265.645,687.19 -7.73,2.96 -265.638,-687.15 7.723,-3"
             style="fill:#c8d2cc;fill-opacity:1;fill-rule:nonzero;stroke:none"
             id="path70" /><path
             d="m 812.465,6294.76 265.635,687.18 -7.72,2.97 -265.63,-687.15 7.715,-3"
             style="fill:#c8d2cc;fill-opacity:1;fill-rule:nonzero;stroke:none"
             id="path72" /><path
             d="m 834.547,6286.23 265.643,687.17 -7.73,2.99 -265.644,-687.18 7.731,-2.98"
             style="fill:#c8d2cc;fill-opacity:1;fill-rule:nonzero;stroke:none"
             id="path74" /></g></g><path
         d="m 852.133,6293.06 153.657,397.5 53.3,137.87 -206.957,-535.37 m 246.287,670.48 v 0 c 0.02,0 0.03,0 0.04,0 -0.01,0 -0.02,0 -0.04,0 m -1.44,0.01 c -13.13,0.16 -34.58,2.57 -62.5,13.08 27.92,-10.51 49.37,-12.92 62.5,-13.08 m -62.52,13.09 c -0.56,0.21 -1.13,0.43 -1.69,0.64 0.56,-0.21 1.13,-0.43 1.69,-0.64 m -2.09,0.79 c -0.96,0.38 -1.92,0.75 -2.85,1.12 l 0.01,0.03 c 0.96,-0.39 1.85,-0.76 2.84,-1.15"
         style="fill:#dadddb;fill-opacity:1;fill-rule:nonzero;stroke:none"
         id="path76" /><path
         d="m 869.137,6238.85 v 0 l -109.246,42.22 16.027,41.43 2.855,-1.1 8.473,-3.27 7.731,-2.99 14.351,-5.54 7.719,-2.99 14.355,-5.54 7.723,-2.99 13.008,-5.02 206.957,535.37 52.61,136.08 v 0 l 10.94,28.32 33.02,-12.74 -286.523,-741.24"
         style="fill:#272b31;fill-opacity:1;fill-rule:nonzero;stroke:none"
         id="path78" /><path
         d="m 852.133,6293.06 -13.008,5.02 257.255,665.48 c -2.59,0.04 -5.5,0.18 -8.71,0.44 l -256.268,-662.93 -14.355,5.54 254.923,659.47 c -2.62,0.47 -5.36,1.03 -8.22,1.68 l -254.422,-658.16 -14.351,5.54 253.823,656.6 c -2.56,0.79 -5.19,1.64 -7.89,2.57 l -253.664,-656.18 -8.473,3.27 -2.855,1.1 0.008,0.02 253.594,656.03 c 0.93,-0.37 1.89,-0.74 2.85,-1.12 v 0 c 0.14,-0.05 0.26,-0.1 0.4,-0.15 0.56,-0.21 1.13,-0.43 1.69,-0.64 0.01,0 0.01,-0.01 0.02,-0.01 27.92,-10.51 49.37,-12.92 62.5,-13.08 0.49,-0.01 0.97,-0.01 1.44,-0.01 v 0 0 c 0.02,0 0.03,0 0.04,0 8.63,0 13.24,0.97 13.24,0.97 l -52.61,-136.08 -53.3,-137.87 -153.657,-397.5"
         style="fill:#e9eeec;fill-opacity:1;fill-rule:nonzero;stroke:none"
         id="path80" /><path
         d="m 794.977,6315.14 -7.731,2.99 253.664,656.18 c 2.7,-0.93 5.33,-1.78 7.89,-2.57 l -253.823,-656.6"
         style="fill:#b3bfba;fill-opacity:1;fill-rule:nonzero;stroke:none"
         id="path82" /><path
         d="m 817.047,6306.61 -7.719,2.99 254.422,658.16 c 2.86,-0.65 5.6,-1.21 8.22,-1.68 L 817.047,6306.61"
         style="fill:#b3bfba;fill-opacity:1;fill-rule:nonzero;stroke:none"
         id="path84" /><path
         d="m 839.125,6298.08 -7.723,2.99 256.268,662.93 c 3.21,-0.26 6.12,-0.4 8.71,-0.44 L 839.125,6298.08"
         style="fill:#b3bfba;fill-opacity:1;fill-rule:nonzero;stroke:none"
         id="path86" /><path
         d="m 953.949,6433.99 -9.539,36.54 31.629,20.61 -74.965,28.96 -74.953,28.98 -11.043,-28.57 -11.047,-28.55 74.957,-28.98 74.961,-28.99"
         style="fill:#376b87;fill-opacity:1;fill-rule:nonzero;stroke:none"
         id="path88" /><path
         d="m 687.207,6102.14 h 2371.47 v 131.57 H 687.207 Z"
         style="fill:#e7d8ca;fill-opacity:1;fill-rule:nonzero;stroke:none"
         id="path90" /><path
         d="m 687.207,6102.14 h 2371.47 v 131.57 H 687.207 Z"
         style="fill:#6b5035;fill-opacity:1;fill-rule:nonzero;stroke:none"
         id="path92" /><path
         d="m 687.207,6102.14 h 2371.47 v 65.8281 H 687.207 Z"
         style="fill:#533d2b;fill-opacity:1;fill-rule:nonzero;stroke:none"
         id="path94" /><path
         d="M 2888.11,6232.47 H 1293.92 v 186.03 h 1594.19 v -186.03"
         style="fill:#424c5d;fill-opacity:1;fill-rule:nonzero;stroke:none"
         id="path96" /><path
         d="M 2888.11,6418.5 H 1293.92 v 186.15 H 2888.11 V 6418.5"
         style="fill:#2b2f36;fill-opacity:1;fill-rule:nonzero;stroke:none"
         id="path98" /><path
         d="m 2760.43,6478.3 h -436.38 v 70.8 h 436.38 v -70.8"
         style="fill:#ffffff;fill-opacity:1;fill-rule:nonzero;stroke:none"
         id="path100" /><path
         d="m 2760.43,6289.98 h -436.38 v 70.87 h 436.38 v -70.87"
         style="fill:#ffffff;fill-opacity:1;fill-rule:nonzero;stroke:none"
         id="path102" /><path
         d="m 1475.47,6289.98 h -57.87 v 70.87 h 57.87 v -70.87"
         style="fill:#ffffff;fill-opacity:1;fill-rule:nonzero;stroke:none"
         id="path104" /><path
         d="m 1475.47,6476.15 h -57.87 v 70.83 h 57.87 v -70.83"
         style="fill:#ffffff;fill-opacity:1;fill-rule:nonzero;stroke:none"
         id="path106" /><path
         d="M 2888.11,6604.65 H 1293.92 v 186.03 h 1594.19 v -186.03"
         style="fill:#424c5d;fill-opacity:1;fill-rule:nonzero;stroke:none"
         id="path108" /><path
         d="M 2888.11,6790.68 H 1293.92 v 186.14 h 1594.19 v -186.14"
         style="fill:#2b2f36;fill-opacity:1;fill-rule:nonzero;stroke:none"
         id="path110" /><path
         d="m 2760.43,6850.48 h -436.38 v 70.8 h 436.38 v -70.8"
         style="fill:#ffffff;fill-opacity:1;fill-rule:nonzero;stroke:none"
         id="path112" /><path
         d="m 2760.43,6662.16 h -436.38 v 70.86 h 436.38 v -70.86"
         style="fill:#ffffff;fill-opacity:1;fill-rule:nonzero;stroke:none"
         id="path114" /><path
         d="m 1475.47,6662.16 h -57.87 v 70.86 h 57.87 v -70.86"
         style="fill:#ffffff;fill-opacity:1;fill-rule:nonzero;stroke:none"
         id="path116" /><path
         d="m 1475.47,6848.33 h -57.87 v 70.83 h 57.87 v -70.83"
         style="fill:#ffffff;fill-opacity:1;fill-rule:nonzero;stroke:none"
         id="path118" /><path
         d="m 10811.3,236.5 c -116.7,0 -262.7,53.352 -372,97.32 -128.9,51.25 -359.9,96.34 -436.4,219.7 -23.64,36.949 -38.13,74.132 -42.68,109.269 114.28,-28.641 247.48,-40.168 387.78,-40.168 302.3,-0.012 637.8,53.527 889.4,104.668 v -297.93 c -10.3,-6.078 -19.4,-11.468 -27,-16.097 -129.9,-82.871 -218.9,-172.051 -385.4,-176.512 -4.5,-0.172 -9.1,-0.25 -13.7,-0.25 m -463.1,395.941 c -141.1,0 -274.7,11.688 -389.05,40.829 -7.36,99.96 68.45,180.949 246.95,188.179 l 18.2,2.063 c 0.8,-0.02 1.7,-0.02 2.6,-0.02 61.2,0 106.7,36.899 152.3,73.809 45.5,36.898 91,73.809 152.3,73.809 0.8,0 1.7,-0.01 2.6,-0.02 83.8,-2.26 168.1,-23.52 257.3,-23.52 6.9,0 13.8,0.129 20.8,0.399 100.2,3.152 198.2,8.582 295.7,8.582 43.2,0 86.3,-1.071 129.5,-3.879 V 737.379 c -251.3,-51.188 -587.1,-104.93 -889.2,-104.938"
         style="fill:#7d808d;fill-opacity:1;fill-rule:nonzero;stroke:none"
         id="path120" /><path
         d="m 10348,622.621 c -140.3,0 -273.5,11.527 -387.78,40.168 -29.41,7.363 -57.57,15.859 -84.29,25.59 -9.84,3.582 -19.54,7.34 -28.99,11.281 0.78,3.238 1.57,6.481 2.37,9.75 34.04,-14.23 70.82,-26.199 109.84,-36.14 114.35,-29.141 247.95,-40.829 389.05,-40.829 302.1,0.008 637.9,53.75 889.2,104.938 v -10.09 c -251.6,-51.141 -587.1,-104.68 -889.4,-104.668"
         style="fill:#aed2dd;fill-opacity:1;fill-rule:nonzero;stroke:none"
         id="path122" /><path
         d="m 9544.88,645.57 c -147.9,0 -365.48,76.649 -432.03,94.789 -253.72,71.641 -571.08,136.032 -699.78,420.291 116.01,66.87 231.36,148.9 344.13,232.96 267.73,-270.65 707.14,-527.501 931.85,-649.911 0.93,-73.578 -60.47,-98.129 -144.17,-98.129 m 143.54,109.75 c -225.66,123.172 -658.91,377.18 -923.32,644.18 98.98,73.94 195.92,149.2 289.54,216.89 13.64,7.75 29.41,16.04 46.82,24.84 95.23,-66.68 176.28,-146.54 224.59,-228.49 75.41,-111.98 117.75,-169.67 209.34,-266.35 100.87,-100.15 102.54,-153.519 136.38,-292.679 l -0.87,-31.34 c 10.08,-25.601 15.72,-47.832 17.52,-67.051"
         style="fill:#7d808d;fill-opacity:1;fill-rule:nonzero;stroke:none"
         id="path124" /><path
         d="m 8413.07,1160.65 c -2.49,5.5 -4.91,11.08 -7.26,16.74 -84.37,212.9 -24.71,635.03 255.47,635.03 12.32,0 25.04,-0.81 38.22,-2.49 130.78,-17.79 278.32,-82.14 401.96,-168.7 -17.41,-8.8 -33.18,-17.09 -46.82,-24.84 -93.62,-67.69 -190.56,-142.95 -289.54,-216.89 -83.36,84.18 -149.9,169.61 -187.92,252.68 l -9.04,-4.11 c 38.32,-83.72 105.27,-169.75 189.06,-254.46 -112.77,-84.06 -228.12,-166.09 -344.13,-232.96"
         style="fill:#853846;fill-opacity:1;fill-rule:nonzero;stroke:none"
         id="path126" /><path
         d="m 10386.4,1210.83 c -91.3,0 -155.7,21.28 -169.2,73.7 189.2,34.97 502.2,127.09 1020.2,335.9 v -143 c -174,-115.93 -607.9,-266.6 -851,-266.6 m -171.1,83.35 c -0.3,2.03 -0.5,4.11 -0.6,6.22 l -1.2,11.01 c 72.1,111.06 120,199.23 237.9,261.93 92.5,50.83 234.2,62.65 335,78.71 80.1,20.98 274.4,73.7 411.4,73.7 13.8,0 27.1,-0.54 39.6,-1.7 v -92.93 c -520.2,-209.87 -833.5,-302.13 -1022.1,-336.94"
         style="fill:#7d808d;fill-opacity:1;fill-rule:nonzero;stroke:none"
         id="path128" /><path
         d="m 9785.92,1382.07 c -123.01,0.01 -234.01,89.99 -297.83,214.63 -31.44,67.47 -50.81,137.89 -74.26,208.48 74.98,47.78 137.34,100.47 162.1,156.73 1.44,3.26 2.78,6.76 4.03,10.47 110.52,-177.33 198.07,-345.3 199.69,-348.44 46.73,-100.22 90.89,-166.97 128.92,-211.42 -41.36,-20.94 -82.63,-30.46 -122.65,-30.45 m 132.03,35.39 c -37.89,43.64 -82.36,109.99 -129.38,210.86 -1.72,3.29 -91.83,176.17 -204.9,356.73 13.39,52.77 12.71,138.93 5.04,239.13 31.27,-36.97 57.24,-69.66 74.33,-89.07 173.76,-190.03 393.26,-428.45 260.02,-707.36 l -3.4,-9.34 c -0.57,-0.32 -1.14,-0.63 -1.71,-0.95"
         style="fill:#7d808d;fill-opacity:1;fill-rule:nonzero;stroke:none"
         id="path130" /><path
         d="m 9413.83,1805.18 c -16.34,49.2 -34.66,98.5 -60.42,146.92 -56.75,105.17 -203.4,253.65 -155.82,384.21 24.93,76.01 62.75,105.23 106.56,105.23 89.74,0 204.53,-122.72 284.56,-217.36 7.67,-100.2 8.35,-186.36 -5.04,-239.13 -95.49,152.47 -207.34,310.42 -296.21,376.41 l -5.92,-7.94 c 89.31,-66.33 202.52,-227.26 298.42,-381.14 -1.25,-3.71 -2.59,-7.21 -4.03,-10.47 -24.76,-56.26 -87.12,-108.95 -162.1,-156.73"
         style="fill:#853846;fill-opacity:1;fill-rule:nonzero;stroke:none"
         id="path132" /><path
         d="m 10458.1,1796.35 c -47.4,0 -93.1,9.18 -147.3,28.91 0,0.24 0,0.47 -0.1,0.71 223.5,69.77 707,177.7 712.8,179.01 l -2.2,9.67 c -23.5,-5.24 -493,-110.05 -713.9,-179.26 -6.7,11.34 -17.6,13.98 14.5,49.26 l 12.7,5.93 c 43.4,14.66 468,170.74 654.3,170.74 72,0 108.4,-23.3 73.3,-87.12 -39.9,-80.57 -352,-125.39 -434.3,-148.24 -66.9,-19.2 -119.3,-29.61 -169.8,-29.61"
         style="fill:#7d808d;fill-opacity:1;fill-rule:nonzero;stroke:none"
         id="path134" /><path
         d="m 10146.6,1895.7 c -88.9,0 -329.45,281.44 -351.21,370.82 -9.15,79.51 10.21,121.95 53.79,121.95 28.92,0 68.51,-18.67 117.54,-57.61 113.58,-94.18 165.28,-271.44 211.88,-404.6 l -1.7,-4.67 c -1.6,-5.86 -3.7,-10.64 -6.4,-14.43 -21.9,38.83 -48.1,83.4 -74.9,126.75 -67.1,108.32 -162.42,248.98 -235.69,303.95 l -5.97,-7.93 c 94.36,-70.8 232.46,-295 308.56,-430.22 -4.5,-2.72 -9.8,-4.01 -15.9,-4.01"
         style="fill:#7d808d;fill-opacity:1;fill-rule:nonzero;stroke:none"
         id="path136" /><path
         d="m 10375.6,2073.1 c -10.4,0 -20.2,0.85 -29.4,2.5 119.5,332.57 120.1,537.44 120,540.02 l -9.9,-0.04 c 0,-2.59 -0.6,-206.43 -120,-537.89 -100.4,25.09 -133,150.09 -142.3,297.17 -9.2,119.61 6.2,452.01 148.6,495.19 9.3,2.26 18.6,3.34 27.7,3.34 161.9,0 297.1,-339.1 314.8,-455.53 23.6,-167.06 -124,-282.31 -282.6,-340.77 l -6.4,-2.94 c -7.1,-0.71 -13.9,-1.05 -20.5,-1.05"
         style="fill:#7d808d;fill-opacity:1;fill-rule:nonzero;stroke:none"
         id="path138" /><path
         d="m 10523.4,0 h -192.1 c -59.6,52.8203 -117.3,109.832 -158.1,163.219 -6.7,7.453 -105.8,118.019 -210.25,205.222 9.12,5.668 20.77,8.829 35.4,8.829 12.95,0 28.35,-2.489 46.35,-7.93 l 9.3,-3.399 C 10236.6,268.262 10385.5,162.422 10523.4,0 m -207.1,0 h -267.5 c -25.4,36.6016 -47,75.6211 -64.47,116.641 -30.61,65.699 -76.39,200.16 -29.59,245.398 106.46,-88.738 209.16,-203.328 210.86,-205.117 39.2,-51.301 93.8,-105.8829 150.7,-156.922"
         style="fill:#7d808d;fill-opacity:1;fill-rule:nonzero;stroke:none"
         id="path140" /><path
         d="m 9224.13,307.801 c -19.35,0 -38.46,0.34 -57.22,0.859 -9.42,-0.301 -20.06,-0.48 -31.49,-0.48 -118.2,0 -323.71,19.871 -199.93,148.152 43.94,50.488 218.32,78.258 382.15,78.258 141.99,0 276.05,-20.852 310.57,-65.809 -50.49,7.418 -103.02,10.489 -155.43,10.489 -252.56,0 -502.08,-71.411 -505.62,-72.43 l 2.73,-9.527 c 3.57,1.007 251.98,71.996 502.81,71.996 54.63,0 109.39,-3.368 161.75,-11.559 2.77,-7.359 3.1,-15.289 0.68,-23.781 -113.58,-107.477 -268.5,-126.168 -411,-126.168"
         style="fill:#7d808d;fill-opacity:1;fill-rule:nonzero;stroke:none"
         id="path142" /><path
         d="m 10050,1266.14 c -9.2,0.01 -17.7,0.26 -25.6,0.74 l 0.1,1.76 c 1,2.67 2,5.36 2.9,8.02 7.1,-0.38 14.8,-0.59 23,-0.59 40.1,0 93.6,4.95 164.9,18.11 188.6,34.81 501.9,127.07 1022.1,336.94 v -10.69 c -518,-208.81 -831,-300.93 -1020.2,-335.9 -72.3,-13.36 -126.5,-18.39 -167.2,-18.39"
         style="fill:#aed2dd;fill-opacity:1;fill-rule:nonzero;stroke:none"
         id="path144" /><path
         d="m 10034,1323.99 c -2.4,0.18 -8.9,1.04 -18.9,4.68 -21.53,7.83 -59.31,28.64 -106.53,83.85 -38.03,44.45 -82.19,111.2 -128.92,211.42 -1.62,3.14 -89.17,171.11 -199.69,348.44 1.34,3.98 2.57,8.2 3.71,12.67 113.07,-180.56 203.18,-353.44 204.9,-356.73 47.02,-100.87 91.49,-167.22 129.38,-210.86 69.24,-79.74 116.55,-83.58 117.25,-83.61 l -0.3,-7.32 c -0.3,-0.85 -0.6,-1.69 -0.9,-2.54"
         style="fill:#aed2dd;fill-opacity:1;fill-rule:nonzero;stroke:none"
         id="path146" /><path
         d="m 9579.96,1972.38 c -95.9,153.88 -209.11,314.81 -298.42,381.14 l 5.92,7.94 c 88.87,-65.99 200.72,-223.94 296.21,-376.41 -1.14,-4.47 -2.37,-8.69 -3.71,-12.67"
         style="fill:#af8897;fill-opacity:1;fill-rule:nonzero;stroke:none"
         id="path148" /><path
         d="m 10216.9,1794.19 -3.3,6.74 c 0.4,0.19 0.7,0.37 1.1,0.56 1.3,-2.78 2.2,-4.9 2.7,-6.31 -0.2,-0.34 -0.3,-0.65 -0.5,-0.99 m 12.5,3.1 c 2.1,4.46 4.3,8.93 6.4,13.37 18.7,7.45 43.1,15.79 71.6,24.73 220.9,69.21 690.4,174.02 713.9,179.26 l 2.2,-9.67 c -5.8,-1.31 -489.3,-109.24 -712.8,-179.01 -34,-10.62 -61.9,-20.34 -81.3,-28.68"
         style="fill:#aed2dd;fill-opacity:1;fill-rule:nonzero;stroke:none"
         id="path150" /><path
         d="m 10227.8,1793.83 c 0,0.03 0,0 0,0.03 0,-0.01 0,-0.02 0,-0.03 v 0 m -10.4,1.35 c -0.5,1.41 -1.4,3.53 -2.7,6.31 -7.1,15.53 -26,51.59 -52.2,98.22 -76.1,135.22 -214.2,359.42 -308.56,430.22 l 5.97,7.93 c 73.27,-54.97 168.59,-195.63 235.69,-303.95 26.8,-43.35 53,-87.92 74.9,-126.75 24.9,-44.19 44.2,-80.94 52.6,-100.03 -1.8,-3.95 -3.8,-7.98 -5.7,-11.95"
         style="fill:#aed2dd;fill-opacity:1;fill-rule:nonzero;stroke:none"
         id="path152" /><path
         d="m 9716.53,0 h -9.99 c 14.32,133.629 43.99,295.16 69.26,419.789 0.52,-0.207 1.04,-0.43 1.57,-0.648 l 3.78,9.148 c -1.12,0.473 -2.22,0.922 -3.34,1.383 22.33,109.469 40.73,188.18 41.17,190.078 3.24,16.18 6.81,32.832 10.69,49.93 0.73,-0.371 1.18,-0.59 1.35,-0.668 l 4.4,8.859 c -0.3,0.16 -1.47,0.738 -3.47,1.738 44.45,191.911 126.04,435.401 202.05,644.381 0.3,0.85 0.6,1.69 0.9,2.54 90.4,248.65 172.7,447.81 174.3,451.77 2.6,5.33 5.2,10.61 7.7,15.89 0.2,0.34 0.3,0.65 0.5,0.99 1.9,3.97 3.9,8 5.7,11.95 46.4,97.36 83.5,187.92 113.2,270.56 119.4,331.46 120,535.3 120,537.89 l 9.9,0.04 c 0.1,-2.58 -0.5,-207.45 -120,-540.02 -29.2,-81.09 -65.4,-169.75 -110.4,-264.94 -2.1,-4.44 -4.3,-8.91 -6.4,-13.37 -0.5,-1.13 -1.1,-2.3 -1.6,-3.43 0,-0.03 0,0 0,-0.03 -3.2,-6.49 -6.3,-13.03 -9.5,-19.58 -1.7,-4.06 -94.2,-228.02 -190.9,-497.59 -0.9,-2.66 -1.9,-5.35 -2.9,-8.02 -65.94,-184.44 -133.51,-389.269 -175.19,-559.23 -0.8,-3.269 -1.59,-6.512 -2.37,-9.75 -6.87,-28.461 -12.98,-55.898 -18.21,-82.039 -0.41,-1.691 -14.15,-60.402 -32.22,-146.609 -1.9,0.48 -3.79,0.898 -5.65,1.269 l -1.94,-9.75 c 1.82,-0.359 3.68,-0.781 5.55,-1.25 C 9767.75,333.102 9732.57,149.141 9716.53,0"
         style="fill:#aed2dd;fill-opacity:1;fill-rule:nonzero;stroke:none"
         id="path154" /><path
         d="m 9831.02,669.012 c -0.17,0.078 -0.62,0.297 -1.35,0.668 -9.16,4.57 -61.63,31 -140.62,74.019 -224.71,122.41 -664.12,379.261 -931.85,649.911 2.63,1.96 5.28,3.93 7.9,5.89 264.41,-267 697.66,-521.008 923.32,-644.18 76.95,-42 129.77,-68.789 143.53,-75.711 2,-1 3.17,-1.578 3.47,-1.738 l -4.4,-8.859"
         style="fill:#aed2dd;fill-opacity:1;fill-rule:nonzero;stroke:none"
         id="path156" /><path
         d="m 8757.2,1393.61 c -83.79,84.71 -150.74,170.74 -189.06,254.46 l 9.04,4.11 c 38.02,-83.07 104.56,-168.5 187.92,-252.68 -2.62,-1.96 -5.27,-3.93 -7.9,-5.89"
         style="fill:#af8897;fill-opacity:1;fill-rule:nonzero;stroke:none"
         id="path158" /><path
         d="m 10331.3,0 h -15 c -56.9,51.0391 -111.5,105.621 -150.7,156.922 -1.7,1.789 -104.4,116.379 -210.86,205.117 -57.4,47.82 -115.9,88.141 -160.27,99.242 -1.87,0.469 -3.73,0.891 -5.55,1.25 l 1.94,9.75 c 1.86,-0.371 3.75,-0.789 5.65,-1.269 46.75,-11.571 107.44,-53.34 166.44,-102.571 104.45,-87.203 203.55,-197.769 210.25,-205.222 C 10214,109.832 10271.7,52.8203 10331.3,0"
         style="fill:#aed2dd;fill-opacity:1;fill-rule:nonzero;stroke:none"
         id="path160" /><path
         d="m 8969.89,397.313 -2.73,9.527 c 3.54,1.019 253.06,72.43 505.62,72.43 52.41,0 104.94,-3.071 155.43,-10.489 52.92,-7.781 103.66,-20.34 149.6,-39.109 1.12,-0.461 2.22,-0.91 3.34,-1.383 l -3.78,-9.148 c -0.53,0.218 -1.05,0.441 -1.57,0.648 -43.49,17.91 -91.32,30.141 -141.35,37.961 -52.36,8.191 -107.12,11.559 -161.75,11.559 -250.83,0 -499.24,-70.989 -502.81,-71.996"
         style="fill:#aed2dd;fill-opacity:1;fill-rule:nonzero;stroke:none"
         id="path162" /><path
         d="m 8021.44,0 h -134.77 c 64.24,301.031 32.42,707.582 -14.64,1035.47 20.07,-0.58 40.05,-0.92 59.92,-0.92 99.39,0 196.11,8.38 288.79,36.49 55.8,-87.31 102.11,-169.22 101.52,-291.458 0.7,-118.91 -59.97,-270.352 -109.25,-382.434 C 8164.28,285.059 8117.83,93.6211 8021.44,0 m -144.88,0 h -155.15 c -26.43,41.3594 -42.45,101.102 -43.15,180.801 l -1.49,18.211 c 6.12,124.98 -143.81,189.347 -137.67,314.347 5.28,90.102 32.63,180.192 31.91,277.172 0.02,88.141 -1.77,174.649 -0.1,260.449 45.77,-1.76 91.35,-4.5 136.63,-7.24 51.96,-3.15 103.52,-6.29 154.48,-7.96 C 7909.23,707.621 7941.29,300.27 7876.56,0"
         style="fill:#7d808d;fill-opacity:1;fill-rule:nonzero;stroke:none"
         id="path164" /><path
         d="m 7931.95,1034.55 c -19.87,0 -39.85,0.34 -59.92,0.92 -45.31,315.76 -104.75,558.6 -106.1,564.1 l -9.63,-2.37 c 1.36,-5.48 60.5,-247.12 105.72,-561.42 -50.96,1.67 -102.52,4.81 -154.48,7.96 -45.28,2.74 -90.86,5.48 -136.63,7.24 2.89,149.35 16.24,296.5 67.76,446.05 35.1,101.2 79.92,140.66 128.65,140.66 148.18,0 332.64,-364.66 390.72,-467.3 20.96,-35.28 42.45,-67.67 62.7,-99.35 -92.68,-28.11 -189.4,-36.49 -288.79,-36.49"
         style="fill:#853846;fill-opacity:1;fill-rule:nonzero;stroke:none"
         id="path166" /><path
         d="m 7886.67,0 h -10.11 c 64.73,300.27 32.67,707.621 -14.54,1035.78 3.34,-0.11 6.68,-0.22 10.01,-0.31 C 7919.09,707.582 7950.91,301.031 7886.67,0"
         style="fill:#aed2dd;fill-opacity:1;fill-rule:nonzero;stroke:none"
         id="path168" /><path
         d="m 7872.03,1035.47 c -3.33,0.09 -6.67,0.2 -10.01,0.31 -45.22,314.3 -104.36,555.94 -105.72,561.42 l 9.63,2.37 c 1.35,-5.5 60.79,-248.34 106.1,-564.1"
         style="fill:#af8897;fill-opacity:1;fill-rule:nonzero;stroke:none"
         id="path170" /><path
         d="m 7228.76,202.379 c -85.16,59.23 -156.75,103.191 -212.1,177.051 71.5,8.281 134.62,16.879 188.79,25.769 19.09,-79.461 32.13,-145.918 40.58,-201.519 -2.04,-0.2 -4.12,-0.34 -6.23,-0.399 l -11.04,-0.902 m 26.98,2.851 c -8.48,55.719 -21.53,122.231 -40.57,201.579 46.89,7.882 86.64,15.953 118.91,24.23 6.07,-122.207 -14.77,-211.559 -78.34,-225.809 m 67.72,332.168 c -39.85,9.684 -90.01,19.102 -149.81,28.211 -32.32,115.282 -74.62,251.121 -129.35,411 50.83,14.313 101.48,27.541 151.77,39.301 55.89,-147.109 105.63,-326.051 127.39,-478.512 m -160.49,29.821 c -66.51,9.922 -144.3,19.453 -232.54,28.562 -11.48,65.809 -16.9,134.141 -23.99,190.098 -7.34,32.133 -19.14,82.519 -30.41,140.223 52.94,16.726 105.95,32.839 158.73,47.82 54.13,-158.063 96.06,-292.453 128.21,-406.703"
         style="fill:#7d808d;fill-opacity:1;fill-rule:nonzero;stroke:none"
         id="path172" /><path
         d="m 6876.03,926.102 c -34.31,175.618 -63.67,418.708 52.79,418.708 27.49,0 63.1,-13.54 108.7,-44.71 45.67,-31.21 104.94,-143.06 158.55,-284.19 -50.29,-11.76 -100.94,-24.988 -151.77,-39.301 -29.17,85.211 -61.86,177.221 -98.48,276.671 -8.09,21.96 -13.44,36.49 -14.11,38.93 l -9.57,-2.54 c 0.76,-2.79 4.93,-14.24 14.38,-39.84 36.52,-99.18 69.14,-190.96 98.24,-275.908 -52.78,-14.981 -105.79,-31.094 -158.73,-47.82"
         style="fill:#853846;fill-opacity:1;fill-rule:nonzero;stroke:none"
         id="path174" /><path
         d="m 6693.45,306 c -6.52,0 -15.9,5.16 -34.21,22.891 l -5.52,12.898 c -0.29,0.992 -0.66,2.172 -1.09,3.539 15.42,1.192 30.63,2.383 45.65,3.594 3.31,-12.602 6.57,-24.68 9.74,-36.063 -5.37,-2.949 -8.89,-6.859 -14.57,-6.859 m 24.09,9.898 c -2.97,10.711 -6.02,22.043 -9.12,33.844 7.71,0.617 15.3,1.25 22.89,1.879 -3.8,-11.539 -8.14,-23.383 -13.05,-35.652 -0.24,-0.02 -0.48,-0.039 -0.72,-0.071 m 14.7,298.192 c -28.32,2.351 -57.39,4.672 -87.17,6.949 -16.14,74.68 -31.56,149.25 -44.67,214.07 27.62,9.293 55.34,18.629 83.13,27.95 20.6,-92.668 34.11,-189.278 44.06,-230.098 1.63,-6.422 3.17,-12.699 4.65,-18.871 m -97.67,7.75 c -21.36,1.609 -43.18,3.219 -65.27,4.801 -16.06,60.269 -31.5,123.668 -43.38,183.488 21.57,7.203 43.18,14.461 64.9,21.762 12.86,-63.731 27.94,-136.77 43.75,-210.051"
         style="fill:#7d808d;fill-opacity:1;fill-rule:nonzero;stroke:none"
         id="path176" /><path
         d="m 6525.92,810.129 c -29.66,149.383 -37.03,276.421 24.1,276.421 11.76,0 26.03,-4.69 43.18,-14.82 40.26,-21.55 69.07,-113.019 90.33,-208.671 -27.79,-9.321 -55.51,-18.657 -83.13,-27.95 -22.87,113.082 -38.73,196.461 -39.19,198.841 l -9.74,-1.82 c 1.8,-9.5 17.35,-91.298 39.35,-200.239 -21.72,-7.301 -43.33,-14.559 -64.9,-21.762"
         style="fill:#853846;fill-opacity:1;fill-rule:nonzero;stroke:none"
         id="path178" /><path
         d="m 6531.17,0 h -182.1 c 94.42,63.8906 208.3,127.449 290.06,170.102 C 6657.1,138.031 6604.17,68.9219 6531.17,0 m -200.18,0 h -117.88 c 99.7,102 270.38,146.191 400,187 l 4.62,-1.879 c 5.8,-1.699 10.51,-4 14.21,-6.84 -39.5,-20.629 -84.88,-45.371 -129.05,-70.82 C 6448.87,76.3398 6386.91,38.7109 6330.99,0"
         style="fill:#7d808d;fill-opacity:1;fill-rule:nonzero;stroke:none"
         id="path180" /><path
         d="m 6133.21,215.992 c -101.9,0 -283.18,17.637 -385.72,79.938 262.26,9.968 501.76,22.019 712.87,35.781 -37.65,-85.289 -157.02,-110.699 -295.13,-115.051 -9.44,-0.43 -20.2,-0.668 -32.02,-0.668 m 199.95,425.969 c -115.14,6.777 -237.62,13.078 -366.65,18.848 10.52,4.082 20.94,7.929 31.19,11.543 57.17,11.988 114.1,24.648 170.5,37.976 64.09,-0.777 119.06,-26.957 164.96,-68.367"
         style="fill:#7d808d;fill-opacity:1;fill-rule:nonzero;stroke:none"
         id="path182" /><path
         d="m 5997.7,672.352 c 56.26,19.847 107.16,32.546 140.11,36.48 9.31,1.02 18.47,1.52 27.43,1.52 0.98,0 1.98,-0.012 2.96,-0.024 C 6111.8,697 6054.87,684.34 5997.7,672.352"
         style="fill:#853846;fill-opacity:1;fill-rule:nonzero;stroke:none"
         id="path184" /><path
         d="m 8540.03,0 h -287.9 c 67.68,66.3594 127.71,116.832 129.02,117.93 170.79,122.222 381.32,406.09 383.45,408.949 l -8,5.871 C 8754.5,529.941 8544.86,247.332 8375.09,125.762 8369.46,121.051 8306.51,68.1211 8237.6,0 h -73.86 c 0.41,1.26953 0.83,2.55078 1.26,3.83984 l 3.7,9.21096 c 105.16,182.4182 217.66,329.8202 389.15,464.3402 80.74,69.011 161.85,111.75 218.04,111.75 68.28,0 99.76,-63.071 49.14,-218.77 C 8772.49,218.539 8670.74,86.3906 8540.03,0"
         style="fill:#7d808d;fill-opacity:1;fill-rule:nonzero;stroke:none"
         id="path186" /><path
         d="m 7267.28,12.0508 -1.77,0.168 c -2.65,1.0429 -5.29,2.082 -7.92,3.121 3.6,41.879 1.56,102.0002 -11.56,188.3402 -8.45,55.601 -21.49,122.058 -40.58,201.519 3.25,0.531 6.53,1.071 9.72,1.61 19.04,-79.348 32.09,-145.86 40.57,-201.579 13.57,-89.121 15.47,-150.6675 11.54,-193.1792 m -93.63,553.5582 c -3.5,0.539 -7.11,1.082 -10.68,1.61 -32.15,114.25 -74.08,248.64 -128.21,406.703 3.18,0.898 6.36,1.797 9.54,2.687 54.73,-159.879 97.03,-295.718 129.35,-411"
         style="fill:#aed2dd;fill-opacity:1;fill-rule:nonzero;stroke:none"
         id="path188" /><path
         d="m 7034.76,973.922 c -29.1,84.948 -61.72,176.728 -98.24,275.908 -9.45,25.6 -13.62,37.05 -14.38,39.84 l 9.57,2.54 c 0.67,-2.44 6.02,-16.97 14.11,-38.93 36.62,-99.45 69.31,-191.46 98.48,-276.671 -3.18,-0.89 -6.36,-1.789 -9.54,-2.687"
         style="fill:#af8897;fill-opacity:1;fill-rule:nonzero;stroke:none"
         id="path190" /><path
         d="m 7203.23,0 h -11.41 c 7.82,15.5703 8.84,24.6094 8.86,24.9297 l 7.31,-0.5508 c 0.84,-0.3398 1.66,-0.668 2.51,-1 -0.27,-2.3281 -1.32,-8.7969 -5.27,-18.66796 -0.6,-1.49219 -1.26,-3.0586 -2,-4.71094"
         style="fill:#aed2dd;fill-opacity:1;fill-rule:nonzero;stroke:none"
         id="path192" /><path
         d="m 6739.49,218.031 c -0.18,0.379 -0.35,0.77 -0.53,1.16 2.82,1.18 4.97,2.02 6.39,2.469 0.33,-0.168 0.65,-0.328 0.98,-0.508 l -6.84,-3.121 m 4.13,15.699 c -4.39,2.282 -8.79,4.54 -13.15,6.782 -6.86,18.957 -14.42,43.566 -22.45,72.347 -3.17,11.383 -6.43,23.461 -9.74,36.063 3.37,0.269 6.8,0.547 10.14,0.82 3.1,-11.801 6.15,-23.133 9.12,-33.844 9.53,-34.296 18.36,-62.546 26.08,-82.168 m -98.55,387.309 c -3.47,0.262 -7.01,0.531 -10.5,0.801 -15.81,73.281 -30.89,146.32 -43.75,210.051 3.18,1.07 6.4,2.148 9.58,3.218 13.11,-64.82 28.53,-139.39 44.67,-214.07"
         style="fill:#aed2dd;fill-opacity:1;fill-rule:nonzero;stroke:none"
         id="path194" /><path
         d="m 6590.82,831.891 c -22,108.941 -37.55,190.739 -39.35,200.239 l 9.74,1.82 c 0.46,-2.38 16.32,-85.759 39.19,-198.841 -3.18,-1.07 -6.4,-2.148 -9.58,-3.218"
         style="fill:#af8897;fill-opacity:1;fill-rule:nonzero;stroke:none"
         id="path196" /><path
         d="m 6349.07,0 h -18.08 c 55.92,38.7109 117.88,76.3398 171.9,107.461 44.17,25.449 89.55,50.191 129.05,70.82 44.96,23.481 82.31,41.641 101.65,49.469 3.89,-2 7.86,-4.051 11.76,-6.09 -1.42,-0.449 -3.57,-1.289 -6.39,-2.469 -15.74,-6.64 -52.39,-24.351 -99.83,-49.089 C 6557.37,127.449 6443.49,63.8906 6349.07,0"
         style="fill:#aed2dd;fill-opacity:1;fill-rule:nonzero;stroke:none"
         id="path198" /><path
         d="m 7296.66,0 h -27.21 c -19.92,7.83203 -39.57,15.6289 -58.95,23.3789 -0.85,0.332 -1.67,0.6602 -2.51,1 -245.66,98.2811 -442.11,186.7811 -446.02,188.5701 -5.24,2.77 -10.44,5.492 -15.64,8.203 -0.33,0.18 -0.65,0.34 -0.98,0.508 -3.9,2.039 -7.87,4.09 -11.76,6.09 -81.64,42.09 -158.5,77.309 -229.99,106.832 7.45,0.5 14.81,1.008 22.18,1.508 64.2,-27.051 132.59,-58.649 204.69,-95.578 4.36,-2.242 8.76,-4.5 13.15,-6.782 7.53,-3.898 15.08,-7.851 22.68,-11.859 4.01,-1.832 224.92,-101.34 491.29,-206.5312 2.63,-1.039 5.27,-2.0781 7.92,-3.121 10.33,-4.06646 20.7,-8.13677 31.15,-12.2188"
         style="fill:#aed2dd;fill-opacity:1;fill-rule:nonzero;stroke:none"
         id="path200" /><path
         d="m 8252.13,0 h -14.53 c 68.91,68.1211 131.86,121.051 137.49,125.762 169.77,121.57 379.41,404.179 381.51,406.988 l 8,-5.871 C 8762.47,524.02 8551.94,240.152 8381.15,117.93 8379.84,116.832 8319.81,66.3594 8252.13,0"
         style="fill:#aed2dd;fill-opacity:1;fill-rule:nonzero;stroke:none"
         id="path202" /><path
         d="m 11237.4,4165.97 c -22.7,2.2 -44.1,7.02 -63.7,15.15 -40.8,16.2 -74.3,37.93 -98.5,63.78 53.1,21.08 107.3,47.98 162.2,79.44 v -158.37 m -169.2,86.82 c -64.3,76.85 -50.1,186.9 90.6,297 l 13.5,12.26 c 33.7,23.37 52,56.05 65.1,91.93 v -318.26 c -57.3,-33.1 -113.9,-61.22 -169.2,-82.93"
         style="fill:#7d808d;fill-opacity:1;fill-rule:nonzero;stroke:none"
         id="path204" /><path
         d="m 10961.7,4208.68 c -1.2,3.09 -2.5,6.18 -3.7,9.3 35.9,8.33 72.8,20.1 110.2,34.81 55.3,21.71 111.9,49.83 169.2,82.93 v -11.38 c -54.9,-31.46 -109.1,-58.36 -162.2,-79.44 -28.1,-11.19 -56,-20.74 -83.3,-28.44 -10.1,-2.85 -20.2,-5.45 -30.2,-7.78"
         style="fill:#aed2dd;fill-opacity:1;fill-rule:nonzero;stroke:none"
         id="path206" /><path
         d="m 9804.63,3673.83 c -98.39,0 -196.67,22.15 -291.72,81.01 -201.3,128.96 -408.36,534.69 -131.02,684.97 120.06,63.81 283.42,97.9 438.44,97.9 111.38,0 218.47,-17.59 302.17,-54.4 126.6,-46.85 194.6,-68.95 325.4,-93.96 140.4,-22.37 172.9,-64.74 281.7,-157.91 l 17.6,-25.96 c 23.1,-14.89 40.7,-29.63 53.4,-44.19 -163.7,-20.4 -428.1,-46.98 -694.4,-46.99 -279.86,-0.01 -561.79,29.33 -731.47,126.03 l -4.94,-8.62 c 171.28,-97.59 455.57,-127.16 737.11,-127.17 270.1,-0.01 537.7,27.2 701,47.69 120.9,-163.8 -364.6,-301.43 -465.8,-339.23 -165.2,-60.01 -351.51,-139.17 -537.47,-139.17"
         style="fill:#7d808d;fill-opacity:1;fill-rule:nonzero;stroke:none"
         id="path208" /><path
         d="m 10970.2,4882.51 c -18.8,0 -35.5,5.43 -49.5,17.15 79.4,82.87 182.8,208.05 316.7,395.73 v -234.5 c -100.2,-104.85 -198,-178.38 -267.2,-178.38 m -56.7,23.91 c -1.4,1.48 -2.7,3.05 -4.1,4.69 l -7.4,8.2 c -6.3,132.29 -18.9,231.86 40.2,351.61 45.4,95.28 153.4,187.59 226,259.55 16.6,20.11 40.6,49.43 69.2,82.65 V 5312.4 c -137.6,-193.83 -243.2,-321.92 -323.9,-405.98"
         style="fill:#7d808d;fill-opacity:1;fill-rule:nonzero;stroke:none"
         id="path210" /><path
         d="m 10345.4,4676.17 c -3.2,0 -6.4,0.04 -9.7,0.13 v 258.99 c 19.5,-9.54 30.8,-15.22 31.6,-15.62 96.5,-54.06 171.3,-82.46 228.1,-96.34 -53.1,-102.43 -147.2,-147.17 -250,-147.16 m 254.8,156.66 c -56.3,13.29 -131.1,41.18 -228.2,95.6 -0.9,0.45 -13.9,7 -36.3,17.9 v 193.06 h -3.1 v 23.78 c 130.6,-60.62 236.2,-155.18 265.7,-319.01 l 2.7,-9.56 c -0.3,-0.6 -0.6,-1.18 -0.8,-1.77"
         style="fill:#7d808d;fill-opacity:1;fill-rule:nonzero;stroke:none"
         id="path212" /><path
         d="m 9631.34,5061.5 h -18.32 v 151.19 c 6.01,-1.08 12.11,-2.25 18.32,-3.52 V 5061.5 m 288.92,54.98 h -29.13 v 12.97 c 9.72,-3.65 19.42,-7.34 29.13,-11.09 v -1.88 m 356.34,5.74 h -31.6 v 28.62 h -53.3 v 55.01 h -64.1 v -55.01 h -5.8 v -25.19 h -60.8 v 13.74 h -24.2 v 20.62 h -24.1 v 69.88 h -61.63 v -43.52 h -30.81 v -57.47 c -9.7,3.73 -19.43,7.42 -29.13,11.05 v 72.77 h -29.14 v 82.62 c 46.88,-11.73 86.97,-23.08 112.15,-28.84 98.66,-20.65 207.26,-43.22 306.16,-81.27 h -3.7 v -63.01 m 56,17.17 h -21 v 33.15 c 7.1,-3.03 14.1,-6.15 21,-9.37 v -23.78 m -701.26,79.84 c -6.2,1.25 -12.31,2.42 -18.32,3.49 v 110.59 c 2.6,0.05 5.2,0.07 7.84,0.07 3.46,0 6.96,-0.04 10.48,-0.12 v -114.03"
         style="fill:#7d808d;fill-opacity:1;fill-rule:nonzero;stroke:none"
         id="path214" /><path
         d="m 10335.7,4676.3 c -62.6,1.68 -128,19.63 -189.1,50.97 -110.2,61.79 -197.17,150.76 -316.94,209.85 -107.48,52.22 -313.23,87.1 -350.87,220.87 -42.12,132.98 30.69,173.43 134.23,175.32 v -110.59 c -27.82,4.95 -53.4,7.84 -75.95,8.18 l -0.18,-9.92 c 22.56,-0.34 48.2,-3.27 76.13,-8.29 V 5061.5 h 18.32 v 147.67 c 76.45,-15.63 167.86,-45.22 259.79,-79.72 v -12.97 h 29.13 v 1.88 c 175.04,-67.5 346.64,-149.36 415.44,-183.07 V 4676.3 m 0,270.03 c -72.3,35.27 -242.3,116.05 -415.44,182.57 v 57.47 h 30.81 v 43.52 h 61.63 v -69.88 h 24.1 v -20.62 h 24.2 v -13.74 h 60.8 v 25.19 h 5.8 v 55.01 h 64.1 v -55.01 h 53.3 v -28.62 h 31.6 v 63.01 h 3.7 c 10.6,-4.05 21,-8.28 31.3,-12.69 v -33.15 h 21 3.1 v -193.06 m -444.57,193.62 c -91.96,34.38 -183.27,63.78 -259.79,79.28 v 114.03 c 73.8,-1.66 159.97,-20.23 230.65,-37.92 v -82.62 h 29.14 v -72.77"
         style="fill:#5d5e85;fill-opacity:1;fill-rule:nonzero;stroke:none"
         id="path216" /><path
         d="m 10680.9,5393.29 c -0.2,0.18 -0.3,0.35 -0.5,0.52 140.7,187.15 470.1,557.15 474,561.56 l -7.3,6.61 c -16.1,-17.99 -336,-377.29 -474.9,-562.48 -12.1,5.3 -22.4,1.09 -17,48.45 l 6.8,12.24 c 31.3,43.64 373.8,550.19 498.5,550.19 22.9,0 38.5,-17.1 43.4,-57.35 14.6,-88.71 -212.5,-307.36 -266,-373.96 -83.5,-105.99 -142.4,-153.49 -257,-185.78"
         style="fill:#7d808d;fill-opacity:1;fill-rule:nonzero;stroke:none"
         id="path218" /><path
         d="m 10426.9,5338.82 c -27.8,0 -60.1,2.84 -94.3,7.77 v 100.1 c 67.8,-26.94 132.9,-55.66 184.4,-79.58 -8.6,-20.09 -42.9,-28.29 -90.1,-28.29 m 92.3,38.98 c -40.5,18.75 -87.7,39.64 -134.9,59.17 -16.5,6.84 -33.8,13.89 -51.7,20.93 v 63.04 c 65.4,-38.62 127.1,-84.46 182,-122.89 l 1.3,-4.81 c 2.2,-5.64 3.2,-10.77 3.3,-15.44"
         style="fill:#7d808d;fill-opacity:1;fill-rule:nonzero;stroke:none"
         id="path220" /><path
         d="m 10332.6,5346.59 c -128.8,18.54 -284.3,66.64 -327.8,103.86 -84.67,93.1 -58.63,152.91 76.8,152.91 7.9,0 16.1,-0.2 24.7,-0.61 77.3,-5.3 154,-39.15 226.3,-81.81 v -63.04 c -109.4,43.14 -238.4,86.58 -317.1,88.16 l -0.2,-9.92 c 74.8,-1.5 199.9,-42.79 317.3,-89.45 v -100.1"
         style="fill:#7d808d;fill-opacity:1;fill-rule:nonzero;stroke:none"
         id="path222" /><path
         d="m 10505.2,5603.62 c -57.6,0 -115.8,37.2 -172.6,92.96 v 582.3 c 125.3,-44.03 256.5,-135.29 306,-185.96 116.8,-121.81 64.3,-301.58 -30.3,-441.65 l -3.5,-6.13 c -13.7,-12.09 -27.5,-21.34 -41.4,-28 -97.2,339.79 -216.4,506.41 -217.9,508.48 l -8,-5.82 c 1.5,-2.1 120,-167.93 216.7,-506.69 -16.2,-6.47 -32.6,-9.49 -49,-9.49"
         style="fill:#7d808d;fill-opacity:1;fill-rule:nonzero;stroke:none"
         id="path224" /><path
         d="m 10332.6,5696.58 c -22.8,22.31 -45.3,47.58 -67.5,74.64 -77.3,91.67 -259,370.51 -168.5,488.76 26.8,31.27 65.3,44.02 109.9,44.02 38.7,0 82.1,-9.65 126.1,-25.12 v -582.3"
         style="fill:#7d808d;fill-opacity:1;fill-rule:nonzero;stroke:none"
         id="path226" /><path
         d="m 10415.2,3381.51 c -38.1,0 -61.7,25.28 -51.2,97.35 10.9,118.07 395.8,417.31 534.9,417.31 7.4,0 14.2,-0.85 20.1,-2.64 -263.7,-136.57 -497.7,-432.85 -500.4,-436.35 l 7.8,-6.14 c 2.8,3.53 239.7,303.39 504.1,437.18 6.6,-4.36 11.5,-10.6 14.5,-18.91 -33.5,-174.42 -177.1,-287.03 -306.9,-375.16 -53.2,-40.84 -158.6,-112.64 -222.9,-112.64"
         style="fill:#7d808d;fill-opacity:1;fill-rule:nonzero;stroke:none"
         id="path228" /><path
         d="m 10774.6,4772.78 -1,1.51 c -0.8,2.73 -1.6,5.46 -2.3,8.18 35.4,22.67 81.8,60.93 142.2,123.95 80.7,84.06 186.3,212.15 323.9,405.98 v -17.01 c -133.9,-187.68 -237.3,-312.86 -316.7,-395.73 -62.4,-65.07 -110,-104.08 -146.1,-126.88"
         style="fill:#aed2dd;fill-opacity:1;fill-rule:nonzero;stroke:none"
         id="path230" /><path
         d="m 10682.3,4811.62 c -22.4,0 -51.1,2.98 -86.9,11.71 -56.8,13.88 -131.6,42.28 -228.1,96.34 -0.8,0.4 -12.1,6.08 -31.6,15.62 v 11.04 c 22.4,-10.9 35.4,-17.45 36.3,-17.9 97.1,-54.42 171.9,-82.31 228.2,-95.6 33.9,-8.04 61.1,-10.73 82.3,-10.73 42.9,0 61.3,11.06 61.7,11.33 l 4,-6.14 c 0.2,-0.87 0.5,-1.72 0.7,-2.59 -2,-1.21 -7.8,-4.31 -18,-7.2 -10.9,-3.07 -26.8,-5.88 -48.6,-5.88"
         style="fill:#aed2dd;fill-opacity:1;fill-rule:nonzero;stroke:none"
         id="path232" /><path
         d="m 9920.26,5118.36 c -9.71,3.75 -19.41,7.44 -29.13,11.09 v 10.5 c 9.7,-3.63 19.43,-7.32 29.13,-11.05 v -10.54 m -288.92,90.81 c -6.21,1.27 -12.31,2.44 -18.32,3.52 v 10.03 c 6.01,-1.07 12.12,-2.24 18.32,-3.49 v -10.06"
         style="fill:#aed2dd;fill-opacity:1;fill-rule:nonzero;stroke:none"
         id="path234" /><path
         d="m 10335.7,4935.29 c -68.8,33.71 -240.4,115.57 -415.44,183.07 v 10.54 c 173.14,-66.52 343.14,-147.3 415.44,-182.57 v -11.04 m -444.57,194.16 c -91.93,34.5 -183.34,64.09 -259.79,79.72 v 10.06 c 76.52,-15.5 167.83,-44.9 259.79,-79.28 v -10.5 m -278.11,83.24 c -27.93,5.02 -53.57,7.95 -76.13,8.29 l 0.18,9.92 c 22.55,-0.34 48.13,-3.23 75.95,-8.18 v -10.03"
         style="fill:#91b0d7;fill-opacity:1;fill-rule:nonzero;stroke:none"
         id="path236" /><path
         d="m 10622.8,5313.24 -6.6,3.53 c 0.2,0.36 0.4,0.74 0.6,1.11 2.7,-1.5 4.6,-2.7 5.9,-3.55 0,-0.36 0.1,-0.72 0.1,-1.09 m 8.4,9.81 c -0.9,4.87 -1.8,9.73 -2.7,14.55 10.9,17 25.8,37.99 43.7,61.9 138.9,185.19 458.8,544.49 474.9,562.48 l 7.3,-6.61 c -3.9,-4.41 -333.3,-374.41 -474,-561.56 -21.4,-28.46 -38.4,-52.68 -49.2,-70.76"
         style="fill:#aed2dd;fill-opacity:1;fill-rule:nonzero;stroke:none"
         id="path238" /><path
         d="m 10622.7,5314.33 c -1.3,0.85 -3.2,2.05 -5.9,3.55 -14.9,8.44 -51.2,26.7 -99.8,49.23 -51.5,23.92 -116.6,52.64 -184.4,79.58 v 11.21 c 17.9,-7.04 35.2,-14.09 51.7,-20.93 47.2,-19.53 94.4,-40.42 134.9,-59.17 46,-21.33 83.1,-39.87 101.1,-50.43 0.8,-4.31 1.6,-8.7 2.4,-13.04"
         style="fill:#aed2dd;fill-opacity:1;fill-rule:nonzero;stroke:none"
         id="path240" /><path
         d="m 10332.6,5446.69 c -117.4,46.66 -242.5,87.95 -317.3,89.45 l 0.2,9.92 c 78.7,-1.58 207.7,-45.02 317.1,-88.16 v -11.21"
         style="fill:#aed2dd;fill-opacity:1;fill-rule:nonzero;stroke:none"
         id="path242" /><path
         d="m 10631.8,5319.27 v 0.02 c 0,0 0,-0.01 0.1,-0.02 h -0.1"
         style="fill:#aed2dd;fill-opacity:1;fill-rule:nonzero;stroke:none"
         id="path244" /><path
         d="m 11237.4,3592.86 c -60.6,110.64 -122.7,242.19 -170,347.1 0.6,0.13 1.1,0.25 1.7,0.38 l -2.3,9.63 c -1.2,-0.27 -2.3,-0.55 -3.5,-0.82 -45.8,101.9 -76.8,176.55 -77.6,178.34 -6.8,15.03 -13.6,30.63 -20.5,46.77 0.8,0.13 1.3,0.21 1.5,0.24 l -1.6,9.78 c -0.3,-0.06 -1.6,-0.27 -3.8,-0.62 -76,181.74 -152,427.04 -212.4,641.04 -0.2,0.87 -0.5,1.72 -0.7,2.59 -71.8,254.67 -121.4,464.37 -122.3,468.56 -1,5.84 -2,11.62 -3.1,17.39 0,0.37 -0.1,0.73 -0.1,1.09 -0.8,4.34 -1.6,8.73 -2.4,13.04 -19.2,106.09 -42,201.28 -66.1,285.74 -96.7,338.76 -215.2,504.59 -216.7,506.69 l 8,5.82 c 1.5,-2.07 120.7,-168.69 217.9,-508.48 23.7,-82.85 46.1,-175.98 65.1,-279.54 0.9,-4.82 1.8,-9.68 2.7,-14.55 0.2,-1.26 0.4,-2.49 0.6,-3.76 v -0.02 c 1.3,-7.09 2.6,-14.24 3.8,-21.43 1,-4.28 56.7,-240.08 135.7,-515.37 0.7,-2.72 1.5,-5.45 2.3,-8.18 54.1,-188.26 118.9,-394.01 184.4,-556.31 1.2,-3.12 2.5,-6.21 3.7,-9.3 11.1,-27.1 22.1,-52.95 33.2,-77.22 0.6,-1.61 23.8,-57.3 59.4,-137.83 -1.8,-0.73 -3.6,-1.49 -5.3,-2.27 l 4.1,-9.04 c 1.7,0.77 3.5,1.51 5.3,2.22 46.7,-105.15 113.2,-249.05 179,-370.9 v -20.78"
         style="fill:#aed2dd;fill-opacity:1;fill-rule:nonzero;stroke:none"
         id="path246" /><path
         d="m 10106.9,4104.54 c -281.54,0.01 -565.83,29.58 -737.11,127.17 l 4.94,8.62 c 169.68,-96.7 451.61,-126.04 731.47,-126.03 266.3,0.01 530.7,26.59 694.4,46.99 87,10.85 145.5,19.95 160.7,22.37 2.2,0.35 3.5,0.56 3.8,0.62 l 1.6,-9.78 c -0.2,-0.03 -0.7,-0.11 -1.5,-0.24 -10,-1.62 -68,-10.82 -157.3,-22.03 -163.3,-20.49 -430.9,-47.7 -701,-47.69"
         style="fill:#aed2dd;fill-opacity:1;fill-rule:nonzero;stroke:none"
         id="path248" /><path
         d="m 11053.1,3982.32 -4.1,9.04 c 1.7,0.78 3.5,1.54 5.3,2.27 30.3,12.14 73.9,16.76 122.8,16.76 19.4,0 39.7,-0.74 60.3,-2.02 v -10.18 c -21.1,1.35 -41.9,2.12 -61.7,2.12 -47,0 -88.7,-4.36 -117.3,-15.77 -1.8,-0.71 -3.6,-1.45 -5.3,-2.22"
         style="fill:#aed2dd;fill-opacity:1;fill-rule:nonzero;stroke:none"
         id="path250" /><path
         d="m 10426.4,3451.04 -7.8,6.14 c 2.7,3.5 236.7,299.78 500.4,436.35 47.6,24.61 96,44.03 144.3,55.62 1.2,0.27 2.3,0.55 3.5,0.82 l 2.3,-9.63 c -0.6,-0.13 -1.1,-0.25 -1.7,-0.38 -45.7,-10.86 -91.7,-28.89 -136.9,-51.74 -264.4,-133.79 -501.3,-433.65 -504.1,-437.18"
         style="fill:#aed2dd;fill-opacity:1;fill-rule:nonzero;stroke:none"
         id="path252" /><path
         d="m 4098.42,6914.21 v 956.61 h 1286.31 v -384.39 c -238.48,-126.38 -423.7,-58.82 -695.98,-169.29 -219.57,-68.04 -365.77,-323.66 -590.33,-402.93"
         style="fill:#cccac9;fill-opacity:1;fill-rule:nonzero;stroke:none"
         id="path254" /><path
         d="M 5384.73,6584.51 H 4098.42 v 329.7 c 224.56,79.27 370.76,334.89 590.33,402.93 272.28,110.47 457.5,42.91 695.98,169.29 v -901.92"
         style="fill:#d74b51;fill-opacity:1;fill-rule:nonzero;stroke:none"
         id="path256" /><path
         d="m 4098.42,6633.18 h 1286.31 v 1286.3 H 4098.42 v -1286.3"
         style="fill:#1c1b1b;fill-opacity:1;fill-rule:nonzero;stroke:none"
         id="path258" /><path
         d="M 4202.7,6737.46 H 5280.41 V 7815.19 H 4202.7 V 6737.46"
         style="fill:#ffffff;fill-opacity:1;fill-rule:nonzero;stroke:none"
         id="path260" /><path
         d="m 4721.98,6770.78 h 39.14 v 1011.09 h -39.14 V 6770.78"
         style="fill:#242320;fill-opacity:1;fill-rule:nonzero;stroke:none"
         id="path262" /><path
         d="m 5247.1,7256.75 v 39.15 H 4236.03 v -39.15 H 5247.1"
         style="fill:#242320;fill-opacity:1;fill-rule:nonzero;stroke:none"
         id="path264" /><path
         d="m 4291.66,6826.4 h 899.84 v 899.86 H 4291.66 V 6826.4"
         style="fill:#ffffff;fill-opacity:1;fill-rule:nonzero;stroke:none"
         id="path266" /><path
         d="m 4734.16,7268.76 h 14.8 v 401.28 h -14.8 v -401.28"
         style="fill:#242320;fill-opacity:1;fill-rule:nonzero;stroke:none"
         id="path268" /><path
         d="m 4749.07,7268.92 v 14.81 h -295.19 v -14.81 h 295.19"
         style="fill:#242320;fill-opacity:1;fill-rule:nonzero;stroke:none"
         id="path270" /><path
         d="m 3918.08,263.992 c -1941.4,0 -3515.209,97.996 -3515.209,218.899 0,88.121 836.099,164.078 2041.239,198.789 469.13,-142.34 1014.97,-236.059 1508.46,-236.059 95.62,0 189.28,3.52 280.04,10.891 225.53,15.527 457.44,33.488 691.13,56.98 -16.67,-14.703 -27.19,-36.23 -27.19,-60.211 0,-43.812 35.1,-79.41 78.72,-80.222 0.02,0 0.04,0 0.06,0 0.07,0 0.14,0 0.22,0 0.03,0 0.06,0 0.09,0 0.06,0 0.13,0 0.19,0 0.03,-0.008 0.07,-0.008 0.11,-0.008 0.05,0 0.11,0 0.16,0 0.04,0 0.08,0 0.12,0 0.06,0 0.12,0 0.17,0 0.04,0 0.08,0 0.11,0 0.1,0 0.19,0 0.28,0 v 0 c 44.31,0 80.24,35.918 80.24,80.23 v 0 0 c 0,0.098 -0.01,0.188 -0.01,0.282 0,0.039 0,0.066 0,0.109 0,0.058 0,0.117 0,0.18 0,0.027 0,0.07 0,0.097 0,0.063 0,0.121 0,0.18 0,0.043 0,0.07 0,0.101 0,0.071 0,0.129 0,0.2 0,0.031 0,0.05 0,0.082 -0.01,0.078 -0.01,0.168 -0.01,0.25 0,0.008 0,0.019 0,0.019 -0.54,29.289 -16.76,54.739 -40.63,68.309 311.71,33.289 625.3,77.07 929.69,138.629 6.83,-0.297 13.65,-0.598 20.45,-0.91 C 5818.18,603.34 5649.8,500.801 5675,380.879 c 9.36,-34.816 35.91,-62.719 72.49,-84.949 -532.9,-20.258 -1159.33,-31.938 -1829.41,-31.938 m 1430.89,86.746 v 0 c 44.31,0 80.24,35.922 80.24,80.242 v 0 0 c 0,0.09 0,0.18 0,0.282 0,0.027 0,0.07 0,0.097 0,0.063 0,0.121 0,0.18 0,0.039 0,0.07 0,0.109 0,0.063 0,0.122 0,0.184 0,0.027 0,0.059 0,0.098 0,0.058 0,0.129 0,0.199 0,0.019 0,0.051 0,0.082 -0.01,0.078 -0.01,0.16 -0.01,0.25 0,0 0,0.008 0,0.019 -0.8,43.629 -36.42,78.75 -80.23,78.75 -44.31,0 -80.24,-35.929 -80.24,-80.25 0,-43.82 35.12,-79.421 78.75,-80.218 h 0.01 c 0.09,0 0.17,-0.012 0.26,-0.012 0.02,0 0.05,0 0.08,0 0.07,0 0.13,0 0.2,0 0.03,0 0.06,0 0.1,0 0.06,0 0.11,0 0.18,0 0.03,0 0.07,0 0.1,0 0.06,-0.012 0.12,-0.012 0.18,-0.012 0.04,0 0.07,0 0.11,0 0.09,0 0.18,0 0.27,0"
         style="fill:#e34857;fill-opacity:1;fill-rule:nonzero;stroke:none"
         id="path272" /><path
         d="m 3952.57,445.621 c -493.49,0 -1039.33,93.719 -1508.46,236.059 448.27,12.922 947.62,20.121 1473.97,20.121 755.28,0 1454.99,-14.84 2027.98,-40.082 -304.39,-61.559 -617.98,-105.34 -929.69,-138.629 -11.68,6.629 -25.19,10.43 -39.59,10.43 -20.33,0 -38.9,-7.559 -53.04,-20.028 -233.69,-23.492 -465.6,-41.453 -691.13,-56.98 -90.76,-7.371 -184.42,-10.891 -280.04,-10.891"
         style="fill:#e34857;fill-opacity:1;fill-rule:nonzero;stroke:none"
         id="path274" /><path
         d="m 6460.36,331.711 c 2.5,5.66 4.63,11.578 6.39,17.777 12.1,-4.789 24.43,-9.769 36.85,-14.906 -14.29,-0.961 -28.68,-1.922 -43.24,-2.871 m 65.42,4.379 c -19.26,8.121 -38.14,15.82 -56.62,23.14 3.18,15.059 4.26,31.641 3.02,49.879 l -2.73,6.493 c -28.81,86.507 -74.23,170.359 -136.29,226.359 82.66,-4.871 161.37,-9.981 236.14,-15.32 35.56,-133.481 74.08,-251.602 83.33,-281.313 -40.92,-3.148 -83.23,-6.226 -126.85,-9.238 m 205.53,15.531 c 28.73,87.27 26.12,156.949 0.93,262.469 70.83,-5.879 136.99,-11.988 198.19,-18.309 9.32,-53.383 22.63,-105.101 44.08,-147.218 12.77,-25.981 26.84,-48.704 42.15,-69.133 -83.97,-9.731 -179.55,-19.039 -285.35,-27.809 m 602.77,79.418 c -1.65,33.301 -5.3,69.031 -10.62,106.359 71.7,-17.429 109.83,-35.687 109.83,-54.507 0,-17.86 -34.37,-35.231 -99.21,-51.852"
         style="fill:#e34857;fill-opacity:1;fill-rule:nonzero;stroke:none"
         id="path276" /><path
         d="m 7016.66,379.43 c -15.31,20.429 -29.38,43.152 -42.15,69.133 -21.45,42.117 -34.76,93.835 -44.08,147.218 88.24,-9.109 166.03,-18.64 232.54,-28.562 16.67,-59.239 30.73,-113.11 42.48,-162.02 -54.17,-8.89 -117.29,-17.488 -188.79,-25.769 m 198.51,27.379 c -11.54,48.082 -25.26,100.832 -41.52,158.8 59.8,-9.109 109.96,-18.527 149.81,-28.211 5.32,-37.328 8.97,-73.058 10.62,-106.359 -32.27,-8.277 -72.02,-16.348 -118.91,-24.23"
         style="fill:#7c5759;fill-opacity:1;fill-rule:nonzero;stroke:none"
         id="path278" /><path
         d="m 6652.63,345.328 c -9.25,29.711 -47.77,147.832 -83.33,281.313 22.09,-1.582 43.91,-3.192 65.27,-4.801 21.08,-97.68 43.46,-195.738 63.71,-272.918 -15.02,-1.211 -30.23,-2.402 -45.65,-3.594 m 55.79,4.414 c -20.01,76.309 -42.29,173.879 -63.35,271.297 29.78,-2.277 58.85,-4.598 87.17,-6.949 25.19,-105.52 27.8,-175.199 -0.93,-262.469 -7.59,-0.629 -15.18,-1.262 -22.89,-1.879"
         style="fill:#7c5759;fill-opacity:1;fill-rule:nonzero;stroke:none"
         id="path280" /><path
         d="m 5747.49,295.93 c -36.58,22.23 -63.13,50.133 -72.49,84.949 -25.2,119.922 143.18,222.461 291.51,279.93 129.03,-5.77 251.51,-12.071 366.65,-18.848 62.06,-56 107.48,-139.852 136.29,-226.359 l 2.73,-6.493 c 1.24,-18.238 0.16,-34.82 -3.02,-49.879 -32.39,12.809 -63.61,24.45 -93.52,34.981 27.01,12.918 45.68,40.5 45.68,72.449 v 0 0 c 0,0.09 0,0.192 0,0.281 0,0.039 0,0.071 0,0.11 0,0.051 0,0.109 0,0.168 0,0.043 0,0.082 0,0.121 0,0.051 0,0.109 0,0.16 0,0.039 0,0.082 0,0.109 0,0.071 0,0.133 0,0.192 0,0.027 0,0.058 0,0.09 -0.01,0.078 -0.01,0.14 -0.01,0.218 0,0.02 0,0.043 0,0.063 -0.81,43.598 -36.41,78.707 -80.2,78.707 -44.32,0 -80.25,-35.918 -80.25,-80.219 0,-13.762 3.47,-26.719 9.57,-38.039 -210.46,63.418 -335.21,67.688 -337.22,67.731 l -0.27,-9.922 c 2.04,-0.059 130.31,-4.528 346.29,-70.86 14.42,-17.449 36.08,-28.691 60.38,-29.14 0.01,0 0.01,0 0.02,0 0.08,0 0.17,0 0.25,0 0.03,0 0.06,0 0.08,0 0.07,0 0.13,-0.008 0.2,-0.008 0.03,0 0.07,0 0.1,0 0.06,0 0.12,0 0.18,0 0.03,0 0.07,0 0.11,0 0.06,0 0.11,0 0.18,0 0.03,0 0.07,0 0.1,0 0.1,0 0.19,0 0.28,0 v 0 c 6.81,0 13.42,0.848 19.73,2.437 33.67,-11.668 69,-24.738 105.91,-39.371 -1.76,-6.199 -3.89,-12.117 -6.39,-17.777 -211.11,-13.762 -450.61,-25.813 -712.87,-35.781"
         style="fill:#7c5759;fill-opacity:1;fill-rule:nonzero;stroke:none"
         id="path282" /><path
         d="m 7205.45,405.199 c -11.75,48.91 -25.81,102.781 -42.48,162.02 3.57,-0.528 7.18,-1.071 10.68,-1.61 16.26,-57.968 29.98,-110.718 41.52,-158.8 -3.19,-0.539 -6.47,-1.079 -9.72,-1.61"
         style="fill:#a9515a;fill-opacity:1;fill-rule:nonzero;stroke:none"
         id="path284" /><path
         d="m 6698.28,348.922 c -20.25,77.18 -42.63,175.238 -63.71,272.918 3.49,-0.27 7.03,-0.539 10.5,-0.801 21.06,-97.418 43.34,-194.988 63.35,-271.297 -3.34,-0.273 -6.77,-0.551 -10.14,-0.82"
         style="fill:#a9515a;fill-opacity:1;fill-rule:nonzero;stroke:none"
         id="path286" /><path
         d="m 6503.6,334.582 c -12.42,5.137 -24.75,10.117 -36.85,14.906 -36.91,14.633 -72.24,27.703 -105.91,39.371 5.15,1.313 10.1,3.11 14.8,5.352 29.91,-10.531 61.13,-22.172 93.52,-34.981 18.48,-7.32 37.36,-15.019 56.62,-23.14 -7.37,-0.5 -14.73,-1.008 -22.18,-1.508 m -224.37,80.988 c -215.98,66.332 -344.25,70.801 -346.29,70.86 l 0.27,9.922 c 2.01,-0.043 126.76,-4.313 337.22,-67.731 2.51,-4.641 5.46,-9.012 8.8,-13.051"
         style="fill:#a9515a;fill-opacity:1;fill-rule:nonzero;stroke:none"
         id="path288" /><path
         d="m 2227.74,4271.54 c -19.53,0 -35.53,15.93 -35.53,35.55 0,19.61 16,35.51 35.53,35.51 19.61,0 35.54,-15.9 35.54,-35.51 0,-19.62 -15.93,-35.55 -35.54,-35.55 z m 0,118.34 c -45.66,0 -82.82,-37.05 -82.82,-82.79 0,-45.8 37.16,-82.8 82.82,-82.8 45.78,0 82.9,37 82.9,82.8 0,45.74 -37.12,82.79 -82.9,82.79"
         style="fill:#ffffff;fill-opacity:1;fill-rule:nonzero;stroke:none"
         id="path290" /><path
         d="m 2529.27,4158.92 h -187 c -42.61,0 -77.21,34.53 -77.21,77.22 v 177.44 h 341.42 v -177.44 c 0,-42.69 -34.65,-77.22 -77.21,-77.22"
         style="fill:#ffffff;fill-opacity:1;fill-rule:nonzero;stroke:none"
         id="path292" /><path
         d="m 2525.6,4234.97 h -76.23 v 65.3 l 19.4,25.99 h 37.43 l 19.4,-25.99 v -65.3"
         style="fill:#39b864;fill-opacity:1;fill-rule:nonzero;stroke:none"
         id="path294" /><path
         d="m 2487.49,4309.24 c -1.23,0 -2.17,0.95 -2.17,2.1 v 107.03 c 0,1.17 0.94,2.14 2.17,2.14 1.14,0 2.15,-0.97 2.15,-2.14 v -107.03 c 0,-1.15 -1.01,-2.1 -2.15,-2.1"
         style="fill:#a2e1f9;fill-opacity:1;fill-rule:nonzero;stroke:none"
         id="path296" /><path
         d="m 2360.66,4475.86 c -9.45,0 -17.14,7.74 -17.14,17.24 v 101.07 c 0,26.76 21.71,48.51 48.51,48.51 7.74,0 14.09,6.31 14.09,14.13 v 21.43 c 0,7.75 -6.35,14.12 -14.09,14.12 h -43.28 c -26.82,0 -48.58,21.69 -48.58,48.44 v 41.48 c 0,9.47 7.74,17.19 17.25,17.19 9.46,0 17.12,-7.72 17.12,-17.19 v -41.48 c 0,-7.8 6.37,-14.15 14.21,-14.15 h 43.28 c 26.71,0 48.43,-21.7 48.43,-48.41 v -21.43 c 0,-26.78 -21.72,-48.46 -48.43,-48.46 -7.76,0 -14.13,-6.38 -14.13,-14.18 V 4493.1 c 0,-9.5 -7.72,-17.24 -17.24,-17.24"
         style="fill:#f9aab2;fill-opacity:1;fill-rule:nonzero;stroke:none"
         id="path298" /><path
         d="m 2436.42,4475.86 c -9.52,0 -17.28,7.74 -17.28,17.24 v 71.42 c 0,9.45 7.76,17.16 17.28,17.16 9.48,0 17.17,-7.71 17.17,-17.16 v -71.42 c 0,-9.5 -7.69,-17.24 -17.17,-17.24"
         style="fill:#f9aab2;fill-opacity:1;fill-rule:nonzero;stroke:none"
         id="path300" /><path
         d="m 2502.35,4475.86 c -9.44,0 -17.18,7.74 -17.18,17.24 v 75.13 c 0,31.04 25.34,56.37 56.45,56.37 19.82,0 35.99,16.13 35.99,36 v 26.4 c 0,19.9 -16.17,36 -35.99,36 h -41.74 c -31.21,0 -56.64,25.49 -56.64,56.7 v 84.41 c 0,9.45 7.66,17.21 17.13,17.21 9.49,0 17.22,-7.76 17.22,-17.21 v -84.41 c 0,-12.26 10.05,-22.28 22.29,-22.28 h 41.74 c 38.78,0 70.37,-31.62 70.37,-70.42 v -26.4 c 0,-38.81 -31.59,-70.38 -70.37,-70.38 -12.19,0 -22.01,-9.91 -22.01,-21.99 v -75.13 c 0,-9.5 -7.74,-17.24 -17.26,-17.24"
         style="fill:#f9aab2;fill-opacity:1;fill-rule:nonzero;stroke:none"
         id="path302" /><path
         d="M 2720.83,4146.25 H 2150.7 v 19.49 h 570.13 v -19.49"
         style="fill:#e8f7fd;fill-opacity:1;fill-rule:nonzero;stroke:none"
         id="path304" /><path
         d="M 3174.78,2020.88 2527.01,1012.44 h 150.14 l 599.05,1008.44 h -101.42"
         style="fill:#171e27;fill-opacity:1;fill-rule:nonzero;stroke:none"
         id="path306" /><path
         d="m 3788.53,2153.55 731.38,-1141.11 h -150.15 l -682.64,1141.11 h 101.41"
         style="fill:#171e27;fill-opacity:1;fill-rule:nonzero;stroke:none"
         id="path308" /><path
         d="m 3667.76,4450.29 c 0,0 100.1,40.05 145.15,-20.02 45.03,-60.06 540.51,-945.91 540.51,-945.91 l -180.17,-150.15 -540.52,935.92 c 0,0 -50.06,120.11 35.03,180.16"
         style="fill:#1c1b1b;fill-opacity:1;fill-rule:nonzero;stroke:none"
         id="path310" /><path
         d="m 4257.92,3517.38 c 334.54,22.36 669.07,44.7 1003.59,67.07 l 0.3,0.01 c 61.31,4.09 112.6,-54.33 112.6,-112.61 0,-64.49 -51.38,-108.53 -112.6,-112.61 -334.53,-22.35 -669.07,-44.7 -1003.6,-67.06 l -0.29,-0.02 c -61.31,-4.1 -112.6,54.34 -112.6,112.62 0,64.47 51.38,108.51 112.6,112.6"
         style="fill:#f57b5a;fill-opacity:1;fill-rule:nonzero;stroke:none"
         id="path312" /><path
         d="m 5176.24,3502.64 c 0,92.88 75.28,168.15 168.14,168.15 92.87,0 168.14,-75.27 168.14,-168.15 0,-92.85 -75.27,-168.14 -168.14,-168.14 -92.86,0 -168.14,75.29 -168.14,168.14"
         style="fill:#f57b5a;fill-opacity:1;fill-rule:nonzero;stroke:none"
         id="path314" /><path
         d="m 4297.22,3584.66 74.15,-59.7 -181.59,-210.09 -45.73,42.1 -40.42,97.81 193.59,129.88"
         style="fill:#ffffff;fill-opacity:1;fill-rule:nonzero;stroke:none"
         id="path316" /><path
         d="m 3491.61,5951.03 c 47.22,6.18 81.13,26.03 134.8,11.93 l 6.75,-0.07 c 148,-8.44 200.35,-143.64 280.02,-238.79 113.08,-122.4 185.91,-230.96 143.54,-405.49 -77.39,-295.33 -182.57,-671.11 -559,-619.76 -678.8,95.18 -673.89,1131.79 -6.11,1252.18"
         style="fill:#1c1b1b;fill-opacity:1;fill-rule:nonzero;stroke:none"
         id="path318" /><path
         d="m 3855.63,5990.66 5.03,-0.04 c 141,-35.26 285.97,-162.24 260.64,-315.97 -29.52,-179.44 -232,-280.11 -372.24,-177.57 -160.16,122.98 -169.06,530.34 106.57,493.58"
         style="fill:#1c1b1b;fill-opacity:1;fill-rule:nonzero;stroke:none"
         id="path320" /><path
         d="m 3763.8,6059.52 c -66.64,-48.91 -59.22,-124.1 -27.8,-190.33 1.62,-3.41 -2.55,-6.92 -5.36,-4.07 -55.71,56.69 -30.22,158.27 29.89,200.17 3.57,2.48 6.65,-3.3 3.27,-5.77"
         style="fill:#1c1b1b;fill-opacity:1;fill-rule:nonzero;stroke:none"
         id="path322" /><path
         d="m 3693.44,5936 c -210.91,26.15 -386.52,-50.4 -544.26,-186.23 -68.2,-58.7 -120.42,-134.06 -142.68,-221.72 -22.53,-88.84 -3.08,-175.75 1.79,-264.97 0.2,-2.67 -4,-3.12 -4.6,-0.56 -19.61,81.36 -22.72,173.75 -6.69,255.9 17.38,89.49 72.84,161.62 134.36,225.96 147.86,154.66 349.68,230.43 562.22,203.61 7.55,-0.94 7.53,-12.93 -0.14,-11.99"
         style="fill:#1c1b1b;fill-opacity:1;fill-rule:nonzero;stroke:none"
         id="path324" /><path
         d="m 4143.28,5564.94 c -35.5,-45.76 -95.69,-66.05 -152.33,-52.64 -2.62,0.59 -1.9,4.59 0.67,4.63 57.25,1.17 107.26,2.65 145.68,51.59 2.74,3.47 8.74,-0.02 5.98,-3.58"
         style="fill:#1c1b1b;fill-opacity:1;fill-rule:nonzero;stroke:none"
         id="path326" /><path
         d="m 4019.86,5531.74 c 58.13,-21.66 69.62,-102.6 75.75,-155.67 6.35,-55.12 11.28,-150.26 -32.03,-193.87 -1.86,-1.89 -5.12,0.63 -3.66,2.91 28.23,44.51 27.96,107.76 26.57,158.56 -1.45,54.29 -9.25,155.44 -68.93,180.01 -4.92,2.04 -2.83,9.94 2.3,8.06"
         style="fill:#1c1b1b;fill-opacity:1;fill-rule:nonzero;stroke:none"
         id="path328" /><path
         d="m 4130.74,5411.99 c -3.07,69.65 -64.23,112.01 -125.79,127.83 -1.74,0.45 -1.31,3.17 0.44,3.08 66.51,-1.92 127.07,-64.96 127.53,-130.91 0.03,-1.41 -2.16,-1.39 -2.18,0"
         style="fill:#1c1b1b;fill-opacity:1;fill-rule:nonzero;stroke:none"
         id="path330" /><path
         d="m 4172.46,5699.98 c -29.04,-66.98 -94.87,-133.91 -173.47,-127.3 -2.48,0.19 -3.38,4.3 -0.56,4.62 76.17,10.09 135.51,55.66 166.97,125.73 1.82,3.97 8.78,0.93 7.06,-3.05"
         style="fill:#1c1b1b;fill-opacity:1;fill-rule:nonzero;stroke:none"
         id="path332" /><path
         d="m 3750.82,5906.04 c -83.83,114.06 -216.3,159.46 -351.7,123.78 -3.39,-0.92 -5.59,4.18 -2.33,5.76 127.86,62.73 286.17,-17.49 359.78,-126.26 2.47,-3.59 -3.25,-6.69 -5.75,-3.28"
         style="fill:#1c1b1b;fill-opacity:1;fill-rule:nonzero;stroke:none"
         id="path334" /><path
         d="m 3705.6,5926.36 c -86.95,57.36 -204.77,81.81 -293.78,17.05 -1.98,-1.43 -3.94,1.64 -2.44,3.23 74.85,80.63 222.22,41.42 298.69,-16.23 2.35,-1.77 0.12,-5.75 -2.47,-4.05"
         style="fill:#1c1b1b;fill-opacity:1;fill-rule:nonzero;stroke:none"
         id="path336" /><path
         d="m 3922.24,6018.5 c -99.35,45.41 -176.09,-60.56 -193.74,-144.81 -0.54,-2.6 -4.06,-1.65 -4.33,0.66 -9.69,94.32 113.25,193.2 200.1,147.53 2.3,-1.19 0.24,-4.41 -2.03,-3.38"
         style="fill:#1c1b1b;fill-opacity:1;fill-rule:nonzero;stroke:none"
         id="path338" /><path
         d="m 3362.01,4476.36 c 0.59,-40.86 19.75,-72.77 63.22,-94.73 l 61.85,-13.55 51.11,17.22 c 42.98,10.86 73.97,53.82 73.41,94.67 l -3.08,212.61 c -0.59,40.8 -34.19,73.44 -75.03,72.87 l -101.65,-1.5 c -40.85,-0.56 -73.48,-34.16 -72.89,-75.02 l 3.06,-212.57"
         style="fill:#f57b5a;fill-opacity:1;fill-rule:nonzero;stroke:none"
         id="path340" /><g
         id="g342"><g
           id="g344"
           clip-path="url(#clipPath348)"><path
             d="m 3534.55,4696.29 h 73.8203 v 69.1719 H 3534.55 Z"
             style="fill:#1b1a19;fill-opacity:1;fill-rule:nonzero;stroke:none"
             id="path350" /></g></g><path
         d="m 3434.37,4514.4 c -40.38,0 -73.39,32.4 -73.94,72.89 l -1.48,101.64 c 0,0.32 -0.01,0.63 -0.01,0.95 -0.07,40.43 32.37,73.51 72.9,74.07 l 101.65,1.5 c 0.35,0 0.71,0.01 1.06,0.01 v 0 c 0.05,0 0.1,-0.01 0.15,-0.01 39.05,-0.08 71.2,-30.51 73.67,-69.16 0.08,-1.23 0.13,-2.47 0.15,-3.71 v 0 l 1.45,-101.69 c 0.61,-40.85 -32.04,-74.46 -72.84,-75.02 l -101.69,-1.46 c -0.36,-0.01 -0.72,-0.01 -1.07,-0.01"
         style="fill:#e56d4e;fill-opacity:1;fill-rule:nonzero;stroke:none"
         id="path352" /><path
         d="m 3783.31,5111.33 c -14.55,-85.14 28.02,-163.44 95.1,-174.9 67.09,-11.52 133.33,48.18 147.88,133.26 14.57,85.11 -28.02,163.37 -95.06,174.89 -67.09,11.5 -133.34,-48.16 -147.92,-133.25"
         style="fill:#f57b5a;fill-opacity:1;fill-rule:nonzero;stroke:none"
         id="path354" /><path
         d="m 3973.08,5075.12 c -0.67,0 -1.35,0.05 -2.03,0.17 l -1.71,0.43 c -8.06,2.62 -12.4,13.13 -9.78,23.49 0.05,0.15 3.72,15.13 -2.29,28.24 -5.24,11.49 -16.47,19.32 -33.51,23.3 -8.27,1.92 -13.19,12.07 -11,22.6 2,9.32 8.8,15.98 16.16,15.98 0.96,0 1.92,-0.11 2.88,-0.34 25.88,-6.1 43.77,-19.89 53.14,-41.12 12.01,-27.17 4.87,-55.29 4.01,-58.35 -2.39,-8.73 -9.01,-14.4 -15.87,-14.4"
         style="fill:#e56d4e;fill-opacity:1;fill-rule:nonzero;stroke:none"
         id="path356" /><path
         d="m 3174.98,5149.63 c 40.17,-76.43 23.95,-164.04 -36.3,-195.73 -60.26,-31.75 -141.68,4.59 -181.86,80.96 -40.22,76.4 -23.94,164.04 36.27,195.72 60.25,31.75 141.69,-4.5 181.89,-80.95"
         style="fill:#f57b5a;fill-opacity:1;fill-rule:nonzero;stroke:none"
         id="path358" /><path
         d="m 3001.69,5055.86 c -5.55,0 -11.52,3.38 -15.51,9.45 -1.74,2.64 -17.23,27.13 -14.24,56.72 2.36,23.05 15.06,41.75 37.82,55.49 2.04,1.27 4.3,1.87 6.61,1.87 6.03,0 12.42,-4.07 16.34,-10.81 5.32,-9.33 3.79,-20.48 -3.51,-24.92 -14.94,-9.07 -23.21,-19.99 -24.64,-32.51 -1.65,-14.36 6.48,-27.43 6.6,-27.6 5.71,-9 4.79,-20.38 -2.04,-25.33 l -1.55,-0.93 c -1.82,-0.96 -3.82,-1.43 -5.88,-1.43"
         style="fill:#e56d4e;fill-opacity:1;fill-rule:nonzero;stroke:none"
         id="path360" /><path
         d="m 3063.64,5329.01 c 33.29,177.28 204.94,313.93 413.78,316.92 208.87,3.05 384.35,-128.55 422.79,-304.83 4.53,-8.08 7.17,-17.01 7.32,-26.49 l 5.01,-345.69 c 0.01,-2.31 -0.09,-4.56 -0.36,-6.83 -5.98,-202.27 -190.35,-366.42 -419.49,-369.74 -229.2,-3.31 -418.25,155.47 -430.07,357.51 -0.28,2.22 -0.47,4.47 -0.52,6.79 l -4.96,345.66 c -0.15,9.47 2.23,18.46 6.5,26.7"
         style="fill:#f57b5a;fill-opacity:1;fill-rule:nonzero;stroke:none"
         id="path362" /><path
         d="m 3593.99,5271.62 c 0.28,-17.01 27.92,6.57 73.87,7.27 45.95,0.64 92.81,-21.88 92.54,-4.84 -0.24,17.01 -40.91,39.49 -86.81,38.82 -45.97,-0.64 -79.84,-24.21 -79.6,-41.25"
         style="fill:#2a162d;fill-opacity:1;fill-rule:nonzero;stroke:none"
         id="path364" /><path
         d="m 3196.31,5279.8 c 0.24,-16.99 27.93,6.55 73.88,7.25 45.96,0.66 92.78,-21.88 92.49,-4.84 -0.22,17.01 -40.86,39.49 -86.82,38.78 -45.95,-0.61 -79.77,-24.16 -79.55,-41.19"
         style="fill:#2a162d;fill-opacity:1;fill-rule:nonzero;stroke:none"
         id="path366" /><path
         d="m 3430.58,5005.25 c -0.64,44.69 15.79,114.64 51.12,115.11 35.4,0.51 56,-63.97 56.66,-108.67 0.03,-2.98 -0.11,-5.7 -0.43,-8.19 v -0.33 c 0.32,-23.4 -23.34,-42.67 -52.79,-43.11 -22.91,-0.32 -42.6,10.86 -50.39,26.8 -2.49,3.94 -4.08,9.79 -4.17,18.39"
         style="fill:#c73735;fill-opacity:1;fill-rule:nonzero;stroke:none"
         id="path368" /><path
         d="m 3784.71,5098.72 c 1.63,0.04 3.22,0.31 4.86,0.87 8.03,2.83 12.28,11.6 9.44,19.66 -19.34,55.4 -43.45,83.23 -73.69,84.92 -49.33,2.52 -86.34,-70.75 -90.38,-79.15 -3.71,-7.65 -0.47,-16.87 7.18,-20.56 7.65,-3.69 16.88,-0.48 20.55,7.17 10.06,20.74 38.28,63.1 60.92,61.79 15.74,-0.95 32.17,-23.75 46.35,-64.39 2.23,-6.39 8.31,-10.4 14.77,-10.31"
         style="fill:#2a162d;fill-opacity:1;fill-rule:nonzero;stroke:none"
         id="path370" /><path
         d="m 3322.51,5092.03 c 1.63,0.05 3.25,0.31 4.86,0.85 8.03,2.85 12.3,11.62 9.47,19.68 -19.39,55.45 -43.51,83.23 -73.74,84.94 -49.27,2.5 -86.29,-70.75 -90.36,-79.16 -3.67,-7.64 -0.47,-16.88 7.2,-20.57 7.68,-3.68 16.88,-0.48 20.56,7.21 10.04,20.7 38.23,63.05 60.89,61.72 15.71,-0.85 32.16,-23.72 46.36,-64.3 2.25,-6.43 8.31,-10.45 14.76,-10.37"
         style="fill:#2a162d;fill-opacity:1;fill-rule:nonzero;stroke:none"
         id="path372" /><path
         d="m 3595.1,4860.63 -199.43,-2.87 c 0,0 114.36,-176.64 199.43,2.87"
         style="fill:#c73735;fill-opacity:1;fill-rule:nonzero;stroke:none"
         id="path374" /><path
         d="M 3826.98,5558.83 C 3755.71,5390.05 3548.6,5352.79 3395.2,5331 c -294.65,-41.82 -224.33,-187 -333.81,-324.53 -58.37,293.59 -25.28,831.1 299.24,896.8 193.09,36.37 761.95,-108.75 443.06,-359.56"
         style="fill:#1c1b1b;fill-opacity:1;fill-rule:nonzero;stroke:none"
         id="path376" /><path
         d="m 3784.19,5624.6 c -82.62,-160.64 70.22,-337.35 68.33,-505.67 81.91,100.05 117,227.58 98.28,355.72 -12.55,80.88 -131.09,317.87 -187,136.74"
         style="fill:#1c1b1b;fill-opacity:1;fill-rule:nonzero;stroke:none"
         id="path378" /><path
         d="m 2657.9,3163.86 c -175.38,295.9 -350.76,591.8 -526.13,887.71 -0.75,1.27 -1.51,2.56 -2.28,3.84 -31.27,52.79 -12.91,123.18 39.83,154.24 52.98,31.18 122.96,12.94 154.24,-39.83 175.38,-295.89 350.75,-591.8 526.12,-887.71 0.77,-1.26 1.53,-2.57 2.29,-3.84 31.28,-52.78 12.92,-123.18 -39.83,-154.24 -52.99,-31.21 -122.96,-12.94 -154.24,39.83"
         style="fill:#f57b5a;fill-opacity:1;fill-rule:nonzero;stroke:none"
         id="path380" /><path
         d="m 2034.83,4177.49 c -24.2,89.67 28.86,181.98 118.52,206.17 89.65,24.2 181.95,-28.85 206.16,-118.49 24.19,-89.67 -28.87,-181.96 -118.51,-206.16 -89.66,-24.21 -181.96,28.84 -206.17,118.48"
         style="fill:#f57b5a;fill-opacity:1;fill-rule:nonzero;stroke:none"
         id="path382" /><path
         d="m 3351.27,4560.39 c 0,0 397.89,-37.53 457.95,-322.81 0,0 322.81,-112.59 67.56,-472.96 V 2841.24 H 3276.2 v 1719.15 h 75.07"
         style="fill:#ffffff;fill-opacity:1;fill-rule:nonzero;stroke:none"
         id="path384" /><path
         d="M 3595.2,4312.66 V 3194.07 c 0,0 -15.02,-322.81 -375.37,-397.87 v 945.9 l -322.81,-435.42 -142.64,247.75 487.97,885.85 c 0,0 270.26,150.15 352.85,-127.62"
         style="fill:#1c1b1b;fill-opacity:1;fill-rule:nonzero;stroke:none"
         id="path386" /><path
         d="m 3219.83,2743.64 c 0,53.9 43.7,97.6 97.59,97.6 h 840.82 c 53.9,0 97.59,-43.7 97.59,-97.6 v -307.8 c 0,-53.89 -43.69,-97.6 -97.59,-97.6 h -840.82 c -53.89,0 -97.59,43.71 -97.59,97.6 v 307.8"
         style="fill:#1c1b1b;fill-opacity:1;fill-rule:nonzero;stroke:none"
         id="path388" /><path
         d="m 4035.44,2700.73 c 163.94,81.22 330.96,156.31 499.52,227.41 110.38,46.56 222.06,91.73 337.07,125.64 91.85,27.07 229.77,63.68 315.08,-0.21 185.75,-139.11 30.58,-366.21 -60.38,-514.13 -126.56,-205.83 -267.9,-402.84 -410.2,-597.93 -146.65,-201.12 -297.24,-399.41 -451.19,-594.97 -92.01,-116.89 -182.79,-239.33 -287.96,-345 -64.92,-65.231 -173.91,-64.962 -238.88,0 -65.18,65.19 -64.92,173.66 0,238.87 116.5,117.05 216.43,253.54 317.99,383.26 17.79,22.7 35.51,45.49 53.19,68.29 7.54,9.76 25.98,33.63 -8.27,-10.73 4.57,5.94 9.15,11.88 13.72,17.81 10.81,14.04 21.6,28.09 32.38,42.16 39.81,51.96 79.34,104.13 118.64,156.48 80.73,107.5 160.38,215.8 238.77,325 132,183.88 264.2,369.77 377.18,566.18 18.17,31.56 35.6,63.62 51.23,96.55 3.02,6.38 5.92,12.81 8.75,19.29 6.69,15.29 -21.43,-53.18 -8.71,-19.96 3.95,10.29 7.37,20.83 9.83,31.59 6.97,30.47 -0.71,-57.83 -3.99,-22.06 3.54,-38.62 2.93,-43.99 20.22,-75.82 -7.89,14.52 35.38,-42.58 23.78,-30.85 39.77,-40.15 41.71,-29.03 26.15,-21.34 53.24,-26.35 46.27,-18.01 31.25,-13.85 -13.46,3.74 -41.53,6 34.03,-4.05 -6.42,0.85 -12.97,0.87 -19.44,0.81 -7.67,-0.08 -15.33,-0.78 -22.94,-1.6 -23.6,-2.49 51.85,7.38 27.79,3.71 -6.17,-0.96 -12.31,-2.11 -18.44,-3.29 -82.15,-15.73 -162.04,-45.29 -240.11,-74.61 -47.36,-17.8 -94.32,-36.7 -141.07,-56.06 -12.76,-5.29 -59,-24.87 -2.43,-0.93 -11.83,-5 -23.65,-10.07 -35.46,-15.15 -25.55,-10.97 -51.03,-22.16 -76.47,-33.42 -114.38,-50.61 -228.02,-103.27 -340.12,-158.8 -82.51,-40.87 -182.22,-22.85 -231.1,60.6 -44.09,75.25 -21.86,190.24 60.59,231.11"
         style="fill:#f3694e;fill-opacity:1;fill-rule:nonzero;stroke:none"
         id="path390" /><path
         d="m 3902.31,2718.98 c 153.76,53.85 308.59,104.63 464.02,152.95 117.1,36.43 234.74,71.36 353.62,101.01 46.72,11.64 93.73,22.35 141.17,30.31 42.74,7.2 89.1,16.88 132.95,13.17 90.72,-7.65 149.64,-57.17 218.47,-113.27 68.77,-56.09 134.13,-116.79 199.13,-177.47 178.63,-166.8 352.27,-339.4 525.12,-512.61 150.98,-151.29 301.13,-303.54 449.92,-457.17 62.84,-64.86 62.48,-173.96 0,-238.89 -62.77,-65.22 -167.05,-64.85 -229.86,0 -252.4,260.61 -507.68,518.4 -767.35,771.18 -82.15,79.96 -164.85,159.29 -249.02,236.95 -33.95,31.32 -68.19,62.31 -102.96,92.65 -13.88,12.11 -27.91,24.09 -42.05,35.9 -6.28,5.25 -12.61,10.44 -18.96,15.59 52.84,-42.86 22.53,-18.01 9.91,-8.28 -16.7,12.85 -33.98,26.02 -52.94,35.14 62.27,-29.93 43.65,-17.31 28.85,-13.35 -23.09,6.15 56.36,-5.7 26.4,-3.81 -14.84,0.96 -29.82,-0.42 -44.56,-1.94 -38.46,-4 45.75,6.99 12.81,1.98 -9.77,-1.49 -19.5,-3.23 -29.23,-4.98 -24.13,-4.41 -48.11,-9.61 -72.03,-15.07 -54.89,-12.5 -109.37,-26.97 -163.65,-41.97 -236.8,-65.56 -471.14,-142.45 -703.33,-223.78 -84.01,-29.43 -177.48,33.01 -199.96,117.98 -24.5,92.56 29.65,178.4 113.53,207.78"
         style="fill:#f57b5a;fill-opacity:1;fill-rule:nonzero;stroke:none"
         id="path392" /><path
         d="m 2754.38,3554.43 142.64,-247.75 -32.19,-75.83 -157.65,277.76 47.2,45.82"
         style="fill:#ffffff;fill-opacity:1;fill-rule:nonzero;stroke:none"
         id="path394" /><path
         d="m 4306.23,2371.26 c 0,0 -1076.74,-45.05 -1131.45,90.09 -54.71,135.13 -39.69,931.29 -39.69,931.29 0,0 -378.55,-345.72 -238.07,-1103.96 140.48,-758.23 1409.21,82.58 1409.21,82.58"
         style="fill:#ffffff;fill-opacity:1;fill-rule:nonzero;stroke:none"
         id="path396" /><path
         d="m 6255.19,3667.63 c 0,0 -74.49,-26.19 163.52,-475.2 h 19.94 c 0,0 -137.22,525.12 -183.46,475.2"
         style="fill:#1c1b1b;fill-opacity:1;fill-rule:nonzero;stroke:none"
         id="path398" /><path
         d="m 6426.29,3224.47 12.36,-32.04 c 0,0 -137.22,525.12 -183.46,475.2 l 0.37,-0.98 c 41.11,20.29 139.74,-328.31 170.73,-442.18"
         style="fill:#1c1b1b;fill-opacity:1;fill-rule:nonzero;stroke:none"
         id="path400" /><path
         d="m 5078.65,4082.34 47.53,-72.25 -650.05,-817.66 h -97.09 l 699.61,889.91"
         style="fill:#1c1b1b;fill-opacity:1;fill-rule:nonzero;stroke:none"
         id="path402" /><path
         d="m 6712.95,4082.34 h -1634.3 l 47.53,-72.25 1586.77,11 v 61.25"
         style="fill:#1c1b1b;fill-opacity:1;fill-rule:nonzero;stroke:none"
         id="path404" /><path
         d="M 6712.95,4021.09 6093.57,3192.43 H 4476.13 l 650.05,817.66 1586.77,11"
         style="fill:#3f3e40;fill-opacity:1;fill-rule:nonzero;stroke:none"
         id="path406" /><path
         d="m 4752.61,3667.63 c 0,0 -74.48,-26.19 163.53,-475.2 h 19.93 c 0,0 -137.22,525.12 -183.46,475.2"
         style="fill:#1c1b1b;fill-opacity:1;fill-rule:nonzero;stroke:none"
         id="path408" /><path
         d="m 4923.71,3224.47 12.36,-32.04 c 0,0 -137.22,525.12 -183.46,475.2 l 0.36,-0.98 c 41.12,20.29 139.75,-328.31 170.74,-442.18"
         style="fill:#1c1b1b;fill-opacity:1;fill-rule:nonzero;stroke:none"
         id="path410" /><path
         d="m 6543.47,3085.14 c -36.69,90.36 -125.15,154.13 -228.63,154.13 H 4094.86 c -103.46,0 -191.7,-63.81 -228.34,-154.13 h 2676.95"
         style="fill:#171e27;fill-opacity:1;fill-rule:nonzero;stroke:none"
         id="path412" /><path
         d="m 2249.32,2111.57 h -196.96 v 1018.42 h 196.96 V 2111.57"
         style="fill:#171e27;fill-opacity:1;fill-rule:nonzero;stroke:none"
         id="path414" /><path
         d="m 2191.68,556.461 h -81.67 V 2130.79 h 81.67 V 556.461"
         style="fill:#171e27;fill-opacity:1;fill-rule:nonzero;stroke:none"
         id="path416" /><path
         d="m 6274.97,2111.57 h -197 v 1018.42 h 197 V 2111.57"
         style="fill:#171e27;fill-opacity:1;fill-rule:nonzero;stroke:none"
         id="path418" /><path
         d="m 6216.07,556.461 h -81.67 l 1.24,1574.329 h 81.67 l -1.24,-1574.329"
         style="fill:#171e27;fill-opacity:1;fill-rule:nonzero;stroke:none"
         id="path420" /><path
         d="M 7036.34,2971.47 H 1790.54 V 3133 h 5245.8 v -161.53"
         style="fill:#171e27;fill-opacity:1;fill-rule:nonzero;stroke:none"
         id="path422" /><path
         d="m 703.578,3192.43 v -100.88 l 2308.342,-18.01 v 118.89 H 703.578"
         style="fill:#8d4323;fill-opacity:1;fill-rule:nonzero;stroke:none"
         id="path424" /><path
         d="m 7521.52,3073.54 h -4509.6 v 118.89 h 4509.6 v -118.89"
         style="fill:#ab502e;fill-opacity:1;fill-rule:nonzero;stroke:none"
         id="path426" /><path
         d="m 2734.51,1953.05 h -196.97 v 1018.42 h 196.97 V 1953.05"
         style="fill:#171e27;fill-opacity:1;fill-rule:nonzero;stroke:none"
         id="path428" /><path
         d="m 2676.88,397.949 h -81.67 V 1972.27 h 81.67 V 397.949"
         style="fill:#171e27;fill-opacity:1;fill-rule:nonzero;stroke:none"
         id="path430" /><path
         d="m 6704.92,1953.05 h -197 v 1018.42 h 197 V 1953.05"
         style="fill:#171e27;fill-opacity:1;fill-rule:nonzero;stroke:none"
         id="path432" /><path
         d="m 6646.03,397.949 h -81.68 l 1.24,1574.321 h 81.68 l -1.24,-1574.321"
         style="fill:#171e27;fill-opacity:1;fill-rule:nonzero;stroke:none"
         id="path434" /><path
         d="m 5429.21,430.98 c 0,-44.32 -35.93,-80.242 -80.24,-80.242 -44.31,0 -80.24,35.922 -80.24,80.242 0,44.321 35.93,80.25 80.24,80.25 44.31,0 80.24,-35.929 80.24,-80.25"
         style="fill:#2f2e2e;fill-opacity:1;fill-rule:nonzero;stroke:none"
         id="path436" /><path
         d="m 5348.7,350.738 c -0.04,0 -0.07,0 -0.11,0 0.04,0 0.07,0 0.11,0 m -0.29,0.012 c -0.03,0 -0.07,0 -0.1,0 0.03,0 0.07,0 0.1,0 m -0.28,0 c -0.04,0 -0.07,0 -0.1,0 0.03,0 0.06,0 0.1,0 m -0.3,0 c -0.03,0 -0.06,0 -0.08,0 0.02,0 0.05,0 0.08,0 m -0.34,0.012 h -0.01 0.01 m 81.72,80.5 c 0,0.027 0,0.07 0,0.097 0,-0.027 0,-0.07 0,-0.097 m 0,0.277 c 0,0.039 0,0.07 0,0.109 0,-0.039 0,-0.07 0,-0.109 m 0,0.293 c 0,0.027 0,0.059 0,0.098 0,-0.039 0,-0.071 0,-0.098 m 0,0.297 c 0,0.019 0,0.051 0,0.082 0,-0.031 0,-0.063 0,-0.082 m -0.01,0.332 c 0,0 0,0.008 0,0.019 0,-0.011 0,-0.019 0,-0.019"
         style="fill:#281616;fill-opacity:1;fill-rule:nonzero;stroke:none"
         id="path438" /><path
         d="m 5348.97,350.738 v 0 c -0.09,0 -0.18,0 -0.27,0 -0.04,0 -0.07,0 -0.11,0 -0.06,0 -0.12,0 -0.18,0.012 -0.03,0 -0.07,0 -0.1,0 -0.06,0 -0.12,0 -0.18,0 -0.04,0 -0.07,0 -0.1,0 -0.07,0 -0.14,0 -0.2,0 -0.03,0 -0.06,0 -0.08,0 -0.09,0 -0.17,0.012 -0.26,0.012 h -0.01 c -24.96,0.457 -47.07,12.359 -61.49,30.609 13.66,-10.762 30.86,-17.25 49.61,-17.25 44.32,0 80.24,35.918 80.24,80.25 0,18.731 -6.49,35.938 -17.24,49.598 18.25,-14.399 30.14,-36.539 30.6,-61.489 0,-0.011 0,-0.019 0,-0.019 0,-0.09 0,-0.172 0.01,-0.25 0,-0.031 0,-0.063 0,-0.082 0,-0.07 0,-0.141 0,-0.199 0,-0.039 0,-0.071 0,-0.098 0,-0.062 0,-0.121 0,-0.184 0,-0.039 0,-0.07 0,-0.109 0,-0.059 0,-0.117 0,-0.18 0,-0.027 0,-0.07 0,-0.097 0,-0.102 0,-0.192 0,-0.282 0,-44.32 -35.93,-80.242 -80.24,-80.242"
         style="fill:#141311;fill-opacity:1;fill-rule:nonzero;stroke:none"
         id="path440" /><path
         d="m 6421.32,466.66 c 0,-44.308 -35.92,-80.238 -80.21,-80.238 -44.32,0 -80.25,35.93 -80.25,80.238 0,44.301 35.93,80.219 80.25,80.219 44.29,0 80.21,-35.918 80.21,-80.219"
         style="fill:#2f2e2e;fill-opacity:1;fill-rule:nonzero;stroke:none"
         id="path442" /><path
         d="m 6340.83,386.422 c -0.03,0 -0.07,0 -0.1,0 0.03,0 0.07,0 0.1,0 m -0.28,0 c -0.04,0 -0.08,0 -0.11,0 0.03,0 0.07,0 0.11,0 m -0.29,0 c -0.03,0 -0.07,0 -0.1,0 0.03,0 0.07,0 0.1,0 m -0.3,0.008 c -0.02,0 -0.05,0 -0.08,0 0.03,0 0.06,0 0.08,0 m -0.33,0 c -0.01,0 -0.01,0 -0.02,0 0,0 0.01,0 0.02,0 m 81.69,80.511 c 0,0.039 0,0.071 0,0.11 0,-0.039 0,-0.071 0,-0.11 m 0,0.278 c 0,0.043 0,0.082 0,0.121 0,-0.039 0,-0.078 0,-0.121 m 0,0.281 c 0,0.039 0,0.082 0,0.109 0,-0.027 0,-0.07 0,-0.109 m 0,0.301 c 0,0.027 0,0.07 0,0.09 0,-0.032 0,-0.063 0,-0.09 m -0.01,0.308 c 0,0.02 0,0.043 0,0.063 0,-0.02 0,-0.043 0,-0.063"
         style="fill:#1c1716;fill-opacity:1;fill-rule:nonzero;stroke:none"
         id="path444" /><path
         d="m 6341.11,386.422 v 0 c -0.09,0 -0.18,0 -0.28,0 -0.03,0 -0.07,0 -0.1,0 -0.06,0 -0.13,0 -0.18,0 -0.04,0 -0.08,0 -0.11,0 -0.06,0 -0.12,0 -0.18,0 -0.03,0 -0.07,0 -0.1,0 -0.07,0 -0.13,0.008 -0.2,0.008 -0.02,0 -0.05,0 -0.08,0 -0.08,0 -0.17,0 -0.25,0 -0.01,0 -0.02,0 -0.02,0 -24.97,0.461 -47.1,12.379 -61.49,30.621 13.65,-10.781 30.86,-17.25 49.6,-17.25 44.32,0 80.23,35.91 80.23,80.219 0,18.75 -6.47,35.972 -17.23,49.628 18.24,-14.398 30.13,-36.539 30.59,-61.476 0,-0.02 0,-0.043 0,-0.063 0,-0.07 0,-0.148 0.01,-0.218 0,-0.02 0,-0.063 0,-0.09 0,-0.059 0,-0.121 0,-0.192 0,-0.027 0,-0.07 0,-0.109 0,-0.051 0,-0.109 0,-0.16 0,-0.039 0,-0.078 0,-0.121 0,-0.059 0,-0.11 0,-0.168 0,-0.039 0,-0.071 0,-0.11 0,-0.089 0,-0.191 0,-0.281 0,-31.949 -18.67,-59.531 -45.68,-72.449 -4.7,-2.242 -9.65,-4.039 -14.8,-5.352 -6.31,-1.589 -12.92,-2.437 -19.73,-2.437"
         style="fill:#141311;fill-opacity:1;fill-rule:nonzero;stroke:none"
         id="path446" /><path
         d="m 5057.02,453.281 c 0,-44.312 -35.93,-80.23 -80.24,-80.23 -44.31,0 -80.23,35.918 -80.23,80.23 0,44.321 35.92,80.239 80.23,80.239 44.31,0 80.24,-35.918 80.24,-80.239"
         style="fill:#2f2e2e;fill-opacity:1;fill-rule:nonzero;stroke:none"
         id="path448" /><path
         d="m 4976.5,373.051 c -0.03,0 -0.07,0 -0.11,0 0.04,0 0.08,0 0.11,0 m -0.28,0 c -0.04,0 -0.08,0 -0.12,0 0.04,0 0.08,0 0.12,0 m -0.28,0 c -0.04,0 -0.08,0 -0.11,0.008 0.03,-0.008 0.07,-0.008 0.11,-0.008 m -0.3,0.008 c -0.03,0 -0.06,0 -0.09,0 0.03,0 0.06,0 0.09,0 m -0.31,0 c -0.02,0 -0.04,0 -0.06,0 0.02,0 0.04,0 0.06,0 m 81.68,80.504 c 0,0.039 0,0.066 0,0.109 0,-0.043 0,-0.07 0,-0.109 m 0,0.289 c 0,0.027 0,0.07 0,0.097 0,-0.027 0,-0.07 0,-0.097 m 0,0.277 c 0,0.031 0,0.07 0,0.101 0,-0.031 0,-0.058 0,-0.101 m 0,0.301 c 0,0.031 0,0.05 0,0.082 0,-0.032 0,-0.051 0,-0.082 m -0.01,0.332 c 0,0.008 0,0.019 0,0.019 0,0 0,-0.011 0,-0.019"
         style="fill:#281616;fill-opacity:1;fill-rule:nonzero;stroke:none"
         id="path450" /><path
         d="m 4976.78,373.051 v 0 c -0.09,0 -0.18,0 -0.28,0 -0.03,0 -0.07,0 -0.11,0 -0.05,0 -0.11,0 -0.17,0 -0.04,0 -0.08,0 -0.12,0 -0.05,0 -0.11,0 -0.16,0 -0.04,0 -0.08,0 -0.11,0.008 -0.06,0 -0.13,0 -0.19,0 -0.03,0 -0.06,0 -0.09,0 -0.08,0 -0.15,0 -0.22,0 -0.02,0 -0.04,0 -0.06,0 -24.96,0.472 -47.06,12.363 -61.47,30.613 13.65,-10.781 30.85,-17.25 49.61,-17.25 44.31,0 80.24,35.93 80.24,80.238 0,18.731 -6.5,35.942 -17.25,49.602 18.24,-14.391 30.14,-36.512 30.6,-61.481 0,0 0,-0.011 0,-0.019 0,-0.082 0,-0.16 0.01,-0.25 0,-0.032 0,-0.051 0,-0.082 0,-0.071 0,-0.129 0,-0.2 0,-0.031 0,-0.07 0,-0.101 0,-0.059 0,-0.117 0,-0.18 0,-0.027 0,-0.07 0,-0.097 0,-0.063 0,-0.122 0,-0.18 0,-0.043 0,-0.07 0,-0.109 0,-0.094 0.01,-0.184 0.01,-0.282 0,-44.312 -35.93,-80.23 -80.24,-80.23"
         style="fill:#141311;fill-opacity:1;fill-rule:nonzero;stroke:none"
         id="path452" /><path
         d="M 5384.65,2107.01 H 4880.97 L 4831.91,466.66 h 552.74 v 1640.35"
         style="fill:#63341e;fill-opacity:1;fill-rule:nonzero;stroke:none"
         id="path454" /><path
         d="M 6507.94,2107.01 H 5384.65 V 466.66 l 1100.99,22.289 22.3,1618.061"
         style="fill:#a54f29;fill-opacity:1;fill-rule:nonzero;stroke:none"
         id="path456" /><path
         d="M 6456.69,2028.99 H 5435.9 V 466.66 l 1000.55,21.231 20.24,1541.099"
         style="fill:#2f2e2e;fill-opacity:1;fill-rule:nonzero;stroke:none"
         id="path458" /><path
         d="m 4008.78,1024.88 c 0,0 -276.86,18.27 -256.37,219.19 0,0 -212.23,-155.47 -144.67,-391.941 0,0 265.31,-97.379 401.04,172.751"
         style="fill:#ffffff;fill-opacity:1;fill-rule:nonzero;stroke:none"
         id="path460" /><path
         d="m 1349.71,480.629 c 0,0 22.46,-47.41 181.87,12.871 31.91,33.18 38.62,99.309 43.19,142.441 14.77,123.098 29.52,246.168 29.52,371.719 0,184.63 -22.17,356.95 -66.48,534.2 -22.15,95.99 -46.77,187.08 -61.54,285.54 -14.75,81.23 -7.37,150.16 -9.84,231.41 l -3.29,4.1 c -20.49,-9.84 -36.91,-26.26 -50.04,-45.94 -14.77,-20.53 -21.35,-47.61 -35.29,-67.3 l -2.46,1.64 c -44.3,14.79 -91.09,38.56 -139.49,44.32 -32.83,3.28 -71.39,1.64 -104.22,-2.46 -22.16,-2.46 -44.31,-6.59 -65.64,-13.96 -15.58,-4.91 -34.46,-18.06 -50.05,-18.06 v 2.47 c -5.74,19.69 -11.49,39.41 -25.446,54.98 -22.984,25.44 -50.887,31.19 -83.711,35.29 l 0.031,-1.64 c 72.18,-65.67 39.387,-318.41 29.539,-410.29 -9.855,-85.34 -32.84,-167.39 -39.406,-252.74 -6.547,-85.33 0,-177.23 -3.281,-262.6 -3.266,-95.15 0,-193.628 0,-288.811 0,-108.321 -29.531,-180.52 -59.067,-279 C 558.883,525.98 572.016,847.66 588.438,1044.61 c 7.839,109.7 15.593,221.47 -39.454,313.83 -70.433,36.21 -177.199,106.56 -204.242,32.11 17.676,-0.39 34.696,-0.59 46.738,-4.63 39.395,-9.8 88.641,-45.92 108.325,-85.31 32.828,-68.93 13.125,-183.79 6.582,-259.3 -16.414,-177.271 -45.973,-436.54 108.308,-557.99 59.09,-45.949 154.246,-42.668 223.192,-45.949 59.07,-3.293 124.726,-6.57 180.513,-3.293 l 3.14,0.262 c 11.28,9.172 354.97,13.422 358.75,23.75"
         style="fill:#1c1b1b;fill-opacity:1;fill-rule:nonzero;stroke:none"
         id="path462" /><path
         d="m 1130.67,573.891 c -19.58,-16.7 -43.16,-29.961 -61.82,-51.172 -36.91,-41.86 34.49,-50.457 64.03,-51.699 38.16,-1.231 65.22,11.089 76.3,50.46 8.52,28.68 8.74,59.211 8.65,89.192 -30.5,-10.383 -60.97,-27.332 -87.16,-36.781"
         style="fill:#ffffff;fill-opacity:1;fill-rule:nonzero;stroke:none"
         id="path464" /><path
         d="m 1318.73,585.492 c -2.22,5.656 -3.93,11.598 -5.38,17.637 -2.37,1.191 -4.76,2.5 -7.18,4.101 -22.86,15.329 -49.07,14.61 -75.75,7.321 0.75,-8.461 1.54,-16.969 2.15,-25.371 2.46,-28.309 4.93,-84.93 30.78,-103.399 19.69,-13.519 91.08,-15.992 104.62,7.41 23.4,41.84 -35.7,59.059 -49.24,92.301"
         style="fill:#ffffff;fill-opacity:1;fill-rule:nonzero;stroke:none"
         id="path466" /><path
         d="m 1248.17,1527.08 c -26.26,29.54 -68.93,22.98 -98.47,6.55 -62.37,-32.8 -62.37,-101.73 -62.37,-164.1 0,-88.63 3.29,-315.08 95.19,-351.19 131.28,-49.238 193.66,49.22 210.06,170.67 13.14,95.19 -19.69,331.48 -137.84,347.92"
         style="fill:#ffffff;fill-opacity:1;fill-rule:nonzero;stroke:none"
         id="path468" /><path
         d="m 1066.88,1842.74 c 1.97,-7.78 4.33,-15.71 4.5,-23.81 0.34,-15.85 24.94,-15.86 24.62,0 -0.23,10.29 -2.88,20.43 -5.36,30.35 -3.85,15.41 -27.61,8.88 -23.76,-6.54"
         style="fill:#ffffff;fill-opacity:1;fill-rule:nonzero;stroke:none"
         id="path470" /><path
         d="m 1265.84,1866.96 c 0,-6.18 0,-12.33 0,-18.48 0,-15.88 24.61,-15.88 24.61,0 0,6.15 0,12.3 0,18.48 0,15.85 -24.61,15.85 -24.61,0"
         style="fill:#ffffff;fill-opacity:1;fill-rule:nonzero;stroke:none"
         id="path472" /><path
         d="m 1190.79,1784.47 c 2.89,-0.1 -2.87,0.66 0.26,-0.05 1.03,-0.23 1.99,-0.61 2.97,-0.96 -2.88,1.05 4.43,-3.1 2.17,-1.29 l 2.26,-2.19 c -1.99,2.17 0.25,-1.83 -0.87,1.38 -0.52,1.49 0,3.09 0.65,4.41 1.09,2.26 -1.77,-1.01 1.04,0.92 l 1.45,0.58 c -1.3,-0.33 -1.03,-0.33 0.83,0.03 -2.85,-0.24 2.66,-0.7 -0.25,-0.03 -2.96,0.68 2.2,-1.23 -0.58,0.15 -0.51,0.25 -3,2.07 -0.7,0.22 -0.47,0.37 -2.5,2.7 -0.6,0.23 -0.54,0.71 -1.4,3.12 -0.34,0.18 -0.75,2.11 -0.02,-1.7 -0.16,-2.36 l -0.59,-1.27 c 0.69,1.13 0.67,1.09 -0.07,-0.04 4.51,4.96 4.9,12.51 0,17.4 -4.61,4.59 -12.91,4.98 -17.41,0 -8.49,-9.29 -7.66,-21.04 0.41,-30.27 6.99,-7.95 20.16,-11.49 29.7,-6.45 10.59,5.57 14.27,19.16 7.42,29.06 -6.08,8.79 -16.96,14.55 -27.59,14.96 -6.73,0.28 -12.33,-5.76 -12.33,-12.3 0,-6.9 5.6,-12.03 12.33,-12.31"
         style="fill:#ffffff;fill-opacity:1;fill-rule:nonzero;stroke:none"
         id="path474" /><path
         d="m 1185.86,1782.03 c -0.33,-38.18 10.23,-75.19 11.07,-113.26 0.36,-15.85 24.95,-15.89 24.62,0 -0.84,38.07 -11.4,75.12 -11.09,113.26 0.15,15.86 -24.49,15.86 -24.6,0"
         style="fill:#ffffff;fill-opacity:1;fill-rule:nonzero;stroke:none"
         id="path476" /><path
         d="m 1296.26,1752.28 c 30.62,13.39 54.92,36.51 83.65,53.25 45.59,26.56 111.31,35.27 162.69,41.11 7.82,0.9 7.89,13.19 0,12.31 -47.28,-5.41 -92.94,-15.61 -138.14,-30.51 -43.23,-14.22 -73.47,-47.58 -114.4,-65.51 -7.25,-3.18 -1.01,-13.79 6.2,-10.65"
         style="fill:#ffffff;fill-opacity:1;fill-rule:nonzero;stroke:none"
         id="path478" /><path
         d="m 1298.07,1716.96 c 75.54,7.05 150.51,18.75 226.49,19.72 7.94,0.09 7.94,12.39 0,12.32 -75.98,-0.97 -150.95,-12.66 -226.49,-19.72 -7.82,-0.72 -7.9,-13.03 0,-12.32"
         style="fill:#ffffff;fill-opacity:1;fill-rule:nonzero;stroke:none"
         id="path480" /><path
         d="m 1312.86,1686.02 c 28.86,-6.66 58.03,-11.74 86.98,-18.05 7.74,-1.67 11.02,10.18 3.26,11.88 -28.93,6.32 -58.1,11.38 -86.97,18.04 -7.72,1.76 -11.01,-10.1 -3.27,-11.87"
         style="fill:#ffffff;fill-opacity:1;fill-rule:nonzero;stroke:none"
         id="path482" /><path
         d="m 1099.49,1748.75 c -91.37,19.63 -185.99,19.57 -275.689,-8.19 -7.574,-2.34 -4.328,-14.25 3.262,-11.88 87.671,27.14 179.847,27.38 269.167,8.2 7.74,-1.66 11.05,10.21 3.26,11.87"
         style="fill:#ffffff;fill-opacity:1;fill-rule:nonzero;stroke:none"
         id="path484" /><path
         d="m 1038.8,1721.1 c -61.784,1.38 -116.808,-27.47 -163.55,-65.81 -6.152,-5.03 2.605,-13.72 8.699,-8.73 44.188,36.25 96.426,63.52 154.851,62.21 7.95,-0.17 7.92,12.13 0,12.33"
         style="fill:#ffffff;fill-opacity:1;fill-rule:nonzero;stroke:none"
         id="path486" /><path
         d="m 1051.93,1673.48 c -53.938,2.95 -81.164,-43.13 -112.672,-78.93 -5.215,-5.92 3.453,-14.67 8.687,-8.71 28.926,32.88 54.095,78.03 103.985,75.35 7.92,-0.44 7.89,11.88 0,12.29"
         style="fill:#ffffff;fill-opacity:1;fill-rule:nonzero;stroke:none"
         id="path488" /></g></g></svg>
