<?xml version="1.0" encoding="UTF-8" standalone="no"?>
<!-- Created with Inkscape (http://www.inkscape.org/) -->

<svg
   xmlns:dc="http://purl.org/dc/elements/1.1/"
   xmlns:cc="http://creativecommons.org/ns#"
   xmlns:rdf="http://www.w3.org/1999/02/22-rdf-syntax-ns#"
   xmlns:svg="http://www.w3.org/2000/svg"
   xmlns="http://www.w3.org/2000/svg"
   xmlns:sodipodi="http://sodipodi.sourceforge.net/DTD/sodipodi-0.dtd"
   xmlns:inkscape="http://www.inkscape.org/namespaces/inkscape"
   width="150"
   height="150"
   viewBox="0 0 39.687499 39.687499"
   version="1.1"
   id="svg1987"
   inkscape:version="0.92.4 (5da689c313, 2019-01-14)"
   sodipodi:docname="two_tone_calendar.svg"
   inkscape:export-filename="C:\Users\Keegan\repos\cannlytics-website\assets\images\lab_icons\two_tone_calendar.png"
   inkscape:export-xdpi="96"
   inkscape:export-ydpi="96">
  <defs
     id="defs1981">
    <clipPath
       clipPathUnits="userSpaceOnUse"
       id="clipPath238">
      <path
         d="m 5440.09,7219.29 -0.38,257.5 257.5,0.38 0.38,-257.49 z"
         id="path236"
         inkscape:connector-curvature="0" />
    </clipPath>
  </defs>
  <sodipodi:namedview
     id="base"
     pagecolor="#ffffff"
     bordercolor="#666666"
     borderopacity="1.0"
     inkscape:pageopacity="0.0"
     inkscape:pageshadow="2"
     inkscape:zoom="1.979899"
     inkscape:cx="-15.542558"
     inkscape:cy="57.366681"
     inkscape:document-units="mm"
     inkscape:current-layer="layer1"
     showgrid="false"
     fit-margin-top="0"
     fit-margin-left="0"
     fit-margin-right="0"
     fit-margin-bottom="0"
     units="px"
     inkscape:window-width="1636"
     inkscape:window-height="912"
     inkscape:window-x="2593"
     inkscape:window-y="54"
     inkscape:window-maximized="0" />
  <metadata
     id="metadata1984">
    <rdf:RDF>
      <cc:Work
         rdf:about="">
        <dc:format>image/svg+xml</dc:format>
        <dc:type
           rdf:resource="http://purl.org/dc/dcmitype/StillImage" />
        <dc:title></dc:title>
      </cc:Work>
    </rdf:RDF>
  </metadata>
  <g
     inkscape:label="Layer 1"
     inkscape:groupmode="layer"
     id="layer1"
     transform="translate(-101.80076,-164.15401)">
    <path
       d="m 107.998,199.32119 -1.55574,-1.39982 1.55574,-13.22141 27.31206,-13.84688 1.5554,1.40159 v 7.87012 10.37802 8.81838 H 107.998"
       style="fill:#9cdee4;fill-opacity:1;fill-rule:nonzero;stroke:none;stroke-width:0.03527778"
       id="path76"
       inkscape:connector-curvature="0" />
    <path
       d="m 108.13312,198.96841 h 28.37956 v -26.55675 l -1.25906,-1.13454 -26.92753,13.6518 -1.51201,12.8524 z m 29.08511,0.70556 h -29.35569 l -1.79175,-1.61255 1.59878,-13.59041 27.69729,-14.04232 1.85137,1.66899 v 27.57629"
       style="fill:#2e6096;fill-opacity:1;fill-rule:nonzero;stroke:none;stroke-width:0.03527778"
       id="path78"
       inkscape:connector-curvature="0" />
    <path
       d="m 106.44226,197.92137 v -19.44864 l 7.61753,-7.61824 h 21.25027 v 7.87012 10.37731 8.81945 h -28.8678"
       style="fill:#9cdee4;fill-opacity:1;fill-rule:nonzero;stroke:none;stroke-width:0.03527778"
       id="path80"
       inkscape:connector-curvature="0" />
    <path
       d="m 106.79504,197.56859 h 28.16225 v -26.36132 h -20.75145 l -7.4108,7.41151 z m 28.8678,0.70556 h -29.57336 v -19.94747 l 7.82426,-7.82496 h 21.7491 v 27.77243"
       style="fill:#2e6096;fill-opacity:1;fill-rule:nonzero;stroke:none;stroke-width:0.03527778"
       id="path82"
       inkscape:connector-curvature="0" />
    <path
       d="m 135.31006,170.85308 v 20.46006 l -6.60541,6.60576 h -22.26239 v -7.86941 -10.37837 -8.81804 h 28.8678"
       style="fill:#ffffff;fill-opacity:1;fill-rule:nonzero;stroke:none;stroke-width:0.03527778"
       id="path84"
       inkscape:connector-curvature="0" />
    <path
       d="m 106.79504,197.56612 h 21.76356 l 6.39869,-6.39903 v -19.96123 h -28.16225 z m 22.05566,0.70556 h -22.76122 v -27.77137 h 29.57336 v 20.95888 l -6.81214,6.81249"
       style="fill:#2e6096;fill-opacity:1;fill-rule:nonzero;stroke:none;stroke-width:0.03527778"
       id="path86"
       inkscape:connector-curvature="0" />
    <path
       d="m 106.79504,177.03481 v -5.82895 h 28.16225 v 5.82895 h -28.16225"
       style="fill:#f2552d;fill-opacity:1;fill-rule:nonzero;stroke:none;stroke-width:0.03527778"
       id="path88"
       inkscape:connector-curvature="0" />
    <path
       d="m 115.46278,181.16196 c 0.53622,0 1.02694,0.079 1.4725,0.23741 0.44485,0.15805 0.82551,0.38206 1.14229,0.67169 0.31644,0.28963 0.56339,0.63853 0.74013,1.04599 0.17709,0.40746 0.26564,0.86078 0.26564,1.35961 0,0.42933 -0.0632,0.8262 -0.18908,1.19097 -0.12594,0.36478 -0.29527,0.71332 -0.50694,1.04564 -0.21202,0.33267 -0.46002,0.65475 -0.74436,0.96555 -0.284,0.3115 -0.58173,0.62759 -0.89289,0.94968 l -2.6229,2.67899 c 0.25752,-0.0748 0.50941,-0.13264 0.75635,-0.17286 0.24659,-0.0402 0.4826,-0.0603 0.70803,-0.0603 h 2.98485 c 0.21449,0 0.38488,0.0603 0.51082,0.18097 0.1263,0.12065 0.18909,0.28046 0.18909,0.47872 v 1.19062 h -7.98124 v -0.65969 c 0,-0.13406 0.0279,-0.2734 0.0843,-0.41839 0.0564,-0.14464 0.1464,-0.2787 0.26952,-0.40217 l 3.53237,-3.54013 c 0.29493,-0.30021 0.55916,-0.58737 0.79234,-0.86077 0.23318,-0.27376 0.42934,-0.54434 0.58738,-0.8128 0.15804,-0.26811 0.27868,-0.54011 0.36194,-0.81668 0.0833,-0.27623 0.12488,-0.56727 0.12488,-0.87278 0,-0.27904 -0.0402,-0.52422 -0.12064,-0.73624 -0.0804,-0.21202 -0.19614,-0.39018 -0.34607,-0.53517 -0.15029,-0.14464 -0.32844,-0.25329 -0.53517,-0.32596 -0.20637,-0.0723 -0.43815,-0.10831 -0.69603,-0.10831 -0.4773,0 -0.86995,0.12065 -1.17827,0.36195 -0.30868,0.2413 -0.52458,0.56586 -0.6477,0.97332 -0.0593,0.20426 -0.14782,0.35031 -0.26565,0.43885 -0.11782,0.0885 -0.26846,0.13265 -0.45085,0.13265 -0.0801,0 -0.16862,-0.008 -0.26528,-0.024 l -1.04564,-0.18521 c 0.0801,-0.55774 0.23566,-1.04705 0.46637,-1.46826 0.23037,-0.42122 0.51894,-0.77259 0.86502,-1.0541 0.34572,-0.28152 0.74259,-0.49354 1.19062,-0.63571 0.44768,-0.14181 0.92957,-0.21308 1.44427,-0.21308"
       style="fill:#2e6096;fill-opacity:1;fill-rule:nonzero;stroke:none;stroke-width:0.03527778"
       id="path90"
       inkscape:connector-curvature="0" />
    <path
       d="m 127.90914,182.13527 c 0,0.28469 -0.09,0.51505 -0.26953,0.69215 -0.17956,0.17709 -0.47872,0.26564 -0.89711,0.26564 h -3.20216 l -0.41805,2.42958 c 0.52529,-0.10724 1.00542,-0.16087 1.44004,-0.16087 0.61137,0 1.149,0.0914 1.6129,0.27341 0.46391,0.18238 0.85443,0.43462 1.17052,0.75635 0.31679,0.32174 0.55562,0.69886 0.71649,1.1303 0.16087,0.43216 0.2413,0.89712 0.2413,1.3963 0,0.61665 -0.10865,1.18004 -0.32597,1.68945 -0.21731,0.50976 -0.51893,0.94544 -0.90522,1.30739 -0.3863,0.36195 -0.8435,0.64241 -1.3716,0.84067 -0.52846,0.19862 -1.10385,0.29775 -1.72579,0.29775 -0.36513,0 -0.71085,-0.0374 -1.03823,-0.11254 -0.32702,-0.0751 -0.63429,-0.17568 -0.9211,-0.30162 -0.28716,-0.12594 -0.55245,-0.27094 -0.79657,-0.43463 -0.24377,-0.16333 -0.46249,-0.33655 -0.65546,-0.51893 l 0.61136,-0.84455 c 0.12841,-0.18239 0.30057,-0.27376 0.5147,-0.27376 0.13406,0 0.26988,0.043 0.4064,0.12877 0.13688,0.0857 0.29634,0.17956 0.47872,0.28151 0.18239,0.10196 0.39441,0.19615 0.63571,0.28152 0.2413,0.0861 0.5334,0.12876 0.877,0.12876 0.36478,0 0.68651,-0.0589 0.96556,-0.17674 0.27869,-0.11782 0.51117,-0.28292 0.69603,-0.49494 0.18485,-0.21167 0.3242,-0.46391 0.41804,-0.75636 0.0938,-0.2921 0.14111,-0.60995 0.14111,-0.95356 0,-0.63253 -0.18415,-1.12748 -0.55139,-1.48449 -0.3676,-0.3563 -0.9077,-0.53481 -1.62102,-0.53481 -0.56338,0 -1.12924,0.10195 -1.69792,0.30586 l -1.23895,-0.35419 0.96555,-5.64797 h 5.74464 v 0.84455"
       style="fill:#2e6096;fill-opacity:1;fill-rule:nonzero;stroke:none;stroke-width:0.03527778"
       id="path92"
       inkscape:connector-curvature="0" />
    <path
       d="m 113.42162,174.11981 h -0.42792 c -0.42933,0 -0.77787,-0.3489 -0.77787,-0.77753 v -2.64512 c 0,-0.42934 0.34854,-0.77859 0.77787,-0.77859 h 0.42792 c 0.40111,0 0.72073,0.30974 0.76129,0.70027 h 1.25378 c -0.0423,-1.07844 -0.9271,-1.94451 -2.01507,-1.94451 h -1.40088 c -1.11478,0 -2.02283,0.90769 -2.02283,2.02283 v 2.64512 c 0,1.11478 0.90805,2.02283 2.02283,2.02283 h 1.40088 c 0.34396,0 0.62195,-0.27869 0.62195,-0.623 0,-0.34396 -0.27799,-0.6223 -0.62195,-0.6223"
       style="fill:#ffffff;fill-opacity:1;fill-rule:nonzero;stroke:none;stroke-width:0.03527778"
       id="path94"
       inkscape:connector-curvature="0" />
    <path
       d="m 112.02074,169.02711 c -0.92075,0 -1.67005,0.74894 -1.67005,1.67005 v 2.64512 c 0,0.92075 0.7493,1.67005 1.67005,1.67005 h 1.40088 c 0.14816,0 0.26917,-0.12135 0.26917,-0.27022 0,-0.14852 -0.121,-0.26953 -0.26917,-0.26953 h -0.42792 c -0.62371,0 -1.13065,-0.50694 -1.13065,-1.1303 v -2.64512 c 0,-0.62372 0.50694,-1.13136 1.13065,-1.13136 h 0.42792 c 0.4632,0 0.86466,0.28539 1.03328,0.70026 h 0.57467 c -0.18908,-0.7179 -0.83714,-1.23895 -1.60796,-1.23895 z m 1.40088,6.69078 h -1.40088 c -1.30986,0 -2.37561,-1.06574 -2.37561,-2.37561 v -2.64512 c 0,-1.30987 1.06575,-2.37561 2.37561,-2.37561 h 1.40088 c 1.27741,0 2.3174,1.00295 2.36749,2.28353 l 0.0148,0.36654 h -1.93923 l -0.0325,-0.31609 c -0.0233,-0.21908 -0.19967,-0.38418 -0.41063,-0.38418 h -0.42792 c -0.23424,0 -0.4251,0.19086 -0.4251,0.42581 v 2.64512 c 0,0.23425 0.19086,0.42475 0.4251,0.42475 h 0.42792 c 0.53728,0 0.97473,0.43744 0.97473,0.97508 0,0.53798 -0.43745,0.97578 -0.97473,0.97578"
       style="fill:#2e6096;fill-opacity:1;fill-rule:nonzero;stroke:none;stroke-width:0.03527778"
       id="path96"
       inkscape:connector-curvature="0" />
    <path
       d="m 128.20265,174.11981 h -0.42863 c -0.42861,0 -0.77751,-0.3489 -0.77751,-0.77753 v -2.64512 c 0,-0.42934 0.3489,-0.77859 0.77751,-0.77859 h 0.42863 c 0.40146,0 0.72107,0.30974 0.76164,0.70027 h 1.25307 c -0.0416,-1.07844 -0.92569,-1.94451 -2.01471,-1.94451 h -1.40124 c -1.11513,0 -2.02247,0.90769 -2.02247,2.02283 v 2.64512 c 0,1.11478 0.90734,2.02283 2.02247,2.02283 h 1.40124 c 0.3436,0 0.62159,-0.27869 0.62159,-0.623 0,-0.34396 -0.27799,-0.6223 -0.62159,-0.6223"
       style="fill:#ffffff;fill-opacity:1;fill-rule:nonzero;stroke:none;stroke-width:0.03527778"
       id="path98"
       inkscape:connector-curvature="0" />
    <path
       d="m 126.80141,169.02711 c -0.92075,0 -1.66969,0.74894 -1.66969,1.67005 v 2.64512 c 0,0.92075 0.74894,1.67005 1.66969,1.67005 h 1.40124 c 0.14816,0 0.26881,-0.12135 0.26881,-0.27022 0,-0.14852 -0.12065,-0.26953 -0.26881,-0.26953 h -0.42863 c -0.623,0 -1.1303,-0.50694 -1.1303,-1.1303 v -2.64512 c 0,-0.62372 0.5073,-1.13136 1.1303,-1.13136 h 0.42863 c 0.46355,0 0.86501,0.28539 1.03399,0.70026 h 0.57397 c -0.18908,-0.7179 -0.83644,-1.23895 -1.60796,-1.23895 z m 1.40124,6.69078 h -1.40124 c -1.30986,0 -2.37525,-1.06574 -2.37525,-2.37561 v -2.64512 c 0,-1.30987 1.06539,-2.37561 2.37525,-2.37561 h 1.40124 c 1.27776,0 2.31775,1.00295 2.36713,2.28388 l 0.0141,0.36619 h -1.93746 l -0.0332,-0.31609 c -0.0226,-0.21908 -0.19897,-0.38418 -0.41063,-0.38418 h -0.42856 c -0.23424,0 -0.42474,0.19086 -0.42474,0.42581 v 2.64512 c 0,0.23425 0.1905,0.42475 0.42474,0.42475 h 0.42862 c 0.53692,0 0.97438,0.43744 0.97438,0.97508 0,0.53798 -0.43746,0.97578 -0.97438,0.97578"
       style="fill:#2e6096;fill-opacity:1;fill-rule:nonzero;stroke:none;stroke-width:0.03527778"
       id="path100"
       inkscape:connector-curvature="0" />
    <path
       d="m 128.53038,191.13781 h 6.4082 l -6.4082,6.40891 z"
       style="fill:#f2552d;fill-opacity:1;fill-rule:nonzero;stroke:none;stroke-width:0.03527778"
       id="path102"
       inkscape:connector-curvature="0" />
  </g>
</svg>
