<?xml version="1.0" encoding="UTF-8" standalone="no"?>
<!-- Created with Inkscape (http://www.inkscape.org/) -->

<svg
   xmlns:dc="http://purl.org/dc/elements/1.1/"
   xmlns:cc="http://creativecommons.org/ns#"
   xmlns:rdf="http://www.w3.org/1999/02/22-rdf-syntax-ns#"
   xmlns:svg="http://www.w3.org/2000/svg"
   xmlns="http://www.w3.org/2000/svg"
   xmlns:sodipodi="http://sodipodi.sourceforge.net/DTD/sodipodi-0.dtd"
   xmlns:inkscape="http://www.inkscape.org/namespaces/inkscape"
   width="150"
   height="150"
   viewBox="0 0 39.687499 39.687499"
   version="1.1"
   id="svg1987"
   inkscape:version="0.92.4 (5da689c313, 2019-01-14)"
   sodipodi:docname="two_tone_stats.svg"
   inkscape:export-filename="C:\Users\Keegan\repos\cannlytics-website\assets\images\lab_icons\two_tone_stats.png"
   inkscape:export-xdpi="96"
   inkscape:export-ydpi="96">
  <defs
     id="defs1981">
    <clipPath
       clipPathUnits="userSpaceOnUse"
       id="clipPath238">
      <path
         d="m 5440.09,7219.29 -0.38,257.5 257.5,0.38 0.38,-257.49 z"
         id="path236"
         inkscape:connector-curvature="0" />
    </clipPath>
  </defs>
  <sodipodi:namedview
     id="base"
     pagecolor="#ffffff"
     bordercolor="#666666"
     borderopacity="1.0"
     inkscape:pageopacity="0.0"
     inkscape:pageshadow="2"
     inkscape:zoom="1.979899"
     inkscape:cx="-15.542558"
     inkscape:cy="57.366681"
     inkscape:document-units="mm"
     inkscape:current-layer="layer1"
     showgrid="false"
     fit-margin-top="0"
     fit-margin-left="0"
     fit-margin-right="0"
     fit-margin-bottom="0"
     units="px"
     inkscape:window-width="1636"
     inkscape:window-height="912"
     inkscape:window-x="2593"
     inkscape:window-y="54"
     inkscape:window-maximized="0" />
  <metadata
     id="metadata1984">
    <rdf:RDF>
      <cc:Work
         rdf:about="">
        <dc:format>image/svg+xml</dc:format>
        <dc:type
           rdf:resource="http://purl.org/dc/dcmitype/StillImage" />
        <dc:title></dc:title>
      </cc:Work>
    </rdf:RDF>
  </metadata>
  <g
     inkscape:label="Layer 1"
     inkscape:groupmode="layer"
     id="layer1"
     transform="translate(-101.80076,-164.15401)">
    <path
       d="m 126.83617,168.97384 h -16.18474 v 30.04784 h 21.98617 v -5.99369 -7.90363 -2.25319 -8.0959 -5.80143 h -5.80143"
       style="fill:#ffffff;fill-opacity:1;fill-rule:nonzero;stroke:none;stroke-width:0.03527778"
       id="path202"
       inkscape:connector-curvature="0" />
    <path
       d="m 111.00421,198.66891 h 21.28061 v -29.34229 h -21.28061 z m 21.98616,0.70555 h -22.69172 v -30.7534 h 22.69172 v 30.7534"
       style="fill:#2e6096;fill-opacity:1;fill-rule:nonzero;stroke:none;stroke-width:0.03527778"
       id="path204"
       inkscape:connector-curvature="0" />
    <path
       d="m 126.55853,174.37098 h -15.31902 v 2.2024 h 20.81036 v -0.43956 -0.57927 -0.1651 -0.59337 -0.4251 h -5.49134"
       style="fill:#9cdee4;fill-opacity:1;fill-rule:nonzero;stroke:none;stroke-width:0.03527778"
       id="path206"
       inkscape:connector-curvature="0" />
    <path
       d="m 123.81851,175.76693 h -8.70197 v -0.70556 h 8.70197 v 0.70556"
       style="fill:#2e6096;fill-opacity:1;fill-rule:nonzero;stroke:none;stroke-width:0.03527778"
       id="path942"
       inkscape:connector-curvature="0" />
    <path
       d="m 120.87846,178.1189 h -5.76192 v -0.70556 h 5.76192 v 0.70556"
       style="fill:#2e6096;fill-opacity:1;fill-rule:nonzero;stroke:none;stroke-width:0.03527778"
       id="path944"
       inkscape:connector-curvature="0" />
    <path
       d="m 126.55853,179.07422 h -15.31902 v 2.20239 h 20.81036 v -0.43956 -0.57926 -0.1651 -0.59337 -0.4251 h -5.49134"
       style="fill:#9cdee4;fill-opacity:1;fill-rule:nonzero;stroke:none;stroke-width:0.03527778"
       id="path946"
       inkscape:connector-curvature="0" />
    <path
       d="m 123.81851,180.47051 h -8.70197 v -0.70555 h 8.70197 v 0.70555"
       style="fill:#2e6096;fill-opacity:1;fill-rule:nonzero;stroke:none;stroke-width:0.03527778"
       id="path948"
       inkscape:connector-curvature="0" />
    <path
       d="m 122.17209,182.82213 h -7.05555 v -0.70556 h 7.05555 v 0.70556"
       style="fill:#2e6096;fill-opacity:1;fill-rule:nonzero;stroke:none;stroke-width:0.03527778"
       id="path950"
       inkscape:connector-curvature="0" />
    <path
       d="m 126.55853,183.7778 h -15.31902 v 2.20204 h 20.81036 v -0.43956 -0.57926 -0.1651 -0.59337 -0.42475 h -5.49134"
       style="fill:#9cdee4;fill-opacity:1;fill-rule:nonzero;stroke:none;stroke-width:0.03527778"
       id="path952"
       inkscape:connector-curvature="0" />
    <path
       d="m 124.87684,185.17375 h -9.7603 v -0.70556 h 9.7603 v 0.70556"
       style="fill:#2e6096;fill-opacity:1;fill-rule:nonzero;stroke:none;stroke-width:0.03527778"
       id="path954"
       inkscape:connector-curvature="0" />
    <path
       d="m 130.87406,175.76693 h -2.82222 v -0.70556 h 2.82222 v 0.70556"
       style="fill:#2e6096;fill-opacity:1;fill-rule:nonzero;stroke:none;stroke-width:0.03527778"
       id="path956"
       inkscape:connector-curvature="0" />
    <path
       d="m 130.87406,178.1189 h -2.82222 v -0.70556 h 2.82222 v 0.70556"
       style="fill:#2e6096;fill-opacity:1;fill-rule:nonzero;stroke:none;stroke-width:0.03527778"
       id="path958"
       inkscape:connector-curvature="0" />
    <path
       d="m 130.87406,180.47051 h -2.82222 v -0.70555 h 2.82222 v 0.70555"
       style="fill:#2e6096;fill-opacity:1;fill-rule:nonzero;stroke:none;stroke-width:0.03527778"
       id="path960"
       inkscape:connector-curvature="0" />
    <path
       d="m 130.87406,182.82213 h -2.82222 v -0.70556 h 2.82222 v 0.70556"
       style="fill:#2e6096;fill-opacity:1;fill-rule:nonzero;stroke:none;stroke-width:0.03527778"
       id="path962"
       inkscape:connector-curvature="0" />
    <path
       d="m 130.87406,185.17375 h -2.82222 v -0.70556 h 2.82222 v 0.70556"
       style="fill:#2e6096;fill-opacity:1;fill-rule:nonzero;stroke:none;stroke-width:0.03527778"
       id="path964"
       inkscape:connector-curvature="0" />
    <path
       d="m 126.51161,188.48104 h -11.51255 v 6.96454 h 15.6397 v -1.39065 -1.83127 -0.52211 -1.87713 -1.34338 h -4.12715"
       style="fill:#9cdee4;fill-opacity:1;fill-rule:nonzero;stroke:none;stroke-width:0.03527778"
       id="path966"
       inkscape:connector-curvature="0" />
    <path
       d="m 115.35184,195.0928 h 14.93414 v -6.25898 h -14.93414 z m 15.6397,0.70555 h -16.34526 v -7.67009 h 16.34526 v 7.67009"
       style="fill:#2e6096;fill-opacity:1;fill-rule:nonzero;stroke:none;stroke-width:0.03527778"
       id="path968"
       inkscape:connector-curvature="0" />
    <path
       d="m 112.83794,175.1792 c -0.19473,0 -0.35277,0.15804 -0.35277,0.35278 0,0.19438 0.15804,0.35277 0.35277,0.35277 0.19474,0 0.35278,-0.15839 0.35278,-0.35277 0,-0.19474 -0.15804,-0.35278 -0.35278,-0.35278 z m 0,1.05833 c -0.38911,0 -0.70555,-0.31679 -0.70555,-0.70555 0,-0.38912 0.31644,-0.70556 0.70555,-0.70556 0.38877,0 0.70556,0.31644 0.70556,0.70556 0,0.38876 -0.31679,0.70555 -0.70556,0.70555"
       style="fill:#2e6096;fill-opacity:1;fill-rule:nonzero;stroke:none;stroke-width:0.03527778"
       id="path970"
       inkscape:connector-curvature="0" />
    <path
       d="m 112.83794,177.54069 c -0.19473,0 -0.35277,0.15805 -0.35277,0.35278 0,0.19473 0.15804,0.35278 0.35277,0.35278 0.19474,0 0.35278,-0.15805 0.35278,-0.35278 0,-0.19473 -0.15804,-0.35278 -0.35278,-0.35278 z m 0,1.05834 c -0.38911,0 -0.70555,-0.3168 -0.70555,-0.70556 0,-0.38911 0.31644,-0.70555 0.70555,-0.70555 0.38877,0 0.70556,0.31644 0.70556,0.70555 0,0.38876 -0.31679,0.70556 -0.70556,0.70556"
       style="fill:#2e6096;fill-opacity:1;fill-rule:nonzero;stroke:none;stroke-width:0.03527778"
       id="path972"
       inkscape:connector-curvature="0" />
    <path
       d="m 112.83794,170.71056 c -0.19473,0 -0.35277,0.15805 -0.35277,0.35278 0,0.19438 0.15804,0.35278 0.35277,0.35278 0.19474,0 0.35278,-0.1584 0.35278,-0.35278 0,-0.19473 -0.15804,-0.35278 -0.35278,-0.35278 z m 0,1.05834 c -0.38911,0 -0.70555,-0.3168 -0.70555,-0.70556 0,-0.38911 0.31644,-0.70556 0.70555,-0.70556 0.38877,0 0.70556,0.31645 0.70556,0.70556 0,0.38876 -0.31679,0.70556 -0.70556,0.70556"
       style="fill:#2e6096;fill-opacity:1;fill-rule:nonzero;stroke:none;stroke-width:0.03527778"
       id="path974"
       inkscape:connector-curvature="0" />
    <path
       d="m 112.83794,173.07206 c -0.19473,0 -0.35277,0.15804 -0.35277,0.35277 0,0.19474 0.15804,0.35278 0.35277,0.35278 0.19474,0 0.35278,-0.15804 0.35278,-0.35278 0,-0.19473 -0.15804,-0.35277 -0.35278,-0.35277 z m 0,1.05833 c -0.38911,0 -0.70555,-0.31679 -0.70555,-0.70556 0,-0.38911 0.31644,-0.70555 0.70555,-0.70555 0.38877,0 0.70556,0.31644 0.70556,0.70555 0,0.38877 -0.31679,0.70556 -0.70556,0.70556"
       style="fill:#2e6096;fill-opacity:1;fill-rule:nonzero;stroke:none;stroke-width:0.03527778"
       id="path976"
       inkscape:connector-curvature="0" />
    <path
       d="m 112.83794,179.90219 c -0.19473,0 -0.35277,0.15804 -0.35277,0.35278 0,0.19473 0.15804,0.35277 0.35277,0.35277 0.19474,0 0.35278,-0.15804 0.35278,-0.35277 0,-0.19474 -0.15804,-0.35278 -0.35278,-0.35278 z m 0,1.05833 c -0.38911,0 -0.70555,-0.31644 -0.70555,-0.70555 0,-0.38877 0.31644,-0.70556 0.70555,-0.70556 0.38877,0 0.70556,0.31679 0.70556,0.70556 0,0.38911 -0.31679,0.70555 -0.70556,0.70555"
       style="fill:#2e6096;fill-opacity:1;fill-rule:nonzero;stroke:none;stroke-width:0.03527778"
       id="path978"
       inkscape:connector-curvature="0" />
    <path
       d="m 112.83794,182.26403 c -0.19473,0 -0.35277,0.15805 -0.35277,0.35278 0,0.19438 0.15804,0.35278 0.35277,0.35278 0.19474,0 0.35278,-0.1584 0.35278,-0.35278 0,-0.19473 -0.15804,-0.35278 -0.35278,-0.35278 z m 0,1.05834 c -0.38911,0 -0.70555,-0.3168 -0.70555,-0.70556 0,-0.38911 0.31644,-0.70555 0.70555,-0.70555 0.38877,0 0.70556,0.31644 0.70556,0.70555 0,0.38876 -0.31679,0.70556 -0.70556,0.70556"
       style="fill:#2e6096;fill-opacity:1;fill-rule:nonzero;stroke:none;stroke-width:0.03527778"
       id="path980"
       inkscape:connector-curvature="0" />
    <path
       d="m 112.83794,184.62553 c -0.19473,0 -0.35277,0.15804 -0.35277,0.35278 0,0.19473 0.15804,0.35277 0.35277,0.35277 0.19474,0 0.35278,-0.15804 0.35278,-0.35277 0,-0.19474 -0.15804,-0.35278 -0.35278,-0.35278 z m 0,1.05833 c -0.38911,0 -0.70555,-0.31679 -0.70555,-0.70555 0,-0.38912 0.31644,-0.70556 0.70555,-0.70556 0.38877,0 0.70556,0.31644 0.70556,0.70556 0,0.38876 -0.31679,0.70555 -0.70556,0.70555"
       style="fill:#2e6096;fill-opacity:1;fill-rule:nonzero;stroke:none;stroke-width:0.03527778"
       id="path982"
       inkscape:connector-curvature="0" />
    <path
       d="m 112.83794,186.98738 c -0.19473,0 -0.35277,0.15804 -0.35277,0.35277 0,0.19474 0.15804,0.35278 0.35277,0.35278 0.19474,0 0.35278,-0.15804 0.35278,-0.35278 0,-0.19473 -0.15804,-0.35277 -0.35278,-0.35277 z m 0,1.05833 c -0.38911,0 -0.70555,-0.31644 -0.70555,-0.70556 0,-0.38876 0.31644,-0.70555 0.70555,-0.70555 0.38877,0 0.70556,0.31679 0.70556,0.70555 0,0.38912 -0.31679,0.70556 -0.70556,0.70556"
       style="fill:#2e6096;fill-opacity:1;fill-rule:nonzero;stroke:none;stroke-width:0.03527778"
       id="path984"
       inkscape:connector-curvature="0" />
    <path
       d="m 112.83794,189.34887 c -0.19473,0 -0.35277,0.1584 -0.35277,0.35278 0,0.19473 0.15804,0.35278 0.35277,0.35278 0.19474,0 0.35278,-0.15805 0.35278,-0.35278 0,-0.19438 -0.15804,-0.35278 -0.35278,-0.35278 z m 0,1.05833 c -0.38911,0 -0.70555,-0.31644 -0.70555,-0.70555 0,-0.38876 0.31644,-0.70556 0.70555,-0.70556 0.38877,0 0.70556,0.3168 0.70556,0.70556 0,0.38911 -0.31679,0.70555 -0.70556,0.70555"
       style="fill:#2e6096;fill-opacity:1;fill-rule:nonzero;stroke:none;stroke-width:0.03527778"
       id="path986"
       inkscape:connector-curvature="0" />
    <path
       d="m 112.83794,191.71072 c -0.19473,0 -0.35277,0.15804 -0.35277,0.35278 0,0.19473 0.15804,0.35277 0.35277,0.35277 0.19474,0 0.35278,-0.15804 0.35278,-0.35277 0,-0.19474 -0.15804,-0.35278 -0.35278,-0.35278 z m 0,1.05833 c -0.38911,0 -0.70555,-0.31679 -0.70555,-0.70555 0,-0.38912 0.31644,-0.70556 0.70555,-0.70556 0.38877,0 0.70556,0.31644 0.70556,0.70556 0,0.38876 -0.31679,0.70555 -0.70556,0.70555"
       style="fill:#2e6096;fill-opacity:1;fill-rule:nonzero;stroke:none;stroke-width:0.03527778"
       id="path988"
       inkscape:connector-curvature="0" />
    <path
       d="m 112.83794,194.07221 c -0.19473,0 -0.35277,0.15805 -0.35277,0.35278 0,0.19473 0.15804,0.35278 0.35277,0.35278 0.19474,0 0.35278,-0.15805 0.35278,-0.35278 0,-0.19473 -0.15804,-0.35278 -0.35278,-0.35278 z m 0,1.05834 c -0.38911,0 -0.70555,-0.31645 -0.70555,-0.70556 0,-0.38876 0.31644,-0.70556 0.70555,-0.70556 0.38877,0 0.70556,0.3168 0.70556,0.70556 0,0.38911 -0.31679,0.70556 -0.70556,0.70556"
       style="fill:#2e6096;fill-opacity:1;fill-rule:nonzero;stroke:none;stroke-width:0.03527778"
       id="path990"
       inkscape:connector-curvature="0" />
    <path
       d="m 112.83794,196.43406 c -0.19473,0 -0.35277,0.15804 -0.35277,0.35278 0,0.19438 0.15804,0.35277 0.35277,0.35277 0.19474,0 0.35278,-0.15839 0.35278,-0.35277 0,-0.19474 -0.15804,-0.35278 -0.35278,-0.35278 z m 0,1.05833 c -0.38911,0 -0.70555,-0.31679 -0.70555,-0.70555 0,-0.38912 0.31644,-0.70556 0.70555,-0.70556 0.38877,0 0.70556,0.31644 0.70556,0.70556 0,0.38876 -0.31679,0.70555 -0.70556,0.70555"
       style="fill:#2e6096;fill-opacity:1;fill-rule:nonzero;stroke:none;stroke-width:0.03527778"
       id="path992"
       inkscape:connector-curvature="0" />
    <path
       d="m 115.29363,194.83421 -0.58984,-0.387 2.72168,-4.1469 2.06657,2.31669 1.46826,-0.73413 1.39418,0.91123 1.99566,-3.26496 1.98649,2.17311 1.96639,-1.40405 2.4765,1.07985 -0.28187,0.64699 -2.10997,-0.92004 -2.14947,1.53529 -1.77589,-1.9424 -1.88524,3.08504 -1.6637,-1.08761 -1.58891,0.7941 -1.81363,-2.03376 -2.21721,3.37855"
       style="fill:#2e6096;fill-opacity:1;fill-rule:nonzero;stroke:none;stroke-width:0.03527778"
       id="path994"
       inkscape:connector-curvature="0" />
  </g>
</svg>
