<?xml version="1.0" encoding="UTF-8" standalone="no"?>
<!-- Created with Inkscape (http://www.inkscape.org/) -->

<svg
   xmlns:dc="http://purl.org/dc/elements/1.1/"
   xmlns:cc="http://creativecommons.org/ns#"
   xmlns:rdf="http://www.w3.org/1999/02/22-rdf-syntax-ns#"
   xmlns:svg="http://www.w3.org/2000/svg"
   xmlns="http://www.w3.org/2000/svg"
   xmlns:sodipodi="http://sodipodi.sourceforge.net/DTD/sodipodi-0.dtd"
   xmlns:inkscape="http://www.inkscape.org/namespaces/inkscape"
   width="150"
   height="150"
   viewBox="0 0 39.687499 39.687499"
   version="1.1"
   id="svg1987"
   inkscape:version="0.92.4 (5da689c313, 2019-01-14)"
   sodipodi:docname="two_tone_clock.svg"
   inkscape:export-filename="C:\Users\Keegan\repos\cannlytics-website\assets\images\lab_icons\two_tone_clock.png"
   inkscape:export-xdpi="96"
   inkscape:export-ydpi="96">
  <defs
     id="defs1981">
    <clipPath
       clipPathUnits="userSpaceOnUse"
       id="clipPath238">
      <path
         d="m 5440.09,7219.29 -0.38,257.5 257.5,0.38 0.38,-257.49 z"
         id="path236"
         inkscape:connector-curvature="0" />
    </clipPath>
  </defs>
  <sodipodi:namedview
     id="base"
     pagecolor="#ffffff"
     bordercolor="#666666"
     borderopacity="1.0"
     inkscape:pageopacity="0.0"
     inkscape:pageshadow="2"
     inkscape:zoom="1.979899"
     inkscape:cx="-15.542558"
     inkscape:cy="57.366681"
     inkscape:document-units="mm"
     inkscape:current-layer="layer1"
     showgrid="false"
     fit-margin-top="0"
     fit-margin-left="0"
     fit-margin-right="0"
     fit-margin-bottom="0"
     units="px"
     inkscape:window-width="1636"
     inkscape:window-height="912"
     inkscape:window-x="2593"
     inkscape:window-y="54"
     inkscape:window-maximized="0" />
  <metadata
     id="metadata1984">
    <rdf:RDF>
      <cc:Work
         rdf:about="">
        <dc:format>image/svg+xml</dc:format>
        <dc:type
           rdf:resource="http://purl.org/dc/dcmitype/StillImage" />
        <dc:title></dc:title>
      </cc:Work>
    </rdf:RDF>
  </metadata>
  <g
     inkscape:label="Layer 1"
     inkscape:groupmode="layer"
     id="layer1"
     transform="translate(-101.80076,-164.15401)">
    <path
       d="m 112.06395,197.82435 c -0.3048,0.42016 -0.89394,0.514 -1.3148,0.2092 v 0 c -0.42087,-0.30551 -0.51471,-0.89465 -0.20991,-1.31587 l 1.57304,-2.1664 c 0.30515,-0.42087 0.89429,-0.51435 1.3148,-0.2092 v 0 c 0.42051,0.30586 0.51435,0.89464 0.2092,1.31515 l -1.57233,2.16712"
       style="fill:#9cdee4;fill-opacity:1;fill-rule:nonzero;stroke:none;stroke-width:0.03527778"
       id="path46"
       inkscape:connector-curvature="0" />
    <path
       d="m 112.87534,194.51529 c -0.18909,0 -0.36724,0.091 -0.47766,0.24307 l -1.57304,2.16676 c -0.19015,0.26246 -0.13123,0.63218 0.13194,0.82303 0.25329,0.1838 0.63888,0.12135 0.82162,-0.13088 l 1.57233,-2.16712 c 0.1905,-0.26246 0.13194,-0.63147 -0.13088,-0.82267 -0.1009,-0.073 -0.22014,-0.11219 -0.34431,-0.11219 z m -1.5741,4.05024 c -0.27446,0 -0.53692,-0.0854 -0.75918,-0.24659 -0.57714,-0.4191 -0.70696,-1.23013 -0.28892,-1.80798 l 1.57339,-2.16712 c 0.24271,-0.33408 0.63465,-0.5341 1.04881,-0.5341 0.27411,0 0.53657,0.0854 0.75882,0.24659 0.5775,0.42016 0.70626,1.23119 0.28752,1.80834 l -1.57233,2.16676 c -0.24236,0.33443 -0.6343,0.5341 -1.04811,0.5341"
       style="fill:#2e6096;fill-opacity:1;fill-rule:nonzero;stroke:none;stroke-width:0.03527778"
       id="path48"
       inkscape:connector-curvature="0" />
    <path
       d="m 125.297,197.82364 c 0.3055,0.42087 0.89393,0.51435 1.3148,0.2092 v 0 c 0.42051,-0.30515 0.514,-0.89429 0.2092,-1.31551 l -1.57198,-2.16641 c -0.30516,-0.42086 -0.89429,-0.51435 -1.31516,-0.20919 v 0 c -0.42086,0.30585 -0.51435,0.89464 -0.2092,1.3155 l 1.57234,2.16641"
       style="fill:#9cdee4;fill-opacity:1;fill-rule:nonzero;stroke:none;stroke-width:0.03527778"
       id="path50"
       inkscape:connector-curvature="0" />
    <path
       d="m 124.48596,194.51494 c -0.12453,0 -0.24377,0.0392 -0.34502,0.11254 -0.26246,0.19085 -0.32103,0.5595 -0.13053,0.82232 l 1.57198,2.16676 c 0.11042,0.15205 0.28893,0.24271 0.47766,0.24307 v 0 c 0.12418,0 0.24342,-0.0392 0.34467,-0.11254 0.26246,-0.1905 0.32103,-0.55951 0.13053,-0.82268 l -1.57198,-2.16641 c -0.11007,-0.15204 -0.28857,-0.24306 -0.47731,-0.24306 z m 1.57409,4.05024 v 0 c -0.4138,-2.6e-4 -0.80574,-0.19967 -1.04845,-0.5341 l -1.57233,-2.16676 c -0.4191,-0.5775 -0.28999,-1.38854 0.28716,-1.80799 0.2226,-0.16157 0.48507,-0.24695 0.75953,-0.24695 0.41416,0 0.80574,0.20003 1.04845,0.53411 l 1.57198,2.16676 c 0.41875,0.5782 0.28999,1.38924 -0.28751,1.80799 -0.2226,0.16157 -0.48507,0.24694 -0.75883,0.24694"
       style="fill:#2e6096;fill-opacity:1;fill-rule:nonzero;stroke:none;stroke-width:0.03527778"
       id="path52"
       inkscape:connector-curvature="0" />
    <path
       d="m 126.57828,171.015 -2.28917,3.42406"
       style="fill:#9cdee4;fill-opacity:1;fill-rule:nonzero;stroke:none;stroke-width:0.03527778"
       id="path54"
       inkscape:connector-curvature="0" />
    <path
       d="m 124.58227,174.63521 -0.58632,-0.39229 2.28918,-3.42406 0.58631,0.39229 -2.28917,3.42406"
       style="fill:#2e6096;fill-opacity:1;fill-rule:nonzero;stroke:none;stroke-width:0.03527778"
       id="path56"
       inkscape:connector-curvature="0" />
    <path
       d="m 112.89403,175.50198 -2.28952,-3.42371"
       style="fill:#9cdee4;fill-opacity:1;fill-rule:nonzero;stroke:none;stroke-width:0.03527778"
       id="path58"
       inkscape:connector-curvature="0" />
    <path
       d="m 112.60088,175.69813 -2.28953,-3.42406 0.58631,-0.39194 2.28953,3.42406 -0.58631,0.39194"
       style="fill:#2e6096;fill-opacity:1;fill-rule:nonzero;stroke:none;stroke-width:0.03527778"
       id="path60"
       inkscape:connector-curvature="0" />
    <path
       d="m 115.83091,169.70479 c -1.6249,-2.43135 -4.91349,-3.08505 -7.34448,-1.45909 -2.43135,1.62489 -3.08328,4.91349 -1.45944,7.34448 l 8.80392,-5.88539"
       style="fill:#9cdee4;fill-opacity:1;fill-rule:nonzero;stroke:none;stroke-width:0.03527778"
       id="path62"
       inkscape:connector-curvature="0" />
    <path
       d="m 111.42436,167.70454 c -0.97719,0 -1.92581,0.28857 -2.74179,0.83431 -2.16676,1.4478 -2.81975,4.324 -1.54763,6.55497 l 8.19644,-5.47935 c -0.93345,-1.20191 -2.36855,-1.90993 -3.90702,-1.90993 z m -4.49439,8.37494 -0.19614,-0.29316 c -1.73002,-2.59009 -1.03152,-6.10411 1.55681,-7.83378 0.93239,-0.62371 2.01612,-0.95356 3.13372,-0.95356 1.89301,0 3.64949,0.93839 4.69971,2.50966 l 0.19579,0.29351 -9.38989,6.27733"
       style="fill:#2e6096;fill-opacity:1;fill-rule:nonzero;stroke:none;stroke-width:0.03527778"
       id="path64"
       inkscape:connector-curvature="0" />
    <path
       d="m 130.33396,175.59018 c 1.62383,-2.43135 0.97225,-5.71994 -1.45945,-7.34448 -2.43063,-1.62596 -5.71958,-0.97226 -7.34412,1.45873 l 8.80357,5.88575"
       style="fill:#9cdee4;fill-opacity:1;fill-rule:nonzero;stroke:none;stroke-width:0.03527778"
       id="path66"
       inkscape:connector-curvature="0" />
    <path
       d="m 122.02992,169.61412 8.19609,5.4797 c 1.27247,-2.23097 0.61912,-5.10717 -1.54764,-6.55497 -0.81597,-0.54574 -1.76424,-0.83431 -2.74179,-0.83431 -1.53811,0 -2.97356,0.70767 -3.90666,1.90958 z m 8.40105,6.46536 -9.38989,-6.27768 0.19615,-0.29351 c 1.04987,-1.57127 2.8067,-2.50931 4.69935,-2.50931 1.1176,0 2.20133,0.32949 3.13408,0.95356 2.58833,1.72931 3.28648,5.24369 1.55645,7.83343 l -0.19614,0.29351"
       style="fill:#2e6096;fill-opacity:1;fill-rule:nonzero;stroke:none;stroke-width:0.03527778"
       id="path68"
       inkscape:connector-curvature="0" />
    <path
       d="m 131.46708,184.32672 c 0,7.06155 -5.72417,12.78643 -12.78643,12.78643 -7.06191,0 -12.78643,-5.72488 -12.78643,-12.78643 0,-7.06191 5.72452,-12.78678 12.78643,-12.78678 7.06226,0 12.78643,5.72487 12.78643,12.78678"
       style="fill:#9cdee4;fill-opacity:1;fill-rule:nonzero;stroke:none;stroke-width:0.03527778"
       id="path128"
       inkscape:connector-curvature="0" />
    <path
       d="m 118.68065,171.89271 c -6.85624,0 -12.43365,5.57813 -12.43365,12.43401 0,6.85588 5.57741,12.43365 12.43365,12.43365 6.85588,0 12.43365,-5.57777 12.43365,-12.43365 0,-6.85588 -5.57777,-12.43401 -12.43365,-12.43401 z m 0,25.57322 c -7.245,0 -13.13921,-5.89421 -13.13921,-13.13921 0,-7.245 5.89421,-13.13956 13.13921,-13.13956 7.245,0 13.13921,5.89456 13.13921,13.13956 0,7.245 -5.89421,13.13921 -13.13921,13.13921"
       style="fill:#2e6096;fill-opacity:1;fill-rule:nonzero;stroke:none;stroke-width:0.03527778"
       id="path130"
       inkscape:connector-curvature="0" />
    <path
       d="m 128.6251,184.32672 c 0,5.49275 -4.4517,9.94516 -9.94445,9.94516 -5.4924,0 -9.94587,-4.45241 -9.94587,-9.94516 0,-5.49275 4.45347,-9.94551 9.94587,-9.94551 5.49275,0 9.94445,4.45276 9.94445,9.94551"
       style="fill:#ffffff;fill-opacity:1;fill-rule:nonzero;stroke:none;stroke-width:0.03527778"
       id="path132"
       inkscape:connector-curvature="0" />
    <path
       d="m 118.68065,174.5576 c -5.38692,0 -9.76948,4.38255 -9.76948,9.76912 0,5.38656 4.38256,9.76877 9.76948,9.76877 5.38586,0 9.76806,-4.38221 9.76806,-9.76877 0,-5.38657 -4.3822,-9.76912 -9.76806,-9.76912 z m 0,19.89067 c -5.58165,0 -10.12225,-4.54061 -10.12225,-10.12155 0,-5.58095 4.5406,-10.1219 10.12225,-10.1219 5.58059,0 10.12084,4.54095 10.12084,10.1219 0,5.58094 -4.54025,10.12155 -10.12084,10.12155"
       style="fill:#2e6096;fill-opacity:1;fill-rule:nonzero;stroke:none;stroke-width:0.03527778"
       id="path134"
       inkscape:connector-curvature="0" />
    <path
       d="m 120.45618,184.32672 c 0,0.98107 -0.79375,1.77623 -1.77553,1.77623 -0.98072,0 -1.77624,-0.79516 -1.77624,-1.77623 0,-0.98072 0.79552,-1.77588 1.77624,-1.77588 0.98178,0 1.77553,0.79516 1.77553,1.77588"
       style="fill:#25507d;fill-opacity:1;fill-rule:nonzero;stroke:none;stroke-width:0.03527778"
       id="path136"
       inkscape:connector-curvature="0" />
    <path
       d="m 118.68276,184.6795 c -0.19508,0 -0.35277,-0.1577 -0.35277,-0.35278 v -7.0485 c 0,-0.19473 0.15769,-0.35278 0.35277,-0.35278 0.19474,0 0.35278,0.15805 0.35278,0.35278 v 7.0485 c 0,0.19508 -0.15804,0.35278 -0.35278,0.35278"
       style="fill:#25507d;fill-opacity:1;fill-rule:nonzero;stroke:none;stroke-width:0.03527778"
       id="path138"
       inkscape:connector-curvature="0" />
    <path
       d="m 122.90869,177.238 c -0.0402,0 -0.0808,-0.0106 -0.11853,-0.0321 -0.11289,-0.0656 -0.1517,-0.21026 -0.0861,-0.3235 l 0.27411,-0.47343 c 0.0656,-0.11324 0.2099,-0.15169 0.32385,-0.0864 0.11324,0.0656 0.15169,0.21061 0.0861,0.32385 l -0.2741,0.47343 c -0.0441,0.0755 -0.12348,0.11818 -0.20532,0.11818"
       style="fill:#25507d;fill-opacity:1;fill-rule:nonzero;stroke:none;stroke-width:0.03527778"
       id="path140"
       inkscape:connector-curvature="0" />
    <path
       d="m 114.17603,192.36476 c -0.0399,0 -0.0804,-0.0102 -0.11783,-0.0314 -0.11324,-0.0653 -0.1524,-0.21025 -0.0871,-0.32349 l 0.2727,-0.47484 c 0.0653,-0.11325 0.21026,-0.15205 0.3235,-0.0871 0.11359,0.0649 0.1524,0.2099 0.0875,0.32314 l -0.27305,0.47484 c -0.0438,0.0762 -0.12347,0.11889 -0.20567,0.11889"
       style="fill:#25507d;fill-opacity:1;fill-rule:nonzero;stroke:none;stroke-width:0.03527778"
       id="path142"
       inkscape:connector-curvature="0" />
    <path
       d="m 126.47915,189.06523 c -0.0399,0 -0.0804,-0.01 -0.11782,-0.0314 l -0.47132,-0.27093 c -0.11324,-0.0656 -0.15204,-0.21026 -0.0871,-0.3235 0.0649,-0.11324 0.21025,-0.1524 0.3235,-0.0875 l 0.47131,0.27129 c 0.11324,0.0653 0.1524,0.2099 0.0871,0.3235 -0.0437,0.0762 -0.12347,0.11853 -0.20567,0.11853"
       style="fill:#25507d;fill-opacity:1;fill-rule:nonzero;stroke:none;stroke-width:0.03527778"
       id="path144"
       inkscape:connector-curvature="0" />
    <path
       d="m 111.35733,180.33363 c -0.0399,0 -0.0804,-0.01 -0.11747,-0.0311 l -0.47554,-0.27269 c -0.11325,-0.0649 -0.1524,-0.20991 -0.0875,-0.32315 0.0653,-0.11359 0.2099,-0.1524 0.32314,-0.0878 l 0.47554,0.2727 c 0.11325,0.0649 0.1524,0.20955 0.0875,0.32314 -0.0437,0.0762 -0.12347,0.11889 -0.20567,0.11889"
       style="fill:#25507d;fill-opacity:1;fill-rule:nonzero;stroke:none;stroke-width:0.03527778"
       id="path146"
       inkscape:connector-curvature="0" />
    <path
       d="m 114.45225,177.238 c -0.0822,0 -0.16192,-0.0427 -0.20567,-0.11924 l -0.27128,-0.47342 c -0.0653,-0.11325 -0.0258,-0.25824 0.0875,-0.32315 0.11394,-0.0646 0.25823,-0.0257 0.32314,0.0875 l 0.27129,0.47343 c 0.0653,0.11359 0.0261,0.25823 -0.0875,0.32349 -0.037,0.0212 -0.0773,0.0314 -0.11748,0.0314"
       style="fill:#25507d;fill-opacity:1;fill-rule:nonzero;stroke:none;stroke-width:0.03527778"
       id="path148"
       inkscape:connector-curvature="0" />
    <path
       d="m 123.1888,192.36476 c -0.0815,0 -0.16087,-0.0423 -0.20497,-0.11748 l -0.27658,-0.47483 c -0.066,-0.11325 -0.0275,-0.25788 0.0854,-0.32385 0.11359,-0.066 0.25788,-0.0275 0.32385,0.0854 l 0.27657,0.47484 c 0.066,0.11289 0.0275,0.25788 -0.0854,0.32385 -0.0377,0.0219 -0.0787,0.0321 -0.11888,0.0321"
       style="fill:#25507d;fill-opacity:1;fill-rule:nonzero;stroke:none;stroke-width:0.03527778"
       id="path150"
       inkscape:connector-curvature="0" />
    <path
       d="m 110.8825,189.06523 c -0.0822,0 -0.16228,-0.0427 -0.20603,-0.11924 -0.0645,-0.11359 -0.025,-0.25823 0.0882,-0.32314 l 0.47554,-0.27094 c 0.11465,-0.0653 0.25824,-0.025 0.32315,0.0882 0.0645,0.11359 0.025,0.25823 -0.0882,0.32314 l -0.47554,0.27094 c -0.037,0.0212 -0.0776,0.031 -0.11712,0.031"
       style="fill:#25507d;fill-opacity:1;fill-rule:nonzero;stroke:none;stroke-width:0.03527778"
       id="path152"
       inkscape:connector-curvature="0" />
    <path
       d="m 126.00855,180.33363 c -0.0819,0 -0.16157,-0.0423 -0.20532,-0.11818 -0.0653,-0.11325 -0.0268,-0.25788 0.0864,-0.3235 l 0.47131,-0.27235 c 0.1136,-0.066 0.25859,-0.0268 0.3235,0.0864 0.0656,0.11288 0.0268,0.25788 -0.0864,0.32349 l -0.47131,0.27235 c -0.037,0.0215 -0.0783,0.0318 -0.11818,0.0318"
       style="fill:#25507d;fill-opacity:1;fill-rule:nonzero;stroke:none;stroke-width:0.03527778"
       id="path154"
       inkscape:connector-curvature="0" />
    <path
       d="m 110.2221,184.56308 h -3.5e-4 l -0.54786,-0.001 c -0.13089,-3.5e-4 -0.23673,-0.10654 -0.23637,-0.23742 0,-0.13053 0.10618,-0.23636 0.23671,-0.23636 h 3.5e-4 l 0.54786,0.001 c 0.13088,3.4e-4 0.23671,0.10654 0.23636,0.23742 0,0.13053 -0.10619,0.23636 -0.23671,0.23636"
       style="fill:#25507d;fill-opacity:1;fill-rule:nonzero;stroke:none;stroke-width:0.03527778"
       id="path156"
       inkscape:connector-curvature="0" />
    <path
       d="m 127.14061,184.56308 c -0.13017,0 -0.23636,-0.10548 -0.23671,-0.23601 -7.2e-4,-0.13053 0.10477,-0.23707 0.23565,-0.23777 l 0.54928,-0.002 c 0,0 7.1e-4,0 0.001,0 0.13017,0 0.23636,0.10548 0.23671,0.23601 7.1e-4,0.13052 -0.10477,0.23706 -0.23565,0.23777 l -0.54928,0.002 h -0.001"
       style="fill:#25507d;fill-opacity:1;fill-rule:nonzero;stroke:none;stroke-width:0.03527778"
       id="path158"
       inkscape:connector-curvature="0" />
    <path
       d="m 118.67924,193.5695 h -10e-4 c -0.13088,-8e-4 -0.23636,-0.1076 -0.2353,-0.23848 l 0.004,-0.54857 c 7.1e-4,-0.13053 0.10618,-0.2353 0.23671,-0.2353 h 0.001 c 0.13123,7.1e-4 0.23636,0.10724 0.2353,0.23812 l -0.003,0.54892 c -7.2e-4,0.13018 -0.10654,0.23531 -0.23672,0.23531"
       style="fill:#25507d;fill-opacity:1;fill-rule:nonzero;stroke:none;stroke-width:0.03527778"
       id="path160"
       inkscape:connector-curvature="0" />
    <path
       d="m 118.68065,176.10312 c -0.13088,0 -0.23672,-0.10619 -0.23672,-0.23707 v -0.54434 c 0,-0.13088 0.10584,-0.23671 0.23672,-0.23671 0.13088,0 0.23671,0.10583 0.23671,0.23671 v 0.54434 c 0,0.13088 -0.10583,0.23707 -0.23671,0.23707"
       style="fill:#25507d;fill-opacity:1;fill-rule:nonzero;stroke:none;stroke-width:0.03527778"
       id="path162"
       inkscape:connector-curvature="0" />
    <path
       d="m 114.53445,187.404 c -0.11571,0 -0.2293,-0.0568 -0.29669,-0.16122 -0.10583,-0.16334 -0.0589,-0.38206 0.10478,-0.48789 l 4.02519,-2.60385 c 0.16369,-0.10584 0.38171,-0.0589 0.4879,0.10477 0.10583,0.16369 0.0589,0.38206 -0.10478,0.48789 l -4.02519,2.60385 c -0.0593,0.0381 -0.12559,0.0565 -0.19121,0.0565"
       style="fill:#25507d;fill-opacity:1;fill-rule:nonzero;stroke:none;stroke-width:0.03527778"
       id="path164"
       inkscape:connector-curvature="0" />
    <path
       d="m 119.77602,184.32672 c 0,0.60431 -0.49036,1.09537 -1.09537,1.09537 -0.60572,0 -1.09502,-0.49106 -1.09502,-1.09537 0,-0.60502 0.4893,-1.09538 1.09502,-1.09538 0.60501,0 1.09537,0.49036 1.09537,1.09538"
       style="fill:#ffffff;fill-opacity:1;fill-rule:nonzero;stroke:none;stroke-width:0.03527778"
       id="path166"
       inkscape:connector-curvature="0" />
    <path
       d="m 119.22322,184.32672 c 0,0.29951 -0.24306,0.54222 -0.54257,0.54222 -0.29845,0 -0.54328,-0.24271 -0.54328,-0.54222 0,-0.29951 0.24483,-0.54257 0.54328,-0.54257 0.29951,0 0.54257,0.24306 0.54257,0.54257"
       style="fill:#f2552d;fill-opacity:1;fill-rule:nonzero;stroke:none;stroke-width:0.03527778"
       id="path168"
       inkscape:connector-curvature="0" />
    <path
       d="m 118.68276,184.50311 c -0.0758,0 -0.14605,-0.049 -0.16898,-0.12524 -0.0282,-0.0931 0.0243,-0.19191 0.11783,-0.21978 l 6.14539,-1.85632 c 0.0924,-0.0282 0.19121,0.0244 0.21978,0.11783 0.0282,0.0931 -0.0243,0.19156 -0.11783,0.21978 l -6.14539,1.85632 c -0.0169,0.005 -0.0342,0.007 -0.0508,0.007"
       style="fill:#f2552d;fill-opacity:1;fill-rule:nonzero;stroke:none;stroke-width:0.03527778"
       id="path170"
       inkscape:connector-curvature="0" />
    <path
       d="m 134.55212,191.61017 c 2.06622,2.06657 2.06622,5.41725 0,7.48347 -2.06657,2.06658 -5.41726,2.06693 -7.48347,0 -2.06622,-2.06622 -2.06622,-5.4169 0,-7.48347 2.06621,-2.06657 5.4169,-2.06657 7.48347,0"
       style="fill:#ffffff;fill-opacity:1;fill-rule:nonzero;stroke:none;stroke-width:0.03527778"
       id="path238"
       inkscape:connector-curvature="0" />
    <path
       d="m 130.81021,190.41319 c -1.31904,0 -2.55905,0.51365 -3.49215,1.44639 -1.92546,1.92582 -1.92546,5.05919 0,6.98465 0.9331,0.9331 2.17276,1.44674 3.49215,1.44674 1.31938,0 2.5594,-0.51364 3.4925,-1.44674 1.92546,-1.92546 1.92546,-5.05883 0,-6.98465 -0.9331,-0.93274 -2.17312,-1.44639 -3.4925,-1.44639 z m 0,10.58334 c -1.50778,0 -2.92524,-0.58738 -3.99098,-1.65347 -2.20063,-2.20063 -2.20063,-5.78133 0,-7.98231 1.06574,-1.06609 2.48356,-1.65311 3.99098,-1.65311 1.50777,0 2.92523,0.58702 3.99132,1.65311 2.20063,2.20098 2.20063,5.78168 0,7.98231 -1.06609,1.06609 -2.48355,1.65347 -3.99132,1.65347"
       style="fill:#2e6096;fill-opacity:1;fill-rule:nonzero;stroke:none;stroke-width:0.03527778"
       id="path240"
       inkscape:connector-curvature="0" />
    <path
       d="m 135.8454,191.61017 c 2.06622,2.06657 2.06622,5.41725 0,7.48347 -2.06657,2.06658 -5.41725,2.06693 -7.48347,0 -2.06622,-2.06622 -2.06622,-5.4169 0,-7.48347 2.06622,-2.06657 5.4169,-2.06657 7.48347,0"
       style="fill:#ffffff;fill-opacity:1;fill-rule:nonzero;stroke:none;stroke-width:0.03527778"
       id="path242"
       inkscape:connector-curvature="0" />
    <path
       d="m 132.10349,190.41319 c -1.31904,0 -2.55905,0.51365 -3.49215,1.44639 -1.92546,1.92582 -1.92546,5.05919 0,6.98465 0.9331,0.9331 2.17276,1.44674 3.49215,1.44674 1.31939,0 2.5594,-0.51364 3.4925,-1.44674 1.92546,-1.92546 1.92546,-5.05883 0,-6.98465 -0.9331,-0.93274 -2.17311,-1.44639 -3.4925,-1.44639 z m 0,10.58334 c -1.50777,0 -2.92523,-0.58738 -3.99098,-1.65347 -2.20062,-2.20063 -2.20062,-5.78133 0,-7.98231 1.06575,-1.06609 2.48356,-1.65311 3.99098,-1.65311 1.50777,0 2.92523,0.58702 3.99133,1.65311 2.20062,2.20098 2.20062,5.78168 0,7.98231 -1.0661,1.06609 -2.48356,1.65347 -3.99133,1.65347"
       style="fill:#2e6096;fill-opacity:1;fill-rule:nonzero;stroke:none;stroke-width:0.03527778"
       id="path244"
       inkscape:connector-curvature="0" />
    <path
       d="m 135.8454,199.09364 c 2.06622,-2.06622 2.06622,-5.4169 0,-7.48347 -2.06657,-2.06657 -5.41725,-2.06657 -7.48347,0 l 7.48347,7.48347"
       style="fill:#ffffff;fill-opacity:1;fill-rule:nonzero;stroke:none;stroke-width:0.03527778"
       id="path246"
       inkscape:connector-curvature="0" />
    <path
       d="m 128.86958,191.61899 6.96736,6.96701 c 0.77964,-0.89747 1.20509,-2.03306 1.20509,-3.23392 0,-1.31939 -0.51365,-2.55975 -1.44604,-3.4925 -0.9331,-0.93274 -2.17311,-1.44639 -3.4925,-1.44639 -1.20086,0 -2.33645,0.42581 -3.23391,1.2058 z m 6.97582,7.97348 -7.9823,-7.9823 0.24941,-0.24942 c 1.06575,-1.06609 2.48356,-1.65311 3.99098,-1.65311 1.50777,0 2.92523,0.58702 3.99133,1.65311 1.06574,1.0661 1.65276,2.48356 1.65276,3.99133 0,1.50777 -0.58702,2.92524 -1.65276,3.99098 l -0.24942,0.24941"
       style="fill:#2e6096;fill-opacity:1;fill-rule:nonzero;stroke:none;stroke-width:0.03527778"
       id="path248"
       inkscape:connector-curvature="0" />
    <path
       d="m 134.82658,199.82178 -7.04673,-7.04709 0.24941,-0.24942 7.04673,7.04709 -0.24941,0.24942"
       style="fill:#2e6096;fill-opacity:1;fill-rule:nonzero;stroke:none;stroke-width:0.03527778"
       id="path250"
       inkscape:connector-curvature="0" />
  </g>
</svg>
