<?xml version="1.0" encoding="UTF-8" standalone="no"?>
<svg
   xmlns:dc="http://purl.org/dc/elements/1.1/"
   xmlns:cc="http://creativecommons.org/ns#"
   xmlns:rdf="http://www.w3.org/1999/02/22-rdf-syntax-ns#"
   xmlns:svg="http://www.w3.org/2000/svg"
   xmlns="http://www.w3.org/2000/svg"
   xmlns:sodipodi="http://sodipodi.sourceforge.net/DTD/sodipodi-0.dtd"
   xmlns:inkscape="http://www.inkscape.org/namespaces/inkscape"
   width="233.66614"
   height="228.50476"
   viewBox="0 0 61.824165 60.458549"
   version="1.1"
   id="svg1034"
   inkscape:version="1.0.1 (3bc2e813f5, 2020-09-07)"
   sodipodi:docname="analysis.svg"
   inkscape:export-filename="C:\Users\keega\Documents\cannlytics\assets\images\illustrations\multi-tone\analysis.png"
   inkscape:export-xdpi="96"
   inkscape:export-ydpi="96">
  <defs
     id="defs1028" />
  <sodipodi:namedview
     id="base"
     pagecolor="#ffffff"
     bordercolor="#666666"
     borderopacity="1.0"
     inkscape:pageopacity="0.0"
     inkscape:pageshadow="2"
     inkscape:zoom="1.979899"
     inkscape:cx="105.07231"
     inkscape:cy="89.712002"
     inkscape:document-units="mm"
     inkscape:current-layer="layer1"
     inkscape:document-rotation="0"
     showgrid="false"
     inkscape:window-width="1624"
     inkscape:window-height="997"
     inkscape:window-x="230"
     inkscape:window-y="94"
     inkscape:window-maximized="0"
     units="px" />
  <metadata
     id="metadata1031">
    <rdf:RDF>
      <cc:Work
         rdf:about="">
        <dc:format>image/svg+xml</dc:format>
        <dc:type
           rdf:resource="http://purl.org/dc/dcmitype/StillImage" />
        <dc:title></dc:title>
      </cc:Work>
    </rdf:RDF>
  </metadata>
  <g
     inkscape:label="Layer 1"
     inkscape:groupmode="layer"
     id="layer1"
     transform="translate(-75.677204,-103.57435)">
    <path
       d="m 102.40652,125.6132 c -0.005,0.0703 0.004,0.14067 0.0249,0.2079 0.0205,0.0663 0.0516,0.13037 0.0926,0.18817 0.0404,0.0567 0.0911,0.10653 0.14743,0.14939 0.0551,0.0421 0.11667,0.0772 0.18354,0.10084 0.0647,0.0229 0.1341,0.0349 0.20631,0.0354 0.0733,6.7e-4 0.14263,-0.0101 0.20701,-0.0304 0.0683,-0.0219 0.13054,-0.0546 0.18638,-0.0952 0.0573,-0.0416 0.10796,-0.0907 0.14957,-0.14619 0.0425,-0.0567 0.0759,-0.11951 0.0991,-0.18478 0.0237,-0.0669 0.036,-0.13677 0.0363,-0.20612 5e-4,-0.0699 -0.0107,-0.13997 -0.0331,-0.20702 -0.0219,-0.0662 -0.0541,-0.12947 -0.0959,-0.18674 -0.0407,-0.0562 -0.0911,-0.10582 -0.1485,-0.14797 -0.0553,-0.0405 -0.11738,-0.074 -0.18621,-0.0964 -0.064,-0.0206 -0.13338,-0.0319 -0.20719,-0.0327 -0.0884,-6.8e-4 -0.17322,0.0165 -0.25076,0.0489 -0.0795,0.0331 -0.15224,0.0815 -0.21288,0.14175 -0.0608,0.0603 -0.11045,0.13214 -0.14478,0.21128 -0.0337,0.0772 -0.0526,0.16202 -0.0539,0.24987 m 0.67297,-0.85704 c 0.0742,-0.004 0.15046,0.006 0.22605,0.0267 0.0715,0.0199 0.14192,0.051 0.20879,0.091 0.0644,0.0384 0.12645,0.0838 0.18088,0.13873 0.0528,0.0534 0.0991,0.11489 0.13801,0.18193 0.0372,0.0646 0.0678,0.13481 0.0875,0.21058 0.0186,0.071 0.0284,0.14672 0.0283,0.2264 -1.5e-4,0.0754 -0.01,0.15206 -0.0297,0.22676 -0.0194,0.0731 -0.0491,0.14441 -0.0868,0.21146 -0.0372,0.066 -0.0829,0.12769 -0.13712,0.18283 -0.0524,0.0535 -0.11222,0.101 -0.18034,0.13961 -0.0642,0.0366 -0.13481,0.0654 -0.21235,0.085 -0.0699,0.0176 -0.14566,0.0276 -0.22676,0.0284 -0.0811,6.7e-4 -0.15863,-0.007 -0.23137,-0.0254 -0.0774,-0.0192 -0.14975,-0.0493 -0.21574,-0.0871 -0.0681,-0.039 -0.13017,-0.087 -0.18425,-0.14211 -0.0539,-0.0557 -0.10048,-0.1188 -0.138,-0.18708 -0.0374,-0.0676 -0.0651,-0.14068 -0.0838,-0.21697 -0.0182,-0.0745 -0.0269,-0.15188 -0.0254,-0.23103 6.7e-4,-0.0807 0.0124,-0.15579 0.0313,-0.22622 0.0208,-0.0767 0.0512,-0.14655 0.0886,-0.21039 0.0398,-0.0672 0.0879,-0.12681 0.14121,-0.17892 0.0559,-0.0544 0.11667,-0.10173 0.18176,-0.13819 0.0681,-0.0386 0.14033,-0.0658 0.21236,-0.084 0.0767,-0.0192 0.15312,-0.0269 0.22692,-0.0221"
       style="fill:#ee5e23;fill-opacity:1;fill-rule:nonzero;stroke:none;stroke-width:0.0177847"
       id="path58" />
    <path
       d="m 90.321263,128.13099 c 0.09034,-5e-4 0.175892,0.0235 0.250408,0.0653 0.07665,0.0432 0.140855,0.10493 0.185672,0.17927 0.04446,0.0733 0.06936,0.15846 0.06776,0.24916 -0.002,0.0923 -0.02294,0.17785 -0.06189,0.25075 -0.04124,0.077 -0.102082,0.14104 -0.179804,0.18443 -0.07025,0.0395 -0.154189,0.0624 -0.250227,0.0649 -0.09195,0.002 -0.177672,-0.0194 -0.251653,-0.0594 -0.07719,-0.042 -0.140855,-0.10422 -0.184962,-0.17998 -0.04235,-0.0722 -0.06634,-0.15757 -0.06598,-0.2497 5.04e-4,-0.0911 0.02117,-0.17714 0.06064,-0.25183 0.04003,-0.0751 0.0996,-0.13926 0.180163,-0.18372 0.06847,-0.0383 0.151704,-0.0626 0.249874,-0.0692"
       style="fill:#4490d4;fill-opacity:1;fill-rule:nonzero;stroke:none;stroke-width:0.0177847"
       id="path62" />
    <path
       d="m 124.5709,124.31101 c -0.0411,0 -0.0824,-5.1e-4 -0.12361,-0.002 -0.68969,-0.0192 -1.86402,-0.31906 -1.89122,-1.32087 -0.0105,-0.38877 0.11827,-0.72384 0.38326,-0.99594 0.40175,-0.41297 1.11047,-0.65946 1.89567,-0.65946 0.59579,0 1.14302,0.14352 1.50103,0.39393 0.4062,0.2842 0.71939,0.71477 0.95593,1.31536 -0.57089,0.80689 -1.55991,1.26875 -2.72106,1.26875 z m -1.21595,-6.48948 c -0.25112,0.92357 -1.20989,1.33706 -2.04879,1.33706 -0.66195,0 -1.262,-0.2408 -1.60508,-0.64416 -0.28029,-0.32902 -0.38681,-0.76083 -0.30803,-1.24885 0.14761,-0.91217 0.93086,-1.66037 2.09557,-2.0013 0.34094,-0.0998 0.70233,-0.15118 1.07438,-0.15242 0.0281,0.0279 0.0562,0.0565 0.0838,0.0861 0.66977,0.71316 0.94757,1.74307 0.70819,2.62359 z m 4.72042,6.32798 c -0.0751,-0.38236 -0.16148,-0.7169 -0.26321,-1.02084 0.52234,-0.87144 0.75461,-2.02052 0.63723,-3.1598 -0.24721,-2.4013 -1.96895,-4.42236 -4.38643,-5.14868 -0.41011,-0.12307 -0.84566,-0.19172 -1.29526,-0.20382 -0.29291,-0.27815 -0.61837,-0.4864 -0.96749,-0.61926 -0.3573,-0.13605 -0.74695,-0.20488 -1.15831,-0.20488 -1.15085,0 -2.30401,0.52002 -3.28022,1.02885 -1.37689,0.71761 -2.79452,1.7253 -4.2132,2.99477 -0.0776,0.0694 -0.10262,0.16593 -0.0672,0.25876 0.0393,0.1028 0.14263,0.17465 0.25112,0.17465 0.0621,0 0.12075,-0.0231 0.16948,-0.0669 1.47312,-1.31803 3.7227,-3.14185 6.24031,-3.75915 0.8245,-0.20221 1.58782,-0.12165 2.22113,0.23404 -1.52859,0.19688 -2.64885,1.04112 -3.01966,2.29103 -0.21377,0.72152 -0.0361,1.50601 0.46382,2.04702 0.39803,0.4311 1.01587,0.65875 1.78683,0.65875 0.24312,0 0.49708,-0.0224 0.75426,-0.0669 1.12381,-0.19387 1.59902,-0.85314 1.80016,-1.37192 0.35144,-0.90756 0.14335,-2.11247 -0.51469,-3.05417 0.73167,0.10831 1.48325,0.39287 2.18575,0.82912 2.21402,1.37476 3.17724,4.33361 2.15782,6.54976 -0.36815,-0.7747 -0.88924,-1.2949 -1.55207,-1.54727 -0.34094,-0.13 -0.73416,-0.19848 -1.13681,-0.19848 -1.12488,0 -2.4212,0.54102 -2.78135,1.74984 -0.15384,0.51683 -0.0934,0.96518 0.18034,1.33226 0.50829,0.68151 1.63708,0.92445 2.52383,0.92445 0.21715,0 0.42149,-0.0142 0.60734,-0.0425 0.82237,-0.12467 1.53038,-0.52305 2.05752,-1.15512 0.22818,0.83535 0.29967,1.75606 0.35783,2.50427 l 0.0212,0.2689 c 0.16148,1.98709 0.14103,4.00548 0.12271,5.78644 -5e-4,0.0695 0.0228,0.13054 0.068,0.17607 0.0466,0.0469 0.11417,0.074 0.18495,0.074 0.12609,0 0.25504,-0.0854 0.25663,-0.24827 l 0.007,-0.60966 c 0.0286,-2.45056 0.0581,-4.98453 -0.41883,-7.40538"
       style="fill:#51aee5;fill-opacity:1;fill-rule:nonzero;stroke:none;stroke-width:0.0177847"
       id="path202" />
    <path
       d="m 120.56488,153.14626 c -0.0265,0.0717 -0.0457,0.18318 0.0524,0.24952 L 135.81149,153.28 c 0.0446,-0.0315 0.10777,-0.0879 0.12182,-0.15135 0.011,-0.0488 -0.01,-0.10848 -0.0612,-0.17714 -0.31283,-0.41722 -6.29276,-9.07643 -6.54691,-9.44475 l -0.0372,-0.0537 v -10.09639 h 0.48854 c 0.11542,0 0.20968,-0.0941 0.20968,-0.20951 v -0.59329 c 0,-0.11524 -0.0943,-0.20897 -0.20968,-0.20897 h -3.10539 c -0.11542,0 -0.20933,0.0937 -0.20933,0.20897 v 0.59329 c 0,0.11542 0.0939,0.20951 0.20933,0.20951 h 0.52341 v 10.17197 l -0.0368,0.0535 z m -0.0436,0.6687 -0.0422,-0.019 c -0.40301,-0.18212 -0.39501,-0.59828 -0.29132,-0.83339 l 0.019,-0.0343 6.56931,-9.52977 v -9.62331 h -0.10491 c -0.3461,0 -0.62799,-0.28154 -0.62799,-0.62798 v -0.5933 c 0,-0.34626 0.28189,-0.62798 0.62799,-0.62798 h 3.10538 c 0.34627,0 0.62798,0.28172 0.62798,0.62798 v 0.5933 c 0,0.34644 -0.28171,0.62798 -0.62798,0.62798 h -0.0699 v 9.54719 c 0.517,0.74856 6.20491,8.98413 6.5005,9.37806 0.16148,0.21538 0.16183,0.40425 0.13355,0.52483 -0.0669,0.28722 -0.34378,0.43448 -0.37508,0.45049 l -0.0438,0.0222 -0.0493,4.1e-4 -15.35142,0.11666"
       style="fill:#51aee5;fill-opacity:1;fill-rule:nonzero;stroke:none;stroke-width:0.0177847"
       id="path204" />
    <path
       d="m 128.45365,145.3224 c 0,0.11702 -0.0948,0.21235 -0.21217,0.21235 -0.1172,0 -0.21235,-0.0953 -0.21235,-0.21235 0,-0.11738 0.0951,-0.21251 0.21235,-0.21251 0.11738,0 0.21217,0.0951 0.21217,0.21251"
       style="fill:#65696d;fill-opacity:1;fill-rule:nonzero;stroke:none;stroke-width:0.0177847"
       id="path206" />
    <path
       d="m 128.62314,143.74829 c 0,0.14868 -0.12022,0.26872 -0.26872,0.26872 -0.14851,0 -0.26873,-0.12004 -0.26873,-0.26872 0,-0.14833 0.12022,-0.26857 0.26873,-0.26857 0.1485,0 0.26872,0.12024 0.26872,0.26857"
       style="fill:#65696d;fill-opacity:1;fill-rule:nonzero;stroke:none;stroke-width:0.0177847"
       id="path208" />
    <path
       d="m 128.56801,140.00548 c 0,0.18017 -0.14619,0.32653 -0.32653,0.32653 -0.18015,0 -0.32635,-0.14636 -0.32635,-0.32653 0,-0.18033 0.1462,-0.32616 0.32635,-0.32616 0.18034,0 0.32653,0.14583 0.32653,0.32616"
       style="fill:#65696d;fill-opacity:1;fill-rule:nonzero;stroke:none;stroke-width:0.0177847"
       id="path210" />
    <path
       d="m 134.94063,152.58195 -3.92651,-5.6189 c 5e-4,-0.007 0.002,-0.0125 0.002,-0.0189 0,-0.24898 -0.20186,-0.45119 -0.4512,-0.45119 -0.0331,0 -0.0653,0.004 -0.0966,0.0112 -0.04,-0.15258 -0.15348,-0.27406 -0.30109,-0.32546 -0.0464,-0.18834 -0.21537,-0.32866 -0.41794,-0.32866 -0.23849,0 -0.43181,0.1935 -0.43181,0.43181 0,0.0475 0.009,0.0923 0.0235,0.13517 -0.0379,-0.0123 -0.0776,-0.0206 -0.11951,-0.0206 -0.0528,0 -0.10263,0.0105 -0.14887,0.0295 -0.0678,-0.11277 -0.18994,-0.18924 -0.33115,-0.18924 -0.0512,0 -0.0999,0.0103 -0.14459,0.0288 -0.0565,-0.14139 -0.19403,-0.2417 -0.35551,-0.2417 -0.21146,0 -0.38291,0.17145 -0.38291,0.38309 0,0.0187 0.003,0.0368 0.005,0.0548 -0.0617,-0.13267 -0.1951,-0.22497 -0.35071,-0.22497 -0.12557,0 -0.23583,0.0608 -0.30644,0.15312 -0.0695,-0.0409 -0.14939,-0.0663 -0.236,-0.0663 -0.18122,0 -0.33667,0.10494 -0.41367,0.2561 -0.0384,-0.009 -0.0777,-0.0146 -0.1188,-0.0146 -0.0358,0 -0.0704,0.004 -0.10422,0.0103 -0.0701,-0.10796 -0.19154,-0.17962 -0.32991,-0.17962 -0.21768,0 -0.39429,0.1766 -0.39429,0.39429 0,0.0386 0.007,0.0751 0.0178,0.11043 -0.53283,0.75391 -3.6336,5.14407 -3.89948,5.61161 -0.29078,0.51167 0.27904,0.51204 0.27904,0.51204 0,0 12.1772,-0.0117 12.66557,-4.1e-4 0.48855,0.0118 0.26766,-0.44176 0.26766,-0.44176"
       style="fill:#65696d;fill-opacity:1;fill-rule:nonzero;stroke:none;stroke-width:0.0177847"
       id="path212" />
    <path
       d="m 122.0074,153.06409 v 0 c -0.0108,0 -0.2721,-0.002 -0.36796,-0.16682 -0.0592,-0.10173 -0.0412,-0.23796 0.0539,-0.40496 0.27068,-0.47627 3.47069,-5.00586 3.89059,-5.59951 -0.01,-0.0371 -0.014,-0.0701 -0.014,-0.1028 0,-0.23956 0.19473,-0.43448 0.43448,-0.43448 0.13819,0 0.26641,0.0653 0.3484,0.17606 0.0617,-0.01 0.11933,-0.009 0.18336,0.003 0.0912,-0.15561 0.25521,-0.25041 0.43483,-0.25041 0.0786,0 0.15438,0.0183 0.22623,0.0548 0.0813,-0.0907 0.19457,-0.14209 0.31621,-0.14209 0.11916,0 0.23155,0.0507 0.31124,0.13588 0.0352,-0.19795 0.20878,-0.34876 0.41687,-0.34876 0.16077,0 0.30482,0.0896 0.37667,0.23174 0.17465,-0.0539 0.36637,0.0142 0.47095,0.16184 0.0629,-0.0205 0.12698,-0.027 0.19581,-0.0156 -0.005,-0.027 -0.008,-0.0532 -0.008,-0.0795 0,-0.26018 0.21199,-0.47217 0.47235,-0.47217 0.20969,0 0.39269,0.13836 0.45156,0.33844 0.13961,0.0551 0.24721,0.16842 0.29577,0.30981 0.2986,-0.0452 0.5595,0.19242 0.55968,0.48623 0,0.003 -1.4e-4,0.006 -4.1e-4,0.008 l 3.91762,5.60646 c 0.008,0.0142 0.11116,0.23101 0.0186,0.37899 -0.0524,0.0836 -0.15384,0.12609 -0.3011,0.12609 v 0 h -0.0192 c -0.1421,-0.004 -1.29544,-0.005 -3.428,-0.005 -3.75507,0 -9.23668,0.005 -9.23668,0.005"
       style="fill:#c12f23;fill-opacity:1;fill-rule:nonzero;stroke:none;stroke-width:0.0177847"
       id="path214" />
    <path
       d="m 92.741408,121.43753 c 2.171157,0 4.211246,0.55897 5.986692,1.53873 0.645051,0.34858 1.263781,0.75781 1.84659,1.22751 l 9.49366,-7.54962 -0.17216,-0.21662 c -0.16007,-0.20114 -0.12663,-0.4937 0.0745,-0.65376 0.20096,-0.15989 0.4937,-0.12663 0.65359,0.0745 l 1.85352,2.33068 1.8738,2.36394 -0.96216,0.27762 -9.48653,7.54393 c 0.56075,1.14711 0.92622,2.35611 1.10585,3.58309 1.3e-4,6.7e-4 4e-4,0.002 4e-4,0.003 0.0233,0.15774 0.0436,0.3155 0.0603,0.47379 0.0528,0.46418 0.0825,0.93547 0.0825,1.41352 0,6.85441 -5.556483,12.41072 -12.410532,12.41072 -6.854054,0 -12.410357,-5.55631 -12.410357,-12.41072 0,-6.85405 5.556303,-12.41035 12.410357,-12.41035"
       style="fill:#ffffff;fill-opacity:1;fill-rule:nonzero;stroke:none;stroke-width:0.0177847"
       id="path276" />
    <path
       d="m 104.64703,132.01071 c -0.17766,-1.21451 -0.53852,-2.38367 -1.07241,-3.47566 l -0.12912,-0.26375 9.7165,-7.72692 0.0567,-0.0448 0.50793,-0.14671 -1.53499,-1.93623 -1.85335,-2.33069 c -0.0259,-0.0329 -0.0603,-0.0377 -0.0783,-0.0377 -0.0157,0 -0.0391,0.003 -0.0619,0.0217 -0.0267,0.0212 -0.0347,0.0481 -0.037,0.0667 -0.003,0.0188 -1.4e-4,0.0466 0.021,0.0735 l 0.39981,0.50277 -10.00888,7.95919 -0.22782,-0.18371 c -0.555949,-0.44817 -1.158672,-0.84868 -1.793766,-1.19193 -1.770474,-0.97691 -3.779256,-1.4932 -5.810093,-1.4932 -6.641526,0 -12.04488,5.40317 -12.04488,12.0447 0,6.64171 5.403354,12.04487 12.04488,12.04487 6.641707,0 12.045239,-5.40316 12.045239,-12.04487 0,-0.4416 -0.027,-0.90346 -0.0806,-1.37459 -0.0156,-0.14619 -0.0344,-0.29487 -0.0576,-0.4544 z m -24.681632,1.83717 c 0,-7.0447 5.731482,-12.77584 12.77601,-12.77584 2.153906,0 4.284875,0.54778 6.160448,1.58266 0.58494,0.31623 1.146224,0.67975 1.671414,1.0831 l 8.98501,-7.14501 c -0.10156,-0.15988 -0.14513,-0.34822 -0.12343,-0.53887 0.0253,-0.22071 0.13481,-0.41813 0.30839,-0.55631 0.14655,-0.11631 0.32991,-0.18051 0.51682,-0.18051 0.25486,0 0.49193,0.11435 0.65056,0.31372 l 1.85371,2.33122 2.21259,2.79096 -1.41654,0.40851 -9.20288,7.31858 c 0.49744,1.08132 0.83748,2.23003 1.01213,3.41948 l 0.001,0.008 c 0.0249,0.1709 0.0452,0.33043 0.0619,0.48534 0.0562,0.49638 0.0848,0.98545 0.0848,1.45479 0,7.04471 -5.731486,12.77619 -12.776191,12.77619 -7.044527,0 -12.776008,-5.73148 -12.776008,-12.77619"
       style="fill:#51aee5;fill-opacity:1;fill-rule:nonzero;stroke:none;stroke-width:0.0177847"
       id="path278" />
    <path
       d="m 82.048344,133.29976 h 21.386126 c 0.0186,0.2584 0.0315,0.5186 0.0315,0.78146 0,5.92285 -4.801695,10.72471 -10.724539,10.72471 -3.386746,0 -6.404989,-1.5718 -8.370378,-4.02342 -1.471686,-1.83611 -2.353986,-4.16484 -2.353986,-6.70129 0,-0.26286 0.01281,-0.52306 0.0313,-0.78146"
       style="fill:#8dd141;fill-opacity:1;fill-rule:nonzero;stroke:none;stroke-width:0.0177847"
       id="path280" />
    <path
       d="m 82.436407,133.71094 c -0.0055,0.13072 -0.0082,0.25255 -0.0082,0.37028 0,2.36839 0.782705,4.59663 2.263639,6.44394 1.971258,2.4589 4.905205,3.86906 8.049544,3.86906 5.686665,0 10.31336,-4.62598 10.31336,-10.313 0,-0.1181 -0.003,-0.23992 -0.008,-0.37028 z m 1.613785,7.32855 c -1.599024,-1.99492 -2.444332,-4.40101 -2.444332,-6.95827 0,-0.24526 0.01031,-0.50296 0.03237,-0.81098 l 0.02739,-0.38184 h 22.15158 l 0.0274,0.38184 c 0.022,0.30731 0.0325,0.56502 0.0325,0.81098 0,6.14035 -4.995376,11.13554 -11.135723,11.13554 -3.395282,0 -6.56292,-1.52237 -8.691218,-4.17727"
       style="fill:#51aee5;fill-opacity:1;fill-rule:nonzero;stroke:none;stroke-width:0.0177847"
       id="path282" />
    <path
       d="m 111.45022,116.89299 1.0742,-0.84085 1.01959,1.30237 1.01942,1.30255 -1.07438,0.84087 -1.05764,0.82788 -1.01961,-1.30238 -1.01942,-1.30255 1.05784,-0.82789"
       style="fill:#845333;fill-opacity:1;fill-rule:nonzero;stroke:none;stroke-width:0.0177847"
       id="path284" />
    <path
       d="m 112.46199,116.56522 -1.55652,1.21826 1.58818,2.02942 1.55652,-1.21844 z m -2.5827,1.09305 2.70791,-2.11923 2.48933,3.18062 -2.70791,2.11941 -2.48933,-3.1808"
       style="fill:#51aee5;fill-opacity:1;fill-rule:nonzero;stroke:none;stroke-width:0.0177847"
       id="path286" />
    <path
       d="m 79.122758,140.41666 h 28.877402 v -1.61822 H 79.122758 v 1.61822"
       style="fill:#65696d;fill-opacity:1;fill-rule:nonzero;stroke:none;stroke-width:0.0177847"
       id="path288" />
    <path
       d="m 108.65944,153.64796 -3.95674,-13.97594 -1.50939,0.42755 3.83599,13.54839 h 1.63014"
       style="fill:#65696d;fill-opacity:1;fill-rule:nonzero;stroke:none;stroke-width:0.0177847"
       id="path290" />
    <path
       d="m 78.454053,153.64796 3.835808,-13.54839 -1.509211,-0.42755 -3.956923,13.97594 h 1.630326"
       style="fill:#65696d;fill-opacity:1;fill-rule:nonzero;stroke:none;stroke-width:0.0177847"
       id="path292" />
    <path
       d="m 93.113821,153.64796 v -13.2313 h -1.921466 v 13.2313 h 1.921466"
       style="fill:#65696d;fill-opacity:1;fill-rule:nonzero;stroke:none;stroke-width:0.0177847"
       id="path294" />
  </g>
</svg>
