<?xml version="1.0" ?>
<!-- Uploaded to: SVG Repo, www.svgrepo.com, Generator: SVG Repo Mixer Tools -->
<svg width="800px" height="800px" viewBox="0 0 64 64" xmlns="http://www.w3.org/2000/svg">
<defs>
<style>.cls-1{fill:#f57c00;}.cls-2{fill:#999;}.cls-3{fill:#666;}</style>
</defs>
<title/>
<g data-name="outline color" id="outline_color">
<path class="cls-1" d="M28,41a6,6,0,1,1,6-6A6,6,0,0,1,28,41Zm0-10a4,4,0,1,0,4,4A4,4,0,0,0,28,31Z"/>
<path class="cls-1" d="M34,43H22a1,1,0,0,1,0-2H34a1,1,0,0,1,0,2Z"/>
<path class="cls-1" d="M34,60H22a1,1,0,0,1-1-1V53.74a1,1,0,0,1,2,0V58H33V48a1,1,0,0,1,2,0V59A1,1,0,0,1,34,60Z"/>
<path class="cls-1" d="M37.77,52.32a1,1,0,0,1-.66-.25l-3.77-3.3a1,1,0,0,1,1.32-1.5L37.75,50l7.08-6.49a.5.5,0,1,0-.66-.74l-4.8,4.4a1,1,0,0,1-1.36,0l-4.69-4.41a1,1,0,1,1,1.36-1.46l4,3.78,4.11-3.78A2.51,2.51,0,0,1,46.19,45l-7.74,7.09A1.05,1.05,0,0,1,37.77,52.32Z"/>
<path class="cls-1" d="M26.4,56.56a2.47,2.47,0,0,1-1.06-.23l-7.63-3.42a1,1,0,0,1-.53-1.27l3.89-10a1,1,0,0,1,1.86.72l-3.54,9.12,6.77,3a.59.59,0,0,0,.73-.2.61.61,0,0,0,.1-.47.58.58,0,0,0-.27-.38l-4.14-2.61a1,1,0,0,1,1.07-1.7l4.14,2.61A2.64,2.64,0,0,1,29,53.45a2.6,2.6,0,0,1-2.55,3.11Z"/>
<path class="cls-1" d="M50,51a9.78,9.78,0,0,1-4.33-1,1,1,0,1,1,.86-1.8A8.12,8.12,0,0,0,55.26,47l-5.92-5.26A1,1,0,0,1,49,41V33.06a8,8,0,0,0-6.73,5.84,1,1,0,0,1-1.93-.52A10,10,0,0,1,50,31a1,1,0,0,1,1,1v8.55l6.38,5.67a1,1,0,0,1,.09,1.41A10,10,0,0,1,50,51Z"/>
<path class="cls-1" d="M56.72,48a1,1,0,0,1-.66-.25l-6.72-6A1,1,0,0,1,49,41V32a1,1,0,0,1,1-1,10,10,0,0,1,7.47,16.64A1,1,0,0,1,56.72,48ZM51,40.55l5.59,5A8,8,0,0,0,51,33.06Z"/>
<path class="cls-2" d="M15.63,47.16a1,1,0,0,1-.91-.59L4.56,23.84a5,5,0,0,1,2.52-6.61L28.59,7.62a1,1,0,1,1,.82,1.82L7.9,19.05a3,3,0,0,0-1.52,4L16.54,45.75a1,1,0,0,1-.5,1.32A1,1,0,0,1,15.63,47.16Z"/>
<path class="cls-3" d="M15.94,30.7a.92.92,0,0,1-.36-.07,1,1,0,0,1-.55-.52l-2-4.57a1,1,0,0,1,0-.77.94.94,0,0,1,.52-.55L19,21.78a1,1,0,0,1,1.32.5L21.94,26a1,1,0,0,1-.5,1.32l-.07,0a1,1,0,0,1-.52,1.29l-4.5,2A1,1,0,0,1,15.94,30.7Zm-.72-5.06,1.23,2.74L20,26.78l.07,0L18.88,24Z"/>
<path class="cls-3" d="M21,27.37a1,1,0,0,1-.91-.59L18.47,23.1a1,1,0,0,1,0-.77,1,1,0,0,1,.52-.55l4.11-1.84a1,1,0,0,1,.82,1.82l-3.2,1.43L21.94,26a1,1,0,0,1-.5,1.32A1,1,0,0,1,21,27.37Z"/>
<path class="cls-3" d="M17.74,34.72a1,1,0,0,1-.91-.59l-1.8-4a1,1,0,0,1,0-.77,1,1,0,0,1,.52-.55l4.5-2a1,1,0,0,1,.82,1.82l-3.59,1.61,1.39,3.1a1,1,0,0,1-.5,1.32A1,1,0,0,1,17.74,34.72Z"/>
<path class="cls-2" d="M17.44,40.85a1,1,0,0,1-.77-.36A5,5,0,0,1,16,35.26l6.62-14.82.06-.12L28.61,7a5,5,0,0,1,6.6-2.52l21.91,9.79a5,5,0,0,1,2.52,6.61l-3.81,8.53A1,1,0,1,1,54,28.55L57.82,20a3,3,0,0,0-1.52-4L34.39,6.26a3,3,0,0,0-4,1.52l-6,13.48-.06.12-6.57,14.7a3,3,0,0,0,.43,3.13,1,1,0,0,1-.13,1.41A1,1,0,0,1,17.44,40.85Z"/>
<path class="cls-3" d="M48.26,27.7a1,1,0,0,1-.41-.09l-5.47-2.45a1,1,0,0,1-.51-1.32l2-4.56a1,1,0,0,1,.56-.53,1,1,0,0,1,.76,0l5.48,2.45a1,1,0,0,1,.5,1.32l-2,4.57a.94.94,0,0,1-.55.52A.92.92,0,0,1,48.26,27.7ZM44.1,23.75l3.66,1.63L49,22.64,45.33,21Z"/>
<path class="cls-3" d="M42.78,25.25a1,1,0,0,1-.4-.09L36.9,22.72a1,1,0,0,1-.53-.56,1,1,0,0,1,0-.77l2-4.56a1,1,0,0,1,1.32-.51l5.48,2.45a1,1,0,0,1,.51,1.32l-2,4.57A1,1,0,0,1,42.78,25.25ZM38.63,21.3l3.65,1.63,1.22-2.74-3.65-1.63Z"/>
<path class="cls-3" d="M43.21,30.92a1,1,0,0,1-.41-.09l-2.47-1.1a.94.94,0,0,1-.52-.55,1,1,0,0,1,0-.77l2-4.57a1,1,0,0,1,.55-.52,1,1,0,0,1,.77,0l5.48,2.45a1,1,0,0,1,.5,1.32l-.67,1.52a1,1,0,1,1-1.84-.8l.28-.62-3.65-1.64-1.23,2.74,1.56.7a1,1,0,0,1-.41,1.91Z"/>
<path class="cls-3" d="M40.74,29.82a1,1,0,0,1-.41-.09l-5.47-2.45a1,1,0,0,1-.53-.56,1,1,0,0,1,0-.76l2-4.57a1,1,0,0,1,1.32-.5l5.48,2.45a1.05,1.05,0,0,1,.53.55,1.08,1.08,0,0,1,0,.77l-2,4.56A1,1,0,0,1,40.74,29.82Zm-4.15-4,3.65,1.64,1.22-2.74-3.65-1.64Z"/>
<path class="cls-3" d="M35.26,27.37a1,1,0,0,1-.4-.09l-5.48-2.45a1,1,0,0,1-.51-1.32l2-4.56a1,1,0,0,1,1.33-.51l5.47,2.45a1,1,0,0,1,.51,1.32l-2,4.57a1,1,0,0,1-.56.52A.86.86,0,0,1,35.26,27.37Zm-4.15-4,3.65,1.64L36,22.31l-3.65-1.63Z"/>
<path class="cls-3" d="M38.7,34.38a1,1,0,0,1-.41-.09l-2.07-.93A1,1,0,0,1,37,31.54l1.16.52,1.22-2.74-3.64-1.63L35.2,29a1,1,0,1,1-1.82-.82l1-2.2a.94.94,0,0,1,.55-.52,1,1,0,0,1,.77,0l5.47,2.45a1,1,0,0,1,.5,1.32l-2,4.56a1,1,0,0,1-.55.52A.92.92,0,0,1,38.7,34.38Z"/>
<path class="cls-3" d="M34.29,29.57a1,1,0,0,1-.41-.09,1,1,0,0,1-.5-1.32L34,26.88l-3.66-1.64-.54,1.21a1,1,0,1,1-1.82-.82l.95-2.12A1,1,0,0,1,30.2,23l5.48,2.45a1,1,0,0,1,.5,1.32l-1,2.2A1,1,0,0,1,34.29,29.57Z"/>
</g>
</svg>