<?xml version="1.0" encoding="utf-8"?>
<!-- Uploaded to: SVG Repo, www.svgrepo.com, Generator: SVG Repo Mixer Tools -->
<svg width="800px" height="800px" viewBox="0 0 1024 1024" class="icon"  version="1.1" xmlns="http://www.w3.org/2000/svg"><path d="M860.586878 583.070952c34.812101-6.51703 57.337578-34.85408 57.337578-68.726255v-84.167469c0-2.879166 0.118771-6.679828-1.369958-6.679828h0.861087l0.394196-0.602044c-0.004096-0.006143 0.205801-0.287712 0.201706-0.293855l-68.451854-104.776233c-11.24738-16.870558-34.908346-31.528501-55.182299-31.528501H637.379877v-27.644904h65.816373c23.206361 0 37.596045-15.686947 37.596045-38.893308V107.53458c0-23.206361-14.389684-44.445838-37.596045-44.445838H324.441615c-23.206361 0-44.397715 21.239477-44.397716 44.445838v112.222951c0 23.206361 21.191355 38.893308 44.397716 38.893308h60.038587v27.644904H233.260531c-20.274977 0-44.042427 14.520742-55.289808 31.3913l-68.559361 103.739037c-0.003072 0.006143-0.008191 0.845729-0.012287 0.851873l-0.033788 0.660406-1.531732 0.112627c-1.487705 0-3.897931 4.247076-3.897932 7.126242v84.167469c0 33.872174 27.644904 62.209225 55.289808 68.726255v324.05561c0 10.225543 6.689043 17.050762 11.487993 25.241845h-53.467292v28.668789h786.34393v-28.668789h-46.665622c4.798951-8.191083 3.662438-15.016302 3.662438-25.241845V583.070952z m-27.644904 294.006623h-378.83757V696.707889c0-23.206361-15.274321-44.884061-38.480682-44.884061H303.399747c-23.206361 0-45.881325 21.6777-45.881325 44.884061v180.37071h-70.648087V583.070952c22.525477-3.492473 34.112787-13.30027 44.236965-26.8217 12.803686 17.099909 34.233606 28.235686 57.188091 28.235686 22.954485 0 43.846865-11.135777 56.649527-28.235686 12.803686 17.099909 33.42576 28.235686 56.381269 28.235686 22.954485 0 43.44243-11.135777 56.246117-28.235686 12.803686 17.099909 33.224055 28.235686 56.17854 28.235686 22.954485 0 43.34209-11.135777 56.145776-28.235686 12.803686 17.099909 33.173885 28.235686 56.128369 28.235686s43.316493-11.135777 56.120179-28.235686c12.803686 17.099909 33.161598 28.235686 56.116083 28.235686 22.954485 0 41.55029-11.135777 54.353976-28.235686 10.124178 13.52143 25.992353 23.329227 40.326747 26.8217v294.006623z m-406.482473-167.917193h-141.296175v-12.453517c0-7.736478 10.503016-17.239157 18.236421-17.239157h112.222951c7.733406 0 10.835778 9.50268 10.835779 17.239157v12.453517z m-182.251588-268.257955h82.934711v73.441247c0 23.206361-18.260995 42.083735-41.467356 42.083734s-41.467356-18.877374-41.467355-42.083734v-73.441247z m110.579615 0h84.982482v73.441247c0 23.206361-19.28488 42.083735-42.491241 42.083734s-42.491241-18.877374-42.491241-42.083734v-73.441247z m112.627386 0h86.006367v73.441247c0 23.206361-19.796823 42.083735-43.003184 42.083734s-43.003184-18.877374-43.003183-42.083734v-73.441247z m113.651271 0h83.958596v73.441247c0 23.206361-18.772937 42.083735-41.979298 42.083734s-41.979298-18.877374-41.979298-42.083734v-73.441247z m111.6035 0h84.982482v73.441247c0 23.206361-19.28488 42.083735-42.491241 42.083734s-42.491241-18.877374-42.491241-42.083734v-73.441247z m197.609868 73.44227c0 23.206361-19.28488 42.083735-42.491241 42.083735s-42.491241-18.877374-42.491241-42.083735v-73.441246h84.982482v73.441246z m-177.132162-297.365991c0 7.74774-6.280513 14.028253-14.028252 14.028253H321.717056c-7.74774 0-14.028253-6.280513-14.028253-14.028253V104.761899c0-7.74774 6.280513-14.028253 14.028253-14.028253h377.403107c7.74774 0 14.028253 6.280513 14.028252 14.028253v112.216807zM201.314285 332.110516c5.96618-8.945686 21.192378-17.14496 31.946246-17.14496h276.133681v-28.668789h-97.269106v-27.644904h196.585982v56.313693h185.666246c10.753868 0 25.980066 8.199274 31.946246 17.14496l54.06524 81.148031H147.249044l54.065241-81.148031z m-69.733758 182.234181v-73.441246h84.982482v73.441246c0 23.206361-19.28488 42.083735-42.491241 42.083735s-42.491241-18.877374-42.491241-42.083735z m87.651751 418.022686c-15.472955 0-28.055482-8.191083-28.055482-27.644904h66.341626v27.644904h-38.286144z m65.931048 0v-195.562097h141.296175v195.562097h-141.296175z m168.941078 0v-27.644904h382.356664c0 19.453821-12.582527 27.644904-28.055481 27.644904H454.104404z" fill="#262626" /><path d="M784.819364 813.903851c0 7.74774-6.280513 14.028253-14.028253 14.028253H518.303038c-7.74774 0-14.028253-6.280513-14.028253-14.028253V665.851057c0-7.74774 6.280513-14.028253 14.028253-14.028253h252.489097c7.74774 0 14.028253 6.280513 14.028253 14.028253v148.052794z" fill="#E0E0E0" /><path d="M377.313005 806.429488h27.644904v55.289807h-27.644904zM398.814597 118.37855h224.230886v27.644903h-224.230886zM446.937207 173.668357h125.937895v29.692675h-125.937895z" fill="#FF4C48" /></svg>