<?xml version="1.0" encoding="UTF-8" standalone="no"?>
<svg
   xmlns:dc="http://purl.org/dc/elements/1.1/"
   xmlns:cc="http://creativecommons.org/ns#"
   xmlns:rdf="http://www.w3.org/1999/02/22-rdf-syntax-ns#"
   xmlns:svg="http://www.w3.org/2000/svg"
   xmlns="http://www.w3.org/2000/svg"
   xmlns:sodipodi="http://sodipodi.sourceforge.net/DTD/sodipodi-0.dtd"
   xmlns:inkscape="http://www.inkscape.org/namespaces/inkscape"
   width="233.66614"
   height="228.50476"
   viewBox="0 0 61.824165 60.458549"
   version="1.1"
   id="svg1034"
   inkscape:version="1.0.1 (3bc2e813f5, 2020-09-07)"
   sodipodi:docname="degree.svg"
   inkscape:export-filename="C:\Users\keega\Documents\cannlytics\assets\images\illustrations\multi-tone\degree.png"
   inkscape:export-xdpi="96"
   inkscape:export-ydpi="96">
  <defs
     id="defs1028">
    <clipPath
       clipPathUnits="userSpaceOnUse"
       id="clipPath1824">
      <path
         d="m 466.283,741.164 h 63.482 v -19.581 h -63.482 z"
         id="path1822"
         inkscape:connector-curvature="0" />
    </clipPath>
    <filter
       inkscape:collect="always"
       style="color-interpolation-filters:sRGB"
       id="filter2984"
       x="-4.8417312e-05"
       width="1.0000968"
       y="-5.6567825e-05"
       height="1.0001131">
      <feGaussianBlur
         inkscape:collect="always"
         stdDeviation="0.0010676785"
         id="feGaussianBlur2986" />
    </filter>
  </defs>
  <sodipodi:namedview
     id="base"
     pagecolor="#323443"
     bordercolor="#666666"
     borderopacity="1.0"
     inkscape:pageopacity="0"
     inkscape:pageshadow="2"
     inkscape:zoom="1.4"
     inkscape:cx="108.88343"
     inkscape:cy="135.25169"
     inkscape:document-units="mm"
     inkscape:current-layer="layer1"
     inkscape:document-rotation="0"
     showgrid="false"
     inkscape:window-width="1624"
     inkscape:window-height="997"
     inkscape:window-x="230"
     inkscape:window-y="94"
     inkscape:window-maximized="0"
     units="px" />
  <metadata
     id="metadata1031">
    <rdf:RDF>
      <cc:Work
         rdf:about="">
        <dc:format>image/svg+xml</dc:format>
        <dc:type
           rdf:resource="http://purl.org/dc/dcmitype/StillImage" />
        <dc:title></dc:title>
      </cc:Work>
    </rdf:RDF>
  </metadata>
  <g
     inkscape:label="Layer 1"
     inkscape:groupmode="layer"
     id="layer1"
     transform="translate(-75.677204,-103.57435)"
     style="filter:url(#filter2984)">
    <path
       fill="#f6e2ee"
       d="m 98.704337,128.62715 h -13.66795 a 4.9054313,4.9054313 0 1 0 0,9.81086 h 13.66913 a 4.9054313,4.9054313 0 0 0 0,-9.81086 z m 29.437853,-8.5873 h -5.20116 a 4.9054313,4.9054313 0 1 0 0,9.81086 h 5.20116 a 4.9054313,4.9054313 0 1 0 0,-9.81086 z m -1.47403,23.84746 h -8.74074 a 4.9054313,4.9054313 0 0 0 0,9.81086 h 8.74074 a 4.9054313,4.9054313 0 1 0 0,-9.81086 z"
       id="path2"
       style="stroke-width:0.587969" />
    <path
       fill="#ffffff"
       d="m 90.172887,136.25487 c -2.07435,2.82579 -2.07435,7.19088 0,10.01607 a 1.4440528,1.4440528 0 0 0 1.29355,0.58796 c 13.846083,-1.31528 17.168123,-1.30999 31.105923,0.0178 0.4304,0.0411 0.87196,-0.10934 1.16125,-0.43098 2.48241,-2.7623 2.6341,-7.20499 0.0511,-10.27536 a 1.4493445,1.4493445 0 0 0 -1.23886,-0.51743 c -13.91547,1.3247 -17.24221,1.32882 -31.080083,0.0156 a 1.4440528,1.4440528 0 0 0 -1.29292,0.58796 z"
       id="path4"
       style="stroke-width:0.587969" />
    <path
       fill="#cf95c2"
       d="m 110.59896,145.877 h -6.92041 c 1.15066,-3.06686 1.22299,-6.15544 0,-9.27052 h 6.92041 c 1.10772,3.2603 1.11479,6.35184 0,9.27052 z m 0.0876,7.2773 -3.5484,-2.30896 -3.46019,2.30896 v -7.2773 h 7.00859 z m 6.69756,-29.89355 H 96.893377 v 8.10694 c 0,3.5137 20.490743,3.5137 20.490743,0 v -8.10634 z"
       id="path6"
       style="stroke-width:0.587969" />
    <path
       fill="#ffffff"
       d="m 91.979127,122.75981 15.156103,-3.95528 15.16255,3.95528 -15.16255,3.95467 z"
       id="path8"
       style="stroke-width:0.587969" />
    <path
       fill="#cf95c2"
       d="m 122.29778,127.86278 a 1.2758935,1.2758935 0 0 0 -1.27589,1.2759 v 1.88974 h 2.55179 v -1.88974 a 1.2758935,1.2758935 0 0 0 -1.2759,-1.2759 z"
       id="path10"
       style="stroke-width:0.587969" />
    <circle
       cx="102.89361"
       cy="129.89894"
       r="1.1871102"
       fill="#ffffff"
       id="circle12"
       style="stroke-width:0.587969" />
    <circle
       cx="107.13877"
       cy="129.89894"
       r="1.1871102"
       fill="#ffffff"
       id="circle14"
       style="stroke-width:0.587969" />
    <circle
       cx="111.38331"
       cy="129.89894"
       r="1.1871102"
       fill="#ffffff"
       id="circle16"
       style="stroke-width:0.587969" />
    <ellipse
       cx="107.13816"
       cy="122.7598"
       fill="#cf95c2"
       rx="2.418318"
       ry="1.0213028"
       id="ellipse18"
       style="stroke-width:0.587969" />
    <path
       fill="#010101"
       d="m 124.00819,135.98147 a 1.7345097,1.7345097 0 0 0 -1.48757,-0.62325 c -13.76084,1.3047 -17.23161,1.31706 -31.027143,0.0178 -0.6056,-0.0589 -1.19945,0.21155 -1.55812,0.70556 -2.13432,2.90457 -2.13432,7.45546 0,10.36589 0.35867,0.48803 0.95252,0.76437 1.55812,0.70556 4.99186,-0.47625 8.619633,-0.77612 11.888733,-0.90545 v 6.90863 a 0.29339671,0.29339671 0 0 0 0.45863,0.24107 l 3.2985,-2.199 3.38671,2.20489 a 0.29692453,0.29692453 0 0 0 0.29987,0.0111 c 0.094,-0.0529 0.15289,-0.15289 0.15289,-0.25871 v -6.89101 c 3.17503,0.14689 6.73812,0.44687 11.56535,0.90547 0.0589,0.007 0.11177,0.007 0.17044,0.007 0.48214,0 0.93488,-0.194 1.23475,-0.53505 2.66349,-2.9575 2.68701,-7.53777 0.0589,-10.65989 z m -13.62326,0.91723 c 0.99368,3.04568 0.99955,5.96789 0.0111,8.68432 H 104.093 c 1.01719,-2.93985 1.01719,-5.85618 0.007,-8.68432 5.56041,0.08 3.27086,0.009 6.28538,0 z m -18.944363,9.66622 c -0.39982,0.0353 -0.79376,-0.14111 -1.02894,-0.47038 -1.99322,-2.71052 -1.99322,-6.95568 0,-9.66622 0.23518,-0.32338 0.62912,-0.50565 1.02894,-0.47036 5.05066,0.48214 8.719593,0.78787 12.023983,0.91723 1.08185,2.84577 1.07597,5.79738 -0.0178,8.77839 -3.30439,0.12355 -6.955703,0.4292 -12.006353,0.91134 z m 18.950253,6.04433 -3.09272,-2.01086 a 0.30280424,0.30280424 0 0 0 -0.32338,0 l -3.00452,2.00497 v -6.37358 c 2.17549,-0.0764 4.21573,-0.0707 6.42062,0.0178 z m 13.12348,-6.36182 c -0.21756,0.24107 -0.56445,0.36453 -0.91137,0.33513 -4.85074,-0.46449 -8.4256,-0.76436 -11.61826,-0.90547 0.9819,-2.77521 0.98779,-5.73858 0.007,-8.82543 3.1809,-0.14689 6.74987,-0.44685 11.58299,-0.90546 0.3763,-0.0353 0.74083,0.11756 0.98779,0.41156 2.43418,2.8987 2.41654,7.14973 -0.0471,9.88967 z m -31.609233,-23.20128 4.69198,1.22297 v 7.09679 c 0,2.16373 5.679803,2.93396 10.542293,2.93396 4.86252,0 10.53641,-0.77023 10.53641,-2.93396 v -7.09679 l 4.32747,-1.1289 v 4.45094 a 1.5822256,1.5822256 0 0 0 -1.27591,1.54635 v 1.89326 c 0,0.15867 0.12934,0.29398 0.29398,0.29398 h 2.55181 c 0.16467,0 0.29398,-0.13533 0.29398,-0.29398 v -1.89326 c 0,-0.76437 -0.55269,-1.40524 -1.2759,-1.54635 v -4.83312 a 0.29868844,0.29868844 0 0 0 -0.24694,-0.28809 l -15.13434,-3.95116 a 0.31044783,0.31044783 0 0 0 -0.14689,0 l -15.157853,3.95702 a 0.29457266,0.29457266 0 0 0 0,0.57034 z m 25.182723,8.31976 c 0,1.31706 -4.36861,2.346 -9.94845,2.346 -5.57981,0 -9.954313,-1.02894 -9.954313,-2.346 v -6.94392 l 9.877893,2.57532 c 0.0236,0.007 0.0471,0.0111 0.0707,0.0111 0.0293,0 0.0529,-0.007 0.0764,-0.0111 l 9.87789,-2.57532 z m 6.19131,-2.2284 v 1.59928 h -1.9638 v -1.59928 c 0,-0.54094 0.44096,-0.9819 0.9819,-0.9819 0.54094,0 0.9819,0.44096 0.9819,0.9819 z m -16.14562,-10.03076 12.87063,3.35731 h -10.21889 c -0.27636,-0.66441 -1.49346,-1.01719 -2.64588,-1.01719 -1.31706,0 -2.71054,0.45862 -2.71054,1.31117 0,0.98779 1.71218,1.31706 2.71054,1.31706 0.87255,0 2.35072,-0.25872 2.65174,-1.02308 h 10.21303 c -5.60333,1.45759 -7.2085,1.88033 -12.87063,3.3573 l -13.987803,-3.65128 z m 0.007,4.38038 c -0.68912,0 -2.12258,-0.27635 -2.12258,-0.72909 0,-0.28809 0.84668,-0.72321 2.12258,-0.72321 1.27588,0 2.12256,0.43512 2.12256,0.72321 0,0.46331 -1.40819,0.72909 -2.12256,0.72909 z"
       id="path20"
       style="stroke-width:0.587969" />
    <circle
       cx="91.979134"
       cy="115.53719"
       r="1.11479"
       fill="#f3765d"
       id="circle22"
       style="stroke-width:0.587969" />
    <circle
       cx="83.449471"
       cy="145.52835"
       r="1.6339669"
       fill="#d2edf6"
       id="circle24"
       style="stroke-width:0.587969" />
    <circle
       cx="118.50596"
       cy="112.78842"
       r="1.6339669"
       fill="#dfebf8"
       id="circle26"
       style="stroke-width:0.587969" />
    <circle
       cx="130.26476"
       cy="136.86873"
       r="0.77964741"
       fill="#fdbe5c"
       id="circle28"
       style="stroke-width:0.587969" />
    <circle
       cx="97.504875"
       cy="153.95099"
       r="2.5018098"
       fill="#fdddd6"
       id="circle30"
       style="stroke-width:0.587969" />
  </g>
</svg>
