<?xml version="1.0" encoding="UTF-8" standalone="no"?>
<svg
   xmlns:dc="http://purl.org/dc/elements/1.1/"
   xmlns:cc="http://creativecommons.org/ns#"
   xmlns:rdf="http://www.w3.org/1999/02/22-rdf-syntax-ns#"
   xmlns:svg="http://www.w3.org/2000/svg"
   xmlns="http://www.w3.org/2000/svg"
   xmlns:sodipodi="http://sodipodi.sourceforge.net/DTD/sodipodi-0.dtd"
   xmlns:inkscape="http://www.inkscape.org/namespaces/inkscape"
   width="500"
   height="285"
   viewBox="0 0 132.29167 75.406252"
   version="1.1"
   id="svg1346"
   inkscape:version="1.0.1 (3bc2e813f5, 2020-09-07)"
   sodipodi:docname="lab.svg"
   inkscape:export-filename="C:\Users\keega\Documents\cannlytics\assets\images\illustrations\outline\lab.png"
   inkscape:export-xdpi="96"
   inkscape:export-ydpi="96">
  <defs
     id="defs1340" />
  <sodipodi:namedview
     id="base"
     pagecolor="#333644"
     bordercolor="#666666"
     borderopacity="1.0"
     inkscape:pageopacity="0"
     inkscape:pageshadow="2"
     inkscape:zoom="1.4"
     inkscape:cx="243.03571"
     inkscape:cy="128.86518"
     inkscape:document-units="mm"
     inkscape:current-layer="layer1"
     inkscape:document-rotation="0"
     showgrid="false"
     units="px"
     inkscape:window-width="1920"
     inkscape:window-height="1120"
     inkscape:window-x="-11"
     inkscape:window-y="-11"
     inkscape:window-maximized="1" />
  <metadata
     id="metadata1343">
    <rdf:RDF>
      <cc:Work
         rdf:about="">
        <dc:format>image/svg+xml</dc:format>
        <dc:type
           rdf:resource="http://purl.org/dc/dcmitype/StillImage" />
        <dc:title></dc:title>
      </cc:Work>
    </rdf:RDF>
  </metadata>
  <g
     inkscape:label="Layer 1"
     inkscape:groupmode="layer"
     id="layer1"
     transform="translate(1.6666668e-7,-28.612678)">
    <path
       d="M 2.9600088,66.683342 H 55.21395 V 28.612678 H 2.9600088 v 38.070664"
       style="fill:#e1e3e6;fill-opacity:1;fill-rule:nonzero;stroke:none;stroke-width:0.0196637"
       id="path16" />
    <path
       d="M 11.483495,66.683342 H 55.21395 V 28.612678 H 11.483495 v 38.070664"
       style="fill:#f6f6f4;fill-opacity:1;fill-rule:nonzero;stroke:none;stroke-width:0.0196637"
       id="path18" />
    <path
       d="m 50.596102,64.04289 h 1.785671 V 31.253131 H 50.596102 V 64.04289"
       style="fill:#e1e3e6;fill-opacity:1;fill-rule:nonzero;stroke:none;stroke-width:0.0196637"
       id="path20" />
    <path
       d="M 14.315826,64.04289 H 52.483432 V 31.253131 H 14.315826 Z"
       style="fill:none;stroke:#ffffff;stroke-width:0.589912;stroke-linecap:butt;stroke-linejoin:miter;stroke-miterlimit:10;stroke-dasharray:none;stroke-opacity:1"
       id="path22" />
    <path
       d="M 18.150069,52.236555 H 16.693572 V 43.5839 h 1.456497 v 8.652655"
       style="fill:#e1e3e6;fill-opacity:1;fill-rule:nonzero;stroke:none;stroke-width:0.0196637"
       id="path24" />
    <path
       d="m 20.176226,43.5839 h -2.222795 v 8.652655 h 2.222795 z m -0.589914,0.589913 v 7.472828 h -1.042967 v -7.472828 h 1.042967"
       style="fill:#ffffff;fill-opacity:1;fill-rule:nonzero;stroke:none;stroke-width:0.0196637"
       id="path26" />
    <path
       d="M 126.69476,29.999565 V 76.328429"
       style="fill:none;stroke:#f6f6f4;stroke-width:0.98319;stroke-linecap:butt;stroke-linejoin:miter;stroke-miterlimit:10;stroke-dasharray:none;stroke-opacity:1"
       id="path28" />
    <path
       d="M 64.468903,29.999565 V 76.328429"
       style="fill:none;stroke:#f6f6f4;stroke-width:0.98319;stroke-linecap:butt;stroke-linejoin:miter;stroke-miterlimit:10;stroke-dasharray:none;stroke-opacity:1"
       id="path30" />
    <path
       d="M 130.37248,33.42421 H 60.791186 v -4.811532 h 69.581294 v 4.811532"
       style="fill:#f6f6f4;fill-opacity:1;fill-rule:nonzero;stroke:none;stroke-width:0.0196637"
       id="path32" />
    <path
       d="M 130.37248,40.926535 H 60.791186 v -4.811531 h 69.581294 v 4.811531"
       style="fill:#f6f6f4;fill-opacity:1;fill-rule:nonzero;stroke:none;stroke-width:0.0196637"
       id="path34" />
    <path
       d="M 130.37248,48.429057 H 60.791186 v -4.811532 h 69.581294 v 4.811532"
       style="fill:#f6f6f4;fill-opacity:1;fill-rule:nonzero;stroke:none;stroke-width:0.0196637"
       id="path36" />
    <path
       d="M 130.37248,55.93138 H 60.791186 v -4.811531 h 69.581294 v 4.811531"
       style="fill:#f6f6f4;fill-opacity:1;fill-rule:nonzero;stroke:none;stroke-width:0.0196637"
       id="path38" />
    <path
       d="M 130.37248,63.433902 H 60.791186 v -4.811728 h 69.581294 v 4.811728"
       style="fill:#f6f6f4;fill-opacity:1;fill-rule:nonzero;stroke:none;stroke-width:0.0196637"
       id="path40" />
    <path
       d="M 130.37248,70.936227 H 60.791186 v -4.811533 h 69.581294 v 4.811533"
       style="fill:#f6f6f4;fill-opacity:1;fill-rule:nonzero;stroke:none;stroke-width:0.0196637"
       id="path42" />
    <path
       d="M 130.37248,78.43855 H 60.791186 v -4.811337 h 69.581294 v 4.811337"
       style="fill:#f6f6f4;fill-opacity:1;fill-rule:nonzero;stroke:none;stroke-width:0.0196637"
       id="path44" />
    <path
       d="m 83.481031,97.381818 -22.454862,0.02759 -0.0069,-5.14149 22.454667,-0.02715 c 1.419728,-0.0022 2.572223,1.147378 2.574385,2.566911 v 0 c 0.0017,1.4199 -1.147383,2.572372 -2.567306,2.574145"
       style="fill:#e1e3e6;fill-opacity:1;fill-rule:nonzero;stroke:none;stroke-width:0.0196637"
       id="path46" />
    <path
       d="m 71.639698,97.398177 -10.613529,0.0112 -0.0069,-5.14149 10.613334,-0.01081 c 1.419923,-0.0022 2.572222,1.147378 2.574385,2.567106 v 0 c 0.0022,1.419505 -1.147383,2.572222 -2.567306,2.573989"
       style="fill:#f6f6f4;fill-opacity:1;fill-rule:nonzero;stroke:none;stroke-width:0.0196637"
       id="path48" />
    <path
       d="m 71.524077,96.584292 -10.512066,0.01059 -0.0045,-3.512526 10.512066,-0.01104 c 0.969818,-0.0011 1.757355,0.783992 1.758732,1.754011 v 0 c 0.0011,0.969974 -0.783998,1.757528 -1.754011,1.758922"
       style="fill:#ffffff;fill-opacity:1;fill-rule:nonzero;stroke:none;stroke-width:0.0196637"
       id="path50" />
    <path
       d="m 83.329625,94.80964 c 0.0011,0.708682 -0.239704,1.353258 -0.628651,1.822415 -0.393668,0.463104 -0.9358,0.751 -1.5324,0.751769 l -2.29752,0.0033 c 0.596601,-0.0011 1.138732,-0.288744 1.532206,-0.752004 0.388947,-0.468922 0.629832,-1.113738 0.628846,-1.822225 -0.0022,-1.41756 -0.970013,-2.569859 -2.168131,-2.568482 l 2.297715,-0.0028 c 1.198117,-0.0017 2.166163,1.150722 2.167935,2.568092"
       style="fill:#f6f6f4;fill-opacity:1;fill-rule:nonzero;stroke:none;stroke-width:0.0196637"
       id="path52" />
    <path
       d="m 79.75632,94.814751 c 0.0011,0.708482 -0.239503,1.353064 -0.628456,1.82222 -0.393863,0.463338 -0.935799,0.751 -1.532394,0.75177 l -2.29752,0.0033 c 0.5964,-5.57e-4 1.138532,-0.28866 1.532401,-0.751764 0.388752,-0.469157 0.629437,-1.113738 0.62845,-1.82242 -0.0022,-1.417365 -0.970013,-2.569859 -2.168125,-2.568092 l 2.297715,-0.0033 c 1.198111,-0.0017 2.166162,1.150922 2.167929,2.568482"
       style="fill:#f6f6f4;fill-opacity:1;fill-rule:nonzero;stroke:none;stroke-width:0.0196637"
       id="path54" />
    <path
       d="m 87.014616,100.45391 c 0,0.002 0,0.002 0,0.005 0,0.49374 -0.117193,0.95737 -0.321502,1.3707 -0.50536,1.00822 -1.547735,1.70176 -2.750964,1.70407 l -24.894942,0.0323 -0.0092,-6.154398 24.894943,-0.02988 c 1.219354,-0.0022 2.275496,0.707345 2.773772,1.73594 0.197625,0.404248 0.307935,0.85675 0.307935,1.336528"
       style="fill:#e1e3e6;fill-opacity:1;fill-rule:nonzero;stroke:none;stroke-width:0.0196637"
       id="path56" />
    <path
       d="m 87.014616,100.45391 c 0,0.002 0,0.002 0,0.005 0,0.49374 -0.117193,0.95737 -0.321502,1.3707 h -15.34896 v -2.711985 h 15.362527 c 0.19762,0.404248 0.307935,0.85675 0.307935,1.336525"
       style="fill:#e1e3e6;fill-opacity:1;fill-rule:nonzero;stroke:none;stroke-width:0.0196637"
       id="path58" />
    <path
       d="m 72.100226,103.54995 -13.052823,0.0146 -0.0083,-6.15223 13.052628,-0.01449 c 1.698951,-0.0022 3.077973,1.372929 3.080331,3.07183 v 0 c 0.0022,1.69894 -1.372924,3.07802 -3.071875,3.08032"
       style="fill:#f6f6f4;fill-opacity:1;fill-rule:nonzero;stroke:none;stroke-width:0.0196637"
       id="path60" />
    <path
       d="m 72.144467,102.57544 -13.104733,0.0146 -0.0057,-4.203353 13.104538,-0.01455 c 1.16095,-0.0017 2.103238,0.938097 2.104614,2.098653 v 0 c 0.0017,1.16101 -0.937962,2.1031 -2.098717,2.10463"
       style="fill:#ffffff;fill-opacity:1;fill-rule:nonzero;stroke:none;stroke-width:0.0196637"
       id="path62" />
    <path
       d="M 78.092569,103.55572 V 56.270974"
       style="fill:none;stroke:#17282f;stroke-width:0.196637;stroke-linecap:butt;stroke-linejoin:miter;stroke-miterlimit:10;stroke-dasharray:none;stroke-opacity:1"
       id="path64" />
    <path
       d="M 111.6614,59.518253 H 97.752813"
       style="fill:none;stroke:#17282f;stroke-width:0.196637;stroke-linecap:butt;stroke-linejoin:miter;stroke-miterlimit:10;stroke-dasharray:none;stroke-opacity:1"
       id="path66" />
    <path
       d="M 109.04337,103.55572 V 56.270974"
       style="fill:none;stroke:#17282f;stroke-width:0.196637;stroke-linecap:butt;stroke-linejoin:miter;stroke-miterlimit:10;stroke-dasharray:none;stroke-opacity:1"
       id="path68" />
    <path
       d="M 103.15151,85.359809 H 76.749533 c -1.075417,0 -1.884581,-0.871888 -1.807103,-1.9473 l 2.559045,-35.562552 c 0.07708,-1.075412 1.011701,-1.947304 2.087113,-1.947304 h 26.401972 c 1.07541,0 1.88458,0.871892 1.8073,1.947304 l -2.55904,35.562552 c -0.0773,1.075412 -1.0117,1.9473 -2.08731,1.9473"
       style="fill:#d2d4d7;fill-opacity:1;fill-rule:nonzero;stroke:none;stroke-width:0.0196637"
       id="path70" />
    <path
       d="M 101.35306,85.359809 H 74.950886 c -1.075412,0 -1.884582,-0.871888 -1.807104,-1.9473 l 2.558851,-35.562552 c 0.07747,-1.075412 1.012091,-1.947304 2.087307,-1.947304 h 26.40218 c 1.07541,0 1.88438,0.871892 1.8069,1.947304 l -2.55865,35.562552 c -0.0775,1.075412 -1.0121,1.9473 -2.08731,1.9473"
       style="fill:#273d47;fill-opacity:1;fill-rule:nonzero;stroke:none;stroke-width:0.0196637"
       id="path72" />
    <path
       d="M 100.60446,83.858088 H 75.915392 c -0.679185,0 -1.190247,-0.550587 -1.141285,-1.229772 l 2.445977,-33.993969 c 0.04894,-0.679385 0.639074,-1.229775 1.318259,-1.229775 H 103.2276 c 0.6792,0 1.19006,0.55039 1.14109,1.229775 l -2.44597,33.993969 c -0.0488,0.679185 -0.63908,1.229772 -1.31826,1.229772"
       style="fill:#d2d4d7;fill-opacity:1;fill-rule:nonzero;stroke:none;stroke-width:0.0196637"
       id="path74" />
    <path
       d="M 100.60446,83.858088 H 77.039375 c -0.679185,0 -1.190252,-0.550587 -1.141485,-1.229772 l 2.446177,-33.993969 c 0.04894,-0.679385 0.639074,-1.229775 1.318259,-1.229775 H 103.2276 c 0.6792,0 1.19006,0.55039 1.14109,1.229775 l -2.44597,33.993969 c -0.0488,0.679185 -0.63908,1.229772 -1.31826,1.229772"
       style="fill:#ffffff;fill-opacity:1;fill-rule:nonzero;stroke:none;stroke-width:0.0196637"
       id="path76" />
    <path
       d="m 90.349794,61.300774 -5.447658,-3.619906 0.351981,-0.498083 5.447853,3.619906 -0.352176,0.498083"
       style="fill:#d2d4d7;fill-opacity:1;fill-rule:nonzero;stroke:none;stroke-width:0.0196637"
       id="path78" />
    <path
       d="m 85.889846,63.766613 -0.24147,-0.520106 4.756868,-2.454828 0.241276,0.520108 -4.756674,2.454826"
       style="fill:#d2d4d7;fill-opacity:1;fill-rule:nonzero;stroke:none;stroke-width:0.0196637"
       id="path80" />
    <path
       d="m 90.661268,61.303528 -0.270773,-0.503591 4.794427,-2.800516 0.270968,0.503591 -4.794622,2.800516"
       style="fill:#d2d4d7;fill-opacity:1;fill-rule:nonzero;stroke:none;stroke-width:0.0196637"
       id="path82" />
    <path
       d="m 95.411449,65.742038 -5.089581,-4.462697 0.408022,-0.455217 5.089385,4.462894 -0.407826,0.45502"
       style="fill:#d2d4d7;fill-opacity:1;fill-rule:nonzero;stroke:none;stroke-width:0.0196637"
       id="path84" />
    <path
       d="m 95.292678,59.728852 c -0.819192,0.04326 -1.470652,-0.583032 -1.455318,-1.399079 0.01533,-0.816047 0.691777,-1.512932 1.510969,-1.556192 0.819192,-0.04346 1.470852,0.583031 1.455513,1.399079 -0.01533,0.816046 -0.691972,1.512735 -1.511164,1.556192"
       style="fill:#79a7dc;fill-opacity:1;fill-rule:nonzero;stroke:none;stroke-width:0.0196637"
       id="path86" />
    <path
       d="m 85.741188,64.984195 c -0.819192,0.04326 -1.470852,-0.583031 -1.455312,-1.399077 0.01533,-0.816245 0.691771,-1.512933 1.510963,-1.556193 0.819192,-0.04346 1.470852,0.583031 1.455513,1.399078 -0.01555,0.816048 -0.691972,1.512736 -1.511164,1.556192"
       style="fill:#79a7dc;fill-opacity:1;fill-rule:nonzero;stroke:none;stroke-width:0.0196637"
       id="path88" />
    <path
       d="m 95.587442,66.992064 c -0.819198,0.04345 -1.470853,-0.582834 -1.455519,-1.399078 0.01533,-0.816047 0.691777,-1.512735 1.510969,-1.556193 0.819192,-0.04345 1.471047,0.583033 1.455708,1.399079 -0.01533,0.816047 -0.691966,1.512932 -1.511158,1.556192"
       style="fill:#273d47;fill-opacity:1;fill-rule:nonzero;stroke:none;stroke-width:0.0196637"
       id="path90" />
    <path
       d="m 85.050404,58.909462 c -0.819198,0.04326 -1.470853,-0.583032 -1.455518,-1.399079 0.01533,-0.816047 0.691776,-1.512932 1.511163,-1.556192 0.819192,-0.04345 1.470853,0.583031 1.455513,1.399079 -0.01533,0.816046 -0.691966,1.512735 -1.511158,1.556192"
       style="fill:#273d47;fill-opacity:1;fill-rule:nonzero;stroke:none;stroke-width:0.0196637"
       id="path92" />
    <path
       d="m 90.48508,63.227236 c -1.206177,0.06391 -2.165772,-0.858324 -2.142958,-2.059979 0.02263,-1.201457 1.018579,-2.227317 2.224757,-2.291224 1.206178,-0.06371 2.165572,0.85852 2.142964,2.059978 -0.02263,1.201654 -1.018585,2.227318 -2.224763,2.291225"
       style="fill:#9ac0e9;fill-opacity:1;fill-rule:nonzero;stroke:none;stroke-width:0.0196637"
       id="path94" />
    <path
       d="M 80.727515,69.405401 H 98.996158"
       style="fill:none;stroke:#e7e8e5;stroke-width:0.786551;stroke-linecap:round;stroke-linejoin:round;stroke-miterlimit:10;stroke-dasharray:none;stroke-opacity:1"
       id="path96" />
    <path
       d="M 80.508067,72.456434 H 98.77671"
       style="fill:none;stroke:#e7e8e5;stroke-width:0.786551;stroke-linecap:round;stroke-linejoin:round;stroke-miterlimit:10;stroke-dasharray:none;stroke-opacity:1"
       id="path98" />
    <path
       d="M 80.288424,75.507469 H 91.370146"
       style="fill:none;stroke:#e7e8e5;stroke-width:0.786551;stroke-linecap:round;stroke-linejoin:round;stroke-miterlimit:10;stroke-dasharray:none;stroke-opacity:1"
       id="path100" />
    <path
       d="m 80.068776,78.558698 h 6.835921"
       style="fill:none;stroke:#e7e8e5;stroke-width:0.786551;stroke-linecap:round;stroke-linejoin:round;stroke-miterlimit:10;stroke-dasharray:none;stroke-opacity:1"
       id="path102" />
    <path
       d="M 99.214229,53.558748 H 82.618384 c -0.723236,0 -1.267134,-0.586375 -1.215224,-1.309411 v 0 c 0.05212,-0.723038 0.680367,-1.309216 1.403603,-1.309216 h 16.595844 c 0.722843,0 1.266933,0.586178 1.214823,1.309216 v 0 c -0.0519,0.723036 -0.680361,1.309411 -1.403201,1.309411"
       style="fill:#e1e3e6;fill-opacity:1;fill-rule:nonzero;stroke:none;stroke-width:0.0196637"
       id="path104" />
    <path
       d="m 110.20707,60.682152 h -2.32761 v -2.327799 h 2.32761 v 2.327799"
       style="fill:#17282f;fill-opacity:1;fill-rule:nonzero;stroke:none;stroke-width:0.0196637"
       id="path106" />
    <path
       d="m 57.669558,101.56667 v 2.06884 H 38.459025 c -1.547541,0 -2.839844,-0.81266 -3.563668,-1.98288 l 1.439389,-3.377882 0.845739,-1.985571 0.724021,-1.697218 1.441945,-3.386303 h 13.228422 l -1.444699,3.386303 -0.723827,1.697218 -0.715566,1.680629 c -0.726575,1.702686 0.524239,3.596864 2.376569,3.596864 h 5.602208"
       style="fill:#e1e3e6;fill-opacity:1;fill-rule:nonzero;stroke:none;stroke-width:0.0196637"
       id="path108" />
    <path
       d="m 51.130174,94.591959 -0.723827,1.697218 h -13.94123 v -1.697218 h 14.665057"
       style="fill:#d2d4d7;fill-opacity:1;fill-rule:nonzero;stroke:none;stroke-width:0.0196637"
       id="path110" />
    <path
       d="m 48.004613,101.56452 v 2.07162 h -9.545588 c -1.547541,0 -2.839844,-0.81253 -3.563668,-1.98289 -0.685087,-1.10102 -0.870713,-2.518207 -0.296726,-3.860418 l 2.806611,-6.586585 h 1.941209 l -3.011705,7.069131 c -0.66562,1.558576 0.479796,3.289142 2.174224,3.289142 h 9.495643"
       style="fill:#d2d4d7;fill-opacity:1;fill-rule:nonzero;stroke:none;stroke-width:0.0196637"
       id="path112" />
    <path
       d="M 57.668772,101.56568 H 43.066053 v 2.07099 h 14.602719 v -2.07099"
       style="fill:#f6f6f4;fill-opacity:1;fill-rule:nonzero;stroke:none;stroke-width:0.0196637"
       id="path114" />
    <path
       d="M 70.254189,94.590978 H 20.976935 c -1.048866,0 -1.969918,-0.850066 -2.057619,-1.898935 L 16.309538,61.417185 c -0.0877,-1.048867 0.691575,-1.898932 1.740442,-1.898932 h 49.277252 c 1.048868,0 1.96992,0.850065 2.057426,1.898932 l 2.61017,31.274858 c 0.08731,1.048869 -0.691972,1.898935 -1.740639,1.898935"
       style="fill:#d2d4d7;fill-opacity:1;fill-rule:nonzero;stroke:none;stroke-width:0.0196637"
       id="path116" />
    <path
       d="m 23.030621,94.492659 c -0.99715,0 -1.876318,-0.811528 -1.959496,-1.808876 L 18.46115,61.408926 c -0.04012,-0.480584 0.109331,-0.931867 0.420608,-1.270281 0.309704,-0.336644 0.743881,-0.522074 1.221909,-0.522074 h 47.223565 c 0.997348,0 1.876126,0.811329 1.959496,1.808675 l 2.610176,31.275058 c 0.03991,0.480584 -0.109529,0.931865 -0.421003,1.270479 -0.309708,0.336641 -0.743487,0.521876 -1.221712,0.521876 H 23.030621"
       style="fill:#f6f6f4;fill-opacity:1;fill-rule:nonzero;stroke:none;stroke-width:0.0196637"
       id="path118" />
    <path
       d="M 67.327232,59.518253 H 20.103667 c -1.04867,0 -1.827947,0.850065 -1.740443,1.898932 L 20.9732,92.692043 c 0.0875,1.048869 1.008554,1.898935 2.057421,1.898935 h 47.223568 c 1.048667,0 1.827944,-0.850066 1.740639,-1.898935 L 69.384658,61.417185 C 69.297152,60.368318 68.3761,59.518253 67.327232,59.518253 Z m 0,0.196637 c 0.9474,0 1.782522,0.771017 1.861573,1.718615 l 2.609974,31.274859 c 0.03774,0.452859 -0.102645,0.877792 -0.395045,1.195754 -0.291023,0.316001 -0.699245,0.490221 -1.149545,0.490221 H 23.030621 c -0.947402,0 -1.782522,-0.771016 -1.86157,-1.718616 l -2.609778,-31.27486 c -0.03795,-0.453053 0.102447,-0.877791 0.394848,-1.195755 0.291024,-0.316193 0.699244,-0.490218 1.149546,-0.490218 h 47.223565"
       style="fill:#e1e3e6;fill-opacity:1;fill-rule:nonzero;stroke:none;stroke-width:0.0196637"
       id="path120" />
    <path
       d="M 71.697901,89.135059 H 20.676275 L 18.363224,61.417185 c -0.0875,-1.048867 0.691773,-1.898932 1.740443,-1.898932 h 47.223565 c 1.048868,0 1.96992,0.850065 2.057426,1.898932 l 2.313243,27.717874"
       style="fill:#273d47;fill-opacity:1;fill-rule:nonzero;stroke:none;stroke-width:0.0196637"
       id="path122" />
    <path
       d="m 68.754825,87.331105 h -45.43672 c -0.599943,0 -1.126932,-0.48648 -1.177074,-1.086225 L 20.15204,62.408436 c -0.05014,-0.599943 0.395634,-1.086425 0.995576,-1.086425 h 45.436721 c 0.600134,0 1.127127,0.486482 1.17707,1.086425 l 1.989389,23.836444 c 0.04994,0.599745 -0.395831,1.086225 -0.995971,1.086225"
       style="fill:#e1e3e6;fill-opacity:1;fill-rule:nonzero;stroke:none;stroke-width:0.0196637"
       id="path124" />
    <path
       d="m 69.750991,86.244094 c 0.05017,0.59994 -0.395045,1.086421 -0.99499,1.086421 H 23.318498 c -0.599942,0 -1.127915,-0.486481 -1.178057,-1.086421 L 20.493402,66.47589 20.309939,64.290064 h 47.608192 l 0.183462,2.185826 1.649398,19.768204"
       style="fill:#ffffff;fill-opacity:1;fill-rule:nonzero;stroke:none;stroke-width:0.0196637"
       id="path126" />
    <path
       d="M 68.101593,66.47589 H 20.493402 l -0.183463,-2.185826 h 47.608192 l 0.183462,2.185826"
       style="fill:#9ac0e9;fill-opacity:1;fill-rule:nonzero;stroke:none;stroke-width:0.0196637"
       id="path128" />
    <path
       d="m 45.544084,81.066028 c -0.198605,0 -0.36909,-0.150035 -0.390523,-0.351786 l -1.051816,-9.927263 c -0.023,-0.215908 0.133517,-0.409598 0.349425,-0.432604 0.216892,-0.02025 0.409794,0.13391 0.432603,0.349623 l 1.051816,9.927264 c 0.023,0.215909 -0.133516,0.409593 -0.349621,0.432603 -0.01397,0.0011 -0.02812,0.0022 -0.04188,0.0022"
       style="fill:#d4d6d3;fill-opacity:1;fill-rule:nonzero;stroke:none;stroke-width:0.0196637"
       id="path130" />
    <path
       d="m 47.84278,80.356559 c -0.198603,0 -0.369286,-0.14984 -0.390719,-0.351785 l -0.901584,-8.508327 c -0.02281,-0.216104 0.133712,-0.409596 0.349621,-0.432799 0.217678,-0.02005 0.409794,0.133911 0.432604,0.349819 l 0.901585,8.508327 c 0.0228,0.216103 -0.133715,0.409593 -0.349623,0.432798 -0.01416,0.0011 -0.02812,0.0022 -0.04188,0.0022"
       style="fill:#d4d6d3;fill-opacity:1;fill-rule:nonzero;stroke:none;stroke-width:0.0196637"
       id="path132" />
    <path
       d="m 49.997344,78.288711 c -0.198606,0 -0.369092,-0.15003 -0.390524,-0.35178 l -0.463672,-4.375196 c -0.0228,-0.216103 0.133714,-0.409598 0.349622,-0.432797 0.217876,-0.02062 0.409794,0.133909 0.432603,0.349818 l 0.463472,4.375189 c 0.02302,0.215909 -0.133514,0.409599 -0.349618,0.432608 -0.01399,0.0011 -0.02809,0.0022 -0.04186,0.0022"
       style="fill:#d4d6d3;fill-opacity:1;fill-rule:nonzero;stroke:none;stroke-width:0.0196637"
       id="path134" />
    <path
       d="m 32.532359,81.066028 c -0.198605,0 -0.36909,-0.150035 -0.390523,-0.351786 l -1.052012,-9.927263 c -0.02281,-0.215908 0.133713,-0.409598 0.349621,-0.432604 0.217089,-0.02025 0.409794,0.13391 0.432605,0.349623 l 1.051815,9.927264 c 0.023,0.215909 -0.133518,0.409593 -0.349426,0.432603 -0.01416,0.0011 -0.02811,0.0022 -0.04208,0.0022"
       style="fill:#d4d6d3;fill-opacity:1;fill-rule:nonzero;stroke:none;stroke-width:0.0196637"
       id="path136" />
    <path
       d="m 34.717595,80.356559 c -0.198603,0 -0.369088,-0.14984 -0.390522,-0.351785 l -0.901585,-8.508327 c -0.023,-0.216104 0.133517,-0.409596 0.349623,-0.432799 0.217678,-0.02005 0.409596,0.133911 0.432407,0.349819 l 0.901584,8.508327 c 0.023,0.216103 -0.133517,0.409593 -0.349623,0.432798 -0.01397,0.0011 -0.02812,0.0022 -0.04188,0.0022"
       style="fill:#d4d6d3;fill-opacity:1;fill-rule:nonzero;stroke:none;stroke-width:0.0196637"
       id="path138" />
    <path
       d="m 36.758697,78.288711 c -0.198408,0 -0.369089,-0.15003 -0.390523,-0.35178 l -0.463673,-4.375196 c -0.023,-0.216103 0.133715,-0.409598 0.349623,-0.432797 0.217875,-0.02062 0.409596,0.133909 0.432603,0.349818 l 0.463672,4.375189 c 0.02281,0.215909 -0.133713,0.409599 -0.349621,0.432608 -0.01416,0.0011 -0.02812,0.0022 -0.04208,0.0022"
       style="fill:#d4d6d3;fill-opacity:1;fill-rule:nonzero;stroke:none;stroke-width:0.0196637"
       id="path140" />
    <path
       d="m 58.357204,81.066028 c -0.198606,0 -0.369287,-0.150035 -0.390719,-0.351786 l -1.051817,-9.927263 c -0.02302,-0.215908 0.133519,-0.409598 0.349623,-0.432604 0.217675,-0.02025 0.409598,0.13391 0.432407,0.349623 l 1.052012,9.927264 c 0.02302,0.215909 -0.133714,0.409593 -0.349623,0.432603 -0.01416,0.0011 -0.02809,0.0022 -0.04186,0.0022"
       style="fill:#d4d6d3;fill-opacity:1;fill-rule:nonzero;stroke:none;stroke-width:0.0196637"
       id="path142" />
    <path
       d="m 56.021542,80.356559 c -0.198411,0 -0.369092,-0.14984 -0.390524,-0.351785 l -0.901387,-8.508327 c -0.02302,-0.216104 0.133514,-0.409596 0.349423,-0.432799 0.21709,-0.02005 0.409793,0.133911 0.432602,0.349819 l 0.901587,8.508327 c 0.0228,0.216103 -0.133714,0.409593 -0.349623,0.432798 -0.01416,0.0011 -0.02809,0.0022 -0.04208,0.0022"
       style="fill:#d4d6d3;fill-opacity:1;fill-rule:nonzero;stroke:none;stroke-width:0.0196637"
       id="path144" />
    <path
       d="m 53.542523,78.291074 c -0.198601,0 -0.369282,-0.14984 -0.390519,-0.351786 l -0.463672,-4.374994 c -0.02302,-0.215908 0.133519,-0.409599 0.349427,-0.432608 0.217085,-0.02023 0.409789,0.133915 0.432603,0.349622 l 0.463672,4.375001 c 0.02302,0.216103 -0.133714,0.409593 -0.349623,0.432797 -0.01416,0.0011 -0.02809,0.0022 -0.04192,0.0022"
       style="fill:#d4d6d3;fill-opacity:1;fill-rule:nonzero;stroke:none;stroke-width:0.0196637"
       id="path146" />
    <path
       d="m 43.087684,80.286946 c -0.198409,0 -0.36909,-0.150035 -0.390523,-0.351786 l -0.901586,-8.508518 c -0.023,-0.215909 0.133714,-0.409597 0.349623,-0.432603 0.217482,-0.01986 0.409596,0.13391 0.432603,0.349621 l 0.901585,8.50852 c 0.02281,0.215909 -0.133714,0.409599 -0.349622,0.432603 -0.01416,0.0011 -0.02812,0.0022 -0.04208,0.0022"
       style="fill:#d4d6d3;fill-opacity:1;fill-rule:nonzero;stroke:none;stroke-width:0.0196637"
       id="path148" />
    <path
       d="m 40.520969,78.464509 c -0.198605,0 -0.369286,-0.14984 -0.390719,-0.351786 l -0.513225,-4.844174 c -0.023,-0.215908 0.133713,-0.409599 0.349621,-0.432602 0.217679,-0.01945 0.409598,0.133909 0.432605,0.349817 l 0.513225,4.843979 c 0.023,0.216104 -0.133715,0.409593 -0.349623,0.432603 -0.01416,0.0011 -0.02812,0.0022 -0.04188,0.0022"
       style="fill:#d4d6d3;fill-opacity:1;fill-rule:nonzero;stroke:none;stroke-width:0.0196637"
       id="path150" />
    <path
       d="m 45.5431,81.066028 c -3.529059,0 -5.552857,-2.600538 -7.509993,-5.115337 -1.925675,-2.474494 -3.744771,-4.811928 -6.889209,-4.811928 -0.217284,0 -0.393274,-0.17599 -0.393274,-0.393276 0,-0.217088 0.17599,-0.393274 0.393274,-0.393274 3.529062,0 5.552858,2.600537 7.509995,5.115336 1.925674,2.474493 3.744772,4.811928 6.889207,4.811928 3.107469,0 4.418058,-2.31423 5.805535,-4.764143 1.437425,-2.538399 2.923612,-5.163121 6.489642,-5.163121 0.217286,0 0.393273,0.176186 0.393273,0.393274 0,0.217286 -0.175987,0.393276 -0.393273,0.393276 -3.107469,0 -4.417863,2.31423 -5.80534,4.764142 -1.43742,2.538399 -2.923807,5.163123 -6.489837,5.163123"
       style="fill:#273d47;fill-opacity:1;fill-rule:nonzero;stroke:none;stroke-width:0.0196637"
       id="path152" />
    <path
       d="m 58.893433,81.066028 c -3.529448,0 -5.553447,-2.600538 -7.51078,-5.115337 -1.925868,-2.474494 -3.744966,-4.811928 -6.889992,-4.811928 -3.107862,0 -4.41865,2.31423 -5.806127,4.764142 -1.437815,2.538399 -2.924398,5.163123 -6.49082,5.163123 -0.217284,0 -0.393274,-0.176189 -0.393274,-0.393279 0,-0.217285 0.17599,-0.393272 0.393274,-0.393272 3.107863,0 4.418651,-2.31423 5.806324,-4.764143 1.43762,-2.538399 2.924202,-5.163121 6.490623,-5.163121 3.529453,0 5.553445,2.600537 7.510778,5.115336 1.925874,2.474493 3.745167,4.811928 6.889994,4.811928 0.217285,0 0.393278,0.175987 0.393278,0.393272 0,0.21709 -0.175993,0.393279 -0.393278,0.393279"
       style="fill:#79a7dc;fill-opacity:1;fill-rule:nonzero;stroke:none;stroke-width:0.0196637"
       id="path154" />
    <path
       d="m 38.66746,69.674008 c 0.03756,0.354538 -0.219447,0.642022 -0.574182,0.642022 -0.354341,0 -0.672305,-0.287484 -0.709863,-0.642022 -0.03756,-0.354734 0.219448,-0.642219 0.573986,-0.642219 0.354538,0 0.672501,0.287485 0.710059,0.642219"
       style="fill:#9ac0e9;fill-opacity:1;fill-rule:nonzero;stroke:none;stroke-width:0.0196637"
       id="path156" />
    <path
       d="m 52.09881,81.844909 c 0.03757,0.354344 -0.219643,0.641828 -0.573987,0.641828 -0.354734,0 -0.672696,-0.287484 -0.710254,-0.641828 -0.03757,-0.354734 0.219643,-0.642218 0.573987,-0.642218 0.354539,0 0.672501,0.287484 0.710254,0.642218"
       style="fill:#9ac0e9;fill-opacity:1;fill-rule:nonzero;stroke:none;stroke-width:0.0196637"
       id="path158" />
    <path
       d="m 53.63101,69.674008 c 0.03757,0.354538 -0.219448,0.642022 -0.574182,0.642022 -0.354534,0 -0.672301,-0.287484 -0.710059,-0.642022 -0.03757,-0.354734 0.219648,-0.642219 0.573987,-0.642219 0.354539,0 0.672501,0.287485 0.710254,0.642219"
       style="fill:#9ac0e9;fill-opacity:1;fill-rule:nonzero;stroke:none;stroke-width:0.0196637"
       id="path160" />
    <path
       d="m 30.822593,76.55024 c 0.03756,0.354533 -0.219448,0.642023 -0.573986,0.642023 -0.354538,0 -0.672501,-0.28749 -0.710059,-0.642023 -0.03756,-0.354734 0.219447,-0.642218 0.573985,-0.642218 0.354539,0 0.672502,0.287484 0.71006,0.642218"
       style="fill:#79a7dc;fill-opacity:1;fill-rule:nonzero;stroke:none;stroke-width:0.0196637"
       id="path162" />
    <path
       d="m 39.953866,81.844909 c 0.03756,0.354344 -0.219447,0.641828 -0.573986,0.641828 -0.354538,0 -0.672305,-0.287484 -0.71006,-0.641828 -0.03756,-0.354734 0.219448,-0.642218 0.573986,-0.642218 0.354538,0 0.672502,0.287484 0.71006,0.642218"
       style="fill:#79a7dc;fill-opacity:1;fill-rule:nonzero;stroke:none;stroke-width:0.0196637"
       id="path164" />
    <path
       d="m 60.957347,75.639411 c 0.03757,0.354734 -0.219448,0.642218 -0.573987,0.642218 -0.354539,0 -0.672502,-0.287484 -0.710059,-0.642218 -0.03757,-0.354539 0.219448,-0.642023 0.573987,-0.642023 0.354539,0 0.672501,0.287484 0.710059,0.642023"
       style="fill:#79a7dc;fill-opacity:1;fill-rule:nonzero;stroke:none;stroke-width:0.0196637"
       id="path166" />
    <path
       d="m 30.021883,62.103844 h -8.391324 c -0.414513,0 -0.716548,0.336251 -0.674271,0.750762 l 0.148462,1.46397 H 31.899185 L 30.72093,62.495547 c -0.156129,-0.241472 -0.424148,-0.391703 -0.699047,-0.391703"
       style="fill:#9ac0e9;fill-opacity:1;fill-rule:nonzero;stroke:none;stroke-width:0.0196637"
       id="path168" />
    <path
       d="m 24.048615,63.211112 c 0.03009,0.295349 -0.185037,0.534854 -0.480189,0.534854 -0.295351,0 -0.559042,-0.239505 -0.588932,-0.534854 -0.03009,-0.295154 0.185037,-0.534462 0.480388,-0.534462 0.295152,0 0.558844,0.239308 0.588733,0.534462 z"
       style="fill:none;stroke:#ffffff;stroke-width:0.196637;stroke-linecap:butt;stroke-linejoin:miter;stroke-miterlimit:10;stroke-dasharray:none;stroke-opacity:1"
       id="path170" />
    <path
       d="m 26.294809,63.211112 c 0.02989,0.295349 -0.185035,0.534854 -0.480386,0.534854 -0.295351,0 -0.558845,-0.239505 -0.58893,-0.534854 -0.02989,-0.295154 0.185035,-0.534462 0.480386,-0.534462 0.295153,0 0.558844,0.239308 0.58893,0.534462 z"
       style="fill:none;stroke:#ffffff;stroke-width:0.196637;stroke-linecap:butt;stroke-linejoin:miter;stroke-miterlimit:10;stroke-dasharray:none;stroke-opacity:1"
       id="path172" />
    <path
       d="m 28.540808,63.211112 c 0.03009,0.295349 -0.185037,0.534854 -0.48019,0.534854 -0.295351,0 -0.559042,-0.239505 -0.589128,-0.534854 -0.02989,-0.295154 0.185233,-0.534462 0.480386,-0.534462 0.29535,0 0.559042,0.239308 0.588932,0.534462 z"
       style="fill:none;stroke:#ffffff;stroke-width:0.196637;stroke-linecap:butt;stroke-linejoin:miter;stroke-miterlimit:10;stroke-dasharray:none;stroke-opacity:1"
       id="path174" />
    <path
       d="M 55.27805,65.916062 H 33.133677 c -0.277062,0 -0.508112,-0.212369 -0.531119,-0.488449 v 0 c -0.02615,-0.310884 0.219055,-0.577525 0.531119,-0.577525 H 55.27805 c 0.277067,0 0.507919,0.212369 0.530923,0.488449 v 0 c 0.02614,0.310884 -0.219052,0.577525 -0.530923,0.577525"
       style="fill:#ffffff;fill-opacity:1;fill-rule:nonzero;stroke:none;stroke-width:0.0196637"
       id="path176" />
    <path
       d="m 19.826408,101.67698 -1.489533,-10.497867 0.38954,-0.05524 1.489336,10.497887 -0.389343,0.0552"
       style="fill:#79a7dc;fill-opacity:1;fill-rule:nonzero;stroke:none;stroke-width:0.0196637"
       id="path178" />
    <path
       d="m 18.461543,91.959176 0.38423,-3.227813 6.681756,-10.175224 c 2.732282,10.851856 -3.497206,9.556802 -7.065986,13.403037"
       style="fill:#79a7dc;fill-opacity:1;fill-rule:nonzero;stroke:none;stroke-width:0.0196637"
       id="path180" />
    <path
       d="m 18.461543,91.959176 c -1.995284,-4.725409 3.887531,-8.793645 7.065986,-13.403037 2.08613,8.290057 -6.270586,7.359174 -7.065986,13.403037"
       style="fill:#9ac0e9;fill-opacity:1;fill-rule:nonzero;stroke:none;stroke-width:0.0196637"
       id="path182" />
    <path
       d="m 22.409835,101.9283 h -0.393276 c 0,-8.968237 2.11661,-10.940715 2.206671,-11.02035 l 0.260544,0.294758 c -0.01966,0.01789 -2.073939,1.992137 -2.073939,10.725592"
       style="fill:#79a7dc;fill-opacity:1;fill-rule:nonzero;stroke:none;stroke-width:0.0196637"
       id="path184" />
    <path
       d="m 22.919127,93.654587 c 1.417562,-2.103438 10.621394,1.487564 11.327521,-9.527499 -4.992243,2.99676 -9.526909,2.391313 -11.327521,9.527499"
       style="fill:#79a7dc;fill-opacity:1;fill-rule:nonzero;stroke:none;stroke-width:0.0196637"
       id="path186" />
    <path
       d="m 22.919127,93.654587 c 1.985453,-4.232434 8.160471,-3.563076 11.327521,-9.527499 -4.992243,2.99676 -9.526909,2.391313 -11.327521,9.527499"
       style="fill:#9ac0e9;fill-opacity:1;fill-rule:nonzero;stroke:none;stroke-width:0.0196637"
       id="path188" />
    <path
       d="m 17.696031,103.30831 c -0.981812,0 -1.780359,-0.79792 -1.780359,-1.77858 v -6.167345 h 9.386116 v 6.167345 c 0,0.98066 -0.798743,1.77858 -1.780359,1.77858 h -5.825398"
       style="fill:#f6f6f4;fill-opacity:1;fill-rule:nonzero;stroke:none;stroke-width:0.0196637"
       id="path190" />
    <path
       d="m 25.400107,95.264065 h -9.582753 v 6.265435 c 0,1.03727 0.841217,1.87712 1.878677,1.87712 h 5.825398 c 1.037264,0 1.878678,-0.83985 1.878678,-1.87712 z m -0.196639,0.196639 v 6.068796 c 0,0.92681 -0.754499,1.68049 -1.682039,1.68049 h -5.825398 c -0.92754,0 -1.682039,-0.75368 -1.682039,-1.68049 v -6.068796 h 9.189476"
       style="fill:#e1e3e6;fill-opacity:1;fill-rule:nonzero;stroke:none;stroke-width:0.0196637"
       id="path192" />
    <path
       d="m 15.817354,95.264065 v 6.265665 c 0,1.03704 0.841217,1.87689 1.878677,1.87689 h 5.610865 c -2.181893,-1.16938 -3.786852,-4.183246 -5.278153,-8.142555 h -2.211389"
       style="fill:#e1e3e6;fill-opacity:1;fill-rule:nonzero;stroke:none;stroke-width:0.0196637"
       id="path194" />
    <path
       d="m 36.712487,52.27372 h 8.020268 v -6.737994 h -8.020268 v 6.737994"
       style="fill:#e1e3e6;fill-opacity:1;fill-rule:nonzero;stroke:none;stroke-width:0.0196637"
       id="path196" />
    <path
       d="m 38.094851,51.484612 h 8.02027 l -1.382366,-5.948886 h -8.020072 l 1.382168,5.948886"
       style="fill:#9ac0e9;fill-opacity:1;fill-rule:nonzero;stroke:none;stroke-width:0.0196637"
       id="path198" />
    <path
       d="m 36.712683,45.535726 h 8.020072 v -1.988991 h -8.020072 v 1.988991"
       style="fill:#79a7dc;fill-opacity:1;fill-rule:nonzero;stroke:none;stroke-width:0.0196637"
       id="path200" />
    <path
       d="m 38.437394,47.366818 c 0.964509,0.311081 1.925085,-0.253859 2.89923,-0.13332 0.245796,0.03028 0.489627,0.09517 0.738178,0.09419 0.270573,-0.0012 0.47842,-0.134894 0.72638,-0.227511 0.472914,-0.176188 0.954676,0.05466 1.379808,0.274506 0.07354,0.03795 0.01081,0.156131 -0.06194,0.119753 -0.244028,-0.121915 -0.494938,-0.244027 -0.761972,-0.28945 -0.280602,-0.04739 -0.500837,0.03638 -0.75037,0.165766 -0.217679,0.113065 -0.433193,0.156327 -0.673682,0.139219 -0.24678,-0.0177 -0.489037,-0.07964 -0.736211,-0.09321 -0.938552,-0.05093 -1.881824,0.490218 -2.811922,0.169108 -0.126437,-0.04345 -0.07551,-0.260349 0.0525,-0.219055"
       style="fill:#273d47;fill-opacity:1;fill-rule:nonzero;stroke:none;stroke-width:0.0196637"
       id="path202" />
    <path
       d="m 38.97343,49.29328 c 0.186215,-0.09144 0.432996,-0.07197 0.634157,-0.08396 0.229672,-0.01376 0.459738,-0.01888 0.689609,-0.01888 0.443811,0 0.887426,0.01947 1.330844,0.03716 0.445778,0.0175 0.891359,0.03579 1.336942,0.05545 0.460722,0.02006 0.920067,0.06233 1.380594,0.08298 0.06882,0.003 0.06941,0.119359 0,0.117787 -0.443026,-0.0096 -0.886051,0.0026 -1.329076,-0.0075 -0.454233,-0.01003 -0.908467,-0.02143 -1.3627,-0.03362 -0.443615,-0.0118 -0.887231,-0.02576 -1.331042,-0.02084 -0.221611,0.0026 -0.443025,0.0098 -0.664243,0.02458 -0.11051,0.0075 -0.220823,0.01691 -0.330941,0.03028 -0.110904,0.01357 -0.219252,0.03953 -0.330155,0.01809 -0.08259,-0.01613 -0.102252,-0.163208 -0.02399,-0.201553"
       style="fill:#273d47;fill-opacity:1;fill-rule:nonzero;stroke:none;stroke-width:0.0196637"
       id="path204" />
    <path
       d="m 25.406203,48.366918 h 8.020269 v -6.737992 h -8.020269 v 6.737992"
       style="fill:#e1e3e6;fill-opacity:1;fill-rule:nonzero;stroke:none;stroke-width:0.0196637"
       id="path206" />
    <path
       d="m 26.748452,47.577811 h 8.020074 l -1.342054,-5.948885 h -8.020269 l 1.342249,5.948885"
       style="fill:#9ac0e9;fill-opacity:1;fill-rule:nonzero;stroke:none;stroke-width:0.0196637"
       id="path208" />
    <path
       d="m 25.406203,41.628926 h 8.020269 v -1.988993 h -8.020269 v 1.988993"
       style="fill:#79a7dc;fill-opacity:1;fill-rule:nonzero;stroke:none;stroke-width:0.0196637"
       id="path210" />
    <path
       d="m 28.350265,43.104692 c 0.0938,0.07708 0.17953,0.157901 0.251304,0.234394 0.07924,0.08455 0.155737,0.171665 0.231836,0.258972 -0.0993,0.13804 -0.19369,0.280799 -0.295155,0.418641 -0.04562,-0.304396 -0.122308,-0.608987 -0.187985,-0.912007 z m 0.812901,0.522074 c 0.06017,-0.07787 0.123685,-0.152984 0.195064,-0.22161 0.106972,-0.103039 0.226527,-0.171075 0.352966,-0.214139 0.0087,0.155344 0.01672,0.310295 0.02242,0.465442 0.0063,0.171861 0.0013,0.348639 0.03461,0.520696 -0.15377,-0.09694 -0.297317,-0.21807 -0.420411,-0.345885 -0.06332,-0.06587 -0.124276,-0.134894 -0.184643,-0.204504 z m 0.713009,0.613118 c 7.24e-4,-0.0022 0.0033,-0.0033 0.0035,-0.0059 0.02379,-0.18602 -0.01199,-0.386197 -0.0291,-0.57674 -0.01514,-0.165569 -0.02772,-0.330745 -0.03913,-0.495921 0.256612,-0.05506 0.539377,-0.0018 0.818602,0.143547 0.227904,0.118572 0.432996,0.274506 0.630421,0.441452 -0.100285,0.15967 -0.213154,0.308918 -0.354932,0.427293 -0.0016,-0.01652 -0.003,-0.03304 -0.0043,-0.04955 -0.0047,-0.05329 -0.0094,-0.10638 -0.01397,-0.159669 -0.0094,-0.106382 -0.01868,-0.212762 -0.02812,-0.318947 -0.004,-0.04582 -0.07315,-0.04582 -0.0702,-4.42e-4 l 0.02025,0.318947 c 0.0036,0.05309 0.0069,0.106184 0.01022,0.159473 0.0023,0.0352 0.0049,0.0704 0.01022,0.105398 -0.0352,0.02458 -0.06941,0.05054 -0.108544,0.07099 -0.07571,0.03972 -0.153377,0.05978 -0.231246,0.07158 0.0053,-0.0087 0.0114,-0.01691 0.01003,-0.03028 -0.0352,-0.335071 -0.09065,-0.669355 -0.125652,-1.004425 -0.0041,-0.03953 -0.0645,-0.03992 -0.06096,-4.43e-4 0.03028,0.334875 0.04031,0.669158 0.0704,1.004033 0.0016,0.0175 0.01003,0.03009 0.02065,0.03953 -0.178548,0.0067 -0.358078,-0.04975 -0.528171,-0.140005 z m 1.620886,-0.551767 c 0.0409,-0.07551 0.08101,-0.151608 0.120932,-0.226723 0.08849,-0.16675 0.189166,-0.34274 0.313244,-0.494348 0.02517,0.235966 0.05014,0.471931 0.07531,0.7077 0.01338,0.125062 0.02674,0.249926 0.04012,0.374792 0.0053,0.05093 0.0079,0.105595 0.0122,0.16026 -0.15672,-0.13509 -0.305968,-0.280799 -0.452857,-0.419822 -0.03598,-0.03421 -0.07236,-0.06804 -0.108938,-0.101859 z m 1.075216,0.885854 c -0.135288,-0.07197 -0.261135,-0.16321 -0.383444,-0.260546 -0.0063,-0.08731 -0.02753,-0.179725 -0.03893,-0.263101 -0.01711,-0.125062 -0.03402,-0.249926 -0.05093,-0.374791 -0.03402,-0.249928 -0.06784,-0.499657 -0.101661,-0.749584 -0.0013,-0.009 -0.0065,-0.01494 -0.0116,-0.02045 0.106774,-0.117197 0.229476,-0.215713 0.376562,-0.27431 0.0348,0.331138 0.06941,0.662275 0.104021,0.993414 0.0175,0.166946 0.035,0.333891 0.0525,0.500837 0.01514,0.143545 0.01258,0.305772 0.05349,0.44853 z M 27.15982,42.867547 c 0.317963,-0.263101 0.742111,-0.09596 1.084457,0.154951 -0.0033,0.0071 -0.0077,0.01298 -0.0057,0.02379 0.06292,0.339005 0.108938,0.68312 0.194672,1.019371 0.0057,0.02222 0.02222,0.03225 0.04012,0.03697 -0.119162,0.152787 -0.253465,0.297316 -0.419429,0.399765 -0.02084,0.01279 -0.04326,0.02242 -0.06489,0.03382 -0.05053,-0.256809 -0.116016,-0.513225 -0.174025,-0.769052 -0.06568,-0.290433 -0.130566,-0.580867 -0.194671,-0.871498 -0.01338,-0.06017 -0.107756,-0.06214 -0.09517,-6.13e-4 0.05958,0.289647 0.118573,0.579295 0.176384,0.868943 0.05486,0.274505 0.101465,0.551569 0.165962,0.824895 -0.03205,0.01121 -0.06371,0.02359 -0.09773,0.03067 -0.09635,0.01966 -0.194082,0.0037 -0.273524,0.06469 -0.04739,0.03638 -0.06017,0.107364 -0.0057,0.156916 0.171469,0.155934 0.450302,0.05133 0.614297,-0.02674 0.205487,-0.09773 0.377348,-0.257989 0.521484,-0.428867 0.149051,-0.176974 0.270967,-0.375972 0.401142,-0.568086 0.198603,0.220824 0.407432,0.429653 0.666994,0.584604 0.39721,0.237145 0.856949,0.272146 1.210306,0.0293 0.211386,-0.145315 0.360438,-0.350211 0.490613,-0.569069 0.464654,0.408416 0.904729,0.850655 1.520009,0.988695 0.0877,0.01967 0.109922,-0.110904 0.02163,-0.133124 -0.09753,-0.02478 -0.189756,-0.06194 -0.280013,-0.104021 0.003,-0.0045 0.0071,-0.0079 0.0079,-0.01416 0.01711,-0.148069 -0.02478,-0.322093 -0.04129,-0.473701 l -0.05427,-0.500837 c -0.03638,-0.333694 -0.07256,-0.667585 -0.108937,-1.001477 -0.0011,-0.01003 -0.0073,-0.01573 -0.0122,-0.02281 0.04759,-0.01279 0.09616,-0.02438 0.148462,-0.02871 0.03677,-0.0031 0.03245,-0.06076 -0.0057,-0.05938 -0.487858,0.01848 -0.81585,0.38305 -1.049062,0.759414 -0.05958,0.09635 -0.116607,0.197621 -0.175205,0.298891 -0.280799,-0.246388 -0.583621,-0.467212 -0.931669,-0.592863 -0.419626,-0.151215 -0.848296,-0.100286 -1.173732,0.151607 -0.106971,0.08298 -0.196835,0.180317 -0.281193,0.281783 -0.225937,-0.267625 -0.456199,-0.531906 -0.757251,-0.713993 -0.389737,-0.235966 -0.908665,-0.322486 -1.248651,-0.04857 -0.148855,0.119752 0.0411,0.338021 0.185626,0.218464"
       style="fill:#273d47;fill-opacity:1;fill-rule:nonzero;stroke:none;stroke-width:0.0196637"
       id="path212" />
    <path
       d="m 27.636862,45.722139 c 1.760106,-0.0348 3.524538,-0.04129 5.28484,-0.02478 0.05368,6.13e-4 0.0586,0.0822 0.0041,0.08377 -1.758533,0.05486 -3.52198,0.08652 -5.281496,0.08967 -0.09537,1.48e-4 -0.103629,-0.146691 -0.0075,-0.148658"
       style="fill:#273d47;fill-opacity:1;fill-rule:nonzero;stroke:none;stroke-width:0.0196637"
       id="path214" />
    <path
       d="m 28.797222,46.390511 c 1.068728,-0.01888 2.141584,6.13e-4 3.210508,0.0122 0.04385,4.42e-4 0.04779,0.06725 0.0033,0.06863 -1.06735,0.03067 -2.138633,0.06961 -3.20618,0.06981 -0.09675,0 -0.105201,-0.148854 -0.0077,-0.150624"
       style="fill:#273d47;fill-opacity:1;fill-rule:nonzero;stroke:none;stroke-width:0.0196637"
       id="path216" />
    <path
       d="M -1.6666668e-7,103.55572 H 132.29167"
       style="fill:none;stroke:#17282f;stroke-width:0.196637;stroke-linecap:butt;stroke-linejoin:miter;stroke-miterlimit:10;stroke-dasharray:none;stroke-opacity:1"
       id="path218" />
    <path
       d="M 86.307901,102.82501 H 72.30827 v -1.7991 h 13.999631 v 1.7991"
       style="fill:#f6f6f4;fill-opacity:1;fill-rule:nonzero;stroke:none;stroke-width:0.0196637"
       id="path220" />
    <path
       d="M 86.307901,102.82501 H 72.30827 v -1.7991 h 13.999631 z"
       style="fill:none;stroke:#273d47;stroke-width:0.196637;stroke-linecap:butt;stroke-linejoin:miter;stroke-miterlimit:10;stroke-dasharray:none;stroke-opacity:1"
       id="path222" />
    <path
       d="M 85.026804,102.82501 H 73.589166 v 0.73071 h 11.437638 v -0.73071"
       style="fill:#f6f6f4;fill-opacity:1;fill-rule:nonzero;stroke:none;stroke-width:0.0196637"
       id="path224" />
    <path
       d="M 85.026804,102.82501 H 73.589166 v 0.73071 h 11.437638 z"
       style="fill:none;stroke:#273d47;stroke-width:0.196637;stroke-linecap:butt;stroke-linejoin:miter;stroke-miterlimit:10;stroke-dasharray:none;stroke-opacity:1"
       id="path226" />
    <path
       d="m 124.77184,99.958248 0.003,1.788002 0.003,1.78764 -4.73504,0.007 -0.002,-1.17022 c -4.4e-4,-0.3412 -0.34451,-0.61726 -0.76846,-0.61665 l -4.72442,0.007 c -0.42376,5.6e-4 -0.76709,0.27767 -0.7665,0.61864 l 0.002,1.17039 -4.73523,0.007 -0.002,-1.78803 -0.003,-1.787864 15.72965,-0.02157"
       style="fill:#17282f;fill-opacity:1;fill-rule:nonzero;stroke:none;stroke-width:0.0196637"
       id="path228" />
    <path
       d="m 119.92531,94.64387 -0.002,-1.59178 c -4.4e-4,-0.293387 -0.0314,-0.586178 -0.0928,-0.873271 l -0.95409,-4.46958 c -0.1404,-0.658143 -0.72225,-1.127913 -1.39495,-1.127322 l -1.74909,0.0028 -0.003,-2.33763 2.40764,-0.0033 1.68912,-0.0022 c 0.70533,-0.0011 1.34225,0.421394 1.61616,1.071086 l 2.73111,6.482168 c 0.22515,0.534462 0.34155,1.108449 0.34254,1.688138 l 0.005,3.7735 0.002,1.741012 -4.59169,0.0063 -10.63359,0.01477 -10e-4,-0.99994 c -5.6e-4,-0.409404 0.33074,-0.741702 0.74015,-0.74231 l 7.27402,-0.01 c 1.44608,-0.0017 2.61686,-1.175894 2.61489,-2.622188"
       style="fill:#f6f6f4;fill-opacity:1;fill-rule:nonzero;stroke:none;stroke-width:0.0196637"
       id="path230" />
    <path
       d="m 119.92531,94.64387 -0.002,-1.59178 c -4.4e-4,-0.293387 -0.0314,-0.586178 -0.0928,-0.873271 l -0.95409,-4.46958 c -0.1404,-0.658143 -0.72225,-1.127913 -1.39495,-1.127322 l -1.74909,0.0028 -0.003,-2.33763 2.40764,-0.0033 1.68912,-0.0022 c 0.70533,-0.0011 1.34225,0.421394 1.61616,1.071086 l 2.73111,6.482168 c 0.22515,0.534462 0.34155,1.108449 0.34254,1.688138 l 0.005,3.7735 0.002,1.741012 -4.59169,0.0063 -10.63359,0.01477 -10e-4,-0.99994 c -5.6e-4,-0.409404 0.33074,-0.741702 0.74015,-0.74231 l 7.27402,-0.01 c 1.44608,-0.0017 2.61686,-1.175894 2.61489,-2.622188 z"
       style="fill:none;stroke:#273d47;stroke-width:0.196637;stroke-linecap:butt;stroke-linejoin:miter;stroke-miterlimit:10;stroke-dasharray:none;stroke-opacity:1"
       id="path232" />
    <path
       d="m 107.5147,98.78955 18.79033,-0.02597 0.003,1.78787 -18.79033,0.026 -0.003,-1.787864"
       style="fill:#273d47;fill-opacity:1;fill-rule:nonzero;stroke:none;stroke-width:0.0196637"
       id="path234" />
    <path
       d="m 113.94064,75.1604 1.79786,-0.0022 0.004,3.061261 -1.79766,0.0028 -0.004,-3.061456"
       style="fill:#9ac0e9;fill-opacity:1;fill-rule:nonzero;stroke:none;stroke-width:0.0196637"
       id="path236" />
    <path
       d="m 113.55247,76.19118 2.57733,-0.0039 0.0198,16.24111 -2.57753,0.0033 -0.0197,-16.240909"
       style="fill:#273d47;fill-opacity:1;fill-rule:nonzero;stroke:none;stroke-width:0.0196637"
       id="path238" />
    <path
       d="m 112.47588,91.538763 4.76748,-0.0065 -0.0157,-13.314939 -4.76749,0.0067 0.0157,13.314744"
       style="fill:#f6f6f4;fill-opacity:1;fill-rule:nonzero;stroke:none;stroke-width:0.0196637"
       id="path240" />
    <path
       d="m 112.47588,91.538763 4.76748,-0.0065 -0.0157,-13.314939 -4.76749,0.0067 z"
       style="fill:none;stroke:#273d47;stroke-width:0.196637;stroke-linecap:butt;stroke-linejoin:miter;stroke-miterlimit:10;stroke-dasharray:none;stroke-opacity:1"
       id="path242" />
    <path
       d="m 114.18092,97.270366 1.37332,-0.0022 -0.003,-2.357467 -1.37352,0.0022 0.003,2.35749"
       style="fill:#17282f;fill-opacity:1;fill-rule:nonzero;stroke:none;stroke-width:0.0196637"
       id="path244" />
    <path
       d="m 115.17768,83.971351 c 0.002,1.132244 0.92086,2.048769 2.0531,2.047198 1.13204,-0.0017 2.04877,-0.920661 2.0472,-2.0529 -0.002,-1.132244 -0.92066,-2.048769 -2.0531,-2.047197 -1.13204,0.0011 -2.04877,0.92046 -2.0472,2.052899"
       style="fill:#9ac0e9;fill-opacity:1;fill-rule:nonzero;stroke:none;stroke-width:0.0196637"
       id="path246" />
    <path
       d="m 115.96482,83.97017 c 10e-4,0.697673 0.56731,1.262218 1.26478,1.261237 0.69767,-0.0011 1.26241,-0.567103 1.26143,-1.264576 -10e-4,-0.697674 -0.5673,-1.262419 -1.26497,-1.261432 -0.69767,0.0011 -1.26222,0.567103 -1.26124,1.264771 z"
       style="fill:none;stroke:#17282f;stroke-width:0.196637;stroke-linecap:butt;stroke-linejoin:miter;stroke-miterlimit:10;stroke-dasharray:none;stroke-opacity:1"
       id="path248" />
    <path
       d="m 111.71509,95.703947 6.30066,-0.0089 c 0.27608,-4.41e-4 0.49966,-0.224387 0.49927,-0.500661 v -0.07433 c -4.4e-4,-0.276079 -0.22476,-0.499657 -0.50084,-0.499262 l -6.30047,0.0086 c -0.27627,4.46e-4 -0.49985,0.224565 -0.49946,0.50084 l 1.5e-4,0.07413 c 4.4e-4,0.276079 0.22456,0.499852 0.50064,0.499457"
       style="fill:#273d47;fill-opacity:1;fill-rule:nonzero;stroke:none;stroke-width:0.0196637"
       id="path250" />
    <path
       d="M 91.710327,88.939602 H 80.905275 l 1.661394,2.425727 v 10.946651 c 0,0.7006 0.568084,1.26869 1.268706,1.26869 h 6.606446 c 0.700616,0 1.268506,-0.56809 1.268506,-1.26869 V 88.939602"
       style="fill:#f6f6f4;fill-opacity:1;fill-rule:nonzero;stroke:none;stroke-width:0.0196637"
       id="path252" />
    <path
       d="M 91.710327,88.939602 H 80.905275 l 1.661394,2.425727 v 10.946651 c 0,0.7006 0.568084,1.26869 1.268706,1.26869 h 6.606446 c 0.700616,0 1.268506,-0.56809 1.268506,-1.26869 z"
       style="fill:none;stroke:#273d47;stroke-width:0.196637;stroke-linecap:butt;stroke-linejoin:miter;stroke-miterlimit:10;stroke-dasharray:none;stroke-opacity:1"
       id="path254" />
    <path
       d="M 90.667166,95.387752 H 83.61003 v 6.373408 c 0,0.44029 0.356897,0.79715 0.796974,0.79715 h 5.463188 c 0.440077,0 0.796974,-0.35686 0.796974,-0.79715 v -6.373408"
       style="fill:#9ac0e9;fill-opacity:1;fill-rule:nonzero;stroke:none;stroke-width:0.0196637"
       id="path256" />
    <path
       d="m 85.343389,96.618471 c -0.62865,0 -0.629041,0.975576 0,0.975576 0.628456,0 0.628852,-0.975576 0,-0.975576"
       style="fill:#79a7dc;fill-opacity:1;fill-rule:nonzero;stroke:none;stroke-width:0.0196637"
       id="path258" />
    <path
       d="m 88.081572,97.255377 c -1.257102,0 -1.257497,1.951102 0,1.951102 1.257302,0 1.257892,-1.951102 0,-1.951102"
       style="fill:#79a7dc;fill-opacity:1;fill-rule:nonzero;stroke:none;stroke-width:0.0196637"
       id="path260" />
    <path
       d="m 86.288041,100.01914 c -1.005804,0 -1.006199,1.5609 0,1.5609 1.005603,0 1.006194,-1.5609 0,-1.5609"
       style="fill:#79a7dc;fill-opacity:1;fill-rule:nonzero;stroke:none;stroke-width:0.0196637"
       id="path262" />
    <path
       d="M 90.667166,90.382139 H 88.587327"
       style="fill:none;stroke:#17282f;stroke-width:0.196637;stroke-linecap:butt;stroke-linejoin:miter;stroke-miterlimit:10;stroke-dasharray:none;stroke-opacity:1"
       id="path264" />
    <path
       d="M 90.667166,94.144803 H 88.587327"
       style="fill:none;stroke:#17282f;stroke-width:0.196637;stroke-linecap:butt;stroke-linejoin:miter;stroke-miterlimit:10;stroke-dasharray:none;stroke-opacity:1"
       id="path266" />
    <path
       d="M 90.667166,97.907668 H 88.587327"
       style="fill:none;stroke:#17282f;stroke-width:0.196637;stroke-linecap:butt;stroke-linejoin:miter;stroke-miterlimit:10;stroke-dasharray:none;stroke-opacity:1"
       id="path268" />
    <path
       d="M 90.667166,101.67053 H 88.587327"
       style="fill:none;stroke:#17282f;stroke-width:0.196637;stroke-linecap:butt;stroke-linejoin:miter;stroke-miterlimit:10;stroke-dasharray:none;stroke-opacity:1"
       id="path270" />
    <path
       d="M 90.667166,91.293162 H 89.627344"
       style="fill:none;stroke:#17282f;stroke-width:0.196637;stroke-linecap:butt;stroke-linejoin:miter;stroke-miterlimit:10;stroke-dasharray:none;stroke-opacity:1"
       id="path272" />
    <path
       d="M 90.667166,92.240762 H 89.627344"
       style="fill:none;stroke:#17282f;stroke-width:0.196637;stroke-linecap:butt;stroke-linejoin:miter;stroke-miterlimit:10;stroke-dasharray:none;stroke-opacity:1"
       id="path274" />
    <path
       d="M 90.667166,93.187967 H 89.627344"
       style="fill:none;stroke:#17282f;stroke-width:0.196637;stroke-linecap:butt;stroke-linejoin:miter;stroke-miterlimit:10;stroke-dasharray:none;stroke-opacity:1"
       id="path276" />
    <path
       d="M 90.667166,95.077258 H 89.627344"
       style="fill:none;stroke:#17282f;stroke-width:0.196637;stroke-linecap:butt;stroke-linejoin:miter;stroke-miterlimit:10;stroke-dasharray:none;stroke-opacity:1"
       id="path278" />
    <path
       d="M 90.667166,96.024485 H 89.627344"
       style="fill:none;stroke:#17282f;stroke-width:0.196637;stroke-linecap:butt;stroke-linejoin:miter;stroke-miterlimit:10;stroke-dasharray:none;stroke-opacity:1"
       id="path280" />
    <path
       d="M 90.667166,96.971868 H 89.627344"
       style="fill:none;stroke:#17282f;stroke-width:0.196637;stroke-linecap:butt;stroke-linejoin:miter;stroke-miterlimit:10;stroke-dasharray:none;stroke-opacity:1"
       id="path282" />
    <path
       d="M 90.667166,98.860987 H 89.627344"
       style="fill:none;stroke:#17282f;stroke-width:0.196637;stroke-linecap:butt;stroke-linejoin:miter;stroke-miterlimit:10;stroke-dasharray:none;stroke-opacity:1"
       id="path284" />
    <path
       d="M 90.667166,99.808369 H 89.627344"
       style="fill:none;stroke:#17282f;stroke-width:0.196637;stroke-linecap:butt;stroke-linejoin:miter;stroke-miterlimit:10;stroke-dasharray:none;stroke-opacity:1"
       id="path286" />
    <path
       d="M 90.667166,100.75577 H 89.627344"
       style="fill:none;stroke:#17282f;stroke-width:0.196637;stroke-linecap:butt;stroke-linejoin:miter;stroke-miterlimit:10;stroke-dasharray:none;stroke-opacity:1"
       id="path288" />
    <path
       d="m 97.836189,93.705121 v -3.078953 h -2.402718 v 3.078953 l -4.473905,8.620209 c -0.291023,0.56082 0.115822,1.23039 0.747617,1.23039 h 9.855297 c 0.63179,0 1.03864,-0.66957 0.74761,-1.23039 l -4.473901,-8.620209"
       style="fill:#f6f6f4;fill-opacity:1;fill-rule:nonzero;stroke:none;stroke-width:0.0196637"
       id="path290" />
    <path
       d="m 97.836189,93.705121 v -3.078953 h -2.402718 v 3.078953 l -4.473905,8.620209 c -0.291023,0.56082 0.115822,1.23039 0.747617,1.23039 h 9.855297 c 0.63179,0 1.03864,-0.66957 0.74761,-1.23039 z"
       style="fill:none;stroke:#273d47;stroke-width:0.196637;stroke-linecap:butt;stroke-linejoin:miter;stroke-miterlimit:10;stroke-dasharray:none;stroke-opacity:1"
       id="path292" />
    <path
       d="m 100.51459,102.78706 h -7.760116 c -0.496704,0 -0.818796,-0.52686 -0.588139,-0.96791 l 2.722446,-5.244312 h 3.493469 l 2.72245,5.244312 c 0.2285,0.44105 -0.0914,0.96791 -0.59011,0.96791"
       style="fill:#9ac0e9;fill-opacity:1;fill-rule:nonzero;stroke:none;stroke-width:0.0196637"
       id="path294" />
    <path
       d="m 95.346556,98.570944 c -1.005803,0 -1.006194,1.560896 0,1.560896 1.005804,0 1.0062,-1.560896 0,-1.560896"
       style="fill:#79a7dc;fill-opacity:1;fill-rule:nonzero;stroke:none;stroke-width:0.0196637"
       id="path296" />
    <path
       d="m 97.450781,97.255377 c -0.628456,0 -0.628651,0.975526 0,0.975526 0.628651,0 0.628846,-0.975526 0,-0.975526"
       style="fill:#79a7dc;fill-opacity:1;fill-rule:nonzero;stroke:none;stroke-width:0.0196637"
       id="path298" />
    <path
       d="m 97.665508,99.672119 c -1.508605,0 -1.509196,2.341131 0,2.341131 1.508605,0 1.509196,-2.341131 0,-2.341131"
       style="fill:#79a7dc;fill-opacity:1;fill-rule:nonzero;stroke:none;stroke-width:0.0196637"
       id="path300" />
    <path
       d="m 107.84348,95.115607 v -5.70643 h -2.72815 v 5.706626 c -2.06234,0.592291 -3.5735,2.491382 -3.5735,4.745029 0,1.470868 0.643,2.790348 1.66356,3.694888 h 6.55 c 1.01879,-0.90454 1.66159,-2.22402 1.66159,-3.694888 0,-2.253803 -1.50998,-4.153128 -3.5735,-4.745225"
       style="fill:#f6f6f4;fill-opacity:1;fill-rule:nonzero;stroke:none;stroke-width:0.0196637"
       id="path302" />
    <path
       d="m 107.84348,95.115607 v -5.70643 h -2.72815 v 5.706626 c -2.06234,0.592291 -3.5735,2.491382 -3.5735,4.745029 0,1.470868 0.643,2.790348 1.66356,3.694888 h 6.55 c 1.01879,-0.90454 1.66159,-2.22402 1.66159,-3.694888 0,-2.253803 -1.50998,-4.153128 -3.5735,-4.745225 z"
       style="fill:none;stroke:#273d47;stroke-width:0.196637;stroke-linecap:butt;stroke-linejoin:miter;stroke-miterlimit:10;stroke-dasharray:none;stroke-opacity:1"
       id="path304" />
    <path
       d="m 110.38227,99.846479 c 0,1.172211 -0.51243,2.223771 -1.32416,2.944651 h -5.21994 c -0.8133,-0.72088 -1.32574,-1.77244 -1.32574,-2.944651 0,-2.173242 1.76306,-3.934689 3.93493,-3.934689 2.17343,0 3.93491,1.761447 3.93491,3.934689"
       style="fill:#9ac0e9;fill-opacity:1;fill-rule:nonzero;stroke:none;stroke-width:0.0196637"
       id="path306" />
    <path
       d="m 105.31728,99.435916 c -1.38394,0 -1.38473,2.147664 0,2.147664 1.38393,0 1.38452,-2.147664 0,-2.147664"
       style="fill:#79a7dc;fill-opacity:1;fill-rule:nonzero;stroke:none;stroke-width:0.0196637"
       id="path308" />
    <path
       d="m 107.80042,97.743062 c -1.0058,0 -1.00619,1.560889 0,1.560889 1.0058,0 1.00619,-1.560889 0,-1.560889"
       style="fill:#79a7dc;fill-opacity:1;fill-rule:nonzero;stroke:none;stroke-width:0.0196637"
       id="path310" />
    <path
       d="m 105.91073,96.845054 c -0.50261,0 -0.503,0.780419 0,0.780419 0.503,0 0.50319,-0.780419 0,-0.780419"
       style="fill:#79a7dc;fill-opacity:1;fill-rule:nonzero;stroke:none;stroke-width:0.0196637"
       id="path312" />
    <path
       d="m 101.94788,97.793223 v -5.41796 h -1.94592 v 5.417725 c -1.589427,0.428534 -2.759223,1.875747 -2.759223,3.599712 0,0.80621 0.255629,1.55344 0.692362,2.16302 h 6.080041 c 0.43634,-0.60958 0.69197,-1.35681 0.69197,-2.16302 0,-1.723591 -1.17078,-3.170788 -2.75923,-3.599477"
       style="fill:#f6f6f4;fill-opacity:1;fill-rule:nonzero;stroke:none;stroke-width:0.0196637"
       id="path314" />
    <path
       d="m 101.94788,97.793223 v -5.41796 h -1.94592 v 5.417725 c -1.589427,0.428534 -2.759223,1.875747 -2.759223,3.599712 0,0.80621 0.255629,1.55344 0.692362,2.16302 h 6.080041 c 0.43634,-0.60958 0.69197,-1.35681 0.69197,-2.16302 0,-1.723591 -1.17078,-3.170788 -2.75923,-3.599477 z"
       style="fill:none;stroke:#273d47;stroke-width:0.196637;stroke-linecap:butt;stroke-linejoin:miter;stroke-miterlimit:10;stroke-dasharray:none;stroke-opacity:1"
       id="path316" />
    <path
       d="m 103.52021,101.31188 c 0,0.54974 -0.17443,1.05925 -0.47194,1.47518 h -4.146502 c -0.297707,-0.41593 -0.472122,-0.92544 -0.472122,-1.47518 0,-1.405565 1.138531,-2.5453 2.545474,-2.5453 1.40517,0 2.54509,1.139735 2.54509,2.5453"
       style="fill:#9ac0e9;fill-opacity:1;fill-rule:nonzero;stroke:none;stroke-width:0.0196637"
       id="path318" />
    <path
       d="m 100.21728,99.674421 c -0.628457,0 -0.628853,0.975579 0,0.975579 0.62845,0 0.62884,-0.975579 0,-0.975579"
       style="fill:#79a7dc;fill-opacity:1;fill-rule:nonzero;stroke:none;stroke-width:0.0196637"
       id="path320" />
    <path
       d="m 101.59138,100.81061 c -0.87976,0 -0.88015,1.36563 0,1.36563 0.88015,0 0.88055,-1.36563 0,-1.36563"
       style="fill:#79a7dc;fill-opacity:1;fill-rule:nonzero;stroke:none;stroke-width:0.0196637"
       id="path322" />
    <path
       d="m 54.084064,103.55572 h -1.179038 v -8.806842 h 1.179038 v 8.806842"
       style="fill:#f6f6f4;fill-opacity:1;fill-rule:nonzero;stroke:none;stroke-width:0.0196637"
       id="path324" />
    <path
       d="m 54.084064,103.55572 h -1.179038 v -8.806842 h 1.179038 z"
       style="fill:none;stroke:#273d47;stroke-width:0.196637;stroke-linecap:butt;stroke-linejoin:miter;stroke-miterlimit:10;stroke-dasharray:none;stroke-opacity:1"
       id="path326" />
    <path
       d="m 68.886377,103.55572 h -1.178848 v -8.806842 h 1.178848 v 8.806842"
       style="fill:#f6f6f4;fill-opacity:1;fill-rule:nonzero;stroke:none;stroke-width:0.0196637"
       id="path328" />
    <path
       d="m 68.886377,103.55572 h -1.178848 v -8.806842 h 1.178848 z"
       style="fill:none;stroke:#273d47;stroke-width:0.196637;stroke-linecap:butt;stroke-linejoin:miter;stroke-miterlimit:10;stroke-dasharray:none;stroke-opacity:1"
       id="path330" />
    <path
       d="m 56.395546,101.52342 v 0 c -0.687646,0 -1.245112,-0.55741 -1.245112,-1.24511 v -8.081203 h 2.490223 v 8.081203 c 0,0.6877 -0.557471,1.24511 -1.245111,1.24511"
       style="fill:#f6f6f4;fill-opacity:1;fill-rule:nonzero;stroke:none;stroke-width:0.0196637"
       id="path332" />
    <path
       d="m 56.395546,101.52342 v 0 c -0.687646,0 -1.245112,-0.55741 -1.245112,-1.24511 v -8.081203 h 2.490223 v 8.081203 c 0,0.6877 -0.557471,1.24511 -1.245111,1.24511 z"
       style="fill:none;stroke:#273d47;stroke-width:0.196637;stroke-linecap:butt;stroke-linejoin:miter;stroke-miterlimit:10;stroke-dasharray:none;stroke-opacity:1"
       id="path334" />
    <path
       d="m 56.395546,100.96792 v 0 c -0.392493,0 -0.71065,-0.31814 -0.71065,-0.71064 v -6.966869 h 1.421099 v 6.966869 c 0,0.3925 -0.317963,0.71064 -0.710449,0.71064"
       style="fill:#79a7dc;fill-opacity:1;fill-rule:nonzero;stroke:none;stroke-width:0.0196637"
       id="path336" />
    <path
       d="m 54.676734,92.197107 h 3.437428"
       style="fill:none;stroke:#273d47;stroke-width:0.196637;stroke-linecap:butt;stroke-linejoin:miter;stroke-miterlimit:10;stroke-dasharray:none;stroke-opacity:1"
       id="path338" />
    <path
       d="m 60.847032,101.52342 v 0 c -0.68764,0 -1.245112,-0.55741 -1.245112,-1.24511 v -8.081203 h 2.490224 v 8.081203 c 0,0.6877 -0.557472,1.24511 -1.245112,1.24511"
       style="fill:#f6f6f4;fill-opacity:1;fill-rule:nonzero;stroke:none;stroke-width:0.0196637"
       id="path340" />
    <path
       d="m 60.847032,101.52342 v 0 c -0.68764,0 -1.245112,-0.55741 -1.245112,-1.24511 v -8.081203 h 2.490224 v 8.081203 c 0,0.6877 -0.557472,1.24511 -1.245112,1.24511 z"
       style="fill:none;stroke:#273d47;stroke-width:0.196637;stroke-linecap:butt;stroke-linejoin:miter;stroke-miterlimit:10;stroke-dasharray:none;stroke-opacity:1"
       id="path342" />
    <path
       d="m 60.847032,100.96792 v 0 c -0.392487,0 -0.71065,-0.31814 -0.71065,-0.71064 v -1.795881 h 1.421105 v 1.795881 c 0,0.3925 -0.318163,0.71064 -0.710455,0.71064"
       style="fill:#79a7dc;fill-opacity:1;fill-rule:nonzero;stroke:none;stroke-width:0.0196637"
       id="path344" />
    <path
       d="m 59.128416,92.197107 h 3.437232"
       style="fill:none;stroke:#273d47;stroke-width:0.196637;stroke-linecap:butt;stroke-linejoin:miter;stroke-miterlimit:10;stroke-dasharray:none;stroke-opacity:1"
       id="path346" />
    <path
       d="m 65.298518,101.52342 v 0 c -0.687835,0 -1.245106,-0.55741 -1.245106,-1.24511 v -8.081203 h 2.490218 v 8.081203 c 0,0.6877 -0.557466,1.24511 -1.245112,1.24511"
       style="fill:#f6f6f4;fill-opacity:1;fill-rule:nonzero;stroke:none;stroke-width:0.0196637"
       id="path348" />
    <path
       d="m 65.298518,101.52342 v 0 c -0.687835,0 -1.245106,-0.55741 -1.245106,-1.24511 v -8.081203 h 2.490218 v 8.081203 c 0,0.6877 -0.557466,1.24511 -1.245112,1.24511 z"
       style="fill:none;stroke:#273d47;stroke-width:0.196637;stroke-linecap:butt;stroke-linejoin:miter;stroke-miterlimit:10;stroke-dasharray:none;stroke-opacity:1"
       id="path350" />
    <path
       d="m 65.298518,100.96792 v 0 c -0.392486,0 -0.710644,-0.31814 -0.710644,-0.71064 v -3.638809 h 1.421099 v 3.638809 c 0,0.3925 -0.318163,0.71064 -0.710455,0.71064"
       style="fill:#79a7dc;fill-opacity:1;fill-rule:nonzero;stroke:none;stroke-width:0.0196637"
       id="path352" />
    <path
       d="m 63.579707,92.197107 h 3.437428"
       style="fill:none;stroke:#273d47;stroke-width:0.196637;stroke-linecap:butt;stroke-linejoin:miter;stroke-miterlimit:10;stroke-dasharray:none;stroke-opacity:1"
       id="path354" />
    <path
       d="M 69.481796,95.91179 H 52.100382 v -1.162912 h 17.381414 v 1.162912"
       style="fill:#f6f6f4;fill-opacity:1;fill-rule:nonzero;stroke:none;stroke-width:0.0196637"
       id="path356" />
    <path
       d="M 69.481796,95.91179 H 52.100382 v -1.162912 h 17.381414 z"
       style="fill:none;stroke:#273d47;stroke-width:0.196637;stroke-linecap:butt;stroke-linejoin:miter;stroke-miterlimit:10;stroke-dasharray:none;stroke-opacity:1"
       id="path358" />
    <path
       d="M 69.481796,103.55572 H 52.100382 v -2.42557 h 17.381414 v 2.42557"
       style="fill:#f6f6f4;fill-opacity:1;fill-rule:nonzero;stroke:none;stroke-width:0.0196637"
       id="path360" />
    <path
       d="M 69.481796,103.55572 H 52.100382 v -2.42557 h 17.381414 z"
       style="fill:none;stroke:#273d47;stroke-width:0.196637;stroke-linecap:butt;stroke-linejoin:miter;stroke-miterlimit:10;stroke-dasharray:none;stroke-opacity:1"
       id="path362" />
    <path
       d="M 18.266872,101.75685 H 2.8553988 v 1.79887 H 18.266872 v -1.79887"
       style="fill:#273d47;fill-opacity:1;fill-rule:nonzero;stroke:none;stroke-width:0.0196637"
       id="path364" />
    <path
       d="m 15.275616,85.897024 v 0 c -0.859504,0 -1.556192,-0.696882 -1.556192,-1.556385 V 72.843416 h 3.112384 v 11.497223 c 0,0.859503 -0.696688,1.556385 -1.556192,1.556385"
       style="fill:#f6f6f4;fill-opacity:1;fill-rule:nonzero;stroke:none;stroke-width:0.0196637"
       id="path366" />
    <path
       d="m 15.275616,85.897024 v 0 c -0.859504,0 -1.556192,-0.696882 -1.556192,-1.556385 V 72.843416 h 3.112384 v 11.497223 c 0,0.859503 -0.696688,1.556385 -1.556192,1.556385 z"
       style="fill:none;stroke:#273d47;stroke-width:0.196637;stroke-linecap:butt;stroke-linejoin:miter;stroke-miterlimit:10;stroke-dasharray:none;stroke-opacity:1"
       id="path368" />
    <path
       d="m 15.275616,85.185394 v 0 c -0.5614,0 -1.016421,-0.455217 -1.016421,-1.016423 V 79.57158 h 2.032842 v 4.597391 c 0,0.561206 -0.455019,1.016423 -1.016421,1.016423"
       style="fill:#9ac0e9;fill-opacity:1;fill-rule:nonzero;stroke:none;stroke-width:0.0196637"
       id="path370" />
    <path
       d="M 2.8553988,75.672643 H 18.266872"
       style="fill:none;stroke:#17282f;stroke-width:0.196637;stroke-linecap:butt;stroke-linejoin:miter;stroke-miterlimit:10;stroke-dasharray:none;stroke-opacity:1"
       id="path372" />
    <path
       d="M 6.9764168,101.75685 V 68.172284"
       style="fill:none;stroke:#17282f;stroke-width:0.196637;stroke-linecap:butt;stroke-linejoin:miter;stroke-miterlimit:10;stroke-dasharray:none;stroke-opacity:1"
       id="path374" />
    <path
       d="m 9.2082568,75.672643 c 0,1.232721 -0.999236,2.232037 -2.23184,2.232037 -1.232664,0 -2.231918,-0.999316 -2.231918,-2.232037 0,-1.23272 0.999254,-2.231841 2.231918,-2.231841 1.232604,0 2.23184,0.999121 2.23184,2.231841"
       style="fill:#9ac0e9;fill-opacity:1;fill-rule:nonzero;stroke:none;stroke-width:0.0196637"
       id="path376" />
    <path
       d="m 8.4499018,75.672643 c 0,0.813886 -0.659738,1.473606 -1.473485,1.473606 -0.813806,0 -1.473545,-0.65972 -1.473545,-1.473606 0,-0.813885 0.659739,-1.473405 1.473545,-1.473405 0.813747,0 1.473485,0.65952 1.473485,1.473405 z"
       style="fill:none;stroke:#17282f;stroke-width:0.196637;stroke-linecap:butt;stroke-linejoin:miter;stroke-miterlimit:10;stroke-dasharray:none;stroke-opacity:1"
       id="path378" />
    <path
       d="m 18.266872,76.745697 h -5.982314 v -2.145912 h 5.982314 v 2.145912"
       style="fill:#273d47;fill-opacity:1;fill-rule:nonzero;stroke:none;stroke-width:0.0196637"
       id="path380" />
    <path
       d="m 12.805451,72.843416 h 4.940331"
       style="fill:none;stroke:#273d47;stroke-width:0.196637;stroke-linecap:butt;stroke-linejoin:miter;stroke-miterlimit:10;stroke-dasharray:none;stroke-opacity:1"
       id="path382" />
    <path
       d="m 65.964732,50.337427 c 0.290433,-0.122112 0.580866,-0.18543 0.871298,-0.231246 0.290438,-0.04307 0.580871,-0.06332 0.871499,-0.06371 0.290438,-4.42e-4 0.58087,0.01986 0.871303,0.06292 0.290433,0.04562 0.581066,0.109134 0.871303,0.232034 -0.290237,0.122898 -0.58087,0.186413 -0.871303,0.231836 -0.290433,0.04326 -0.580865,0.06351 -0.871303,0.06292 -0.290628,-1.47e-4 -0.581061,-0.02045 -0.871499,-0.06371 -0.290432,-0.04562 -0.580865,-0.108937 -0.871298,-0.231049"
       style="fill:#9ac0e9;fill-opacity:1;fill-rule:nonzero;stroke:none;stroke-width:0.0196637"
       id="path384" />
    <path
       d="m 67.707529,48.594625 c 0.121919,0.290435 0.185234,0.580868 0.231053,0.8715 0.04348,0.290433 0.06332,0.580867 0.06371,0.871302 5.57e-4,0.290434 -0.01984,0.580868 -0.06292,0.871302 -0.0456,0.290434 -0.109134,0.580868 -0.231839,0.871303 -0.122896,-0.290435 -0.186411,-0.580869 -0.232029,-0.871303 -0.04309,-0.290434 -0.06332,-0.580868 -0.06292,-0.871302 4.41e-4,-0.290435 0.02062,-0.580869 0.06371,-0.871302 0.04582,-0.290632 0.109133,-0.581065 0.231243,-0.8715"
       style="fill:#9ac0e9;fill-opacity:1;fill-rule:nonzero;stroke:none;stroke-width:0.0196637"
       id="path386" />
    <path
       d="m 116.11781,66.574406 c 0.29043,-0.122113 0.58106,-0.185431 0.87149,-0.23105 0.29044,-0.04346 0.58088,-0.06351 0.87131,-0.06391 0.29043,-4.42e-4 0.58106,0.01986 0.8713,0.06312 0.29063,0.04542 0.58087,0.108936 0.8715,0.231836 -0.29063,0.122702 -0.58087,0.186413 -0.8715,0.231836 -0.29024,0.04326 -0.58087,0.06351 -0.8713,0.06292 -0.29043,-4.42e-4 -0.58087,-0.02026 -0.87131,-0.06371 -0.29043,-0.04562 -0.58106,-0.108937 -0.87149,-0.231049"
       style="fill:#9ac0e9;fill-opacity:1;fill-rule:nonzero;stroke:none;stroke-width:0.0196637"
       id="path388" />
    <path
       d="m 117.86061,64.831605 c 0.12211,0.290434 0.18543,0.580867 0.23125,0.871498 0.0431,0.290434 0.0633,0.580868 0.0637,0.871303 4.4e-4,0.290433 -0.0198,0.581065 -0.0631,0.871302 -0.0454,0.29063 -0.10894,0.581065 -0.23184,0.871499 -0.1227,-0.290434 -0.18641,-0.580869 -0.23184,-0.871499 -0.0433,-0.290237 -0.0635,-0.580869 -0.0629,-0.871302 4.4e-4,-0.290435 0.0202,-0.580869 0.0637,-0.871303 0.0456,-0.290631 0.10914,-0.581064 0.23105,-0.871498"
       style="fill:#9ac0e9;fill-opacity:1;fill-rule:nonzero;stroke:none;stroke-width:0.0196637"
       id="path390" />
    <path
       d="m 93.713283,40.169676 c 0.290433,-0.122112 0.580866,-0.185429 0.871499,-0.231246 0.290237,-0.04306 0.580871,-0.06332 0.871108,-0.06371 0.290628,-4.42e-4 0.581066,0.01986 0.871498,0.06292 0.290433,0.04562 0.580866,0.109134 0.871499,0.232032 -0.290633,0.122898 -0.581066,0.186413 -0.871499,0.231836 -0.290432,0.04326 -0.58087,0.06351 -0.871498,0.06292 -0.290237,-1.47e-4 -0.580871,-0.02045 -0.871108,-0.06371 -0.290633,-0.04562 -0.581066,-0.109134 -0.871499,-0.23105"
       style="fill:#9ac0e9;fill-opacity:1;fill-rule:nonzero;stroke:none;stroke-width:0.0196637"
       id="path392" />
    <path
       d="m 95.45589,38.426875 c 0.122109,0.290434 0.185625,0.580867 0.231242,0.871498 0.04326,0.290434 0.06332,0.580869 0.06371,0.871303 4.46e-4,0.290433 -0.01968,0.580869 -0.06292,0.871302 -0.04543,0.290434 -0.109133,0.580869 -0.232028,0.871303 -0.122706,-0.290434 -0.186216,-0.580869 -0.231644,-0.871303 -0.04325,-0.290433 -0.06371,-0.580869 -0.06312,-0.871302 4.46e-4,-0.290434 0.02046,-0.580869 0.06371,-0.871303 0.04582,-0.290631 0.109133,-0.581064 0.231053,-0.871498"
       style="fill:#9ac0e9;fill-opacity:1;fill-rule:nonzero;stroke:none;stroke-width:0.0196637"
       id="path394" />
  </g>
</svg>
